<?xml version="1.0" encoding="UTF-8" standalone="no"?>
<!DOCTYPE svg PUBLIC "-//W3C//DTD SVG 1.1//EN"
 "http://www.w3.org/Graphics/SVG/1.1/DTD/svg11.dtd">
<!-- Generated by graphviz version 2.38.0 (20140413.2041)
 -->
<!-- Title: o2::emcal::Detector Pages: 1 -->
<!--zoomable 1456 -->
<svg id="main" version="1.1" xmlns="http://www.w3.org/2000/svg" xmlns:xlink="http://www.w3.org/1999/xlink" xml:space="preserve" onload="init(evt)">
<style type="text/css"><![CDATA[
.edge:hover path { stroke: red; }
.edge:hover polygon { stroke: red; fill: red; }
]]></style>
<script type="text/javascript"><![CDATA[
var edges = document.getElementsByTagName('g');
if (edges && edges.length) {
  for (var i=0;i<edges.length;i++) {
    if (edges[i].id.substr(0,4)=='edge') {
      edges[i].setAttribute('class','edge');
    }
  }
}
]]></script>
        <defs>
                <circle id="rim" cx="0" cy="0" r="7"/>
                <circle id="rim2" cx="0" cy="0" r="3.5"/>
                <g id="zoomPlus">
                        <use xlink:href="#rim" fill="#404040">
                                <set attributeName="fill" to="#808080" begin="zoomplus.mouseover" end="zoomplus.mouseout"/>
                        </use>
                        <path d="M-4,0h8M0,-4v8" fill="none" stroke="white" stroke-width="1.5" pointer-events="none"/>
                </g>
                <g id="zoomMin">
                        <use xlink:href="#rim" fill="#404040">
                                <set attributeName="fill" to="#808080" begin="zoomminus.mouseover" end="zoomminus.mouseout"/>
                        </use>
                        <path d="M-4,0h8" fill="none" stroke="white" stroke-width="1.5" pointer-events="none"/>
                </g>
                <g id="dirArrow">
                        <path fill="none" stroke="white" stroke-width="1.5" d="M0,-3.0v7 M-2.5,-0.5L0,-3.0L2.5,-0.5"/>
                </g>
               <g id="resetDef">
                       <use xlink:href="#rim2" fill="#404040">
                               <set attributeName="fill" to="#808080" begin="reset.mouseover" end="reset.mouseout"/>
                       </use>
               </g>
        </defs>

<script type="text/javascript">
var viewWidth = 752;
var viewHeight = 1456;
var sectionId = 'dynsection-1';
</script>
<script xlink:href="../../svgpan.js"/>
<svg id="graph" class="graph">
<g id="viewport">
<title>o2::emcal::Detector</title>
<!-- Node1 -->
<g id="node1" class="node"><title>Node1</title>
<polygon fill="#bfbfbf" stroke="black" points="220.23,-0.5 220.23,-310.5 382.23,-310.5 382.23,-0.5 220.23,-0.5"/>
<text text-anchor="middle" x="301.23" y="-298.5" font-family="Helvetica,sans-Serif" font-size="10.00">o2::emcal::Detector</text>
<polyline fill="none" stroke="black" points="220.23,-291.5 382.23,-291.5 "/>
<text text-anchor="middle" x="301.23" y="-279.5" font-family="Helvetica,sans-Serif" font-size="10.00"> </text>
<polyline fill="none" stroke="black" points="220.23,-272.5 382.23,-272.5 "/>
<text text-anchor="start" x="228.23" y="-260.5" font-family="Helvetica,sans-Serif" font-size="10.00">+ Detector()</text>
<text text-anchor="start" x="228.23" y="-249.5" font-family="Helvetica,sans-Serif" font-size="10.00">+ Detector()</text>
<text text-anchor="start" x="228.23" y="-238.5" font-family="Helvetica,sans-Serif" font-size="10.00">+ ~Detector()</text>
<text text-anchor="start" x="228.23" y="-227.5" font-family="Helvetica,sans-Serif" font-size="10.00">+ InitializeO2Detector()</text>
<text text-anchor="start" x="228.23" y="-216.5" font-family="Helvetica,sans-Serif" font-size="10.00">+ ProcessHits()</text>
<text text-anchor="start" x="228.23" y="-205.5" font-family="Helvetica,sans-Serif" font-size="10.00">+ AddHit()</text>
<text text-anchor="start" x="228.23" y="-194.5" font-family="Helvetica,sans-Serif" font-size="10.00">+ AddSuperparent()</text>
<text text-anchor="start" x="228.23" y="-183.5" font-family="Helvetica,sans-Serif" font-size="10.00">+ Register()</text>
<text text-anchor="start" x="228.23" y="-172.5" font-family="Helvetica,sans-Serif" font-size="10.00">+ getHits()</text>
<text text-anchor="start" x="228.23" y="-161.5" font-family="Helvetica,sans-Serif" font-size="10.00">+ Reset()</text>
<text text-anchor="start" x="228.23" y="-150.5" font-family="Helvetica,sans-Serif" font-size="10.00">+ EndOfEvent()</text>
<text text-anchor="start" x="228.23" y="-139.5" font-family="Helvetica,sans-Serif" font-size="10.00">+ GetGeometry()</text>
<text text-anchor="start" x="228.23" y="-128.5" font-family="Helvetica,sans-Serif" font-size="10.00">+ BeginPrimary()</text>
<text text-anchor="start" x="228.23" y="-117.5" font-family="Helvetica,sans-Serif" font-size="10.00">+ FinishPrimary()</text>
<text text-anchor="start" x="228.23" y="-106.5" font-family="Helvetica,sans-Serif" font-size="10.00"># CreateMaterials()</text>
<text text-anchor="start" x="228.23" y="-95.5" font-family="Helvetica,sans-Serif" font-size="10.00"># ConstructGeometry()</text>
<text text-anchor="start" x="228.23" y="-84.5" font-family="Helvetica,sans-Serif" font-size="10.00"># CreateEmcalEnvelope()</text>
<text text-anchor="start" x="228.23" y="-73.5" font-family="Helvetica,sans-Serif" font-size="10.00"># CreateShiskebabGeometry()</text>
<text text-anchor="start" x="228.23" y="-62.5" font-family="Helvetica,sans-Serif" font-size="10.00"># CreateSupermoduleGeometry()</text>
<text text-anchor="start" x="228.23" y="-51.5" font-family="Helvetica,sans-Serif" font-size="10.00"># CreateEmcalModuleGeometry()</text>
<text text-anchor="start" x="228.23" y="-40.5" font-family="Helvetica,sans-Serif" font-size="10.00"># CreateAlFrontPlate()</text>
<text text-anchor="start" x="228.23" y="-29.5" font-family="Helvetica,sans-Serif" font-size="10.00"># CreateEMCALVolume()</text>
<text text-anchor="start" x="228.23" y="-18.5" font-family="Helvetica,sans-Serif" font-size="10.00"># CalculateLightYield()</text>
<text text-anchor="start" x="228.23" y="-7.5" font-family="Helvetica,sans-Serif" font-size="10.00"># FindHit()</text>
</g>
<!-- Node2 -->
<g id="node2" class="node"><title>Node2</title>
<g id="a_node2"><a xlink:href="../../de/dc8/classo2_1_1base_1_1DetImpl.html" target="_top" xlink:title="{o2::base::DetImpl\&lt;\l Detector \&gt;\n||+ getHitBranchNames()\l+ updateHitTrackIndices()\l+ attachHits()\l+ mergeAndAdjustHits()\l+ mergeHitEntries()\l+ fillHitBranch()\l+ CloneModule()\l+ freeHitBuffers()\l+ setHits()\l+ createHitBuffers()\l+ initializeLate()\l+ BeginEvent()\l+ ~DetImpl()\l# ClassDefOverride()\l}">
<polygon fill="none" stroke="black" points="236.23,-348.5 236.23,-559.5 366.23,-559.5 366.23,-348.5 236.23,-348.5"/>
<text text-anchor="start" x="244.23" y="-547.5" font-family="Helvetica,sans-Serif" font-size="10.00">o2::base::DetImpl&lt;</text>
<text text-anchor="middle" x="301.23" y="-536.5" font-family="Helvetica,sans-Serif" font-size="10.00"> Detector &gt;</text>
<polyline fill="none" stroke="black" points="236.23,-529.5 366.23,-529.5 "/>
<text text-anchor="middle" x="301.23" y="-517.5" font-family="Helvetica,sans-Serif" font-size="10.00"> </text>
<polyline fill="none" stroke="black" points="236.23,-510.5 366.23,-510.5 "/>
<text text-anchor="start" x="244.23" y="-498.5" font-family="Helvetica,sans-Serif" font-size="10.00">+ getHitBranchNames()</text>
<text text-anchor="start" x="244.23" y="-487.5" font-family="Helvetica,sans-Serif" font-size="10.00">+ updateHitTrackIndices()</text>
<text text-anchor="start" x="244.23" y="-476.5" font-family="Helvetica,sans-Serif" font-size="10.00">+ attachHits()</text>
<text text-anchor="start" x="244.23" y="-465.5" font-family="Helvetica,sans-Serif" font-size="10.00">+ mergeAndAdjustHits()</text>
<text text-anchor="start" x="244.23" y="-454.5" font-family="Helvetica,sans-Serif" font-size="10.00">+ mergeHitEntries()</text>
<text text-anchor="start" x="244.23" y="-443.5" font-family="Helvetica,sans-Serif" font-size="10.00">+ fillHitBranch()</text>
<text text-anchor="start" x="244.23" y="-432.5" font-family="Helvetica,sans-Serif" font-size="10.00">+ CloneModule()</text>
<text text-anchor="start" x="244.23" y="-421.5" font-family="Helvetica,sans-Serif" font-size="10.00">+ freeHitBuffers()</text>
<text text-anchor="start" x="244.23" y="-410.5" font-family="Helvetica,sans-Serif" font-size="10.00">+ setHits()</text>
<text text-anchor="start" x="244.23" y="-399.5" font-family="Helvetica,sans-Serif" font-size="10.00">+ createHitBuffers()</text>
<text text-anchor="start" x="244.23" y="-388.5" font-family="Helvetica,sans-Serif" font-size="10.00">+ initializeLate()</text>
<text text-anchor="start" x="244.23" y="-377.5" font-family="Helvetica,sans-Serif" font-size="10.00">+ BeginEvent()</text>
<text text-anchor="start" x="244.23" y="-366.5" font-family="Helvetica,sans-Serif" font-size="10.00">+ ~DetImpl()</text>
<text text-anchor="start" x="244.23" y="-355.5" font-family="Helvetica,sans-Serif" font-size="10.00"># ClassDefOverride()</text>
</a>
</g>
</g>
<!-- Node2&#45;&gt;Node1 -->
<g id="edge1" class="edge"><title>Node2&#45;&gt;Node1</title>
<path fill="none" stroke="midnightblue" d="M301.23,-338.253C301.23,-329.133 301.23,-319.835 301.23,-310.507"/>
<polygon fill="none" stroke="midnightblue" points="297.73,-338.465 301.23,-348.465 304.73,-338.465 297.73,-338.465"/>
</g>
<!-- Node3 -->
<g id="node3" class="node"><title>Node3</title>
<g id="a_node3"><a xlink:href="../../d2/d00/classo2_1_1base_1_1Detector.html" target="_top" xlink:title="{o2::base::Detector\n||+ Detector()\l+ Detector()\l+ ~Detector()\l+ Material()\l+ Mixture()\l+ Medium()\l+ SpecialCuts()\l+ SpecialCut()\l+ SpecialProcesses()\l+ SpecialProcess()\l+ Matrix()\l+ SetSpecialPhysicsCuts()\l+ addAlignableVolumes()\l+ defineWrapperVolume()\l+ setNumberOfWrapperVolumes()\l+ defineLayer()\l+ defineLayerTurbo()\l+ getMaterialID()\l+ getMediumID()\l+ getMediumIDMappingAsVector()\l+ addNameTo()\l+ getHitBranchNames()\l+ updateHitTrackIndices()\l+ attachHits()\l+ fillHitBranch()\l+ mergeHitEntries()\l+ InitializeO2Detector()\l+ Initialize()\l+ initializeLate()\l+ registerSensitiveVolumeAnd\lGetVolID()\l+ registerSensitiveVolumeAnd\lGetVolID()\l+ GetCollection()\l+ setDensityFactor()\l+ getDensityFactor()\l+ initFieldTrackingParams()\l# Detector()\l# operator=()\l}">
<polygon fill="none" stroke="black" points="480.73,-877.5 480.73,-1352.5 647.73,-1352.5 647.73,-877.5 480.73,-877.5"/>
<text text-anchor="middle" x="564.23" y="-1340.5" font-family="Helvetica,sans-Serif" font-size="10.00">o2::base::Detector</text>
<polyline fill="none" stroke="black" points="480.73,-1333.5 647.73,-1333.5 "/>
<text text-anchor="middle" x="564.23" y="-1321.5" font-family="Helvetica,sans-Serif" font-size="10.00"> </text>
<polyline fill="none" stroke="black" points="480.73,-1314.5 647.73,-1314.5 "/>
<text text-anchor="start" x="488.73" y="-1302.5" font-family="Helvetica,sans-Serif" font-size="10.00">+ Detector()</text>
<text text-anchor="start" x="488.73" y="-1291.5" font-family="Helvetica,sans-Serif" font-size="10.00">+ Detector()</text>
<text text-anchor="start" x="488.73" y="-1280.5" font-family="Helvetica,sans-Serif" font-size="10.00">+ ~Detector()</text>
<text text-anchor="start" x="488.73" y="-1269.5" font-family="Helvetica,sans-Serif" font-size="10.00">+ Material()</text>
<text text-anchor="start" x="488.73" y="-1258.5" font-family="Helvetica,sans-Serif" font-size="10.00">+ Mixture()</text>
<text text-anchor="start" x="488.73" y="-1247.5" font-family="Helvetica,sans-Serif" font-size="10.00">+ Medium()</text>
<text text-anchor="start" x="488.73" y="-1236.5" font-family="Helvetica,sans-Serif" font-size="10.00">+ SpecialCuts()</text>
<text text-anchor="start" x="488.73" y="-1225.5" font-family="Helvetica,sans-Serif" font-size="10.00">+ SpecialCut()</text>
<text text-anchor="start" x="488.73" y="-1214.5" font-family="Helvetica,sans-Serif" font-size="10.00">+ SpecialProcesses()</text>
<text text-anchor="start" x="488.73" y="-1203.5" font-family="Helvetica,sans-Serif" font-size="10.00">+ SpecialProcess()</text>
<text text-anchor="start" x="488.73" y="-1192.5" font-family="Helvetica,sans-Serif" font-size="10.00">+ Matrix()</text>
<text text-anchor="start" x="488.73" y="-1181.5" font-family="Helvetica,sans-Serif" font-size="10.00">+ SetSpecialPhysicsCuts()</text>
<text text-anchor="start" x="488.73" y="-1170.5" font-family="Helvetica,sans-Serif" font-size="10.00">+ addAlignableVolumes()</text>
<text text-anchor="start" x="488.73" y="-1159.5" font-family="Helvetica,sans-Serif" font-size="10.00">+ defineWrapperVolume()</text>
<text text-anchor="start" x="488.73" y="-1148.5" font-family="Helvetica,sans-Serif" font-size="10.00">+ setNumberOfWrapperVolumes()</text>
<text text-anchor="start" x="488.73" y="-1137.5" font-family="Helvetica,sans-Serif" font-size="10.00">+ defineLayer()</text>
<text text-anchor="start" x="488.73" y="-1126.5" font-family="Helvetica,sans-Serif" font-size="10.00">+ defineLayerTurbo()</text>
<text text-anchor="start" x="488.73" y="-1115.5" font-family="Helvetica,sans-Serif" font-size="10.00">+ getMaterialID()</text>
<text text-anchor="start" x="488.73" y="-1104.5" font-family="Helvetica,sans-Serif" font-size="10.00">+ getMediumID()</text>
<text text-anchor="start" x="488.73" y="-1093.5" font-family="Helvetica,sans-Serif" font-size="10.00">+ getMediumIDMappingAsVector()</text>
<text text-anchor="start" x="488.73" y="-1082.5" font-family="Helvetica,sans-Serif" font-size="10.00">+ addNameTo()</text>
<text text-anchor="start" x="488.73" y="-1071.5" font-family="Helvetica,sans-Serif" font-size="10.00">+ getHitBranchNames()</text>
<text text-anchor="start" x="488.73" y="-1060.5" font-family="Helvetica,sans-Serif" font-size="10.00">+ updateHitTrackIndices()</text>
<text text-anchor="start" x="488.73" y="-1049.5" font-family="Helvetica,sans-Serif" font-size="10.00">+ attachHits()</text>
<text text-anchor="start" x="488.73" y="-1038.5" font-family="Helvetica,sans-Serif" font-size="10.00">+ fillHitBranch()</text>
<text text-anchor="start" x="488.73" y="-1027.5" font-family="Helvetica,sans-Serif" font-size="10.00">+ mergeHitEntries()</text>
<text text-anchor="start" x="488.73" y="-1016.5" font-family="Helvetica,sans-Serif" font-size="10.00">+ InitializeO2Detector()</text>
<text text-anchor="start" x="488.73" y="-1005.5" font-family="Helvetica,sans-Serif" font-size="10.00">+ Initialize()</text>
<text text-anchor="start" x="488.73" y="-994.5" font-family="Helvetica,sans-Serif" font-size="10.00">+ initializeLate()</text>
<text text-anchor="start" x="488.73" y="-983.5" font-family="Helvetica,sans-Serif" font-size="10.00">+ registerSensitiveVolumeAnd</text>
<text text-anchor="start" x="488.73" y="-972.5" font-family="Helvetica,sans-Serif" font-size="10.00">GetVolID()</text>
<text text-anchor="start" x="488.73" y="-961.5" font-family="Helvetica,sans-Serif" font-size="10.00">+ registerSensitiveVolumeAnd</text>
<text text-anchor="start" x="488.73" y="-950.5" font-family="Helvetica,sans-Serif" font-size="10.00">GetVolID()</text>
<text text-anchor="start" x="488.73" y="-939.5" font-family="Helvetica,sans-Serif" font-size="10.00">+ GetCollection()</text>
<text text-anchor="start" x="488.73" y="-928.5" font-family="Helvetica,sans-Serif" font-size="10.00">+ setDensityFactor()</text>
<text text-anchor="start" x="488.73" y="-917.5" font-family="Helvetica,sans-Serif" font-size="10.00">+ getDensityFactor()</text>
<text text-anchor="start" x="488.73" y="-906.5" font-family="Helvetica,sans-Serif" font-size="10.00">+ initFieldTrackingParams()</text>
<text text-anchor="start" x="488.73" y="-895.5" font-family="Helvetica,sans-Serif" font-size="10.00"># Detector()</text>
<text text-anchor="start" x="488.73" y="-884.5" font-family="Helvetica,sans-Serif" font-size="10.00"># operator=()</text>
</a>
</g>
</g>
<!-- Node3&#45;&gt;Node2 -->
<g id="edge2" class="edge"><title>Node3&#45;&gt;Node2</title>
<path fill="none" stroke="midnightblue" d="M640.141,-867.03C638.997,-856.871 637.069,-846.828 634.23,-837 600.69,-720.907 569.516,-697.313 489.23,-607 452.838,-566.063 404.695,-527.364 366.238,-499.259"/>
<polygon fill="none" stroke="midnightblue" points="636.674,-867.565 641.029,-877.224 643.648,-866.958 636.674,-867.565"/>
</g>
<!-- Node9 -->
<g id="node9" class="node"><title>Node9</title>
<g id="a_node9"><a xlink:href="../../de/dc8/classo2_1_1base_1_1DetImpl.html" target="_top" xlink:title="{o2::base::DetImpl\&lt;\l Det \&gt;\n||+ getHitBranchNames()\l+ updateHitTrackIndices()\l+ attachHits()\l+ mergeAndAdjustHits()\l+ mergeHitEntries()\l+ fillHitBranch()\l+ CloneModule()\l+ freeHitBuffers()\l+ setHits()\l+ createHitBuffers()\l+ initializeLate()\l+ BeginEvent()\l+ ~DetImpl()\l# ClassDefOverride()\l}">
<polygon fill="none" stroke="black" points="350.23,-607.5 350.23,-818.5 480.23,-818.5 480.23,-607.5 350.23,-607.5"/>
<text text-anchor="start" x="358.23" y="-806.5" font-family="Helvetica,sans-Serif" font-size="10.00">o2::base::DetImpl&lt;</text>
<text text-anchor="middle" x="415.23" y="-795.5" font-family="Helvetica,sans-Serif" font-size="10.00"> Det &gt;</text>
<polyline fill="none" stroke="black" points="350.23,-788.5 480.23,-788.5 "/>
<text text-anchor="middle" x="415.23" y="-776.5" font-family="Helvetica,sans-Serif" font-size="10.00"> </text>
<polyline fill="none" stroke="black" points="350.23,-769.5 480.23,-769.5 "/>
<text text-anchor="start" x="358.23" y="-757.5" font-family="Helvetica,sans-Serif" font-size="10.00">+ getHitBranchNames()</text>
<text text-anchor="start" x="358.23" y="-746.5" font-family="Helvetica,sans-Serif" font-size="10.00">+ updateHitTrackIndices()</text>
<text text-anchor="start" x="358.23" y="-735.5" font-family="Helvetica,sans-Serif" font-size="10.00">+ attachHits()</text>
<text text-anchor="start" x="358.23" y="-724.5" font-family="Helvetica,sans-Serif" font-size="10.00">+ mergeAndAdjustHits()</text>
<text text-anchor="start" x="358.23" y="-713.5" font-family="Helvetica,sans-Serif" font-size="10.00">+ mergeHitEntries()</text>
<text text-anchor="start" x="358.23" y="-702.5" font-family="Helvetica,sans-Serif" font-size="10.00">+ fillHitBranch()</text>
<text text-anchor="start" x="358.23" y="-691.5" font-family="Helvetica,sans-Serif" font-size="10.00">+ CloneModule()</text>
<text text-anchor="start" x="358.23" y="-680.5" font-family="Helvetica,sans-Serif" font-size="10.00">+ freeHitBuffers()</text>
<text text-anchor="start" x="358.23" y="-669.5" font-family="Helvetica,sans-Serif" font-size="10.00">+ setHits()</text>
<text text-anchor="start" x="358.23" y="-658.5" font-family="Helvetica,sans-Serif" font-size="10.00">+ createHitBuffers()</text>
<text text-anchor="start" x="358.23" y="-647.5" font-family="Helvetica,sans-Serif" font-size="10.00">+ initializeLate()</text>
<text text-anchor="start" x="358.23" y="-636.5" font-family="Helvetica,sans-Serif" font-size="10.00">+ BeginEvent()</text>
<text text-anchor="start" x="358.23" y="-625.5" font-family="Helvetica,sans-Serif" font-size="10.00">+ ~DetImpl()</text>
<text text-anchor="start" x="358.23" y="-614.5" font-family="Helvetica,sans-Serif" font-size="10.00"># ClassDefOverride()</text>
</a>
</g>
</g>
<!-- Node3&#45;&gt;Node9 -->
<g id="edge9" class="edge"><title>Node3&#45;&gt;Node9</title>
<path fill="none" stroke="midnightblue" d="M516.549,-867.579C512.744,-857.128 508.644,-846.89 504.23,-837 497.729,-822.438 489.331,-807.89 480.294,-794.161"/>
<polygon fill="none" stroke="midnightblue" points="513.329,-868.972 519.962,-877.234 519.929,-866.64 513.329,-868.972"/>
</g>
<!-- Node4 -->
<g id="node4" class="node"><title>Node4</title>
<g id="a_node4"><a xlink:href="../../d6/d0c/classFairDetector.html" target="_top" xlink:title="{FairDetector\n||}">
<polygon fill="none" stroke="black" points="528.73,-1390.5 528.73,-1447.5 599.73,-1447.5 599.73,-1390.5 528.73,-1390.5"/>
<text text-anchor="middle" x="564.23" y="-1435.5" font-family="Helvetica,sans-Serif" font-size="10.00">FairDetector</text>
<polyline fill="none" stroke="black" points="528.73,-1428.5 599.73,-1428.5 "/>
<text text-anchor="middle" x="564.23" y="-1416.5" font-family="Helvetica,sans-Serif" font-size="10.00"> </text>
<polyline fill="none" stroke="black" points="528.73,-1409.5 599.73,-1409.5 "/>
<text text-anchor="middle" x="564.23" y="-1397.5" font-family="Helvetica,sans-Serif" font-size="10.00"> </text>
</a>
</g>
</g>
<!-- Node4&#45;&gt;Node3 -->
<g id="edge3" class="edge"><title>Node4&#45;&gt;Node3</title>
<path fill="none" stroke="midnightblue" d="M564.23,-1380.23C564.23,-1372.01 564.23,-1362.74 564.23,-1352.72"/>
<polygon fill="none" stroke="midnightblue" points="560.73,-1380.4 564.23,-1390.4 567.73,-1380.4 560.73,-1380.4"/>
</g>
<!-- Node5 -->
<g id="node5" class="node"><title>Node5</title>
<g id="a_node5"><a xlink:href="../../d4/d34/classstatic_01constexpr_01int.html" target="_top" xlink:title="{static constexpr int\n||}">
<polygon fill="none" stroke="black" points="102.23,-684.5 102.23,-741.5 202.23,-741.5 202.23,-684.5 102.23,-684.5"/>
<text text-anchor="middle" x="152.23" y="-729.5" font-family="Helvetica,sans-Serif" font-size="10.00">static constexpr int</text>
<polyline fill="none" stroke="black" points="102.23,-722.5 202.23,-722.5 "/>
<text text-anchor="middle" x="152.23" y="-710.5" font-family="Helvetica,sans-Serif" font-size="10.00"> </text>
<polyline fill="none" stroke="black" points="102.23,-703.5 202.23,-703.5 "/>
<text text-anchor="middle" x="152.23" y="-691.5" font-family="Helvetica,sans-Serif" font-size="10.00"> </text>
</a>
</g>
</g>
<!-- Node5&#45;&gt;Node2 -->
<g id="edge4" class="edge"><title>Node5&#45;&gt;Node2</title>
<path fill="none" stroke="#404040" d="M144.966,-684.314C139.088,-656.111 134.152,-611.833 150.23,-578 166.262,-544.262 196.578,-516.737 225.863,-496.345"/>
<polygon fill="none" stroke="#404040" points="226.193,-496.123 228.943,-489.457 236.154,-489.431 233.404,-496.098 226.193,-496.123"/>
<text text-anchor="middle" x="190.23" y="-581" font-family="Helvetica,sans-Serif" font-size="10.00"> #NHITBUFFERS</text>
</g>
<!-- Node6 -->
<g id="node6" class="node"><title>Node6</title>
<polygon fill="none" stroke="#bfbfbf" points="121.73,-1086.5 121.73,-1143.5 162.73,-1143.5 162.73,-1086.5 121.73,-1086.5"/>
<text text-anchor="middle" x="142.23" y="-1131.5" font-family="Helvetica,sans-Serif" font-size="10.00">bool *</text>
<polyline fill="none" stroke="#bfbfbf" points="121.73,-1124.5 162.73,-1124.5 "/>
<text text-anchor="middle" x="142.23" y="-1112.5" font-family="Helvetica,sans-Serif" font-size="10.00"> </text>
<polyline fill="none" stroke="#bfbfbf" points="121.73,-1105.5 162.73,-1105.5 "/>
<text text-anchor="middle" x="142.23" y="-1093.5" font-family="Helvetica,sans-Serif" font-size="10.00"> </text>
</g>
<!-- Node6&#45;&gt;Node2 -->
<g id="edge5" class="edge"><title>Node6&#45;&gt;Node2</title>
<path fill="none" stroke="#404040" d="M123.535,-1086.31C72.0591,-1006.32 -61.8183,-770.179 33.2296,-607 74.0987,-536.836 160.733,-496.437 224.487,-475.174"/>
<polygon fill="none" stroke="#404040" points="224.689,-475.109 229.171,-469.459 236.109,-471.423 231.627,-477.073 224.689,-475.109"/>
<text text-anchor="middle" x="63.2296" y="-710.5" font-family="Helvetica,sans-Serif" font-size="10.00"> #mShmBusy</text>
</g>
<!-- Node6&#45;&gt;Node9 -->
<g id="edge10" class="edge"><title>Node6&#45;&gt;Node9</title>
<path fill="none" stroke="#404040" d="M151.328,-1086.29C169.722,-1033.35 215.437,-916.062 283.23,-837 292.142,-826.606 297.758,-827.82 308.23,-819 319.194,-809.765 330.393,-799.644 341.218,-789.445"/>
<polygon fill="none" stroke="#404040" points="341.523,-789.155 343.108,-782.12 350.211,-780.877 348.626,-787.912 341.523,-789.155"/>
<text text-anchor="middle" x="313.23" y="-845.5" font-family="Helvetica,sans-Serif" font-size="10.00"> #mShmBusy</text>
</g>
<!-- Node7 -->
<g id="node7" class="node"><title>Node7</title>
<polygon fill="none" stroke="#bfbfbf" points="672.73,-1086.5 672.73,-1143.5 701.73,-1143.5 701.73,-1086.5 672.73,-1086.5"/>
<text text-anchor="middle" x="687.23" y="-1131.5" font-family="Helvetica,sans-Serif" font-size="10.00">int</text>
<polyline fill="none" stroke="#bfbfbf" points="672.73,-1124.5 701.73,-1124.5 "/>
<text text-anchor="middle" x="687.23" y="-1112.5" font-family="Helvetica,sans-Serif" font-size="10.00"> </text>
<polyline fill="none" stroke="#bfbfbf" points="672.73,-1105.5 701.73,-1105.5 "/>
<text text-anchor="middle" x="687.23" y="-1093.5" font-family="Helvetica,sans-Serif" font-size="10.00"> </text>
</g>
<!-- Node7&#45;&gt;Node2 -->
<g id="edge6" class="edge"><title>Node7&#45;&gt;Node2</title>
<path fill="none" stroke="#404040" d="M689.147,-1086.39C693.38,-1003.54 694.858,-753.73 573.23,-607 521.987,-545.181 438.723,-503.949 377.799,-480.213"/>
<polygon fill="none" stroke="#404040" points="377.527,-480.11 370.497,-481.714 366.312,-475.841 373.343,-474.237 377.527,-480.11"/>
<text text-anchor="middle" x="706.23" y="-716" font-family="Helvetica,sans-Serif" font-size="10.00"> #mCurrentBuffer</text>
<text text-anchor="middle" x="706.23" y="-705" font-family="Helvetica,sans-Serif" font-size="10.00">#mInitialized</text>
</g>
<!-- Node7&#45;&gt;Node9 -->
<g id="edge11" class="edge"><title>Node7&#45;&gt;Node9</title>
<path fill="none" stroke="#404040" d="M692.152,-1086.29C699.061,-1038 705.776,-937.795 656.23,-877 640.779,-858.042 625.764,-870.592 604.23,-859 563.96,-837.322 523.214,-807.316 489.917,-780.222"/>
<polygon fill="none" stroke="#404040" points="489.549,-779.919 482.374,-779.195 480.282,-772.294 487.457,-773.017 489.549,-779.919"/>
<text text-anchor="middle" x="642.23" y="-851" font-family="Helvetica,sans-Serif" font-size="10.00"> #mCurrentBuffer</text>
<text text-anchor="middle" x="642.23" y="-840" font-family="Helvetica,sans-Serif" font-size="10.00">#mInitialized</text>
</g>
<!-- Node8 -->
<g id="node8" class="node"><title>Node8</title>
<polygon fill="none" stroke="#bfbfbf" points="299.23,-1086.5 299.23,-1143.5 385.23,-1143.5 385.23,-1086.5 299.23,-1086.5"/>
<text text-anchor="middle" x="342.23" y="-1131.5" font-family="Helvetica,sans-Serif" font-size="10.00">vector&lt; void * &gt;</text>
<polyline fill="none" stroke="#bfbfbf" points="299.23,-1124.5 385.23,-1124.5 "/>
<text text-anchor="middle" x="342.23" y="-1112.5" font-family="Helvetica,sans-Serif" font-size="10.00"> </text>
<polyline fill="none" stroke="#bfbfbf" points="299.23,-1105.5 385.23,-1105.5 "/>
<text text-anchor="middle" x="342.23" y="-1093.5" font-family="Helvetica,sans-Serif" font-size="10.00"> </text>
</g>
<!-- Node8&#45;&gt;Node2 -->
<g id="edge7" class="edge"><title>Node8&#45;&gt;Node2</title>
<path fill="none" stroke="#404040" d="M330.779,-1086.33C312.369,-1040.19 276.963,-944.163 264.23,-859 256.906,-810.017 218.423,-1156.92 277.23,-607 278.442,-595.663 279.917,-583.883 281.533,-572.12"/>
<polygon fill="none" stroke="#404040" points="281.583,-571.771 278.463,-565.27 283.264,-559.889 286.384,-566.391 281.583,-571.771"/>
<text text-anchor="middle" x="309.23" y="-710.5" font-family="Helvetica,sans-Serif" font-size="10.00"> #mCachedPtr</text>
</g>
<!-- Node8&#45;&gt;Node9 -->
<g id="edge12" class="edge"><title>Node8&#45;&gt;Node9</title>
<path fill="none" stroke="#404040" d="M339.322,-1086.3C334.872,-1035.78 329.131,-925.714 352.23,-837 352.794,-834.831 353.402,-832.656 354.048,-830.478"/>
<polygon fill="none" stroke="#404040" points="354.126,-830.24 352.188,-823.294 357.853,-818.833 359.792,-825.779 354.126,-830.24"/>
<text text-anchor="middle" x="384.23" y="-845.5" font-family="Helvetica,sans-Serif" font-size="10.00"> #mCachedPtr</text>
</g>
<!-- Node9&#45;&gt;Node2 -->
<g id="edge8" class="edge"><title>Node9&#45;&gt;Node2</title>
<path fill="none" stroke="orange" d="M364.758,-598.218C359.097,-585.456 353.349,-572.498 347.742,-559.856"/>
<polygon fill="orange" stroke="orange" points="361.607,-599.746 368.861,-607.468 368.006,-596.908 361.607,-599.746"/>
<text text-anchor="middle" x="387.73" y="-581" font-family="Helvetica,sans-Serif" font-size="10.00"> &lt; Detector &gt;</text>
</g>
<!-- Node10 -->
<g id="node10" class="node"><title>Node10</title>
<polygon fill="none" stroke="#bfbfbf" points="408.73,-1086.5 408.73,-1143.5 449.73,-1143.5 449.73,-1086.5 408.73,-1086.5"/>
<text text-anchor="middle" x="429.23" y="-1131.5" font-family="Helvetica,sans-Serif" font-size="10.00">static</text>
<polyline fill="none" stroke="#bfbfbf" points="408.73,-1124.5 449.73,-1124.5 "/>
<text text-anchor="middle" x="429.23" y="-1112.5" font-family="Helvetica,sans-Serif" font-size="10.00"> </text>
<polyline fill="none" stroke="#bfbfbf" points="408.73,-1105.5 449.73,-1105.5 "/>
<text text-anchor="middle" x="429.23" y="-1093.5" font-family="Helvetica,sans-Serif" font-size="10.00"> </text>
</g>
<!-- Node10&#45;&gt;Node9 -->
<g id="edge13" class="edge"><title>Node10&#45;&gt;Node9</title>
<path fill="none" stroke="#404040" d="M428.256,-1086.19C426.433,-1034.1 422.409,-919.123 419.312,-830.647"/>
<polygon fill="none" stroke="#404040" points="419.311,-830.616 415.104,-824.76 418.891,-818.623 423.099,-824.48 419.311,-830.616"/>
<text text-anchor="middle" x="460.23" y="-845.5" font-family="Helvetica,sans-Serif" font-size="10.00"> #NHITBUFFERS</text>
</g>
</g>
</svg>
        <g id="navigator" transform="translate(0 0)" fill="#404254">
                <rect fill="#f2f5e9" fill-opacity="0.5" stroke="#606060" stroke-width=".5" x="0" y="0" width="60" height="60"/>
                <use id="zoomplus" xlink:href="#zoomPlus" x="17" y="9" onmousedown="handleZoom(evt,'in')"/>
                <use id="zoomminus" xlink:href="#zoomMin" x="42" y="9" onmousedown="handleZoom(evt,'out')"/>
                <use id="reset" xlink:href="#resetDef" x="30" y="36" onmousedown="handleReset()"/>
                <g id="arrowUp" xlink:href="#dirArrow" transform="translate(30 24)" onmousedown="handlePan(0,-1)">
                  <use xlink:href="#rim" fill="#404040">
                        <set attributeName="fill" to="#808080" begin="arrowUp.mouseover" end="arrowUp.mouseout"/>
                  </use>
                  <path fill="none" stroke="white" stroke-width="1.5" d="M0,-3.0v7 M-2.5,-0.5L0,-3.0L2.5,-0.5"/>
                </g>
                <g id="arrowRight" xlink:href="#dirArrow" transform="rotate(90) translate(36 -43)" onmousedown="handlePan(1,0)">
                  <use xlink:href="#rim" fill="#404040">
                        <set attributeName="fill" to="#808080" begin="arrowRight.mouseover" end="arrowRight.mouseout"/>
                  </use>
                  <path fill="none" stroke="white" stroke-width="1.5" d="M0,-3.0v7 M-2.5,-0.5L0,-3.0L2.5,-0.5"/>
                </g>
                <g id="arrowDown" xlink:href="#dirArrow" transform="rotate(180) translate(-30 -48)" onmousedown="handlePan(0,1)">
                  <use xlink:href="#rim" fill="#404040">
                        <set attributeName="fill" to="#808080" begin="arrowDown.mouseover" end="arrowDown.mouseout"/>
                  </use>
                  <path fill="none" stroke="white" stroke-width="1.5" d="M0,-3.0v7 M-2.5,-0.5L0,-3.0L2.5,-0.5"/>
                </g>
                <g id="arrowLeft" xlink:href="#dirArrow" transform="rotate(270) translate(-36 17)" onmousedown="handlePan(-1,0)">
                  <use xlink:href="#rim" fill="#404040">
                        <set attributeName="fill" to="#808080" begin="arrowLeft.mouseover" end="arrowLeft.mouseout"/>
                  </use>
                  <path fill="none" stroke="white" stroke-width="1.5" d="M0,-3.0v7 M-2.5,-0.5L0,-3.0L2.5,-0.5"/>
                </g>
        </g>
        <svg viewBox="0 0 15 15" width="100%" height="30px" preserveAspectRatio="xMaxYMin meet">
         <g id="arrow_out" transform="scale(0.3 0.3)">
          <a xlink:href="classo2_1_1emcal_1_1Detector__coll__graph_org.svg" target="_base">
           <rect id="button" ry="5" rx="5" y="6" x="6" height="38" width="38"
                fill="#f2f5e9" fill-opacity="0.5" stroke="#606060" stroke-width="1.0"/>
           <path id="arrow"
             d="M 11.500037,31.436501 C 11.940474,20.09759 22.043105,11.32322 32.158766,21.979434 L 37.068811,17.246167 C 37.068811,17.246167 37.088388,32 37.088388,32 L 22.160133,31.978069 C 22.160133,31.978069 26.997745,27.140456 26.997745,27.140456 C 18.528582,18.264221 13.291696,25.230495 11.500037,31.436501 z"
             style="fill:#404040;"/>
          </a>
         </g>
        </svg>
</svg>
