<?xml version="1.0" encoding="UTF-8" standalone="no"?>
<!DOCTYPE svg PUBLIC "-//W3C//DTD SVG 1.1//EN"
 "http://www.w3.org/Graphics/SVG/1.1/DTD/svg11.dtd">
<!-- Generated by graphviz version 2.38.0 (20140413.2041)
 -->
<!-- Title: o2::framework::DataSamplingHeader Pages: 1 -->
<!--zoomable 1047 -->
<svg id="main" version="1.1" xmlns="http://www.w3.org/2000/svg" xmlns:xlink="http://www.w3.org/1999/xlink" xml:space="preserve" onload="init(evt)">
<style type="text/css"><![CDATA[
.edge:hover path { stroke: red; }
.edge:hover polygon { stroke: red; fill: red; }
]]></style>
<script type="text/javascript"><![CDATA[
var edges = document.getElementsByTagName('g');
if (edges && edges.length) {
  for (var i=0;i<edges.length;i++) {
    if (edges[i].id.substr(0,4)=='edge') {
      edges[i].setAttribute('class','edge');
    }
  }
}
]]></script>
        <defs>
                <circle id="rim" cx="0" cy="0" r="7"/>
                <circle id="rim2" cx="0" cy="0" r="3.5"/>
                <g id="zoomPlus">
                        <use xlink:href="#rim" fill="#404040">
                                <set attributeName="fill" to="#808080" begin="zoomplus.mouseover" end="zoomplus.mouseout"/>
                        </use>
                        <path d="M-4,0h8M0,-4v8" fill="none" stroke="white" stroke-width="1.5" pointer-events="none"/>
                </g>
                <g id="zoomMin">
                        <use xlink:href="#rim" fill="#404040">
                                <set attributeName="fill" to="#808080" begin="zoomminus.mouseover" end="zoomminus.mouseout"/>
                        </use>
                        <path d="M-4,0h8" fill="none" stroke="white" stroke-width="1.5" pointer-events="none"/>
                </g>
                <g id="dirArrow">
                        <path fill="none" stroke="white" stroke-width="1.5" d="M0,-3.0v7 M-2.5,-0.5L0,-3.0L2.5,-0.5"/>
                </g>
               <g id="resetDef">
                       <use xlink:href="#rim2" fill="#404040">
                               <set attributeName="fill" to="#808080" begin="reset.mouseover" end="reset.mouseout"/>
                       </use>
               </g>
        </defs>

<script type="text/javascript">
var viewWidth = 1375;
var viewHeight = 1047;
var sectionId = 'dynsection-1';
</script>
<script xlink:href="../../svgpan.js"/>
<svg id="graph" class="graph">
<g id="viewport">
<title>o2::framework::DataSamplingHeader</title>
<!-- Node1 -->
<g id="node1" class="node"><title>Node1</title>
<polygon fill="#bfbfbf" stroke="black" points="1051.06,-0.5 1051.06,-112.5 1197.06,-112.5 1197.06,-0.5 1051.06,-0.5"/>
<text text-anchor="start" x="1059.06" y="-100.5" font-family="Helvetica,sans-Serif" font-size="10.00">o2::framework::DataSampling</text>
<text text-anchor="middle" x="1124.06" y="-89.5" font-family="Helvetica,sans-Serif" font-size="10.00">Header</text>
<polyline fill="none" stroke="black" points="1051.06,-82.5 1197.06,-82.5 "/>
<text text-anchor="middle" x="1124.06" y="-70.5" font-family="Helvetica,sans-Serif" font-size="10.00"> </text>
<polyline fill="none" stroke="black" points="1051.06,-63.5 1197.06,-63.5 "/>
<text text-anchor="start" x="1059.06" y="-51.5" font-family="Helvetica,sans-Serif" font-size="10.00">+ DataSamplingHeader()</text>
<text text-anchor="start" x="1059.06" y="-40.5" font-family="Helvetica,sans-Serif" font-size="10.00">+ DataSamplingHeader()</text>
<text text-anchor="start" x="1059.06" y="-29.5" font-family="Helvetica,sans-Serif" font-size="10.00">+ DataSamplingHeader()</text>
<text text-anchor="start" x="1059.06" y="-18.5" font-family="Helvetica,sans-Serif" font-size="10.00">+ operator=()</text>
<text text-anchor="start" x="1059.06" y="-7.5" font-family="Helvetica,sans-Serif" font-size="10.00">+ Get()</text>
</g>
<!-- Node2 -->
<g id="node2" class="node"><title>Node2</title>
<g id="a_node2"><a xlink:href="../../d8/dbd/structo2_1_1header_1_1BaseHeader.html" target="_top" xlink:title="the base header struct Every header type must begin (i.e. derive) with this. Don&#39;t use this struct di...">
<polygon fill="none" stroke="black" points="859.058,-160.5 859.058,-305.5 981.058,-305.5 981.058,-160.5 859.058,-160.5"/>
<text text-anchor="middle" x="920.058" y="-293.5" font-family="Helvetica,sans-Serif" font-size="10.00">o2::header::BaseHeader</text>
<polyline fill="none" stroke="black" points="859.058,-286.5 981.058,-286.5 "/>
<text text-anchor="middle" x="920.058" y="-274.5" font-family="Helvetica,sans-Serif" font-size="10.00"> </text>
<polyline fill="none" stroke="black" points="859.058,-267.5 981.058,-267.5 "/>
<text text-anchor="start" x="867.058" y="-255.5" font-family="Helvetica,sans-Serif" font-size="10.00">+ BaseHeader()</text>
<text text-anchor="start" x="867.058" y="-244.5" font-family="Helvetica,sans-Serif" font-size="10.00">+ BaseHeader()</text>
<text text-anchor="start" x="867.058" y="-233.5" font-family="Helvetica,sans-Serif" font-size="10.00">+ BaseHeader()</text>
<text text-anchor="start" x="867.058" y="-222.5" font-family="Helvetica,sans-Serif" font-size="10.00">+ size()</text>
<text text-anchor="start" x="867.058" y="-211.5" font-family="Helvetica,sans-Serif" font-size="10.00">+ data()</text>
<text text-anchor="start" x="867.058" y="-200.5" font-family="Helvetica,sans-Serif" font-size="10.00">+ next()</text>
<text text-anchor="start" x="867.058" y="-189.5" font-family="Helvetica,sans-Serif" font-size="10.00">+ next()</text>
<text text-anchor="start" x="867.058" y="-178.5" font-family="Helvetica,sans-Serif" font-size="10.00">+ get()</text>
<text text-anchor="start" x="867.058" y="-167.5" font-family="Helvetica,sans-Serif" font-size="10.00">+ get()</text>
</a>
</g>
</g>
<!-- Node2&#45;&gt;Node1 -->
<g id="edge1" class="edge"><title>Node2&#45;&gt;Node1</title>
<path fill="none" stroke="midnightblue" d="M988.921,-173.095C1011.8,-153.523 1037.18,-131.816 1059.71,-112.546"/>
<polygon fill="none" stroke="midnightblue" points="986.589,-170.484 981.265,-179.644 991.139,-175.804 986.589,-170.484"/>
</g>
<!-- Node3 -->
<g id="node3" class="node"><title>Node3</title>
<g id="a_node3"><a xlink:href="../../d9/db3/structo2_1_1header_1_1Descriptor.html" target="_top" xlink:title="{o2::header::Descriptor\l\&lt; gSizeHeaderDescriptionString \&gt;\n||+ Descriptor()\l+ Descriptor()\l+ Descriptor()\l+ Descriptor()\l+ operator=()\l+ operator ItgType()\l+ runtimeInit()\l+ operator==()\l+ operator==()\l+ operator\&lt;()\l+ operator!=()\l+ operator!=()\l+ as()\l+ print()\l}">
<polygon fill="none" stroke="black" points="648.058,-408.5 648.058,-619.5 814.058,-619.5 814.058,-408.5 648.058,-408.5"/>
<text text-anchor="start" x="656.058" y="-607.5" font-family="Helvetica,sans-Serif" font-size="10.00">o2::header::Descriptor</text>
<text text-anchor="middle" x="731.058" y="-596.5" font-family="Helvetica,sans-Serif" font-size="10.00">&lt; gSizeHeaderDescriptionString &gt;</text>
<polyline fill="none" stroke="black" points="648.058,-589.5 814.058,-589.5 "/>
<text text-anchor="middle" x="731.058" y="-577.5" font-family="Helvetica,sans-Serif" font-size="10.00"> </text>
<polyline fill="none" stroke="black" points="648.058,-570.5 814.058,-570.5 "/>
<text text-anchor="start" x="656.058" y="-558.5" font-family="Helvetica,sans-Serif" font-size="10.00">+ Descriptor()</text>
<text text-anchor="start" x="656.058" y="-547.5" font-family="Helvetica,sans-Serif" font-size="10.00">+ Descriptor()</text>
<text text-anchor="start" x="656.058" y="-536.5" font-family="Helvetica,sans-Serif" font-size="10.00">+ Descriptor()</text>
<text text-anchor="start" x="656.058" y="-525.5" font-family="Helvetica,sans-Serif" font-size="10.00">+ Descriptor()</text>
<text text-anchor="start" x="656.058" y="-514.5" font-family="Helvetica,sans-Serif" font-size="10.00">+ operator=()</text>
<text text-anchor="start" x="656.058" y="-503.5" font-family="Helvetica,sans-Serif" font-size="10.00">+ operator ItgType()</text>
<text text-anchor="start" x="656.058" y="-492.5" font-family="Helvetica,sans-Serif" font-size="10.00">+ runtimeInit()</text>
<text text-anchor="start" x="656.058" y="-481.5" font-family="Helvetica,sans-Serif" font-size="10.00">+ operator==()</text>
<text text-anchor="start" x="656.058" y="-470.5" font-family="Helvetica,sans-Serif" font-size="10.00">+ operator==()</text>
<text text-anchor="start" x="656.058" y="-459.5" font-family="Helvetica,sans-Serif" font-size="10.00">+ operator&lt;()</text>
<text text-anchor="start" x="656.058" y="-448.5" font-family="Helvetica,sans-Serif" font-size="10.00">+ operator!=()</text>
<text text-anchor="start" x="656.058" y="-437.5" font-family="Helvetica,sans-Serif" font-size="10.00">+ operator!=()</text>
<text text-anchor="start" x="656.058" y="-426.5" font-family="Helvetica,sans-Serif" font-size="10.00">+ as()</text>
<text text-anchor="start" x="656.058" y="-415.5" font-family="Helvetica,sans-Serif" font-size="10.00">+ print()</text>
</a>
</g>
</g>
<!-- Node3&#45;&gt;Node2 -->
<g id="edge2" class="edge"><title>Node3&#45;&gt;Node2</title>
<path fill="none" stroke="#404040" d="M784.059,-408.292C799.848,-380.1 818.048,-350.18 837.058,-324 841.443,-317.961 846.186,-311.886 851.107,-305.899"/>
<polygon fill="none" stroke="#404040" points="851.227,-305.755 852.034,-298.589 858.96,-296.578 858.152,-303.744 851.227,-305.755"/>
<text text-anchor="middle" x="865.558" y="-354.5" font-family="Helvetica,sans-Serif" font-size="10.00"> +description</text>
</g>
<!-- Node4 -->
<g id="node4" class="node"><title>Node4</title>
<polygon fill="none" stroke="#bfbfbf" points="263.058,-981.5 263.058,-1038.5 301.058,-1038.5 301.058,-981.5 263.058,-981.5"/>
<text text-anchor="middle" x="282.058" y="-1026.5" font-family="Helvetica,sans-Serif" font-size="10.00">Type</text>
<polyline fill="none" stroke="#bfbfbf" points="263.058,-1019.5 301.058,-1019.5 "/>
<text text-anchor="middle" x="282.058" y="-1007.5" font-family="Helvetica,sans-Serif" font-size="10.00"> </text>
<polyline fill="none" stroke="#bfbfbf" points="263.058,-1000.5 301.058,-1000.5 "/>
<text text-anchor="middle" x="282.058" y="-988.5" font-family="Helvetica,sans-Serif" font-size="10.00"> </text>
</g>
<!-- Node4&#45;&gt;Node3 -->
<g id="edge3" class="edge"><title>Node4&#45;&gt;Node3</title>
<path fill="none" stroke="#404040" d="M301.28,-1006.74C345.212,-1001.22 451.246,-985.83 478.058,-963 571.798,-883.182 484.813,-793.375 565.058,-700 576.977,-686.131 587.872,-693.54 602.058,-682 620.863,-666.701 638.566,-648.154 654.48,-629.059"/>
<polygon fill="none" stroke="#404040" points="654.564,-628.955 655.254,-621.777 662.145,-619.653 661.455,-626.831 654.564,-628.955"/>
<text text-anchor="middle" x="575.058" y="-803.5" font-family="Helvetica,sans-Serif" font-size="10.00"> +itg</text>
</g>
<!-- Node8 -->
<g id="node8" class="node"><title>Node8</title>
<g id="a_node8"><a xlink:href="../../d9/db3/structo2_1_1header_1_1Descriptor.html" target="_top" xlink:title="{o2::header::Descriptor\l\&lt; N, PrinterPolicy \&gt;\n||+ Descriptor()\l+ Descriptor()\l+ Descriptor()\l+ operator=()\l+ operator ItgType()\l+ Descriptor()\l+ runtimeInit()\l+ operator==()\l+ operator\&lt;()\l+ operator!=()\l+ operator==()\l+ operator!=()\l+ as()\l+ print()\l}">
<polygon fill="none" stroke="black" points="297.558,-700.5 297.558,-911.5 410.558,-911.5 410.558,-700.5 297.558,-700.5"/>
<text text-anchor="start" x="305.558" y="-899.5" font-family="Helvetica,sans-Serif" font-size="10.00">o2::header::Descriptor</text>
<text text-anchor="middle" x="354.058" y="-888.5" font-family="Helvetica,sans-Serif" font-size="10.00">&lt; N, PrinterPolicy &gt;</text>
<polyline fill="none" stroke="black" points="297.558,-881.5 410.558,-881.5 "/>
<text text-anchor="middle" x="354.058" y="-869.5" font-family="Helvetica,sans-Serif" font-size="10.00"> </text>
<polyline fill="none" stroke="black" points="297.558,-862.5 410.558,-862.5 "/>
<text text-anchor="start" x="305.558" y="-850.5" font-family="Helvetica,sans-Serif" font-size="10.00">+ Descriptor()</text>
<text text-anchor="start" x="305.558" y="-839.5" font-family="Helvetica,sans-Serif" font-size="10.00">+ Descriptor()</text>
<text text-anchor="start" x="305.558" y="-828.5" font-family="Helvetica,sans-Serif" font-size="10.00">+ Descriptor()</text>
<text text-anchor="start" x="305.558" y="-817.5" font-family="Helvetica,sans-Serif" font-size="10.00">+ operator=()</text>
<text text-anchor="start" x="305.558" y="-806.5" font-family="Helvetica,sans-Serif" font-size="10.00">+ operator ItgType()</text>
<text text-anchor="start" x="305.558" y="-795.5" font-family="Helvetica,sans-Serif" font-size="10.00">+ Descriptor()</text>
<text text-anchor="start" x="305.558" y="-784.5" font-family="Helvetica,sans-Serif" font-size="10.00">+ runtimeInit()</text>
<text text-anchor="start" x="305.558" y="-773.5" font-family="Helvetica,sans-Serif" font-size="10.00">+ operator==()</text>
<text text-anchor="start" x="305.558" y="-762.5" font-family="Helvetica,sans-Serif" font-size="10.00">+ operator&lt;()</text>
<text text-anchor="start" x="305.558" y="-751.5" font-family="Helvetica,sans-Serif" font-size="10.00">+ operator!=()</text>
<text text-anchor="start" x="305.558" y="-740.5" font-family="Helvetica,sans-Serif" font-size="10.00">+ operator==()</text>
<text text-anchor="start" x="305.558" y="-729.5" font-family="Helvetica,sans-Serif" font-size="10.00">+ operator!=()</text>
<text text-anchor="start" x="305.558" y="-718.5" font-family="Helvetica,sans-Serif" font-size="10.00">+ as()</text>
<text text-anchor="start" x="305.558" y="-707.5" font-family="Helvetica,sans-Serif" font-size="10.00">+ print()</text>
</a>
</g>
</g>
<!-- Node4&#45;&gt;Node8 -->
<g id="edge8" class="edge"><title>Node4&#45;&gt;Node8</title>
<path fill="none" stroke="#404040" d="M291.918,-981.336C297.494,-965.694 304.884,-944.96 312.617,-923.264"/>
<polygon fill="none" stroke="#404040" points="312.656,-923.156 310.902,-916.161 316.685,-911.853 318.438,-918.848 312.656,-923.156"/>
<text text-anchor="middle" x="320.058" y="-944" font-family="Helvetica,sans-Serif" font-size="10.00"> +itg</text>
</g>
<!-- Node11 -->
<g id="node11" class="node"><title>Node11</title>
<g id="a_node11"><a xlink:href="../../d9/db3/structo2_1_1header_1_1Descriptor.html" target="_top" xlink:title="{o2::header::Descriptor\l\&lt; gSizeSerializationMethodString \&gt;\n||+ Descriptor()\l+ Descriptor()\l+ Descriptor()\l+ Descriptor()\l+ operator=()\l+ operator ItgType()\l+ runtimeInit()\l+ operator==()\l+ operator==()\l+ operator\&lt;()\l+ operator!=()\l+ operator!=()\l+ as()\l+ print()\l}">
<polygon fill="none" stroke="black" points="460.058,-408.5 460.058,-619.5 630.058,-619.5 630.058,-408.5 460.058,-408.5"/>
<text text-anchor="start" x="468.058" y="-607.5" font-family="Helvetica,sans-Serif" font-size="10.00">o2::header::Descriptor</text>
<text text-anchor="middle" x="545.058" y="-596.5" font-family="Helvetica,sans-Serif" font-size="10.00">&lt; gSizeSerializationMethodString &gt;</text>
<polyline fill="none" stroke="black" points="460.058,-589.5 630.058,-589.5 "/>
<text text-anchor="middle" x="545.058" y="-577.5" font-family="Helvetica,sans-Serif" font-size="10.00"> </text>
<polyline fill="none" stroke="black" points="460.058,-570.5 630.058,-570.5 "/>
<text text-anchor="start" x="468.058" y="-558.5" font-family="Helvetica,sans-Serif" font-size="10.00">+ Descriptor()</text>
<text text-anchor="start" x="468.058" y="-547.5" font-family="Helvetica,sans-Serif" font-size="10.00">+ Descriptor()</text>
<text text-anchor="start" x="468.058" y="-536.5" font-family="Helvetica,sans-Serif" font-size="10.00">+ Descriptor()</text>
<text text-anchor="start" x="468.058" y="-525.5" font-family="Helvetica,sans-Serif" font-size="10.00">+ Descriptor()</text>
<text text-anchor="start" x="468.058" y="-514.5" font-family="Helvetica,sans-Serif" font-size="10.00">+ operator=()</text>
<text text-anchor="start" x="468.058" y="-503.5" font-family="Helvetica,sans-Serif" font-size="10.00">+ operator ItgType()</text>
<text text-anchor="start" x="468.058" y="-492.5" font-family="Helvetica,sans-Serif" font-size="10.00">+ runtimeInit()</text>
<text text-anchor="start" x="468.058" y="-481.5" font-family="Helvetica,sans-Serif" font-size="10.00">+ operator==()</text>
<text text-anchor="start" x="468.058" y="-470.5" font-family="Helvetica,sans-Serif" font-size="10.00">+ operator==()</text>
<text text-anchor="start" x="468.058" y="-459.5" font-family="Helvetica,sans-Serif" font-size="10.00">+ operator&lt;()</text>
<text text-anchor="start" x="468.058" y="-448.5" font-family="Helvetica,sans-Serif" font-size="10.00">+ operator!=()</text>
<text text-anchor="start" x="468.058" y="-437.5" font-family="Helvetica,sans-Serif" font-size="10.00">+ operator!=()</text>
<text text-anchor="start" x="468.058" y="-426.5" font-family="Helvetica,sans-Serif" font-size="10.00">+ as()</text>
<text text-anchor="start" x="468.058" y="-415.5" font-family="Helvetica,sans-Serif" font-size="10.00">+ print()</text>
</a>
</g>
</g>
<!-- Node4&#45;&gt;Node11 -->
<g id="edge16" class="edge"><title>Node4&#45;&gt;Node11</title>
<path fill="none" stroke="#404040" d="M271.201,-981.457C244.965,-909.843 187.79,-717.833 294.058,-638 346.916,-598.29 383.924,-646.308 448.911,-619.481"/>
<polygon fill="none" stroke="#404040" points="449.163,-619.363 452.902,-613.197 460.032,-614.277 456.293,-620.443 449.163,-619.363"/>
<text text-anchor="middle" x="260.058" y="-803.5" font-family="Helvetica,sans-Serif" font-size="10.00"> +itg</text>
</g>
<!-- Node13 -->
<g id="node13" class="node"><title>Node13</title>
<g id="a_node13"><a xlink:href="../../d9/db3/structo2_1_1header_1_1Descriptor.html" target="_top" xlink:title="{o2::header::Descriptor\l\&lt; deviceIDTypeSize \&gt;\n||+ Descriptor()\l+ Descriptor()\l+ Descriptor()\l+ Descriptor()\l+ operator=()\l+ operator ItgType()\l+ runtimeInit()\l+ operator==()\l+ operator==()\l+ operator\&lt;()\l+ operator!=()\l+ operator!=()\l+ as()\l+ print()\l}">
<polygon fill="none" stroke="black" points="62.5578,-408.5 62.5578,-619.5 177.558,-619.5 177.558,-408.5 62.5578,-408.5"/>
<text text-anchor="start" x="70.5578" y="-607.5" font-family="Helvetica,sans-Serif" font-size="10.00">o2::header::Descriptor</text>
<text text-anchor="middle" x="120.058" y="-596.5" font-family="Helvetica,sans-Serif" font-size="10.00">&lt; deviceIDTypeSize &gt;</text>
<polyline fill="none" stroke="black" points="62.5578,-589.5 177.558,-589.5 "/>
<text text-anchor="middle" x="120.058" y="-577.5" font-family="Helvetica,sans-Serif" font-size="10.00"> </text>
<polyline fill="none" stroke="black" points="62.5578,-570.5 177.558,-570.5 "/>
<text text-anchor="start" x="70.5578" y="-558.5" font-family="Helvetica,sans-Serif" font-size="10.00">+ Descriptor()</text>
<text text-anchor="start" x="70.5578" y="-547.5" font-family="Helvetica,sans-Serif" font-size="10.00">+ Descriptor()</text>
<text text-anchor="start" x="70.5578" y="-536.5" font-family="Helvetica,sans-Serif" font-size="10.00">+ Descriptor()</text>
<text text-anchor="start" x="70.5578" y="-525.5" font-family="Helvetica,sans-Serif" font-size="10.00">+ Descriptor()</text>
<text text-anchor="start" x="70.5578" y="-514.5" font-family="Helvetica,sans-Serif" font-size="10.00">+ operator=()</text>
<text text-anchor="start" x="70.5578" y="-503.5" font-family="Helvetica,sans-Serif" font-size="10.00">+ operator ItgType()</text>
<text text-anchor="start" x="70.5578" y="-492.5" font-family="Helvetica,sans-Serif" font-size="10.00">+ runtimeInit()</text>
<text text-anchor="start" x="70.5578" y="-481.5" font-family="Helvetica,sans-Serif" font-size="10.00">+ operator==()</text>
<text text-anchor="start" x="70.5578" y="-470.5" font-family="Helvetica,sans-Serif" font-size="10.00">+ operator==()</text>
<text text-anchor="start" x="70.5578" y="-459.5" font-family="Helvetica,sans-Serif" font-size="10.00">+ operator&lt;()</text>
<text text-anchor="start" x="70.5578" y="-448.5" font-family="Helvetica,sans-Serif" font-size="10.00">+ operator!=()</text>
<text text-anchor="start" x="70.5578" y="-437.5" font-family="Helvetica,sans-Serif" font-size="10.00">+ operator!=()</text>
<text text-anchor="start" x="70.5578" y="-426.5" font-family="Helvetica,sans-Serif" font-size="10.00">+ as()</text>
<text text-anchor="start" x="70.5578" y="-415.5" font-family="Helvetica,sans-Serif" font-size="10.00">+ print()</text>
</a>
</g>
</g>
<!-- Node4&#45;&gt;Node13 -->
<g id="edge24" class="edge"><title>Node4&#45;&gt;Node13</title>
<path fill="none" stroke="#404040" d="M263.028,-999.856C235.264,-985.417 184.325,-954.543 160.058,-912 112.286,-828.253 166.125,-781.147 114.058,-700 106.857,-688.778 96.0206,-693.926 90.0578,-682 81.3123,-664.509 87.7242,-657.416 90.0578,-638 90.3057,-635.937 90.5763,-633.859 90.8674,-631.769"/>
<polygon fill="none" stroke="#404040" points="90.8998,-631.56 87.8705,-625.016 92.7459,-619.703 95.7753,-626.247 90.8998,-631.56"/>
<text text-anchor="middle" x="170.058" y="-803.5" font-family="Helvetica,sans-Serif" font-size="10.00"> +itg</text>
</g>
<!-- Node5 -->
<g id="node5" class="node"><title>Node5</title>
<polygon fill="none" stroke="#bfbfbf" points="569.558,-981.5 569.558,-1038.5 604.558,-1038.5 604.558,-981.5 569.558,-981.5"/>
<text text-anchor="middle" x="587.058" y="-1026.5" font-family="Helvetica,sans-Serif" font-size="10.00">char</text>
<polyline fill="none" stroke="#bfbfbf" points="569.558,-1019.5 604.558,-1019.5 "/>
<text text-anchor="middle" x="587.058" y="-1007.5" font-family="Helvetica,sans-Serif" font-size="10.00"> </text>
<polyline fill="none" stroke="#bfbfbf" points="569.558,-1000.5 604.558,-1000.5 "/>
<text text-anchor="middle" x="587.058" y="-988.5" font-family="Helvetica,sans-Serif" font-size="10.00"> </text>
</g>
<!-- Node5&#45;&gt;Node2 -->
<g id="edge13" class="edge"><title>Node5&#45;&gt;Node2</title>
<path fill="none" stroke="#404040" d="M604.784,-1006.51C667.15,-997.345 874.755,-963.359 913.058,-912 969.387,-836.47 932.618,-792.17 913.058,-700 911.24,-691.436 906.875,-690.564 905.058,-682 878.569,-557.181 892.165,-408.473 905.364,-317.681"/>
<polygon fill="none" stroke="#404040" points="905.406,-317.404 902.336,-310.879 907.178,-305.536 910.248,-312.061 905.406,-317.404"/>
<text text-anchor="middle" x="935.558" y="-657.5" font-family="Helvetica,sans-Serif" font-size="10.00"> +magicString</text>
</g>
<!-- Node5&#45;&gt;Node3 -->
<g id="edge4" class="edge"><title>Node5&#45;&gt;Node3</title>
<path fill="none" stroke="#404040" d="M604.848,-999.597C630.745,-984.828 678.024,-953.537 699.058,-912 742.855,-825.51 748.277,-714.678 744.222,-632.11"/>
<polygon fill="none" stroke="#404040" points="744.208,-631.863 739.881,-626.095 743.542,-619.882 747.869,-625.651 744.208,-631.863"/>
<text text-anchor="middle" x="755.558" y="-803.5" font-family="Helvetica,sans-Serif" font-size="10.00"> +str</text>
</g>
<!-- Node5&#45;&gt;Node8 -->
<g id="edge9" class="edge"><title>Node5&#45;&gt;Node8</title>
<path fill="none" stroke="#404040" d="M569.234,-1008.26C519.728,-1005.8 382.396,-996.074 355.058,-963 345.689,-951.665 340.249,-938.121 337.493,-923.814"/>
<polygon fill="none" stroke="#404040" points="337.454,-923.532 332.657,-918.148 335.782,-911.649 340.579,-917.033 337.454,-923.532"/>
<text text-anchor="middle" x="365.558" y="-944" font-family="Helvetica,sans-Serif" font-size="10.00"> +str</text>
</g>
<!-- Node5&#45;&gt;Node11 -->
<g id="edge17" class="edge"><title>Node5&#45;&gt;Node11</title>
<path fill="none" stroke="#404040" d="M589.125,-981.33C593.204,-919.396 600.32,-765.062 581.058,-638 580.728,-635.826 580.37,-633.636 579.987,-631.436"/>
<polygon fill="none" stroke="#404040" points="579.975,-631.372 574.914,-626.235 577.709,-619.588 582.77,-624.724 579.975,-631.372"/>
<text text-anchor="middle" x="604.558" y="-803.5" font-family="Helvetica,sans-Serif" font-size="10.00"> +str</text>
</g>
<!-- Node5&#45;&gt;Node13 -->
<g id="edge25" class="edge"><title>Node5&#45;&gt;Node13</title>
<path fill="none" stroke="#404040" d="M569.278,-1007.67C513.752,-1003.28 344.406,-988.095 296.058,-963 277.925,-953.588 281.412,-940.781 264.058,-930 241.851,-916.204 224.811,-932.07 208.058,-912 147.155,-839.038 241.671,-772.364 180.058,-700 162.009,-678.802 136.677,-704.336 120.058,-682 109.249,-667.472 103.714,-650.094 101.523,-632.119"/>
<polygon fill="none" stroke="#404040" points="101.504,-631.889 97.0304,-626.233 100.53,-619.929 105.004,-625.584 101.504,-631.889"/>
<text text-anchor="middle" x="218.558" y="-803.5" font-family="Helvetica,sans-Serif" font-size="10.00"> +str</text>
</g>
<!-- Node6 -->
<g id="node6" class="node"><title>Node6</title>
<polygon fill="none" stroke="#bfbfbf" points="87.5578,-981.5 87.5578,-1038.5 184.558,-1038.5 184.558,-981.5 87.5578,-981.5"/>
<text text-anchor="middle" x="136.058" y="-1026.5" font-family="Helvetica,sans-Serif" font-size="10.00">anonymous:+@24</text>
<polyline fill="none" stroke="#bfbfbf" points="87.5578,-1019.5 184.558,-1019.5 "/>
<text text-anchor="middle" x="136.058" y="-1007.5" font-family="Helvetica,sans-Serif" font-size="10.00"> </text>
<polyline fill="none" stroke="#bfbfbf" points="87.5578,-1000.5 184.558,-1000.5 "/>
<text text-anchor="middle" x="136.058" y="-988.5" font-family="Helvetica,sans-Serif" font-size="10.00"> </text>
</g>
<!-- Node6&#45;&gt;Node3 -->
<g id="edge5" class="edge"><title>Node6&#45;&gt;Node3</title>
<path fill="none" stroke="#404040" d="M184.832,-995.79C205.974,-990.49 231.098,-984.759 254.058,-981 297.222,-973.933 418.677,-993.469 450.058,-963 534.539,-880.975 401.595,-785.971 482.058,-700 511.423,-668.625 541.485,-706.11 577.058,-682 596.245,-668.995 588.027,-653.723 605.058,-638 615.56,-628.305 622.891,-629.652 637.973,-619.908"/>
<polygon fill="none" stroke="#404040" points="638.133,-619.791 640.626,-613.024 647.831,-612.722 645.338,-619.489 638.133,-619.791"/>
<text text-anchor="middle" x="497.558" y="-803.5" font-family="Helvetica,sans-Serif" font-size="10.00"> +@24</text>
</g>
<!-- Node6&#45;&gt;Node8 -->
<g id="edge10" class="edge"><title>Node6&#45;&gt;Node8</title>
<path fill="none" stroke="#404040" d="M184.884,-983.339C215.303,-965.846 254.032,-940.7 283.058,-912 285.214,-909.868 287.344,-907.661 289.445,-905.393"/>
<polygon fill="none" stroke="#404040" points="289.456,-905.38 290.422,-898.234 297.39,-896.378 296.424,-903.524 289.456,-905.38"/>
<text text-anchor="middle" x="277.558" y="-944" font-family="Helvetica,sans-Serif" font-size="10.00"> +@24</text>
</g>
<!-- Node6&#45;&gt;Node11 -->
<g id="edge18" class="edge"><title>Node6&#45;&gt;Node11</title>
<path fill="none" stroke="#404040" d="M114.242,-981.115C101.224,-962.649 85.929,-937.256 79.0578,-912 54.3222,-821.083 51.922,-790.23 79.0578,-700 88.572,-668.364 91.3971,-654.429 120.058,-638 180.849,-603.152 365.694,-647.189 448.613,-619.285"/>
<polygon fill="none" stroke="#404040" points="448.723,-619.24 452.785,-613.283 459.848,-614.741 455.785,-620.699 448.723,-619.24"/>
<text text-anchor="middle" x="94.5578" y="-803.5" font-family="Helvetica,sans-Serif" font-size="10.00"> +@24</text>
</g>
<!-- Node6&#45;&gt;Node13 -->
<g id="edge26" class="edge"><title>Node6&#45;&gt;Node13</title>
<path fill="none" stroke="#404040" d="M87.4346,-982.675C62.9406,-966.17 36.3042,-942.267 26.0578,-912 -13.0421,-796.502 -7.35596,-750.341 40.0578,-638 44.6637,-627.087 50.2358,-616.08 56.2712,-605.374"/>
<polygon fill="none" stroke="#404040" points="56.4011,-605.151 55.9656,-597.953 62.4423,-594.782 62.8779,-601.98 56.4011,-605.151"/>
<text text-anchor="middle" x="41.5578" y="-803.5" font-family="Helvetica,sans-Serif" font-size="10.00"> +@24</text>
</g>
<!-- Node7 -->
<g id="node7" class="node"><title>Node7</title>
<polygon fill="none" stroke="#bfbfbf" points="815.558,-981.5 815.558,-1038.5 856.558,-1038.5 856.558,-981.5 815.558,-981.5"/>
<text text-anchor="middle" x="836.058" y="-1026.5" font-family="Helvetica,sans-Serif" font-size="10.00">static</text>
<polyline fill="none" stroke="#bfbfbf" points="815.558,-1019.5 856.558,-1019.5 "/>
<text text-anchor="middle" x="836.058" y="-1007.5" font-family="Helvetica,sans-Serif" font-size="10.00"> </text>
<polyline fill="none" stroke="#bfbfbf" points="815.558,-1000.5 856.558,-1000.5 "/>
<text text-anchor="middle" x="836.058" y="-988.5" font-family="Helvetica,sans-Serif" font-size="10.00"> </text>
</g>
<!-- Node7&#45;&gt;Node1 -->
<g id="edge31" class="edge"><title>Node7&#45;&gt;Node1</title>
<path fill="none" stroke="#404040" d="M856.651,-1009.01C942.702,-1007.86 1269.06,-991.36 1269.06,-807 1269.06,-807 1269.06,-807 1269.06,-232 1269.06,-186.275 1239.24,-146.137 1206.65,-115.921"/>
<polygon fill="none" stroke="#404040" points="1206.36,-115.659 1199.22,-114.646 1197.41,-107.666 1204.55,-108.679 1206.36,-115.659"/>
<text text-anchor="middle" x="1317.56" y="-528" font-family="Helvetica,sans-Serif" font-size="10.00"> +sHeaderType</text>
<text text-anchor="middle" x="1317.56" y="-517" font-family="Helvetica,sans-Serif" font-size="10.00">+deviceIDTypeSize</text>
<text text-anchor="middle" x="1317.56" y="-506" font-family="Helvetica,sans-Serif" font-size="10.00">+sSerializationMethod</text>
<text text-anchor="middle" x="1317.56" y="-495" font-family="Helvetica,sans-Serif" font-size="10.00">+sVersion</text>
</g>
<!-- Node7&#45;&gt;Node2 -->
<g id="edge22" class="edge"><title>Node7&#45;&gt;Node2</title>
<path fill="none" stroke="#404040" d="M856.607,-1001.03C887.4,-987.829 944.419,-958.205 968.058,-912 1014.62,-820.992 969.613,-784.225 970.058,-682 970.143,-662.445 972.699,-657.376 970.058,-638 968.936,-629.773 966.654,-628.148 965.058,-620 944.861,-516.932 932.587,-396.48 926.069,-317.898"/>
<polygon fill="none" stroke="#404040" points="926.046,-317.615 921.572,-311.96 925.072,-305.655 929.546,-311.31 926.046,-317.615"/>
<text text-anchor="middle" x="1020.56" y="-674" font-family="Helvetica,sans-Serif" font-size="10.00"> +sMagicString</text>
<text text-anchor="middle" x="1020.56" y="-663" font-family="Helvetica,sans-Serif" font-size="10.00">+sHeaderType</text>
<text text-anchor="middle" x="1020.56" y="-652" font-family="Helvetica,sans-Serif" font-size="10.00">+sSerializationMethod</text>
<text text-anchor="middle" x="1020.56" y="-641" font-family="Helvetica,sans-Serif" font-size="10.00">+sVersion</text>
</g>
<!-- Node7&#45;&gt;Node3 -->
<g id="edge6" class="edge"><title>Node7&#45;&gt;Node3</title>
<path fill="none" stroke="#404040" d="M841.934,-981.473C852.498,-926.668 871.116,-800.525 843.058,-700 836.392,-676.118 825.711,-652.245 813.532,-629.968"/>
<polygon fill="none" stroke="#404040" points="813.53,-629.965 807.101,-626.7 807.642,-619.509 814.071,-622.775 813.53,-629.965"/>
<text text-anchor="middle" x="883.558" y="-814.5" font-family="Helvetica,sans-Serif" font-size="10.00"> +arraySize</text>
<text text-anchor="middle" x="883.558" y="-803.5" font-family="Helvetica,sans-Serif" font-size="10.00">+size</text>
<text text-anchor="middle" x="883.558" y="-792.5" font-family="Helvetica,sans-Serif" font-size="10.00">+bitcount</text>
</g>
<!-- Node7&#45;&gt;Node8 -->
<g id="edge11" class="edge"><title>Node7&#45;&gt;Node8</title>
<path fill="none" stroke="#404040" d="M815.509,-1008.35C754.065,-1005.53 568.204,-990.618 442.058,-912 434.11,-907.047 426.525,-901.133 419.379,-894.672"/>
<polygon fill="none" stroke="#404040" points="419.232,-894.53 412.132,-893.265 410.569,-886.225 417.669,-887.49 419.232,-894.53"/>
<text text-anchor="middle" x="578.558" y="-955" font-family="Helvetica,sans-Serif" font-size="10.00"> +arraySize</text>
<text text-anchor="middle" x="578.558" y="-944" font-family="Helvetica,sans-Serif" font-size="10.00">+size</text>
<text text-anchor="middle" x="578.558" y="-933" font-family="Helvetica,sans-Serif" font-size="10.00">+bitcount</text>
</g>
<!-- Node7&#45;&gt;Node11 -->
<g id="edge19" class="edge"><title>Node7&#45;&gt;Node11</title>
<path fill="none" stroke="#404040" d="M818.984,-981.222C808.259,-962.39 795.155,-936.548 788.058,-912 774.902,-866.5 791.058,-740.229 766.058,-700 732.773,-646.438 694.47,-661.119 639.776,-619.899"/>
<polygon fill="none" stroke="#404040" points="639.481,-619.664 632.298,-619.034 630.117,-612.16 637.3,-612.79 639.481,-619.664"/>
<text text-anchor="middle" x="813.558" y="-814.5" font-family="Helvetica,sans-Serif" font-size="10.00"> +arraySize</text>
<text text-anchor="middle" x="813.558" y="-803.5" font-family="Helvetica,sans-Serif" font-size="10.00">+size</text>
<text text-anchor="middle" x="813.558" y="-792.5" font-family="Helvetica,sans-Serif" font-size="10.00">+bitcount</text>
</g>
<!-- Node7&#45;&gt;Node13 -->
<g id="edge27" class="edge"><title>Node7&#45;&gt;Node13</title>
<path fill="none" stroke="#404040" d="M815.346,-1005.2C774.887,-996.595 685.681,-971.529 644.058,-912 616.875,-873.123 653.626,-732.487 619.058,-700 592.703,-675.232 327.225,-696.42 294.058,-682 280.603,-676.151 229.726,-626.65 186.436,-583.047"/>
<polygon fill="none" stroke="#404040" points="186.337,-582.947 179.272,-581.498 177.893,-574.42 184.957,-575.869 186.337,-582.947"/>
<text text-anchor="middle" x="669.558" y="-814.5" font-family="Helvetica,sans-Serif" font-size="10.00"> +arraySize</text>
<text text-anchor="middle" x="669.558" y="-803.5" font-family="Helvetica,sans-Serif" font-size="10.00">+size</text>
<text text-anchor="middle" x="669.558" y="-792.5" font-family="Helvetica,sans-Serif" font-size="10.00">+bitcount</text>
</g>
<!-- Node8&#45;&gt;Node3 -->
<g id="edge7" class="edge"><title>Node8&#45;&gt;Node3</title>
<path fill="none" stroke="orange" d="M416.168,-714.165C423.046,-703.428 429.813,-692.541 436.058,-682 447.305,-663.015 440.776,-650.357 459.058,-638 525.667,-592.976 567.577,-656.804 639.058,-620 642.075,-618.447 645.036,-616.749 647.941,-614.928"/>
<polygon fill="orange" stroke="orange" points="413.119,-712.434 410.637,-722.734 419.001,-716.231 413.119,-712.434"/>
<text text-anchor="start" x="459.058" y="-663" font-family="Helvetica,sans-Serif" font-size="10.00"> &lt; gSizeHeaderDescription</text>
<text text-anchor="middle" x="518.058" y="-652" font-family="Helvetica,sans-Serif" font-size="10.00">String &gt;</text>
</g>
<!-- Node8&#45;&gt;Node11 -->
<g id="edge20" class="edge"><title>Node8&#45;&gt;Node11</title>
<path fill="none" stroke="orange" d="M298.392,-690.418C296.451,-671.321 299.981,-652.907 313.058,-638 333.307,-614.917 422.864,-634.261 450.058,-620 453.432,-618.23 456.746,-616.29 459.995,-614.206"/>
<polygon fill="orange" stroke="orange" points="294.952,-691.076 299.885,-700.452 301.875,-690.046 294.952,-691.076"/>
<text text-anchor="start" x="313.058" y="-663" font-family="Helvetica,sans-Serif" font-size="10.00"> &lt; gSizeSerializationMethod</text>
<text text-anchor="middle" x="374.558" y="-652" font-family="Helvetica,sans-Serif" font-size="10.00">String &gt;</text>
</g>
<!-- Node8&#45;&gt;Node13 -->
<g id="edge28" class="edge"><title>Node8&#45;&gt;Node13</title>
<path fill="none" stroke="orange" d="M289.547,-704.358C287.437,-702.815 285.274,-701.358 283.058,-700 227.691,-666.064 183.605,-728.288 138.058,-682 128.496,-672.283 123.518,-647.386 121.05,-619.695"/>
<polygon fill="orange" stroke="orange" points="287.44,-707.156 297.421,-710.711 291.836,-701.708 287.44,-707.156"/>
<text text-anchor="middle" x="189.058" y="-657.5" font-family="Helvetica,sans-Serif" font-size="10.00"> &lt; deviceIDTypeSize &gt;</text>
</g>
<!-- Node9 -->
<g id="node9" class="node"><title>Node9</title>
<polygon fill="none" stroke="#bfbfbf" points="974.558,-485.5 974.558,-542.5 1071.56,-542.5 1071.56,-485.5 974.558,-485.5"/>
<text text-anchor="middle" x="1023.06" y="-530.5" font-family="Helvetica,sans-Serif" font-size="10.00">anonymous:+@26</text>
<polyline fill="none" stroke="#bfbfbf" points="974.558,-523.5 1071.56,-523.5 "/>
<text text-anchor="middle" x="1023.06" y="-511.5" font-family="Helvetica,sans-Serif" font-size="10.00"> </text>
<polyline fill="none" stroke="#bfbfbf" points="974.558,-504.5 1071.56,-504.5 "/>
<text text-anchor="middle" x="1023.06" y="-492.5" font-family="Helvetica,sans-Serif" font-size="10.00"> </text>
</g>
<!-- Node9&#45;&gt;Node2 -->
<g id="edge12" class="edge"><title>Node9&#45;&gt;Node2</title>
<path fill="none" stroke="#404040" d="M1012.18,-485.243C1002.5,-460.372 988.056,-422.853 976.058,-390 965.402,-360.822 963.516,-353.25 953.058,-324 952.259,-321.767 951.448,-319.504 950.626,-317.22"/>
<polygon fill="none" stroke="#404040" points="950.537,-316.971 944.736,-312.687 946.46,-305.685 952.261,-309.97 950.537,-316.971"/>
<text text-anchor="middle" x="991.558" y="-354.5" font-family="Helvetica,sans-Serif" font-size="10.00"> +@26</text>
</g>
<!-- Node10 -->
<g id="node10" class="node"><title>Node10</title>
<polygon fill="none" stroke="#bfbfbf" points="344.558,-485.5 344.558,-542.5 441.558,-542.5 441.558,-485.5 344.558,-485.5"/>
<text text-anchor="middle" x="393.058" y="-530.5" font-family="Helvetica,sans-Serif" font-size="10.00">anonymous:+@28</text>
<polyline fill="none" stroke="#bfbfbf" points="344.558,-523.5 441.558,-523.5 "/>
<text text-anchor="middle" x="393.058" y="-511.5" font-family="Helvetica,sans-Serif" font-size="10.00"> </text>
<polyline fill="none" stroke="#bfbfbf" points="344.558,-504.5 441.558,-504.5 "/>
<text text-anchor="middle" x="393.058" y="-492.5" font-family="Helvetica,sans-Serif" font-size="10.00"> </text>
</g>
<!-- Node10&#45;&gt;Node2 -->
<g id="edge14" class="edge"><title>Node10&#45;&gt;Node2</title>
<path fill="none" stroke="#404040" d="M402.824,-485.434C412.185,-462.306 428.269,-429.669 451.058,-408 562.943,-301.613 745.601,-259.074 846.785,-243.011"/>
<polygon fill="none" stroke="#404040" points="846.849,-243.001 852.173,-238.137 858.71,-241.18 853.387,-246.044 846.849,-243.001"/>
<text text-anchor="middle" x="589.558" y="-354.5" font-family="Helvetica,sans-Serif" font-size="10.00"> +@28</text>
</g>
<!-- Node11&#45;&gt;Node2 -->
<g id="edge15" class="edge"><title>Node11&#45;&gt;Node2</title>
<path fill="none" stroke="#404040" d="M630.217,-417.056C633.179,-413.981 636.131,-410.955 639.058,-408 678.017,-368.657 685.118,-354.906 731.058,-324 767.403,-299.549 811.421,-278.171 847.829,-262.393"/>
<polygon fill="none" stroke="#404040" points="847.831,-262.392 851.778,-256.357 858.867,-257.679 854.92,-263.714 847.831,-262.392"/>
<text text-anchor="middle" x="761.558" y="-354.5" font-family="Helvetica,sans-Serif" font-size="10.00"> +serialization</text>
</g>
<!-- Node12 -->
<g id="node12" class="node"><title>Node12</title>
<polygon fill="none" stroke="#bfbfbf" points="1092.56,-485.5 1092.56,-542.5 1143.56,-542.5 1143.56,-485.5 1092.56,-485.5"/>
<text text-anchor="middle" x="1118.06" y="-530.5" font-family="Helvetica,sans-Serif" font-size="10.00">uint32_t</text>
<polyline fill="none" stroke="#bfbfbf" points="1092.56,-523.5 1143.56,-523.5 "/>
<text text-anchor="middle" x="1118.06" y="-511.5" font-family="Helvetica,sans-Serif" font-size="10.00"> </text>
<polyline fill="none" stroke="#bfbfbf" points="1092.56,-504.5 1143.56,-504.5 "/>
<text text-anchor="middle" x="1118.06" y="-492.5" font-family="Helvetica,sans-Serif" font-size="10.00"> </text>
</g>
<!-- Node12&#45;&gt;Node1 -->
<g id="edge30" class="edge"><title>Node12&#45;&gt;Node1</title>
<path fill="none" stroke="#404040" d="M1118.42,-485.192C1119.35,-414.546 1121.83,-226.585 1123.17,-124.965"/>
<polygon fill="none" stroke="#404040" points="1123.17,-124.714 1119.25,-118.662 1123.33,-112.715 1127.25,-118.767 1123.17,-124.714"/>
<text text-anchor="middle" x="1181.56" y="-236" font-family="Helvetica,sans-Serif" font-size="10.00"> +totalEvaluatedMessages</text>
<text text-anchor="middle" x="1181.56" y="-225" font-family="Helvetica,sans-Serif" font-size="10.00">+totalAcceptedMessages</text>
</g>
<!-- Node12&#45;&gt;Node2 -->
<g id="edge21" class="edge"><title>Node12&#45;&gt;Node2</title>
<path fill="none" stroke="#404040" d="M1114.66,-485.4C1110.4,-461.932 1100.91,-428.819 1080.06,-408 1063.34,-391.313 1046.67,-406.786 1030.06,-390 1008.21,-367.923 1023.34,-350.452 1007.06,-324 1001.82,-315.487 995.65,-307.128 989.06,-299.142"/>
<polygon fill="none" stroke="#404040" points="988.981,-299.051 982.037,-297.109 981.159,-289.952 988.103,-291.894 988.981,-299.051"/>
<text text-anchor="middle" x="1070.06" y="-382" font-family="Helvetica,sans-Serif" font-size="10.00"> +headerVersion</text>
<text text-anchor="middle" x="1070.06" y="-371" font-family="Helvetica,sans-Serif" font-size="10.00">+headerSize</text>
<text text-anchor="middle" x="1070.06" y="-360" font-family="Helvetica,sans-Serif" font-size="10.00">+flagsNextHeader</text>
<text text-anchor="middle" x="1070.06" y="-349" font-family="Helvetica,sans-Serif" font-size="10.00">+magicStringInt</text>
<text text-anchor="middle" x="1070.06" y="-338" font-family="Helvetica,sans-Serif" font-size="10.00">+flagsUnused</text>
<text text-anchor="middle" x="1070.06" y="-327" font-family="Helvetica,sans-Serif" font-size="10.00">+flags</text>
</g>
<!-- Node13&#45;&gt;Node1 -->
<g id="edge23" class="edge"><title>Node13&#45;&gt;Node1</title>
<path fill="none" stroke="#404040" d="M177.579,-478.66C292.783,-410.914 561.352,-258.127 801.058,-160 880.157,-127.62 973.5,-98.9809 1039.45,-80.2648"/>
<polygon fill="none" stroke="#404040" points="1039.47,-80.2583 1044.16,-74.7803 1051.02,-77.0023 1046.33,-82.4802 1039.47,-80.2583"/>
<text text-anchor="middle" x="825.558" y="-230.5" font-family="Helvetica,sans-Serif" font-size="10.00"> +deviceID</text>
</g>
<!-- Node14 -->
<g id="node14" class="node"><title>Node14</title>
<polygon fill="none" stroke="#bfbfbf" points="1297.56,-204.5 1297.56,-261.5 1348.56,-261.5 1348.56,-204.5 1297.56,-204.5"/>
<text text-anchor="middle" x="1323.06" y="-249.5" font-family="Helvetica,sans-Serif" font-size="10.00">uint64_t</text>
<polyline fill="none" stroke="#bfbfbf" points="1297.56,-242.5 1348.56,-242.5 "/>
<text text-anchor="middle" x="1323.06" y="-230.5" font-family="Helvetica,sans-Serif" font-size="10.00"> </text>
<polyline fill="none" stroke="#bfbfbf" points="1297.56,-223.5 1348.56,-223.5 "/>
<text text-anchor="middle" x="1323.06" y="-211.5" font-family="Helvetica,sans-Serif" font-size="10.00"> </text>
</g>
<!-- Node14&#45;&gt;Node1 -->
<g id="edge29" class="edge"><title>Node14&#45;&gt;Node1</title>
<path fill="none" stroke="#404040" d="M1317.95,-204.068C1312.61,-181.869 1302.24,-151.281 1283.06,-131 1262.86,-109.636 1235.23,-93.9246 1208.68,-82.6443"/>
<polygon fill="none" stroke="#404040" points="1208.51,-82.577 1201.45,-84.0355 1197.39,-78.0776 1204.45,-76.6191 1208.51,-82.577"/>
<text text-anchor="middle" x="1329.06" y="-134" font-family="Helvetica,sans-Serif" font-size="10.00"> +sampleTimeUs</text>
</g>
</g>
</svg>
        <g id="navigator" transform="translate(0 0)" fill="#404254">
                <rect fill="#f2f5e9" fill-opacity="0.5" stroke="#606060" stroke-width=".5" x="0" y="0" width="60" height="60"/>
                <use id="zoomplus" xlink:href="#zoomPlus" x="17" y="9" onmousedown="handleZoom(evt,'in')"/>
                <use id="zoomminus" xlink:href="#zoomMin" x="42" y="9" onmousedown="handleZoom(evt,'out')"/>
                <use id="reset" xlink:href="#resetDef" x="30" y="36" onmousedown="handleReset()"/>
                <g id="arrowUp" xlink:href="#dirArrow" transform="translate(30 24)" onmousedown="handlePan(0,-1)">
                  <use xlink:href="#rim" fill="#404040">
                        <set attributeName="fill" to="#808080" begin="arrowUp.mouseover" end="arrowUp.mouseout"/>
                  </use>
                  <path fill="none" stroke="white" stroke-width="1.5" d="M0,-3.0v7 M-2.5,-0.5L0,-3.0L2.5,-0.5"/>
                </g>
                <g id="arrowRight" xlink:href="#dirArrow" transform="rotate(90) translate(36 -43)" onmousedown="handlePan(1,0)">
                  <use xlink:href="#rim" fill="#404040">
                        <set attributeName="fill" to="#808080" begin="arrowRight.mouseover" end="arrowRight.mouseout"/>
                  </use>
                  <path fill="none" stroke="white" stroke-width="1.5" d="M0,-3.0v7 M-2.5,-0.5L0,-3.0L2.5,-0.5"/>
                </g>
                <g id="arrowDown" xlink:href="#dirArrow" transform="rotate(180) translate(-30 -48)" onmousedown="handlePan(0,1)">
                  <use xlink:href="#rim" fill="#404040">
                        <set attributeName="fill" to="#808080" begin="arrowDown.mouseover" end="arrowDown.mouseout"/>
                  </use>
                  <path fill="none" stroke="white" stroke-width="1.5" d="M0,-3.0v7 M-2.5,-0.5L0,-3.0L2.5,-0.5"/>
                </g>
                <g id="arrowLeft" xlink:href="#dirArrow" transform="rotate(270) translate(-36 17)" onmousedown="handlePan(-1,0)">
                  <use xlink:href="#rim" fill="#404040">
                        <set attributeName="fill" to="#808080" begin="arrowLeft.mouseover" end="arrowLeft.mouseout"/>
                  </use>
                  <path fill="none" stroke="white" stroke-width="1.5" d="M0,-3.0v7 M-2.5,-0.5L0,-3.0L2.5,-0.5"/>
                </g>
        </g>
        <svg viewBox="0 0 15 15" width="100%" height="30px" preserveAspectRatio="xMaxYMin meet">
         <g id="arrow_out" transform="scale(0.3 0.3)">
          <a xlink:href="structo2_1_1framework_1_1DataSamplingHeader__coll__graph_org.svg" target="_base">
           <rect id="button" ry="5" rx="5" y="6" x="6" height="38" width="38"
                fill="#f2f5e9" fill-opacity="0.5" stroke="#606060" stroke-width="1.0"/>
           <path id="arrow"
             d="M 11.500037,31.436501 C 11.940474,20.09759 22.043105,11.32322 32.158766,21.979434 L 37.068811,17.246167 C 37.068811,17.246167 37.088388,32 37.088388,32 L 22.160133,31.978069 C 22.160133,31.978069 26.997745,27.140456 26.997745,27.140456 C 18.528582,18.264221 13.291696,25.230495 11.500037,31.436501 z"
             style="fill:#404040;"/>
          </a>
         </g>
        </svg>
</svg>
