<?xml version="1.0" encoding="UTF-8" standalone="no"?>
<!DOCTYPE svg PUBLIC "-//W3C//DTD SVG 1.1//EN"
 "http://www.w3.org/Graphics/SVG/1.1/DTD/svg11.dtd">
<!-- Generated by graphviz version 2.38.0 (20140413.2041)
 -->
<!-- Title: o2::header::NameHeader&lt; N &gt; Pages: 1 -->
<!--zoomable 1037 -->
<svg id="main" version="1.1" xmlns="http://www.w3.org/2000/svg" xmlns:xlink="http://www.w3.org/1999/xlink" xml:space="preserve" onload="init(evt)">
<style type="text/css"><![CDATA[
.edge:hover path { stroke: red; }
.edge:hover polygon { stroke: red; fill: red; }
]]></style>
<script type="text/javascript"><![CDATA[
var edges = document.getElementsByTagName('g');
if (edges && edges.length) {
  for (var i=0;i<edges.length;i++) {
    if (edges[i].id.substr(0,4)=='edge') {
      edges[i].setAttribute('class','edge');
    }
  }
}
]]></script>
        <defs>
                <circle id="rim" cx="0" cy="0" r="7"/>
                <circle id="rim2" cx="0" cy="0" r="3.5"/>
                <g id="zoomPlus">
                        <use xlink:href="#rim" fill="#404040">
                                <set attributeName="fill" to="#808080" begin="zoomplus.mouseover" end="zoomplus.mouseout"/>
                        </use>
                        <path d="M-4,0h8M0,-4v8" fill="none" stroke="white" stroke-width="1.5" pointer-events="none"/>
                </g>
                <g id="zoomMin">
                        <use xlink:href="#rim" fill="#404040">
                                <set attributeName="fill" to="#808080" begin="zoomminus.mouseover" end="zoomminus.mouseout"/>
                        </use>
                        <path d="M-4,0h8" fill="none" stroke="white" stroke-width="1.5" pointer-events="none"/>
                </g>
                <g id="dirArrow">
                        <path fill="none" stroke="white" stroke-width="1.5" d="M0,-3.0v7 M-2.5,-0.5L0,-3.0L2.5,-0.5"/>
                </g>
               <g id="resetDef">
                       <use xlink:href="#rim2" fill="#404040">
                               <set attributeName="fill" to="#808080" begin="reset.mouseover" end="reset.mouseout"/>
                       </use>
               </g>
        </defs>

<script type="text/javascript">
var viewWidth = 934;
var viewHeight = 1037;
var sectionId = 'dynsection-1';
</script>
<script xlink:href="../../svgpan.js"/>
<svg id="graph" class="graph">
<g id="viewport">
<title>o2::header::NameHeader&lt; N &gt;</title>
<!-- Node1 -->
<g id="node1" class="node"><title>Node1</title>
<polygon fill="#bfbfbf" stroke="black" points="634.525,-0.5 634.525,-112.5 786.525,-112.5 786.525,-0.5 634.525,-0.5"/>
<text text-anchor="middle" x="710.525" y="-100.5" font-family="Helvetica,sans-Serif" font-size="10.00">o2::header::NameHeader&lt; N &gt;</text>
<polyline fill="none" stroke="black" points="634.525,-93.5 786.525,-93.5 "/>
<text text-anchor="middle" x="710.525" y="-81.5" font-family="Helvetica,sans-Serif" font-size="10.00"> </text>
<polyline fill="none" stroke="black" points="634.525,-74.5 786.525,-74.5 "/>
<text text-anchor="start" x="642.525" y="-62.5" font-family="Helvetica,sans-Serif" font-size="10.00">+ NameHeader()</text>
<text text-anchor="start" x="642.525" y="-51.5" font-family="Helvetica,sans-Serif" font-size="10.00">+ NameHeader()</text>
<text text-anchor="start" x="642.525" y="-40.5" font-family="Helvetica,sans-Serif" font-size="10.00">+ getName()</text>
<text text-anchor="start" x="642.525" y="-29.5" font-family="Helvetica,sans-Serif" font-size="10.00">+ getNameLength()</text>
<text text-anchor="start" x="642.525" y="-18.5" font-family="Helvetica,sans-Serif" font-size="10.00">+ sHeaderType()</text>
<text text-anchor="start" x="642.525" y="-7.5" font-family="Helvetica,sans-Serif" font-size="10.00">+ sHeaderType()</text>
</g>
<!-- Node2 -->
<g id="node2" class="node"><title>Node2</title>
<g id="a_node2"><a xlink:href="../../d8/dbd/structo2_1_1header_1_1BaseHeader.html" target="_top" xlink:title="the base header struct Every header type must begin (i.e. derive) with this. Don&#39;t use this struct di...">
<polygon fill="none" stroke="black" points="371.525,-150.5 371.525,-295.5 493.525,-295.5 493.525,-150.5 371.525,-150.5"/>
<text text-anchor="middle" x="432.525" y="-283.5" font-family="Helvetica,sans-Serif" font-size="10.00">o2::header::BaseHeader</text>
<polyline fill="none" stroke="black" points="371.525,-276.5 493.525,-276.5 "/>
<text text-anchor="middle" x="432.525" y="-264.5" font-family="Helvetica,sans-Serif" font-size="10.00"> </text>
<polyline fill="none" stroke="black" points="371.525,-257.5 493.525,-257.5 "/>
<text text-anchor="start" x="379.525" y="-245.5" font-family="Helvetica,sans-Serif" font-size="10.00">+ BaseHeader()</text>
<text text-anchor="start" x="379.525" y="-234.5" font-family="Helvetica,sans-Serif" font-size="10.00">+ BaseHeader()</text>
<text text-anchor="start" x="379.525" y="-223.5" font-family="Helvetica,sans-Serif" font-size="10.00">+ BaseHeader()</text>
<text text-anchor="start" x="379.525" y="-212.5" font-family="Helvetica,sans-Serif" font-size="10.00">+ size()</text>
<text text-anchor="start" x="379.525" y="-201.5" font-family="Helvetica,sans-Serif" font-size="10.00">+ data()</text>
<text text-anchor="start" x="379.525" y="-190.5" font-family="Helvetica,sans-Serif" font-size="10.00">+ next()</text>
<text text-anchor="start" x="379.525" y="-179.5" font-family="Helvetica,sans-Serif" font-size="10.00">+ next()</text>
<text text-anchor="start" x="379.525" y="-168.5" font-family="Helvetica,sans-Serif" font-size="10.00">+ get()</text>
<text text-anchor="start" x="379.525" y="-157.5" font-family="Helvetica,sans-Serif" font-size="10.00">+ get()</text>
</a>
</g>
</g>
<!-- Node2&#45;&gt;Node1 -->
<g id="edge1" class="edge"><title>Node2&#45;&gt;Node1</title>
<path fill="none" stroke="midnightblue" d="M502.223,-180.758C542.502,-156.923 593.214,-126.916 634.516,-102.476"/>
<polygon fill="none" stroke="midnightblue" points="500.357,-177.795 493.533,-185.9 503.922,-183.819 500.357,-177.795"/>
</g>
<!-- Node3 -->
<g id="node3" class="node"><title>Node3</title>
<g id="a_node3"><a xlink:href="../../d9/db3/structo2_1_1header_1_1Descriptor.html" target="_top" xlink:title="{o2::header::Descriptor\l\&lt; gSizeHeaderDescriptionString \&gt;\n||+ Descriptor()\l+ Descriptor()\l+ Descriptor()\l+ Descriptor()\l+ operator=()\l+ operator ItgType()\l+ runtimeInit()\l+ operator==()\l+ operator==()\l+ operator\&lt;()\l+ operator!=()\l+ operator!=()\l+ as()\l+ print()\l}">
<polygon fill="none" stroke="black" points="33.5247,-398.5 33.5247,-609.5 199.525,-609.5 199.525,-398.5 33.5247,-398.5"/>
<text text-anchor="start" x="41.5247" y="-597.5" font-family="Helvetica,sans-Serif" font-size="10.00">o2::header::Descriptor</text>
<text text-anchor="middle" x="116.525" y="-586.5" font-family="Helvetica,sans-Serif" font-size="10.00">&lt; gSizeHeaderDescriptionString &gt;</text>
<polyline fill="none" stroke="black" points="33.5247,-579.5 199.525,-579.5 "/>
<text text-anchor="middle" x="116.525" y="-567.5" font-family="Helvetica,sans-Serif" font-size="10.00"> </text>
<polyline fill="none" stroke="black" points="33.5247,-560.5 199.525,-560.5 "/>
<text text-anchor="start" x="41.5247" y="-548.5" font-family="Helvetica,sans-Serif" font-size="10.00">+ Descriptor()</text>
<text text-anchor="start" x="41.5247" y="-537.5" font-family="Helvetica,sans-Serif" font-size="10.00">+ Descriptor()</text>
<text text-anchor="start" x="41.5247" y="-526.5" font-family="Helvetica,sans-Serif" font-size="10.00">+ Descriptor()</text>
<text text-anchor="start" x="41.5247" y="-515.5" font-family="Helvetica,sans-Serif" font-size="10.00">+ Descriptor()</text>
<text text-anchor="start" x="41.5247" y="-504.5" font-family="Helvetica,sans-Serif" font-size="10.00">+ operator=()</text>
<text text-anchor="start" x="41.5247" y="-493.5" font-family="Helvetica,sans-Serif" font-size="10.00">+ operator ItgType()</text>
<text text-anchor="start" x="41.5247" y="-482.5" font-family="Helvetica,sans-Serif" font-size="10.00">+ runtimeInit()</text>
<text text-anchor="start" x="41.5247" y="-471.5" font-family="Helvetica,sans-Serif" font-size="10.00">+ operator==()</text>
<text text-anchor="start" x="41.5247" y="-460.5" font-family="Helvetica,sans-Serif" font-size="10.00">+ operator==()</text>
<text text-anchor="start" x="41.5247" y="-449.5" font-family="Helvetica,sans-Serif" font-size="10.00">+ operator&lt;()</text>
<text text-anchor="start" x="41.5247" y="-438.5" font-family="Helvetica,sans-Serif" font-size="10.00">+ operator!=()</text>
<text text-anchor="start" x="41.5247" y="-427.5" font-family="Helvetica,sans-Serif" font-size="10.00">+ operator!=()</text>
<text text-anchor="start" x="41.5247" y="-416.5" font-family="Helvetica,sans-Serif" font-size="10.00">+ as()</text>
<text text-anchor="start" x="41.5247" y="-405.5" font-family="Helvetica,sans-Serif" font-size="10.00">+ print()</text>
</a>
</g>
</g>
<!-- Node3&#45;&gt;Node2 -->
<g id="edge2" class="edge"><title>Node3&#45;&gt;Node2</title>
<path fill="none" stroke="#404040" d="M192.204,-398.226C216.236,-368.954 244.235,-338.488 273.525,-314 299.742,-292.08 332.053,-272.67 360.686,-257.54"/>
<polygon fill="none" stroke="#404040" points="360.806,-257.478 364.291,-251.165 371.459,-251.954 367.973,-258.267 360.806,-257.478"/>
<text text-anchor="middle" x="302.025" y="-344.5" font-family="Helvetica,sans-Serif" font-size="10.00"> +description</text>
</g>
<!-- Node4 -->
<g id="node4" class="node"><title>Node4</title>
<polygon fill="none" stroke="#bfbfbf" points="232.525,-971.5 232.525,-1028.5 270.525,-1028.5 270.525,-971.5 232.525,-971.5"/>
<text text-anchor="middle" x="251.525" y="-1016.5" font-family="Helvetica,sans-Serif" font-size="10.00">Type</text>
<polyline fill="none" stroke="#bfbfbf" points="232.525,-1009.5 270.525,-1009.5 "/>
<text text-anchor="middle" x="251.525" y="-997.5" font-family="Helvetica,sans-Serif" font-size="10.00"> </text>
<polyline fill="none" stroke="#bfbfbf" points="232.525,-990.5 270.525,-990.5 "/>
<text text-anchor="middle" x="251.525" y="-978.5" font-family="Helvetica,sans-Serif" font-size="10.00"> </text>
</g>
<!-- Node4&#45;&gt;Node3 -->
<g id="edge3" class="edge"><title>Node4&#45;&gt;Node3</title>
<path fill="none" stroke="#404040" d="M232.494,-972.972C218.688,-955.76 198.62,-933.889 176.525,-920 154.391,-906.087 136.031,-923.048 120.525,-902 88.8507,-859.006 94.0544,-722.613 103.097,-621.637"/>
<polygon fill="none" stroke="#404040" points="103.114,-621.457 99.6825,-615.114 104.217,-609.507 107.649,-615.85 103.114,-621.457"/>
<text text-anchor="middle" x="130.525" y="-793.5" font-family="Helvetica,sans-Serif" font-size="10.00"> +itg</text>
</g>
<!-- Node8 -->
<g id="node8" class="node"><title>Node8</title>
<g id="a_node8"><a xlink:href="../../d9/db3/structo2_1_1header_1_1Descriptor.html" target="_top" xlink:title="{o2::header::Descriptor\l\&lt; N, PrinterPolicy \&gt;\n||+ Descriptor()\l+ Descriptor()\l+ Descriptor()\l+ operator=()\l+ operator ItgType()\l+ Descriptor()\l+ runtimeInit()\l+ operator==()\l+ operator\&lt;()\l+ operator!=()\l+ operator==()\l+ operator!=()\l+ as()\l+ print()\l}">
<polygon fill="none" stroke="black" points="204.025,-690.5 204.025,-901.5 317.025,-901.5 317.025,-690.5 204.025,-690.5"/>
<text text-anchor="start" x="212.025" y="-889.5" font-family="Helvetica,sans-Serif" font-size="10.00">o2::header::Descriptor</text>
<text text-anchor="middle" x="260.525" y="-878.5" font-family="Helvetica,sans-Serif" font-size="10.00">&lt; N, PrinterPolicy &gt;</text>
<polyline fill="none" stroke="black" points="204.025,-871.5 317.025,-871.5 "/>
<text text-anchor="middle" x="260.525" y="-859.5" font-family="Helvetica,sans-Serif" font-size="10.00"> </text>
<polyline fill="none" stroke="black" points="204.025,-852.5 317.025,-852.5 "/>
<text text-anchor="start" x="212.025" y="-840.5" font-family="Helvetica,sans-Serif" font-size="10.00">+ Descriptor()</text>
<text text-anchor="start" x="212.025" y="-829.5" font-family="Helvetica,sans-Serif" font-size="10.00">+ Descriptor()</text>
<text text-anchor="start" x="212.025" y="-818.5" font-family="Helvetica,sans-Serif" font-size="10.00">+ Descriptor()</text>
<text text-anchor="start" x="212.025" y="-807.5" font-family="Helvetica,sans-Serif" font-size="10.00">+ operator=()</text>
<text text-anchor="start" x="212.025" y="-796.5" font-family="Helvetica,sans-Serif" font-size="10.00">+ operator ItgType()</text>
<text text-anchor="start" x="212.025" y="-785.5" font-family="Helvetica,sans-Serif" font-size="10.00">+ Descriptor()</text>
<text text-anchor="start" x="212.025" y="-774.5" font-family="Helvetica,sans-Serif" font-size="10.00">+ runtimeInit()</text>
<text text-anchor="start" x="212.025" y="-763.5" font-family="Helvetica,sans-Serif" font-size="10.00">+ operator==()</text>
<text text-anchor="start" x="212.025" y="-752.5" font-family="Helvetica,sans-Serif" font-size="10.00">+ operator&lt;()</text>
<text text-anchor="start" x="212.025" y="-741.5" font-family="Helvetica,sans-Serif" font-size="10.00">+ operator!=()</text>
<text text-anchor="start" x="212.025" y="-730.5" font-family="Helvetica,sans-Serif" font-size="10.00">+ operator==()</text>
<text text-anchor="start" x="212.025" y="-719.5" font-family="Helvetica,sans-Serif" font-size="10.00">+ operator!=()</text>
<text text-anchor="start" x="212.025" y="-708.5" font-family="Helvetica,sans-Serif" font-size="10.00">+ as()</text>
<text text-anchor="start" x="212.025" y="-697.5" font-family="Helvetica,sans-Serif" font-size="10.00">+ print()</text>
</a>
</g>
</g>
<!-- Node4&#45;&gt;Node8 -->
<g id="edge8" class="edge"><title>Node4&#45;&gt;Node8</title>
<path fill="none" stroke="#404040" d="M251.522,-971.205C251.61,-956.062 251.865,-936.996 252.525,-920 252.605,-917.942 252.69,-915.865 252.78,-913.773"/>
<polygon fill="none" stroke="#404040" points="252.786,-913.647 249.069,-907.467 253.344,-901.66 257.06,-907.84 252.786,-913.647"/>
<text text-anchor="middle" x="262.525" y="-934" font-family="Helvetica,sans-Serif" font-size="10.00"> +itg</text>
</g>
<!-- Node11 -->
<g id="node11" class="node"><title>Node11</title>
<g id="a_node11"><a xlink:href="../../d9/db3/structo2_1_1header_1_1Descriptor.html" target="_top" xlink:title="{o2::header::Descriptor\l\&lt; gSizeSerializationMethodString \&gt;\n||+ Descriptor()\l+ Descriptor()\l+ Descriptor()\l+ Descriptor()\l+ operator=()\l+ operator ItgType()\l+ runtimeInit()\l+ operator==()\l+ operator==()\l+ operator\&lt;()\l+ operator!=()\l+ operator!=()\l+ as()\l+ print()\l}">
<polygon fill="none" stroke="black" points="448.525,-398.5 448.525,-609.5 618.525,-609.5 618.525,-398.5 448.525,-398.5"/>
<text text-anchor="start" x="456.525" y="-597.5" font-family="Helvetica,sans-Serif" font-size="10.00">o2::header::Descriptor</text>
<text text-anchor="middle" x="533.525" y="-586.5" font-family="Helvetica,sans-Serif" font-size="10.00">&lt; gSizeSerializationMethodString &gt;</text>
<polyline fill="none" stroke="black" points="448.525,-579.5 618.525,-579.5 "/>
<text text-anchor="middle" x="533.525" y="-567.5" font-family="Helvetica,sans-Serif" font-size="10.00"> </text>
<polyline fill="none" stroke="black" points="448.525,-560.5 618.525,-560.5 "/>
<text text-anchor="start" x="456.525" y="-548.5" font-family="Helvetica,sans-Serif" font-size="10.00">+ Descriptor()</text>
<text text-anchor="start" x="456.525" y="-537.5" font-family="Helvetica,sans-Serif" font-size="10.00">+ Descriptor()</text>
<text text-anchor="start" x="456.525" y="-526.5" font-family="Helvetica,sans-Serif" font-size="10.00">+ Descriptor()</text>
<text text-anchor="start" x="456.525" y="-515.5" font-family="Helvetica,sans-Serif" font-size="10.00">+ Descriptor()</text>
<text text-anchor="start" x="456.525" y="-504.5" font-family="Helvetica,sans-Serif" font-size="10.00">+ operator=()</text>
<text text-anchor="start" x="456.525" y="-493.5" font-family="Helvetica,sans-Serif" font-size="10.00">+ operator ItgType()</text>
<text text-anchor="start" x="456.525" y="-482.5" font-family="Helvetica,sans-Serif" font-size="10.00">+ runtimeInit()</text>
<text text-anchor="start" x="456.525" y="-471.5" font-family="Helvetica,sans-Serif" font-size="10.00">+ operator==()</text>
<text text-anchor="start" x="456.525" y="-460.5" font-family="Helvetica,sans-Serif" font-size="10.00">+ operator==()</text>
<text text-anchor="start" x="456.525" y="-449.5" font-family="Helvetica,sans-Serif" font-size="10.00">+ operator&lt;()</text>
<text text-anchor="start" x="456.525" y="-438.5" font-family="Helvetica,sans-Serif" font-size="10.00">+ operator!=()</text>
<text text-anchor="start" x="456.525" y="-427.5" font-family="Helvetica,sans-Serif" font-size="10.00">+ operator!=()</text>
<text text-anchor="start" x="456.525" y="-416.5" font-family="Helvetica,sans-Serif" font-size="10.00">+ as()</text>
<text text-anchor="start" x="456.525" y="-405.5" font-family="Helvetica,sans-Serif" font-size="10.00">+ print()</text>
</a>
</g>
</g>
<!-- Node4&#45;&gt;Node11 -->
<g id="edge16" class="edge"><title>Node4&#45;&gt;Node11</title>
<path fill="none" stroke="#404040" d="M265.5,-971.454C276.223,-951.401 290.792,-926.639 300.525,-920 337.108,-895.045 366.923,-933.023 398.525,-902 467.131,-834.649 376.557,-760.868 441.525,-690 460.626,-669.164 483.597,-692.994 502.525,-672 515.361,-657.763 523.677,-639.987 528.941,-621.389"/>
<polygon fill="none" stroke="#404040" points="528.945,-621.373 526.509,-614.585 531.837,-609.726 534.273,-616.514 528.945,-621.373"/>
<text text-anchor="middle" x="451.525" y="-793.5" font-family="Helvetica,sans-Serif" font-size="10.00"> +itg</text>
</g>
<!-- Node5 -->
<g id="node5" class="node"><title>Node5</title>
<polygon fill="none" stroke="#bfbfbf" points="73.0247,-971.5 73.0247,-1028.5 108.025,-1028.5 108.025,-971.5 73.0247,-971.5"/>
<text text-anchor="middle" x="90.5247" y="-1016.5" font-family="Helvetica,sans-Serif" font-size="10.00">char</text>
<polyline fill="none" stroke="#bfbfbf" points="73.0247,-1009.5 108.025,-1009.5 "/>
<text text-anchor="middle" x="90.5247" y="-997.5" font-family="Helvetica,sans-Serif" font-size="10.00"> </text>
<polyline fill="none" stroke="#bfbfbf" points="73.0247,-990.5 108.025,-990.5 "/>
<text text-anchor="middle" x="90.5247" y="-978.5" font-family="Helvetica,sans-Serif" font-size="10.00"> </text>
</g>
<!-- Node5&#45;&gt;Node2 -->
<g id="edge13" class="edge"><title>Node5&#45;&gt;Node2</title>
<path fill="none" stroke="#404040" d="M90.6355,-971.116C89.9856,-915.676 84.1176,-788.461 46.5247,-690 43.0952,-681.018 38.037,-680.95 34.5247,-672 24.3285,-646.017 26.754,-637.823 24.5247,-610 16.999,-516.079 -26.3393,-477.314 24.5247,-398 97.677,-283.931 263.046,-244.466 359.287,-230.939"/>
<polygon fill="none" stroke="#404040" points="359.349,-230.931 364.767,-226.171 371.244,-229.342 365.826,-234.101 359.349,-230.931"/>
<text text-anchor="middle" x="65.0247" y="-647.5" font-family="Helvetica,sans-Serif" font-size="10.00"> +magicString</text>
</g>
<!-- Node5&#45;&gt;Node3 -->
<g id="edge4" class="edge"><title>Node5&#45;&gt;Node3</title>
<path fill="none" stroke="#404040" d="M80.6842,-971.406C74.3799,-952.221 66.7891,-925.901 63.5247,-902 50.7743,-808.644 50.4226,-783.307 63.5247,-690 64.652,-681.972 72.5426,-653.44 81.9061,-621.105"/>
<polygon fill="none" stroke="#404040" points="81.9194,-621.059 79.7543,-614.18 85.2709,-609.536 87.436,-616.415 81.9194,-621.059"/>
<text text-anchor="middle" x="74.0247" y="-793.5" font-family="Helvetica,sans-Serif" font-size="10.00"> +str</text>
</g>
<!-- Node5&#45;&gt;Node8 -->
<g id="edge9" class="edge"><title>Node5&#45;&gt;Node8</title>
<path fill="none" stroke="#404040" d="M108.293,-983.043C128.506,-964.493 162.01,-932.51 187.525,-902 190.523,-898.414 193.523,-894.708 196.502,-890.925"/>
<polygon fill="none" stroke="#404040" points="196.527,-890.893 197.024,-883.699 203.856,-881.39 203.359,-888.584 196.527,-890.893"/>
<text text-anchor="middle" x="181.025" y="-934" font-family="Helvetica,sans-Serif" font-size="10.00"> +str</text>
</g>
<!-- Node5&#45;&gt;Node11 -->
<g id="edge17" class="edge"><title>Node5&#45;&gt;Node11</title>
<path fill="none" stroke="#404040" d="M108.099,-971.735C119.33,-952.911 133.13,-926.88 140.525,-902 157.962,-843.33 124.489,-670.509 168.525,-628 209.422,-588.52 365.91,-631.017 436.871,-609.156"/>
<polygon fill="none" stroke="#404040" points="437.114,-609.061 441.244,-603.15 448.289,-604.688 444.159,-610.599 437.114,-609.061"/>
<text text-anchor="middle" x="158.025" y="-793.5" font-family="Helvetica,sans-Serif" font-size="10.00"> +str</text>
</g>
<!-- Node6 -->
<g id="node6" class="node"><title>Node6</title>
<polygon fill="none" stroke="#bfbfbf" points="317.025,-971.5 317.025,-1028.5 414.025,-1028.5 414.025,-971.5 317.025,-971.5"/>
<text text-anchor="middle" x="365.525" y="-1016.5" font-family="Helvetica,sans-Serif" font-size="10.00">anonymous:+@24</text>
<polyline fill="none" stroke="#bfbfbf" points="317.025,-1009.5 414.025,-1009.5 "/>
<text text-anchor="middle" x="365.525" y="-997.5" font-family="Helvetica,sans-Serif" font-size="10.00"> </text>
<polyline fill="none" stroke="#bfbfbf" points="317.025,-990.5 414.025,-990.5 "/>
<text text-anchor="middle" x="365.525" y="-978.5" font-family="Helvetica,sans-Serif" font-size="10.00"> </text>
</g>
<!-- Node6&#45;&gt;Node3 -->
<g id="edge5" class="edge"><title>Node6&#45;&gt;Node3</title>
<path fill="none" stroke="#404040" d="M365.442,-971.222C364.572,-892.968 357.545,-673.433 306.525,-628 276.101,-600.908 251.307,-626.934 210.776,-610.049"/>
<polygon fill="none" stroke="#404040" points="210.564,-609.944 203.411,-610.854 199.819,-604.6 206.973,-603.69 210.564,-609.944"/>
<text text-anchor="middle" x="379.025" y="-793.5" font-family="Helvetica,sans-Serif" font-size="10.00"> +@24</text>
</g>
<!-- Node6&#45;&gt;Node8 -->
<g id="edge10" class="edge"><title>Node6&#45;&gt;Node8</title>
<path fill="none" stroke="#404040" d="M335.004,-971.355C329.728,-965.635 324.629,-959.393 320.525,-953 312.545,-940.573 305.367,-926.921 298.987,-913.023"/>
<polygon fill="none" stroke="#404040" points="298.896,-912.817 292.811,-908.948 294.042,-901.843 300.127,-905.712 298.896,-912.817"/>
<text text-anchor="middle" x="336.025" y="-934" font-family="Helvetica,sans-Serif" font-size="10.00"> +@24</text>
</g>
<!-- Node6&#45;&gt;Node11 -->
<g id="edge18" class="edge"><title>Node6&#45;&gt;Node11</title>
<path fill="none" stroke="#404040" d="M414.157,-988.652C457.323,-976.406 516.815,-951.134 538.525,-902 577.489,-813.813 572.383,-703.478 559.732,-621.524"/>
<polygon fill="none" stroke="#404040" points="559.727,-621.491 554.822,-616.205 557.815,-609.644 562.72,-614.93 559.727,-621.491"/>
<text text-anchor="middle" x="585.025" y="-793.5" font-family="Helvetica,sans-Serif" font-size="10.00"> +@24</text>
</g>
<!-- Node7 -->
<g id="node7" class="node"><title>Node7</title>
<polygon fill="none" stroke="#bfbfbf" points="617.025,-971.5 617.025,-1028.5 658.025,-1028.5 658.025,-971.5 617.025,-971.5"/>
<text text-anchor="middle" x="637.525" y="-1016.5" font-family="Helvetica,sans-Serif" font-size="10.00">static</text>
<polyline fill="none" stroke="#bfbfbf" points="617.025,-1009.5 658.025,-1009.5 "/>
<text text-anchor="middle" x="637.525" y="-997.5" font-family="Helvetica,sans-Serif" font-size="10.00"> </text>
<polyline fill="none" stroke="#bfbfbf" points="617.025,-990.5 658.025,-990.5 "/>
<text text-anchor="middle" x="637.525" y="-978.5" font-family="Helvetica,sans-Serif" font-size="10.00"> </text>
</g>
<!-- Node7&#45;&gt;Node1 -->
<g id="edge23" class="edge"><title>Node7&#45;&gt;Node1</title>
<path fill="none" stroke="#404040" d="M658.329,-989.39C707.832,-964.929 828.525,-895.218 828.525,-797 828.525,-797 828.525,-797 828.525,-222 828.525,-184.581 808.116,-149.834 784.274,-122.009"/>
<polygon fill="none" stroke="#404040" points="784.079,-121.791 777.098,-119.984 776.081,-112.844 783.062,-114.652 784.079,-121.791"/>
<text text-anchor="middle" x="877.025" y="-512.5" font-family="Helvetica,sans-Serif" font-size="10.00"> +sHeaderType</text>
<text text-anchor="middle" x="877.025" y="-501.5" font-family="Helvetica,sans-Serif" font-size="10.00">+sSerializationMethod</text>
<text text-anchor="middle" x="877.025" y="-490.5" font-family="Helvetica,sans-Serif" font-size="10.00">+sVersion</text>
</g>
<!-- Node7&#45;&gt;Node2 -->
<g id="edge22" class="edge"><title>Node7&#45;&gt;Node2</title>
<path fill="none" stroke="#404040" d="M656.581,-971.129C668.2,-952.466 682.028,-926.85 688.525,-902 705.052,-838.785 734.549,-367.136 696.525,-314 653.462,-253.824 567.742,-233.42 505.634,-226.749"/>
<polygon fill="none" stroke="#404040" points="505.493,-226.735 499.138,-230.144 493.547,-225.59 499.902,-222.181 505.493,-226.735"/>
<text text-anchor="middle" x="761.025" y="-664" font-family="Helvetica,sans-Serif" font-size="10.00"> +sMagicString</text>
<text text-anchor="middle" x="761.025" y="-653" font-family="Helvetica,sans-Serif" font-size="10.00">+sHeaderType</text>
<text text-anchor="middle" x="761.025" y="-642" font-family="Helvetica,sans-Serif" font-size="10.00">+sSerializationMethod</text>
<text text-anchor="middle" x="761.025" y="-631" font-family="Helvetica,sans-Serif" font-size="10.00">+sVersion</text>
</g>
<!-- Node7&#45;&gt;Node3 -->
<g id="edge6" class="edge"><title>Node7&#45;&gt;Node3</title>
<path fill="none" stroke="#404040" d="M616.896,-993.045C582.13,-981.773 512.798,-953.69 483.525,-902 476.021,-888.751 488.046,-639.005 477.525,-628 458.441,-608.039 268.755,-620.864 211.181,-608.722"/>
<polygon fill="none" stroke="#404040" points="211.019,-608.671 204.094,-610.681 199.575,-605.062 206.5,-603.051 211.019,-608.671"/>
<text text-anchor="middle" x="509.025" y="-804.5" font-family="Helvetica,sans-Serif" font-size="10.00"> +arraySize</text>
<text text-anchor="middle" x="509.025" y="-793.5" font-family="Helvetica,sans-Serif" font-size="10.00">+size</text>
<text text-anchor="middle" x="509.025" y="-782.5" font-family="Helvetica,sans-Serif" font-size="10.00">+bitcount</text>
</g>
<!-- Node7&#45;&gt;Node8 -->
<g id="edge11" class="edge"><title>Node7&#45;&gt;Node8</title>
<path fill="none" stroke="#404040" d="M616.819,-996.865C564.833,-990.617 426.477,-968.407 335.525,-902 332.268,-899.622 329.099,-897.06 326.02,-894.35"/>
<polygon fill="none" stroke="#404040" points="325.751,-894.094 318.648,-892.853 317.062,-885.818 324.165,-887.06 325.751,-894.094"/>
<text text-anchor="middle" x="453.025" y="-945" font-family="Helvetica,sans-Serif" font-size="10.00"> +arraySize</text>
<text text-anchor="middle" x="453.025" y="-934" font-family="Helvetica,sans-Serif" font-size="10.00">+size</text>
<text text-anchor="middle" x="453.025" y="-923" font-family="Helvetica,sans-Serif" font-size="10.00">+bitcount</text>
</g>
<!-- Node7&#45;&gt;Node11 -->
<g id="edge19" class="edge"><title>Node7&#45;&gt;Node11</title>
<path fill="none" stroke="#404040" d="M636.729,-971.394C634.708,-916.967 627.836,-792.223 605.525,-690 599.321,-661.576 594.769,-655.23 584.525,-628 583.685,-625.769 582.831,-623.518 581.964,-621.252"/>
<polygon fill="none" stroke="#404040" points="581.872,-621.015 575.974,-616.866 577.536,-609.826 583.433,-613.975 581.872,-621.015"/>
<text text-anchor="middle" x="659.025" y="-804.5" font-family="Helvetica,sans-Serif" font-size="10.00"> +arraySize</text>
<text text-anchor="middle" x="659.025" y="-793.5" font-family="Helvetica,sans-Serif" font-size="10.00">+size</text>
<text text-anchor="middle" x="659.025" y="-782.5" font-family="Helvetica,sans-Serif" font-size="10.00">+bitcount</text>
</g>
<!-- Node8&#45;&gt;Node3 -->
<g id="edge7" class="edge"><title>Node8&#45;&gt;Node3</title>
<path fill="none" stroke="orange" d="M198.933,-691.862C195.326,-685.187 191.827,-678.527 188.525,-672 178.477,-652.138 168.503,-630.55 159.324,-609.694"/>
<polygon fill="orange" stroke="orange" points="196.041,-693.869 203.911,-700.963 202.183,-690.51 196.041,-693.869"/>
<text text-anchor="start" x="188.525" y="-653" font-family="Helvetica,sans-Serif" font-size="10.00"> &lt; gSizeHeaderDescription</text>
<text text-anchor="middle" x="247.525" y="-642" font-family="Helvetica,sans-Serif" font-size="10.00">String &gt;</text>
</g>
<!-- Node8&#45;&gt;Node11 -->
<g id="edge20" class="edge"><title>Node8&#45;&gt;Node11</title>
<path fill="none" stroke="orange" d="M323.286,-684.784C339.386,-663.615 358.259,-643.307 379.525,-628 401.775,-611.984 415.381,-624.696 438.525,-610 441.845,-607.892 445.122,-605.637 448.347,-603.262"/>
<polygon fill="orange" stroke="orange" points="320.392,-682.812 317.253,-692.931 326.017,-686.978 320.392,-682.812"/>
<text text-anchor="start" x="379.525" y="-653" font-family="Helvetica,sans-Serif" font-size="10.00"> &lt; gSizeSerializationMethod</text>
<text text-anchor="middle" x="441.025" y="-642" font-family="Helvetica,sans-Serif" font-size="10.00">String &gt;</text>
</g>
<!-- Node9 -->
<g id="node9" class="node"><title>Node9</title>
<polygon fill="none" stroke="#bfbfbf" points="218.025,-475.5 218.025,-532.5 315.025,-532.5 315.025,-475.5 218.025,-475.5"/>
<text text-anchor="middle" x="266.525" y="-520.5" font-family="Helvetica,sans-Serif" font-size="10.00">anonymous:+@26</text>
<polyline fill="none" stroke="#bfbfbf" points="218.025,-513.5 315.025,-513.5 "/>
<text text-anchor="middle" x="266.525" y="-501.5" font-family="Helvetica,sans-Serif" font-size="10.00"> </text>
<polyline fill="none" stroke="#bfbfbf" points="218.025,-494.5 315.025,-494.5 "/>
<text text-anchor="middle" x="266.525" y="-482.5" font-family="Helvetica,sans-Serif" font-size="10.00"> </text>
</g>
<!-- Node9&#45;&gt;Node2 -->
<g id="edge12" class="edge"><title>Node9&#45;&gt;Node2</title>
<path fill="none" stroke="#404040" d="M280.606,-475.242C299.806,-437.921 335.796,-369.805 370.525,-314 372.147,-311.392 373.813,-308.755 375.509,-306.101"/>
<polygon fill="none" stroke="#404040" points="375.649,-305.885 375.558,-298.675 382.179,-295.818 382.27,-303.028 375.649,-305.885"/>
<text text-anchor="middle" x="386.025" y="-344.5" font-family="Helvetica,sans-Serif" font-size="10.00"> +@26</text>
</g>
<!-- Node10 -->
<g id="node10" class="node"><title>Node10</title>
<polygon fill="none" stroke="#bfbfbf" points="333.025,-475.5 333.025,-532.5 430.025,-532.5 430.025,-475.5 333.025,-475.5"/>
<text text-anchor="middle" x="381.525" y="-520.5" font-family="Helvetica,sans-Serif" font-size="10.00">anonymous:+@28</text>
<polyline fill="none" stroke="#bfbfbf" points="333.025,-513.5 430.025,-513.5 "/>
<text text-anchor="middle" x="381.525" y="-501.5" font-family="Helvetica,sans-Serif" font-size="10.00"> </text>
<polyline fill="none" stroke="#bfbfbf" points="333.025,-494.5 430.025,-494.5 "/>
<text text-anchor="middle" x="381.525" y="-482.5" font-family="Helvetica,sans-Serif" font-size="10.00"> </text>
</g>
<!-- Node10&#45;&gt;Node2 -->
<g id="edge14" class="edge"><title>Node10&#45;&gt;Node2</title>
<path fill="none" stroke="#404040" d="M386.554,-475.485C393.628,-436.788 406.818,-364.631 417.261,-307.5"/>
<polygon fill="none" stroke="#404040" points="417.287,-307.358 414.431,-300.737 419.445,-295.554 422.301,-302.175 417.287,-307.358"/>
<text text-anchor="middle" x="432.025" y="-344.5" font-family="Helvetica,sans-Serif" font-size="10.00"> +@28</text>
</g>
<!-- Node11&#45;&gt;Node2 -->
<g id="edge15" class="edge"><title>Node11&#45;&gt;Node2</title>
<path fill="none" stroke="#404040" d="M495.629,-398.317C484.756,-368.283 473.051,-335.949 462.71,-307.383"/>
<polygon fill="none" stroke="#404040" points="462.604,-307.089 456.8,-302.809 458.519,-295.806 464.322,-300.086 462.604,-307.089"/>
<text text-anchor="middle" x="517.025" y="-344.5" font-family="Helvetica,sans-Serif" font-size="10.00"> +serialization</text>
</g>
<!-- Node12 -->
<g id="node12" class="node"><title>Node12</title>
<polygon fill="none" stroke="#bfbfbf" points="637.025,-475.5 637.025,-532.5 688.025,-532.5 688.025,-475.5 637.025,-475.5"/>
<text text-anchor="middle" x="662.525" y="-520.5" font-family="Helvetica,sans-Serif" font-size="10.00">uint32_t</text>
<polyline fill="none" stroke="#bfbfbf" points="637.025,-513.5 688.025,-513.5 "/>
<text text-anchor="middle" x="662.525" y="-501.5" font-family="Helvetica,sans-Serif" font-size="10.00"> </text>
<polyline fill="none" stroke="#bfbfbf" points="637.025,-494.5 688.025,-494.5 "/>
<text text-anchor="middle" x="662.525" y="-482.5" font-family="Helvetica,sans-Serif" font-size="10.00"> </text>
</g>
<!-- Node12&#45;&gt;Node2 -->
<g id="edge21" class="edge"><title>Node12&#45;&gt;Node2</title>
<path fill="none" stroke="#404040" d="M656.64,-475.369C651.196,-453.392 641.77,-422.391 627.525,-398 597.232,-346.131 546.121,-301.376 503.825,-270.248"/>
<polygon fill="none" stroke="#404040" points="503.563,-270.059 496.357,-269.785 493.838,-263.028 501.044,-263.302 503.563,-270.059"/>
<text text-anchor="middle" x="652.525" y="-372" font-family="Helvetica,sans-Serif" font-size="10.00"> +headerVersion</text>
<text text-anchor="middle" x="652.525" y="-361" font-family="Helvetica,sans-Serif" font-size="10.00">+headerSize</text>
<text text-anchor="middle" x="652.525" y="-350" font-family="Helvetica,sans-Serif" font-size="10.00">+flagsNextHeader</text>
<text text-anchor="middle" x="652.525" y="-339" font-family="Helvetica,sans-Serif" font-size="10.00">+magicStringInt</text>
<text text-anchor="middle" x="652.525" y="-328" font-family="Helvetica,sans-Serif" font-size="10.00">+flagsUnused</text>
<text text-anchor="middle" x="652.525" y="-317" font-family="Helvetica,sans-Serif" font-size="10.00">+flags</text>
</g>
</g>
</svg>
        <g id="navigator" transform="translate(0 0)" fill="#404254">
                <rect fill="#f2f5e9" fill-opacity="0.5" stroke="#606060" stroke-width=".5" x="0" y="0" width="60" height="60"/>
                <use id="zoomplus" xlink:href="#zoomPlus" x="17" y="9" onmousedown="handleZoom(evt,'in')"/>
                <use id="zoomminus" xlink:href="#zoomMin" x="42" y="9" onmousedown="handleZoom(evt,'out')"/>
                <use id="reset" xlink:href="#resetDef" x="30" y="36" onmousedown="handleReset()"/>
                <g id="arrowUp" xlink:href="#dirArrow" transform="translate(30 24)" onmousedown="handlePan(0,-1)">
                  <use xlink:href="#rim" fill="#404040">
                        <set attributeName="fill" to="#808080" begin="arrowUp.mouseover" end="arrowUp.mouseout"/>
                  </use>
                  <path fill="none" stroke="white" stroke-width="1.5" d="M0,-3.0v7 M-2.5,-0.5L0,-3.0L2.5,-0.5"/>
                </g>
                <g id="arrowRight" xlink:href="#dirArrow" transform="rotate(90) translate(36 -43)" onmousedown="handlePan(1,0)">
                  <use xlink:href="#rim" fill="#404040">
                        <set attributeName="fill" to="#808080" begin="arrowRight.mouseover" end="arrowRight.mouseout"/>
                  </use>
                  <path fill="none" stroke="white" stroke-width="1.5" d="M0,-3.0v7 M-2.5,-0.5L0,-3.0L2.5,-0.5"/>
                </g>
                <g id="arrowDown" xlink:href="#dirArrow" transform="rotate(180) translate(-30 -48)" onmousedown="handlePan(0,1)">
                  <use xlink:href="#rim" fill="#404040">
                        <set attributeName="fill" to="#808080" begin="arrowDown.mouseover" end="arrowDown.mouseout"/>
                  </use>
                  <path fill="none" stroke="white" stroke-width="1.5" d="M0,-3.0v7 M-2.5,-0.5L0,-3.0L2.5,-0.5"/>
                </g>
                <g id="arrowLeft" xlink:href="#dirArrow" transform="rotate(270) translate(-36 17)" onmousedown="handlePan(-1,0)">
                  <use xlink:href="#rim" fill="#404040">
                        <set attributeName="fill" to="#808080" begin="arrowLeft.mouseover" end="arrowLeft.mouseout"/>
                  </use>
                  <path fill="none" stroke="white" stroke-width="1.5" d="M0,-3.0v7 M-2.5,-0.5L0,-3.0L2.5,-0.5"/>
                </g>
        </g>
        <svg viewBox="0 0 15 15" width="100%" height="30px" preserveAspectRatio="xMaxYMin meet">
         <g id="arrow_out" transform="scale(0.3 0.3)">
          <a xlink:href="structo2_1_1header_1_1NameHeader__coll__graph_org.svg" target="_base">
           <rect id="button" ry="5" rx="5" y="6" x="6" height="38" width="38"
                fill="#f2f5e9" fill-opacity="0.5" stroke="#606060" stroke-width="1.0"/>
           <path id="arrow"
             d="M 11.500037,31.436501 C 11.940474,20.09759 22.043105,11.32322 32.158766,21.979434 L 37.068811,17.246167 C 37.068811,17.246167 37.088388,32 37.088388,32 L 22.160133,31.978069 C 22.160133,31.978069 26.997745,27.140456 26.997745,27.140456 C 18.528582,18.264221 13.291696,25.230495 11.500037,31.436501 z"
             style="fill:#404040;"/>
          </a>
         </g>
        </svg>
</svg>
