<?xml version="1.0" encoding="UTF-8" standalone="no"?>
<!DOCTYPE svg PUBLIC "-//W3C//DTD SVG 1.1//EN"
 "http://www.w3.org/Graphics/SVG/1.1/DTD/svg11.dtd">
<!-- Generated by graphviz version 2.38.0 (20140413.2041)
 -->
<!-- Title: o2::tpc::SimpleEventDisplay Pages: 1 -->
<svg width="186pt" height="618pt"
 viewBox="0.00 0.00 186.00 618.00" xmlns="http://www.w3.org/2000/svg" xmlns:xlink="http://www.w3.org/1999/xlink">
<g id="graph0" class="graph" transform="scale(1 1) rotate(0) translate(4 614)">
<title>o2::tpc::SimpleEventDisplay</title>
<!-- Node1 -->
<g id="node1" class="node"><title>Node1</title>
<polygon fill="#bfbfbf" stroke="black" points="18.5,-0.5 18.5,-178.5 159.5,-178.5 159.5,-0.5 18.5,-0.5"/>
<text text-anchor="middle" x="89" y="-166.5" font-family="Helvetica,sans-Serif" font-size="10.00">o2::tpc::SimpleEventDisplay</text>
<polyline fill="none" stroke="black" points="18.5,-159.5 159.5,-159.5 "/>
<text text-anchor="middle" x="89" y="-147.5" font-family="Helvetica,sans-Serif" font-size="10.00"> </text>
<polyline fill="none" stroke="black" points="18.5,-140.5 159.5,-140.5 "/>
<text text-anchor="start" x="26.5" y="-128.5" font-family="Helvetica,sans-Serif" font-size="10.00">+ SimpleEventDisplay()</text>
<text text-anchor="start" x="26.5" y="-117.5" font-family="Helvetica,sans-Serif" font-size="10.00">+ ~SimpleEventDisplay()</text>
<text text-anchor="start" x="26.5" y="-106.5" font-family="Helvetica,sans-Serif" font-size="10.00">+ updateROC()</text>
<text text-anchor="start" x="26.5" y="-95.5" font-family="Helvetica,sans-Serif" font-size="10.00">+ updateCRU()</text>
<text text-anchor="start" x="26.5" y="-84.5" font-family="Helvetica,sans-Serif" font-size="10.00">+ getCalPadMax()</text>
<text text-anchor="start" x="26.5" y="-73.5" font-family="Helvetica,sans-Serif" font-size="10.00">+ setSelectedSector()</text>
<text text-anchor="start" x="26.5" y="-62.5" font-family="Helvetica,sans-Serif" font-size="10.00">+ setLastSector()</text>
<text text-anchor="start" x="26.5" y="-51.5" font-family="Helvetica,sans-Serif" font-size="10.00">+ setLastSelSector()</text>
<text text-anchor="start" x="26.5" y="-40.5" font-family="Helvetica,sans-Serif" font-size="10.00">+ setPedstals()</text>
<text text-anchor="start" x="26.5" y="-29.5" font-family="Helvetica,sans-Serif" font-size="10.00">+ makePadSignals()</text>
<text text-anchor="start" x="26.5" y="-18.5" font-family="Helvetica,sans-Serif" font-size="10.00">+ setTimeBinRange()</text>
<text text-anchor="start" x="26.5" y="-7.5" font-family="Helvetica,sans-Serif" font-size="10.00">+ endEvent()</text>
</g>
<!-- Node2 -->
<g id="node2" class="node"><title>Node2</title>
<g id="a_node2"><a xlink:href="../../dd/d57/classo2_1_1tpc_1_1CalibRawBase.html" target="_top" xlink:title="Base class for raw data calibrations. ">
<polygon fill="none" stroke="black" points="-1.42109e-14,-216.5 -1.42109e-14,-504.5 178,-504.5 178,-216.5 -1.42109e-14,-216.5"/>
<text text-anchor="middle" x="89" y="-492.5" font-family="Helvetica,sans-Serif" font-size="10.00">o2::tpc::CalibRawBase</text>
<polyline fill="none" stroke="black" points="-1.42109e-14,-485.5 178,-485.5 "/>
<text text-anchor="middle" x="89" y="-473.5" font-family="Helvetica,sans-Serif" font-size="10.00"> </text>
<polyline fill="none" stroke="black" points="-1.42109e-14,-466.5 178,-466.5 "/>
<text text-anchor="start" x="8" y="-454.5" font-family="Helvetica,sans-Serif" font-size="10.00">+ CalibRawBase()</text>
<text text-anchor="start" x="8" y="-443.5" font-family="Helvetica,sans-Serif" font-size="10.00">+ ~CalibRawBase()</text>
<text text-anchor="start" x="8" y="-432.5" font-family="Helvetica,sans-Serif" font-size="10.00">+ updateROC()</text>
<text text-anchor="start" x="8" y="-421.5" font-family="Helvetica,sans-Serif" font-size="10.00">+ updateCRU()</text>
<text text-anchor="start" x="8" y="-410.5" font-family="Helvetica,sans-Serif" font-size="10.00">+ update()</text>
<text text-anchor="start" x="8" y="-399.5" font-family="Helvetica,sans-Serif" font-size="10.00">+ addGBTFrameContainer()</text>
<text text-anchor="start" x="8" y="-388.5" font-family="Helvetica,sans-Serif" font-size="10.00">+ addRawReader()</text>
<text text-anchor="start" x="8" y="-377.5" font-family="Helvetica,sans-Serif" font-size="10.00">+ setTimeBinsPerCall()</text>
<text text-anchor="start" x="8" y="-366.5" font-family="Helvetica,sans-Serif" font-size="10.00">+ getTimeBinsPerCall()</text>
<text text-anchor="start" x="8" y="-355.5" font-family="Helvetica,sans-Serif" font-size="10.00">+ getPadSubset()</text>
<text text-anchor="start" x="8" y="-344.5" font-family="Helvetica,sans-Serif" font-size="10.00">+ processEvent()</text>
<text text-anchor="start" x="8" y="-333.5" font-family="Helvetica,sans-Serif" font-size="10.00">+ setupContainers()</text>
<text text-anchor="start" x="8" y="-322.5" font-family="Helvetica,sans-Serif" font-size="10.00">+ setDebugLevel()</text>
<text text-anchor="start" x="8" y="-311.5" font-family="Helvetica,sans-Serif" font-size="10.00">+ rewindEvents()</text>
<text text-anchor="start" x="8" y="-300.5" font-family="Helvetica,sans-Serif" font-size="10.00">+ dumpToFile()</text>
<text text-anchor="start" x="8" y="-289.5" font-family="Helvetica,sans-Serif" font-size="10.00">+ getNumberOfProcessedEvents()</text>
<text text-anchor="start" x="8" y="-278.5" font-family="Helvetica,sans-Serif" font-size="10.00">+ getPresentEventNumber()</text>
<text text-anchor="start" x="8" y="-267.5" font-family="Helvetica,sans-Serif" font-size="10.00">+ isPresentEventComplete()</text>
<text text-anchor="start" x="8" y="-256.5" font-family="Helvetica,sans-Serif" font-size="10.00">+ getNumberOfProcessedTimeBins()</text>
<text text-anchor="start" x="8" y="-245.5" font-family="Helvetica,sans-Serif" font-size="10.00">+ getDebugLevel()</text>
<text text-anchor="start" x="8" y="-234.5" font-family="Helvetica,sans-Serif" font-size="10.00">+ setSkipIncompleteEvents()</text>
<text text-anchor="start" x="8" y="-223.5" font-family="Helvetica,sans-Serif" font-size="10.00">+ getSkipIncompleteEvents()</text>
</a>
</g>
</g>
<!-- Node2&#45;&gt;Node1 -->
<g id="edge1" class="edge"><title>Node2&#45;&gt;Node1</title>
<path fill="none" stroke="midnightblue" d="M89,-206.169C89,-196.835 89,-187.625 89,-178.723"/>
<polygon fill="none" stroke="midnightblue" points="85.5001,-206.336 89,-216.336 92.5001,-206.336 85.5001,-206.336"/>
</g>
<!-- Node3 -->
<g id="node3" class="node"><title>Node3</title>
<polygon fill="none" stroke="#bfbfbf" points="28.5,-552.5 28.5,-609.5 57.5,-609.5 57.5,-552.5 28.5,-552.5"/>
<text text-anchor="middle" x="43" y="-597.5" font-family="Helvetica,sans-Serif" font-size="10.00">int</text>
<polyline fill="none" stroke="#bfbfbf" points="28.5,-590.5 57.5,-590.5 "/>
<text text-anchor="middle" x="43" y="-578.5" font-family="Helvetica,sans-Serif" font-size="10.00"> </text>
<polyline fill="none" stroke="#bfbfbf" points="28.5,-571.5 57.5,-571.5 "/>
<text text-anchor="middle" x="43" y="-559.5" font-family="Helvetica,sans-Serif" font-size="10.00"> </text>
</g>
<!-- Node3&#45;&gt;Node2 -->
<g id="edge2" class="edge"><title>Node3&#45;&gt;Node2</title>
<path fill="none" stroke="#404040" d="M42.0767,-552.343C42.1375,-542.984 42.6162,-532.5 44,-523 44.3029,-520.921 44.6244,-518.831 44.9634,-516.731"/>
<polygon fill="none" stroke="#404040" points="45.0131,-516.447 42.1097,-509.846 47.086,-504.627 49.9894,-511.228 45.0131,-516.447"/>
<text text-anchor="middle" x="78.5" y="-526" font-family="Helvetica,sans-Serif" font-size="10.00"> #mDebugLevel</text>
</g>
<!-- Node4 -->
<g id="node4" class="node"><title>Node4</title>
<polygon fill="none" stroke="#bfbfbf" points="114.5,-552.5 114.5,-609.5 155.5,-609.5 155.5,-552.5 114.5,-552.5"/>
<text text-anchor="middle" x="135" y="-597.5" font-family="Helvetica,sans-Serif" font-size="10.00">const</text>
<polyline fill="none" stroke="#bfbfbf" points="114.5,-590.5 155.5,-590.5 "/>
<text text-anchor="middle" x="135" y="-578.5" font-family="Helvetica,sans-Serif" font-size="10.00"> </text>
<polyline fill="none" stroke="#bfbfbf" points="114.5,-571.5 155.5,-571.5 "/>
<text text-anchor="middle" x="135" y="-559.5" font-family="Helvetica,sans-Serif" font-size="10.00"> </text>
</g>
<!-- Node4&#45;&gt;Node2 -->
<g id="edge3" class="edge"><title>Node4&#45;&gt;Node2</title>
<path fill="none" stroke="#404040" d="M129.174,-552.327C127.061,-542.29 124.499,-530.12 121.702,-516.837"/>
<polygon fill="none" stroke="#404040" points="121.662,-516.645 116.512,-511.598 119.19,-504.903 124.34,-509.95 121.662,-516.645"/>
<text text-anchor="middle" x="149.5" y="-526" font-family="Helvetica,sans-Serif" font-size="10.00"> #mMapper</text>
</g>
</g>
</svg>
