<?xml version="1.0" encoding="UTF-8" standalone="no"?>
<!DOCTYPE svg PUBLIC "-//W3C//DTD SVG 1.1//EN"
 "http://www.w3.org/Graphics/SVG/1.1/DTD/svg11.dtd">
<!-- Generated by graphviz version 2.38.0 (20140413.2041)
 -->
<!-- Title: o2::header::DataIdentifier Pages: 1 -->
<svg width="618pt" height="788pt"
 viewBox="0.00 0.00 618.07 788.00" xmlns="http://www.w3.org/2000/svg" xmlns:xlink="http://www.w3.org/1999/xlink">
<g id="graph0" class="graph" transform="scale(1 1) rotate(0) translate(4 784)">
<title>o2::header::DataIdentifier</title>
<!-- Node1 -->
<g id="node1" class="node"><title>Node1</title>
<polygon fill="#bfbfbf" stroke="black" points="240.57,-0.5 240.57,-101.5 367.57,-101.5 367.57,-0.5 240.57,-0.5"/>
<text text-anchor="middle" x="304.07" y="-89.5" font-family="Helvetica,sans-Serif" font-size="10.00">o2::header::DataIdentifier</text>
<polyline fill="none" stroke="black" points="240.57,-82.5 367.57,-82.5 "/>
<text text-anchor="middle" x="304.07" y="-70.5" font-family="Helvetica,sans-Serif" font-size="10.00"> </text>
<polyline fill="none" stroke="black" points="240.57,-63.5 367.57,-63.5 "/>
<text text-anchor="start" x="248.57" y="-51.5" font-family="Helvetica,sans-Serif" font-size="10.00">+ DataIdentifier()</text>
<text text-anchor="start" x="248.57" y="-40.5" font-family="Helvetica,sans-Serif" font-size="10.00">+ DataIdentifier()</text>
<text text-anchor="start" x="248.57" y="-29.5" font-family="Helvetica,sans-Serif" font-size="10.00">+ DataIdentifier()</text>
<text text-anchor="start" x="248.57" y="-18.5" font-family="Helvetica,sans-Serif" font-size="10.00">+ operator==()</text>
<text text-anchor="start" x="248.57" y="-7.5" font-family="Helvetica,sans-Serif" font-size="10.00">+ print()</text>
</g>
<!-- Node2 -->
<g id="node2" class="node"><title>Node2</title>
<g id="a_node2"><a xlink:href="../../d9/db3/structo2_1_1header_1_1Descriptor.html" target="_top" xlink:title="{o2::header::Descriptor\l\&lt; gSizeDataOriginString,\l printDataOrigin \&gt;\n||+ Descriptor()\l+ Descriptor()\l+ Descriptor()\l+ Descriptor()\l+ operator=()\l+ operator ItgType()\l+ runtimeInit()\l+ operator==()\l+ operator==()\l+ operator\&lt;()\l+ operator!=()\l+ operator!=()\l+ as()\l+ print()\l}">
<polygon fill="none" stroke="black" points="351.57,-149.5 351.57,-371.5 476.57,-371.5 476.57,-149.5 351.57,-149.5"/>
<text text-anchor="start" x="359.57" y="-359.5" font-family="Helvetica,sans-Serif" font-size="10.00">o2::header::Descriptor</text>
<text text-anchor="start" x="359.57" y="-348.5" font-family="Helvetica,sans-Serif" font-size="10.00">&lt; gSizeDataOriginString,</text>
<text text-anchor="middle" x="414.07" y="-337.5" font-family="Helvetica,sans-Serif" font-size="10.00"> printDataOrigin &gt;</text>
<polyline fill="none" stroke="black" points="351.57,-330.5 476.57,-330.5 "/>
<text text-anchor="middle" x="414.07" y="-318.5" font-family="Helvetica,sans-Serif" font-size="10.00"> </text>
<polyline fill="none" stroke="black" points="351.57,-311.5 476.57,-311.5 "/>
<text text-anchor="start" x="359.57" y="-299.5" font-family="Helvetica,sans-Serif" font-size="10.00">+ Descriptor()</text>
<text text-anchor="start" x="359.57" y="-288.5" font-family="Helvetica,sans-Serif" font-size="10.00">+ Descriptor()</text>
<text text-anchor="start" x="359.57" y="-277.5" font-family="Helvetica,sans-Serif" font-size="10.00">+ Descriptor()</text>
<text text-anchor="start" x="359.57" y="-266.5" font-family="Helvetica,sans-Serif" font-size="10.00">+ Descriptor()</text>
<text text-anchor="start" x="359.57" y="-255.5" font-family="Helvetica,sans-Serif" font-size="10.00">+ operator=()</text>
<text text-anchor="start" x="359.57" y="-244.5" font-family="Helvetica,sans-Serif" font-size="10.00">+ operator ItgType()</text>
<text text-anchor="start" x="359.57" y="-233.5" font-family="Helvetica,sans-Serif" font-size="10.00">+ runtimeInit()</text>
<text text-anchor="start" x="359.57" y="-222.5" font-family="Helvetica,sans-Serif" font-size="10.00">+ operator==()</text>
<text text-anchor="start" x="359.57" y="-211.5" font-family="Helvetica,sans-Serif" font-size="10.00">+ operator==()</text>
<text text-anchor="start" x="359.57" y="-200.5" font-family="Helvetica,sans-Serif" font-size="10.00">+ operator&lt;()</text>
<text text-anchor="start" x="359.57" y="-189.5" font-family="Helvetica,sans-Serif" font-size="10.00">+ operator!=()</text>
<text text-anchor="start" x="359.57" y="-178.5" font-family="Helvetica,sans-Serif" font-size="10.00">+ operator!=()</text>
<text text-anchor="start" x="359.57" y="-167.5" font-family="Helvetica,sans-Serif" font-size="10.00">+ as()</text>
<text text-anchor="start" x="359.57" y="-156.5" font-family="Helvetica,sans-Serif" font-size="10.00">+ print()</text>
</a>
</g>
</g>
<!-- Node2&#45;&gt;Node1 -->
<g id="edge1" class="edge"><title>Node2&#45;&gt;Node1</title>
<path fill="none" stroke="#404040" d="M355.688,-149.371C348.985,-136.727 342.35,-124.211 336.182,-112.576"/>
<polygon fill="none" stroke="#404040" points="336.046,-112.318 329.701,-108.891 330.425,-101.716 336.77,-105.144 336.046,-112.318"/>
<text text-anchor="middle" x="370.07" y="-123" font-family="Helvetica,sans-Serif" font-size="10.00"> +dataOrigin</text>
</g>
<!-- Node3 -->
<g id="node3" class="node"><title>Node3</title>
<polygon fill="none" stroke="#bfbfbf" points="230.07,-722.5 230.07,-779.5 268.07,-779.5 268.07,-722.5 230.07,-722.5"/>
<text text-anchor="middle" x="249.07" y="-767.5" font-family="Helvetica,sans-Serif" font-size="10.00">Type</text>
<polyline fill="none" stroke="#bfbfbf" points="230.07,-760.5 268.07,-760.5 "/>
<text text-anchor="middle" x="249.07" y="-748.5" font-family="Helvetica,sans-Serif" font-size="10.00"> </text>
<polyline fill="none" stroke="#bfbfbf" points="230.07,-741.5 268.07,-741.5 "/>
<text text-anchor="middle" x="249.07" y="-729.5" font-family="Helvetica,sans-Serif" font-size="10.00"> </text>
</g>
<!-- Node3&#45;&gt;Node2 -->
<g id="edge2" class="edge"><title>Node3&#45;&gt;Node2</title>
<path fill="none" stroke="#404040" d="M241.578,-722.13C227.286,-662.082 203.609,-519.585 276.07,-441 308.463,-405.869 347.821,-456.323 382.07,-423 393.416,-411.961 401.35,-398.139 406.818,-383.256"/>
<polygon fill="none" stroke="#404040" points="406.862,-383.121 404.89,-376.184 410.535,-371.696 412.506,-378.633 406.862,-383.121"/>
<text text-anchor="middle" x="286.07" y="-544.5" font-family="Helvetica,sans-Serif" font-size="10.00"> +itg</text>
</g>
<!-- Node7 -->
<g id="node7" class="node"><title>Node7</title>
<g id="a_node7"><a xlink:href="../../d9/db3/structo2_1_1header_1_1Descriptor.html" target="_top" xlink:title="{o2::header::Descriptor\l\&lt; N, PrinterPolicy \&gt;\n||+ Descriptor()\l+ Descriptor()\l+ Descriptor()\l+ operator=()\l+ operator ItgType()\l+ Descriptor()\l+ runtimeInit()\l+ operator==()\l+ operator\&lt;()\l+ operator!=()\l+ operator==()\l+ operator!=()\l+ as()\l+ print()\l}">
<polygon fill="none" stroke="black" points="359.57,-441.5 359.57,-652.5 472.57,-652.5 472.57,-441.5 359.57,-441.5"/>
<text text-anchor="start" x="367.57" y="-640.5" font-family="Helvetica,sans-Serif" font-size="10.00">o2::header::Descriptor</text>
<text text-anchor="middle" x="416.07" y="-629.5" font-family="Helvetica,sans-Serif" font-size="10.00">&lt; N, PrinterPolicy &gt;</text>
<polyline fill="none" stroke="black" points="359.57,-622.5 472.57,-622.5 "/>
<text text-anchor="middle" x="416.07" y="-610.5" font-family="Helvetica,sans-Serif" font-size="10.00"> </text>
<polyline fill="none" stroke="black" points="359.57,-603.5 472.57,-603.5 "/>
<text text-anchor="start" x="367.57" y="-591.5" font-family="Helvetica,sans-Serif" font-size="10.00">+ Descriptor()</text>
<text text-anchor="start" x="367.57" y="-580.5" font-family="Helvetica,sans-Serif" font-size="10.00">+ Descriptor()</text>
<text text-anchor="start" x="367.57" y="-569.5" font-family="Helvetica,sans-Serif" font-size="10.00">+ Descriptor()</text>
<text text-anchor="start" x="367.57" y="-558.5" font-family="Helvetica,sans-Serif" font-size="10.00">+ operator=()</text>
<text text-anchor="start" x="367.57" y="-547.5" font-family="Helvetica,sans-Serif" font-size="10.00">+ operator ItgType()</text>
<text text-anchor="start" x="367.57" y="-536.5" font-family="Helvetica,sans-Serif" font-size="10.00">+ Descriptor()</text>
<text text-anchor="start" x="367.57" y="-525.5" font-family="Helvetica,sans-Serif" font-size="10.00">+ runtimeInit()</text>
<text text-anchor="start" x="367.57" y="-514.5" font-family="Helvetica,sans-Serif" font-size="10.00">+ operator==()</text>
<text text-anchor="start" x="367.57" y="-503.5" font-family="Helvetica,sans-Serif" font-size="10.00">+ operator&lt;()</text>
<text text-anchor="start" x="367.57" y="-492.5" font-family="Helvetica,sans-Serif" font-size="10.00">+ operator!=()</text>
<text text-anchor="start" x="367.57" y="-481.5" font-family="Helvetica,sans-Serif" font-size="10.00">+ operator==()</text>
<text text-anchor="start" x="367.57" y="-470.5" font-family="Helvetica,sans-Serif" font-size="10.00">+ operator!=()</text>
<text text-anchor="start" x="367.57" y="-459.5" font-family="Helvetica,sans-Serif" font-size="10.00">+ as()</text>
<text text-anchor="start" x="367.57" y="-448.5" font-family="Helvetica,sans-Serif" font-size="10.00">+ print()</text>
</a>
</g>
</g>
<!-- Node3&#45;&gt;Node7 -->
<g id="edge7" class="edge"><title>Node3&#45;&gt;Node7</title>
<path fill="none" stroke="#404040" d="M268.417,-730.524C291.716,-706.949 329.312,-668.485 342.07,-653 345.431,-648.92 348.804,-644.696 352.158,-640.388"/>
<polygon fill="none" stroke="#404040" points="352.165,-640.379 352.636,-633.184 359.459,-630.85 358.988,-638.046 352.165,-640.379"/>
<text text-anchor="middle" x="336.07" y="-685" font-family="Helvetica,sans-Serif" font-size="10.00"> +itg</text>
</g>
<!-- Node9 -->
<g id="node9" class="node"><title>Node9</title>
<g id="a_node9"><a xlink:href="../../d9/db3/structo2_1_1header_1_1Descriptor.html" target="_top" xlink:title="{o2::header::Descriptor\l\&lt; gSizeDataDescriptionString,\l printDataDescription \&gt;\n||+ Descriptor()\l+ Descriptor()\l+ Descriptor()\l+ Descriptor()\l+ operator=()\l+ operator ItgType()\l+ runtimeInit()\l+ operator==()\l+ operator==()\l+ operator\&lt;()\l+ operator!=()\l+ operator!=()\l+ as()\l+ print()\l}">
<polygon fill="none" stroke="black" points="32.5698,-149.5 32.5698,-371.5 181.57,-371.5 181.57,-149.5 32.5698,-149.5"/>
<text text-anchor="start" x="40.5698" y="-359.5" font-family="Helvetica,sans-Serif" font-size="10.00">o2::header::Descriptor</text>
<text text-anchor="start" x="40.5698" y="-348.5" font-family="Helvetica,sans-Serif" font-size="10.00">&lt; gSizeDataDescriptionString,</text>
<text text-anchor="middle" x="107.07" y="-337.5" font-family="Helvetica,sans-Serif" font-size="10.00"> printDataDescription &gt;</text>
<polyline fill="none" stroke="black" points="32.5698,-330.5 181.57,-330.5 "/>
<text text-anchor="middle" x="107.07" y="-318.5" font-family="Helvetica,sans-Serif" font-size="10.00"> </text>
<polyline fill="none" stroke="black" points="32.5698,-311.5 181.57,-311.5 "/>
<text text-anchor="start" x="40.5698" y="-299.5" font-family="Helvetica,sans-Serif" font-size="10.00">+ Descriptor()</text>
<text text-anchor="start" x="40.5698" y="-288.5" font-family="Helvetica,sans-Serif" font-size="10.00">+ Descriptor()</text>
<text text-anchor="start" x="40.5698" y="-277.5" font-family="Helvetica,sans-Serif" font-size="10.00">+ Descriptor()</text>
<text text-anchor="start" x="40.5698" y="-266.5" font-family="Helvetica,sans-Serif" font-size="10.00">+ Descriptor()</text>
<text text-anchor="start" x="40.5698" y="-255.5" font-family="Helvetica,sans-Serif" font-size="10.00">+ operator=()</text>
<text text-anchor="start" x="40.5698" y="-244.5" font-family="Helvetica,sans-Serif" font-size="10.00">+ operator ItgType()</text>
<text text-anchor="start" x="40.5698" y="-233.5" font-family="Helvetica,sans-Serif" font-size="10.00">+ runtimeInit()</text>
<text text-anchor="start" x="40.5698" y="-222.5" font-family="Helvetica,sans-Serif" font-size="10.00">+ operator==()</text>
<text text-anchor="start" x="40.5698" y="-211.5" font-family="Helvetica,sans-Serif" font-size="10.00">+ operator==()</text>
<text text-anchor="start" x="40.5698" y="-200.5" font-family="Helvetica,sans-Serif" font-size="10.00">+ operator&lt;()</text>
<text text-anchor="start" x="40.5698" y="-189.5" font-family="Helvetica,sans-Serif" font-size="10.00">+ operator!=()</text>
<text text-anchor="start" x="40.5698" y="-178.5" font-family="Helvetica,sans-Serif" font-size="10.00">+ operator!=()</text>
<text text-anchor="start" x="40.5698" y="-167.5" font-family="Helvetica,sans-Serif" font-size="10.00">+ as()</text>
<text text-anchor="start" x="40.5698" y="-156.5" font-family="Helvetica,sans-Serif" font-size="10.00">+ print()</text>
</a>
</g>
</g>
<!-- Node3&#45;&gt;Node9 -->
<g id="edge12" class="edge"><title>Node3&#45;&gt;Node9</title>
<path fill="none" stroke="#404040" d="M229.852,-747.842C186.667,-741.845 82.2781,-720.677 38.0698,-653 -25.8626,-555.129 4.20693,-503.024 34.0698,-390 34.6719,-387.721 35.3249,-385.44 36.0243,-383.16"/>
<polygon fill="none" stroke="#404040" points="36.0285,-383.147 34.1702,-376.18 39.8871,-371.785 41.7454,-378.752 36.0285,-383.147"/>
<text text-anchor="middle" x="48.0698" y="-544.5" font-family="Helvetica,sans-Serif" font-size="10.00"> +itg</text>
</g>
<!-- Node4 -->
<g id="node4" class="node"><title>Node4</title>
<polygon fill="none" stroke="#bfbfbf" points="286.57,-722.5 286.57,-779.5 321.57,-779.5 321.57,-722.5 286.57,-722.5"/>
<text text-anchor="middle" x="304.07" y="-767.5" font-family="Helvetica,sans-Serif" font-size="10.00">char</text>
<polyline fill="none" stroke="#bfbfbf" points="286.57,-760.5 321.57,-760.5 "/>
<text text-anchor="middle" x="304.07" y="-748.5" font-family="Helvetica,sans-Serif" font-size="10.00"> </text>
<polyline fill="none" stroke="#bfbfbf" points="286.57,-741.5 321.57,-741.5 "/>
<text text-anchor="middle" x="304.07" y="-729.5" font-family="Helvetica,sans-Serif" font-size="10.00"> </text>
</g>
<!-- Node4&#45;&gt;Node2 -->
<g id="edge3" class="edge"><title>Node4&#45;&gt;Node2</title>
<path fill="none" stroke="#404040" d="M302.263,-722.039C298.485,-653.982 292.862,-482.264 329.07,-441 354.252,-412.301 388.975,-452.618 413.07,-423 422.332,-411.615 427.848,-398.134 430.763,-383.89"/>
<polygon fill="none" stroke="#404040" points="430.802,-383.636 427.76,-377.098 432.625,-371.775 435.667,-378.313 430.802,-383.636"/>
<text text-anchor="middle" x="339.57" y="-544.5" font-family="Helvetica,sans-Serif" font-size="10.00"> +str</text>
</g>
<!-- Node4&#45;&gt;Node7 -->
<g id="edge8" class="edge"><title>Node4&#45;&gt;Node7</title>
<path fill="none" stroke="#404040" d="M321.842,-738.114C333.228,-729.726 347.594,-717.593 357.07,-704 365.628,-691.723 373.135,-678.045 379.667,-664.032"/>
<polygon fill="none" stroke="#404040" points="379.814,-663.703 378.602,-656.595 384.698,-652.742 385.91,-659.851 379.814,-663.703"/>
<text text-anchor="middle" x="386.57" y="-685" font-family="Helvetica,sans-Serif" font-size="10.00"> +str</text>
</g>
<!-- Node4&#45;&gt;Node9 -->
<g id="edge13" class="edge"><title>Node4&#45;&gt;Node9</title>
<path fill="none" stroke="#404040" d="M286.282,-729.798C283.354,-727.003 280.236,-724.305 277.07,-722 220.668,-680.934 181.312,-706.11 136.07,-653 96.8511,-606.961 56.7672,-449.759 66.0698,-390 66.3917,-387.932 66.7411,-385.852 67.1157,-383.763"/>
<polygon fill="none" stroke="#404040" points="67.1697,-383.492 64.4225,-376.825 69.5204,-371.725 72.2675,-378.392 67.1697,-383.492"/>
<text text-anchor="middle" x="146.57" y="-544.5" font-family="Helvetica,sans-Serif" font-size="10.00"> +str</text>
</g>
<!-- Node5 -->
<g id="node5" class="node"><title>Node5</title>
<polygon fill="none" stroke="#bfbfbf" points="166.57,-518.5 166.57,-575.5 195.57,-575.5 195.57,-518.5 166.57,-518.5"/>
<text text-anchor="middle" x="181.07" y="-563.5" font-family="Helvetica,sans-Serif" font-size="10.00">int</text>
<polyline fill="none" stroke="#bfbfbf" points="166.57,-556.5 195.57,-556.5 "/>
<text text-anchor="middle" x="181.07" y="-544.5" font-family="Helvetica,sans-Serif" font-size="10.00"> </text>
<polyline fill="none" stroke="#bfbfbf" points="166.57,-537.5 195.57,-537.5 "/>
<text text-anchor="middle" x="181.07" y="-525.5" font-family="Helvetica,sans-Serif" font-size="10.00"> </text>
</g>
<!-- Node5&#45;&gt;Node2 -->
<g id="edge4" class="edge"><title>Node5&#45;&gt;Node2</title>
<path fill="none" stroke="#404040" d="M188.243,-518.083C195.702,-494.411 209.641,-461.178 233.07,-441 252.879,-423.94 267.665,-438.01 289.07,-423 309.152,-408.917 327.509,-390.652 343.606,-371.494"/>
<polygon fill="none" stroke="#404040" points="343.74,-371.33 344.433,-364.152 351.325,-362.031 350.632,-369.209 343.74,-371.33"/>
<text text-anchor="middle" x="352.57" y="-415" font-family="Helvetica,sans-Serif" font-size="10.00"> +arraySize</text>
<text text-anchor="middle" x="352.57" y="-404" font-family="Helvetica,sans-Serif" font-size="10.00">+size</text>
<text text-anchor="middle" x="352.57" y="-393" font-family="Helvetica,sans-Serif" font-size="10.00">+bitcount</text>
</g>
<!-- Node5&#45;&gt;Node9 -->
<g id="edge14" class="edge"><title>Node5&#45;&gt;Node9</title>
<path fill="none" stroke="#404040" d="M166.552,-521.261C152.595,-498.748 129.991,-465.404 105.07,-441 95.028,-431.167 85.5926,-435.449 79.0698,-423 72.6856,-410.815 69.7108,-397.474 69.0855,-383.847"/>
<polygon fill="none" stroke="#404040" points="69.0854,-383.82 65.0998,-377.811 69.1141,-371.82 73.0997,-377.83 69.0854,-383.82"/>
<text text-anchor="middle" x="104.57" y="-415" font-family="Helvetica,sans-Serif" font-size="10.00"> +arraySize</text>
<text text-anchor="middle" x="104.57" y="-404" font-family="Helvetica,sans-Serif" font-size="10.00">+size</text>
<text text-anchor="middle" x="104.57" y="-393" font-family="Helvetica,sans-Serif" font-size="10.00">+bitcount</text>
</g>
<!-- Node6 -->
<g id="node6" class="node"><title>Node6</title>
<polygon fill="none" stroke="#bfbfbf" points="494.57,-722.5 494.57,-779.5 591.57,-779.5 591.57,-722.5 494.57,-722.5"/>
<text text-anchor="middle" x="543.07" y="-767.5" font-family="Helvetica,sans-Serif" font-size="10.00">anonymous:+@24</text>
<polyline fill="none" stroke="#bfbfbf" points="494.57,-760.5 591.57,-760.5 "/>
<text text-anchor="middle" x="543.07" y="-748.5" font-family="Helvetica,sans-Serif" font-size="10.00"> </text>
<polyline fill="none" stroke="#bfbfbf" points="494.57,-741.5 591.57,-741.5 "/>
<text text-anchor="middle" x="543.07" y="-729.5" font-family="Helvetica,sans-Serif" font-size="10.00"> </text>
</g>
<!-- Node6&#45;&gt;Node2 -->
<g id="edge5" class="edge"><title>Node6&#45;&gt;Node2</title>
<path fill="none" stroke="#404040" d="M552.999,-722.083C554.691,-716.185 556.185,-709.945 557.07,-704 559.228,-689.493 557.122,-685.667 557.07,-671 556.625,-546.109 605.931,-504.066 555.07,-390 540.535,-357.402 513.251,-329.478 486.527,-308.069"/>
<polygon fill="none" stroke="#404040" points="486.218,-307.829 479.025,-307.317 476.732,-300.48 483.925,-300.992 486.218,-307.829"/>
<text text-anchor="middle" x="594.57" y="-544.5" font-family="Helvetica,sans-Serif" font-size="10.00"> +@24</text>
</g>
<!-- Node6&#45;&gt;Node7 -->
<g id="edge9" class="edge"><title>Node6&#45;&gt;Node7</title>
<path fill="none" stroke="#404040" d="M513.612,-722.45C508.122,-716.627 502.672,-710.323 498.07,-704 488.887,-691.384 480.108,-677.603 471.938,-663.622"/>
<polygon fill="none" stroke="#404040" points="471.768,-663.325 465.317,-660.102 465.811,-652.908 472.262,-656.131 471.768,-663.325"/>
<text text-anchor="middle" x="513.57" y="-685" font-family="Helvetica,sans-Serif" font-size="10.00"> +@24</text>
</g>
<!-- Node6&#45;&gt;Node9 -->
<g id="edge15" class="edge"><title>Node6&#45;&gt;Node9</title>
<path fill="none" stroke="#404040" d="M539.189,-722.369C536.792,-707.107 533.353,-687.876 529.07,-671 526.995,-662.826 525.227,-661.152 523.07,-653 498.5,-560.142 542.972,-514.446 481.07,-441 466.654,-423.896 454.564,-431.962 434.07,-423 388.013,-402.859 273.292,-345.574 192.802,-304.969"/>
<polygon fill="none" stroke="#404040" points="192.395,-304.764 185.236,-305.631 181.682,-299.356 188.841,-298.489 192.395,-304.764"/>
<text text-anchor="middle" x="538.57" y="-544.5" font-family="Helvetica,sans-Serif" font-size="10.00"> +@24</text>
</g>
<!-- Node7&#45;&gt;Node2 -->
<g id="edge6" class="edge"><title>Node7&#45;&gt;Node2</title>
<path fill="none" stroke="orange" d="M437.254,-431.306C437.553,-428.513 437.827,-425.742 438.07,-423 439.548,-406.341 439.07,-388.783 437.459,-371.625"/>
<polygon fill="orange" stroke="orange" points="433.748,-431.15 436.06,-441.49 440.701,-431.965 433.748,-431.15"/>
<text text-anchor="start" x="439.07" y="-409.5" font-family="Helvetica,sans-Serif" font-size="10.00"> &lt; gSizeDataOriginString,</text>
<text text-anchor="middle" x="495.07" y="-398.5" font-family="Helvetica,sans-Serif" font-size="10.00"> printDataOrigin &gt;</text>
</g>
<!-- Node7&#45;&gt;Node9 -->
<g id="edge16" class="edge"><title>Node7&#45;&gt;Node9</title>
<path fill="none" stroke="orange" d="M351.584,-447.296C348.522,-445.011 345.351,-442.9 342.07,-441 304.795,-419.413 181.885,-450.904 149.07,-423 139.8,-415.118 132.092,-395.02 125.918,-371.572"/>
<polygon fill="orange" stroke="orange" points="349.48,-450.097 359.434,-453.727 353.916,-444.682 349.48,-450.097"/>
<text text-anchor="start" x="149.07" y="-409.5" font-family="Helvetica,sans-Serif" font-size="10.00"> &lt; gSizeDataDescriptionString,</text>
<text text-anchor="middle" x="217.07" y="-398.5" font-family="Helvetica,sans-Serif" font-size="10.00"> printDataDescription &gt;</text>
</g>
<!-- Node8 -->
<g id="node8" class="node"><title>Node8</title>
<polygon fill="none" stroke="#bfbfbf" points="402.57,-722.5 402.57,-779.5 443.57,-779.5 443.57,-722.5 402.57,-722.5"/>
<text text-anchor="middle" x="423.07" y="-767.5" font-family="Helvetica,sans-Serif" font-size="10.00">static</text>
<polyline fill="none" stroke="#bfbfbf" points="402.57,-760.5 443.57,-760.5 "/>
<text text-anchor="middle" x="423.07" y="-748.5" font-family="Helvetica,sans-Serif" font-size="10.00"> </text>
<polyline fill="none" stroke="#bfbfbf" points="402.57,-741.5 443.57,-741.5 "/>
<text text-anchor="middle" x="423.07" y="-729.5" font-family="Helvetica,sans-Serif" font-size="10.00"> </text>
</g>
<!-- Node8&#45;&gt;Node7 -->
<g id="edge10" class="edge"><title>Node8&#45;&gt;Node7</title>
<path fill="none" stroke="#404040" d="M422.111,-722.336C421.574,-706.838 420.864,-686.34 420.119,-664.861"/>
<polygon fill="none" stroke="#404040" points="420.119,-664.846 415.914,-658.988 419.703,-652.853 423.909,-658.711 420.119,-664.846"/>
<text text-anchor="middle" x="447.57" y="-696" font-family="Helvetica,sans-Serif" font-size="10.00"> +arraySize</text>
<text text-anchor="middle" x="447.57" y="-685" font-family="Helvetica,sans-Serif" font-size="10.00">+size</text>
<text text-anchor="middle" x="447.57" y="-674" font-family="Helvetica,sans-Serif" font-size="10.00">+bitcount</text>
</g>
<!-- Node9&#45;&gt;Node1 -->
<g id="edge11" class="edge"><title>Node9&#45;&gt;Node1</title>
<path fill="none" stroke="#404040" d="M181.828,-180.757C204.023,-157.38 227.927,-132.201 248.66,-110.363"/>
<polygon fill="none" stroke="#404040" points="248.774,-110.243 250.004,-103.138 257.036,-101.541 255.806,-108.646 248.774,-110.243"/>
<text text-anchor="middle" x="274.07" y="-123" font-family="Helvetica,sans-Serif" font-size="10.00"> +dataDescription</text>
</g>
</g>
</svg>
