<?xml version="1.0" encoding="UTF-8" standalone="no"?>
<!DOCTYPE svg PUBLIC "-//W3C//DTD SVG 1.1//EN"
 "http://www.w3.org/Graphics/SVG/1.1/DTD/svg11.dtd">
<!-- Generated by graphviz version 2.38.0 (20140413.2041)
 -->
<!-- Title: /home/travis/build/AliceO2Group/AliceO2/GPU/GPUTracking/TPCClusterFinder/PackedCharge.h Pages: 1 -->
<svg width="1716pt" height="417pt"
 viewBox="0.00 0.00 1716.38 417.00" xmlns="http://www.w3.org/2000/svg" xmlns:xlink="http://www.w3.org/1999/xlink">
<g id="graph0" class="graph" transform="scale(1 1) rotate(0) translate(4 413)">
<title>/home/travis/build/AliceO2Group/AliceO2/GPU/GPUTracking/TPCClusterFinder/PackedCharge.h</title>
<!-- Node1 -->
<g id="node1" class="node"><title>Node1</title>
<polygon fill="#bfbfbf" stroke="black" points="752.381,-356.5 752.381,-408.5 937.381,-408.5 937.381,-356.5 752.381,-356.5"/>
<text text-anchor="start" x="760.381" y="-396.5" font-family="Helvetica,sans-Serif" font-size="10.00">/home/travis/build</text>
<text text-anchor="start" x="760.381" y="-385.5" font-family="Helvetica,sans-Serif" font-size="10.00">/AliceO2Group/AliceO2</text>
<text text-anchor="start" x="760.381" y="-374.5" font-family="Helvetica,sans-Serif" font-size="10.00">/GPU/GPUTracking/TPCClusterFinder</text>
<text text-anchor="middle" x="844.881" y="-363.5" font-family="Helvetica,sans-Serif" font-size="10.00">/PackedCharge.h</text>
</g>
<!-- Node2 -->
<g id="node2" class="node"><title>Node2</title>
<g id="a_node2"><a xlink:href="../../d5/df1/GPUTPCSharedMemoryData_8h.html" target="_top" xlink:title="/home/travis/build\l/AliceO2Group/AliceO2\l/GPU/GPUTracking/TPCClusterFinder\l/GPUTPCSharedMemoryData.h">
<polygon fill="none" stroke="black" points="632.381,-267.5 632.381,-319.5 817.381,-319.5 817.381,-267.5 632.381,-267.5"/>
<text text-anchor="start" x="640.381" y="-307.5" font-family="Helvetica,sans-Serif" font-size="10.00">/home/travis/build</text>
<text text-anchor="start" x="640.381" y="-296.5" font-family="Helvetica,sans-Serif" font-size="10.00">/AliceO2Group/AliceO2</text>
<text text-anchor="start" x="640.381" y="-285.5" font-family="Helvetica,sans-Serif" font-size="10.00">/GPU/GPUTracking/TPCClusterFinder</text>
<text text-anchor="middle" x="724.881" y="-274.5" font-family="Helvetica,sans-Serif" font-size="10.00">/GPUTPCSharedMemoryData.h</text>
</a>
</g>
</g>
<!-- Node1&#45;&gt;Node2 -->
<g id="edge1" class="edge"><title>Node1&#45;&gt;Node2</title>
<path fill="none" stroke="midnightblue" d="M801.734,-350.219C787.865,-340.164 772.688,-329.16 759.511,-319.607"/>
<polygon fill="midnightblue" stroke="midnightblue" points="800.021,-353.3 810.172,-356.336 804.13,-347.633 800.021,-353.3"/>
</g>
<!-- Node8 -->
<g id="node8" class="node"><title>Node8</title>
<g id="a_node8"><a xlink:href="../../d8/db5/GPUTPCClusterFinderKernels_8cxx.html" target="_top" xlink:title="/home/travis/build\l/AliceO2Group/AliceO2\l/GPU/GPUTracking/TPCClusterFinder\l/GPUTPCClusterFinderKernels.cxx">
<polygon fill="none" stroke="black" points="674.381,-0.5 674.381,-52.5 859.381,-52.5 859.381,-0.5 674.381,-0.5"/>
<text text-anchor="start" x="682.381" y="-40.5" font-family="Helvetica,sans-Serif" font-size="10.00">/home/travis/build</text>
<text text-anchor="start" x="682.381" y="-29.5" font-family="Helvetica,sans-Serif" font-size="10.00">/AliceO2Group/AliceO2</text>
<text text-anchor="start" x="682.381" y="-18.5" font-family="Helvetica,sans-Serif" font-size="10.00">/GPU/GPUTracking/TPCClusterFinder</text>
<text text-anchor="middle" x="766.881" y="-7.5" font-family="Helvetica,sans-Serif" font-size="10.00">/GPUTPCClusterFinderKernels.cxx</text>
</a>
</g>
</g>
<!-- Node1&#45;&gt;Node8 -->
<g id="edge35" class="edge"><title>Node1&#45;&gt;Node8</title>
<path fill="none" stroke="midnightblue" d="M742.069,-374.384C603.435,-358.524 362.064,-307.317 258.881,-142 186.112,-25.4123 387.658,-99.6484 664.881,-53 667.941,-52.4851 671.044,-51.9261 674.172,-51.3312"/>
<polygon fill="midnightblue" stroke="midnightblue" points="741.957,-377.893 752.28,-375.51 742.724,-370.935 741.957,-377.893"/>
</g>
<!-- Node10 -->
<g id="node10" class="node"><title>Node10</title>
<g id="a_node10"><a xlink:href="../../dd/d1f/PeakFinder_8cxx.html" target="_top" xlink:title="/home/travis/build\l/AliceO2Group/AliceO2\l/GPU/GPUTracking/TPCClusterFinder\l/PeakFinder.cxx">
<polygon fill="none" stroke="black" points="471.381,-0.5 471.381,-52.5 656.381,-52.5 656.381,-0.5 471.381,-0.5"/>
<text text-anchor="start" x="479.381" y="-40.5" font-family="Helvetica,sans-Serif" font-size="10.00">/home/travis/build</text>
<text text-anchor="start" x="479.381" y="-29.5" font-family="Helvetica,sans-Serif" font-size="10.00">/AliceO2Group/AliceO2</text>
<text text-anchor="start" x="479.381" y="-18.5" font-family="Helvetica,sans-Serif" font-size="10.00">/GPU/GPUTracking/TPCClusterFinder</text>
<text text-anchor="middle" x="563.881" y="-7.5" font-family="Helvetica,sans-Serif" font-size="10.00">/PeakFinder.cxx</text>
</a>
</g>
</g>
<!-- Node1&#45;&gt;Node10 -->
<g id="edge37" class="edge"><title>Node1&#45;&gt;Node10</title>
<path fill="none" stroke="midnightblue" d="M741.995,-376.772C648.492,-370.333 507.583,-355.232 389.881,-320 214.677,-267.555 116.294,-296.782 18.8805,-142 -59.3381,-17.7165 113.008,-110.387 461.881,-53 464.942,-52.4963 468.047,-51.9471 471.176,-51.3606"/>
<polygon fill="midnightblue" stroke="midnightblue" points="741.813,-380.268 752.024,-377.442 742.279,-373.283 741.813,-380.268"/>
</g>
<!-- Node13 -->
<g id="node13" class="node"><title>Node13</title>
<g id="a_node13"><a xlink:href="../../d5/d4f/GPU_2GPUTracking_2TPCClusterFinder_2Clusterizer_8h.html" target="_top" xlink:title="/home/travis/build\l/AliceO2Group/AliceO2\l/GPU/GPUTracking/TPCClusterFinder\l/Clusterizer.h">
<polygon fill="none" stroke="black" points="1320.38,-89.5 1320.38,-141.5 1505.38,-141.5 1505.38,-89.5 1320.38,-89.5"/>
<text text-anchor="start" x="1328.38" y="-129.5" font-family="Helvetica,sans-Serif" font-size="10.00">/home/travis/build</text>
<text text-anchor="start" x="1328.38" y="-118.5" font-family="Helvetica,sans-Serif" font-size="10.00">/AliceO2Group/AliceO2</text>
<text text-anchor="start" x="1328.38" y="-107.5" font-family="Helvetica,sans-Serif" font-size="10.00">/GPU/GPUTracking/TPCClusterFinder</text>
<text text-anchor="middle" x="1412.88" y="-96.5" font-family="Helvetica,sans-Serif" font-size="10.00">/Clusterizer.h</text>
</a>
</g>
</g>
<!-- Node1&#45;&gt;Node13 -->
<g id="edge33" class="edge"><title>Node1&#45;&gt;Node13</title>
<path fill="none" stroke="midnightblue" d="M907.763,-352.162C1020.21,-299.699 1253.83,-190.706 1359.23,-141.529"/>
<polygon fill="midnightblue" stroke="midnightblue" points="906.155,-349.05 898.572,-356.45 909.114,-355.394 906.155,-349.05"/>
</g>
<!-- Node14 -->
<g id="node14" class="node"><title>Node14</title>
<g id="a_node14"><a xlink:href="../../df/da6/Deconvolution_8h.html" target="_top" xlink:title="/home/travis/build\l/AliceO2Group/AliceO2\l/GPU/GPUTracking/TPCClusterFinder\l/Deconvolution.h">
<polygon fill="none" stroke="black" points="711.381,-89.5 711.381,-141.5 896.381,-141.5 896.381,-89.5 711.381,-89.5"/>
<text text-anchor="start" x="719.381" y="-129.5" font-family="Helvetica,sans-Serif" font-size="10.00">/home/travis/build</text>
<text text-anchor="start" x="719.381" y="-118.5" font-family="Helvetica,sans-Serif" font-size="10.00">/AliceO2Group/AliceO2</text>
<text text-anchor="start" x="719.381" y="-107.5" font-family="Helvetica,sans-Serif" font-size="10.00">/GPU/GPUTracking/TPCClusterFinder</text>
<text text-anchor="middle" x="803.881" y="-96.5" font-family="Helvetica,sans-Serif" font-size="10.00">/Deconvolution.h</text>
</a>
</g>
</g>
<!-- Node1&#45;&gt;Node14 -->
<g id="edge34" class="edge"><title>Node1&#45;&gt;Node14</title>
<path fill="none" stroke="midnightblue" d="M844.263,-346.44C842.934,-305.556 838.783,-236.158 825.881,-178 823.154,-165.712 818.656,-152.517 814.435,-141.513"/>
<polygon fill="midnightblue" stroke="midnightblue" points="840.764,-346.546 844.55,-356.442 847.762,-346.346 840.764,-346.546"/>
</g>
<!-- Node16 -->
<g id="node16" class="node"><title>Node16</title>
<g id="a_node16"><a xlink:href="../../d7/d98/NoiseSuppression_8h.html" target="_top" xlink:title="/home/travis/build\l/AliceO2Group/AliceO2\l/GPU/GPUTracking/TPCClusterFinder\l/NoiseSuppression.h">
<polygon fill="none" stroke="black" points="914.381,-89.5 914.381,-141.5 1099.38,-141.5 1099.38,-89.5 914.381,-89.5"/>
<text text-anchor="start" x="922.381" y="-129.5" font-family="Helvetica,sans-Serif" font-size="10.00">/home/travis/build</text>
<text text-anchor="start" x="922.381" y="-118.5" font-family="Helvetica,sans-Serif" font-size="10.00">/AliceO2Group/AliceO2</text>
<text text-anchor="start" x="922.381" y="-107.5" font-family="Helvetica,sans-Serif" font-size="10.00">/GPU/GPUTracking/TPCClusterFinder</text>
<text text-anchor="middle" x="1006.88" y="-96.5" font-family="Helvetica,sans-Serif" font-size="10.00">/NoiseSuppression.h</text>
</a>
</g>
</g>
<!-- Node1&#45;&gt;Node16 -->
<g id="edge36" class="edge"><title>Node1&#45;&gt;Node16</title>
<path fill="none" stroke="midnightblue" d="M865.824,-347.241C898.821,-293.264 962.159,-189.655 991.394,-141.832"/>
<polygon fill="midnightblue" stroke="midnightblue" points="862.643,-345.733 860.414,-356.091 868.616,-349.384 862.643,-345.733"/>
</g>
<!-- Node19 -->
<g id="node19" class="node"><title>Node19</title>
<g id="a_node19"><a xlink:href="../../d3/def/ClusterAccumulator_8h.html" target="_top" xlink:title="/home/travis/build\l/AliceO2Group/AliceO2\l/GPU/GPUTracking/TPCClusterFinder\l/ClusterAccumulator.h">
<polygon fill="none" stroke="black" points="1523.38,-89.5 1523.38,-141.5 1708.38,-141.5 1708.38,-89.5 1523.38,-89.5"/>
<text text-anchor="start" x="1531.38" y="-129.5" font-family="Helvetica,sans-Serif" font-size="10.00">/home/travis/build</text>
<text text-anchor="start" x="1531.38" y="-118.5" font-family="Helvetica,sans-Serif" font-size="10.00">/AliceO2Group/AliceO2</text>
<text text-anchor="start" x="1531.38" y="-107.5" font-family="Helvetica,sans-Serif" font-size="10.00">/GPU/GPUTracking/TPCClusterFinder</text>
<text text-anchor="middle" x="1615.88" y="-96.5" font-family="Helvetica,sans-Serif" font-size="10.00">/ClusterAccumulator.h</text>
</a>
</g>
</g>
<!-- Node1&#45;&gt;Node19 -->
<g id="edge29" class="edge"><title>Node1&#45;&gt;Node19</title>
<path fill="none" stroke="midnightblue" d="M938.618,-353.419C971.948,-343.199 1009.68,-331.363 1043.88,-320 1227.43,-259.017 1441.74,-180.901 1548.4,-141.547"/>
<polygon fill="midnightblue" stroke="midnightblue" points="937.423,-350.124 928.884,-356.396 939.471,-356.818 937.423,-350.124"/>
</g>
<!-- Node3 -->
<g id="node3" class="node"><title>Node3</title>
<g id="a_node3"><a xlink:href="../../d1/d59/GPUTPCClusterFinderKernels_8h.html" target="_top" xlink:title="/home/travis/build\l/AliceO2Group/AliceO2\l/GPU/GPUTracking/TPCClusterFinder\l/GPUTPCClusterFinderKernels.h">
<polygon fill="none" stroke="black" points="632.381,-178.5 632.381,-230.5 817.381,-230.5 817.381,-178.5 632.381,-178.5"/>
<text text-anchor="start" x="640.381" y="-218.5" font-family="Helvetica,sans-Serif" font-size="10.00">/home/travis/build</text>
<text text-anchor="start" x="640.381" y="-207.5" font-family="Helvetica,sans-Serif" font-size="10.00">/AliceO2Group/AliceO2</text>
<text text-anchor="start" x="640.381" y="-196.5" font-family="Helvetica,sans-Serif" font-size="10.00">/GPU/GPUTracking/TPCClusterFinder</text>
<text text-anchor="middle" x="724.881" y="-185.5" font-family="Helvetica,sans-Serif" font-size="10.00">/GPUTPCClusterFinderKernels.h</text>
</a>
</g>
</g>
<!-- Node2&#45;&gt;Node3 -->
<g id="edge2" class="edge"><title>Node2&#45;&gt;Node3</title>
<path fill="none" stroke="midnightblue" d="M724.881,-257.191C724.881,-248.282 724.881,-238.899 724.881,-230.607"/>
<polygon fill="midnightblue" stroke="midnightblue" points="721.381,-257.336 724.881,-267.336 728.381,-257.336 721.381,-257.336"/>
</g>
<!-- Node4 -->
<g id="node4" class="node"><title>Node4</title>
<g id="a_node4"><a xlink:href="../../da/de7/CfUtils_8h.html" target="_top" xlink:title="/home/travis/build\l/AliceO2Group/AliceO2\l/GPU/GPUTracking/TPCClusterFinder\l/CfUtils.h">
<polygon fill="none" stroke="black" points="1117.38,-89.5 1117.38,-141.5 1302.38,-141.5 1302.38,-89.5 1117.38,-89.5"/>
<text text-anchor="start" x="1125.38" y="-129.5" font-family="Helvetica,sans-Serif" font-size="10.00">/home/travis/build</text>
<text text-anchor="start" x="1125.38" y="-118.5" font-family="Helvetica,sans-Serif" font-size="10.00">/AliceO2Group/AliceO2</text>
<text text-anchor="start" x="1125.38" y="-107.5" font-family="Helvetica,sans-Serif" font-size="10.00">/GPU/GPUTracking/TPCClusterFinder</text>
<text text-anchor="middle" x="1209.88" y="-96.5" font-family="Helvetica,sans-Serif" font-size="10.00">/CfUtils.h</text>
</a>
</g>
</g>
<!-- Node3&#45;&gt;Node4 -->
<g id="edge3" class="edge"><title>Node3&#45;&gt;Node4</title>
<path fill="none" stroke="midnightblue" d="M827.992,-189.391C905.334,-178.216 1013.64,-161.308 1107.88,-142 1110.92,-141.377 1114.01,-140.725 1117.12,-140.049"/>
<polygon fill="midnightblue" stroke="midnightblue" points="827.166,-185.974 817.766,-190.861 828.162,-192.903 827.166,-185.974"/>
</g>
<!-- Node3&#45;&gt;Node8 -->
<g id="edge19" class="edge"><title>Node3&#45;&gt;Node8</title>
<path fill="none" stroke="midnightblue" d="M707.547,-169.008C698.296,-145.681 690.867,-114.583 701.881,-89 707.962,-74.8736 719.061,-62.4756 730.387,-52.5819"/>
<polygon fill="midnightblue" stroke="midnightblue" points="704.444,-170.655 711.574,-178.491 710.887,-167.919 704.444,-170.655"/>
</g>
<!-- Node11 -->
<g id="node11" class="node"><title>Node11</title>
<g id="a_node11"><a xlink:href="../../db/d0d/ChargeMapFiller_8h.html" target="_top" xlink:title="/home/travis/build\l/AliceO2Group/AliceO2\l/GPU/GPUTracking/TPCClusterFinder\l/ChargeMapFiller.h">
<polygon fill="none" stroke="black" points="28.3805,-89.5 28.3805,-141.5 213.381,-141.5 213.381,-89.5 28.3805,-89.5"/>
<text text-anchor="start" x="36.3805" y="-129.5" font-family="Helvetica,sans-Serif" font-size="10.00">/home/travis/build</text>
<text text-anchor="start" x="36.3805" y="-118.5" font-family="Helvetica,sans-Serif" font-size="10.00">/AliceO2Group/AliceO2</text>
<text text-anchor="start" x="36.3805" y="-107.5" font-family="Helvetica,sans-Serif" font-size="10.00">/GPU/GPUTracking/TPCClusterFinder</text>
<text text-anchor="middle" x="120.881" y="-96.5" font-family="Helvetica,sans-Serif" font-size="10.00">/ChargeMapFiller.h</text>
</a>
</g>
</g>
<!-- Node3&#45;&gt;Node11 -->
<g id="edge10" class="edge"><title>Node3&#45;&gt;Node11</title>
<path fill="none" stroke="midnightblue" d="M622.145,-191.484C527.576,-180.057 383.503,-161.724 258.881,-142 244.201,-139.677 228.682,-137.013 213.557,-134.302"/>
<polygon fill="midnightblue" stroke="midnightblue" points="621.935,-194.983 632.282,-192.705 622.773,-188.034 621.935,-194.983"/>
</g>
<!-- Node3&#45;&gt;Node13 -->
<g id="edge13" class="edge"><title>Node3&#45;&gt;Node13</title>
<path fill="none" stroke="midnightblue" d="M827.612,-197.104C945.093,-188.777 1142.89,-171.663 1310.88,-142 1313.94,-141.46 1317.04,-140.88 1320.16,-140.267"/>
<polygon fill="midnightblue" stroke="midnightblue" points="827.278,-193.619 817.547,-197.81 827.768,-200.602 827.278,-193.619"/>
</g>
<!-- Node3&#45;&gt;Node14 -->
<g id="edge16" class="edge"><title>Node3&#45;&gt;Node14</title>
<path fill="none" stroke="midnightblue" d="M754.583,-170.79C763.355,-161.129 772.817,-150.71 781.082,-141.607"/>
<polygon fill="midnightblue" stroke="midnightblue" points="751.862,-168.58 747.731,-178.336 757.044,-173.286 751.862,-168.58"/>
</g>
<!-- Node15 -->
<g id="node15" class="node"><title>Node15</title>
<g id="a_node15"><a xlink:href="../../d0/dde/PeakFinder_8h.html" target="_top" xlink:title="/home/travis/build\l/AliceO2Group/AliceO2\l/GPU/GPUTracking/TPCClusterFinder\l/PeakFinder.h">
<polygon fill="none" stroke="black" points="471.381,-89.5 471.381,-141.5 656.381,-141.5 656.381,-89.5 471.381,-89.5"/>
<text text-anchor="start" x="479.381" y="-129.5" font-family="Helvetica,sans-Serif" font-size="10.00">/home/travis/build</text>
<text text-anchor="start" x="479.381" y="-118.5" font-family="Helvetica,sans-Serif" font-size="10.00">/AliceO2Group/AliceO2</text>
<text text-anchor="start" x="479.381" y="-107.5" font-family="Helvetica,sans-Serif" font-size="10.00">/GPU/GPUTracking/TPCClusterFinder</text>
<text text-anchor="middle" x="563.881" y="-96.5" font-family="Helvetica,sans-Serif" font-size="10.00">/PeakFinder.h</text>
</a>
</g>
</g>
<!-- Node3&#45;&gt;Node15 -->
<g id="edge20" class="edge"><title>Node3&#45;&gt;Node15</title>
<path fill="none" stroke="midnightblue" d="M669.353,-173.494C650.118,-163.101 628.772,-151.566 610.344,-141.607"/>
<polygon fill="midnightblue" stroke="midnightblue" points="667.851,-176.661 678.313,-178.336 671.179,-170.503 667.851,-176.661"/>
</g>
<!-- Node3&#45;&gt;Node16 -->
<g id="edge23" class="edge"><title>Node3&#45;&gt;Node16</title>
<path fill="none" stroke="midnightblue" d="M815.904,-175.418C851.26,-164.511 891.431,-152.117 925.778,-141.521"/>
<polygon fill="midnightblue" stroke="midnightblue" points="814.592,-172.16 806.068,-178.453 816.656,-178.849 814.592,-172.16"/>
</g>
<!-- Node17 -->
<g id="node17" class="node"><title>Node17</title>
<g id="a_node17"><a xlink:href="../../da/dee/StreamCompaction_8h.html" target="_top" xlink:title="/home/travis/build\l/AliceO2Group/AliceO2\l/GPU/GPUTracking/TPCClusterFinder\l/StreamCompaction.h">
<polygon fill="none" stroke="black" points="268.381,-89.5 268.381,-141.5 453.381,-141.5 453.381,-89.5 268.381,-89.5"/>
<text text-anchor="start" x="276.381" y="-129.5" font-family="Helvetica,sans-Serif" font-size="10.00">/home/travis/build</text>
<text text-anchor="start" x="276.381" y="-118.5" font-family="Helvetica,sans-Serif" font-size="10.00">/AliceO2Group/AliceO2</text>
<text text-anchor="start" x="276.381" y="-107.5" font-family="Helvetica,sans-Serif" font-size="10.00">/GPU/GPUTracking/TPCClusterFinder</text>
<text text-anchor="middle" x="360.881" y="-96.5" font-family="Helvetica,sans-Serif" font-size="10.00">/StreamCompaction.h</text>
</a>
</g>
</g>
<!-- Node3&#45;&gt;Node17 -->
<g id="edge26" class="edge"><title>Node3&#45;&gt;Node17</title>
<path fill="none" stroke="midnightblue" d="M622.374,-179.971C573.698,-168.685 514.738,-154.852 461.881,-142 459.157,-141.338 456.392,-140.662 453.603,-139.977"/>
<polygon fill="midnightblue" stroke="midnightblue" points="621.751,-183.419 632.283,-182.266 623.331,-176.6 621.751,-183.419"/>
</g>
<!-- Node5 -->
<g id="node5" class="node"><title>Node5</title>
<g id="a_node5"><a xlink:href="../../d8/db8/ClusterAccumulator_8cxx.html" target="_top" xlink:title="/home/travis/build\l/AliceO2Group/AliceO2\l/GPU/GPUTracking/TPCClusterFinder\l/ClusterAccumulator.cxx">
<polygon fill="none" stroke="black" points="1283.38,-0.5 1283.38,-52.5 1468.38,-52.5 1468.38,-0.5 1283.38,-0.5"/>
<text text-anchor="start" x="1291.38" y="-40.5" font-family="Helvetica,sans-Serif" font-size="10.00">/home/travis/build</text>
<text text-anchor="start" x="1291.38" y="-29.5" font-family="Helvetica,sans-Serif" font-size="10.00">/AliceO2Group/AliceO2</text>
<text text-anchor="start" x="1291.38" y="-18.5" font-family="Helvetica,sans-Serif" font-size="10.00">/GPU/GPUTracking/TPCClusterFinder</text>
<text text-anchor="middle" x="1375.88" y="-7.5" font-family="Helvetica,sans-Serif" font-size="10.00">/ClusterAccumulator.cxx</text>
</a>
</g>
</g>
<!-- Node4&#45;&gt;Node5 -->
<g id="edge4" class="edge"><title>Node4&#45;&gt;Node5</title>
<path fill="none" stroke="midnightblue" d="M1266.86,-84.6354C1286.77,-74.2049 1308.89,-62.6109 1327.97,-52.6075"/>
<polygon fill="midnightblue" stroke="midnightblue" points="1265.13,-81.5938 1257.89,-89.336 1268.38,-87.7939 1265.13,-81.5938"/>
</g>
<!-- Node6 -->
<g id="node6" class="node"><title>Node6</title>
<g id="a_node6"><a xlink:href="../../db/ddd/GPU_2GPUTracking_2TPCClusterFinder_2Clusterizer_8cxx.html" target="_top" xlink:title="/home/travis/build\l/AliceO2Group/AliceO2\l/GPU/GPUTracking/TPCClusterFinder\l/Clusterizer.cxx">
<polygon fill="none" stroke="black" points="1486.38,-0.5 1486.38,-52.5 1671.38,-52.5 1671.38,-0.5 1486.38,-0.5"/>
<text text-anchor="start" x="1494.38" y="-40.5" font-family="Helvetica,sans-Serif" font-size="10.00">/home/travis/build</text>
<text text-anchor="start" x="1494.38" y="-29.5" font-family="Helvetica,sans-Serif" font-size="10.00">/AliceO2Group/AliceO2</text>
<text text-anchor="start" x="1494.38" y="-18.5" font-family="Helvetica,sans-Serif" font-size="10.00">/GPU/GPUTracking/TPCClusterFinder</text>
<text text-anchor="middle" x="1578.88" y="-7.5" font-family="Helvetica,sans-Serif" font-size="10.00">/Clusterizer.cxx</text>
</a>
</g>
</g>
<!-- Node4&#45;&gt;Node6 -->
<g id="edge5" class="edge"><title>Node4&#45;&gt;Node6</title>
<path fill="none" stroke="midnightblue" d="M1312.34,-88.6875C1386.03,-71.6 1406.38,-69.4533 1476.88,-53 1479.99,-52.274 1483.15,-51.5282 1486.35,-50.7685"/>
<polygon fill="midnightblue" stroke="midnightblue" points="1311.53,-85.283 1302.59,-90.9643 1313.12,-92.0998 1311.53,-85.283"/>
</g>
<!-- Node7 -->
<g id="node7" class="node"><title>Node7</title>
<g id="a_node7"><a xlink:href="../../da/d32/Deconvolution_8cxx.html" target="_top" xlink:title="/home/travis/build\l/AliceO2Group/AliceO2\l/GPU/GPUTracking/TPCClusterFinder\l/Deconvolution.cxx">
<polygon fill="none" stroke="black" points="877.381,-0.5 877.381,-52.5 1062.38,-52.5 1062.38,-0.5 877.381,-0.5"/>
<text text-anchor="start" x="885.381" y="-40.5" font-family="Helvetica,sans-Serif" font-size="10.00">/home/travis/build</text>
<text text-anchor="start" x="885.381" y="-29.5" font-family="Helvetica,sans-Serif" font-size="10.00">/AliceO2Group/AliceO2</text>
<text text-anchor="start" x="885.381" y="-18.5" font-family="Helvetica,sans-Serif" font-size="10.00">/GPU/GPUTracking/TPCClusterFinder</text>
<text text-anchor="middle" x="969.881" y="-7.5" font-family="Helvetica,sans-Serif" font-size="10.00">/Deconvolution.cxx</text>
</a>
</g>
</g>
<!-- Node4&#45;&gt;Node7 -->
<g id="edge6" class="edge"><title>Node4&#45;&gt;Node7</title>
<path fill="none" stroke="midnightblue" d="M1131.25,-85.9981C1101.45,-75.1932 1067.76,-62.9816 1038.9,-52.5211"/>
<polygon fill="midnightblue" stroke="midnightblue" points="1130.19,-89.3351 1140.78,-89.4527 1132.58,-82.7542 1130.19,-89.3351"/>
</g>
<!-- Node4&#45;&gt;Node8 -->
<g id="edge7" class="edge"><title>Node4&#45;&gt;Node8</title>
<path fill="none" stroke="midnightblue" d="M1107.24,-88.9614C1000.37,-68.243 970.533,-73.6055 867.881,-53 865.132,-52.4483 862.346,-51.87 859.538,-51.2702"/>
<polygon fill="midnightblue" stroke="midnightblue" points="1106.64,-92.4109 1117.13,-90.91 1107.99,-85.5429 1106.64,-92.4109"/>
</g>
<!-- Node9 -->
<g id="node9" class="node"><title>Node9</title>
<g id="a_node9"><a xlink:href="../../da/df9/NoiseSuppression_8cxx.html" target="_top" xlink:title="/home/travis/build\l/AliceO2Group/AliceO2\l/GPU/GPUTracking/TPCClusterFinder\l/NoiseSuppression.cxx">
<polygon fill="none" stroke="black" points="1080.38,-0.5 1080.38,-52.5 1265.38,-52.5 1265.38,-0.5 1080.38,-0.5"/>
<text text-anchor="start" x="1088.38" y="-40.5" font-family="Helvetica,sans-Serif" font-size="10.00">/home/travis/build</text>
<text text-anchor="start" x="1088.38" y="-29.5" font-family="Helvetica,sans-Serif" font-size="10.00">/AliceO2Group/AliceO2</text>
<text text-anchor="start" x="1088.38" y="-18.5" font-family="Helvetica,sans-Serif" font-size="10.00">/GPU/GPUTracking/TPCClusterFinder</text>
<text text-anchor="middle" x="1172.88" y="-7.5" font-family="Helvetica,sans-Serif" font-size="10.00">/NoiseSuppression.cxx</text>
</a>
</g>
</g>
<!-- Node4&#45;&gt;Node9 -->
<g id="edge8" class="edge"><title>Node4&#45;&gt;Node9</title>
<path fill="none" stroke="midnightblue" d="M1195.23,-80.0607C1191.34,-70.8956 1187.2,-61.169 1183.56,-52.6075"/>
<polygon fill="midnightblue" stroke="midnightblue" points="1192.04,-81.5034 1199.18,-89.336 1198.49,-78.7638 1192.04,-81.5034"/>
</g>
<!-- Node4&#45;&gt;Node10 -->
<g id="edge9" class="edge"><title>Node4&#45;&gt;Node10</title>
<path fill="none" stroke="midnightblue" d="M1107.13,-89.0116C911.157,-57.8621 856.526,-84.7534 664.881,-53 662.115,-52.5418 659.314,-52.0456 656.492,-51.5177"/>
<polygon fill="midnightblue" stroke="midnightblue" points="1106.75,-92.495 1117.18,-90.6394 1107.86,-85.5851 1106.75,-92.495"/>
</g>
<!-- Node11&#45;&gt;Node8 -->
<g id="edge12" class="edge"><title>Node11&#45;&gt;Node8</title>
<path fill="none" stroke="midnightblue" d="M223.571,-89.544C224.679,-89.3576 225.783,-89.1761 226.881,-89 419.738,-58.0659 472.162,-84.7919 664.881,-53 667.942,-52.4949 671.047,-51.9445 674.176,-51.3569"/>
<polygon fill="midnightblue" stroke="midnightblue" points="222.723,-86.1401 213.497,-91.3484 223.958,-93.0305 222.723,-86.1401"/>
</g>
<!-- Node12 -->
<g id="node12" class="node"><title>Node12</title>
<g id="a_node12"><a xlink:href="../../d7/d43/ChargeMapFiller_8cxx.html" target="_top" xlink:title="/home/travis/build\l/AliceO2Group/AliceO2\l/GPU/GPUTracking/TPCClusterFinder\l/ChargeMapFiller.cxx">
<polygon fill="none" stroke="black" points="28.3805,-0.5 28.3805,-52.5 213.381,-52.5 213.381,-0.5 28.3805,-0.5"/>
<text text-anchor="start" x="36.3805" y="-40.5" font-family="Helvetica,sans-Serif" font-size="10.00">/home/travis/build</text>
<text text-anchor="start" x="36.3805" y="-29.5" font-family="Helvetica,sans-Serif" font-size="10.00">/AliceO2Group/AliceO2</text>
<text text-anchor="start" x="36.3805" y="-18.5" font-family="Helvetica,sans-Serif" font-size="10.00">/GPU/GPUTracking/TPCClusterFinder</text>
<text text-anchor="middle" x="120.881" y="-7.5" font-family="Helvetica,sans-Serif" font-size="10.00">/ChargeMapFiller.cxx</text>
</a>
</g>
</g>
<!-- Node11&#45;&gt;Node12 -->
<g id="edge11" class="edge"><title>Node11&#45;&gt;Node12</title>
<path fill="none" stroke="midnightblue" d="M120.881,-79.1908C120.881,-70.2824 120.881,-60.8986 120.881,-52.6075"/>
<polygon fill="midnightblue" stroke="midnightblue" points="117.381,-79.336 120.881,-89.336 124.381,-79.336 117.381,-79.336"/>
</g>
<!-- Node13&#45;&gt;Node6 -->
<g id="edge14" class="edge"><title>Node13&#45;&gt;Node6</title>
<path fill="none" stroke="midnightblue" d="M1469.86,-84.6354C1489.77,-74.2049 1511.89,-62.6109 1530.97,-52.6075"/>
<polygon fill="midnightblue" stroke="midnightblue" points="1468.13,-81.5938 1460.89,-89.336 1471.38,-87.7939 1468.13,-81.5938"/>
</g>
<!-- Node13&#45;&gt;Node8 -->
<g id="edge15" class="edge"><title>Node13&#45;&gt;Node8</title>
<path fill="none" stroke="midnightblue" d="M1310.13,-89.0116C1114.16,-57.8621 1059.53,-84.7534 867.881,-53 865.115,-52.5418 862.314,-52.0456 859.492,-51.5177"/>
<polygon fill="midnightblue" stroke="midnightblue" points="1309.75,-92.495 1320.18,-90.6394 1310.86,-85.5851 1309.75,-92.495"/>
</g>
<!-- Node14&#45;&gt;Node7 -->
<g id="edge17" class="edge"><title>Node14&#45;&gt;Node7</title>
<path fill="none" stroke="midnightblue" d="M860.864,-84.6354C880.765,-74.2049 902.887,-62.6109 921.974,-52.6075"/>
<polygon fill="midnightblue" stroke="midnightblue" points="859.127,-81.5938 851.895,-89.336 862.377,-87.7939 859.127,-81.5938"/>
</g>
<!-- Node14&#45;&gt;Node8 -->
<g id="edge18" class="edge"><title>Node14&#45;&gt;Node8</title>
<path fill="none" stroke="midnightblue" d="M789.234,-80.0607C785.336,-70.8956 781.2,-61.169 777.558,-52.6075"/>
<polygon fill="midnightblue" stroke="midnightblue" points="786.044,-81.5034 793.179,-89.336 792.486,-78.7638 786.044,-81.5034"/>
</g>
<!-- Node15&#45;&gt;Node8 -->
<g id="edge21" class="edge"><title>Node15&#45;&gt;Node8</title>
<path fill="none" stroke="midnightblue" d="M631.698,-85.4355C656.582,-74.7708 684.513,-62.8004 708.498,-52.5211"/>
<polygon fill="midnightblue" stroke="midnightblue" points="630.137,-82.2965 622.324,-89.4527 632.894,-88.7305 630.137,-82.2965"/>
</g>
<!-- Node15&#45;&gt;Node10 -->
<g id="edge22" class="edge"><title>Node15&#45;&gt;Node10</title>
<path fill="none" stroke="midnightblue" d="M563.881,-79.1908C563.881,-70.2824 563.881,-60.8986 563.881,-52.6075"/>
<polygon fill="midnightblue" stroke="midnightblue" points="560.381,-79.336 563.881,-89.336 567.381,-79.336 560.381,-79.336"/>
</g>
<!-- Node16&#45;&gt;Node8 -->
<g id="edge24" class="edge"><title>Node16&#45;&gt;Node8</title>
<path fill="none" stroke="midnightblue" d="M928.255,-85.9981C898.448,-75.1932 864.761,-62.9816 835.904,-52.5211"/>
<polygon fill="midnightblue" stroke="midnightblue" points="927.19,-89.3351 937.785,-89.4527 929.576,-82.7542 927.19,-89.3351"/>
</g>
<!-- Node16&#45;&gt;Node9 -->
<g id="edge25" class="edge"><title>Node16&#45;&gt;Node9</title>
<path fill="none" stroke="midnightblue" d="M1063.86,-84.6354C1083.77,-74.2049 1105.89,-62.6109 1124.97,-52.6075"/>
<polygon fill="midnightblue" stroke="midnightblue" points="1062.13,-81.5938 1054.89,-89.336 1065.38,-87.7939 1062.13,-81.5938"/>
</g>
<!-- Node17&#45;&gt;Node8 -->
<g id="edge27" class="edge"><title>Node17&#45;&gt;Node8</title>
<path fill="none" stroke="midnightblue" d="M463.344,-88.7479C553.174,-69.908 578.331,-71.4697 664.881,-53 668.005,-52.3333 671.178,-51.6387 674.38,-50.9229"/>
<polygon fill="midnightblue" stroke="midnightblue" points="462.612,-85.3251 453.558,-90.8266 464.067,-92.1723 462.612,-85.3251"/>
</g>
<!-- Node18 -->
<g id="node18" class="node"><title>Node18</title>
<g id="a_node18"><a xlink:href="../../dd/d29/StreamCompaction_8cxx.html" target="_top" xlink:title="/home/travis/build\l/AliceO2Group/AliceO2\l/GPU/GPUTracking/TPCClusterFinder\l/StreamCompaction.cxx">
<polygon fill="none" stroke="black" points="268.381,-0.5 268.381,-52.5 453.381,-52.5 453.381,-0.5 268.381,-0.5"/>
<text text-anchor="start" x="276.381" y="-40.5" font-family="Helvetica,sans-Serif" font-size="10.00">/home/travis/build</text>
<text text-anchor="start" x="276.381" y="-29.5" font-family="Helvetica,sans-Serif" font-size="10.00">/AliceO2Group/AliceO2</text>
<text text-anchor="start" x="276.381" y="-18.5" font-family="Helvetica,sans-Serif" font-size="10.00">/GPU/GPUTracking/TPCClusterFinder</text>
<text text-anchor="middle" x="360.881" y="-7.5" font-family="Helvetica,sans-Serif" font-size="10.00">/StreamCompaction.cxx</text>
</a>
</g>
</g>
<!-- Node17&#45;&gt;Node18 -->
<g id="edge28" class="edge"><title>Node17&#45;&gt;Node18</title>
<path fill="none" stroke="midnightblue" d="M360.881,-79.1908C360.881,-70.2824 360.881,-60.8986 360.881,-52.6075"/>
<polygon fill="midnightblue" stroke="midnightblue" points="357.381,-79.336 360.881,-89.336 364.381,-79.336 357.381,-79.336"/>
</g>
<!-- Node19&#45;&gt;Node5 -->
<g id="edge30" class="edge"><title>Node19&#45;&gt;Node5</title>
<path fill="none" stroke="midnightblue" d="M1537.25,-85.9981C1507.45,-75.1932 1473.76,-62.9816 1444.9,-52.5211"/>
<polygon fill="midnightblue" stroke="midnightblue" points="1536.19,-89.3351 1546.78,-89.4527 1538.58,-82.7542 1536.19,-89.3351"/>
</g>
<!-- Node19&#45;&gt;Node6 -->
<g id="edge31" class="edge"><title>Node19&#45;&gt;Node6</title>
<path fill="none" stroke="midnightblue" d="M1601.23,-80.0607C1597.34,-70.8956 1593.2,-61.169 1589.56,-52.6075"/>
<polygon fill="midnightblue" stroke="midnightblue" points="1598.04,-81.5034 1605.18,-89.336 1604.49,-78.7638 1598.04,-81.5034"/>
</g>
<!-- Node19&#45;&gt;Node8 -->
<g id="edge32" class="edge"><title>Node19&#45;&gt;Node8</title>
<path fill="none" stroke="midnightblue" d="M1512.96,-89.0084C1227.72,-47.1056 1148.81,-95.8865 867.881,-53 865.109,-52.577 862.304,-52.1117 859.478,-51.6108"/>
<polygon fill="midnightblue" stroke="midnightblue" points="1512.79,-92.5213 1523.19,-90.5375 1513.82,-85.5981 1512.79,-92.5213"/>
</g>
</g>
</svg>
