<?xml version="1.0" encoding="UTF-8" standalone="no"?>
<!DOCTYPE svg PUBLIC "-//W3C//DTD SVG 1.1//EN"
 "http://www.w3.org/Graphics/SVG/1.1/DTD/svg11.dtd">
<!-- Generated by graphviz version 2.38.0 (20140413.2041)
 -->
<!-- Title: o2::phos::Detector Pages: 1 -->
<svg width="752pt" height="1390pt"
 viewBox="0.00 0.00 752.23 1390.00" xmlns="http://www.w3.org/2000/svg" xmlns:xlink="http://www.w3.org/1999/xlink">
<g id="graph0" class="graph" transform="scale(1 1) rotate(0) translate(4 1386)">
<title>o2::phos::Detector</title>
<!-- Node1 -->
<g id="node1" class="node"><title>Node1</title>
<polygon fill="#bfbfbf" stroke="black" points="226.23,-0.5 226.23,-244.5 376.23,-244.5 376.23,-0.5 226.23,-0.5"/>
<text text-anchor="middle" x="301.23" y="-232.5" font-family="Helvetica,sans-Serif" font-size="10.00">o2::phos::Detector</text>
<polyline fill="none" stroke="black" points="226.23,-225.5 376.23,-225.5 "/>
<text text-anchor="middle" x="301.23" y="-213.5" font-family="Helvetica,sans-Serif" font-size="10.00"> </text>
<polyline fill="none" stroke="black" points="226.23,-206.5 376.23,-206.5 "/>
<text text-anchor="start" x="234.23" y="-194.5" font-family="Helvetica,sans-Serif" font-size="10.00">+ Detector()</text>
<text text-anchor="start" x="234.23" y="-183.5" font-family="Helvetica,sans-Serif" font-size="10.00">+ Detector()</text>
<text text-anchor="start" x="234.23" y="-172.5" font-family="Helvetica,sans-Serif" font-size="10.00">+ ~Detector()</text>
<text text-anchor="start" x="234.23" y="-161.5" font-family="Helvetica,sans-Serif" font-size="10.00">+ InitializeO2Detector()</text>
<text text-anchor="start" x="234.23" y="-150.5" font-family="Helvetica,sans-Serif" font-size="10.00">+ ProcessHits()</text>
<text text-anchor="start" x="234.23" y="-139.5" font-family="Helvetica,sans-Serif" font-size="10.00">+ AddHit()</text>
<text text-anchor="start" x="234.23" y="-128.5" font-family="Helvetica,sans-Serif" font-size="10.00">+ Register()</text>
<text text-anchor="start" x="234.23" y="-117.5" font-family="Helvetica,sans-Serif" font-size="10.00">+ getHits()</text>
<text text-anchor="start" x="234.23" y="-106.5" font-family="Helvetica,sans-Serif" font-size="10.00">+ Reset()</text>
<text text-anchor="start" x="234.23" y="-95.5" font-family="Helvetica,sans-Serif" font-size="10.00">+ FinishEvent()</text>
<text text-anchor="start" x="234.23" y="-84.5" font-family="Helvetica,sans-Serif" font-size="10.00">+ EndOfEvent()</text>
<text text-anchor="start" x="234.23" y="-73.5" font-family="Helvetica,sans-Serif" font-size="10.00">+ GetGeometry()</text>
<text text-anchor="start" x="234.23" y="-62.5" font-family="Helvetica,sans-Serif" font-size="10.00">+ addAlignableVolumes()</text>
<text text-anchor="start" x="234.23" y="-51.5" font-family="Helvetica,sans-Serif" font-size="10.00"># CreateMaterials()</text>
<text text-anchor="start" x="234.23" y="-40.5" font-family="Helvetica,sans-Serif" font-size="10.00"># ConstructGeometry()</text>
<text text-anchor="start" x="234.23" y="-29.5" font-family="Helvetica,sans-Serif" font-size="10.00"># ConstructSupportGeometry()</text>
<text text-anchor="start" x="234.23" y="-18.5" font-family="Helvetica,sans-Serif" font-size="10.00"># ConstructEMCGeometry()</text>
<text text-anchor="start" x="234.23" y="-7.5" font-family="Helvetica,sans-Serif" font-size="10.00"># ConstructCPVGeometry()</text>
</g>
<!-- Node2 -->
<g id="node2" class="node"><title>Node2</title>
<g id="a_node2"><a xlink:href="../../de/dc8/classo2_1_1base_1_1DetImpl.html" target="_top" xlink:title="{o2::base::DetImpl\&lt;\l Detector \&gt;\n||+ getHitBranchNames()\l+ updateHitTrackIndices()\l+ attachHits()\l+ mergeAndAdjustHits()\l+ mergeHitEntries()\l+ fillHitBranch()\l+ CloneModule()\l+ freeHitBuffers()\l+ setHits()\l+ createHitBuffers()\l+ initializeLate()\l+ BeginEvent()\l+ ~DetImpl()\l# ClassDefOverride()\l}">
<polygon fill="none" stroke="black" points="236.23,-282.5 236.23,-493.5 366.23,-493.5 366.23,-282.5 236.23,-282.5"/>
<text text-anchor="start" x="244.23" y="-481.5" font-family="Helvetica,sans-Serif" font-size="10.00">o2::base::DetImpl&lt;</text>
<text text-anchor="middle" x="301.23" y="-470.5" font-family="Helvetica,sans-Serif" font-size="10.00"> Detector &gt;</text>
<polyline fill="none" stroke="black" points="236.23,-463.5 366.23,-463.5 "/>
<text text-anchor="middle" x="301.23" y="-451.5" font-family="Helvetica,sans-Serif" font-size="10.00"> </text>
<polyline fill="none" stroke="black" points="236.23,-444.5 366.23,-444.5 "/>
<text text-anchor="start" x="244.23" y="-432.5" font-family="Helvetica,sans-Serif" font-size="10.00">+ getHitBranchNames()</text>
<text text-anchor="start" x="244.23" y="-421.5" font-family="Helvetica,sans-Serif" font-size="10.00">+ updateHitTrackIndices()</text>
<text text-anchor="start" x="244.23" y="-410.5" font-family="Helvetica,sans-Serif" font-size="10.00">+ attachHits()</text>
<text text-anchor="start" x="244.23" y="-399.5" font-family="Helvetica,sans-Serif" font-size="10.00">+ mergeAndAdjustHits()</text>
<text text-anchor="start" x="244.23" y="-388.5" font-family="Helvetica,sans-Serif" font-size="10.00">+ mergeHitEntries()</text>
<text text-anchor="start" x="244.23" y="-377.5" font-family="Helvetica,sans-Serif" font-size="10.00">+ fillHitBranch()</text>
<text text-anchor="start" x="244.23" y="-366.5" font-family="Helvetica,sans-Serif" font-size="10.00">+ CloneModule()</text>
<text text-anchor="start" x="244.23" y="-355.5" font-family="Helvetica,sans-Serif" font-size="10.00">+ freeHitBuffers()</text>
<text text-anchor="start" x="244.23" y="-344.5" font-family="Helvetica,sans-Serif" font-size="10.00">+ setHits()</text>
<text text-anchor="start" x="244.23" y="-333.5" font-family="Helvetica,sans-Serif" font-size="10.00">+ createHitBuffers()</text>
<text text-anchor="start" x="244.23" y="-322.5" font-family="Helvetica,sans-Serif" font-size="10.00">+ initializeLate()</text>
<text text-anchor="start" x="244.23" y="-311.5" font-family="Helvetica,sans-Serif" font-size="10.00">+ BeginEvent()</text>
<text text-anchor="start" x="244.23" y="-300.5" font-family="Helvetica,sans-Serif" font-size="10.00">+ ~DetImpl()</text>
<text text-anchor="start" x="244.23" y="-289.5" font-family="Helvetica,sans-Serif" font-size="10.00"># ClassDefOverride()</text>
</a>
</g>
</g>
<!-- Node2&#45;&gt;Node1 -->
<g id="edge1" class="edge"><title>Node2&#45;&gt;Node1</title>
<path fill="none" stroke="midnightblue" d="M301.23,-272.277C301.23,-263.191 301.23,-253.995 301.23,-244.867"/>
<polygon fill="none" stroke="midnightblue" points="297.73,-272.479 301.23,-282.479 304.73,-272.479 297.73,-272.479"/>
</g>
<!-- Node3 -->
<g id="node3" class="node"><title>Node3</title>
<g id="a_node3"><a xlink:href="../../d2/d00/classo2_1_1base_1_1Detector.html" target="_top" xlink:title="{o2::base::Detector\n||+ Detector()\l+ Detector()\l+ ~Detector()\l+ Material()\l+ Mixture()\l+ Medium()\l+ SpecialCuts()\l+ SpecialCut()\l+ SpecialProcesses()\l+ SpecialProcess()\l+ Matrix()\l+ SetSpecialPhysicsCuts()\l+ addAlignableVolumes()\l+ defineWrapperVolume()\l+ setNumberOfWrapperVolumes()\l+ defineLayer()\l+ defineLayerTurbo()\l+ getMaterialID()\l+ getMediumID()\l+ getMediumIDMappingAsVector()\l+ addNameTo()\l+ getHitBranchNames()\l+ updateHitTrackIndices()\l+ attachHits()\l+ fillHitBranch()\l+ mergeHitEntries()\l+ InitializeO2Detector()\l+ Initialize()\l+ initializeLate()\l+ registerSensitiveVolumeAnd\lGetVolID()\l+ registerSensitiveVolumeAnd\lGetVolID()\l+ GetCollection()\l+ setDensityFactor()\l+ getDensityFactor()\l+ initFieldTrackingParams()\l# Detector()\l# operator=()\l}">
<polygon fill="none" stroke="black" points="480.73,-811.5 480.73,-1286.5 647.73,-1286.5 647.73,-811.5 480.73,-811.5"/>
<text text-anchor="middle" x="564.23" y="-1274.5" font-family="Helvetica,sans-Serif" font-size="10.00">o2::base::Detector</text>
<polyline fill="none" stroke="black" points="480.73,-1267.5 647.73,-1267.5 "/>
<text text-anchor="middle" x="564.23" y="-1255.5" font-family="Helvetica,sans-Serif" font-size="10.00"> </text>
<polyline fill="none" stroke="black" points="480.73,-1248.5 647.73,-1248.5 "/>
<text text-anchor="start" x="488.73" y="-1236.5" font-family="Helvetica,sans-Serif" font-size="10.00">+ Detector()</text>
<text text-anchor="start" x="488.73" y="-1225.5" font-family="Helvetica,sans-Serif" font-size="10.00">+ Detector()</text>
<text text-anchor="start" x="488.73" y="-1214.5" font-family="Helvetica,sans-Serif" font-size="10.00">+ ~Detector()</text>
<text text-anchor="start" x="488.73" y="-1203.5" font-family="Helvetica,sans-Serif" font-size="10.00">+ Material()</text>
<text text-anchor="start" x="488.73" y="-1192.5" font-family="Helvetica,sans-Serif" font-size="10.00">+ Mixture()</text>
<text text-anchor="start" x="488.73" y="-1181.5" font-family="Helvetica,sans-Serif" font-size="10.00">+ Medium()</text>
<text text-anchor="start" x="488.73" y="-1170.5" font-family="Helvetica,sans-Serif" font-size="10.00">+ SpecialCuts()</text>
<text text-anchor="start" x="488.73" y="-1159.5" font-family="Helvetica,sans-Serif" font-size="10.00">+ SpecialCut()</text>
<text text-anchor="start" x="488.73" y="-1148.5" font-family="Helvetica,sans-Serif" font-size="10.00">+ SpecialProcesses()</text>
<text text-anchor="start" x="488.73" y="-1137.5" font-family="Helvetica,sans-Serif" font-size="10.00">+ SpecialProcess()</text>
<text text-anchor="start" x="488.73" y="-1126.5" font-family="Helvetica,sans-Serif" font-size="10.00">+ Matrix()</text>
<text text-anchor="start" x="488.73" y="-1115.5" font-family="Helvetica,sans-Serif" font-size="10.00">+ SetSpecialPhysicsCuts()</text>
<text text-anchor="start" x="488.73" y="-1104.5" font-family="Helvetica,sans-Serif" font-size="10.00">+ addAlignableVolumes()</text>
<text text-anchor="start" x="488.73" y="-1093.5" font-family="Helvetica,sans-Serif" font-size="10.00">+ defineWrapperVolume()</text>
<text text-anchor="start" x="488.73" y="-1082.5" font-family="Helvetica,sans-Serif" font-size="10.00">+ setNumberOfWrapperVolumes()</text>
<text text-anchor="start" x="488.73" y="-1071.5" font-family="Helvetica,sans-Serif" font-size="10.00">+ defineLayer()</text>
<text text-anchor="start" x="488.73" y="-1060.5" font-family="Helvetica,sans-Serif" font-size="10.00">+ defineLayerTurbo()</text>
<text text-anchor="start" x="488.73" y="-1049.5" font-family="Helvetica,sans-Serif" font-size="10.00">+ getMaterialID()</text>
<text text-anchor="start" x="488.73" y="-1038.5" font-family="Helvetica,sans-Serif" font-size="10.00">+ getMediumID()</text>
<text text-anchor="start" x="488.73" y="-1027.5" font-family="Helvetica,sans-Serif" font-size="10.00">+ getMediumIDMappingAsVector()</text>
<text text-anchor="start" x="488.73" y="-1016.5" font-family="Helvetica,sans-Serif" font-size="10.00">+ addNameTo()</text>
<text text-anchor="start" x="488.73" y="-1005.5" font-family="Helvetica,sans-Serif" font-size="10.00">+ getHitBranchNames()</text>
<text text-anchor="start" x="488.73" y="-994.5" font-family="Helvetica,sans-Serif" font-size="10.00">+ updateHitTrackIndices()</text>
<text text-anchor="start" x="488.73" y="-983.5" font-family="Helvetica,sans-Serif" font-size="10.00">+ attachHits()</text>
<text text-anchor="start" x="488.73" y="-972.5" font-family="Helvetica,sans-Serif" font-size="10.00">+ fillHitBranch()</text>
<text text-anchor="start" x="488.73" y="-961.5" font-family="Helvetica,sans-Serif" font-size="10.00">+ mergeHitEntries()</text>
<text text-anchor="start" x="488.73" y="-950.5" font-family="Helvetica,sans-Serif" font-size="10.00">+ InitializeO2Detector()</text>
<text text-anchor="start" x="488.73" y="-939.5" font-family="Helvetica,sans-Serif" font-size="10.00">+ Initialize()</text>
<text text-anchor="start" x="488.73" y="-928.5" font-family="Helvetica,sans-Serif" font-size="10.00">+ initializeLate()</text>
<text text-anchor="start" x="488.73" y="-917.5" font-family="Helvetica,sans-Serif" font-size="10.00">+ registerSensitiveVolumeAnd</text>
<text text-anchor="start" x="488.73" y="-906.5" font-family="Helvetica,sans-Serif" font-size="10.00">GetVolID()</text>
<text text-anchor="start" x="488.73" y="-895.5" font-family="Helvetica,sans-Serif" font-size="10.00">+ registerSensitiveVolumeAnd</text>
<text text-anchor="start" x="488.73" y="-884.5" font-family="Helvetica,sans-Serif" font-size="10.00">GetVolID()</text>
<text text-anchor="start" x="488.73" y="-873.5" font-family="Helvetica,sans-Serif" font-size="10.00">+ GetCollection()</text>
<text text-anchor="start" x="488.73" y="-862.5" font-family="Helvetica,sans-Serif" font-size="10.00">+ setDensityFactor()</text>
<text text-anchor="start" x="488.73" y="-851.5" font-family="Helvetica,sans-Serif" font-size="10.00">+ getDensityFactor()</text>
<text text-anchor="start" x="488.73" y="-840.5" font-family="Helvetica,sans-Serif" font-size="10.00">+ initFieldTrackingParams()</text>
<text text-anchor="start" x="488.73" y="-829.5" font-family="Helvetica,sans-Serif" font-size="10.00"># Detector()</text>
<text text-anchor="start" x="488.73" y="-818.5" font-family="Helvetica,sans-Serif" font-size="10.00"># operator=()</text>
</a>
</g>
</g>
<!-- Node3&#45;&gt;Node2 -->
<g id="edge2" class="edge"><title>Node3&#45;&gt;Node2</title>
<path fill="none" stroke="midnightblue" d="M640.141,-801.03C638.997,-790.871 637.069,-780.828 634.23,-771 600.69,-654.907 569.516,-631.313 489.23,-541 452.838,-500.063 404.695,-461.364 366.238,-433.259"/>
<polygon fill="none" stroke="midnightblue" points="636.674,-801.565 641.029,-811.224 643.648,-800.958 636.674,-801.565"/>
</g>
<!-- Node9 -->
<g id="node9" class="node"><title>Node9</title>
<g id="a_node9"><a xlink:href="../../de/dc8/classo2_1_1base_1_1DetImpl.html" target="_top" xlink:title="{o2::base::DetImpl\&lt;\l Det \&gt;\n||+ getHitBranchNames()\l+ updateHitTrackIndices()\l+ attachHits()\l+ mergeAndAdjustHits()\l+ mergeHitEntries()\l+ fillHitBranch()\l+ CloneModule()\l+ freeHitBuffers()\l+ setHits()\l+ createHitBuffers()\l+ initializeLate()\l+ BeginEvent()\l+ ~DetImpl()\l# ClassDefOverride()\l}">
<polygon fill="none" stroke="black" points="350.23,-541.5 350.23,-752.5 480.23,-752.5 480.23,-541.5 350.23,-541.5"/>
<text text-anchor="start" x="358.23" y="-740.5" font-family="Helvetica,sans-Serif" font-size="10.00">o2::base::DetImpl&lt;</text>
<text text-anchor="middle" x="415.23" y="-729.5" font-family="Helvetica,sans-Serif" font-size="10.00"> Det &gt;</text>
<polyline fill="none" stroke="black" points="350.23,-722.5 480.23,-722.5 "/>
<text text-anchor="middle" x="415.23" y="-710.5" font-family="Helvetica,sans-Serif" font-size="10.00"> </text>
<polyline fill="none" stroke="black" points="350.23,-703.5 480.23,-703.5 "/>
<text text-anchor="start" x="358.23" y="-691.5" font-family="Helvetica,sans-Serif" font-size="10.00">+ getHitBranchNames()</text>
<text text-anchor="start" x="358.23" y="-680.5" font-family="Helvetica,sans-Serif" font-size="10.00">+ updateHitTrackIndices()</text>
<text text-anchor="start" x="358.23" y="-669.5" font-family="Helvetica,sans-Serif" font-size="10.00">+ attachHits()</text>
<text text-anchor="start" x="358.23" y="-658.5" font-family="Helvetica,sans-Serif" font-size="10.00">+ mergeAndAdjustHits()</text>
<text text-anchor="start" x="358.23" y="-647.5" font-family="Helvetica,sans-Serif" font-size="10.00">+ mergeHitEntries()</text>
<text text-anchor="start" x="358.23" y="-636.5" font-family="Helvetica,sans-Serif" font-size="10.00">+ fillHitBranch()</text>
<text text-anchor="start" x="358.23" y="-625.5" font-family="Helvetica,sans-Serif" font-size="10.00">+ CloneModule()</text>
<text text-anchor="start" x="358.23" y="-614.5" font-family="Helvetica,sans-Serif" font-size="10.00">+ freeHitBuffers()</text>
<text text-anchor="start" x="358.23" y="-603.5" font-family="Helvetica,sans-Serif" font-size="10.00">+ setHits()</text>
<text text-anchor="start" x="358.23" y="-592.5" font-family="Helvetica,sans-Serif" font-size="10.00">+ createHitBuffers()</text>
<text text-anchor="start" x="358.23" y="-581.5" font-family="Helvetica,sans-Serif" font-size="10.00">+ initializeLate()</text>
<text text-anchor="start" x="358.23" y="-570.5" font-family="Helvetica,sans-Serif" font-size="10.00">+ BeginEvent()</text>
<text text-anchor="start" x="358.23" y="-559.5" font-family="Helvetica,sans-Serif" font-size="10.00">+ ~DetImpl()</text>
<text text-anchor="start" x="358.23" y="-548.5" font-family="Helvetica,sans-Serif" font-size="10.00"># ClassDefOverride()</text>
</a>
</g>
</g>
<!-- Node3&#45;&gt;Node9 -->
<g id="edge9" class="edge"><title>Node3&#45;&gt;Node9</title>
<path fill="none" stroke="midnightblue" d="M516.549,-801.579C512.744,-791.128 508.644,-780.89 504.23,-771 497.729,-756.438 489.331,-741.89 480.294,-728.161"/>
<polygon fill="none" stroke="midnightblue" points="513.329,-802.972 519.962,-811.234 519.929,-800.64 513.329,-802.972"/>
</g>
<!-- Node4 -->
<g id="node4" class="node"><title>Node4</title>
<g id="a_node4"><a xlink:href="../../d6/d0c/classFairDetector.html" target="_top" xlink:title="{FairDetector\n||}">
<polygon fill="none" stroke="black" points="528.73,-1324.5 528.73,-1381.5 599.73,-1381.5 599.73,-1324.5 528.73,-1324.5"/>
<text text-anchor="middle" x="564.23" y="-1369.5" font-family="Helvetica,sans-Serif" font-size="10.00">FairDetector</text>
<polyline fill="none" stroke="black" points="528.73,-1362.5 599.73,-1362.5 "/>
<text text-anchor="middle" x="564.23" y="-1350.5" font-family="Helvetica,sans-Serif" font-size="10.00"> </text>
<polyline fill="none" stroke="black" points="528.73,-1343.5 599.73,-1343.5 "/>
<text text-anchor="middle" x="564.23" y="-1331.5" font-family="Helvetica,sans-Serif" font-size="10.00"> </text>
</a>
</g>
</g>
<!-- Node4&#45;&gt;Node3 -->
<g id="edge3" class="edge"><title>Node4&#45;&gt;Node3</title>
<path fill="none" stroke="midnightblue" d="M564.23,-1314.23C564.23,-1306.01 564.23,-1296.74 564.23,-1286.72"/>
<polygon fill="none" stroke="midnightblue" points="560.73,-1314.4 564.23,-1324.4 567.73,-1314.4 560.73,-1314.4"/>
</g>
<!-- Node5 -->
<g id="node5" class="node"><title>Node5</title>
<g id="a_node5"><a xlink:href="../../d4/d34/classstatic_01constexpr_01int.html" target="_top" xlink:title="{static constexpr int\n||}">
<polygon fill="none" stroke="black" points="102.23,-618.5 102.23,-675.5 202.23,-675.5 202.23,-618.5 102.23,-618.5"/>
<text text-anchor="middle" x="152.23" y="-663.5" font-family="Helvetica,sans-Serif" font-size="10.00">static constexpr int</text>
<polyline fill="none" stroke="black" points="102.23,-656.5 202.23,-656.5 "/>
<text text-anchor="middle" x="152.23" y="-644.5" font-family="Helvetica,sans-Serif" font-size="10.00"> </text>
<polyline fill="none" stroke="black" points="102.23,-637.5 202.23,-637.5 "/>
<text text-anchor="middle" x="152.23" y="-625.5" font-family="Helvetica,sans-Serif" font-size="10.00"> </text>
</a>
</g>
</g>
<!-- Node5&#45;&gt;Node2 -->
<g id="edge4" class="edge"><title>Node5&#45;&gt;Node2</title>
<path fill="none" stroke="#404040" d="M144.966,-618.314C139.088,-590.111 134.152,-545.833 150.23,-512 166.262,-478.262 196.578,-450.737 225.863,-430.345"/>
<polygon fill="none" stroke="#404040" points="226.193,-430.123 228.943,-423.457 236.154,-423.431 233.404,-430.098 226.193,-430.123"/>
<text text-anchor="middle" x="190.23" y="-515" font-family="Helvetica,sans-Serif" font-size="10.00"> #NHITBUFFERS</text>
</g>
<!-- Node6 -->
<g id="node6" class="node"><title>Node6</title>
<polygon fill="none" stroke="#bfbfbf" points="121.73,-1020.5 121.73,-1077.5 162.73,-1077.5 162.73,-1020.5 121.73,-1020.5"/>
<text text-anchor="middle" x="142.23" y="-1065.5" font-family="Helvetica,sans-Serif" font-size="10.00">bool *</text>
<polyline fill="none" stroke="#bfbfbf" points="121.73,-1058.5 162.73,-1058.5 "/>
<text text-anchor="middle" x="142.23" y="-1046.5" font-family="Helvetica,sans-Serif" font-size="10.00"> </text>
<polyline fill="none" stroke="#bfbfbf" points="121.73,-1039.5 162.73,-1039.5 "/>
<text text-anchor="middle" x="142.23" y="-1027.5" font-family="Helvetica,sans-Serif" font-size="10.00"> </text>
</g>
<!-- Node6&#45;&gt;Node2 -->
<g id="edge5" class="edge"><title>Node6&#45;&gt;Node2</title>
<path fill="none" stroke="#404040" d="M123.535,-1020.31C72.0591,-940.316 -61.8183,-704.179 33.2296,-541 74.0987,-470.836 160.733,-430.437 224.487,-409.174"/>
<polygon fill="none" stroke="#404040" points="224.689,-409.109 229.171,-403.459 236.109,-405.423 231.627,-411.073 224.689,-409.109"/>
<text text-anchor="middle" x="63.2296" y="-644.5" font-family="Helvetica,sans-Serif" font-size="10.00"> #mShmBusy</text>
</g>
<!-- Node6&#45;&gt;Node9 -->
<g id="edge10" class="edge"><title>Node6&#45;&gt;Node9</title>
<path fill="none" stroke="#404040" d="M151.328,-1020.29C169.722,-967.353 215.437,-850.062 283.23,-771 292.142,-760.606 297.758,-761.82 308.23,-753 319.194,-743.765 330.393,-733.644 341.218,-723.445"/>
<polygon fill="none" stroke="#404040" points="341.523,-723.155 343.108,-716.12 350.211,-714.877 348.626,-721.912 341.523,-723.155"/>
<text text-anchor="middle" x="313.23" y="-779.5" font-family="Helvetica,sans-Serif" font-size="10.00"> #mShmBusy</text>
</g>
<!-- Node7 -->
<g id="node7" class="node"><title>Node7</title>
<polygon fill="none" stroke="#bfbfbf" points="672.73,-1020.5 672.73,-1077.5 701.73,-1077.5 701.73,-1020.5 672.73,-1020.5"/>
<text text-anchor="middle" x="687.23" y="-1065.5" font-family="Helvetica,sans-Serif" font-size="10.00">int</text>
<polyline fill="none" stroke="#bfbfbf" points="672.73,-1058.5 701.73,-1058.5 "/>
<text text-anchor="middle" x="687.23" y="-1046.5" font-family="Helvetica,sans-Serif" font-size="10.00"> </text>
<polyline fill="none" stroke="#bfbfbf" points="672.73,-1039.5 701.73,-1039.5 "/>
<text text-anchor="middle" x="687.23" y="-1027.5" font-family="Helvetica,sans-Serif" font-size="10.00"> </text>
</g>
<!-- Node7&#45;&gt;Node2 -->
<g id="edge6" class="edge"><title>Node7&#45;&gt;Node2</title>
<path fill="none" stroke="#404040" d="M689.147,-1020.39C693.38,-937.539 694.858,-687.73 573.23,-541 521.987,-479.181 438.723,-437.949 377.799,-414.213"/>
<polygon fill="none" stroke="#404040" points="377.527,-414.11 370.497,-415.714 366.312,-409.841 373.343,-408.237 377.527,-414.11"/>
<text text-anchor="middle" x="706.23" y="-650" font-family="Helvetica,sans-Serif" font-size="10.00"> #mCurrentBuffer</text>
<text text-anchor="middle" x="706.23" y="-639" font-family="Helvetica,sans-Serif" font-size="10.00">#mInitialized</text>
</g>
<!-- Node7&#45;&gt;Node9 -->
<g id="edge11" class="edge"><title>Node7&#45;&gt;Node9</title>
<path fill="none" stroke="#404040" d="M692.152,-1020.29C699.061,-972.002 705.776,-871.795 656.23,-811 640.779,-792.042 625.764,-804.592 604.23,-793 563.96,-771.322 523.214,-741.316 489.917,-714.222"/>
<polygon fill="none" stroke="#404040" points="489.549,-713.919 482.374,-713.195 480.282,-706.294 487.457,-707.017 489.549,-713.919"/>
<text text-anchor="middle" x="642.23" y="-785" font-family="Helvetica,sans-Serif" font-size="10.00"> #mCurrentBuffer</text>
<text text-anchor="middle" x="642.23" y="-774" font-family="Helvetica,sans-Serif" font-size="10.00">#mInitialized</text>
</g>
<!-- Node8 -->
<g id="node8" class="node"><title>Node8</title>
<polygon fill="none" stroke="#bfbfbf" points="299.23,-1020.5 299.23,-1077.5 385.23,-1077.5 385.23,-1020.5 299.23,-1020.5"/>
<text text-anchor="middle" x="342.23" y="-1065.5" font-family="Helvetica,sans-Serif" font-size="10.00">vector&lt; void * &gt;</text>
<polyline fill="none" stroke="#bfbfbf" points="299.23,-1058.5 385.23,-1058.5 "/>
<text text-anchor="middle" x="342.23" y="-1046.5" font-family="Helvetica,sans-Serif" font-size="10.00"> </text>
<polyline fill="none" stroke="#bfbfbf" points="299.23,-1039.5 385.23,-1039.5 "/>
<text text-anchor="middle" x="342.23" y="-1027.5" font-family="Helvetica,sans-Serif" font-size="10.00"> </text>
</g>
<!-- Node8&#45;&gt;Node2 -->
<g id="edge7" class="edge"><title>Node8&#45;&gt;Node2</title>
<path fill="none" stroke="#404040" d="M330.779,-1020.33C312.369,-974.186 276.963,-878.163 264.23,-793 256.906,-744.017 218.423,-1090.92 277.23,-541 278.442,-529.663 279.917,-517.883 281.533,-506.12"/>
<polygon fill="none" stroke="#404040" points="281.583,-505.771 278.463,-499.27 283.264,-493.889 286.384,-500.391 281.583,-505.771"/>
<text text-anchor="middle" x="309.23" y="-644.5" font-family="Helvetica,sans-Serif" font-size="10.00"> #mCachedPtr</text>
</g>
<!-- Node8&#45;&gt;Node9 -->
<g id="edge12" class="edge"><title>Node8&#45;&gt;Node9</title>
<path fill="none" stroke="#404040" d="M339.322,-1020.3C334.872,-969.784 329.131,-859.714 352.23,-771 352.794,-768.831 353.402,-766.656 354.048,-764.478"/>
<polygon fill="none" stroke="#404040" points="354.126,-764.24 352.188,-757.294 357.853,-752.833 359.792,-759.779 354.126,-764.24"/>
<text text-anchor="middle" x="384.23" y="-779.5" font-family="Helvetica,sans-Serif" font-size="10.00"> #mCachedPtr</text>
</g>
<!-- Node9&#45;&gt;Node2 -->
<g id="edge8" class="edge"><title>Node9&#45;&gt;Node2</title>
<path fill="none" stroke="orange" d="M364.758,-532.218C359.097,-519.456 353.349,-506.498 347.742,-493.856"/>
<polygon fill="orange" stroke="orange" points="361.607,-533.746 368.861,-541.468 368.006,-530.908 361.607,-533.746"/>
<text text-anchor="middle" x="387.73" y="-515" font-family="Helvetica,sans-Serif" font-size="10.00"> &lt; Detector &gt;</text>
</g>
<!-- Node10 -->
<g id="node10" class="node"><title>Node10</title>
<polygon fill="none" stroke="#bfbfbf" points="408.73,-1020.5 408.73,-1077.5 449.73,-1077.5 449.73,-1020.5 408.73,-1020.5"/>
<text text-anchor="middle" x="429.23" y="-1065.5" font-family="Helvetica,sans-Serif" font-size="10.00">static</text>
<polyline fill="none" stroke="#bfbfbf" points="408.73,-1058.5 449.73,-1058.5 "/>
<text text-anchor="middle" x="429.23" y="-1046.5" font-family="Helvetica,sans-Serif" font-size="10.00"> </text>
<polyline fill="none" stroke="#bfbfbf" points="408.73,-1039.5 449.73,-1039.5 "/>
<text text-anchor="middle" x="429.23" y="-1027.5" font-family="Helvetica,sans-Serif" font-size="10.00"> </text>
</g>
<!-- Node10&#45;&gt;Node9 -->
<g id="edge13" class="edge"><title>Node10&#45;&gt;Node9</title>
<path fill="none" stroke="#404040" d="M428.256,-1020.19C426.433,-968.105 422.409,-853.123 419.312,-764.647"/>
<polygon fill="none" stroke="#404040" points="419.311,-764.616 415.104,-758.76 418.891,-752.623 423.099,-758.48 419.311,-764.616"/>
<text text-anchor="middle" x="460.23" y="-779.5" font-family="Helvetica,sans-Serif" font-size="10.00"> #NHITBUFFERS</text>
</g>
</g>
</svg>
