<?xml version="1.0" encoding="UTF-8" standalone="no"?>
<!DOCTYPE svg PUBLIC "-//W3C//DTD SVG 1.1//EN"
 "http://www.w3.org/Graphics/SVG/1.1/DTD/svg11.dtd">
<!-- Generated by graphviz version 2.38.0 (20140413.2041)
 -->
<!-- Title: o2::zdc::BCData Pages: 1 -->
<svg width="477pt" height="815pt"
 viewBox="0.00 0.00 477.00 815.00" xmlns="http://www.w3.org/2000/svg" xmlns:xlink="http://www.w3.org/1999/xlink">
<g id="graph0" class="graph" transform="scale(1 1) rotate(0) translate(4 811)">
<title>o2::zdc::BCData</title>
<!-- Node1 -->
<g id="node1" class="node"><title>Node1</title>
<polygon fill="#bfbfbf" stroke="black" points="204.5,-0.5 204.5,-101.5 334.5,-101.5 334.5,-0.5 204.5,-0.5"/>
<text text-anchor="middle" x="269.5" y="-89.5" font-family="Helvetica,sans-Serif" font-size="10.00">o2::zdc::BCData</text>
<polyline fill="none" stroke="black" points="204.5,-82.5 334.5,-82.5 "/>
<text text-anchor="middle" x="269.5" y="-70.5" font-family="Helvetica,sans-Serif" font-size="10.00"> </text>
<polyline fill="none" stroke="black" points="204.5,-63.5 334.5,-63.5 "/>
<text text-anchor="start" x="212.5" y="-51.5" font-family="Helvetica,sans-Serif" font-size="10.00">+ BCData()</text>
<text text-anchor="start" x="212.5" y="-40.5" font-family="Helvetica,sans-Serif" font-size="10.00">+ BCData()</text>
<text text-anchor="start" x="212.5" y="-29.5" font-family="Helvetica,sans-Serif" font-size="10.00">+ getBunchChannelData()</text>
<text text-anchor="start" x="212.5" y="-18.5" font-family="Helvetica,sans-Serif" font-size="10.00">+ print()</text>
<text text-anchor="start" x="212.5" y="-7.5" font-family="Helvetica,sans-Serif" font-size="10.00">+ ClassDefNV()</text>
</g>
<!-- Node2 -->
<g id="node2" class="node"><title>Node2</title>
<g id="a_node2"><a xlink:href="../../d1/d21/structo2_1_1InteractionRecord.html" target="_top" xlink:title="{o2::InteractionRecord\n||+ InteractionRecord()\l+ InteractionRecord()\l+ InteractionRecord()\l+ InteractionRecord()\l+ clear()\l+ isDummy()\l+ setFromNS()\l+ bc2ns()\l+ operator==()\l+ operator!=()\l+ differenceInBC()\l+ toLong()\l+ operator\&gt;()\l+ operator\&gt;=()\l+ operator\&lt;()\l+ operator\&lt;=()\l+ operator&#45;&#45;()\l+ operator&#45;&#45;()\l+ operator++()\l+ operator++()\l+ operator+=()\l+ operator&#45;=()\l+ operator+=()\l+ operator&#45;=()\l+ operator+()\l+ operator&#45;()\l+ operator+()\l+ operator&#45;()\l+ print()\l+ ClassDefNV()\l+ bc2ns()\l+ ns2bc()\l}">
<polygon fill="none" stroke="black" points="88.5,-149.5 88.5,-547.5 198.5,-547.5 198.5,-149.5 88.5,-149.5"/>
<text text-anchor="middle" x="143.5" y="-535.5" font-family="Helvetica,sans-Serif" font-size="10.00">o2::InteractionRecord</text>
<polyline fill="none" stroke="black" points="88.5,-528.5 198.5,-528.5 "/>
<text text-anchor="middle" x="143.5" y="-516.5" font-family="Helvetica,sans-Serif" font-size="10.00"> </text>
<polyline fill="none" stroke="black" points="88.5,-509.5 198.5,-509.5 "/>
<text text-anchor="start" x="96.5" y="-497.5" font-family="Helvetica,sans-Serif" font-size="10.00">+ InteractionRecord()</text>
<text text-anchor="start" x="96.5" y="-486.5" font-family="Helvetica,sans-Serif" font-size="10.00">+ InteractionRecord()</text>
<text text-anchor="start" x="96.5" y="-475.5" font-family="Helvetica,sans-Serif" font-size="10.00">+ InteractionRecord()</text>
<text text-anchor="start" x="96.5" y="-464.5" font-family="Helvetica,sans-Serif" font-size="10.00">+ InteractionRecord()</text>
<text text-anchor="start" x="96.5" y="-453.5" font-family="Helvetica,sans-Serif" font-size="10.00">+ clear()</text>
<text text-anchor="start" x="96.5" y="-442.5" font-family="Helvetica,sans-Serif" font-size="10.00">+ isDummy()</text>
<text text-anchor="start" x="96.5" y="-431.5" font-family="Helvetica,sans-Serif" font-size="10.00">+ setFromNS()</text>
<text text-anchor="start" x="96.5" y="-420.5" font-family="Helvetica,sans-Serif" font-size="10.00">+ bc2ns()</text>
<text text-anchor="start" x="96.5" y="-409.5" font-family="Helvetica,sans-Serif" font-size="10.00">+ operator==()</text>
<text text-anchor="start" x="96.5" y="-398.5" font-family="Helvetica,sans-Serif" font-size="10.00">+ operator!=()</text>
<text text-anchor="start" x="96.5" y="-387.5" font-family="Helvetica,sans-Serif" font-size="10.00">+ differenceInBC()</text>
<text text-anchor="start" x="96.5" y="-376.5" font-family="Helvetica,sans-Serif" font-size="10.00">+ toLong()</text>
<text text-anchor="start" x="96.5" y="-365.5" font-family="Helvetica,sans-Serif" font-size="10.00">+ operator&gt;()</text>
<text text-anchor="start" x="96.5" y="-354.5" font-family="Helvetica,sans-Serif" font-size="10.00">+ operator&gt;=()</text>
<text text-anchor="start" x="96.5" y="-343.5" font-family="Helvetica,sans-Serif" font-size="10.00">+ operator&lt;()</text>
<text text-anchor="start" x="96.5" y="-332.5" font-family="Helvetica,sans-Serif" font-size="10.00">+ operator&lt;=()</text>
<text text-anchor="start" x="96.5" y="-321.5" font-family="Helvetica,sans-Serif" font-size="10.00">+ operator&#45;&#45;()</text>
<text text-anchor="start" x="96.5" y="-310.5" font-family="Helvetica,sans-Serif" font-size="10.00">+ operator&#45;&#45;()</text>
<text text-anchor="start" x="96.5" y="-299.5" font-family="Helvetica,sans-Serif" font-size="10.00">+ operator++()</text>
<text text-anchor="start" x="96.5" y="-288.5" font-family="Helvetica,sans-Serif" font-size="10.00">+ operator++()</text>
<text text-anchor="start" x="96.5" y="-277.5" font-family="Helvetica,sans-Serif" font-size="10.00">+ operator+=()</text>
<text text-anchor="start" x="96.5" y="-266.5" font-family="Helvetica,sans-Serif" font-size="10.00">+ operator&#45;=()</text>
<text text-anchor="start" x="96.5" y="-255.5" font-family="Helvetica,sans-Serif" font-size="10.00">+ operator+=()</text>
<text text-anchor="start" x="96.5" y="-244.5" font-family="Helvetica,sans-Serif" font-size="10.00">+ operator&#45;=()</text>
<text text-anchor="start" x="96.5" y="-233.5" font-family="Helvetica,sans-Serif" font-size="10.00">+ operator+()</text>
<text text-anchor="start" x="96.5" y="-222.5" font-family="Helvetica,sans-Serif" font-size="10.00">+ operator&#45;()</text>
<text text-anchor="start" x="96.5" y="-211.5" font-family="Helvetica,sans-Serif" font-size="10.00">+ operator+()</text>
<text text-anchor="start" x="96.5" y="-200.5" font-family="Helvetica,sans-Serif" font-size="10.00">+ operator&#45;()</text>
<text text-anchor="start" x="96.5" y="-189.5" font-family="Helvetica,sans-Serif" font-size="10.00">+ print()</text>
<text text-anchor="start" x="96.5" y="-178.5" font-family="Helvetica,sans-Serif" font-size="10.00">+ ClassDefNV()</text>
<text text-anchor="start" x="96.5" y="-167.5" font-family="Helvetica,sans-Serif" font-size="10.00">+ bc2ns()</text>
<text text-anchor="start" x="96.5" y="-156.5" font-family="Helvetica,sans-Serif" font-size="10.00">+ ns2bc()</text>
</a>
</g>
</g>
<!-- Node2&#45;&gt;Node1 -->
<g id="edge1" class="edge"><title>Node2&#45;&gt;Node1</title>
<path fill="none" stroke="#404040" d="M198.582,-218.319C214.201,-181.689 230.48,-143.511 243.496,-112.985"/>
<polygon fill="none" stroke="#404040" points="243.61,-112.718 242.284,-105.63 248.317,-101.68 249.643,-108.768 243.61,-112.718"/>
<text text-anchor="middle" x="247" y="-123" font-family="Helvetica,sans-Serif" font-size="10.00"> +ir</text>
</g>
<!-- Node3 -->
<g id="node3" class="node"><title>Node3</title>
<polygon fill="none" stroke="#bfbfbf" points="0,-678 0,-735 45,-735 45,-678 0,-678"/>
<text text-anchor="middle" x="22.5" y="-723" font-family="Helvetica,sans-Serif" font-size="10.00">double</text>
<polyline fill="none" stroke="#bfbfbf" points="0,-716 45,-716 "/>
<text text-anchor="middle" x="22.5" y="-704" font-family="Helvetica,sans-Serif" font-size="10.00"> </text>
<polyline fill="none" stroke="#bfbfbf" points="0,-697 45,-697 "/>
<text text-anchor="middle" x="22.5" y="-685" font-family="Helvetica,sans-Serif" font-size="10.00"> </text>
</g>
<!-- Node3&#45;&gt;Node2 -->
<g id="edge2" class="edge"><title>Node3&#45;&gt;Node2</title>
<path fill="none" stroke="#404040" d="M23.7749,-677.98C25.6654,-649.463 30.2944,-603.851 41.5,-566 51.9378,-530.743 67.3481,-493.99 83.0458,-460.989"/>
<polygon fill="none" stroke="#404040" points="83.1582,-460.756 82.1635,-453.613 88.3737,-449.948 89.3684,-457.09 83.1582,-460.756"/>
<text text-anchor="middle" x="74.5" y="-574.5" font-family="Helvetica,sans-Serif" font-size="10.00"> +DummyTime</text>
</g>
<!-- Node4 -->
<g id="node4" class="node"><title>Node4</title>
<polygon fill="none" stroke="#bfbfbf" points="86,-678 86,-735 137,-735 137,-678 86,-678"/>
<text text-anchor="middle" x="111.5" y="-723" font-family="Helvetica,sans-Serif" font-size="10.00">uint16_t</text>
<polyline fill="none" stroke="#bfbfbf" points="86,-716 137,-716 "/>
<text text-anchor="middle" x="111.5" y="-704" font-family="Helvetica,sans-Serif" font-size="10.00"> </text>
<polyline fill="none" stroke="#bfbfbf" points="86,-697 137,-697 "/>
<text text-anchor="middle" x="111.5" y="-685" font-family="Helvetica,sans-Serif" font-size="10.00"> </text>
</g>
<!-- Node4&#45;&gt;Node2 -->
<g id="edge3" class="edge"><title>Node4&#45;&gt;Node2</title>
<path fill="none" stroke="#404040" d="M110.603,-677.928C109.943,-649.755 109.599,-604.764 112.5,-566 112.656,-563.917 112.819,-561.824 112.99,-559.722"/>
<polygon fill="none" stroke="#404040" points="113.005,-559.55 109.539,-553.226 114.044,-547.595 117.509,-553.918 113.005,-559.55"/>
<text text-anchor="middle" x="141.5" y="-580" font-family="Helvetica,sans-Serif" font-size="10.00"> +DummyBC</text>
<text text-anchor="middle" x="141.5" y="-569" font-family="Helvetica,sans-Serif" font-size="10.00">+bc</text>
</g>
<!-- Node5 -->
<g id="node5" class="node"><title>Node5</title>
<polygon fill="none" stroke="#bfbfbf" points="205,-678 205,-735 256,-735 256,-678 205,-678"/>
<text text-anchor="middle" x="230.5" y="-723" font-family="Helvetica,sans-Serif" font-size="10.00">uint32_t</text>
<polyline fill="none" stroke="#bfbfbf" points="205,-716 256,-716 "/>
<text text-anchor="middle" x="230.5" y="-704" font-family="Helvetica,sans-Serif" font-size="10.00"> </text>
<polyline fill="none" stroke="#bfbfbf" points="205,-697 256,-697 "/>
<text text-anchor="middle" x="230.5" y="-685" font-family="Helvetica,sans-Serif" font-size="10.00"> </text>
</g>
<!-- Node5&#45;&gt;Node1 -->
<g id="edge5" class="edge"><title>Node5&#45;&gt;Node1</title>
<path fill="none" stroke="#404040" d="M237.917,-677.726C243.87,-654.068 251.821,-619.067 255.5,-588 275.709,-417.349 274.052,-214.094 271.556,-113.996"/>
<polygon fill="none" stroke="#404040" points="271.549,-113.725 267.393,-107.832 271.233,-101.729 275.39,-107.622 271.549,-113.725"/>
<text text-anchor="middle" x="296.5" y="-351.5" font-family="Helvetica,sans-Serif" font-size="10.00"> +triggers</text>
<text text-anchor="middle" x="296.5" y="-340.5" font-family="Helvetica,sans-Serif" font-size="10.00">+channels</text>
</g>
<!-- Node5&#45;&gt;Node2 -->
<g id="edge4" class="edge"><title>Node5&#45;&gt;Node2</title>
<path fill="none" stroke="#404040" d="M220.898,-677.71C212.926,-654.042 201.619,-619.036 193.5,-588 191.064,-578.689 188.667,-569.149 186.319,-559.494"/>
<polygon fill="none" stroke="#404040" points="186.282,-559.338 180.992,-554.437 183.482,-547.669 188.772,-552.57 186.282,-559.338"/>
<text text-anchor="middle" x="224.5" y="-580" font-family="Helvetica,sans-Serif" font-size="10.00"> +orbit</text>
<text text-anchor="middle" x="224.5" y="-569" font-family="Helvetica,sans-Serif" font-size="10.00">+DummyOrbit</text>
</g>
<!-- Node6 -->
<g id="node6" class="node"><title>Node6</title>
<g id="a_node6"><a xlink:href="../../de/d0e/classo2_1_1dataformats_1_1RangeRefComp.html" target="_top" xlink:title="{o2::dataformats::RangeRef\lComp\&lt; 5 \&gt;\n||+ RangeRefComp()\l+ RangeRefComp()\l+ RangeRefComp()\l+ set()\l+ getFirstEntry()\l+ getEntries()\l+ setFirstEntry()\l+ setEntries()\l+ changeEntriesBy()\l+ operator==()\l+ ClassDefNV()\l+ getMaxFirstEntry()\l+ getMaxEntries()\l}">
<polygon fill="none" stroke="black" points="334,-248.5 334,-448.5 469,-448.5 469,-248.5 334,-248.5"/>
<text text-anchor="start" x="342" y="-436.5" font-family="Helvetica,sans-Serif" font-size="10.00">o2::dataformats::RangeRef</text>
<text text-anchor="middle" x="401.5" y="-425.5" font-family="Helvetica,sans-Serif" font-size="10.00">Comp&lt; 5 &gt;</text>
<polyline fill="none" stroke="black" points="334,-418.5 469,-418.5 "/>
<text text-anchor="middle" x="401.5" y="-406.5" font-family="Helvetica,sans-Serif" font-size="10.00"> </text>
<polyline fill="none" stroke="black" points="334,-399.5 469,-399.5 "/>
<text text-anchor="start" x="342" y="-387.5" font-family="Helvetica,sans-Serif" font-size="10.00">+ RangeRefComp()</text>
<text text-anchor="start" x="342" y="-376.5" font-family="Helvetica,sans-Serif" font-size="10.00">+ RangeRefComp()</text>
<text text-anchor="start" x="342" y="-365.5" font-family="Helvetica,sans-Serif" font-size="10.00">+ RangeRefComp()</text>
<text text-anchor="start" x="342" y="-354.5" font-family="Helvetica,sans-Serif" font-size="10.00">+ set()</text>
<text text-anchor="start" x="342" y="-343.5" font-family="Helvetica,sans-Serif" font-size="10.00">+ getFirstEntry()</text>
<text text-anchor="start" x="342" y="-332.5" font-family="Helvetica,sans-Serif" font-size="10.00">+ getEntries()</text>
<text text-anchor="start" x="342" y="-321.5" font-family="Helvetica,sans-Serif" font-size="10.00">+ setFirstEntry()</text>
<text text-anchor="start" x="342" y="-310.5" font-family="Helvetica,sans-Serif" font-size="10.00">+ setEntries()</text>
<text text-anchor="start" x="342" y="-299.5" font-family="Helvetica,sans-Serif" font-size="10.00">+ changeEntriesBy()</text>
<text text-anchor="start" x="342" y="-288.5" font-family="Helvetica,sans-Serif" font-size="10.00">+ operator==()</text>
<text text-anchor="start" x="342" y="-277.5" font-family="Helvetica,sans-Serif" font-size="10.00">+ ClassDefNV()</text>
<text text-anchor="start" x="342" y="-266.5" font-family="Helvetica,sans-Serif" font-size="10.00">+ getMaxFirstEntry()</text>
<text text-anchor="start" x="342" y="-255.5" font-family="Helvetica,sans-Serif" font-size="10.00">+ getMaxEntries()</text>
</a>
</g>
</g>
<!-- Node6&#45;&gt;Node1 -->
<g id="edge6" class="edge"><title>Node6&#45;&gt;Node1</title>
<path fill="none" stroke="#404040" d="M362.456,-248.348C349.362,-216.387 334.312,-180.971 319.5,-149 314.012,-137.155 307.856,-124.658 301.789,-112.72"/>
<polygon fill="none" stroke="#404040" points="301.741,-112.625 295.443,-109.111 296.264,-101.947 302.562,-105.46 301.741,-112.625"/>
<text text-anchor="middle" x="322" y="-123" font-family="Helvetica,sans-Serif" font-size="10.00"> +ref</text>
</g>
<!-- Node7 -->
<g id="node7" class="node"><title>Node7</title>
<g id="a_node7"><a xlink:href="../../de/d0e/classo2_1_1dataformats_1_1RangeRefComp.html" target="_top" xlink:title="{o2::dataformats::RangeRef\lComp\&lt; NBitsN \&gt;\n||+ RangeRefComp()\l+ RangeRefComp()\l+ RangeRefComp()\l+ set()\l+ getFirstEntry()\l+ getEntries()\l+ setFirstEntry()\l+ setEntries()\l+ changeEntriesBy()\l+ operator==()\l+ ClassDefNV()\l+ getMaxFirstEntry()\l+ getMaxEntries()\l}">
<polygon fill="none" stroke="black" points="334,-606.5 334,-806.5 469,-806.5 469,-606.5 334,-606.5"/>
<text text-anchor="start" x="342" y="-794.5" font-family="Helvetica,sans-Serif" font-size="10.00">o2::dataformats::RangeRef</text>
<text text-anchor="middle" x="401.5" y="-783.5" font-family="Helvetica,sans-Serif" font-size="10.00">Comp&lt; NBitsN &gt;</text>
<polyline fill="none" stroke="black" points="334,-776.5 469,-776.5 "/>
<text text-anchor="middle" x="401.5" y="-764.5" font-family="Helvetica,sans-Serif" font-size="10.00"> </text>
<polyline fill="none" stroke="black" points="334,-757.5 469,-757.5 "/>
<text text-anchor="start" x="342" y="-745.5" font-family="Helvetica,sans-Serif" font-size="10.00">+ RangeRefComp()</text>
<text text-anchor="start" x="342" y="-734.5" font-family="Helvetica,sans-Serif" font-size="10.00">+ RangeRefComp()</text>
<text text-anchor="start" x="342" y="-723.5" font-family="Helvetica,sans-Serif" font-size="10.00">+ RangeRefComp()</text>
<text text-anchor="start" x="342" y="-712.5" font-family="Helvetica,sans-Serif" font-size="10.00">+ set()</text>
<text text-anchor="start" x="342" y="-701.5" font-family="Helvetica,sans-Serif" font-size="10.00">+ getFirstEntry()</text>
<text text-anchor="start" x="342" y="-690.5" font-family="Helvetica,sans-Serif" font-size="10.00">+ getEntries()</text>
<text text-anchor="start" x="342" y="-679.5" font-family="Helvetica,sans-Serif" font-size="10.00">+ setFirstEntry()</text>
<text text-anchor="start" x="342" y="-668.5" font-family="Helvetica,sans-Serif" font-size="10.00">+ setEntries()</text>
<text text-anchor="start" x="342" y="-657.5" font-family="Helvetica,sans-Serif" font-size="10.00">+ changeEntriesBy()</text>
<text text-anchor="start" x="342" y="-646.5" font-family="Helvetica,sans-Serif" font-size="10.00">+ operator==()</text>
<text text-anchor="start" x="342" y="-635.5" font-family="Helvetica,sans-Serif" font-size="10.00">+ ClassDefNV()</text>
<text text-anchor="start" x="342" y="-624.5" font-family="Helvetica,sans-Serif" font-size="10.00">+ getMaxFirstEntry()</text>
<text text-anchor="start" x="342" y="-613.5" font-family="Helvetica,sans-Serif" font-size="10.00">+ getMaxEntries()</text>
</a>
</g>
</g>
<!-- Node7&#45;&gt;Node6 -->
<g id="edge7" class="edge"><title>Node7&#45;&gt;Node6</title>
<path fill="none" stroke="orange" d="M401.5,-596.116C401.5,-549.112 401.5,-494.572 401.5,-448.751"/>
<polygon fill="orange" stroke="orange" points="398,-596.334 401.5,-606.334 405,-596.334 398,-596.334"/>
<text text-anchor="middle" x="415" y="-574.5" font-family="Helvetica,sans-Serif" font-size="10.00"> &lt; 5 &gt;</text>
</g>
</g>
</svg>
