<?xml version="1.0" encoding="UTF-8" standalone="no"?>
<!DOCTYPE svg PUBLIC "-//W3C//DTD SVG 1.1//EN"
 "http://www.w3.org/Graphics/SVG/1.1/DTD/svg11.dtd">
<!-- Generated by graphviz version 2.38.0 (20140413.2041)
 -->
<!-- Title: o2::utils::TreeStream::TreeDataElement Pages: 1 -->
<svg width="220pt" height="182pt"
 viewBox="0.00 0.00 220.00 182.00" xmlns="http://www.w3.org/2000/svg" xmlns:xlink="http://www.w3.org/1999/xlink">
<g id="graph0" class="graph" transform="scale(1 1) rotate(0) translate(4 178)">
<title>o2::utils::TreeStream::TreeDataElement</title>
<!-- Node1 -->
<g id="node1" class="node"><title>Node1</title>
<polygon fill="#bfbfbf" stroke="black" points="48.5,-0.5 48.5,-68.5 156.5,-68.5 156.5,-0.5 48.5,-0.5"/>
<text text-anchor="start" x="56.5" y="-56.5" font-family="Helvetica,sans-Serif" font-size="10.00">o2::utils::TreeStream</text>
<text text-anchor="middle" x="102.5" y="-45.5" font-family="Helvetica,sans-Serif" font-size="10.00">::TreeDataElement</text>
<polyline fill="none" stroke="black" points="48.5,-38.5 156.5,-38.5 "/>
<text text-anchor="middle" x="102.5" y="-26.5" font-family="Helvetica,sans-Serif" font-size="10.00"> </text>
<polyline fill="none" stroke="black" points="48.5,-19.5 156.5,-19.5 "/>
<text text-anchor="middle" x="102.5" y="-7.5" font-family="Helvetica,sans-Serif" font-size="10.00"> </text>
</g>
<!-- Node2 -->
<g id="node2" class="node"><title>Node2</title>
<polygon fill="none" stroke="#bfbfbf" points="0,-116.5 0,-173.5 35,-173.5 35,-116.5 0,-116.5"/>
<text text-anchor="middle" x="17.5" y="-161.5" font-family="Helvetica,sans-Serif" font-size="10.00">char</text>
<polyline fill="none" stroke="#bfbfbf" points="0,-154.5 35,-154.5 "/>
<text text-anchor="middle" x="17.5" y="-142.5" font-family="Helvetica,sans-Serif" font-size="10.00"> </text>
<polyline fill="none" stroke="#bfbfbf" points="0,-135.5 35,-135.5 "/>
<text text-anchor="middle" x="17.5" y="-123.5" font-family="Helvetica,sans-Serif" font-size="10.00"> </text>
</g>
<!-- Node2&#45;&gt;Node1 -->
<g id="edge1" class="edge"><title>Node2&#45;&gt;Node1</title>
<path fill="none" stroke="#404040" d="M26.1747,-116.224C29.9843,-106.452 35.0752,-95.7366 41.5,-87 43.9556,-83.6608 46.67,-80.3989 49.5492,-77.2418"/>
<polygon fill="none" stroke="#404040" points="49.5982,-77.1921 50.9608,-70.1109 58.0214,-68.6451 56.6588,-75.7264 49.5982,-77.1921"/>
<text text-anchor="middle" x="55.5" y="-90" font-family="Helvetica,sans-Serif" font-size="10.00"> +type</text>
</g>
<!-- Node3 -->
<g id="node3" class="node"><title>Node3</title>
<polygon fill="none" stroke="#bfbfbf" points="53,-116.5 53,-173.5 94,-173.5 94,-116.5 53,-116.5"/>
<text text-anchor="middle" x="73.5" y="-161.5" font-family="Helvetica,sans-Serif" font-size="10.00">string</text>
<polyline fill="none" stroke="#bfbfbf" points="53,-154.5 94,-154.5 "/>
<text text-anchor="middle" x="73.5" y="-142.5" font-family="Helvetica,sans-Serif" font-size="10.00"> </text>
<polyline fill="none" stroke="#bfbfbf" points="53,-135.5 94,-135.5 "/>
<text text-anchor="middle" x="73.5" y="-123.5" font-family="Helvetica,sans-Serif" font-size="10.00"> </text>
</g>
<!-- Node3&#45;&gt;Node1 -->
<g id="edge2" class="edge"><title>Node3&#45;&gt;Node1</title>
<path fill="none" stroke="#404040" d="M72.6641,-116.389C72.978,-106.937 74.0029,-96.3848 76.5,-87 77.1084,-84.7133 77.826,-82.4101 78.6274,-80.1129"/>
<polygon fill="none" stroke="#404040" points="78.712,-79.9037 77.256,-72.8411 83.2154,-68.7808 84.6713,-75.8434 78.712,-79.9037"/>
<text text-anchor="middle" x="93.5" y="-90" font-family="Helvetica,sans-Serif" font-size="10.00"> +name</text>
</g>
<!-- Node4 -->
<g id="node4" class="node"><title>Node4</title>
<polygon fill="none" stroke="#bfbfbf" points="112,-116.5 112,-173.5 153,-173.5 153,-116.5 112,-116.5"/>
<text text-anchor="middle" x="132.5" y="-161.5" font-family="Helvetica,sans-Serif" font-size="10.00">const</text>
<polyline fill="none" stroke="#bfbfbf" points="112,-154.5 153,-154.5 "/>
<text text-anchor="middle" x="132.5" y="-142.5" font-family="Helvetica,sans-Serif" font-size="10.00"> </text>
<polyline fill="none" stroke="#bfbfbf" points="112,-135.5 153,-135.5 "/>
<text text-anchor="middle" x="132.5" y="-123.5" font-family="Helvetica,sans-Serif" font-size="10.00"> </text>
</g>
<!-- Node4&#45;&gt;Node1 -->
<g id="edge3" class="edge"><title>Node4&#45;&gt;Node1</title>
<path fill="none" stroke="#404040" d="M124.852,-116.34C121.831,-105.416 118.282,-92.5798 114.913,-80.3935"/>
<polygon fill="none" stroke="#404040" points="114.828,-80.0846 109.373,-75.3676 111.63,-68.5186 117.084,-73.2355 114.828,-80.0846"/>
<text text-anchor="middle" x="129.5" y="-90" font-family="Helvetica,sans-Serif" font-size="10.00"> +cls</text>
</g>
<!-- Node5 -->
<g id="node5" class="node"><title>Node5</title>
<polygon fill="none" stroke="#bfbfbf" points="171,-116.5 171,-173.5 212,-173.5 212,-116.5 171,-116.5"/>
<text text-anchor="middle" x="191.5" y="-161.5" font-family="Helvetica,sans-Serif" font-size="10.00">void *</text>
<polyline fill="none" stroke="#bfbfbf" points="171,-154.5 212,-154.5 "/>
<text text-anchor="middle" x="191.5" y="-142.5" font-family="Helvetica,sans-Serif" font-size="10.00"> </text>
<polyline fill="none" stroke="#bfbfbf" points="171,-135.5 212,-135.5 "/>
<text text-anchor="middle" x="191.5" y="-123.5" font-family="Helvetica,sans-Serif" font-size="10.00"> </text>
</g>
<!-- Node5&#45;&gt;Node1 -->
<g id="edge4" class="edge"><title>Node5&#45;&gt;Node1</title>
<path fill="none" stroke="#404040" d="M170.858,-118.835C160.928,-106.73 148.748,-91.8808 137.434,-78.0877"/>
<polygon fill="none" stroke="#404040" points="137.388,-78.0319 130.49,-75.9298 129.777,-68.754 136.675,-70.8561 137.388,-78.0319"/>
<text text-anchor="middle" x="162" y="-90" font-family="Helvetica,sans-Serif" font-size="10.00"> +ptr</text>
</g>
</g>
</svg>
