<?xml version="1.0" encoding="UTF-8" standalone="no"?>
<!DOCTYPE svg PUBLIC "-//W3C//DTD SVG 1.1//EN"
 "http://www.w3.org/Graphics/SVG/1.1/DTD/svg11.dtd">
<!-- Generated by graphviz version 2.38.0 (20140413.2041)
 -->
<!-- Title: /home/travis/build/AliceO2Group/AliceO2/Detectors/MUON/MID/Raw/src/LocalBoardRO.cxx Pages: 1 -->
<svg width="459pt" height="173pt"
 viewBox="0.00 0.00 458.50 173.00" xmlns="http://www.w3.org/2000/svg" xmlns:xlink="http://www.w3.org/1999/xlink">
<g id="graph0" class="graph" transform="scale(1 1) rotate(0) translate(4 169)">
<title>/home/travis/build/AliceO2Group/AliceO2/Detectors/MUON/MID/Raw/src/LocalBoardRO.cxx</title>
<!-- Node1 -->
<g id="node1" class="node"><title>Node1</title>
<polygon fill="#bfbfbf" stroke="black" points="207,-112.5 207,-164.5 348,-164.5 348,-112.5 207,-112.5"/>
<text text-anchor="start" x="215" y="-152.5" font-family="Helvetica,sans-Serif" font-size="10.00">/home/travis/build</text>
<text text-anchor="start" x="215" y="-141.5" font-family="Helvetica,sans-Serif" font-size="10.00">/AliceO2Group/AliceO2</text>
<text text-anchor="start" x="215" y="-130.5" font-family="Helvetica,sans-Serif" font-size="10.00">/Detectors/MUON/MID/Raw</text>
<text text-anchor="middle" x="277.5" y="-119.5" font-family="Helvetica,sans-Serif" font-size="10.00">/src/LocalBoardRO.cxx</text>
</g>
<!-- Node2 -->
<g id="node2" class="node"><title>Node2</title>
<g id="a_node2"><a xlink:href="../../d3/d4a/LocalBoardRO_8h.html" target="_top" xlink:title="Structure to store the FEE local board information. ">
<polygon fill="none" stroke="black" points="0,-56.5 0,-75.5 131,-75.5 131,-56.5 0,-56.5"/>
<text text-anchor="middle" x="65.5" y="-63.5" font-family="Helvetica,sans-Serif" font-size="10.00">MIDRaw/LocalBoardRO.h</text>
</a>
</g>
</g>
<!-- Node1&#45;&gt;Node2 -->
<g id="edge1" class="edge"><title>Node1&#45;&gt;Node2</title>
<path fill="none" stroke="midnightblue" d="M206.907,-114.025C171.243,-102.164 129.537,-88.2953 100.704,-78.7071"/>
<polygon fill="midnightblue" stroke="midnightblue" points="101.667,-75.3389 91.0738,-75.5045 99.4584,-81.9813 101.667,-75.3389"/>
</g>
<!-- Node5 -->
<g id="node5" class="node"><title>Node5</title>
<polygon fill="none" stroke="#bfbfbf" points="308.5,-56.5 308.5,-75.5 362.5,-75.5 362.5,-56.5 308.5,-56.5"/>
<text text-anchor="middle" x="335.5" y="-63.5" font-family="Helvetica,sans-Serif" font-size="10.00">iostream</text>
</g>
<!-- Node1&#45;&gt;Node5 -->
<g id="edge4" class="edge"><title>Node1&#45;&gt;Node5</title>
<path fill="none" stroke="midnightblue" d="M298.112,-112.446C306.024,-102.828 314.848,-92.1032 321.935,-83.4881"/>
<polygon fill="midnightblue" stroke="midnightblue" points="324.696,-85.6416 328.346,-75.6955 319.29,-81.1943 324.696,-85.6416"/>
</g>
<!-- Node6 -->
<g id="node6" class="node"><title>Node6</title>
<polygon fill="none" stroke="#bfbfbf" points="380.5,-56.5 380.5,-75.5 450.5,-75.5 450.5,-56.5 380.5,-56.5"/>
<text text-anchor="middle" x="415.5" y="-63.5" font-family="Helvetica,sans-Serif" font-size="10.00">fmt/format.h</text>
</g>
<!-- Node1&#45;&gt;Node6 -->
<g id="edge5" class="edge"><title>Node1&#45;&gt;Node6</title>
<path fill="none" stroke="midnightblue" d="M326.542,-112.446C347.852,-101.56 371.94,-89.2537 389.67,-80.1955"/>
<polygon fill="midnightblue" stroke="midnightblue" points="391.496,-83.1933 398.809,-75.527 388.311,-76.9596 391.496,-83.1933"/>
</g>
<!-- Node7 -->
<g id="node7" class="node"><title>Node7</title>
<g id="a_node7"><a xlink:href="../../d2/da5/CrateParameters_8h.html" target="_top" xlink:title="MID RO crate parameters. ">
<polygon fill="none" stroke="black" points="149,-56.5 149,-75.5 290,-75.5 290,-56.5 149,-56.5"/>
<text text-anchor="middle" x="219.5" y="-63.5" font-family="Helvetica,sans-Serif" font-size="10.00">MIDRaw/CrateParameters.h</text>
</a>
</g>
</g>
<!-- Node1&#45;&gt;Node7 -->
<g id="edge6" class="edge"><title>Node1&#45;&gt;Node7</title>
<path fill="none" stroke="midnightblue" d="M256.888,-112.446C248.976,-102.828 240.152,-92.1032 233.065,-83.4881"/>
<polygon fill="midnightblue" stroke="midnightblue" points="235.71,-81.1943 226.654,-75.6955 230.304,-85.6416 235.71,-81.1943"/>
</g>
<!-- Node3 -->
<g id="node3" class="node"><title>Node3</title>
<polygon fill="none" stroke="#bfbfbf" points="65.5,-0.5 65.5,-19.5 111.5,-19.5 111.5,-0.5 65.5,-0.5"/>
<text text-anchor="middle" x="88.5" y="-7.5" font-family="Helvetica,sans-Serif" font-size="10.00">cstdint</text>
</g>
<!-- Node2&#45;&gt;Node3 -->
<g id="edge2" class="edge"><title>Node2&#45;&gt;Node3</title>
<path fill="none" stroke="midnightblue" d="M69.298,-56.083C72.4128,-48.77 76.9228,-38.1814 80.7893,-29.1034"/>
<polygon fill="midnightblue" stroke="midnightblue" points="84.0741,-30.3229 84.7727,-19.7511 77.6339,-27.5798 84.0741,-30.3229"/>
</g>
<!-- Node4 -->
<g id="node4" class="node"><title>Node4</title>
<polygon fill="none" stroke="#bfbfbf" points="176.5,-0.5 176.5,-19.5 214.5,-19.5 214.5,-0.5 176.5,-0.5"/>
<text text-anchor="middle" x="195.5" y="-7.5" font-family="Helvetica,sans-Serif" font-size="10.00">array</text>
</g>
<!-- Node2&#45;&gt;Node4 -->
<g id="edge3" class="edge"><title>Node2&#45;&gt;Node4</title>
<path fill="none" stroke="midnightblue" d="M86.0989,-56.4435C107.871,-47.3998 142.374,-33.0677 166.804,-22.9198"/>
<polygon fill="midnightblue" stroke="midnightblue" points="168.377,-26.0567 176.269,-18.9883 165.691,-19.5922 168.377,-26.0567"/>
</g>
<!-- Node7&#45;&gt;Node3 -->
<g id="edge7" class="edge"><title>Node7&#45;&gt;Node3</title>
<path fill="none" stroke="midnightblue" d="M198.743,-56.4435C177.184,-47.5566 143.237,-33.5632 118.706,-23.4514"/>
<polygon fill="midnightblue" stroke="midnightblue" points="119.739,-20.0917 109.16,-19.5164 117.072,-26.5634 119.739,-20.0917"/>
</g>
<!-- Node7&#45;&gt;Node4 -->
<g id="edge8" class="edge"><title>Node7&#45;&gt;Node4</title>
<path fill="none" stroke="midnightblue" d="M215.537,-56.083C212.287,-48.77 207.581,-38.1814 203.546,-29.1034"/>
<polygon fill="midnightblue" stroke="midnightblue" points="206.649,-27.4677 199.389,-19.7511 200.252,-30.3107 206.649,-27.4677"/>
</g>
</g>
</svg>
