<?xml version="1.0" encoding="UTF-8" standalone="no"?>
<!DOCTYPE svg PUBLIC "-//W3C//DTD SVG 1.1//EN"
 "http://www.w3.org/Graphics/SVG/1.1/DTD/svg11.dtd">
<!-- Generated by graphviz version 2.38.0 (20140413.2041)
 -->
<!-- Title: /home/travis/build/AliceO2Group/AliceO2/Detectors/TPC/reconstruction/run/rawReaderCRU.cxx Pages: 1 -->
<!--zoomable 542 -->
<svg id="main" version="1.1" xmlns="http://www.w3.org/2000/svg" xmlns:xlink="http://www.w3.org/1999/xlink" xml:space="preserve" onload="init(evt)">
<style type="text/css"><![CDATA[
.edge:hover path { stroke: red; }
.edge:hover polygon { stroke: red; fill: red; }
]]></style>
<script type="text/javascript"><![CDATA[
var edges = document.getElementsByTagName('g');
if (edges && edges.length) {
  for (var i=0;i<edges.length;i++) {
    if (edges[i].id.substr(0,4)=='edge') {
      edges[i].setAttribute('class','edge');
    }
  }
}
]]></script>
        <defs>
                <circle id="rim" cx="0" cy="0" r="7"/>
                <circle id="rim2" cx="0" cy="0" r="3.5"/>
                <g id="zoomPlus">
                        <use xlink:href="#rim" fill="#404040">
                                <set attributeName="fill" to="#808080" begin="zoomplus.mouseover" end="zoomplus.mouseout"/>
                        </use>
                        <path d="M-4,0h8M0,-4v8" fill="none" stroke="white" stroke-width="1.5" pointer-events="none"/>
                </g>
                <g id="zoomMin">
                        <use xlink:href="#rim" fill="#404040">
                                <set attributeName="fill" to="#808080" begin="zoomminus.mouseover" end="zoomminus.mouseout"/>
                        </use>
                        <path d="M-4,0h8" fill="none" stroke="white" stroke-width="1.5" pointer-events="none"/>
                </g>
                <g id="dirArrow">
                        <path fill="none" stroke="white" stroke-width="1.5" d="M0,-3.0v7 M-2.5,-0.5L0,-3.0L2.5,-0.5"/>
                </g>
               <g id="resetDef">
                       <use xlink:href="#rim2" fill="#404040">
                               <set attributeName="fill" to="#808080" begin="reset.mouseover" end="reset.mouseout"/>
                       </use>
               </g>
        </defs>

<script type="text/javascript">
var viewWidth = 1431;
var viewHeight = 542;
var sectionId = 'dynsection-0';
</script>
<script xlink:href="../../svgpan.js"/>
<svg id="graph" class="graph">
<g id="viewport">
<title>/home/travis/build/AliceO2Group/AliceO2/Detectors/TPC/reconstruction/run/rawReaderCRU.cxx</title>
<!-- Node1 -->
<g id="node1" class="node"><title>Node1</title>
<polygon fill="#bfbfbf" stroke="black" points="467,-481.5 467,-533.5 617,-533.5 617,-481.5 467,-481.5"/>
<text text-anchor="start" x="475" y="-521.5" font-family="Helvetica,sans-Serif" font-size="10.00">/home/travis/build</text>
<text text-anchor="start" x="475" y="-510.5" font-family="Helvetica,sans-Serif" font-size="10.00">/AliceO2Group/AliceO2</text>
<text text-anchor="start" x="475" y="-499.5" font-family="Helvetica,sans-Serif" font-size="10.00">/Detectors/TPC/reconstruction</text>
<text text-anchor="middle" x="542" y="-488.5" font-family="Helvetica,sans-Serif" font-size="10.00">/run/rawReaderCRU.cxx</text>
</g>
<!-- Node2 -->
<g id="node2" class="node"><title>Node2</title>
<polygon fill="none" stroke="#bfbfbf" points="393,-420 393,-439 527,-439 527,-420 393,-420"/>
<text text-anchor="middle" x="460" y="-427" font-family="Helvetica,sans-Serif" font-size="10.00">boost/program_options.hpp</text>
</g>
<!-- Node1&#45;&gt;Node2 -->
<g id="edge1" class="edge"><title>Node1&#45;&gt;Node2</title>
<path fill="none" stroke="midnightblue" d="M514.695,-481.193C502.221,-469.632 487.836,-456.299 476.949,-446.209"/>
<polygon fill="midnightblue" stroke="midnightblue" points="479.11,-443.44 469.396,-439.209 474.352,-448.574 479.11,-443.44"/>
</g>
<!-- Node3 -->
<g id="node3" class="node"><title>Node3</title>
<g id="a_node3"><a xlink:href="../../df/d86/RawReaderCRU_8h.html" target="_top" xlink:title="TPCReconstruction/RawReader\lCRU.h">
<polygon fill="none" stroke="black" points="545,-414.5 545,-444.5 703,-444.5 703,-414.5 545,-414.5"/>
<text text-anchor="start" x="553" y="-432.5" font-family="Helvetica,sans-Serif" font-size="10.00">TPCReconstruction/RawReader</text>
<text text-anchor="middle" x="624" y="-421.5" font-family="Helvetica,sans-Serif" font-size="10.00">CRU.h</text>
</a>
</g>
</g>
<!-- Node1&#45;&gt;Node3 -->
<g id="edge2" class="edge"><title>Node1&#45;&gt;Node3</title>
<path fill="none" stroke="midnightblue" d="M569.305,-481.193C579.598,-471.653 591.193,-460.907 601.049,-451.772"/>
<polygon fill="midnightblue" stroke="midnightblue" points="603.567,-454.21 608.522,-444.845 598.809,-449.076 603.567,-454.21"/>
</g>
<!-- Node4 -->
<g id="node4" class="node"><title>Node4</title>
<polygon fill="none" stroke="#bfbfbf" points="0,-358.5 0,-377.5 54,-377.5 54,-358.5 0,-358.5"/>
<text text-anchor="middle" x="27" y="-365.5" font-family="Helvetica,sans-Serif" font-size="10.00">iostream</text>
</g>
<!-- Node3&#45;&gt;Node4 -->
<g id="edge3" class="edge"><title>Node3&#45;&gt;Node4</title>
<path fill="none" stroke="midnightblue" d="M544.893,-415.131C541.893,-414.73 538.921,-414.351 536,-414 329.947,-389.231 272.895,-410.985 64.0843,-377.894"/>
<polygon fill="midnightblue" stroke="midnightblue" points="64.4539,-374.409 54.025,-376.277 63.3425,-381.32 64.4539,-374.409"/>
</g>
<!-- Node5 -->
<g id="node5" class="node"><title>Node5</title>
<polygon fill="none" stroke="#bfbfbf" points="72,-358.5 72,-377.5 122,-377.5 122,-358.5 72,-358.5"/>
<text text-anchor="middle" x="97" y="-365.5" font-family="Helvetica,sans-Serif" font-size="10.00">fstream</text>
</g>
<!-- Node3&#45;&gt;Node5 -->
<g id="edge4" class="edge"><title>Node3&#45;&gt;Node5</title>
<path fill="none" stroke="midnightblue" d="M544.886,-415.182C541.888,-414.767 538.918,-414.371 536,-414 358.931,-391.475 312.265,-406.134 136,-378 134.726,-377.797 133.432,-377.576 132.127,-377.34"/>
<polygon fill="midnightblue" stroke="midnightblue" points="132.57,-373.859 122.076,-375.319 131.19,-380.722 132.57,-373.859"/>
</g>
<!-- Node6 -->
<g id="node6" class="node"><title>Node6</title>
<polygon fill="none" stroke="#bfbfbf" points="176,-302.5 176,-321.5 222,-321.5 222,-302.5 176,-302.5"/>
<text text-anchor="middle" x="199" y="-309.5" font-family="Helvetica,sans-Serif" font-size="10.00">cstdint</text>
</g>
<!-- Node3&#45;&gt;Node6 -->
<g id="edge5" class="edge"><title>Node3&#45;&gt;Node6</title>
<path fill="none" stroke="midnightblue" d="M544.882,-415.212C541.886,-414.789 538.917,-414.383 536,-414 495.375,-408.666 196.522,-408.354 169,-378 156.159,-363.838 169.579,-343.229 182.338,-329.033"/>
<polygon fill="midnightblue" stroke="midnightblue" points="185.161,-331.146 189.57,-321.512 180.116,-326.294 185.161,-331.146"/>
</g>
<!-- Node7 -->
<g id="node7" class="node"><title>Node7</title>
<polygon fill="none" stroke="#bfbfbf" points="338,-358.5 338,-377.5 388,-377.5 388,-358.5 338,-358.5"/>
<text text-anchor="middle" x="363" y="-365.5" font-family="Helvetica,sans-Serif" font-size="10.00">iomanip</text>
</g>
<!-- Node3&#45;&gt;Node7 -->
<g id="edge6" class="edge"><title>Node3&#45;&gt;Node7</title>
<path fill="none" stroke="midnightblue" d="M557.784,-414.498C514.813,-405.242 457.377,-392.556 398.132,-378.208"/>
<polygon fill="midnightblue" stroke="midnightblue" points="398.767,-374.76 388.222,-375.796 397.111,-381.562 398.767,-374.76"/>
</g>
<!-- Node8 -->
<g id="node8" class="node"><title>Node8</title>
<polygon fill="none" stroke="#bfbfbf" points="406,-358.5 406,-377.5 450,-377.5 450,-358.5 406,-358.5"/>
<text text-anchor="middle" x="428" y="-365.5" font-family="Helvetica,sans-Serif" font-size="10.00">vector</text>
</g>
<!-- Node3&#45;&gt;Node8 -->
<g id="edge7" class="edge"><title>Node3&#45;&gt;Node8</title>
<path fill="none" stroke="midnightblue" d="M577.551,-414.399C541.288,-403.391 491.861,-388.386 459.937,-378.695"/>
<polygon fill="midnightblue" stroke="midnightblue" points="460.811,-375.303 450.226,-375.747 458.778,-382.001 460.811,-375.303"/>
</g>
<!-- Node9 -->
<g id="node9" class="node"><title>Node9</title>
<polygon fill="none" stroke="#bfbfbf" points="468.5,-358.5 468.5,-377.5 503.5,-377.5 503.5,-358.5 468.5,-358.5"/>
<text text-anchor="middle" x="486" y="-365.5" font-family="Helvetica,sans-Serif" font-size="10.00">map</text>
</g>
<!-- Node3&#45;&gt;Node9 -->
<g id="edge8" class="edge"><title>Node3&#45;&gt;Node9</title>
<path fill="none" stroke="midnightblue" d="M591.296,-414.399C567.412,-404.102 535.417,-390.307 512.987,-380.636"/>
<polygon fill="midnightblue" stroke="midnightblue" points="514.283,-377.383 503.715,-376.638 511.512,-383.811 514.283,-377.383"/>
</g>
<!-- Node10 -->
<g id="node10" class="node"><title>Node10</title>
<polygon fill="none" stroke="#bfbfbf" points="522,-358.5 522,-377.5 560,-377.5 560,-358.5 522,-358.5"/>
<text text-anchor="middle" x="541" y="-365.5" font-family="Helvetica,sans-Serif" font-size="10.00">array</text>
</g>
<!-- Node3&#45;&gt;Node10 -->
<g id="edge9" class="edge"><title>Node3&#45;&gt;Node10</title>
<path fill="none" stroke="midnightblue" d="M604.33,-414.399C591.399,-405.129 574.514,-393.025 561.432,-383.647"/>
<polygon fill="midnightblue" stroke="midnightblue" points="563.244,-380.639 553.077,-377.658 559.165,-386.329 563.244,-380.639"/>
</g>
<!-- Node11 -->
<g id="node11" class="node"><title>Node11</title>
<polygon fill="none" stroke="#bfbfbf" points="578.5,-358.5 578.5,-377.5 619.5,-377.5 619.5,-358.5 578.5,-358.5"/>
<text text-anchor="middle" x="599" y="-365.5" font-family="Helvetica,sans-Serif" font-size="10.00">bitset</text>
</g>
<!-- Node3&#45;&gt;Node11 -->
<g id="edge10" class="edge"><title>Node3&#45;&gt;Node11</title>
<path fill="none" stroke="midnightblue" d="M618.075,-414.399C614.63,-406.199 610.252,-395.781 606.56,-386.994"/>
<polygon fill="midnightblue" stroke="midnightblue" points="609.738,-385.521 602.638,-377.658 603.285,-388.233 609.738,-385.521"/>
</g>
<!-- Node12 -->
<g id="node12" class="node"><title>Node12</title>
<polygon fill="none" stroke="#bfbfbf" points="694,-134.5 694,-153.5 738,-153.5 738,-134.5 694,-134.5"/>
<text text-anchor="middle" x="716" y="-141.5" font-family="Helvetica,sans-Serif" font-size="10.00">cmath</text>
</g>
<!-- Node3&#45;&gt;Node12 -->
<g id="edge11" class="edge"><title>Node3&#45;&gt;Node12</title>
<path fill="none" stroke="midnightblue" d="M625.208,-414.201C629.226,-368.887 643.143,-229.163 665,-190 671.744,-177.917 683,-167.466 693.225,-159.686"/>
<polygon fill="midnightblue" stroke="midnightblue" points="695.353,-162.467 701.449,-153.801 691.28,-156.774 695.353,-162.467"/>
</g>
<!-- Node13 -->
<g id="node13" class="node"><title>Node13</title>
<polygon fill="none" stroke="#bfbfbf" points="972,-358.5 972,-377.5 1038,-377.5 1038,-358.5 972,-358.5"/>
<text text-anchor="middle" x="1005" y="-365.5" font-family="Helvetica,sans-Serif" font-size="10.00">string_view</text>
</g>
<!-- Node3&#45;&gt;Node13 -->
<g id="edge12" class="edge"><title>Node3&#45;&gt;Node13</title>
<path fill="none" stroke="midnightblue" d="M703.097,-417.431C770.862,-407.734 871.006,-392.9 958,-378 959.267,-377.783 960.552,-377.559 961.849,-377.331"/>
<polygon fill="midnightblue" stroke="midnightblue" points="962.691,-380.735 971.905,-375.506 961.441,-373.848 962.691,-380.735"/>
</g>
<!-- Node14 -->
<g id="node14" class="node"><title>Node14</title>
<polygon fill="none" stroke="#bfbfbf" points="1056,-358.5 1056,-377.5 1112,-377.5 1112,-358.5 1056,-358.5"/>
<text text-anchor="middle" x="1084" y="-365.5" font-family="Helvetica,sans-Serif" font-size="10.00">algorithm</text>
</g>
<!-- Node3&#45;&gt;Node14 -->
<g id="edge13" class="edge"><title>Node3&#45;&gt;Node14</title>
<path fill="none" stroke="midnightblue" d="M703.161,-421.904C786.214,-414.338 920.682,-400.263 1045.66,-378.052"/>
<polygon fill="midnightblue" stroke="midnightblue" points="1046.57,-381.445 1055.79,-376.23 1045.33,-374.556 1046.57,-381.445"/>
</g>
<!-- Node15 -->
<g id="node15" class="node"><title>Node15</title>
<polygon fill="none" stroke="#bfbfbf" points="1130.5,-358.5 1130.5,-377.5 1189.5,-377.5 1189.5,-358.5 1130.5,-358.5"/>
<text text-anchor="middle" x="1160" y="-365.5" font-family="Helvetica,sans-Serif" font-size="10.00">functional</text>
</g>
<!-- Node3&#45;&gt;Node15 -->
<g id="edge14" class="edge"><title>Node3&#45;&gt;Node15</title>
<path fill="none" stroke="midnightblue" d="M703.167,-423.535C799.465,-416.804 967.076,-402.869 1120.2,-377.926"/>
<polygon fill="midnightblue" stroke="midnightblue" points="1120.97,-381.346 1130.27,-376.267 1119.83,-374.44 1120.97,-381.346"/>
</g>
<!-- Node16 -->
<g id="node16" class="node"><title>Node16</title>
<polygon fill="none" stroke="#bfbfbf" points="1207.5,-358.5 1207.5,-377.5 1260.5,-377.5 1260.5,-358.5 1207.5,-358.5"/>
<text text-anchor="middle" x="1234" y="-365.5" font-family="Helvetica,sans-Serif" font-size="10.00">gsl/span</text>
</g>
<!-- Node3&#45;&gt;Node16 -->
<g id="edge15" class="edge"><title>Node3&#45;&gt;Node16</title>
<path fill="none" stroke="midnightblue" d="M703.419,-425.462C812.647,-420.404 1015.39,-407.869 1197.34,-377.831"/>
<polygon fill="midnightblue" stroke="midnightblue" points="1198.08,-381.257 1207.36,-376.155 1196.92,-374.353 1198.08,-381.257"/>
</g>
<!-- Node17 -->
<g id="node17" class="node"><title>Node17</title>
<g id="a_node17"><a xlink:href="../../d7/df8/Types_8h.html" target="_top" xlink:title="MemoryResources/Types.h">
<polygon fill="none" stroke="black" points="1278.5,-358.5 1278.5,-377.5 1415.5,-377.5 1415.5,-358.5 1278.5,-358.5"/>
<text text-anchor="middle" x="1347" y="-365.5" font-family="Helvetica,sans-Serif" font-size="10.00">MemoryResources/Types.h</text>
</a>
</g>
</g>
<!-- Node3&#45;&gt;Node17 -->
<g id="edge16" class="edge"><title>Node3&#45;&gt;Node17</title>
<path fill="none" stroke="midnightblue" d="M703.019,-423.252C822.801,-415.089 1057.76,-398.261 1268.11,-378.053"/>
<polygon fill="midnightblue" stroke="midnightblue" points="1268.49,-381.532 1278.11,-377.088 1267.82,-374.565 1268.49,-381.532"/>
</g>
<!-- Node18 -->
<g id="node18" class="node"><title>Node18</title>
<g id="a_node18"><a xlink:href="../../df/d26/CRU_8h.html" target="_top" xlink:title="TPCBase/CRU.h">
<polygon fill="none" stroke="black" points="676.5,-358.5 676.5,-377.5 769.5,-377.5 769.5,-358.5 676.5,-358.5"/>
<text text-anchor="middle" x="723" y="-365.5" font-family="Helvetica,sans-Serif" font-size="10.00">TPCBase/CRU.h</text>
</a>
</g>
</g>
<!-- Node3&#45;&gt;Node18 -->
<g id="edge17" class="edge"><title>Node3&#45;&gt;Node18</title>
<path fill="none" stroke="midnightblue" d="M647.462,-414.399C663.331,-404.862 684.191,-392.325 699.968,-382.842"/>
<polygon fill="midnightblue" stroke="midnightblue" points="701.826,-385.809 708.595,-377.658 698.221,-379.809 701.826,-385.809"/>
</g>
<!-- Node35 -->
<g id="node35" class="node"><title>Node35</title>
<g id="a_node35"><a xlink:href="../../d4/d78/DataFormats_2Headers_2include_2Headers_2RAWDataHeader_8h.html" target="_top" xlink:title="Headers/RAWDataHeader.h">
<polygon fill="none" stroke="black" points="178.5,-358.5 178.5,-377.5 319.5,-377.5 319.5,-358.5 178.5,-358.5"/>
<text text-anchor="middle" x="249" y="-365.5" font-family="Helvetica,sans-Serif" font-size="10.00">Headers/RAWDataHeader.h</text>
</a>
</g>
</g>
<!-- Node3&#45;&gt;Node35 -->
<g id="edge39" class="edge"><title>Node3&#45;&gt;Node35</title>
<path fill="none" stroke="midnightblue" d="M544.851,-415.429C541.863,-414.945 538.905,-414.467 536,-414 460.018,-401.783 372.65,-388.143 314.464,-379.116"/>
<polygon fill="midnightblue" stroke="midnightblue" points="314.726,-375.615 304.308,-377.541 313.653,-382.532 314.726,-375.615"/>
</g>
<!-- Node36 -->
<g id="node36" class="node"><title>Node36</title>
<g id="a_node36"><a xlink:href="../../de/d41/PadPos_8h.html" target="_top" xlink:title="TPCBase/PadPos.h">
<polygon fill="none" stroke="black" points="939.5,-302.5 939.5,-321.5 1044.5,-321.5 1044.5,-302.5 939.5,-302.5"/>
<text text-anchor="middle" x="992" y="-309.5" font-family="Helvetica,sans-Serif" font-size="10.00">TPCBase/PadPos.h</text>
</a>
</g>
</g>
<!-- Node3&#45;&gt;Node36 -->
<g id="edge41" class="edge"><title>Node3&#45;&gt;Node36</title>
<path fill="none" stroke="midnightblue" d="M703.111,-427.967C766.26,-424.625 855.374,-413.213 925,-378 947.486,-366.628 967.373,-345.092 979.524,-329.934"/>
<polygon fill="midnightblue" stroke="midnightblue" points="982.407,-331.926 985.745,-321.87 976.865,-327.65 982.407,-331.926"/>
</g>
<!-- Node37 -->
<g id="node37" class="node"><title>Node37</title>
<g id="a_node37"><a xlink:href="../../da/d61/PadROCPos_8h.html" target="_top" xlink:title="TPCBase/PadROCPos.h">
<polygon fill="none" stroke="black" points="788,-358.5 788,-377.5 916,-377.5 916,-358.5 788,-358.5"/>
<text text-anchor="middle" x="852" y="-365.5" font-family="Helvetica,sans-Serif" font-size="10.00">TPCBase/PadROCPos.h</text>
</a>
</g>
</g>
<!-- Node3&#45;&gt;Node37 -->
<g id="edge42" class="edge"><title>Node3&#45;&gt;Node37</title>
<path fill="none" stroke="midnightblue" d="M677.744,-414.475C717.938,-403.986 772.155,-389.837 809.381,-380.122"/>
<polygon fill="midnightblue" stroke="midnightblue" points="810.612,-383.418 819.404,-377.506 808.844,-376.645 810.612,-383.418"/>
</g>
<!-- Node19 -->
<g id="node19" class="node"><title>Node19</title>
<g id="a_node19"><a xlink:href="../../d1/d73/Defs_8h.html" target="_top" xlink:title="Common definitions for 2D coordinates. ">
<polygon fill="none" stroke="black" points="842,-190.5 842,-209.5 968,-209.5 968,-190.5 842,-190.5"/>
<text text-anchor="middle" x="905" y="-197.5" font-family="Helvetica,sans-Serif" font-size="10.00">DataFormatsTPC/Defs.h</text>
</a>
</g>
</g>
<!-- Node18&#45;&gt;Node19 -->
<g id="edge18" class="edge"><title>Node18&#45;&gt;Node19</title>
<path fill="none" stroke="midnightblue" d="M729.936,-358.163C740.251,-345.247 760.515,-320.714 780,-302 814.74,-268.634 859.474,-234.336 884.922,-215.538"/>
<polygon fill="midnightblue" stroke="midnightblue" points="887.077,-218.299 893.071,-209.563 882.937,-212.654 887.077,-218.299"/>
</g>
<!-- Node32 -->
<g id="node32" class="node"><title>Node32</title>
<g id="a_node32"><a xlink:href="../../d3/dd6/Sector_8h.html" target="_top" xlink:title="TPCBase/Sector.h">
<polygon fill="none" stroke="black" points="674.5,-246.5 674.5,-265.5 773.5,-265.5 773.5,-246.5 674.5,-246.5"/>
<text text-anchor="middle" x="724" y="-253.5" font-family="Helvetica,sans-Serif" font-size="10.00">TPCBase/Sector.h</text>
</a>
</g>
</g>
<!-- Node18&#45;&gt;Node32 -->
<g id="edge33" class="edge"><title>Node18&#45;&gt;Node32</title>
<path fill="none" stroke="midnightblue" d="M723.078,-358.368C723.24,-340.617 723.612,-299.666 723.831,-275.597"/>
<polygon fill="midnightblue" stroke="midnightblue" points="727.331,-275.623 723.922,-265.591 720.331,-275.559 727.331,-275.623"/>
</g>
<!-- Node34 -->
<g id="node34" class="node"><title>Node34</title>
<g id="a_node34"><a xlink:href="../../dc/d14/ROC_8h.html" target="_top" xlink:title="TPCBase/ROC.h">
<polygon fill="none" stroke="black" points="789.5,-302.5 789.5,-321.5 882.5,-321.5 882.5,-302.5 789.5,-302.5"/>
<text text-anchor="middle" x="836" y="-309.5" font-family="Helvetica,sans-Serif" font-size="10.00">TPCBase/ROC.h</text>
</a>
</g>
</g>
<!-- Node18&#45;&gt;Node34 -->
<g id="edge36" class="edge"><title>Node18&#45;&gt;Node34</title>
<path fill="none" stroke="midnightblue" d="M740.905,-358.444C759.254,-349.675 788.005,-335.935 809.094,-325.858"/>
<polygon fill="midnightblue" stroke="midnightblue" points="810.665,-328.986 818.179,-321.516 807.647,-322.67 810.665,-328.986"/>
</g>
<!-- Node19&#45;&gt;Node12 -->
<g id="edge19" class="edge"><title>Node19&#45;&gt;Node12</title>
<path fill="none" stroke="midnightblue" d="M875.052,-190.444C840.379,-180.537 783.496,-164.285 747.981,-154.137"/>
<polygon fill="midnightblue" stroke="midnightblue" points="748.707,-150.705 738.13,-151.323 746.784,-157.436 748.707,-150.705"/>
</g>
<!-- Node20 -->
<g id="node20" class="node"><title>Node20</title>
<g id="a_node20"><a xlink:href="../../d2/dd0/Cartesian2D_8h.html" target="_top" xlink:title="MathUtils/Cartesian2D.h">
<polygon fill="none" stroke="black" points="1181.5,-73 1181.5,-92 1306.5,-92 1306.5,-73 1181.5,-73"/>
<text text-anchor="middle" x="1244" y="-80" font-family="Helvetica,sans-Serif" font-size="10.00">MathUtils/Cartesian2D.h</text>
</a>
</g>
</g>
<!-- Node19&#45;&gt;Node20 -->
<g id="edge20" class="edge"><title>Node19&#45;&gt;Node20</title>
<path fill="none" stroke="midnightblue" d="M930.203,-190.413C990.02,-170.033 1140.66,-118.709 1209.14,-95.3759"/>
<polygon fill="midnightblue" stroke="midnightblue" points="1210.29,-98.6815 1218.63,-92.1434 1208.04,-92.0555 1210.29,-98.6815"/>
</g>
<!-- Node23 -->
<g id="node23" class="node"><title>Node23</title>
<g id="a_node23"><a xlink:href="../../dd/d76/Cartesian3D_8h.html" target="_top" xlink:title="MathUtils/Cartesian3D.h">
<polygon fill="none" stroke="black" points="788.5,-134.5 788.5,-153.5 913.5,-153.5 913.5,-134.5 788.5,-134.5"/>
<text text-anchor="middle" x="851" y="-141.5" font-family="Helvetica,sans-Serif" font-size="10.00">MathUtils/Cartesian3D.h</text>
</a>
</g>
</g>
<!-- Node19&#45;&gt;Node23 -->
<g id="edge23" class="edge"><title>Node19&#45;&gt;Node23</title>
<path fill="none" stroke="midnightblue" d="M896.083,-190.083C888.22,-182.22 876.569,-170.569 867.081,-161.081"/>
<polygon fill="midnightblue" stroke="midnightblue" points="869.297,-158.347 859.751,-153.751 864.347,-163.297 869.297,-158.347"/>
</g>
<!-- Node21 -->
<g id="node21" class="node"><title>Node21</title>
<polygon fill="none" stroke="#bfbfbf" points="1077.5,-0.5 1077.5,-30.5 1228.5,-30.5 1228.5,-0.5 1077.5,-0.5"/>
<text text-anchor="start" x="1085.5" y="-18.5" font-family="Helvetica,sans-Serif" font-size="10.00">Math/GenVector/Displacement</text>
<text text-anchor="middle" x="1153" y="-7.5" font-family="Helvetica,sans-Serif" font-size="10.00">Vector2D.h</text>
</g>
<!-- Node20&#45;&gt;Node21 -->
<g id="edge21" class="edge"><title>Node20&#45;&gt;Node21</title>
<path fill="none" stroke="midnightblue" d="M1231.73,-72.7338C1218.84,-63.527 1198.13,-48.7328 1181.18,-36.6293"/>
<polygon fill="midnightblue" stroke="midnightblue" points="1182.9,-33.5534 1172.72,-30.589 1178.83,-39.2495 1182.9,-33.5534"/>
</g>
<!-- Node22 -->
<g id="node22" class="node"><title>Node22</title>
<polygon fill="none" stroke="#bfbfbf" points="1247,-6 1247,-25 1423,-25 1423,-6 1247,-6"/>
<text text-anchor="middle" x="1335" y="-13" font-family="Helvetica,sans-Serif" font-size="10.00">Math/GenVector/PositionVector2D.h</text>
</g>
<!-- Node20&#45;&gt;Node22 -->
<g id="edge22" class="edge"><title>Node20&#45;&gt;Node22</title>
<path fill="none" stroke="midnightblue" d="M1256.27,-72.7338C1271.15,-62.1106 1296.43,-44.0485 1314.33,-31.2642"/>
<polygon fill="midnightblue" stroke="midnightblue" points="1316.82,-33.7878 1322.92,-25.1273 1312.75,-28.0917 1316.82,-33.7878"/>
</g>
<!-- Node23&#45;&gt;Node20 -->
<g id="edge32" class="edge"><title>Node23&#45;&gt;Node20</title>
<path fill="none" stroke="midnightblue" d="M913.608,-135.342C978.429,-127.152 1082.55,-113.263 1172,-98 1179.09,-96.7909 1186.54,-95.4112 1193.86,-93.9946"/>
<polygon fill="midnightblue" stroke="midnightblue" points="1194.58,-97.4208 1203.71,-92.0526 1193.23,-90.553 1194.58,-97.4208"/>
</g>
<!-- Node24 -->
<g id="node24" class="node"><title>Node24</title>
<polygon fill="none" stroke="#bfbfbf" points="1012.5,-67.5 1012.5,-97.5 1163.5,-97.5 1163.5,-67.5 1012.5,-67.5"/>
<text text-anchor="start" x="1020.5" y="-85.5" font-family="Helvetica,sans-Serif" font-size="10.00">Math/GenVector/Displacement</text>
<text text-anchor="middle" x="1088" y="-74.5" font-family="Helvetica,sans-Serif" font-size="10.00">Vector3D.h</text>
</g>
<!-- Node23&#45;&gt;Node24 -->
<g id="edge24" class="edge"><title>Node23&#45;&gt;Node24</title>
<path fill="none" stroke="midnightblue" d="M884.956,-134.475C920.654,-125.513 977.712,-111.188 1022.26,-100.003"/>
<polygon fill="midnightblue" stroke="midnightblue" points="1023.3,-103.353 1032.14,-97.523 1021.59,-96.5634 1023.3,-103.353"/>
</g>
<!-- Node25 -->
<g id="node25" class="node"><title>Node25</title>
<polygon fill="none" stroke="#bfbfbf" points="68,-73 68,-92 244,-92 244,-73 68,-73"/>
<text text-anchor="middle" x="156" y="-80" font-family="Helvetica,sans-Serif" font-size="10.00">Math/GenVector/PositionVector3D.h</text>
</g>
<!-- Node23&#45;&gt;Node25 -->
<g id="edge25" class="edge"><title>Node23&#45;&gt;Node25</title>
<path fill="none" stroke="midnightblue" d="M788.317,-137.435C774.699,-136.266 760.369,-135.065 747,-134 527.115,-116.491 471.217,-122.49 252,-98 240.858,-96.7552 229.024,-95.1784 217.612,-93.5261"/>
<polygon fill="midnightblue" stroke="midnightblue" points="218.123,-90.0638 207.719,-92.0612 217.098,-96.9883 218.123,-90.0638"/>
</g>
<!-- Node26 -->
<g id="node26" class="node"><title>Node26</title>
<polygon fill="none" stroke="#bfbfbf" points="261.5,-73 261.5,-92 410.5,-92 410.5,-73 261.5,-73"/>
<text text-anchor="middle" x="336" y="-80" font-family="Helvetica,sans-Serif" font-size="10.00">Math/GenVector/Rotation3D.h</text>
</g>
<!-- Node23&#45;&gt;Node26 -->
<g id="edge26" class="edge"><title>Node23&#45;&gt;Node26</title>
<path fill="none" stroke="midnightblue" d="M788.315,-136.977C686.479,-127.104 489.493,-107.615 420,-98 410.957,-96.7488 401.395,-95.2587 392.088,-93.7175"/>
<polygon fill="midnightblue" stroke="midnightblue" points="392.571,-90.2494 382.127,-92.0338 391.404,-97.1515 392.571,-90.2494"/>
</g>
<!-- Node27 -->
<g id="node27" class="node"><title>Node27</title>
<polygon fill="none" stroke="#bfbfbf" points="429,-73 429,-92 585,-92 585,-73 429,-73"/>
<text text-anchor="middle" x="507" y="-80" font-family="Helvetica,sans-Serif" font-size="10.00">Math/GenVector/Transform3D.h</text>
</g>
<!-- Node23&#45;&gt;Node27 -->
<g id="edge27" class="edge"><title>Node23&#45;&gt;Node27</title>
<path fill="none" stroke="midnightblue" d="M801.713,-134.475C739.512,-123.716 632.634,-105.23 566.11,-93.724"/>
<polygon fill="midnightblue" stroke="midnightblue" points="566.646,-90.2647 556.195,-92.0091 565.453,-97.1623 566.646,-90.2647"/>
</g>
<!-- Node28 -->
<g id="node28" class="node"><title>Node28</title>
<polygon fill="none" stroke="#bfbfbf" points="603,-73 603,-92 763,-92 763,-73 603,-73"/>
<text text-anchor="middle" x="683" y="-80" font-family="Helvetica,sans-Serif" font-size="10.00">Math/GenVector/Translation3D.h</text>
</g>
<!-- Node23&#45;&gt;Node28 -->
<g id="edge28" class="edge"><title>Node23&#45;&gt;Node28</title>
<path fill="none" stroke="midnightblue" d="M826.93,-134.475C797.987,-124.225 749.238,-106.959 716.598,-95.3994"/>
<polygon fill="midnightblue" stroke="midnightblue" points="717.62,-92.0484 707.026,-92.0091 715.283,-98.6468 717.62,-92.0484"/>
</g>
<!-- Node29 -->
<g id="node29" class="node"><title>Node29</title>
<polygon fill="none" stroke="#bfbfbf" points="781,-73 781,-92 837,-92 837,-73 781,-73"/>
<text text-anchor="middle" x="809" y="-80" font-family="Helvetica,sans-Serif" font-size="10.00">Rtypes.h</text>
</g>
<!-- Node23&#45;&gt;Node29 -->
<g id="edge29" class="edge"><title>Node23&#45;&gt;Node29</title>
<path fill="none" stroke="midnightblue" d="M844.982,-134.475C838.745,-125.638 828.827,-111.589 820.982,-100.475"/>
<polygon fill="midnightblue" stroke="midnightblue" points="823.633,-98.1604 815.006,-92.0091 817.914,-102.197 823.633,-98.1604"/>
</g>
<!-- Node30 -->
<g id="node30" class="node"><title>Node30</title>
<polygon fill="none" stroke="#bfbfbf" points="855,-73 855,-92 931,-92 931,-73 855,-73"/>
<text text-anchor="middle" x="893" y="-80" font-family="Helvetica,sans-Serif" font-size="10.00">TGeoMatrix.h</text>
</g>
<!-- Node23&#45;&gt;Node30 -->
<g id="edge30" class="edge"><title>Node23&#45;&gt;Node30</title>
<path fill="none" stroke="midnightblue" d="M857.018,-134.475C863.255,-125.638 873.173,-111.589 881.018,-100.475"/>
<polygon fill="midnightblue" stroke="midnightblue" points="884.086,-102.197 886.994,-92.0091 878.367,-98.1604 884.086,-102.197"/>
</g>
<!-- Node31 -->
<g id="node31" class="node"><title>Node31</title>
<polygon fill="none" stroke="#bfbfbf" points="949.5,-73 949.5,-92 994.5,-92 994.5,-73 949.5,-73"/>
<text text-anchor="middle" x="972" y="-80" font-family="Helvetica,sans-Serif" font-size="10.00">iosfwd</text>
</g>
<!-- Node23&#45;&gt;Node31 -->
<g id="edge31" class="edge"><title>Node23&#45;&gt;Node31</title>
<path fill="none" stroke="midnightblue" d="M868.336,-134.475C888.553,-124.534 922.187,-107.995 945.642,-96.461"/>
<polygon fill="midnightblue" stroke="midnightblue" points="947.267,-99.5627 954.696,-92.0091 944.178,-93.281 947.267,-99.5627"/>
</g>
<!-- Node32&#45;&gt;Node19 -->
<g id="edge35" class="edge"><title>Node32&#45;&gt;Node19</title>
<path fill="none" stroke="midnightblue" d="M752.68,-246.444C783.527,-237.241 832.728,-222.562 866.829,-212.388"/>
<polygon fill="midnightblue" stroke="midnightblue" points="867.872,-215.729 876.454,-209.516 865.871,-209.021 867.872,-215.729"/>
</g>
<!-- Node33 -->
<g id="node33" class="node"><title>Node33</title>
<g id="a_node33"><a xlink:href="../../d0/dda/DataFormats_2Detectors_2TPC_2include_2DataFormatsTPC_2Constants_8h.html" target="_top" xlink:title="DataFormatsTPC/Constants.h">
<polygon fill="none" stroke="black" points="674,-190.5 674,-209.5 824,-209.5 824,-190.5 674,-190.5"/>
<text text-anchor="middle" x="749" y="-197.5" font-family="Helvetica,sans-Serif" font-size="10.00">DataFormatsTPC/Constants.h</text>
</a>
</g>
</g>
<!-- Node32&#45;&gt;Node33 -->
<g id="edge34" class="edge"><title>Node32&#45;&gt;Node33</title>
<path fill="none" stroke="midnightblue" d="M728.128,-246.083C731.514,-238.77 736.416,-228.181 740.619,-219.103"/>
<polygon fill="midnightblue" stroke="midnightblue" points="743.923,-220.296 744.949,-209.751 737.571,-217.355 743.923,-220.296"/>
</g>
<!-- Node34&#45;&gt;Node19 -->
<g id="edge37" class="edge"><title>Node34&#45;&gt;Node19</title>
<path fill="none" stroke="midnightblue" d="M841.414,-302.368C852.751,-284.296 879.171,-242.176 894.144,-218.307"/>
<polygon fill="midnightblue" stroke="midnightblue" points="897.262,-219.923 899.611,-209.591 891.332,-216.203 897.262,-219.923"/>
</g>
<!-- Node34&#45;&gt;Node32 -->
<g id="edge38" class="edge"><title>Node34&#45;&gt;Node32</title>
<path fill="none" stroke="midnightblue" d="M818.005,-302.324C799.962,-293.625 771.953,-280.12 751.197,-270.113"/>
<polygon fill="midnightblue" stroke="midnightblue" points="752.478,-266.845 741.95,-265.655 749.438,-273.15 752.478,-266.845"/>
</g>
<!-- Node35&#45;&gt;Node6 -->
<g id="edge40" class="edge"><title>Node35&#45;&gt;Node6</title>
<path fill="none" stroke="midnightblue" d="M240.744,-358.083C233.535,-350.298 222.89,-338.801 214.154,-329.367"/>
<polygon fill="midnightblue" stroke="midnightblue" points="216.465,-326.711 207.103,-321.751 211.329,-331.467 216.465,-326.711"/>
</g>
<!-- Node37&#45;&gt;Node19 -->
<g id="edge43" class="edge"><title>Node37&#45;&gt;Node19</title>
<path fill="none" stroke="midnightblue" d="M862.586,-358.201C871.776,-349.896 884.586,-336.572 891,-322 905.856,-288.248 906.969,-244.333 906.168,-219.763"/>
<polygon fill="midnightblue" stroke="midnightblue" points="909.659,-219.485 905.691,-209.661 902.667,-219.815 909.659,-219.485"/>
</g>
<!-- Node37&#45;&gt;Node34 -->
<g id="edge44" class="edge"><title>Node37&#45;&gt;Node34</title>
<path fill="none" stroke="midnightblue" d="M849.358,-358.083C847.214,-350.849 844.121,-340.409 841.451,-331.397"/>
<polygon fill="midnightblue" stroke="midnightblue" points="844.79,-330.345 838.593,-321.751 838.078,-332.333 844.79,-330.345"/>
</g>
<!-- Node37&#45;&gt;Node36 -->
<g id="edge45" class="edge"><title>Node37&#45;&gt;Node36</title>
<path fill="none" stroke="midnightblue" d="M874.183,-358.444C897.428,-349.478 934.149,-335.314 960.415,-325.183"/>
<polygon fill="midnightblue" stroke="midnightblue" points="961.85,-328.381 969.92,-321.516 959.331,-321.85 961.85,-328.381"/>
</g>
</g>
</svg>
        <g id="navigator" transform="translate(0 0)" fill="#404254">
                <rect fill="#f2f5e9" fill-opacity="0.5" stroke="#606060" stroke-width=".5" x="0" y="0" width="60" height="60"/>
                <use id="zoomplus" xlink:href="#zoomPlus" x="17" y="9" onmousedown="handleZoom(evt,'in')"/>
                <use id="zoomminus" xlink:href="#zoomMin" x="42" y="9" onmousedown="handleZoom(evt,'out')"/>
                <use id="reset" xlink:href="#resetDef" x="30" y="36" onmousedown="handleReset()"/>
                <g id="arrowUp" xlink:href="#dirArrow" transform="translate(30 24)" onmousedown="handlePan(0,-1)">
                  <use xlink:href="#rim" fill="#404040">
                        <set attributeName="fill" to="#808080" begin="arrowUp.mouseover" end="arrowUp.mouseout"/>
                  </use>
                  <path fill="none" stroke="white" stroke-width="1.5" d="M0,-3.0v7 M-2.5,-0.5L0,-3.0L2.5,-0.5"/>
                </g>
                <g id="arrowRight" xlink:href="#dirArrow" transform="rotate(90) translate(36 -43)" onmousedown="handlePan(1,0)">
                  <use xlink:href="#rim" fill="#404040">
                        <set attributeName="fill" to="#808080" begin="arrowRight.mouseover" end="arrowRight.mouseout"/>
                  </use>
                  <path fill="none" stroke="white" stroke-width="1.5" d="M0,-3.0v7 M-2.5,-0.5L0,-3.0L2.5,-0.5"/>
                </g>
                <g id="arrowDown" xlink:href="#dirArrow" transform="rotate(180) translate(-30 -48)" onmousedown="handlePan(0,1)">
                  <use xlink:href="#rim" fill="#404040">
                        <set attributeName="fill" to="#808080" begin="arrowDown.mouseover" end="arrowDown.mouseout"/>
                  </use>
                  <path fill="none" stroke="white" stroke-width="1.5" d="M0,-3.0v7 M-2.5,-0.5L0,-3.0L2.5,-0.5"/>
                </g>
                <g id="arrowLeft" xlink:href="#dirArrow" transform="rotate(270) translate(-36 17)" onmousedown="handlePan(-1,0)">
                  <use xlink:href="#rim" fill="#404040">
                        <set attributeName="fill" to="#808080" begin="arrowLeft.mouseover" end="arrowLeft.mouseout"/>
                  </use>
                  <path fill="none" stroke="white" stroke-width="1.5" d="M0,-3.0v7 M-2.5,-0.5L0,-3.0L2.5,-0.5"/>
                </g>
        </g>
        <svg viewBox="0 0 15 15" width="100%" height="30px" preserveAspectRatio="xMaxYMin meet">
         <g id="arrow_out" transform="scale(0.3 0.3)">
          <a xlink:href="rawReaderCRU_8cxx__incl_org.svg" target="_base">
           <rect id="button" ry="5" rx="5" y="6" x="6" height="38" width="38"
                fill="#f2f5e9" fill-opacity="0.5" stroke="#606060" stroke-width="1.0"/>
           <path id="arrow"
             d="M 11.500037,31.436501 C 11.940474,20.09759 22.043105,11.32322 32.158766,21.979434 L 37.068811,17.246167 C 37.068811,17.246167 37.088388,32 37.088388,32 L 22.160133,31.978069 C 22.160133,31.978069 26.997745,27.140456 26.997745,27.140456 C 18.528582,18.264221 13.291696,25.230495 11.500037,31.436501 z"
             style="fill:#404040;"/>
          </a>
         </g>
        </svg>
</svg>
