<?xml version="1.0" encoding="UTF-8" standalone="no"?>
<!DOCTYPE svg PUBLIC "-//W3C//DTD SVG 1.1//EN"
 "http://www.w3.org/Graphics/SVG/1.1/DTD/svg11.dtd">
<!-- Generated by graphviz version 2.38.0 (20140413.2041)
 -->
<!-- Title: o2::zdc::OrbitRecData Pages: 1 -->
<!--zoomable 639 -->
<svg id="main" version="1.1" xmlns="http://www.w3.org/2000/svg" xmlns:xlink="http://www.w3.org/1999/xlink" xml:space="preserve" onload="init(evt)">
<style type="text/css"><![CDATA[
.edge:hover path { stroke: red; }
.edge:hover polygon { stroke: red; fill: red; }
]]></style>
<script type="text/javascript"><![CDATA[
var edges = document.getElementsByTagName('g');
if (edges && edges.length) {
  for (var i=0;i<edges.length;i++) {
    if (edges[i].id.substr(0,4)=='edge') {
      edges[i].setAttribute('class','edge');
    }
  }
}
]]></script>
        <defs>
                <circle id="rim" cx="0" cy="0" r="7"/>
                <circle id="rim2" cx="0" cy="0" r="3.5"/>
                <g id="zoomPlus">
                        <use xlink:href="#rim" fill="#404040">
                                <set attributeName="fill" to="#808080" begin="zoomplus.mouseover" end="zoomplus.mouseout"/>
                        </use>
                        <path d="M-4,0h8M0,-4v8" fill="none" stroke="white" stroke-width="1.5" pointer-events="none"/>
                </g>
                <g id="zoomMin">
                        <use xlink:href="#rim" fill="#404040">
                                <set attributeName="fill" to="#808080" begin="zoomminus.mouseover" end="zoomminus.mouseout"/>
                        </use>
                        <path d="M-4,0h8" fill="none" stroke="white" stroke-width="1.5" pointer-events="none"/>
                </g>
                <g id="dirArrow">
                        <path fill="none" stroke="white" stroke-width="1.5" d="M0,-3.0v7 M-2.5,-0.5L0,-3.0L2.5,-0.5"/>
                </g>
               <g id="resetDef">
                       <use xlink:href="#rim2" fill="#404040">
                               <set attributeName="fill" to="#808080" begin="reset.mouseover" end="reset.mouseout"/>
                       </use>
               </g>
        </defs>

<script type="text/javascript">
var viewWidth = 516;
var viewHeight = 639;
var sectionId = 'dynsection-0';
</script>
<script xlink:href="../../svgpan.js"/>
<svg id="graph" class="graph">
<g id="viewport">
<title>o2::zdc::OrbitRecData</title>
<!-- Node1 -->
<g id="node1" class="node"><title>Node1</title>
<polygon fill="#bfbfbf" stroke="black" points="224.5,-0.5 224.5,-68.5 339.5,-68.5 339.5,-0.5 224.5,-0.5"/>
<text text-anchor="middle" x="282" y="-56.5" font-family="Helvetica,sans-Serif" font-size="10.00">o2::zdc::OrbitRecData</text>
<polyline fill="none" stroke="black" points="224.5,-49.5 339.5,-49.5 "/>
<text text-anchor="middle" x="282" y="-37.5" font-family="Helvetica,sans-Serif" font-size="10.00"> </text>
<polyline fill="none" stroke="black" points="224.5,-30.5 339.5,-30.5 "/>
<text text-anchor="start" x="232.5" y="-18.5" font-family="Helvetica,sans-Serif" font-size="10.00">+ print()</text>
<text text-anchor="start" x="232.5" y="-7.5" font-family="Helvetica,sans-Serif" font-size="10.00">+ ClassDefNV()</text>
</g>
<!-- Node2 -->
<g id="node2" class="node"><title>Node2</title>
<polygon fill="none" stroke="#bfbfbf" points="0,-287 0,-344 146,-344 146,-287 0,-287"/>
<text text-anchor="middle" x="73" y="-332" font-family="Helvetica,sans-Serif" font-size="10.00">array&lt; uint16_t, NChannels &gt;</text>
<polyline fill="none" stroke="#bfbfbf" points="0,-325 146,-325 "/>
<text text-anchor="middle" x="73" y="-313" font-family="Helvetica,sans-Serif" font-size="10.00"> </text>
<polyline fill="none" stroke="#bfbfbf" points="0,-306 146,-306 "/>
<text text-anchor="middle" x="73" y="-294" font-family="Helvetica,sans-Serif" font-size="10.00"> </text>
</g>
<!-- Node2&#45;&gt;Node1 -->
<g id="edge1" class="edge"><title>Node2&#45;&gt;Node1</title>
<path fill="none" stroke="#404040" d="M78.8114,-286.675C88.5701,-245.504 111.585,-167.67 155,-116 171.018,-96.9362 192.731,-80.9029 213.671,-68.2884"/>
<polygon fill="none" stroke="#404040" points="213.806,-68.2099 216.99,-61.7395 224.187,-62.1894 221.003,-68.6598 213.806,-68.2099"/>
<text text-anchor="middle" x="205.5" y="-90" font-family="Helvetica,sans-Serif" font-size="10.00"> +scalers</text>
</g>
<!-- Node3 -->
<g id="node3" class="node"><title>Node3</title>
<polygon fill="none" stroke="#bfbfbf" points="164.5,-281.5 164.5,-349.5 287.5,-349.5 287.5,-281.5 164.5,-281.5"/>
<text text-anchor="start" x="172.5" y="-337.5" font-family="Helvetica,sans-Serif" font-size="10.00">array&lt; uint16_t, NScaler</text>
<text text-anchor="middle" x="226" y="-326.5" font-family="Helvetica,sans-Serif" font-size="10.00">Combination &gt;</text>
<polyline fill="none" stroke="#bfbfbf" points="164.5,-319.5 287.5,-319.5 "/>
<text text-anchor="middle" x="226" y="-307.5" font-family="Helvetica,sans-Serif" font-size="10.00"> </text>
<polyline fill="none" stroke="#bfbfbf" points="164.5,-300.5 287.5,-300.5 "/>
<text text-anchor="middle" x="226" y="-288.5" font-family="Helvetica,sans-Serif" font-size="10.00"> </text>
</g>
<!-- Node3&#45;&gt;Node1 -->
<g id="edge2" class="edge"><title>Node3&#45;&gt;Node1</title>
<path fill="none" stroke="#404040" d="M224.606,-281.45C223.747,-236.236 225.944,-153.165 249,-87 249.88,-84.4743 250.907,-81.947 252.042,-79.443"/>
<polygon fill="none" stroke="#404040" points="252.09,-79.3493 251.293,-72.1824 257.602,-68.6898 258.399,-75.8567 252.09,-79.3493"/>
<text text-anchor="middle" x="282.5" y="-90" font-family="Helvetica,sans-Serif" font-size="10.00"> +scalersComb</text>
</g>
<!-- Node4 -->
<g id="node4" class="node"><title>Node4</title>
<g id="a_node4"><a xlink:href="../../d1/d21/structo2_1_1InteractionRecord.html" target="_top" xlink:title="{o2::InteractionRecord\n||+ InteractionRecord()\l+ InteractionRecord()\l+ InteractionRecord()\l+ InteractionRecord()\l+ clear()\l+ isDummy()\l+ setFromNS()\l+ bc2ns()\l+ operator==()\l+ operator!=()\l+ differenceInBC()\l+ toLong()\l+ operator\&gt;()\l+ operator\&gt;=()\l+ operator\&lt;()\l+ operator\&lt;=()\l+ operator&#45;&#45;()\l+ operator&#45;&#45;()\l+ operator++()\l+ operator++()\l+ operator+=()\l+ operator&#45;=()\l+ operator+=()\l+ operator&#45;=()\l+ operator+()\l+ operator&#45;()\l+ operator+()\l+ operator&#45;()\l+ print()\l+ ClassDefNV()\l+ bc2ns()\l+ ns2bc()\l}">
<polygon fill="none" stroke="black" points="306,-116.5 306,-514.5 416,-514.5 416,-116.5 306,-116.5"/>
<text text-anchor="middle" x="361" y="-502.5" font-family="Helvetica,sans-Serif" font-size="10.00">o2::InteractionRecord</text>
<polyline fill="none" stroke="black" points="306,-495.5 416,-495.5 "/>
<text text-anchor="middle" x="361" y="-483.5" font-family="Helvetica,sans-Serif" font-size="10.00"> </text>
<polyline fill="none" stroke="black" points="306,-476.5 416,-476.5 "/>
<text text-anchor="start" x="314" y="-464.5" font-family="Helvetica,sans-Serif" font-size="10.00">+ InteractionRecord()</text>
<text text-anchor="start" x="314" y="-453.5" font-family="Helvetica,sans-Serif" font-size="10.00">+ InteractionRecord()</text>
<text text-anchor="start" x="314" y="-442.5" font-family="Helvetica,sans-Serif" font-size="10.00">+ InteractionRecord()</text>
<text text-anchor="start" x="314" y="-431.5" font-family="Helvetica,sans-Serif" font-size="10.00">+ InteractionRecord()</text>
<text text-anchor="start" x="314" y="-420.5" font-family="Helvetica,sans-Serif" font-size="10.00">+ clear()</text>
<text text-anchor="start" x="314" y="-409.5" font-family="Helvetica,sans-Serif" font-size="10.00">+ isDummy()</text>
<text text-anchor="start" x="314" y="-398.5" font-family="Helvetica,sans-Serif" font-size="10.00">+ setFromNS()</text>
<text text-anchor="start" x="314" y="-387.5" font-family="Helvetica,sans-Serif" font-size="10.00">+ bc2ns()</text>
<text text-anchor="start" x="314" y="-376.5" font-family="Helvetica,sans-Serif" font-size="10.00">+ operator==()</text>
<text text-anchor="start" x="314" y="-365.5" font-family="Helvetica,sans-Serif" font-size="10.00">+ operator!=()</text>
<text text-anchor="start" x="314" y="-354.5" font-family="Helvetica,sans-Serif" font-size="10.00">+ differenceInBC()</text>
<text text-anchor="start" x="314" y="-343.5" font-family="Helvetica,sans-Serif" font-size="10.00">+ toLong()</text>
<text text-anchor="start" x="314" y="-332.5" font-family="Helvetica,sans-Serif" font-size="10.00">+ operator&gt;()</text>
<text text-anchor="start" x="314" y="-321.5" font-family="Helvetica,sans-Serif" font-size="10.00">+ operator&gt;=()</text>
<text text-anchor="start" x="314" y="-310.5" font-family="Helvetica,sans-Serif" font-size="10.00">+ operator&lt;()</text>
<text text-anchor="start" x="314" y="-299.5" font-family="Helvetica,sans-Serif" font-size="10.00">+ operator&lt;=()</text>
<text text-anchor="start" x="314" y="-288.5" font-family="Helvetica,sans-Serif" font-size="10.00">+ operator&#45;&#45;()</text>
<text text-anchor="start" x="314" y="-277.5" font-family="Helvetica,sans-Serif" font-size="10.00">+ operator&#45;&#45;()</text>
<text text-anchor="start" x="314" y="-266.5" font-family="Helvetica,sans-Serif" font-size="10.00">+ operator++()</text>
<text text-anchor="start" x="314" y="-255.5" font-family="Helvetica,sans-Serif" font-size="10.00">+ operator++()</text>
<text text-anchor="start" x="314" y="-244.5" font-family="Helvetica,sans-Serif" font-size="10.00">+ operator+=()</text>
<text text-anchor="start" x="314" y="-233.5" font-family="Helvetica,sans-Serif" font-size="10.00">+ operator&#45;=()</text>
<text text-anchor="start" x="314" y="-222.5" font-family="Helvetica,sans-Serif" font-size="10.00">+ operator+=()</text>
<text text-anchor="start" x="314" y="-211.5" font-family="Helvetica,sans-Serif" font-size="10.00">+ operator&#45;=()</text>
<text text-anchor="start" x="314" y="-200.5" font-family="Helvetica,sans-Serif" font-size="10.00">+ operator+()</text>
<text text-anchor="start" x="314" y="-189.5" font-family="Helvetica,sans-Serif" font-size="10.00">+ operator&#45;()</text>
<text text-anchor="start" x="314" y="-178.5" font-family="Helvetica,sans-Serif" font-size="10.00">+ operator+()</text>
<text text-anchor="start" x="314" y="-167.5" font-family="Helvetica,sans-Serif" font-size="10.00">+ operator&#45;()</text>
<text text-anchor="start" x="314" y="-156.5" font-family="Helvetica,sans-Serif" font-size="10.00">+ print()</text>
<text text-anchor="start" x="314" y="-145.5" font-family="Helvetica,sans-Serif" font-size="10.00">+ ClassDefNV()</text>
<text text-anchor="start" x="314" y="-134.5" font-family="Helvetica,sans-Serif" font-size="10.00">+ bc2ns()</text>
<text text-anchor="start" x="314" y="-123.5" font-family="Helvetica,sans-Serif" font-size="10.00">+ ns2bc()</text>
</a>
</g>
</g>
<!-- Node4&#45;&gt;Node1 -->
<g id="edge3" class="edge"><title>Node4&#45;&gt;Node1</title>
<path fill="none" stroke="#404040" d="M326.73,-116.423C323.465,-106.361 319.898,-96.4982 316,-87 314.919,-84.3657 313.696,-81.7232 312.372,-79.1027"/>
<polygon fill="none" stroke="#404040" points="312.319,-79.0073 305.901,-75.7197 306.467,-68.5309 312.885,-71.8185 312.319,-79.0073"/>
<text text-anchor="middle" x="326.5" y="-90" font-family="Helvetica,sans-Serif" font-size="10.00"> +ir</text>
</g>
<!-- Node5 -->
<g id="node5" class="node"><title>Node5</title>
<polygon fill="none" stroke="#bfbfbf" points="249.5,-573.5 249.5,-630.5 294.5,-630.5 294.5,-573.5 249.5,-573.5"/>
<text text-anchor="middle" x="272" y="-618.5" font-family="Helvetica,sans-Serif" font-size="10.00">double</text>
<polyline fill="none" stroke="#bfbfbf" points="249.5,-611.5 294.5,-611.5 "/>
<text text-anchor="middle" x="272" y="-599.5" font-family="Helvetica,sans-Serif" font-size="10.00"> </text>
<polyline fill="none" stroke="#bfbfbf" points="249.5,-592.5 294.5,-592.5 "/>
<text text-anchor="middle" x="272" y="-580.5" font-family="Helvetica,sans-Serif" font-size="10.00"> </text>
</g>
<!-- Node5&#45;&gt;Node4 -->
<g id="edge4" class="edge"><title>Node5&#45;&gt;Node4</title>
<path fill="none" stroke="#404040" d="M279.422,-573.466C282.835,-561.066 287.005,-546.263 291,-533 294.642,-520.91 298.466,-508.463 302.369,-495.938"/>
<polygon fill="none" stroke="#404040" points="302.39,-495.874 300.364,-488.953 305.974,-484.421 307.999,-491.342 302.39,-495.874"/>
<text text-anchor="middle" x="324" y="-541.5" font-family="Helvetica,sans-Serif" font-size="10.00"> +DummyTime</text>
</g>
<!-- Node6 -->
<g id="node6" class="node"><title>Node6</title>
<polygon fill="none" stroke="#bfbfbf" points="335.5,-573.5 335.5,-630.5 386.5,-630.5 386.5,-573.5 335.5,-573.5"/>
<text text-anchor="middle" x="361" y="-618.5" font-family="Helvetica,sans-Serif" font-size="10.00">uint16_t</text>
<polyline fill="none" stroke="#bfbfbf" points="335.5,-611.5 386.5,-611.5 "/>
<text text-anchor="middle" x="361" y="-599.5" font-family="Helvetica,sans-Serif" font-size="10.00"> </text>
<polyline fill="none" stroke="#bfbfbf" points="335.5,-592.5 386.5,-592.5 "/>
<text text-anchor="middle" x="361" y="-580.5" font-family="Helvetica,sans-Serif" font-size="10.00"> </text>
</g>
<!-- Node6&#45;&gt;Node4 -->
<g id="edge5" class="edge"><title>Node6&#45;&gt;Node4</title>
<path fill="none" stroke="#404040" d="M361,-573.462C361,-560.879 361,-544.75 361,-526.716"/>
<polygon fill="none" stroke="#404040" points="361,-526.607 357,-520.607 361,-514.607 365,-520.607 361,-526.607"/>
<text text-anchor="middle" x="390" y="-547" font-family="Helvetica,sans-Serif" font-size="10.00"> +DummyBC</text>
<text text-anchor="middle" x="390" y="-536" font-family="Helvetica,sans-Serif" font-size="10.00">+bc</text>
</g>
<!-- Node7 -->
<g id="node7" class="node"><title>Node7</title>
<polygon fill="none" stroke="#bfbfbf" points="416.5,-573.5 416.5,-630.5 467.5,-630.5 467.5,-573.5 416.5,-573.5"/>
<text text-anchor="middle" x="442" y="-618.5" font-family="Helvetica,sans-Serif" font-size="10.00">uint32_t</text>
<polyline fill="none" stroke="#bfbfbf" points="416.5,-611.5 467.5,-611.5 "/>
<text text-anchor="middle" x="442" y="-599.5" font-family="Helvetica,sans-Serif" font-size="10.00"> </text>
<polyline fill="none" stroke="#bfbfbf" points="416.5,-592.5 467.5,-592.5 "/>
<text text-anchor="middle" x="442" y="-580.5" font-family="Helvetica,sans-Serif" font-size="10.00"> </text>
</g>
<!-- Node7&#45;&gt;Node4 -->
<g id="edge6" class="edge"><title>Node7&#45;&gt;Node4</title>
<path fill="none" stroke="#404040" d="M434.16,-573.462C430.242,-559.701 425.116,-541.699 419.395,-521.602"/>
<polygon fill="none" stroke="#404040" points="419.346,-521.432 413.856,-516.757 416.06,-509.891 421.55,-514.566 419.346,-521.432"/>
<text text-anchor="middle" x="460" y="-547" font-family="Helvetica,sans-Serif" font-size="10.00"> +orbit</text>
<text text-anchor="middle" x="460" y="-536" font-family="Helvetica,sans-Serif" font-size="10.00">+DummyOrbit</text>
</g>
<!-- Node8 -->
<g id="node8" class="node"><title>Node8</title>
<polygon fill="none" stroke="#bfbfbf" points="434.5,-287 434.5,-344 475.5,-344 475.5,-287 434.5,-287"/>
<text text-anchor="middle" x="455" y="-332" font-family="Helvetica,sans-Serif" font-size="10.00">static</text>
<polyline fill="none" stroke="#bfbfbf" points="434.5,-325 475.5,-325 "/>
<text text-anchor="middle" x="455" y="-313" font-family="Helvetica,sans-Serif" font-size="10.00"> </text>
<polyline fill="none" stroke="#bfbfbf" points="434.5,-306 475.5,-306 "/>
<text text-anchor="middle" x="455" y="-294" font-family="Helvetica,sans-Serif" font-size="10.00"> </text>
</g>
<!-- Node8&#45;&gt;Node1 -->
<g id="edge7" class="edge"><title>Node8&#45;&gt;Node1</title>
<path fill="none" stroke="#404040" d="M458.01,-286.74C460.991,-245.652 460.83,-167.921 425,-116 407.152,-90.1356 378.136,-71.6149 350.89,-58.9111"/>
<polygon fill="none" stroke="#404040" points="350.737,-58.8433 343.631,-60.0733 339.763,-53.9876 346.868,-52.7576 350.737,-58.8433"/>
<text text-anchor="middle" x="458" y="-90" font-family="Helvetica,sans-Serif" font-size="10.00"> +NScalerCombination</text>
</g>
</g>
</svg>
        <g id="navigator" transform="translate(0 0)" fill="#404254">
                <rect fill="#f2f5e9" fill-opacity="0.5" stroke="#606060" stroke-width=".5" x="0" y="0" width="60" height="60"/>
                <use id="zoomplus" xlink:href="#zoomPlus" x="17" y="9" onmousedown="handleZoom(evt,'in')"/>
                <use id="zoomminus" xlink:href="#zoomMin" x="42" y="9" onmousedown="handleZoom(evt,'out')"/>
                <use id="reset" xlink:href="#resetDef" x="30" y="36" onmousedown="handleReset()"/>
                <g id="arrowUp" xlink:href="#dirArrow" transform="translate(30 24)" onmousedown="handlePan(0,-1)">
                  <use xlink:href="#rim" fill="#404040">
                        <set attributeName="fill" to="#808080" begin="arrowUp.mouseover" end="arrowUp.mouseout"/>
                  </use>
                  <path fill="none" stroke="white" stroke-width="1.5" d="M0,-3.0v7 M-2.5,-0.5L0,-3.0L2.5,-0.5"/>
                </g>
                <g id="arrowRight" xlink:href="#dirArrow" transform="rotate(90) translate(36 -43)" onmousedown="handlePan(1,0)">
                  <use xlink:href="#rim" fill="#404040">
                        <set attributeName="fill" to="#808080" begin="arrowRight.mouseover" end="arrowRight.mouseout"/>
                  </use>
                  <path fill="none" stroke="white" stroke-width="1.5" d="M0,-3.0v7 M-2.5,-0.5L0,-3.0L2.5,-0.5"/>
                </g>
                <g id="arrowDown" xlink:href="#dirArrow" transform="rotate(180) translate(-30 -48)" onmousedown="handlePan(0,1)">
                  <use xlink:href="#rim" fill="#404040">
                        <set attributeName="fill" to="#808080" begin="arrowDown.mouseover" end="arrowDown.mouseout"/>
                  </use>
                  <path fill="none" stroke="white" stroke-width="1.5" d="M0,-3.0v7 M-2.5,-0.5L0,-3.0L2.5,-0.5"/>
                </g>
                <g id="arrowLeft" xlink:href="#dirArrow" transform="rotate(270) translate(-36 17)" onmousedown="handlePan(-1,0)">
                  <use xlink:href="#rim" fill="#404040">
                        <set attributeName="fill" to="#808080" begin="arrowLeft.mouseover" end="arrowLeft.mouseout"/>
                  </use>
                  <path fill="none" stroke="white" stroke-width="1.5" d="M0,-3.0v7 M-2.5,-0.5L0,-3.0L2.5,-0.5"/>
                </g>
        </g>
        <svg viewBox="0 0 15 15" width="100%" height="30px" preserveAspectRatio="xMaxYMin meet">
         <g id="arrow_out" transform="scale(0.3 0.3)">
          <a xlink:href="structo2_1_1zdc_1_1OrbitRecData__coll__graph_org.svg" target="_base">
           <rect id="button" ry="5" rx="5" y="6" x="6" height="38" width="38"
                fill="#f2f5e9" fill-opacity="0.5" stroke="#606060" stroke-width="1.0"/>
           <path id="arrow"
             d="M 11.500037,31.436501 C 11.940474,20.09759 22.043105,11.32322 32.158766,21.979434 L 37.068811,17.246167 C 37.068811,17.246167 37.088388,32 37.088388,32 L 22.160133,31.978069 C 22.160133,31.978069 26.997745,27.140456 26.997745,27.140456 C 18.528582,18.264221 13.291696,25.230495 11.500037,31.436501 z"
             style="fill:#404040;"/>
          </a>
         </g>
        </svg>
</svg>
