<?xml version="1.0" encoding="UTF-8" standalone="no"?>
<!DOCTYPE svg PUBLIC "-//W3C//DTD SVG 1.1//EN"
 "http://www.w3.org/Graphics/SVG/1.1/DTD/svg11.dtd">
<!-- Generated by graphviz version 2.38.0 (20140413.2041)
 -->
<!-- Title: o2::framework::Metric2DViewIndex Pages: 1 -->
<svg width="227pt" height="204pt"
 viewBox="0.00 0.00 226.50 204.00" xmlns="http://www.w3.org/2000/svg" xmlns:xlink="http://www.w3.org/1999/xlink">
<g id="graph0" class="graph" transform="scale(1 1) rotate(0) translate(4 200)">
<title>o2::framework::Metric2DViewIndex</title>
<!-- Node1 -->
<g id="node1" class="node"><title>Node1</title>
<polygon fill="#bfbfbf" stroke="black" points="0,-0.5 0,-79.5 146,-79.5 146,-0.5 0,-0.5"/>
<text text-anchor="start" x="8" y="-67.5" font-family="Helvetica,sans-Serif" font-size="10.00">o2::framework::Metric2DView</text>
<text text-anchor="middle" x="73" y="-56.5" font-family="Helvetica,sans-Serif" font-size="10.00">Index</text>
<polyline fill="none" stroke="black" points="0,-49.5 146,-49.5 "/>
<text text-anchor="middle" x="73" y="-37.5" font-family="Helvetica,sans-Serif" font-size="10.00"> </text>
<polyline fill="none" stroke="black" points="0,-30.5 146,-30.5 "/>
<text text-anchor="start" x="8" y="-18.5" font-family="Helvetica,sans-Serif" font-size="10.00">+ isComplete()</text>
<text text-anchor="start" x="8" y="-7.5" font-family="Helvetica,sans-Serif" font-size="10.00">+ getUpdater()</text>
</g>
<!-- Node2 -->
<g id="node2" class="node"><title>Node2</title>
<polygon fill="none" stroke="#bfbfbf" points="5.5,-138.5 5.5,-195.5 34.5,-195.5 34.5,-138.5 5.5,-138.5"/>
<text text-anchor="middle" x="20" y="-183.5" font-family="Helvetica,sans-Serif" font-size="10.00">int</text>
<polyline fill="none" stroke="#bfbfbf" points="5.5,-176.5 34.5,-176.5 "/>
<text text-anchor="middle" x="20" y="-164.5" font-family="Helvetica,sans-Serif" font-size="10.00"> </text>
<polyline fill="none" stroke="#bfbfbf" points="5.5,-157.5 34.5,-157.5 "/>
<text text-anchor="middle" x="20" y="-145.5" font-family="Helvetica,sans-Serif" font-size="10.00"> </text>
</g>
<!-- Node2&#45;&gt;Node1 -->
<g id="edge1" class="edge"><title>Node2&#45;&gt;Node1</title>
<path fill="none" stroke="#404040" d="M31.7624,-138.258C37.6521,-124.368 44.9658,-107.118 51.7913,-91.0205"/>
<polygon fill="none" stroke="#404040" points="51.9633,-90.6147 50.6229,-83.5292 56.6477,-79.5667 57.9882,-86.6522 51.9633,-90.6147"/>
<text text-anchor="middle" x="57.5" y="-112" font-family="Helvetica,sans-Serif" font-size="10.00"> +w</text>
<text text-anchor="middle" x="57.5" y="-101" font-family="Helvetica,sans-Serif" font-size="10.00">+h</text>
</g>
<!-- Node3 -->
<g id="node3" class="node"><title>Node3</title>
<polygon fill="none" stroke="#bfbfbf" points="52.5,-138.5 52.5,-195.5 93.5,-195.5 93.5,-138.5 52.5,-138.5"/>
<text text-anchor="middle" x="73" y="-183.5" font-family="Helvetica,sans-Serif" font-size="10.00">string</text>
<polyline fill="none" stroke="#bfbfbf" points="52.5,-176.5 93.5,-176.5 "/>
<text text-anchor="middle" x="73" y="-164.5" font-family="Helvetica,sans-Serif" font-size="10.00"> </text>
<polyline fill="none" stroke="#bfbfbf" points="52.5,-157.5 93.5,-157.5 "/>
<text text-anchor="middle" x="73" y="-145.5" font-family="Helvetica,sans-Serif" font-size="10.00"> </text>
</g>
<!-- Node3&#45;&gt;Node1 -->
<g id="edge2" class="edge"><title>Node3&#45;&gt;Node1</title>
<path fill="none" stroke="#404040" d="M73,-138.258C73,-124.637 73,-107.787 73,-91.9595"/>
<polygon fill="none" stroke="#404040" points="73.0001,-91.5667 69,-85.5668 73,-79.5667 77,-85.5667 73.0001,-91.5667"/>
<text text-anchor="middle" x="90" y="-106.5" font-family="Helvetica,sans-Serif" font-size="10.00"> +prefix</text>
</g>
<!-- Node4 -->
<g id="node4" class="node"><title>Node4</title>
<polygon fill="none" stroke="#bfbfbf" points="111.5,-138.5 111.5,-195.5 218.5,-195.5 218.5,-138.5 111.5,-138.5"/>
<text text-anchor="middle" x="165" y="-183.5" font-family="Helvetica,sans-Serif" font-size="10.00">vector&lt; std::size_t &gt;</text>
<polyline fill="none" stroke="#bfbfbf" points="111.5,-176.5 218.5,-176.5 "/>
<text text-anchor="middle" x="165" y="-164.5" font-family="Helvetica,sans-Serif" font-size="10.00"> </text>
<polyline fill="none" stroke="#bfbfbf" points="111.5,-157.5 218.5,-157.5 "/>
<text text-anchor="middle" x="165" y="-145.5" font-family="Helvetica,sans-Serif" font-size="10.00"> </text>
</g>
<!-- Node4&#45;&gt;Node1 -->
<g id="edge3" class="edge"><title>Node4&#45;&gt;Node1</title>
<path fill="none" stroke="#404040" d="M144.582,-138.258C134.061,-123.963 120.922,-106.111 108.782,-89.6169"/>
<polygon fill="none" stroke="#404040" points="108.498,-89.2313 101.72,-86.7701 101.385,-79.5667 108.163,-82.028 108.498,-89.2313"/>
<text text-anchor="middle" x="150.5" y="-106.5" font-family="Helvetica,sans-Serif" font-size="10.00"> +indexes</text>
</g>
</g>
</svg>
