<?xml version="1.0" encoding="UTF-8" standalone="no"?>
<!DOCTYPE svg PUBLIC "-//W3C//DTD SVG 1.1//EN"
 "http://www.w3.org/Graphics/SVG/1.1/DTD/svg11.dtd">
<!-- Generated by graphviz version 2.38.0 (20140413.2041)
 -->
<!-- Title: o2::framework::ConcreteDataTypeMatcher Pages: 1 -->
<!--zoomable 821 -->
<svg id="main" version="1.1" xmlns="http://www.w3.org/2000/svg" xmlns:xlink="http://www.w3.org/1999/xlink" xml:space="preserve" onload="init(evt)">
<style type="text/css"><![CDATA[
.edge:hover path { stroke: red; }
.edge:hover polygon { stroke: red; fill: red; }
]]></style>
<script type="text/javascript"><![CDATA[
var edges = document.getElementsByTagName('g');
if (edges && edges.length) {
  for (var i=0;i<edges.length;i++) {
    if (edges[i].id.substr(0,4)=='edge') {
      edges[i].setAttribute('class','edge');
    }
  }
}
]]></script>
        <defs>
                <circle id="rim" cx="0" cy="0" r="7"/>
                <circle id="rim2" cx="0" cy="0" r="3.5"/>
                <g id="zoomPlus">
                        <use xlink:href="#rim" fill="#404040">
                                <set attributeName="fill" to="#808080" begin="zoomplus.mouseover" end="zoomplus.mouseout"/>
                        </use>
                        <path d="M-4,0h8M0,-4v8" fill="none" stroke="white" stroke-width="1.5" pointer-events="none"/>
                </g>
                <g id="zoomMin">
                        <use xlink:href="#rim" fill="#404040">
                                <set attributeName="fill" to="#808080" begin="zoomminus.mouseover" end="zoomminus.mouseout"/>
                        </use>
                        <path d="M-4,0h8" fill="none" stroke="white" stroke-width="1.5" pointer-events="none"/>
                </g>
                <g id="dirArrow">
                        <path fill="none" stroke="white" stroke-width="1.5" d="M0,-3.0v7 M-2.5,-0.5L0,-3.0L2.5,-0.5"/>
                </g>
               <g id="resetDef">
                       <use xlink:href="#rim2" fill="#404040">
                               <set attributeName="fill" to="#808080" begin="reset.mouseover" end="reset.mouseout"/>
                       </use>
               </g>
        </defs>

<script type="text/javascript">
var viewWidth = 618;
var viewHeight = 821;
var sectionId = 'dynsection-0';
</script>
<script xlink:href="../../svgpan.js"/>
<svg id="graph" class="graph">
<g id="viewport">
<title>o2::framework::ConcreteDataTypeMatcher</title>
<!-- Node1 -->
<g id="node1" class="node"><title>Node1</title>
<polygon fill="#bfbfbf" stroke="black" points="235.87,-0.5 235.87,-134.5 384.87,-134.5 384.87,-0.5 235.87,-0.5"/>
<text text-anchor="start" x="243.87" y="-122.5" font-family="Helvetica,sans-Serif" font-size="10.00">o2::framework::ConcreteData</text>
<text text-anchor="middle" x="310.37" y="-111.5" font-family="Helvetica,sans-Serif" font-size="10.00">TypeMatcher</text>
<polyline fill="none" stroke="black" points="235.87,-104.5 384.87,-104.5 "/>
<text text-anchor="middle" x="310.37" y="-92.5" font-family="Helvetica,sans-Serif" font-size="10.00"> </text>
<polyline fill="none" stroke="black" points="235.87,-85.5 384.87,-85.5 "/>
<text text-anchor="start" x="243.87" y="-73.5" font-family="Helvetica,sans-Serif" font-size="10.00">+ ConcreteDataTypeMatcher()</text>
<text text-anchor="start" x="243.87" y="-62.5" font-family="Helvetica,sans-Serif" font-size="10.00">+ ConcreteDataTypeMatcher()</text>
<text text-anchor="start" x="243.87" y="-51.5" font-family="Helvetica,sans-Serif" font-size="10.00">+ ConcreteDataTypeMatcher()</text>
<text text-anchor="start" x="243.87" y="-40.5" font-family="Helvetica,sans-Serif" font-size="10.00">+ operator=()</text>
<text text-anchor="start" x="243.87" y="-29.5" font-family="Helvetica,sans-Serif" font-size="10.00">+ operator=()</text>
<text text-anchor="start" x="243.87" y="-18.5" font-family="Helvetica,sans-Serif" font-size="10.00">+ operator==()</text>
<text text-anchor="start" x="243.87" y="-7.5" font-family="Helvetica,sans-Serif" font-size="10.00">+ operator!=()</text>
</g>
<!-- Node2 -->
<g id="node2" class="node"><title>Node2</title>
<g id="a_node2"><a xlink:href="../../d9/db3/structo2_1_1header_1_1Descriptor.html" target="_top" xlink:title="{o2::header::Descriptor\l\&lt; gSizeDataOriginString,\l printDataOrigin \&gt;\n||+ Descriptor()\l+ Descriptor()\l+ Descriptor()\l+ Descriptor()\l+ operator=()\l+ operator ItgType()\l+ runtimeInit()\l+ operator==()\l+ operator==()\l+ operator\&lt;()\l+ operator!=()\l+ operator!=()\l+ as()\l+ print()\l}">
<polygon fill="none" stroke="black" points="351.87,-182.5 351.87,-404.5 476.87,-404.5 476.87,-182.5 351.87,-182.5"/>
<text text-anchor="start" x="359.87" y="-392.5" font-family="Helvetica,sans-Serif" font-size="10.00">o2::header::Descriptor</text>
<text text-anchor="start" x="359.87" y="-381.5" font-family="Helvetica,sans-Serif" font-size="10.00">&lt; gSizeDataOriginString,</text>
<text text-anchor="middle" x="414.37" y="-370.5" font-family="Helvetica,sans-Serif" font-size="10.00"> printDataOrigin &gt;</text>
<polyline fill="none" stroke="black" points="351.87,-363.5 476.87,-363.5 "/>
<text text-anchor="middle" x="414.37" y="-351.5" font-family="Helvetica,sans-Serif" font-size="10.00"> </text>
<polyline fill="none" stroke="black" points="351.87,-344.5 476.87,-344.5 "/>
<text text-anchor="start" x="359.87" y="-332.5" font-family="Helvetica,sans-Serif" font-size="10.00">+ Descriptor()</text>
<text text-anchor="start" x="359.87" y="-321.5" font-family="Helvetica,sans-Serif" font-size="10.00">+ Descriptor()</text>
<text text-anchor="start" x="359.87" y="-310.5" font-family="Helvetica,sans-Serif" font-size="10.00">+ Descriptor()</text>
<text text-anchor="start" x="359.87" y="-299.5" font-family="Helvetica,sans-Serif" font-size="10.00">+ Descriptor()</text>
<text text-anchor="start" x="359.87" y="-288.5" font-family="Helvetica,sans-Serif" font-size="10.00">+ operator=()</text>
<text text-anchor="start" x="359.87" y="-277.5" font-family="Helvetica,sans-Serif" font-size="10.00">+ operator ItgType()</text>
<text text-anchor="start" x="359.87" y="-266.5" font-family="Helvetica,sans-Serif" font-size="10.00">+ runtimeInit()</text>
<text text-anchor="start" x="359.87" y="-255.5" font-family="Helvetica,sans-Serif" font-size="10.00">+ operator==()</text>
<text text-anchor="start" x="359.87" y="-244.5" font-family="Helvetica,sans-Serif" font-size="10.00">+ operator==()</text>
<text text-anchor="start" x="359.87" y="-233.5" font-family="Helvetica,sans-Serif" font-size="10.00">+ operator&lt;()</text>
<text text-anchor="start" x="359.87" y="-222.5" font-family="Helvetica,sans-Serif" font-size="10.00">+ operator!=()</text>
<text text-anchor="start" x="359.87" y="-211.5" font-family="Helvetica,sans-Serif" font-size="10.00">+ operator!=()</text>
<text text-anchor="start" x="359.87" y="-200.5" font-family="Helvetica,sans-Serif" font-size="10.00">+ as()</text>
<text text-anchor="start" x="359.87" y="-189.5" font-family="Helvetica,sans-Serif" font-size="10.00">+ print()</text>
</a>
</g>
</g>
<!-- Node2&#45;&gt;Node1 -->
<g id="edge1" class="edge"><title>Node2&#45;&gt;Node1</title>
<path fill="none" stroke="#404040" d="M363.284,-182.469C357.523,-170.06 351.747,-157.618 346.238,-145.754"/>
<polygon fill="none" stroke="#404040" points="346.102,-145.46 339.947,-141.703 341.048,-134.576 347.203,-138.334 346.102,-145.46"/>
<text text-anchor="middle" x="369.87" y="-156" font-family="Helvetica,sans-Serif" font-size="10.00"> +origin</text>
</g>
<!-- Node3 -->
<g id="node3" class="node"><title>Node3</title>
<polygon fill="none" stroke="#bfbfbf" points="230.37,-755.5 230.37,-812.5 268.37,-812.5 268.37,-755.5 230.37,-755.5"/>
<text text-anchor="middle" x="249.37" y="-800.5" font-family="Helvetica,sans-Serif" font-size="10.00">Type</text>
<polyline fill="none" stroke="#bfbfbf" points="230.37,-793.5 268.37,-793.5 "/>
<text text-anchor="middle" x="249.37" y="-781.5" font-family="Helvetica,sans-Serif" font-size="10.00"> </text>
<polyline fill="none" stroke="#bfbfbf" points="230.37,-774.5 268.37,-774.5 "/>
<text text-anchor="middle" x="249.37" y="-762.5" font-family="Helvetica,sans-Serif" font-size="10.00"> </text>
</g>
<!-- Node3&#45;&gt;Node2 -->
<g id="edge2" class="edge"><title>Node3&#45;&gt;Node2</title>
<path fill="none" stroke="#404040" d="M241.878,-755.13C227.587,-695.082 203.91,-552.585 276.37,-474 308.763,-438.869 348.121,-489.323 382.37,-456 393.716,-444.961 401.651,-431.139 407.119,-416.256"/>
<polygon fill="none" stroke="#404040" points="407.162,-416.121 405.191,-409.184 410.835,-404.696 412.807,-411.633 407.162,-416.121"/>
<text text-anchor="middle" x="286.37" y="-577.5" font-family="Helvetica,sans-Serif" font-size="10.00"> +itg</text>
</g>
<!-- Node7 -->
<g id="node7" class="node"><title>Node7</title>
<g id="a_node7"><a xlink:href="../../d9/db3/structo2_1_1header_1_1Descriptor.html" target="_top" xlink:title="{o2::header::Descriptor\l\&lt; N, PrinterPolicy \&gt;\n||+ Descriptor()\l+ Descriptor()\l+ Descriptor()\l+ operator=()\l+ operator ItgType()\l+ Descriptor()\l+ runtimeInit()\l+ operator==()\l+ operator\&lt;()\l+ operator!=()\l+ operator==()\l+ operator!=()\l+ as()\l+ print()\l}">
<polygon fill="none" stroke="black" points="359.87,-474.5 359.87,-685.5 472.87,-685.5 472.87,-474.5 359.87,-474.5"/>
<text text-anchor="start" x="367.87" y="-673.5" font-family="Helvetica,sans-Serif" font-size="10.00">o2::header::Descriptor</text>
<text text-anchor="middle" x="416.37" y="-662.5" font-family="Helvetica,sans-Serif" font-size="10.00">&lt; N, PrinterPolicy &gt;</text>
<polyline fill="none" stroke="black" points="359.87,-655.5 472.87,-655.5 "/>
<text text-anchor="middle" x="416.37" y="-643.5" font-family="Helvetica,sans-Serif" font-size="10.00"> </text>
<polyline fill="none" stroke="black" points="359.87,-636.5 472.87,-636.5 "/>
<text text-anchor="start" x="367.87" y="-624.5" font-family="Helvetica,sans-Serif" font-size="10.00">+ Descriptor()</text>
<text text-anchor="start" x="367.87" y="-613.5" font-family="Helvetica,sans-Serif" font-size="10.00">+ Descriptor()</text>
<text text-anchor="start" x="367.87" y="-602.5" font-family="Helvetica,sans-Serif" font-size="10.00">+ Descriptor()</text>
<text text-anchor="start" x="367.87" y="-591.5" font-family="Helvetica,sans-Serif" font-size="10.00">+ operator=()</text>
<text text-anchor="start" x="367.87" y="-580.5" font-family="Helvetica,sans-Serif" font-size="10.00">+ operator ItgType()</text>
<text text-anchor="start" x="367.87" y="-569.5" font-family="Helvetica,sans-Serif" font-size="10.00">+ Descriptor()</text>
<text text-anchor="start" x="367.87" y="-558.5" font-family="Helvetica,sans-Serif" font-size="10.00">+ runtimeInit()</text>
<text text-anchor="start" x="367.87" y="-547.5" font-family="Helvetica,sans-Serif" font-size="10.00">+ operator==()</text>
<text text-anchor="start" x="367.87" y="-536.5" font-family="Helvetica,sans-Serif" font-size="10.00">+ operator&lt;()</text>
<text text-anchor="start" x="367.87" y="-525.5" font-family="Helvetica,sans-Serif" font-size="10.00">+ operator!=()</text>
<text text-anchor="start" x="367.87" y="-514.5" font-family="Helvetica,sans-Serif" font-size="10.00">+ operator==()</text>
<text text-anchor="start" x="367.87" y="-503.5" font-family="Helvetica,sans-Serif" font-size="10.00">+ operator!=()</text>
<text text-anchor="start" x="367.87" y="-492.5" font-family="Helvetica,sans-Serif" font-size="10.00">+ as()</text>
<text text-anchor="start" x="367.87" y="-481.5" font-family="Helvetica,sans-Serif" font-size="10.00">+ print()</text>
</a>
</g>
</g>
<!-- Node3&#45;&gt;Node7 -->
<g id="edge7" class="edge"><title>Node3&#45;&gt;Node7</title>
<path fill="none" stroke="#404040" d="M268.717,-763.524C292.016,-739.949 329.612,-701.485 342.37,-686 345.732,-681.92 349.105,-677.696 352.459,-673.388"/>
<polygon fill="none" stroke="#404040" points="352.466,-673.379 352.936,-666.184 359.759,-663.85 359.289,-671.046 352.466,-673.379"/>
<text text-anchor="middle" x="336.37" y="-718" font-family="Helvetica,sans-Serif" font-size="10.00"> +itg</text>
</g>
<!-- Node9 -->
<g id="node9" class="node"><title>Node9</title>
<g id="a_node9"><a xlink:href="../../d9/db3/structo2_1_1header_1_1Descriptor.html" target="_top" xlink:title="{o2::header::Descriptor\l\&lt; gSizeDataDescriptionString,\l printDataDescription \&gt;\n||+ Descriptor()\l+ Descriptor()\l+ Descriptor()\l+ Descriptor()\l+ operator=()\l+ operator ItgType()\l+ runtimeInit()\l+ operator==()\l+ operator==()\l+ operator\&lt;()\l+ operator!=()\l+ operator!=()\l+ as()\l+ print()\l}">
<polygon fill="none" stroke="black" points="35.8703,-182.5 35.8703,-404.5 184.87,-404.5 184.87,-182.5 35.8703,-182.5"/>
<text text-anchor="start" x="43.8703" y="-392.5" font-family="Helvetica,sans-Serif" font-size="10.00">o2::header::Descriptor</text>
<text text-anchor="start" x="43.8703" y="-381.5" font-family="Helvetica,sans-Serif" font-size="10.00">&lt; gSizeDataDescriptionString,</text>
<text text-anchor="middle" x="110.37" y="-370.5" font-family="Helvetica,sans-Serif" font-size="10.00"> printDataDescription &gt;</text>
<polyline fill="none" stroke="black" points="35.8703,-363.5 184.87,-363.5 "/>
<text text-anchor="middle" x="110.37" y="-351.5" font-family="Helvetica,sans-Serif" font-size="10.00"> </text>
<polyline fill="none" stroke="black" points="35.8703,-344.5 184.87,-344.5 "/>
<text text-anchor="start" x="43.8703" y="-332.5" font-family="Helvetica,sans-Serif" font-size="10.00">+ Descriptor()</text>
<text text-anchor="start" x="43.8703" y="-321.5" font-family="Helvetica,sans-Serif" font-size="10.00">+ Descriptor()</text>
<text text-anchor="start" x="43.8703" y="-310.5" font-family="Helvetica,sans-Serif" font-size="10.00">+ Descriptor()</text>
<text text-anchor="start" x="43.8703" y="-299.5" font-family="Helvetica,sans-Serif" font-size="10.00">+ Descriptor()</text>
<text text-anchor="start" x="43.8703" y="-288.5" font-family="Helvetica,sans-Serif" font-size="10.00">+ operator=()</text>
<text text-anchor="start" x="43.8703" y="-277.5" font-family="Helvetica,sans-Serif" font-size="10.00">+ operator ItgType()</text>
<text text-anchor="start" x="43.8703" y="-266.5" font-family="Helvetica,sans-Serif" font-size="10.00">+ runtimeInit()</text>
<text text-anchor="start" x="43.8703" y="-255.5" font-family="Helvetica,sans-Serif" font-size="10.00">+ operator==()</text>
<text text-anchor="start" x="43.8703" y="-244.5" font-family="Helvetica,sans-Serif" font-size="10.00">+ operator==()</text>
<text text-anchor="start" x="43.8703" y="-233.5" font-family="Helvetica,sans-Serif" font-size="10.00">+ operator&lt;()</text>
<text text-anchor="start" x="43.8703" y="-222.5" font-family="Helvetica,sans-Serif" font-size="10.00">+ operator!=()</text>
<text text-anchor="start" x="43.8703" y="-211.5" font-family="Helvetica,sans-Serif" font-size="10.00">+ operator!=()</text>
<text text-anchor="start" x="43.8703" y="-200.5" font-family="Helvetica,sans-Serif" font-size="10.00">+ as()</text>
<text text-anchor="start" x="43.8703" y="-189.5" font-family="Helvetica,sans-Serif" font-size="10.00">+ print()</text>
</a>
</g>
</g>
<!-- Node3&#45;&gt;Node9 -->
<g id="edge12" class="edge"><title>Node3&#45;&gt;Node9</title>
<path fill="none" stroke="#404040" d="M230.152,-780.842C186.968,-774.845 82.5786,-753.677 38.3703,-686 -25.5621,-588.129 3.52116,-535.759 34.3703,-423 34.9987,-420.703 35.6799,-418.406 36.4092,-416.11"/>
<polygon fill="none" stroke="#404040" points="36.4524,-415.988 34.6712,-409 40.4363,-404.668 42.2175,-411.656 36.4524,-415.988"/>
<text text-anchor="middle" x="48.3703" y="-577.5" font-family="Helvetica,sans-Serif" font-size="10.00"> +itg</text>
</g>
<!-- Node4 -->
<g id="node4" class="node"><title>Node4</title>
<polygon fill="none" stroke="#bfbfbf" points="286.87,-755.5 286.87,-812.5 321.87,-812.5 321.87,-755.5 286.87,-755.5"/>
<text text-anchor="middle" x="304.37" y="-800.5" font-family="Helvetica,sans-Serif" font-size="10.00">char</text>
<polyline fill="none" stroke="#bfbfbf" points="286.87,-793.5 321.87,-793.5 "/>
<text text-anchor="middle" x="304.37" y="-781.5" font-family="Helvetica,sans-Serif" font-size="10.00"> </text>
<polyline fill="none" stroke="#bfbfbf" points="286.87,-774.5 321.87,-774.5 "/>
<text text-anchor="middle" x="304.37" y="-762.5" font-family="Helvetica,sans-Serif" font-size="10.00"> </text>
</g>
<!-- Node4&#45;&gt;Node2 -->
<g id="edge3" class="edge"><title>Node4&#45;&gt;Node2</title>
<path fill="none" stroke="#404040" d="M302.564,-755.039C298.786,-686.982 293.163,-515.264 329.37,-474 354.552,-445.301 389.275,-485.618 413.37,-456 422.632,-444.615 428.149,-431.134 431.064,-416.89"/>
<polygon fill="none" stroke="#404040" points="431.103,-416.636 428.061,-410.098 432.926,-404.775 435.968,-411.313 431.103,-416.636"/>
<text text-anchor="middle" x="339.87" y="-577.5" font-family="Helvetica,sans-Serif" font-size="10.00"> +str</text>
</g>
<!-- Node4&#45;&gt;Node7 -->
<g id="edge8" class="edge"><title>Node4&#45;&gt;Node7</title>
<path fill="none" stroke="#404040" d="M322.143,-771.114C333.529,-762.726 347.894,-750.593 357.37,-737 365.928,-724.723 373.436,-711.045 379.968,-697.032"/>
<polygon fill="none" stroke="#404040" points="380.114,-696.703 378.903,-689.595 384.999,-685.742 386.21,-692.851 380.114,-696.703"/>
<text text-anchor="middle" x="386.87" y="-718" font-family="Helvetica,sans-Serif" font-size="10.00"> +str</text>
</g>
<!-- Node4&#45;&gt;Node9 -->
<g id="edge13" class="edge"><title>Node4&#45;&gt;Node9</title>
<path fill="none" stroke="#404040" d="M286.582,-762.798C283.654,-760.003 280.537,-757.305 277.37,-755 220.969,-713.934 181.507,-739.2 136.37,-686 58.1899,-593.852 47.9435,-542.273 67.3703,-423 67.7236,-420.83 68.1085,-418.648 68.5221,-416.457"/>
<polygon fill="none" stroke="#404040" points="68.53,-416.419 65.846,-409.726 70.9919,-404.674 73.6758,-411.367 68.53,-416.419"/>
<text text-anchor="middle" x="146.87" y="-577.5" font-family="Helvetica,sans-Serif" font-size="10.00"> +str</text>
</g>
<!-- Node5 -->
<g id="node5" class="node"><title>Node5</title>
<polygon fill="none" stroke="#bfbfbf" points="166.87,-551.5 166.87,-608.5 195.87,-608.5 195.87,-551.5 166.87,-551.5"/>
<text text-anchor="middle" x="181.37" y="-596.5" font-family="Helvetica,sans-Serif" font-size="10.00">int</text>
<polyline fill="none" stroke="#bfbfbf" points="166.87,-589.5 195.87,-589.5 "/>
<text text-anchor="middle" x="181.37" y="-577.5" font-family="Helvetica,sans-Serif" font-size="10.00"> </text>
<polyline fill="none" stroke="#bfbfbf" points="166.87,-570.5 195.87,-570.5 "/>
<text text-anchor="middle" x="181.37" y="-558.5" font-family="Helvetica,sans-Serif" font-size="10.00"> </text>
</g>
<!-- Node5&#45;&gt;Node2 -->
<g id="edge4" class="edge"><title>Node5&#45;&gt;Node2</title>
<path fill="none" stroke="#404040" d="M188.543,-551.083C196.002,-527.411 209.941,-494.178 233.37,-474 253.179,-456.94 267.966,-471.01 289.37,-456 309.453,-441.917 327.809,-423.652 343.907,-404.494"/>
<polygon fill="none" stroke="#404040" points="344.04,-404.33 344.733,-397.152 351.625,-395.031 350.932,-402.209 344.04,-404.33"/>
<text text-anchor="middle" x="352.87" y="-448" font-family="Helvetica,sans-Serif" font-size="10.00"> +arraySize</text>
<text text-anchor="middle" x="352.87" y="-437" font-family="Helvetica,sans-Serif" font-size="10.00">+size</text>
<text text-anchor="middle" x="352.87" y="-426" font-family="Helvetica,sans-Serif" font-size="10.00">+bitcount</text>
</g>
<!-- Node5&#45;&gt;Node9 -->
<g id="edge14" class="edge"><title>Node5&#45;&gt;Node9</title>
<path fill="none" stroke="#404040" d="M166.853,-554.261C152.896,-531.748 130.292,-498.404 105.37,-474 95.3285,-464.167 85.8931,-468.449 79.3703,-456 72.9651,-443.775 70.0842,-430.409 69.625,-416.768"/>
<polygon fill="none" stroke="#404040" points="69.6255,-416.73 65.7219,-410.667 69.8172,-404.731 73.7209,-410.795 69.6255,-416.73"/>
<text text-anchor="middle" x="104.87" y="-448" font-family="Helvetica,sans-Serif" font-size="10.00"> +arraySize</text>
<text text-anchor="middle" x="104.87" y="-437" font-family="Helvetica,sans-Serif" font-size="10.00">+size</text>
<text text-anchor="middle" x="104.87" y="-426" font-family="Helvetica,sans-Serif" font-size="10.00">+bitcount</text>
</g>
<!-- Node6 -->
<g id="node6" class="node"><title>Node6</title>
<polygon fill="none" stroke="#bfbfbf" points="494.87,-755.5 494.87,-812.5 591.87,-812.5 591.87,-755.5 494.87,-755.5"/>
<text text-anchor="middle" x="543.37" y="-800.5" font-family="Helvetica,sans-Serif" font-size="10.00">anonymous:+@24</text>
<polyline fill="none" stroke="#bfbfbf" points="494.87,-793.5 591.87,-793.5 "/>
<text text-anchor="middle" x="543.37" y="-781.5" font-family="Helvetica,sans-Serif" font-size="10.00"> </text>
<polyline fill="none" stroke="#bfbfbf" points="494.87,-774.5 591.87,-774.5 "/>
<text text-anchor="middle" x="543.37" y="-762.5" font-family="Helvetica,sans-Serif" font-size="10.00"> </text>
</g>
<!-- Node6&#45;&gt;Node2 -->
<g id="edge5" class="edge"><title>Node6&#45;&gt;Node2</title>
<path fill="none" stroke="#404040" d="M553.3,-755.083C554.991,-749.185 556.486,-742.945 557.37,-737 559.529,-722.493 557.422,-718.667 557.37,-704 556.926,-579.109 606.232,-537.066 555.37,-423 540.835,-390.402 513.551,-362.478 486.828,-341.069"/>
<polygon fill="none" stroke="#404040" points="486.518,-340.829 479.325,-340.317 477.032,-333.48 484.225,-333.992 486.518,-340.829"/>
<text text-anchor="middle" x="594.87" y="-577.5" font-family="Helvetica,sans-Serif" font-size="10.00"> +@24</text>
</g>
<!-- Node6&#45;&gt;Node7 -->
<g id="edge9" class="edge"><title>Node6&#45;&gt;Node7</title>
<path fill="none" stroke="#404040" d="M513.912,-755.45C508.422,-749.627 502.972,-743.323 498.37,-737 489.187,-724.384 480.409,-710.603 472.238,-696.622"/>
<polygon fill="none" stroke="#404040" points="472.068,-696.325 465.618,-693.102 466.112,-685.908 472.562,-689.131 472.068,-696.325"/>
<text text-anchor="middle" x="513.87" y="-718" font-family="Helvetica,sans-Serif" font-size="10.00"> +@24</text>
</g>
<!-- Node6&#45;&gt;Node9 -->
<g id="edge15" class="edge"><title>Node6&#45;&gt;Node9</title>
<path fill="none" stroke="#404040" d="M539.489,-755.369C537.092,-740.107 533.654,-720.876 529.37,-704 527.296,-695.826 525.527,-694.152 523.37,-686 498.801,-593.142 543.273,-547.446 481.37,-474 466.955,-456.896 454.848,-465 434.37,-456 388.827,-435.984 275.716,-378.967 196.016,-338.364"/>
<polygon fill="none" stroke="#404040" points="195.693,-338.2 188.531,-339.038 185.003,-332.749 192.165,-331.911 195.693,-338.2"/>
<text text-anchor="middle" x="538.87" y="-577.5" font-family="Helvetica,sans-Serif" font-size="10.00"> +@24</text>
</g>
<!-- Node7&#45;&gt;Node2 -->
<g id="edge6" class="edge"><title>Node7&#45;&gt;Node2</title>
<path fill="none" stroke="orange" d="M437.554,-464.306C437.854,-461.513 438.127,-458.742 438.37,-456 439.848,-439.341 439.37,-421.783 437.759,-404.625"/>
<polygon fill="orange" stroke="orange" points="434.049,-464.15 436.361,-474.49 441.001,-464.965 434.049,-464.15"/>
<text text-anchor="start" x="439.37" y="-442.5" font-family="Helvetica,sans-Serif" font-size="10.00"> &lt; gSizeDataOriginString,</text>
<text text-anchor="middle" x="495.37" y="-431.5" font-family="Helvetica,sans-Serif" font-size="10.00"> printDataOrigin &gt;</text>
</g>
<!-- Node7&#45;&gt;Node9 -->
<g id="edge16" class="edge"><title>Node7&#45;&gt;Node9</title>
<path fill="none" stroke="orange" d="M351.884,-480.296C348.822,-478.011 345.651,-475.9 342.37,-474 305.095,-452.413 181.94,-484.189 149.37,-456 140.21,-448.072 132.862,-427.959 127.124,-404.51"/>
<polygon fill="orange" stroke="orange" points="349.781,-483.097 359.734,-486.727 354.217,-477.682 349.781,-483.097"/>
<text text-anchor="start" x="149.37" y="-442.5" font-family="Helvetica,sans-Serif" font-size="10.00"> &lt; gSizeDataDescriptionString,</text>
<text text-anchor="middle" x="217.37" y="-431.5" font-family="Helvetica,sans-Serif" font-size="10.00"> printDataDescription &gt;</text>
</g>
<!-- Node8 -->
<g id="node8" class="node"><title>Node8</title>
<polygon fill="none" stroke="#bfbfbf" points="402.87,-755.5 402.87,-812.5 443.87,-812.5 443.87,-755.5 402.87,-755.5"/>
<text text-anchor="middle" x="423.37" y="-800.5" font-family="Helvetica,sans-Serif" font-size="10.00">static</text>
<polyline fill="none" stroke="#bfbfbf" points="402.87,-793.5 443.87,-793.5 "/>
<text text-anchor="middle" x="423.37" y="-781.5" font-family="Helvetica,sans-Serif" font-size="10.00"> </text>
<polyline fill="none" stroke="#bfbfbf" points="402.87,-774.5 443.87,-774.5 "/>
<text text-anchor="middle" x="423.37" y="-762.5" font-family="Helvetica,sans-Serif" font-size="10.00"> </text>
</g>
<!-- Node8&#45;&gt;Node7 -->
<g id="edge10" class="edge"><title>Node8&#45;&gt;Node7</title>
<path fill="none" stroke="#404040" d="M422.412,-755.336C421.875,-739.838 421.164,-719.34 420.42,-697.861"/>
<polygon fill="none" stroke="#404040" points="420.419,-697.846 416.214,-691.988 420.004,-685.853 424.209,-691.711 420.419,-697.846"/>
<text text-anchor="middle" x="447.87" y="-729" font-family="Helvetica,sans-Serif" font-size="10.00"> +arraySize</text>
<text text-anchor="middle" x="447.87" y="-718" font-family="Helvetica,sans-Serif" font-size="10.00">+size</text>
<text text-anchor="middle" x="447.87" y="-707" font-family="Helvetica,sans-Serif" font-size="10.00">+bitcount</text>
</g>
<!-- Node9&#45;&gt;Node1 -->
<g id="edge11" class="edge"><title>Node9&#45;&gt;Node1</title>
<path fill="none" stroke="#404040" d="M185.127,-208.772C204.167,-187.447 224.513,-164.66 243.151,-143.785"/>
<polygon fill="none" stroke="#404040" points="243.311,-143.606 244.324,-136.466 251.304,-134.655 250.291,-141.794 243.311,-143.606"/>
<text text-anchor="middle" x="262.87" y="-156" font-family="Helvetica,sans-Serif" font-size="10.00"> +description</text>
</g>
</g>
</svg>
        <g id="navigator" transform="translate(0 0)" fill="#404254">
                <rect fill="#f2f5e9" fill-opacity="0.5" stroke="#606060" stroke-width=".5" x="0" y="0" width="60" height="60"/>
                <use id="zoomplus" xlink:href="#zoomPlus" x="17" y="9" onmousedown="handleZoom(evt,'in')"/>
                <use id="zoomminus" xlink:href="#zoomMin" x="42" y="9" onmousedown="handleZoom(evt,'out')"/>
                <use id="reset" xlink:href="#resetDef" x="30" y="36" onmousedown="handleReset()"/>
                <g id="arrowUp" xlink:href="#dirArrow" transform="translate(30 24)" onmousedown="handlePan(0,-1)">
                  <use xlink:href="#rim" fill="#404040">
                        <set attributeName="fill" to="#808080" begin="arrowUp.mouseover" end="arrowUp.mouseout"/>
                  </use>
                  <path fill="none" stroke="white" stroke-width="1.5" d="M0,-3.0v7 M-2.5,-0.5L0,-3.0L2.5,-0.5"/>
                </g>
                <g id="arrowRight" xlink:href="#dirArrow" transform="rotate(90) translate(36 -43)" onmousedown="handlePan(1,0)">
                  <use xlink:href="#rim" fill="#404040">
                        <set attributeName="fill" to="#808080" begin="arrowRight.mouseover" end="arrowRight.mouseout"/>
                  </use>
                  <path fill="none" stroke="white" stroke-width="1.5" d="M0,-3.0v7 M-2.5,-0.5L0,-3.0L2.5,-0.5"/>
                </g>
                <g id="arrowDown" xlink:href="#dirArrow" transform="rotate(180) translate(-30 -48)" onmousedown="handlePan(0,1)">
                  <use xlink:href="#rim" fill="#404040">
                        <set attributeName="fill" to="#808080" begin="arrowDown.mouseover" end="arrowDown.mouseout"/>
                  </use>
                  <path fill="none" stroke="white" stroke-width="1.5" d="M0,-3.0v7 M-2.5,-0.5L0,-3.0L2.5,-0.5"/>
                </g>
                <g id="arrowLeft" xlink:href="#dirArrow" transform="rotate(270) translate(-36 17)" onmousedown="handlePan(-1,0)">
                  <use xlink:href="#rim" fill="#404040">
                        <set attributeName="fill" to="#808080" begin="arrowLeft.mouseover" end="arrowLeft.mouseout"/>
                  </use>
                  <path fill="none" stroke="white" stroke-width="1.5" d="M0,-3.0v7 M-2.5,-0.5L0,-3.0L2.5,-0.5"/>
                </g>
        </g>
        <svg viewBox="0 0 15 15" width="100%" height="30px" preserveAspectRatio="xMaxYMin meet">
         <g id="arrow_out" transform="scale(0.3 0.3)">
          <a xlink:href="structo2_1_1framework_1_1ConcreteDataTypeMatcher__coll__graph_org.svg" target="_base">
           <rect id="button" ry="5" rx="5" y="6" x="6" height="38" width="38"
                fill="#f2f5e9" fill-opacity="0.5" stroke="#606060" stroke-width="1.0"/>
           <path id="arrow"
             d="M 11.500037,31.436501 C 11.940474,20.09759 22.043105,11.32322 32.158766,21.979434 L 37.068811,17.246167 C 37.068811,17.246167 37.088388,32 37.088388,32 L 22.160133,31.978069 C 22.160133,31.978069 26.997745,27.140456 26.997745,27.140456 C 18.528582,18.264221 13.291696,25.230495 11.500037,31.436501 z"
             style="fill:#404040;"/>
          </a>
         </g>
        </svg>
</svg>
