<?xml version="1.0" encoding="UTF-8" standalone="no"?>
<!DOCTYPE svg PUBLIC "-//W3C//DTD SVG 1.1//EN"
 "http://www.w3.org/Graphics/SVG/1.1/DTD/svg11.dtd">
<!-- Generated by graphviz version 2.38.0 (20140413.2041)
 -->
<!-- Title: o2::itsmft::RawDecodingStat Pages: 1 -->
<svg width="304pt" height="259pt"
 viewBox="0.00 0.00 303.50 259.00" xmlns="http://www.w3.org/2000/svg" xmlns:xlink="http://www.w3.org/1999/xlink">
<g id="graph0" class="graph" transform="scale(1 1) rotate(0) translate(4 255)">
<title>o2::itsmft::RawDecodingStat</title>
<!-- Node1 -->
<g id="node1" class="node"><title>Node1</title>
<polygon fill="#bfbfbf" stroke="black" points="74,-0.5 74,-90.5 217,-90.5 217,-0.5 74,-0.5"/>
<text text-anchor="middle" x="145.5" y="-78.5" font-family="Helvetica,sans-Serif" font-size="10.00">o2::itsmft::RawDecodingStat</text>
<polyline fill="none" stroke="black" points="74,-71.5 217,-71.5 "/>
<text text-anchor="middle" x="145.5" y="-59.5" font-family="Helvetica,sans-Serif" font-size="10.00"> </text>
<polyline fill="none" stroke="black" points="74,-52.5 217,-52.5 "/>
<text text-anchor="start" x="82" y="-40.5" font-family="Helvetica,sans-Serif" font-size="10.00">+ RawDecodingStat()</text>
<text text-anchor="start" x="82" y="-29.5" font-family="Helvetica,sans-Serif" font-size="10.00">+ clear()</text>
<text text-anchor="start" x="82" y="-18.5" font-family="Helvetica,sans-Serif" font-size="10.00">+ print()</text>
<text text-anchor="start" x="82" y="-7.5" font-family="Helvetica,sans-Serif" font-size="10.00">+ ClassDefNV()</text>
</g>
<!-- Node2 -->
<g id="node2" class="node"><title>Node2</title>
<polygon fill="none" stroke="#bfbfbf" points="0,-193.5 0,-250.5 51,-250.5 51,-193.5 0,-193.5"/>
<text text-anchor="middle" x="25.5" y="-238.5" font-family="Helvetica,sans-Serif" font-size="10.00">uint64_t</text>
<polyline fill="none" stroke="#bfbfbf" points="0,-231.5 51,-231.5 "/>
<text text-anchor="middle" x="25.5" y="-219.5" font-family="Helvetica,sans-Serif" font-size="10.00"> </text>
<polyline fill="none" stroke="#bfbfbf" points="0,-212.5 51,-212.5 "/>
<text text-anchor="middle" x="25.5" y="-200.5" font-family="Helvetica,sans-Serif" font-size="10.00"> </text>
</g>
<!-- Node2&#45;&gt;Node1 -->
<g id="edge1" class="edge"><title>Node2&#45;&gt;Node1</title>
<path fill="none" stroke="#404040" d="M24.0705,-193.355C24.1567,-169.15 27.6529,-134.034 44.5,-109 49.9429,-100.912 56.8201,-93.6799 64.4162,-87.2632"/>
<polygon fill="none" stroke="#404040" points="64.5078,-87.1921 66.7976,-80.3542 73.9903,-79.8379 71.7005,-86.6758 64.5078,-87.1921"/>
<text text-anchor="middle" x="93" y="-167" font-family="Helvetica,sans-Serif" font-size="10.00"> +nTriggersProcessed</text>
<text text-anchor="middle" x="93" y="-156" font-family="Helvetica,sans-Serif" font-size="10.00">+nRUsProcessed</text>
<text text-anchor="middle" x="93" y="-145" font-family="Helvetica,sans-Serif" font-size="10.00">+nHitsDecoded</text>
<text text-anchor="middle" x="93" y="-134" font-family="Helvetica,sans-Serif" font-size="10.00">+nNonEmptyChips</text>
<text text-anchor="middle" x="93" y="-123" font-family="Helvetica,sans-Serif" font-size="10.00">+nBytesProcessed</text>
<text text-anchor="middle" x="93" y="-112" font-family="Helvetica,sans-Serif" font-size="10.00">+nPagesProcessed</text>
</g>
<!-- Node3 -->
<g id="node3" class="node"><title>Node3</title>
<polygon fill="none" stroke="#bfbfbf" points="75.5,-193.5 75.5,-250.5 215.5,-250.5 215.5,-193.5 75.5,-193.5"/>
<text text-anchor="middle" x="145.5" y="-238.5" font-family="Helvetica,sans-Serif" font-size="10.00">array&lt; int, NErrorsDefined &gt;</text>
<polyline fill="none" stroke="#bfbfbf" points="75.5,-231.5 215.5,-231.5 "/>
<text text-anchor="middle" x="145.5" y="-219.5" font-family="Helvetica,sans-Serif" font-size="10.00"> </text>
<polyline fill="none" stroke="#bfbfbf" points="75.5,-212.5 215.5,-212.5 "/>
<text text-anchor="middle" x="145.5" y="-200.5" font-family="Helvetica,sans-Serif" font-size="10.00"> </text>
</g>
<!-- Node3&#45;&gt;Node1 -->
<g id="edge2" class="edge"><title>Node3&#45;&gt;Node1</title>
<path fill="none" stroke="#404040" d="M145.5,-193.35C145.5,-169.109 145.5,-133.109 145.5,-102.822"/>
<polygon fill="none" stroke="#404040" points="145.5,-102.674 141.5,-96.6738 145.5,-90.6738 149.5,-96.6738 145.5,-102.674"/>
<text text-anchor="middle" x="176" y="-139.5" font-family="Helvetica,sans-Serif" font-size="10.00"> +errorCounts</text>
</g>
<!-- Node4 -->
<g id="node4" class="node"><title>Node4</title>
<polygon fill="none" stroke="#bfbfbf" points="234,-193.5 234,-250.5 275,-250.5 275,-193.5 234,-193.5"/>
<text text-anchor="middle" x="254.5" y="-238.5" font-family="Helvetica,sans-Serif" font-size="10.00">static</text>
<polyline fill="none" stroke="#bfbfbf" points="234,-231.5 275,-231.5 "/>
<text text-anchor="middle" x="254.5" y="-219.5" font-family="Helvetica,sans-Serif" font-size="10.00"> </text>
<polyline fill="none" stroke="#bfbfbf" points="234,-212.5 275,-212.5 "/>
<text text-anchor="middle" x="254.5" y="-200.5" font-family="Helvetica,sans-Serif" font-size="10.00"> </text>
</g>
<!-- Node4&#45;&gt;Node1 -->
<g id="edge3" class="edge"><title>Node4&#45;&gt;Node1</title>
<path fill="none" stroke="#404040" d="M247.219,-193.163C240.198,-169.474 228.042,-135.218 210.5,-109 208.434,-105.912 206.192,-102.859 203.825,-99.8617"/>
<polygon fill="none" stroke="#404040" points="203.654,-99.6602 196.725,-97.6656 195.9,-90.5017 202.83,-92.4963 203.654,-99.6602"/>
<text text-anchor="middle" x="268.5" y="-139.5" font-family="Helvetica,sans-Serif" font-size="10.00"> +ErrNames</text>
</g>
</g>
</svg>
