<?xml version="1.0" encoding="UTF-8" standalone="no"?>
<!DOCTYPE svg PUBLIC "-//W3C//DTD SVG 1.1//EN"
 "http://www.w3.org/Graphics/SVG/1.1/DTD/svg11.dtd">
<!-- Generated by graphviz version 2.38.0 (20140413.2041)
 -->
<!-- Title: o2::tpc::ParameterElectronics Pages: 1 -->
<svg width="500pt" height="1070pt"
 viewBox="0.00 0.00 499.50 1070.00" xmlns="http://www.w3.org/2000/svg" xmlns:xlink="http://www.w3.org/1999/xlink">
<g id="graph0" class="graph" transform="scale(1 1) rotate(0) translate(4 1066)">
<title>o2::tpc::ParameterElectronics</title>
<!-- Node1 -->
<g id="node1" class="node"><title>Node1</title>
<polygon fill="#bfbfbf" stroke="black" points="183.5,-0.5 183.5,-57.5 329.5,-57.5 329.5,-0.5 183.5,-0.5"/>
<text text-anchor="middle" x="256.5" y="-45.5" font-family="Helvetica,sans-Serif" font-size="10.00">o2::tpc::ParameterElectronics</text>
<polyline fill="none" stroke="black" points="183.5,-38.5 329.5,-38.5 "/>
<text text-anchor="middle" x="256.5" y="-26.5" font-family="Helvetica,sans-Serif" font-size="10.00"> </text>
<polyline fill="none" stroke="black" points="183.5,-19.5 329.5,-19.5 "/>
<text text-anchor="start" x="191.5" y="-7.5" font-family="Helvetica,sans-Serif" font-size="10.00">+ O2ParamDef()</text>
</g>
<!-- Node2 -->
<g id="node2" class="node"><title>Node2</title>
<g id="a_node2"><a xlink:href="../../d7/d50/classo2_1_1conf_1_1ConfigurableParamHelper.html" target="_top" xlink:title="{o2::conf::ConfigurableParam\lHelper\&lt; ParameterElectronics \&gt;\n||+ getName()\l+ printKeyValues()\l+ output()\l+ getDataMembers()\l+ putKeyValues()\l+ initFrom()\l+ serializeTo()\l+ Instance()\l}">
<polygon fill="none" stroke="black" points="0,-160.5 0,-305.5 157,-305.5 157,-160.5 0,-160.5"/>
<text text-anchor="start" x="8" y="-293.5" font-family="Helvetica,sans-Serif" font-size="10.00">o2::conf::ConfigurableParam</text>
<text text-anchor="middle" x="78.5" y="-282.5" font-family="Helvetica,sans-Serif" font-size="10.00">Helper&lt; ParameterElectronics &gt;</text>
<polyline fill="none" stroke="black" points="0,-275.5 157,-275.5 "/>
<text text-anchor="middle" x="78.5" y="-263.5" font-family="Helvetica,sans-Serif" font-size="10.00"> </text>
<polyline fill="none" stroke="black" points="0,-256.5 157,-256.5 "/>
<text text-anchor="start" x="8" y="-244.5" font-family="Helvetica,sans-Serif" font-size="10.00">+ getName()</text>
<text text-anchor="start" x="8" y="-233.5" font-family="Helvetica,sans-Serif" font-size="10.00">+ printKeyValues()</text>
<text text-anchor="start" x="8" y="-222.5" font-family="Helvetica,sans-Serif" font-size="10.00">+ output()</text>
<text text-anchor="start" x="8" y="-211.5" font-family="Helvetica,sans-Serif" font-size="10.00">+ getDataMembers()</text>
<text text-anchor="start" x="8" y="-200.5" font-family="Helvetica,sans-Serif" font-size="10.00">+ putKeyValues()</text>
<text text-anchor="start" x="8" y="-189.5" font-family="Helvetica,sans-Serif" font-size="10.00">+ initFrom()</text>
<text text-anchor="start" x="8" y="-178.5" font-family="Helvetica,sans-Serif" font-size="10.00">+ serializeTo()</text>
<text text-anchor="start" x="8" y="-167.5" font-family="Helvetica,sans-Serif" font-size="10.00">+ Instance()</text>
</a>
</g>
</g>
<!-- Node2&#45;&gt;Node1 -->
<g id="edge1" class="edge"><title>Node2&#45;&gt;Node1</title>
<path fill="none" stroke="midnightblue" d="M141.031,-152.459C161.565,-127.421 184.924,-100.042 207.5,-76 213.251,-69.8757 219.643,-63.5577 225.86,-57.6393"/>
<polygon fill="none" stroke="midnightblue" points="138.08,-150.539 134.467,-160.499 143.503,-154.966 138.08,-150.539"/>
</g>
<!-- Node3 -->
<g id="node3" class="node"><title>Node3</title>
<g id="a_node3"><a xlink:href="../../d6/d14/classo2_1_1conf_1_1ConfigurableParam.html" target="_top" xlink:title="{o2::conf::ConfigurableParam\n||+ getName()\l+ printKeyValues()\l+ toString()\l+ printAllRegisteredParamNames()\l+ printAllKeyValuePairs()\l+ readINI()\l+ readJSON()\l+ readConfigFile()\l+ writeJSON()\l+ writeINI()\l+ getValueAs()\l+ setValue()\l+ setValue()\l+ setEnumValue()\l+ setArrayValue()\l+ setValues()\l+ initialize()\l+ toCCDB()\l+ fromCCDB()\l+ updateFromString()\l+ updateFromFile()\l# ConfigurableParam()\l# ~ConfigurableParam()\l# putKeyValues()\l# output()\l# serializeTo()\l# initFrom()\l# setRegisterMode()\l# initPropertyTree()\l# updateThroughStorageMap()\l# updateThroughStorageMapWith\lConversion()\l}">
<polygon fill="none" stroke="black" points="9,-536.5 9,-934.5 178,-934.5 178,-536.5 9,-536.5"/>
<text text-anchor="middle" x="93.5" y="-922.5" font-family="Helvetica,sans-Serif" font-size="10.00">o2::conf::ConfigurableParam</text>
<polyline fill="none" stroke="black" points="9,-915.5 178,-915.5 "/>
<text text-anchor="middle" x="93.5" y="-903.5" font-family="Helvetica,sans-Serif" font-size="10.00"> </text>
<polyline fill="none" stroke="black" points="9,-896.5 178,-896.5 "/>
<text text-anchor="start" x="17" y="-884.5" font-family="Helvetica,sans-Serif" font-size="10.00">+ getName()</text>
<text text-anchor="start" x="17" y="-873.5" font-family="Helvetica,sans-Serif" font-size="10.00">+ printKeyValues()</text>
<text text-anchor="start" x="17" y="-862.5" font-family="Helvetica,sans-Serif" font-size="10.00">+ toString()</text>
<text text-anchor="start" x="17" y="-851.5" font-family="Helvetica,sans-Serif" font-size="10.00">+ printAllRegisteredParamNames()</text>
<text text-anchor="start" x="17" y="-840.5" font-family="Helvetica,sans-Serif" font-size="10.00">+ printAllKeyValuePairs()</text>
<text text-anchor="start" x="17" y="-829.5" font-family="Helvetica,sans-Serif" font-size="10.00">+ readINI()</text>
<text text-anchor="start" x="17" y="-818.5" font-family="Helvetica,sans-Serif" font-size="10.00">+ readJSON()</text>
<text text-anchor="start" x="17" y="-807.5" font-family="Helvetica,sans-Serif" font-size="10.00">+ readConfigFile()</text>
<text text-anchor="start" x="17" y="-796.5" font-family="Helvetica,sans-Serif" font-size="10.00">+ writeJSON()</text>
<text text-anchor="start" x="17" y="-785.5" font-family="Helvetica,sans-Serif" font-size="10.00">+ writeINI()</text>
<text text-anchor="start" x="17" y="-774.5" font-family="Helvetica,sans-Serif" font-size="10.00">+ getValueAs()</text>
<text text-anchor="start" x="17" y="-763.5" font-family="Helvetica,sans-Serif" font-size="10.00">+ setValue()</text>
<text text-anchor="start" x="17" y="-752.5" font-family="Helvetica,sans-Serif" font-size="10.00">+ setValue()</text>
<text text-anchor="start" x="17" y="-741.5" font-family="Helvetica,sans-Serif" font-size="10.00">+ setEnumValue()</text>
<text text-anchor="start" x="17" y="-730.5" font-family="Helvetica,sans-Serif" font-size="10.00">+ setArrayValue()</text>
<text text-anchor="start" x="17" y="-719.5" font-family="Helvetica,sans-Serif" font-size="10.00">+ setValues()</text>
<text text-anchor="start" x="17" y="-708.5" font-family="Helvetica,sans-Serif" font-size="10.00">+ initialize()</text>
<text text-anchor="start" x="17" y="-697.5" font-family="Helvetica,sans-Serif" font-size="10.00">+ toCCDB()</text>
<text text-anchor="start" x="17" y="-686.5" font-family="Helvetica,sans-Serif" font-size="10.00">+ fromCCDB()</text>
<text text-anchor="start" x="17" y="-675.5" font-family="Helvetica,sans-Serif" font-size="10.00">+ updateFromString()</text>
<text text-anchor="start" x="17" y="-664.5" font-family="Helvetica,sans-Serif" font-size="10.00">+ updateFromFile()</text>
<text text-anchor="start" x="17" y="-653.5" font-family="Helvetica,sans-Serif" font-size="10.00"># ConfigurableParam()</text>
<text text-anchor="start" x="17" y="-642.5" font-family="Helvetica,sans-Serif" font-size="10.00"># ~ConfigurableParam()</text>
<text text-anchor="start" x="17" y="-631.5" font-family="Helvetica,sans-Serif" font-size="10.00"># putKeyValues()</text>
<text text-anchor="start" x="17" y="-620.5" font-family="Helvetica,sans-Serif" font-size="10.00"># output()</text>
<text text-anchor="start" x="17" y="-609.5" font-family="Helvetica,sans-Serif" font-size="10.00"># serializeTo()</text>
<text text-anchor="start" x="17" y="-598.5" font-family="Helvetica,sans-Serif" font-size="10.00"># initFrom()</text>
<text text-anchor="start" x="17" y="-587.5" font-family="Helvetica,sans-Serif" font-size="10.00"># setRegisterMode()</text>
<text text-anchor="start" x="17" y="-576.5" font-family="Helvetica,sans-Serif" font-size="10.00"># initPropertyTree()</text>
<text text-anchor="start" x="17" y="-565.5" font-family="Helvetica,sans-Serif" font-size="10.00"># updateThroughStorageMap()</text>
<text text-anchor="start" x="17" y="-554.5" font-family="Helvetica,sans-Serif" font-size="10.00"># updateThroughStorageMapWith</text>
<text text-anchor="start" x="17" y="-543.5" font-family="Helvetica,sans-Serif" font-size="10.00">Conversion()</text>
</a>
</g>
</g>
<!-- Node3&#45;&gt;Node2 -->
<g id="edge2" class="edge"><title>Node3&#45;&gt;Node2</title>
<path fill="none" stroke="midnightblue" d="M82.4457,-526.29C82.0964,-517.069 81.7783,-507.94 81.5,-499 79.4638,-433.583 78.7642,-359.043 78.5445,-305.718"/>
<polygon fill="none" stroke="midnightblue" points="78.95,-526.471 82.8364,-536.327 85.9447,-526.199 78.95,-526.471"/>
</g>
<!-- Node5 -->
<g id="node5" class="node"><title>Node5</title>
<g id="a_node5"><a xlink:href="../../d7/d50/classo2_1_1conf_1_1ConfigurableParamHelper.html" target="_top" xlink:title="{o2::conf::ConfigurableParam\lHelper\&lt; P \&gt;\n||+ getName()\l+ printKeyValues()\l+ output()\l+ getDataMembers()\l+ putKeyValues()\l+ initFrom()\l+ serializeTo()\l+ Instance()\l}">
<polygon fill="none" stroke="black" points="91,-353.5 91,-498.5 232,-498.5 232,-353.5 91,-353.5"/>
<text text-anchor="start" x="99" y="-486.5" font-family="Helvetica,sans-Serif" font-size="10.00">o2::conf::ConfigurableParam</text>
<text text-anchor="middle" x="161.5" y="-475.5" font-family="Helvetica,sans-Serif" font-size="10.00">Helper&lt; P &gt;</text>
<polyline fill="none" stroke="black" points="91,-468.5 232,-468.5 "/>
<text text-anchor="middle" x="161.5" y="-456.5" font-family="Helvetica,sans-Serif" font-size="10.00"> </text>
<polyline fill="none" stroke="black" points="91,-449.5 232,-449.5 "/>
<text text-anchor="start" x="99" y="-437.5" font-family="Helvetica,sans-Serif" font-size="10.00">+ getName()</text>
<text text-anchor="start" x="99" y="-426.5" font-family="Helvetica,sans-Serif" font-size="10.00">+ printKeyValues()</text>
<text text-anchor="start" x="99" y="-415.5" font-family="Helvetica,sans-Serif" font-size="10.00">+ output()</text>
<text text-anchor="start" x="99" y="-404.5" font-family="Helvetica,sans-Serif" font-size="10.00">+ getDataMembers()</text>
<text text-anchor="start" x="99" y="-393.5" font-family="Helvetica,sans-Serif" font-size="10.00">+ putKeyValues()</text>
<text text-anchor="start" x="99" y="-382.5" font-family="Helvetica,sans-Serif" font-size="10.00">+ initFrom()</text>
<text text-anchor="start" x="99" y="-371.5" font-family="Helvetica,sans-Serif" font-size="10.00">+ serializeTo()</text>
<text text-anchor="start" x="99" y="-360.5" font-family="Helvetica,sans-Serif" font-size="10.00">+ Instance()</text>
</a>
</g>
</g>
<!-- Node3&#45;&gt;Node5 -->
<g id="edge5" class="edge"><title>Node3&#45;&gt;Node5</title>
<path fill="none" stroke="midnightblue" d="M139.558,-526.224C141.668,-516.68 143.708,-507.458 145.637,-498.734"/>
<polygon fill="none" stroke="midnightblue" points="136.076,-525.759 137.334,-536.279 142.911,-527.27 136.076,-525.759"/>
</g>
<!-- Node4 -->
<g id="node4" class="node"><title>Node4</title>
<polygon fill="none" stroke="#bfbfbf" points="73,-1004.5 73,-1061.5 114,-1061.5 114,-1004.5 73,-1004.5"/>
<text text-anchor="middle" x="93.5" y="-1049.5" font-family="Helvetica,sans-Serif" font-size="10.00">static</text>
<polyline fill="none" stroke="#bfbfbf" points="73,-1042.5 114,-1042.5 "/>
<text text-anchor="middle" x="93.5" y="-1030.5" font-family="Helvetica,sans-Serif" font-size="10.00"> </text>
<polyline fill="none" stroke="#bfbfbf" points="73,-1023.5 114,-1023.5 "/>
<text text-anchor="middle" x="93.5" y="-1011.5" font-family="Helvetica,sans-Serif" font-size="10.00"> </text>
</g>
<!-- Node4&#45;&gt;Node3 -->
<g id="edge3" class="edge"><title>Node4&#45;&gt;Node3</title>
<path fill="none" stroke="#404040" d="M93.5,-1004.47C93.5,-989.397 93.5,-969.213 93.5,-946.651"/>
<polygon fill="none" stroke="#404040" points="93.5001,-946.65 89.5,-940.65 93.5,-934.65 97.5,-940.65 93.5001,-946.65"/>
<text text-anchor="middle" x="146.5" y="-978" font-family="Helvetica,sans-Serif" font-size="10.00"> #sEnumRegistry</text>
<text text-anchor="middle" x="146.5" y="-967" font-family="Helvetica,sans-Serif" font-size="10.00">#sValueProvenanceMap</text>
<text text-anchor="middle" x="146.5" y="-956" font-family="Helvetica,sans-Serif" font-size="10.00">#sKeyToStorageMap</text>
</g>
<!-- Node5&#45;&gt;Node2 -->
<g id="edge4" class="edge"><title>Node5&#45;&gt;Node2</title>
<path fill="none" stroke="orange" d="M126.357,-344.128C120.816,-331.378 115.121,-318.273 109.679,-305.749"/>
<polygon fill="orange" stroke="orange" points="123.162,-345.559 130.358,-353.335 129.582,-342.769 123.162,-345.559"/>
<text text-anchor="middle" x="178" y="-327" font-family="Helvetica,sans-Serif" font-size="10.00"> &lt; ParameterElectronics &gt;</text>
</g>
<!-- Node6 -->
<g id="node6" class="node"><title>Node6</title>
<polygon fill="none" stroke="#bfbfbf" points="175,-204.5 175,-261.5 262,-261.5 262,-204.5 175,-204.5"/>
<text text-anchor="middle" x="218.5" y="-249.5" font-family="Helvetica,sans-Serif" font-size="10.00">DigitzationMode</text>
<polyline fill="none" stroke="#bfbfbf" points="175,-242.5 262,-242.5 "/>
<text text-anchor="middle" x="218.5" y="-230.5" font-family="Helvetica,sans-Serif" font-size="10.00"> </text>
<polyline fill="none" stroke="#bfbfbf" points="175,-223.5 262,-223.5 "/>
<text text-anchor="middle" x="218.5" y="-211.5" font-family="Helvetica,sans-Serif" font-size="10.00"> </text>
</g>
<!-- Node6&#45;&gt;Node1 -->
<g id="edge6" class="edge"><title>Node6&#45;&gt;Node1</title>
<path fill="none" stroke="#404040" d="M213.982,-204.324C209.907,-172.413 206.59,-118.853 221.5,-76 222.446,-73.2811 223.619,-70.5939 224.958,-67.9654"/>
<polygon fill="none" stroke="#404040" points="225.033,-67.8398 224.702,-60.6362 231.224,-57.5602 231.555,-64.7637 225.033,-67.8398"/>
<text text-anchor="middle" x="247" y="-106.5" font-family="Helvetica,sans-Serif" font-size="10.00"> +DigiMode</text>
</g>
<!-- Node7 -->
<g id="node7" class="node"><title>Node7</title>
<g id="a_node7"><a xlink:href="../../d4/dc3/classfloat.html" target="_top" xlink:title="{float\n||}">
<polygon fill="none" stroke="black" points="280,-204.5 280,-261.5 315,-261.5 315,-204.5 280,-204.5"/>
<text text-anchor="middle" x="297.5" y="-249.5" font-family="Helvetica,sans-Serif" font-size="10.00">float</text>
<polyline fill="none" stroke="black" points="280,-242.5 315,-242.5 "/>
<text text-anchor="middle" x="297.5" y="-230.5" font-family="Helvetica,sans-Serif" font-size="10.00"> </text>
<polyline fill="none" stroke="black" points="280,-223.5 315,-223.5 "/>
<text text-anchor="middle" x="297.5" y="-211.5" font-family="Helvetica,sans-Serif" font-size="10.00"> </text>
</a>
</g>
</g>
<!-- Node7&#45;&gt;Node1 -->
<g id="edge7" class="edge"><title>Node7&#45;&gt;Node1</title>
<path fill="none" stroke="#404040" d="M294.561,-204.369C290.877,-172.954 283.658,-120.285 272.5,-76 271.965,-73.8785 271.376,-71.7159 270.747,-69.5422"/>
<polygon fill="none" stroke="#404040" points="270.711,-69.4285 265.095,-64.9055 267.11,-57.9816 272.726,-62.5046 270.711,-69.4285"/>
<text text-anchor="middle" x="334" y="-134" font-family="Helvetica,sans-Serif" font-size="10.00"> +ADCdynamicRange</text>
<text text-anchor="middle" x="334" y="-123" font-family="Helvetica,sans-Serif" font-size="10.00">+ChipGain</text>
<text text-anchor="middle" x="334" y="-112" font-family="Helvetica,sans-Serif" font-size="10.00">+ADCsaturation</text>
<text text-anchor="middle" x="334" y="-101" font-family="Helvetica,sans-Serif" font-size="10.00">+PeakingTime</text>
<text text-anchor="middle" x="334" y="-90" font-family="Helvetica,sans-Serif" font-size="10.00">+ZbinWidth</text>
<text text-anchor="middle" x="334" y="-79" font-family="Helvetica,sans-Serif" font-size="10.00">+ElectronCharge</text>
</g>
<!-- Node8 -->
<g id="node8" class="node"><title>Node8</title>
<polygon fill="none" stroke="#bfbfbf" points="400,-204.5 400,-261.5 429,-261.5 429,-204.5 400,-204.5"/>
<text text-anchor="middle" x="414.5" y="-249.5" font-family="Helvetica,sans-Serif" font-size="10.00">int</text>
<polyline fill="none" stroke="#bfbfbf" points="400,-242.5 429,-242.5 "/>
<text text-anchor="middle" x="414.5" y="-230.5" font-family="Helvetica,sans-Serif" font-size="10.00"> </text>
<polyline fill="none" stroke="#bfbfbf" points="400,-223.5 429,-223.5 "/>
<text text-anchor="middle" x="414.5" y="-211.5" font-family="Helvetica,sans-Serif" font-size="10.00"> </text>
</g>
<!-- Node8&#45;&gt;Node1 -->
<g id="edge8" class="edge"><title>Node8&#45;&gt;Node1</title>
<path fill="none" stroke="#404040" d="M417.331,-204.286C419.247,-170.093 417.139,-112.071 386.5,-76 374.613,-62.0049 358.179,-52.2667 340.99,-45.4909"/>
<polygon fill="none" stroke="#404040" points="340.933,-45.4705 333.94,-47.2297 329.626,-41.451 336.619,-39.6918 340.933,-45.4705"/>
<text text-anchor="middle" x="452.5" y="-106.5" font-family="Helvetica,sans-Serif" font-size="10.00"> +NShapedPoints</text>
</g>
</g>
</svg>
