<?xml version="1.0" encoding="UTF-8" standalone="no"?>
<!DOCTYPE svg PUBLIC "-//W3C//DTD SVG 1.1//EN"
 "http://www.w3.org/Graphics/SVG/1.1/DTD/svg11.dtd">
<!-- Generated by graphviz version 2.38.0 (20140413.2041)
 -->
<!-- Title: /home/travis/build/AliceO2Group/AliceO2/DataFormats/Detectors/EMCAL/src/Cluster.cxx Pages: 1 -->
<!--zoomable 285 -->
<svg id="main" version="1.1" xmlns="http://www.w3.org/2000/svg" xmlns:xlink="http://www.w3.org/1999/xlink" xml:space="preserve" onload="init(evt)">
<style type="text/css"><![CDATA[
.edge:hover path { stroke: red; }
.edge:hover polygon { stroke: red; fill: red; }
]]></style>
<script type="text/javascript"><![CDATA[
var edges = document.getElementsByTagName('g');
if (edges && edges.length) {
  for (var i=0;i<edges.length;i++) {
    if (edges[i].id.substr(0,4)=='edge') {
      edges[i].setAttribute('class','edge');
    }
  }
}
]]></script>
        <defs>
                <circle id="rim" cx="0" cy="0" r="7"/>
                <circle id="rim2" cx="0" cy="0" r="3.5"/>
                <g id="zoomPlus">
                        <use xlink:href="#rim" fill="#404040">
                                <set attributeName="fill" to="#808080" begin="zoomplus.mouseover" end="zoomplus.mouseout"/>
                        </use>
                        <path d="M-4,0h8M0,-4v8" fill="none" stroke="white" stroke-width="1.5" pointer-events="none"/>
                </g>
                <g id="zoomMin">
                        <use xlink:href="#rim" fill="#404040">
                                <set attributeName="fill" to="#808080" begin="zoomminus.mouseover" end="zoomminus.mouseout"/>
                        </use>
                        <path d="M-4,0h8" fill="none" stroke="white" stroke-width="1.5" pointer-events="none"/>
                </g>
                <g id="dirArrow">
                        <path fill="none" stroke="white" stroke-width="1.5" d="M0,-3.0v7 M-2.5,-0.5L0,-3.0L2.5,-0.5"/>
                </g>
               <g id="resetDef">
                       <use xlink:href="#rim2" fill="#404040">
                               <set attributeName="fill" to="#808080" begin="reset.mouseover" end="reset.mouseout"/>
                       </use>
               </g>
        </defs>

<script type="text/javascript">
var viewWidth = 729;
var viewHeight = 285;
var sectionId = 'dynsection-0';
</script>
<script xlink:href="../../svgpan.js"/>
<svg id="graph" class="graph">
<g id="viewport">
<title>/home/travis/build/AliceO2Group/AliceO2/DataFormats/Detectors/EMCAL/src/Cluster.cxx</title>
<!-- Node1 -->
<g id="node1" class="node"><title>Node1</title>
<polygon fill="#bfbfbf" stroke="black" points="52.5,-224.5 52.5,-276.5 176.5,-276.5 176.5,-224.5 52.5,-224.5"/>
<text text-anchor="start" x="60.5" y="-264.5" font-family="Helvetica,sans-Serif" font-size="10.00">/home/travis/build</text>
<text text-anchor="start" x="60.5" y="-253.5" font-family="Helvetica,sans-Serif" font-size="10.00">/AliceO2Group/AliceO2</text>
<text text-anchor="start" x="60.5" y="-242.5" font-family="Helvetica,sans-Serif" font-size="10.00">/DataFormats/Detectors</text>
<text text-anchor="middle" x="114.5" y="-231.5" font-family="Helvetica,sans-Serif" font-size="10.00">/EMCAL/src/Cluster.cxx</text>
</g>
<!-- Node2 -->
<g id="node2" class="node"><title>Node2</title>
<polygon fill="none" stroke="#bfbfbf" points="0,-168.5 0,-187.5 41,-187.5 41,-168.5 0,-168.5"/>
<text text-anchor="middle" x="20.5" y="-175.5" font-family="Helvetica,sans-Serif" font-size="10.00">cfloat</text>
</g>
<!-- Node1&#45;&gt;Node2 -->
<g id="edge1" class="edge"><title>Node1&#45;&gt;Node2</title>
<path fill="none" stroke="midnightblue" d="M81.0944,-224.446C67.4699,-214.227 52.1777,-202.758 40.3643,-193.898"/>
<polygon fill="midnightblue" stroke="midnightblue" points="42.194,-190.896 32.094,-187.695 37.994,-196.496 42.194,-190.896"/>
</g>
<!-- Node3 -->
<g id="node3" class="node"><title>Node3</title>
<polygon fill="none" stroke="#bfbfbf" points="59.5,-168.5 59.5,-187.5 103.5,-187.5 103.5,-168.5 59.5,-168.5"/>
<text text-anchor="middle" x="81.5" y="-175.5" font-family="Helvetica,sans-Serif" font-size="10.00">cmath</text>
</g>
<!-- Node1&#45;&gt;Node3 -->
<g id="edge2" class="edge"><title>Node1&#45;&gt;Node3</title>
<path fill="none" stroke="midnightblue" d="M102.773,-224.446C98.5052,-215.329 93.772,-205.217 89.8558,-196.851"/>
<polygon fill="midnightblue" stroke="midnightblue" points="92.9796,-195.269 85.5702,-187.695 86.6398,-198.236 92.9796,-195.269"/>
</g>
<!-- Node4 -->
<g id="node4" class="node"><title>Node4</title>
<polygon fill="none" stroke="#bfbfbf" points="121.5,-168.5 121.5,-187.5 175.5,-187.5 175.5,-168.5 121.5,-168.5"/>
<text text-anchor="middle" x="148.5" y="-175.5" font-family="Helvetica,sans-Serif" font-size="10.00">iostream</text>
</g>
<!-- Node1&#45;&gt;Node4 -->
<g id="edge3" class="edge"><title>Node1&#45;&gt;Node4</title>
<path fill="none" stroke="midnightblue" d="M126.583,-224.446C130.979,-215.329 135.856,-205.217 139.891,-196.851"/>
<polygon fill="midnightblue" stroke="midnightblue" points="143.115,-198.223 144.306,-187.695 136.81,-195.182 143.115,-198.223"/>
</g>
<!-- Node5 -->
<g id="node5" class="node"><title>Node5</title>
<g id="a_node5"><a xlink:href="../../dc/d27/DataFormats_2Detectors_2EMCAL_2include_2DataFormatsEMCAL_2Cluster_8h.html" target="_top" xlink:title="DataFormatsEMCAL/Cluster.h">
<polygon fill="none" stroke="black" points="194,-168.5 194,-187.5 345,-187.5 345,-168.5 194,-168.5"/>
<text text-anchor="middle" x="269.5" y="-175.5" font-family="Helvetica,sans-Serif" font-size="10.00">DataFormatsEMCAL/Cluster.h</text>
</a>
</g>
</g>
<!-- Node1&#45;&gt;Node5 -->
<g id="edge4" class="edge"><title>Node1&#45;&gt;Node5</title>
<path fill="none" stroke="midnightblue" d="M169.584,-224.446C193.961,-213.358 221.577,-200.797 241.588,-191.696"/>
<polygon fill="midnightblue" stroke="midnightblue" points="243.099,-194.853 250.753,-187.527 240.201,-188.481 243.099,-194.853"/>
</g>
<!-- Node6 -->
<g id="node6" class="node"><title>Node6</title>
<polygon fill="none" stroke="#bfbfbf" points="98.5,-112.5 98.5,-131.5 136.5,-131.5 136.5,-112.5 98.5,-112.5"/>
<text text-anchor="middle" x="117.5" y="-119.5" font-family="Helvetica,sans-Serif" font-size="10.00">array</text>
</g>
<!-- Node5&#45;&gt;Node6 -->
<g id="edge5" class="edge"><title>Node5&#45;&gt;Node6</title>
<path fill="none" stroke="midnightblue" d="M245.415,-168.444C218.458,-158.867 174.808,-143.359 146.128,-133.17"/>
<polygon fill="midnightblue" stroke="midnightblue" points="147.254,-129.856 136.659,-129.807 144.911,-136.452 147.254,-129.856"/>
</g>
<!-- Node7 -->
<g id="node7" class="node"><title>Node7</title>
<polygon fill="none" stroke="#bfbfbf" points="155,-112.5 155,-131.5 200,-131.5 200,-112.5 155,-112.5"/>
<text text-anchor="middle" x="177.5" y="-119.5" font-family="Helvetica,sans-Serif" font-size="10.00">iosfwd</text>
</g>
<!-- Node5&#45;&gt;Node7 -->
<g id="edge6" class="edge"><title>Node5&#45;&gt;Node7</title>
<path fill="none" stroke="midnightblue" d="M254.719,-168.324C240.233,-159.822 217.927,-146.729 201.007,-136.797"/>
<polygon fill="midnightblue" stroke="midnightblue" points="202.641,-133.698 192.245,-131.655 199.097,-139.735 202.641,-133.698"/>
</g>
<!-- Node8 -->
<g id="node8" class="node"><title>Node8</title>
<polygon fill="none" stroke="#bfbfbf" points="218,-112.5 218,-131.5 259,-131.5 259,-112.5 218,-112.5"/>
<text text-anchor="middle" x="238.5" y="-119.5" font-family="Helvetica,sans-Serif" font-size="10.00">string</text>
</g>
<!-- Node5&#45;&gt;Node8 -->
<g id="edge7" class="edge"><title>Node5&#45;&gt;Node8</title>
<path fill="none" stroke="midnightblue" d="M264.381,-168.083C260.092,-160.613 253.842,-149.724 248.558,-140.52"/>
<polygon fill="midnightblue" stroke="midnightblue" points="251.538,-138.681 243.524,-131.751 245.467,-142.166 251.538,-138.681"/>
</g>
<!-- Node9 -->
<g id="node9" class="node"><title>Node9</title>
<polygon fill="none" stroke="#bfbfbf" points="277.5,-112.5 277.5,-131.5 321.5,-131.5 321.5,-112.5 277.5,-112.5"/>
<text text-anchor="middle" x="299.5" y="-119.5" font-family="Helvetica,sans-Serif" font-size="10.00">vector</text>
</g>
<!-- Node5&#45;&gt;Node9 -->
<g id="edge8" class="edge"><title>Node5&#45;&gt;Node9</title>
<path fill="none" stroke="midnightblue" d="M274.454,-168.083C278.604,-160.613 284.653,-149.724 289.767,-140.52"/>
<polygon fill="midnightblue" stroke="midnightblue" points="292.841,-142.192 294.638,-131.751 286.722,-138.793 292.841,-142.192"/>
</g>
<!-- Node10 -->
<g id="node10" class="node"><title>Node10</title>
<g id="a_node10"><a xlink:href="../../df/d5d/common_2include_2CommonDataFormat_2TimeStamp_8h.html" target="_top" xlink:title="CommonDataFormat/TimeStamp.h">
<polygon fill="none" stroke="black" points="339.5,-112.5 339.5,-131.5 509.5,-131.5 509.5,-112.5 339.5,-112.5"/>
<text text-anchor="middle" x="424.5" y="-119.5" font-family="Helvetica,sans-Serif" font-size="10.00">CommonDataFormat/TimeStamp.h</text>
</a>
</g>
</g>
<!-- Node5&#45;&gt;Node10 -->
<g id="edge9" class="edge"><title>Node5&#45;&gt;Node10</title>
<path fill="none" stroke="midnightblue" d="M294.06,-168.444C320.023,-159.399 361.168,-145.064 390.297,-134.916"/>
<polygon fill="midnightblue" stroke="midnightblue" points="391.763,-138.112 400.055,-131.516 389.46,-131.501 391.763,-138.112"/>
</g>
<!-- Node13 -->
<g id="node13" class="node"><title>Node13</title>
<g id="a_node13"><a xlink:href="../../de/d64/RangeReference_8h.html" target="_top" xlink:title="Class to refer to the 1st entry and N elements of some group in the continuous container. ">
<polygon fill="none" stroke="black" points="528,-112.5 528,-131.5 721,-131.5 721,-112.5 528,-112.5"/>
<text text-anchor="middle" x="624.5" y="-119.5" font-family="Helvetica,sans-Serif" font-size="10.00">CommonDataFormat/RangeReference.h</text>
</a>
</g>
</g>
<!-- Node5&#45;&gt;Node13 -->
<g id="edge12" class="edge"><title>Node5&#45;&gt;Node13</title>
<path fill="none" stroke="midnightblue" d="M325.751,-168.444C388.978,-158.826 491.523,-143.228 558.49,-133.041"/>
<polygon fill="midnightblue" stroke="midnightblue" points="559.152,-136.481 568.512,-131.516 558.1,-129.56 559.152,-136.481"/>
</g>
<!-- Node11 -->
<g id="node11" class="node"><title>Node11</title>
<g id="a_node11"><a xlink:href="../../d2/d45/GPUCommonRtypes_8h.html" target="_top" xlink:title="GPUCommonRtypes.h">
<polygon fill="none" stroke="black" points="465.5,-56.5 465.5,-75.5 583.5,-75.5 583.5,-56.5 465.5,-56.5"/>
<text text-anchor="middle" x="524.5" y="-63.5" font-family="Helvetica,sans-Serif" font-size="10.00">GPUCommonRtypes.h</text>
</a>
</g>
</g>
<!-- Node10&#45;&gt;Node11 -->
<g id="edge10" class="edge"><title>Node10&#45;&gt;Node11</title>
<path fill="none" stroke="midnightblue" d="M440.567,-112.324C456.458,-103.743 481.007,-90.486 499.458,-80.5224"/>
<polygon fill="midnightblue" stroke="midnightblue" points="501.337,-83.4857 508.473,-75.6545 498.011,-77.3264 501.337,-83.4857"/>
</g>
<!-- Node12 -->
<g id="node12" class="node"><title>Node12</title>
<polygon fill="none" stroke="#bfbfbf" points="496.5,-0.5 496.5,-19.5 552.5,-19.5 552.5,-0.5 496.5,-0.5"/>
<text text-anchor="middle" x="524.5" y="-7.5" font-family="Helvetica,sans-Serif" font-size="10.00">Rtypes.h</text>
</g>
<!-- Node11&#45;&gt;Node12 -->
<g id="edge11" class="edge"><title>Node11&#45;&gt;Node12</title>
<path fill="none" stroke="midnightblue" d="M524.5,-56.083C524.5,-49.0059 524.5,-38.8611 524.5,-29.9865"/>
<polygon fill="midnightblue" stroke="midnightblue" points="528,-29.751 524.5,-19.7511 521,-29.7511 528,-29.751"/>
</g>
<!-- Node13&#45;&gt;Node11 -->
<g id="edge13" class="edge"><title>Node13&#45;&gt;Node11</title>
<path fill="none" stroke="midnightblue" d="M608.433,-112.324C592.542,-103.743 567.993,-90.486 549.542,-80.5224"/>
<polygon fill="midnightblue" stroke="midnightblue" points="550.989,-77.3264 540.527,-75.6545 547.663,-83.4857 550.989,-77.3264"/>
</g>
</g>
</svg>
        <g id="navigator" transform="translate(0 0)" fill="#404254">
                <rect fill="#f2f5e9" fill-opacity="0.5" stroke="#606060" stroke-width=".5" x="0" y="0" width="60" height="60"/>
                <use id="zoomplus" xlink:href="#zoomPlus" x="17" y="9" onmousedown="handleZoom(evt,'in')"/>
                <use id="zoomminus" xlink:href="#zoomMin" x="42" y="9" onmousedown="handleZoom(evt,'out')"/>
                <use id="reset" xlink:href="#resetDef" x="30" y="36" onmousedown="handleReset()"/>
                <g id="arrowUp" xlink:href="#dirArrow" transform="translate(30 24)" onmousedown="handlePan(0,-1)">
                  <use xlink:href="#rim" fill="#404040">
                        <set attributeName="fill" to="#808080" begin="arrowUp.mouseover" end="arrowUp.mouseout"/>
                  </use>
                  <path fill="none" stroke="white" stroke-width="1.5" d="M0,-3.0v7 M-2.5,-0.5L0,-3.0L2.5,-0.5"/>
                </g>
                <g id="arrowRight" xlink:href="#dirArrow" transform="rotate(90) translate(36 -43)" onmousedown="handlePan(1,0)">
                  <use xlink:href="#rim" fill="#404040">
                        <set attributeName="fill" to="#808080" begin="arrowRight.mouseover" end="arrowRight.mouseout"/>
                  </use>
                  <path fill="none" stroke="white" stroke-width="1.5" d="M0,-3.0v7 M-2.5,-0.5L0,-3.0L2.5,-0.5"/>
                </g>
                <g id="arrowDown" xlink:href="#dirArrow" transform="rotate(180) translate(-30 -48)" onmousedown="handlePan(0,1)">
                  <use xlink:href="#rim" fill="#404040">
                        <set attributeName="fill" to="#808080" begin="arrowDown.mouseover" end="arrowDown.mouseout"/>
                  </use>
                  <path fill="none" stroke="white" stroke-width="1.5" d="M0,-3.0v7 M-2.5,-0.5L0,-3.0L2.5,-0.5"/>
                </g>
                <g id="arrowLeft" xlink:href="#dirArrow" transform="rotate(270) translate(-36 17)" onmousedown="handlePan(-1,0)">
                  <use xlink:href="#rim" fill="#404040">
                        <set attributeName="fill" to="#808080" begin="arrowLeft.mouseover" end="arrowLeft.mouseout"/>
                  </use>
                  <path fill="none" stroke="white" stroke-width="1.5" d="M0,-3.0v7 M-2.5,-0.5L0,-3.0L2.5,-0.5"/>
                </g>
        </g>
        <svg viewBox="0 0 15 15" width="100%" height="30px" preserveAspectRatio="xMaxYMin meet">
         <g id="arrow_out" transform="scale(0.3 0.3)">
          <a xlink:href="DataFormats_2Detectors_2EMCAL_2src_2Cluster_8cxx__incl_org.svg" target="_base">
           <rect id="button" ry="5" rx="5" y="6" x="6" height="38" width="38"
                fill="#f2f5e9" fill-opacity="0.5" stroke="#606060" stroke-width="1.0"/>
           <path id="arrow"
             d="M 11.500037,31.436501 C 11.940474,20.09759 22.043105,11.32322 32.158766,21.979434 L 37.068811,17.246167 C 37.068811,17.246167 37.088388,32 37.088388,32 L 22.160133,31.978069 C 22.160133,31.978069 26.997745,27.140456 26.997745,27.140456 C 18.528582,18.264221 13.291696,25.230495 11.500037,31.436501 z"
             style="fill:#404040;"/>
          </a>
         </g>
        </svg>
</svg>
