<?xml version="1.0" encoding="UTF-8" standalone="no"?>
<!DOCTYPE svg PUBLIC "-//W3C//DTD SVG 1.1//EN"
 "http://www.w3.org/Graphics/SVG/1.1/DTD/svg11.dtd">
<!-- Generated by graphviz version 2.38.0 (20140413.2041)
 -->
<!-- Title: o2::framework::Output Pages: 1 -->
<svg width="641pt" height="799pt"
 viewBox="0.00 0.00 640.94 799.00" xmlns="http://www.w3.org/2000/svg" xmlns:xlink="http://www.w3.org/1999/xlink">
<g id="graph0" class="graph" transform="scale(1 1) rotate(0) translate(4 795)">
<title>o2::framework::Output</title>
<!-- Node1 -->
<g id="node1" class="node"><title>Node1</title>
<polygon fill="#bfbfbf" stroke="black" points="232.94,-0.5 232.94,-112.5 346.94,-112.5 346.94,-0.5 232.94,-0.5"/>
<text text-anchor="middle" x="289.94" y="-100.5" font-family="Helvetica,sans-Serif" font-size="10.00">o2::framework::Output</text>
<polyline fill="none" stroke="black" points="232.94,-93.5 346.94,-93.5 "/>
<text text-anchor="middle" x="289.94" y="-81.5" font-family="Helvetica,sans-Serif" font-size="10.00"> </text>
<polyline fill="none" stroke="black" points="232.94,-74.5 346.94,-74.5 "/>
<text text-anchor="start" x="240.94" y="-62.5" font-family="Helvetica,sans-Serif" font-size="10.00">+ Output()</text>
<text text-anchor="start" x="240.94" y="-51.5" font-family="Helvetica,sans-Serif" font-size="10.00">+ Output()</text>
<text text-anchor="start" x="240.94" y="-40.5" font-family="Helvetica,sans-Serif" font-size="10.00">+ Output()</text>
<text text-anchor="start" x="240.94" y="-29.5" font-family="Helvetica,sans-Serif" font-size="10.00">+ Output()</text>
<text text-anchor="start" x="240.94" y="-18.5" font-family="Helvetica,sans-Serif" font-size="10.00">+ Output()</text>
<text text-anchor="start" x="240.94" y="-7.5" font-family="Helvetica,sans-Serif" font-size="10.00">+ operator==()</text>
</g>
<!-- Node2 -->
<g id="node2" class="node"><title>Node2</title>
<polygon fill="none" stroke="#bfbfbf" points="14.4403,-243 14.4403,-300 65.4403,-300 65.4403,-243 14.4403,-243"/>
<text text-anchor="middle" x="39.9403" y="-288" font-family="Helvetica,sans-Serif" font-size="10.00">uint32_t</text>
<polyline fill="none" stroke="#bfbfbf" points="14.4403,-281 65.4403,-281 "/>
<text text-anchor="middle" x="39.9403" y="-269" font-family="Helvetica,sans-Serif" font-size="10.00"> </text>
<polyline fill="none" stroke="#bfbfbf" points="14.4403,-262 65.4403,-262 "/>
<text text-anchor="middle" x="39.9403" y="-250" font-family="Helvetica,sans-Serif" font-size="10.00"> </text>
</g>
<!-- Node2&#45;&gt;Node1 -->
<g id="edge1" class="edge"><title>Node2&#45;&gt;Node1</title>
<path fill="none" stroke="#404040" d="M42.2014,-242.987C45.5227,-218.617 53.7191,-183.378 73.9403,-160 112.115,-115.865 173.503,-89.2925 221.096,-74.3036"/>
<polygon fill="none" stroke="#404040" points="221.39,-74.2145 225.974,-68.6481 232.876,-70.7387 228.291,-76.3052 221.39,-74.2145"/>
<text text-anchor="middle" x="125.94" y="-134" font-family="Helvetica,sans-Serif" font-size="10.00"> +subSpec</text>
</g>
<!-- Node3 -->
<g id="node3" class="node"><title>Node3</title>
<g id="a_node3"><a xlink:href="../../d9/db3/structo2_1_1header_1_1Descriptor.html" target="_top" xlink:title="{o2::header::Descriptor\l\&lt; gSizeDataOriginString,\l printDataOrigin \&gt;\n||+ Descriptor()\l+ Descriptor()\l+ Descriptor()\l+ Descriptor()\l+ operator=()\l+ operator ItgType()\l+ runtimeInit()\l+ operator==()\l+ operator==()\l+ operator\&lt;()\l+ operator!=()\l+ operator!=()\l+ as()\l+ print()\l}">
<polygon fill="none" stroke="black" points="347.44,-160.5 347.44,-382.5 472.44,-382.5 472.44,-160.5 347.44,-160.5"/>
<text text-anchor="start" x="355.44" y="-370.5" font-family="Helvetica,sans-Serif" font-size="10.00">o2::header::Descriptor</text>
<text text-anchor="start" x="355.44" y="-359.5" font-family="Helvetica,sans-Serif" font-size="10.00">&lt; gSizeDataOriginString,</text>
<text text-anchor="middle" x="409.94" y="-348.5" font-family="Helvetica,sans-Serif" font-size="10.00"> printDataOrigin &gt;</text>
<polyline fill="none" stroke="black" points="347.44,-341.5 472.44,-341.5 "/>
<text text-anchor="middle" x="409.94" y="-329.5" font-family="Helvetica,sans-Serif" font-size="10.00"> </text>
<polyline fill="none" stroke="black" points="347.44,-322.5 472.44,-322.5 "/>
<text text-anchor="start" x="355.44" y="-310.5" font-family="Helvetica,sans-Serif" font-size="10.00">+ Descriptor()</text>
<text text-anchor="start" x="355.44" y="-299.5" font-family="Helvetica,sans-Serif" font-size="10.00">+ Descriptor()</text>
<text text-anchor="start" x="355.44" y="-288.5" font-family="Helvetica,sans-Serif" font-size="10.00">+ Descriptor()</text>
<text text-anchor="start" x="355.44" y="-277.5" font-family="Helvetica,sans-Serif" font-size="10.00">+ Descriptor()</text>
<text text-anchor="start" x="355.44" y="-266.5" font-family="Helvetica,sans-Serif" font-size="10.00">+ operator=()</text>
<text text-anchor="start" x="355.44" y="-255.5" font-family="Helvetica,sans-Serif" font-size="10.00">+ operator ItgType()</text>
<text text-anchor="start" x="355.44" y="-244.5" font-family="Helvetica,sans-Serif" font-size="10.00">+ runtimeInit()</text>
<text text-anchor="start" x="355.44" y="-233.5" font-family="Helvetica,sans-Serif" font-size="10.00">+ operator==()</text>
<text text-anchor="start" x="355.44" y="-222.5" font-family="Helvetica,sans-Serif" font-size="10.00">+ operator==()</text>
<text text-anchor="start" x="355.44" y="-211.5" font-family="Helvetica,sans-Serif" font-size="10.00">+ operator&lt;()</text>
<text text-anchor="start" x="355.44" y="-200.5" font-family="Helvetica,sans-Serif" font-size="10.00">+ operator!=()</text>
<text text-anchor="start" x="355.44" y="-189.5" font-family="Helvetica,sans-Serif" font-size="10.00">+ operator!=()</text>
<text text-anchor="start" x="355.44" y="-178.5" font-family="Helvetica,sans-Serif" font-size="10.00">+ as()</text>
<text text-anchor="start" x="355.44" y="-167.5" font-family="Helvetica,sans-Serif" font-size="10.00">+ print()</text>
</a>
</g>
</g>
<!-- Node3&#45;&gt;Node1 -->
<g id="edge2" class="edge"><title>Node3&#45;&gt;Node1</title>
<path fill="none" stroke="#404040" d="M351.353,-160.147C345.875,-150.252 340.35,-140.418 334.94,-131 333.441,-128.389 331.899,-125.734 330.33,-123.059"/>
<polygon fill="none" stroke="#404040" points="330.301,-123.009 323.801,-119.886 324.184,-112.685 330.684,-115.808 330.301,-123.009"/>
<text text-anchor="middle" x="356.44" y="-134" font-family="Helvetica,sans-Serif" font-size="10.00"> +origin</text>
</g>
<!-- Node4 -->
<g id="node4" class="node"><title>Node4</title>
<polygon fill="none" stroke="#bfbfbf" points="224.94,-733.5 224.94,-790.5 262.94,-790.5 262.94,-733.5 224.94,-733.5"/>
<text text-anchor="middle" x="243.94" y="-778.5" font-family="Helvetica,sans-Serif" font-size="10.00">Type</text>
<polyline fill="none" stroke="#bfbfbf" points="224.94,-771.5 262.94,-771.5 "/>
<text text-anchor="middle" x="243.94" y="-759.5" font-family="Helvetica,sans-Serif" font-size="10.00"> </text>
<polyline fill="none" stroke="#bfbfbf" points="224.94,-752.5 262.94,-752.5 "/>
<text text-anchor="middle" x="243.94" y="-740.5" font-family="Helvetica,sans-Serif" font-size="10.00"> </text>
</g>
<!-- Node4&#45;&gt;Node3 -->
<g id="edge3" class="edge"><title>Node4&#45;&gt;Node3</title>
<path fill="none" stroke="#404040" d="M236.577,-733.491C222.358,-673.526 198.591,-530.167 271.94,-452 307.641,-413.955 351.393,-471.232 387.94,-434 398.733,-423.005 405.93,-409.382 410.572,-394.747"/>
<polygon fill="none" stroke="#404040" points="410.662,-394.413 408.351,-387.583 413.768,-382.822 416.078,-389.653 410.662,-394.413"/>
<text text-anchor="middle" x="281.94" y="-555.5" font-family="Helvetica,sans-Serif" font-size="10.00"> +itg</text>
</g>
<!-- Node8 -->
<g id="node8" class="node"><title>Node8</title>
<g id="a_node8"><a xlink:href="../../d9/db3/structo2_1_1header_1_1Descriptor.html" target="_top" xlink:title="{o2::header::Descriptor\l\&lt; N, PrinterPolicy \&gt;\n||+ Descriptor()\l+ Descriptor()\l+ Descriptor()\l+ operator=()\l+ operator ItgType()\l+ Descriptor()\l+ runtimeInit()\l+ operator==()\l+ operator\&lt;()\l+ operator!=()\l+ operator==()\l+ operator!=()\l+ as()\l+ print()\l}">
<polygon fill="none" stroke="black" points="357.44,-452.5 357.44,-663.5 470.44,-663.5 470.44,-452.5 357.44,-452.5"/>
<text text-anchor="start" x="365.44" y="-651.5" font-family="Helvetica,sans-Serif" font-size="10.00">o2::header::Descriptor</text>
<text text-anchor="middle" x="413.94" y="-640.5" font-family="Helvetica,sans-Serif" font-size="10.00">&lt; N, PrinterPolicy &gt;</text>
<polyline fill="none" stroke="black" points="357.44,-633.5 470.44,-633.5 "/>
<text text-anchor="middle" x="413.94" y="-621.5" font-family="Helvetica,sans-Serif" font-size="10.00"> </text>
<polyline fill="none" stroke="black" points="357.44,-614.5 470.44,-614.5 "/>
<text text-anchor="start" x="365.44" y="-602.5" font-family="Helvetica,sans-Serif" font-size="10.00">+ Descriptor()</text>
<text text-anchor="start" x="365.44" y="-591.5" font-family="Helvetica,sans-Serif" font-size="10.00">+ Descriptor()</text>
<text text-anchor="start" x="365.44" y="-580.5" font-family="Helvetica,sans-Serif" font-size="10.00">+ Descriptor()</text>
<text text-anchor="start" x="365.44" y="-569.5" font-family="Helvetica,sans-Serif" font-size="10.00">+ operator=()</text>
<text text-anchor="start" x="365.44" y="-558.5" font-family="Helvetica,sans-Serif" font-size="10.00">+ operator ItgType()</text>
<text text-anchor="start" x="365.44" y="-547.5" font-family="Helvetica,sans-Serif" font-size="10.00">+ Descriptor()</text>
<text text-anchor="start" x="365.44" y="-536.5" font-family="Helvetica,sans-Serif" font-size="10.00">+ runtimeInit()</text>
<text text-anchor="start" x="365.44" y="-525.5" font-family="Helvetica,sans-Serif" font-size="10.00">+ operator==()</text>
<text text-anchor="start" x="365.44" y="-514.5" font-family="Helvetica,sans-Serif" font-size="10.00">+ operator&lt;()</text>
<text text-anchor="start" x="365.44" y="-503.5" font-family="Helvetica,sans-Serif" font-size="10.00">+ operator!=()</text>
<text text-anchor="start" x="365.44" y="-492.5" font-family="Helvetica,sans-Serif" font-size="10.00">+ operator==()</text>
<text text-anchor="start" x="365.44" y="-481.5" font-family="Helvetica,sans-Serif" font-size="10.00">+ operator!=()</text>
<text text-anchor="start" x="365.44" y="-470.5" font-family="Helvetica,sans-Serif" font-size="10.00">+ as()</text>
<text text-anchor="start" x="365.44" y="-459.5" font-family="Helvetica,sans-Serif" font-size="10.00">+ print()</text>
</a>
</g>
</g>
<!-- Node4&#45;&gt;Node8 -->
<g id="edge8" class="edge"><title>Node4&#45;&gt;Node8</title>
<path fill="none" stroke="#404040" d="M263.147,-741.711C288.906,-715.794 332.202,-672.039 338.94,-664 342.614,-659.617 346.302,-655.063 349.963,-650.417"/>
<polygon fill="none" stroke="#404040" points="350.082,-650.264 350.593,-643.071 357.429,-640.776 356.918,-647.969 350.082,-650.264"/>
<text text-anchor="middle" x="331.94" y="-696" font-family="Helvetica,sans-Serif" font-size="10.00"> +itg</text>
</g>
<!-- Node11 -->
<g id="node11" class="node"><title>Node11</title>
<g id="a_node11"><a xlink:href="../../d9/db3/structo2_1_1header_1_1Descriptor.html" target="_top" xlink:title="{o2::header::Descriptor\l\&lt; gSizeDataDescriptionString,\l printDataDescription \&gt;\n||+ Descriptor()\l+ Descriptor()\l+ Descriptor()\l+ Descriptor()\l+ operator=()\l+ operator ItgType()\l+ runtimeInit()\l+ operator==()\l+ operator==()\l+ operator\&lt;()\l+ operator!=()\l+ operator!=()\l+ as()\l+ print()\l}">
<polygon fill="none" stroke="black" points="83.4403,-160.5 83.4403,-382.5 232.44,-382.5 232.44,-160.5 83.4403,-160.5"/>
<text text-anchor="start" x="91.4403" y="-370.5" font-family="Helvetica,sans-Serif" font-size="10.00">o2::header::Descriptor</text>
<text text-anchor="start" x="91.4403" y="-359.5" font-family="Helvetica,sans-Serif" font-size="10.00">&lt; gSizeDataDescriptionString,</text>
<text text-anchor="middle" x="157.94" y="-348.5" font-family="Helvetica,sans-Serif" font-size="10.00"> printDataDescription &gt;</text>
<polyline fill="none" stroke="black" points="83.4403,-341.5 232.44,-341.5 "/>
<text text-anchor="middle" x="157.94" y="-329.5" font-family="Helvetica,sans-Serif" font-size="10.00"> </text>
<polyline fill="none" stroke="black" points="83.4403,-322.5 232.44,-322.5 "/>
<text text-anchor="start" x="91.4403" y="-310.5" font-family="Helvetica,sans-Serif" font-size="10.00">+ Descriptor()</text>
<text text-anchor="start" x="91.4403" y="-299.5" font-family="Helvetica,sans-Serif" font-size="10.00">+ Descriptor()</text>
<text text-anchor="start" x="91.4403" y="-288.5" font-family="Helvetica,sans-Serif" font-size="10.00">+ Descriptor()</text>
<text text-anchor="start" x="91.4403" y="-277.5" font-family="Helvetica,sans-Serif" font-size="10.00">+ Descriptor()</text>
<text text-anchor="start" x="91.4403" y="-266.5" font-family="Helvetica,sans-Serif" font-size="10.00">+ operator=()</text>
<text text-anchor="start" x="91.4403" y="-255.5" font-family="Helvetica,sans-Serif" font-size="10.00">+ operator ItgType()</text>
<text text-anchor="start" x="91.4403" y="-244.5" font-family="Helvetica,sans-Serif" font-size="10.00">+ runtimeInit()</text>
<text text-anchor="start" x="91.4403" y="-233.5" font-family="Helvetica,sans-Serif" font-size="10.00">+ operator==()</text>
<text text-anchor="start" x="91.4403" y="-222.5" font-family="Helvetica,sans-Serif" font-size="10.00">+ operator==()</text>
<text text-anchor="start" x="91.4403" y="-211.5" font-family="Helvetica,sans-Serif" font-size="10.00">+ operator&lt;()</text>
<text text-anchor="start" x="91.4403" y="-200.5" font-family="Helvetica,sans-Serif" font-size="10.00">+ operator!=()</text>
<text text-anchor="start" x="91.4403" y="-189.5" font-family="Helvetica,sans-Serif" font-size="10.00">+ operator!=()</text>
<text text-anchor="start" x="91.4403" y="-178.5" font-family="Helvetica,sans-Serif" font-size="10.00">+ as()</text>
<text text-anchor="start" x="91.4403" y="-167.5" font-family="Helvetica,sans-Serif" font-size="10.00">+ print()</text>
</a>
</g>
</g>
<!-- Node4&#45;&gt;Node11 -->
<g id="edge14" class="edge"><title>Node4&#45;&gt;Node11</title>
<path fill="none" stroke="#404040" d="M224.849,-757.766C184.92,-749.877 92.9789,-725.58 52.9403,-664 -10.8419,-565.902 -18.7894,-501.617 40.9403,-401 49.4685,-386.634 61.2715,-393.891 73.9403,-383 74.1402,-382.828 74.3399,-382.656 74.5394,-382.483"/>
<polygon fill="none" stroke="#404040" points="74.548,-382.475 76.2656,-375.471 83.3911,-374.363 81.6735,-381.367 74.548,-382.475"/>
<text text-anchor="middle" x="62.9403" y="-555.5" font-family="Helvetica,sans-Serif" font-size="10.00"> +itg</text>
</g>
<!-- Node5 -->
<g id="node5" class="node"><title>Node5</title>
<polygon fill="none" stroke="#bfbfbf" points="281.44,-733.5 281.44,-790.5 316.44,-790.5 316.44,-733.5 281.44,-733.5"/>
<text text-anchor="middle" x="298.94" y="-778.5" font-family="Helvetica,sans-Serif" font-size="10.00">char</text>
<polyline fill="none" stroke="#bfbfbf" points="281.44,-771.5 316.44,-771.5 "/>
<text text-anchor="middle" x="298.94" y="-759.5" font-family="Helvetica,sans-Serif" font-size="10.00"> </text>
<polyline fill="none" stroke="#bfbfbf" points="281.44,-752.5 316.44,-752.5 "/>
<text text-anchor="middle" x="298.94" y="-740.5" font-family="Helvetica,sans-Serif" font-size="10.00"> </text>
</g>
<!-- Node5&#45;&gt;Node3 -->
<g id="edge4" class="edge"><title>Node5&#45;&gt;Node3</title>
<path fill="none" stroke="#404040" d="M297.4,-733.476C294.213,-665.62 290.006,-492.859 326.94,-452 355.172,-420.768 393.148,-466.475 419.94,-434 429.298,-422.658 434.411,-409.202 436.624,-394.971"/>
<polygon fill="none" stroke="#404040" points="436.64,-394.804 433.255,-388.437 437.83,-382.864 441.215,-389.231 436.64,-394.804"/>
<text text-anchor="middle" x="337.44" y="-555.5" font-family="Helvetica,sans-Serif" font-size="10.00"> +str</text>
</g>
<!-- Node5&#45;&gt;Node8 -->
<g id="edge9" class="edge"><title>Node5&#45;&gt;Node8</title>
<path fill="none" stroke="#404040" d="M316.638,-749.061C327.993,-740.651 342.351,-728.513 351.94,-715 360.657,-702.716 368.381,-689.033 375.159,-675.018"/>
<polygon fill="none" stroke="#404040" points="375.346,-674.614 374.239,-667.488 380.391,-663.727 381.498,-670.852 375.346,-674.614"/>
<text text-anchor="middle" x="381.44" y="-696" font-family="Helvetica,sans-Serif" font-size="10.00"> +str</text>
</g>
<!-- Node5&#45;&gt;Node11 -->
<g id="edge15" class="edge"><title>Node5&#45;&gt;Node11</title>
<path fill="none" stroke="#404040" d="M281.418,-741.137C278.407,-738.234 275.195,-735.413 271.94,-733 217.814,-692.865 179.458,-716.275 136.94,-664 70.0633,-581.776 88.0663,-539.042 73.9403,-434 71.9856,-419.464 69.7536,-415.056 73.9403,-401 75.2926,-396.46 76.8619,-391.931 78.6118,-387.433"/>
<polygon fill="none" stroke="#404040" points="78.6342,-387.38 77.2896,-380.296 83.3122,-376.33 84.6567,-383.414 78.6342,-387.38"/>
<text text-anchor="middle" x="147.44" y="-555.5" font-family="Helvetica,sans-Serif" font-size="10.00"> +str</text>
</g>
<!-- Node6 -->
<g id="node6" class="node"><title>Node6</title>
<polygon fill="none" stroke="#bfbfbf" points="167.44,-529.5 167.44,-586.5 196.44,-586.5 196.44,-529.5 167.44,-529.5"/>
<text text-anchor="middle" x="181.94" y="-574.5" font-family="Helvetica,sans-Serif" font-size="10.00">int</text>
<polyline fill="none" stroke="#bfbfbf" points="167.44,-567.5 196.44,-567.5 "/>
<text text-anchor="middle" x="181.94" y="-555.5" font-family="Helvetica,sans-Serif" font-size="10.00"> </text>
<polyline fill="none" stroke="#bfbfbf" points="167.44,-548.5 196.44,-548.5 "/>
<text text-anchor="middle" x="181.94" y="-536.5" font-family="Helvetica,sans-Serif" font-size="10.00"> </text>
</g>
<!-- Node6&#45;&gt;Node3 -->
<g id="edge5" class="edge"><title>Node6&#45;&gt;Node3</title>
<path fill="none" stroke="#404040" d="M187.057,-529.306C192.901,-505.446 204.815,-471.81 227.94,-452 251.683,-431.661 269.625,-450.879 295.94,-434 313.207,-422.925 328.624,-408.218 342.116,-392.179"/>
<polygon fill="none" stroke="#404040" points="342.307,-391.942 342.957,-384.761 349.836,-382.599 349.186,-389.78 342.307,-391.942"/>
<text text-anchor="middle" x="358.44" y="-426" font-family="Helvetica,sans-Serif" font-size="10.00"> +arraySize</text>
<text text-anchor="middle" x="358.44" y="-415" font-family="Helvetica,sans-Serif" font-size="10.00">+size</text>
<text text-anchor="middle" x="358.44" y="-404" font-family="Helvetica,sans-Serif" font-size="10.00">+bitcount</text>
</g>
<!-- Node6&#45;&gt;Node11 -->
<g id="edge16" class="edge"><title>Node6&#45;&gt;Node11</title>
<path fill="none" stroke="#404040" d="M170.668,-529.179C160.248,-506.206 142.91,-473.926 119.94,-452 107.572,-440.194 94.7596,-448.648 85.9403,-434 76.0686,-417.604 75.275,-399.616 79.7236,-381.783"/>
<polygon fill="none" stroke="#404040" points="79.7923,-381.562 77.7577,-374.644 83.3612,-370.105 85.3957,-377.023 79.7923,-381.562"/>
<text text-anchor="middle" x="111.44" y="-426" font-family="Helvetica,sans-Serif" font-size="10.00"> +arraySize</text>
<text text-anchor="middle" x="111.44" y="-415" font-family="Helvetica,sans-Serif" font-size="10.00">+size</text>
<text text-anchor="middle" x="111.44" y="-404" font-family="Helvetica,sans-Serif" font-size="10.00">+bitcount</text>
</g>
<!-- Node7 -->
<g id="node7" class="node"><title>Node7</title>
<polygon fill="none" stroke="#bfbfbf" points="489.44,-733.5 489.44,-790.5 586.44,-790.5 586.44,-733.5 489.44,-733.5"/>
<text text-anchor="middle" x="537.94" y="-778.5" font-family="Helvetica,sans-Serif" font-size="10.00">anonymous:+@24</text>
<polyline fill="none" stroke="#bfbfbf" points="489.44,-771.5 586.44,-771.5 "/>
<text text-anchor="middle" x="537.94" y="-759.5" font-family="Helvetica,sans-Serif" font-size="10.00"> </text>
<polyline fill="none" stroke="#bfbfbf" points="489.44,-752.5 586.44,-752.5 "/>
<text text-anchor="middle" x="537.94" y="-740.5" font-family="Helvetica,sans-Serif" font-size="10.00"> </text>
</g>
<!-- Node7&#45;&gt;Node3 -->
<g id="edge6" class="edge"><title>Node7&#45;&gt;Node3</title>
<path fill="none" stroke="#404040" d="M551.161,-733.37C580.478,-667.617 642.325,-499.962 562.94,-401 541.938,-374.818 517.177,-398.785 483.05,-382.041"/>
<polygon fill="none" stroke="#404040" points="482.952,-381.983 475.749,-382.324 472.664,-375.806 479.867,-375.465 482.952,-381.983"/>
<text text-anchor="middle" x="617.44" y="-555.5" font-family="Helvetica,sans-Serif" font-size="10.00"> +@24</text>
</g>
<!-- Node7&#45;&gt;Node8 -->
<g id="edge10" class="edge"><title>Node7&#45;&gt;Node8</title>
<path fill="none" stroke="#404040" d="M508.171,-733.255C502.768,-727.497 497.429,-721.267 492.94,-715 483.854,-702.315 475.232,-688.435 467.253,-674.352"/>
<polygon fill="none" stroke="#404040" points="467.091,-674.058 460.686,-670.745 461.281,-663.559 467.686,-666.872 467.091,-674.058"/>
<text text-anchor="middle" x="508.44" y="-696" font-family="Helvetica,sans-Serif" font-size="10.00"> +@24</text>
</g>
<!-- Node7&#45;&gt;Node11 -->
<g id="edge17" class="edge"><title>Node7&#45;&gt;Node11</title>
<path fill="none" stroke="#404040" d="M540.508,-733.283C544.406,-674.761 545.345,-537.001 478.94,-452 478.426,-451.341 370.741,-401.238 369.94,-401 318.311,-385.668 294.545,-408.8 243.18,-382.728"/>
<polygon fill="none" stroke="#404040" points="243.022,-382.641 235.836,-383.237 232.522,-376.832 239.709,-376.237 243.022,-382.641"/>
<text text-anchor="middle" x="557.44" y="-555.5" font-family="Helvetica,sans-Serif" font-size="10.00"> +@24</text>
</g>
<!-- Node8&#45;&gt;Node3 -->
<g id="edge7" class="edge"><title>Node8&#45;&gt;Node3</title>
<path fill="none" stroke="orange" d="M443.81,-442.24C444.224,-439.473 444.602,-436.723 444.94,-434 447.007,-417.345 446.301,-399.868 443.983,-382.815"/>
<polygon fill="orange" stroke="orange" points="440.322,-441.884 442.162,-452.317 447.23,-443.013 440.322,-441.884"/>
<text text-anchor="start" x="446.94" y="-420.5" font-family="Helvetica,sans-Serif" font-size="10.00"> &lt; gSizeDataOriginString,</text>
<text text-anchor="middle" x="502.94" y="-409.5" font-family="Helvetica,sans-Serif" font-size="10.00"> printDataOrigin &gt;</text>
</g>
<!-- Node8&#45;&gt;Node11 -->
<g id="edge18" class="edge"><title>Node8&#45;&gt;Node11</title>
<path fill="none" stroke="orange" d="M349.66,-459.179C346.222,-456.555 342.649,-454.145 338.94,-452 303.566,-431.544 183.384,-464.276 155.94,-434 143.04,-419.769 137.187,-401.591 135.533,-382.596"/>
<polygon fill="orange" stroke="orange" points="347.513,-461.946 357.433,-465.666 351.998,-456.572 347.513,-461.946"/>
<text text-anchor="start" x="155.94" y="-420.5" font-family="Helvetica,sans-Serif" font-size="10.00"> &lt; gSizeDataDescriptionString,</text>
<text text-anchor="middle" x="223.94" y="-409.5" font-family="Helvetica,sans-Serif" font-size="10.00"> printDataDescription &gt;</text>
</g>
<!-- Node9 -->
<g id="node9" class="node"><title>Node9</title>
<polygon fill="none" stroke="#bfbfbf" points="397.44,-733.5 397.44,-790.5 438.44,-790.5 438.44,-733.5 397.44,-733.5"/>
<text text-anchor="middle" x="417.94" y="-778.5" font-family="Helvetica,sans-Serif" font-size="10.00">static</text>
<polyline fill="none" stroke="#bfbfbf" points="397.44,-771.5 438.44,-771.5 "/>
<text text-anchor="middle" x="417.94" y="-759.5" font-family="Helvetica,sans-Serif" font-size="10.00"> </text>
<polyline fill="none" stroke="#bfbfbf" points="397.44,-752.5 438.44,-752.5 "/>
<text text-anchor="middle" x="417.94" y="-740.5" font-family="Helvetica,sans-Serif" font-size="10.00"> </text>
</g>
<!-- Node9&#45;&gt;Node8 -->
<g id="edge11" class="edge"><title>Node9&#45;&gt;Node8</title>
<path fill="none" stroke="#404040" d="M417.393,-733.336C417.086,-717.838 416.68,-697.34 416.254,-675.861"/>
<polygon fill="none" stroke="#404040" points="416.254,-675.85 412.136,-669.931 416.017,-663.853 420.135,-669.772 416.254,-675.85"/>
<text text-anchor="middle" x="443.44" y="-707" font-family="Helvetica,sans-Serif" font-size="10.00"> +arraySize</text>
<text text-anchor="middle" x="443.44" y="-696" font-family="Helvetica,sans-Serif" font-size="10.00">+size</text>
<text text-anchor="middle" x="443.44" y="-685" font-family="Helvetica,sans-Serif" font-size="10.00">+bitcount</text>
</g>
<!-- Node10 -->
<g id="node10" class="node"><title>Node10</title>
<polygon fill="none" stroke="#bfbfbf" points="250.94,-243 250.94,-300 328.94,-300 328.94,-243 250.94,-243"/>
<text text-anchor="middle" x="289.94" y="-288" font-family="Helvetica,sans-Serif" font-size="10.00">enum Lifetime</text>
<polyline fill="none" stroke="#bfbfbf" points="250.94,-281 328.94,-281 "/>
<text text-anchor="middle" x="289.94" y="-269" font-family="Helvetica,sans-Serif" font-size="10.00"> </text>
<polyline fill="none" stroke="#bfbfbf" points="250.94,-262 328.94,-262 "/>
<text text-anchor="middle" x="289.94" y="-250" font-family="Helvetica,sans-Serif" font-size="10.00"> </text>
</g>
<!-- Node10&#45;&gt;Node1 -->
<g id="edge12" class="edge"><title>Node10&#45;&gt;Node1</title>
<path fill="none" stroke="#404040" d="M289.94,-242.654C289.94,-212.915 289.94,-164.69 289.94,-124.912"/>
<polygon fill="none" stroke="#404040" points="289.94,-124.868 285.94,-118.868 289.94,-112.868 293.94,-118.868 289.94,-124.868"/>
<text text-anchor="middle" x="310.44" y="-134" font-family="Helvetica,sans-Serif" font-size="10.00"> +lifetime</text>
</g>
<!-- Node11&#45;&gt;Node1 -->
<g id="edge13" class="edge"><title>Node11&#45;&gt;Node1</title>
<path fill="none" stroke="#404040" d="M211.105,-160.286C216.836,-150.214 222.818,-140.309 228.94,-131 230.82,-128.142 232.792,-125.268 234.831,-122.399"/>
<polygon fill="none" stroke="#404040" points="234.862,-122.355 235.197,-115.152 241.976,-112.691 241.641,-119.894 234.862,-122.355"/>
<text text-anchor="middle" x="257.44" y="-134" font-family="Helvetica,sans-Serif" font-size="10.00"> +description</text>
</g>
<!-- Node12 -->
<g id="node12" class="node"><title>Node12</title>
<g id="a_node12"><a xlink:href="../../d0/d66/structo2_1_1header_1_1Stack.html" target="_top" xlink:title="a move&#45;only header stack with serialized headers This is the flat buffer where all the headers in a m...">
<polygon fill="none" stroke="black" points="490.94,-160.5 490.94,-382.5 584.94,-382.5 584.94,-160.5 490.94,-160.5"/>
<text text-anchor="middle" x="537.94" y="-370.5" font-family="Helvetica,sans-Serif" font-size="10.00">o2::header::Stack</text>
<polyline fill="none" stroke="black" points="490.94,-363.5 584.94,-363.5 "/>
<text text-anchor="middle" x="537.94" y="-351.5" font-family="Helvetica,sans-Serif" font-size="10.00"> </text>
<polyline fill="none" stroke="black" points="490.94,-344.5 584.94,-344.5 "/>
<text text-anchor="start" x="498.94" y="-332.5" font-family="Helvetica,sans-Serif" font-size="10.00">+ Stack()</text>
<text text-anchor="start" x="498.94" y="-321.5" font-family="Helvetica,sans-Serif" font-size="10.00">+ Stack()</text>
<text text-anchor="start" x="498.94" y="-310.5" font-family="Helvetica,sans-Serif" font-size="10.00">+ Stack()</text>
<text text-anchor="start" x="498.94" y="-299.5" font-family="Helvetica,sans-Serif" font-size="10.00">+ operator=()</text>
<text text-anchor="start" x="498.94" y="-288.5" font-family="Helvetica,sans-Serif" font-size="10.00">+ operator=()</text>
<text text-anchor="start" x="498.94" y="-277.5" font-family="Helvetica,sans-Serif" font-size="10.00">+ data()</text>
<text text-anchor="start" x="498.94" y="-266.5" font-family="Helvetica,sans-Serif" font-size="10.00">+ size()</text>
<text text-anchor="start" x="498.94" y="-255.5" font-family="Helvetica,sans-Serif" font-size="10.00">+ get_allocator()</text>
<text text-anchor="start" x="498.94" y="-244.5" font-family="Helvetica,sans-Serif" font-size="10.00">+ first()</text>
<text text-anchor="start" x="498.94" y="-233.5" font-family="Helvetica,sans-Serif" font-size="10.00">+ Stack()</text>
<text text-anchor="start" x="498.94" y="-222.5" font-family="Helvetica,sans-Serif" font-size="10.00">+ Stack()</text>
<text text-anchor="start" x="498.94" y="-211.5" font-family="Helvetica,sans-Serif" font-size="10.00">+ firstHeader()</text>
<text text-anchor="start" x="498.94" y="-200.5" font-family="Helvetica,sans-Serif" font-size="10.00">+ lastHeader()</text>
<text text-anchor="start" x="498.94" y="-189.5" font-family="Helvetica,sans-Serif" font-size="10.00">+ calculateSize()</text>
<text text-anchor="start" x="498.94" y="-178.5" font-family="Helvetica,sans-Serif" font-size="10.00">+ calculateSize()</text>
<text text-anchor="start" x="498.94" y="-167.5" font-family="Helvetica,sans-Serif" font-size="10.00">+ calculateSize()</text>
</a>
</g>
</g>
<!-- Node12&#45;&gt;Node1 -->
<g id="edge19" class="edge"><title>Node12&#45;&gt;Node1</title>
<path fill="none" stroke="#404040" d="M490.891,-171.311C487.739,-167.334 484.422,-163.539 480.94,-160 446.636,-125.132 397.93,-99.2482 358.29,-82.2137"/>
<polygon fill="none" stroke="#404040" points="358.175,-82.1657 351.096,-83.5411 347.104,-77.5358 354.182,-76.1605 358.175,-82.1657"/>
<text text-anchor="middle" x="491.44" y="-134" font-family="Helvetica,sans-Serif" font-size="10.00"> +metaHeader</text>
</g>
</g>
</svg>
