<?xml version="1.0" encoding="UTF-8" standalone="no"?>
<!DOCTYPE svg PUBLIC "-//W3C//DTD SVG 1.1//EN"
 "http://www.w3.org/Graphics/SVG/1.1/DTD/svg11.dtd">
<!-- Generated by graphviz version 2.38.0 (20140413.2041)
 -->
<!-- Title: o2::framework::RootTreeWriter::BranchDef&lt; T, KeyType, KeyExtractor &gt; Pages: 1 -->
<svg width="481pt" height="237pt"
 viewBox="0.00 0.00 481.00 237.00" xmlns="http://www.w3.org/2000/svg" xmlns:xlink="http://www.w3.org/1999/xlink">
<g id="graph0" class="graph" transform="scale(1 1) rotate(0) translate(4 233)">
<title>o2::framework::RootTreeWriter::BranchDef&lt; T, KeyType, KeyExtractor &gt;</title>
<!-- Node1 -->
<g id="node1" class="node"><title>Node1</title>
<polygon fill="#bfbfbf" stroke="black" points="154.5,-0.5 154.5,-101.5 306.5,-101.5 306.5,-0.5 154.5,-0.5"/>
<text text-anchor="start" x="162.5" y="-89.5" font-family="Helvetica,sans-Serif" font-size="10.00">o2::framework::RootTreeWriter</text>
<text text-anchor="start" x="162.5" y="-78.5" font-family="Helvetica,sans-Serif" font-size="10.00">::BranchDef&lt; T, KeyType,</text>
<text text-anchor="middle" x="230.5" y="-67.5" font-family="Helvetica,sans-Serif" font-size="10.00"> KeyExtractor &gt;</text>
<polyline fill="none" stroke="black" points="154.5,-60.5 306.5,-60.5 "/>
<text text-anchor="middle" x="230.5" y="-48.5" font-family="Helvetica,sans-Serif" font-size="10.00"> </text>
<polyline fill="none" stroke="black" points="154.5,-41.5 306.5,-41.5 "/>
<text text-anchor="start" x="162.5" y="-29.5" font-family="Helvetica,sans-Serif" font-size="10.00">+ BranchDef()</text>
<text text-anchor="start" x="162.5" y="-18.5" font-family="Helvetica,sans-Serif" font-size="10.00">+ BranchDef()</text>
<text text-anchor="start" x="162.5" y="-7.5" font-family="Helvetica,sans-Serif" font-size="10.00">+ BranchDef()</text>
</g>
<!-- Node2 -->
<g id="node2" class="node"><title>Node2</title>
<polygon fill="none" stroke="#bfbfbf" points="0,-160.5 0,-217.5 101,-217.5 101,-160.5 0,-160.5"/>
<text text-anchor="middle" x="50.5" y="-205.5" font-family="Helvetica,sans-Serif" font-size="10.00">vector&lt; key_type &gt;</text>
<polyline fill="none" stroke="#bfbfbf" points="0,-198.5 101,-198.5 "/>
<text text-anchor="middle" x="50.5" y="-186.5" font-family="Helvetica,sans-Serif" font-size="10.00"> </text>
<polyline fill="none" stroke="#bfbfbf" points="0,-179.5 101,-179.5 "/>
<text text-anchor="middle" x="50.5" y="-167.5" font-family="Helvetica,sans-Serif" font-size="10.00"> </text>
</g>
<!-- Node2&#45;&gt;Node1 -->
<g id="edge1" class="edge"><title>Node2&#45;&gt;Node1</title>
<path fill="none" stroke="#404040" d="M76.6208,-160.468C89.5489,-147.513 105.734,-132.256 121.5,-120 128.743,-114.369 136.473,-108.793 144.345,-103.398"/>
<polygon fill="none" stroke="#404040" points="144.404,-103.358 147.157,-96.6934 154.368,-96.6711 151.615,-103.336 144.404,-103.358"/>
<text text-anchor="middle" x="137" y="-123" font-family="Helvetica,sans-Serif" font-size="10.00"> +keys</text>
</g>
<!-- Node3 -->
<g id="node3" class="node"><title>Node3</title>
<polygon fill="none" stroke="#bfbfbf" points="119,-160.5 119,-217.5 160,-217.5 160,-160.5 119,-160.5"/>
<text text-anchor="middle" x="139.5" y="-205.5" font-family="Helvetica,sans-Serif" font-size="10.00">string</text>
<polyline fill="none" stroke="#bfbfbf" points="119,-198.5 160,-198.5 "/>
<text text-anchor="middle" x="139.5" y="-186.5" font-family="Helvetica,sans-Serif" font-size="10.00"> </text>
<polyline fill="none" stroke="#bfbfbf" points="119,-179.5 160,-179.5 "/>
<text text-anchor="middle" x="139.5" y="-167.5" font-family="Helvetica,sans-Serif" font-size="10.00"> </text>
</g>
<!-- Node3&#45;&gt;Node1 -->
<g id="edge2" class="edge"><title>Node3&#45;&gt;Node1</title>
<path fill="none" stroke="#404040" d="M145.262,-160.223C148.717,-147.36 153.942,-132.25 161.5,-120 163.321,-117.048 165.297,-114.13 167.391,-111.26"/>
<polygon fill="none" stroke="#404040" points="167.487,-111.137 168.055,-103.948 174.909,-101.707 174.341,-108.895 167.487,-111.137"/>
<text text-anchor="middle" x="194" y="-123" font-family="Helvetica,sans-Serif" font-size="10.00"> +branchName</text>
</g>
<!-- Node4 -->
<g id="node4" class="node"><title>Node4</title>
<polygon fill="none" stroke="#bfbfbf" points="178.5,-155 178.5,-223 282.5,-223 282.5,-155 178.5,-155"/>
<text text-anchor="start" x="186.5" y="-211" font-family="Helvetica,sans-Serif" font-size="10.00">function&lt; std::string</text>
<text text-anchor="middle" x="230.5" y="-200" font-family="Helvetica,sans-Serif" font-size="10.00">(std::string, size_t)&gt;</text>
<polyline fill="none" stroke="#bfbfbf" points="178.5,-193 282.5,-193 "/>
<text text-anchor="middle" x="230.5" y="-181" font-family="Helvetica,sans-Serif" font-size="10.00"> </text>
<polyline fill="none" stroke="#bfbfbf" points="178.5,-174 282.5,-174 "/>
<text text-anchor="middle" x="230.5" y="-162" font-family="Helvetica,sans-Serif" font-size="10.00"> </text>
</g>
<!-- Node4&#45;&gt;Node1 -->
<g id="edge3" class="edge"><title>Node4&#45;&gt;Node1</title>
<path fill="none" stroke="#404040" d="M230.5,-154.731C230.5,-142.384 230.5,-127.949 230.5,-113.868"/>
<polygon fill="none" stroke="#404040" points="230.5,-113.646 226.5,-107.646 230.5,-101.646 234.5,-107.646 230.5,-113.646"/>
<text text-anchor="middle" x="255" y="-123" font-family="Helvetica,sans-Serif" font-size="10.00"> +getName</text>
</g>
<!-- Node5 -->
<g id="node5" class="node"><title>Node5</title>
<polygon fill="none" stroke="#bfbfbf" points="301,-149.5 301,-228.5 412,-228.5 412,-149.5 301,-149.5"/>
<text text-anchor="start" x="309" y="-216.5" font-family="Helvetica,sans-Serif" font-size="10.00">function&lt; size_t(o2</text>
<text text-anchor="start" x="309" y="-205.5" font-family="Helvetica,sans-Serif" font-size="10.00">::framework::DataRef</text>
<text text-anchor="middle" x="356.5" y="-194.5" font-family="Helvetica,sans-Serif" font-size="10.00"> const &amp;)&gt;</text>
<polyline fill="none" stroke="#bfbfbf" points="301,-187.5 412,-187.5 "/>
<text text-anchor="middle" x="356.5" y="-175.5" font-family="Helvetica,sans-Serif" font-size="10.00"> </text>
<polyline fill="none" stroke="#bfbfbf" points="301,-168.5 412,-168.5 "/>
<text text-anchor="middle" x="356.5" y="-156.5" font-family="Helvetica,sans-Serif" font-size="10.00"> </text>
</g>
<!-- Node5&#45;&gt;Node1 -->
<g id="edge4" class="edge"><title>Node5&#45;&gt;Node1</title>
<path fill="none" stroke="#404040" d="M320.73,-149.392C309.617,-137.396 297.104,-123.89 285.015,-110.841"/>
<polygon fill="none" stroke="#404040" points="284.891,-110.708 277.879,-109.025 276.736,-101.905 283.748,-103.588 284.891,-110.708"/>
<text text-anchor="middle" x="325" y="-123" font-family="Helvetica,sans-Serif" font-size="10.00"> +getIndex</text>
</g>
<!-- Node6 -->
<g id="node6" class="node"><title>Node6</title>
<polygon fill="none" stroke="#bfbfbf" points="430,-160.5 430,-217.5 473,-217.5 473,-160.5 430,-160.5"/>
<text text-anchor="middle" x="451.5" y="-205.5" font-family="Helvetica,sans-Serif" font-size="10.00">size_t</text>
<polyline fill="none" stroke="#bfbfbf" points="430,-198.5 473,-198.5 "/>
<text text-anchor="middle" x="451.5" y="-186.5" font-family="Helvetica,sans-Serif" font-size="10.00"> </text>
<polyline fill="none" stroke="#bfbfbf" points="430,-179.5 473,-179.5 "/>
<text text-anchor="middle" x="451.5" y="-167.5" font-family="Helvetica,sans-Serif" font-size="10.00"> </text>
</g>
<!-- Node6&#45;&gt;Node1 -->
<g id="edge5" class="edge"><title>Node6&#45;&gt;Node1</title>
<path fill="none" stroke="#404040" d="M431.874,-160.201C428.354,-156.174 424.517,-152.286 420.5,-149 389.847,-123.926 351.653,-102.876 317.565,-86.8616"/>
<polygon fill="none" stroke="#404040" points="317.557,-86.8581 310.434,-87.9829 306.657,-81.8406 313.779,-80.7158 317.557,-86.8581"/>
<text text-anchor="middle" x="424.5" y="-123" font-family="Helvetica,sans-Serif" font-size="10.00"> +nofBranches</text>
</g>
</g>
</svg>
