<?xml version="1.0" encoding="UTF-8" standalone="no"?>
<!DOCTYPE svg PUBLIC "-//W3C//DTD SVG 1.1//EN"
 "http://www.w3.org/Graphics/SVG/1.1/DTD/svg11.dtd">
<!-- Generated by graphviz version 2.38.0 (20140413.2041)
 -->
<!-- Title: o2::itsmft::PreDigit Pages: 1 -->
<!--zoomable 766 -->
<svg id="main" version="1.1" xmlns="http://www.w3.org/2000/svg" xmlns:xlink="http://www.w3.org/1999/xlink" xml:space="preserve" onload="init(evt)">
<style type="text/css"><![CDATA[
.edge:hover path { stroke: red; }
.edge:hover polygon { stroke: red; fill: red; }
]]></style>
<script type="text/javascript"><![CDATA[
var edges = document.getElementsByTagName('g');
if (edges && edges.length) {
  for (var i=0;i<edges.length;i++) {
    if (edges[i].id.substr(0,4)=='edge') {
      edges[i].setAttribute('class','edge');
    }
  }
}
]]></script>
        <defs>
                <circle id="rim" cx="0" cy="0" r="7"/>
                <circle id="rim2" cx="0" cy="0" r="3.5"/>
                <g id="zoomPlus">
                        <use xlink:href="#rim" fill="#404040">
                                <set attributeName="fill" to="#808080" begin="zoomplus.mouseover" end="zoomplus.mouseout"/>
                        </use>
                        <path d="M-4,0h8M0,-4v8" fill="none" stroke="white" stroke-width="1.5" pointer-events="none"/>
                </g>
                <g id="zoomMin">
                        <use xlink:href="#rim" fill="#404040">
                                <set attributeName="fill" to="#808080" begin="zoomminus.mouseover" end="zoomminus.mouseout"/>
                        </use>
                        <path d="M-4,0h8" fill="none" stroke="white" stroke-width="1.5" pointer-events="none"/>
                </g>
                <g id="dirArrow">
                        <path fill="none" stroke="white" stroke-width="1.5" d="M0,-3.0v7 M-2.5,-0.5L0,-3.0L2.5,-0.5"/>
                </g>
               <g id="resetDef">
                       <use xlink:href="#rim2" fill="#404040">
                               <set attributeName="fill" to="#808080" begin="reset.mouseover" end="reset.mouseout"/>
                       </use>
               </g>
        </defs>

<script type="text/javascript">
var viewWidth = 359;
var viewHeight = 766;
var sectionId = 'dynsection-0';
</script>
<script xlink:href="../../svgpan.js"/>
<svg id="graph" class="graph">
<g id="viewport">
<title>o2::itsmft::PreDigit</title>
<!-- Node1 -->
<g id="node1" class="node"><title>Node1</title>
<polygon fill="#bfbfbf" stroke="black" points="176.059,-0.5 176.059,-68.5 275.059,-68.5 275.059,-0.5 176.059,-0.5"/>
<text text-anchor="middle" x="225.559" y="-56.5" font-family="Helvetica,sans-Serif" font-size="10.00">o2::itsmft::PreDigit</text>
<polyline fill="none" stroke="black" points="176.059,-49.5 275.059,-49.5 "/>
<text text-anchor="middle" x="225.559" y="-37.5" font-family="Helvetica,sans-Serif" font-size="10.00"> </text>
<polyline fill="none" stroke="black" points="176.059,-30.5 275.059,-30.5 "/>
<text text-anchor="start" x="184.059" y="-18.5" font-family="Helvetica,sans-Serif" font-size="10.00">+ PreDigit()</text>
<text text-anchor="start" x="184.059" y="-7.5" font-family="Helvetica,sans-Serif" font-size="10.00">+ ClassDefNV()</text>
</g>
<!-- Node2 -->
<g id="node2" class="node"><title>Node2</title>
<polygon fill="none" stroke="#bfbfbf" points="23.0587,-386.5 23.0587,-443.5 52.0587,-443.5 52.0587,-386.5 23.0587,-386.5"/>
<text text-anchor="middle" x="37.5587" y="-431.5" font-family="Helvetica,sans-Serif" font-size="10.00">int</text>
<polyline fill="none" stroke="#bfbfbf" points="23.0587,-424.5 52.0587,-424.5 "/>
<text text-anchor="middle" x="37.5587" y="-412.5" font-family="Helvetica,sans-Serif" font-size="10.00"> </text>
<polyline fill="none" stroke="#bfbfbf" points="23.0587,-405.5 52.0587,-405.5 "/>
<text text-anchor="middle" x="37.5587" y="-393.5" font-family="Helvetica,sans-Serif" font-size="10.00"> </text>
</g>
<!-- Node2&#45;&gt;Node1 -->
<g id="edge1" class="edge"><title>Node2&#45;&gt;Node1</title>
<path fill="none" stroke="#404040" d="M27.2194,-386.419C8.6934,-331.94 -23.5997,-208.736 28.5587,-127 58.1674,-80.6012 118.051,-57.367 164.063,-45.9657"/>
<polygon fill="none" stroke="#404040" points="164.346,-45.9001 169.285,-40.6461 176.035,-43.1846 171.095,-48.4386 164.346,-45.9001"/>
<text text-anchor="middle" x="48.0587" y="-159" font-family="Helvetica,sans-Serif" font-size="10.00"> +charge</text>
</g>
<!-- Node4 -->
<g id="node4" class="node"><title>Node4</title>
<g id="a_node4"><a xlink:href="../../d8/d6c/structo2_1_1itsmft_1_1PreDigitLabelRef.html" target="_top" xlink:title="{o2::itsmft::PreDigitLabelRef\n||+ PreDigitLabelRef()\l+ ClassDefNV()\l}">
<polygon fill="none" stroke="black" points="76.5587,-127.5 76.5587,-195.5 214.559,-195.5 214.559,-127.5 76.5587,-127.5"/>
<text text-anchor="middle" x="145.559" y="-183.5" font-family="Helvetica,sans-Serif" font-size="10.00">o2::itsmft::PreDigitLabelRef</text>
<polyline fill="none" stroke="black" points="76.5587,-176.5 214.559,-176.5 "/>
<text text-anchor="middle" x="145.559" y="-164.5" font-family="Helvetica,sans-Serif" font-size="10.00"> </text>
<polyline fill="none" stroke="black" points="76.5587,-157.5 214.559,-157.5 "/>
<text text-anchor="start" x="84.5587" y="-145.5" font-family="Helvetica,sans-Serif" font-size="10.00">+ PreDigitLabelRef()</text>
<text text-anchor="start" x="84.5587" y="-134.5" font-family="Helvetica,sans-Serif" font-size="10.00">+ ClassDefNV()</text>
</a>
</g>
</g>
<!-- Node2&#45;&gt;Node4 -->
<g id="edge4" class="edge"><title>Node2&#45;&gt;Node4</title>
<path fill="none" stroke="#404040" d="M40.0129,-386.29C43.9935,-351.298 53.9462,-289.995 77.5587,-243 84.2964,-229.59 93.6982,-216.509 103.365,-204.922"/>
<polygon fill="none" stroke="#404040" points="103.624,-204.624 104.54,-197.472 111.495,-195.567 110.579,-202.719 103.624,-204.624"/>
<text text-anchor="middle" x="108.559" y="-217" font-family="Helvetica,sans-Serif" font-size="10.00"> +next</text>
</g>
<!-- Node3 -->
<g id="node3" class="node"><title>Node3</title>
<polygon fill="none" stroke="#bfbfbf" points="232.559,-133 232.559,-190 288.559,-190 288.559,-133 232.559,-133"/>
<text text-anchor="middle" x="260.559" y="-178" font-family="Helvetica,sans-Serif" font-size="10.00">UShort_t</text>
<polyline fill="none" stroke="#bfbfbf" points="232.559,-171 288.559,-171 "/>
<text text-anchor="middle" x="260.559" y="-159" font-family="Helvetica,sans-Serif" font-size="10.00"> </text>
<polyline fill="none" stroke="#bfbfbf" points="232.559,-152 288.559,-152 "/>
<text text-anchor="middle" x="260.559" y="-140" font-family="Helvetica,sans-Serif" font-size="10.00"> </text>
</g>
<!-- Node3&#45;&gt;Node1 -->
<g id="edge2" class="edge"><title>Node3&#45;&gt;Node1</title>
<path fill="none" stroke="#404040" d="M252.791,-132.758C248.504,-117.447 243.074,-98.0553 238.193,-80.6227"/>
<polygon fill="none" stroke="#404040" points="238.158,-80.4968 232.688,-75.7976 234.922,-68.9412 240.392,-73.6405 238.158,-80.4968"/>
<text text-anchor="middle" x="256.559" y="-101" font-family="Helvetica,sans-Serif" font-size="10.00"> +col</text>
<text text-anchor="middle" x="256.559" y="-90" font-family="Helvetica,sans-Serif" font-size="10.00">+row</text>
</g>
<!-- Node4&#45;&gt;Node1 -->
<g id="edge3" class="edge"><title>Node4&#45;&gt;Node1</title>
<path fill="none" stroke="#404040" d="M165.998,-127.463C173.913,-114.769 183.093,-100.169 191.559,-87 193.291,-84.3048 195.083,-81.5366 196.897,-78.749"/>
<polygon fill="none" stroke="#404040" points="196.923,-78.709 196.86,-71.4981 203.492,-68.6667 203.555,-75.8776 196.923,-78.709"/>
<text text-anchor="middle" x="214.559" y="-95.5" font-family="Helvetica,sans-Serif" font-size="10.00"> +labelRef</text>
</g>
<!-- Node5 -->
<g id="node5" class="node"><title>Node5</title>
<g id="a_node5"><a xlink:href="../../de/def/classo2_1_1MCCompLabel.html" target="_top" xlink:title="{o2::MCCompLabel\n||+ MCCompLabel()\l+ MCCompLabel()\l+ ~MCCompLabel()\l+ isSet()\l+ isEmpty()\l+ isNoise()\l+ isValid()\l+ isFake()\l+ isCorrect()\l+ compare()\l+ operator ULong64_t()\l+ getRawValue()\l+ operator==()\l+ unset()\l+ setNoise()\l+ setFakeFlag()\l+ set()\l+ getTrackID()\l+ getTrackIDSigned()\l+ getEventID()\l+ getSourceID()\l+ get()\l+ print()\l+ ClassDefNV()\l+ maxSourceID()\l+ maxEventID()\l+ maxTrackID()\l}">
<polygon fill="none" stroke="black" points="87.0587,-243.5 87.0587,-586.5 204.059,-586.5 204.059,-243.5 87.0587,-243.5"/>
<text text-anchor="middle" x="145.559" y="-574.5" font-family="Helvetica,sans-Serif" font-size="10.00">o2::MCCompLabel</text>
<polyline fill="none" stroke="black" points="87.0587,-567.5 204.059,-567.5 "/>
<text text-anchor="middle" x="145.559" y="-555.5" font-family="Helvetica,sans-Serif" font-size="10.00"> </text>
<polyline fill="none" stroke="black" points="87.0587,-548.5 204.059,-548.5 "/>
<text text-anchor="start" x="95.0587" y="-536.5" font-family="Helvetica,sans-Serif" font-size="10.00">+ MCCompLabel()</text>
<text text-anchor="start" x="95.0587" y="-525.5" font-family="Helvetica,sans-Serif" font-size="10.00">+ MCCompLabel()</text>
<text text-anchor="start" x="95.0587" y="-514.5" font-family="Helvetica,sans-Serif" font-size="10.00">+ ~MCCompLabel()</text>
<text text-anchor="start" x="95.0587" y="-503.5" font-family="Helvetica,sans-Serif" font-size="10.00">+ isSet()</text>
<text text-anchor="start" x="95.0587" y="-492.5" font-family="Helvetica,sans-Serif" font-size="10.00">+ isEmpty()</text>
<text text-anchor="start" x="95.0587" y="-481.5" font-family="Helvetica,sans-Serif" font-size="10.00">+ isNoise()</text>
<text text-anchor="start" x="95.0587" y="-470.5" font-family="Helvetica,sans-Serif" font-size="10.00">+ isValid()</text>
<text text-anchor="start" x="95.0587" y="-459.5" font-family="Helvetica,sans-Serif" font-size="10.00">+ isFake()</text>
<text text-anchor="start" x="95.0587" y="-448.5" font-family="Helvetica,sans-Serif" font-size="10.00">+ isCorrect()</text>
<text text-anchor="start" x="95.0587" y="-437.5" font-family="Helvetica,sans-Serif" font-size="10.00">+ compare()</text>
<text text-anchor="start" x="95.0587" y="-426.5" font-family="Helvetica,sans-Serif" font-size="10.00">+ operator ULong64_t()</text>
<text text-anchor="start" x="95.0587" y="-415.5" font-family="Helvetica,sans-Serif" font-size="10.00">+ getRawValue()</text>
<text text-anchor="start" x="95.0587" y="-404.5" font-family="Helvetica,sans-Serif" font-size="10.00">+ operator==()</text>
<text text-anchor="start" x="95.0587" y="-393.5" font-family="Helvetica,sans-Serif" font-size="10.00">+ unset()</text>
<text text-anchor="start" x="95.0587" y="-382.5" font-family="Helvetica,sans-Serif" font-size="10.00">+ setNoise()</text>
<text text-anchor="start" x="95.0587" y="-371.5" font-family="Helvetica,sans-Serif" font-size="10.00">+ setFakeFlag()</text>
<text text-anchor="start" x="95.0587" y="-360.5" font-family="Helvetica,sans-Serif" font-size="10.00">+ set()</text>
<text text-anchor="start" x="95.0587" y="-349.5" font-family="Helvetica,sans-Serif" font-size="10.00">+ getTrackID()</text>
<text text-anchor="start" x="95.0587" y="-338.5" font-family="Helvetica,sans-Serif" font-size="10.00">+ getTrackIDSigned()</text>
<text text-anchor="start" x="95.0587" y="-327.5" font-family="Helvetica,sans-Serif" font-size="10.00">+ getEventID()</text>
<text text-anchor="start" x="95.0587" y="-316.5" font-family="Helvetica,sans-Serif" font-size="10.00">+ getSourceID()</text>
<text text-anchor="start" x="95.0587" y="-305.5" font-family="Helvetica,sans-Serif" font-size="10.00">+ get()</text>
<text text-anchor="start" x="95.0587" y="-294.5" font-family="Helvetica,sans-Serif" font-size="10.00">+ print()</text>
<text text-anchor="start" x="95.0587" y="-283.5" font-family="Helvetica,sans-Serif" font-size="10.00">+ ClassDefNV()</text>
<text text-anchor="start" x="95.0587" y="-272.5" font-family="Helvetica,sans-Serif" font-size="10.00">+ maxSourceID()</text>
<text text-anchor="start" x="95.0587" y="-261.5" font-family="Helvetica,sans-Serif" font-size="10.00">+ maxEventID()</text>
<text text-anchor="start" x="95.0587" y="-250.5" font-family="Helvetica,sans-Serif" font-size="10.00">+ maxTrackID()</text>
</a>
</g>
</g>
<!-- Node5&#45;&gt;Node4 -->
<g id="edge5" class="edge"><title>Node5&#45;&gt;Node4</title>
<path fill="none" stroke="#404040" d="M145.559,-243.461C145.559,-230.755 145.559,-218.752 145.559,-208.072"/>
<polygon fill="none" stroke="#404040" points="145.559,-207.743 141.559,-201.743 145.559,-195.743 149.559,-201.743 145.559,-207.743"/>
<text text-anchor="middle" x="160.559" y="-217" font-family="Helvetica,sans-Serif" font-size="10.00"> +label</text>
</g>
<!-- Node6 -->
<g id="node6" class="node"><title>Node6</title>
<polygon fill="none" stroke="#bfbfbf" points="125.059,-700.5 125.059,-757.5 166.059,-757.5 166.059,-700.5 125.059,-700.5"/>
<text text-anchor="middle" x="145.559" y="-745.5" font-family="Helvetica,sans-Serif" font-size="10.00">static</text>
<polyline fill="none" stroke="#bfbfbf" points="125.059,-738.5 166.059,-738.5 "/>
<text text-anchor="middle" x="145.559" y="-726.5" font-family="Helvetica,sans-Serif" font-size="10.00"> </text>
<polyline fill="none" stroke="#bfbfbf" points="125.059,-719.5 166.059,-719.5 "/>
<text text-anchor="middle" x="145.559" y="-707.5" font-family="Helvetica,sans-Serif" font-size="10.00"> </text>
</g>
<!-- Node6&#45;&gt;Node5 -->
<g id="edge6" class="edge"><title>Node6&#45;&gt;Node5</title>
<path fill="none" stroke="#404040" d="M145.559,-700.312C145.559,-676.135 145.559,-638.765 145.559,-598.98"/>
<polygon fill="none" stroke="#404040" points="145.559,-598.853 141.559,-592.853 145.559,-586.853 149.559,-592.853 145.559,-598.853"/>
<text text-anchor="middle" x="178.559" y="-674" font-family="Helvetica,sans-Serif" font-size="10.00"> +nbitsSrcID</text>
<text text-anchor="middle" x="178.559" y="-663" font-family="Helvetica,sans-Serif" font-size="10.00">+maskFull</text>
<text text-anchor="middle" x="178.559" y="-652" font-family="Helvetica,sans-Serif" font-size="10.00">+nbitsTrackID</text>
<text text-anchor="middle" x="178.559" y="-641" font-family="Helvetica,sans-Serif" font-size="10.00">+nbitsEvID</text>
<text text-anchor="middle" x="178.559" y="-630" font-family="Helvetica,sans-Serif" font-size="10.00">+maskSrcID</text>
<text text-anchor="middle" x="178.559" y="-619" font-family="Helvetica,sans-Serif" font-size="10.00">+maskEvID</text>
<text text-anchor="middle" x="178.559" y="-608" font-family="Helvetica,sans-Serif" font-size="10.00">+maskTrackID</text>
</g>
<!-- Node7 -->
<g id="node7" class="node"><title>Node7</title>
<polygon fill="none" stroke="#bfbfbf" points="306.559,-133 306.559,-190 350.559,-190 350.559,-133 306.559,-133"/>
<text text-anchor="middle" x="328.559" y="-178" font-family="Helvetica,sans-Serif" font-size="10.00">UInt_t</text>
<polyline fill="none" stroke="#bfbfbf" points="306.559,-171 350.559,-171 "/>
<text text-anchor="middle" x="328.559" y="-159" font-family="Helvetica,sans-Serif" font-size="10.00"> </text>
<polyline fill="none" stroke="#bfbfbf" points="306.559,-152 350.559,-152 "/>
<text text-anchor="middle" x="328.559" y="-140" font-family="Helvetica,sans-Serif" font-size="10.00"> </text>
</g>
<!-- Node7&#45;&gt;Node1 -->
<g id="edge7" class="edge"><title>Node7&#45;&gt;Node1</title>
<path fill="none" stroke="#404040" d="M307.888,-132.917C297.257,-118.972 283.958,-101.891 271.559,-87 269.066,-84.0059 266.464,-80.9419 263.822,-77.8742"/>
<polygon fill="none" stroke="#404040" points="263.73,-77.7683 256.771,-75.8763 255.841,-68.7254 262.8,-70.6174 263.73,-77.7683"/>
<text text-anchor="middle" x="311.559" y="-95.5" font-family="Helvetica,sans-Serif" font-size="10.00"> +roFrame</text>
</g>
</g>
</svg>
        <g id="navigator" transform="translate(0 0)" fill="#404254">
                <rect fill="#f2f5e9" fill-opacity="0.5" stroke="#606060" stroke-width=".5" x="0" y="0" width="60" height="60"/>
                <use id="zoomplus" xlink:href="#zoomPlus" x="17" y="9" onmousedown="handleZoom(evt,'in')"/>
                <use id="zoomminus" xlink:href="#zoomMin" x="42" y="9" onmousedown="handleZoom(evt,'out')"/>
                <use id="reset" xlink:href="#resetDef" x="30" y="36" onmousedown="handleReset()"/>
                <g id="arrowUp" xlink:href="#dirArrow" transform="translate(30 24)" onmousedown="handlePan(0,-1)">
                  <use xlink:href="#rim" fill="#404040">
                        <set attributeName="fill" to="#808080" begin="arrowUp.mouseover" end="arrowUp.mouseout"/>
                  </use>
                  <path fill="none" stroke="white" stroke-width="1.5" d="M0,-3.0v7 M-2.5,-0.5L0,-3.0L2.5,-0.5"/>
                </g>
                <g id="arrowRight" xlink:href="#dirArrow" transform="rotate(90) translate(36 -43)" onmousedown="handlePan(1,0)">
                  <use xlink:href="#rim" fill="#404040">
                        <set attributeName="fill" to="#808080" begin="arrowRight.mouseover" end="arrowRight.mouseout"/>
                  </use>
                  <path fill="none" stroke="white" stroke-width="1.5" d="M0,-3.0v7 M-2.5,-0.5L0,-3.0L2.5,-0.5"/>
                </g>
                <g id="arrowDown" xlink:href="#dirArrow" transform="rotate(180) translate(-30 -48)" onmousedown="handlePan(0,1)">
                  <use xlink:href="#rim" fill="#404040">
                        <set attributeName="fill" to="#808080" begin="arrowDown.mouseover" end="arrowDown.mouseout"/>
                  </use>
                  <path fill="none" stroke="white" stroke-width="1.5" d="M0,-3.0v7 M-2.5,-0.5L0,-3.0L2.5,-0.5"/>
                </g>
                <g id="arrowLeft" xlink:href="#dirArrow" transform="rotate(270) translate(-36 17)" onmousedown="handlePan(-1,0)">
                  <use xlink:href="#rim" fill="#404040">
                        <set attributeName="fill" to="#808080" begin="arrowLeft.mouseover" end="arrowLeft.mouseout"/>
                  </use>
                  <path fill="none" stroke="white" stroke-width="1.5" d="M0,-3.0v7 M-2.5,-0.5L0,-3.0L2.5,-0.5"/>
                </g>
        </g>
        <svg viewBox="0 0 15 15" width="100%" height="30px" preserveAspectRatio="xMaxYMin meet">
         <g id="arrow_out" transform="scale(0.3 0.3)">
          <a xlink:href="structo2_1_1itsmft_1_1PreDigit__coll__graph_org.svg" target="_base">
           <rect id="button" ry="5" rx="5" y="6" x="6" height="38" width="38"
                fill="#f2f5e9" fill-opacity="0.5" stroke="#606060" stroke-width="1.0"/>
           <path id="arrow"
             d="M 11.500037,31.436501 C 11.940474,20.09759 22.043105,11.32322 32.158766,21.979434 L 37.068811,17.246167 C 37.068811,17.246167 37.088388,32 37.088388,32 L 22.160133,31.978069 C 22.160133,31.978069 26.997745,27.140456 26.997745,27.140456 C 18.528582,18.264221 13.291696,25.230495 11.500037,31.436501 z"
             style="fill:#404040;"/>
          </a>
         </g>
        </svg>
</svg>
