<?xml version="1.0" encoding="UTF-8" standalone="no"?>
<!DOCTYPE svg PUBLIC "-//W3C//DTD SVG 1.1//EN"
 "http://www.w3.org/Graphics/SVG/1.1/DTD/svg11.dtd">
<!-- Generated by graphviz version 2.38.0 (20140413.2041)
 -->
<!-- Title: GPUCA_NAMESPACE::gpu::GPUDisplayBackend Pages: 1 -->
<!--zoomable 820 -->
<svg id="main" version="1.1" xmlns="http://www.w3.org/2000/svg" xmlns:xlink="http://www.w3.org/1999/xlink" xml:space="preserve" onload="init(evt)">
<style type="text/css"><![CDATA[
.edge:hover path { stroke: red; }
.edge:hover polygon { stroke: red; fill: red; }
]]></style>
<script type="text/javascript"><![CDATA[
var edges = document.getElementsByTagName('g');
if (edges && edges.length) {
  for (var i=0;i<edges.length;i++) {
    if (edges[i].id.substr(0,4)=='edge') {
      edges[i].setAttribute('class','edge');
    }
  }
}
]]></script>
        <defs>
                <circle id="rim" cx="0" cy="0" r="7"/>
                <circle id="rim2" cx="0" cy="0" r="3.5"/>
                <g id="zoomPlus">
                        <use xlink:href="#rim" fill="#404040">
                                <set attributeName="fill" to="#808080" begin="zoomplus.mouseover" end="zoomplus.mouseout"/>
                        </use>
                        <path d="M-4,0h8M0,-4v8" fill="none" stroke="white" stroke-width="1.5" pointer-events="none"/>
                </g>
                <g id="zoomMin">
                        <use xlink:href="#rim" fill="#404040">
                                <set attributeName="fill" to="#808080" begin="zoomminus.mouseover" end="zoomminus.mouseout"/>
                        </use>
                        <path d="M-4,0h8" fill="none" stroke="white" stroke-width="1.5" pointer-events="none"/>
                </g>
                <g id="dirArrow">
                        <path fill="none" stroke="white" stroke-width="1.5" d="M0,-3.0v7 M-2.5,-0.5L0,-3.0L2.5,-0.5"/>
                </g>
               <g id="resetDef">
                       <use xlink:href="#rim2" fill="#404040">
                               <set attributeName="fill" to="#808080" begin="reset.mouseover" end="reset.mouseout"/>
                       </use>
               </g>
        </defs>

<script type="text/javascript">
var viewWidth = 481;
var viewHeight = 820;
var sectionId = 'dynsection-1';
</script>
<script xlink:href="../../svgpan.js"/>
<svg id="graph" class="graph">
<g id="viewport">
<title>GPUCA_NAMESPACE::gpu::GPUDisplayBackend</title>
<!-- Node1 -->
<g id="node1" class="node"><title>Node1</title>
<polygon fill="#bfbfbf" stroke="black" points="141,-0.5 141,-453.5 284,-453.5 284,-0.5 141,-0.5"/>
<text text-anchor="start" x="149" y="-441.5" font-family="Helvetica,sans-Serif" font-size="10.00">GPUCA_NAMESPACE::gpu</text>
<text text-anchor="middle" x="212.5" y="-430.5" font-family="Helvetica,sans-Serif" font-size="10.00">::GPUDisplayBackend</text>
<polyline fill="none" stroke="black" points="141,-423.5 284,-423.5 "/>
<text text-anchor="start" x="149" y="-411.5" font-family="Helvetica,sans-Serif" font-size="10.00"># INIT_WIDTH</text>
<text text-anchor="start" x="149" y="-400.5" font-family="Helvetica,sans-Serif" font-size="10.00"># GL_WINDOW_NAME</text>
<text text-anchor="start" x="149" y="-389.5" font-family="Helvetica,sans-Serif" font-size="10.00"># KEY_LEFT</text>
<text text-anchor="start" x="149" y="-378.5" font-family="Helvetica,sans-Serif" font-size="10.00"># KEY_RIGHT</text>
<text text-anchor="start" x="149" y="-367.5" font-family="Helvetica,sans-Serif" font-size="10.00"># KEY_PAGEUP</text>
<text text-anchor="start" x="149" y="-356.5" font-family="Helvetica,sans-Serif" font-size="10.00"># KEY_PAGEDOWN</text>
<text text-anchor="start" x="149" y="-345.5" font-family="Helvetica,sans-Serif" font-size="10.00"># KEY_SHIFT</text>
<text text-anchor="start" x="149" y="-334.5" font-family="Helvetica,sans-Serif" font-size="10.00"># KEY_ALT</text>
<text text-anchor="start" x="149" y="-323.5" font-family="Helvetica,sans-Serif" font-size="10.00"># KEY_CTRL</text>
<text text-anchor="start" x="149" y="-312.5" font-family="Helvetica,sans-Serif" font-size="10.00"># KEY_F1</text>
<text text-anchor="start" x="149" y="-301.5" font-family="Helvetica,sans-Serif" font-size="10.00"># KEY_F2</text>
<text text-anchor="start" x="149" y="-290.5" font-family="Helvetica,sans-Serif" font-size="10.00"># KEY_F3</text>
<text text-anchor="start" x="149" y="-279.5" font-family="Helvetica,sans-Serif" font-size="10.00"># KEY_F10</text>
<text text-anchor="start" x="149" y="-268.5" font-family="Helvetica,sans-Serif" font-size="10.00"># KEY_F11</text>
<text text-anchor="start" x="149" y="-257.5" font-family="Helvetica,sans-Serif" font-size="10.00"># KEY_F12</text>
<text text-anchor="start" x="149" y="-246.5" font-family="Helvetica,sans-Serif" font-size="10.00"># KEY_HOME</text>
<text text-anchor="start" x="149" y="-235.5" font-family="Helvetica,sans-Serif" font-size="10.00"># KEY_END</text>
<text text-anchor="start" x="149" y="-224.5" font-family="Helvetica,sans-Serif" font-size="10.00"># KEY_INSERT</text>
<text text-anchor="start" x="149" y="-213.5" font-family="Helvetica,sans-Serif" font-size="10.00"># KEY_ESCAPE</text>
<text text-anchor="start" x="149" y="-202.5" font-family="Helvetica,sans-Serif" font-size="10.00"># KEY_ENTER</text>
<polyline fill="none" stroke="black" points="141,-195.5 284,-195.5 "/>
<text text-anchor="start" x="149" y="-183.5" font-family="Helvetica,sans-Serif" font-size="10.00">+ GPUDisplayBackend()</text>
<text text-anchor="start" x="149" y="-172.5" font-family="Helvetica,sans-Serif" font-size="10.00">+ ~GPUDisplayBackend()</text>
<text text-anchor="start" x="149" y="-161.5" font-family="Helvetica,sans-Serif" font-size="10.00">+ StartDisplay()</text>
<text text-anchor="start" x="149" y="-150.5" font-family="Helvetica,sans-Serif" font-size="10.00">+ DisplayExit()</text>
<text text-anchor="start" x="149" y="-139.5" font-family="Helvetica,sans-Serif" font-size="10.00">+ SwitchFullscreen()</text>
<text text-anchor="start" x="149" y="-128.5" font-family="Helvetica,sans-Serif" font-size="10.00">+ ToggleMaximized()</text>
<text text-anchor="start" x="149" y="-117.5" font-family="Helvetica,sans-Serif" font-size="10.00">+ SetVSync()</text>
<text text-anchor="start" x="149" y="-106.5" font-family="Helvetica,sans-Serif" font-size="10.00">+ EnableSendKey()</text>
<text text-anchor="start" x="149" y="-95.5" font-family="Helvetica,sans-Serif" font-size="10.00">+ OpenGLPrint()</text>
<text text-anchor="start" x="149" y="-84.5" font-family="Helvetica,sans-Serif" font-size="10.00"># OpenGLMain()</text>
<text text-anchor="start" x="149" y="-73.5" font-family="Helvetica,sans-Serif" font-size="10.00"># HandleKeyRelease()</text>
<text text-anchor="start" x="149" y="-62.5" font-family="Helvetica,sans-Serif" font-size="10.00"># DrawGLScene()</text>
<text text-anchor="start" x="149" y="-51.5" font-family="Helvetica,sans-Serif" font-size="10.00"># HandleSendKey()</text>
<text text-anchor="start" x="149" y="-40.5" font-family="Helvetica,sans-Serif" font-size="10.00"># ReSizeGLScene()</text>
<text text-anchor="start" x="149" y="-29.5" font-family="Helvetica,sans-Serif" font-size="10.00"># InitGL()</text>
<text text-anchor="start" x="149" y="-18.5" font-family="Helvetica,sans-Serif" font-size="10.00"># ExitGL()</text>
<text text-anchor="start" x="149" y="-7.5" font-family="Helvetica,sans-Serif" font-size="10.00"># OpenGLWrapper()</text>
</g>
<!-- Node2 -->
<g id="node2" class="node"><title>Node2</title>
<g id="a_node2"><a xlink:href="../../d4/dc3/classfloat.html" target="_top" xlink:title="{float\n||}">
<polygon fill="none" stroke="black" points="0,-683 0,-740 35,-740 35,-683 0,-683"/>
<text text-anchor="middle" x="17.5" y="-728" font-family="Helvetica,sans-Serif" font-size="10.00">float</text>
<polyline fill="none" stroke="black" points="0,-721 35,-721 "/>
<text text-anchor="middle" x="17.5" y="-709" font-family="Helvetica,sans-Serif" font-size="10.00"> </text>
<polyline fill="none" stroke="black" points="0,-702 35,-702 "/>
<text text-anchor="middle" x="17.5" y="-690" font-family="Helvetica,sans-Serif" font-size="10.00"> </text>
</a>
</g>
</g>
<!-- Node2&#45;&gt;Node1 -->
<g id="edge1" class="edge"><title>Node2&#45;&gt;Node1</title>
<path fill="none" stroke="#404040" d="M20.135,-682.826C25.1174,-637.478 38.0773,-545.08 66.5,-472 84.0719,-426.819 109.646,-380.397 134.498,-340.333"/>
<polygon fill="none" stroke="#404040" points="134.59,-340.187 134.389,-332.978 140.966,-330.021 141.167,-337.229 134.59,-340.187"/>
<text text-anchor="middle" x="99.5" y="-546.5" font-family="Helvetica,sans-Serif" font-size="10.00"> #mMouseDnX</text>
<text text-anchor="middle" x="99.5" y="-535.5" font-family="Helvetica,sans-Serif" font-size="10.00">#mMouseDnY</text>
<text text-anchor="middle" x="99.5" y="-524.5" font-family="Helvetica,sans-Serif" font-size="10.00">#mouseMvX</text>
<text text-anchor="middle" x="99.5" y="-513.5" font-family="Helvetica,sans-Serif" font-size="10.00">#mouseMvY</text>
</g>
<!-- Node3 -->
<g id="node3" class="node"><title>Node3</title>
<g id="a_node3"><a xlink:href="../../d9/dda/classGPUCA__NAMESPACE_1_1gpu_1_1GPUDisplay.html" target="_top" xlink:title="{GPUCA_NAMESPACE::gpu\l::GPUDisplay\n||+ GPUDisplay()\l+ ~GPUDisplay()\l+ GPUDisplay()\l+ StartDisplay()\l+ ShowNextEvent()\l+ WaitForNextEvent()\l+ SetCollisionFirstCluster()\l+ HandleKeyRelease()\l+ DrawGLScene()\l+ HandleSendKey()\l+ InitGL()\l+ ExitGL()\l+ ReSizeGLScene()\l}">
<polygon fill="none" stroke="black" points="53,-611.5 53,-811.5 196,-811.5 196,-611.5 53,-611.5"/>
<text text-anchor="start" x="61" y="-799.5" font-family="Helvetica,sans-Serif" font-size="10.00">GPUCA_NAMESPACE::gpu</text>
<text text-anchor="middle" x="124.5" y="-788.5" font-family="Helvetica,sans-Serif" font-size="10.00">::GPUDisplay</text>
<polyline fill="none" stroke="black" points="53,-781.5 196,-781.5 "/>
<text text-anchor="middle" x="124.5" y="-769.5" font-family="Helvetica,sans-Serif" font-size="10.00"> </text>
<polyline fill="none" stroke="black" points="53,-762.5 196,-762.5 "/>
<text text-anchor="start" x="61" y="-750.5" font-family="Helvetica,sans-Serif" font-size="10.00">+ GPUDisplay()</text>
<text text-anchor="start" x="61" y="-739.5" font-family="Helvetica,sans-Serif" font-size="10.00">+ ~GPUDisplay()</text>
<text text-anchor="start" x="61" y="-728.5" font-family="Helvetica,sans-Serif" font-size="10.00">+ GPUDisplay()</text>
<text text-anchor="start" x="61" y="-717.5" font-family="Helvetica,sans-Serif" font-size="10.00">+ StartDisplay()</text>
<text text-anchor="start" x="61" y="-706.5" font-family="Helvetica,sans-Serif" font-size="10.00">+ ShowNextEvent()</text>
<text text-anchor="start" x="61" y="-695.5" font-family="Helvetica,sans-Serif" font-size="10.00">+ WaitForNextEvent()</text>
<text text-anchor="start" x="61" y="-684.5" font-family="Helvetica,sans-Serif" font-size="10.00">+ SetCollisionFirstCluster()</text>
<text text-anchor="start" x="61" y="-673.5" font-family="Helvetica,sans-Serif" font-size="10.00">+ HandleKeyRelease()</text>
<text text-anchor="start" x="61" y="-662.5" font-family="Helvetica,sans-Serif" font-size="10.00">+ DrawGLScene()</text>
<text text-anchor="start" x="61" y="-651.5" font-family="Helvetica,sans-Serif" font-size="10.00">+ HandleSendKey()</text>
<text text-anchor="start" x="61" y="-640.5" font-family="Helvetica,sans-Serif" font-size="10.00">+ InitGL()</text>
<text text-anchor="start" x="61" y="-629.5" font-family="Helvetica,sans-Serif" font-size="10.00">+ ExitGL()</text>
<text text-anchor="start" x="61" y="-618.5" font-family="Helvetica,sans-Serif" font-size="10.00">+ ReSizeGLScene()</text>
</a>
</g>
</g>
<!-- Node3&#45;&gt;Node1 -->
<g id="edge2" class="edge"><title>Node3&#45;&gt;Node1</title>
<path fill="none" stroke="#404040" d="M134.555,-611.211C139.534,-568.244 146.26,-517.478 154.5,-472 154.874,-469.938 155.254,-467.868 155.64,-465.789"/>
<polygon fill="none" stroke="#404040" points="155.676,-465.6 152.866,-458.959 157.915,-453.811 160.725,-460.452 155.676,-465.6"/>
<text text-anchor="middle" x="179.5" y="-530" font-family="Helvetica,sans-Serif" font-size="10.00"> #mDisplay</text>
</g>
<!-- Node4 -->
<g id="node4" class="node"><title>Node4</title>
<polygon fill="none" stroke="#bfbfbf" points="214,-683 214,-740 243,-740 243,-683 214,-683"/>
<text text-anchor="middle" x="228.5" y="-728" font-family="Helvetica,sans-Serif" font-size="10.00">int</text>
<polyline fill="none" stroke="#bfbfbf" points="214,-721 243,-721 "/>
<text text-anchor="middle" x="228.5" y="-709" font-family="Helvetica,sans-Serif" font-size="10.00"> </text>
<polyline fill="none" stroke="#bfbfbf" points="214,-702 243,-702 "/>
<text text-anchor="middle" x="228.5" y="-690" font-family="Helvetica,sans-Serif" font-size="10.00"> </text>
</g>
<!-- Node4&#45;&gt;Node1 -->
<g id="edge3" class="edge"><title>Node4&#45;&gt;Node1</title>
<path fill="none" stroke="#404040" d="M223.943,-682.58C220.305,-658.832 215.499,-623.782 213.5,-593 210.831,-551.905 209.453,-508.152 208.882,-465.74"/>
<polygon fill="none" stroke="#404040" points="208.879,-465.52 204.809,-459.567 208.739,-453.52 212.809,-459.473 208.879,-465.52"/>
<text text-anchor="middle" x="253" y="-563" font-family="Helvetica,sans-Serif" font-size="10.00"> #mMouseWheel</text>
<text text-anchor="middle" x="253" y="-552" font-family="Helvetica,sans-Serif" font-size="10.00">#mDisplayHeight</text>
<text text-anchor="middle" x="253" y="-541" font-family="Helvetica,sans-Serif" font-size="10.00">+mSendKey</text>
<text text-anchor="middle" x="253" y="-530" font-family="Helvetica,sans-Serif" font-size="10.00">#mMaxFPSRate</text>
<text text-anchor="middle" x="253" y="-519" font-family="Helvetica,sans-Serif" font-size="10.00">+mNeedUpdate</text>
<text text-anchor="middle" x="253" y="-508" font-family="Helvetica,sans-Serif" font-size="10.00">+mDisplayControl</text>
<text text-anchor="middle" x="253" y="-497" font-family="Helvetica,sans-Serif" font-size="10.00">#mDisplayWidth</text>
</g>
<!-- Node5 -->
<g id="node5" class="node"><title>Node5</title>
<polygon fill="none" stroke="#bfbfbf" points="297,-683 297,-740 332,-740 332,-683 297,-683"/>
<text text-anchor="middle" x="314.5" y="-728" font-family="Helvetica,sans-Serif" font-size="10.00">bool</text>
<polyline fill="none" stroke="#bfbfbf" points="297,-721 332,-721 "/>
<text text-anchor="middle" x="314.5" y="-709" font-family="Helvetica,sans-Serif" font-size="10.00"> </text>
<polyline fill="none" stroke="#bfbfbf" points="297,-702 332,-702 "/>
<text text-anchor="middle" x="314.5" y="-690" font-family="Helvetica,sans-Serif" font-size="10.00"> </text>
</g>
<!-- Node5&#45;&gt;Node1 -->
<g id="edge4" class="edge"><title>Node5&#45;&gt;Node1</title>
<path fill="none" stroke="#404040" d="M313.954,-682.659C312.626,-637.843 308.073,-547.122 292.5,-472 290.824,-463.915 288.972,-455.723 286.978,-447.481"/>
<polygon fill="none" stroke="#404040" points="286.969,-447.446 281.637,-442.591 284.067,-435.802 289.399,-440.657 286.969,-447.446"/>
<text text-anchor="middle" x="342" y="-546.5" font-family="Helvetica,sans-Serif" font-size="10.00"> #mMouseDnR</text>
<text text-anchor="middle" x="342" y="-535.5" font-family="Helvetica,sans-Serif" font-size="10.00">#mMouseDn</text>
<text text-anchor="middle" x="342" y="-524.5" font-family="Helvetica,sans-Serif" font-size="10.00">#mKeys</text>
<text text-anchor="middle" x="342" y="-513.5" font-family="Helvetica,sans-Serif" font-size="10.00">#mKeysShift</text>
</g>
<!-- Node6 -->
<g id="node6" class="node"><title>Node6</title>
<polygon fill="none" stroke="#bfbfbf" points="384,-683 384,-740 425,-740 425,-683 384,-683"/>
<text text-anchor="middle" x="404.5" y="-728" font-family="Helvetica,sans-Serif" font-size="10.00">static</text>
<polyline fill="none" stroke="#bfbfbf" points="384,-721 425,-721 "/>
<text text-anchor="middle" x="404.5" y="-709" font-family="Helvetica,sans-Serif" font-size="10.00"> </text>
<polyline fill="none" stroke="#bfbfbf" points="384,-702 425,-702 "/>
<text text-anchor="middle" x="404.5" y="-690" font-family="Helvetica,sans-Serif" font-size="10.00"> </text>
</g>
<!-- Node6&#45;&gt;Node1 -->
<g id="edge5" class="edge"><title>Node6&#45;&gt;Node1</title>
<path fill="none" stroke="#404040" d="M405.92,-682.691C407.305,-637.15 406.15,-544.486 379.5,-472 359.409,-417.354 324.339,-363.233 291.507,-319.9"/>
<polygon fill="none" stroke="#404040" points="291.412,-319.776 284.585,-317.453 284.104,-310.258 290.93,-312.581 291.412,-319.776"/>
<text text-anchor="middle" x="438" y="-585" font-family="Helvetica,sans-Serif" font-size="10.00"> #KEY_F4</text>
<text text-anchor="middle" x="438" y="-574" font-family="Helvetica,sans-Serif" font-size="10.00">#KEY_DOWN</text>
<text text-anchor="middle" x="438" y="-563" font-family="Helvetica,sans-Serif" font-size="10.00">#KEY_UP</text>
<text text-anchor="middle" x="438" y="-552" font-family="Helvetica,sans-Serif" font-size="10.00">#KEY_F5</text>
<text text-anchor="middle" x="438" y="-541" font-family="Helvetica,sans-Serif" font-size="10.00">#INIT_HEIGHT</text>
<text text-anchor="middle" x="438" y="-530" font-family="Helvetica,sans-Serif" font-size="10.00">#KEY_F6</text>
<text text-anchor="middle" x="438" y="-519" font-family="Helvetica,sans-Serif" font-size="10.00">#KEY_F7</text>
<text text-anchor="middle" x="438" y="-508" font-family="Helvetica,sans-Serif" font-size="10.00">#KEY_SPACE</text>
<text text-anchor="middle" x="438" y="-497" font-family="Helvetica,sans-Serif" font-size="10.00">#KEY_F8</text>
<text text-anchor="middle" x="438" y="-486" font-family="Helvetica,sans-Serif" font-size="10.00">#KEY_F9</text>
<text text-anchor="middle" x="438" y="-475" font-family="Helvetica,sans-Serif" font-size="10.00">...</text>
</g>
</g>
</svg>
        <g id="navigator" transform="translate(0 0)" fill="#404254">
                <rect fill="#f2f5e9" fill-opacity="0.5" stroke="#606060" stroke-width=".5" x="0" y="0" width="60" height="60"/>
                <use id="zoomplus" xlink:href="#zoomPlus" x="17" y="9" onmousedown="handleZoom(evt,'in')"/>
                <use id="zoomminus" xlink:href="#zoomMin" x="42" y="9" onmousedown="handleZoom(evt,'out')"/>
                <use id="reset" xlink:href="#resetDef" x="30" y="36" onmousedown="handleReset()"/>
                <g id="arrowUp" xlink:href="#dirArrow" transform="translate(30 24)" onmousedown="handlePan(0,-1)">
                  <use xlink:href="#rim" fill="#404040">
                        <set attributeName="fill" to="#808080" begin="arrowUp.mouseover" end="arrowUp.mouseout"/>
                  </use>
                  <path fill="none" stroke="white" stroke-width="1.5" d="M0,-3.0v7 M-2.5,-0.5L0,-3.0L2.5,-0.5"/>
                </g>
                <g id="arrowRight" xlink:href="#dirArrow" transform="rotate(90) translate(36 -43)" onmousedown="handlePan(1,0)">
                  <use xlink:href="#rim" fill="#404040">
                        <set attributeName="fill" to="#808080" begin="arrowRight.mouseover" end="arrowRight.mouseout"/>
                  </use>
                  <path fill="none" stroke="white" stroke-width="1.5" d="M0,-3.0v7 M-2.5,-0.5L0,-3.0L2.5,-0.5"/>
                </g>
                <g id="arrowDown" xlink:href="#dirArrow" transform="rotate(180) translate(-30 -48)" onmousedown="handlePan(0,1)">
                  <use xlink:href="#rim" fill="#404040">
                        <set attributeName="fill" to="#808080" begin="arrowDown.mouseover" end="arrowDown.mouseout"/>
                  </use>
                  <path fill="none" stroke="white" stroke-width="1.5" d="M0,-3.0v7 M-2.5,-0.5L0,-3.0L2.5,-0.5"/>
                </g>
                <g id="arrowLeft" xlink:href="#dirArrow" transform="rotate(270) translate(-36 17)" onmousedown="handlePan(-1,0)">
                  <use xlink:href="#rim" fill="#404040">
                        <set attributeName="fill" to="#808080" begin="arrowLeft.mouseover" end="arrowLeft.mouseout"/>
                  </use>
                  <path fill="none" stroke="white" stroke-width="1.5" d="M0,-3.0v7 M-2.5,-0.5L0,-3.0L2.5,-0.5"/>
                </g>
        </g>
        <svg viewBox="0 0 15 15" width="100%" height="30px" preserveAspectRatio="xMaxYMin meet">
         <g id="arrow_out" transform="scale(0.3 0.3)">
          <a xlink:href="classGPUCA__NAMESPACE_1_1gpu_1_1GPUDisplayBackend__coll__graph_org.svg" target="_base">
           <rect id="button" ry="5" rx="5" y="6" x="6" height="38" width="38"
                fill="#f2f5e9" fill-opacity="0.5" stroke="#606060" stroke-width="1.0"/>
           <path id="arrow"
             d="M 11.500037,31.436501 C 11.940474,20.09759 22.043105,11.32322 32.158766,21.979434 L 37.068811,17.246167 C 37.068811,17.246167 37.088388,32 37.088388,32 L 22.160133,31.978069 C 22.160133,31.978069 26.997745,27.140456 26.997745,27.140456 C 18.528582,18.264221 13.291696,25.230495 11.500037,31.436501 z"
             style="fill:#404040;"/>
          </a>
         </g>
        </svg>
</svg>
