<?xml version="1.0" encoding="UTF-8" standalone="no"?>
<!DOCTYPE svg PUBLIC "-//W3C//DTD SVG 1.1//EN"
 "http://www.w3.org/Graphics/SVG/1.1/DTD/svg11.dtd">
<!-- Generated by graphviz version 2.38.0 (20140413.2041)
 -->
<!-- Title: o2::base::MatLayerCylSetLayout Pages: 1 -->
<!--zoomable 1071 -->
<svg id="main" version="1.1" xmlns="http://www.w3.org/2000/svg" xmlns:xlink="http://www.w3.org/1999/xlink" xml:space="preserve" onload="init(evt)">
<style type="text/css"><![CDATA[
.edge:hover path { stroke: red; }
.edge:hover polygon { stroke: red; fill: red; }
]]></style>
<script type="text/javascript"><![CDATA[
var edges = document.getElementsByTagName('g');
if (edges && edges.length) {
  for (var i=0;i<edges.length;i++) {
    if (edges[i].id.substr(0,4)=='edge') {
      edges[i].setAttribute('class','edge');
    }
  }
}
]]></script>
        <defs>
                <circle id="rim" cx="0" cy="0" r="7"/>
                <circle id="rim2" cx="0" cy="0" r="3.5"/>
                <g id="zoomPlus">
                        <use xlink:href="#rim" fill="#404040">
                                <set attributeName="fill" to="#808080" begin="zoomplus.mouseover" end="zoomplus.mouseout"/>
                        </use>
                        <path d="M-4,0h8M0,-4v8" fill="none" stroke="white" stroke-width="1.5" pointer-events="none"/>
                </g>
                <g id="zoomMin">
                        <use xlink:href="#rim" fill="#404040">
                                <set attributeName="fill" to="#808080" begin="zoomminus.mouseover" end="zoomminus.mouseout"/>
                        </use>
                        <path d="M-4,0h8" fill="none" stroke="white" stroke-width="1.5" pointer-events="none"/>
                </g>
                <g id="dirArrow">
                        <path fill="none" stroke="white" stroke-width="1.5" d="M0,-3.0v7 M-2.5,-0.5L0,-3.0L2.5,-0.5"/>
                </g>
               <g id="resetDef">
                       <use xlink:href="#rim2" fill="#404040">
                               <set attributeName="fill" to="#808080" begin="reset.mouseover" end="reset.mouseout"/>
                       </use>
               </g>
        </defs>

<script type="text/javascript">
var viewWidth = 606;
var viewHeight = 1071;
var sectionId = 'dynsection-0';
</script>
<script xlink:href="../../svgpan.js"/>
<svg id="graph" class="graph">
<g id="viewport">
<title>o2::base::MatLayerCylSetLayout</title>
<!-- Node1 -->
<g id="node1" class="node"><title>Node1</title>
<polygon fill="#bfbfbf" stroke="black" points="258.534,-0.5 258.534,-68.5 389.534,-68.5 389.534,-0.5 258.534,-0.5"/>
<text text-anchor="start" x="266.534" y="-56.5" font-family="Helvetica,sans-Serif" font-size="10.00">o2::base::MatLayerCylSet</text>
<text text-anchor="middle" x="324.034" y="-45.5" font-family="Helvetica,sans-Serif" font-size="10.00">Layout</text>
<polyline fill="none" stroke="black" points="258.534,-38.5 389.534,-38.5 "/>
<text text-anchor="middle" x="324.034" y="-26.5" font-family="Helvetica,sans-Serif" font-size="10.00"> </text>
<polyline fill="none" stroke="black" points="258.534,-19.5 389.534,-19.5 "/>
<text text-anchor="middle" x="324.034" y="-7.5" font-family="Helvetica,sans-Serif" font-size="10.00"> </text>
</g>
<!-- Node2 -->
<g id="node2" class="node"><title>Node2</title>
<g id="a_node2"><a xlink:href="../../d4/dc3/classfloat.html" target="_top" xlink:title="{float\n||}">
<polygon fill="none" stroke="black" points="42.5337,-1005.5 42.5337,-1062.5 77.5337,-1062.5 77.5337,-1005.5 42.5337,-1005.5"/>
<text text-anchor="middle" x="60.0337" y="-1050.5" font-family="Helvetica,sans-Serif" font-size="10.00">float</text>
<polyline fill="none" stroke="black" points="42.5337,-1043.5 77.5337,-1043.5 "/>
<text text-anchor="middle" x="60.0337" y="-1031.5" font-family="Helvetica,sans-Serif" font-size="10.00"> </text>
<polyline fill="none" stroke="black" points="42.5337,-1024.5 77.5337,-1024.5 "/>
<text text-anchor="middle" x="60.0337" y="-1012.5" font-family="Helvetica,sans-Serif" font-size="10.00"> </text>
</a>
</g>
</g>
<!-- Node2&#45;&gt;Node1 -->
<g id="edge1" class="edge"><title>Node2&#45;&gt;Node1</title>
<path fill="none" stroke="#404040" d="M47.0857,-1005.22C25.9983,-956.515 -11.8903,-852.498 4.03373,-764 58.4494,-461.584 80.2481,-375.35 245.034,-116 253.737,-102.303 265.084,-89.0377 276.452,-77.3601"/>
<polygon fill="none" stroke="#404040" points="276.594,-77.2185 278.03,-70.1517 285.105,-68.7588 283.669,-75.8256 276.594,-77.2185"/>
<text text-anchor="middle" x="38.0337" y="-822" font-family="Helvetica,sans-Serif" font-size="10.00"> +mR2Intervals</text>
<text text-anchor="middle" x="38.0337" y="-811" font-family="Helvetica,sans-Serif" font-size="10.00">+mRMin2</text>
<text text-anchor="middle" x="38.0337" y="-800" font-family="Helvetica,sans-Serif" font-size="10.00">+mRMax2</text>
<text text-anchor="middle" x="38.0337" y="-789" font-family="Helvetica,sans-Serif" font-size="10.00">+mZMax</text>
<text text-anchor="middle" x="38.0337" y="-778" font-family="Helvetica,sans-Serif" font-size="10.00">+mRMin</text>
<text text-anchor="middle" x="38.0337" y="-767" font-family="Helvetica,sans-Serif" font-size="10.00">+mRMax</text>
</g>
<!-- Node3 -->
<g id="node3" class="node"><title>Node3</title>
<g id="a_node3"><a xlink:href="../../d1/de6/classo2_1_1base_1_1MatLayerCyl.html" target="_top" xlink:title="{o2::base::MatLayerCyl\n||+ MatLayerCyl()\l+ MatLayerCyl()\l+ ~MatLayerCyl()\l+ MatLayerCyl()\l+ initSegmentation()\l+ initSegmentation()\l+ populateFromTGeo()\l+ populateFromTGeo()\l+ print()\l+ GPUd()\l+ GPUd()\l+ GPUd()\l+ GPUd()\l+ GPUd()\l+ GPUd()\l+ GPUd()\l+ GPUd()\l+ GPUd()\l+ GPUd()\l+ GPUd()\l+ GPUd()\l+ GPUd()\l+ GPUd()\l+ GPUd()\l+ GPUd()\l+ GPUd()\l+ GPUd()\l+ GPUd()\l+ GPUd()\l+ GPUd()\l+ GPUd()\l+ GPUd()\l+ GPUd()\l+ getMeanRMS()\l+ cellsDiffer()\l+ canMergePhiSlices()\l+ optimizePhiSlices()\l+ flatten()\l+ estimateFlatBufferSize()\l+ fixPointers()\l+ setFlatPointer()\l+ estimateFlatBufferSize()\l+ getClassAlignmentBytes()\l+ getBufferAlignmentBytes()\l# GPUd()\l# GPUd()\l# GPUd()\l# GPUd()\l# GPUd()\l# GPUd()\l# GPUd()\l# while()\l# ClassDefNV()\l}">
<polygon fill="none" stroke="black" points="254.034,-116.5 254.034,-745.5 394.034,-745.5 394.034,-116.5 254.034,-116.5"/>
<text text-anchor="middle" x="324.034" y="-733.5" font-family="Helvetica,sans-Serif" font-size="10.00">o2::base::MatLayerCyl</text>
<polyline fill="none" stroke="black" points="254.034,-726.5 394.034,-726.5 "/>
<text text-anchor="middle" x="324.034" y="-714.5" font-family="Helvetica,sans-Serif" font-size="10.00"> </text>
<polyline fill="none" stroke="black" points="254.034,-707.5 394.034,-707.5 "/>
<text text-anchor="start" x="262.034" y="-695.5" font-family="Helvetica,sans-Serif" font-size="10.00">+ MatLayerCyl()</text>
<text text-anchor="start" x="262.034" y="-684.5" font-family="Helvetica,sans-Serif" font-size="10.00">+ MatLayerCyl()</text>
<text text-anchor="start" x="262.034" y="-673.5" font-family="Helvetica,sans-Serif" font-size="10.00">+ ~MatLayerCyl()</text>
<text text-anchor="start" x="262.034" y="-662.5" font-family="Helvetica,sans-Serif" font-size="10.00">+ MatLayerCyl()</text>
<text text-anchor="start" x="262.034" y="-651.5" font-family="Helvetica,sans-Serif" font-size="10.00">+ initSegmentation()</text>
<text text-anchor="start" x="262.034" y="-640.5" font-family="Helvetica,sans-Serif" font-size="10.00">+ initSegmentation()</text>
<text text-anchor="start" x="262.034" y="-629.5" font-family="Helvetica,sans-Serif" font-size="10.00">+ populateFromTGeo()</text>
<text text-anchor="start" x="262.034" y="-618.5" font-family="Helvetica,sans-Serif" font-size="10.00">+ populateFromTGeo()</text>
<text text-anchor="start" x="262.034" y="-607.5" font-family="Helvetica,sans-Serif" font-size="10.00">+ print()</text>
<text text-anchor="start" x="262.034" y="-596.5" font-family="Helvetica,sans-Serif" font-size="10.00">+ GPUd()</text>
<text text-anchor="start" x="262.034" y="-585.5" font-family="Helvetica,sans-Serif" font-size="10.00">+ GPUd()</text>
<text text-anchor="start" x="262.034" y="-574.5" font-family="Helvetica,sans-Serif" font-size="10.00">+ GPUd()</text>
<text text-anchor="start" x="262.034" y="-563.5" font-family="Helvetica,sans-Serif" font-size="10.00">+ GPUd()</text>
<text text-anchor="start" x="262.034" y="-552.5" font-family="Helvetica,sans-Serif" font-size="10.00">+ GPUd()</text>
<text text-anchor="start" x="262.034" y="-541.5" font-family="Helvetica,sans-Serif" font-size="10.00">+ GPUd()</text>
<text text-anchor="start" x="262.034" y="-530.5" font-family="Helvetica,sans-Serif" font-size="10.00">+ GPUd()</text>
<text text-anchor="start" x="262.034" y="-519.5" font-family="Helvetica,sans-Serif" font-size="10.00">+ GPUd()</text>
<text text-anchor="start" x="262.034" y="-508.5" font-family="Helvetica,sans-Serif" font-size="10.00">+ GPUd()</text>
<text text-anchor="start" x="262.034" y="-497.5" font-family="Helvetica,sans-Serif" font-size="10.00">+ GPUd()</text>
<text text-anchor="start" x="262.034" y="-486.5" font-family="Helvetica,sans-Serif" font-size="10.00">+ GPUd()</text>
<text text-anchor="start" x="262.034" y="-475.5" font-family="Helvetica,sans-Serif" font-size="10.00">+ GPUd()</text>
<text text-anchor="start" x="262.034" y="-464.5" font-family="Helvetica,sans-Serif" font-size="10.00">+ GPUd()</text>
<text text-anchor="start" x="262.034" y="-453.5" font-family="Helvetica,sans-Serif" font-size="10.00">+ GPUd()</text>
<text text-anchor="start" x="262.034" y="-442.5" font-family="Helvetica,sans-Serif" font-size="10.00">+ GPUd()</text>
<text text-anchor="start" x="262.034" y="-431.5" font-family="Helvetica,sans-Serif" font-size="10.00">+ GPUd()</text>
<text text-anchor="start" x="262.034" y="-420.5" font-family="Helvetica,sans-Serif" font-size="10.00">+ GPUd()</text>
<text text-anchor="start" x="262.034" y="-409.5" font-family="Helvetica,sans-Serif" font-size="10.00">+ GPUd()</text>
<text text-anchor="start" x="262.034" y="-398.5" font-family="Helvetica,sans-Serif" font-size="10.00">+ GPUd()</text>
<text text-anchor="start" x="262.034" y="-387.5" font-family="Helvetica,sans-Serif" font-size="10.00">+ GPUd()</text>
<text text-anchor="start" x="262.034" y="-376.5" font-family="Helvetica,sans-Serif" font-size="10.00">+ GPUd()</text>
<text text-anchor="start" x="262.034" y="-365.5" font-family="Helvetica,sans-Serif" font-size="10.00">+ GPUd()</text>
<text text-anchor="start" x="262.034" y="-354.5" font-family="Helvetica,sans-Serif" font-size="10.00">+ GPUd()</text>
<text text-anchor="start" x="262.034" y="-343.5" font-family="Helvetica,sans-Serif" font-size="10.00">+ GPUd()</text>
<text text-anchor="start" x="262.034" y="-332.5" font-family="Helvetica,sans-Serif" font-size="10.00">+ getMeanRMS()</text>
<text text-anchor="start" x="262.034" y="-321.5" font-family="Helvetica,sans-Serif" font-size="10.00">+ cellsDiffer()</text>
<text text-anchor="start" x="262.034" y="-310.5" font-family="Helvetica,sans-Serif" font-size="10.00">+ canMergePhiSlices()</text>
<text text-anchor="start" x="262.034" y="-299.5" font-family="Helvetica,sans-Serif" font-size="10.00">+ optimizePhiSlices()</text>
<text text-anchor="start" x="262.034" y="-288.5" font-family="Helvetica,sans-Serif" font-size="10.00">+ flatten()</text>
<text text-anchor="start" x="262.034" y="-277.5" font-family="Helvetica,sans-Serif" font-size="10.00">+ estimateFlatBufferSize()</text>
<text text-anchor="start" x="262.034" y="-266.5" font-family="Helvetica,sans-Serif" font-size="10.00">+ fixPointers()</text>
<text text-anchor="start" x="262.034" y="-255.5" font-family="Helvetica,sans-Serif" font-size="10.00">+ setFlatPointer()</text>
<text text-anchor="start" x="262.034" y="-244.5" font-family="Helvetica,sans-Serif" font-size="10.00">+ estimateFlatBufferSize()</text>
<text text-anchor="start" x="262.034" y="-233.5" font-family="Helvetica,sans-Serif" font-size="10.00">+ getClassAlignmentBytes()</text>
<text text-anchor="start" x="262.034" y="-222.5" font-family="Helvetica,sans-Serif" font-size="10.00">+ getBufferAlignmentBytes()</text>
<text text-anchor="start" x="262.034" y="-211.5" font-family="Helvetica,sans-Serif" font-size="10.00"># GPUd()</text>
<text text-anchor="start" x="262.034" y="-200.5" font-family="Helvetica,sans-Serif" font-size="10.00"># GPUd()</text>
<text text-anchor="start" x="262.034" y="-189.5" font-family="Helvetica,sans-Serif" font-size="10.00"># GPUd()</text>
<text text-anchor="start" x="262.034" y="-178.5" font-family="Helvetica,sans-Serif" font-size="10.00"># GPUd()</text>
<text text-anchor="start" x="262.034" y="-167.5" font-family="Helvetica,sans-Serif" font-size="10.00"># GPUd()</text>
<text text-anchor="start" x="262.034" y="-156.5" font-family="Helvetica,sans-Serif" font-size="10.00"># GPUd()</text>
<text text-anchor="start" x="262.034" y="-145.5" font-family="Helvetica,sans-Serif" font-size="10.00"># GPUd()</text>
<text text-anchor="start" x="262.034" y="-134.5" font-family="Helvetica,sans-Serif" font-size="10.00"># while()</text>
<text text-anchor="start" x="262.034" y="-123.5" font-family="Helvetica,sans-Serif" font-size="10.00"># ClassDefNV()</text>
</a>
</g>
</g>
<!-- Node2&#45;&gt;Node3 -->
<g id="edge5" class="edge"><title>Node2&#45;&gt;Node3</title>
<path fill="none" stroke="#404040" d="M57.184,-1005.31C54.3296,-968.478 52.4437,-901.772 69.0337,-848 106.111,-727.824 185.948,-607.124 246.477,-526.927"/>
<polygon fill="none" stroke="#404040" points="246.496,-526.902 246.944,-519.705 253.759,-517.35 253.312,-524.547 246.496,-526.902"/>
<text text-anchor="middle" x="96.0337" y="-939" font-family="Helvetica,sans-Serif" font-size="10.00"> #mSliceSin</text>
<text text-anchor="middle" x="96.0337" y="-928" font-family="Helvetica,sans-Serif" font-size="10.00">#mDPhi</text>
<text text-anchor="middle" x="96.0337" y="-917" font-family="Helvetica,sans-Serif" font-size="10.00">#mDZInv</text>
<text text-anchor="middle" x="96.0337" y="-906" font-family="Helvetica,sans-Serif" font-size="10.00">#mZHalf</text>
<text text-anchor="middle" x="96.0337" y="-895" font-family="Helvetica,sans-Serif" font-size="10.00">#mDPhiInv</text>
<text text-anchor="middle" x="96.0337" y="-884" font-family="Helvetica,sans-Serif" font-size="10.00">#mRMin2</text>
<text text-anchor="middle" x="96.0337" y="-873" font-family="Helvetica,sans-Serif" font-size="10.00">#mDZ</text>
<text text-anchor="middle" x="96.0337" y="-862" font-family="Helvetica,sans-Serif" font-size="10.00">#mRMax2</text>
<text text-anchor="middle" x="96.0337" y="-851" font-family="Helvetica,sans-Serif" font-size="10.00">#mSliceCos</text>
</g>
<!-- Node8 -->
<g id="node8" class="node"><title>Node8</title>
<g id="a_node8"><a xlink:href="../../dd/dcd/structo2_1_1base_1_1MatCell.html" target="_top" xlink:title="{o2::base::MatCell\n||+ GPUd()\l+ GPUdDefault()\l+ GPUd()\l+ ClassDefNV()\l}">
<polygon fill="none" stroke="black" points="132.034,-852.5 132.034,-942.5 226.034,-942.5 226.034,-852.5 132.034,-852.5"/>
<text text-anchor="middle" x="179.034" y="-930.5" font-family="Helvetica,sans-Serif" font-size="10.00">o2::base::MatCell</text>
<polyline fill="none" stroke="black" points="132.034,-923.5 226.034,-923.5 "/>
<text text-anchor="middle" x="179.034" y="-911.5" font-family="Helvetica,sans-Serif" font-size="10.00"> </text>
<polyline fill="none" stroke="black" points="132.034,-904.5 226.034,-904.5 "/>
<text text-anchor="start" x="140.034" y="-892.5" font-family="Helvetica,sans-Serif" font-size="10.00">+ GPUd()</text>
<text text-anchor="start" x="140.034" y="-881.5" font-family="Helvetica,sans-Serif" font-size="10.00">+ GPUdDefault()</text>
<text text-anchor="start" x="140.034" y="-870.5" font-family="Helvetica,sans-Serif" font-size="10.00">+ GPUd()</text>
<text text-anchor="start" x="140.034" y="-859.5" font-family="Helvetica,sans-Serif" font-size="10.00">+ ClassDefNV()</text>
</a>
</g>
</g>
<!-- Node2&#45;&gt;Node8 -->
<g id="edge9" class="edge"><title>Node2&#45;&gt;Node8</title>
<path fill="none" stroke="#404040" d="M77.6097,-1013.05C89.5623,-999.493 105.741,-981.154 120.034,-965 123.799,-960.745 127.701,-956.338 131.623,-951.912"/>
<polygon fill="none" stroke="#404040" points="131.704,-951.821 132.69,-944.677 139.664,-942.841 138.677,-949.984 131.704,-951.821"/>
<text text-anchor="middle" x="147.534" y="-979" font-family="Helvetica,sans-Serif" font-size="10.00"> +meanRho</text>
<text text-anchor="middle" x="147.534" y="-968" font-family="Helvetica,sans-Serif" font-size="10.00">+meanX2X0</text>
</g>
<!-- Node3&#45;&gt;Node1 -->
<g id="edge2" class="edge"><title>Node3&#45;&gt;Node1</title>
<path fill="none" stroke="#404040" d="M324.034,-116.285C324.034,-103.26 324.034,-91.2908 324.034,-80.7811"/>
<polygon fill="none" stroke="#404040" points="324.034,-80.7127 320.034,-74.7128 324.034,-68.7127 328.034,-74.7127 324.034,-80.7127"/>
<text text-anchor="middle" x="347.534" y="-90" font-family="Helvetica,sans-Serif" font-size="10.00"> +mLayers</text>
</g>
<!-- Node4 -->
<g id="node4" class="node"><title>Node4</title>
<g id="a_node4"><a xlink:href="../../d8/db1/classo2_1_1gpu_1_1FlatObject.html" target="_top" xlink:title="{o2::gpu::FlatObject\n||}">
<polygon fill="none" stroke="black" points="244.034,-869 244.034,-926 344.034,-926 344.034,-869 244.034,-869"/>
<text text-anchor="middle" x="294.034" y="-914" font-family="Helvetica,sans-Serif" font-size="10.00">o2::gpu::FlatObject</text>
<polyline fill="none" stroke="black" points="244.034,-907 344.034,-907 "/>
<text text-anchor="middle" x="294.034" y="-895" font-family="Helvetica,sans-Serif" font-size="10.00"> </text>
<polyline fill="none" stroke="black" points="244.034,-888 344.034,-888 "/>
<text text-anchor="middle" x="294.034" y="-876" font-family="Helvetica,sans-Serif" font-size="10.00"> </text>
</a>
</g>
</g>
<!-- Node4&#45;&gt;Node3 -->
<g id="edge3" class="edge"><title>Node4&#45;&gt;Node3</title>
<path fill="none" stroke="midnightblue" d="M296.486,-858.531C298.269,-830.925 300.871,-790.634 303.774,-745.683"/>
<polygon fill="none" stroke="midnightblue" points="292.972,-858.63 295.821,-868.834 299.958,-859.081 292.972,-858.63"/>
</g>
<!-- Node5 -->
<g id="node5" class="node"><title>Node5</title>
<polygon fill="none" stroke="#bfbfbf" points="362.534,-869 362.534,-926 403.534,-926 403.534,-869 362.534,-869"/>
<text text-anchor="middle" x="383.034" y="-914" font-family="Helvetica,sans-Serif" font-size="10.00">return</text>
<polyline fill="none" stroke="#bfbfbf" points="362.534,-907 403.534,-907 "/>
<text text-anchor="middle" x="383.034" y="-895" font-family="Helvetica,sans-Serif" font-size="10.00"> </text>
<polyline fill="none" stroke="#bfbfbf" points="362.534,-888 403.534,-888 "/>
<text text-anchor="middle" x="383.034" y="-876" font-family="Helvetica,sans-Serif" font-size="10.00"> </text>
</g>
<!-- Node5&#45;&gt;Node3 -->
<g id="edge4" class="edge"><title>Node5&#45;&gt;Node3</title>
<path fill="none" stroke="#404040" d="M369.651,-868.973C364.529,-857.232 359.169,-843.215 356.034,-830 350.498,-806.67 345.875,-782.378 342.017,-757.811"/>
<polygon fill="none" stroke="#404040" points="341.985,-757.596 337.13,-752.264 340.185,-745.731 345.039,-751.064 341.985,-757.596"/>
<text text-anchor="middle" x="365.534" y="-794.5" font-family="Helvetica,sans-Serif" font-size="10.00"> #dir</text>
</g>
<!-- Node6 -->
<g id="node6" class="node"><title>Node6</title>
<g id="a_node6"><a xlink:href="../../dc/d10/classshort.html" target="_top" xlink:title="{short\n||}">
<polygon fill="none" stroke="black" points="422.034,-869 422.034,-926 460.034,-926 460.034,-869 422.034,-869"/>
<text text-anchor="middle" x="441.034" y="-914" font-family="Helvetica,sans-Serif" font-size="10.00">short</text>
<polyline fill="none" stroke="black" points="422.034,-907 460.034,-907 "/>
<text text-anchor="middle" x="441.034" y="-895" font-family="Helvetica,sans-Serif" font-size="10.00"> </text>
<polyline fill="none" stroke="black" points="422.034,-888 460.034,-888 "/>
<text text-anchor="middle" x="441.034" y="-876" font-family="Helvetica,sans-Serif" font-size="10.00"> </text>
</a>
</g>
</g>
<!-- Node6&#45;&gt;Node3 -->
<g id="edge6" class="edge"><title>Node6&#45;&gt;Node3</title>
<path fill="none" stroke="#404040" d="M425.349,-868.943C421.184,-862.002 416.576,-854.64 412.034,-848 406.311,-839.635 402.189,-839.244 398.034,-830 390.688,-813.658 383.333,-788.038 376.264,-757.484"/>
<polygon fill="none" stroke="#404040" points="376.21,-757.248 370.988,-752.275 373.569,-745.542 378.792,-750.514 376.21,-757.248"/>
<text text-anchor="middle" x="434.534" y="-811" font-family="Helvetica,sans-Serif" font-size="10.00"> #mPhiBin2Slice</text>
<text text-anchor="middle" x="434.534" y="-800" font-family="Helvetica,sans-Serif" font-size="10.00">#mNZBins</text>
<text text-anchor="middle" x="434.534" y="-789" font-family="Helvetica,sans-Serif" font-size="10.00">#mNPhiSlices</text>
<text text-anchor="middle" x="434.534" y="-778" font-family="Helvetica,sans-Serif" font-size="10.00">#mNPhiBins</text>
</g>
<!-- Node7 -->
<g id="node7" class="node"><title>Node7</title>
<polygon fill="none" stroke="#bfbfbf" points="503.534,-869 503.534,-926 532.534,-926 532.534,-869 503.534,-869"/>
<text text-anchor="middle" x="518.034" y="-914" font-family="Helvetica,sans-Serif" font-size="10.00">int</text>
<polyline fill="none" stroke="#bfbfbf" points="503.534,-907 532.534,-907 "/>
<text text-anchor="middle" x="518.034" y="-895" font-family="Helvetica,sans-Serif" font-size="10.00"> </text>
<polyline fill="none" stroke="#bfbfbf" points="503.534,-888 532.534,-888 "/>
<text text-anchor="middle" x="518.034" y="-876" font-family="Helvetica,sans-Serif" font-size="10.00"> </text>
</g>
<!-- Node7&#45;&gt;Node1 -->
<g id="edge11" class="edge"><title>Node7&#45;&gt;Node1</title>
<path fill="none" stroke="#404040" d="M523.658,-868.801C525.801,-856.911 527.98,-842.829 529.034,-830 531.435,-800.765 531.846,-793.198 529.034,-764 500.904,-471.958 538.504,-376.245 403.034,-116 395.685,-101.882 385.039,-88.6143 373.93,-77.0796"/>
<polygon fill="none" stroke="#404040" points="373.912,-77.0618 366.835,-75.6767 365.391,-68.6116 372.468,-69.9966 373.912,-77.0618"/>
<text text-anchor="middle" x="562.534" y="-439.5" font-family="Helvetica,sans-Serif" font-size="10.00"> +mNLayers</text>
<text text-anchor="middle" x="562.534" y="-428.5" font-family="Helvetica,sans-Serif" font-size="10.00">+mInterval2LrID</text>
<text text-anchor="middle" x="562.534" y="-417.5" font-family="Helvetica,sans-Serif" font-size="10.00">+mNRIntervals</text>
</g>
<!-- Node7&#45;&gt;Node3 -->
<g id="edge7" class="edge"><title>Node7&#45;&gt;Node3</title>
<path fill="none" stroke="#404040" d="M507.923,-868.699C503.613,-856.792 498.547,-842.725 494.034,-830 483.65,-800.723 482.442,-792.893 471.034,-764 448.995,-708.188 423.021,-647.978 399.086,-594.358"/>
<polygon fill="none" stroke="#404040" points="399.072,-594.326 392.97,-590.483 394.17,-583.373 400.272,-587.215 399.072,-594.326"/>
<text text-anchor="middle" x="511.534" y="-805.5" font-family="Helvetica,sans-Serif" font-size="10.00"> +const</text>
<text text-anchor="middle" x="511.534" y="-794.5" font-family="Helvetica,sans-Serif" font-size="10.00">+binMin</text>
<text text-anchor="middle" x="511.534" y="-783.5" font-family="Helvetica,sans-Serif" font-size="10.00">#const</text>
</g>
<!-- Node8&#45;&gt;Node3 -->
<g id="edge8" class="edge"><title>Node8&#45;&gt;Node3</title>
<path fill="none" stroke="#404040" d="M192.806,-852.382C206.399,-808.835 228.293,-738.701 250.334,-668.093"/>
<polygon fill="none" stroke="#404040" points="250.439,-667.755 248.409,-660.836 254.015,-656.3 256.046,-663.22 250.439,-667.755"/>
<text text-anchor="middle" x="238.034" y="-794.5" font-family="Helvetica,sans-Serif" font-size="10.00"> #mCells</text>
</g>
<!-- Node9 -->
<g id="node9" class="node"><title>Node9</title>
<polygon fill="none" stroke="#bfbfbf" points="158.534,-1005.5 158.534,-1062.5 199.534,-1062.5 199.534,-1005.5 158.534,-1005.5"/>
<text text-anchor="middle" x="179.034" y="-1050.5" font-family="Helvetica,sans-Serif" font-size="10.00">static</text>
<polyline fill="none" stroke="#bfbfbf" points="158.534,-1043.5 199.534,-1043.5 "/>
<text text-anchor="middle" x="179.034" y="-1031.5" font-family="Helvetica,sans-Serif" font-size="10.00"> </text>
<polyline fill="none" stroke="#bfbfbf" points="158.534,-1024.5 199.534,-1024.5 "/>
<text text-anchor="middle" x="179.034" y="-1012.5" font-family="Helvetica,sans-Serif" font-size="10.00"> </text>
</g>
<!-- Node9&#45;&gt;Node8 -->
<g id="edge10" class="edge"><title>Node9&#45;&gt;Node8</title>
<path fill="none" stroke="#404040" d="M179.034,-1005.46C179.034,-990.853 179.034,-972.357 179.034,-954.869"/>
<polygon fill="none" stroke="#404040" points="179.034,-954.685 175.034,-948.685 179.034,-942.685 183.034,-948.685 179.034,-954.685"/>
<text text-anchor="middle" x="204.534" y="-973.5" font-family="Helvetica,sans-Serif" font-size="10.00"> +NParams</text>
</g>
</g>
</svg>
        <g id="navigator" transform="translate(0 0)" fill="#404254">
                <rect fill="#f2f5e9" fill-opacity="0.5" stroke="#606060" stroke-width=".5" x="0" y="0" width="60" height="60"/>
                <use id="zoomplus" xlink:href="#zoomPlus" x="17" y="9" onmousedown="handleZoom(evt,'in')"/>
                <use id="zoomminus" xlink:href="#zoomMin" x="42" y="9" onmousedown="handleZoom(evt,'out')"/>
                <use id="reset" xlink:href="#resetDef" x="30" y="36" onmousedown="handleReset()"/>
                <g id="arrowUp" xlink:href="#dirArrow" transform="translate(30 24)" onmousedown="handlePan(0,-1)">
                  <use xlink:href="#rim" fill="#404040">
                        <set attributeName="fill" to="#808080" begin="arrowUp.mouseover" end="arrowUp.mouseout"/>
                  </use>
                  <path fill="none" stroke="white" stroke-width="1.5" d="M0,-3.0v7 M-2.5,-0.5L0,-3.0L2.5,-0.5"/>
                </g>
                <g id="arrowRight" xlink:href="#dirArrow" transform="rotate(90) translate(36 -43)" onmousedown="handlePan(1,0)">
                  <use xlink:href="#rim" fill="#404040">
                        <set attributeName="fill" to="#808080" begin="arrowRight.mouseover" end="arrowRight.mouseout"/>
                  </use>
                  <path fill="none" stroke="white" stroke-width="1.5" d="M0,-3.0v7 M-2.5,-0.5L0,-3.0L2.5,-0.5"/>
                </g>
                <g id="arrowDown" xlink:href="#dirArrow" transform="rotate(180) translate(-30 -48)" onmousedown="handlePan(0,1)">
                  <use xlink:href="#rim" fill="#404040">
                        <set attributeName="fill" to="#808080" begin="arrowDown.mouseover" end="arrowDown.mouseout"/>
                  </use>
                  <path fill="none" stroke="white" stroke-width="1.5" d="M0,-3.0v7 M-2.5,-0.5L0,-3.0L2.5,-0.5"/>
                </g>
                <g id="arrowLeft" xlink:href="#dirArrow" transform="rotate(270) translate(-36 17)" onmousedown="handlePan(-1,0)">
                  <use xlink:href="#rim" fill="#404040">
                        <set attributeName="fill" to="#808080" begin="arrowLeft.mouseover" end="arrowLeft.mouseout"/>
                  </use>
                  <path fill="none" stroke="white" stroke-width="1.5" d="M0,-3.0v7 M-2.5,-0.5L0,-3.0L2.5,-0.5"/>
                </g>
        </g>
        <svg viewBox="0 0 15 15" width="100%" height="30px" preserveAspectRatio="xMaxYMin meet">
         <g id="arrow_out" transform="scale(0.3 0.3)">
          <a xlink:href="structo2_1_1base_1_1MatLayerCylSetLayout__coll__graph_org.svg" target="_base">
           <rect id="button" ry="5" rx="5" y="6" x="6" height="38" width="38"
                fill="#f2f5e9" fill-opacity="0.5" stroke="#606060" stroke-width="1.0"/>
           <path id="arrow"
             d="M 11.500037,31.436501 C 11.940474,20.09759 22.043105,11.32322 32.158766,21.979434 L 37.068811,17.246167 C 37.068811,17.246167 37.088388,32 37.088388,32 L 22.160133,31.978069 C 22.160133,31.978069 26.997745,27.140456 26.997745,27.140456 C 18.528582,18.264221 13.291696,25.230495 11.500037,31.436501 z"
             style="fill:#404040;"/>
          </a>
         </g>
        </svg>
</svg>
