<?xml version="1.0" encoding="UTF-8" standalone="no"?>
<!DOCTYPE svg PUBLIC "-//W3C//DTD SVG 1.1//EN"
 "http://www.w3.org/Graphics/SVG/1.1/DTD/svg11.dtd">
<!-- Generated by graphviz version 2.38.0 (20140413.2041)
 -->
<!-- Title: /home/travis/build/AliceO2Group/AliceO2/Detectors/EMCAL/reconstruction/include/EMCALReconstruction/DigitReader.h Pages: 1 -->
<!--zoomable 307 -->
<svg id="main" version="1.1" xmlns="http://www.w3.org/2000/svg" xmlns:xlink="http://www.w3.org/1999/xlink" xml:space="preserve" onload="init(evt)">
<style type="text/css"><![CDATA[
.edge:hover path { stroke: red; }
.edge:hover polygon { stroke: red; fill: red; }
]]></style>
<script type="text/javascript"><![CDATA[
var edges = document.getElementsByTagName('g');
if (edges && edges.length) {
  for (var i=0;i<edges.length;i++) {
    if (edges[i].id.substr(0,4)=='edge') {
      edges[i].setAttribute('class','edge');
    }
  }
}
]]></script>
        <defs>
                <circle id="rim" cx="0" cy="0" r="7"/>
                <circle id="rim2" cx="0" cy="0" r="3.5"/>
                <g id="zoomPlus">
                        <use xlink:href="#rim" fill="#404040">
                                <set attributeName="fill" to="#808080" begin="zoomplus.mouseover" end="zoomplus.mouseout"/>
                        </use>
                        <path d="M-4,0h8M0,-4v8" fill="none" stroke="white" stroke-width="1.5" pointer-events="none"/>
                </g>
                <g id="zoomMin">
                        <use xlink:href="#rim" fill="#404040">
                                <set attributeName="fill" to="#808080" begin="zoomminus.mouseover" end="zoomminus.mouseout"/>
                        </use>
                        <path d="M-4,0h8" fill="none" stroke="white" stroke-width="1.5" pointer-events="none"/>
                </g>
                <g id="dirArrow">
                        <path fill="none" stroke="white" stroke-width="1.5" d="M0,-3.0v7 M-2.5,-0.5L0,-3.0L2.5,-0.5"/>
                </g>
               <g id="resetDef">
                       <use xlink:href="#rim2" fill="#404040">
                               <set attributeName="fill" to="#808080" begin="reset.mouseover" end="reset.mouseout"/>
                       </use>
               </g>
        </defs>

<script type="text/javascript">
var viewWidth = 593;
var viewHeight = 307;
var sectionId = 'dynsection-0';
</script>
<script xlink:href="../../svgpan.js"/>
<svg id="graph" class="graph">
<g id="viewport">
<title>/home/travis/build/AliceO2Group/AliceO2/Detectors/EMCAL/reconstruction/include/EMCALReconstruction/DigitReader.h</title>
<!-- Node1 -->
<g id="node1" class="node"><title>Node1</title>
<polygon fill="#bfbfbf" stroke="black" points="84.3589,-235.5 84.3589,-298.5 248.359,-298.5 248.359,-235.5 84.3589,-235.5"/>
<text text-anchor="start" x="92.3589" y="-286.5" font-family="Helvetica,sans-Serif" font-size="10.00">/home/travis/build</text>
<text text-anchor="start" x="92.3589" y="-275.5" font-family="Helvetica,sans-Serif" font-size="10.00">/AliceO2Group/AliceO2</text>
<text text-anchor="start" x="92.3589" y="-264.5" font-family="Helvetica,sans-Serif" font-size="10.00">/Detectors/EMCAL/reconstruction</text>
<text text-anchor="start" x="92.3589" y="-253.5" font-family="Helvetica,sans-Serif" font-size="10.00">/include/EMCALReconstruction</text>
<text text-anchor="middle" x="166.359" y="-242.5" font-family="Helvetica,sans-Serif" font-size="10.00">/DigitReader.h</text>
</g>
<!-- Node2 -->
<g id="node2" class="node"><title>Node2</title>
<polygon fill="none" stroke="#bfbfbf" points="85.3589,-179.5 85.3589,-198.5 135.359,-198.5 135.359,-179.5 85.3589,-179.5"/>
<text text-anchor="middle" x="110.359" y="-186.5" font-family="Helvetica,sans-Serif" font-size="10.00">TTree.h</text>
</g>
<!-- Node1&#45;&gt;Node2 -->
<g id="edge1" class="edge"><title>Node1&#45;&gt;Node2</title>
<path fill="none" stroke="midnightblue" d="M143.582,-235.088C136.465,-225.43 128.883,-215.14 122.761,-206.831"/>
<polygon fill="midnightblue" stroke="midnightblue" points="125.533,-204.693 116.783,-198.718 119.897,-208.845 125.533,-204.693"/>
</g>
<!-- Node3 -->
<g id="node3" class="node"><title>Node3</title>
<g id="a_node3"><a xlink:href="../../d3/d6e/DataFormats_2Detectors_2EMCAL_2include_2DataFormatsEMCAL_2Digit_8h.html" target="_top" xlink:title="DataFormatsEMCAL/Digit.h">
<polygon fill="none" stroke="black" points="153.359,-179.5 153.359,-198.5 293.359,-198.5 293.359,-179.5 153.359,-179.5"/>
<text text-anchor="middle" x="223.359" y="-186.5" font-family="Helvetica,sans-Serif" font-size="10.00">DataFormatsEMCAL/Digit.h</text>
</a>
</g>
</g>
<!-- Node1&#45;&gt;Node3 -->
<g id="edge2" class="edge"><title>Node1&#45;&gt;Node3</title>
<path fill="none" stroke="midnightblue" d="M189.543,-235.088C196.786,-225.43 204.504,-215.14 210.735,-206.831"/>
<polygon fill="midnightblue" stroke="midnightblue" points="213.62,-208.818 216.82,-198.718 208.02,-204.618 213.62,-208.818"/>
</g>
<!-- Node4 -->
<g id="node4" class="node"><title>Node4</title>
<polygon fill="none" stroke="#bfbfbf" points="256.859,-56.5 256.859,-75.5 301.859,-75.5 301.859,-56.5 256.859,-56.5"/>
<text text-anchor="middle" x="279.359" y="-63.5" font-family="Helvetica,sans-Serif" font-size="10.00">iosfwd</text>
</g>
<!-- Node3&#45;&gt;Node4 -->
<g id="edge3" class="edge"><title>Node3&#45;&gt;Node4</title>
<path fill="none" stroke="midnightblue" d="M232.636,-179.216C241.075,-170.719 253.262,-157.092 260.359,-143 269.515,-124.82 274.46,-101.919 276.987,-86.0325"/>
<polygon fill="midnightblue" stroke="midnightblue" points="280.489,-86.2638 278.426,-75.8718 273.559,-85.2822 280.489,-86.2638"/>
</g>
<!-- Node5 -->
<g id="node5" class="node"><title>Node5</title>
<polygon fill="none" stroke="#bfbfbf" points="19.3589,-118 19.3589,-137 63.3589,-137 63.3589,-118 19.3589,-118"/>
<text text-anchor="middle" x="41.3589" y="-125" font-family="Helvetica,sans-Serif" font-size="10.00">cmath</text>
</g>
<!-- Node3&#45;&gt;Node5 -->
<g id="edge4" class="edge"><title>Node3&#45;&gt;Node5</title>
<path fill="none" stroke="midnightblue" d="M189.599,-179.475C158.68,-171.308 111.859,-158.029 72.3589,-143 70.9359,-142.459 69.4871,-141.88 68.0321,-141.278"/>
<polygon fill="midnightblue" stroke="midnightblue" points="69.1054,-137.926 58.5437,-137.089 66.2781,-144.329 69.1054,-137.926"/>
</g>
<!-- Node6 -->
<g id="node6" class="node"><title>Node6</title>
<polygon fill="none" stroke="#bfbfbf" points="138.359,-0.5 138.359,-19.5 194.359,-19.5 194.359,-0.5 138.359,-0.5"/>
<text text-anchor="middle" x="166.359" y="-7.5" font-family="Helvetica,sans-Serif" font-size="10.00">Rtypes.h</text>
</g>
<!-- Node3&#45;&gt;Node6 -->
<g id="edge5" class="edge"><title>Node3&#45;&gt;Node6</title>
<path fill="none" stroke="midnightblue" d="M164.93,-179.49C105.306,-170.211 20.1481,-155.073 10.3589,-143 -31.6739,-91.1592 72.3042,-44.2298 130.403,-22.9866"/>
<polygon fill="midnightblue" stroke="midnightblue" points="131.749,-26.2224 139.988,-19.5617 129.394,-19.6305 131.749,-26.2224"/>
</g>
<!-- Node7 -->
<g id="node7" class="node"><title>Node7</title>
<g id="a_node7"><a xlink:href="../../df/d5d/common_2include_2CommonDataFormat_2TimeStamp_8h.html" target="_top" xlink:title="CommonDataFormat/TimeStamp.h">
<polygon fill="none" stroke="black" points="81.3589,-118 81.3589,-137 251.359,-137 251.359,-118 81.3589,-118"/>
<text text-anchor="middle" x="166.359" y="-125" font-family="Helvetica,sans-Serif" font-size="10.00">CommonDataFormat/TimeStamp.h</text>
</a>
</g>
</g>
<!-- Node3&#45;&gt;Node7 -->
<g id="edge6" class="edge"><title>Node3&#45;&gt;Node7</title>
<path fill="none" stroke="midnightblue" d="M215.192,-179.475C206.473,-170.373 192.455,-155.741 181.67,-144.483"/>
<polygon fill="midnightblue" stroke="midnightblue" points="183.956,-141.809 174.51,-137.009 178.901,-146.651 183.956,-141.809"/>
</g>
<!-- Node9 -->
<g id="node9" class="node"><title>Node9</title>
<g id="a_node9"><a xlink:href="../../dd/dda/DataFormats_2Detectors_2EMCAL_2include_2DataFormatsEMCAL_2Constants_8h.html" target="_top" xlink:title="DataFormatsEMCAL/Constants.h">
<polygon fill="none" stroke="black" points="307.359,-118 307.359,-137 471.359,-137 471.359,-118 307.359,-118"/>
<text text-anchor="middle" x="389.359" y="-125" font-family="Helvetica,sans-Serif" font-size="10.00">DataFormatsEMCAL/Constants.h</text>
</a>
</g>
</g>
<!-- Node3&#45;&gt;Node9 -->
<g id="edge9" class="edge"><title>Node3&#45;&gt;Node9</title>
<path fill="none" stroke="midnightblue" d="M247.143,-179.475C275.741,-169.225 323.91,-151.959 356.161,-140.399"/>
<polygon fill="midnightblue" stroke="midnightblue" points="357.387,-143.678 365.619,-137.009 355.025,-137.089 357.387,-143.678"/>
</g>
<!-- Node12 -->
<g id="node12" class="node"><title>Node12</title>
<polygon fill="none" stroke="#bfbfbf" points="489.859,-112.5 489.859,-142.5 584.859,-142.5 584.859,-112.5 489.859,-112.5"/>
<text text-anchor="start" x="497.859" y="-130.5" font-family="Helvetica,sans-Serif" font-size="10.00">boost/serialization</text>
<text text-anchor="middle" x="537.359" y="-119.5" font-family="Helvetica,sans-Serif" font-size="10.00">/base_object.hpp</text>
</g>
<!-- Node3&#45;&gt;Node12 -->
<g id="edge14" class="edge"><title>Node3&#45;&gt;Node12</title>
<path fill="none" stroke="midnightblue" d="M279.242,-179.467C329.217,-171.553 404.662,-158.912 479.73,-143.034"/>
<polygon fill="midnightblue" stroke="midnightblue" points="480.788,-146.387 489.837,-140.876 479.326,-139.541 480.788,-146.387"/>
</g>
<!-- Node8 -->
<g id="node8" class="node"><title>Node8</title>
<g id="a_node8"><a xlink:href="../../d2/d45/GPUCommonRtypes_8h.html" target="_top" xlink:title="GPUCommonRtypes.h">
<polygon fill="none" stroke="black" points="107.359,-56.5 107.359,-75.5 225.359,-75.5 225.359,-56.5 107.359,-56.5"/>
<text text-anchor="middle" x="166.359" y="-63.5" font-family="Helvetica,sans-Serif" font-size="10.00">GPUCommonRtypes.h</text>
</a>
</g>
</g>
<!-- Node7&#45;&gt;Node8 -->
<g id="edge7" class="edge"><title>Node7&#45;&gt;Node8</title>
<path fill="none" stroke="midnightblue" d="M166.359,-117.975C166.359,-109.58 166.359,-96.4806 166.359,-85.6631"/>
<polygon fill="midnightblue" stroke="midnightblue" points="169.859,-85.5091 166.359,-75.5091 162.859,-85.5091 169.859,-85.5091"/>
</g>
<!-- Node8&#45;&gt;Node6 -->
<g id="edge8" class="edge"><title>Node8&#45;&gt;Node6</title>
<path fill="none" stroke="midnightblue" d="M166.359,-56.083C166.359,-49.0059 166.359,-38.8611 166.359,-29.9865"/>
<polygon fill="midnightblue" stroke="midnightblue" points="169.859,-29.751 166.359,-19.7511 162.859,-29.7511 169.859,-29.751"/>
</g>
<!-- Node9&#45;&gt;Node4 -->
<g id="edge11" class="edge"><title>Node9&#45;&gt;Node4</title>
<path fill="none" stroke="midnightblue" d="M373.599,-117.975C355.383,-108.122 325.186,-91.7883 303.891,-80.2697"/>
<polygon fill="midnightblue" stroke="midnightblue" points="305.551,-77.1883 295.09,-75.5091 302.22,-83.3453 305.551,-77.1883"/>
</g>
<!-- Node9&#45;&gt;Node6 -->
<g id="edge10" class="edge"><title>Node9&#45;&gt;Node6</title>
<path fill="none" stroke="midnightblue" d="M381.962,-117.828C368.936,-103.076 340.423,-73.0439 310.359,-56 277.034,-37.1073 234.786,-25.114 204.687,-18.3032"/>
<polygon fill="midnightblue" stroke="midnightblue" points="205.097,-14.8107 194.582,-16.1074 203.611,-21.6511 205.097,-14.8107"/>
</g>
<!-- Node10 -->
<g id="node10" class="node"><title>Node10</title>
<polygon fill="none" stroke="#bfbfbf" points="358.859,-56.5 358.859,-75.5 417.859,-75.5 417.859,-56.5 358.859,-56.5"/>
<text text-anchor="middle" x="388.359" y="-63.5" font-family="Helvetica,sans-Serif" font-size="10.00">exception</text>
</g>
<!-- Node9&#45;&gt;Node10 -->
<g id="edge12" class="edge"><title>Node9&#45;&gt;Node10</title>
<path fill="none" stroke="midnightblue" d="M389.216,-117.975C389.075,-109.58 388.854,-96.4806 388.673,-85.6631"/>
<polygon fill="midnightblue" stroke="midnightblue" points="392.17,-85.4488 388.502,-75.5091 385.171,-85.5665 392.17,-85.4488"/>
</g>
<!-- Node11 -->
<g id="node11" class="node"><title>Node11</title>
<polygon fill="none" stroke="#bfbfbf" points="436.359,-56.5 436.359,-75.5 482.359,-75.5 482.359,-56.5 436.359,-56.5"/>
<text text-anchor="middle" x="459.359" y="-63.5" font-family="Helvetica,sans-Serif" font-size="10.00">cstdint</text>
</g>
<!-- Node9&#45;&gt;Node11 -->
<g id="edge13" class="edge"><title>Node9&#45;&gt;Node11</title>
<path fill="none" stroke="midnightblue" d="M399.388,-117.975C410.408,-108.608 428.319,-93.3839 441.702,-82.0081"/>
<polygon fill="midnightblue" stroke="midnightblue" points="443.996,-84.6524 449.348,-75.5091 439.462,-79.3188 443.996,-84.6524"/>
</g>
</g>
</svg>
        <g id="navigator" transform="translate(0 0)" fill="#404254">
                <rect fill="#f2f5e9" fill-opacity="0.5" stroke="#606060" stroke-width=".5" x="0" y="0" width="60" height="60"/>
                <use id="zoomplus" xlink:href="#zoomPlus" x="17" y="9" onmousedown="handleZoom(evt,'in')"/>
                <use id="zoomminus" xlink:href="#zoomMin" x="42" y="9" onmousedown="handleZoom(evt,'out')"/>
                <use id="reset" xlink:href="#resetDef" x="30" y="36" onmousedown="handleReset()"/>
                <g id="arrowUp" xlink:href="#dirArrow" transform="translate(30 24)" onmousedown="handlePan(0,-1)">
                  <use xlink:href="#rim" fill="#404040">
                        <set attributeName="fill" to="#808080" begin="arrowUp.mouseover" end="arrowUp.mouseout"/>
                  </use>
                  <path fill="none" stroke="white" stroke-width="1.5" d="M0,-3.0v7 M-2.5,-0.5L0,-3.0L2.5,-0.5"/>
                </g>
                <g id="arrowRight" xlink:href="#dirArrow" transform="rotate(90) translate(36 -43)" onmousedown="handlePan(1,0)">
                  <use xlink:href="#rim" fill="#404040">
                        <set attributeName="fill" to="#808080" begin="arrowRight.mouseover" end="arrowRight.mouseout"/>
                  </use>
                  <path fill="none" stroke="white" stroke-width="1.5" d="M0,-3.0v7 M-2.5,-0.5L0,-3.0L2.5,-0.5"/>
                </g>
                <g id="arrowDown" xlink:href="#dirArrow" transform="rotate(180) translate(-30 -48)" onmousedown="handlePan(0,1)">
                  <use xlink:href="#rim" fill="#404040">
                        <set attributeName="fill" to="#808080" begin="arrowDown.mouseover" end="arrowDown.mouseout"/>
                  </use>
                  <path fill="none" stroke="white" stroke-width="1.5" d="M0,-3.0v7 M-2.5,-0.5L0,-3.0L2.5,-0.5"/>
                </g>
                <g id="arrowLeft" xlink:href="#dirArrow" transform="rotate(270) translate(-36 17)" onmousedown="handlePan(-1,0)">
                  <use xlink:href="#rim" fill="#404040">
                        <set attributeName="fill" to="#808080" begin="arrowLeft.mouseover" end="arrowLeft.mouseout"/>
                  </use>
                  <path fill="none" stroke="white" stroke-width="1.5" d="M0,-3.0v7 M-2.5,-0.5L0,-3.0L2.5,-0.5"/>
                </g>
        </g>
        <svg viewBox="0 0 15 15" width="100%" height="30px" preserveAspectRatio="xMaxYMin meet">
         <g id="arrow_out" transform="scale(0.3 0.3)">
          <a xlink:href="DigitReader_8h__incl_org.svg" target="_base">
           <rect id="button" ry="5" rx="5" y="6" x="6" height="38" width="38"
                fill="#f2f5e9" fill-opacity="0.5" stroke="#606060" stroke-width="1.0"/>
           <path id="arrow"
             d="M 11.500037,31.436501 C 11.940474,20.09759 22.043105,11.32322 32.158766,21.979434 L 37.068811,17.246167 C 37.068811,17.246167 37.088388,32 37.088388,32 L 22.160133,31.978069 C 22.160133,31.978069 26.997745,27.140456 26.997745,27.140456 C 18.528582,18.264221 13.291696,25.230495 11.500037,31.436501 z"
             style="fill:#404040;"/>
          </a>
         </g>
        </svg>
</svg>
