<?xml version="1.0" encoding="UTF-8" standalone="no"?>
<!DOCTYPE svg PUBLIC "-//W3C//DTD SVG 1.1//EN"
 "http://www.w3.org/Graphics/SVG/1.1/DTD/svg11.dtd">
<!-- Generated by graphviz version 2.38.0 (20140413.2041)
 -->
<!-- Title: o2::tpc::PublisherConf Pages: 1 -->
<!--zoomable 593 -->
<svg id="main" version="1.1" xmlns="http://www.w3.org/2000/svg" xmlns:xlink="http://www.w3.org/1999/xlink" xml:space="preserve" onload="init(evt)">
<style type="text/css"><![CDATA[
.edge:hover path { stroke: red; }
.edge:hover polygon { stroke: red; fill: red; }
]]></style>
<script type="text/javascript"><![CDATA[
var edges = document.getElementsByTagName('g');
if (edges && edges.length) {
  for (var i=0;i<edges.length;i++) {
    if (edges[i].id.substr(0,4)=='edge') {
      edges[i].setAttribute('class','edge');
    }
  }
}
]]></script>
        <defs>
                <circle id="rim" cx="0" cy="0" r="7"/>
                <circle id="rim2" cx="0" cy="0" r="3.5"/>
                <g id="zoomPlus">
                        <use xlink:href="#rim" fill="#404040">
                                <set attributeName="fill" to="#808080" begin="zoomplus.mouseover" end="zoomplus.mouseout"/>
                        </use>
                        <path d="M-4,0h8M0,-4v8" fill="none" stroke="white" stroke-width="1.5" pointer-events="none"/>
                </g>
                <g id="zoomMin">
                        <use xlink:href="#rim" fill="#404040">
                                <set attributeName="fill" to="#808080" begin="zoomminus.mouseover" end="zoomminus.mouseout"/>
                        </use>
                        <path d="M-4,0h8" fill="none" stroke="white" stroke-width="1.5" pointer-events="none"/>
                </g>
                <g id="dirArrow">
                        <path fill="none" stroke="white" stroke-width="1.5" d="M0,-3.0v7 M-2.5,-0.5L0,-3.0L2.5,-0.5"/>
                </g>
               <g id="resetDef">
                       <use xlink:href="#rim2" fill="#404040">
                               <set attributeName="fill" to="#808080" begin="reset.mouseover" end="reset.mouseout"/>
                       </use>
               </g>
        </defs>

<script type="text/javascript">
var viewWidth = 538;
var viewHeight = 593;
var sectionId = 'dynsection-0';
</script>
<script xlink:href="../../svgpan.js"/>
<svg id="graph" class="graph">
<g id="viewport">
<title>o2::tpc::PublisherConf</title>
<!-- Node1 -->
<g id="node1" class="node"><title>Node1</title>
<polygon fill="#bfbfbf" stroke="black" points="146.297,-0.5 146.297,-57.5 260.297,-57.5 260.297,-0.5 146.297,-0.5"/>
<text text-anchor="middle" x="203.297" y="-45.5" font-family="Helvetica,sans-Serif" font-size="10.00">o2::tpc::PublisherConf</text>
<polyline fill="none" stroke="black" points="146.297,-38.5 260.297,-38.5 "/>
<text text-anchor="middle" x="203.297" y="-26.5" font-family="Helvetica,sans-Serif" font-size="10.00"> </text>
<polyline fill="none" stroke="black" points="146.297,-19.5 260.297,-19.5 "/>
<text text-anchor="middle" x="203.297" y="-7.5" font-family="Helvetica,sans-Serif" font-size="10.00"> </text>
</g>
<!-- Node2 -->
<g id="node2" class="node"><title>Node2</title>
<g id="a_node2"><a xlink:href="../../df/d24/structo2_1_1tpc_1_1PublisherConf_1_1BranchOptionConfig.html" target="_top" xlink:title="{o2::tpc::PublisherConf\l::BranchOptionConfig\n||}">
<polygon fill="none" stroke="black" points="103.297,-280.5 103.297,-348.5 217.297,-348.5 217.297,-280.5 103.297,-280.5"/>
<text text-anchor="start" x="111.297" y="-336.5" font-family="Helvetica,sans-Serif" font-size="10.00">o2::tpc::PublisherConf</text>
<text text-anchor="middle" x="160.297" y="-325.5" font-family="Helvetica,sans-Serif" font-size="10.00">::BranchOptionConfig</text>
<polyline fill="none" stroke="black" points="103.297,-318.5 217.297,-318.5 "/>
<text text-anchor="middle" x="160.297" y="-306.5" font-family="Helvetica,sans-Serif" font-size="10.00"> </text>
<polyline fill="none" stroke="black" points="103.297,-299.5 217.297,-299.5 "/>
<text text-anchor="middle" x="160.297" y="-287.5" font-family="Helvetica,sans-Serif" font-size="10.00"> </text>
</a>
</g>
</g>
<!-- Node2&#45;&gt;Node1 -->
<g id="edge1" class="edge"><title>Node2&#45;&gt;Node1</title>
<path fill="none" stroke="#404040" d="M158.499,-280.226C157.116,-240.624 157.147,-172.721 169.297,-116 172.719,-100.02 178.796,-83.1517 184.874,-68.6275"/>
<polygon fill="none" stroke="#404040" points="184.909,-68.5466 183.636,-61.4487 189.699,-57.5438 190.971,-64.6417 184.909,-68.5466"/>
<text text-anchor="middle" x="196.797" y="-192" font-family="Helvetica,sans-Serif" font-size="10.00"> +mcbranch</text>
<text text-anchor="middle" x="196.797" y="-181" font-family="Helvetica,sans-Serif" font-size="10.00">+databranch</text>
</g>
<!-- Node3 -->
<g id="node3" class="node"><title>Node3</title>
<polygon fill="none" stroke="#bfbfbf" points="59.7965,-527.5 59.7965,-584.5 100.797,-584.5 100.797,-527.5 59.7965,-527.5"/>
<text text-anchor="middle" x="80.2965" y="-572.5" font-family="Helvetica,sans-Serif" font-size="10.00">string</text>
<polyline fill="none" stroke="#bfbfbf" points="59.7965,-565.5 100.797,-565.5 "/>
<text text-anchor="middle" x="80.2965" y="-553.5" font-family="Helvetica,sans-Serif" font-size="10.00"> </text>
<polyline fill="none" stroke="#bfbfbf" points="59.7965,-546.5 100.797,-546.5 "/>
<text text-anchor="middle" x="80.2965" y="-534.5" font-family="Helvetica,sans-Serif" font-size="10.00"> </text>
</g>
<!-- Node3&#45;&gt;Node1 -->
<g id="edge9" class="edge"><title>Node3&#45;&gt;Node1</title>
<path fill="none" stroke="#404040" d="M62.5194,-527.263C32.7543,-477.183 -21.059,-368.632 9.29654,-280 39.5019,-191.806 114.9,-110.69 162.309,-66.0169"/>
<polygon fill="none" stroke="#404040" points="162.603,-65.7436 164.277,-58.7295 171.396,-57.577 169.722,-64.5911 162.603,-65.7436"/>
<text text-anchor="middle" x="51.7965" y="-317.5" font-family="Helvetica,sans-Serif" font-size="10.00"> +defaultTreeName</text>
<text text-anchor="middle" x="51.7965" y="-306.5" font-family="Helvetica,sans-Serif" font-size="10.00">+processName</text>
</g>
<!-- Node3&#45;&gt;Node2 -->
<g id="edge2" class="edge"><title>Node3&#45;&gt;Node2</title>
<path fill="none" stroke="#404040" d="M76.417,-527.381C72.3959,-488.751 70.2259,-417.642 99.2965,-367 101.135,-363.798 103.251,-360.704 105.567,-357.732"/>
<polygon fill="none" stroke="#404040" points="105.622,-357.67 106.585,-350.523 113.552,-348.663 112.589,-355.81 105.622,-357.67"/>
<text text-anchor="middle" x="93.2965" y="-501" font-family="Helvetica,sans-Serif" font-size="10.00"> +option</text>
<text text-anchor="middle" x="93.2965" y="-490" font-family="Helvetica,sans-Serif" font-size="10.00">+defval</text>
<text text-anchor="middle" x="93.2965" y="-479" font-family="Helvetica,sans-Serif" font-size="10.00">+help</text>
</g>
<!-- Node7 -->
<g id="node7" class="node"><title>Node7</title>
<g id="a_node7"><a xlink:href="../../de/d1b/structo2_1_1framework_1_1OutputLabel.html" target="_top" xlink:title="{o2::framework::OutputLabel\n||}">
<polygon fill="none" stroke="black" points="108.797,-384 108.797,-441 245.797,-441 245.797,-384 108.797,-384"/>
<text text-anchor="middle" x="177.297" y="-429" font-family="Helvetica,sans-Serif" font-size="10.00">o2::framework::OutputLabel</text>
<polyline fill="none" stroke="black" points="108.797,-422 245.797,-422 "/>
<text text-anchor="middle" x="177.297" y="-410" font-family="Helvetica,sans-Serif" font-size="10.00"> </text>
<polyline fill="none" stroke="black" points="108.797,-403 245.797,-403 "/>
<text text-anchor="middle" x="177.297" y="-391" font-family="Helvetica,sans-Serif" font-size="10.00"> </text>
</a>
</g>
</g>
<!-- Node3&#45;&gt;Node7 -->
<g id="edge7" class="edge"><title>Node3&#45;&gt;Node7</title>
<path fill="none" stroke="#404040" d="M101.067,-532.73C107.517,-525.398 114.46,-517.056 120.297,-509 133.429,-490.871 146.358,-469.576 156.573,-451.7"/>
<polygon fill="none" stroke="#404040" points="156.671,-451.526 156.131,-444.335 162.561,-441.07 163.101,-448.261 156.671,-451.526"/>
<text text-anchor="middle" x="157.797" y="-490" font-family="Helvetica,sans-Serif" font-size="10.00"> +value</text>
</g>
<!-- Node4 -->
<g id="node4" class="node"><title>Node4</title>
<polygon fill="none" stroke="#bfbfbf" points="389.297,-160.5 389.297,-217.5 461.297,-217.5 461.297,-160.5 389.297,-160.5"/>
<text text-anchor="middle" x="425.297" y="-205.5" font-family="Helvetica,sans-Serif" font-size="10.00">vector&lt; int &gt;</text>
<polyline fill="none" stroke="#bfbfbf" points="389.297,-198.5 461.297,-198.5 "/>
<text text-anchor="middle" x="425.297" y="-186.5" font-family="Helvetica,sans-Serif" font-size="10.00"> </text>
<polyline fill="none" stroke="#bfbfbf" points="389.297,-179.5 461.297,-179.5 "/>
<text text-anchor="middle" x="425.297" y="-167.5" font-family="Helvetica,sans-Serif" font-size="10.00"> </text>
</g>
<!-- Node4&#45;&gt;Node1 -->
<g id="edge3" class="edge"><title>Node4&#45;&gt;Node1</title>
<path fill="none" stroke="#404040" d="M412.097,-160.156C404.154,-145.619 392.935,-128.341 379.297,-116 348.484,-88.1196 306.99,-67.2618 272.031,-53.0744"/>
<polygon fill="none" stroke="#404040" points="271.617,-52.9117 264.569,-54.4373 260.45,-48.5182 267.498,-46.9927 271.617,-52.9117"/>
<text text-anchor="middle" x="383.797" y="-90" font-family="Helvetica,sans-Serif" font-size="10.00"> +tpcSectors</text>
<text text-anchor="middle" x="383.797" y="-79" font-family="Helvetica,sans-Serif" font-size="10.00">+outputIds</text>
</g>
<!-- Node5 -->
<g id="node5" class="node"><title>Node5</title>
<g id="a_node5"><a xlink:href="../../d8/dc3/structo2_1_1framework_1_1OutputSpec.html" target="_top" xlink:title="{o2::framework::OutputSpec\n||+ OutputSpec()\l+ OutputSpec()\l+ OutputSpec()\l+ OutputSpec()\l+ OutputSpec()\l+ OutputSpec()\l+ OutputSpec()\l+ OutputSpec()\l+ operator==()\l}">
<polygon fill="none" stroke="black" points="233.797,-116.5 233.797,-261.5 370.797,-261.5 370.797,-116.5 233.797,-116.5"/>
<text text-anchor="middle" x="302.297" y="-249.5" font-family="Helvetica,sans-Serif" font-size="10.00">o2::framework::OutputSpec</text>
<polyline fill="none" stroke="black" points="233.797,-242.5 370.797,-242.5 "/>
<text text-anchor="middle" x="302.297" y="-230.5" font-family="Helvetica,sans-Serif" font-size="10.00"> </text>
<polyline fill="none" stroke="black" points="233.797,-223.5 370.797,-223.5 "/>
<text text-anchor="start" x="241.797" y="-211.5" font-family="Helvetica,sans-Serif" font-size="10.00">+ OutputSpec()</text>
<text text-anchor="start" x="241.797" y="-200.5" font-family="Helvetica,sans-Serif" font-size="10.00">+ OutputSpec()</text>
<text text-anchor="start" x="241.797" y="-189.5" font-family="Helvetica,sans-Serif" font-size="10.00">+ OutputSpec()</text>
<text text-anchor="start" x="241.797" y="-178.5" font-family="Helvetica,sans-Serif" font-size="10.00">+ OutputSpec()</text>
<text text-anchor="start" x="241.797" y="-167.5" font-family="Helvetica,sans-Serif" font-size="10.00">+ OutputSpec()</text>
<text text-anchor="start" x="241.797" y="-156.5" font-family="Helvetica,sans-Serif" font-size="10.00">+ OutputSpec()</text>
<text text-anchor="start" x="241.797" y="-145.5" font-family="Helvetica,sans-Serif" font-size="10.00">+ OutputSpec()</text>
<text text-anchor="start" x="241.797" y="-134.5" font-family="Helvetica,sans-Serif" font-size="10.00">+ OutputSpec()</text>
<text text-anchor="start" x="241.797" y="-123.5" font-family="Helvetica,sans-Serif" font-size="10.00">+ operator==()</text>
</a>
</g>
</g>
<!-- Node5&#45;&gt;Node1 -->
<g id="edge4" class="edge"><title>Node5&#45;&gt;Node1</title>
<path fill="none" stroke="#404040" d="M257.431,-116.397C246.994,-99.74 236.28,-82.641 227.167,-68.0963"/>
<polygon fill="none" stroke="#404040" points="226.913,-67.6903 220.337,-64.7297 220.541,-57.5215 227.116,-60.482 226.913,-67.6903"/>
<text text-anchor="middle" x="270.297" y="-90" font-family="Helvetica,sans-Serif" font-size="10.00"> +mcoutput</text>
<text text-anchor="middle" x="270.297" y="-79" font-family="Helvetica,sans-Serif" font-size="10.00">+dataoutput</text>
</g>
<!-- Node6 -->
<g id="node6" class="node"><title>Node6</title>
<polygon fill="none" stroke="#bfbfbf" points="264.297,-384 264.297,-441 342.297,-441 342.297,-384 264.297,-384"/>
<text text-anchor="middle" x="303.297" y="-429" font-family="Helvetica,sans-Serif" font-size="10.00">enum Lifetime</text>
<polyline fill="none" stroke="#bfbfbf" points="264.297,-422 342.297,-422 "/>
<text text-anchor="middle" x="303.297" y="-410" font-family="Helvetica,sans-Serif" font-size="10.00"> </text>
<polyline fill="none" stroke="#bfbfbf" points="264.297,-403 342.297,-403 "/>
<text text-anchor="middle" x="303.297" y="-391" font-family="Helvetica,sans-Serif" font-size="10.00"> </text>
</g>
<!-- Node6&#45;&gt;Node5 -->
<g id="edge5" class="edge"><title>Node6&#45;&gt;Node5</title>
<path fill="none" stroke="#404040" d="M303.172,-383.895C303.048,-356.418 302.851,-312.852 302.676,-273.97"/>
<polygon fill="none" stroke="#404040" points="302.675,-273.807 298.648,-267.825 302.621,-261.807 306.648,-267.789 302.675,-273.807"/>
<text text-anchor="middle" x="323.797" y="-312" font-family="Helvetica,sans-Serif" font-size="10.00"> +lifetime</text>
</g>
<!-- Node7&#45;&gt;Node5 -->
<g id="edge6" class="edge"><title>Node7&#45;&gt;Node5</title>
<path fill="none" stroke="#404040" d="M196.238,-383.856C203.382,-373.116 211.435,-360.622 218.297,-349 232.744,-324.528 247.538,-297.355 260.605,-272.497"/>
<polygon fill="none" stroke="#404040" points="260.727,-272.265 259.962,-265.094 266.286,-261.63 267.051,-268.8 260.727,-272.265"/>
<text text-anchor="middle" x="277.297" y="-312" font-family="Helvetica,sans-Serif" font-size="10.00"> +binding</text>
</g>
<!-- Node8 -->
<g id="node8" class="node"><title>Node8</title>
<polygon fill="none" stroke="#bfbfbf" points="360.297,-367.5 360.297,-457.5 530.297,-457.5 530.297,-367.5 360.297,-367.5"/>
<text text-anchor="start" x="368.297" y="-445.5" font-family="Helvetica,sans-Serif" font-size="10.00">variant&lt; o2::framework</text>
<text text-anchor="start" x="368.297" y="-434.5" font-family="Helvetica,sans-Serif" font-size="10.00">::ConcreteDataMatcher,</text>
<text text-anchor="start" x="368.297" y="-423.5" font-family="Helvetica,sans-Serif" font-size="10.00"> o2::framework::ConcreteDataType</text>
<text text-anchor="middle" x="445.297" y="-412.5" font-family="Helvetica,sans-Serif" font-size="10.00">Matcher &gt;</text>
<polyline fill="none" stroke="#bfbfbf" points="360.297,-405.5 530.297,-405.5 "/>
<text text-anchor="middle" x="445.297" y="-393.5" font-family="Helvetica,sans-Serif" font-size="10.00"> </text>
<polyline fill="none" stroke="#bfbfbf" points="360.297,-386.5 530.297,-386.5 "/>
<text text-anchor="middle" x="445.297" y="-374.5" font-family="Helvetica,sans-Serif" font-size="10.00"> </text>
</g>
<!-- Node8&#45;&gt;Node5 -->
<g id="edge8" class="edge"><title>Node8&#45;&gt;Node5</title>
<path fill="none" stroke="#404040" d="M416.873,-367.474C399.308,-340.265 376.211,-304.491 355.36,-272.193"/>
<polygon fill="none" stroke="#404040" points="355.188,-271.926 348.573,-269.055 348.679,-261.845 355.294,-264.716 355.188,-271.926"/>
<text text-anchor="middle" x="425.797" y="-312" font-family="Helvetica,sans-Serif" font-size="10.00"> +matcher</text>
</g>
</g>
</svg>
        <g id="navigator" transform="translate(0 0)" fill="#404254">
                <rect fill="#f2f5e9" fill-opacity="0.5" stroke="#606060" stroke-width=".5" x="0" y="0" width="60" height="60"/>
                <use id="zoomplus" xlink:href="#zoomPlus" x="17" y="9" onmousedown="handleZoom(evt,'in')"/>
                <use id="zoomminus" xlink:href="#zoomMin" x="42" y="9" onmousedown="handleZoom(evt,'out')"/>
                <use id="reset" xlink:href="#resetDef" x="30" y="36" onmousedown="handleReset()"/>
                <g id="arrowUp" xlink:href="#dirArrow" transform="translate(30 24)" onmousedown="handlePan(0,-1)">
                  <use xlink:href="#rim" fill="#404040">
                        <set attributeName="fill" to="#808080" begin="arrowUp.mouseover" end="arrowUp.mouseout"/>
                  </use>
                  <path fill="none" stroke="white" stroke-width="1.5" d="M0,-3.0v7 M-2.5,-0.5L0,-3.0L2.5,-0.5"/>
                </g>
                <g id="arrowRight" xlink:href="#dirArrow" transform="rotate(90) translate(36 -43)" onmousedown="handlePan(1,0)">
                  <use xlink:href="#rim" fill="#404040">
                        <set attributeName="fill" to="#808080" begin="arrowRight.mouseover" end="arrowRight.mouseout"/>
                  </use>
                  <path fill="none" stroke="white" stroke-width="1.5" d="M0,-3.0v7 M-2.5,-0.5L0,-3.0L2.5,-0.5"/>
                </g>
                <g id="arrowDown" xlink:href="#dirArrow" transform="rotate(180) translate(-30 -48)" onmousedown="handlePan(0,1)">
                  <use xlink:href="#rim" fill="#404040">
                        <set attributeName="fill" to="#808080" begin="arrowDown.mouseover" end="arrowDown.mouseout"/>
                  </use>
                  <path fill="none" stroke="white" stroke-width="1.5" d="M0,-3.0v7 M-2.5,-0.5L0,-3.0L2.5,-0.5"/>
                </g>
                <g id="arrowLeft" xlink:href="#dirArrow" transform="rotate(270) translate(-36 17)" onmousedown="handlePan(-1,0)">
                  <use xlink:href="#rim" fill="#404040">
                        <set attributeName="fill" to="#808080" begin="arrowLeft.mouseover" end="arrowLeft.mouseout"/>
                  </use>
                  <path fill="none" stroke="white" stroke-width="1.5" d="M0,-3.0v7 M-2.5,-0.5L0,-3.0L2.5,-0.5"/>
                </g>
        </g>
        <svg viewBox="0 0 15 15" width="100%" height="30px" preserveAspectRatio="xMaxYMin meet">
         <g id="arrow_out" transform="scale(0.3 0.3)">
          <a xlink:href="structo2_1_1tpc_1_1PublisherConf__coll__graph_org.svg" target="_base">
           <rect id="button" ry="5" rx="5" y="6" x="6" height="38" width="38"
                fill="#f2f5e9" fill-opacity="0.5" stroke="#606060" stroke-width="1.0"/>
           <path id="arrow"
             d="M 11.500037,31.436501 C 11.940474,20.09759 22.043105,11.32322 32.158766,21.979434 L 37.068811,17.246167 C 37.068811,17.246167 37.088388,32 37.088388,32 L 22.160133,31.978069 C 22.160133,31.978069 26.997745,27.140456 26.997745,27.140456 C 18.528582,18.264221 13.291696,25.230495 11.500037,31.436501 z"
             style="fill:#404040;"/>
          </a>
         </g>
        </svg>
</svg>
