<?xml version="1.0" encoding="UTF-8" standalone="no"?>
<!DOCTYPE svg PUBLIC "-//W3C//DTD SVG 1.1//EN"
 "http://www.w3.org/Graphics/SVG/1.1/DTD/svg11.dtd">
<!-- Generated by graphviz version 2.38.0 (20140413.2041)
 -->
<!-- Title: /home/travis/build/AliceO2Group/AliceO2/DataFormats/Detectors/ZDC/include/DataFormatsZDC Pages: 1 -->
<svg width="146pt" height="295pt"
 viewBox="0.00 0.00 146.00 295.00" xmlns="http://www.w3.org/2000/svg" xmlns:xlink="http://www.w3.org/1999/xlink">
<g id="graph0" class="graph" transform="scale(1 1) rotate(0) translate(4 291)">
<title>/home/travis/build/AliceO2Group/AliceO2/DataFormats/Detectors/ZDC/include/DataFormatsZDC</title>
<g id="clust1" class="cluster"><title>clusterdir_64d738a0161f08f47d3d8d07e1b435f8</title>
<g id="a_clust1"><a xlink:href="dir_64d738a0161f08f47d3d8d07e1b435f8.html" target="_top" xlink:title="include">
<polygon fill="#ddddee" stroke="black" points="18,-208 18,-279 130,-279 130,-208 18,-208"/>
<text text-anchor="middle" x="74" y="-267" font-family="Helvetica,sans-Serif" font-size="10.00">include</text>
</a>
</g>
</g>
<!-- dir_a4e4bab9cf6a2c7a75d5d137e4b1b41f -->
<g id="node1" class="node"><title>dir_a4e4bab9cf6a2c7a75d5d137e4b1b41f</title>
<g id="a_node1"><a xlink:href="dir_a4e4bab9cf6a2c7a75d5d137e4b1b41f.html" target="_top" xlink:title="DataFormatsZDC">
<polygon fill="#eeeeff" stroke="black" points="121.5,-252 26.5,-252 26.5,-216 121.5,-216 121.5,-252"/>
<text text-anchor="middle" x="74" y="-231.5" font-family="Helvetica,sans-Serif" font-size="10.00">DataFormatsZDC</text>
</a>
</g>
</g>
<!-- dir_4ab6b4cc6a7edbff49100e9123df213f -->
<g id="node2" class="node"><title>dir_4ab6b4cc6a7edbff49100e9123df213f</title>
<g id="a_node2"><a xlink:href="dir_4ab6b4cc6a7edbff49100e9123df213f.html" target="_top" xlink:title="Common">
<polygon fill="none" stroke="red" points="56,-108 0,-108 0,-72 56,-72 56,-108"/>
<text text-anchor="middle" x="28" y="-87.5" font-family="Helvetica,sans-Serif" font-size="10.00">Common</text>
</a>
</g>
</g>
<!-- dir_a4e4bab9cf6a2c7a75d5d137e4b1b41f&#45;&gt;dir_4ab6b4cc6a7edbff49100e9123df213f -->
<g id="edge1" class="edge"><title>dir_a4e4bab9cf6a2c7a75d5d137e4b1b41f&#45;&gt;dir_4ab6b4cc6a7edbff49100e9123df213f</title>
<path fill="none" stroke="black" d="M57.5288,-215.847C49.2476,-206.125 39.943,-193.275 35,-180 27.6653,-160.301 26.1374,-136.496 26.3223,-118.463"/>
<polygon fill="black" stroke="black" points="29.8247,-118.425 26.61,-108.329 22.8276,-118.226 29.8247,-118.425"/>
<g id="a_edge1&#45;headlabel"><a xlink:href="dir_000214_000009.html" target="_top" xlink:title="1">
<text text-anchor="middle" x="32.561" y="-119.598" font-family="Helvetica,sans-Serif" font-size="10.00">1</text>
</a>
</g>
</g>
<!-- dir_051dca18e802f8e9474f2e30d29c04e0 -->
<g id="node3" class="node"><title>dir_051dca18e802f8e9474f2e30d29c04e0</title>
<g id="a_node3"><a xlink:href="dir_051dca18e802f8e9474f2e30d29c04e0.html" target="_top" xlink:title="Detectors">
<polygon fill="none" stroke="red" points="103.5,-180 44.5,-180 44.5,-144 103.5,-144 103.5,-180"/>
<text text-anchor="middle" x="74" y="-159.5" font-family="Helvetica,sans-Serif" font-size="10.00">Detectors</text>
</a>
</g>
</g>
<!-- dir_a4e4bab9cf6a2c7a75d5d137e4b1b41f&#45;&gt;dir_051dca18e802f8e9474f2e30d29c04e0 -->
<g id="edge2" class="edge"><title>dir_a4e4bab9cf6a2c7a75d5d137e4b1b41f&#45;&gt;dir_051dca18e802f8e9474f2e30d29c04e0</title>
<path fill="none" stroke="black" d="M74,-215.697C74,-207.983 74,-198.712 74,-190.112"/>
<polygon fill="black" stroke="black" points="77.5001,-190.104 74,-180.104 70.5001,-190.104 77.5001,-190.104"/>
<g id="a_edge2&#45;headlabel"><a xlink:href="dir_000214_000021.html" target="_top" xlink:title="5">
<text text-anchor="middle" x="80.3393" y="-191.199" font-family="Helvetica,sans-Serif" font-size="10.00">5</text>
</a>
</g>
</g>
<!-- dir_7924ba4398ae4560cd37376e44666c6d -->
<g id="node4" class="node"><title>dir_7924ba4398ae4560cd37376e44666c6d</title>
<g id="a_node4"><a xlink:href="dir_7924ba4398ae4560cd37376e44666c6d.html" target="_top" xlink:title="common">
<polygon fill="none" stroke="red" points="83,-36 29,-36 29,-0 83,-0 83,-36"/>
<text text-anchor="middle" x="56" y="-15.5" font-family="Helvetica,sans-Serif" font-size="10.00">common</text>
</a>
</g>
</g>
<!-- dir_a4e4bab9cf6a2c7a75d5d137e4b1b41f&#45;&gt;dir_7924ba4398ae4560cd37376e44666c6d -->
<g id="edge3" class="edge"><title>dir_a4e4bab9cf6a2c7a75d5d137e4b1b41f&#45;&gt;dir_7924ba4398ae4560cd37376e44666c6d</title>
<path fill="none" stroke="black" d="M90.4635,-215.919C98.6538,-206.218 107.704,-193.366 112,-180 116.896,-164.768 115.138,-159.689 112,-144 104.763,-107.816 85.7239,-69.5705 71.8494,-45.0572"/>
<polygon fill="black" stroke="black" points="74.8586,-43.2693 66.8201,-36.3676 68.8001,-46.7757 74.8586,-43.2693"/>
<g id="a_edge3&#45;headlabel"><a xlink:href="dir_000214_000053.html" target="_top" xlink:title="5">
<text text-anchor="middle" x="79.1165" y="-42.4581" font-family="Helvetica,sans-Serif" font-size="10.00">5</text>
</a>
</g>
</g>
<!-- dir_4ab6b4cc6a7edbff49100e9123df213f&#45;&gt;dir_7924ba4398ae4560cd37376e44666c6d -->
<g id="edge4" class="edge"><title>dir_4ab6b4cc6a7edbff49100e9123df213f&#45;&gt;dir_7924ba4398ae4560cd37376e44666c6d</title>
<path fill="none" stroke="black" d="M29.0056,-71.6966C31.371,-63.7284 35.0079,-54.0995 38.9348,-45.2641"/>
<polygon fill="black" stroke="black" points="42.1552,-46.6411 43.2632,-36.1043 35.8262,-43.6503 42.1552,-46.6411"/>
<g id="a_edge4&#45;headlabel"><a xlink:href="dir_000009_000053.html" target="_top" xlink:title="1">
<text text-anchor="middle" x="43.1866" y="-48.6041" font-family="Helvetica,sans-Serif" font-size="10.00">1</text>
</a>
</g>
</g>
<!-- dir_051dca18e802f8e9474f2e30d29c04e0&#45;&gt;dir_4ab6b4cc6a7edbff49100e9123df213f -->
<g id="edge5" class="edge"><title>dir_051dca18e802f8e9474f2e30d29c04e0&#45;&gt;dir_4ab6b4cc6a7edbff49100e9123df213f</title>
<path fill="none" stroke="black" d="M62.6292,-143.697C57.2815,-135.559 50.7957,-125.689 44.8894,-116.701"/>
<polygon fill="black" stroke="black" points="47.6568,-114.539 39.24,-108.104 41.8068,-118.384 47.6568,-114.539"/>
<g id="a_edge5&#45;headlabel"><a xlink:href="dir_000021_000009.html" target="_top" xlink:title="183">
<text text-anchor="middle" x="52.0036" y="-113.484" font-family="Helvetica,sans-Serif" font-size="10.00">183</text>
</a>
</g>
</g>
<!-- dir_051dca18e802f8e9474f2e30d29c04e0&#45;&gt;dir_7924ba4398ae4560cd37376e44666c6d -->
<g id="edge6" class="edge"><title>dir_051dca18e802f8e9474f2e30d29c04e0&#45;&gt;dir_7924ba4398ae4560cd37376e44666c6d</title>
<path fill="none" stroke="black" d="M72.6153,-143.898C71.0815,-125.949 68.3735,-96.9317 65,-72 63.8561,-63.546 62.3817,-54.3722 60.9586,-46.0704"/>
<polygon fill="black" stroke="black" points="64.3916,-45.3835 59.2122,-36.1409 57.4974,-46.5961 64.3916,-45.3835"/>
<g id="a_edge6&#45;headlabel"><a xlink:href="dir_000021_000053.html" target="_top" xlink:title="33">
<text text-anchor="middle" x="67.8105" y="-45.932" font-family="Helvetica,sans-Serif" font-size="10.00">33</text>
</a>
</g>
</g>
<!-- dir_7924ba4398ae4560cd37376e44666c6d&#45;&gt;dir_4ab6b4cc6a7edbff49100e9123df213f -->
<g id="edge7" class="edge"><title>dir_7924ba4398ae4560cd37376e44666c6d&#45;&gt;dir_4ab6b4cc6a7edbff49100e9123df213f</title>
<path fill="none" stroke="black" d="M55.0533,-36.1043C52.7092,-44.0447 49.0854,-53.6661 45.1634,-62.5146"/>
<polygon fill="black" stroke="black" points="41.9333,-61.1586 40.8371,-71.6966 48.2656,-64.1423 41.9333,-61.1586"/>
<g id="a_edge7&#45;headlabel"><a xlink:href="dir_000053_000009.html" target="_top" xlink:title="2">
<text text-anchor="middle" x="40.8969" y="-54.1967" font-family="Helvetica,sans-Serif" font-size="10.00">2</text>
</a>
</g>
</g>
</g>
</svg>
