<?xml version="1.0" encoding="UTF-8" standalone="no"?>
<!DOCTYPE svg PUBLIC "-//W3C//DTD SVG 1.1//EN"
 "http://www.w3.org/Graphics/SVG/1.1/DTD/svg11.dtd">
<!-- Generated by graphviz version 2.38.0 (20140413.2041)
 -->
<!-- Title: /home/travis/build/AliceO2Group/AliceO2/Detectors/EMCAL/reconstruction Pages: 1 -->
<svg width="278pt" height="375pt"
 viewBox="0.00 0.00 278.00 375.00" xmlns="http://www.w3.org/2000/svg" xmlns:xlink="http://www.w3.org/1999/xlink">
<g id="graph0" class="graph" transform="scale(1 1) rotate(0) translate(4 371)">
<title>/home/travis/build/AliceO2Group/AliceO2/Detectors/EMCAL/reconstruction</title>
<g id="clust1" class="cluster"><title>clusterdir_088378b58cb1ba39db48039cbd66d10f</title>
<g id="a_clust1"><a xlink:href="dir_088378b58cb1ba39db48039cbd66d10f.html" target="_top" xlink:title="EMCAL">
<polygon fill="#ddddee" stroke="black" points="8,-200 8,-359 262,-359 262,-200 8,-200"/>
<text text-anchor="middle" x="135" y="-347" font-family="Helvetica,sans-Serif" font-size="10.00">EMCAL</text>
</a>
</g>
</g>
<g id="clust2" class="cluster"><title>clusterdir_43247e9473992ee8ffdfc874c5267163</title>
<g id="a_clust2"><a xlink:href="dir_43247e9473992ee8ffdfc874c5267163.html" target="_top">
<polygon fill="#eeeeff" stroke="black" points="16,-208 16,-332 254,-332 254,-208 16,-208"/>
</a>
</g>
</g>
<!-- dir_43247e9473992ee8ffdfc874c5267163 -->
<g id="node1" class="node"><title>dir_43247e9473992ee8ffdfc874c5267163</title>
<text text-anchor="middle" x="207" y="-303.5" font-family="Helvetica,sans-Serif" font-size="10.00">reconstruction</text>
</g>
<!-- dir_14c8cfaaee0dfb1e837e70bcf15bda98 -->
<g id="node2" class="node"><title>dir_14c8cfaaee0dfb1e837e70bcf15bda98</title>
<g id="a_node2"><a xlink:href="dir_14c8cfaaee0dfb1e837e70bcf15bda98.html" target="_top" xlink:title="include">
<polygon fill="white" stroke="red" points="78,-252 24,-252 24,-216 78,-216 78,-252"/>
<text text-anchor="middle" x="51" y="-231.5" font-family="Helvetica,sans-Serif" font-size="10.00">include</text>
</a>
</g>
</g>
<!-- dir_478733f24fb8878a4cdf7773310adedd -->
<g id="node6" class="node"><title>dir_478733f24fb8878a4cdf7773310adedd</title>
<g id="a_node6"><a xlink:href="dir_478733f24fb8878a4cdf7773310adedd.html" target="_top" xlink:title="base">
<polygon fill="none" stroke="red" points="78,-180 24,-180 24,-144 78,-144 78,-180"/>
<text text-anchor="middle" x="51" y="-159.5" font-family="Helvetica,sans-Serif" font-size="10.00">base</text>
</a>
</g>
</g>
<!-- dir_14c8cfaaee0dfb1e837e70bcf15bda98&#45;&gt;dir_478733f24fb8878a4cdf7773310adedd -->
<g id="edge4" class="edge"><title>dir_14c8cfaaee0dfb1e837e70bcf15bda98&#45;&gt;dir_478733f24fb8878a4cdf7773310adedd</title>
<path fill="none" stroke="black" d="M51,-215.697C51,-207.983 51,-198.712 51,-190.112"/>
<polygon fill="black" stroke="black" points="54.5001,-190.104 51,-180.104 47.5001,-190.104 54.5001,-190.104"/>
<g id="a_edge4&#45;headlabel"><a xlink:href="dir_000217_000165.html" target="_top" xlink:title="2">
<text text-anchor="middle" x="57.3393" y="-191.199" font-family="Helvetica,sans-Serif" font-size="10.00">2</text>
</a>
</g>
</g>
<!-- dir_2171f7ec022c5423887b07c69b2f5b48 -->
<g id="node7" class="node"><title>dir_2171f7ec022c5423887b07c69b2f5b48</title>
<g id="a_node7"><a xlink:href="dir_2171f7ec022c5423887b07c69b2f5b48.html" target="_top" xlink:title="DataFormats">
<polygon fill="none" stroke="red" points="154,-36 80,-36 80,-0 154,-0 154,-36"/>
<text text-anchor="middle" x="117" y="-15.5" font-family="Helvetica,sans-Serif" font-size="10.00">DataFormats</text>
</a>
</g>
</g>
<!-- dir_14c8cfaaee0dfb1e837e70bcf15bda98&#45;&gt;dir_2171f7ec022c5423887b07c69b2f5b48 -->
<g id="edge5" class="edge"><title>dir_14c8cfaaee0dfb1e837e70bcf15bda98&#45;&gt;dir_2171f7ec022c5423887b07c69b2f5b48</title>
<path fill="none" stroke="black" d="M35.3901,-215.774C27.6271,-206.03 19.0541,-193.184 15,-180 10.2972,-164.707 10.7448,-159.424 15,-144 26.4763,-102.402 61.081,-65.6003 86.8201,-42.8879"/>
<polygon fill="black" stroke="black" points="89.1826,-45.4725 94.4881,-36.3018 84.6216,-40.1624 89.1826,-45.4725"/>
<g id="a_edge5&#45;headlabel"><a xlink:href="dir_000217_000052.html" target="_top" xlink:title="12">
<text text-anchor="middle" x="88.3057" y="-47.4685" font-family="Helvetica,sans-Serif" font-size="10.00">12</text>
</a>
</g>
</g>
<!-- dir_648671bc339df01bd1b5df8a7c7828c9 -->
<g id="node3" class="node"><title>dir_648671bc339df01bd1b5df8a7c7828c9</title>
<g id="a_node3"><a xlink:href="dir_648671bc339df01bd1b5df8a7c7828c9.html" target="_top" xlink:title="run">
<polygon fill="white" stroke="black" points="78,-324 24,-324 24,-288 78,-288 78,-324"/>
<text text-anchor="middle" x="51" y="-303.5" font-family="Helvetica,sans-Serif" font-size="10.00">run</text>
</a>
</g>
</g>
<!-- dir_648671bc339df01bd1b5df8a7c7828c9&#45;&gt;dir_14c8cfaaee0dfb1e837e70bcf15bda98 -->
<g id="edge2" class="edge"><title>dir_648671bc339df01bd1b5df8a7c7828c9&#45;&gt;dir_14c8cfaaee0dfb1e837e70bcf15bda98</title>
<path fill="none" stroke="black" d="M51,-287.697C51,-279.983 51,-270.712 51,-262.112"/>
<polygon fill="black" stroke="black" points="54.5001,-262.104 51,-252.104 47.5001,-262.104 54.5001,-262.104"/>
<g id="a_edge2&#45;headlabel"><a xlink:href="dir_000332_000217.html" target="_top" xlink:title="4">
<text text-anchor="middle" x="57.3393" y="-263.199" font-family="Helvetica,sans-Serif" font-size="10.00">4</text>
</a>
</g>
</g>
<!-- dir_648671bc339df01bd1b5df8a7c7828c9&#45;&gt;dir_2171f7ec022c5423887b07c69b2f5b48 -->
<g id="edge3" class="edge"><title>dir_648671bc339df01bd1b5df8a7c7828c9&#45;&gt;dir_2171f7ec022c5423887b07c69b2f5b48</title>
<path fill="none" stroke="black" d="M66.0051,-287.568C73.5909,-277.765 82.1876,-264.926 87,-252 115.102,-176.519 96.5875,-151.73 108,-72 109.209,-63.555 110.702,-54.3838 112.122,-46.0816"/>
<polygon fill="black" stroke="black" points="115.584,-46.6031 113.855,-36.1503 108.688,-45.3998 115.584,-46.6031"/>
<g id="a_edge3&#45;headlabel"><a xlink:href="dir_000332_000052.html" target="_top" xlink:title="1">
<text text-anchor="middle" x="117.763" y="-48.1323" font-family="Helvetica,sans-Serif" font-size="10.00">1</text>
</a>
</g>
</g>
<!-- dir_a1c7f30d560eae5a68ecb45d9f95b0f7 -->
<g id="node4" class="node"><title>dir_a1c7f30d560eae5a68ecb45d9f95b0f7</title>
<g id="a_node4"><a xlink:href="dir_a1c7f30d560eae5a68ecb45d9f95b0f7.html" target="_top" xlink:title="src">
<polygon fill="white" stroke="black" points="150,-324 96,-324 96,-288 150,-288 150,-324"/>
<text text-anchor="middle" x="123" y="-303.5" font-family="Helvetica,sans-Serif" font-size="10.00">src</text>
</a>
</g>
</g>
<!-- dir_a1c7f30d560eae5a68ecb45d9f95b0f7&#45;&gt;dir_14c8cfaaee0dfb1e837e70bcf15bda98 -->
<g id="edge9" class="edge"><title>dir_a1c7f30d560eae5a68ecb45d9f95b0f7&#45;&gt;dir_14c8cfaaee0dfb1e837e70bcf15bda98</title>
<path fill="none" stroke="black" d="M105.202,-287.697C96.396,-279.135 85.6179,-268.656 75.9989,-259.304"/>
<polygon fill="black" stroke="black" points="78.2028,-256.566 68.593,-252.104 73.3232,-261.585 78.2028,-256.566"/>
<g id="a_edge9&#45;headlabel"><a xlink:href="dir_000333_000217.html" target="_top" xlink:title="28">
<text text-anchor="middle" x="82.7593" y="-254.536" font-family="Helvetica,sans-Serif" font-size="10.00">28</text>
</a>
</g>
</g>
<!-- dir_4ab6b4cc6a7edbff49100e9123df213f -->
<g id="node5" class="node"><title>dir_4ab6b4cc6a7edbff49100e9123df213f</title>
<g id="a_node5"><a xlink:href="dir_4ab6b4cc6a7edbff49100e9123df213f.html" target="_top" xlink:title="Common">
<polygon fill="none" stroke="red" points="173,-108 117,-108 117,-72 173,-72 173,-108"/>
<text text-anchor="middle" x="145" y="-87.5" font-family="Helvetica,sans-Serif" font-size="10.00">Common</text>
</a>
</g>
</g>
<!-- dir_a1c7f30d560eae5a68ecb45d9f95b0f7&#45;&gt;dir_4ab6b4cc6a7edbff49100e9123df213f -->
<g id="edge8" class="edge"><title>dir_a1c7f30d560eae5a68ecb45d9f95b0f7&#45;&gt;dir_4ab6b4cc6a7edbff49100e9123df213f</title>
<path fill="none" stroke="black" d="M124.763,-287.849C128.569,-250.832 137.58,-163.181 142.185,-118.386"/>
<polygon fill="black" stroke="black" points="145.687,-118.538 143.228,-108.232 138.724,-117.822 145.687,-118.538"/>
<g id="a_edge8&#45;headlabel"><a xlink:href="dir_000333_000009.html" target="_top" xlink:title="2">
<text text-anchor="middle" x="148.144" y="-119.904" font-family="Helvetica,sans-Serif" font-size="10.00">2</text>
</a>
</g>
</g>
<!-- dir_a1c7f30d560eae5a68ecb45d9f95b0f7&#45;&gt;dir_2171f7ec022c5423887b07c69b2f5b48 -->
<g id="edge10" class="edge"><title>dir_a1c7f30d560eae5a68ecb45d9f95b0f7&#45;&gt;dir_2171f7ec022c5423887b07c69b2f5b48</title>
<path fill="none" stroke="black" d="M134.982,-287.848C161.089,-248.192 217.981,-147.764 182,-72 176.431,-60.2725 166.856,-50.2848 156.741,-42.2477"/>
<polygon fill="black" stroke="black" points="158.704,-39.3465 148.58,-36.2243 154.547,-44.9787 158.704,-39.3465"/>
<g id="a_edge10&#45;headlabel"><a xlink:href="dir_000333_000052.html" target="_top" xlink:title="4">
<text text-anchor="middle" x="163.282" y="-36.6966" font-family="Helvetica,sans-Serif" font-size="10.00">4</text>
</a>
</g>
</g>
<!-- dir_4ab6b4cc6a7edbff49100e9123df213f&#45;&gt;dir_2171f7ec022c5423887b07c69b2f5b48 -->
<g id="edge1" class="edge"><title>dir_4ab6b4cc6a7edbff49100e9123df213f&#45;&gt;dir_2171f7ec022c5423887b07c69b2f5b48</title>
<path fill="none" stroke="black" d="M132.163,-71.6966C128.239,-63.8979 124.261,-54.5085 121.148,-45.8292"/>
<polygon fill="black" stroke="black" points="124.398,-44.5086 117.947,-36.1043 117.749,-46.6973 124.398,-44.5086"/>
<g id="a_edge1&#45;headlabel"><a xlink:href="dir_000009_000052.html" target="_top" xlink:title="5">
<text text-anchor="middle" x="128.219" y="-44.5352" font-family="Helvetica,sans-Serif" font-size="10.00">5</text>
</a>
</g>
</g>
<!-- dir_478733f24fb8878a4cdf7773310adedd&#45;&gt;dir_4ab6b4cc6a7edbff49100e9123df213f -->
<g id="edge6" class="edge"><title>dir_478733f24fb8878a4cdf7773310adedd&#45;&gt;dir_4ab6b4cc6a7edbff49100e9123df213f</title>
<path fill="none" stroke="black" d="M74.236,-143.697C86.1883,-134.796 100.923,-123.823 113.847,-114.199"/>
<polygon fill="black" stroke="black" points="116.101,-116.884 122.031,-108.104 111.92,-111.27 116.101,-116.884"/>
<g id="a_edge6&#45;headlabel"><a xlink:href="dir_000165_000009.html" target="_top" xlink:title="2">
<text text-anchor="middle" x="114.914" y="-118.808" font-family="Helvetica,sans-Serif" font-size="10.00">2</text>
</a>
</g>
</g>
<!-- dir_478733f24fb8878a4cdf7773310adedd&#45;&gt;dir_2171f7ec022c5423887b07c69b2f5b48 -->
<g id="edge7" class="edge"><title>dir_478733f24fb8878a4cdf7773310adedd&#45;&gt;dir_2171f7ec022c5423887b07c69b2f5b48</title>
<path fill="none" stroke="black" d="M53.4951,-143.86C56.6617,-125.372 63.1897,-95.438 75,-72 79.9132,-62.2495 86.7996,-52.5887 93.577,-44.2394"/>
<polygon fill="black" stroke="black" points="96.4481,-46.265 100.241,-36.3723 91.1068,-41.7405 96.4481,-46.265"/>
<g id="a_edge7&#45;headlabel"><a xlink:href="dir_000165_000052.html" target="_top" xlink:title="4">
<text text-anchor="middle" x="96.2912" y="-48.3429" font-family="Helvetica,sans-Serif" font-size="10.00">4</text>
</a>
</g>
</g>
<!-- dir_2171f7ec022c5423887b07c69b2f5b48&#45;&gt;dir_4ab6b4cc6a7edbff49100e9123df213f -->
<g id="edge11" class="edge"><title>dir_2171f7ec022c5423887b07c69b2f5b48&#45;&gt;dir_4ab6b4cc6a7edbff49100e9123df213f</title>
<path fill="none" stroke="black" d="M129.737,-36.1043C133.66,-43.8757 137.645,-53.2575 140.772,-61.9488"/>
<polygon fill="black" stroke="black" points="137.533,-63.3003 143.994,-71.6966 144.179,-61.1034 137.533,-63.3003"/>
<g id="a_edge11&#45;headlabel"><a xlink:href="dir_000052_000009.html" target="_top" xlink:title="28">
<text text-anchor="middle" x="133.709" y="-58.2784" font-family="Helvetica,sans-Serif" font-size="10.00">28</text>
</a>
</g>
</g>
</g>
</svg>
