<?xml version="1.0" encoding="UTF-8" standalone="no"?>
<!DOCTYPE svg PUBLIC "-//W3C//DTD SVG 1.1//EN"
 "http://www.w3.org/Graphics/SVG/1.1/DTD/svg11.dtd">
<!-- Generated by graphviz version 2.38.0 (20140413.2041)
 -->
<!-- Title: /home/travis/build/AliceO2Group/AliceO2/Detectors/MUON/MID/Workflow/src Pages: 1 -->
<svg width="468pt" height="367pt"
 viewBox="0.00 0.00 468.27 367.00" xmlns="http://www.w3.org/2000/svg" xmlns:xlink="http://www.w3.org/1999/xlink">
<g id="graph0" class="graph" transform="scale(1 1) rotate(0) translate(4 363)">
<title>/home/travis/build/AliceO2Group/AliceO2/Detectors/MUON/MID/Workflow/src</title>
<g id="clust1" class="cluster"><title>clusterdir_541a9f579a56d3c8f641580c9f97913d</title>
<g id="a_clust1"><a xlink:href="dir_541a9f579a56d3c8f641580c9f97913d.html" target="_top" xlink:title="Workflow">
<polygon fill="#ddddee" stroke="black" points="172.265,-280 172.265,-351 242.265,-351 242.265,-280 172.265,-280"/>
<text text-anchor="middle" x="207.265" y="-339" font-family="Helvetica,sans-Serif" font-size="10.00">Workflow</text>
</a>
</g>
</g>
<!-- dir_d175ccbdd0bad50605561880a8518417 -->
<g id="node1" class="node"><title>dir_d175ccbdd0bad50605561880a8518417</title>
<g id="a_node1"><a xlink:href="dir_d175ccbdd0bad50605561880a8518417.html" target="_top" xlink:title="src">
<polygon fill="#eeeeff" stroke="black" points="234.265,-324 180.265,-324 180.265,-288 234.265,-288 234.265,-324"/>
<text text-anchor="middle" x="207.265" y="-303.5" font-family="Helvetica,sans-Serif" font-size="10.00">src</text>
</a>
</g>
</g>
<!-- dir_4ab6b4cc6a7edbff49100e9123df213f -->
<g id="node2" class="node"><title>dir_4ab6b4cc6a7edbff49100e9123df213f</title>
<g id="a_node2"><a xlink:href="dir_4ab6b4cc6a7edbff49100e9123df213f.html" target="_top" xlink:title="Common">
<polygon fill="none" stroke="red" points="350.265,-180 294.265,-180 294.265,-144 350.265,-144 350.265,-180"/>
<text text-anchor="middle" x="322.265" y="-159.5" font-family="Helvetica,sans-Serif" font-size="10.00">Common</text>
</a>
</g>
</g>
<!-- dir_d175ccbdd0bad50605561880a8518417&#45;&gt;dir_4ab6b4cc6a7edbff49100e9123df213f -->
<g id="edge19" class="edge"><title>dir_d175ccbdd0bad50605561880a8518417&#45;&gt;dir_4ab6b4cc6a7edbff49100e9123df213f</title>
<path fill="none" stroke="black" d="M234.356,-296.779C256.007,-288.802 285.427,-274.546 302.265,-252 315.556,-234.204 320.287,-209.193 321.848,-190.215"/>
<polygon fill="black" stroke="black" points="325.349,-190.294 322.432,-180.108 318.361,-189.889 325.349,-190.294"/>
<g id="a_edge19&#45;headlabel"><a xlink:href="dir_000358_000009.html" target="_top" xlink:title="3">
<text text-anchor="middle" x="327.976" y="-191.546" font-family="Helvetica,sans-Serif" font-size="10.00">3</text>
</a>
</g>
</g>
<!-- dir_754f2fe7806627988f6bd801b7f2fe5b -->
<g id="node3" class="node"><title>dir_754f2fe7806627988f6bd801b7f2fe5b</title>
<g id="a_node3"><a xlink:href="dir_754f2fe7806627988f6bd801b7f2fe5b.html" target="_top" xlink:title="Clustering">
<polygon fill="none" stroke="red" points="237.765,-180 176.765,-180 176.765,-144 237.765,-144 237.765,-180"/>
<text text-anchor="middle" x="207.265" y="-159.5" font-family="Helvetica,sans-Serif" font-size="10.00">Clustering</text>
</a>
</g>
</g>
<!-- dir_d175ccbdd0bad50605561880a8518417&#45;&gt;dir_754f2fe7806627988f6bd801b7f2fe5b -->
<g id="edge20" class="edge"><title>dir_d175ccbdd0bad50605561880a8518417&#45;&gt;dir_754f2fe7806627988f6bd801b7f2fe5b</title>
<path fill="none" stroke="black" d="M207.265,-287.871C207.265,-263.67 207.265,-219.211 207.265,-190.393"/>
<polygon fill="black" stroke="black" points="210.765,-190.189 207.265,-180.189 203.765,-190.189 210.765,-190.189"/>
<g id="a_edge20&#45;headlabel"><a xlink:href="dir_000358_000326.html" target="_top" xlink:title="5">
<text text-anchor="middle" x="213.605" y="-191.284" font-family="Helvetica,sans-Serif" font-size="10.00">5</text>
</a>
</g>
</g>
<!-- dir_37c90836491b695b472bf98d1be8336b -->
<g id="node4" class="node"><title>dir_37c90836491b695b472bf98d1be8336b</title>
<g id="a_node4"><a xlink:href="dir_37c90836491b695b472bf98d1be8336b.html" target="_top" xlink:title="Base">
<polygon fill="none" stroke="red" points="237.265,-36 183.265,-36 183.265,-0 237.265,-0 237.265,-36"/>
<text text-anchor="middle" x="210.265" y="-15.5" font-family="Helvetica,sans-Serif" font-size="10.00">Base</text>
</a>
</g>
</g>
<!-- dir_d175ccbdd0bad50605561880a8518417&#45;&gt;dir_37c90836491b695b472bf98d1be8336b -->
<g id="edge21" class="edge"><title>dir_d175ccbdd0bad50605561880a8518417&#45;&gt;dir_37c90836491b695b472bf98d1be8336b</title>
<path fill="none" stroke="black" d="M179.964,-304.325C141.385,-301.907 70.9806,-291.887 29.2653,-252 4.78216,-228.59 9.89935,-213.402 4.26532,-180 1.60416,-164.223 -3.58315,-157.943 4.26532,-144 40.4531,-79.7125 124.539,-44.6788 173.359,-29.1018"/>
<polygon fill="black" stroke="black" points="174.394,-32.4454 182.92,-26.1562 172.333,-25.7557 174.394,-32.4454"/>
<g id="a_edge21&#45;headlabel"><a xlink:href="dir_000358_000248.html" target="_top" xlink:title="2">
<text text-anchor="middle" x="171.795" y="-33.7171" font-family="Helvetica,sans-Serif" font-size="10.00">2</text>
</a>
</g>
</g>
<!-- dir_2bb5eb61d33140858f79122ad9ee2c7f -->
<g id="node5" class="node"><title>dir_2bb5eb61d33140858f79122ad9ee2c7f</title>
<g id="a_node5"><a xlink:href="dir_2bb5eb61d33140858f79122ad9ee2c7f.html" target="_top" xlink:title="include">
<polygon fill="none" stroke="red" points="460.265,-252 406.265,-252 406.265,-216 460.265,-216 460.265,-252"/>
<text text-anchor="middle" x="433.265" y="-231.5" font-family="Helvetica,sans-Serif" font-size="10.00">include</text>
</a>
</g>
</g>
<!-- dir_d175ccbdd0bad50605561880a8518417&#45;&gt;dir_2bb5eb61d33140858f79122ad9ee2c7f -->
<g id="edge22" class="edge"><title>dir_d175ccbdd0bad50605561880a8518417&#45;&gt;dir_2bb5eb61d33140858f79122ad9ee2c7f</title>
<path fill="none" stroke="black" d="M234.53,-298.23C270.885,-288.967 337.068,-271.28 392.265,-252 393.675,-251.508 395.106,-250.993 396.547,-250.461"/>
<polygon fill="black" stroke="black" points="398.018,-253.645 406.086,-246.777 395.496,-247.115 398.018,-253.645"/>
<g id="a_edge22&#45;headlabel"><a xlink:href="dir_000358_000340.html" target="_top" xlink:title="21">
<text text-anchor="middle" x="395.687" y="-255.088" font-family="Helvetica,sans-Serif" font-size="10.00">21</text>
</a>
</g>
</g>
<!-- dir_55bb03bc4479a61c5f6db133927cb48c -->
<g id="node6" class="node"><title>dir_55bb03bc4479a61c5f6db133927cb48c</title>
<g id="a_node6"><a xlink:href="dir_55bb03bc4479a61c5f6db133927cb48c.html" target="_top" xlink:title="Raw">
<polygon fill="none" stroke="red" points="293.265,-252 239.265,-252 239.265,-216 293.265,-216 293.265,-252"/>
<text text-anchor="middle" x="266.265" y="-231.5" font-family="Helvetica,sans-Serif" font-size="10.00">Raw</text>
</a>
</g>
</g>
<!-- dir_d175ccbdd0bad50605561880a8518417&#45;&gt;dir_55bb03bc4479a61c5f6db133927cb48c -->
<g id="edge23" class="edge"><title>dir_d175ccbdd0bad50605561880a8518417&#45;&gt;dir_55bb03bc4479a61c5f6db133927cb48c</title>
<path fill="none" stroke="black" d="M221.85,-287.697C228.923,-279.305 237.549,-269.07 245.311,-259.861"/>
<polygon fill="black" stroke="black" points="248.08,-262.006 251.849,-252.104 242.728,-257.495 248.08,-262.006"/>
<g id="a_edge23&#45;headlabel"><a xlink:href="dir_000358_000329.html" target="_top" xlink:title="4">
<text text-anchor="middle" x="247.935" y="-264.085" font-family="Helvetica,sans-Serif" font-size="10.00">4</text>
</a>
</g>
</g>
<!-- dir_2810eaf0225063d73e08d8eeeb8a37b8 -->
<g id="node7" class="node"><title>dir_2810eaf0225063d73e08d8eeeb8a37b8</title>
<g id="a_node7"><a xlink:href="dir_2810eaf0225063d73e08d8eeeb8a37b8.html" target="_top" xlink:title="Simulation">
<polygon fill="none" stroke="red" points="179.265,-252 117.265,-252 117.265,-216 179.265,-216 179.265,-252"/>
<text text-anchor="middle" x="148.265" y="-231.5" font-family="Helvetica,sans-Serif" font-size="10.00">Simulation</text>
</a>
</g>
</g>
<!-- dir_d175ccbdd0bad50605561880a8518417&#45;&gt;dir_2810eaf0225063d73e08d8eeeb8a37b8 -->
<g id="edge24" class="edge"><title>dir_d175ccbdd0bad50605561880a8518417&#45;&gt;dir_2810eaf0225063d73e08d8eeeb8a37b8</title>
<path fill="none" stroke="black" d="M192.681,-287.697C185.608,-279.305 176.982,-269.07 169.22,-259.861"/>
<polygon fill="black" stroke="black" points="171.803,-257.495 162.682,-252.104 166.45,-262.006 171.803,-257.495"/>
<g id="a_edge24&#45;headlabel"><a xlink:href="dir_000358_000169.html" target="_top" xlink:title="10">
<text text-anchor="middle" x="176.29" y="-255.914" font-family="Helvetica,sans-Serif" font-size="10.00">10</text>
</a>
</g>
</g>
<!-- dir_c6781640d5720511e35c6e7f87460ee7 -->
<g id="node8" class="node"><title>dir_c6781640d5720511e35c6e7f87460ee7</title>
<g id="a_node8"><a xlink:href="dir_c6781640d5720511e35c6e7f87460ee7.html" target="_top" xlink:title="Tracking">
<polygon fill="none" stroke="red" points="82.2653,-180 28.2653,-180 28.2653,-144 82.2653,-144 82.2653,-180"/>
<text text-anchor="middle" x="55.2653" y="-159.5" font-family="Helvetica,sans-Serif" font-size="10.00">Tracking</text>
</a>
</g>
</g>
<!-- dir_d175ccbdd0bad50605561880a8518417&#45;&gt;dir_c6781640d5720511e35c6e7f87460ee7 -->
<g id="edge25" class="edge"><title>dir_d175ccbdd0bad50605561880a8518417&#45;&gt;dir_c6781640d5720511e35c6e7f87460ee7</title>
<path fill="none" stroke="black" d="M179.975,-295.124C158.554,-286.334 128.986,-271.798 108.265,-252 89.6891,-234.252 75.3403,-208.595 66.2859,-189.385"/>
<polygon fill="black" stroke="black" points="69.4706,-187.933 62.1551,-180.269 63.0946,-190.822 69.4706,-187.933"/>
<g id="a_edge25&#45;headlabel"><a xlink:href="dir_000358_000435.html" target="_top" xlink:title="2">
<text text-anchor="middle" x="73.5403" y="-187.535" font-family="Helvetica,sans-Serif" font-size="10.00">2</text>
</a>
</g>
</g>
<!-- dir_bcbb2cf9a3d3d83e5515c82071a07177 -->
<g id="node9" class="node"><title>dir_bcbb2cf9a3d3d83e5515c82071a07177</title>
<g id="a_node9"><a xlink:href="dir_bcbb2cf9a3d3d83e5515c82071a07177.html" target="_top" xlink:title="Framework">
<polygon fill="none" stroke="red" points="354.765,-36 289.765,-36 289.765,-0 354.765,-0 354.765,-36"/>
<text text-anchor="middle" x="322.265" y="-15.5" font-family="Helvetica,sans-Serif" font-size="10.00">Framework</text>
</a>
</g>
</g>
<!-- dir_d175ccbdd0bad50605561880a8518417&#45;&gt;dir_bcbb2cf9a3d3d83e5515c82071a07177 -->
<g id="edge26" class="edge"><title>dir_d175ccbdd0bad50605561880a8518417&#45;&gt;dir_bcbb2cf9a3d3d83e5515c82071a07177</title>
<path fill="none" stroke="black" d="M234.475,-298.449C260.366,-291.003 299.016,-276.573 324.265,-252 349.764,-227.184 351.284,-214.674 359.265,-180 370.168,-132.635 350.421,-77.4254 335.826,-45.514"/>
<polygon fill="black" stroke="black" points="338.949,-43.9294 331.502,-36.3929 332.624,-46.9282 338.949,-43.9294"/>
<g id="a_edge26&#45;headlabel"><a xlink:href="dir_000358_000028.html" target="_top" xlink:title="50">
<text text-anchor="middle" x="343.054" y="-43.4611" font-family="Helvetica,sans-Serif" font-size="10.00">50</text>
</a>
</g>
</g>
<!-- dir_2171f7ec022c5423887b07c69b2f5b48 -->
<g id="node10" class="node"><title>dir_2171f7ec022c5423887b07c69b2f5b48</title>
<g id="a_node10"><a xlink:href="dir_2171f7ec022c5423887b07c69b2f5b48.html" target="_top" xlink:title="DataFormats">
<polygon fill="none" stroke="red" points="247.265,-108 173.265,-108 173.265,-72 247.265,-72 247.265,-108"/>
<text text-anchor="middle" x="210.265" y="-87.5" font-family="Helvetica,sans-Serif" font-size="10.00">DataFormats</text>
</a>
</g>
</g>
<!-- dir_d175ccbdd0bad50605561880a8518417&#45;&gt;dir_2171f7ec022c5423887b07c69b2f5b48 -->
<g id="edge27" class="edge"><title>dir_d175ccbdd0bad50605561880a8518417&#45;&gt;dir_2171f7ec022c5423887b07c69b2f5b48</title>
<path fill="none" stroke="black" d="M180.108,-298.274C152.314,-290.446 108.84,-275.504 77.2653,-252 33.5607,-219.467 -13.7102,-187.372 19.2653,-144 36.6072,-121.191 112.208,-105.629 162.936,-97.5381"/>
<polygon fill="black" stroke="black" points="163.693,-100.963 173.039,-95.9723 162.621,-94.0453 163.693,-100.963"/>
<g id="a_edge27&#45;headlabel"><a xlink:href="dir_000358_000052.html" target="_top" xlink:title="21">
<text text-anchor="middle" x="160.575" y="-101.819" font-family="Helvetica,sans-Serif" font-size="10.00">21</text>
</a>
</g>
</g>
<!-- dir_4ab6b4cc6a7edbff49100e9123df213f&#45;&gt;dir_2171f7ec022c5423887b07c69b2f5b48 -->
<g id="edge1" class="edge"><title>dir_4ab6b4cc6a7edbff49100e9123df213f&#45;&gt;dir_2171f7ec022c5423887b07c69b2f5b48</title>
<path fill="none" stroke="black" d="M294.052,-146.834C277.554,-137.309 256.863,-124.546 240.109,-113.628"/>
<polygon fill="black" stroke="black" points="242.024,-110.698 231.75,-108.113 238.17,-116.541 242.024,-110.698"/>
<g id="a_edge1&#45;headlabel"><a xlink:href="dir_000009_000052.html" target="_top" xlink:title="5">
<text text-anchor="middle" x="246.588" y="-107.807" font-family="Helvetica,sans-Serif" font-size="10.00">5</text>
</a>
</g>
</g>
<!-- dir_754f2fe7806627988f6bd801b7f2fe5b&#45;&gt;dir_2171f7ec022c5423887b07c69b2f5b48 -->
<g id="edge2" class="edge"><title>dir_754f2fe7806627988f6bd801b7f2fe5b&#45;&gt;dir_2171f7ec022c5423887b07c69b2f5b48</title>
<path fill="none" stroke="black" d="M208.007,-143.697C208.337,-135.983 208.735,-126.712 209.103,-118.112"/>
<polygon fill="black" stroke="black" points="212.601,-118.245 209.532,-108.104 205.607,-117.945 212.601,-118.245"/>
<g id="a_edge2&#45;headlabel"><a xlink:href="dir_000326_000052.html" target="_top" xlink:title="5">
<text text-anchor="middle" x="215.284" y="-119.458" font-family="Helvetica,sans-Serif" font-size="10.00">5</text>
</a>
</g>
</g>
<!-- dir_37c90836491b695b472bf98d1be8336b&#45;&gt;dir_4ab6b4cc6a7edbff49100e9123df213f -->
<g id="edge3" class="edge"><title>dir_37c90836491b695b472bf98d1be8336b&#45;&gt;dir_4ab6b4cc6a7edbff49100e9123df213f</title>
<path fill="none" stroke="black" d="M225.943,-36.3791C235.002,-46.5888 246.502,-59.8388 256.265,-72 273.134,-93.0125 291.303,-117.677 304.299,-135.705"/>
<polygon fill="black" stroke="black" points="301.561,-137.893 310.235,-143.978 307.248,-133.812 301.561,-137.893"/>
<g id="a_edge3&#45;headlabel"><a xlink:href="dir_000248_000009.html" target="_top" xlink:title="16">
<text text-anchor="middle" x="297.159" y="-134.128" font-family="Helvetica,sans-Serif" font-size="10.00">16</text>
</a>
</g>
</g>
<!-- dir_37c90836491b695b472bf98d1be8336b&#45;&gt;dir_2171f7ec022c5423887b07c69b2f5b48 -->
<g id="edge4" class="edge"><title>dir_37c90836491b695b472bf98d1be8336b&#45;&gt;dir_2171f7ec022c5423887b07c69b2f5b48</title>
<path fill="none" stroke="black" d="M216.16,-36.1043C216.966,-43.7913 217.202,-53.0537 216.869,-61.6651"/>
<polygon fill="black" stroke="black" points="213.374,-61.4805 216.181,-71.6966 220.357,-61.9597 213.374,-61.4805"/>
<g id="a_edge4&#45;headlabel"><a xlink:href="dir_000248_000052.html" target="_top" xlink:title="7">
<text text-anchor="middle" x="210.787" y="-55.2" font-family="Helvetica,sans-Serif" font-size="10.00">7</text>
</a>
</g>
</g>
<!-- dir_2bb5eb61d33140858f79122ad9ee2c7f&#45;&gt;dir_bcbb2cf9a3d3d83e5515c82071a07177 -->
<g id="edge5" class="edge"><title>dir_2bb5eb61d33140858f79122ad9ee2c7f&#45;&gt;dir_bcbb2cf9a3d3d83e5515c82071a07177</title>
<path fill="none" stroke="black" d="M432.539,-215.518C430.478,-184.228 422.575,-117.658 392.265,-72 384.539,-60.362 373.375,-50.2645 362.223,-42.096"/>
<polygon fill="black" stroke="black" points="363.969,-39.0478 353.756,-36.2319 359.984,-44.8026 363.969,-39.0478"/>
<g id="a_edge5&#45;headlabel"><a xlink:href="dir_000340_000028.html" target="_top" xlink:title="10">
<text text-anchor="middle" x="368.541" y="-36.2601" font-family="Helvetica,sans-Serif" font-size="10.00">10</text>
</a>
</g>
</g>
<!-- dir_55bb03bc4479a61c5f6db133927cb48c&#45;&gt;dir_4ab6b4cc6a7edbff49100e9123df213f -->
<g id="edge6" class="edge"><title>dir_55bb03bc4479a61c5f6db133927cb48c&#45;&gt;dir_4ab6b4cc6a7edbff49100e9123df213f</title>
<path fill="none" stroke="black" d="M280.108,-215.697C286.754,-207.389 294.844,-197.277 302.153,-188.141"/>
<polygon fill="black" stroke="black" points="305.068,-190.099 308.582,-180.104 299.602,-185.727 305.068,-190.099"/>
<g id="a_edge6&#45;headlabel"><a xlink:href="dir_000329_000009.html" target="_top" xlink:title="2">
<text text-anchor="middle" x="305.04" y="-192.18" font-family="Helvetica,sans-Serif" font-size="10.00">2</text>
</a>
</g>
</g>
<!-- dir_55bb03bc4479a61c5f6db133927cb48c&#45;&gt;dir_2171f7ec022c5423887b07c69b2f5b48 -->
<g id="edge7" class="edge"><title>dir_55bb03bc4479a61c5f6db133927cb48c&#45;&gt;dir_2171f7ec022c5423887b07c69b2f5b48</title>
<path fill="none" stroke="black" d="M264.328,-215.675C261.83,-197.291 256.528,-167.686 246.265,-144 242.13,-134.455 236.212,-124.812 230.366,-116.415"/>
<polygon fill="black" stroke="black" points="233.086,-114.205 224.377,-108.172 227.423,-118.32 233.086,-114.205"/>
<g id="a_edge7&#45;headlabel"><a xlink:href="dir_000329_000052.html" target="_top" xlink:title="15">
<text text-anchor="middle" x="237.496" y="-112.944" font-family="Helvetica,sans-Serif" font-size="10.00">15</text>
</a>
</g>
</g>
<!-- dir_2810eaf0225063d73e08d8eeeb8a37b8&#45;&gt;dir_4ab6b4cc6a7edbff49100e9123df213f -->
<g id="edge8" class="edge"><title>dir_2810eaf0225063d73e08d8eeeb8a37b8&#45;&gt;dir_4ab6b4cc6a7edbff49100e9123df213f</title>
<path fill="none" stroke="black" d="M179.373,-220.485C208.872,-208.618 253.239,-190.769 284.699,-178.113"/>
<polygon fill="black" stroke="black" points="286.046,-181.344 294.017,-174.364 283.434,-174.849 286.046,-181.344"/>
<g id="a_edge8&#45;headlabel"><a xlink:href="dir_000169_000009.html" target="_top" xlink:title="6">
<text text-anchor="middle" x="283.771" y="-182.819" font-family="Helvetica,sans-Serif" font-size="10.00">6</text>
</a>
</g>
</g>
<!-- dir_2810eaf0225063d73e08d8eeeb8a37b8&#45;&gt;dir_754f2fe7806627988f6bd801b7f2fe5b -->
<g id="edge9" class="edge"><title>dir_2810eaf0225063d73e08d8eeeb8a37b8&#45;&gt;dir_754f2fe7806627988f6bd801b7f2fe5b</title>
<path fill="none" stroke="black" d="M162.85,-215.697C169.923,-207.305 178.549,-197.07 186.311,-187.861"/>
<polygon fill="black" stroke="black" points="189.08,-190.006 192.849,-180.104 183.728,-185.495 189.08,-190.006"/>
<g id="a_edge9&#45;headlabel"><a xlink:href="dir_000169_000326.html" target="_top" xlink:title="5">
<text text-anchor="middle" x="188.935" y="-192.085" font-family="Helvetica,sans-Serif" font-size="10.00">5</text>
</a>
</g>
</g>
<!-- dir_2810eaf0225063d73e08d8eeeb8a37b8&#45;&gt;dir_37c90836491b695b472bf98d1be8336b -->
<g id="edge10" class="edge"><title>dir_2810eaf0225063d73e08d8eeeb8a37b8&#45;&gt;dir_37c90836491b695b472bf98d1be8336b</title>
<path fill="none" stroke="black" d="M146.333,-215.559C143.709,-184.896 141.654,-120.032 164.265,-72 169.063,-61.8085 176.395,-52.0657 183.805,-43.7767"/>
<polygon fill="black" stroke="black" points="186.535,-45.9829 190.853,-36.3078 181.444,-41.1786 186.535,-45.9829"/>
<g id="a_edge10&#45;headlabel"><a xlink:href="dir_000169_000248.html" target="_top" xlink:title="3">
<text text-anchor="middle" x="186.133" y="-48.0459" font-family="Helvetica,sans-Serif" font-size="10.00">3</text>
</a>
</g>
</g>
<!-- dir_2810eaf0225063d73e08d8eeeb8a37b8&#45;&gt;dir_c6781640d5720511e35c6e7f87460ee7 -->
<g id="edge11" class="edge"><title>dir_2810eaf0225063d73e08d8eeeb8a37b8&#45;&gt;dir_c6781640d5720511e35c6e7f87460ee7</title>
<path fill="none" stroke="black" d="M125.277,-215.697C113.451,-206.796 98.8733,-195.823 86.0867,-186.199"/>
<polygon fill="black" stroke="black" points="88.0842,-183.322 77.9896,-180.104 83.8745,-188.915 88.0842,-183.322"/>
<g id="a_edge11&#45;headlabel"><a xlink:href="dir_000169_000435.html" target="_top" xlink:title="1">
<text text-anchor="middle" x="92.6636" y="-180.715" font-family="Helvetica,sans-Serif" font-size="10.00">1</text>
</a>
</g>
</g>
<!-- dir_2810eaf0225063d73e08d8eeeb8a37b8&#45;&gt;dir_2171f7ec022c5423887b07c69b2f5b48 -->
<g id="edge12" class="edge"><title>dir_2810eaf0225063d73e08d8eeeb8a37b8&#45;&gt;dir_2171f7ec022c5423887b07c69b2f5b48</title>
<path fill="none" stroke="black" d="M149.533,-215.836C151.435,-197.328 156.089,-167.377 167.265,-144 172.068,-133.955 179.138,-124.143 186.165,-115.747"/>
<polygon fill="black" stroke="black" points="188.849,-117.995 192.813,-108.169 183.587,-113.378 188.849,-117.995"/>
<g id="a_edge12&#45;headlabel"><a xlink:href="dir_000169_000052.html" target="_top" xlink:title="28">
<text text-anchor="middle" x="188.613" y="-120.069" font-family="Helvetica,sans-Serif" font-size="10.00">28</text>
</a>
</g>
</g>
<!-- dir_c6781640d5720511e35c6e7f87460ee7&#45;&gt;dir_2171f7ec022c5423887b07c69b2f5b48 -->
<g id="edge13" class="edge"><title>dir_c6781640d5720511e35c6e7f87460ee7&#45;&gt;dir_2171f7ec022c5423887b07c69b2f5b48</title>
<path fill="none" stroke="black" d="M82.6194,-148.647C104.989,-138.544 137.127,-124.03 163.558,-112.094"/>
<polygon fill="black" stroke="black" points="165.336,-115.131 173.009,-107.826 162.454,-108.752 165.336,-115.131"/>
<g id="a_edge13&#45;headlabel"><a xlink:href="dir_000435_000052.html" target="_top" xlink:title="8">
<text text-anchor="middle" x="163.228" y="-116.698" font-family="Helvetica,sans-Serif" font-size="10.00">8</text>
</a>
</g>
</g>
<!-- dir_bcbb2cf9a3d3d83e5515c82071a07177&#45;&gt;dir_4ab6b4cc6a7edbff49100e9123df213f -->
<g id="edge14" class="edge"><title>dir_bcbb2cf9a3d3d83e5515c82071a07177&#45;&gt;dir_4ab6b4cc6a7edbff49100e9123df213f</title>
<path fill="none" stroke="black" d="M322.265,-36.1893C322.265,-60.4244 322.265,-104.888 322.265,-133.679"/>
<polygon fill="black" stroke="black" points="318.765,-133.871 322.265,-143.871 325.765,-133.872 318.765,-133.871"/>
<g id="a_edge14&#45;headlabel"><a xlink:href="dir_000028_000009.html" target="_top" xlink:title="8">
<text text-anchor="middle" x="315.926" y="-127.777" font-family="Helvetica,sans-Serif" font-size="10.00">8</text>
</a>
</g>
</g>
<!-- dir_bcbb2cf9a3d3d83e5515c82071a07177&#45;&gt;dir_2171f7ec022c5423887b07c69b2f5b48 -->
<g id="edge15" class="edge"><title>dir_bcbb2cf9a3d3d83e5515c82071a07177&#45;&gt;dir_2171f7ec022c5423887b07c69b2f5b48</title>
<path fill="none" stroke="black" d="M300.666,-36.1898C286.958,-45.3529 268.892,-56.7364 252.474,-66.5858"/>
<polygon fill="black" stroke="black" points="250.374,-63.7623 243.561,-71.8761 253.947,-69.7819 250.374,-63.7623"/>
<g id="a_edge15&#45;headlabel"><a xlink:href="dir_000028_000052.html" target="_top" xlink:title="67">
<text text-anchor="middle" x="252.016" y="-56.9861" font-family="Helvetica,sans-Serif" font-size="10.00">67</text>
</a>
</g>
</g>
<!-- dir_2171f7ec022c5423887b07c69b2f5b48&#45;&gt;dir_4ab6b4cc6a7edbff49100e9123df213f -->
<g id="edge16" class="edge"><title>dir_2171f7ec022c5423887b07c69b2f5b48&#45;&gt;dir_4ab6b4cc6a7edbff49100e9123df213f</title>
<path fill="none" stroke="black" d="M243.673,-108.19C259.143,-117.268 277.309,-128.526 292.329,-138.312"/>
<polygon fill="black" stroke="black" points="290.489,-141.292 300.764,-143.876 294.344,-135.448 290.489,-141.292"/>
<g id="a_edge16&#45;headlabel"><a xlink:href="dir_000052_000009.html" target="_top" xlink:title="28">
<text text-anchor="middle" x="285.925" y="-139.182" font-family="Helvetica,sans-Serif" font-size="10.00">28</text>
</a>
</g>
</g>
<!-- dir_2171f7ec022c5423887b07c69b2f5b48&#45;&gt;dir_37c90836491b695b472bf98d1be8336b -->
<g id="edge17" class="edge"><title>dir_2171f7ec022c5423887b07c69b2f5b48&#45;&gt;dir_37c90836491b695b472bf98d1be8336b</title>
<path fill="none" stroke="black" d="M204.35,-71.6966C203.554,-63.9827 203.327,-54.7125 203.67,-46.1124"/>
<polygon fill="black" stroke="black" points="207.164,-46.3243 204.37,-36.1043 200.181,-45.8356 207.164,-46.3243"/>
<g id="a_edge17&#45;headlabel"><a xlink:href="dir_000052_000248.html" target="_top" xlink:title="1">
<text text-anchor="middle" x="209.745" y="-47.6083" font-family="Helvetica,sans-Serif" font-size="10.00">1</text>
</a>
</g>
</g>
<!-- dir_2171f7ec022c5423887b07c69b2f5b48&#45;&gt;dir_bcbb2cf9a3d3d83e5515c82071a07177 -->
<g id="edge18" class="edge"><title>dir_2171f7ec022c5423887b07c69b2f5b48&#45;&gt;dir_bcbb2cf9a3d3d83e5515c82071a07177</title>
<path fill="none" stroke="black" d="M231.767,-71.8761C245.657,-62.587 264.053,-51.0015 280.673,-41.0447"/>
<polygon fill="black" stroke="black" points="282.865,-43.8143 289.684,-35.7056 279.296,-37.792 282.865,-43.8143"/>
<g id="a_edge18&#45;headlabel"><a xlink:href="dir_000052_000028.html" target="_top" xlink:title="6">
<text text-anchor="middle" x="281.22" y="-45.5893" font-family="Helvetica,sans-Serif" font-size="10.00">6</text>
</a>
</g>
</g>
</g>
</svg>
