<?xml version="1.0" encoding="UTF-8" standalone="no"?>
<!DOCTYPE svg PUBLIC "-//W3C//DTD SVG 1.1//EN"
 "http://www.w3.org/Graphics/SVG/1.1/DTD/svg11.dtd">
<!-- Generated by graphviz version 2.38.0 (20140413.2041)
 -->
<!-- Title: /home/travis/build/AliceO2Group/AliceO2/Framework/Core/src Pages: 1 -->
<svg width="275pt" height="367pt"
 viewBox="0.00 0.00 275.49 367.00" xmlns="http://www.w3.org/2000/svg" xmlns:xlink="http://www.w3.org/1999/xlink">
<g id="graph0" class="graph" transform="scale(1 1) rotate(0) translate(4 363)">
<title>/home/travis/build/AliceO2Group/AliceO2/Framework/Core/src</title>
<g id="clust1" class="cluster"><title>clusterdir_9f165b2481dacfe69aa54d326bd5cd47</title>
<g id="a_clust1"><a xlink:href="dir_9f165b2481dacfe69aa54d326bd5cd47.html" target="_top" xlink:title="Core">
<polygon fill="#ddddee" stroke="black" points="61.4857,-280 61.4857,-351 131.486,-351 131.486,-280 61.4857,-280"/>
<text text-anchor="middle" x="96.4857" y="-339" font-family="Helvetica,sans-Serif" font-size="10.00">Core</text>
</a>
</g>
</g>
<!-- dir_0b60ff9a1849fb34896fe8bde9baec43 -->
<g id="node1" class="node"><title>dir_0b60ff9a1849fb34896fe8bde9baec43</title>
<g id="a_node1"><a xlink:href="dir_0b60ff9a1849fb34896fe8bde9baec43.html" target="_top" xlink:title="src">
<polygon fill="#eeeeff" stroke="black" points="123.486,-324 69.4857,-324 69.4857,-288 123.486,-288 123.486,-324"/>
<text text-anchor="middle" x="96.4857" y="-303.5" font-family="Helvetica,sans-Serif" font-size="10.00">src</text>
</a>
</g>
</g>
<!-- dir_4ab6b4cc6a7edbff49100e9123df213f -->
<g id="node2" class="node"><title>dir_4ab6b4cc6a7edbff49100e9123df213f</title>
<g id="a_node2"><a xlink:href="dir_4ab6b4cc6a7edbff49100e9123df213f.html" target="_top" xlink:title="Common">
<polygon fill="none" stroke="red" points="212.486,-180 156.486,-180 156.486,-144 212.486,-144 212.486,-180"/>
<text text-anchor="middle" x="184.486" y="-159.5" font-family="Helvetica,sans-Serif" font-size="10.00">Common</text>
</a>
</g>
</g>
<!-- dir_0b60ff9a1849fb34896fe8bde9baec43&#45;&gt;dir_4ab6b4cc6a7edbff49100e9123df213f -->
<g id="edge4" class="edge"><title>dir_0b60ff9a1849fb34896fe8bde9baec43&#45;&gt;dir_4ab6b4cc6a7edbff49100e9123df213f</title>
<path fill="none" stroke="black" d="M123.72,-288.704C136.94,-279.486 151.981,-266.835 161.486,-252 173.361,-233.466 179.116,-209.068 181.899,-190.505"/>
<polygon fill="black" stroke="black" points="185.403,-190.705 183.218,-180.338 178.461,-189.804 185.403,-190.705"/>
<g id="a_edge4&#45;headlabel"><a xlink:href="dir_000557_000009.html" target="_top" xlink:title="1">
<text text-anchor="middle" x="187.756" y="-192.135" font-family="Helvetica,sans-Serif" font-size="10.00">1</text>
</a>
</g>
</g>
<!-- dir_8ba487e25de5ee77e05e9dce7582cb98 -->
<g id="node3" class="node"><title>dir_8ba487e25de5ee77e05e9dce7582cb98</title>
<g id="a_node3"><a xlink:href="dir_8ba487e25de5ee77e05e9dce7582cb98.html" target="_top" xlink:title="Algorithm">
<polygon fill="none" stroke="red" points="176.486,-36 118.486,-36 118.486,-0 176.486,-0 176.486,-36"/>
<text text-anchor="middle" x="147.486" y="-15.5" font-family="Helvetica,sans-Serif" font-size="10.00">Algorithm</text>
</a>
</g>
</g>
<!-- dir_0b60ff9a1849fb34896fe8bde9baec43&#45;&gt;dir_8ba487e25de5ee77e05e9dce7582cb98 -->
<g id="edge5" class="edge"><title>dir_0b60ff9a1849fb34896fe8bde9baec43&#45;&gt;dir_8ba487e25de5ee77e05e9dce7582cb98</title>
<path fill="none" stroke="black" d="M69.1814,-292.509C52.9058,-283.59 33.3569,-269.987 22.4857,-252 -2.44863,-210.744 -6.81424,-188.173 12.4857,-144 32.2079,-98.8605 77.1605,-62.7433 109.788,-41.1595"/>
<polygon fill="black" stroke="black" points="111.706,-44.087 118.212,-35.7253 107.912,-38.2045 111.706,-44.087"/>
<g id="a_edge5&#45;headlabel"><a xlink:href="dir_000557_000000.html" target="_top" xlink:title="1">
<text text-anchor="middle" x="110.224" y="-45.9214" font-family="Helvetica,sans-Serif" font-size="10.00">1</text>
</a>
</g>
</g>
<!-- dir_5d813cdce1e9826318f2aba62999ca51 -->
<g id="node4" class="node"><title>dir_5d813cdce1e9826318f2aba62999ca51</title>
<g id="a_node4"><a xlink:href="dir_5d813cdce1e9826318f2aba62999ca51.html" target="_top" xlink:title="Foundation">
<polygon fill="none" stroke="red" points="99.9857,-180 34.9857,-180 34.9857,-144 99.9857,-144 99.9857,-180"/>
<text text-anchor="middle" x="67.4857" y="-159.5" font-family="Helvetica,sans-Serif" font-size="10.00">Foundation</text>
</a>
</g>
</g>
<!-- dir_0b60ff9a1849fb34896fe8bde9baec43&#45;&gt;dir_5d813cdce1e9826318f2aba62999ca51 -->
<g id="edge6" class="edge"><title>dir_0b60ff9a1849fb34896fe8bde9baec43&#45;&gt;dir_5d813cdce1e9826318f2aba62999ca51</title>
<path fill="none" stroke="black" d="M92.9876,-287.871C88.0234,-263.564 78.8853,-218.819 73.0025,-190.013"/>
<polygon fill="black" stroke="black" points="76.4264,-189.287 70.9962,-180.189 69.568,-190.687 76.4264,-189.287"/>
<g id="a_edge6&#45;headlabel"><a xlink:href="dir_000557_000559.html" target="_top" xlink:title="11">
<text text-anchor="middle" x="79.9275" y="-189.74" font-family="Helvetica,sans-Serif" font-size="10.00">11</text>
</a>
</g>
</g>
<!-- dir_985a55873ec4a56b27533251576853b6 -->
<g id="node5" class="node"><title>dir_985a55873ec4a56b27533251576853b6</title>
<g id="a_node5"><a xlink:href="dir_985a55873ec4a56b27533251576853b6.html" target="_top" xlink:title="include">
<polygon fill="none" stroke="red" points="152.486,-252 98.4857,-252 98.4857,-216 152.486,-216 152.486,-252"/>
<text text-anchor="middle" x="125.486" y="-231.5" font-family="Helvetica,sans-Serif" font-size="10.00">include</text>
</a>
</g>
</g>
<!-- dir_0b60ff9a1849fb34896fe8bde9baec43&#45;&gt;dir_985a55873ec4a56b27533251576853b6 -->
<g id="edge7" class="edge"><title>dir_0b60ff9a1849fb34896fe8bde9baec43&#45;&gt;dir_985a55873ec4a56b27533251576853b6</title>
<path fill="none" stroke="black" d="M103.654,-287.697C106.92,-279.813 110.86,-270.304 114.488,-261.546"/>
<polygon fill="black" stroke="black" points="117.806,-262.683 118.4,-252.104 111.339,-260.003 117.806,-262.683"/>
<g id="a_edge7&#45;headlabel"><a xlink:href="dir_000557_000555.html" target="_top" xlink:title="298">
<text text-anchor="middle" x="119.053" y="-264.59" font-family="Helvetica,sans-Serif" font-size="10.00">298</text>
</a>
</g>
</g>
<!-- dir_ab5a80d4bd40f73f0851d5ff6a022779 -->
<g id="node6" class="node"><title>dir_ab5a80d4bd40f73f0851d5ff6a022779</title>
<g id="a_node6"><a xlink:href="dir_ab5a80d4bd40f73f0851d5ff6a022779.html" target="_top" xlink:title="Logger">
<polygon fill="none" stroke="red" points="267.486,-36 213.486,-36 213.486,-0 267.486,-0 267.486,-36"/>
<text text-anchor="middle" x="240.486" y="-15.5" font-family="Helvetica,sans-Serif" font-size="10.00">Logger</text>
</a>
</g>
</g>
<!-- dir_0b60ff9a1849fb34896fe8bde9baec43&#45;&gt;dir_ab5a80d4bd40f73f0851d5ff6a022779 -->
<g id="edge8" class="edge"><title>dir_0b60ff9a1849fb34896fe8bde9baec43&#45;&gt;dir_ab5a80d4bd40f73f0851d5ff6a022779</title>
<path fill="none" stroke="black" d="M123.51,-291.548C141.51,-281.89 165.136,-267.823 183.486,-252 215.031,-224.797 225.116,-217.386 243.486,-180 264.884,-136.449 267.796,-119.807 259.486,-72 257.962,-63.2364 255.121,-54.0062 252.092,-45.7484"/>
<polygon fill="black" stroke="black" points="255.281,-44.2931 248.379,-36.2548 248.761,-46.8428 255.281,-44.2931"/>
<g id="a_edge8&#45;headlabel"><a xlink:href="dir_000557_000564.html" target="_top" xlink:title="17">
<text text-anchor="middle" x="259.234" y="-44.1066" font-family="Helvetica,sans-Serif" font-size="10.00">17</text>
</a>
</g>
</g>
<!-- dir_2171f7ec022c5423887b07c69b2f5b48 -->
<g id="node7" class="node"><title>dir_2171f7ec022c5423887b07c69b2f5b48</title>
<g id="a_node7"><a xlink:href="dir_2171f7ec022c5423887b07c69b2f5b48.html" target="_top" xlink:title="DataFormats">
<polygon fill="none" stroke="red" points="184.486,-108 110.486,-108 110.486,-72 184.486,-72 184.486,-108"/>
<text text-anchor="middle" x="147.486" y="-87.5" font-family="Helvetica,sans-Serif" font-size="10.00">DataFormats</text>
</a>
</g>
</g>
<!-- dir_0b60ff9a1849fb34896fe8bde9baec43&#45;&gt;dir_2171f7ec022c5423887b07c69b2f5b48 -->
<g id="edge9" class="edge"><title>dir_0b60ff9a1849fb34896fe8bde9baec43&#45;&gt;dir_2171f7ec022c5423887b07c69b2f5b48</title>
<path fill="none" stroke="black" d="M77.9348,-287.609C47.6105,-257.026 -6.17891,-192.279 25.4857,-144 42.0501,-118.744 73.5336,-105.461 100.368,-98.5084"/>
<polygon fill="black" stroke="black" points="101.457,-101.848 110.384,-96.1422 99.8473,-95.0352 101.457,-101.848"/>
<g id="a_edge9&#45;headlabel"><a xlink:href="dir_000557_000052.html" target="_top" xlink:title="16">
<text text-anchor="middle" x="98.6112" y="-102.937" font-family="Helvetica,sans-Serif" font-size="10.00">16</text>
</a>
</g>
</g>
<!-- dir_4ab6b4cc6a7edbff49100e9123df213f&#45;&gt;dir_2171f7ec022c5423887b07c69b2f5b48 -->
<g id="edge1" class="edge"><title>dir_4ab6b4cc6a7edbff49100e9123df213f&#45;&gt;dir_2171f7ec022c5423887b07c69b2f5b48</title>
<path fill="none" stroke="black" d="M169.424,-143.697C164.39,-135.728 159.086,-126.1 154.809,-117.264"/>
<polygon fill="black" stroke="black" points="157.965,-115.751 150.632,-108.104 151.596,-118.655 157.965,-115.751"/>
<g id="a_edge1&#45;headlabel"><a xlink:href="dir_000009_000052.html" target="_top" xlink:title="5">
<text text-anchor="middle" x="162.04" y="-115.343" font-family="Helvetica,sans-Serif" font-size="10.00">5</text>
</a>
</g>
</g>
<!-- dir_8ba487e25de5ee77e05e9dce7582cb98&#45;&gt;dir_2171f7ec022c5423887b07c69b2f5b48 -->
<g id="edge2" class="edge"><title>dir_8ba487e25de5ee77e05e9dce7582cb98&#45;&gt;dir_2171f7ec022c5423887b07c69b2f5b48</title>
<path fill="none" stroke="black" d="M153.381,-36.1043C154.186,-43.7913 154.423,-53.0537 154.09,-61.6651"/>
<polygon fill="black" stroke="black" points="150.594,-61.4805 153.401,-71.6966 157.578,-61.9597 150.594,-61.4805"/>
<g id="a_edge2&#45;headlabel"><a xlink:href="dir_000000_000052.html" target="_top" xlink:title="8">
<text text-anchor="middle" x="148.008" y="-55.2" font-family="Helvetica,sans-Serif" font-size="10.00">8</text>
</a>
</g>
</g>
<!-- dir_5d813cdce1e9826318f2aba62999ca51&#45;&gt;dir_985a55873ec4a56b27533251576853b6 -->
<g id="edge3" class="edge"><title>dir_5d813cdce1e9826318f2aba62999ca51&#45;&gt;dir_985a55873ec4a56b27533251576853b6</title>
<path fill="none" stroke="black" d="M87.5529,-180.104C95.2795,-188.383 103.86,-198.488 110.99,-207.64"/>
<polygon fill="black" stroke="black" points="108.25,-209.819 117.064,-215.697 113.839,-205.605 108.25,-209.819"/>
<g id="a_edge3&#45;headlabel"><a xlink:href="dir_000559_000555.html" target="_top" xlink:title="1">
<text text-anchor="middle" x="103.818" y="-206.158" font-family="Helvetica,sans-Serif" font-size="10.00">1</text>
</a>
</g>
</g>
<!-- dir_985a55873ec4a56b27533251576853b6&#45;&gt;dir_4ab6b4cc6a7edbff49100e9123df213f -->
<g id="edge10" class="edge"><title>dir_985a55873ec4a56b27533251576853b6&#45;&gt;dir_4ab6b4cc6a7edbff49100e9123df213f</title>
<path fill="none" stroke="black" d="M140.07,-215.697C147.143,-207.305 155.769,-197.07 163.531,-187.861"/>
<polygon fill="black" stroke="black" points="166.301,-190.006 170.069,-180.104 160.948,-185.495 166.301,-190.006"/>
<g id="a_edge10&#45;headlabel"><a xlink:href="dir_000555_000009.html" target="_top" xlink:title="5">
<text text-anchor="middle" x="166.155" y="-192.085" font-family="Helvetica,sans-Serif" font-size="10.00">5</text>
</a>
</g>
</g>
<!-- dir_985a55873ec4a56b27533251576853b6&#45;&gt;dir_5d813cdce1e9826318f2aba62999ca51 -->
<g id="edge11" class="edge"><title>dir_985a55873ec4a56b27533251576853b6&#45;&gt;dir_5d813cdce1e9826318f2aba62999ca51</title>
<path fill="none" stroke="black" d="M105.233,-215.697C97.4928,-207.389 88.9173,-197.277 81.8105,-188.141"/>
<polygon fill="black" stroke="black" points="84.5724,-185.99 75.7628,-180.104 78.9792,-190.199 84.5724,-185.99"/>
<g id="a_edge11&#45;headlabel"><a xlink:href="dir_000555_000559.html" target="_top" xlink:title="18">
<text text-anchor="middle" x="89.0025" y="-184.655" font-family="Helvetica,sans-Serif" font-size="10.00">18</text>
</a>
</g>
</g>
<!-- dir_985a55873ec4a56b27533251576853b6&#45;&gt;dir_ab5a80d4bd40f73f0851d5ff6a022779 -->
<g id="edge12" class="edge"><title>dir_985a55873ec4a56b27533251576853b6&#45;&gt;dir_ab5a80d4bd40f73f0851d5ff6a022779</title>
<path fill="none" stroke="black" d="M152.593,-225.606C174.928,-218.009 205.446,-203.857 221.486,-180 248.551,-139.745 247.785,-80.7196 244.395,-46.4432"/>
<polygon fill="black" stroke="black" points="247.842,-45.7794 243.234,-36.2392 240.887,-46.5708 247.842,-45.7794"/>
<g id="a_edge12&#45;headlabel"><a xlink:href="dir_000555_000564.html" target="_top" xlink:title="2">
<text text-anchor="middle" x="251.07" y="-46.53" font-family="Helvetica,sans-Serif" font-size="10.00">2</text>
</a>
</g>
</g>
<!-- dir_985a55873ec4a56b27533251576853b6&#45;&gt;dir_2171f7ec022c5423887b07c69b2f5b48 -->
<g id="edge13" class="edge"><title>dir_985a55873ec4a56b27533251576853b6&#45;&gt;dir_2171f7ec022c5423887b07c69b2f5b48</title>
<path fill="none" stroke="black" d="M128.139,-215.871C131.889,-191.67 138.777,-147.211 143.242,-118.393"/>
<polygon fill="black" stroke="black" points="146.75,-118.607 144.823,-108.189 139.833,-117.535 146.75,-118.607"/>
<g id="a_edge13&#45;headlabel"><a xlink:href="dir_000555_000052.html" target="_top" xlink:title="22">
<text text-anchor="middle" x="149.006" y="-120.094" font-family="Helvetica,sans-Serif" font-size="10.00">22</text>
</a>
</g>
</g>
<!-- dir_2171f7ec022c5423887b07c69b2f5b48&#45;&gt;dir_4ab6b4cc6a7edbff49100e9123df213f -->
<g id="edge14" class="edge"><title>dir_2171f7ec022c5423887b07c69b2f5b48&#45;&gt;dir_4ab6b4cc6a7edbff49100e9123df213f</title>
<path fill="none" stroke="black" d="M162.422,-108.104C167.451,-116.045 172.761,-125.666 177.056,-134.515"/>
<polygon fill="black" stroke="black" points="173.913,-136.059 181.255,-143.697 180.279,-133.147 173.913,-136.059"/>
<g id="a_edge14&#45;headlabel"><a xlink:href="dir_000052_000009.html" target="_top" xlink:title="28">
<text text-anchor="middle" x="169.836" y="-131.471" font-family="Helvetica,sans-Serif" font-size="10.00">28</text>
</a>
</g>
</g>
<!-- dir_2171f7ec022c5423887b07c69b2f5b48&#45;&gt;dir_8ba487e25de5ee77e05e9dce7582cb98 -->
<g id="edge15" class="edge"><title>dir_2171f7ec022c5423887b07c69b2f5b48&#45;&gt;dir_8ba487e25de5ee77e05e9dce7582cb98</title>
<path fill="none" stroke="black" d="M141.57,-71.6966C140.774,-63.9827 140.548,-54.7125 140.89,-46.1124"/>
<polygon fill="black" stroke="black" points="144.384,-46.3243 141.591,-36.1043 137.401,-45.8356 144.384,-46.3243"/>
<g id="a_edge15&#45;headlabel"><a xlink:href="dir_000052_000000.html" target="_top" xlink:title="1">
<text text-anchor="middle" x="146.966" y="-47.6083" font-family="Helvetica,sans-Serif" font-size="10.00">1</text>
</a>
</g>
</g>
<!-- dir_2171f7ec022c5423887b07c69b2f5b48&#45;&gt;dir_ab5a80d4bd40f73f0851d5ff6a022779 -->
<g id="edge16" class="edge"><title>dir_2171f7ec022c5423887b07c69b2f5b48&#45;&gt;dir_ab5a80d4bd40f73f0851d5ff6a022779</title>
<path fill="none" stroke="black" d="M170.474,-71.6966C182.3,-62.796 196.878,-51.8232 209.664,-42.1989"/>
<polygon fill="black" stroke="black" points="211.877,-44.9145 217.761,-36.1043 207.667,-39.3217 211.877,-44.9145"/>
<g id="a_edge16&#45;headlabel"><a xlink:href="dir_000052_000564.html" target="_top" xlink:title="6">
<text text-anchor="middle" x="210.712" y="-46.8447" font-family="Helvetica,sans-Serif" font-size="10.00">6</text>
</a>
</g>
</g>
</g>
</svg>
