<?xml version="1.0" encoding="UTF-8" standalone="no"?>
<!DOCTYPE svg PUBLIC "-//W3C//DTD SVG 1.1//EN"
 "http://www.w3.org/Graphics/SVG/1.1/DTD/svg11.dtd">
<!-- Generated by graphviz version 2.38.0 (20140413.2041)
 -->
<!-- Title: /home/travis/build/AliceO2Group/AliceO2/GPU/GPUTracking/TPCClusterFinder Pages: 1 -->
<svg width="136pt" height="223pt"
 viewBox="0.00 0.00 136.00 223.00" xmlns="http://www.w3.org/2000/svg" xmlns:xlink="http://www.w3.org/1999/xlink">
<g id="graph0" class="graph" transform="scale(1 1) rotate(0) translate(4 219)">
<title>/home/travis/build/AliceO2Group/AliceO2/GPU/GPUTracking/TPCClusterFinder</title>
<g id="clust1" class="cluster"><title>clusterdir_77030b149987c946eb2e85728f65acc0</title>
<g id="a_clust1"><a xlink:href="dir_77030b149987c946eb2e85728f65acc0.html" target="_top" xlink:title="GPUTracking">
<polygon fill="#ddddee" stroke="black" points="8,-136 8,-207 120,-207 120,-136 8,-136"/>
<text text-anchor="middle" x="64" y="-195" font-family="Helvetica,sans-Serif" font-size="10.00">GPUTracking</text>
</a>
</g>
</g>
<!-- dir_2add44c2e86b1ce794c82f89c520272d -->
<g id="node1" class="node"><title>dir_2add44c2e86b1ce794c82f89c520272d</title>
<g id="a_node1"><a xlink:href="dir_2add44c2e86b1ce794c82f89c520272d.html" target="_top" xlink:title="TPCClusterFinder">
<polygon fill="#eeeeff" stroke="black" points="111.5,-180 16.5,-180 16.5,-144 111.5,-144 111.5,-180"/>
<text text-anchor="middle" x="64" y="-159.5" font-family="Helvetica,sans-Serif" font-size="10.00">TPCClusterFinder</text>
</a>
</g>
</g>
<!-- dir_ba48ca66118492a4424f86e9da0f6902 -->
<g id="node2" class="node"><title>dir_ba48ca66118492a4424f86e9da0f6902</title>
<g id="a_node2"><a xlink:href="dir_ba48ca66118492a4424f86e9da0f6902.html" target="_top" xlink:title="Common">
<polygon fill="none" stroke="black" points="92,-36 36,-36 36,-0 92,-0 92,-36"/>
<text text-anchor="middle" x="64" y="-15.5" font-family="Helvetica,sans-Serif" font-size="10.00">Common</text>
</a>
</g>
</g>
<!-- dir_2add44c2e86b1ce794c82f89c520272d&#45;&gt;dir_ba48ca66118492a4424f86e9da0f6902 -->
<g id="edge2" class="edge"><title>dir_2add44c2e86b1ce794c82f89c520272d&#45;&gt;dir_ba48ca66118492a4424f86e9da0f6902</title>
<path fill="none" stroke="black" d="M60.7517,-143.888C58.9542,-133.542 56.9053,-120.063 56,-108 54.8026,-92.0449 54.8026,-87.9551 56,-72 56.6366,-63.5179 57.8384,-54.3361 59.1208,-46.0356"/>
<polygon fill="black" stroke="black" points="62.5836,-46.5472 60.7517,-36.1119 55.6763,-45.412 62.5836,-46.5472"/>
<g id="a_edge2&#45;headlabel"><a xlink:href="dir_000140_000575.html" target="_top" xlink:title="6">
<text text-anchor="middle" x="64.8024" y="-48.0546" font-family="Helvetica,sans-Serif" font-size="10.00">6</text>
</a>
</g>
</g>
<!-- dir_442920581a03c66cf8c08ae559108050 -->
<g id="node3" class="node"><title>dir_442920581a03c66cf8c08ae559108050</title>
<g id="a_node3"><a xlink:href="dir_442920581a03c66cf8c08ae559108050.html" target="_top" xlink:title="Base">
<polygon fill="none" stroke="red" points="119,-108 65,-108 65,-72 119,-72 119,-108"/>
<text text-anchor="middle" x="92" y="-87.5" font-family="Helvetica,sans-Serif" font-size="10.00">Base</text>
</a>
</g>
</g>
<!-- dir_2add44c2e86b1ce794c82f89c520272d&#45;&gt;dir_442920581a03c66cf8c08ae559108050 -->
<g id="edge3" class="edge"><title>dir_2add44c2e86b1ce794c82f89c520272d&#45;&gt;dir_442920581a03c66cf8c08ae559108050</title>
<path fill="none" stroke="black" d="M70.9214,-143.697C74.0747,-135.813 77.8783,-126.304 81.3814,-117.546"/>
<polygon fill="black" stroke="black" points="84.694,-118.689 85.1583,-108.104 78.1946,-116.089 84.694,-118.689"/>
<g id="a_edge3&#45;headlabel"><a xlink:href="dir_000140_000576.html" target="_top" xlink:title="7">
<text text-anchor="middle" x="85.9952" y="-120.581" font-family="Helvetica,sans-Serif" font-size="10.00">7</text>
</a>
</g>
</g>
<!-- dir_442920581a03c66cf8c08ae559108050&#45;&gt;dir_ba48ca66118492a4424f86e9da0f6902 -->
<g id="edge1" class="edge"><title>dir_442920581a03c66cf8c08ae559108050&#45;&gt;dir_ba48ca66118492a4424f86e9da0f6902</title>
<path fill="none" stroke="black" d="M85.0786,-71.6966C81.9253,-63.8132 78.1217,-54.3042 74.6186,-45.5464"/>
<polygon fill="black" stroke="black" points="77.8054,-44.0892 70.8417,-36.1043 71.306,-46.689 77.8054,-44.0892"/>
<g id="a_edge1&#45;headlabel"><a xlink:href="dir_000576_000575.html" target="_top" xlink:title="27">
<text text-anchor="middle" x="81.7765" y="-43.8723" font-family="Helvetica,sans-Serif" font-size="10.00">27</text>
</a>
</g>
</g>
</g>
</svg>
