<?xml version="1.0" encoding="UTF-8" standalone="no"?>
<!DOCTYPE svg PUBLIC "-//W3C//DTD SVG 1.1//EN"
 "http://www.w3.org/Graphics/SVG/1.1/DTD/svg11.dtd">
<!-- Generated by graphviz version 2.38.0 (20140413.2041)
 -->
<!-- Title: /home/travis/build/AliceO2Group/AliceO2/Detectors/TPC/calibration/include/TPCCalibration Pages: 1 -->
<svg width="162pt" height="367pt"
 viewBox="0.00 0.00 161.93 367.00" xmlns="http://www.w3.org/2000/svg" xmlns:xlink="http://www.w3.org/1999/xlink">
<g id="graph0" class="graph" transform="scale(1 1) rotate(0) translate(4 363)">
<title>/home/travis/build/AliceO2Group/AliceO2/Detectors/TPC/calibration/include/TPCCalibration</title>
<g id="clust1" class="cluster"><title>clusterdir_2168d348e8784d0b706f7ff616321664</title>
<g id="a_clust1"><a xlink:href="dir_2168d348e8784d0b706f7ff616321664.html" target="_top" xlink:title="include">
<polygon fill="#ddddee" stroke="black" points="13.8234,-280 13.8234,-351 113.823,-351 113.823,-280 13.8234,-280"/>
<text text-anchor="middle" x="63.8234" y="-339" font-family="Helvetica,sans-Serif" font-size="10.00">include</text>
</a>
</g>
</g>
<!-- dir_ea8be0da165e68acf0108b458eaa1417 -->
<g id="node1" class="node"><title>dir_ea8be0da165e68acf0108b458eaa1417</title>
<g id="a_node1"><a xlink:href="dir_ea8be0da165e68acf0108b458eaa1417.html" target="_top" xlink:title="TPCCalibration">
<polygon fill="#eeeeff" stroke="black" points="105.323,-324 22.3234,-324 22.3234,-288 105.323,-288 105.323,-324"/>
<text text-anchor="middle" x="63.8234" y="-303.5" font-family="Helvetica,sans-Serif" font-size="10.00">TPCCalibration</text>
</a>
</g>
</g>
<!-- dir_677b030cc750909e4cd27413873678d8 -->
<g id="node2" class="node"><title>dir_677b030cc750909e4cd27413873678d8</title>
<g id="a_node2"><a xlink:href="dir_677b030cc750909e4cd27413873678d8.html" target="_top" xlink:title="base">
<polygon fill="none" stroke="red" points="64.8234,-180 10.8234,-180 10.8234,-144 64.8234,-144 64.8234,-180"/>
<text text-anchor="middle" x="37.8234" y="-159.5" font-family="Helvetica,sans-Serif" font-size="10.00">base</text>
</a>
</g>
</g>
<!-- dir_ea8be0da165e68acf0108b458eaa1417&#45;&gt;dir_677b030cc750909e4cd27413873678d8 -->
<g id="edge4" class="edge"><title>dir_ea8be0da165e68acf0108b458eaa1417&#45;&gt;dir_677b030cc750909e4cd27413873678d8</title>
<path fill="none" stroke="black" d="M58.7398,-287.94C55.8071,-277.613 52.2346,-264.135 49.8234,-252 45.7472,-231.484 42.6477,-208.029 40.6207,-190.35"/>
<polygon fill="black" stroke="black" points="44.0728,-189.722 39.4981,-180.166 37.115,-190.489 44.0728,-189.722"/>
<g id="a_edge4&#45;headlabel"><a xlink:href="dir_000485_000131.html" target="_top" xlink:title="11">
<text text-anchor="middle" x="47.2888" y="-190.484" font-family="Helvetica,sans-Serif" font-size="10.00">11</text>
</a>
</g>
</g>
<!-- dir_4ab6b4cc6a7edbff49100e9123df213f -->
<g id="node3" class="node"><title>dir_4ab6b4cc6a7edbff49100e9123df213f</title>
<g id="a_node3"><a xlink:href="dir_4ab6b4cc6a7edbff49100e9123df213f.html" target="_top" xlink:title="Common">
<polygon fill="none" stroke="red" points="103.823,-108 47.8234,-108 47.8234,-72 103.823,-72 103.823,-108"/>
<text text-anchor="middle" x="75.8234" y="-87.5" font-family="Helvetica,sans-Serif" font-size="10.00">Common</text>
</a>
</g>
</g>
<!-- dir_ea8be0da165e68acf0108b458eaa1417&#45;&gt;dir_4ab6b4cc6a7edbff49100e9123df213f -->
<g id="edge5" class="edge"><title>dir_ea8be0da165e68acf0108b458eaa1417&#45;&gt;dir_4ab6b4cc6a7edbff49100e9123df213f</title>
<path fill="none" stroke="black" d="M105.578,-288.462C121.109,-280.024 137.071,-268.079 145.823,-252 171.079,-205.605 130.055,-148.237 100.919,-116.019"/>
<polygon fill="black" stroke="black" points="103.192,-113.324 93.8154,-108.391 98.0696,-118.095 103.192,-113.324"/>
<g id="a_edge5&#45;headlabel"><a xlink:href="dir_000485_000009.html" target="_top" xlink:title="4">
<text text-anchor="middle" x="107.72" y="-111.519" font-family="Helvetica,sans-Serif" font-size="10.00">4</text>
</a>
</g>
</g>
<!-- dir_a5de047958dd458e809773c6ffaa8478 -->
<g id="node4" class="node"><title>dir_a5de047958dd458e809773c6ffaa8478</title>
<g id="a_node4"><a xlink:href="dir_a5de047958dd458e809773c6ffaa8478.html" target="_top" xlink:title="reconstruction">
<polygon fill="none" stroke="red" points="136.823,-252 58.8234,-252 58.8234,-216 136.823,-216 136.823,-252"/>
<text text-anchor="middle" x="97.8234" y="-231.5" font-family="Helvetica,sans-Serif" font-size="10.00">reconstruction</text>
</a>
</g>
</g>
<!-- dir_ea8be0da165e68acf0108b458eaa1417&#45;&gt;dir_a5de047958dd458e809773c6ffaa8478 -->
<g id="edge6" class="edge"><title>dir_ea8be0da165e68acf0108b458eaa1417&#45;&gt;dir_a5de047958dd458e809773c6ffaa8478</title>
<path fill="none" stroke="black" d="M72.2279,-287.697C76.0982,-279.728 80.7751,-270.1 85.0666,-261.264"/>
<polygon fill="black" stroke="black" points="88.2948,-262.629 89.5156,-252.104 81.9983,-259.57 88.2948,-262.629"/>
<g id="a_edge6&#45;headlabel"><a xlink:href="dir_000485_000407.html" target="_top" xlink:title="4">
<text text-anchor="middle" x="89.2783" y="-264.602" font-family="Helvetica,sans-Serif" font-size="10.00">4</text>
</a>
</g>
</g>
<!-- dir_2171f7ec022c5423887b07c69b2f5b48 -->
<g id="node5" class="node"><title>dir_2171f7ec022c5423887b07c69b2f5b48</title>
<g id="a_node5"><a xlink:href="dir_2171f7ec022c5423887b07c69b2f5b48.html" target="_top" xlink:title="DataFormats">
<polygon fill="none" stroke="red" points="112.823,-36 38.8234,-36 38.8234,-0 112.823,-0 112.823,-36"/>
<text text-anchor="middle" x="75.8234" y="-15.5" font-family="Helvetica,sans-Serif" font-size="10.00">DataFormats</text>
</a>
</g>
</g>
<!-- dir_ea8be0da165e68acf0108b458eaa1417&#45;&gt;dir_2171f7ec022c5423887b07c69b2f5b48 -->
<g id="edge7" class="edge"><title>dir_ea8be0da165e68acf0108b458eaa1417&#45;&gt;dir_2171f7ec022c5423887b07c69b2f5b48</title>
<path fill="none" stroke="black" d="M50.1476,-287.752C28.9351,-258.936 -8.44886,-198.756 1.82345,-144 8.15422,-110.254 12.0869,-101.399 29.8234,-72 35.7377,-62.197 43.508,-52.4496 50.9749,-44.0378"/>
<polygon fill="black" stroke="black" points="53.782,-46.1558 57.9705,-36.424 48.6274,-41.4197 53.782,-46.1558"/>
<g id="a_edge7&#45;headlabel"><a xlink:href="dir_000485_000052.html" target="_top" xlink:title="5">
<text text-anchor="middle" x="53.4408" y="-48.2237" font-family="Helvetica,sans-Serif" font-size="10.00">5</text>
</a>
</g>
</g>
<!-- dir_677b030cc750909e4cd27413873678d8&#45;&gt;dir_4ab6b4cc6a7edbff49100e9123df213f -->
<g id="edge1" class="edge"><title>dir_677b030cc750909e4cd27413873678d8&#45;&gt;dir_4ab6b4cc6a7edbff49100e9123df213f</title>
<path fill="none" stroke="black" d="M47.2167,-143.697C51.5883,-135.644 56.8807,-125.894 61.7187,-116.982"/>
<polygon fill="black" stroke="black" points="64.8433,-118.563 66.5382,-108.104 58.6913,-115.223 64.8433,-118.563"/>
<g id="a_edge1&#45;headlabel"><a xlink:href="dir_000131_000009.html" target="_top" xlink:title="12">
<text text-anchor="middle" x="65.6236" y="-120.576" font-family="Helvetica,sans-Serif" font-size="10.00">12</text>
</a>
</g>
</g>
<!-- dir_677b030cc750909e4cd27413873678d8&#45;&gt;dir_2171f7ec022c5423887b07c69b2f5b48 -->
<g id="edge2" class="edge"><title>dir_677b030cc750909e4cd27413873678d8&#45;&gt;dir_2171f7ec022c5423887b07c69b2f5b48</title>
<path fill="none" stroke="black" d="M35.0781,-143.793C32.8294,-125.508 31.1315,-95.9841 38.8234,-72 41.9774,-62.1658 47.6454,-52.5527 53.6124,-44.2727"/>
<polygon fill="black" stroke="black" points="56.5205,-46.2327 59.846,-36.1733 50.9732,-41.9633 56.5205,-46.2327"/>
<g id="a_edge2&#45;headlabel"><a xlink:href="dir_000131_000052.html" target="_top" xlink:title="14">
<text text-anchor="middle" x="56.5782" y="-48.313" font-family="Helvetica,sans-Serif" font-size="10.00">14</text>
</a>
</g>
</g>
<!-- dir_4ab6b4cc6a7edbff49100e9123df213f&#45;&gt;dir_2171f7ec022c5423887b07c69b2f5b48 -->
<g id="edge3" class="edge"><title>dir_4ab6b4cc6a7edbff49100e9123df213f&#45;&gt;dir_2171f7ec022c5423887b07c69b2f5b48</title>
<path fill="none" stroke="black" d="M69.9077,-71.6966C69.112,-63.9827 68.8855,-54.7125 69.2282,-46.1124"/>
<polygon fill="black" stroke="black" points="72.7218,-46.3243 69.9284,-36.1043 65.7389,-45.8356 72.7218,-46.3243"/>
<g id="a_edge3&#45;headlabel"><a xlink:href="dir_000009_000052.html" target="_top" xlink:title="5">
<text text-anchor="middle" x="75.3034" y="-47.6083" font-family="Helvetica,sans-Serif" font-size="10.00">5</text>
</a>
</g>
</g>
<!-- dir_a5de047958dd458e809773c6ffaa8478&#45;&gt;dir_677b030cc750909e4cd27413873678d8 -->
<g id="edge8" class="edge"><title>dir_a5de047958dd458e809773c6ffaa8478&#45;&gt;dir_677b030cc750909e4cd27413873678d8</title>
<path fill="none" stroke="black" d="M82.992,-215.697C75.7988,-207.305 67.0267,-197.07 59.1332,-187.861"/>
<polygon fill="black" stroke="black" points="61.6497,-185.419 52.4843,-180.104 56.3348,-189.975 61.6497,-185.419"/>
<g id="a_edge8&#45;headlabel"><a xlink:href="dir_000407_000131.html" target="_top" xlink:title="43">
<text text-anchor="middle" x="66.1447" y="-183.801" font-family="Helvetica,sans-Serif" font-size="10.00">43</text>
</a>
</g>
</g>
<!-- dir_a5de047958dd458e809773c6ffaa8478&#45;&gt;dir_4ab6b4cc6a7edbff49100e9123df213f -->
<g id="edge9" class="edge"><title>dir_a5de047958dd458e809773c6ffaa8478&#45;&gt;dir_4ab6b4cc6a7edbff49100e9123df213f</title>
<path fill="none" stroke="black" d="M95.1697,-215.871C91.4202,-191.67 84.5322,-147.211 80.0675,-118.393"/>
<polygon fill="black" stroke="black" points="83.4764,-117.535 78.4866,-108.189 76.5589,-118.607 83.4764,-117.535"/>
<g id="a_edge9&#45;headlabel"><a xlink:href="dir_000407_000009.html" target="_top" xlink:title="2">
<text text-anchor="middle" x="86.8325" y="-118.153" font-family="Helvetica,sans-Serif" font-size="10.00">2</text>
</a>
</g>
</g>
<!-- dir_a5de047958dd458e809773c6ffaa8478&#45;&gt;dir_2171f7ec022c5423887b07c69b2f5b48 -->
<g id="edge10" class="edge"><title>dir_a5de047958dd458e809773c6ffaa8478&#45;&gt;dir_2171f7ec022c5423887b07c69b2f5b48</title>
<path fill="none" stroke="black" d="M103.788,-215.612C113.146,-185.574 128.658,-122.345 112.823,-72 109.725,-62.1483 104.072,-52.5302 98.1025,-44.2511"/>
<polygon fill="black" stroke="black" points="100.738,-41.9371 91.8604,-36.1544 95.1942,-46.2111 100.738,-41.9371"/>
<g id="a_edge10&#45;headlabel"><a xlink:href="dir_000407_000052.html" target="_top" xlink:title="37">
<text text-anchor="middle" x="105.181" y="-40.5503" font-family="Helvetica,sans-Serif" font-size="10.00">37</text>
</a>
</g>
</g>
<!-- dir_2171f7ec022c5423887b07c69b2f5b48&#45;&gt;dir_4ab6b4cc6a7edbff49100e9123df213f -->
<g id="edge11" class="edge"><title>dir_2171f7ec022c5423887b07c69b2f5b48&#45;&gt;dir_4ab6b4cc6a7edbff49100e9123df213f</title>
<path fill="none" stroke="black" d="M81.7185,-36.1043C82.524,-43.7913 82.7603,-53.0537 82.4275,-61.6651"/>
<polygon fill="black" stroke="black" points="78.932,-61.4805 81.7392,-71.6966 85.9156,-61.9597 78.932,-61.4805"/>
<g id="a_edge11&#45;headlabel"><a xlink:href="dir_000052_000009.html" target="_top" xlink:title="28">
<text text-anchor="middle" x="76.3453" y="-55.2" font-family="Helvetica,sans-Serif" font-size="10.00">28</text>
</a>
</g>
</g>
</g>
</svg>
