<?xml version="1.0" encoding="UTF-8" standalone="no"?>
<!DOCTYPE svg PUBLIC "-//W3C//DTD SVG 1.1//EN"
 "http://www.w3.org/Graphics/SVG/1.1/DTD/svg11.dtd">
<!-- Generated by graphviz version 2.38.0 (20140413.2041)
 -->
<!-- Title: /home/travis/build/AliceO2Group/AliceO2/DataFormats/Detectors/ZDC/include Pages: 1 -->
<svg width="284pt" height="249pt"
 viewBox="0.00 0.00 283.50 249.22" xmlns="http://www.w3.org/2000/svg" xmlns:xlink="http://www.w3.org/1999/xlink">
<g id="graph0" class="graph" transform="scale(1 1) rotate(0) translate(4 245.221)">
<title>/home/travis/build/AliceO2Group/AliceO2/DataFormats/Detectors/ZDC/include</title>
<g id="clust1" class="cluster"><title>clusterdir_b6eb3a833d010b8ef0c8524bb0dfb6b1</title>
<g id="a_clust1"><a xlink:href="dir_b6eb3a833d010b8ef0c8524bb0dfb6b1.html" target="_top" xlink:title="ZDC">
<polygon fill="#ddddee" stroke="black" points="8,-128 8,-215 208,-215 208,-128 8,-128"/>
<text text-anchor="middle" x="108" y="-203" font-family="Helvetica,sans-Serif" font-size="10.00">ZDC</text>
</a>
</g>
</g>
<g id="clust2" class="cluster"><title>clusterdir_64d738a0161f08f47d3d8d07e1b435f8</title>
<g id="a_clust2"><a xlink:href="dir_64d738a0161f08f47d3d8d07e1b435f8.html" target="_top">
<polygon fill="#eeeeff" stroke="black" points="16,-136 16,-188 200,-188 200,-136 16,-136"/>
</a>
</g>
</g>
<!-- dir_64d738a0161f08f47d3d8d07e1b435f8 -->
<g id="node1" class="node"><title>dir_64d738a0161f08f47d3d8d07e1b435f8</title>
<text text-anchor="middle" x="165" y="-159.5" font-family="Helvetica,sans-Serif" font-size="10.00">include</text>
</g>
<!-- dir_a4e4bab9cf6a2c7a75d5d137e4b1b41f -->
<g id="node2" class="node"><title>dir_a4e4bab9cf6a2c7a75d5d137e4b1b41f</title>
<g id="a_node2"><a xlink:href="dir_a4e4bab9cf6a2c7a75d5d137e4b1b41f.html" target="_top" xlink:title="DataFormatsZDC">
<polygon fill="white" stroke="black" points="119.5,-180 24.5,-180 24.5,-144 119.5,-144 119.5,-180"/>
<text text-anchor="middle" x="72" y="-159.5" font-family="Helvetica,sans-Serif" font-size="10.00">DataFormatsZDC</text>
</a>
</g>
</g>
<!-- dir_4ab6b4cc6a7edbff49100e9123df213f -->
<g id="node3" class="node"><title>dir_4ab6b4cc6a7edbff49100e9123df213f</title>
<g id="a_node3"><a xlink:href="dir_4ab6b4cc6a7edbff49100e9123df213f.html" target="_top" xlink:title="Common">
<polygon fill="none" stroke="red" points="202,-108 146,-108 146,-72 202,-72 202,-108"/>
<text text-anchor="middle" x="174" y="-87.5" font-family="Helvetica,sans-Serif" font-size="10.00">Common</text>
</a>
</g>
</g>
<!-- dir_a4e4bab9cf6a2c7a75d5d137e4b1b41f&#45;&gt;dir_4ab6b4cc6a7edbff49100e9123df213f -->
<g id="edge1" class="edge"><title>dir_a4e4bab9cf6a2c7a75d5d137e4b1b41f&#45;&gt;dir_4ab6b4cc6a7edbff49100e9123df213f</title>
<path fill="none" stroke="black" d="M96.952,-143.876C110.042,-134.893 126.26,-123.763 140.436,-114.034"/>
<polygon fill="black" stroke="black" points="142.687,-116.734 148.952,-108.19 138.726,-110.962 142.687,-116.734"/>
<g id="a_edge1&#45;headlabel"><a xlink:href="dir_000214_000009.html" target="_top" xlink:title="1">
<text text-anchor="middle" x="141.33" y="-118.609" font-family="Helvetica,sans-Serif" font-size="10.00">1</text>
</a>
</g>
</g>
<!-- dir_051dca18e802f8e9474f2e30d29c04e0 -->
<g id="node4" class="node"><title>dir_051dca18e802f8e9474f2e30d29c04e0</title>
<g id="a_node4"><a xlink:href="dir_051dca18e802f8e9474f2e30d29c04e0.html" target="_top" xlink:title="Detectors">
<polygon fill="none" stroke="red" points="275.5,-180 216.5,-180 216.5,-144 275.5,-144 275.5,-180"/>
<text text-anchor="middle" x="246" y="-159.5" font-family="Helvetica,sans-Serif" font-size="10.00">Detectors</text>
</a>
</g>
</g>
<!-- dir_a4e4bab9cf6a2c7a75d5d137e4b1b41f&#45;&gt;dir_051dca18e802f8e9474f2e30d29c04e0 -->
<g id="edge2" class="edge"><title>dir_a4e4bab9cf6a2c7a75d5d137e4b1b41f&#45;&gt;dir_051dca18e802f8e9474f2e30d29c04e0</title>
<path fill="none" stroke="black" d="M82.6803,-180.252C93.95,-197.511 113.469,-222.311 138,-233 161.224,-243.12 172.459,-244.562 195,-233 212.781,-223.88 225.763,-205.358 234.179,-189.519"/>
<polygon fill="black" stroke="black" points="237.535,-190.627 238.83,-180.112 231.26,-187.525 237.535,-190.627"/>
<g id="a_edge2&#45;headlabel"><a xlink:href="dir_000214_000021.html" target="_top" xlink:title="5">
<text text-anchor="middle" x="238.487" y="-192.608" font-family="Helvetica,sans-Serif" font-size="10.00">5</text>
</a>
</g>
</g>
<!-- dir_7924ba4398ae4560cd37376e44666c6d -->
<g id="node5" class="node"><title>dir_7924ba4398ae4560cd37376e44666c6d</title>
<g id="a_node5"><a xlink:href="dir_7924ba4398ae4560cd37376e44666c6d.html" target="_top" xlink:title="common">
<polygon fill="none" stroke="red" points="201,-36 147,-36 147,-0 201,-0 201,-36"/>
<text text-anchor="middle" x="174" y="-15.5" font-family="Helvetica,sans-Serif" font-size="10.00">common</text>
</a>
</g>
</g>
<!-- dir_a4e4bab9cf6a2c7a75d5d137e4b1b41f&#45;&gt;dir_7924ba4398ae4560cd37376e44666c6d -->
<g id="edge3" class="edge"><title>dir_a4e4bab9cf6a2c7a75d5d137e4b1b41f&#45;&gt;dir_7924ba4398ae4560cd37376e44666c6d</title>
<path fill="none" stroke="black" d="M84.3036,-143.871C102.07,-119.137 135.037,-73.2424 155.674,-44.5121"/>
<polygon fill="black" stroke="black" points="158.661,-46.353 161.653,-36.1893 152.976,-42.2692 158.661,-46.353"/>
<g id="a_edge3&#45;headlabel"><a xlink:href="dir_000214_000053.html" target="_top" xlink:title="5">
<text text-anchor="middle" x="158.87" y="-48.4289" font-family="Helvetica,sans-Serif" font-size="10.00">5</text>
</a>
</g>
</g>
<!-- dir_4ab6b4cc6a7edbff49100e9123df213f&#45;&gt;dir_7924ba4398ae4560cd37376e44666c6d -->
<g id="edge4" class="edge"><title>dir_4ab6b4cc6a7edbff49100e9123df213f&#45;&gt;dir_7924ba4398ae4560cd37376e44666c6d</title>
<path fill="none" stroke="black" d="M168.084,-71.6966C167.289,-63.9827 167.062,-54.7125 167.405,-46.1124"/>
<polygon fill="black" stroke="black" points="170.898,-46.3243 168.105,-36.1043 163.915,-45.8356 170.898,-46.3243"/>
<g id="a_edge4&#45;headlabel"><a xlink:href="dir_000009_000053.html" target="_top" xlink:title="1">
<text text-anchor="middle" x="173.48" y="-47.6083" font-family="Helvetica,sans-Serif" font-size="10.00">1</text>
</a>
</g>
</g>
<!-- dir_051dca18e802f8e9474f2e30d29c04e0&#45;&gt;dir_a4e4bab9cf6a2c7a75d5d137e4b1b41f -->
<g id="edge5" class="edge"><title>dir_051dca18e802f8e9474f2e30d29c04e0&#45;&gt;dir_a4e4bab9cf6a2c7a75d5d137e4b1b41f</title>
<path fill="none" stroke="black" d="M238.83,-180.112C230.945,-197.265 216.471,-221.987 195,-233 172.459,-244.562 161.224,-243.12 138,-233 117.302,-223.981 100.172,-204.916 88.5548,-188.812"/>
<polygon fill="black" stroke="black" points="91.2246,-186.516 82.6803,-180.252 85.453,-190.477 91.2246,-186.516"/>
<g id="a_edge5&#45;headlabel"><a xlink:href="dir_000021_000214.html" target="_top" xlink:title="2">
<text text-anchor="middle" x="95.5996" y="-185.373" font-family="Helvetica,sans-Serif" font-size="10.00">2</text>
</a>
</g>
</g>
<!-- dir_051dca18e802f8e9474f2e30d29c04e0&#45;&gt;dir_4ab6b4cc6a7edbff49100e9123df213f -->
<g id="edge6" class="edge"><title>dir_051dca18e802f8e9474f2e30d29c04e0&#45;&gt;dir_4ab6b4cc6a7edbff49100e9123df213f</title>
<path fill="none" stroke="black" d="M228.202,-143.697C219.396,-135.135 208.618,-124.656 198.999,-115.304"/>
<polygon fill="black" stroke="black" points="201.203,-112.566 191.593,-108.104 196.323,-117.585 201.203,-112.566"/>
<g id="a_edge6&#45;headlabel"><a xlink:href="dir_000021_000009.html" target="_top" xlink:title="183">
<text text-anchor="middle" x="205.759" y="-110.536" font-family="Helvetica,sans-Serif" font-size="10.00">183</text>
</a>
</g>
</g>
<!-- dir_051dca18e802f8e9474f2e30d29c04e0&#45;&gt;dir_7924ba4398ae4560cd37376e44666c6d -->
<g id="edge7" class="edge"><title>dir_051dca18e802f8e9474f2e30d29c04e0&#45;&gt;dir_7924ba4398ae4560cd37376e44666c6d</title>
<path fill="none" stroke="black" d="M240.561,-143.741C234.479,-125.412 223.786,-95.8524 211,-72 205.91,-62.5052 199.435,-52.6784 193.329,-44.1038"/>
<polygon fill="black" stroke="black" points="196.136,-42.0141 187.41,-36.0052 190.485,-46.1442 196.136,-42.0141"/>
<g id="a_edge7&#45;headlabel"><a xlink:href="dir_000021_000053.html" target="_top" xlink:title="33">
<text text-anchor="middle" x="200.55" y="-40.7411" font-family="Helvetica,sans-Serif" font-size="10.00">33</text>
</a>
</g>
</g>
<!-- dir_7924ba4398ae4560cd37376e44666c6d&#45;&gt;dir_4ab6b4cc6a7edbff49100e9123df213f -->
<g id="edge8" class="edge"><title>dir_7924ba4398ae4560cd37376e44666c6d&#45;&gt;dir_4ab6b4cc6a7edbff49100e9123df213f</title>
<path fill="none" stroke="black" d="M179.895,-36.1043C180.701,-43.7913 180.937,-53.0537 180.604,-61.6651"/>
<polygon fill="black" stroke="black" points="177.109,-61.4805 179.916,-71.6966 184.092,-61.9597 177.109,-61.4805"/>
<g id="a_edge8&#45;headlabel"><a xlink:href="dir_000053_000009.html" target="_top" xlink:title="2">
<text text-anchor="middle" x="174.522" y="-55.2" font-family="Helvetica,sans-Serif" font-size="10.00">2</text>
</a>
</g>
</g>
</g>
</svg>
