<?xml version="1.0" encoding="UTF-8" standalone="no"?>
<!DOCTYPE svg PUBLIC "-//W3C//DTD SVG 1.1//EN"
 "http://www.w3.org/Graphics/SVG/1.1/DTD/svg11.dtd">
<!-- Generated by graphviz version 2.38.0 (20140413.2041)
 -->
<!-- Title: /home/travis/build/AliceO2Group/AliceO2/DataFormats/Detectors/EMCAL Pages: 1 -->
<svg width="254pt" height="231pt"
 viewBox="0.00 0.00 254.00 231.00" xmlns="http://www.w3.org/2000/svg" xmlns:xlink="http://www.w3.org/1999/xlink">
<g id="graph0" class="graph" transform="scale(1 1) rotate(0) translate(4 227)">
<title>/home/travis/build/AliceO2Group/AliceO2/DataFormats/Detectors/EMCAL</title>
<g id="clust1" class="cluster"><title>clusterdir_2801adc79bf3c286b1b479858d2cade4</title>
<g id="a_clust1"><a xlink:href="dir_2801adc79bf3c286b1b479858d2cade4.html" target="_top" xlink:title="Detectors">
<polygon fill="#ddddee" stroke="black" points="8,-56 8,-215 238,-215 238,-56 8,-56"/>
<text text-anchor="middle" x="123" y="-203" font-family="Helvetica,sans-Serif" font-size="10.00">Detectors</text>
</a>
</g>
</g>
<g id="clust2" class="cluster"><title>clusterdir_ed32e563080284594a91de8f304ad307</title>
<g id="a_clust2"><a xlink:href="dir_ed32e563080284594a91de8f304ad307.html" target="_top">
<polygon fill="#eeeeff" stroke="black" points="16,-64 16,-188 230,-188 230,-64 16,-64"/>
</a>
</g>
</g>
<!-- dir_ed32e563080284594a91de8f304ad307 -->
<g id="node1" class="node"><title>dir_ed32e563080284594a91de8f304ad307</title>
<text text-anchor="middle" x="195" y="-159.5" font-family="Helvetica,sans-Serif" font-size="10.00">EMCAL</text>
</g>
<!-- dir_3e9d4b8f9a8320be9d9c70c9c7d173dc -->
<g id="node2" class="node"><title>dir_3e9d4b8f9a8320be9d9c70c9c7d173dc</title>
<g id="a_node2"><a xlink:href="dir_3e9d4b8f9a8320be9d9c70c9c7d173dc.html" target="_top" xlink:title="include">
<polygon fill="white" stroke="red" points="114,-108 60,-108 60,-72 114,-72 114,-108"/>
<text text-anchor="middle" x="87" y="-87.5" font-family="Helvetica,sans-Serif" font-size="10.00">include</text>
</a>
</g>
</g>
<!-- dir_183e7c4434404fe9096e1bd8673e1fcf -->
<g id="node5" class="node"><title>dir_183e7c4434404fe9096e1bd8673e1fcf</title>
<g id="a_node5"><a xlink:href="dir_183e7c4434404fe9096e1bd8673e1fcf.html" target="_top" xlink:title="Headers">
<polygon fill="none" stroke="red" points="78,-36 24,-36 24,-0 78,-0 78,-36"/>
<text text-anchor="middle" x="51" y="-15.5" font-family="Helvetica,sans-Serif" font-size="10.00">Headers</text>
</a>
</g>
</g>
<!-- dir_3e9d4b8f9a8320be9d9c70c9c7d173dc&#45;&gt;dir_183e7c4434404fe9096e1bd8673e1fcf -->
<g id="edge3" class="edge"><title>dir_3e9d4b8f9a8320be9d9c70c9c7d173dc&#45;&gt;dir_183e7c4434404fe9096e1bd8673e1fcf</title>
<path fill="none" stroke="black" d="M78.1011,-71.6966C74.0032,-63.7284 69.0512,-54.0995 64.5073,-45.2641"/>
<polygon fill="black" stroke="black" points="67.4826,-43.3965 59.7965,-36.1043 61.2575,-46.598 67.4826,-43.3965"/>
<g id="a_edge3&#45;headlabel"><a xlink:href="dir_000069_000056.html" target="_top" xlink:title="1">
<text text-anchor="middle" x="71.6514" y="-42.7946" font-family="Helvetica,sans-Serif" font-size="10.00">1</text>
</a>
</g>
</g>
<!-- dir_7924ba4398ae4560cd37376e44666c6d -->
<g id="node6" class="node"><title>dir_7924ba4398ae4560cd37376e44666c6d</title>
<g id="a_node6"><a xlink:href="dir_7924ba4398ae4560cd37376e44666c6d.html" target="_top" xlink:title="common">
<polygon fill="none" stroke="red" points="150,-36 96,-36 96,-0 150,-0 150,-36"/>
<text text-anchor="middle" x="123" y="-15.5" font-family="Helvetica,sans-Serif" font-size="10.00">common</text>
</a>
</g>
</g>
<!-- dir_3e9d4b8f9a8320be9d9c70c9c7d173dc&#45;&gt;dir_7924ba4398ae4560cd37376e44666c6d -->
<g id="edge4" class="edge"><title>dir_3e9d4b8f9a8320be9d9c70c9c7d173dc&#45;&gt;dir_7924ba4398ae4560cd37376e44666c6d</title>
<path fill="none" stroke="black" d="M95.8989,-71.6966C99.9968,-63.7284 104.949,-54.0995 109.493,-45.2641"/>
<polygon fill="black" stroke="black" points="112.742,-46.598 114.203,-36.1043 106.517,-43.3965 112.742,-46.598"/>
<g id="a_edge4&#45;headlabel"><a xlink:href="dir_000069_000053.html" target="_top" xlink:title="5">
<text text-anchor="middle" x="113.623" y="-48.5931" font-family="Helvetica,sans-Serif" font-size="10.00">5</text>
</a>
</g>
</g>
<!-- dir_aa3521a392a8355f8c849a53d33c1aa7 -->
<g id="node3" class="node"><title>dir_aa3521a392a8355f8c849a53d33c1aa7</title>
<g id="a_node3"><a xlink:href="dir_aa3521a392a8355f8c849a53d33c1aa7.html" target="_top" xlink:title="src">
<polygon fill="white" stroke="black" points="150,-180 96,-180 96,-144 150,-144 150,-180"/>
<text text-anchor="middle" x="123" y="-159.5" font-family="Helvetica,sans-Serif" font-size="10.00">src</text>
</a>
</g>
</g>
<!-- dir_aa3521a392a8355f8c849a53d33c1aa7&#45;&gt;dir_3e9d4b8f9a8320be9d9c70c9c7d173dc -->
<g id="edge1" class="edge"><title>dir_aa3521a392a8355f8c849a53d33c1aa7&#45;&gt;dir_3e9d4b8f9a8320be9d9c70c9c7d173dc</title>
<path fill="none" stroke="black" d="M114.101,-143.697C110.003,-135.728 105.051,-126.1 100.507,-117.264"/>
<polygon fill="black" stroke="black" points="103.483,-115.396 95.7965,-108.104 97.2575,-118.598 103.483,-115.396"/>
<g id="a_edge1&#45;headlabel"><a xlink:href="dir_000144_000069.html" target="_top" xlink:title="7">
<text text-anchor="middle" x="107.651" y="-114.795" font-family="Helvetica,sans-Serif" font-size="10.00">7</text>
</a>
</g>
</g>
<!-- dir_c007bfa9f1537cc23fde19f8104104ed -->
<g id="node4" class="node"><title>dir_c007bfa9f1537cc23fde19f8104104ed</title>
<g id="a_node4"><a xlink:href="dir_c007bfa9f1537cc23fde19f8104104ed.html" target="_top" xlink:title="test">
<polygon fill="white" stroke="black" points="78,-180 24,-180 24,-144 78,-144 78,-180"/>
<text text-anchor="middle" x="51" y="-159.5" font-family="Helvetica,sans-Serif" font-size="10.00">test</text>
</a>
</g>
</g>
<!-- dir_c007bfa9f1537cc23fde19f8104104ed&#45;&gt;dir_3e9d4b8f9a8320be9d9c70c9c7d173dc -->
<g id="edge2" class="edge"><title>dir_c007bfa9f1537cc23fde19f8104104ed&#45;&gt;dir_3e9d4b8f9a8320be9d9c70c9c7d173dc</title>
<path fill="none" stroke="black" d="M59.8989,-143.697C63.9968,-135.728 68.9488,-126.1 73.4927,-117.264"/>
<polygon fill="black" stroke="black" points="76.7425,-118.598 78.2035,-108.104 70.5174,-115.396 76.7425,-118.598"/>
<g id="a_edge2&#45;headlabel"><a xlink:href="dir_000160_000069.html" target="_top" xlink:title="1">
<text text-anchor="middle" x="77.6235" y="-120.593" font-family="Helvetica,sans-Serif" font-size="10.00">1</text>
</a>
</g>
</g>
</g>
</svg>
