<?xml version="1.0" encoding="UTF-8" standalone="no"?>
<!DOCTYPE svg PUBLIC "-//W3C//DTD SVG 1.1//EN"
 "http://www.w3.org/Graphics/SVG/1.1/DTD/svg11.dtd">
<!-- Generated by graphviz version 2.38.0 (20140413.2041)
 -->
<!-- Title: /home/travis/build/AliceO2Group/AliceO2/Detectors/TPC/calibration/include Pages: 1 -->
<svg width="212pt" height="375pt"
 viewBox="0.00 0.00 212.00 375.00" xmlns="http://www.w3.org/2000/svg" xmlns:xlink="http://www.w3.org/1999/xlink">
<g id="graph0" class="graph" transform="scale(1 1) rotate(0) translate(4 371)">
<title>/home/travis/build/AliceO2Group/AliceO2/Detectors/TPC/calibration/include</title>
<g id="clust1" class="cluster"><title>clusterdir_4995562033b321477cfe3c34a14a5189</title>
<g id="a_clust1"><a xlink:href="dir_4995562033b321477cfe3c34a14a5189.html" target="_top" xlink:title="calibration">
<polygon fill="#ddddee" stroke="black" points="8,-272 8,-359 196,-359 196,-272 8,-272"/>
<text text-anchor="middle" x="102" y="-347" font-family="Helvetica,sans-Serif" font-size="10.00">calibration</text>
</a>
</g>
</g>
<g id="clust2" class="cluster"><title>clusterdir_2168d348e8784d0b706f7ff616321664</title>
<g id="a_clust2"><a xlink:href="dir_2168d348e8784d0b706f7ff616321664.html" target="_top">
<polygon fill="#eeeeff" stroke="black" points="16,-280 16,-332 188,-332 188,-280 16,-280"/>
</a>
</g>
</g>
<!-- dir_2168d348e8784d0b706f7ff616321664 -->
<g id="node1" class="node"><title>dir_2168d348e8784d0b706f7ff616321664</title>
<text text-anchor="middle" x="153" y="-303.5" font-family="Helvetica,sans-Serif" font-size="10.00">include</text>
</g>
<!-- dir_ea8be0da165e68acf0108b458eaa1417 -->
<g id="node2" class="node"><title>dir_ea8be0da165e68acf0108b458eaa1417</title>
<g id="a_node2"><a xlink:href="dir_ea8be0da165e68acf0108b458eaa1417.html" target="_top" xlink:title="TPCCalibration">
<polygon fill="white" stroke="black" points="107.5,-324 24.5,-324 24.5,-288 107.5,-288 107.5,-324"/>
<text text-anchor="middle" x="66" y="-303.5" font-family="Helvetica,sans-Serif" font-size="10.00">TPCCalibration</text>
</a>
</g>
</g>
<!-- dir_677b030cc750909e4cd27413873678d8 -->
<g id="node3" class="node"><title>dir_677b030cc750909e4cd27413873678d8</title>
<g id="a_node3"><a xlink:href="dir_677b030cc750909e4cd27413873678d8.html" target="_top" xlink:title="base">
<polygon fill="none" stroke="red" points="67,-180 13,-180 13,-144 67,-144 67,-180"/>
<text text-anchor="middle" x="40" y="-159.5" font-family="Helvetica,sans-Serif" font-size="10.00">base</text>
</a>
</g>
</g>
<!-- dir_ea8be0da165e68acf0108b458eaa1417&#45;&gt;dir_677b030cc750909e4cd27413873678d8 -->
<g id="edge4" class="edge"><title>dir_ea8be0da165e68acf0108b458eaa1417&#45;&gt;dir_677b030cc750909e4cd27413873678d8</title>
<path fill="none" stroke="black" d="M60.9163,-287.94C57.9837,-277.613 54.4111,-264.135 52,-252 47.9237,-231.484 44.8243,-208.029 42.7973,-190.35"/>
<polygon fill="black" stroke="black" points="46.2494,-189.722 41.6746,-180.166 39.2915,-190.489 46.2494,-189.722"/>
<g id="a_edge4&#45;headlabel"><a xlink:href="dir_000485_000131.html" target="_top" xlink:title="11">
<text text-anchor="middle" x="49.4654" y="-190.484" font-family="Helvetica,sans-Serif" font-size="10.00">11</text>
</a>
</g>
</g>
<!-- dir_4ab6b4cc6a7edbff49100e9123df213f -->
<g id="node4" class="node"><title>dir_4ab6b4cc6a7edbff49100e9123df213f</title>
<g id="a_node4"><a xlink:href="dir_4ab6b4cc6a7edbff49100e9123df213f.html" target="_top" xlink:title="Common">
<polygon fill="none" stroke="red" points="106,-108 50,-108 50,-72 106,-72 106,-108"/>
<text text-anchor="middle" x="78" y="-87.5" font-family="Helvetica,sans-Serif" font-size="10.00">Common</text>
</a>
</g>
</g>
<!-- dir_ea8be0da165e68acf0108b458eaa1417&#45;&gt;dir_4ab6b4cc6a7edbff49100e9123df213f -->
<g id="edge5" class="edge"><title>dir_ea8be0da165e68acf0108b458eaa1417&#45;&gt;dir_4ab6b4cc6a7edbff49100e9123df213f</title>
<path fill="none" stroke="black" d="M92.4656,-287.866C100.358,-282.759 109.028,-277.151 117,-272 130.772,-263.102 140.155,-266.398 148,-252 173.275,-205.615 132.244,-148.244 103.102,-116.022"/>
<polygon fill="black" stroke="black" points="105.373,-113.326 95.9964,-108.394 100.251,-118.097 105.373,-113.326"/>
<g id="a_edge5&#45;headlabel"><a xlink:href="dir_000485_000009.html" target="_top" xlink:title="4">
<text text-anchor="middle" x="109.901" y="-111.521" font-family="Helvetica,sans-Serif" font-size="10.00">4</text>
</a>
</g>
</g>
<!-- dir_a5de047958dd458e809773c6ffaa8478 -->
<g id="node5" class="node"><title>dir_a5de047958dd458e809773c6ffaa8478</title>
<g id="a_node5"><a xlink:href="dir_a5de047958dd458e809773c6ffaa8478.html" target="_top" xlink:title="reconstruction">
<polygon fill="none" stroke="red" points="139,-252 61,-252 61,-216 139,-216 139,-252"/>
<text text-anchor="middle" x="100" y="-231.5" font-family="Helvetica,sans-Serif" font-size="10.00">reconstruction</text>
</a>
</g>
</g>
<!-- dir_ea8be0da165e68acf0108b458eaa1417&#45;&gt;dir_a5de047958dd458e809773c6ffaa8478 -->
<g id="edge6" class="edge"><title>dir_ea8be0da165e68acf0108b458eaa1417&#45;&gt;dir_a5de047958dd458e809773c6ffaa8478</title>
<path fill="none" stroke="black" d="M74.4045,-287.697C78.2748,-279.728 82.9517,-270.1 87.2431,-261.264"/>
<polygon fill="black" stroke="black" points="90.4714,-262.629 91.6922,-252.104 84.1748,-259.57 90.4714,-262.629"/>
<g id="a_edge6&#45;headlabel"><a xlink:href="dir_000485_000407.html" target="_top" xlink:title="4">
<text text-anchor="middle" x="91.4549" y="-264.602" font-family="Helvetica,sans-Serif" font-size="10.00">4</text>
</a>
</g>
</g>
<!-- dir_2171f7ec022c5423887b07c69b2f5b48 -->
<g id="node6" class="node"><title>dir_2171f7ec022c5423887b07c69b2f5b48</title>
<g id="a_node6"><a xlink:href="dir_2171f7ec022c5423887b07c69b2f5b48.html" target="_top" xlink:title="DataFormats">
<polygon fill="none" stroke="red" points="115,-36 41,-36 41,-0 115,-0 115,-36"/>
<text text-anchor="middle" x="78" y="-15.5" font-family="Helvetica,sans-Serif" font-size="10.00">DataFormats</text>
</a>
</g>
</g>
<!-- dir_ea8be0da165e68acf0108b458eaa1417&#45;&gt;dir_2171f7ec022c5423887b07c69b2f5b48 -->
<g id="edge7" class="edge"><title>dir_ea8be0da165e68acf0108b458eaa1417&#45;&gt;dir_2171f7ec022c5423887b07c69b2f5b48</title>
<path fill="none" stroke="black" d="M52.3241,-287.752C31.1117,-258.936 -6.27231,-198.756 4,-144 10.3308,-110.254 14.2635,-101.399 32,-72 37.9143,-62.197 45.6846,-52.4496 53.1515,-44.0378"/>
<polygon fill="black" stroke="black" points="55.9586,-46.1558 60.1471,-36.424 50.804,-41.4197 55.9586,-46.1558"/>
<g id="a_edge7&#45;headlabel"><a xlink:href="dir_000485_000052.html" target="_top" xlink:title="5">
<text text-anchor="middle" x="55.6174" y="-48.2237" font-family="Helvetica,sans-Serif" font-size="10.00">5</text>
</a>
</g>
</g>
<!-- dir_677b030cc750909e4cd27413873678d8&#45;&gt;dir_4ab6b4cc6a7edbff49100e9123df213f -->
<g id="edge1" class="edge"><title>dir_677b030cc750909e4cd27413873678d8&#45;&gt;dir_4ab6b4cc6a7edbff49100e9123df213f</title>
<path fill="none" stroke="black" d="M49.3933,-143.697C53.7649,-135.644 59.0573,-125.894 63.8953,-116.982"/>
<polygon fill="black" stroke="black" points="67.0198,-118.563 68.7148,-108.104 60.8678,-115.223 67.0198,-118.563"/>
<g id="a_edge1&#45;headlabel"><a xlink:href="dir_000131_000009.html" target="_top" xlink:title="12">
<text text-anchor="middle" x="67.8002" y="-120.576" font-family="Helvetica,sans-Serif" font-size="10.00">12</text>
</a>
</g>
</g>
<!-- dir_677b030cc750909e4cd27413873678d8&#45;&gt;dir_2171f7ec022c5423887b07c69b2f5b48 -->
<g id="edge2" class="edge"><title>dir_677b030cc750909e4cd27413873678d8&#45;&gt;dir_2171f7ec022c5423887b07c69b2f5b48</title>
<path fill="none" stroke="black" d="M37.2546,-143.793C35.0059,-125.508 33.3081,-95.9841 41,-72 44.1539,-62.1658 49.822,-52.5527 55.789,-44.2727"/>
<polygon fill="black" stroke="black" points="58.6971,-46.2327 62.0225,-36.1733 53.1497,-41.9633 58.6971,-46.2327"/>
<g id="a_edge2&#45;headlabel"><a xlink:href="dir_000131_000052.html" target="_top" xlink:title="14">
<text text-anchor="middle" x="58.7548" y="-48.313" font-family="Helvetica,sans-Serif" font-size="10.00">14</text>
</a>
</g>
</g>
<!-- dir_4ab6b4cc6a7edbff49100e9123df213f&#45;&gt;dir_2171f7ec022c5423887b07c69b2f5b48 -->
<g id="edge3" class="edge"><title>dir_4ab6b4cc6a7edbff49100e9123df213f&#45;&gt;dir_2171f7ec022c5423887b07c69b2f5b48</title>
<path fill="none" stroke="black" d="M72.0843,-71.6966C71.2886,-63.9827 71.0621,-54.7125 71.4047,-46.1124"/>
<polygon fill="black" stroke="black" points="74.8984,-46.3243 72.105,-36.1043 67.9154,-45.8356 74.8984,-46.3243"/>
<g id="a_edge3&#45;headlabel"><a xlink:href="dir_000009_000052.html" target="_top" xlink:title="5">
<text text-anchor="middle" x="77.4799" y="-47.6083" font-family="Helvetica,sans-Serif" font-size="10.00">5</text>
</a>
</g>
</g>
<!-- dir_a5de047958dd458e809773c6ffaa8478&#45;&gt;dir_677b030cc750909e4cd27413873678d8 -->
<g id="edge8" class="edge"><title>dir_a5de047958dd458e809773c6ffaa8478&#45;&gt;dir_677b030cc750909e4cd27413873678d8</title>
<path fill="none" stroke="black" d="M85.1685,-215.697C77.9753,-207.305 69.2033,-197.07 61.3097,-187.861"/>
<polygon fill="black" stroke="black" points="63.8262,-185.419 54.6609,-180.104 58.5114,-189.975 63.8262,-185.419"/>
<g id="a_edge8&#45;headlabel"><a xlink:href="dir_000407_000131.html" target="_top" xlink:title="43">
<text text-anchor="middle" x="68.3213" y="-183.801" font-family="Helvetica,sans-Serif" font-size="10.00">43</text>
</a>
</g>
</g>
<!-- dir_a5de047958dd458e809773c6ffaa8478&#45;&gt;dir_4ab6b4cc6a7edbff49100e9123df213f -->
<g id="edge9" class="edge"><title>dir_a5de047958dd458e809773c6ffaa8478&#45;&gt;dir_4ab6b4cc6a7edbff49100e9123df213f</title>
<path fill="none" stroke="black" d="M97.3463,-215.871C93.5968,-191.67 86.7087,-147.211 82.244,-118.393"/>
<polygon fill="black" stroke="black" points="85.653,-117.535 80.6631,-108.189 78.7355,-118.607 85.653,-117.535"/>
<g id="a_edge9&#45;headlabel"><a xlink:href="dir_000407_000009.html" target="_top" xlink:title="2">
<text text-anchor="middle" x="89.009" y="-118.153" font-family="Helvetica,sans-Serif" font-size="10.00">2</text>
</a>
</g>
</g>
<!-- dir_a5de047958dd458e809773c6ffaa8478&#45;&gt;dir_2171f7ec022c5423887b07c69b2f5b48 -->
<g id="edge10" class="edge"><title>dir_a5de047958dd458e809773c6ffaa8478&#45;&gt;dir_2171f7ec022c5423887b07c69b2f5b48</title>
<path fill="none" stroke="black" d="M105.965,-215.612C115.323,-185.574 130.835,-122.345 115,-72 111.901,-62.1483 106.249,-52.5302 100.279,-44.2511"/>
<polygon fill="black" stroke="black" points="102.914,-41.9371 94.0369,-36.1544 97.3707,-46.2111 102.914,-41.9371"/>
<g id="a_edge10&#45;headlabel"><a xlink:href="dir_000407_000052.html" target="_top" xlink:title="37">
<text text-anchor="middle" x="107.358" y="-40.5503" font-family="Helvetica,sans-Serif" font-size="10.00">37</text>
</a>
</g>
</g>
<!-- dir_2171f7ec022c5423887b07c69b2f5b48&#45;&gt;dir_4ab6b4cc6a7edbff49100e9123df213f -->
<g id="edge11" class="edge"><title>dir_2171f7ec022c5423887b07c69b2f5b48&#45;&gt;dir_4ab6b4cc6a7edbff49100e9123df213f</title>
<path fill="none" stroke="black" d="M83.895,-36.1043C84.7005,-43.7913 84.9369,-53.0537 84.604,-61.6651"/>
<polygon fill="black" stroke="black" points="81.1085,-61.4805 83.9157,-71.6966 88.0921,-61.9597 81.1085,-61.4805"/>
<g id="a_edge11&#45;headlabel"><a xlink:href="dir_000052_000009.html" target="_top" xlink:title="28">
<text text-anchor="middle" x="78.5219" y="-55.2" font-family="Helvetica,sans-Serif" font-size="10.00">28</text>
</a>
</g>
</g>
</g>
</svg>
