<?xml version="1.0" encoding="UTF-8" standalone="no"?>
<!DOCTYPE svg PUBLIC "-//W3C//DTD SVG 1.1//EN"
 "http://www.w3.org/Graphics/SVG/1.1/DTD/svg11.dtd">
<!-- Generated by graphviz version 2.38.0 (20140413.2041)
 -->
<!-- Title: /home/travis/build/AliceO2Group/AliceO2/Detectors/EMCAL/reconstruction/include Pages: 1 -->
<svg width="246pt" height="231pt"
 viewBox="0.00 0.00 246.00 231.00" xmlns="http://www.w3.org/2000/svg" xmlns:xlink="http://www.w3.org/1999/xlink">
<g id="graph0" class="graph" transform="scale(1 1) rotate(0) translate(4 227)">
<title>/home/travis/build/AliceO2Group/AliceO2/Detectors/EMCAL/reconstruction/include</title>
<g id="clust1" class="cluster"><title>clusterdir_43247e9473992ee8ffdfc874c5267163</title>
<g id="a_clust1"><a xlink:href="dir_43247e9473992ee8ffdfc874c5267163.html" target="_top" xlink:title="reconstruction">
<polygon fill="#ddddee" stroke="black" points="8,-128 8,-215 230,-215 230,-128 8,-128"/>
<text text-anchor="middle" x="119" y="-203" font-family="Helvetica,sans-Serif" font-size="10.00">reconstruction</text>
</a>
</g>
</g>
<g id="clust2" class="cluster"><title>clusterdir_14c8cfaaee0dfb1e837e70bcf15bda98</title>
<g id="a_clust2"><a xlink:href="dir_14c8cfaaee0dfb1e837e70bcf15bda98.html" target="_top">
<polygon fill="#eeeeff" stroke="black" points="16,-136 16,-188 222,-188 222,-136 16,-136"/>
</a>
</g>
</g>
<!-- dir_14c8cfaaee0dfb1e837e70bcf15bda98 -->
<g id="node1" class="node"><title>dir_14c8cfaaee0dfb1e837e70bcf15bda98</title>
<text text-anchor="middle" x="187" y="-159.5" font-family="Helvetica,sans-Serif" font-size="10.00">include</text>
</g>
<!-- dir_e6ac6fa9a112a563cf28c28f50c7f7d8 -->
<g id="node2" class="node"><title>dir_e6ac6fa9a112a563cf28c28f50c7f7d8</title>
<g id="a_node2"><a xlink:href="dir_e6ac6fa9a112a563cf28c28f50c7f7d8.html" target="_top" xlink:title="EMCALReconstruction">
<polygon fill="white" stroke="black" points="141.5,-180 24.5,-180 24.5,-144 141.5,-144 141.5,-180"/>
<text text-anchor="middle" x="83" y="-159.5" font-family="Helvetica,sans-Serif" font-size="10.00">EMCALReconstruction</text>
</a>
</g>
</g>
<!-- dir_478733f24fb8878a4cdf7773310adedd -->
<g id="node3" class="node"><title>dir_478733f24fb8878a4cdf7773310adedd</title>
<g id="a_node3"><a xlink:href="dir_478733f24fb8878a4cdf7773310adedd.html" target="_top" xlink:title="base">
<polygon fill="none" stroke="red" points="83,-108 29,-108 29,-72 83,-72 83,-108"/>
<text text-anchor="middle" x="56" y="-87.5" font-family="Helvetica,sans-Serif" font-size="10.00">base</text>
</a>
</g>
</g>
<!-- dir_e6ac6fa9a112a563cf28c28f50c7f7d8&#45;&gt;dir_478733f24fb8878a4cdf7773310adedd -->
<g id="edge1" class="edge"><title>dir_e6ac6fa9a112a563cf28c28f50c7f7d8&#45;&gt;dir_478733f24fb8878a4cdf7773310adedd</title>
<path fill="none" stroke="black" d="M76.3258,-143.697C73.2851,-135.813 69.6173,-126.304 66.2393,-117.546"/>
<polygon fill="black" stroke="black" points="69.4617,-116.175 62.5974,-108.104 62.9307,-118.694 69.4617,-116.175"/>
<g id="a_edge1&#45;headlabel"><a xlink:href="dir_000218_000165.html" target="_top" xlink:title="2">
<text text-anchor="middle" x="73.4043" y="-116.007" font-family="Helvetica,sans-Serif" font-size="10.00">2</text>
</a>
</g>
</g>
<!-- dir_2171f7ec022c5423887b07c69b2f5b48 -->
<g id="node4" class="node"><title>dir_2171f7ec022c5423887b07c69b2f5b48</title>
<g id="a_node4"><a xlink:href="dir_2171f7ec022c5423887b07c69b2f5b48.html" target="_top" xlink:title="DataFormats">
<polygon fill="none" stroke="red" points="120,-36 46,-36 46,-0 120,-0 120,-36"/>
<text text-anchor="middle" x="83" y="-15.5" font-family="Helvetica,sans-Serif" font-size="10.00">DataFormats</text>
</a>
</g>
</g>
<!-- dir_e6ac6fa9a112a563cf28c28f50c7f7d8&#45;&gt;dir_2171f7ec022c5423887b07c69b2f5b48 -->
<g id="edge2" class="edge"><title>dir_e6ac6fa9a112a563cf28c28f50c7f7d8&#45;&gt;dir_2171f7ec022c5423887b07c69b2f5b48</title>
<path fill="none" stroke="black" d="M86.6538,-143.908C88.6758,-133.569 90.9808,-120.09 92,-108 93.3441,-92.0566 93.3441,-87.9434 92,-72 91.2834,-63.4991 89.9311,-54.3119 88.4884,-46.0122"/>
<polygon fill="black" stroke="black" points="91.9142,-45.2892 86.6538,-36.0925 85.0309,-46.5623 91.9142,-45.2892"/>
<g id="a_edge2&#45;headlabel"><a xlink:href="dir_000218_000052.html" target="_top" xlink:title="12">
<text text-anchor="middle" x="95.3597" y="-45.8075" font-family="Helvetica,sans-Serif" font-size="10.00">12</text>
</a>
</g>
</g>
<!-- dir_478733f24fb8878a4cdf7773310adedd&#45;&gt;dir_2171f7ec022c5423887b07c69b2f5b48 -->
<g id="edge3" class="edge"><title>dir_478733f24fb8878a4cdf7773310adedd&#45;&gt;dir_2171f7ec022c5423887b07c69b2f5b48</title>
<path fill="none" stroke="black" d="M62.6742,-71.6966C65.7149,-63.8132 69.3827,-54.3042 72.7607,-45.5464"/>
<polygon fill="black" stroke="black" points="76.0693,-46.6939 76.4026,-36.1043 69.5383,-44.1748 76.0693,-46.6939"/>
<g id="a_edge3&#45;headlabel"><a xlink:href="dir_000165_000052.html" target="_top" xlink:title="4">
<text text-anchor="middle" x="77.4248" y="-48.5695" font-family="Helvetica,sans-Serif" font-size="10.00">4</text>
</a>
</g>
</g>
</g>
</svg>
