<?xml version="1.0" encoding="UTF-8" standalone="no"?>
<!DOCTYPE svg PUBLIC "-//W3C//DTD SVG 1.1//EN"
 "http://www.w3.org/Graphics/SVG/1.1/DTD/svg11.dtd">
<!-- Generated by graphviz version 2.38.0 (20140413.2041)
 -->
<!-- Title: /home/travis/build/AliceO2Group/AliceO2/Detectors/EMCAL Pages: 1 -->
<svg width="518pt" height="519pt"
 viewBox="0.00 0.00 518.23 519.00" xmlns="http://www.w3.org/2000/svg" xmlns:xlink="http://www.w3.org/1999/xlink">
<g id="graph0" class="graph" transform="scale(1 1) rotate(0) translate(4 515)">
<title>/home/travis/build/AliceO2Group/AliceO2/Detectors/EMCAL</title>
<g id="clust1" class="cluster"><title>clusterdir_051dca18e802f8e9474f2e30d29c04e0</title>
<g id="a_clust1"><a xlink:href="dir_051dca18e802f8e9474f2e30d29c04e0.html" target="_top" xlink:title="Detectors">
<polygon fill="#ddddee" stroke="black" points="50,-272 50,-503 332,-503 332,-272 50,-272"/>
<text text-anchor="middle" x="191" y="-491" font-family="Helvetica,sans-Serif" font-size="10.00">Detectors</text>
</a>
</g>
</g>
<g id="clust2" class="cluster"><title>clusterdir_088378b58cb1ba39db48039cbd66d10f</title>
<g id="a_clust2"><a xlink:href="dir_088378b58cb1ba39db48039cbd66d10f.html" target="_top">
<polygon fill="#eeeeff" stroke="black" points="58,-280 58,-476 324,-476 324,-280 58,-280"/>
</a>
</g>
</g>
<!-- dir_088378b58cb1ba39db48039cbd66d10f -->
<g id="node1" class="node"><title>dir_088378b58cb1ba39db48039cbd66d10f</title>
<text text-anchor="middle" x="228" y="-447.5" font-family="Helvetica,sans-Serif" font-size="10.00">EMCAL</text>
</g>
<!-- dir_478733f24fb8878a4cdf7773310adedd -->
<g id="node2" class="node"><title>dir_478733f24fb8878a4cdf7773310adedd</title>
<g id="a_node2"><a xlink:href="dir_478733f24fb8878a4cdf7773310adedd.html" target="_top" xlink:title="base">
<polygon fill="white" stroke="red" points="268,-324 214,-324 214,-288 268,-288 268,-324"/>
<text text-anchor="middle" x="241" y="-303.5" font-family="Helvetica,sans-Serif" font-size="10.00">base</text>
</a>
</g>
</g>
<!-- dir_4ab6b4cc6a7edbff49100e9123df213f -->
<g id="node7" class="node"><title>dir_4ab6b4cc6a7edbff49100e9123df213f</title>
<g id="a_node7"><a xlink:href="dir_4ab6b4cc6a7edbff49100e9123df213f.html" target="_top" xlink:title="Common">
<polygon fill="none" stroke="red" points="432,-252 376,-252 376,-216 432,-216 432,-252"/>
<text text-anchor="middle" x="404" y="-231.5" font-family="Helvetica,sans-Serif" font-size="10.00">Common</text>
</a>
</g>
</g>
<!-- dir_478733f24fb8878a4cdf7773310adedd&#45;&gt;dir_4ab6b4cc6a7edbff49100e9123df213f -->
<g id="edge13" class="edge"><title>dir_478733f24fb8878a4cdf7773310adedd&#45;&gt;dir_4ab6b4cc6a7edbff49100e9123df213f</title>
<path fill="none" stroke="black" d="M268.283,-293.284C295.188,-281.729 336.52,-263.979 366.504,-251.103"/>
<polygon fill="black" stroke="black" points="368,-254.269 375.807,-247.107 365.238,-247.837 368,-254.269"/>
<g id="a_edge13&#45;headlabel"><a xlink:href="dir_000165_000009.html" target="_top" xlink:title="2">
<text text-anchor="middle" x="365.817" y="-255.797" font-family="Helvetica,sans-Serif" font-size="10.00">2</text>
</a>
</g>
</g>
<!-- dir_2171f7ec022c5423887b07c69b2f5b48 -->
<g id="node12" class="node"><title>dir_2171f7ec022c5423887b07c69b2f5b48</title>
<g id="a_node12"><a xlink:href="dir_2171f7ec022c5423887b07c69b2f5b48.html" target="_top" xlink:title="DataFormats">
<polygon fill="none" stroke="red" points="441,-180 367,-180 367,-144 441,-144 441,-180"/>
<text text-anchor="middle" x="404" y="-159.5" font-family="Helvetica,sans-Serif" font-size="10.00">DataFormats</text>
</a>
</g>
</g>
<!-- dir_478733f24fb8878a4cdf7773310adedd&#45;&gt;dir_2171f7ec022c5423887b07c69b2f5b48 -->
<g id="edge14" class="edge"><title>dir_478733f24fb8878a4cdf7773310adedd&#45;&gt;dir_2171f7ec022c5423887b07c69b2f5b48</title>
<path fill="none" stroke="black" d="M260.662,-287.871C289.543,-262.711 343.56,-215.654 376.403,-187.042"/>
<polygon fill="black" stroke="black" points="379.028,-189.397 384.269,-180.189 374.43,-184.119 379.028,-189.397"/>
<g id="a_edge14&#45;headlabel"><a xlink:href="dir_000165_000052.html" target="_top" xlink:title="4">
<text text-anchor="middle" x="378.182" y="-191.399" font-family="Helvetica,sans-Serif" font-size="10.00">4</text>
</a>
</g>
</g>
<!-- dir_17f5b3462f0641fcb82883c36b9bb9fd -->
<g id="node3" class="node"><title>dir_17f5b3462f0641fcb82883c36b9bb9fd</title>
<g id="a_node3"><a xlink:href="dir_17f5b3462f0641fcb82883c36b9bb9fd.html" target="_top" xlink:title="calib">
<polygon fill="white" stroke="red" points="140,-396 86,-396 86,-360 140,-360 140,-396"/>
<text text-anchor="middle" x="113" y="-375.5" font-family="Helvetica,sans-Serif" font-size="10.00">calib</text>
</a>
</g>
</g>
<!-- dir_17f5b3462f0641fcb82883c36b9bb9fd&#45;&gt;dir_478733f24fb8878a4cdf7773310adedd -->
<g id="edge16" class="edge"><title>dir_17f5b3462f0641fcb82883c36b9bb9fd&#45;&gt;dir_478733f24fb8878a4cdf7773310adedd</title>
<path fill="none" stroke="black" d="M140.146,-362.155C159.067,-351.807 184.509,-337.893 205.105,-326.63"/>
<polygon fill="black" stroke="black" points="206.799,-329.693 213.894,-321.824 203.441,-323.551 206.799,-329.693"/>
<g id="a_edge16&#45;headlabel"><a xlink:href="dir_000317_000165.html" target="_top" xlink:title="3">
<text text-anchor="middle" x="205.008" y="-331.409" font-family="Helvetica,sans-Serif" font-size="10.00">3</text>
</a>
</g>
</g>
<!-- dir_6af676bf18881990e4083e191d0e63e0 -->
<g id="node8" class="node"><title>dir_6af676bf18881990e4083e191d0e63e0</title>
<g id="a_node8"><a xlink:href="dir_6af676bf18881990e4083e191d0e63e0.html" target="_top" xlink:title="CCDB">
<polygon fill="none" stroke="red" points="394,-324 340,-324 340,-288 394,-288 394,-324"/>
<text text-anchor="middle" x="367" y="-303.5" font-family="Helvetica,sans-Serif" font-size="10.00">CCDB</text>
</a>
</g>
</g>
<!-- dir_17f5b3462f0641fcb82883c36b9bb9fd&#45;&gt;dir_6af676bf18881990e4083e191d0e63e0 -->
<g id="edge15" class="edge"><title>dir_17f5b3462f0641fcb82883c36b9bb9fd&#45;&gt;dir_6af676bf18881990e4083e191d0e63e0</title>
<path fill="none" stroke="black" d="M140.236,-363.301C143.155,-362.086 146.113,-360.956 149,-360 226.034,-334.487 250.591,-348.35 328,-324 328.713,-323.776 329.431,-323.542 330.152,-323.301"/>
<polygon fill="black" stroke="black" points="331.415,-326.566 339.58,-319.814 328.987,-320.001 331.415,-326.566"/>
<g id="a_edge15&#45;headlabel"><a xlink:href="dir_000317_000004.html" target="_top" xlink:title="1">
<text text-anchor="middle" x="329.029" y="-327.976" font-family="Helvetica,sans-Serif" font-size="10.00">1</text>
</a>
</g>
</g>
<!-- dir_43247e9473992ee8ffdfc874c5267163 -->
<g id="node4" class="node"><title>dir_43247e9473992ee8ffdfc874c5267163</title>
<g id="a_node4"><a xlink:href="dir_43247e9473992ee8ffdfc874c5267163.html" target="_top" xlink:title="reconstruction">
<polygon fill="white" stroke="red" points="236,-396 158,-396 158,-360 236,-360 236,-396"/>
<text text-anchor="middle" x="197" y="-375.5" font-family="Helvetica,sans-Serif" font-size="10.00">reconstruction</text>
</a>
</g>
</g>
<!-- dir_43247e9473992ee8ffdfc874c5267163&#45;&gt;dir_478733f24fb8878a4cdf7773310adedd -->
<g id="edge2" class="edge"><title>dir_43247e9473992ee8ffdfc874c5267163&#45;&gt;dir_478733f24fb8878a4cdf7773310adedd</title>
<path fill="none" stroke="black" d="M207.876,-359.697C212.992,-351.559 219.195,-341.689 224.845,-332.701"/>
<polygon fill="black" stroke="black" points="227.89,-334.433 230.249,-324.104 221.964,-330.708 227.89,-334.433"/>
<g id="a_edge2&#45;headlabel"><a xlink:href="dir_000216_000165.html" target="_top" xlink:title="2">
<text text-anchor="middle" x="228.381" y="-336.488" font-family="Helvetica,sans-Serif" font-size="10.00">2</text>
</a>
</g>
</g>
<!-- dir_43247e9473992ee8ffdfc874c5267163&#45;&gt;dir_4ab6b4cc6a7edbff49100e9123df213f -->
<g id="edge1" class="edge"><title>dir_43247e9473992ee8ffdfc874c5267163&#45;&gt;dir_4ab6b4cc6a7edbff49100e9123df213f</title>
<path fill="none" stroke="black" d="M236.172,-362.708C239.146,-361.752 242.113,-360.837 245,-360 314.173,-339.944 357.769,-380.047 403,-324 416.82,-306.876 415.574,-281.263 411.747,-261.904"/>
<polygon fill="black" stroke="black" points="415.158,-261.12 409.506,-252.158 408.336,-262.688 415.158,-261.12"/>
<g id="a_edge1&#45;headlabel"><a xlink:href="dir_000216_000009.html" target="_top" xlink:title="2">
<text text-anchor="middle" x="418.73" y="-261.487" font-family="Helvetica,sans-Serif" font-size="10.00">2</text>
</a>
</g>
</g>
<!-- dir_43247e9473992ee8ffdfc874c5267163&#45;&gt;dir_2171f7ec022c5423887b07c69b2f5b48 -->
<g id="edge3" class="edge"><title>dir_43247e9473992ee8ffdfc874c5267163&#45;&gt;dir_2171f7ec022c5423887b07c69b2f5b48</title>
<path fill="none" stroke="black" d="M236.15,-362.632C239.13,-361.693 242.104,-360.803 245,-360 322.358,-338.547 363.631,-379.114 422,-324 457.436,-290.54 455.623,-262.492 441,-216 437.901,-206.148 432.249,-196.53 426.279,-188.251"/>
<polygon fill="black" stroke="black" points="428.914,-185.937 420.037,-180.154 423.371,-190.211 428.914,-185.937"/>
<g id="a_edge3&#45;headlabel"><a xlink:href="dir_000216_000052.html" target="_top" xlink:title="17">
<text text-anchor="middle" x="433.358" y="-184.55" font-family="Helvetica,sans-Serif" font-size="10.00">17</text>
</a>
</g>
</g>
<!-- dir_40743f2e882add17463d3ecfa83bffd4 -->
<g id="node5" class="node"><title>dir_40743f2e882add17463d3ecfa83bffd4</title>
<g id="a_node5"><a xlink:href="dir_40743f2e882add17463d3ecfa83bffd4.html" target="_top" xlink:title="simulation">
<polygon fill="white" stroke="red" points="315.5,-396 254.5,-396 254.5,-360 315.5,-360 315.5,-396"/>
<text text-anchor="middle" x="285" y="-375.5" font-family="Helvetica,sans-Serif" font-size="10.00">simulation</text>
</a>
</g>
</g>
<!-- dir_40743f2e882add17463d3ecfa83bffd4&#45;&gt;dir_478733f24fb8878a4cdf7773310adedd -->
<g id="edge6" class="edge"><title>dir_40743f2e882add17463d3ecfa83bffd4&#45;&gt;dir_478733f24fb8878a4cdf7773310adedd</title>
<path fill="none" stroke="black" d="M274.124,-359.697C269.008,-351.559 262.805,-341.689 257.155,-332.701"/>
<polygon fill="black" stroke="black" points="260.036,-330.708 251.751,-324.104 254.11,-334.433 260.036,-330.708"/>
<g id="a_edge6&#45;headlabel"><a xlink:href="dir_000175_000165.html" target="_top" xlink:title="15">
<text text-anchor="middle" x="264.353" y="-329.74" font-family="Helvetica,sans-Serif" font-size="10.00">15</text>
</a>
</g>
</g>
<!-- dir_40743f2e882add17463d3ecfa83bffd4&#45;&gt;dir_4ab6b4cc6a7edbff49100e9123df213f -->
<g id="edge4" class="edge"><title>dir_40743f2e882add17463d3ecfa83bffd4&#45;&gt;dir_4ab6b4cc6a7edbff49100e9123df213f</title>
<path fill="none" stroke="black" d="M315.741,-376.095C351.4,-373.198 408.767,-362.42 436,-324 449.365,-305.145 444.066,-293.658 436,-272 434.423,-267.767 432.121,-263.696 429.461,-259.902"/>
<polygon fill="black" stroke="black" points="432.191,-257.711 423.214,-252.084 426.723,-262.081 432.191,-257.711"/>
<g id="a_edge4&#45;headlabel"><a xlink:href="dir_000175_000009.html" target="_top" xlink:title="2">
<text text-anchor="middle" x="436.653" y="-256.247" font-family="Helvetica,sans-Serif" font-size="10.00">2</text>
</a>
</g>
</g>
<!-- dir_37c90836491b695b472bf98d1be8336b -->
<g id="node9" class="node"><title>dir_37c90836491b695b472bf98d1be8336b</title>
<g id="a_node9"><a xlink:href="dir_37c90836491b695b472bf98d1be8336b.html" target="_top" xlink:title="Base">
<polygon fill="none" stroke="red" points="495,-108 441,-108 441,-72 495,-72 495,-108"/>
<text text-anchor="middle" x="468" y="-87.5" font-family="Helvetica,sans-Serif" font-size="10.00">Base</text>
</a>
</g>
</g>
<!-- dir_40743f2e882add17463d3ecfa83bffd4&#45;&gt;dir_37c90836491b695b472bf98d1be8336b -->
<g id="edge5" class="edge"><title>dir_40743f2e882add17463d3ecfa83bffd4&#45;&gt;dir_37c90836491b695b472bf98d1be8336b</title>
<path fill="none" stroke="black" d="M315.597,-372.959C365.475,-365.721 460.97,-348.934 483,-324 534.115,-266.145 500.873,-165.414 480.499,-117.624"/>
<polygon fill="black" stroke="black" points="483.613,-116.009 476.382,-108.265 477.205,-118.827 483.613,-116.009"/>
<g id="a_edge5&#45;headlabel"><a xlink:href="dir_000175_000248.html" target="_top" xlink:title="1">
<text text-anchor="middle" x="487.659" y="-115.656" font-family="Helvetica,sans-Serif" font-size="10.00">1</text>
</a>
</g>
</g>
<!-- dir_40743f2e882add17463d3ecfa83bffd4&#45;&gt;dir_2171f7ec022c5423887b07c69b2f5b48 -->
<g id="edge7" class="edge"><title>dir_40743f2e882add17463d3ecfa83bffd4&#45;&gt;dir_2171f7ec022c5423887b07c69b2f5b48</title>
<path fill="none" stroke="black" d="M315.767,-375.903C353.576,-372.868 417.223,-362.009 454,-324 487.945,-288.918 495.732,-259.712 474,-216 467.998,-203.927 457.786,-193.869 446.991,-185.876"/>
<polygon fill="black" stroke="black" points="448.906,-182.945 438.682,-180.166 444.942,-188.714 448.906,-182.945"/>
<g id="a_edge7&#45;headlabel"><a xlink:href="dir_000175_000052.html" target="_top" xlink:title="11">
<text text-anchor="middle" x="453.477" y="-180.141" font-family="Helvetica,sans-Serif" font-size="10.00">11</text>
</a>
</g>
</g>
<!-- dir_ee205545fda14b0cface4520402ad101 -->
<g id="node6" class="node"><title>dir_ee205545fda14b0cface4520402ad101</title>
<g id="a_node6"><a xlink:href="dir_ee205545fda14b0cface4520402ad101.html" target="_top" xlink:title="workflow">
<polygon fill="white" stroke="red" points="122,-468 66,-468 66,-432 122,-432 122,-468"/>
<text text-anchor="middle" x="94" y="-447.5" font-family="Helvetica,sans-Serif" font-size="10.00">workflow</text>
</a>
</g>
</g>
<!-- dir_ee205545fda14b0cface4520402ad101&#45;&gt;dir_478733f24fb8878a4cdf7773310adedd -->
<g id="edge19" class="edge"><title>dir_ee205545fda14b0cface4520402ad101&#45;&gt;dir_478733f24fb8878a4cdf7773310adedd</title>
<path fill="none" stroke="black" d="M83.6595,-431.91C73.4862,-412.643 61.5419,-381.241 77,-360 105.808,-320.415 164.784,-309.78 203.597,-307.26"/>
<polygon fill="black" stroke="black" points="204.153,-310.736 213.968,-306.746 203.807,-303.745 204.153,-310.736"/>
<g id="a_edge19&#45;headlabel"><a xlink:href="dir_000336_000165.html" target="_top" xlink:title="1">
<text text-anchor="middle" x="200.703" y="-311.25" font-family="Helvetica,sans-Serif" font-size="10.00">1</text>
</a>
</g>
</g>
<!-- dir_ee205545fda14b0cface4520402ad101&#45;&gt;dir_43247e9473992ee8ffdfc874c5267163 -->
<g id="edge17" class="edge"><title>dir_ee205545fda14b0cface4520402ad101&#45;&gt;dir_43247e9473992ee8ffdfc874c5267163</title>
<path fill="none" stroke="black" d="M119.197,-431.876C132.414,-422.893 148.792,-411.763 163.107,-402.034"/>
<polygon fill="black" stroke="black" points="165.403,-404.705 171.707,-396.19 161.468,-398.916 165.403,-404.705"/>
<g id="a_edge17&#45;headlabel"><a xlink:href="dir_000336_000216.html" target="_top" xlink:title="1">
<text text-anchor="middle" x="164.026" y="-406.574" font-family="Helvetica,sans-Serif" font-size="10.00">1</text>
</a>
</g>
</g>
<!-- dir_8ba487e25de5ee77e05e9dce7582cb98 -->
<g id="node10" class="node"><title>dir_8ba487e25de5ee77e05e9dce7582cb98</title>
<g id="a_node10"><a xlink:href="dir_8ba487e25de5ee77e05e9dce7582cb98.html" target="_top" xlink:title="Algorithm">
<polygon fill="none" stroke="red" points="398,-36 340,-36 340,-0 398,-0 398,-36"/>
<text text-anchor="middle" x="369" y="-15.5" font-family="Helvetica,sans-Serif" font-size="10.00">Algorithm</text>
</a>
</g>
</g>
<!-- dir_ee205545fda14b0cface4520402ad101&#45;&gt;dir_8ba487e25de5ee77e05e9dce7582cb98 -->
<g id="edge18" class="edge"><title>dir_ee205545fda14b0cface4520402ad101&#45;&gt;dir_8ba487e25de5ee77e05e9dce7582cb98</title>
<path fill="none" stroke="black" d="M72.6699,-431.728C44.936,-407.179 0,-359.33 0,-307 0,-307 0,-307 0,-161 0,-90.9509 234.546,-42.3379 329.649,-25.5056"/>
<polygon fill="black" stroke="black" points="330.486,-28.9124 339.737,-23.7471 329.284,-22.0164 330.486,-28.9124"/>
<g id="a_edge18&#45;headlabel"><a xlink:href="dir_000336_000000.html" target="_top" xlink:title="2">
<text text-anchor="middle" x="327.433" y="-29.8267" font-family="Helvetica,sans-Serif" font-size="10.00">2</text>
</a>
</g>
</g>
<!-- dir_bcbb2cf9a3d3d83e5515c82071a07177 -->
<g id="node11" class="node"><title>dir_bcbb2cf9a3d3d83e5515c82071a07177</title>
<g id="a_node11"><a xlink:href="dir_bcbb2cf9a3d3d83e5515c82071a07177.html" target="_top" xlink:title="Framework">
<polygon fill="none" stroke="red" points="366.5,-108 301.5,-108 301.5,-72 366.5,-72 366.5,-108"/>
<text text-anchor="middle" x="334" y="-87.5" font-family="Helvetica,sans-Serif" font-size="10.00">Framework</text>
</a>
</g>
</g>
<!-- dir_ee205545fda14b0cface4520402ad101&#45;&gt;dir_bcbb2cf9a3d3d83e5515c82071a07177 -->
<g id="edge20" class="edge"><title>dir_ee205545fda14b0cface4520402ad101&#45;&gt;dir_bcbb2cf9a3d3d83e5515c82071a07177</title>
<path fill="none" stroke="black" d="M82.3968,-431.928C65.994,-406.09 38,-354.966 38,-307 38,-307 38,-307 38,-233 38,-121.906 209.592,-97.6644 291.482,-92.4207"/>
<polygon fill="black" stroke="black" points="291.693,-95.9144 301.476,-91.8469 291.292,-88.9259 291.693,-95.9144"/>
<g id="a_edge20&#45;headlabel"><a xlink:href="dir_000336_000028.html" target="_top" xlink:title="22">
<text text-anchor="middle" x="288.267" y="-96.455" font-family="Helvetica,sans-Serif" font-size="10.00">22</text>
</a>
</g>
</g>
<!-- dir_ee205545fda14b0cface4520402ad101&#45;&gt;dir_2171f7ec022c5423887b07c69b2f5b48 -->
<g id="edge21" class="edge"><title>dir_ee205545fda14b0cface4520402ad101&#45;&gt;dir_2171f7ec022c5423887b07c69b2f5b48</title>
<path fill="none" stroke="black" d="M122.261,-444.225C204.102,-429.774 438.306,-383.804 483,-324 511.857,-285.387 516.82,-257.909 493,-216 483.628,-199.51 466.872,-187.612 450.407,-179.32"/>
<polygon fill="black" stroke="black" points="451.879,-176.145 441.338,-175.079 448.913,-182.486 451.879,-176.145"/>
<g id="a_edge21&#45;headlabel"><a xlink:href="dir_000336_000052.html" target="_top" xlink:title="18">
<text text-anchor="middle" x="456.338" y="-172.596" font-family="Helvetica,sans-Serif" font-size="10.00">18</text>
</a>
</g>
</g>
<!-- dir_4ab6b4cc6a7edbff49100e9123df213f&#45;&gt;dir_2171f7ec022c5423887b07c69b2f5b48 -->
<g id="edge8" class="edge"><title>dir_4ab6b4cc6a7edbff49100e9123df213f&#45;&gt;dir_2171f7ec022c5423887b07c69b2f5b48</title>
<path fill="none" stroke="black" d="M398.084,-215.697C397.289,-207.983 397.062,-198.712 397.405,-190.112"/>
<polygon fill="black" stroke="black" points="400.898,-190.324 398.105,-180.104 393.915,-189.836 400.898,-190.324"/>
<g id="a_edge8&#45;headlabel"><a xlink:href="dir_000009_000052.html" target="_top" xlink:title="5">
<text text-anchor="middle" x="403.48" y="-191.608" font-family="Helvetica,sans-Serif" font-size="10.00">5</text>
</a>
</g>
</g>
<!-- dir_6af676bf18881990e4083e191d0e63e0&#45;&gt;dir_4ab6b4cc6a7edbff49100e9123df213f -->
<g id="edge9" class="edge"><title>dir_6af676bf18881990e4083e191d0e63e0&#45;&gt;dir_4ab6b4cc6a7edbff49100e9123df213f</title>
<path fill="none" stroke="black" d="M376.146,-287.697C380.403,-279.644 385.556,-269.894 390.266,-260.982"/>
<polygon fill="black" stroke="black" points="393.38,-262.581 394.959,-252.104 387.192,-259.31 393.38,-262.581"/>
<g id="a_edge9&#45;headlabel"><a xlink:href="dir_000004_000009.html" target="_top" xlink:title="3">
<text text-anchor="middle" x="394.211" y="-264.586" font-family="Helvetica,sans-Serif" font-size="10.00">3</text>
</a>
</g>
</g>
<!-- dir_37c90836491b695b472bf98d1be8336b&#45;&gt;dir_4ab6b4cc6a7edbff49100e9123df213f -->
<g id="edge10" class="edge"><title>dir_37c90836491b695b472bf98d1be8336b&#45;&gt;dir_4ab6b4cc6a7edbff49100e9123df213f</title>
<path fill="none" stroke="black" d="M467.118,-108.233C465.59,-126.801 461.412,-156.802 450,-180 445.028,-190.107 437.647,-199.827 430.247,-208.12"/>
<polygon fill="black" stroke="black" points="427.516,-205.915 423.223,-215.601 432.619,-210.707 427.516,-205.915"/>
<g id="a_edge10&#45;headlabel"><a xlink:href="dir_000248_000009.html" target="_top" xlink:title="16">
<text text-anchor="middle" x="427.907" y="-198.851" font-family="Helvetica,sans-Serif" font-size="10.00">16</text>
</a>
</g>
</g>
<!-- dir_37c90836491b695b472bf98d1be8336b&#45;&gt;dir_2171f7ec022c5423887b07c69b2f5b48 -->
<g id="edge11" class="edge"><title>dir_37c90836491b695b472bf98d1be8336b&#45;&gt;dir_2171f7ec022c5423887b07c69b2f5b48</title>
<path fill="none" stroke="black" d="M458.257,-108.104C451.35,-116.636 441.968,-127.108 432.894,-136.478"/>
<polygon fill="black" stroke="black" points="430.292,-134.131 425.736,-143.697 435.262,-139.06 430.292,-134.131"/>
<g id="a_edge11&#45;headlabel"><a xlink:href="dir_000248_000052.html" target="_top" xlink:title="7">
<text text-anchor="middle" x="430.807" y="-127.08" font-family="Helvetica,sans-Serif" font-size="10.00">7</text>
</a>
</g>
</g>
<!-- dir_8ba487e25de5ee77e05e9dce7582cb98&#45;&gt;dir_2171f7ec022c5423887b07c69b2f5b48 -->
<g id="edge12" class="edge"><title>dir_8ba487e25de5ee77e05e9dce7582cb98&#45;&gt;dir_2171f7ec022c5423887b07c69b2f5b48</title>
<path fill="none" stroke="black" d="M377.828,-36.1893C386.356,-60.4244 397.603,-104.888 402.72,-133.679"/>
<polygon fill="black" stroke="black" points="399.316,-134.556 404.363,-143.871 406.227,-133.442 399.316,-134.556"/>
<g id="a_edge12&#45;headlabel"><a xlink:href="dir_000000_000052.html" target="_top" xlink:title="8">
<text text-anchor="middle" x="395.941" y="-128.959" font-family="Helvetica,sans-Serif" font-size="10.00">8</text>
</a>
</g>
</g>
<!-- dir_bcbb2cf9a3d3d83e5515c82071a07177&#45;&gt;dir_4ab6b4cc6a7edbff49100e9123df213f -->
<g id="edge22" class="edge"><title>dir_bcbb2cf9a3d3d83e5515c82071a07177&#45;&gt;dir_4ab6b4cc6a7edbff49100e9123df213f</title>
<path fill="none" stroke="black" d="M336.293,-108.245C339.287,-126.822 345.669,-156.832 358,-180 363.435,-190.211 371.165,-200.137 378.74,-208.586"/>
<polygon fill="black" stroke="black" points="376.194,-210.988 385.584,-215.896 381.304,-206.203 376.194,-210.988"/>
<g id="a_edge22&#45;headlabel"><a xlink:href="dir_000028_000009.html" target="_top" xlink:title="8">
<text text-anchor="middle" x="371.665" y="-207.804" font-family="Helvetica,sans-Serif" font-size="10.00">8</text>
</a>
</g>
</g>
<!-- dir_bcbb2cf9a3d3d83e5515c82071a07177&#45;&gt;dir_8ba487e25de5ee77e05e9dce7582cb98 -->
<g id="edge23" class="edge"><title>dir_bcbb2cf9a3d3d83e5515c82071a07177&#45;&gt;dir_8ba487e25de5ee77e05e9dce7582cb98</title>
<path fill="none" stroke="black" d="M342.652,-71.6966C346.636,-63.7284 351.45,-54.0995 355.868,-45.2641"/>
<polygon fill="black" stroke="black" points="359.106,-46.6139 360.448,-36.1043 352.845,-43.4833 359.106,-46.6139"/>
<g id="a_edge23&#45;headlabel"><a xlink:href="dir_000028_000000.html" target="_top" xlink:title="1">
<text text-anchor="middle" x="360.038" y="-48.5987" font-family="Helvetica,sans-Serif" font-size="10.00">1</text>
</a>
</g>
</g>
<!-- dir_bcbb2cf9a3d3d83e5515c82071a07177&#45;&gt;dir_2171f7ec022c5423887b07c69b2f5b48 -->
<g id="edge24" class="edge"><title>dir_bcbb2cf9a3d3d83e5515c82071a07177&#45;&gt;dir_2171f7ec022c5423887b07c69b2f5b48</title>
<path fill="none" stroke="black" d="M356.999,-108.104C366.332,-116.552 376.879,-126.901 385.687,-136.199"/>
<polygon fill="black" stroke="black" points="383.256,-138.725 392.612,-143.697 388.399,-133.976 383.256,-138.725"/>
<g id="a_edge24&#45;headlabel"><a xlink:href="dir_000028_000052.html" target="_top" xlink:title="67">
<text text-anchor="middle" x="378.732" y="-135.511" font-family="Helvetica,sans-Serif" font-size="10.00">67</text>
</a>
</g>
</g>
<!-- dir_2171f7ec022c5423887b07c69b2f5b48&#45;&gt;dir_4ab6b4cc6a7edbff49100e9123df213f -->
<g id="edge25" class="edge"><title>dir_2171f7ec022c5423887b07c69b2f5b48&#45;&gt;dir_4ab6b4cc6a7edbff49100e9123df213f</title>
<path fill="none" stroke="black" d="M409.895,-180.104C410.701,-187.791 410.937,-197.054 410.604,-205.665"/>
<polygon fill="black" stroke="black" points="407.109,-205.48 409.916,-215.697 414.092,-205.96 407.109,-205.48"/>
<g id="a_edge25&#45;headlabel"><a xlink:href="dir_000052_000009.html" target="_top" xlink:title="28">
<text text-anchor="middle" x="404.522" y="-199.2" font-family="Helvetica,sans-Serif" font-size="10.00">28</text>
</a>
</g>
</g>
<!-- dir_2171f7ec022c5423887b07c69b2f5b48&#45;&gt;dir_37c90836491b695b472bf98d1be8336b -->
<g id="edge26" class="edge"><title>dir_2171f7ec022c5423887b07c69b2f5b48&#45;&gt;dir_37c90836491b695b472bf98d1be8336b</title>
<path fill="none" stroke="black" d="M413.905,-143.697C420.849,-135.135 430.248,-124.656 439.317,-115.304"/>
<polygon fill="black" stroke="black" points="441.904,-117.666 446.467,-108.104 436.937,-112.734 441.904,-117.666"/>
<g id="a_edge26&#45;headlabel"><a xlink:href="dir_000052_000248.html" target="_top" xlink:title="1">
<text text-anchor="middle" x="441.386" y="-119.718" font-family="Helvetica,sans-Serif" font-size="10.00">1</text>
</a>
</g>
</g>
<!-- dir_2171f7ec022c5423887b07c69b2f5b48&#45;&gt;dir_8ba487e25de5ee77e05e9dce7582cb98 -->
<g id="edge27" class="edge"><title>dir_2171f7ec022c5423887b07c69b2f5b48&#45;&gt;dir_8ba487e25de5ee77e05e9dce7582cb98</title>
<path fill="none" stroke="black" d="M395.194,-143.871C386.67,-119.67 375.42,-75.2108 370.293,-46.3932"/>
<polygon fill="black" stroke="black" points="373.695,-45.5038 368.646,-36.1893 366.784,-46.6192 373.695,-45.5038"/>
<g id="a_edge27&#45;headlabel"><a xlink:href="dir_000052_000000.html" target="_top" xlink:title="1">
<text text-anchor="middle" x="377.07" y="-46.1001" font-family="Helvetica,sans-Serif" font-size="10.00">1</text>
</a>
</g>
</g>
<!-- dir_2171f7ec022c5423887b07c69b2f5b48&#45;&gt;dir_bcbb2cf9a3d3d83e5515c82071a07177 -->
<g id="edge28" class="edge"><title>dir_2171f7ec022c5423887b07c69b2f5b48&#45;&gt;dir_bcbb2cf9a3d3d83e5515c82071a07177</title>
<path fill="none" stroke="black" d="M380.781,-143.697C371.43,-135.22 360.886,-124.864 352.106,-115.583"/>
<polygon fill="black" stroke="black" points="354.562,-113.083 345.209,-108.104 349.416,-117.828 354.562,-113.083"/>
<g id="a_edge28&#45;headlabel"><a xlink:href="dir_000052_000028.html" target="_top" xlink:title="6">
<text text-anchor="middle" x="359.086" y="-111.301" font-family="Helvetica,sans-Serif" font-size="10.00">6</text>
</a>
</g>
</g>
</g>
</svg>
