<?xml version="1.0" encoding="UTF-8" standalone="no"?>
<!DOCTYPE svg PUBLIC "-//W3C//DTD SVG 1.1//EN"
 "http://www.w3.org/Graphics/SVG/1.1/DTD/svg11.dtd">
<!-- Generated by graphviz version 2.38.0 (20140413.2041)
 -->
<!-- Title: /home/travis/build/AliceO2Group/AliceO2/Detectors/EMCAL/workflow Pages: 1 -->
<svg width="281pt" height="519pt"
 viewBox="0.00 0.00 281.47 519.00" xmlns="http://www.w3.org/2000/svg" xmlns:xlink="http://www.w3.org/1999/xlink">
<g id="graph0" class="graph" transform="scale(1 1) rotate(0) translate(4 515)">
<title>/home/travis/build/AliceO2Group/AliceO2/Detectors/EMCAL/workflow</title>
<g id="clust1" class="cluster"><title>clusterdir_088378b58cb1ba39db48039cbd66d10f</title>
<g id="a_clust1"><a xlink:href="dir_088378b58cb1ba39db48039cbd66d10f.html" target="_top" xlink:title="EMCAL">
<polygon fill="#ddddee" stroke="black" points="33,-344 33,-503 193,-503 193,-344 33,-344"/>
<text text-anchor="middle" x="113" y="-491" font-family="Helvetica,sans-Serif" font-size="10.00">EMCAL</text>
</a>
</g>
</g>
<g id="clust2" class="cluster"><title>clusterdir_ee205545fda14b0cface4520402ad101</title>
<g id="a_clust2"><a xlink:href="dir_ee205545fda14b0cface4520402ad101.html" target="_top">
<polygon fill="#eeeeff" stroke="black" points="41,-352 41,-476 185,-476 185,-352 41,-352"/>
</a>
</g>
</g>
<!-- dir_ee205545fda14b0cface4520402ad101 -->
<g id="node1" class="node"><title>dir_ee205545fda14b0cface4520402ad101</title>
<text text-anchor="middle" x="149" y="-447.5" font-family="Helvetica,sans-Serif" font-size="10.00">workflow</text>
</g>
<!-- dir_6dc85dba809f06ca1f8457b707bb34c8 -->
<g id="node2" class="node"><title>dir_6dc85dba809f06ca1f8457b707bb34c8</title>
<g id="a_node2"><a xlink:href="dir_6dc85dba809f06ca1f8457b707bb34c8.html" target="_top" xlink:title="include">
<polygon fill="white" stroke="red" points="177,-396 123,-396 123,-360 177,-360 177,-396"/>
<text text-anchor="middle" x="150" y="-375.5" font-family="Helvetica,sans-Serif" font-size="10.00">include</text>
</a>
</g>
</g>
<!-- dir_43247e9473992ee8ffdfc874c5267163 -->
<g id="node4" class="node"><title>dir_43247e9473992ee8ffdfc874c5267163</title>
<g id="a_node4"><a xlink:href="dir_43247e9473992ee8ffdfc874c5267163.html" target="_top" xlink:title="reconstruction">
<polygon fill="none" stroke="red" points="258,-324 180,-324 180,-288 258,-288 258,-324"/>
<text text-anchor="middle" x="219" y="-303.5" font-family="Helvetica,sans-Serif" font-size="10.00">reconstruction</text>
</a>
</g>
</g>
<!-- dir_6dc85dba809f06ca1f8457b707bb34c8&#45;&gt;dir_43247e9473992ee8ffdfc874c5267163 -->
<g id="edge11" class="edge"><title>dir_6dc85dba809f06ca1f8457b707bb34c8&#45;&gt;dir_43247e9473992ee8ffdfc874c5267163</title>
<path fill="none" stroke="black" d="M167.056,-359.697C175.495,-351.135 185.825,-340.656 195.043,-331.304"/>
<polygon fill="black" stroke="black" points="197.613,-333.683 202.14,-324.104 192.627,-328.769 197.613,-333.683"/>
<g id="a_edge11&#45;headlabel"><a xlink:href="dir_000337_000216.html" target="_top" xlink:title="1">
<text text-anchor="middle" x="197.111" y="-335.736" font-family="Helvetica,sans-Serif" font-size="10.00">1</text>
</a>
</g>
</g>
<!-- dir_478733f24fb8878a4cdf7773310adedd -->
<g id="node6" class="node"><title>dir_478733f24fb8878a4cdf7773310adedd</title>
<g id="a_node6"><a xlink:href="dir_478733f24fb8878a4cdf7773310adedd.html" target="_top" xlink:title="base">
<polygon fill="none" stroke="red" points="272,-252 218,-252 218,-216 272,-216 272,-252"/>
<text text-anchor="middle" x="245" y="-231.5" font-family="Helvetica,sans-Serif" font-size="10.00">base</text>
</a>
</g>
</g>
<!-- dir_6dc85dba809f06ca1f8457b707bb34c8&#45;&gt;dir_478733f24fb8878a4cdf7773310adedd -->
<g id="edge12" class="edge"><title>dir_6dc85dba809f06ca1f8457b707bb34c8&#45;&gt;dir_478733f24fb8878a4cdf7773310adedd</title>
<path fill="none" stroke="black" d="M177.048,-373.243C204.997,-367.762 247.242,-354.642 267,-324 279.249,-305.004 271.139,-279.697 261.488,-260.925"/>
<polygon fill="black" stroke="black" points="264.466,-259.079 256.555,-252.032 258.345,-262.475 264.466,-259.079"/>
<g id="a_edge12&#45;headlabel"><a xlink:href="dir_000337_000165.html" target="_top" xlink:title="1">
<text text-anchor="middle" x="268.693" y="-258.345" font-family="Helvetica,sans-Serif" font-size="10.00">1</text>
</a>
</g>
</g>
<!-- dir_bcbb2cf9a3d3d83e5515c82071a07177 -->
<g id="node7" class="node"><title>dir_bcbb2cf9a3d3d83e5515c82071a07177</title>
<g id="a_node7"><a xlink:href="dir_bcbb2cf9a3d3d83e5515c82071a07177.html" target="_top" xlink:title="Framework">
<polygon fill="none" stroke="red" points="141.5,-108 76.5,-108 76.5,-72 141.5,-72 141.5,-108"/>
<text text-anchor="middle" x="109" y="-87.5" font-family="Helvetica,sans-Serif" font-size="10.00">Framework</text>
</a>
</g>
</g>
<!-- dir_6dc85dba809f06ca1f8457b707bb34c8&#45;&gt;dir_bcbb2cf9a3d3d83e5515c82071a07177 -->
<g id="edge13" class="edge"><title>dir_6dc85dba809f06ca1f8457b707bb34c8&#45;&gt;dir_bcbb2cf9a3d3d83e5515c82071a07177</title>
<path fill="none" stroke="black" d="M147.558,-359.966C140.709,-312.192 121.275,-176.623 112.909,-118.266"/>
<polygon fill="black" stroke="black" points="116.365,-117.709 111.481,-108.306 109.436,-118.702 116.365,-117.709"/>
<g id="a_edge13&#45;headlabel"><a xlink:href="dir_000337_000028.html" target="_top" xlink:title="9">
<text text-anchor="middle" x="119.685" y="-118.364" font-family="Helvetica,sans-Serif" font-size="10.00">9</text>
</a>
</g>
</g>
<!-- dir_2171f7ec022c5423887b07c69b2f5b48 -->
<g id="node8" class="node"><title>dir_2171f7ec022c5423887b07c69b2f5b48</title>
<g id="a_node8"><a xlink:href="dir_2171f7ec022c5423887b07c69b2f5b48.html" target="_top" xlink:title="DataFormats">
<polygon fill="none" stroke="red" points="216,-180 142,-180 142,-144 216,-144 216,-180"/>
<text text-anchor="middle" x="179" y="-159.5" font-family="Helvetica,sans-Serif" font-size="10.00">DataFormats</text>
</a>
</g>
</g>
<!-- dir_6dc85dba809f06ca1f8457b707bb34c8&#45;&gt;dir_2171f7ec022c5423887b07c69b2f5b48 -->
<g id="edge14" class="edge"><title>dir_6dc85dba809f06ca1f8457b707bb34c8&#45;&gt;dir_2171f7ec022c5423887b07c69b2f5b48</title>
<path fill="none" stroke="black" d="M152.324,-359.849C157.341,-322.832 169.218,-235.181 175.289,-190.386"/>
<polygon fill="black" stroke="black" points="178.79,-190.612 176.665,-180.232 171.854,-189.672 178.79,-190.612"/>
<g id="a_edge14&#45;headlabel"><a xlink:href="dir_000337_000052.html" target="_top" xlink:title="2">
<text text-anchor="middle" x="181.121" y="-192.055" font-family="Helvetica,sans-Serif" font-size="10.00">2</text>
</a>
</g>
</g>
<!-- dir_fe570b66ee9607113976552ce149f8ae -->
<g id="node3" class="node"><title>dir_fe570b66ee9607113976552ce149f8ae</title>
<g id="a_node3"><a xlink:href="dir_fe570b66ee9607113976552ce149f8ae.html" target="_top" xlink:title="src">
<polygon fill="white" stroke="black" points="103,-468 49,-468 49,-432 103,-432 103,-468"/>
<text text-anchor="middle" x="76" y="-447.5" font-family="Helvetica,sans-Serif" font-size="10.00">src</text>
</a>
</g>
</g>
<!-- dir_fe570b66ee9607113976552ce149f8ae&#45;&gt;dir_6dc85dba809f06ca1f8457b707bb34c8 -->
<g id="edge5" class="edge"><title>dir_fe570b66ee9607113976552ce149f8ae&#45;&gt;dir_6dc85dba809f06ca1f8457b707bb34c8</title>
<path fill="none" stroke="black" d="M94.2921,-431.697C103.433,-423.05 114.64,-412.449 124.6,-403.027"/>
<polygon fill="black" stroke="black" points="127.059,-405.519 131.918,-396.104 122.248,-400.434 127.059,-405.519"/>
<g id="a_edge5&#45;headlabel"><a xlink:href="dir_000357_000337.html" target="_top" xlink:title="10">
<text text-anchor="middle" x="126.399" y="-407.552" font-family="Helvetica,sans-Serif" font-size="10.00">10</text>
</a>
</g>
</g>
<!-- dir_8ba487e25de5ee77e05e9dce7582cb98 -->
<g id="node5" class="node"><title>dir_8ba487e25de5ee77e05e9dce7582cb98</title>
<g id="a_node5"><a xlink:href="dir_8ba487e25de5ee77e05e9dce7582cb98.html" target="_top" xlink:title="Algorithm">
<polygon fill="none" stroke="red" points="173,-36 115,-36 115,-0 173,-0 173,-36"/>
<text text-anchor="middle" x="144" y="-15.5" font-family="Helvetica,sans-Serif" font-size="10.00">Algorithm</text>
</a>
</g>
</g>
<!-- dir_fe570b66ee9607113976552ce149f8ae&#45;&gt;dir_8ba487e25de5ee77e05e9dce7582cb98 -->
<g id="edge3" class="edge"><title>dir_fe570b66ee9607113976552ce149f8ae&#45;&gt;dir_8ba487e25de5ee77e05e9dce7582cb98</title>
<path fill="none" stroke="black" d="M59.5091,-431.772C37.1569,-406.534 0,-357.051 0,-307 0,-307 0,-307 0,-161 0,-101.467 63.1716,-58.5016 105.833,-36.2739"/>
<polygon fill="black" stroke="black" points="107.509,-39.3483 114.859,-31.7176 104.355,-33.0993 107.509,-39.3483"/>
<g id="a_edge3&#45;headlabel"><a xlink:href="dir_000357_000000.html" target="_top" xlink:title="2">
<text text-anchor="middle" x="105.58" y="-41.0027" font-family="Helvetica,sans-Serif" font-size="10.00">2</text>
</a>
</g>
</g>
<!-- dir_fe570b66ee9607113976552ce149f8ae&#45;&gt;dir_bcbb2cf9a3d3d83e5515c82071a07177 -->
<g id="edge4" class="edge"><title>dir_fe570b66ee9607113976552ce149f8ae&#45;&gt;dir_bcbb2cf9a3d3d83e5515c82071a07177</title>
<path fill="none" stroke="black" d="M68.3101,-431.907C57.2064,-405.623 38,-353.447 38,-307 38,-307 38,-307 38,-233 38,-188.481 66.2637,-143.612 87.1259,-116.557"/>
<polygon fill="black" stroke="black" points="90.1102,-118.427 93.5941,-108.421 84.631,-114.071 90.1102,-118.427"/>
<g id="a_edge4&#45;headlabel"><a xlink:href="dir_000357_000028.html" target="_top" xlink:title="13">
<text text-anchor="middle" x="90.0955" y="-120.508" font-family="Helvetica,sans-Serif" font-size="10.00">13</text>
</a>
</g>
</g>
<!-- dir_fe570b66ee9607113976552ce149f8ae&#45;&gt;dir_2171f7ec022c5423887b07c69b2f5b48 -->
<g id="edge6" class="edge"><title>dir_fe570b66ee9607113976552ce149f8ae&#45;&gt;dir_2171f7ec022c5423887b07c69b2f5b48</title>
<path fill="none" stroke="black" d="M82.1347,-431.966C99.3757,-384.093 148.367,-248.06 169.311,-189.904"/>
<polygon fill="black" stroke="black" points="172.672,-190.901 172.767,-180.306 166.086,-188.529 172.672,-190.901"/>
<g id="a_edge6&#45;headlabel"><a xlink:href="dir_000357_000052.html" target="_top" xlink:title="16">
<text text-anchor="middle" x="174.125" y="-192.745" font-family="Helvetica,sans-Serif" font-size="10.00">16</text>
</a>
</g>
</g>
<!-- dir_43247e9473992ee8ffdfc874c5267163&#45;&gt;dir_478733f24fb8878a4cdf7773310adedd -->
<g id="edge1" class="edge"><title>dir_43247e9473992ee8ffdfc874c5267163&#45;&gt;dir_478733f24fb8878a4cdf7773310adedd</title>
<path fill="none" stroke="black" d="M225.427,-287.697C228.355,-279.813 231.887,-270.304 235.14,-261.546"/>
<polygon fill="black" stroke="black" points="238.446,-262.697 238.647,-252.104 231.884,-260.26 238.446,-262.697"/>
<g id="a_edge1&#45;headlabel"><a xlink:href="dir_000216_000165.html" target="_top" xlink:title="2">
<text text-anchor="middle" x="239.856" y="-264.556" font-family="Helvetica,sans-Serif" font-size="10.00">2</text>
</a>
</g>
</g>
<!-- dir_43247e9473992ee8ffdfc874c5267163&#45;&gt;dir_2171f7ec022c5423887b07c69b2f5b48 -->
<g id="edge2" class="edge"><title>dir_43247e9473992ee8ffdfc874c5267163&#45;&gt;dir_2171f7ec022c5423887b07c69b2f5b48</title>
<path fill="none" stroke="black" d="M214.175,-287.871C207.328,-263.564 194.724,-218.819 186.609,-190.013"/>
<polygon fill="black" stroke="black" points="189.922,-188.866 183.842,-180.189 183.185,-190.764 189.922,-188.866"/>
<g id="a_edge2&#45;headlabel"><a xlink:href="dir_000216_000052.html" target="_top" xlink:title="17">
<text text-anchor="middle" x="193.63" y="-189.056" font-family="Helvetica,sans-Serif" font-size="10.00">17</text>
</a>
</g>
</g>
<!-- dir_8ba487e25de5ee77e05e9dce7582cb98&#45;&gt;dir_2171f7ec022c5423887b07c69b2f5b48 -->
<g id="edge7" class="edge"><title>dir_8ba487e25de5ee77e05e9dce7582cb98&#45;&gt;dir_2171f7ec022c5423887b07c69b2f5b48</title>
<path fill="none" stroke="black" d="M152.828,-36.1893C161.356,-60.4244 172.603,-104.888 177.72,-133.679"/>
<polygon fill="black" stroke="black" points="174.316,-134.556 179.363,-143.871 181.227,-133.442 174.316,-134.556"/>
<g id="a_edge7&#45;headlabel"><a xlink:href="dir_000000_000052.html" target="_top" xlink:title="8">
<text text-anchor="middle" x="170.941" y="-128.959" font-family="Helvetica,sans-Serif" font-size="10.00">8</text>
</a>
</g>
</g>
<!-- dir_478733f24fb8878a4cdf7773310adedd&#45;&gt;dir_2171f7ec022c5423887b07c69b2f5b48 -->
<g id="edge8" class="edge"><title>dir_478733f24fb8878a4cdf7773310adedd&#45;&gt;dir_2171f7ec022c5423887b07c69b2f5b48</title>
<path fill="none" stroke="black" d="M228.685,-215.697C220.693,-207.22 210.928,-196.864 202.178,-187.583"/>
<polygon fill="black" stroke="black" points="204.534,-184.979 195.127,-180.104 199.441,-189.781 204.534,-184.979"/>
<g id="a_edge8&#45;headlabel"><a xlink:href="dir_000165_000052.html" target="_top" xlink:title="4">
<text text-anchor="middle" x="209.065" y="-183.147" font-family="Helvetica,sans-Serif" font-size="10.00">4</text>
</a>
</g>
</g>
<!-- dir_bcbb2cf9a3d3d83e5515c82071a07177&#45;&gt;dir_8ba487e25de5ee77e05e9dce7582cb98 -->
<g id="edge9" class="edge"><title>dir_bcbb2cf9a3d3d83e5515c82071a07177&#45;&gt;dir_8ba487e25de5ee77e05e9dce7582cb98</title>
<path fill="none" stroke="black" d="M117.652,-71.6966C121.636,-63.7284 126.45,-54.0995 130.868,-45.2641"/>
<polygon fill="black" stroke="black" points="134.106,-46.6139 135.448,-36.1043 127.845,-43.4833 134.106,-46.6139"/>
<g id="a_edge9&#45;headlabel"><a xlink:href="dir_000028_000000.html" target="_top" xlink:title="1">
<text text-anchor="middle" x="135.038" y="-48.5987" font-family="Helvetica,sans-Serif" font-size="10.00">1</text>
</a>
</g>
</g>
<!-- dir_bcbb2cf9a3d3d83e5515c82071a07177&#45;&gt;dir_2171f7ec022c5423887b07c69b2f5b48 -->
<g id="edge10" class="edge"><title>dir_bcbb2cf9a3d3d83e5515c82071a07177&#45;&gt;dir_2171f7ec022c5423887b07c69b2f5b48</title>
<path fill="none" stroke="black" d="M131.999,-108.104C141.332,-116.552 151.879,-126.901 160.687,-136.199"/>
<polygon fill="black" stroke="black" points="158.256,-138.725 167.612,-143.697 163.399,-133.976 158.256,-138.725"/>
<g id="a_edge10&#45;headlabel"><a xlink:href="dir_000028_000052.html" target="_top" xlink:title="67">
<text text-anchor="middle" x="153.732" y="-135.511" font-family="Helvetica,sans-Serif" font-size="10.00">67</text>
</a>
</g>
</g>
<!-- dir_2171f7ec022c5423887b07c69b2f5b48&#45;&gt;dir_8ba487e25de5ee77e05e9dce7582cb98 -->
<g id="edge15" class="edge"><title>dir_2171f7ec022c5423887b07c69b2f5b48&#45;&gt;dir_8ba487e25de5ee77e05e9dce7582cb98</title>
<path fill="none" stroke="black" d="M170.194,-143.871C161.67,-119.67 150.42,-75.2108 145.293,-46.3932"/>
<polygon fill="black" stroke="black" points="148.695,-45.5038 143.646,-36.1893 141.784,-46.6192 148.695,-45.5038"/>
<g id="a_edge15&#45;headlabel"><a xlink:href="dir_000052_000000.html" target="_top" xlink:title="1">
<text text-anchor="middle" x="152.07" y="-46.1001" font-family="Helvetica,sans-Serif" font-size="10.00">1</text>
</a>
</g>
</g>
<!-- dir_2171f7ec022c5423887b07c69b2f5b48&#45;&gt;dir_bcbb2cf9a3d3d83e5515c82071a07177 -->
<g id="edge16" class="edge"><title>dir_2171f7ec022c5423887b07c69b2f5b48&#45;&gt;dir_bcbb2cf9a3d3d83e5515c82071a07177</title>
<path fill="none" stroke="black" d="M155.781,-143.697C146.43,-135.22 135.886,-124.864 127.106,-115.583"/>
<polygon fill="black" stroke="black" points="129.562,-113.083 120.209,-108.104 124.416,-117.828 129.562,-113.083"/>
<g id="a_edge16&#45;headlabel"><a xlink:href="dir_000052_000028.html" target="_top" xlink:title="6">
<text text-anchor="middle" x="134.086" y="-111.301" font-family="Helvetica,sans-Serif" font-size="10.00">6</text>
</a>
</g>
</g>
</g>
</svg>
