<?xml version="1.0" encoding="UTF-8" standalone="no"?>
<!DOCTYPE svg PUBLIC "-//W3C//DTD SVG 1.1//EN"
 "http://www.w3.org/Graphics/SVG/1.1/DTD/svg11.dtd">
<!-- Generated by graphviz version 2.38.0 (20140413.2041)
 -->
<!-- Title: /home/travis/build/AliceO2Group/AliceO2/Detectors/MUON/MID Pages: 1 -->
<!--zoomable 519 -->
<svg id="main" version="1.1" xmlns="http://www.w3.org/2000/svg" xmlns:xlink="http://www.w3.org/1999/xlink" xml:space="preserve" onload="init(evt)">
<style type="text/css"><![CDATA[
.edge:hover path { stroke: red; }
.edge:hover polygon { stroke: red; fill: red; }
]]></style>
<script type="text/javascript"><![CDATA[
var edges = document.getElementsByTagName('g');
if (edges && edges.length) {
  for (var i=0;i<edges.length;i++) {
    if (edges[i].id.substr(0,4)=='edge') {
      edges[i].setAttribute('class','edge');
    }
  }
}
]]></script>
        <defs>
                <circle id="rim" cx="0" cy="0" r="7"/>
                <circle id="rim2" cx="0" cy="0" r="3.5"/>
                <g id="zoomPlus">
                        <use xlink:href="#rim" fill="#404040">
                                <set attributeName="fill" to="#808080" begin="zoomplus.mouseover" end="zoomplus.mouseout"/>
                        </use>
                        <path d="M-4,0h8M0,-4v8" fill="none" stroke="white" stroke-width="1.5" pointer-events="none"/>
                </g>
                <g id="zoomMin">
                        <use xlink:href="#rim" fill="#404040">
                                <set attributeName="fill" to="#808080" begin="zoomminus.mouseover" end="zoomminus.mouseout"/>
                        </use>
                        <path d="M-4,0h8" fill="none" stroke="white" stroke-width="1.5" pointer-events="none"/>
                </g>
                <g id="dirArrow">
                        <path fill="none" stroke="white" stroke-width="1.5" d="M0,-3.0v7 M-2.5,-0.5L0,-3.0L2.5,-0.5"/>
                </g>
               <g id="resetDef">
                       <use xlink:href="#rim2" fill="#404040">
                               <set attributeName="fill" to="#808080" begin="reset.mouseover" end="reset.mouseout"/>
                       </use>
               </g>
        </defs>

<script type="text/javascript">
var viewWidth = 552;
var viewHeight = 519;
var sectionId = 'dynsection-0';
</script>
<script xlink:href="svgpan.js"/>
<svg id="graph" class="graph">
<g id="viewport">
<title>/home/travis/build/AliceO2Group/AliceO2/Detectors/MUON/MID</title>
<g id="clust1" class="cluster"><title>clusterdir_1cc233fd3b1202b9dad36810b41b97af</title>
<g id="a_clust1"><a xlink:href="dir_1cc233fd3b1202b9dad36810b41b97af.html" target="_top" xlink:title="MUON">
<polygon fill="#ddddee" stroke="black" points="164,-128 164,-503 418,-503 418,-128 164,-128"/>
<text text-anchor="middle" x="291" y="-491" font-family="Helvetica,sans-Serif" font-size="10.00">MUON</text>
</a>
</g>
</g>
<g id="clust2" class="cluster"><title>clusterdir_9e24c537087392bd208449d0b48c466c</title>
<g id="a_clust2"><a xlink:href="dir_9e24c537087392bd208449d0b48c466c.html" target="_top">
<polygon fill="#eeeeff" stroke="black" points="172,-136 172,-476 410,-476 410,-136 172,-136"/>
</a>
</g>
</g>
<!-- dir_9e24c537087392bd208449d0b48c466c -->
<g id="node1" class="node"><title>dir_9e24c537087392bd208449d0b48c466c</title>
<text text-anchor="middle" x="363" y="-447.5" font-family="Helvetica,sans-Serif" font-size="10.00">MID</text>
</g>
<!-- dir_b5547b1068d53f0f904ee5a2a84992af -->
<g id="node2" class="node"><title>dir_b5547b1068d53f0f904ee5a2a84992af</title>
<g id="a_node2"><a xlink:href="dir_b5547b1068d53f0f904ee5a2a84992af.html" target="_top" xlink:title="Base">
<polygon fill="white" stroke="red" points="252,-180 198,-180 198,-144 252,-144 252,-180"/>
<text text-anchor="middle" x="225" y="-159.5" font-family="Helvetica,sans-Serif" font-size="10.00">Base</text>
</a>
</g>
</g>
<!-- dir_4ab6b4cc6a7edbff49100e9123df213f -->
<g id="node9" class="node"><title>dir_4ab6b4cc6a7edbff49100e9123df213f</title>
<g id="a_node9"><a xlink:href="dir_4ab6b4cc6a7edbff49100e9123df213f.html" target="_top" xlink:title="Common">
<polygon fill="none" stroke="red" points="142,-180 86,-180 86,-144 142,-144 142,-180"/>
<text text-anchor="middle" x="114" y="-159.5" font-family="Helvetica,sans-Serif" font-size="10.00">Common</text>
</a>
</g>
</g>
<!-- dir_b5547b1068d53f0f904ee5a2a84992af&#45;&gt;dir_4ab6b4cc6a7edbff49100e9123df213f -->
<g id="edge30" class="edge"><title>dir_b5547b1068d53f0f904ee5a2a84992af&#45;&gt;dir_4ab6b4cc6a7edbff49100e9123df213f</title>
<path fill="none" stroke="black" d="M197.826,-162C182.756,-162 167.686,-162 152.617,-162"/>
<polygon fill="black" stroke="black" points="152.184,-158.5 142.184,-162 152.184,-165.5 152.184,-158.5"/>
<g id="a_edge30&#45;headlabel"><a xlink:href="dir_000453_000009.html" target="_top" xlink:title="1">
<text text-anchor="middle" x="155.778" y="-153.161" font-family="Helvetica,sans-Serif" font-size="10.00">1</text>
</a>
</g>
</g>
<!-- dir_754f2fe7806627988f6bd801b7f2fe5b -->
<g id="node3" class="node"><title>dir_754f2fe7806627988f6bd801b7f2fe5b</title>
<g id="a_node3"><a xlink:href="dir_754f2fe7806627988f6bd801b7f2fe5b.html" target="_top" xlink:title="Clustering">
<polygon fill="white" stroke="red" points="401.5,-324 340.5,-324 340.5,-288 401.5,-288 401.5,-324"/>
<text text-anchor="middle" x="371" y="-303.5" font-family="Helvetica,sans-Serif" font-size="10.00">Clustering</text>
</a>
</g>
</g>
<!-- dir_754f2fe7806627988f6bd801b7f2fe5b&#45;&gt;dir_b5547b1068d53f0f904ee5a2a84992af -->
<g id="edge2" class="edge"><title>dir_754f2fe7806627988f6bd801b7f2fe5b&#45;&gt;dir_b5547b1068d53f0f904ee5a2a84992af</title>
<path fill="none" stroke="black" d="M378.976,-287.859C386.658,-268.544 395.083,-237.098 380,-216 353.43,-178.835 299.172,-167.443 262.437,-164.113"/>
<polygon fill="black" stroke="black" points="262.346,-160.597 252.114,-163.345 261.827,-167.577 262.346,-160.597"/>
<g id="a_edge2&#45;headlabel"><a xlink:href="dir_000326_000453.html" target="_top" xlink:title="8">
<text text-anchor="middle" x="266.141" y="-155.532" font-family="Helvetica,sans-Serif" font-size="10.00">8</text>
</a>
</g>
</g>
<!-- dir_2171f7ec022c5423887b07c69b2f5b48 -->
<g id="node12" class="node"><title>dir_2171f7ec022c5423887b07c69b2f5b48</title>
<g id="a_node12"><a xlink:href="dir_2171f7ec022c5423887b07c69b2f5b48.html" target="_top" xlink:title="DataFormats">
<polygon fill="none" stroke="red" points="301,-108 227,-108 227,-72 301,-72 301,-108"/>
<text text-anchor="middle" x="264" y="-87.5" font-family="Helvetica,sans-Serif" font-size="10.00">DataFormats</text>
</a>
</g>
</g>
<!-- dir_754f2fe7806627988f6bd801b7f2fe5b&#45;&gt;dir_2171f7ec022c5423887b07c69b2f5b48 -->
<g id="edge3" class="edge"><title>dir_754f2fe7806627988f6bd801b7f2fe5b&#45;&gt;dir_2171f7ec022c5423887b07c69b2f5b48</title>
<path fill="none" stroke="black" d="M382.046,-287.611C387.737,-277.615 394.081,-264.579 397,-252 410.187,-195.179 396.554,-167.895 354,-128 341.969,-116.721 326.027,-108.664 310.906,-103.011"/>
<polygon fill="black" stroke="black" points="311.732,-99.5935 301.137,-99.6343 309.445,-106.209 311.732,-99.5935"/>
<g id="a_edge3&#45;headlabel"><a xlink:href="dir_000326_000052.html" target="_top" xlink:title="5">
<text text-anchor="middle" x="316.057" y="-95.5844" font-family="Helvetica,sans-Serif" font-size="10.00">5</text>
</a>
</g>
</g>
<!-- dir_55bb03bc4479a61c5f6db133927cb48c -->
<g id="node4" class="node"><title>dir_55bb03bc4479a61c5f6db133927cb48c</title>
<g id="a_node4"><a xlink:href="dir_55bb03bc4479a61c5f6db133927cb48c.html" target="_top" xlink:title="Raw">
<polygon fill="white" stroke="red" points="234,-252 180,-252 180,-216 234,-216 234,-252"/>
<text text-anchor="middle" x="207" y="-231.5" font-family="Helvetica,sans-Serif" font-size="10.00">Raw</text>
</a>
</g>
</g>
<!-- dir_55bb03bc4479a61c5f6db133927cb48c&#45;&gt;dir_b5547b1068d53f0f904ee5a2a84992af -->
<g id="edge15" class="edge"><title>dir_55bb03bc4479a61c5f6db133927cb48c&#45;&gt;dir_b5547b1068d53f0f904ee5a2a84992af</title>
<path fill="none" stroke="black" d="M211.449,-215.697C213.455,-207.898 215.869,-198.509 218.101,-189.829"/>
<polygon fill="black" stroke="black" points="221.501,-190.661 220.602,-180.104 214.722,-188.918 221.501,-190.661"/>
<g id="a_edge15&#45;headlabel"><a xlink:href="dir_000329_000453.html" target="_top" xlink:title="7">
<text text-anchor="middle" x="223.356" y="-192.349" font-family="Helvetica,sans-Serif" font-size="10.00">7</text>
</a>
</g>
</g>
<!-- dir_55bb03bc4479a61c5f6db133927cb48c&#45;&gt;dir_4ab6b4cc6a7edbff49100e9123df213f -->
<g id="edge14" class="edge"><title>dir_55bb03bc4479a61c5f6db133927cb48c&#45;&gt;dir_4ab6b4cc6a7edbff49100e9123df213f</title>
<path fill="none" stroke="black" d="M184.011,-215.697C172.186,-206.796 157.608,-195.823 144.821,-186.199"/>
<polygon fill="black" stroke="black" points="146.819,-183.322 136.724,-180.104 142.609,-188.915 146.819,-183.322"/>
<g id="a_edge14&#45;headlabel"><a xlink:href="dir_000329_000009.html" target="_top" xlink:title="2">
<text text-anchor="middle" x="151.398" y="-180.715" font-family="Helvetica,sans-Serif" font-size="10.00">2</text>
</a>
</g>
</g>
<!-- dir_55bb03bc4479a61c5f6db133927cb48c&#45;&gt;dir_2171f7ec022c5423887b07c69b2f5b48 -->
<g id="edge16" class="edge"><title>dir_55bb03bc4479a61c5f6db133927cb48c&#45;&gt;dir_2171f7ec022c5423887b07c69b2f5b48</title>
<path fill="none" stroke="black" d="M231.719,-215.771C242.801,-206.559 254.761,-194.19 261,-180 269.53,-160.598 269.785,-136.452 268.181,-118.208"/>
<polygon fill="black" stroke="black" points="271.655,-117.78 267.07,-108.229 264.698,-118.554 271.655,-117.78"/>
<g id="a_edge16&#45;headlabel"><a xlink:href="dir_000329_000052.html" target="_top" xlink:title="15">
<text text-anchor="middle" x="274.874" y="-118.539" font-family="Helvetica,sans-Serif" font-size="10.00">15</text>
</a>
</g>
</g>
<!-- dir_2810eaf0225063d73e08d8eeeb8a37b8 -->
<g id="node5" class="node"><title>dir_2810eaf0225063d73e08d8eeeb8a37b8</title>
<g id="a_node5"><a xlink:href="dir_2810eaf0225063d73e08d8eeeb8a37b8.html" target="_top" xlink:title="Simulation">
<polygon fill="white" stroke="red" points="278,-396 216,-396 216,-360 278,-360 278,-396"/>
<text text-anchor="middle" x="247" y="-375.5" font-family="Helvetica,sans-Serif" font-size="10.00">Simulation</text>
</a>
</g>
</g>
<!-- dir_2810eaf0225063d73e08d8eeeb8a37b8&#45;&gt;dir_b5547b1068d53f0f904ee5a2a84992af -->
<g id="edge22" class="edge"><title>dir_2810eaf0225063d73e08d8eeeb8a37b8&#45;&gt;dir_b5547b1068d53f0f904ee5a2a84992af</title>
<path fill="none" stroke="black" d="M246.268,-359.817C245.847,-349.446 245.337,-335.966 245,-324 244.663,-312.003 245.066,-227.823 243,-216 241.478,-207.289 238.764,-198.074 235.897,-189.814"/>
<polygon fill="black" stroke="black" points="239.137,-188.483 232.395,-180.31 232.569,-190.904 239.137,-188.483"/>
<g id="a_edge22&#45;headlabel"><a xlink:href="dir_000169_000453.html" target="_top" xlink:title="10">
<text text-anchor="middle" x="243.044" y="-188.374" font-family="Helvetica,sans-Serif" font-size="10.00">10</text>
</a>
</g>
</g>
<!-- dir_2810eaf0225063d73e08d8eeeb8a37b8&#45;&gt;dir_754f2fe7806627988f6bd801b7f2fe5b -->
<g id="edge18" class="edge"><title>dir_2810eaf0225063d73e08d8eeeb8a37b8&#45;&gt;dir_754f2fe7806627988f6bd801b7f2fe5b</title>
<path fill="none" stroke="black" d="M277.334,-359.876C293.697,-350.639 314.083,-339.131 331.654,-329.212"/>
<polygon fill="black" stroke="black" points="333.562,-332.154 340.55,-324.19 330.121,-326.058 333.562,-332.154"/>
<g id="a_edge18&#45;headlabel"><a xlink:href="dir_000169_000326.html" target="_top" xlink:title="5">
<text text-anchor="middle" x="331.827" y="-333.893" font-family="Helvetica,sans-Serif" font-size="10.00">5</text>
</a>
</g>
</g>
<!-- dir_3ffb816f6d71c6665c34f0fe3ab9978a -->
<g id="node6" class="node"><title>dir_3ffb816f6d71c6665c34f0fe3ab9978a</title>
<g id="a_node6"><a xlink:href="dir_3ffb816f6d71c6665c34f0fe3ab9978a.html" target="_top" xlink:title="TestingSimTools">
<polygon fill="white" stroke="red" points="362,-252 272,-252 272,-216 362,-216 362,-252"/>
<text text-anchor="middle" x="317" y="-231.5" font-family="Helvetica,sans-Serif" font-size="10.00">TestingSimTools</text>
</a>
</g>
</g>
<!-- dir_2810eaf0225063d73e08d8eeeb8a37b8&#45;&gt;dir_3ffb816f6d71c6665c34f0fe3ab9978a -->
<g id="edge21" class="edge"><title>dir_2810eaf0225063d73e08d8eeeb8a37b8&#45;&gt;dir_3ffb816f6d71c6665c34f0fe3ab9978a</title>
<path fill="none" stroke="black" d="M245.949,-359.897C245.533,-341.176 247.07,-310.792 259,-288 264.831,-276.859 273.984,-266.869 283.31,-258.646"/>
<polygon fill="black" stroke="black" points="285.656,-261.248 291.116,-252.168 281.185,-255.861 285.656,-261.248"/>
<g id="a_edge21&#45;headlabel"><a xlink:href="dir_000169_000472.html" target="_top" xlink:title="2">
<text text-anchor="middle" x="284.703" y="-263.228" font-family="Helvetica,sans-Serif" font-size="10.00">2</text>
</a>
</g>
</g>
<!-- dir_c6781640d5720511e35c6e7f87460ee7 -->
<g id="node7" class="node"><title>dir_c6781640d5720511e35c6e7f87460ee7</title>
<g id="a_node7"><a xlink:href="dir_c6781640d5720511e35c6e7f87460ee7.html" target="_top" xlink:title="Tracking">
<polygon fill="white" stroke="red" points="322,-324 268,-324 268,-288 322,-288 322,-324"/>
<text text-anchor="middle" x="295" y="-303.5" font-family="Helvetica,sans-Serif" font-size="10.00">Tracking</text>
</a>
</g>
</g>
<!-- dir_2810eaf0225063d73e08d8eeeb8a37b8&#45;&gt;dir_c6781640d5720511e35c6e7f87460ee7 -->
<g id="edge20" class="edge"><title>dir_2810eaf0225063d73e08d8eeeb8a37b8&#45;&gt;dir_c6781640d5720511e35c6e7f87460ee7</title>
<path fill="none" stroke="black" d="M258.865,-359.697C264.503,-351.474 271.354,-341.483 277.569,-332.421"/>
<polygon fill="black" stroke="black" points="280.503,-334.331 283.271,-324.104 274.729,-330.372 280.503,-334.331"/>
<g id="a_edge20&#45;headlabel"><a xlink:href="dir_000169_000435.html" target="_top" xlink:title="1">
<text text-anchor="middle" x="280.811" y="-336.401" font-family="Helvetica,sans-Serif" font-size="10.00">1</text>
</a>
</g>
</g>
<!-- dir_2810eaf0225063d73e08d8eeeb8a37b8&#45;&gt;dir_4ab6b4cc6a7edbff49100e9123df213f -->
<g id="edge17" class="edge"><title>dir_2810eaf0225063d73e08d8eeeb8a37b8&#45;&gt;dir_4ab6b4cc6a7edbff49100e9123df213f</title>
<path fill="none" stroke="black" d="M215.766,-370.282C190.659,-363.176 156.612,-349.361 138,-324 109.108,-284.631 108.285,-225.055 110.802,-190.489"/>
<polygon fill="black" stroke="black" points="114.317,-190.47 111.705,-180.202 107.344,-189.857 114.317,-190.47"/>
<g id="a_edge17&#45;headlabel"><a xlink:href="dir_000169_000009.html" target="_top" xlink:title="6">
<text text-anchor="middle" x="116.831" y="-191.799" font-family="Helvetica,sans-Serif" font-size="10.00">6</text>
</a>
</g>
</g>
<!-- dir_37c90836491b695b472bf98d1be8336b -->
<g id="node10" class="node"><title>dir_37c90836491b695b472bf98d1be8336b</title>
<g id="a_node10"><a xlink:href="dir_37c90836491b695b472bf98d1be8336b.html" target="_top" xlink:title="Base">
<polygon fill="none" stroke="red" points="141,-36 87,-36 87,-0 141,-0 141,-36"/>
<text text-anchor="middle" x="114" y="-15.5" font-family="Helvetica,sans-Serif" font-size="10.00">Base</text>
</a>
</g>
</g>
<!-- dir_2810eaf0225063d73e08d8eeeb8a37b8&#45;&gt;dir_37c90836491b695b472bf98d1be8336b -->
<g id="edge19" class="edge"><title>dir_2810eaf0225063d73e08d8eeeb8a37b8&#45;&gt;dir_37c90836491b695b472bf98d1be8336b</title>
<path fill="none" stroke="black" d="M215.966,-372.188C186.653,-366.031 143.488,-352.528 118,-324 58.7056,-257.633 62.503,-215.808 77,-128 81.7774,-99.0634 93.237,-67.482 102.147,-45.798"/>
<polygon fill="black" stroke="black" points="105.496,-46.8646 106.152,-36.2901 99.0448,-44.1472 105.496,-46.8646"/>
<g id="a_edge19&#45;headlabel"><a xlink:href="dir_000169_000248.html" target="_top" xlink:title="3">
<text text-anchor="middle" x="106.717" y="-48.7795" font-family="Helvetica,sans-Serif" font-size="10.00">3</text>
</a>
</g>
</g>
<!-- dir_2810eaf0225063d73e08d8eeeb8a37b8&#45;&gt;dir_2171f7ec022c5423887b07c69b2f5b48 -->
<g id="edge23" class="edge"><title>dir_2810eaf0225063d73e08d8eeeb8a37b8&#45;&gt;dir_2171f7ec022c5423887b07c69b2f5b48</title>
<path fill="none" stroke="black" d="M232.272,-359.839C213.747,-337.008 182.921,-294.554 171,-252 166.684,-236.593 169.389,-231.919 171,-216 175.02,-176.282 164.614,-159.607 189,-128 196.414,-118.39 206.983,-111.112 217.856,-105.666"/>
<polygon fill="black" stroke="black" points="219.342,-108.835 226.999,-101.511 216.446,-102.462 219.342,-108.835"/>
<g id="a_edge23&#45;headlabel"><a xlink:href="dir_000169_000052.html" target="_top" xlink:title="28">
<text text-anchor="middle" x="217.244" y="-110.407" font-family="Helvetica,sans-Serif" font-size="10.00">28</text>
</a>
</g>
</g>
<!-- dir_3ffb816f6d71c6665c34f0fe3ab9978a&#45;&gt;dir_b5547b1068d53f0f904ee5a2a84992af -->
<g id="edge28" class="edge"><title>dir_3ffb816f6d71c6665c34f0fe3ab9978a&#45;&gt;dir_b5547b1068d53f0f904ee5a2a84992af</title>
<path fill="none" stroke="black" d="M294.258,-215.697C282.56,-206.796 268.139,-195.823 255.49,-186.199"/>
<polygon fill="black" stroke="black" points="257.558,-183.374 247.48,-180.104 253.319,-188.945 257.558,-183.374"/>
<g id="a_edge28&#45;headlabel"><a xlink:href="dir_000472_000453.html" target="_top" xlink:title="3">
<text text-anchor="middle" x="262.138" y="-180.791" font-family="Helvetica,sans-Serif" font-size="10.00">3</text>
</a>
</g>
</g>
<!-- dir_3ffb816f6d71c6665c34f0fe3ab9978a&#45;&gt;dir_4ab6b4cc6a7edbff49100e9123df213f -->
<g id="edge27" class="edge"><title>dir_3ffb816f6d71c6665c34f0fe3ab9978a&#45;&gt;dir_4ab6b4cc6a7edbff49100e9123df213f</title>
<path fill="none" stroke="black" d="M271.948,-217.465C235.801,-205 185.65,-187.707 151.628,-175.975"/>
<polygon fill="black" stroke="black" points="152.648,-172.625 142.053,-172.673 150.366,-179.242 152.648,-172.625"/>
<g id="a_edge27&#45;headlabel"><a xlink:href="dir_000472_000009.html" target="_top" xlink:title="1">
<text text-anchor="middle" x="156.972" y="-168.612" font-family="Helvetica,sans-Serif" font-size="10.00">1</text>
</a>
</g>
</g>
<!-- dir_3ffb816f6d71c6665c34f0fe3ab9978a&#45;&gt;dir_2171f7ec022c5423887b07c69b2f5b48 -->
<g id="edge29" class="edge"><title>dir_3ffb816f6d71c6665c34f0fe3ab9978a&#45;&gt;dir_2171f7ec022c5423887b07c69b2f5b48</title>
<path fill="none" stroke="black" d="M315.691,-215.846C313.516,-194.38 307.917,-156.923 294,-128 292.104,-124.06 289.712,-120.169 287.108,-116.475"/>
<polygon fill="black" stroke="black" points="289.667,-114.061 280.787,-108.282 284.125,-118.338 289.667,-114.061"/>
<g id="a_edge29&#45;headlabel"><a xlink:href="dir_000472_000052.html" target="_top" xlink:title="3">
<text text-anchor="middle" x="294.111" y="-112.672" font-family="Helvetica,sans-Serif" font-size="10.00">3</text>
</a>
</g>
</g>
<!-- dir_c6781640d5720511e35c6e7f87460ee7&#45;&gt;dir_b5547b1068d53f0f904ee5a2a84992af -->
<g id="edge25" class="edge"><title>dir_c6781640d5720511e35c6e7f87460ee7&#45;&gt;dir_b5547b1068d53f0f904ee5a2a84992af</title>
<path fill="none" stroke="black" d="M322.028,-289.819C341.612,-278.185 365.568,-262.411 371,-252 378.402,-237.815 380.183,-229.103 371,-216 346.596,-181.179 296.861,-169.146 262.261,-165.039"/>
<polygon fill="black" stroke="black" points="262.356,-161.531 252.054,-164.003 261.649,-168.495 262.356,-161.531"/>
<g id="a_edge25&#45;headlabel"><a xlink:href="dir_000435_000453.html" target="_top" xlink:title="6">
<text text-anchor="middle" x="266.219" y="-156.57" font-family="Helvetica,sans-Serif" font-size="10.00">6</text>
</a>
</g>
</g>
<!-- dir_c6781640d5720511e35c6e7f87460ee7&#45;&gt;dir_3ffb816f6d71c6665c34f0fe3ab9978a -->
<g id="edge24" class="edge"><title>dir_c6781640d5720511e35c6e7f87460ee7&#45;&gt;dir_3ffb816f6d71c6665c34f0fe3ab9978a</title>
<path fill="none" stroke="black" d="M300.438,-287.697C302.889,-279.898 305.84,-270.509 308.568,-261.829"/>
<polygon fill="black" stroke="black" points="311.965,-262.694 311.624,-252.104 305.287,-260.595 311.965,-262.694"/>
<g id="a_edge24&#45;headlabel"><a xlink:href="dir_000435_000472.html" target="_top" xlink:title="4">
<text text-anchor="middle" x="313.596" y="-264.474" font-family="Helvetica,sans-Serif" font-size="10.00">4</text>
</a>
</g>
</g>
<!-- dir_c6781640d5720511e35c6e7f87460ee7&#45;&gt;dir_2171f7ec022c5423887b07c69b2f5b48 -->
<g id="edge26" class="edge"><title>dir_c6781640d5720511e35c6e7f87460ee7&#45;&gt;dir_2171f7ec022c5423887b07c69b2f5b48</title>
<path fill="none" stroke="black" d="M322.072,-291.814C344.444,-280.292 373.545,-263.633 380,-252 387.764,-238.01 384.948,-231.216 380,-216 365.045,-170.01 350.373,-162.019 316,-128 311.079,-123.13 305.463,-118.433 299.783,-114.115"/>
<polygon fill="black" stroke="black" points="301.637,-111.135 291.491,-108.083 297.519,-116.796 301.637,-111.135"/>
<g id="a_edge26&#45;headlabel"><a xlink:href="dir_000435_000052.html" target="_top" xlink:title="8">
<text text-anchor="middle" x="306.214" y="-108.453" font-family="Helvetica,sans-Serif" font-size="10.00">8</text>
</a>
</g>
</g>
<!-- dir_541a9f579a56d3c8f641580c9f97913d -->
<g id="node8" class="node"><title>dir_541a9f579a56d3c8f641580c9f97913d</title>
<g id="a_node8"><a xlink:href="dir_541a9f579a56d3c8f641580c9f97913d.html" target="_top" xlink:title="Workflow">
<polygon fill="white" stroke="red" points="290,-468 232,-468 232,-432 290,-432 290,-468"/>
<text text-anchor="middle" x="261" y="-447.5" font-family="Helvetica,sans-Serif" font-size="10.00">Workflow</text>
</a>
</g>
</g>
<!-- dir_541a9f579a56d3c8f641580c9f97913d&#45;&gt;dir_754f2fe7806627988f6bd801b7f2fe5b -->
<g id="edge7" class="edge"><title>dir_541a9f579a56d3c8f641580c9f97913d&#45;&gt;dir_754f2fe7806627988f6bd801b7f2fe5b</title>
<path fill="none" stroke="black" d="M274.269,-431.871C293.512,-407.031 329.288,-360.846 351.524,-332.142"/>
<polygon fill="black" stroke="black" points="354.327,-334.238 357.684,-324.189 348.793,-329.951 354.327,-334.238"/>
<g id="a_edge7&#45;headlabel"><a xlink:href="dir_000339_000326.html" target="_top" xlink:title="5">
<text text-anchor="middle" x="354.371" y="-336.319" font-family="Helvetica,sans-Serif" font-size="10.00">5</text>
</a>
</g>
</g>
<!-- dir_541a9f579a56d3c8f641580c9f97913d&#45;&gt;dir_55bb03bc4479a61c5f6db133927cb48c -->
<g id="edge9" class="edge"><title>dir_541a9f579a56d3c8f641580c9f97913d&#45;&gt;dir_55bb03bc4479a61c5f6db133927cb48c</title>
<path fill="none" stroke="black" d="M236.072,-431.861C224.94,-422.67 212.999,-410.293 207,-396 188.552,-352.045 194.684,-295.202 200.833,-262.15"/>
<polygon fill="black" stroke="black" points="204.274,-262.793 202.799,-252.302 197.409,-261.423 204.274,-262.793"/>
<g id="a_edge9&#45;headlabel"><a xlink:href="dir_000339_000329.html" target="_top" xlink:title="4">
<text text-anchor="middle" x="206.354" y="-264.374" font-family="Helvetica,sans-Serif" font-size="10.00">4</text>
</a>
</g>
</g>
<!-- dir_541a9f579a56d3c8f641580c9f97913d&#45;&gt;dir_2810eaf0225063d73e08d8eeeb8a37b8 -->
<g id="edge10" class="edge"><title>dir_541a9f579a56d3c8f641580c9f97913d&#45;&gt;dir_2810eaf0225063d73e08d8eeeb8a37b8</title>
<path fill="none" stroke="black" d="M257.539,-431.697C255.997,-423.983 254.142,-414.712 252.422,-406.112"/>
<polygon fill="black" stroke="black" points="255.814,-405.224 250.421,-396.104 248.95,-406.597 255.814,-405.224"/>
<g id="a_edge10&#45;headlabel"><a xlink:href="dir_000339_000169.html" target="_top" xlink:title="10">
<text text-anchor="middle" x="259.303" y="-405.692" font-family="Helvetica,sans-Serif" font-size="10.00">10</text>
</a>
</g>
</g>
<!-- dir_541a9f579a56d3c8f641580c9f97913d&#45;&gt;dir_c6781640d5720511e35c6e7f87460ee7 -->
<g id="edge11" class="edge"><title>dir_541a9f579a56d3c8f641580c9f97913d&#45;&gt;dir_c6781640d5720511e35c6e7f87460ee7</title>
<path fill="none" stroke="black" d="M271.349,-431.975C276.965,-421.883 283.465,-408.633 287,-396 292.67,-375.739 294.578,-351.967 295.118,-334.09"/>
<polygon fill="black" stroke="black" points="298.618,-334.123 295.298,-324.062 291.619,-333.997 298.618,-334.123"/>
<g id="a_edge11&#45;headlabel"><a xlink:href="dir_000339_000435.html" target="_top" xlink:title="2">
<text text-anchor="middle" x="301.392" y="-335.268" font-family="Helvetica,sans-Serif" font-size="10.00">2</text>
</a>
</g>
</g>
<!-- dir_541a9f579a56d3c8f641580c9f97913d&#45;&gt;dir_4ab6b4cc6a7edbff49100e9123df213f -->
<g id="edge6" class="edge"><title>dir_541a9f579a56d3c8f641580c9f97913d&#45;&gt;dir_4ab6b4cc6a7edbff49100e9123df213f</title>
<path fill="none" stroke="black" d="M231.745,-432.55C198.105,-411.917 144.166,-373.201 118,-324 95.4915,-281.677 101.337,-223.832 107.654,-190.238"/>
<polygon fill="black" stroke="black" points="111.126,-190.73 109.687,-180.233 104.266,-189.336 111.126,-190.73"/>
<g id="a_edge6&#45;headlabel"><a xlink:href="dir_000339_000009.html" target="_top" xlink:title="3">
<text text-anchor="middle" x="113.193" y="-192.318" font-family="Helvetica,sans-Serif" font-size="10.00">3</text>
</a>
</g>
</g>
<!-- dir_541a9f579a56d3c8f641580c9f97913d&#45;&gt;dir_37c90836491b695b472bf98d1be8336b -->
<g id="edge8" class="edge"><title>dir_541a9f579a56d3c8f641580c9f97913d&#45;&gt;dir_37c90836491b695b472bf98d1be8336b</title>
<path fill="none" stroke="black" d="M231.82,-446.7C163.713,-439.58 0,-411.588 0,-307 0,-307 0,-307 0,-161 0,-109.997 45.2736,-66.8836 78.7591,-41.971"/>
<polygon fill="black" stroke="black" points="80.9228,-44.7258 86.9836,-36.0357 76.8264,-39.0495 80.9228,-44.7258"/>
<g id="a_edge8&#45;headlabel"><a xlink:href="dir_000339_000248.html" target="_top" xlink:title="2">
<text text-anchor="middle" x="79.6694" y="-46.6316" font-family="Helvetica,sans-Serif" font-size="10.00">2</text>
</a>
</g>
</g>
<!-- dir_bcbb2cf9a3d3d83e5515c82071a07177 -->
<g id="node11" class="node"><title>dir_bcbb2cf9a3d3d83e5515c82071a07177</title>
<g id="a_node11"><a xlink:href="dir_bcbb2cf9a3d3d83e5515c82071a07177.html" target="_top" xlink:title="Framework">
<polygon fill="none" stroke="red" points="296.5,-36 231.5,-36 231.5,-0 296.5,-0 296.5,-36"/>
<text text-anchor="middle" x="264" y="-15.5" font-family="Helvetica,sans-Serif" font-size="10.00">Framework</text>
</a>
</g>
</g>
<!-- dir_541a9f579a56d3c8f641580c9f97913d&#45;&gt;dir_bcbb2cf9a3d3d83e5515c82071a07177 -->
<g id="edge12" class="edge"><title>dir_541a9f579a56d3c8f641580c9f97913d&#45;&gt;dir_bcbb2cf9a3d3d83e5515c82071a07177</title>
<path fill="none" stroke="black" d="M290.216,-441.244C338.134,-428.41 429.483,-403.434 443,-396 495.424,-367.166 544,-366.83 544,-307 544,-307 544,-307 544,-161 544,-55.8915 385.116,-28.5601 306.719,-21.4717"/>
<polygon fill="black" stroke="black" points="306.924,-17.9767 296.668,-20.6341 306.342,-24.9526 306.924,-17.9767"/>
<g id="a_edge12&#45;headlabel"><a xlink:href="dir_000339_000028.html" target="_top" xlink:title="60">
<text text-anchor="middle" x="310.742" y="-12.9457" font-family="Helvetica,sans-Serif" font-size="10.00">60</text>
</a>
</g>
</g>
<!-- dir_541a9f579a56d3c8f641580c9f97913d&#45;&gt;dir_2171f7ec022c5423887b07c69b2f5b48 -->
<g id="edge13" class="edge"><title>dir_541a9f579a56d3c8f641580c9f97913d&#45;&gt;dir_2171f7ec022c5423887b07c69b2f5b48</title>
<path fill="none" stroke="black" d="M290.067,-438.995C354.965,-415.769 506,-356.408 506,-307 506,-307 506,-307 506,-233 506,-143.508 381.37,-109.331 310.987,-97.1656"/>
<polygon fill="black" stroke="black" points="311.453,-93.6953 301.018,-95.5264 310.318,-100.603 311.453,-93.6953"/>
<g id="a_edge13&#45;headlabel"><a xlink:href="dir_000339_000052.html" target="_top" xlink:title="21">
<text text-anchor="middle" x="315.461" y="-88.9767" font-family="Helvetica,sans-Serif" font-size="10.00">21</text>
</a>
</g>
</g>
<!-- dir_4ab6b4cc6a7edbff49100e9123df213f&#45;&gt;dir_2171f7ec022c5423887b07c69b2f5b48 -->
<g id="edge1" class="edge"><title>dir_4ab6b4cc6a7edbff49100e9123df213f&#45;&gt;dir_2171f7ec022c5423887b07c69b2f5b48</title>
<path fill="none" stroke="black" d="M124.629,-143.766C130.99,-138.194 139.016,-132.341 147,-128 168.668,-116.218 194.79,-107.148 216.95,-100.937"/>
<polygon fill="black" stroke="black" points="218.072,-104.26 226.822,-98.2849 216.256,-97.4992 218.072,-104.26"/>
<g id="a_edge1&#45;headlabel"><a xlink:href="dir_000009_000052.html" target="_top" xlink:title="5">
<text text-anchor="middle" x="215.338" y="-105.434" font-family="Helvetica,sans-Serif" font-size="10.00">5</text>
</a>
</g>
</g>
<!-- dir_37c90836491b695b472bf98d1be8336b&#45;&gt;dir_4ab6b4cc6a7edbff49100e9123df213f -->
<g id="edge4" class="edge"><title>dir_37c90836491b695b472bf98d1be8336b&#45;&gt;dir_4ab6b4cc6a7edbff49100e9123df213f</title>
<path fill="none" stroke="black" d="M114,-36.1893C114,-60.4244 114,-104.888 114,-133.679"/>
<polygon fill="black" stroke="black" points="110.5,-133.871 114,-143.871 117.5,-133.872 110.5,-133.871"/>
<g id="a_edge4&#45;headlabel"><a xlink:href="dir_000248_000009.html" target="_top" xlink:title="16">
<text text-anchor="middle" x="107.661" y="-127.777" font-family="Helvetica,sans-Serif" font-size="10.00">16</text>
</a>
</g>
</g>
<!-- dir_37c90836491b695b472bf98d1be8336b&#45;&gt;dir_2171f7ec022c5423887b07c69b2f5b48 -->
<g id="edge5" class="edge"><title>dir_37c90836491b695b472bf98d1be8336b&#45;&gt;dir_2171f7ec022c5423887b07c69b2f5b48</title>
<path fill="none" stroke="black" d="M141.335,-29.4348C164.492,-39.4088 197.808,-54.7509 223.935,-67.3666"/>
<polygon fill="black" stroke="black" points="222.68,-70.6482 233.203,-71.8761 225.742,-64.3537 222.68,-70.6482"/>
<g id="a_edge5&#45;headlabel"><a xlink:href="dir_000248_000052.html" target="_top" xlink:title="7">
<text text-anchor="middle" x="218.205" y="-69.1286" font-family="Helvetica,sans-Serif" font-size="10.00">7</text>
</a>
</g>
</g>
<!-- dir_bcbb2cf9a3d3d83e5515c82071a07177&#45;&gt;dir_4ab6b4cc6a7edbff49100e9123df213f -->
<g id="edge31" class="edge"><title>dir_bcbb2cf9a3d3d83e5515c82071a07177&#45;&gt;dir_4ab6b4cc6a7edbff49100e9123df213f</title>
<path fill="none" stroke="black" d="M245.842,-36.1893C219.34,-61.2785 169.937,-108.047 139.708,-136.663"/>
<polygon fill="black" stroke="black" points="136.949,-134.455 132.094,-143.871 141.762,-139.538 136.949,-134.455"/>
<g id="a_edge31&#45;headlabel"><a xlink:href="dir_000028_000009.html" target="_top" xlink:title="8">
<text text-anchor="middle" x="137.608" y="-127.422" font-family="Helvetica,sans-Serif" font-size="10.00">8</text>
</a>
</g>
</g>
<!-- dir_bcbb2cf9a3d3d83e5515c82071a07177&#45;&gt;dir_2171f7ec022c5423887b07c69b2f5b48 -->
<g id="edge32" class="edge"><title>dir_bcbb2cf9a3d3d83e5515c82071a07177&#45;&gt;dir_2171f7ec022c5423887b07c69b2f5b48</title>
<path fill="none" stroke="black" d="M269.895,-36.1043C270.701,-43.7913 270.937,-53.0537 270.604,-61.6651"/>
<polygon fill="black" stroke="black" points="267.109,-61.4805 269.916,-71.6966 274.092,-61.9597 267.109,-61.4805"/>
<g id="a_edge32&#45;headlabel"><a xlink:href="dir_000028_000052.html" target="_top" xlink:title="67">
<text text-anchor="middle" x="264.522" y="-55.2" font-family="Helvetica,sans-Serif" font-size="10.00">67</text>
</a>
</g>
</g>
<!-- dir_2171f7ec022c5423887b07c69b2f5b48&#45;&gt;dir_4ab6b4cc6a7edbff49100e9123df213f -->
<g id="edge33" class="edge"><title>dir_2171f7ec022c5423887b07c69b2f5b48&#45;&gt;dir_4ab6b4cc6a7edbff49100e9123df213f</title>
<path fill="none" stroke="black" d="M226.941,-102.804C207.818,-108.914 184.589,-117.349 165,-128 159.885,-130.781 154.753,-134.183 149.787,-137.733"/>
<polygon fill="black" stroke="black" points="147.584,-135.01 141.619,-143.766 151.742,-140.64 147.584,-135.01"/>
<g id="a_edge33&#45;headlabel"><a xlink:href="dir_000052_000009.html" target="_top" xlink:title="28">
<text text-anchor="middle" x="148.788" y="-128.09" font-family="Helvetica,sans-Serif" font-size="10.00">28</text>
</a>
</g>
</g>
<!-- dir_2171f7ec022c5423887b07c69b2f5b48&#45;&gt;dir_37c90836491b695b472bf98d1be8336b -->
<g id="edge34" class="edge"><title>dir_2171f7ec022c5423887b07c69b2f5b48&#45;&gt;dir_37c90836491b695b472bf98d1be8336b</title>
<path fill="none" stroke="black" d="M226.941,-74.3257C203.589,-64.0369 173.676,-50.1619 150.446,-38.881"/>
<polygon fill="black" stroke="black" points="151.78,-35.6371 141.26,-34.3821 148.701,-41.9237 151.78,-35.6371"/>
<g id="a_edge34&#45;headlabel"><a xlink:href="dir_000052_000248.html" target="_top" xlink:title="1">
<text text-anchor="middle" x="156.257" y="-32.1681" font-family="Helvetica,sans-Serif" font-size="10.00">1</text>
</a>
</g>
</g>
<!-- dir_2171f7ec022c5423887b07c69b2f5b48&#45;&gt;dir_bcbb2cf9a3d3d83e5515c82071a07177 -->
<g id="edge35" class="edge"><title>dir_2171f7ec022c5423887b07c69b2f5b48&#45;&gt;dir_bcbb2cf9a3d3d83e5515c82071a07177</title>
<path fill="none" stroke="black" d="M258.084,-71.6966C257.289,-63.9827 257.062,-54.7125 257.405,-46.1124"/>
<polygon fill="black" stroke="black" points="260.898,-46.3243 258.105,-36.1043 253.915,-45.8356 260.898,-46.3243"/>
<g id="a_edge35&#45;headlabel"><a xlink:href="dir_000052_000028.html" target="_top" xlink:title="6">
<text text-anchor="middle" x="263.48" y="-47.6083" font-family="Helvetica,sans-Serif" font-size="10.00">6</text>
</a>
</g>
</g>
</g>
</svg>
        <g id="navigator" transform="translate(0 0)" fill="#404254">
                <rect fill="#f2f5e9" fill-opacity="0.5" stroke="#606060" stroke-width=".5" x="0" y="0" width="60" height="60"/>
                <use id="zoomplus" xlink:href="#zoomPlus" x="17" y="9" onmousedown="handleZoom(evt,'in')"/>
                <use id="zoomminus" xlink:href="#zoomMin" x="42" y="9" onmousedown="handleZoom(evt,'out')"/>
                <use id="reset" xlink:href="#resetDef" x="30" y="36" onmousedown="handleReset()"/>
                <g id="arrowUp" xlink:href="#dirArrow" transform="translate(30 24)" onmousedown="handlePan(0,-1)">
                  <use xlink:href="#rim" fill="#404040">
                        <set attributeName="fill" to="#808080" begin="arrowUp.mouseover" end="arrowUp.mouseout"/>
                  </use>
                  <path fill="none" stroke="white" stroke-width="1.5" d="M0,-3.0v7 M-2.5,-0.5L0,-3.0L2.5,-0.5"/>
                </g>
                <g id="arrowRight" xlink:href="#dirArrow" transform="rotate(90) translate(36 -43)" onmousedown="handlePan(1,0)">
                  <use xlink:href="#rim" fill="#404040">
                        <set attributeName="fill" to="#808080" begin="arrowRight.mouseover" end="arrowRight.mouseout"/>
                  </use>
                  <path fill="none" stroke="white" stroke-width="1.5" d="M0,-3.0v7 M-2.5,-0.5L0,-3.0L2.5,-0.5"/>
                </g>
                <g id="arrowDown" xlink:href="#dirArrow" transform="rotate(180) translate(-30 -48)" onmousedown="handlePan(0,1)">
                  <use xlink:href="#rim" fill="#404040">
                        <set attributeName="fill" to="#808080" begin="arrowDown.mouseover" end="arrowDown.mouseout"/>
                  </use>
                  <path fill="none" stroke="white" stroke-width="1.5" d="M0,-3.0v7 M-2.5,-0.5L0,-3.0L2.5,-0.5"/>
                </g>
                <g id="arrowLeft" xlink:href="#dirArrow" transform="rotate(270) translate(-36 17)" onmousedown="handlePan(-1,0)">
                  <use xlink:href="#rim" fill="#404040">
                        <set attributeName="fill" to="#808080" begin="arrowLeft.mouseover" end="arrowLeft.mouseout"/>
                  </use>
                  <path fill="none" stroke="white" stroke-width="1.5" d="M0,-3.0v7 M-2.5,-0.5L0,-3.0L2.5,-0.5"/>
                </g>
        </g>
        <svg viewBox="0 0 15 15" width="100%" height="30px" preserveAspectRatio="xMaxYMin meet">
         <g id="arrow_out" transform="scale(0.3 0.3)">
          <a xlink:href="dir_9e24c537087392bd208449d0b48c466c_dep_org.svg" target="_base">
           <rect id="button" ry="5" rx="5" y="6" x="6" height="38" width="38"
                fill="#f2f5e9" fill-opacity="0.5" stroke="#606060" stroke-width="1.0"/>
           <path id="arrow"
             d="M 11.500037,31.436501 C 11.940474,20.09759 22.043105,11.32322 32.158766,21.979434 L 37.068811,17.246167 C 37.068811,17.246167 37.088388,32 37.088388,32 L 22.160133,31.978069 C 22.160133,31.978069 26.997745,27.140456 26.997745,27.140456 C 18.528582,18.264221 13.291696,25.230495 11.500037,31.436501 z"
             style="fill:#404040;"/>
          </a>
         </g>
        </svg>
</svg>
