<?xml version="1.0" encoding="UTF-8" standalone="no"?>
<!DOCTYPE svg PUBLIC "-//W3C//DTD SVG 1.1//EN"
 "http://www.w3.org/Graphics/SVG/1.1/DTD/svg11.dtd">
<!-- Generated by graphviz version 2.38.0 (20140413.2041)
 -->
<!-- Title: Graphical Class Hierarchy Pages: 1 -->
<svg width="573pt" height="1166pt"
 viewBox="0.00 0.00 573.00 1166.00" xmlns="http://www.w3.org/2000/svg" xmlns:xlink="http://www.w3.org/1999/xlink">
<g id="graph0" class="graph" transform="scale(1 1) rotate(0) translate(4 1162)">
<title>Graphical Class Hierarchy</title>
<!-- Node1 -->
<g id="node1" class="node"><title>Node1</title>
<g id="a_node1"><a xlink:href="d6/d14/classo2_1_1conf_1_1ConfigurableParam.html" target="_top" xlink:title="o2::conf::ConfigurableParam">
<polygon fill="none" stroke="black" points="0,-569 0,-588 141,-588 141,-569 0,-569"/>
<text text-anchor="middle" x="70.5" y="-576" font-family="Helvetica,sans-Serif" font-size="10.00">o2::conf::ConfigurableParam</text>
</a>
</g>
</g>
<!-- Node2 -->
<g id="node2" class="node"><title>Node2</title>
<g id="a_node2"><a xlink:href="d7/d50/classo2_1_1conf_1_1ConfigurableParamHelper.html" target="_top" xlink:title="o2::conf::ConfigurableParam\lHelper\&lt; BazParam \&gt;">
<polygon fill="none" stroke="black" points="200.5,-1127.5 200.5,-1157.5 341.5,-1157.5 341.5,-1127.5 200.5,-1127.5"/>
<text text-anchor="start" x="208.5" y="-1145.5" font-family="Helvetica,sans-Serif" font-size="10.00">o2::conf::ConfigurableParam</text>
<text text-anchor="middle" x="271" y="-1134.5" font-family="Helvetica,sans-Serif" font-size="10.00">Helper&lt; BazParam &gt;</text>
</a>
</g>
</g>
<!-- Node1&#45;&gt;Node2 -->
<g id="edge1" class="edge"><title>Node1&#45;&gt;Node2</title>
<path fill="none" stroke="midnightblue" d="M72.6161,-598.412C77.9564,-686.562 103.738,-1040.74 177,-1118.5 183.403,-1125.3 191.455,-1130.27 200.128,-1133.89"/>
<polygon fill="midnightblue" stroke="midnightblue" points="76.1085,-598.178 72.0294,-588.4 69.1205,-598.587 76.1085,-598.178"/>
</g>
<!-- Node4 -->
<g id="node4" class="node"><title>Node4</title>
<g id="a_node4"><a xlink:href="d7/d50/classo2_1_1conf_1_1ConfigurableParamHelper.html" target="_top" xlink:title="o2::conf::ConfigurableParam\lHelper\&lt; BoxGunParam \&gt;">
<polygon fill="none" stroke="black" points="200.5,-1078.5 200.5,-1108.5 341.5,-1108.5 341.5,-1078.5 200.5,-1078.5"/>
<text text-anchor="start" x="208.5" y="-1096.5" font-family="Helvetica,sans-Serif" font-size="10.00">o2::conf::ConfigurableParam</text>
<text text-anchor="middle" x="271" y="-1085.5" font-family="Helvetica,sans-Serif" font-size="10.00">Helper&lt; BoxGunParam &gt;</text>
</a>
</g>
</g>
<!-- Node1&#45;&gt;Node4 -->
<g id="edge3" class="edge"><title>Node1&#45;&gt;Node4</title>
<path fill="none" stroke="midnightblue" d="M73.0369,-598.425C79.8453,-681.556 109.964,-999.664 177,-1069.5 183.466,-1076.24 191.554,-1081.17 200.244,-1084.78"/>
<polygon fill="midnightblue" stroke="midnightblue" points="76.5137,-597.994 72.2294,-588.304 69.5359,-598.551 76.5137,-597.994"/>
</g>
<!-- Node6 -->
<g id="node6" class="node"><title>Node6</title>
<g id="a_node6"><a xlink:href="d7/d50/classo2_1_1conf_1_1ConfigurableParamHelper.html" target="_top" xlink:title="o2::conf::ConfigurableParam\lHelper\&lt; CalibPedestalParam \&gt;">
<polygon fill="none" stroke="black" points="195,-1029.5 195,-1059.5 347,-1059.5 347,-1029.5 195,-1029.5"/>
<text text-anchor="start" x="203" y="-1047.5" font-family="Helvetica,sans-Serif" font-size="10.00">o2::conf::ConfigurableParam</text>
<text text-anchor="middle" x="271" y="-1036.5" font-family="Helvetica,sans-Serif" font-size="10.00">Helper&lt; CalibPedestalParam &gt;</text>
</a>
</g>
</g>
<!-- Node1&#45;&gt;Node6 -->
<g id="edge5" class="edge"><title>Node1&#45;&gt;Node6</title>
<path fill="none" stroke="midnightblue" d="M73.5426,-598.382C81.9243,-676.153 116.145,-958.524 177,-1020.5 182.14,-1025.74 188.261,-1029.88 194.873,-1033.15"/>
<polygon fill="midnightblue" stroke="midnightblue" points="76.9857,-597.657 72.4559,-588.08 70.0243,-598.392 76.9857,-597.657"/>
</g>
<!-- Node8 -->
<g id="node8" class="node"><title>Node8</title>
<g id="a_node8"><a xlink:href="d7/d50/classo2_1_1conf_1_1ConfigurableParamHelper.html" target="_top" xlink:title="o2::conf::ConfigurableParam\lHelper\&lt; CalibPulserParam \&gt;">
<polygon fill="none" stroke="black" points="200,-980.5 200,-1010.5 342,-1010.5 342,-980.5 200,-980.5"/>
<text text-anchor="start" x="208" y="-998.5" font-family="Helvetica,sans-Serif" font-size="10.00">o2::conf::ConfigurableParam</text>
<text text-anchor="middle" x="271" y="-987.5" font-family="Helvetica,sans-Serif" font-size="10.00">Helper&lt; CalibPulserParam &gt;</text>
</a>
</g>
</g>
<!-- Node1&#45;&gt;Node8 -->
<g id="edge7" class="edge"><title>Node1&#45;&gt;Node8</title>
<path fill="none" stroke="midnightblue" d="M74.1227,-598.009C84.1411,-669.701 122.207,-917.236 177,-971.5 183.398,-977.836 191.235,-982.567 199.619,-986.088"/>
<polygon fill="midnightblue" stroke="midnightblue" points="77.5857,-597.5 72.7574,-588.069 70.6508,-598.452 77.5857,-597.5"/>
</g>
<!-- Node10 -->
<g id="node10" class="node"><title>Node10</title>
<g id="a_node10"><a xlink:href="d7/d50/classo2_1_1conf_1_1ConfigurableParamHelper.html" target="_top" xlink:title="o2::conf::ConfigurableParam\lHelper\&lt; CPVSimParams \&gt;">
<polygon fill="none" stroke="black" points="200.5,-931.5 200.5,-961.5 341.5,-961.5 341.5,-931.5 200.5,-931.5"/>
<text text-anchor="start" x="208.5" y="-949.5" font-family="Helvetica,sans-Serif" font-size="10.00">o2::conf::ConfigurableParam</text>
<text text-anchor="middle" x="271" y="-938.5" font-family="Helvetica,sans-Serif" font-size="10.00">Helper&lt; CPVSimParams &gt;</text>
</a>
</g>
</g>
<!-- Node1&#45;&gt;Node10 -->
<g id="edge9" class="edge"><title>Node1&#45;&gt;Node10</title>
<path fill="none" stroke="midnightblue" d="M71.3022,-598.26C71.8404,-656.891 81.7522,-831.447 177,-922.5 183.629,-928.837 191.703,-933.559 200.294,-937.068"/>
<polygon fill="midnightblue" stroke="midnightblue" points="74.8022,-598.137 71.297,-588.139 67.8022,-598.141 74.8022,-598.137"/>
</g>
<!-- Node12 -->
<g id="node12" class="node"><title>Node12</title>
<g id="a_node12"><a xlink:href="d7/d50/classo2_1_1conf_1_1ConfigurableParamHelper.html" target="_top" xlink:title="o2::conf::ConfigurableParam\lHelper\&lt; DigiParams \&gt;">
<polygon fill="none" stroke="black" points="200.5,-882.5 200.5,-912.5 341.5,-912.5 341.5,-882.5 200.5,-882.5"/>
<text text-anchor="start" x="208.5" y="-900.5" font-family="Helvetica,sans-Serif" font-size="10.00">o2::conf::ConfigurableParam</text>
<text text-anchor="middle" x="271" y="-889.5" font-family="Helvetica,sans-Serif" font-size="10.00">Helper&lt; DigiParams &gt;</text>
</a>
</g>
</g>
<!-- Node1&#45;&gt;Node12 -->
<g id="edge11" class="edge"><title>Node1&#45;&gt;Node12</title>
<path fill="none" stroke="midnightblue" d="M72.4614,-598.219C76.1417,-651.152 93.7345,-797.479 177,-873.5 183.65,-879.571 191.632,-884.149 200.089,-887.593"/>
<polygon fill="midnightblue" stroke="midnightblue" points="75.9494,-597.913 71.8556,-588.141 68.962,-598.333 75.9494,-597.913"/>
</g>
<!-- Node14 -->
<g id="node14" class="node"><title>Node14</title>
<g id="a_node14"><a xlink:href="d7/d50/classo2_1_1conf_1_1ConfigurableParamHelper.html" target="_top" xlink:title="o2::conf::ConfigurableParam\lHelper\&lt; DPLAlpideParam\&lt; N \&gt; \&gt;">
<polygon fill="none" stroke="black" points="189,-833.5 189,-863.5 353,-863.5 353,-833.5 189,-833.5"/>
<text text-anchor="start" x="197" y="-851.5" font-family="Helvetica,sans-Serif" font-size="10.00">o2::conf::ConfigurableParam</text>
<text text-anchor="middle" x="271" y="-840.5" font-family="Helvetica,sans-Serif" font-size="10.00">Helper&lt; DPLAlpideParam&lt; N &gt; &gt;</text>
</a>
</g>
</g>
<!-- Node1&#45;&gt;Node14 -->
<g id="edge13" class="edge"><title>Node1&#45;&gt;Node14</title>
<path fill="none" stroke="midnightblue" d="M74.0103,-598.019C81.0699,-644.638 105.483,-763.14 177,-824.5 180.923,-827.866 185.26,-830.769 189.852,-833.271"/>
<polygon fill="midnightblue" stroke="midnightblue" points="77.4633,-597.439 72.6013,-588.026 70.5318,-598.417 77.4633,-597.439"/>
</g>
<!-- Node16 -->
<g id="node16" class="node"><title>Node16</title>
<g id="a_node16"><a xlink:href="d7/d50/classo2_1_1conf_1_1ConfigurableParamHelper.html" target="_top" xlink:title="o2::conf::ConfigurableParam\lHelper\&lt; DPLDigitizerParam\&lt; N \&gt; \&gt;">
<polygon fill="none" stroke="black" points="184.5,-784.5 184.5,-814.5 357.5,-814.5 357.5,-784.5 184.5,-784.5"/>
<text text-anchor="start" x="192.5" y="-802.5" font-family="Helvetica,sans-Serif" font-size="10.00">o2::conf::ConfigurableParam</text>
<text text-anchor="middle" x="271" y="-791.5" font-family="Helvetica,sans-Serif" font-size="10.00">Helper&lt; DPLDigitizerParam&lt; N &gt; &gt;</text>
</a>
</g>
</g>
<!-- Node1&#45;&gt;Node16 -->
<g id="edge15" class="edge"><title>Node1&#45;&gt;Node16</title>
<path fill="none" stroke="midnightblue" d="M76.2285,-597.833C86.9665,-637.52 117.041,-728.402 177,-775.5 181.327,-778.899 186.084,-781.821 191.088,-784.331"/>
<polygon fill="midnightblue" stroke="midnightblue" points="79.5973,-596.88 73.7038,-588.076 72.8205,-598.634 79.5973,-596.88"/>
</g>
<!-- Node18 -->
<g id="node18" class="node"><title>Node18</title>
<g id="a_node18"><a xlink:href="d7/d50/classo2_1_1conf_1_1ConfigurableParamHelper.html" target="_top" xlink:title="o2::conf::ConfigurableParam\lHelper\&lt; G4Params \&gt;">
<polygon fill="none" stroke="black" points="200.5,-735.5 200.5,-765.5 341.5,-765.5 341.5,-735.5 200.5,-735.5"/>
<text text-anchor="start" x="208.5" y="-753.5" font-family="Helvetica,sans-Serif" font-size="10.00">o2::conf::ConfigurableParam</text>
<text text-anchor="middle" x="271" y="-742.5" font-family="Helvetica,sans-Serif" font-size="10.00">Helper&lt; G4Params &gt;</text>
</a>
</g>
</g>
<!-- Node1&#45;&gt;Node18 -->
<g id="edge17" class="edge"><title>Node1&#45;&gt;Node18</title>
<path fill="none" stroke="midnightblue" d="M79.7918,-597.74C94.5361,-629.601 128.4,-693.106 177,-726.5 184.009,-731.316 191.916,-735.166 200.086,-738.243"/>
<polygon fill="midnightblue" stroke="midnightblue" points="82.8161,-595.931 75.5309,-588.238 76.4288,-598.795 82.8161,-595.931"/>
</g>
<!-- Node20 -->
<g id="node20" class="node"><title>Node20</title>
<g id="a_node20"><a xlink:href="d7/d50/classo2_1_1conf_1_1ConfigurableParamHelper.html" target="_top" xlink:title="o2::conf::ConfigurableParam\lHelper\&lt; GlobalProcessCutSimParam \&gt;">
<polygon fill="none" stroke="black" points="177,-686.5 177,-716.5 365,-716.5 365,-686.5 177,-686.5"/>
<text text-anchor="start" x="185" y="-704.5" font-family="Helvetica,sans-Serif" font-size="10.00">o2::conf::ConfigurableParam</text>
<text text-anchor="middle" x="271" y="-693.5" font-family="Helvetica,sans-Serif" font-size="10.00">Helper&lt; GlobalProcessCutSimParam &gt;</text>
</a>
</g>
</g>
<!-- Node1&#45;&gt;Node20 -->
<g id="edge19" class="edge"><title>Node1&#45;&gt;Node20</title>
<path fill="none" stroke="midnightblue" d="M85.2806,-596.012C103.767,-618.303 138.73,-656.439 177,-677.5 183.282,-680.957 190.077,-683.93 197.036,-686.483"/>
<polygon fill="midnightblue" stroke="midnightblue" points="87.8389,-593.61 78.8204,-588.05 82.403,-598.021 87.8389,-593.61"/>
</g>
<!-- Node22 -->
<g id="node22" class="node"><title>Node22</title>
<g id="a_node22"><a xlink:href="d7/d50/classo2_1_1conf_1_1ConfigurableParamHelper.html" target="_top" xlink:title="o2::conf::ConfigurableParam\lHelper\&lt; HallSimParam \&gt;">
<polygon fill="none" stroke="black" points="200.5,-637.5 200.5,-667.5 341.5,-667.5 341.5,-637.5 200.5,-637.5"/>
<text text-anchor="start" x="208.5" y="-655.5" font-family="Helvetica,sans-Serif" font-size="10.00">o2::conf::ConfigurableParam</text>
<text text-anchor="middle" x="271" y="-644.5" font-family="Helvetica,sans-Serif" font-size="10.00">Helper&lt; HallSimParam &gt;</text>
</a>
</g>
</g>
<!-- Node1&#45;&gt;Node22 -->
<g id="edge21" class="edge"><title>Node1&#45;&gt;Node22</title>
<path fill="none" stroke="midnightblue" d="M97.9203,-592.748C118.905,-603.639 149.237,-618.442 177,-628.5 185.936,-631.737 195.504,-634.723 204.978,-637.408"/>
<polygon fill="midnightblue" stroke="midnightblue" points="99.4596,-589.603 88.9791,-588.051 96.2041,-595.8 99.4596,-589.603"/>
</g>
<!-- Node24 -->
<g id="node24" class="node"><title>Node24</title>
<g id="a_node24"><a xlink:href="d7/d50/classo2_1_1conf_1_1ConfigurableParamHelper.html" target="_top" xlink:title="o2::conf::ConfigurableParam\lHelper\&lt; HwClustererParam \&gt;">
<polygon fill="none" stroke="black" points="198,-588.5 198,-618.5 344,-618.5 344,-588.5 198,-588.5"/>
<text text-anchor="start" x="206" y="-606.5" font-family="Helvetica,sans-Serif" font-size="10.00">o2::conf::ConfigurableParam</text>
<text text-anchor="middle" x="271" y="-595.5" font-family="Helvetica,sans-Serif" font-size="10.00">Helper&lt; HwClustererParam &gt;</text>
</a>
</g>
</g>
<!-- Node1&#45;&gt;Node24 -->
<g id="edge23" class="edge"><title>Node1&#45;&gt;Node24</title>
<path fill="none" stroke="midnightblue" d="M151.207,-588.539C166.597,-590.477 182.639,-592.497 197.773,-594.403"/>
<polygon fill="midnightblue" stroke="midnightblue" points="151.564,-585.056 141.205,-587.279 150.689,-592.001 151.564,-585.056"/>
</g>
<!-- Node26 -->
<g id="node26" class="node"><title>Node26</title>
<g id="a_node26"><a xlink:href="d7/d50/classo2_1_1conf_1_1ConfigurableParamHelper.html" target="_top" xlink:title="o2::conf::ConfigurableParam\lHelper\&lt; InteractionDiamondParam \&gt;">
<polygon fill="none" stroke="black" points="183,-539.5 183,-569.5 359,-569.5 359,-539.5 183,-539.5"/>
<text text-anchor="start" x="191" y="-557.5" font-family="Helvetica,sans-Serif" font-size="10.00">o2::conf::ConfigurableParam</text>
<text text-anchor="middle" x="271" y="-546.5" font-family="Helvetica,sans-Serif" font-size="10.00">Helper&lt; InteractionDiamondParam &gt;</text>
</a>
</g>
</g>
<!-- Node1&#45;&gt;Node26 -->
<g id="edge25" class="edge"><title>Node1&#45;&gt;Node26</title>
<path fill="none" stroke="midnightblue" d="M151.39,-568.841C161.688,-567.596 172.276,-566.315 182.687,-565.057"/>
<polygon fill="midnightblue" stroke="midnightblue" points="150.712,-565.397 141.205,-570.072 151.552,-572.347 150.712,-565.397"/>
</g>
<!-- Node28 -->
<g id="node28" class="node"><title>Node28</title>
<g id="a_node28"><a xlink:href="d7/d50/classo2_1_1conf_1_1ConfigurableParamHelper.html" target="_top" xlink:title="o2::conf::ConfigurableParam\lHelper\&lt; ParameterDetector \&gt;">
<polygon fill="none" stroke="black" points="198,-490.5 198,-520.5 344,-520.5 344,-490.5 198,-490.5"/>
<text text-anchor="start" x="206" y="-508.5" font-family="Helvetica,sans-Serif" font-size="10.00">o2::conf::ConfigurableParam</text>
<text text-anchor="middle" x="271" y="-497.5" font-family="Helvetica,sans-Serif" font-size="10.00">Helper&lt; ParameterDetector &gt;</text>
</a>
</g>
</g>
<!-- Node1&#45;&gt;Node28 -->
<g id="edge27" class="edge"><title>Node1&#45;&gt;Node28</title>
<path fill="none" stroke="midnightblue" d="M99.1524,-564.403C120.137,-554.08 149.902,-540.232 177,-530.5 186.913,-526.94 197.579,-523.618 208.028,-520.632"/>
<polygon fill="midnightblue" stroke="midnightblue" points="97.5649,-561.284 90.1696,-568.871 100.682,-567.551 97.5649,-561.284"/>
</g>
<!-- Node30 -->
<g id="node30" class="node"><title>Node30</title>
<g id="a_node30"><a xlink:href="d7/d50/classo2_1_1conf_1_1ConfigurableParamHelper.html" target="_top" xlink:title="o2::conf::ConfigurableParam\lHelper\&lt; ParameterElectronics \&gt;">
<polygon fill="none" stroke="black" points="192.5,-441.5 192.5,-471.5 349.5,-471.5 349.5,-441.5 192.5,-441.5"/>
<text text-anchor="start" x="200.5" y="-459.5" font-family="Helvetica,sans-Serif" font-size="10.00">o2::conf::ConfigurableParam</text>
<text text-anchor="middle" x="271" y="-448.5" font-family="Helvetica,sans-Serif" font-size="10.00">Helper&lt; ParameterElectronics &gt;</text>
</a>
</g>
</g>
<!-- Node1&#45;&gt;Node30 -->
<g id="edge29" class="edge"><title>Node1&#45;&gt;Node30</title>
<path fill="none" stroke="midnightblue" d="M85.6758,-561.078C104.354,-539.267 139.281,-502.255 177,-481.5 184.031,-477.631 191.695,-474.334 199.507,-471.531"/>
<polygon fill="midnightblue" stroke="midnightblue" points="82.8715,-558.975 79.1283,-568.887 88.2354,-563.473 82.8715,-558.975"/>
</g>
<!-- Node32 -->
<g id="node32" class="node"><title>Node32</title>
<g id="a_node32"><a xlink:href="d7/d50/classo2_1_1conf_1_1ConfigurableParamHelper.html" target="_top" xlink:title="o2::conf::ConfigurableParam\lHelper\&lt; ParameterGas \&gt;">
<polygon fill="none" stroke="black" points="200.5,-392.5 200.5,-422.5 341.5,-422.5 341.5,-392.5 200.5,-392.5"/>
<text text-anchor="start" x="208.5" y="-410.5" font-family="Helvetica,sans-Serif" font-size="10.00">o2::conf::ConfigurableParam</text>
<text text-anchor="middle" x="271" y="-399.5" font-family="Helvetica,sans-Serif" font-size="10.00">Helper&lt; ParameterGas &gt;</text>
</a>
</g>
</g>
<!-- Node1&#45;&gt;Node32 -->
<g id="edge31" class="edge"><title>Node1&#45;&gt;Node32</title>
<path fill="none" stroke="midnightblue" d="M79.8999,-559.572C94.8031,-528.219 128.894,-465.683 177,-432.5 184.019,-427.659 191.932,-423.754 200.105,-420.605"/>
<polygon fill="midnightblue" stroke="midnightblue" points="76.5977,-558.375 75.5889,-568.922 82.9545,-561.306 76.5977,-558.375"/>
</g>
<!-- Node34 -->
<g id="node34" class="node"><title>Node34</title>
<g id="a_node34"><a xlink:href="d7/d50/classo2_1_1conf_1_1ConfigurableParamHelper.html" target="_top" xlink:title="o2::conf::ConfigurableParam\lHelper\&lt; ParameterGEM \&gt;">
<polygon fill="none" stroke="black" points="200.5,-343.5 200.5,-373.5 341.5,-373.5 341.5,-343.5 200.5,-343.5"/>
<text text-anchor="start" x="208.5" y="-361.5" font-family="Helvetica,sans-Serif" font-size="10.00">o2::conf::ConfigurableParam</text>
<text text-anchor="middle" x="271" y="-350.5" font-family="Helvetica,sans-Serif" font-size="10.00">Helper&lt; ParameterGEM &gt;</text>
</a>
</g>
</g>
<!-- Node1&#45;&gt;Node34 -->
<g id="edge33" class="edge"><title>Node1&#45;&gt;Node34</title>
<path fill="none" stroke="midnightblue" d="M76.4806,-558.858C87.5325,-519.375 117.925,-430.181 177,-383.5 183.952,-378.006 192.012,-373.716 200.423,-370.365"/>
<polygon fill="midnightblue" stroke="midnightblue" points="73.0779,-558.035 73.8685,-568.6 79.8391,-559.848 73.0779,-558.035"/>
</g>
<!-- Node36 -->
<g id="node36" class="node"><title>Node36</title>
<g id="a_node36"><a xlink:href="d7/d50/classo2_1_1conf_1_1ConfigurableParamHelper.html" target="_top" xlink:title="o2::conf::ConfigurableParam\lHelper\&lt; PHOSSimParams \&gt;">
<polygon fill="none" stroke="black" points="199.5,-294.5 199.5,-324.5 342.5,-324.5 342.5,-294.5 199.5,-294.5"/>
<text text-anchor="start" x="207.5" y="-312.5" font-family="Helvetica,sans-Serif" font-size="10.00">o2::conf::ConfigurableParam</text>
<text text-anchor="middle" x="271" y="-301.5" font-family="Helvetica,sans-Serif" font-size="10.00">Helper&lt; PHOSSimParams &gt;</text>
</a>
</g>
</g>
<!-- Node1&#45;&gt;Node36 -->
<g id="edge35" class="edge"><title>Node1&#45;&gt;Node36</title>
<path fill="none" stroke="midnightblue" d="M74.1519,-558.866C81.4773,-512.502 106.352,-395.551 177,-334.5 183.578,-328.816 191.321,-324.409 199.484,-320.996"/>
<polygon fill="midnightblue" stroke="midnightblue" points="70.6799,-558.42 72.682,-568.824 77.6049,-559.442 70.6799,-558.42"/>
</g>
<!-- Node38 -->
<g id="node38" class="node"><title>Node38</title>
<g id="a_node38"><a xlink:href="d7/d50/classo2_1_1conf_1_1ConfigurableParamHelper.html" target="_top" xlink:title="o2::conf::ConfigurableParam\lHelper\&lt; QEDGenParam \&gt;">
<polygon fill="none" stroke="black" points="200.5,-245.5 200.5,-275.5 341.5,-275.5 341.5,-245.5 200.5,-245.5"/>
<text text-anchor="start" x="208.5" y="-263.5" font-family="Helvetica,sans-Serif" font-size="10.00">o2::conf::ConfigurableParam</text>
<text text-anchor="middle" x="271" y="-252.5" font-family="Helvetica,sans-Serif" font-size="10.00">Helper&lt; QEDGenParam &gt;</text>
</a>
</g>
</g>
<!-- Node1&#45;&gt;Node38 -->
<g id="edge37" class="edge"><title>Node1&#45;&gt;Node38</title>
<path fill="none" stroke="midnightblue" d="M72.5482,-558.956C76.4459,-506.487 94.5336,-361.39 177,-285.5 183.643,-279.386 191.622,-274.74 200.077,-271.213"/>
<polygon fill="midnightblue" stroke="midnightblue" points="69.055,-558.74 71.8996,-568.946 76.0403,-559.194 69.055,-558.74"/>
</g>
<!-- Node40 -->
<g id="node40" class="node"><title>Node40</title>
<g id="a_node40"><a xlink:href="d7/d50/classo2_1_1conf_1_1ConfigurableParamHelper.html" target="_top" xlink:title="o2::conf::ConfigurableParam\lHelper\&lt; SimCutParams \&gt;">
<polygon fill="none" stroke="black" points="200.5,-196.5 200.5,-226.5 341.5,-226.5 341.5,-196.5 200.5,-196.5"/>
<text text-anchor="start" x="208.5" y="-214.5" font-family="Helvetica,sans-Serif" font-size="10.00">o2::conf::ConfigurableParam</text>
<text text-anchor="middle" x="271" y="-203.5" font-family="Helvetica,sans-Serif" font-size="10.00">Helper&lt; SimCutParams &gt;</text>
</a>
</g>
</g>
<!-- Node1&#45;&gt;Node40 -->
<g id="edge39" class="edge"><title>Node1&#45;&gt;Node40</title>
<path fill="none" stroke="midnightblue" d="M71.3847,-558.896C72.153,-500.721 82.6402,-327.467 177,-236.5 183.62,-230.118 191.688,-225.324 200.277,-221.731"/>
<polygon fill="midnightblue" stroke="midnightblue" points="67.8847,-558.922 71.3387,-568.938 74.8846,-558.954 67.8847,-558.922"/>
</g>
<!-- Node42 -->
<g id="node42" class="node"><title>Node42</title>
<g id="a_node42"><a xlink:href="d7/d50/classo2_1_1conf_1_1ConfigurableParamHelper.html" target="_top" xlink:title="o2::conf::ConfigurableParam\lHelper\&lt; StackParam \&gt;">
<polygon fill="none" stroke="black" points="200.5,-147.5 200.5,-177.5 341.5,-177.5 341.5,-147.5 200.5,-147.5"/>
<text text-anchor="start" x="208.5" y="-165.5" font-family="Helvetica,sans-Serif" font-size="10.00">o2::conf::ConfigurableParam</text>
<text text-anchor="middle" x="271" y="-154.5" font-family="Helvetica,sans-Serif" font-size="10.00">Helper&lt; StackParam &gt;</text>
</a>
</g>
</g>
<!-- Node1&#45;&gt;Node42 -->
<g id="edge41" class="edge"><title>Node1&#45;&gt;Node42</title>
<path fill="none" stroke="midnightblue" d="M74.2179,-558.665C84.4457,-486.827 122.816,-241.633 177,-187.5 183.505,-181.001 191.508,-176.14 200.064,-172.514"/>
<polygon fill="midnightblue" stroke="midnightblue" points="70.6931,-558.6 72.7736,-568.988 77.6256,-559.57 70.6931,-558.6"/>
</g>
<!-- Node44 -->
<g id="node44" class="node"><title>Node44</title>
<g id="a_node44"><a xlink:href="d7/d50/classo2_1_1conf_1_1ConfigurableParamHelper.html" target="_top" xlink:title="o2::conf::ConfigurableParam\lHelper\&lt; TRDSimParams \&gt;">
<polygon fill="none" stroke="black" points="200.5,-98.5 200.5,-128.5 341.5,-128.5 341.5,-98.5 200.5,-98.5"/>
<text text-anchor="start" x="208.5" y="-116.5" font-family="Helvetica,sans-Serif" font-size="10.00">o2::conf::ConfigurableParam</text>
<text text-anchor="middle" x="271" y="-105.5" font-family="Helvetica,sans-Serif" font-size="10.00">Helper&lt; TRDSimParams &gt;</text>
</a>
</g>
</g>
<!-- Node1&#45;&gt;Node44 -->
<g id="edge43" class="edge"><title>Node1&#45;&gt;Node44</title>
<path fill="none" stroke="midnightblue" d="M73.5742,-558.725C82.0753,-481.369 116.685,-200.484 177,-138.5 183.529,-131.79 191.653,-126.819 200.359,-123.148"/>
<polygon fill="midnightblue" stroke="midnightblue" points="70.0617,-558.655 72.4715,-568.972 77.0215,-559.404 70.0617,-558.655"/>
</g>
<!-- Node46 -->
<g id="node46" class="node"><title>Node46</title>
<g id="a_node46"><a xlink:href="d7/d50/classo2_1_1conf_1_1ConfigurableParamHelper.html" target="_top" xlink:title="o2::conf::ConfigurableParam\lHelper\&lt; ZDCSimParam \&gt;">
<polygon fill="none" stroke="black" points="200.5,-49.5 200.5,-79.5 341.5,-79.5 341.5,-49.5 200.5,-49.5"/>
<text text-anchor="start" x="208.5" y="-67.5" font-family="Helvetica,sans-Serif" font-size="10.00">o2::conf::ConfigurableParam</text>
<text text-anchor="middle" x="271" y="-56.5" font-family="Helvetica,sans-Serif" font-size="10.00">Helper&lt; ZDCSimParam &gt;</text>
</a>
</g>
</g>
<!-- Node1&#45;&gt;Node46 -->
<g id="edge45" class="edge"><title>Node1&#45;&gt;Node46</title>
<path fill="none" stroke="midnightblue" d="M73.0676,-558.673C79.9997,-475.948 110.546,-159.371 177,-89.5 183.452,-82.7158 191.532,-77.7034 200.218,-74.0123"/>
<polygon fill="midnightblue" stroke="midnightblue" points="69.5708,-558.492 72.2448,-568.744 76.5475,-559.062 69.5708,-558.492"/>
</g>
<!-- Node48 -->
<g id="node48" class="node"><title>Node48</title>
<g id="a_node48"><a xlink:href="d7/d50/classo2_1_1conf_1_1ConfigurableParamHelper.html" target="_top" xlink:title="o2::conf::ConfigurableParam\lHelper\&lt; P \&gt;">
<polygon fill="none" stroke="black" points="200.5,-0.5 200.5,-30.5 341.5,-30.5 341.5,-0.5 200.5,-0.5"/>
<text text-anchor="start" x="208.5" y="-18.5" font-family="Helvetica,sans-Serif" font-size="10.00">o2::conf::ConfigurableParam</text>
<text text-anchor="middle" x="271" y="-7.5" font-family="Helvetica,sans-Serif" font-size="10.00">Helper&lt; P &gt;</text>
</a>
</g>
</g>
<!-- Node1&#45;&gt;Node48 -->
<g id="edge47" class="edge"><title>Node1&#45;&gt;Node48</title>
<path fill="none" stroke="midnightblue" d="M72.6627,-558.409C78.1676,-470.209 104.437,-118.249 177,-40.5 183.388,-33.6553 191.432,-28.6088 200.101,-24.9015"/>
<polygon fill="midnightblue" stroke="midnightblue" points="69.1538,-558.453 72.0445,-568.645 76.1411,-558.875 69.1538,-558.453"/>
</g>
<!-- Node3 -->
<g id="node3" class="node"><title>Node3</title>
<g id="a_node3"><a xlink:href="df/d57/classBazParam.html" target="_top" xlink:title="BazParam">
<polygon fill="none" stroke="black" points="452,-1133 452,-1152 514,-1152 514,-1133 452,-1133"/>
<text text-anchor="middle" x="483" y="-1140" font-family="Helvetica,sans-Serif" font-size="10.00">BazParam</text>
</a>
</g>
</g>
<!-- Node2&#45;&gt;Node3 -->
<g id="edge2" class="edge"><title>Node2&#45;&gt;Node3</title>
<path fill="none" stroke="midnightblue" d="M351.855,-1142.5C386.811,-1142.5 425.717,-1142.5 451.806,-1142.5"/>
<polygon fill="midnightblue" stroke="midnightblue" points="351.635,-1139 341.635,-1142.5 351.635,-1146 351.635,-1139"/>
</g>
<!-- Node5 -->
<g id="node5" class="node"><title>Node5</title>
<g id="a_node5"><a xlink:href="d4/dae/structo2_1_1eventgen_1_1BoxGunParam.html" target="_top" xlink:title="o2::eventgen::BoxGunParam">
<polygon fill="none" stroke="black" points="411.5,-1084 411.5,-1103 554.5,-1103 554.5,-1084 411.5,-1084"/>
<text text-anchor="middle" x="483" y="-1091" font-family="Helvetica,sans-Serif" font-size="10.00">o2::eventgen::BoxGunParam</text>
</a>
</g>
</g>
<!-- Node4&#45;&gt;Node5 -->
<g id="edge4" class="edge"><title>Node4&#45;&gt;Node5</title>
<path fill="none" stroke="midnightblue" d="M351.776,-1093.5C371.417,-1093.5 392.309,-1093.5 411.477,-1093.5"/>
<polygon fill="midnightblue" stroke="midnightblue" points="351.635,-1090 341.635,-1093.5 351.635,-1097 351.635,-1090"/>
</g>
<!-- Node7 -->
<g id="node7" class="node"><title>Node7</title>
<g id="a_node7"><a xlink:href="dc/da3/structo2_1_1tpc_1_1CalibPedestalParam.html" target="_top" xlink:title="o2::tpc::CalibPedestalParam">
<polygon fill="none" stroke="black" points="412,-1035 412,-1054 554,-1054 554,-1035 412,-1035"/>
<text text-anchor="middle" x="483" y="-1042" font-family="Helvetica,sans-Serif" font-size="10.00">o2::tpc::CalibPedestalParam</text>
</a>
</g>
</g>
<!-- Node6&#45;&gt;Node7 -->
<g id="edge6" class="edge"><title>Node6&#45;&gt;Node7</title>
<path fill="none" stroke="midnightblue" d="M357.462,-1044.5C375.542,-1044.5 394.423,-1044.5 411.858,-1044.5"/>
<polygon fill="midnightblue" stroke="midnightblue" points="357.222,-1041 347.222,-1044.5 357.222,-1048 357.222,-1041"/>
</g>
<!-- Node9 -->
<g id="node9" class="node"><title>Node9</title>
<g id="a_node9"><a xlink:href="d6/d3e/structo2_1_1tpc_1_1CalibPulserParam.html" target="_top" xlink:title="o2::tpc::CalibPulserParam">
<polygon fill="none" stroke="black" points="417.5,-986 417.5,-1005 548.5,-1005 548.5,-986 417.5,-986"/>
<text text-anchor="middle" x="483" y="-993" font-family="Helvetica,sans-Serif" font-size="10.00">o2::tpc::CalibPulserParam</text>
</a>
</g>
</g>
<!-- Node8&#45;&gt;Node9 -->
<g id="edge8" class="edge"><title>Node8&#45;&gt;Node9</title>
<path fill="none" stroke="midnightblue" d="M352.287,-995.5C373.742,-995.5 396.656,-995.5 417.164,-995.5"/>
<polygon fill="midnightblue" stroke="midnightblue" points="352.219,-992 342.219,-995.5 352.219,-999 352.219,-992"/>
</g>
<!-- Node11 -->
<g id="node11" class="node"><title>Node11</title>
<g id="a_node11"><a xlink:href="df/ddb/structo2_1_1cpv_1_1CPVSimParams.html" target="_top" xlink:title="o2::cpv::CPVSimParams">
<polygon fill="none" stroke="black" points="419.5,-937 419.5,-956 546.5,-956 546.5,-937 419.5,-937"/>
<text text-anchor="middle" x="483" y="-944" font-family="Helvetica,sans-Serif" font-size="10.00">o2::cpv::CPVSimParams</text>
</a>
</g>
</g>
<!-- Node10&#45;&gt;Node11 -->
<g id="edge10" class="edge"><title>Node10&#45;&gt;Node11</title>
<path fill="none" stroke="midnightblue" d="M351.771,-946.5C374.112,-946.5 398.073,-946.5 419.274,-946.5"/>
<polygon fill="midnightblue" stroke="midnightblue" points="351.635,-943 341.635,-946.5 351.635,-950 351.635,-943"/>
</g>
<!-- Node13 -->
<g id="node13" class="node"><title>Node13</title>
<g id="a_node13"><a xlink:href="db/d97/structo2_1_1conf_1_1DigiParams.html" target="_top" xlink:title="o2::conf::DigiParams">
<polygon fill="none" stroke="black" points="428.5,-888 428.5,-907 537.5,-907 537.5,-888 428.5,-888"/>
<text text-anchor="middle" x="483" y="-895" font-family="Helvetica,sans-Serif" font-size="10.00">o2::conf::DigiParams</text>
</a>
</g>
</g>
<!-- Node12&#45;&gt;Node13 -->
<g id="edge12" class="edge"><title>Node12&#45;&gt;Node13</title>
<path fill="none" stroke="midnightblue" d="M351.684,-897.5C377.239,-897.5 404.922,-897.5 428.173,-897.5"/>
<polygon fill="midnightblue" stroke="midnightblue" points="351.635,-894 341.635,-897.5 351.635,-901 351.635,-894"/>
</g>
<!-- Node15 -->
<g id="node15" class="node"><title>Node15</title>
<g id="a_node15"><a xlink:href="d0/de2/structo2_1_1itsmft_1_1DPLAlpideParam.html" target="_top" xlink:title="o2::itsmft::DPLAlpideParam\&lt; N \&gt;">
<polygon fill="none" stroke="black" points="401,-839 401,-858 565,-858 565,-839 401,-839"/>
<text text-anchor="middle" x="483" y="-846" font-family="Helvetica,sans-Serif" font-size="10.00">o2::itsmft::DPLAlpideParam&lt; N &gt;</text>
</a>
</g>
</g>
<!-- Node14&#45;&gt;Node15 -->
<g id="edge14" class="edge"><title>Node14&#45;&gt;Node15</title>
<path fill="none" stroke="midnightblue" d="M363.507,-848.5C375.878,-848.5 388.502,-848.5 400.678,-848.5"/>
<polygon fill="midnightblue" stroke="midnightblue" points="363.192,-845 353.191,-848.5 363.191,-852 363.192,-845"/>
</g>
<!-- Node17 -->
<g id="node17" class="node"><title>Node17</title>
<g id="a_node17"><a xlink:href="d9/d44/structo2_1_1itsmft_1_1DPLDigitizerParam.html" target="_top" xlink:title="o2::itsmft::DPLDigitizer\lParam\&lt; N \&gt;">
<polygon fill="none" stroke="black" points="423.5,-784.5 423.5,-814.5 542.5,-814.5 542.5,-784.5 423.5,-784.5"/>
<text text-anchor="start" x="431.5" y="-802.5" font-family="Helvetica,sans-Serif" font-size="10.00">o2::itsmft::DPLDigitizer</text>
<text text-anchor="middle" x="483" y="-791.5" font-family="Helvetica,sans-Serif" font-size="10.00">Param&lt; N &gt;</text>
</a>
</g>
</g>
<!-- Node16&#45;&gt;Node17 -->
<g id="edge16" class="edge"><title>Node16&#45;&gt;Node17</title>
<path fill="none" stroke="midnightblue" d="M367.841,-799.5C386.713,-799.5 405.984,-799.5 423.188,-799.5"/>
<polygon fill="midnightblue" stroke="midnightblue" points="367.718,-796 357.718,-799.5 367.718,-803 367.718,-796"/>
</g>
<!-- Node19 -->
<g id="node19" class="node"><title>Node19</title>
<g id="a_node19"><a xlink:href="dc/da3/structo2_1_1conf_1_1G4Params.html" target="_top" xlink:title="o2::conf::G4Params">
<polygon fill="none" stroke="black" points="431,-741 431,-760 535,-760 535,-741 431,-741"/>
<text text-anchor="middle" x="483" y="-748" font-family="Helvetica,sans-Serif" font-size="10.00">o2::conf::G4Params</text>
</a>
</g>
</g>
<!-- Node18&#45;&gt;Node19 -->
<g id="edge18" class="edge"><title>Node18&#45;&gt;Node19</title>
<path fill="none" stroke="midnightblue" d="M351.679,-750.5C378.217,-750.5 407.049,-750.5 430.832,-750.5"/>
<polygon fill="midnightblue" stroke="midnightblue" points="351.635,-747 341.635,-750.5 351.635,-754 351.635,-747"/>
</g>
<!-- Node21 -->
<g id="node21" class="node"><title>Node21</title>
<g id="a_node21"><a xlink:href="d6/dff/structo2_1_1GlobalProcessCutSimParam.html" target="_top" xlink:title="o2::GlobalProcessCutSimParam">
<polygon fill="none" stroke="black" points="404,-692 404,-711 562,-711 562,-692 404,-692"/>
<text text-anchor="middle" x="483" y="-699" font-family="Helvetica,sans-Serif" font-size="10.00">o2::GlobalProcessCutSimParam</text>
</a>
</g>
</g>
<!-- Node20&#45;&gt;Node21 -->
<g id="edge20" class="edge"><title>Node20&#45;&gt;Node21</title>
<path fill="none" stroke="midnightblue" d="M375.074,-701.5C384.737,-701.5 394.421,-701.5 403.8,-701.5"/>
<polygon fill="midnightblue" stroke="midnightblue" points="375.026,-698 365.026,-701.5 375.026,-705 375.026,-698"/>
</g>
<!-- Node23 -->
<g id="node23" class="node"><title>Node23</title>
<g id="a_node23"><a xlink:href="da/d14/structo2_1_1passive_1_1HallSimParam.html" target="_top" xlink:title="o2::passive::HallSimParam">
<polygon fill="none" stroke="black" points="415,-643 415,-662 551,-662 551,-643 415,-643"/>
<text text-anchor="middle" x="483" y="-650" font-family="Helvetica,sans-Serif" font-size="10.00">o2::passive::HallSimParam</text>
</a>
</g>
</g>
<!-- Node22&#45;&gt;Node23 -->
<g id="edge22" class="edge"><title>Node22&#45;&gt;Node23</title>
<path fill="none" stroke="midnightblue" d="M351.702,-652.5C372.468,-652.5 394.638,-652.5 414.693,-652.5"/>
<polygon fill="midnightblue" stroke="midnightblue" points="351.635,-649 341.635,-652.5 351.635,-656 351.635,-649"/>
</g>
<!-- Node25 -->
<g id="node25" class="node"><title>Node25</title>
<g id="a_node25"><a xlink:href="d3/dbf/structo2_1_1tpc_1_1HwClustererParam.html" target="_top" xlink:title="o2::tpc::HwClustererParam">
<polygon fill="none" stroke="black" points="415,-594 415,-613 551,-613 551,-594 415,-594"/>
<text text-anchor="middle" x="483" y="-601" font-family="Helvetica,sans-Serif" font-size="10.00">o2::tpc::HwClustererParam</text>
</a>
</g>
</g>
<!-- Node24&#45;&gt;Node25 -->
<g id="edge24" class="edge"><title>Node24&#45;&gt;Node25</title>
<path fill="none" stroke="midnightblue" d="M354.328,-603.5C374.398,-603.5 395.629,-603.5 414.894,-603.5"/>
<polygon fill="midnightblue" stroke="midnightblue" points="354.27,-600 344.27,-603.5 354.27,-607 354.27,-600"/>
</g>
<!-- Node27 -->
<g id="node27" class="node"><title>Node27</title>
<g id="a_node27"><a xlink:href="d4/dcf/structo2_1_1eventgen_1_1InteractionDiamondParam.html" target="_top" xlink:title="o2::eventgen::Interaction\lDiamondParam">
<polygon fill="none" stroke="black" points="420.5,-539.5 420.5,-569.5 545.5,-569.5 545.5,-539.5 420.5,-539.5"/>
<text text-anchor="start" x="428.5" y="-557.5" font-family="Helvetica,sans-Serif" font-size="10.00">o2::eventgen::Interaction</text>
<text text-anchor="middle" x="483" y="-546.5" font-family="Helvetica,sans-Serif" font-size="10.00">DiamondParam</text>
</a>
</g>
</g>
<!-- Node26&#45;&gt;Node27 -->
<g id="edge26" class="edge"><title>Node26&#45;&gt;Node27</title>
<path fill="none" stroke="midnightblue" d="M369.39,-554.5C386.717,-554.5 404.322,-554.5 420.304,-554.5"/>
<polygon fill="midnightblue" stroke="midnightblue" points="369.235,-551 359.235,-554.5 369.234,-558 369.235,-551"/>
</g>
<!-- Node29 -->
<g id="node29" class="node"><title>Node29</title>
<g id="a_node29"><a xlink:href="d1/dee/structo2_1_1tpc_1_1ParameterDetector.html" target="_top" xlink:title="o2::tpc::ParameterDetector">
<polygon fill="none" stroke="black" points="415.5,-496 415.5,-515 550.5,-515 550.5,-496 415.5,-496"/>
<text text-anchor="middle" x="483" y="-503" font-family="Helvetica,sans-Serif" font-size="10.00">o2::tpc::ParameterDetector</text>
</a>
</g>
</g>
<!-- Node28&#45;&gt;Node29 -->
<g id="edge28" class="edge"><title>Node28&#45;&gt;Node29</title>
<path fill="none" stroke="midnightblue" d="M354.381,-505.5C374.557,-505.5 395.903,-505.5 415.244,-505.5"/>
<polygon fill="midnightblue" stroke="midnightblue" points="354.27,-502 344.27,-505.5 354.27,-509 354.27,-502"/>
</g>
<!-- Node31 -->
<g id="node31" class="node"><title>Node31</title>
<g id="a_node31"><a xlink:href="df/d41/structo2_1_1tpc_1_1ParameterElectronics.html" target="_top" xlink:title="o2::tpc::ParameterElectronics">
<polygon fill="none" stroke="black" points="410,-447 410,-466 556,-466 556,-447 410,-447"/>
<text text-anchor="middle" x="483" y="-454" font-family="Helvetica,sans-Serif" font-size="10.00">o2::tpc::ParameterElectronics</text>
</a>
</g>
</g>
<!-- Node30&#45;&gt;Node31 -->
<g id="edge30" class="edge"><title>Node30&#45;&gt;Node31</title>
<path fill="none" stroke="midnightblue" d="M359.889,-456.5C376.561,-456.5 393.825,-456.5 409.938,-456.5"/>
<polygon fill="midnightblue" stroke="midnightblue" points="359.6,-453 349.6,-456.5 359.6,-460 359.6,-453"/>
</g>
<!-- Node33 -->
<g id="node33" class="node"><title>Node33</title>
<g id="a_node33"><a xlink:href="d8/d0f/structo2_1_1tpc_1_1ParameterGas.html" target="_top" xlink:title="o2::tpc::ParameterGas">
<polygon fill="none" stroke="black" points="425,-398 425,-417 541,-417 541,-398 425,-398"/>
<text text-anchor="middle" x="483" y="-405" font-family="Helvetica,sans-Serif" font-size="10.00">o2::tpc::ParameterGas</text>
</a>
</g>
</g>
<!-- Node32&#45;&gt;Node33 -->
<g id="edge32" class="edge"><title>Node32&#45;&gt;Node33</title>
<path fill="none" stroke="midnightblue" d="M351.903,-407.5C376.17,-407.5 402.337,-407.5 424.795,-407.5"/>
<polygon fill="midnightblue" stroke="midnightblue" points="351.635,-404 341.635,-407.5 351.635,-411 351.635,-404"/>
</g>
<!-- Node35 -->
<g id="node35" class="node"><title>Node35</title>
<g id="a_node35"><a xlink:href="d2/d3e/structo2_1_1tpc_1_1ParameterGEM.html" target="_top" xlink:title="o2::tpc::ParameterGEM">
<polygon fill="none" stroke="black" points="423,-349 423,-368 543,-368 543,-349 423,-349"/>
<text text-anchor="middle" x="483" y="-356" font-family="Helvetica,sans-Serif" font-size="10.00">o2::tpc::ParameterGEM</text>
</a>
</g>
</g>
<!-- Node34&#45;&gt;Node35 -->
<g id="edge34" class="edge"><title>Node34&#45;&gt;Node35</title>
<path fill="none" stroke="midnightblue" d="M351.943,-358.5C375.463,-358.5 400.763,-358.5 422.741,-358.5"/>
<polygon fill="midnightblue" stroke="midnightblue" points="351.635,-355 341.635,-358.5 351.635,-362 351.635,-355"/>
</g>
<!-- Node37 -->
<g id="node37" class="node"><title>Node37</title>
<g id="a_node37"><a xlink:href="d1/d8d/structo2_1_1phos_1_1PHOSSimParams.html" target="_top" xlink:title="o2::phos::PHOSSimParams">
<polygon fill="none" stroke="black" points="413,-300 413,-319 553,-319 553,-300 413,-300"/>
<text text-anchor="middle" x="483" y="-307" font-family="Helvetica,sans-Serif" font-size="10.00">o2::phos::PHOSSimParams</text>
</a>
</g>
</g>
<!-- Node36&#45;&gt;Node37 -->
<g id="edge36" class="edge"><title>Node36&#45;&gt;Node37</title>
<path fill="none" stroke="midnightblue" d="M352.736,-309.5C372.531,-309.5 393.543,-309.5 412.745,-309.5"/>
<polygon fill="midnightblue" stroke="midnightblue" points="352.511,-306 342.511,-309.5 352.511,-313 352.511,-306"/>
</g>
<!-- Node39 -->
<g id="node39" class="node"><title>Node39</title>
<g id="a_node39"><a xlink:href="dc/d36/structo2_1_1eventgen_1_1QEDGenParam.html" target="_top" xlink:title="o2::eventgen::QEDGenParam">
<polygon fill="none" stroke="black" points="409.5,-251 409.5,-270 556.5,-270 556.5,-251 409.5,-251"/>
<text text-anchor="middle" x="483" y="-258" font-family="Helvetica,sans-Serif" font-size="10.00">o2::eventgen::QEDGenParam</text>
</a>
</g>
</g>
<!-- Node38&#45;&gt;Node39 -->
<g id="edge38" class="edge"><title>Node38&#45;&gt;Node39</title>
<path fill="none" stroke="midnightblue" d="M351.71,-260.5C370.634,-260.5 390.723,-260.5 409.315,-260.5"/>
<polygon fill="midnightblue" stroke="midnightblue" points="351.635,-257 341.635,-260.5 351.635,-264 351.635,-257"/>
</g>
<!-- Node41 -->
<g id="node41" class="node"><title>Node41</title>
<g id="a_node41"><a xlink:href="d7/d2f/structo2_1_1conf_1_1SimCutParams.html" target="_top" xlink:title="o2::conf::SimCutParams">
<polygon fill="none" stroke="black" points="420.5,-202 420.5,-221 545.5,-221 545.5,-202 420.5,-202"/>
<text text-anchor="middle" x="483" y="-209" font-family="Helvetica,sans-Serif" font-size="10.00">o2::conf::SimCutParams</text>
</a>
</g>
</g>
<!-- Node40&#45;&gt;Node41 -->
<g id="edge40" class="edge"><title>Node40&#45;&gt;Node41</title>
<path fill="none" stroke="midnightblue" d="M351.917,-211.5C374.585,-211.5 398.909,-211.5 420.32,-211.5"/>
<polygon fill="midnightblue" stroke="midnightblue" points="351.635,-208 341.635,-211.5 351.635,-215 351.635,-208"/>
</g>
<!-- Node43 -->
<g id="node43" class="node"><title>Node43</title>
<g id="a_node43"><a xlink:href="da/d0d/structo2_1_1sim_1_1StackParam.html" target="_top" xlink:title="o2::sim::StackParam">
<polygon fill="none" stroke="black" points="428.5,-153 428.5,-172 537.5,-172 537.5,-153 428.5,-153"/>
<text text-anchor="middle" x="483" y="-160" font-family="Helvetica,sans-Serif" font-size="10.00">o2::sim::StackParam</text>
</a>
</g>
</g>
<!-- Node42&#45;&gt;Node43 -->
<g id="edge42" class="edge"><title>Node42&#45;&gt;Node43</title>
<path fill="none" stroke="midnightblue" d="M351.684,-162.5C377.239,-162.5 404.922,-162.5 428.173,-162.5"/>
<polygon fill="midnightblue" stroke="midnightblue" points="351.635,-159 341.635,-162.5 351.635,-166 351.635,-159"/>
</g>
<!-- Node45 -->
<g id="node45" class="node"><title>Node45</title>
<g id="a_node45"><a xlink:href="d2/d2a/structo2_1_1trd_1_1TRDSimParams.html" target="_top" xlink:title="o2::trd::TRDSimParams">
<polygon fill="none" stroke="black" points="422,-104 422,-123 544,-123 544,-104 422,-104"/>
<text text-anchor="middle" x="483" y="-111" font-family="Helvetica,sans-Serif" font-size="10.00">o2::trd::TRDSimParams</text>
</a>
</g>
</g>
<!-- Node44&#45;&gt;Node45 -->
<g id="edge44" class="edge"><title>Node44&#45;&gt;Node45</title>
<path fill="none" stroke="midnightblue" d="M351.801,-113.5C374.992,-113.5 399.927,-113.5 421.707,-113.5"/>
<polygon fill="midnightblue" stroke="midnightblue" points="351.635,-110 341.635,-113.5 351.635,-117 351.635,-110"/>
</g>
<!-- Node47 -->
<g id="node47" class="node"><title>Node47</title>
<g id="a_node47"><a xlink:href="d1/d11/structo2_1_1zdc_1_1ZDCSimParam.html" target="_top" xlink:title="o2::zdc::ZDCSimParam">
<polygon fill="none" stroke="black" points="422,-55 422,-74 544,-74 544,-55 422,-55"/>
<text text-anchor="middle" x="483" y="-62" font-family="Helvetica,sans-Serif" font-size="10.00">o2::zdc::ZDCSimParam</text>
</a>
</g>
</g>
<!-- Node46&#45;&gt;Node47 -->
<g id="edge46" class="edge"><title>Node46&#45;&gt;Node47</title>
<path fill="none" stroke="midnightblue" d="M351.801,-64.5C374.992,-64.5 399.927,-64.5 421.707,-64.5"/>
<polygon fill="midnightblue" stroke="midnightblue" points="351.635,-61.0001 341.635,-64.5 351.635,-68.0001 351.635,-61.0001"/>
</g>
</g>
</svg>
