<?xml version="1.0" encoding="UTF-8" standalone="no"?>
<!DOCTYPE svg PUBLIC "-//W3C//DTD SVG 1.1//EN"
 "http://www.w3.org/Graphics/SVG/1.1/DTD/svg11.dtd">
<!-- Generated by graphviz version 2.38.0 (20140413.2041)
 -->
<!-- Title: o2::framework::DataProcessorSpec Pages: 1 -->
<!--zoomable 397 -->
<svg id="main" version="1.1" xmlns="http://www.w3.org/2000/svg" xmlns:xlink="http://www.w3.org/1999/xlink" xml:space="preserve" onload="init(evt)">
<style type="text/css"><![CDATA[
.edge:hover path { stroke: red; }
.edge:hover polygon { stroke: red; fill: red; }
]]></style>
<script type="text/javascript"><![CDATA[
var edges = document.getElementsByTagName('g');
if (edges && edges.length) {
  for (var i=0;i<edges.length;i++) {
    if (edges[i].id.substr(0,4)=='edge') {
      edges[i].setAttribute('class','edge');
    }
  }
}
]]></script>
        <defs>
                <circle id="rim" cx="0" cy="0" r="7"/>
                <circle id="rim2" cx="0" cy="0" r="3.5"/>
                <g id="zoomPlus">
                        <use xlink:href="#rim" fill="#404040">
                                <set attributeName="fill" to="#808080" begin="zoomplus.mouseover" end="zoomplus.mouseout"/>
                        </use>
                        <path d="M-4,0h8M0,-4v8" fill="none" stroke="white" stroke-width="1.5" pointer-events="none"/>
                </g>
                <g id="zoomMin">
                        <use xlink:href="#rim" fill="#404040">
                                <set attributeName="fill" to="#808080" begin="zoomminus.mouseover" end="zoomminus.mouseout"/>
                        </use>
                        <path d="M-4,0h8" fill="none" stroke="white" stroke-width="1.5" pointer-events="none"/>
                </g>
                <g id="dirArrow">
                        <path fill="none" stroke="white" stroke-width="1.5" d="M0,-3.0v7 M-2.5,-0.5L0,-3.0L2.5,-0.5"/>
                </g>
               <g id="resetDef">
                       <use xlink:href="#rim2" fill="#404040">
                               <set attributeName="fill" to="#808080" begin="reset.mouseover" end="reset.mouseout"/>
                       </use>
               </g>
        </defs>

<script type="text/javascript">
var viewWidth = 1034;
var viewHeight = 397;
var sectionId = 'dynsection-0';
</script>
<script xlink:href="../../svgpan.js"/>
<svg id="graph" class="graph">
<g id="viewport">
<title>o2::framework::DataProcessorSpec</title>
<!-- Node1 -->
<g id="node1" class="node"><title>Node1</title>
<polygon fill="#bfbfbf" stroke="black" points="402.5,-0.5 402.5,-57.5 575.5,-57.5 575.5,-0.5 402.5,-0.5"/>
<text text-anchor="middle" x="489" y="-45.5" font-family="Helvetica,sans-Serif" font-size="10.00">o2::framework::DataProcessorSpec</text>
<polyline fill="none" stroke="black" points="402.5,-38.5 575.5,-38.5 "/>
<text text-anchor="middle" x="489" y="-26.5" font-family="Helvetica,sans-Serif" font-size="10.00"> </text>
<polyline fill="none" stroke="black" points="402.5,-19.5 575.5,-19.5 "/>
<text text-anchor="middle" x="489" y="-7.5" font-family="Helvetica,sans-Serif" font-size="10.00"> </text>
</g>
<!-- Node2 -->
<g id="node2" class="node"><title>Node2</title>
<polygon fill="none" stroke="#bfbfbf" points="0,-177 0,-234 106,-234 106,-177 0,-177"/>
<text text-anchor="middle" x="53" y="-222" font-family="Helvetica,sans-Serif" font-size="10.00">vector&lt; InputSpec &gt;</text>
<polyline fill="none" stroke="#bfbfbf" points="0,-215 106,-215 "/>
<text text-anchor="middle" x="53" y="-203" font-family="Helvetica,sans-Serif" font-size="10.00"> </text>
<polyline fill="none" stroke="#bfbfbf" points="0,-196 106,-196 "/>
<text text-anchor="middle" x="53" y="-184" font-family="Helvetica,sans-Serif" font-size="10.00"> </text>
</g>
<!-- Node2&#45;&gt;Node1 -->
<g id="edge1" class="edge"><title>Node2&#45;&gt;Node1</title>
<path fill="none" stroke="#404040" d="M75.965,-176.717C87.0663,-164.147 101,-149.554 115,-138 155.042,-104.955 165.46,-94.4162 214,-76 270.264,-54.6535 336.733,-43.1916 390.228,-37.048"/>
<polygon fill="none" stroke="#404040" points="390.553,-37.0125 396.082,-32.3835 402.481,-35.707 396.952,-40.336 390.553,-37.0125"/>
<text text-anchor="middle" x="232" y="-95.5" font-family="Helvetica,sans-Serif" font-size="10.00"> +inputs</text>
</g>
<!-- Node3 -->
<g id="node3" class="node"><title>Node3</title>
<polygon fill="none" stroke="#bfbfbf" points="124,-171.5 124,-239.5 244,-239.5 244,-171.5 124,-171.5"/>
<text text-anchor="start" x="132" y="-227.5" font-family="Helvetica,sans-Serif" font-size="10.00">vector&lt; o2::framework</text>
<text text-anchor="middle" x="184" y="-216.5" font-family="Helvetica,sans-Serif" font-size="10.00">::DataProcessorLabel &gt;</text>
<polyline fill="none" stroke="#bfbfbf" points="124,-209.5 244,-209.5 "/>
<text text-anchor="middle" x="184" y="-197.5" font-family="Helvetica,sans-Serif" font-size="10.00"> </text>
<polyline fill="none" stroke="#bfbfbf" points="124,-190.5 244,-190.5 "/>
<text text-anchor="middle" x="184" y="-178.5" font-family="Helvetica,sans-Serif" font-size="10.00"> </text>
</g>
<!-- Node3&#45;&gt;Node1 -->
<g id="edge2" class="edge"><title>Node3&#45;&gt;Node1</title>
<path fill="none" stroke="#404040" d="M206.975,-171.225C229.024,-141.817 264.964,-99.9776 306,-76 331.492,-61.105 361.715,-50.9964 390.18,-44.1502"/>
<polygon fill="none" stroke="#404040" points="390.55,-44.0663 395.516,-38.8379 402.253,-41.4113 397.286,-46.6397 390.55,-44.0663"/>
<text text-anchor="middle" x="323.5" y="-95.5" font-family="Helvetica,sans-Serif" font-size="10.00"> +labels</text>
</g>
<!-- Node4 -->
<g id="node4" class="node"><title>Node4</title>
<polygon fill="none" stroke="#bfbfbf" points="262.5,-177 262.5,-234 367.5,-234 367.5,-177 262.5,-177"/>
<text text-anchor="middle" x="315" y="-222" font-family="Helvetica,sans-Serif" font-size="10.00">vector&lt; std::string &gt;</text>
<polyline fill="none" stroke="#bfbfbf" points="262.5,-215 367.5,-215 "/>
<text text-anchor="middle" x="315" y="-203" font-family="Helvetica,sans-Serif" font-size="10.00"> </text>
<polyline fill="none" stroke="#bfbfbf" points="262.5,-196 367.5,-196 "/>
<text text-anchor="middle" x="315" y="-184" font-family="Helvetica,sans-Serif" font-size="10.00"> </text>
</g>
<!-- Node4&#45;&gt;Node1 -->
<g id="edge3" class="edge"><title>Node4&#45;&gt;Node1</title>
<path fill="none" stroke="#404040" d="M321.718,-176.891C330.013,-148.182 346.743,-103.646 376,-76 380.859,-71.4084 386.238,-67.2499 391.934,-63.4873"/>
<polygon fill="none" stroke="#404040" points="392.206,-63.3237 395.283,-56.8021 402.486,-57.1343 399.409,-63.6559 392.206,-63.3237"/>
<text text-anchor="middle" x="417" y="-95.5" font-family="Helvetica,sans-Serif" font-size="10.00"> +requiredServices</text>
</g>
<!-- Node5 -->
<g id="node5" class="node"><title>Node5</title>
<polygon fill="none" stroke="#bfbfbf" points="385.5,-177 385.5,-234 498.5,-234 498.5,-177 385.5,-177"/>
<text text-anchor="middle" x="442" y="-222" font-family="Helvetica,sans-Serif" font-size="10.00">vector&lt; OutputSpec &gt;</text>
<polyline fill="none" stroke="#bfbfbf" points="385.5,-215 498.5,-215 "/>
<text text-anchor="middle" x="442" y="-203" font-family="Helvetica,sans-Serif" font-size="10.00"> </text>
<polyline fill="none" stroke="#bfbfbf" points="385.5,-196 498.5,-196 "/>
<text text-anchor="middle" x="442" y="-184" font-family="Helvetica,sans-Serif" font-size="10.00"> </text>
</g>
<!-- Node5&#45;&gt;Node1 -->
<g id="edge4" class="edge"><title>Node5&#45;&gt;Node1</title>
<path fill="none" stroke="#404040" d="M447.876,-176.719C453.605,-150.552 462.909,-110.349 473,-76 473.661,-73.7488 474.367,-71.4451 475.1,-69.1267"/>
<polygon fill="none" stroke="#404040" points="475.148,-68.9828 473.232,-62.0309 478.912,-57.5884 480.828,-64.5403 475.148,-68.9828"/>
<text text-anchor="middle" x="494" y="-95.5" font-family="Helvetica,sans-Serif" font-size="10.00"> +outputs</text>
</g>
<!-- Node6 -->
<g id="node6" class="node"><title>Node6</title>
<polygon fill="none" stroke="#bfbfbf" points="516.5,-177 516.5,-234 557.5,-234 557.5,-177 516.5,-177"/>
<text text-anchor="middle" x="537" y="-222" font-family="Helvetica,sans-Serif" font-size="10.00">string</text>
<polyline fill="none" stroke="#bfbfbf" points="516.5,-215 557.5,-215 "/>
<text text-anchor="middle" x="537" y="-203" font-family="Helvetica,sans-Serif" font-size="10.00"> </text>
<polyline fill="none" stroke="#bfbfbf" points="516.5,-196 557.5,-196 "/>
<text text-anchor="middle" x="537" y="-184" font-family="Helvetica,sans-Serif" font-size="10.00"> </text>
</g>
<!-- Node6&#45;&gt;Node1 -->
<g id="edge5" class="edge"><title>Node6&#45;&gt;Node1</title>
<path fill="none" stroke="#404040" d="M535.045,-176.984C532.527,-150.482 526.956,-109.583 515,-76 514.159,-73.6369 513.201,-71.2538 512.16,-68.882"/>
<polygon fill="none" stroke="#404040" points="512.1,-68.7588 505.868,-65.1303 506.821,-57.9824 513.052,-61.6108 512.1,-68.7588"/>
<text text-anchor="middle" x="544" y="-95.5" font-family="Helvetica,sans-Serif" font-size="10.00"> +name</text>
</g>
<!-- Node7 -->
<g id="node7" class="node"><title>Node7</title>
<polygon fill="none" stroke="#bfbfbf" points="575.5,-177 575.5,-234 716.5,-234 716.5,-177 575.5,-177"/>
<text text-anchor="middle" x="646" y="-222" font-family="Helvetica,sans-Serif" font-size="10.00">vector&lt; ConfigParamSpec &gt;</text>
<polyline fill="none" stroke="#bfbfbf" points="575.5,-215 716.5,-215 "/>
<text text-anchor="middle" x="646" y="-203" font-family="Helvetica,sans-Serif" font-size="10.00"> </text>
<polyline fill="none" stroke="#bfbfbf" points="575.5,-196 716.5,-196 "/>
<text text-anchor="middle" x="646" y="-184" font-family="Helvetica,sans-Serif" font-size="10.00"> </text>
</g>
<!-- Node7&#45;&gt;Node1 -->
<g id="edge6" class="edge"><title>Node7&#45;&gt;Node1</title>
<path fill="none" stroke="#404040" d="M633.33,-176.836C619.521,-148.904 595.294,-105.748 565,-76 560.949,-72.0219 556.492,-68.2367 551.828,-64.6712"/>
<polygon fill="none" stroke="#404040" points="551.795,-64.6471 544.587,-64.4127 542.032,-57.6697 549.239,-57.9041 551.795,-64.6471"/>
<text text-anchor="middle" x="620.5" y="-95.5" font-family="Helvetica,sans-Serif" font-size="10.00"> +options</text>
</g>
<!-- Node8 -->
<g id="node8" class="node"><title>Node8</title>
<g id="a_node8"><a xlink:href="../../d4/d5e/structo2_1_1framework_1_1AlgorithmSpec.html" target="_top" xlink:title="{o2::framework::AlgorithmSpec\n||+ AlgorithmSpec()\l+ AlgorithmSpec()\l+ AlgorithmSpec()\l+ AlgorithmSpec()\l+ operator=()\l+ AlgorithmSpec()\l+ AlgorithmSpec()\l+ emptyErrorCallback()\l}">
<polygon fill="none" stroke="black" points="734.5,-138.5 734.5,-272.5 883.5,-272.5 883.5,-138.5 734.5,-138.5"/>
<text text-anchor="middle" x="809" y="-260.5" font-family="Helvetica,sans-Serif" font-size="10.00">o2::framework::AlgorithmSpec</text>
<polyline fill="none" stroke="black" points="734.5,-253.5 883.5,-253.5 "/>
<text text-anchor="middle" x="809" y="-241.5" font-family="Helvetica,sans-Serif" font-size="10.00"> </text>
<polyline fill="none" stroke="black" points="734.5,-234.5 883.5,-234.5 "/>
<text text-anchor="start" x="742.5" y="-222.5" font-family="Helvetica,sans-Serif" font-size="10.00">+ AlgorithmSpec()</text>
<text text-anchor="start" x="742.5" y="-211.5" font-family="Helvetica,sans-Serif" font-size="10.00">+ AlgorithmSpec()</text>
<text text-anchor="start" x="742.5" y="-200.5" font-family="Helvetica,sans-Serif" font-size="10.00">+ AlgorithmSpec()</text>
<text text-anchor="start" x="742.5" y="-189.5" font-family="Helvetica,sans-Serif" font-size="10.00">+ AlgorithmSpec()</text>
<text text-anchor="start" x="742.5" y="-178.5" font-family="Helvetica,sans-Serif" font-size="10.00">+ operator=()</text>
<text text-anchor="start" x="742.5" y="-167.5" font-family="Helvetica,sans-Serif" font-size="10.00">+ AlgorithmSpec()</text>
<text text-anchor="start" x="742.5" y="-156.5" font-family="Helvetica,sans-Serif" font-size="10.00">+ AlgorithmSpec()</text>
<text text-anchor="start" x="742.5" y="-145.5" font-family="Helvetica,sans-Serif" font-size="10.00">+ emptyErrorCallback()</text>
</a>
</g>
</g>
<!-- Node8&#45;&gt;Node1 -->
<g id="edge7" class="edge"><title>Node8&#45;&gt;Node1</title>
<path fill="none" stroke="#404040" d="M734.377,-145.358C731.211,-142.87 728.075,-140.409 725,-138 689.587,-110.261 685.044,-96.4937 645,-76 627.035,-66.8058 606.941,-59.1599 587.308,-52.9144"/>
<polygon fill="none" stroke="#404040" points="587.296,-52.9106 580.388,-54.979 575.821,-49.3978 582.729,-47.3294 587.296,-52.9106"/>
<text text-anchor="middle" x="727.5" y="-95.5" font-family="Helvetica,sans-Serif" font-size="10.00"> +algorithm</text>
</g>
<!-- Node9 -->
<g id="node9" class="node"><title>Node9</title>
<polygon fill="none" stroke="#bfbfbf" points="570.5,-326 570.5,-383 725.5,-383 725.5,-326 570.5,-326"/>
<text text-anchor="middle" x="648" y="-371" font-family="Helvetica,sans-Serif" font-size="10.00">function&lt; void(ErrorContext &amp;)&gt;</text>
<polyline fill="none" stroke="#bfbfbf" points="570.5,-364 725.5,-364 "/>
<text text-anchor="middle" x="648" y="-352" font-family="Helvetica,sans-Serif" font-size="10.00"> </text>
<polyline fill="none" stroke="#bfbfbf" points="570.5,-345 725.5,-345 "/>
<text text-anchor="middle" x="648" y="-333" font-family="Helvetica,sans-Serif" font-size="10.00"> </text>
</g>
<!-- Node9&#45;&gt;Node8 -->
<g id="edge8" class="edge"><title>Node9&#45;&gt;Node8</title>
<path fill="none" stroke="#404040" d="M678.283,-325.85C692.323,-313.031 709.756,-297.114 727.267,-281.126"/>
<polygon fill="none" stroke="#404040" points="727.551,-280.866 729.285,-273.867 736.413,-272.775 734.679,-279.774 727.551,-280.866"/>
<text text-anchor="middle" x="735.5" y="-294" font-family="Helvetica,sans-Serif" font-size="10.00"> +onError</text>
</g>
<!-- Node10 -->
<g id="node10" class="node"><title>Node10</title>
<polygon fill="none" stroke="#bfbfbf" points="744,-320.5 744,-388.5 874,-388.5 874,-320.5 744,-320.5"/>
<text text-anchor="start" x="752" y="-376.5" font-family="Helvetica,sans-Serif" font-size="10.00">function&lt; void(Processing</text>
<text text-anchor="middle" x="809" y="-365.5" font-family="Helvetica,sans-Serif" font-size="10.00">Context &amp;)&gt;</text>
<polyline fill="none" stroke="#bfbfbf" points="744,-358.5 874,-358.5 "/>
<text text-anchor="middle" x="809" y="-346.5" font-family="Helvetica,sans-Serif" font-size="10.00"> </text>
<polyline fill="none" stroke="#bfbfbf" points="744,-339.5 874,-339.5 "/>
<text text-anchor="middle" x="809" y="-327.5" font-family="Helvetica,sans-Serif" font-size="10.00"> </text>
</g>
<!-- Node10&#45;&gt;Node8 -->
<g id="edge9" class="edge"><title>Node10&#45;&gt;Node8</title>
<path fill="none" stroke="#404040" d="M809,-320.143C809,-309.597 809,-297.46 809,-285.13"/>
<polygon fill="none" stroke="#404040" points="809,-284.787 805,-278.787 809,-272.787 813,-278.787 809,-284.787"/>
<text text-anchor="middle" x="837" y="-294" font-family="Helvetica,sans-Serif" font-size="10.00"> +onProcess</text>
</g>
<!-- Node11 -->
<g id="node11" class="node"><title>Node11</title>
<polygon fill="none" stroke="#bfbfbf" points="892,-320.5 892,-388.5 1026,-388.5 1026,-320.5 892,-320.5"/>
<text text-anchor="start" x="900" y="-376.5" font-family="Helvetica,sans-Serif" font-size="10.00">function&lt; ProcessCallback</text>
<text text-anchor="middle" x="959" y="-365.5" font-family="Helvetica,sans-Serif" font-size="10.00">(InitContext &amp;)&gt;</text>
<polyline fill="none" stroke="#bfbfbf" points="892,-358.5 1026,-358.5 "/>
<text text-anchor="middle" x="959" y="-346.5" font-family="Helvetica,sans-Serif" font-size="10.00"> </text>
<polyline fill="none" stroke="#bfbfbf" points="892,-339.5 1026,-339.5 "/>
<text text-anchor="middle" x="959" y="-327.5" font-family="Helvetica,sans-Serif" font-size="10.00"> </text>
</g>
<!-- Node11&#45;&gt;Node8 -->
<g id="edge10" class="edge"><title>Node11&#45;&gt;Node8</title>
<path fill="none" stroke="#404040" d="M924.963,-320.143C913.08,-308.499 899.219,-294.914 885.298,-281.272"/>
<polygon fill="none" stroke="#404040" points="885.21,-281.186 878.125,-279.843 876.639,-272.787 883.724,-274.129 885.21,-281.186"/>
<text text-anchor="middle" x="924" y="-294" font-family="Helvetica,sans-Serif" font-size="10.00"> +onInit</text>
</g>
<!-- Node12 -->
<g id="node12" class="node"><title>Node12</title>
<polygon fill="none" stroke="#bfbfbf" points="901.5,-177 901.5,-234 944.5,-234 944.5,-177 901.5,-177"/>
<text text-anchor="middle" x="923" y="-222" font-family="Helvetica,sans-Serif" font-size="10.00">size_t</text>
<polyline fill="none" stroke="#bfbfbf" points="901.5,-215 944.5,-215 "/>
<text text-anchor="middle" x="923" y="-203" font-family="Helvetica,sans-Serif" font-size="10.00"> </text>
<polyline fill="none" stroke="#bfbfbf" points="901.5,-196 944.5,-196 "/>
<text text-anchor="middle" x="923" y="-184" font-family="Helvetica,sans-Serif" font-size="10.00"> </text>
</g>
<!-- Node12&#45;&gt;Node1 -->
<g id="edge11" class="edge"><title>Node12&#45;&gt;Node1</title>
<path fill="none" stroke="#404040" d="M915.116,-176.919C910.219,-163.793 902.764,-148.673 892,-138 844.829,-91.2271 819.478,-95.5786 756,-76 701.489,-59.1871 638.703,-47.9803 587.717,-40.8413"/>
<polygon fill="none" stroke="#404040" points="587.582,-40.823 581.097,-43.9758 575.692,-39.2019 582.178,-36.0491 587.582,-40.823"/>
<text text-anchor="middle" x="919.5" y="-112" font-family="Helvetica,sans-Serif" font-size="10.00"> +maxInputTimeslices</text>
<text text-anchor="middle" x="919.5" y="-101" font-family="Helvetica,sans-Serif" font-size="10.00">+rank</text>
<text text-anchor="middle" x="919.5" y="-90" font-family="Helvetica,sans-Serif" font-size="10.00">+nSlots</text>
<text text-anchor="middle" x="919.5" y="-79" font-family="Helvetica,sans-Serif" font-size="10.00">+inputTimeSliceId</text>
</g>
</g>
</svg>
        <g id="navigator" transform="translate(0 0)" fill="#404254">
                <rect fill="#f2f5e9" fill-opacity="0.5" stroke="#606060" stroke-width=".5" x="0" y="0" width="60" height="60"/>
                <use id="zoomplus" xlink:href="#zoomPlus" x="17" y="9" onmousedown="handleZoom(evt,'in')"/>
                <use id="zoomminus" xlink:href="#zoomMin" x="42" y="9" onmousedown="handleZoom(evt,'out')"/>
                <use id="reset" xlink:href="#resetDef" x="30" y="36" onmousedown="handleReset()"/>
                <g id="arrowUp" xlink:href="#dirArrow" transform="translate(30 24)" onmousedown="handlePan(0,-1)">
                  <use xlink:href="#rim" fill="#404040">
                        <set attributeName="fill" to="#808080" begin="arrowUp.mouseover" end="arrowUp.mouseout"/>
                  </use>
                  <path fill="none" stroke="white" stroke-width="1.5" d="M0,-3.0v7 M-2.5,-0.5L0,-3.0L2.5,-0.5"/>
                </g>
                <g id="arrowRight" xlink:href="#dirArrow" transform="rotate(90) translate(36 -43)" onmousedown="handlePan(1,0)">
                  <use xlink:href="#rim" fill="#404040">
                        <set attributeName="fill" to="#808080" begin="arrowRight.mouseover" end="arrowRight.mouseout"/>
                  </use>
                  <path fill="none" stroke="white" stroke-width="1.5" d="M0,-3.0v7 M-2.5,-0.5L0,-3.0L2.5,-0.5"/>
                </g>
                <g id="arrowDown" xlink:href="#dirArrow" transform="rotate(180) translate(-30 -48)" onmousedown="handlePan(0,1)">
                  <use xlink:href="#rim" fill="#404040">
                        <set attributeName="fill" to="#808080" begin="arrowDown.mouseover" end="arrowDown.mouseout"/>
                  </use>
                  <path fill="none" stroke="white" stroke-width="1.5" d="M0,-3.0v7 M-2.5,-0.5L0,-3.0L2.5,-0.5"/>
                </g>
                <g id="arrowLeft" xlink:href="#dirArrow" transform="rotate(270) translate(-36 17)" onmousedown="handlePan(-1,0)">
                  <use xlink:href="#rim" fill="#404040">
                        <set attributeName="fill" to="#808080" begin="arrowLeft.mouseover" end="arrowLeft.mouseout"/>
                  </use>
                  <path fill="none" stroke="white" stroke-width="1.5" d="M0,-3.0v7 M-2.5,-0.5L0,-3.0L2.5,-0.5"/>
                </g>
        </g>
        <svg viewBox="0 0 15 15" width="100%" height="30px" preserveAspectRatio="xMaxYMin meet">
         <g id="arrow_out" transform="scale(0.3 0.3)">
          <a xlink:href="structo2_1_1framework_1_1DataProcessorSpec__coll__graph_org.svg" target="_base">
           <rect id="button" ry="5" rx="5" y="6" x="6" height="38" width="38"
                fill="#f2f5e9" fill-opacity="0.5" stroke="#606060" stroke-width="1.0"/>
           <path id="arrow"
             d="M 11.500037,31.436501 C 11.940474,20.09759 22.043105,11.32322 32.158766,21.979434 L 37.068811,17.246167 C 37.068811,17.246167 37.088388,32 37.088388,32 L 22.160133,31.978069 C 22.160133,31.978069 26.997745,27.140456 26.997745,27.140456 C 18.528582,18.264221 13.291696,25.230495 11.500037,31.436501 z"
             style="fill:#404040;"/>
          </a>
         </g>
        </svg>
</svg>
