<?xml version="1.0" encoding="UTF-8" standalone="no"?>
<!DOCTYPE svg PUBLIC "-//W3C//DTD SVG 1.1//EN"
 "http://www.w3.org/Graphics/SVG/1.1/DTD/svg11.dtd">
<!-- Generated by graphviz version 2.38.0 (20140413.2041)
 -->
<!-- Title: o2::ft0::Geometry Pages: 1 -->
<svg width="139pt" height="237pt"
 viewBox="0.00 0.00 138.50 237.00" xmlns="http://www.w3.org/2000/svg" xmlns:xlink="http://www.w3.org/1999/xlink">
<g id="graph0" class="graph" transform="scale(1 1) rotate(0) translate(4 233)">
<title>o2::ft0::Geometry</title>
<!-- Node1 -->
<g id="node1" class="node"><title>Node1</title>
<polygon fill="#bfbfbf" stroke="black" points="-7.10543e-15,-0.5 -7.10543e-15,-68.5 93,-68.5 93,-0.5 -7.10543e-15,-0.5"/>
<text text-anchor="middle" x="46.5" y="-56.5" font-family="Helvetica,sans-Serif" font-size="10.00">o2::ft0::Geometry</text>
<polyline fill="none" stroke="black" points="-7.10543e-15,-49.5 93,-49.5 "/>
<text text-anchor="middle" x="46.5" y="-37.5" font-family="Helvetica,sans-Serif" font-size="10.00"> </text>
<polyline fill="none" stroke="black" points="-7.10543e-15,-30.5 93,-30.5 "/>
<text text-anchor="start" x="8" y="-18.5" font-family="Helvetica,sans-Serif" font-size="10.00">+ Geometry()</text>
<text text-anchor="start" x="8" y="-7.5" font-family="Helvetica,sans-Serif" font-size="10.00">+ centerMCP()</text>
</g>
<!-- Node2 -->
<g id="node2" class="node"><title>Node2</title>
<polygon fill="none" stroke="#bfbfbf" points="26,-171.5 26,-228.5 67,-228.5 67,-171.5 26,-171.5"/>
<text text-anchor="middle" x="46.5" y="-216.5" font-family="Helvetica,sans-Serif" font-size="10.00">static</text>
<polyline fill="none" stroke="#bfbfbf" points="26,-209.5 67,-209.5 "/>
<text text-anchor="middle" x="46.5" y="-197.5" font-family="Helvetica,sans-Serif" font-size="10.00"> </text>
<polyline fill="none" stroke="#bfbfbf" points="26,-190.5 67,-190.5 "/>
<text text-anchor="middle" x="46.5" y="-178.5" font-family="Helvetica,sans-Serif" font-size="10.00"> </text>
</g>
<!-- Node2&#45;&gt;Node1 -->
<g id="edge1" class="edge"><title>Node2&#45;&gt;Node1</title>
<path fill="none" stroke="#404040" d="M46.5,-171.264C46.5,-146.582 46.5,-110.01 46.5,-81.0404"/>
<polygon fill="none" stroke="#404040" points="46.5001,-80.7421 42.5,-74.7422 46.5,-68.7421 50.5,-74.7421 46.5001,-80.7421"/>
<text text-anchor="middle" x="88.5" y="-145" font-family="Helvetica,sans-Serif" font-size="10.00"> +ChannelWidth</text>
<text text-anchor="middle" x="88.5" y="-134" font-family="Helvetica,sans-Serif" font-size="10.00">+NCellsA</text>
<text text-anchor="middle" x="88.5" y="-123" font-family="Helvetica,sans-Serif" font-size="10.00">+ZdetA</text>
<text text-anchor="middle" x="88.5" y="-112" font-family="Helvetica,sans-Serif" font-size="10.00">+MV_2_Nchannels</text>
<text text-anchor="middle" x="88.5" y="-101" font-family="Helvetica,sans-Serif" font-size="10.00">+NCellsC</text>
<text text-anchor="middle" x="88.5" y="-90" font-family="Helvetica,sans-Serif" font-size="10.00">+ZdetC</text>
</g>
</g>
</svg>
