<?xml version="1.0" encoding="UTF-8" standalone="no"?>
<!DOCTYPE svg PUBLIC "-//W3C//DTD SVG 1.1//EN"
 "http://www.w3.org/Graphics/SVG/1.1/DTD/svg11.dtd">
<!-- Generated by graphviz version 2.38.0 (20140413.2041)
 -->
<!-- Title: FTask Pages: 1 -->
<svg width="145pt" height="298pt"
 viewBox="0.00 0.00 145.00 298.00" xmlns="http://www.w3.org/2000/svg" xmlns:xlink="http://www.w3.org/1999/xlink">
<g id="graph0" class="graph" transform="scale(1 1) rotate(0) translate(4 294)">
<title>FTask</title>
<!-- Node1 -->
<g id="node1" class="node"><title>Node1</title>
<polygon fill="#bfbfbf" stroke="black" points="35.5,-0.5 35.5,-57.5 101.5,-57.5 101.5,-0.5 35.5,-0.5"/>
<text text-anchor="middle" x="68.5" y="-45.5" font-family="Helvetica,sans-Serif" font-size="10.00">FTask</text>
<polyline fill="none" stroke="black" points="35.5,-38.5 101.5,-38.5 "/>
<text text-anchor="middle" x="68.5" y="-26.5" font-family="Helvetica,sans-Serif" font-size="10.00"> </text>
<polyline fill="none" stroke="black" points="35.5,-19.5 101.5,-19.5 "/>
<text text-anchor="start" x="43.5" y="-7.5" font-family="Helvetica,sans-Serif" font-size="10.00">+ process()</text>
</g>
<!-- Node2 -->
<g id="node2" class="node"><title>Node2</title>
<g id="a_node2"><a xlink:href="../../d1/d9a/structo2_1_1framework_1_1expressions_1_1Filter.html" target="_top" xlink:title="A struct, containing the root of the expression tree. ">
<polygon fill="none" stroke="black" points="0,-105.5 0,-173.5 137,-173.5 137,-105.5 0,-105.5"/>
<text text-anchor="start" x="8" y="-161.5" font-family="Helvetica,sans-Serif" font-size="10.00">o2::framework::expressions</text>
<text text-anchor="middle" x="68.5" y="-150.5" font-family="Helvetica,sans-Serif" font-size="10.00">::Filter</text>
<polyline fill="none" stroke="black" points="0,-143.5 137,-143.5 "/>
<text text-anchor="middle" x="68.5" y="-131.5" font-family="Helvetica,sans-Serif" font-size="10.00"> </text>
<polyline fill="none" stroke="black" points="0,-124.5 137,-124.5 "/>
<text text-anchor="start" x="8" y="-112.5" font-family="Helvetica,sans-Serif" font-size="10.00">+ Filter()</text>
</a>
</g>
</g>
<!-- Node2&#45;&gt;Node1 -->
<g id="edge1" class="edge"><title>Node2&#45;&gt;Node1</title>
<path fill="none" stroke="#404040" d="M68.5,-105.357C68.5,-94.1899 68.5,-81.6093 68.5,-69.9724"/>
<polygon fill="none" stroke="#404040" points="68.5001,-69.827 64.5,-63.827 68.5,-57.827 72.5,-63.8269 68.5001,-69.827"/>
<text text-anchor="middle" x="91" y="-79" font-family="Helvetica,sans-Serif" font-size="10.00"> +fooFilter</text>
</g>
<!-- Node3 -->
<g id="node3" class="node"><title>Node3</title>
<polygon fill="none" stroke="#bfbfbf" points="2,-221.5 2,-289.5 135,-289.5 135,-221.5 2,-221.5"/>
<text text-anchor="start" x="10" y="-277.5" font-family="Helvetica,sans-Serif" font-size="10.00">unique_ptr&lt; o2::framework</text>
<text text-anchor="middle" x="68.5" y="-266.5" font-family="Helvetica,sans-Serif" font-size="10.00">::expressions::Node &gt;</text>
<polyline fill="none" stroke="#bfbfbf" points="2,-259.5 135,-259.5 "/>
<text text-anchor="middle" x="68.5" y="-247.5" font-family="Helvetica,sans-Serif" font-size="10.00"> </text>
<polyline fill="none" stroke="#bfbfbf" points="2,-240.5 135,-240.5 "/>
<text text-anchor="middle" x="68.5" y="-228.5" font-family="Helvetica,sans-Serif" font-size="10.00"> </text>
</g>
<!-- Node3&#45;&gt;Node2 -->
<g id="edge2" class="edge"><title>Node3&#45;&gt;Node2</title>
<path fill="none" stroke="#404040" d="M68.5,-221.22C68.5,-210.099 68.5,-197.512 68.5,-185.642"/>
<polygon fill="none" stroke="#404040" points="68.5001,-185.624 64.5,-179.624 68.5,-173.624 72.5,-179.624 68.5001,-185.624"/>
<text text-anchor="middle" x="84" y="-195" font-family="Helvetica,sans-Serif" font-size="10.00"> +node</text>
</g>
</g>
</svg>
