<?xml version="1.0" encoding="UTF-8" standalone="no"?>
<!DOCTYPE svg PUBLIC "-//W3C//DTD SVG 1.1//EN"
 "http://www.w3.org/Graphics/SVG/1.1/DTD/svg11.dtd">
<!-- Generated by graphviz version 2.38.0 (20140413.2041)
 -->
<!-- Title: o2::emcal::CaloRawFitterStandard Pages: 1 -->
<svg width="624pt" height="618pt"
 viewBox="0.00 0.00 624.00 618.00" xmlns="http://www.w3.org/2000/svg" xmlns:xlink="http://www.w3.org/1999/xlink">
<g id="graph0" class="graph" transform="scale(1 1) rotate(0) translate(4 614)">
<title>o2::emcal::CaloRawFitterStandard</title>
<!-- Node1 -->
<g id="node1" class="node"><title>Node1</title>
<polygon fill="#bfbfbf" stroke="black" points="170.5,-0.5 170.5,-112.5 310.5,-112.5 310.5,-0.5 170.5,-0.5"/>
<text text-anchor="start" x="178.5" y="-100.5" font-family="Helvetica,sans-Serif" font-size="10.00">o2::emcal::CaloRawFitter</text>
<text text-anchor="middle" x="240.5" y="-89.5" font-family="Helvetica,sans-Serif" font-size="10.00">Standard</text>
<polyline fill="none" stroke="black" points="170.5,-82.5 310.5,-82.5 "/>
<text text-anchor="middle" x="240.5" y="-70.5" font-family="Helvetica,sans-Serif" font-size="10.00"> </text>
<polyline fill="none" stroke="black" points="170.5,-63.5 310.5,-63.5 "/>
<text text-anchor="start" x="178.5" y="-51.5" font-family="Helvetica,sans-Serif" font-size="10.00">+ CaloRawFitterStandard()</text>
<text text-anchor="start" x="178.5" y="-40.5" font-family="Helvetica,sans-Serif" font-size="10.00">+ ~CaloRawFitterStandard()</text>
<text text-anchor="start" x="178.5" y="-29.5" font-family="Helvetica,sans-Serif" font-size="10.00">+ evaluate()</text>
<text text-anchor="start" x="178.5" y="-18.5" font-family="Helvetica,sans-Serif" font-size="10.00">+ fitRaw()</text>
<text text-anchor="start" x="178.5" y="-7.5" font-family="Helvetica,sans-Serif" font-size="10.00">+ rawResponseFunction()</text>
</g>
<!-- Node2 -->
<g id="node2" class="node"><title>Node2</title>
<g id="a_node2"><a xlink:href="../../d8/d83/classo2_1_1emcal_1_1CaloRawFitter.html" target="_top" xlink:title="{o2::emcal::CaloRawFitter\n||+ CaloRawFitter()\l+ ~CaloRawFitter()\l+ preFitEvaluateSamples()\l+ setTimeConstraint()\l+ setIsZeroSuppressed()\l+ setAmpCut()\l+ setNsamplePed()\l+ setL1Phase()\l+ getIsZeroSuppressed()\l+ getAmpCut()\l+ getNsamplePed()\l+ getReversed()\l+ getAlgoName()\l+ getAlgoAbbr()\l+ getAlgo()\l+ maxAmp()\l+ maxAmp()\l+ checkBunchEdgesForMax()\l+ isInTimeRange()\l+ reverseAndSubtractPed()\l+ selectBunch()\l+ selectSubarray()\l+ evaluatePedestal()\l+ calculateChi2()\l# ClassDefNV()\l}">
<polygon fill="none" stroke="black" points="167.5,-150.5 167.5,-471.5 313.5,-471.5 313.5,-150.5 167.5,-150.5"/>
<text text-anchor="middle" x="240.5" y="-459.5" font-family="Helvetica,sans-Serif" font-size="10.00">o2::emcal::CaloRawFitter</text>
<polyline fill="none" stroke="black" points="167.5,-452.5 313.5,-452.5 "/>
<text text-anchor="middle" x="240.5" y="-440.5" font-family="Helvetica,sans-Serif" font-size="10.00"> </text>
<polyline fill="none" stroke="black" points="167.5,-433.5 313.5,-433.5 "/>
<text text-anchor="start" x="175.5" y="-421.5" font-family="Helvetica,sans-Serif" font-size="10.00">+ CaloRawFitter()</text>
<text text-anchor="start" x="175.5" y="-410.5" font-family="Helvetica,sans-Serif" font-size="10.00">+ ~CaloRawFitter()</text>
<text text-anchor="start" x="175.5" y="-399.5" font-family="Helvetica,sans-Serif" font-size="10.00">+ preFitEvaluateSamples()</text>
<text text-anchor="start" x="175.5" y="-388.5" font-family="Helvetica,sans-Serif" font-size="10.00">+ setTimeConstraint()</text>
<text text-anchor="start" x="175.5" y="-377.5" font-family="Helvetica,sans-Serif" font-size="10.00">+ setIsZeroSuppressed()</text>
<text text-anchor="start" x="175.5" y="-366.5" font-family="Helvetica,sans-Serif" font-size="10.00">+ setAmpCut()</text>
<text text-anchor="start" x="175.5" y="-355.5" font-family="Helvetica,sans-Serif" font-size="10.00">+ setNsamplePed()</text>
<text text-anchor="start" x="175.5" y="-344.5" font-family="Helvetica,sans-Serif" font-size="10.00">+ setL1Phase()</text>
<text text-anchor="start" x="175.5" y="-333.5" font-family="Helvetica,sans-Serif" font-size="10.00">+ getIsZeroSuppressed()</text>
<text text-anchor="start" x="175.5" y="-322.5" font-family="Helvetica,sans-Serif" font-size="10.00">+ getAmpCut()</text>
<text text-anchor="start" x="175.5" y="-311.5" font-family="Helvetica,sans-Serif" font-size="10.00">+ getNsamplePed()</text>
<text text-anchor="start" x="175.5" y="-300.5" font-family="Helvetica,sans-Serif" font-size="10.00">+ getReversed()</text>
<text text-anchor="start" x="175.5" y="-289.5" font-family="Helvetica,sans-Serif" font-size="10.00">+ getAlgoName()</text>
<text text-anchor="start" x="175.5" y="-278.5" font-family="Helvetica,sans-Serif" font-size="10.00">+ getAlgoAbbr()</text>
<text text-anchor="start" x="175.5" y="-267.5" font-family="Helvetica,sans-Serif" font-size="10.00">+ getAlgo()</text>
<text text-anchor="start" x="175.5" y="-256.5" font-family="Helvetica,sans-Serif" font-size="10.00">+ maxAmp()</text>
<text text-anchor="start" x="175.5" y="-245.5" font-family="Helvetica,sans-Serif" font-size="10.00">+ maxAmp()</text>
<text text-anchor="start" x="175.5" y="-234.5" font-family="Helvetica,sans-Serif" font-size="10.00">+ checkBunchEdgesForMax()</text>
<text text-anchor="start" x="175.5" y="-223.5" font-family="Helvetica,sans-Serif" font-size="10.00">+ isInTimeRange()</text>
<text text-anchor="start" x="175.5" y="-212.5" font-family="Helvetica,sans-Serif" font-size="10.00">+ reverseAndSubtractPed()</text>
<text text-anchor="start" x="175.5" y="-201.5" font-family="Helvetica,sans-Serif" font-size="10.00">+ selectBunch()</text>
<text text-anchor="start" x="175.5" y="-190.5" font-family="Helvetica,sans-Serif" font-size="10.00">+ selectSubarray()</text>
<text text-anchor="start" x="175.5" y="-179.5" font-family="Helvetica,sans-Serif" font-size="10.00">+ evaluatePedestal()</text>
<text text-anchor="start" x="175.5" y="-168.5" font-family="Helvetica,sans-Serif" font-size="10.00">+ calculateChi2()</text>
<text text-anchor="start" x="175.5" y="-157.5" font-family="Helvetica,sans-Serif" font-size="10.00"># ClassDefNV()</text>
</a>
</g>
</g>
<!-- Node2&#45;&gt;Node1 -->
<g id="edge1" class="edge"><title>Node2&#45;&gt;Node1</title>
<path fill="none" stroke="midnightblue" d="M240.5,-140.237C240.5,-130.565 240.5,-121.281 240.5,-112.654"/>
<polygon fill="none" stroke="midnightblue" points="237,-140.446 240.5,-150.446 244,-140.446 237,-140.446"/>
</g>
<!-- Node3 -->
<g id="node3" class="node"><title>Node3</title>
<polygon fill="none" stroke="#bfbfbf" points="0,-547 0,-604 45,-604 45,-547 0,-547"/>
<text text-anchor="middle" x="22.5" y="-592" font-family="Helvetica,sans-Serif" font-size="10.00">double</text>
<polyline fill="none" stroke="#bfbfbf" points="0,-585 45,-585 "/>
<text text-anchor="middle" x="22.5" y="-573" font-family="Helvetica,sans-Serif" font-size="10.00"> </text>
<polyline fill="none" stroke="#bfbfbf" points="0,-566 45,-566 "/>
<text text-anchor="middle" x="22.5" y="-554" font-family="Helvetica,sans-Serif" font-size="10.00"> </text>
</g>
<!-- Node3&#45;&gt;Node2 -->
<g id="edge2" class="edge"><title>Node3&#45;&gt;Node2</title>
<path fill="none" stroke="#404040" d="M32.3287,-546.92C39.1387,-529.73 49.1842,-507.61 61.5,-490 88.8211,-450.935 125.241,-412.931 158.095,-382.14"/>
<polygon fill="none" stroke="#404040" points="158.454,-381.807 160.137,-374.795 167.257,-373.652 165.574,-380.664 158.454,-381.807"/>
<text text-anchor="middle" x="89" y="-509.5" font-family="Helvetica,sans-Serif" font-size="10.00"> #mL1Phase</text>
<text text-anchor="middle" x="89" y="-498.5" font-family="Helvetica,sans-Serif" font-size="10.00">#mAmp</text>
</g>
<!-- Node4 -->
<g id="node4" class="node"><title>Node4</title>
<polygon fill="none" stroke="#bfbfbf" points="64,-547 64,-604 133,-604 133,-547 64,-547"/>
<text text-anchor="middle" x="98.5" y="-592" font-family="Helvetica,sans-Serif" font-size="10.00">FitAlgorithm</text>
<polyline fill="none" stroke="#bfbfbf" points="64,-585 133,-585 "/>
<text text-anchor="middle" x="98.5" y="-573" font-family="Helvetica,sans-Serif" font-size="10.00"> </text>
<polyline fill="none" stroke="#bfbfbf" points="64,-566 133,-566 "/>
<text text-anchor="middle" x="98.5" y="-554" font-family="Helvetica,sans-Serif" font-size="10.00"> </text>
</g>
<!-- Node4&#45;&gt;Node2 -->
<g id="edge3" class="edge"><title>Node4&#45;&gt;Node2</title>
<path fill="none" stroke="#404040" d="M109.676,-546.71C116.625,-530.036 126.019,-508.535 135.5,-490 143.542,-474.278 152.373,-458.023 161.392,-442.019"/>
<polygon fill="none" stroke="#404040" points="161.414,-441.981 160.899,-434.789 167.34,-431.547 167.855,-438.74 161.414,-441.981"/>
<text text-anchor="middle" x="154" y="-504" font-family="Helvetica,sans-Serif" font-size="10.00"> #mAlgo</text>
</g>
<!-- Node5 -->
<g id="node5" class="node"><title>Node5</title>
<g id="a_node5"><a xlink:href="../../d4/dc3/classfloat.html" target="_top" xlink:title="{float\n||}">
<polygon fill="none" stroke="black" points="151,-547 151,-604 186,-604 186,-547 151,-547"/>
<text text-anchor="middle" x="168.5" y="-592" font-family="Helvetica,sans-Serif" font-size="10.00">float</text>
<polyline fill="none" stroke="black" points="151,-585 186,-585 "/>
<text text-anchor="middle" x="168.5" y="-573" font-family="Helvetica,sans-Serif" font-size="10.00"> </text>
<polyline fill="none" stroke="black" points="151,-566 186,-566 "/>
<text text-anchor="middle" x="168.5" y="-554" font-family="Helvetica,sans-Serif" font-size="10.00"> </text>
</a>
</g>
</g>
<!-- Node5&#45;&gt;Node2 -->
<g id="edge4" class="edge"><title>Node5&#45;&gt;Node2</title>
<path fill="none" stroke="#404040" d="M172.44,-546.904C175.048,-530.298 178.843,-508.801 183.5,-490 184.033,-487.849 184.577,-485.687 185.133,-483.515"/>
<polygon fill="none" stroke="#404040" points="185.157,-483.423 182.813,-476.604 188.206,-471.817 190.551,-478.636 185.157,-483.423"/>
<text text-anchor="middle" x="210" y="-504" font-family="Helvetica,sans-Serif" font-size="10.00"> #mAmpCut</text>
</g>
<!-- Node6 -->
<g id="node6" class="node"><title>Node6</title>
<polygon fill="none" stroke="#bfbfbf" points="226,-547 226,-604 255,-604 255,-547 226,-547"/>
<text text-anchor="middle" x="240.5" y="-592" font-family="Helvetica,sans-Serif" font-size="10.00">int</text>
<polyline fill="none" stroke="#bfbfbf" points="226,-585 255,-585 "/>
<text text-anchor="middle" x="240.5" y="-573" font-family="Helvetica,sans-Serif" font-size="10.00"> </text>
<polyline fill="none" stroke="#bfbfbf" points="226,-566 255,-566 "/>
<text text-anchor="middle" x="240.5" y="-554" font-family="Helvetica,sans-Serif" font-size="10.00"> </text>
</g>
<!-- Node6&#45;&gt;Node2 -->
<g id="edge5" class="edge"><title>Node6&#45;&gt;Node2</title>
<path fill="none" stroke="#404040" d="M240.5,-546.904C240.5,-530.501 240.5,-508.169 240.5,-483.764"/>
<polygon fill="none" stroke="#404040" points="240.5,-483.634 236.5,-477.634 240.5,-471.634 244.5,-477.634 240.5,-483.634"/>
<text text-anchor="middle" x="281.5" y="-515" font-family="Helvetica,sans-Serif" font-size="10.00"> #mMaxTimeIndex</text>
<text text-anchor="middle" x="281.5" y="-504" font-family="Helvetica,sans-Serif" font-size="10.00">#mNsamplePed</text>
<text text-anchor="middle" x="281.5" y="-493" font-family="Helvetica,sans-Serif" font-size="10.00">#mMinTimeIndex</text>
</g>
<!-- Node7 -->
<g id="node7" class="node"><title>Node7</title>
<polygon fill="none" stroke="#bfbfbf" points="325,-547 325,-604 366,-604 366,-547 325,-547"/>
<text text-anchor="middle" x="345.5" y="-592" font-family="Helvetica,sans-Serif" font-size="10.00">string</text>
<polyline fill="none" stroke="#bfbfbf" points="325,-585 366,-585 "/>
<text text-anchor="middle" x="345.5" y="-573" font-family="Helvetica,sans-Serif" font-size="10.00"> </text>
<polyline fill="none" stroke="#bfbfbf" points="325,-566 366,-566 "/>
<text text-anchor="middle" x="345.5" y="-554" font-family="Helvetica,sans-Serif" font-size="10.00"> </text>
</g>
<!-- Node7&#45;&gt;Node2 -->
<g id="edge6" class="edge"><title>Node7&#45;&gt;Node2</title>
<path fill="none" stroke="#404040" d="M339.608,-546.716C335.743,-530.043 330.174,-508.542 323.5,-490 321.779,-485.218 319.976,-480.389 318.108,-475.535"/>
<polygon fill="none" stroke="#404040" points="318.032,-475.341 312.113,-471.223 313.638,-464.175 319.557,-468.293 318.032,-475.341"/>
<text text-anchor="middle" x="364.5" y="-509.5" font-family="Helvetica,sans-Serif" font-size="10.00"> #mName</text>
<text text-anchor="middle" x="364.5" y="-498.5" font-family="Helvetica,sans-Serif" font-size="10.00">#mNameShort</text>
</g>
<!-- Node8 -->
<g id="node8" class="node"><title>Node8</title>
<polygon fill="none" stroke="#bfbfbf" points="415,-547 415,-604 450,-604 450,-547 415,-547"/>
<text text-anchor="middle" x="432.5" y="-592" font-family="Helvetica,sans-Serif" font-size="10.00">bool</text>
<polyline fill="none" stroke="#bfbfbf" points="415,-585 450,-585 "/>
<text text-anchor="middle" x="432.5" y="-573" font-family="Helvetica,sans-Serif" font-size="10.00"> </text>
<polyline fill="none" stroke="#bfbfbf" points="415,-566 450,-566 "/>
<text text-anchor="middle" x="432.5" y="-554" font-family="Helvetica,sans-Serif" font-size="10.00"> </text>
</g>
<!-- Node8&#45;&gt;Node2 -->
<g id="edge7" class="edge"><title>Node8&#45;&gt;Node2</title>
<path fill="none" stroke="#404040" d="M424.832,-546.677C419.443,-529.598 411.272,-507.684 400.5,-490 378.854,-454.463 349.659,-419.491 322.135,-390.08"/>
<polygon fill="none" stroke="#404040" points="321.912,-389.846 314.881,-388.243 313.656,-381.137 320.687,-382.739 321.912,-389.846"/>
<text text-anchor="middle" x="460.5" y="-504" font-family="Helvetica,sans-Serif" font-size="10.00"> #mIsZerosupressed</text>
</g>
<!-- Node9 -->
<g id="node9" class="node"><title>Node9</title>
<polygon fill="none" stroke="#bfbfbf" points="475,-541.5 475,-609.5 616,-609.5 616,-541.5 475,-541.5"/>
<text text-anchor="start" x="483" y="-597.5" font-family="Helvetica,sans-Serif" font-size="10.00">array&lt; double, constants</text>
<text text-anchor="middle" x="545.5" y="-586.5" font-family="Helvetica,sans-Serif" font-size="10.00">::EMCAL_MAXTIMEBINS &gt;</text>
<polyline fill="none" stroke="#bfbfbf" points="475,-579.5 616,-579.5 "/>
<text text-anchor="middle" x="545.5" y="-567.5" font-family="Helvetica,sans-Serif" font-size="10.00"> </text>
<polyline fill="none" stroke="#bfbfbf" points="475,-560.5 616,-560.5 "/>
<text text-anchor="middle" x="545.5" y="-548.5" font-family="Helvetica,sans-Serif" font-size="10.00"> </text>
</g>
<!-- Node9&#45;&gt;Node2 -->
<g id="edge8" class="edge"><title>Node9&#45;&gt;Node2</title>
<path fill="none" stroke="#404040" d="M536.327,-541.156C530.566,-524.514 521.848,-504.826 509.5,-490 459.059,-429.44 382.776,-381.669 324.311,-350.928"/>
<polygon fill="none" stroke="#404040" points="324.268,-350.906 317.1,-351.698 313.612,-345.387 320.779,-344.594 324.268,-350.906"/>
<text text-anchor="middle" x="558" y="-504" font-family="Helvetica,sans-Serif" font-size="10.00"> #mReversed</text>
</g>
</g>
</svg>
