<?xml version="1.0" encoding="UTF-8" standalone="no"?>
<!DOCTYPE svg PUBLIC "-//W3C//DTD SVG 1.1//EN"
 "http://www.w3.org/Graphics/SVG/1.1/DTD/svg11.dtd">
<!-- Generated by graphviz version 2.38.0 (20140413.2041)
 -->
<!-- Title: /home/travis/build/AliceO2Group/AliceO2/GPU/GPUTracking/TPCClusterFinder/CfUtils.h Pages: 1 -->
<svg width="1667pt" height="621pt"
 viewBox="0.00 0.00 1666.78 621.00" xmlns="http://www.w3.org/2000/svg" xmlns:xlink="http://www.w3.org/1999/xlink">
<g id="graph0" class="graph" transform="scale(1 1) rotate(0) translate(4 617)">
<title>/home/travis/build/AliceO2Group/AliceO2/GPU/GPUTracking/TPCClusterFinder/CfUtils.h</title>
<!-- Node1 -->
<g id="node1" class="node"><title>Node1</title>
<polygon fill="#bfbfbf" stroke="black" points="132.775,-560.5 132.775,-612.5 317.775,-612.5 317.775,-560.5 132.775,-560.5"/>
<text text-anchor="start" x="140.775" y="-600.5" font-family="Helvetica,sans-Serif" font-size="10.00">/home/travis/build</text>
<text text-anchor="start" x="140.775" y="-589.5" font-family="Helvetica,sans-Serif" font-size="10.00">/AliceO2Group/AliceO2</text>
<text text-anchor="start" x="140.775" y="-578.5" font-family="Helvetica,sans-Serif" font-size="10.00">/GPU/GPUTracking/TPCClusterFinder</text>
<text text-anchor="middle" x="225.275" y="-567.5" font-family="Helvetica,sans-Serif" font-size="10.00">/CfUtils.h</text>
</g>
<!-- Node2 -->
<g id="node2" class="node"><title>Node2</title>
<g id="a_node2"><a xlink:href="../../d9/db0/clusterFinderDefs_8h.html" target="_top" xlink:title="clusterFinderDefs.h">
<polygon fill="none" stroke="black" points="90.2754,-336.5 90.2754,-355.5 192.275,-355.5 192.275,-336.5 90.2754,-336.5"/>
<text text-anchor="middle" x="141.275" y="-343.5" font-family="Helvetica,sans-Serif" font-size="10.00">clusterFinderDefs.h</text>
</a>
</g>
</g>
<!-- Node1&#45;&gt;Node2 -->
<g id="edge1" class="edge"><title>Node1&#45;&gt;Node2</title>
<path fill="none" stroke="midnightblue" d="M216.445,-560.427C199.472,-512.238 162.66,-407.717 147.746,-365.371"/>
<polygon fill="midnightblue" stroke="midnightblue" points="150.999,-364.073 144.376,-355.804 144.397,-366.398 150.999,-364.073"/>
</g>
<!-- Node14 -->
<g id="node14" class="node"><title>Node14</title>
<g id="a_node14"><a xlink:href="../../dd/d0b/GPUCommonAlgorithm_8h.html" target="_top" xlink:title="GPUCommonAlgorithm.h">
<polygon fill="none" stroke="black" points="1449.28,-168.5 1449.28,-187.5 1577.28,-187.5 1577.28,-168.5 1449.28,-168.5"/>
<text text-anchor="middle" x="1513.28" y="-175.5" font-family="Helvetica,sans-Serif" font-size="10.00">GPUCommonAlgorithm.h</text>
</a>
</g>
</g>
<!-- Node1&#45;&gt;Node14 -->
<g id="edge14" class="edge"><title>Node1&#45;&gt;Node14</title>
<path fill="none" stroke="midnightblue" d="M318.025,-581.468C618.257,-567.809 1544.28,-520.68 1544.28,-459 1544.28,-459 1544.28,-459 1544.28,-401 1544.28,-325.175 1526.32,-236.171 1517.74,-197.973"/>
<polygon fill="midnightblue" stroke="midnightblue" points="1521.06,-196.784 1515.41,-187.821 1514.23,-198.35 1521.06,-196.784"/>
</g>
<!-- Node16 -->
<g id="node16" class="node"><title>Node16</title>
<g id="a_node16"><a xlink:href="../../d7/d60/Array2D_8h.html" target="_top" xlink:title="Array2D.h">
<polygon fill="none" stroke="black" points="194.775,-448.5 194.775,-467.5 255.775,-467.5 255.775,-448.5 194.775,-448.5"/>
<text text-anchor="middle" x="225.275" y="-455.5" font-family="Helvetica,sans-Serif" font-size="10.00">Array2D.h</text>
</a>
</g>
</g>
<!-- Node1&#45;&gt;Node16 -->
<g id="edge17" class="edge"><title>Node1&#45;&gt;Node16</title>
<path fill="none" stroke="midnightblue" d="M225.275,-560.205C225.275,-535.88 225.275,-499.671 225.275,-477.8"/>
<polygon fill="midnightblue" stroke="midnightblue" points="228.775,-477.55 225.275,-467.55 221.775,-477.55 228.775,-477.55"/>
</g>
<!-- Node17 -->
<g id="node17" class="node"><title>Node17</title>
<g id="a_node17"><a xlink:href="../../d6/d63/CfConsts_8h.html" target="_top" xlink:title="CfConsts.h">
<polygon fill="none" stroke="black" points="70.7754,-504.5 70.7754,-523.5 137.775,-523.5 137.775,-504.5 70.7754,-504.5"/>
<text text-anchor="middle" x="104.275" y="-511.5" font-family="Helvetica,sans-Serif" font-size="10.00">CfConsts.h</text>
</a>
</g>
</g>
<!-- Node1&#45;&gt;Node17 -->
<g id="edge19" class="edge"><title>Node1&#45;&gt;Node17</title>
<path fill="none" stroke="midnightblue" d="M182.275,-560.446C163.936,-549.761 143.251,-537.709 127.792,-528.702"/>
<polygon fill="midnightblue" stroke="midnightblue" points="129.313,-525.537 118.91,-523.527 125.789,-531.585 129.313,-525.537"/>
</g>
<!-- Node18 -->
<g id="node18" class="node"><title>Node18</title>
<g id="a_node18"><a xlink:href="../../d1/d59/GPUTPCClusterFinderKernels_8h.html" target="_top" xlink:title="GPUTPCClusterFinderKernels.h">
<polygon fill="none" stroke="black" points="313.275,-504.5 313.275,-523.5 471.275,-523.5 471.275,-504.5 313.275,-504.5"/>
<text text-anchor="middle" x="392.275" y="-511.5" font-family="Helvetica,sans-Serif" font-size="10.00">GPUTPCClusterFinderKernels.h</text>
</a>
</g>
</g>
<!-- Node1&#45;&gt;Node18 -->
<g id="edge21" class="edge"><title>Node1&#45;&gt;Node18</title>
<path fill="none" stroke="midnightblue" d="M284.624,-560.446C311.127,-549.257 341.183,-536.569 362.788,-527.448"/>
<polygon fill="midnightblue" stroke="midnightblue" points="364.225,-530.641 372.077,-523.527 361.503,-524.192 364.225,-530.641"/>
</g>
<!-- Node3 -->
<g id="node3" class="node"><title>Node3</title>
<g id="a_node3"><a xlink:href="../../d2/d6d/GPUDef_8h.html" target="_top" xlink:title="GPUDef.h">
<polygon fill="none" stroke="black" points="872.275,-112.5 872.275,-131.5 934.275,-131.5 934.275,-112.5 872.275,-112.5"/>
<text text-anchor="middle" x="903.275" y="-119.5" font-family="Helvetica,sans-Serif" font-size="10.00">GPUDef.h</text>
</a>
</g>
</g>
<!-- Node2&#45;&gt;Node3 -->
<g id="edge2" class="edge"><title>Node2&#45;&gt;Node3</title>
<path fill="none" stroke="midnightblue" d="M89.8394,-338.802C41.8209,-330.826 -18.9371,-313.766 6.27538,-280 110.517,-140.393 700.191,-124.802 862.131,-123.165"/>
<polygon fill="midnightblue" stroke="midnightblue" points="862.201,-126.664 872.169,-123.076 862.139,-119.665 862.201,-126.664"/>
</g>
<!-- Node12 -->
<g id="node12" class="node"><title>Node12</title>
<g id="a_node12"><a xlink:href="../../d6/deb/GPU_2GPUTracking_2TPCClusterFinder_2Digit_8h.html" target="_top" xlink:title="Digit.h">
<polygon fill="none" stroke="black" points="118.775,-280.5 118.775,-299.5 163.775,-299.5 163.775,-280.5 118.775,-280.5"/>
<text text-anchor="middle" x="141.275" y="-287.5" font-family="Helvetica,sans-Serif" font-size="10.00">Digit.h</text>
</a>
</g>
</g>
<!-- Node2&#45;&gt;Node12 -->
<g id="edge11" class="edge"><title>Node2&#45;&gt;Node12</title>
<path fill="none" stroke="midnightblue" d="M136.109,-336.083C134.6,-328.927 134.169,-318.635 134.818,-309.691"/>
<polygon fill="midnightblue" stroke="midnightblue" points="138.291,-310.126 136.144,-299.751 131.352,-309.2 138.291,-310.126"/>
</g>
<!-- Node13 -->
<g id="node13" class="node"><title>Node13</title>
<g id="a_node13"><a xlink:href="../../d0/dc1/GPU_2GPUTracking_2TPCClusterFinder_2ClusterNative_8h.html" target="_top" xlink:title="ClusterNative.h">
<polygon fill="none" stroke="black" points="15.7754,-280.5 15.7754,-299.5 100.775,-299.5 100.775,-280.5 15.7754,-280.5"/>
<text text-anchor="middle" x="58.2754" y="-287.5" font-family="Helvetica,sans-Serif" font-size="10.00">ClusterNative.h</text>
</a>
</g>
</g>
<!-- Node2&#45;&gt;Node13 -->
<g id="edge13" class="edge"><title>Node2&#45;&gt;Node13</title>
<path fill="none" stroke="midnightblue" d="M127.94,-336.324C115.113,-327.979 95.4904,-315.212 80.3356,-305.352"/>
<polygon fill="midnightblue" stroke="midnightblue" points="81.8685,-302.174 71.5777,-299.655 78.0511,-308.042 81.8685,-302.174"/>
</g>
<!-- Node4 -->
<g id="node4" class="node"><title>Node4</title>
<g id="a_node4"><a xlink:href="../../df/d21/GPUCommonDef_8h.html" target="_top" xlink:title="GPUCommonDef.h">
<polygon fill="none" stroke="black" points="1165.28,-56.5 1165.28,-75.5 1267.28,-75.5 1267.28,-56.5 1165.28,-56.5"/>
<text text-anchor="middle" x="1216.28" y="-63.5" font-family="Helvetica,sans-Serif" font-size="10.00">GPUCommonDef.h</text>
</a>
</g>
</g>
<!-- Node3&#45;&gt;Node4 -->
<g id="edge3" class="edge"><title>Node3&#45;&gt;Node4</title>
<path fill="none" stroke="midnightblue" d="M934.37,-115.227C940.312,-114.141 946.484,-113.025 952.275,-112 1021.74,-99.7014 1101.59,-86.1744 1155.13,-77.195"/>
<polygon fill="midnightblue" stroke="midnightblue" points="1155.85,-80.6218 1165.14,-75.517 1154.7,-73.7181 1155.85,-80.6218"/>
</g>
<!-- Node7 -->
<g id="node7" class="node"><title>Node7</title>
<g id="a_node7"><a xlink:href="../../d2/d37/GPUDefConstantsAndSettings_8h.html" target="_top" xlink:title="GPUDefConstantsAndSettings.h">
<polygon fill="none" stroke="black" points="982.775,-56.5 982.775,-75.5 1143.78,-75.5 1143.78,-56.5 982.775,-56.5"/>
<text text-anchor="middle" x="1063.28" y="-63.5" font-family="Helvetica,sans-Serif" font-size="10.00">GPUDefConstantsAndSettings.h</text>
</a>
</g>
</g>
<!-- Node3&#45;&gt;Node7 -->
<g id="edge6" class="edge"><title>Node3&#45;&gt;Node7</title>
<path fill="none" stroke="midnightblue" d="M928.628,-112.444C955.545,-103.359 998.272,-88.9388 1028.36,-78.7831"/>
<polygon fill="midnightblue" stroke="midnightblue" points="1029.69,-82.0305 1038.04,-75.5164 1027.45,-75.3981 1029.69,-82.0305"/>
</g>
<!-- Node8 -->
<g id="node8" class="node"><title>Node8</title>
<g id="a_node8"><a xlink:href="../../dc/de9/GPUDefGPUParameters_8h.html" target="_top" xlink:title="GPUDefGPUParameters.h">
<polygon fill="none" stroke="black" points="520.275,-56.5 520.275,-75.5 654.275,-75.5 654.275,-56.5 520.275,-56.5"/>
<text text-anchor="middle" x="587.275" y="-63.5" font-family="Helvetica,sans-Serif" font-size="10.00">GPUDefGPUParameters.h</text>
</a>
</g>
</g>
<!-- Node3&#45;&gt;Node8 -->
<g id="edge7" class="edge"><title>Node3&#45;&gt;Node8</title>
<path fill="none" stroke="midnightblue" d="M872.111,-115.674C819.979,-106.766 714.225,-88.694 647.273,-77.2527"/>
<polygon fill="midnightblue" stroke="midnightblue" points="647.728,-73.7798 637.281,-75.5453 646.549,-80.6798 647.728,-73.7798"/>
</g>
<!-- Node9 -->
<g id="node9" class="node"><title>Node9</title>
<g id="a_node9"><a xlink:href="../../d3/d4c/GPUDefOpenCL12Templates_8h.html" target="_top" xlink:title="GPUDefOpenCL12Templates.h">
<polygon fill="none" stroke="black" points="672.775,-56.5 672.775,-75.5 827.775,-75.5 827.775,-56.5 672.775,-56.5"/>
<text text-anchor="middle" x="750.275" y="-63.5" font-family="Helvetica,sans-Serif" font-size="10.00">GPUDefOpenCL12Templates.h</text>
</a>
</g>
</g>
<!-- Node3&#45;&gt;Node9 -->
<g id="edge8" class="edge"><title>Node3&#45;&gt;Node9</title>
<path fill="none" stroke="midnightblue" d="M879.032,-112.444C853.405,-103.399 812.79,-89.064 784.037,-78.9158"/>
<polygon fill="midnightblue" stroke="midnightblue" points="785,-75.5442 774.405,-75.5164 782.67,-82.1452 785,-75.5442"/>
</g>
<!-- Node10 -->
<g id="node10" class="node"><title>Node10</title>
<g id="a_node10"><a xlink:href="../../d2/d45/GPUCommonRtypes_8h.html" target="_top" xlink:title="GPUCommonRtypes.h">
<polygon fill="none" stroke="black" points="846.275,-56.5 846.275,-75.5 964.275,-75.5 964.275,-56.5 846.275,-56.5"/>
<text text-anchor="middle" x="905.275" y="-63.5" font-family="Helvetica,sans-Serif" font-size="10.00">GPUCommonRtypes.h</text>
</a>
</g>
</g>
<!-- Node3&#45;&gt;Node10 -->
<g id="edge9" class="edge"><title>Node3&#45;&gt;Node10</title>
<path fill="none" stroke="midnightblue" d="M903.606,-112.083C903.868,-105.006 904.243,-94.8611 904.572,-85.9865"/>
<polygon fill="midnightblue" stroke="midnightblue" points="908.079,-85.8738 904.951,-75.7511 901.083,-85.6147 908.079,-85.8738"/>
</g>
<!-- Node5 -->
<g id="node5" class="node"><title>Node5</title>
<g id="a_node5"><a xlink:href="../../d5/d93/GPUCommonDefSettings_8h.html" target="_top" xlink:title="GPUCommonDefSettings.h">
<polygon fill="none" stroke="black" points="1220.28,-0.5 1220.28,-19.5 1358.28,-19.5 1358.28,-0.5 1220.28,-0.5"/>
<text text-anchor="middle" x="1289.28" y="-7.5" font-family="Helvetica,sans-Serif" font-size="10.00">GPUCommonDefSettings.h</text>
</a>
</g>
</g>
<!-- Node4&#45;&gt;Node5 -->
<g id="edge4" class="edge"><title>Node4&#45;&gt;Node5</title>
<path fill="none" stroke="midnightblue" d="M1228,-56.324C1239.11,-48.1066 1256.02,-35.6017 1269.26,-25.8069"/>
<polygon fill="midnightblue" stroke="midnightblue" points="1271.38,-28.5948 1277.33,-19.8339 1267.21,-22.9671 1271.38,-28.5948"/>
</g>
<!-- Node6 -->
<g id="node6" class="node"><title>Node6</title>
<g id="a_node6"><a xlink:href="../../da/d5a/GPUCommonDefAPI_8h.html" target="_top" xlink:title="GPUCommonDefAPI.h">
<polygon fill="none" stroke="black" points="1082.78,-0.5 1082.78,-19.5 1201.78,-19.5 1201.78,-0.5 1082.78,-0.5"/>
<text text-anchor="middle" x="1142.28" y="-7.5" font-family="Helvetica,sans-Serif" font-size="10.00">GPUCommonDefAPI.h</text>
</a>
</g>
</g>
<!-- Node4&#45;&gt;Node6 -->
<g id="edge5" class="edge"><title>Node4&#45;&gt;Node6</title>
<path fill="none" stroke="midnightblue" d="M1204.39,-56.324C1193.13,-48.1066 1175.99,-35.6017 1162.57,-25.8069"/>
<polygon fill="midnightblue" stroke="midnightblue" points="1164.52,-22.9014 1154.38,-19.8339 1160.4,-28.5559 1164.52,-22.9014"/>
</g>
<!-- Node11 -->
<g id="node11" class="node"><title>Node11</title>
<polygon fill="none" stroke="#bfbfbf" points="877.275,-0.5 877.275,-19.5 933.275,-19.5 933.275,-0.5 877.275,-0.5"/>
<text text-anchor="middle" x="905.275" y="-7.5" font-family="Helvetica,sans-Serif" font-size="10.00">Rtypes.h</text>
</g>
<!-- Node10&#45;&gt;Node11 -->
<g id="edge10" class="edge"><title>Node10&#45;&gt;Node11</title>
<path fill="none" stroke="midnightblue" d="M905.275,-56.083C905.275,-49.0059 905.275,-38.8611 905.275,-29.9865"/>
<polygon fill="midnightblue" stroke="midnightblue" points="908.775,-29.751 905.275,-19.7511 901.775,-29.7511 908.775,-29.751"/>
</g>
<!-- Node12&#45;&gt;Node2 -->
<g id="edge12" class="edge"><title>Node12&#45;&gt;Node2</title>
<path fill="none" stroke="midnightblue" d="M146.406,-299.751C147.933,-306.858 148.38,-317.136 147.748,-326.101"/>
<polygon fill="midnightblue" stroke="midnightblue" points="144.269,-325.713 146.442,-336.083 151.21,-326.622 144.269,-325.713"/>
</g>
<!-- Node14&#45;&gt;Node4 -->
<g id="edge15" class="edge"><title>Node14&#45;&gt;Node4</title>
<path fill="none" stroke="midnightblue" d="M1507.11,-168.207C1496.59,-153.941 1473.74,-125.948 1447.28,-112 1394.3,-84.0758 1326.26,-73.376 1277.77,-69.3309"/>
<polygon fill="midnightblue" stroke="midnightblue" points="1277.97,-65.8361 1267.74,-68.5649 1277.44,-72.8158 1277.97,-65.8361"/>
</g>
<!-- Node15 -->
<g id="node15" class="node"><title>Node15</title>
<polygon fill="none" stroke="#bfbfbf" points="1132.28,-112.5 1132.28,-131.5 1188.28,-131.5 1188.28,-112.5 1132.28,-112.5"/>
<text text-anchor="middle" x="1160.28" y="-119.5" font-family="Helvetica,sans-Serif" font-size="10.00">algorithm</text>
</g>
<!-- Node14&#45;&gt;Node15 -->
<g id="edge16" class="edge"><title>Node14&#45;&gt;Node15</title>
<path fill="none" stroke="midnightblue" d="M1457.34,-168.444C1385.12,-157.395 1261.3,-138.454 1198.79,-128.892"/>
<polygon fill="midnightblue" stroke="midnightblue" points="1198.99,-125.382 1188.58,-127.329 1197.93,-132.301 1198.99,-125.382"/>
</g>
<!-- Node16&#45;&gt;Node2 -->
<g id="edge18" class="edge"><title>Node16&#45;&gt;Node2</title>
<path fill="none" stroke="midnightblue" d="M219.736,-448.376C211.514,-435.725 195.419,-411.52 180.275,-392 172.671,-382.198 163.626,-371.698 156.163,-363.308"/>
<polygon fill="midnightblue" stroke="midnightblue" points="158.629,-360.816 149.338,-355.725 153.426,-365.499 158.629,-360.816"/>
</g>
<!-- Node17&#45;&gt;Node2 -->
<g id="edge20" class="edge"><title>Node17&#45;&gt;Node2</title>
<path fill="none" stroke="midnightblue" d="M106.265,-504.075C112.089,-477.945 129.192,-401.211 137.135,-365.577"/>
<polygon fill="midnightblue" stroke="midnightblue" points="140.606,-366.09 139.366,-355.568 133.774,-364.567 140.606,-366.09"/>
</g>
<!-- Node18&#45;&gt;Node2 -->
<g id="edge79" class="edge"><title>Node18&#45;&gt;Node2</title>
<path fill="none" stroke="midnightblue" d="M374.049,-504.457C356.333,-495.925 328.87,-482.084 306.275,-468 302.512,-465.654 204.176,-393.309 161.135,-361.624"/>
<polygon fill="midnightblue" stroke="midnightblue" points="163.204,-358.8 153.076,-355.69 159.053,-364.437 163.204,-358.8"/>
</g>
<!-- Node19 -->
<g id="node19" class="node"><title>Node19</title>
<g id="a_node19"><a xlink:href="../../d9/de5/GPUGeneralKernels_8h.html" target="_top" xlink:title="GPUGeneralKernels.h">
<polygon fill="none" stroke="black" points="1326.78,-224.5 1326.78,-243.5 1439.78,-243.5 1439.78,-224.5 1326.78,-224.5"/>
<text text-anchor="middle" x="1383.28" y="-231.5" font-family="Helvetica,sans-Serif" font-size="10.00">GPUGeneralKernels.h</text>
</a>
</g>
</g>
<!-- Node18&#45;&gt;Node19 -->
<g id="edge22" class="edge"><title>Node18&#45;&gt;Node19</title>
<path fill="none" stroke="midnightblue" d="M471.541,-512.033C698.775,-508.217 1336.28,-489.779 1336.28,-403 1336.28,-403 1336.28,-403 1336.28,-345 1336.28,-309.702 1356.99,-272.786 1370.92,-251.96"/>
<polygon fill="midnightblue" stroke="midnightblue" points="1373.91,-253.796 1376.74,-243.587 1368.16,-249.8 1373.91,-253.796"/>
</g>
<!-- Node22 -->
<g id="node22" class="node"><title>Node22</title>
<g id="a_node22"><a xlink:href="../../db/df8/GPUConstantMem_8h.html" target="_top" xlink:title="GPUConstantMem.h">
<polygon fill="none" stroke="black" points="1364.28,-448.5 1364.28,-467.5 1472.28,-467.5 1472.28,-448.5 1364.28,-448.5"/>
<text text-anchor="middle" x="1418.28" y="-455.5" font-family="Helvetica,sans-Serif" font-size="10.00">GPUConstantMem.h</text>
</a>
</g>
</g>
<!-- Node18&#45;&gt;Node22 -->
<g id="edge27" class="edge"><title>Node18&#45;&gt;Node22</title>
<path fill="none" stroke="midnightblue" d="M471.287,-511.551C635.356,-508.043 1024.81,-497.129 1350.28,-468 1351.54,-467.887 1352.82,-467.767 1354.11,-467.642"/>
<polygon fill="midnightblue" stroke="midnightblue" points="1354.55,-471.115 1364.13,-466.586 1353.82,-464.153 1354.55,-471.115"/>
</g>
<!-- Node42 -->
<g id="node42" class="node"><title>Node42</title>
<g id="a_node42"><a xlink:href="../../d5/df1/GPUTPCSharedMemoryData_8h.html" target="_top" xlink:title="GPUTPCSharedMemoryData.h">
<polygon fill="none" stroke="black" points="315.275,-448.5 315.275,-467.5 469.275,-467.5 469.275,-448.5 315.275,-448.5"/>
<text text-anchor="middle" x="392.275" y="-455.5" font-family="Helvetica,sans-Serif" font-size="10.00">GPUTPCSharedMemoryData.h</text>
</a>
</g>
</g>
<!-- Node18&#45;&gt;Node42 -->
<g id="edge74" class="edge"><title>Node18&#45;&gt;Node42</title>
<path fill="none" stroke="midnightblue" d="M392.275,-504.083C392.275,-497.006 392.275,-486.861 392.275,-477.986"/>
<polygon fill="midnightblue" stroke="midnightblue" points="395.775,-477.751 392.275,-467.751 388.775,-477.751 395.775,-477.751"/>
</g>
<!-- Node19&#45;&gt;Node3 -->
<g id="edge23" class="edge"><title>Node19&#45;&gt;Node3</title>
<path fill="none" stroke="midnightblue" d="M1338.28,-224.454C1293.53,-215.811 1222.99,-201.792 1162.28,-188 1085.09,-170.465 995.654,-147.407 944.642,-133.993"/>
<polygon fill="midnightblue" stroke="midnightblue" points="945.224,-130.527 934.662,-131.363 943.44,-137.296 945.224,-130.527"/>
</g>
<!-- Node20 -->
<g id="node20" class="node"><title>Node20</title>
<g id="a_node20"><a xlink:href="../../d4/dc5/GPUDataTypes_8h.html" target="_top" xlink:title="GPUDataTypes.h">
<polygon fill="none" stroke="black" points="1335.78,-168.5 1335.78,-187.5 1430.78,-187.5 1430.78,-168.5 1335.78,-168.5"/>
<text text-anchor="middle" x="1383.28" y="-175.5" font-family="Helvetica,sans-Serif" font-size="10.00">GPUDataTypes.h</text>
</a>
</g>
</g>
<!-- Node19&#45;&gt;Node20 -->
<g id="edge24" class="edge"><title>Node19&#45;&gt;Node20</title>
<path fill="none" stroke="midnightblue" d="M1383.28,-224.083C1383.28,-217.006 1383.28,-206.861 1383.28,-197.986"/>
<polygon fill="midnightblue" stroke="midnightblue" points="1386.78,-197.751 1383.28,-187.751 1379.78,-197.751 1386.78,-197.751"/>
</g>
<!-- Node20&#45;&gt;Node4 -->
<g id="edge25" class="edge"><title>Node20&#45;&gt;Node4</title>
<path fill="none" stroke="midnightblue" d="M1397.66,-168.397C1417,-155.772 1447.2,-131.599 1431.28,-112 1412.2,-88.5238 1334.22,-76.8633 1277.65,-71.3893"/>
<polygon fill="midnightblue" stroke="midnightblue" points="1277.64,-67.8732 1267.36,-70.4377 1276.99,-74.8434 1277.64,-67.8732"/>
</g>
<!-- Node21 -->
<g id="node21" class="node"><title>Node21</title>
<polygon fill="none" stroke="#bfbfbf" points="1372.78,-112.5 1372.78,-131.5 1421.78,-131.5 1421.78,-112.5 1372.78,-112.5"/>
<text text-anchor="middle" x="1397.28" y="-119.5" font-family="Helvetica,sans-Serif" font-size="10.00">cstddef</text>
</g>
<!-- Node20&#45;&gt;Node21 -->
<g id="edge26" class="edge"><title>Node20&#45;&gt;Node21</title>
<path fill="none" stroke="midnightblue" d="M1385.59,-168.083C1387.44,-160.927 1390.11,-150.635 1392.43,-141.691"/>
<polygon fill="midnightblue" stroke="midnightblue" points="1395.88,-142.309 1395.01,-131.751 1389.11,-140.553 1395.88,-142.309"/>
</g>
<!-- Node22&#45;&gt;Node20 -->
<g id="edge70" class="edge"><title>Node22&#45;&gt;Node20</title>
<path fill="none" stroke="midnightblue" d="M1425.23,-448.481C1438.97,-430.753 1468.28,-388.116 1468.28,-347 1468.28,-347 1468.28,-347 1468.28,-289 1468.28,-258.902 1466.97,-248.349 1449.28,-224 1439.54,-210.6 1424.52,-199.909 1411.27,-192.315"/>
<polygon fill="midnightblue" stroke="midnightblue" points="1412.93,-189.232 1402.46,-187.557 1409.6,-195.39 1412.93,-189.232"/>
</g>
<!-- Node23 -->
<g id="node23" class="node"><title>Node23</title>
<g id="a_node23"><a xlink:href="../../d6/d25/GPUTPCTracker_8h.html" target="_top" xlink:title="GPUTPCTracker.h">
<polygon fill="none" stroke="black" points="815.275,-392.5 815.275,-411.5 915.275,-411.5 915.275,-392.5 815.275,-392.5"/>
<text text-anchor="middle" x="865.275" y="-399.5" font-family="Helvetica,sans-Serif" font-size="10.00">GPUTPCTracker.h</text>
</a>
</g>
</g>
<!-- Node22&#45;&gt;Node23 -->
<g id="edge28" class="edge"><title>Node22&#45;&gt;Node23</title>
<path fill="none" stroke="midnightblue" d="M1364.24,-451.724C1260.51,-441.594 1034.14,-419.49 925.631,-408.894"/>
<polygon fill="midnightblue" stroke="midnightblue" points="925.799,-405.393 915.506,-407.905 925.118,-412.36 925.799,-405.393"/>
</g>
<!-- Node32 -->
<g id="node32" class="node"><title>Node32</title>
<g id="a_node32"><a xlink:href="../../df/d13/GPUParam_8h.html" target="_top" xlink:title="GPUParam.h">
<polygon fill="none" stroke="black" points="937.775,-280.5 937.775,-299.5 1012.78,-299.5 1012.78,-280.5 937.775,-280.5"/>
<text text-anchor="middle" x="975.275" y="-287.5" font-family="Helvetica,sans-Serif" font-size="10.00">GPUParam.h</text>
</a>
</g>
</g>
<!-- Node22&#45;&gt;Node32 -->
<g id="edge69" class="edge"><title>Node22&#45;&gt;Node32</title>
<path fill="none" stroke="midnightblue" d="M1395.39,-448.425C1322.02,-420.932 1092.51,-334.932 1007.43,-303.05"/>
<polygon fill="midnightblue" stroke="midnightblue" points="1008.62,-299.756 998.023,-299.524 1006.16,-306.311 1008.62,-299.756"/>
</g>
<!-- Node41 -->
<g id="node41" class="node"><title>Node41</title>
<g id="a_node41"><a xlink:href="../../da/d28/GPUO2FakeClasses_8h.html" target="_top" xlink:title="GPUO2FakeClasses.h">
<polygon fill="none" stroke="black" points="1541.78,-224.5 1541.78,-243.5 1658.78,-243.5 1658.78,-224.5 1541.78,-224.5"/>
<text text-anchor="middle" x="1600.28" y="-231.5" font-family="Helvetica,sans-Serif" font-size="10.00">GPUO2FakeClasses.h</text>
</a>
</g>
</g>
<!-- Node22&#45;&gt;Node41 -->
<g id="edge71" class="edge"><title>Node22&#45;&gt;Node41</title>
<path fill="none" stroke="midnightblue" d="M1433.7,-448.392C1447.48,-440.216 1467.67,-426.973 1482.28,-412 1532.06,-360.969 1573.85,-286.261 1591.41,-252.596"/>
<polygon fill="midnightblue" stroke="midnightblue" points="1594.6,-254.032 1596.06,-243.538 1588.37,-250.835 1594.6,-254.032"/>
</g>
<!-- Node24 -->
<g id="node24" class="node"><title>Node24</title>
<g id="a_node24"><a xlink:href="../../da/dab/GPUTPCDef_8h.html" target="_top" xlink:title="GPUTPCDef.h">
<polygon fill="none" stroke="black" points="396.775,-168.5 396.775,-187.5 479.775,-187.5 479.775,-168.5 396.775,-168.5"/>
<text text-anchor="middle" x="438.275" y="-175.5" font-family="Helvetica,sans-Serif" font-size="10.00">GPUTPCDef.h</text>
</a>
</g>
</g>
<!-- Node23&#45;&gt;Node24 -->
<g id="edge29" class="edge"><title>Node23&#45;&gt;Node24</title>
<path fill="none" stroke="midnightblue" d="M814.994,-401.376C675.346,-401.23 287.986,-392.355 211.275,-300 189.693,-274.016 189.839,-250.104 211.275,-224 233.029,-197.511 326.628,-186.342 386.636,-181.838"/>
<polygon fill="midnightblue" stroke="midnightblue" points="386.967,-185.323 396.693,-181.122 386.47,-178.341 386.967,-185.323"/>
</g>
<!-- Node25 -->
<g id="node25" class="node"><title>Node25</title>
<polygon fill="none" stroke="#bfbfbf" points="888.275,-336.5 888.275,-355.5 942.275,-355.5 942.275,-336.5 888.275,-336.5"/>
<text text-anchor="middle" x="915.275" y="-343.5" font-family="Helvetica,sans-Serif" font-size="10.00">iostream</text>
</g>
<!-- Node23&#45;&gt;Node25 -->
<g id="edge31" class="edge"><title>Node23&#45;&gt;Node25</title>
<path fill="none" stroke="midnightblue" d="M873.532,-392.083C880.74,-384.298 891.385,-372.801 900.121,-363.367"/>
<polygon fill="midnightblue" stroke="midnightblue" points="902.947,-365.467 907.173,-355.751 897.81,-360.711 902.947,-365.467"/>
</g>
<!-- Node26 -->
<g id="node26" class="node"><title>Node26</title>
<g id="a_node26"><a xlink:href="../../dd/d7b/GPUTPCHitId_8h.html" target="_top" xlink:title="GPUTPCHitId.h">
<polygon fill="none" stroke="black" points="960.275,-336.5 960.275,-355.5 1048.28,-355.5 1048.28,-336.5 960.275,-336.5"/>
<text text-anchor="middle" x="1004.28" y="-343.5" font-family="Helvetica,sans-Serif" font-size="10.00">GPUTPCHitId.h</text>
</a>
</g>
</g>
<!-- Node23&#45;&gt;Node26 -->
<g id="edge32" class="edge"><title>Node23&#45;&gt;Node26</title>
<path fill="none" stroke="midnightblue" d="M887.3,-392.444C910.379,-383.478 946.837,-369.314 972.916,-359.183"/>
<polygon fill="midnightblue" stroke="midnightblue" points="974.3,-362.4 982.353,-355.516 971.765,-355.875 974.3,-362.4"/>
</g>
<!-- Node27 -->
<g id="node27" class="node"><title>Node27</title>
<g id="a_node27"><a xlink:href="../../df/d4a/GPUTPCSliceData_8h.html" target="_top" xlink:title="GPUTPCSliceData.h">
<polygon fill="none" stroke="black" points="760.275,-336.5 760.275,-355.5 870.275,-355.5 870.275,-336.5 760.275,-336.5"/>
<text text-anchor="middle" x="815.275" y="-343.5" font-family="Helvetica,sans-Serif" font-size="10.00">GPUTPCSliceData.h</text>
</a>
</g>
</g>
<!-- Node23&#45;&gt;Node27 -->
<g id="edge33" class="edge"><title>Node23&#45;&gt;Node27</title>
<path fill="none" stroke="midnightblue" d="M857.019,-392.083C849.811,-384.298 839.166,-372.801 830.43,-363.367"/>
<polygon fill="midnightblue" stroke="midnightblue" points="832.741,-360.711 823.378,-355.751 827.604,-365.467 832.741,-360.711"/>
</g>
<!-- Node37 -->
<g id="node37" class="node"><title>Node37</title>
<g id="a_node37"><a xlink:href="../../d6/d57/GPUProcessor_8h.html" target="_top" xlink:title="GPUProcessor.h">
<polygon fill="none" stroke="black" points="1170.78,-168.5 1170.78,-187.5 1261.78,-187.5 1261.78,-168.5 1170.78,-168.5"/>
<text text-anchor="middle" x="1216.28" y="-175.5" font-family="Helvetica,sans-Serif" font-size="10.00">GPUProcessor.h</text>
</a>
</g>
</g>
<!-- Node23&#45;&gt;Node37 -->
<g id="edge68" class="edge"><title>Node23&#45;&gt;Node37</title>
<path fill="none" stroke="midnightblue" d="M915.536,-393.703C955.071,-386.909 1011.01,-374.935 1057.28,-356 1145.88,-319.735 1194.37,-327.459 1241.28,-244 1250.02,-228.437 1240.36,-209.203 1230.62,-195.71"/>
<polygon fill="midnightblue" stroke="midnightblue" points="1233.32,-193.482 1224.4,-187.768 1227.81,-197.799 1233.32,-193.482"/>
</g>
<!-- Node38 -->
<g id="node38" class="node"><title>Node38</title>
<g id="a_node38"><a xlink:href="../../de/d15/GPUTPCTrackParam_8h.html" target="_top" xlink:title="GPUTPCTrackParam.h">
<polygon fill="none" stroke="black" points="340.275,-280.5 340.275,-299.5 460.275,-299.5 460.275,-280.5 340.275,-280.5"/>
<text text-anchor="middle" x="400.275" y="-287.5" font-family="Helvetica,sans-Serif" font-size="10.00">GPUTPCTrackParam.h</text>
</a>
</g>
</g>
<!-- Node23&#45;&gt;Node38 -->
<g id="edge60" class="edge"><title>Node23&#45;&gt;Node38</title>
<path fill="none" stroke="midnightblue" d="M842.402,-392.429C819.268,-383.654 782.557,-369.435 751.275,-356 731.909,-347.682 728.471,-342.031 708.275,-336 685.978,-329.341 554.248,-311.271 470.443,-300.16"/>
<polygon fill="midnightblue" stroke="midnightblue" points="470.843,-296.682 460.471,-298.84 469.925,-303.622 470.843,-296.682"/>
</g>
<!-- Node40 -->
<g id="node40" class="node"><title>Node40</title>
<g id="a_node40"><a xlink:href="../../db/d6e/GPUTPCTracklet_8h.html" target="_top" xlink:title="GPUTPCTracklet.h">
<polygon fill="none" stroke="black" points="220.275,-280.5 220.275,-299.5 322.275,-299.5 322.275,-280.5 220.275,-280.5"/>
<text text-anchor="middle" x="271.275" y="-287.5" font-family="Helvetica,sans-Serif" font-size="10.00">GPUTPCTracklet.h</text>
</a>
</g>
</g>
<!-- Node23&#45;&gt;Node40 -->
<g id="edge65" class="edge"><title>Node23&#45;&gt;Node40</title>
<path fill="none" stroke="midnightblue" d="M819.159,-392.46C711.6,-372.542 444.411,-323.062 327.526,-301.417"/>
<polygon fill="midnightblue" stroke="midnightblue" points="327.832,-297.914 317.362,-299.535 326.557,-304.797 327.832,-297.914"/>
</g>
<!-- Node24&#45;&gt;Node3 -->
<g id="edge30" class="edge"><title>Node24&#45;&gt;Node3</title>
<path fill="none" stroke="midnightblue" d="M479.95,-172.16C568.42,-161.886 774.084,-138.003 862.105,-127.781"/>
<polygon fill="midnightblue" stroke="midnightblue" points="862.711,-131.234 872.241,-126.604 861.904,-124.281 862.711,-131.234"/>
</g>
<!-- Node27&#45;&gt;Node24 -->
<g id="edge34" class="edge"><title>Node27&#45;&gt;Node24</title>
<path fill="none" stroke="midnightblue" d="M796.435,-336.486C776.665,-327.52 744.708,-312.936 717.275,-300 647.157,-266.934 631.616,-254.339 560.275,-224 531.426,-211.731 497.976,-199.531 473.407,-190.936"/>
<polygon fill="midnightblue" stroke="midnightblue" points="474.387,-187.571 463.792,-187.598 472.091,-194.184 474.387,-187.571"/>
</g>
<!-- Node28 -->
<g id="node28" class="node"><title>Node28</title>
<g id="a_node28"><a xlink:href="../../d8/dff/GPUTPCRow_8h.html" target="_top" xlink:title="GPUTPCRow.h">
<polygon fill="none" stroke="black" points="478.775,-280.5 478.775,-299.5 565.775,-299.5 565.775,-280.5 478.775,-280.5"/>
<text text-anchor="middle" x="522.275" y="-287.5" font-family="Helvetica,sans-Serif" font-size="10.00">GPUTPCRow.h</text>
</a>
</g>
</g>
<!-- Node27&#45;&gt;Node28 -->
<g id="edge35" class="edge"><title>Node27&#45;&gt;Node28</title>
<path fill="none" stroke="midnightblue" d="M768.849,-336.444C716.44,-326.785 631.302,-311.094 576.047,-300.91"/>
<polygon fill="midnightblue" stroke="midnightblue" points="576.561,-297.446 566.092,-299.075 575.292,-304.33 576.561,-297.446"/>
</g>
<!-- Node30 -->
<g id="node30" class="node"><title>Node30</title>
<g id="a_node30"><a xlink:href="../../d6/da2/GPUCommonMath_8h.html" target="_top" xlink:title="GPUCommonMath.h">
<polygon fill="none" stroke="black" points="930.275,-168.5 930.275,-187.5 1038.28,-187.5 1038.28,-168.5 930.275,-168.5"/>
<text text-anchor="middle" x="984.275" y="-175.5" font-family="Helvetica,sans-Serif" font-size="10.00">GPUCommonMath.h</text>
</a>
</g>
</g>
<!-- Node27&#45;&gt;Node30 -->
<g id="edge39" class="edge"><title>Node27&#45;&gt;Node30</title>
<path fill="none" stroke="midnightblue" d="M798.229,-336.478C760.812,-316.694 677.567,-266.127 713.275,-224 739.215,-193.398 848.088,-183.583 919.696,-180.45"/>
<polygon fill="midnightblue" stroke="midnightblue" points="920.126,-183.936 929.976,-180.035 919.843,-176.942 920.126,-183.936"/>
</g>
<!-- Node27&#45;&gt;Node32 -->
<g id="edge43" class="edge"><title>Node27&#45;&gt;Node32</title>
<path fill="none" stroke="midnightblue" d="M840.628,-336.444C867.545,-327.359 910.272,-312.939 940.362,-302.783"/>
<polygon fill="midnightblue" stroke="midnightblue" points="941.686,-306.031 950.042,-299.516 939.447,-299.398 941.686,-306.031"/>
</g>
<!-- Node36 -->
<g id="node36" class="node"><title>Node36</title>
<g id="a_node36"><a xlink:href="../../d5/da6/GPUMemoryResource_8h.html" target="_top" xlink:title="GPUMemoryResource.h">
<polygon fill="none" stroke="black" points="1108.28,-224.5 1108.28,-243.5 1232.28,-243.5 1232.28,-224.5 1108.28,-224.5"/>
<text text-anchor="middle" x="1170.28" y="-231.5" font-family="Helvetica,sans-Serif" font-size="10.00">GPUMemoryResource.h</text>
</a>
</g>
</g>
<!-- Node27&#45;&gt;Node36 -->
<g id="edge53" class="edge"><title>Node27&#45;&gt;Node36</title>
<path fill="none" stroke="midnightblue" d="M867.667,-336.491C909.756,-328.957 970.081,-316.58 1021.28,-300 1065.9,-285.547 1115.39,-262.461 1144.61,-248.045"/>
<polygon fill="midnightblue" stroke="midnightblue" points="1146.32,-251.105 1153.71,-243.514 1143.2,-244.839 1146.32,-251.105"/>
</g>
<!-- Node28&#45;&gt;Node24 -->
<g id="edge36" class="edge"><title>Node28&#45;&gt;Node24</title>
<path fill="none" stroke="midnightblue" d="M503.377,-280.373C488.758,-272.773 469.077,-260.364 457.275,-244 447.497,-230.441 442.719,-211.892 440.404,-198.079"/>
<polygon fill="midnightblue" stroke="midnightblue" points="443.82,-197.229 438.983,-187.803 436.886,-198.189 443.82,-197.229"/>
</g>
<!-- Node29 -->
<g id="node29" class="node"><title>Node29</title>
<g id="a_node29"><a xlink:href="../../d3/da7/GPUTPCGrid_8h.html" target="_top" xlink:title="GPUTPCGrid.h">
<polygon fill="none" stroke="black" points="466.775,-224.5 466.775,-243.5 551.775,-243.5 551.775,-224.5 466.775,-224.5"/>
<text text-anchor="middle" x="509.275" y="-231.5" font-family="Helvetica,sans-Serif" font-size="10.00">GPUTPCGrid.h</text>
</a>
</g>
</g>
<!-- Node28&#45;&gt;Node29 -->
<g id="edge37" class="edge"><title>Node28&#45;&gt;Node29</title>
<path fill="none" stroke="midnightblue" d="M520.129,-280.083C518.406,-272.927 515.928,-262.635 513.775,-253.691"/>
<polygon fill="midnightblue" stroke="midnightblue" points="517.126,-252.654 511.382,-243.751 510.32,-254.293 517.126,-252.654"/>
</g>
<!-- Node29&#45;&gt;Node24 -->
<g id="edge38" class="edge"><title>Node29&#45;&gt;Node24</title>
<path fill="none" stroke="midnightblue" d="M497.868,-224.324C487.167,-216.185 470.935,-203.839 458.113,-194.087"/>
<polygon fill="midnightblue" stroke="midnightblue" points="459.969,-191.102 449.89,-187.834 455.731,-196.673 459.969,-191.102"/>
</g>
<!-- Node30&#45;&gt;Node4 -->
<g id="edge40" class="edge"><title>Node30&#45;&gt;Node4</title>
<path fill="none" stroke="midnightblue" d="M981.305,-168.246C977.261,-154.537 971.947,-127.924 985.275,-112 990.786,-105.416 1088.68,-88.0719 1155.25,-76.9402"/>
<polygon fill="midnightblue" stroke="midnightblue" points="1155.95,-80.3724 1165.23,-75.2773 1154.8,-73.4675 1155.95,-80.3724"/>
</g>
<!-- Node30&#45;&gt;Node15 -->
<g id="edge42" class="edge"><title>Node30&#45;&gt;Node15</title>
<path fill="none" stroke="midnightblue" d="M1012.16,-168.444C1042.03,-159.28 1089.59,-144.688 1122.73,-134.519"/>
<polygon fill="midnightblue" stroke="midnightblue" points="1123.98,-137.796 1132.52,-131.516 1121.93,-131.104 1123.98,-137.796"/>
</g>
<!-- Node31 -->
<g id="node31" class="node"><title>Node31</title>
<polygon fill="none" stroke="#bfbfbf" points="994.275,-112.5 994.275,-131.5 1038.28,-131.5 1038.28,-112.5 994.275,-112.5"/>
<text text-anchor="middle" x="1016.28" y="-119.5" font-family="Helvetica,sans-Serif" font-size="10.00">cmath</text>
</g>
<!-- Node30&#45;&gt;Node31 -->
<g id="edge41" class="edge"><title>Node30&#45;&gt;Node31</title>
<path fill="none" stroke="midnightblue" d="M989.56,-168.083C993.986,-160.613 1000.44,-149.724 1005.89,-140.52"/>
<polygon fill="midnightblue" stroke="midnightblue" points="1009,-142.138 1011.09,-131.751 1002.98,-138.57 1009,-142.138"/>
</g>
<!-- Node32&#45;&gt;Node3 -->
<g id="edge46" class="edge"><title>Node32&#45;&gt;Node3</title>
<path fill="none" stroke="midnightblue" d="M969.829,-280.399C959.227,-263.35 935.604,-223.814 921.275,-188 915.159,-172.712 910.331,-154.606 907.221,-141.391"/>
<polygon fill="midnightblue" stroke="midnightblue" points="910.631,-140.6 905.023,-131.611 903.801,-142.135 910.631,-140.6"/>
</g>
<!-- Node32&#45;&gt;Node4 -->
<g id="edge44" class="edge"><title>Node32&#45;&gt;Node4</title>
<path fill="none" stroke="midnightblue" d="M1002.22,-280.389C1020.73,-273.251 1044.69,-261.426 1060.28,-244 1102.31,-196.996 1068.43,-157.318 1112.28,-112 1127.55,-96.215 1149.28,-85.6395 1168.93,-78.7318"/>
<polygon fill="midnightblue" stroke="midnightblue" points="1170.26,-81.9792 1178.67,-75.5373 1168.08,-75.3277 1170.26,-81.9792"/>
</g>
<!-- Node32&#45;&gt;Node30 -->
<g id="edge45" class="edge"><title>Node32&#45;&gt;Node30</title>
<path fill="none" stroke="midnightblue" d="M970.279,-280.151C963.849,-267.628 954.086,-244.025 959.275,-224 961.821,-214.175 967.028,-204.212 972.034,-196.166"/>
<polygon fill="midnightblue" stroke="midnightblue" points="975.024,-197.99 977.647,-187.725 969.195,-194.114 975.024,-197.99"/>
</g>
<!-- Node33 -->
<g id="node33" class="node"><title>Node33</title>
<g id="a_node33"><a xlink:href="../../dd/dc6/GPUSettings_8h.html" target="_top" xlink:title="GPUSettings.h">
<polygon fill="none" stroke="black" points="968.775,-224.5 968.775,-243.5 1051.78,-243.5 1051.78,-224.5 968.775,-224.5"/>
<text text-anchor="middle" x="1010.28" y="-231.5" font-family="Helvetica,sans-Serif" font-size="10.00">GPUSettings.h</text>
</a>
</g>
</g>
<!-- Node32&#45;&gt;Node33 -->
<g id="edge47" class="edge"><title>Node32&#45;&gt;Node33</title>
<path fill="none" stroke="midnightblue" d="M981.055,-280.083C985.948,-272.534 993.103,-261.495 999.108,-252.23"/>
<polygon fill="midnightblue" stroke="midnightblue" points="1002.1,-254.046 1004.6,-243.751 996.227,-250.239 1002.1,-254.046"/>
</g>
<!-- Node34 -->
<g id="node34" class="node"><title>Node34</title>
<g id="a_node34"><a xlink:href="../../d6/d1b/GPUTPCGeometry_8h.html" target="_top" xlink:title="GPUTPCGeometry.h">
<polygon fill="none" stroke="black" points="1244.28,-112.5 1244.28,-131.5 1354.28,-131.5 1354.28,-112.5 1244.28,-112.5"/>
<text text-anchor="middle" x="1299.28" y="-119.5" font-family="Helvetica,sans-Serif" font-size="10.00">GPUTPCGeometry.h</text>
</a>
</g>
</g>
<!-- Node32&#45;&gt;Node34 -->
<g id="edge49" class="edge"><title>Node32&#45;&gt;Node34</title>
<path fill="none" stroke="midnightblue" d="M1013.01,-286.675C1077.48,-282.051 1205.34,-269.835 1241.28,-244 1275.54,-219.371 1290.35,-169.022 1296.09,-141.677"/>
<polygon fill="midnightblue" stroke="midnightblue" points="1299.59,-141.986 1298.02,-131.508 1292.71,-140.679 1299.59,-141.986"/>
</g>
<!-- Node35 -->
<g id="node35" class="node"><title>Node35</title>
<g id="a_node35"><a xlink:href="../../d9/d9c/GPUTPCGMPolynomialField_8h.html" target="_top" xlink:title="GPUTPCGMPolynomialField.h">
<polygon fill="none" stroke="black" points="722.275,-224.5 722.275,-243.5 874.275,-243.5 874.275,-224.5 722.275,-224.5"/>
<text text-anchor="middle" x="798.275" y="-231.5" font-family="Helvetica,sans-Serif" font-size="10.00">GPUTPCGMPolynomialField.h</text>
</a>
</g>
</g>
<!-- Node32&#45;&gt;Node35 -->
<g id="edge51" class="edge"><title>Node32&#45;&gt;Node35</title>
<path fill="none" stroke="midnightblue" d="M947.229,-280.444C917.194,-271.28 869.362,-256.688 836.033,-246.519"/>
<polygon fill="midnightblue" stroke="midnightblue" points="836.776,-243.087 826.19,-243.516 834.734,-249.782 836.776,-243.087"/>
</g>
<!-- Node33&#45;&gt;Node30 -->
<g id="edge48" class="edge"><title>Node33&#45;&gt;Node30</title>
<path fill="none" stroke="midnightblue" d="M1005.98,-224.083C1002.42,-216.691 997.253,-205.953 992.851,-196.811"/>
<polygon fill="midnightblue" stroke="midnightblue" points="995.981,-195.243 988.489,-187.751 989.674,-198.279 995.981,-195.243"/>
</g>
<!-- Node34&#45;&gt;Node4 -->
<g id="edge50" class="edge"><title>Node34&#45;&gt;Node4</title>
<path fill="none" stroke="midnightblue" d="M1285.94,-112.324C1273.11,-103.979 1253.49,-91.2122 1238.34,-81.3524"/>
<polygon fill="midnightblue" stroke="midnightblue" points="1239.87,-78.1742 1229.58,-75.6545 1236.05,-84.0417 1239.87,-78.1742"/>
</g>
<!-- Node35&#45;&gt;Node24 -->
<g id="edge52" class="edge"><title>Node35&#45;&gt;Node24</title>
<path fill="none" stroke="midnightblue" d="M741.232,-224.444C672.165,-214.083 556.833,-196.784 490.167,-186.784"/>
<polygon fill="midnightblue" stroke="midnightblue" points="490.309,-183.266 479.9,-185.244 489.27,-190.188 490.309,-183.266"/>
</g>
<!-- Node36&#45;&gt;Node4 -->
<g id="edge54" class="edge"><title>Node36&#45;&gt;Node4</title>
<path fill="none" stroke="midnightblue" d="M1161.66,-224.268C1142.34,-203.608 1099.09,-150.568 1123.28,-112 1133.15,-96.2481 1150.28,-85.8746 1167.16,-79.1065"/>
<polygon fill="midnightblue" stroke="midnightblue" points="1168.82,-82.2295 1177.02,-75.5247 1166.43,-75.6504 1168.82,-82.2295"/>
</g>
<!-- Node36&#45;&gt;Node37 -->
<g id="edge55" class="edge"><title>Node36&#45;&gt;Node37</title>
<path fill="none" stroke="midnightblue" d="M1177.87,-224.083C1184.5,-216.298 1194.3,-204.801 1202.33,-195.367"/>
<polygon fill="midnightblue" stroke="midnightblue" points="1205,-197.633 1208.82,-187.751 1199.67,-193.094 1205,-197.633"/>
</g>
<!-- Node37&#45;&gt;Node3 -->
<g id="edge57" class="edge"><title>Node37&#45;&gt;Node3</title>
<path fill="none" stroke="midnightblue" d="M1170.76,-169.148C1109.98,-158.662 1003.19,-140.237 944.608,-130.131"/>
<polygon fill="midnightblue" stroke="midnightblue" points="945.048,-126.655 934.598,-128.404 943.857,-133.553 945.048,-126.655"/>
</g>
<!-- Node37&#45;&gt;Node4 -->
<g id="edge56" class="edge"><title>Node37&#45;&gt;Node4</title>
<path fill="none" stroke="midnightblue" d="M1216.28,-168.368C1216.28,-150.617 1216.28,-109.666 1216.28,-85.5974"/>
<polygon fill="midnightblue" stroke="midnightblue" points="1219.78,-85.5914 1216.28,-75.5914 1212.78,-85.5915 1219.78,-85.5914"/>
</g>
<!-- Node37&#45;&gt;Node15 -->
<g id="edge59" class="edge"><title>Node37&#45;&gt;Node15</title>
<path fill="none" stroke="midnightblue" d="M1207.28,-168.324C1199.08,-160.42 1186.77,-148.548 1176.8,-138.938"/>
<polygon fill="midnightblue" stroke="midnightblue" points="1179.06,-136.256 1169.44,-131.834 1174.21,-141.295 1179.06,-136.256"/>
</g>
<!-- Node37&#45;&gt;Node21 -->
<g id="edge58" class="edge"><title>Node37&#45;&gt;Node21</title>
<path fill="none" stroke="midnightblue" d="M1244.96,-168.444C1276.84,-158.93 1328.35,-143.564 1362.51,-133.373"/>
<polygon fill="midnightblue" stroke="midnightblue" points="1363.93,-136.601 1372.51,-130.388 1361.93,-129.893 1363.93,-136.601"/>
</g>
<!-- Node38&#45;&gt;Node24 -->
<g id="edge63" class="edge"><title>Node38&#45;&gt;Node24</title>
<path fill="none" stroke="midnightblue" d="M403.257,-280.368C409.417,-262.537 423.664,-221.295 431.963,-197.272"/>
<polygon fill="midnightblue" stroke="midnightblue" points="435.35,-198.186 435.307,-187.591 428.734,-195.9 435.35,-198.186"/>
</g>
<!-- Node38&#45;&gt;Node30 -->
<g id="edge64" class="edge"><title>Node38&#45;&gt;Node30</title>
<path fill="none" stroke="midnightblue" d="M429.978,-280.496C485.068,-264.811 601.21,-232.18 642.275,-224 738.084,-204.916 850.657,-191.881 919.727,-184.936"/>
<polygon fill="midnightblue" stroke="midnightblue" points="920.407,-188.385 930.013,-183.914 919.716,-181.42 920.407,-188.385"/>
</g>
<!-- Node39 -->
<g id="node39" class="node"><title>Node39</title>
<g id="a_node39"><a xlink:href="../../df/d00/GPUTPCBaseTrackParam_8h.html" target="_top" xlink:title="GPUTPCBaseTrackParam.h">
<polygon fill="none" stroke="black" points="228.775,-224.5 228.775,-243.5 371.775,-243.5 371.775,-224.5 228.775,-224.5"/>
<text text-anchor="middle" x="300.275" y="-231.5" font-family="Helvetica,sans-Serif" font-size="10.00">GPUTPCBaseTrackParam.h</text>
</a>
</g>
</g>
<!-- Node38&#45;&gt;Node39 -->
<g id="edge61" class="edge"><title>Node38&#45;&gt;Node39</title>
<path fill="none" stroke="midnightblue" d="M384.209,-280.324C368.318,-271.743 343.768,-258.486 325.317,-248.522"/>
<polygon fill="midnightblue" stroke="midnightblue" points="326.764,-245.326 316.302,-243.655 323.438,-251.486 326.764,-245.326"/>
</g>
<!-- Node39&#45;&gt;Node24 -->
<g id="edge62" class="edge"><title>Node39&#45;&gt;Node24</title>
<path fill="none" stroke="midnightblue" d="M322.142,-224.444C345.055,-215.478 381.251,-201.314 407.142,-191.183"/>
<polygon fill="midnightblue" stroke="midnightblue" points="408.474,-194.42 416.511,-187.516 405.923,-187.901 408.474,-194.42"/>
</g>
<!-- Node40&#45;&gt;Node24 -->
<g id="edge67" class="edge"><title>Node40&#45;&gt;Node24</title>
<path fill="none" stroke="midnightblue" d="M255.555,-280.337C234.865,-267.839 202.928,-244.048 219.275,-224 239.986,-198.602 328.659,-187.13 386.626,-182.264"/>
<polygon fill="midnightblue" stroke="midnightblue" points="387.025,-185.743 396.714,-181.457 386.467,-178.765 387.025,-185.743"/>
</g>
<!-- Node40&#45;&gt;Node39 -->
<g id="edge66" class="edge"><title>Node40&#45;&gt;Node39</title>
<path fill="none" stroke="midnightblue" d="M276.064,-280.083C280.034,-272.691 285.8,-261.953 290.71,-252.811"/>
<polygon fill="midnightblue" stroke="midnightblue" points="293.928,-254.217 295.576,-243.751 287.761,-250.905 293.928,-254.217"/>
</g>
<!-- Node41&#45;&gt;Node4 -->
<g id="edge72" class="edge"><title>Node41&#45;&gt;Node4</title>
<path fill="none" stroke="midnightblue" d="M1600.66,-224.45C1600.83,-211.02 1599.29,-184.784 1586.28,-168 1552.17,-124.022 1527.14,-129.41 1474.28,-112 1408.89,-90.4648 1330.6,-78.6622 1277.54,-72.6127"/>
<polygon fill="midnightblue" stroke="midnightblue" points="1277.6,-69.0981 1267.28,-71.4783 1276.83,-76.0557 1277.6,-69.0981"/>
</g>
<!-- Node41&#45;&gt;Node20 -->
<g id="edge73" class="edge"><title>Node41&#45;&gt;Node20</title>
<path fill="none" stroke="midnightblue" d="M1565.89,-224.444C1528.35,-215.102 1468.14,-200.119 1427.21,-189.933"/>
<polygon fill="midnightblue" stroke="midnightblue" points="1428.05,-186.535 1417.5,-187.516 1426.36,-193.328 1428.05,-186.535"/>
</g>
<!-- Node42&#45;&gt;Node2 -->
<g id="edge75" class="edge"><title>Node42&#45;&gt;Node2</title>
<path fill="none" stroke="midnightblue" d="M382.251,-448.398C365.768,-434.655 331.453,-407.703 298.275,-392 265.437,-376.457 226.139,-365.2 195.075,-357.832"/>
<polygon fill="midnightblue" stroke="midnightblue" points="195.828,-354.414 185.297,-355.576 194.254,-361.235 195.828,-354.414"/>
</g>
<!-- Node43 -->
<g id="node43" class="node"><title>Node43</title>
<g id="a_node43"><a xlink:href="../../d1/d65/PackedCharge_8h.html" target="_top" xlink:title="PackedCharge.h">
<polygon fill="none" stroke="black" points="350.775,-392.5 350.775,-411.5 439.775,-411.5 439.775,-392.5 350.775,-392.5"/>
<text text-anchor="middle" x="395.275" y="-399.5" font-family="Helvetica,sans-Serif" font-size="10.00">PackedCharge.h</text>
</a>
</g>
</g>
<!-- Node42&#45;&gt;Node43 -->
<g id="edge76" class="edge"><title>Node42&#45;&gt;Node43</title>
<path fill="none" stroke="midnightblue" d="M392.771,-448.083C393.164,-441.006 393.728,-430.861 394.221,-421.986"/>
<polygon fill="midnightblue" stroke="midnightblue" points="397.729,-421.93 394.789,-411.751 390.74,-421.542 397.729,-421.93"/>
</g>
<!-- Node43&#45;&gt;Node2 -->
<g id="edge77" class="edge"><title>Node43&#45;&gt;Node2</title>
<path fill="none" stroke="midnightblue" d="M355.028,-392.444C310.626,-383.004 239.122,-367.802 191.187,-357.611"/>
<polygon fill="midnightblue" stroke="midnightblue" points="191.843,-354.173 181.334,-355.516 190.388,-361.02 191.843,-354.173"/>
</g>
<!-- Node43&#45;&gt;Node30 -->
<g id="edge78" class="edge"><title>Node43&#45;&gt;Node30</title>
<path fill="none" stroke="midnightblue" d="M410.675,-392.485C441.748,-375.264 514.118,-334.964 574.275,-300 631.147,-266.946 639.45,-246.461 701.275,-224 773.396,-197.798 861.342,-186.834 919.863,-182.258"/>
<polygon fill="midnightblue" stroke="midnightblue" points="920.362,-185.731 930.076,-181.501 919.845,-178.75 920.362,-185.731"/>
</g>
</g>
</svg>
