<?xml version="1.0" encoding="UTF-8" standalone="no"?>
<!DOCTYPE svg PUBLIC "-//W3C//DTD SVG 1.1//EN"
 "http://www.w3.org/Graphics/SVG/1.1/DTD/svg11.dtd">
<!-- Generated by graphviz version 2.38.0 (20140413.2041)
 -->
<!-- Title: /home/travis/build/AliceO2Group/AliceO2/Detectors/EMCAL/calib/src/TriggerTRUDCS.cxx Pages: 1 -->
<svg width="529pt" height="173pt"
 viewBox="0.00 0.00 528.50 173.00" xmlns="http://www.w3.org/2000/svg" xmlns:xlink="http://www.w3.org/1999/xlink">
<g id="graph0" class="graph" transform="scale(1 1) rotate(0) translate(4 169)">
<title>/home/travis/build/AliceO2Group/AliceO2/Detectors/EMCAL/calib/src/TriggerTRUDCS.cxx</title>
<!-- Node1 -->
<g id="node1" class="node"><title>Node1</title>
<polygon fill="#bfbfbf" stroke="black" points="257.5,-112.5 257.5,-164.5 385.5,-164.5 385.5,-112.5 257.5,-112.5"/>
<text text-anchor="start" x="265.5" y="-152.5" font-family="Helvetica,sans-Serif" font-size="10.00">/home/travis/build</text>
<text text-anchor="start" x="265.5" y="-141.5" font-family="Helvetica,sans-Serif" font-size="10.00">/AliceO2Group/AliceO2</text>
<text text-anchor="start" x="265.5" y="-130.5" font-family="Helvetica,sans-Serif" font-size="10.00">/Detectors/EMCAL/calib</text>
<text text-anchor="middle" x="321.5" y="-119.5" font-family="Helvetica,sans-Serif" font-size="10.00">/src/TriggerTRUDCS.cxx</text>
</g>
<!-- Node2 -->
<g id="node2" class="node"><title>Node2</title>
<g id="a_node2"><a xlink:href="../../d1/d50/TriggerTRUDCS_8h.html" target="_top" xlink:title="EMCALCalib/TriggerTRUDCS.h">
<polygon fill="none" stroke="black" points="3.5,-56.5 3.5,-75.5 161.5,-75.5 161.5,-56.5 3.5,-56.5"/>
<text text-anchor="middle" x="82.5" y="-63.5" font-family="Helvetica,sans-Serif" font-size="10.00">EMCALCalib/TriggerTRUDCS.h</text>
</a>
</g>
</g>
<!-- Node1&#45;&gt;Node2 -->
<g id="edge1" class="edge"><title>Node1&#45;&gt;Node2</title>
<path fill="none" stroke="midnightblue" d="M257.452,-118.607C214.101,-105.82 158.24,-89.3417 121.445,-78.488"/>
<polygon fill="midnightblue" stroke="midnightblue" points="122.181,-75.0559 111.599,-75.5835 120.2,-81.7699 122.181,-75.0559"/>
</g>
<!-- Node6 -->
<g id="node6" class="node"><title>Node6</title>
<polygon fill="none" stroke="#bfbfbf" points="180,-56.5 180,-75.5 251,-75.5 251,-56.5 180,-56.5"/>
<text text-anchor="middle" x="215.5" y="-63.5" font-family="Helvetica,sans-Serif" font-size="10.00">FairLogger.h</text>
</g>
<!-- Node1&#45;&gt;Node6 -->
<g id="edge5" class="edge"><title>Node1&#45;&gt;Node6</title>
<path fill="none" stroke="midnightblue" d="M283.83,-112.446C268.068,-101.963 250.327,-90.1633 236.873,-81.2151"/>
<polygon fill="midnightblue" stroke="midnightblue" points="238.586,-78.1507 228.321,-75.527 234.709,-83.9792 238.586,-78.1507"/>
</g>
<!-- Node7 -->
<g id="node7" class="node"><title>Node7</title>
<polygon fill="none" stroke="#bfbfbf" points="269,-56.5 269,-75.5 310,-75.5 310,-56.5 269,-56.5"/>
<text text-anchor="middle" x="289.5" y="-63.5" font-family="Helvetica,sans-Serif" font-size="10.00">bitset</text>
</g>
<!-- Node1&#45;&gt;Node7 -->
<g id="edge6" class="edge"><title>Node1&#45;&gt;Node7</title>
<path fill="none" stroke="midnightblue" d="M310.128,-112.446C305.99,-103.329 301.4,-93.2174 297.603,-84.8509"/>
<polygon fill="midnightblue" stroke="midnightblue" points="300.767,-83.3547 293.447,-75.6955 294.393,-86.248 300.767,-83.3547"/>
</g>
<!-- Node8 -->
<g id="node8" class="node"><title>Node8</title>
<polygon fill="none" stroke="#bfbfbf" points="328.5,-56.5 328.5,-75.5 378.5,-75.5 378.5,-56.5 328.5,-56.5"/>
<text text-anchor="middle" x="353.5" y="-63.5" font-family="Helvetica,sans-Serif" font-size="10.00">iomanip</text>
</g>
<!-- Node1&#45;&gt;Node8 -->
<g id="edge7" class="edge"><title>Node1&#45;&gt;Node8</title>
<path fill="none" stroke="midnightblue" d="M332.872,-112.446C337.01,-103.329 341.6,-93.2174 345.397,-84.8509"/>
<polygon fill="midnightblue" stroke="midnightblue" points="348.607,-86.248 349.553,-75.6955 342.233,-83.3547 348.607,-86.248"/>
</g>
<!-- Node9 -->
<g id="node9" class="node"><title>Node9</title>
<polygon fill="none" stroke="#bfbfbf" points="396.5,-56.5 396.5,-75.5 450.5,-75.5 450.5,-56.5 396.5,-56.5"/>
<text text-anchor="middle" x="423.5" y="-63.5" font-family="Helvetica,sans-Serif" font-size="10.00">iostream</text>
</g>
<!-- Node1&#45;&gt;Node9 -->
<g id="edge8" class="edge"><title>Node1&#45;&gt;Node9</title>
<path fill="none" stroke="midnightblue" d="M357.749,-112.446C372.678,-102.127 389.452,-90.5333 402.321,-81.6384"/>
<polygon fill="midnightblue" stroke="midnightblue" points="404.683,-84.2605 410.919,-75.6955 400.703,-78.5021 404.683,-84.2605"/>
</g>
<!-- Node10 -->
<g id="node10" class="node"><title>Node10</title>
<polygon fill="none" stroke="#bfbfbf" points="468.5,-56.5 468.5,-75.5 520.5,-75.5 520.5,-56.5 468.5,-56.5"/>
<text text-anchor="middle" x="494.5" y="-63.5" font-family="Helvetica,sans-Serif" font-size="10.00">sstream</text>
</g>
<!-- Node1&#45;&gt;Node10 -->
<g id="edge9" class="edge"><title>Node1&#45;&gt;Node10</title>
<path fill="none" stroke="midnightblue" d="M382.98,-112.446C410.56,-101.207 441.853,-88.4546 464.255,-79.3253"/>
<polygon fill="midnightblue" stroke="midnightblue" points="465.636,-82.5421 473.576,-75.527 462.994,-76.0597 465.636,-82.5421"/>
</g>
<!-- Node3 -->
<g id="node3" class="node"><title>Node3</title>
<polygon fill="none" stroke="#bfbfbf" points="0,-0.5 0,-19.5 45,-19.5 45,-0.5 0,-0.5"/>
<text text-anchor="middle" x="22.5" y="-7.5" font-family="Helvetica,sans-Serif" font-size="10.00">iosfwd</text>
</g>
<!-- Node2&#45;&gt;Node3 -->
<g id="edge2" class="edge"><title>Node2&#45;&gt;Node3</title>
<path fill="none" stroke="midnightblue" d="M72.86,-56.324C63.9904,-48.3414 50.6253,-36.3128 39.8921,-26.6529"/>
<polygon fill="midnightblue" stroke="midnightblue" points="42.0898,-23.922 32.3154,-19.8339 37.407,-29.1251 42.0898,-23.922"/>
</g>
<!-- Node4 -->
<g id="node4" class="node"><title>Node4</title>
<polygon fill="none" stroke="#bfbfbf" points="63.5,-0.5 63.5,-19.5 101.5,-19.5 101.5,-0.5 63.5,-0.5"/>
<text text-anchor="middle" x="82.5" y="-7.5" font-family="Helvetica,sans-Serif" font-size="10.00">array</text>
</g>
<!-- Node2&#45;&gt;Node4 -->
<g id="edge3" class="edge"><title>Node2&#45;&gt;Node4</title>
<path fill="none" stroke="midnightblue" d="M82.5,-56.083C82.5,-49.0059 82.5,-38.8611 82.5,-29.9865"/>
<polygon fill="midnightblue" stroke="midnightblue" points="86.0001,-29.751 82.5,-19.7511 79.0001,-29.7511 86.0001,-29.751"/>
</g>
<!-- Node5 -->
<g id="node5" class="node"><title>Node5</title>
<polygon fill="none" stroke="#bfbfbf" points="119.5,-0.5 119.5,-19.5 175.5,-19.5 175.5,-0.5 119.5,-0.5"/>
<text text-anchor="middle" x="147.5" y="-7.5" font-family="Helvetica,sans-Serif" font-size="10.00">Rtypes.h</text>
</g>
<!-- Node2&#45;&gt;Node5 -->
<g id="edge4" class="edge"><title>Node2&#45;&gt;Node5</title>
<path fill="none" stroke="midnightblue" d="M92.9434,-56.324C102.646,-48.2631 117.315,-36.0765 129,-26.3695"/>
<polygon fill="midnightblue" stroke="midnightblue" points="131.411,-28.9163 136.867,-19.8339 126.938,-23.532 131.411,-28.9163"/>
</g>
</g>
</svg>
