<?xml version="1.0" encoding="UTF-8" standalone="no"?>
<!DOCTYPE svg PUBLIC "-//W3C//DTD SVG 1.1//EN"
 "http://www.w3.org/Graphics/SVG/1.1/DTD/svg11.dtd">
<!-- Generated by graphviz version 2.38.0 (20140413.2041)
 -->
<!-- Title: /home/travis/build/AliceO2Group/AliceO2/Common/Utils/src/ValueMonitor.cxx Pages: 1 -->
<svg width="435pt" height="162pt"
 viewBox="0.00 0.00 435.00 162.00" xmlns="http://www.w3.org/2000/svg" xmlns:xlink="http://www.w3.org/1999/xlink">
<g id="graph0" class="graph" transform="scale(1 1) rotate(0) translate(4 158)">
<title>/home/travis/build/AliceO2Group/AliceO2/Common/Utils/src/ValueMonitor.cxx</title>
<!-- Node1 -->
<g id="node1" class="node"><title>Node1</title>
<polygon fill="#bfbfbf" stroke="black" points="174,-112.5 174,-153.5 352,-153.5 352,-112.5 174,-112.5"/>
<text text-anchor="start" x="182" y="-141.5" font-family="Helvetica,sans-Serif" font-size="10.00">/home/travis/build</text>
<text text-anchor="start" x="182" y="-130.5" font-family="Helvetica,sans-Serif" font-size="10.00">/AliceO2Group/AliceO2</text>
<text text-anchor="middle" x="263" y="-119.5" font-family="Helvetica,sans-Serif" font-size="10.00">/Common/Utils/src/ValueMonitor.cxx</text>
</g>
<!-- Node2 -->
<g id="node2" class="node"><title>Node2</title>
<g id="a_node2"><a xlink:href="../../d3/d13/ValueMonitor_8h.html" target="_top" xlink:title="CommonUtils/ValueMonitor.h">
<polygon fill="none" stroke="black" points="31.5,-56.5 31.5,-75.5 176.5,-75.5 176.5,-56.5 31.5,-56.5"/>
<text text-anchor="middle" x="104" y="-63.5" font-family="Helvetica,sans-Serif" font-size="10.00">CommonUtils/ValueMonitor.h</text>
</a>
</g>
</g>
<!-- Node1&#45;&gt;Node2 -->
<g id="edge1" class="edge"><title>Node1&#45;&gt;Node2</title>
<path fill="none" stroke="midnightblue" d="M215.295,-112.498C189.159,-101.813 157.534,-88.8851 134.686,-79.5446"/>
<polygon fill="midnightblue" stroke="midnightblue" points="135.746,-76.1969 125.165,-75.6525 133.097,-82.6764 135.746,-76.1969"/>
</g>
<!-- Node6 -->
<g id="node6" class="node"><title>Node6</title>
<polygon fill="none" stroke="#bfbfbf" points="194.5,-56.5 194.5,-75.5 241.5,-75.5 241.5,-56.5 194.5,-56.5"/>
<text text-anchor="middle" x="218" y="-63.5" font-family="Helvetica,sans-Serif" font-size="10.00">TFile.h</text>
</g>
<!-- Node1&#45;&gt;Node6 -->
<g id="edge5" class="edge"><title>Node1&#45;&gt;Node6</title>
<path fill="none" stroke="midnightblue" d="M249.499,-112.498C243.196,-103.395 235.766,-92.6623 229.706,-83.9081"/>
<polygon fill="midnightblue" stroke="midnightblue" points="232.56,-81.8822 223.99,-75.6525 226.805,-85.8667 232.56,-81.8822"/>
</g>
<!-- Node7 -->
<g id="node7" class="node"><title>Node7</title>
<polygon fill="none" stroke="#bfbfbf" points="259.5,-56.5 259.5,-75.5 356.5,-75.5 356.5,-56.5 259.5,-56.5"/>
<text text-anchor="middle" x="308" y="-63.5" font-family="Helvetica,sans-Serif" font-size="10.00">fairlogger/Logger.h</text>
</g>
<!-- Node1&#45;&gt;Node7 -->
<g id="edge6" class="edge"><title>Node1&#45;&gt;Node7</title>
<path fill="none" stroke="midnightblue" d="M276.501,-112.498C282.804,-103.395 290.234,-92.6623 296.294,-83.9081"/>
<polygon fill="midnightblue" stroke="midnightblue" points="299.195,-85.8667 302.01,-75.6525 293.44,-81.8822 299.195,-85.8667"/>
</g>
<!-- Node8 -->
<g id="node8" class="node"><title>Node8</title>
<polygon fill="none" stroke="#bfbfbf" points="375,-56.5 375,-75.5 427,-75.5 427,-56.5 375,-56.5"/>
<text text-anchor="middle" x="401" y="-63.5" font-family="Helvetica,sans-Serif" font-size="10.00">memory</text>
</g>
<!-- Node1&#45;&gt;Node8 -->
<g id="edge7" class="edge"><title>Node1&#45;&gt;Node8</title>
<path fill="none" stroke="midnightblue" d="M304.405,-112.498C326.783,-101.957 353.799,-89.2326 373.562,-79.9235"/>
<polygon fill="midnightblue" stroke="midnightblue" points="375.075,-83.08 382.63,-75.6525 372.092,-76.7473 375.075,-83.08"/>
</g>
<!-- Node3 -->
<g id="node3" class="node"><title>Node3</title>
<polygon fill="none" stroke="#bfbfbf" points="0,-0.5 0,-19.5 44,-19.5 44,-0.5 0,-0.5"/>
<text text-anchor="middle" x="22" y="-7.5" font-family="Helvetica,sans-Serif" font-size="10.00">TH1.h</text>
</g>
<!-- Node2&#45;&gt;Node3 -->
<g id="edge2" class="edge"><title>Node2&#45;&gt;Node3</title>
<path fill="none" stroke="midnightblue" d="M90.8253,-56.324C78.1532,-47.979 58.7666,-35.2122 43.7944,-25.3524"/>
<polygon fill="midnightblue" stroke="midnightblue" points="45.4187,-22.2313 35.142,-19.6545 41.5688,-28.0776 45.4187,-22.2313"/>
</g>
<!-- Node4 -->
<g id="node4" class="node"><title>Node4</title>
<polygon fill="none" stroke="#bfbfbf" points="62.5,-0.5 62.5,-19.5 145.5,-19.5 145.5,-0.5 62.5,-0.5"/>
<text text-anchor="middle" x="104" y="-7.5" font-family="Helvetica,sans-Serif" font-size="10.00">unordered_map</text>
</g>
<!-- Node2&#45;&gt;Node4 -->
<g id="edge3" class="edge"><title>Node2&#45;&gt;Node4</title>
<path fill="none" stroke="midnightblue" d="M104,-56.083C104,-49.0059 104,-38.8611 104,-29.9865"/>
<polygon fill="midnightblue" stroke="midnightblue" points="107.5,-29.751 104,-19.7511 100.5,-29.7511 107.5,-29.751"/>
</g>
<!-- Node5 -->
<g id="node5" class="node"><title>Node5</title>
<polygon fill="none" stroke="#bfbfbf" points="163.5,-0.5 163.5,-19.5 204.5,-19.5 204.5,-0.5 163.5,-0.5"/>
<text text-anchor="middle" x="184" y="-7.5" font-family="Helvetica,sans-Serif" font-size="10.00">string</text>
</g>
<!-- Node2&#45;&gt;Node5 -->
<g id="edge4" class="edge"><title>Node2&#45;&gt;Node5</title>
<path fill="none" stroke="midnightblue" d="M116.853,-56.324C129.216,-47.979 148.13,-35.2122 162.737,-25.3524"/>
<polygon fill="midnightblue" stroke="midnightblue" points="164.848,-28.1503 171.179,-19.6545 160.932,-22.3483 164.848,-28.1503"/>
</g>
</g>
</svg>
