<?xml version="1.0" encoding="UTF-8" standalone="no"?>
<!DOCTYPE svg PUBLIC "-//W3C//DTD SVG 1.1//EN"
 "http://www.w3.org/Graphics/SVG/1.1/DTD/svg11.dtd">
<!-- Generated by graphviz version 2.38.0 (20140413.2041)
 -->
<!-- Title: GPUCA_NAMESPACE::gpu::GPUDisplayBackendX11 Pages: 1 -->
<svg width="481pt" height="1003pt"
 viewBox="0.00 0.00 480.50 1003.00" xmlns="http://www.w3.org/2000/svg" xmlns:xlink="http://www.w3.org/1999/xlink">
<g id="graph0" class="graph" transform="scale(1 1) rotate(0) translate(4 999)">
<title>GPUCA_NAMESPACE::gpu::GPUDisplayBackendX11</title>
<!-- Node1 -->
<g id="node1" class="node"><title>Node1</title>
<polygon fill="#bfbfbf" stroke="black" points="138.5,-0.5 138.5,-145.5 286.5,-145.5 286.5,-0.5 138.5,-0.5"/>
<text text-anchor="start" x="146.5" y="-133.5" font-family="Helvetica,sans-Serif" font-size="10.00">GPUCA_NAMESPACE::gpu</text>
<text text-anchor="middle" x="212.5" y="-122.5" font-family="Helvetica,sans-Serif" font-size="10.00">::GPUDisplayBackendX11</text>
<polyline fill="none" stroke="black" points="138.5,-115.5 286.5,-115.5 "/>
<text text-anchor="middle" x="212.5" y="-103.5" font-family="Helvetica,sans-Serif" font-size="10.00"> </text>
<polyline fill="none" stroke="black" points="138.5,-96.5 286.5,-96.5 "/>
<text text-anchor="start" x="146.5" y="-84.5" font-family="Helvetica,sans-Serif" font-size="10.00">+ GPUDisplayBackendX11()</text>
<text text-anchor="start" x="146.5" y="-73.5" font-family="Helvetica,sans-Serif" font-size="10.00">+ ~GPUDisplayBackendX11()</text>
<text text-anchor="start" x="146.5" y="-62.5" font-family="Helvetica,sans-Serif" font-size="10.00">+ StartDisplay()</text>
<text text-anchor="start" x="146.5" y="-51.5" font-family="Helvetica,sans-Serif" font-size="10.00">+ DisplayExit()</text>
<text text-anchor="start" x="146.5" y="-40.5" font-family="Helvetica,sans-Serif" font-size="10.00">+ SwitchFullscreen()</text>
<text text-anchor="start" x="146.5" y="-29.5" font-family="Helvetica,sans-Serif" font-size="10.00">+ ToggleMaximized()</text>
<text text-anchor="start" x="146.5" y="-18.5" font-family="Helvetica,sans-Serif" font-size="10.00">+ SetVSync()</text>
<text text-anchor="start" x="146.5" y="-7.5" font-family="Helvetica,sans-Serif" font-size="10.00">+ OpenGLPrint()</text>
</g>
<!-- Node2 -->
<g id="node2" class="node"><title>Node2</title>
<g id="a_node2"><a xlink:href="../../d6/d42/classGPUCA__NAMESPACE_1_1gpu_1_1GPUDisplayBackend.html" target="_top" xlink:title="{GPUCA_NAMESPACE::gpu\l::GPUDisplayBackend\n|# INIT_WIDTH\l# GL_WINDOW_NAME\l# KEY_LEFT\l# KEY_RIGHT\l# KEY_PAGEUP\l# KEY_PAGEDOWN\l# KEY_SHIFT\l# KEY_ALT\l# KEY_CTRL\l# KEY_F1\l# KEY_F2\l# KEY_F3\l# KEY_F10\l# KEY_F11\l# KEY_F12\l# KEY_HOME\l# KEY_END\l# KEY_INSERT\l# KEY_ESCAPE\l# KEY_ENTER\l|+ GPUDisplayBackend()\l+ ~GPUDisplayBackend()\l+ StartDisplay()\l+ DisplayExit()\l+ SwitchFullscreen()\l+ ToggleMaximized()\l+ SetVSync()\l+ EnableSendKey()\l+ OpenGLPrint()\l# OpenGLMain()\l# HandleKeyRelease()\l# DrawGLScene()\l# HandleSendKey()\l# ReSizeGLScene()\l# InitGL()\l# ExitGL()\l# OpenGLWrapper()\l}">
<polygon fill="none" stroke="black" points="141,-183.5 141,-636.5 284,-636.5 284,-183.5 141,-183.5"/>
<text text-anchor="start" x="149" y="-624.5" font-family="Helvetica,sans-Serif" font-size="10.00">GPUCA_NAMESPACE::gpu</text>
<text text-anchor="middle" x="212.5" y="-613.5" font-family="Helvetica,sans-Serif" font-size="10.00">::GPUDisplayBackend</text>
<polyline fill="none" stroke="black" points="141,-606.5 284,-606.5 "/>
<text text-anchor="start" x="149" y="-594.5" font-family="Helvetica,sans-Serif" font-size="10.00"># INIT_WIDTH</text>
<text text-anchor="start" x="149" y="-583.5" font-family="Helvetica,sans-Serif" font-size="10.00"># GL_WINDOW_NAME</text>
<text text-anchor="start" x="149" y="-572.5" font-family="Helvetica,sans-Serif" font-size="10.00"># KEY_LEFT</text>
<text text-anchor="start" x="149" y="-561.5" font-family="Helvetica,sans-Serif" font-size="10.00"># KEY_RIGHT</text>
<text text-anchor="start" x="149" y="-550.5" font-family="Helvetica,sans-Serif" font-size="10.00"># KEY_PAGEUP</text>
<text text-anchor="start" x="149" y="-539.5" font-family="Helvetica,sans-Serif" font-size="10.00"># KEY_PAGEDOWN</text>
<text text-anchor="start" x="149" y="-528.5" font-family="Helvetica,sans-Serif" font-size="10.00"># KEY_SHIFT</text>
<text text-anchor="start" x="149" y="-517.5" font-family="Helvetica,sans-Serif" font-size="10.00"># KEY_ALT</text>
<text text-anchor="start" x="149" y="-506.5" font-family="Helvetica,sans-Serif" font-size="10.00"># KEY_CTRL</text>
<text text-anchor="start" x="149" y="-495.5" font-family="Helvetica,sans-Serif" font-size="10.00"># KEY_F1</text>
<text text-anchor="start" x="149" y="-484.5" font-family="Helvetica,sans-Serif" font-size="10.00"># KEY_F2</text>
<text text-anchor="start" x="149" y="-473.5" font-family="Helvetica,sans-Serif" font-size="10.00"># KEY_F3</text>
<text text-anchor="start" x="149" y="-462.5" font-family="Helvetica,sans-Serif" font-size="10.00"># KEY_F10</text>
<text text-anchor="start" x="149" y="-451.5" font-family="Helvetica,sans-Serif" font-size="10.00"># KEY_F11</text>
<text text-anchor="start" x="149" y="-440.5" font-family="Helvetica,sans-Serif" font-size="10.00"># KEY_F12</text>
<text text-anchor="start" x="149" y="-429.5" font-family="Helvetica,sans-Serif" font-size="10.00"># KEY_HOME</text>
<text text-anchor="start" x="149" y="-418.5" font-family="Helvetica,sans-Serif" font-size="10.00"># KEY_END</text>
<text text-anchor="start" x="149" y="-407.5" font-family="Helvetica,sans-Serif" font-size="10.00"># KEY_INSERT</text>
<text text-anchor="start" x="149" y="-396.5" font-family="Helvetica,sans-Serif" font-size="10.00"># KEY_ESCAPE</text>
<text text-anchor="start" x="149" y="-385.5" font-family="Helvetica,sans-Serif" font-size="10.00"># KEY_ENTER</text>
<polyline fill="none" stroke="black" points="141,-378.5 284,-378.5 "/>
<text text-anchor="start" x="149" y="-366.5" font-family="Helvetica,sans-Serif" font-size="10.00">+ GPUDisplayBackend()</text>
<text text-anchor="start" x="149" y="-355.5" font-family="Helvetica,sans-Serif" font-size="10.00">+ ~GPUDisplayBackend()</text>
<text text-anchor="start" x="149" y="-344.5" font-family="Helvetica,sans-Serif" font-size="10.00">+ StartDisplay()</text>
<text text-anchor="start" x="149" y="-333.5" font-family="Helvetica,sans-Serif" font-size="10.00">+ DisplayExit()</text>
<text text-anchor="start" x="149" y="-322.5" font-family="Helvetica,sans-Serif" font-size="10.00">+ SwitchFullscreen()</text>
<text text-anchor="start" x="149" y="-311.5" font-family="Helvetica,sans-Serif" font-size="10.00">+ ToggleMaximized()</text>
<text text-anchor="start" x="149" y="-300.5" font-family="Helvetica,sans-Serif" font-size="10.00">+ SetVSync()</text>
<text text-anchor="start" x="149" y="-289.5" font-family="Helvetica,sans-Serif" font-size="10.00">+ EnableSendKey()</text>
<text text-anchor="start" x="149" y="-278.5" font-family="Helvetica,sans-Serif" font-size="10.00">+ OpenGLPrint()</text>
<text text-anchor="start" x="149" y="-267.5" font-family="Helvetica,sans-Serif" font-size="10.00"># OpenGLMain()</text>
<text text-anchor="start" x="149" y="-256.5" font-family="Helvetica,sans-Serif" font-size="10.00"># HandleKeyRelease()</text>
<text text-anchor="start" x="149" y="-245.5" font-family="Helvetica,sans-Serif" font-size="10.00"># DrawGLScene()</text>
<text text-anchor="start" x="149" y="-234.5" font-family="Helvetica,sans-Serif" font-size="10.00"># HandleSendKey()</text>
<text text-anchor="start" x="149" y="-223.5" font-family="Helvetica,sans-Serif" font-size="10.00"># ReSizeGLScene()</text>
<text text-anchor="start" x="149" y="-212.5" font-family="Helvetica,sans-Serif" font-size="10.00"># InitGL()</text>
<text text-anchor="start" x="149" y="-201.5" font-family="Helvetica,sans-Serif" font-size="10.00"># ExitGL()</text>
<text text-anchor="start" x="149" y="-190.5" font-family="Helvetica,sans-Serif" font-size="10.00"># OpenGLWrapper()</text>
</a>
</g>
</g>
<!-- Node2&#45;&gt;Node1 -->
<g id="edge1" class="edge"><title>Node2&#45;&gt;Node1</title>
<path fill="none" stroke="midnightblue" d="M212.5,-173.128C212.5,-163.555 212.5,-154.342 212.5,-145.648"/>
<polygon fill="none" stroke="midnightblue" points="209,-173.228 212.5,-183.228 216,-173.228 209,-173.228"/>
</g>
<!-- Node3 -->
<g id="node3" class="node"><title>Node3</title>
<g id="a_node3"><a xlink:href="../../d4/dc3/classfloat.html" target="_top" xlink:title="{float\n||}">
<polygon fill="none" stroke="black" points="0,-866 0,-923 35,-923 35,-866 0,-866"/>
<text text-anchor="middle" x="17.5" y="-911" font-family="Helvetica,sans-Serif" font-size="10.00">float</text>
<polyline fill="none" stroke="black" points="0,-904 35,-904 "/>
<text text-anchor="middle" x="17.5" y="-892" font-family="Helvetica,sans-Serif" font-size="10.00"> </text>
<polyline fill="none" stroke="black" points="0,-885 35,-885 "/>
<text text-anchor="middle" x="17.5" y="-873" font-family="Helvetica,sans-Serif" font-size="10.00"> </text>
</a>
</g>
</g>
<!-- Node3&#45;&gt;Node2 -->
<g id="edge2" class="edge"><title>Node3&#45;&gt;Node2</title>
<path fill="none" stroke="#404040" d="M20.135,-865.826C25.1174,-820.478 38.0773,-728.08 66.5,-655 84.0719,-609.819 109.646,-563.397 134.498,-523.333"/>
<polygon fill="none" stroke="#404040" points="134.59,-523.187 134.389,-515.978 140.966,-513.021 141.167,-520.229 134.59,-523.187"/>
<text text-anchor="middle" x="99.5" y="-729.5" font-family="Helvetica,sans-Serif" font-size="10.00"> #mMouseDnX</text>
<text text-anchor="middle" x="99.5" y="-718.5" font-family="Helvetica,sans-Serif" font-size="10.00">#mMouseDnY</text>
<text text-anchor="middle" x="99.5" y="-707.5" font-family="Helvetica,sans-Serif" font-size="10.00">#mouseMvX</text>
<text text-anchor="middle" x="99.5" y="-696.5" font-family="Helvetica,sans-Serif" font-size="10.00">#mouseMvY</text>
</g>
<!-- Node4 -->
<g id="node4" class="node"><title>Node4</title>
<g id="a_node4"><a xlink:href="../../d9/dda/classGPUCA__NAMESPACE_1_1gpu_1_1GPUDisplay.html" target="_top" xlink:title="{GPUCA_NAMESPACE::gpu\l::GPUDisplay\n||+ GPUDisplay()\l+ ~GPUDisplay()\l+ GPUDisplay()\l+ StartDisplay()\l+ ShowNextEvent()\l+ WaitForNextEvent()\l+ SetCollisionFirstCluster()\l+ HandleKeyRelease()\l+ DrawGLScene()\l+ HandleSendKey()\l+ InitGL()\l+ ExitGL()\l+ ReSizeGLScene()\l}">
<polygon fill="none" stroke="black" points="53,-794.5 53,-994.5 196,-994.5 196,-794.5 53,-794.5"/>
<text text-anchor="start" x="61" y="-982.5" font-family="Helvetica,sans-Serif" font-size="10.00">GPUCA_NAMESPACE::gpu</text>
<text text-anchor="middle" x="124.5" y="-971.5" font-family="Helvetica,sans-Serif" font-size="10.00">::GPUDisplay</text>
<polyline fill="none" stroke="black" points="53,-964.5 196,-964.5 "/>
<text text-anchor="middle" x="124.5" y="-952.5" font-family="Helvetica,sans-Serif" font-size="10.00"> </text>
<polyline fill="none" stroke="black" points="53,-945.5 196,-945.5 "/>
<text text-anchor="start" x="61" y="-933.5" font-family="Helvetica,sans-Serif" font-size="10.00">+ GPUDisplay()</text>
<text text-anchor="start" x="61" y="-922.5" font-family="Helvetica,sans-Serif" font-size="10.00">+ ~GPUDisplay()</text>
<text text-anchor="start" x="61" y="-911.5" font-family="Helvetica,sans-Serif" font-size="10.00">+ GPUDisplay()</text>
<text text-anchor="start" x="61" y="-900.5" font-family="Helvetica,sans-Serif" font-size="10.00">+ StartDisplay()</text>
<text text-anchor="start" x="61" y="-889.5" font-family="Helvetica,sans-Serif" font-size="10.00">+ ShowNextEvent()</text>
<text text-anchor="start" x="61" y="-878.5" font-family="Helvetica,sans-Serif" font-size="10.00">+ WaitForNextEvent()</text>
<text text-anchor="start" x="61" y="-867.5" font-family="Helvetica,sans-Serif" font-size="10.00">+ SetCollisionFirstCluster()</text>
<text text-anchor="start" x="61" y="-856.5" font-family="Helvetica,sans-Serif" font-size="10.00">+ HandleKeyRelease()</text>
<text text-anchor="start" x="61" y="-845.5" font-family="Helvetica,sans-Serif" font-size="10.00">+ DrawGLScene()</text>
<text text-anchor="start" x="61" y="-834.5" font-family="Helvetica,sans-Serif" font-size="10.00">+ HandleSendKey()</text>
<text text-anchor="start" x="61" y="-823.5" font-family="Helvetica,sans-Serif" font-size="10.00">+ InitGL()</text>
<text text-anchor="start" x="61" y="-812.5" font-family="Helvetica,sans-Serif" font-size="10.00">+ ExitGL()</text>
<text text-anchor="start" x="61" y="-801.5" font-family="Helvetica,sans-Serif" font-size="10.00">+ ReSizeGLScene()</text>
</a>
</g>
</g>
<!-- Node4&#45;&gt;Node2 -->
<g id="edge3" class="edge"><title>Node4&#45;&gt;Node2</title>
<path fill="none" stroke="#404040" d="M134.555,-794.211C139.534,-751.244 146.26,-700.478 154.5,-655 154.874,-652.938 155.254,-650.868 155.64,-648.789"/>
<polygon fill="none" stroke="#404040" points="155.676,-648.6 152.866,-641.959 157.915,-636.811 160.725,-643.452 155.676,-648.6"/>
<text text-anchor="middle" x="179.5" y="-713" font-family="Helvetica,sans-Serif" font-size="10.00"> #mDisplay</text>
</g>
<!-- Node5 -->
<g id="node5" class="node"><title>Node5</title>
<polygon fill="none" stroke="#bfbfbf" points="214,-866 214,-923 243,-923 243,-866 214,-866"/>
<text text-anchor="middle" x="228.5" y="-911" font-family="Helvetica,sans-Serif" font-size="10.00">int</text>
<polyline fill="none" stroke="#bfbfbf" points="214,-904 243,-904 "/>
<text text-anchor="middle" x="228.5" y="-892" font-family="Helvetica,sans-Serif" font-size="10.00"> </text>
<polyline fill="none" stroke="#bfbfbf" points="214,-885 243,-885 "/>
<text text-anchor="middle" x="228.5" y="-873" font-family="Helvetica,sans-Serif" font-size="10.00"> </text>
</g>
<!-- Node5&#45;&gt;Node2 -->
<g id="edge4" class="edge"><title>Node5&#45;&gt;Node2</title>
<path fill="none" stroke="#404040" d="M223.943,-865.58C220.305,-841.832 215.499,-806.782 213.5,-776 210.831,-734.905 209.453,-691.152 208.882,-648.74"/>
<polygon fill="none" stroke="#404040" points="208.879,-648.52 204.809,-642.567 208.739,-636.52 212.809,-642.473 208.879,-648.52"/>
<text text-anchor="middle" x="253" y="-746" font-family="Helvetica,sans-Serif" font-size="10.00"> #mMouseWheel</text>
<text text-anchor="middle" x="253" y="-735" font-family="Helvetica,sans-Serif" font-size="10.00">#mDisplayHeight</text>
<text text-anchor="middle" x="253" y="-724" font-family="Helvetica,sans-Serif" font-size="10.00">+mSendKey</text>
<text text-anchor="middle" x="253" y="-713" font-family="Helvetica,sans-Serif" font-size="10.00">#mMaxFPSRate</text>
<text text-anchor="middle" x="253" y="-702" font-family="Helvetica,sans-Serif" font-size="10.00">+mNeedUpdate</text>
<text text-anchor="middle" x="253" y="-691" font-family="Helvetica,sans-Serif" font-size="10.00">+mDisplayControl</text>
<text text-anchor="middle" x="253" y="-680" font-family="Helvetica,sans-Serif" font-size="10.00">#mDisplayWidth</text>
</g>
<!-- Node6 -->
<g id="node6" class="node"><title>Node6</title>
<polygon fill="none" stroke="#bfbfbf" points="297,-866 297,-923 332,-923 332,-866 297,-866"/>
<text text-anchor="middle" x="314.5" y="-911" font-family="Helvetica,sans-Serif" font-size="10.00">bool</text>
<polyline fill="none" stroke="#bfbfbf" points="297,-904 332,-904 "/>
<text text-anchor="middle" x="314.5" y="-892" font-family="Helvetica,sans-Serif" font-size="10.00"> </text>
<polyline fill="none" stroke="#bfbfbf" points="297,-885 332,-885 "/>
<text text-anchor="middle" x="314.5" y="-873" font-family="Helvetica,sans-Serif" font-size="10.00"> </text>
</g>
<!-- Node6&#45;&gt;Node2 -->
<g id="edge5" class="edge"><title>Node6&#45;&gt;Node2</title>
<path fill="none" stroke="#404040" d="M313.954,-865.659C312.626,-820.843 308.073,-730.122 292.5,-655 290.824,-646.915 288.972,-638.723 286.978,-630.481"/>
<polygon fill="none" stroke="#404040" points="286.969,-630.446 281.637,-625.591 284.067,-618.802 289.399,-623.657 286.969,-630.446"/>
<text text-anchor="middle" x="342" y="-729.5" font-family="Helvetica,sans-Serif" font-size="10.00"> #mMouseDnR</text>
<text text-anchor="middle" x="342" y="-718.5" font-family="Helvetica,sans-Serif" font-size="10.00">#mMouseDn</text>
<text text-anchor="middle" x="342" y="-707.5" font-family="Helvetica,sans-Serif" font-size="10.00">#mKeys</text>
<text text-anchor="middle" x="342" y="-696.5" font-family="Helvetica,sans-Serif" font-size="10.00">#mKeysShift</text>
</g>
<!-- Node7 -->
<g id="node7" class="node"><title>Node7</title>
<polygon fill="none" stroke="#bfbfbf" points="384,-866 384,-923 425,-923 425,-866 384,-866"/>
<text text-anchor="middle" x="404.5" y="-911" font-family="Helvetica,sans-Serif" font-size="10.00">static</text>
<polyline fill="none" stroke="#bfbfbf" points="384,-904 425,-904 "/>
<text text-anchor="middle" x="404.5" y="-892" font-family="Helvetica,sans-Serif" font-size="10.00"> </text>
<polyline fill="none" stroke="#bfbfbf" points="384,-885 425,-885 "/>
<text text-anchor="middle" x="404.5" y="-873" font-family="Helvetica,sans-Serif" font-size="10.00"> </text>
</g>
<!-- Node7&#45;&gt;Node2 -->
<g id="edge6" class="edge"><title>Node7&#45;&gt;Node2</title>
<path fill="none" stroke="#404040" d="M405.92,-865.691C407.305,-820.15 406.15,-727.486 379.5,-655 359.409,-600.354 324.339,-546.233 291.507,-502.9"/>
<polygon fill="none" stroke="#404040" points="291.412,-502.776 284.585,-500.453 284.104,-493.258 290.93,-495.581 291.412,-502.776"/>
<text text-anchor="middle" x="438" y="-768" font-family="Helvetica,sans-Serif" font-size="10.00"> #KEY_F4</text>
<text text-anchor="middle" x="438" y="-757" font-family="Helvetica,sans-Serif" font-size="10.00">#KEY_DOWN</text>
<text text-anchor="middle" x="438" y="-746" font-family="Helvetica,sans-Serif" font-size="10.00">#KEY_UP</text>
<text text-anchor="middle" x="438" y="-735" font-family="Helvetica,sans-Serif" font-size="10.00">#KEY_F5</text>
<text text-anchor="middle" x="438" y="-724" font-family="Helvetica,sans-Serif" font-size="10.00">#INIT_HEIGHT</text>
<text text-anchor="middle" x="438" y="-713" font-family="Helvetica,sans-Serif" font-size="10.00">#KEY_F6</text>
<text text-anchor="middle" x="438" y="-702" font-family="Helvetica,sans-Serif" font-size="10.00">#KEY_F7</text>
<text text-anchor="middle" x="438" y="-691" font-family="Helvetica,sans-Serif" font-size="10.00">#KEY_SPACE</text>
<text text-anchor="middle" x="438" y="-680" font-family="Helvetica,sans-Serif" font-size="10.00">#KEY_F8</text>
<text text-anchor="middle" x="438" y="-669" font-family="Helvetica,sans-Serif" font-size="10.00">#KEY_F9</text>
<text text-anchor="middle" x="438" y="-658" font-family="Helvetica,sans-Serif" font-size="10.00">...</text>
</g>
</g>
</svg>
