<?xml version="1.0" encoding="UTF-8" standalone="no"?>
<!DOCTYPE svg PUBLIC "-//W3C//DTD SVG 1.1//EN"
 "http://www.w3.org/Graphics/SVG/1.1/DTD/svg11.dtd">
<!-- Generated by graphviz version 2.38.0 (20140413.2041)
 -->
<!-- Title: /home/travis/build/AliceO2Group/AliceO2/Detectors/MUON/MID/Raw/include/MIDRaw/CRUUserLogicEncoder.h Pages: 1 -->
<svg width="714pt" height="240pt"
 viewBox="0.00 0.00 713.50 240.00" xmlns="http://www.w3.org/2000/svg" xmlns:xlink="http://www.w3.org/1999/xlink">
<g id="graph0" class="graph" transform="scale(1 1) rotate(0) translate(4 236)">
<title>/home/travis/build/AliceO2Group/AliceO2/Detectors/MUON/MID/Raw/include/MIDRaw/CRUUserLogicEncoder.h</title>
<!-- Node1 -->
<g id="node1" class="node"><title>Node1</title>
<polygon fill="#bfbfbf" stroke="black" points="232,-179.5 232,-231.5 438,-231.5 438,-179.5 232,-179.5"/>
<text text-anchor="start" x="240" y="-219.5" font-family="Helvetica,sans-Serif" font-size="10.00">/home/travis/build</text>
<text text-anchor="start" x="240" y="-208.5" font-family="Helvetica,sans-Serif" font-size="10.00">/AliceO2Group/AliceO2</text>
<text text-anchor="start" x="240" y="-197.5" font-family="Helvetica,sans-Serif" font-size="10.00">/Detectors/MUON/MID/Raw</text>
<text text-anchor="middle" x="335" y="-186.5" font-family="Helvetica,sans-Serif" font-size="10.00">/include/MIDRaw/CRUUserLogicEncoder.h</text>
</g>
<!-- Node2 -->
<g id="node2" class="node"><title>Node2</title>
<polygon fill="none" stroke="#bfbfbf" points="403,-0.5 403,-19.5 449,-19.5 449,-0.5 403,-0.5"/>
<text text-anchor="middle" x="426" y="-7.5" font-family="Helvetica,sans-Serif" font-size="10.00">cstdint</text>
</g>
<!-- Node1&#45;&gt;Node2 -->
<g id="edge1" class="edge"><title>Node1&#45;&gt;Node2</title>
<path fill="none" stroke="midnightblue" d="M330.113,-179.422C325.401,-147.977 322.079,-93.636 346,-56 356.718,-39.1364 376.13,-27.9967 393.147,-21.0193"/>
<polygon fill="midnightblue" stroke="midnightblue" points="394.682,-24.1812 402.806,-17.3804 392.214,-17.6307 394.682,-24.1812"/>
</g>
<!-- Node3 -->
<g id="node3" class="node"><title>Node3</title>
<polygon fill="none" stroke="#bfbfbf" points="199,-123.5 199,-142.5 243,-142.5 243,-123.5 199,-123.5"/>
<text text-anchor="middle" x="221" y="-130.5" font-family="Helvetica,sans-Serif" font-size="10.00">vector</text>
</g>
<!-- Node1&#45;&gt;Node3 -->
<g id="edge2" class="edge"><title>Node1&#45;&gt;Node3</title>
<path fill="none" stroke="midnightblue" d="M294.487,-179.446C277.372,-168.862 258.088,-156.936 243.57,-147.958"/>
<polygon fill="midnightblue" stroke="midnightblue" points="245.134,-144.81 234.788,-142.527 241.452,-150.763 245.134,-144.81"/>
</g>
<!-- Node4 -->
<g id="node4" class="node"><title>Node4</title>
<polygon fill="none" stroke="#bfbfbf" points="261.5,-123.5 261.5,-142.5 306.5,-142.5 306.5,-123.5 261.5,-123.5"/>
<text text-anchor="middle" x="284" y="-130.5" font-family="Helvetica,sans-Serif" font-size="10.00">gsl/gsl</text>
</g>
<!-- Node1&#45;&gt;Node4 -->
<g id="edge3" class="edge"><title>Node1&#45;&gt;Node4</title>
<path fill="none" stroke="midnightblue" d="M316.876,-179.446C310.063,-170.029 302.483,-159.55 296.319,-151.029"/>
<polygon fill="midnightblue" stroke="midnightblue" points="298.987,-148.746 290.29,-142.695 293.316,-152.849 298.987,-148.746"/>
</g>
<!-- Node5 -->
<g id="node5" class="node"><title>Node5</title>
<g id="a_node5"><a xlink:href="../../d4/d78/DataFormats_2Headers_2include_2Headers_2RAWDataHeader_8h.html" target="_top" xlink:title="Headers/RAWDataHeader.h">
<polygon fill="none" stroke="black" points="355.5,-62 355.5,-81 496.5,-81 496.5,-62 355.5,-62"/>
<text text-anchor="middle" x="426" y="-69" font-family="Helvetica,sans-Serif" font-size="10.00">Headers/RAWDataHeader.h</text>
</a>
</g>
</g>
<!-- Node1&#45;&gt;Node5 -->
<g id="edge4" class="edge"><title>Node1&#45;&gt;Node5</title>
<path fill="none" stroke="midnightblue" d="M352.331,-179.361C370.551,-152.932 398.706,-112.091 414.408,-89.3146"/>
<polygon fill="midnightblue" stroke="midnightblue" points="417.336,-91.2338 420.13,-81.0141 411.573,-87.2606 417.336,-91.2338"/>
</g>
<!-- Node6 -->
<g id="node6" class="node"><title>Node6</title>
<g id="a_node6"><a xlink:href="../../d2/df9/MUON_2MID_2include_2DataFormatsMID_2ROFRecord_8h.html" target="_top" xlink:title="Definition of the MID event record. ">
<polygon fill="none" stroke="black" points="25,-123.5 25,-142.5 181,-142.5 181,-123.5 25,-123.5"/>
<text text-anchor="middle" x="103" y="-130.5" font-family="Helvetica,sans-Serif" font-size="10.00">DataFormatsMID/ROFRecord.h</text>
</a>
</g>
</g>
<!-- Node1&#45;&gt;Node6 -->
<g id="edge6" class="edge"><title>Node1&#45;&gt;Node6</title>
<path fill="none" stroke="midnightblue" d="M252.552,-179.446C214.406,-167.854 170.963,-154.653 140.766,-145.476"/>
<polygon fill="midnightblue" stroke="midnightblue" points="141.646,-142.086 131.06,-142.527 139.611,-148.783 141.646,-142.086"/>
</g>
<!-- Node12 -->
<g id="node12" class="node"><title>Node12</title>
<g id="a_node12"><a xlink:href="../../d3/d4a/LocalBoardRO_8h.html" target="_top" xlink:title="Structure to store the FEE local board information. ">
<polygon fill="none" stroke="black" points="574.5,-123.5 574.5,-142.5 705.5,-142.5 705.5,-123.5 574.5,-123.5"/>
<text text-anchor="middle" x="640" y="-130.5" font-family="Helvetica,sans-Serif" font-size="10.00">MIDRaw/LocalBoardRO.h</text>
</a>
</g>
</g>
<!-- Node1&#45;&gt;Node12 -->
<g id="edge13" class="edge"><title>Node1&#45;&gt;Node12</title>
<path fill="none" stroke="midnightblue" d="M438.259,-180.632C490.674,-168.516 551.783,-154.391 592.893,-144.889"/>
<polygon fill="midnightblue" stroke="midnightblue" points="593.942,-148.239 602.896,-142.576 592.365,-141.418 593.942,-148.239"/>
</g>
<!-- Node14 -->
<g id="node14" class="node"><title>Node14</title>
<g id="a_node14"><a xlink:href="../../df/db7/RawUnit_8h.html" target="_top" xlink:title="Raw data format MID. ">
<polygon fill="none" stroke="black" points="444.5,-123.5 444.5,-142.5 549.5,-142.5 549.5,-123.5 444.5,-123.5"/>
<text text-anchor="middle" x="497" y="-130.5" font-family="Helvetica,sans-Serif" font-size="10.00">MIDRaw/RawUnit.h</text>
</a>
</g>
</g>
<!-- Node1&#45;&gt;Node14 -->
<g id="edge16" class="edge"><title>Node1&#45;&gt;Node14</title>
<path fill="none" stroke="midnightblue" d="M392.571,-179.446C418.166,-168.308 447.175,-155.683 468.112,-146.572"/>
<polygon fill="midnightblue" stroke="midnightblue" points="469.633,-149.727 477.406,-142.527 466.84,-143.308 469.633,-149.727"/>
</g>
<!-- Node5&#45;&gt;Node2 -->
<g id="edge5" class="edge"><title>Node5&#45;&gt;Node2</title>
<path fill="none" stroke="midnightblue" d="M426,-61.9751C426,-53.5803 426,-40.4806 426,-29.6631"/>
<polygon fill="midnightblue" stroke="midnightblue" points="429.5,-29.5091 426,-19.5091 422.5,-29.5091 429.5,-29.5091"/>
</g>
<!-- Node7 -->
<g id="node7" class="node"><title>Node7</title>
<g id="a_node7"><a xlink:href="../../d9/d80/InteractionRecord_8h.html" target="_top" xlink:title="CommonDataFormat/Interaction\lRecord.h">
<polygon fill="none" stroke="black" points="27.5,-56.5 27.5,-86.5 184.5,-86.5 184.5,-56.5 27.5,-56.5"/>
<text text-anchor="start" x="35.5" y="-74.5" font-family="Helvetica,sans-Serif" font-size="10.00">CommonDataFormat/Interaction</text>
<text text-anchor="middle" x="106" y="-63.5" font-family="Helvetica,sans-Serif" font-size="10.00">Record.h</text>
</a>
</g>
</g>
<!-- Node6&#45;&gt;Node7 -->
<g id="edge7" class="edge"><title>Node6&#45;&gt;Node7</title>
<path fill="none" stroke="midnightblue" d="M103.43,-123.475C103.783,-116.471 104.301,-106.192 104.78,-96.6956"/>
<polygon fill="midnightblue" stroke="midnightblue" points="108.285,-96.6866 105.293,-86.523 101.294,-96.334 108.285,-96.6866"/>
</g>
<!-- Node7&#45;&gt;Node2 -->
<g id="edge11" class="edge"><title>Node7&#45;&gt;Node2</title>
<path fill="none" stroke="midnightblue" d="M184.626,-57.4305C241.079,-47.7884 318.901,-33.968 387,-20 388.94,-19.6021 390.931,-19.1812 392.939,-18.7474"/>
<polygon fill="midnightblue" stroke="midnightblue" points="393.945,-22.1092 402.944,-16.5175 392.422,-15.2768 393.945,-22.1092"/>
</g>
<!-- Node8 -->
<g id="node8" class="node"><title>Node8</title>
<polygon fill="none" stroke="#bfbfbf" points="0,-0.5 0,-19.5 56,-19.5 56,-0.5 0,-0.5"/>
<text text-anchor="middle" x="28" y="-7.5" font-family="Helvetica,sans-Serif" font-size="10.00">Rtypes.h</text>
</g>
<!-- Node7&#45;&gt;Node8 -->
<g id="edge8" class="edge"><title>Node7&#45;&gt;Node8</title>
<path fill="none" stroke="midnightblue" d="M87.5151,-56.3993C75.4797,-47.2185 59.8003,-35.2579 47.5566,-25.9182"/>
<polygon fill="midnightblue" stroke="midnightblue" points="49.4233,-22.9401 39.3497,-19.6578 45.1777,-28.5056 49.4233,-22.9401"/>
</g>
<!-- Node9 -->
<g id="node9" class="node"><title>Node9</title>
<polygon fill="none" stroke="#bfbfbf" points="74.5,-0.5 74.5,-19.5 119.5,-19.5 119.5,-0.5 74.5,-0.5"/>
<text text-anchor="middle" x="97" y="-7.5" font-family="Helvetica,sans-Serif" font-size="10.00">iosfwd</text>
</g>
<!-- Node7&#45;&gt;Node9 -->
<g id="edge9" class="edge"><title>Node7&#45;&gt;Node9</title>
<path fill="none" stroke="midnightblue" d="M103.867,-56.3993C102.654,-48.3772 101.119,-38.2328 99.8088,-29.569"/>
<polygon fill="midnightblue" stroke="midnightblue" points="103.266,-29.0218 98.3096,-19.6578 96.3446,-30.0688 103.266,-29.0218"/>
</g>
<!-- Node10 -->
<g id="node10" class="node"><title>Node10</title>
<polygon fill="none" stroke="#bfbfbf" points="138,-0.5 138,-19.5 182,-19.5 182,-0.5 138,-0.5"/>
<text text-anchor="middle" x="160" y="-7.5" font-family="Helvetica,sans-Serif" font-size="10.00">cmath</text>
</g>
<!-- Node7&#45;&gt;Node10 -->
<g id="edge10" class="edge"><title>Node7&#45;&gt;Node10</title>
<path fill="none" stroke="midnightblue" d="M118.797,-56.3993C126.725,-47.6641 136.936,-36.4126 145.21,-27.2962"/>
<polygon fill="midnightblue" stroke="midnightblue" points="148.014,-29.415 152.143,-19.6578 142.83,-24.7106 148.014,-29.415"/>
</g>
<!-- Node11 -->
<g id="node11" class="node"><title>Node11</title>
<g id="a_node11"><a xlink:href="../../d4/dc6/LHCConstants_8h.html" target="_top" xlink:title="Header to collect LHC related constants. ">
<polygon fill="none" stroke="black" points="200,-0.5 200,-19.5 378,-19.5 378,-0.5 200,-0.5"/>
<text text-anchor="middle" x="289" y="-7.5" font-family="Helvetica,sans-Serif" font-size="10.00">CommonConstants/LHCConstants.h</text>
</a>
</g>
</g>
<!-- Node7&#45;&gt;Node11 -->
<g id="edge12" class="edge"><title>Node7&#45;&gt;Node11</title>
<path fill="none" stroke="midnightblue" d="M149.368,-56.3993C180.99,-46.118 223.333,-32.3506 253.071,-22.6818"/>
<polygon fill="midnightblue" stroke="midnightblue" points="254.211,-25.9915 262.639,-19.5709 252.047,-19.3345 254.211,-25.9915"/>
</g>
<!-- Node12&#45;&gt;Node2 -->
<g id="edge14" class="edge"><title>Node12&#45;&gt;Node2</title>
<path fill="none" stroke="midnightblue" d="M648.454,-123.065C661.876,-107.787 684.898,-76.3297 668,-56 641.845,-24.5326 519.401,-14.9625 459.363,-12.1377"/>
<polygon fill="midnightblue" stroke="midnightblue" points="459.4,-8.63608 449.258,-11.6985 459.096,-15.6295 459.4,-8.63608"/>
</g>
<!-- Node13 -->
<g id="node13" class="node"><title>Node13</title>
<polygon fill="none" stroke="#bfbfbf" points="621,-62 621,-81 659,-81 659,-62 621,-62"/>
<text text-anchor="middle" x="640" y="-69" font-family="Helvetica,sans-Serif" font-size="10.00">array</text>
</g>
<!-- Node12&#45;&gt;Node13 -->
<g id="edge15" class="edge"><title>Node12&#45;&gt;Node13</title>
<path fill="none" stroke="midnightblue" d="M640,-123.475C640,-115.08 640,-101.981 640,-91.1631"/>
<polygon fill="midnightblue" stroke="midnightblue" points="643.5,-91.0091 640,-81.0091 636.5,-91.0091 643.5,-91.0091"/>
</g>
<!-- Node14&#45;&gt;Node2 -->
<g id="edge17" class="edge"><title>Node14&#45;&gt;Node2</title>
<path fill="none" stroke="midnightblue" d="M501.047,-123.326C507.344,-108.443 517.534,-77.5646 505,-56 495.054,-38.8885 475.898,-27.7436 458.941,-20.8257"/>
<polygon fill="midnightblue" stroke="midnightblue" points="459.89,-17.444 449.297,-17.2278 457.443,-24.0025 459.89,-17.444"/>
</g>
<!-- Node14&#45;&gt;Node5 -->
<g id="edge19" class="edge"><title>Node14&#45;&gt;Node5</title>
<path fill="none" stroke="midnightblue" d="M486.827,-123.475C475.65,-114.108 457.483,-98.8839 443.909,-87.5081"/>
<polygon fill="midnightblue" stroke="midnightblue" points="446.066,-84.7496 436.154,-81.0091 441.57,-90.1148 446.066,-84.7496"/>
</g>
<!-- Node15 -->
<g id="node15" class="node"><title>Node15</title>
<polygon fill="none" stroke="#bfbfbf" points="553.5,-62 553.5,-81 602.5,-81 602.5,-62 553.5,-62"/>
<text text-anchor="middle" x="578" y="-69" font-family="Helvetica,sans-Serif" font-size="10.00">cstddef</text>
</g>
<!-- Node14&#45;&gt;Node15 -->
<g id="edge18" class="edge"><title>Node14&#45;&gt;Node15</title>
<path fill="none" stroke="midnightblue" d="M508.605,-123.475C521.477,-114.02 542.474,-98.5961 558.006,-87.1871"/>
<polygon fill="midnightblue" stroke="midnightblue" points="560.429,-89.75 566.416,-81.0091 556.285,-84.1085 560.429,-89.75"/>
</g>
</g>
</svg>
