<?xml version="1.0" encoding="UTF-8" standalone="no"?>
<!DOCTYPE svg PUBLIC "-//W3C//DTD SVG 1.1//EN"
 "http://www.w3.org/Graphics/SVG/1.1/DTD/svg11.dtd">
<!-- Generated by graphviz version 2.38.0 (20140413.2041)
 -->
<!-- Title: /home/travis/build/AliceO2Group/AliceO2/Detectors/ZDC/simulation/include/ZDCSimulation/Digitizer.h Pages: 1 -->
<svg width="2869pt" height="374pt"
 viewBox="0.00 0.00 2868.50 374.00" xmlns="http://www.w3.org/2000/svg" xmlns:xlink="http://www.w3.org/1999/xlink">
<g id="graph0" class="graph" transform="scale(1 1) rotate(0) translate(4 370)">
<title>/home/travis/build/AliceO2Group/AliceO2/Detectors/ZDC/simulation/include/ZDCSimulation/Digitizer.h</title>
<!-- Node1 -->
<g id="node1" class="node"><title>Node1</title>
<polygon fill="#bfbfbf" stroke="black" points="2077,-313.5 2077,-365.5 2244,-365.5 2244,-313.5 2077,-313.5"/>
<text text-anchor="start" x="2085" y="-353.5" font-family="Helvetica,sans-Serif" font-size="10.00">/home/travis/build</text>
<text text-anchor="start" x="2085" y="-342.5" font-family="Helvetica,sans-Serif" font-size="10.00">/AliceO2Group/AliceO2</text>
<text text-anchor="start" x="2085" y="-331.5" font-family="Helvetica,sans-Serif" font-size="10.00">/Detectors/ZDC/simulation</text>
<text text-anchor="middle" x="2160.5" y="-320.5" font-family="Helvetica,sans-Serif" font-size="10.00">/include/ZDCSimulation/Digitizer.h</text>
</g>
<!-- Node2 -->
<g id="node2" class="node"><title>Node2</title>
<g id="a_node2"><a xlink:href="../../dd/de7/Detectors_2ZDC_2simulation_2include_2ZDCSimulation_2Hit_8h.html" target="_top" xlink:title="ZDCSimulation/Hit.h">
<polygon fill="none" stroke="black" points="1117,-257.5 1117,-276.5 1224,-276.5 1224,-257.5 1117,-257.5"/>
<text text-anchor="middle" x="1170.5" y="-264.5" font-family="Helvetica,sans-Serif" font-size="10.00">ZDCSimulation/Hit.h</text>
</a>
</g>
</g>
<!-- Node1&#45;&gt;Node2 -->
<g id="edge1" class="edge"><title>Node1&#45;&gt;Node2</title>
<path fill="none" stroke="midnightblue" d="M2076.95,-332.55C1883.25,-318.756 1406.95,-284.838 1234.31,-272.544"/>
<polygon fill="midnightblue" stroke="midnightblue" points="1234.33,-269.037 1224.11,-271.818 1233.84,-276.019 1234.33,-269.037"/>
</g>
<!-- Node23 -->
<g id="node23" class="node"><title>Node23</title>
<g id="a_node23"><a xlink:href="../../d7/d7a/Detectors_2ZDC_2simulation_2include_2ZDCSimulation_2MCLabel_8h.html" target="_top" xlink:title="ZDCSimulation/MCLabel.h">
<polygon fill="none" stroke="black" points="1356.5,-257.5 1356.5,-276.5 1490.5,-276.5 1490.5,-257.5 1356.5,-257.5"/>
<text text-anchor="middle" x="1423.5" y="-264.5" font-family="Helvetica,sans-Serif" font-size="10.00">ZDCSimulation/MCLabel.h</text>
</a>
</g>
</g>
<!-- Node1&#45;&gt;Node23 -->
<g id="edge22" class="edge"><title>Node1&#45;&gt;Node23</title>
<path fill="none" stroke="midnightblue" d="M2076.67,-330.481C1932.67,-316.706 1640.36,-288.744 1500.9,-275.404"/>
<polygon fill="midnightblue" stroke="midnightblue" points="1501.01,-271.899 1490.72,-274.43 1500.34,-278.867 1501.01,-271.899"/>
</g>
<!-- Node26 -->
<g id="node26" class="node"><title>Node26</title>
<g id="a_node26"><a xlink:href="../../d4/d8c/ModuleConfig_8h.html" target="_top" xlink:title="ZDCBase/ModuleConfig.h">
<polygon fill="none" stroke="black" points="1930,-257.5 1930,-276.5 2061,-276.5 2061,-257.5 1930,-257.5"/>
<text text-anchor="middle" x="1995.5" y="-264.5" font-family="Helvetica,sans-Serif" font-size="10.00">ZDCBase/ModuleConfig.h</text>
</a>
</g>
</g>
<!-- Node1&#45;&gt;Node26 -->
<g id="edge26" class="edge"><title>Node1&#45;&gt;Node26</title>
<path fill="none" stroke="midnightblue" d="M2101.86,-313.446C2075.79,-302.308 2046.25,-289.683 2024.92,-280.572"/>
<polygon fill="midnightblue" stroke="midnightblue" points="2026.03,-277.238 2015.46,-276.527 2023.28,-283.675 2026.03,-277.238"/>
</g>
<!-- Node33 -->
<g id="node33" class="node"><title>Node33</title>
<polygon fill="none" stroke="#bfbfbf" points="2141.5,-196 2141.5,-215 2179.5,-215 2179.5,-196 2141.5,-196"/>
<text text-anchor="middle" x="2160.5" y="-203" font-family="Helvetica,sans-Serif" font-size="10.00">array</text>
</g>
<!-- Node1&#45;&gt;Node33 -->
<g id="edge63" class="edge"><title>Node1&#45;&gt;Node33</title>
<path fill="none" stroke="midnightblue" d="M2219.68,-313.391C2244.41,-299.012 2264.68,-279.389 2251.5,-257 2238.13,-234.284 2210.44,-221.058 2189.1,-213.883"/>
<polygon fill="midnightblue" stroke="midnightblue" points="2190.11,-210.531 2179.52,-210.916 2188.04,-217.218 2190.11,-210.531"/>
</g>
<!-- Node34 -->
<g id="node34" class="node"><title>Node34</title>
<g id="a_node34"><a xlink:href="../../d6/d7b/ChannelData_8h.html" target="_top" xlink:title="Container class to store NTimeBinsPerBC ADC values of single ZDC channel. ">
<polygon fill="none" stroke="black" points="2079,-257.5 2079,-276.5 2242,-276.5 2242,-257.5 2079,-257.5"/>
<text text-anchor="middle" x="2160.5" y="-264.5" font-family="Helvetica,sans-Serif" font-size="10.00">DataFormatsZDC/ChannelData.h</text>
</a>
</g>
</g>
<!-- Node1&#45;&gt;Node34 -->
<g id="edge35" class="edge"><title>Node1&#45;&gt;Node34</title>
<path fill="none" stroke="midnightblue" d="M2160.5,-313.446C2160.5,-304.73 2160.5,-295.104 2160.5,-286.964"/>
<polygon fill="midnightblue" stroke="midnightblue" points="2164,-286.695 2160.5,-276.695 2157,-286.696 2164,-286.695"/>
</g>
<!-- Node35 -->
<g id="node35" class="node"><title>Node35</title>
<g id="a_node35"><a xlink:href="../../d9/d41/BCData_8h.html" target="_top" xlink:title="Class to describe fired triggered and/or stored channels for the BC and to refer to channel data...">
<polygon fill="none" stroke="black" points="1660,-257.5 1660,-276.5 1801,-276.5 1801,-257.5 1660,-257.5"/>
<text text-anchor="middle" x="1730.5" y="-264.5" font-family="Helvetica,sans-Serif" font-size="10.00">DataFormatsZDC/BCData.h</text>
</a>
</g>
</g>
<!-- Node1&#45;&gt;Node35 -->
<g id="edge39" class="edge"><title>Node1&#45;&gt;Node35</title>
<path fill="none" stroke="midnightblue" d="M2076.83,-324.781C1993.52,-311.123 1867.58,-290.475 1792.73,-278.203"/>
<polygon fill="midnightblue" stroke="midnightblue" points="1792.96,-274.693 1782.52,-276.529 1791.82,-281.601 1792.96,-274.693"/>
</g>
<!-- Node36 -->
<g id="node36" class="node"><title>Node36</title>
<g id="a_node36"><a xlink:href="../../d9/d80/InteractionRecord_8h.html" target="_top" xlink:title="CommonDataFormat/Interaction\lRecord.h">
<polygon fill="none" stroke="black" points="1699,-190.5 1699,-220.5 1856,-220.5 1856,-190.5 1699,-190.5"/>
<text text-anchor="start" x="1707" y="-208.5" font-family="Helvetica,sans-Serif" font-size="10.00">CommonDataFormat/Interaction</text>
<text text-anchor="middle" x="1777.5" y="-197.5" font-family="Helvetica,sans-Serif" font-size="10.00">Record.h</text>
</a>
</g>
</g>
<!-- Node1&#45;&gt;Node36 -->
<g id="edge61" class="edge"><title>Node1&#45;&gt;Node36</title>
<path fill="none" stroke="midnightblue" d="M2076.82,-321.363C2030.37,-310.762 1971.94,-295.618 1921.5,-277 1882.38,-262.563 1839.74,-240.885 1811.09,-225.381"/>
<polygon fill="midnightblue" stroke="midnightblue" points="1812.76,-222.303 1802.31,-220.582 1809.41,-228.447 1812.76,-222.303"/>
</g>
<!-- Node41 -->
<g id="node41" class="node"><title>Node41</title>
<g id="a_node41"><a xlink:href="../../db/d14/MCTruthContainer_8h.html" target="_top" xlink:title="Definition of a container to keep Monte Carlo truth external to simulation objects. ">
<polygon fill="none" stroke="black" points="2460.5,-190.5 2460.5,-220.5 2574.5,-220.5 2574.5,-190.5 2460.5,-190.5"/>
<text text-anchor="start" x="2468.5" y="-208.5" font-family="Helvetica,sans-Serif" font-size="10.00">SimulationDataFormat</text>
<text text-anchor="middle" x="2517.5" y="-197.5" font-family="Helvetica,sans-Serif" font-size="10.00">/MCTruthContainer.h</text>
</a>
</g>
</g>
<!-- Node1&#45;&gt;Node41 -->
<g id="edge51" class="edge"><title>Node1&#45;&gt;Node41</title>
<path fill="none" stroke="midnightblue" d="M2228.49,-313.361C2299.16,-287.232 2407.92,-247.016 2469.91,-224.097"/>
<polygon fill="midnightblue" stroke="midnightblue" points="2471.28,-227.322 2479.44,-220.572 2468.85,-220.757 2471.28,-227.322"/>
</g>
<!-- Node47 -->
<g id="node47" class="node"><title>Node47</title>
<polygon fill="none" stroke="#bfbfbf" points="2816.5,-134.5 2816.5,-153.5 2860.5,-153.5 2860.5,-134.5 2816.5,-134.5"/>
<text text-anchor="middle" x="2838.5" y="-141.5" font-family="Helvetica,sans-Serif" font-size="10.00">vector</text>
</g>
<!-- Node1&#45;&gt;Node47 -->
<g id="edge62" class="edge"><title>Node1&#45;&gt;Node47</title>
<path fill="none" stroke="midnightblue" d="M2244.1,-315.773C2329.52,-292.435 2465.94,-254.842 2583.5,-221 2663.94,-197.843 2758.27,-169.391 2806.52,-154.742"/>
<polygon fill="midnightblue" stroke="midnightblue" points="2807.82,-158.004 2816.37,-151.747 2805.78,-151.306 2807.82,-158.004"/>
</g>
<!-- Node48 -->
<g id="node48" class="node"><title>Node48</title>
<polygon fill="none" stroke="#bfbfbf" points="2631,-257.5 2631,-276.5 2674,-276.5 2674,-257.5 2631,-257.5"/>
<text text-anchor="middle" x="2652.5" y="-264.5" font-family="Helvetica,sans-Serif" font-size="10.00">deque</text>
</g>
<!-- Node1&#45;&gt;Node48 -->
<g id="edge64" class="edge"><title>Node1&#45;&gt;Node48</title>
<path fill="none" stroke="midnightblue" d="M2244.16,-330.034C2335.96,-320.09 2487.44,-301.756 2616.5,-277 2617.96,-276.719 2619.46,-276.416 2620.96,-276.096"/>
<polygon fill="midnightblue" stroke="midnightblue" points="2621.92,-279.467 2630.88,-273.817 2620.35,-272.644 2621.92,-279.467"/>
</g>
<!-- Node49 -->
<g id="node49" class="node"><title>Node49</title>
<polygon fill="none" stroke="#bfbfbf" points="2692,-257.5 2692,-276.5 2733,-276.5 2733,-257.5 2692,-257.5"/>
<text text-anchor="middle" x="2712.5" y="-264.5" font-family="Helvetica,sans-Serif" font-size="10.00">bitset</text>
</g>
<!-- Node1&#45;&gt;Node49 -->
<g id="edge65" class="edge"><title>Node1&#45;&gt;Node49</title>
<path fill="none" stroke="midnightblue" d="M2244.15,-333.422C2345.93,-326.179 2522.9,-310.157 2681.76,-277.055"/>
<polygon fill="midnightblue" stroke="midnightblue" points="2682.65,-280.444 2691.71,-274.953 2681.2,-273.595 2682.65,-280.444"/>
</g>
<!-- Node3 -->
<g id="node3" class="node"><title>Node3</title>
<g id="a_node3"><a xlink:href="../../d4/d25/BaseHits_8h.html" target="_top" xlink:title="SimulationDataFormat\l/BaseHits.h">
<polygon fill="none" stroke="black" points="1113.5,-190.5 1113.5,-220.5 1227.5,-220.5 1227.5,-190.5 1113.5,-190.5"/>
<text text-anchor="start" x="1121.5" y="-208.5" font-family="Helvetica,sans-Serif" font-size="10.00">SimulationDataFormat</text>
<text text-anchor="middle" x="1170.5" y="-197.5" font-family="Helvetica,sans-Serif" font-size="10.00">/BaseHits.h</text>
</a>
</g>
</g>
<!-- Node2&#45;&gt;Node3 -->
<g id="edge2" class="edge"><title>Node2&#45;&gt;Node3</title>
<path fill="none" stroke="midnightblue" d="M1170.5,-257.475C1170.5,-250.471 1170.5,-240.192 1170.5,-230.696"/>
<polygon fill="midnightblue" stroke="midnightblue" points="1174,-230.523 1170.5,-220.523 1167,-230.523 1174,-230.523"/>
</g>
<!-- Node16 -->
<g id="node16" class="node"><title>Node16</title>
<g id="a_node16"><a xlink:href="../../d0/d91/ShmAllocator_8h.html" target="_top" xlink:title="CommonUtils/ShmAllocator.h">
<polygon fill="none" stroke="black" points="949.5,-196 949.5,-215 1095.5,-215 1095.5,-196 949.5,-196"/>
<text text-anchor="middle" x="1022.5" y="-203" font-family="Helvetica,sans-Serif" font-size="10.00">CommonUtils/ShmAllocator.h</text>
</a>
</g>
</g>
<!-- Node2&#45;&gt;Node16 -->
<g id="edge15" class="edge"><title>Node2&#45;&gt;Node16</title>
<path fill="none" stroke="midnightblue" d="M1149.3,-257.475C1124.13,-247.357 1081.96,-230.405 1053.22,-218.851"/>
<polygon fill="midnightblue" stroke="midnightblue" points="1054.25,-215.492 1043.67,-215.009 1051.64,-221.987 1054.25,-215.492"/>
</g>
<!-- Node4 -->
<g id="node4" class="node"><title>Node4</title>
<g id="a_node4"><a xlink:href="../../dd/d76/Cartesian3D_8h.html" target="_top" xlink:title="MathUtils/Cartesian3D.h">
<polygon fill="none" stroke="black" points="1108,-134.5 1108,-153.5 1233,-153.5 1233,-134.5 1108,-134.5"/>
<text text-anchor="middle" x="1170.5" y="-141.5" font-family="Helvetica,sans-Serif" font-size="10.00">MathUtils/Cartesian3D.h</text>
</a>
</g>
</g>
<!-- Node3&#45;&gt;Node4 -->
<g id="edge3" class="edge"><title>Node3&#45;&gt;Node4</title>
<path fill="none" stroke="midnightblue" d="M1170.5,-190.399C1170.5,-182.466 1170.5,-172.458 1170.5,-163.858"/>
<polygon fill="midnightblue" stroke="midnightblue" points="1174,-163.658 1170.5,-153.658 1167,-163.658 1174,-163.658"/>
</g>
<!-- Node5 -->
<g id="node5" class="node"><title>Node5</title>
<polygon fill="none" stroke="#bfbfbf" points="562,-67.5 562,-97.5 713,-97.5 713,-67.5 562,-67.5"/>
<text text-anchor="start" x="570" y="-85.5" font-family="Helvetica,sans-Serif" font-size="10.00">Math/GenVector/Displacement</text>
<text text-anchor="middle" x="637.5" y="-74.5" font-family="Helvetica,sans-Serif" font-size="10.00">Vector3D.h</text>
</g>
<!-- Node4&#45;&gt;Node5 -->
<g id="edge4" class="edge"><title>Node4&#45;&gt;Node5</title>
<path fill="none" stroke="midnightblue" d="M1107.64,-138.06C1022.86,-131.092 866.941,-117.203 723.321,-98.0457"/>
<polygon fill="midnightblue" stroke="midnightblue" points="723.38,-94.5222 713.002,-96.6573 722.446,-101.46 723.38,-94.5222"/>
</g>
<!-- Node6 -->
<g id="node6" class="node"><title>Node6</title>
<polygon fill="none" stroke="#bfbfbf" points="731.5,-73 731.5,-92 907.5,-92 907.5,-73 731.5,-73"/>
<text text-anchor="middle" x="819.5" y="-80" font-family="Helvetica,sans-Serif" font-size="10.00">Math/GenVector/PositionVector3D.h</text>
</g>
<!-- Node4&#45;&gt;Node6 -->
<g id="edge5" class="edge"><title>Node4&#45;&gt;Node6</title>
<path fill="none" stroke="midnightblue" d="M1120.21,-134.475C1056.74,-123.716 947.691,-105.23 879.813,-93.724"/>
<polygon fill="midnightblue" stroke="midnightblue" points="880.141,-90.2297 869.696,-92.0091 878.971,-97.1313 880.141,-90.2297"/>
</g>
<!-- Node7 -->
<g id="node7" class="node"><title>Node7</title>
<polygon fill="none" stroke="#bfbfbf" points="925,-73 925,-92 1074,-92 1074,-73 925,-73"/>
<text text-anchor="middle" x="999.5" y="-80" font-family="Helvetica,sans-Serif" font-size="10.00">Math/GenVector/Rotation3D.h</text>
</g>
<!-- Node4&#45;&gt;Node7 -->
<g id="edge6" class="edge"><title>Node4&#45;&gt;Node7</title>
<path fill="none" stroke="midnightblue" d="M1146,-134.475C1116.54,-124.225 1066.92,-106.959 1033.7,-95.3994"/>
<polygon fill="midnightblue" stroke="midnightblue" points="1034.55,-91.9898 1023.95,-92.0091 1032.25,-98.601 1034.55,-91.9898"/>
</g>
<!-- Node8 -->
<g id="node8" class="node"><title>Node8</title>
<polygon fill="none" stroke="#bfbfbf" points="1092.5,-73 1092.5,-92 1248.5,-92 1248.5,-73 1092.5,-73"/>
<text text-anchor="middle" x="1170.5" y="-80" font-family="Helvetica,sans-Serif" font-size="10.00">Math/GenVector/Transform3D.h</text>
</g>
<!-- Node4&#45;&gt;Node8 -->
<g id="edge7" class="edge"><title>Node4&#45;&gt;Node8</title>
<path fill="none" stroke="midnightblue" d="M1170.5,-134.475C1170.5,-126.08 1170.5,-112.981 1170.5,-102.163"/>
<polygon fill="midnightblue" stroke="midnightblue" points="1174,-102.009 1170.5,-92.0091 1167,-102.009 1174,-102.009"/>
</g>
<!-- Node9 -->
<g id="node9" class="node"><title>Node9</title>
<polygon fill="none" stroke="#bfbfbf" points="1266.5,-73 1266.5,-92 1426.5,-92 1426.5,-73 1266.5,-73"/>
<text text-anchor="middle" x="1346.5" y="-80" font-family="Helvetica,sans-Serif" font-size="10.00">Math/GenVector/Translation3D.h</text>
</g>
<!-- Node4&#45;&gt;Node9 -->
<g id="edge8" class="edge"><title>Node4&#45;&gt;Node9</title>
<path fill="none" stroke="midnightblue" d="M1195.72,-134.475C1226.17,-124.18 1277.55,-106.81 1311.74,-95.2502"/>
<polygon fill="midnightblue" stroke="midnightblue" points="1312.98,-98.5274 1321.33,-92.0091 1310.74,-91.8961 1312.98,-98.5274"/>
</g>
<!-- Node10 -->
<g id="node10" class="node"><title>Node10</title>
<polygon fill="none" stroke="#bfbfbf" points="1602.5,-73 1602.5,-92 1658.5,-92 1658.5,-73 1602.5,-73"/>
<text text-anchor="middle" x="1630.5" y="-80" font-family="Helvetica,sans-Serif" font-size="10.00">Rtypes.h</text>
</g>
<!-- Node4&#45;&gt;Node10 -->
<g id="edge9" class="edge"><title>Node4&#45;&gt;Node10</title>
<path fill="none" stroke="midnightblue" d="M1233.12,-138.404C1333.71,-130.674 1526.78,-114.309 1593.5,-98 1596.33,-97.3089 1599.23,-96.4517 1602.1,-95.5021"/>
<polygon fill="midnightblue" stroke="midnightblue" points="1603.42,-98.7453 1611.61,-92.0238 1601.02,-92.171 1603.42,-98.7453"/>
</g>
<!-- Node11 -->
<g id="node11" class="node"><title>Node11</title>
<polygon fill="none" stroke="#bfbfbf" points="1444.5,-73 1444.5,-92 1520.5,-92 1520.5,-73 1444.5,-73"/>
<text text-anchor="middle" x="1482.5" y="-80" font-family="Helvetica,sans-Serif" font-size="10.00">TGeoMatrix.h</text>
</g>
<!-- Node4&#45;&gt;Node11 -->
<g id="edge10" class="edge"><title>Node4&#45;&gt;Node11</title>
<path fill="none" stroke="midnightblue" d="M1233.08,-134.736C1287.07,-127.044 1366.95,-114.32 1435.5,-98 1439.32,-97.0915 1443.28,-96.0421 1447.21,-94.9317"/>
<polygon fill="midnightblue" stroke="midnightblue" points="1448.21,-98.2836 1456.81,-92.0912 1446.23,-91.571 1448.21,-98.2836"/>
</g>
<!-- Node12 -->
<g id="node12" class="node"><title>Node12</title>
<polygon fill="none" stroke="#bfbfbf" points="1539,-73 1539,-92 1584,-92 1584,-73 1539,-73"/>
<text text-anchor="middle" x="1561.5" y="-80" font-family="Helvetica,sans-Serif" font-size="10.00">iosfwd</text>
</g>
<!-- Node4&#45;&gt;Node12 -->
<g id="edge11" class="edge"><title>Node4&#45;&gt;Node12</title>
<path fill="none" stroke="midnightblue" d="M1233.35,-137.414C1321,-129.231 1475.32,-113.291 1529.5,-98 1531.65,-97.3943 1533.83,-96.6658 1536,-95.862"/>
<polygon fill="midnightblue" stroke="midnightblue" points="1537.37,-99.0847 1545.25,-92.0029 1534.67,-92.6249 1537.37,-99.0847"/>
</g>
<!-- Node13 -->
<g id="node13" class="node"><title>Node13</title>
<g id="a_node13"><a xlink:href="../../d2/dd0/Cartesian2D_8h.html" target="_top" xlink:title="MathUtils/Cartesian2D.h">
<polygon fill="none" stroke="black" points="419,-73 419,-92 544,-92 544,-73 419,-73"/>
<text text-anchor="middle" x="481.5" y="-80" font-family="Helvetica,sans-Serif" font-size="10.00">MathUtils/Cartesian2D.h</text>
</a>
</g>
</g>
<!-- Node4&#45;&gt;Node13 -->
<g id="edge12" class="edge"><title>Node4&#45;&gt;Node13</title>
<path fill="none" stroke="midnightblue" d="M1107.94,-141.107C996.047,-137.129 754.444,-125.855 552.5,-98 544.701,-96.9242 536.472,-95.508 528.49,-93.982"/>
<polygon fill="midnightblue" stroke="midnightblue" points="529.053,-90.5254 518.562,-92.0077 527.687,-97.3909 529.053,-90.5254"/>
</g>
<!-- Node14 -->
<g id="node14" class="node"><title>Node14</title>
<polygon fill="none" stroke="#bfbfbf" points="315,-0.5 315,-30.5 466,-30.5 466,-0.5 315,-0.5"/>
<text text-anchor="start" x="323" y="-18.5" font-family="Helvetica,sans-Serif" font-size="10.00">Math/GenVector/Displacement</text>
<text text-anchor="middle" x="390.5" y="-7.5" font-family="Helvetica,sans-Serif" font-size="10.00">Vector2D.h</text>
</g>
<!-- Node13&#45;&gt;Node14 -->
<g id="edge13" class="edge"><title>Node13&#45;&gt;Node14</title>
<path fill="none" stroke="midnightblue" d="M469.227,-72.7338C456.338,-63.527 435.626,-48.7328 418.681,-36.6293"/>
<polygon fill="midnightblue" stroke="midnightblue" points="420.396,-33.5534 410.225,-30.589 416.328,-39.2495 420.396,-33.5534"/>
</g>
<!-- Node15 -->
<g id="node15" class="node"><title>Node15</title>
<polygon fill="none" stroke="#bfbfbf" points="484.5,-6 484.5,-25 660.5,-25 660.5,-6 484.5,-6"/>
<text text-anchor="middle" x="572.5" y="-13" font-family="Helvetica,sans-Serif" font-size="10.00">Math/GenVector/PositionVector2D.h</text>
</g>
<!-- Node13&#45;&gt;Node15 -->
<g id="edge14" class="edge"><title>Node13&#45;&gt;Node15</title>
<path fill="none" stroke="midnightblue" d="M493.773,-72.7338C508.645,-62.1106 533.932,-44.0485 551.83,-31.2642"/>
<polygon fill="midnightblue" stroke="midnightblue" points="554.319,-33.7878 560.422,-25.1273 550.25,-28.0917 554.319,-33.7878"/>
</g>
<!-- Node17 -->
<g id="node17" class="node"><title>Node17</title>
<g id="a_node17"><a xlink:href="../../de/d61/ShmManager_8h.html" target="_top" xlink:title="CommonUtils/ShmManager.h">
<polygon fill="none" stroke="black" points="115.5,-134.5 115.5,-153.5 261.5,-153.5 261.5,-134.5 115.5,-134.5"/>
<text text-anchor="middle" x="188.5" y="-141.5" font-family="Helvetica,sans-Serif" font-size="10.00">CommonUtils/ShmManager.h</text>
</a>
</g>
</g>
<!-- Node16&#45;&gt;Node17 -->
<g id="edge16" class="edge"><title>Node16&#45;&gt;Node17</title>
<path fill="none" stroke="midnightblue" d="M949.219,-199.272C794.362,-188.224 434.714,-162.566 271.598,-150.928"/>
<polygon fill="midnightblue" stroke="midnightblue" points="271.838,-147.437 261.615,-150.216 271.34,-154.419 271.838,-147.437"/>
</g>
<!-- Node22 -->
<g id="node22" class="node"><title>Node22</title>
<polygon fill="none" stroke="#bfbfbf" points="1484,-134.5 1484,-153.5 1533,-153.5 1533,-134.5 1484,-134.5"/>
<text text-anchor="middle" x="1508.5" y="-141.5" font-family="Helvetica,sans-Serif" font-size="10.00">cassert</text>
</g>
<!-- Node16&#45;&gt;Node22 -->
<g id="edge21" class="edge"><title>Node16&#45;&gt;Node22</title>
<path fill="none" stroke="midnightblue" d="M1067.53,-195.979C1079.52,-193.863 1092.48,-191.713 1104.5,-190 1251.44,-169.066 1289.08,-171.205 1436.5,-154 1448.69,-152.577 1462.04,-150.933 1473.89,-149.443"/>
<polygon fill="midnightblue" stroke="midnightblue" points="1474.37,-152.91 1483.85,-148.182 1473.49,-145.965 1474.37,-152.91"/>
</g>
<!-- Node18 -->
<g id="node18" class="node"><title>Node18</title>
<polygon fill="none" stroke="#bfbfbf" points="0,-73 0,-92 29,-92 29,-73 0,-73"/>
<text text-anchor="middle" x="14.5" y="-80" font-family="Helvetica,sans-Serif" font-size="10.00">list</text>
</g>
<!-- Node17&#45;&gt;Node18 -->
<g id="edge17" class="edge"><title>Node17&#45;&gt;Node18</title>
<path fill="none" stroke="midnightblue" d="M149.283,-134.435C118.168,-126.906 73.9918,-114.562 37.5,-98 36.9358,-97.7439 36.3691,-97.476 35.8015,-97.1982"/>
<polygon fill="midnightblue" stroke="midnightblue" points="37.2356,-93.9886 26.8065,-92.1218 33.7951,-100.085 37.2356,-93.9886"/>
</g>
<!-- Node19 -->
<g id="node19" class="node"><title>Node19</title>
<polygon fill="none" stroke="#bfbfbf" points="47,-73 47,-92 96,-92 96,-73 47,-73"/>
<text text-anchor="middle" x="71.5" y="-80" font-family="Helvetica,sans-Serif" font-size="10.00">cstddef</text>
</g>
<!-- Node17&#45;&gt;Node19 -->
<g id="edge18" class="edge"><title>Node17&#45;&gt;Node19</title>
<path fill="none" stroke="midnightblue" d="M171.737,-134.475C152.275,-124.578 119.955,-108.142 97.2893,-96.6151"/>
<polygon fill="midnightblue" stroke="midnightblue" points="98.7323,-93.4224 88.2322,-92.0091 95.5592,-99.6619 98.7323,-93.4224"/>
</g>
<!-- Node20 -->
<g id="node20" class="node"><title>Node20</title>
<polygon fill="none" stroke="#bfbfbf" points="114.5,-67.5 114.5,-97.5 262.5,-97.5 262.5,-67.5 114.5,-67.5"/>
<text text-anchor="start" x="122.5" y="-85.5" font-family="Helvetica,sans-Serif" font-size="10.00">boost/interprocess</text>
<text text-anchor="middle" x="188.5" y="-74.5" font-family="Helvetica,sans-Serif" font-size="10.00">/managed_external_buffer.hpp</text>
</g>
<!-- Node17&#45;&gt;Node20 -->
<g id="edge19" class="edge"><title>Node17&#45;&gt;Node20</title>
<path fill="none" stroke="midnightblue" d="M188.5,-134.475C188.5,-127.471 188.5,-117.192 188.5,-107.696"/>
<polygon fill="midnightblue" stroke="midnightblue" points="192,-107.523 188.5,-97.523 185,-107.523 192,-107.523"/>
</g>
<!-- Node21 -->
<g id="node21" class="node"><title>Node21</title>
<polygon fill="none" stroke="#bfbfbf" points="280.5,-67.5 280.5,-97.5 400.5,-97.5 400.5,-67.5 280.5,-67.5"/>
<text text-anchor="start" x="288.5" y="-85.5" font-family="Helvetica,sans-Serif" font-size="10.00">boost/interprocess</text>
<text text-anchor="middle" x="340.5" y="-74.5" font-family="Helvetica,sans-Serif" font-size="10.00">/allocators/allocator.hpp</text>
</g>
<!-- Node17&#45;&gt;Node21 -->
<g id="edge20" class="edge"><title>Node17&#45;&gt;Node21</title>
<path fill="none" stroke="midnightblue" d="M210.278,-134.475C232.307,-125.852 267.018,-112.264 295.066,-101.285"/>
<polygon fill="midnightblue" stroke="midnightblue" points="296.64,-104.427 304.677,-97.523 294.089,-97.909 296.64,-104.427"/>
</g>
<!-- Node24 -->
<g id="node24" class="node"><title>Node24</title>
<g id="a_node24"><a xlink:href="../../d7/dcd/MCCompLabel_8h.html" target="_top" xlink:title="SimulationDataFormat\l/MCCompLabel.h">
<polygon fill="none" stroke="black" points="1245.5,-190.5 1245.5,-220.5 1359.5,-220.5 1359.5,-190.5 1245.5,-190.5"/>
<text text-anchor="start" x="1253.5" y="-208.5" font-family="Helvetica,sans-Serif" font-size="10.00">SimulationDataFormat</text>
<text text-anchor="middle" x="1302.5" y="-197.5" font-family="Helvetica,sans-Serif" font-size="10.00">/MCCompLabel.h</text>
</a>
</g>
</g>
<!-- Node23&#45;&gt;Node24 -->
<g id="edge23" class="edge"><title>Node23&#45;&gt;Node24</title>
<path fill="none" stroke="midnightblue" d="M1406.16,-257.475C1389.01,-249.04 1362.2,-235.855 1340.14,-225.008"/>
<polygon fill="midnightblue" stroke="midnightblue" points="1341.54,-221.795 1331.02,-220.523 1338.45,-228.077 1341.54,-221.795"/>
</g>
<!-- Node25 -->
<g id="node25" class="node"><title>Node25</title>
<g id="a_node25"><a xlink:href="../../d2/d45/GPUCommonRtypes_8h.html" target="_top" xlink:title="GPUCommonRtypes.h">
<polygon fill="none" stroke="black" points="1309.5,-134.5 1309.5,-153.5 1427.5,-153.5 1427.5,-134.5 1309.5,-134.5"/>
<text text-anchor="middle" x="1368.5" y="-141.5" font-family="Helvetica,sans-Serif" font-size="10.00">GPUCommonRtypes.h</text>
</a>
</g>
</g>
<!-- Node24&#45;&gt;Node25 -->
<g id="edge24" class="edge"><title>Node24&#45;&gt;Node25</title>
<path fill="none" stroke="midnightblue" d="M1318.14,-190.399C1328.13,-181.397 1341.08,-169.721 1351.35,-160.465"/>
<polygon fill="midnightblue" stroke="midnightblue" points="1353.81,-162.953 1358.9,-153.658 1349.13,-157.754 1353.81,-162.953"/>
</g>
<!-- Node25&#45;&gt;Node10 -->
<g id="edge25" class="edge"><title>Node25&#45;&gt;Node10</title>
<path fill="none" stroke="midnightblue" d="M1425.58,-134.441C1471.46,-126.879 1537.31,-114.489 1593.5,-98 1595.93,-97.286 1598.43,-96.4783 1600.92,-95.6183"/>
<polygon fill="midnightblue" stroke="midnightblue" points="1602.2,-98.878 1610.37,-92.131 1599.77,-92.3112 1602.2,-98.878"/>
</g>
<!-- Node26&#45;&gt;Node10 -->
<g id="edge33" class="edge"><title>Node26&#45;&gt;Node10</title>
<path fill="none" stroke="midnightblue" d="M1988.97,-257.46C1968.46,-230.864 1905.02,-150.322 1876.5,-134 1810.26,-96.0911 1719.59,-86.4134 1668.87,-84.0835"/>
<polygon fill="midnightblue" stroke="midnightblue" points="1668.8,-80.5784 1658.67,-83.6903 1668.53,-87.5732 1668.8,-80.5784"/>
</g>
<!-- Node27 -->
<g id="node27" class="node"><title>Node27</title>
<g id="a_node27"><a xlink:href="../../d3/dd7/Detectors_2ZDC_2base_2include_2ZDCBase_2Constants_8h.html" target="_top" xlink:title="ZDCBase/Constants.h">
<polygon fill="none" stroke="black" points="1972.5,-196 1972.5,-215 2088.5,-215 2088.5,-196 1972.5,-196"/>
<text text-anchor="middle" x="2030.5" y="-203" font-family="Helvetica,sans-Serif" font-size="10.00">ZDCBase/Constants.h</text>
</a>
</g>
</g>
<!-- Node26&#45;&gt;Node27 -->
<g id="edge27" class="edge"><title>Node26&#45;&gt;Node27</title>
<path fill="none" stroke="midnightblue" d="M2000.51,-257.475C2005.66,-248.727 2013.81,-234.869 2020.32,-223.809"/>
<polygon fill="midnightblue" stroke="midnightblue" points="2023.44,-225.403 2025.49,-215.009 2017.41,-221.854 2023.44,-225.403"/>
</g>
<!-- Node26&#45;&gt;Node33 -->
<g id="edge34" class="edge"><title>Node26&#45;&gt;Node33</title>
<path fill="none" stroke="midnightblue" d="M2019.14,-257.475C2048.73,-246.805 2099.4,-228.534 2131.36,-217.009"/>
<polygon fill="midnightblue" stroke="midnightblue" points="2132.81,-220.207 2141.03,-213.522 2130.43,-213.622 2132.81,-220.207"/>
</g>
<!-- Node28 -->
<g id="node28" class="node"><title>Node28</title>
<g id="a_node28"><a xlink:href="../../d3/d9d/PhysicsConstants_8h.html" target="_top" xlink:title="Header to collect physics constants. ">
<polygon fill="none" stroke="black" points="2131,-134.5 2131,-153.5 2324,-153.5 2324,-134.5 2131,-134.5"/>
<text text-anchor="middle" x="2227.5" y="-141.5" font-family="Helvetica,sans-Serif" font-size="10.00">CommonConstants/PhysicsConstants.h</text>
</a>
</g>
</g>
<!-- Node27&#45;&gt;Node28 -->
<g id="edge28" class="edge"><title>Node27&#45;&gt;Node28</title>
<path fill="none" stroke="midnightblue" d="M2058.73,-195.975C2093.1,-185.592 2151.31,-168.012 2189.58,-156.454"/>
<polygon fill="midnightblue" stroke="midnightblue" points="2190.77,-159.751 2199.33,-153.509 2188.74,-153.05 2190.77,-159.751"/>
</g>
<!-- Node29 -->
<g id="node29" class="node"><title>Node29</title>
<polygon fill="none" stroke="#bfbfbf" points="1923.5,-134.5 1923.5,-153.5 1969.5,-153.5 1969.5,-134.5 1923.5,-134.5"/>
<text text-anchor="middle" x="1946.5" y="-141.5" font-family="Helvetica,sans-Serif" font-size="10.00">cstdint</text>
</g>
<!-- Node27&#45;&gt;Node29 -->
<g id="edge29" class="edge"><title>Node27&#45;&gt;Node29</title>
<path fill="none" stroke="midnightblue" d="M2018.46,-195.975C2004.99,-186.431 1982.93,-170.807 1966.78,-159.368"/>
<polygon fill="midnightblue" stroke="midnightblue" points="1968.7,-156.433 1958.51,-153.509 1964.65,-162.145 1968.7,-156.433"/>
</g>
<!-- Node30 -->
<g id="node30" class="node"><title>Node30</title>
<polygon fill="none" stroke="#bfbfbf" points="1987.5,-134.5 1987.5,-153.5 2053.5,-153.5 2053.5,-134.5 1987.5,-134.5"/>
<text text-anchor="middle" x="2020.5" y="-141.5" font-family="Helvetica,sans-Serif" font-size="10.00">string_view</text>
</g>
<!-- Node27&#45;&gt;Node30 -->
<g id="edge30" class="edge"><title>Node27&#45;&gt;Node30</title>
<path fill="none" stroke="midnightblue" d="M2029.07,-195.975C2027.66,-187.58 2025.45,-174.481 2023.64,-163.663"/>
<polygon fill="midnightblue" stroke="midnightblue" points="2027.04,-162.791 2021.93,-153.509 2020.14,-163.951 2027.04,-162.791"/>
</g>
<!-- Node31 -->
<g id="node31" class="node"><title>Node31</title>
<polygon fill="none" stroke="#bfbfbf" points="2072,-134.5 2072,-153.5 2113,-153.5 2113,-134.5 2072,-134.5"/>
<text text-anchor="middle" x="2092.5" y="-141.5" font-family="Helvetica,sans-Serif" font-size="10.00">string</text>
</g>
<!-- Node27&#45;&gt;Node31 -->
<g id="edge31" class="edge"><title>Node27&#45;&gt;Node31</title>
<path fill="none" stroke="midnightblue" d="M2039.38,-195.975C2048.96,-186.785 2064.41,-171.956 2076.19,-160.656"/>
<polygon fill="midnightblue" stroke="midnightblue" points="2078.84,-162.958 2083.63,-153.509 2073.99,-157.908 2078.84,-162.958"/>
</g>
<!-- Node32 -->
<g id="node32" class="node"><title>Node32</title>
<polygon fill="none" stroke="#bfbfbf" points="2342.5,-134.5 2342.5,-153.5 2404.5,-153.5 2404.5,-134.5 2342.5,-134.5"/>
<text text-anchor="middle" x="2373.5" y="-141.5" font-family="Helvetica,sans-Serif" font-size="10.00">type_traits</text>
</g>
<!-- Node27&#45;&gt;Node32 -->
<g id="edge32" class="edge"><title>Node27&#45;&gt;Node32</title>
<path fill="none" stroke="midnightblue" d="M2087.63,-195.957C2146.53,-186.931 2241.24,-171.803 2332.17,-154.178"/>
<polygon fill="midnightblue" stroke="midnightblue" points="2332.95,-157.592 2342.09,-152.242 2331.61,-150.722 2332.95,-157.592"/>
</g>
<!-- Node34&#45;&gt;Node10 -->
<g id="edge38" class="edge"><title>Node34&#45;&gt;Node10</title>
<path fill="none" stroke="midnightblue" d="M2217.68,-257.454C2310.46,-241.389 2477.29,-202.037 2413.5,-134 2387.77,-106.555 1823.2,-88.8667 1669.07,-84.5374"/>
<polygon fill="midnightblue" stroke="midnightblue" points="1668.79,-81.0284 1658.7,-84.2489 1668.6,-88.0256 1668.79,-81.0284"/>
</g>
<!-- Node34&#45;&gt;Node27 -->
<g id="edge36" class="edge"><title>Node34&#45;&gt;Node27</title>
<path fill="none" stroke="midnightblue" d="M2141.87,-257.475C2120.06,-247.49 2083.7,-230.848 2058.48,-219.307"/>
<polygon fill="midnightblue" stroke="midnightblue" points="2059.64,-215.988 2049.09,-215.009 2056.73,-222.353 2059.64,-215.988"/>
</g>
<!-- Node34&#45;&gt;Node33 -->
<g id="edge37" class="edge"><title>Node34&#45;&gt;Node33</title>
<path fill="none" stroke="midnightblue" d="M2160.5,-257.475C2160.5,-249.08 2160.5,-235.981 2160.5,-225.163"/>
<polygon fill="midnightblue" stroke="midnightblue" points="2164,-225.009 2160.5,-215.009 2157,-225.009 2164,-225.009"/>
</g>
<!-- Node35&#45;&gt;Node10 -->
<g id="edge49" class="edge"><title>Node35&#45;&gt;Node10</title>
<path fill="none" stroke="midnightblue" d="M1722.74,-257.414C1706.32,-239.436 1668.18,-198.766 1651.5,-190 1580.83,-152.855 1525.98,-215.855 1475.5,-154 1422.96,-89.6291 1435.26,-153.051 1593.5,-98 1595.62,-97.2632 1597.79,-96.4798 1599.98,-95.6735"/>
<polygon fill="midnightblue" stroke="midnightblue" points="1601.37,-98.8899 1609.47,-92.0653 1598.88,-92.3466 1601.37,-98.8899"/>
</g>
<!-- Node35&#45;&gt;Node27 -->
<g id="edge48" class="edge"><title>Node35&#45;&gt;Node27</title>
<path fill="none" stroke="midnightblue" d="M1773.48,-257.475C1827.28,-246.805 1919.41,-228.534 1977.51,-217.009"/>
<polygon fill="midnightblue" stroke="midnightblue" points="1978.47,-220.388 1987.6,-215.009 1977.11,-213.521 1978.47,-220.388"/>
</g>
<!-- Node35&#45;&gt;Node36 -->
<g id="edge40" class="edge"><title>Node35&#45;&gt;Node36</title>
<path fill="none" stroke="midnightblue" d="M1737.23,-257.475C1743.18,-249.944 1752.12,-238.626 1760.07,-228.566"/>
<polygon fill="midnightblue" stroke="midnightblue" points="1762.97,-230.54 1766.42,-220.523 1757.48,-226.201 1762.97,-230.54"/>
</g>
<!-- Node39 -->
<g id="node39" class="node"><title>Node39</title>
<g id="a_node39"><a xlink:href="../../de/d64/RangeReference_8h.html" target="_top" xlink:title="Class to refer to the 1st entry and N elements of some group in the continuous container. ">
<polygon fill="none" stroke="black" points="1378,-196 1378,-215 1571,-215 1571,-196 1378,-196"/>
<text text-anchor="middle" x="1474.5" y="-203" font-family="Helvetica,sans-Serif" font-size="10.00">CommonDataFormat/RangeReference.h</text>
</a>
</g>
</g>
<!-- Node35&#45;&gt;Node39 -->
<g id="edge46" class="edge"><title>Node35&#45;&gt;Node39</title>
<path fill="none" stroke="midnightblue" d="M1693.82,-257.475C1648.29,-246.893 1570.6,-228.836 1520.95,-217.297"/>
<polygon fill="midnightblue" stroke="midnightblue" points="1521.64,-213.864 1511.11,-215.009 1520.06,-220.682 1521.64,-213.864"/>
</g>
<!-- Node40 -->
<g id="node40" class="node"><title>Node40</title>
<polygon fill="none" stroke="#bfbfbf" points="1589,-196 1589,-215 1642,-215 1642,-196 1589,-196"/>
<text text-anchor="middle" x="1615.5" y="-203" font-family="Helvetica,sans-Serif" font-size="10.00">gsl/span</text>
</g>
<!-- Node35&#45;&gt;Node40 -->
<g id="edge50" class="edge"><title>Node35&#45;&gt;Node40</title>
<path fill="none" stroke="midnightblue" d="M1714.02,-257.475C1694.89,-247.578 1663.13,-231.142 1640.85,-219.615"/>
<polygon fill="midnightblue" stroke="midnightblue" points="1642.44,-216.496 1631.95,-215.009 1639.22,-222.713 1642.44,-216.496"/>
</g>
<!-- Node36&#45;&gt;Node10 -->
<g id="edge41" class="edge"><title>Node36&#45;&gt;Node10</title>
<path fill="none" stroke="midnightblue" d="M1706.21,-190.47C1669.2,-181.585 1629.45,-168.96 1618.5,-154 1607.31,-138.711 1613.73,-116.604 1620.73,-101.236"/>
<polygon fill="midnightblue" stroke="midnightblue" points="1623.88,-102.758 1625.24,-92.2503 1617.63,-99.6176 1623.88,-102.758"/>
</g>
<!-- Node36&#45;&gt;Node12 -->
<g id="edge42" class="edge"><title>Node36&#45;&gt;Node12</title>
<path fill="none" stroke="midnightblue" d="M1698.61,-193.105C1667.94,-185.746 1633.91,-173.693 1607.5,-154 1589.43,-140.527 1576.44,-117.702 1568.96,-101.682"/>
<polygon fill="midnightblue" stroke="midnightblue" points="1572.07,-100.056 1564.85,-92.3037 1565.66,-102.867 1572.07,-100.056"/>
</g>
<!-- Node36&#45;&gt;Node29 -->
<g id="edge44" class="edge"><title>Node36&#45;&gt;Node29</title>
<path fill="none" stroke="midnightblue" d="M1817.55,-190.399C1846.93,-180.054 1886.34,-166.18 1913.83,-156.503"/>
<polygon fill="midnightblue" stroke="midnightblue" points="1915.1,-159.764 1923.37,-153.142 1912.78,-153.161 1915.1,-159.764"/>
</g>
<!-- Node37 -->
<g id="node37" class="node"><title>Node37</title>
<polygon fill="none" stroke="#bfbfbf" points="1627.5,-134.5 1627.5,-153.5 1671.5,-153.5 1671.5,-134.5 1627.5,-134.5"/>
<text text-anchor="middle" x="1649.5" y="-141.5" font-family="Helvetica,sans-Serif" font-size="10.00">cmath</text>
</g>
<!-- Node36&#45;&gt;Node37 -->
<g id="edge43" class="edge"><title>Node36&#45;&gt;Node37</title>
<path fill="none" stroke="midnightblue" d="M1747.17,-190.399C1725.98,-180.55 1697.91,-167.501 1677.3,-157.922"/>
<polygon fill="midnightblue" stroke="midnightblue" points="1678.67,-154.699 1668.13,-153.658 1675.72,-161.047 1678.67,-154.699"/>
</g>
<!-- Node38 -->
<g id="node38" class="node"><title>Node38</title>
<g id="a_node38"><a xlink:href="../../d4/dc6/LHCConstants_8h.html" target="_top" xlink:title="Header to collect LHC related constants. ">
<polygon fill="none" stroke="black" points="1689.5,-134.5 1689.5,-153.5 1867.5,-153.5 1867.5,-134.5 1689.5,-134.5"/>
<text text-anchor="middle" x="1778.5" y="-141.5" font-family="Helvetica,sans-Serif" font-size="10.00">CommonConstants/LHCConstants.h</text>
</a>
</g>
</g>
<!-- Node36&#45;&gt;Node38 -->
<g id="edge45" class="edge"><title>Node36&#45;&gt;Node38</title>
<path fill="none" stroke="midnightblue" d="M1777.74,-190.399C1777.87,-182.466 1778.04,-172.458 1778.18,-163.858"/>
<polygon fill="midnightblue" stroke="midnightblue" points="1781.69,-163.715 1778.35,-153.658 1774.69,-163.598 1781.69,-163.715"/>
</g>
<!-- Node39&#45;&gt;Node25 -->
<g id="edge47" class="edge"><title>Node39&#45;&gt;Node25</title>
<path fill="none" stroke="midnightblue" d="M1459.31,-195.975C1441.84,-186.166 1412.92,-169.935 1392.42,-158.425"/>
<polygon fill="midnightblue" stroke="midnightblue" points="1394.09,-155.352 1383.66,-153.509 1390.67,-161.456 1394.09,-155.352"/>
</g>
<!-- Node41&#45;&gt;Node22 -->
<g id="edge54" class="edge"><title>Node41&#45;&gt;Node22</title>
<path fill="none" stroke="midnightblue" d="M2460.41,-201.8C2318.15,-194.961 1936.45,-175.933 1618.5,-154 1593.37,-152.266 1565.03,-149.939 1543.42,-148.086"/>
<polygon fill="midnightblue" stroke="midnightblue" points="1543.65,-144.593 1533.39,-147.219 1543.05,-151.567 1543.65,-144.593"/>
</g>
<!-- Node41&#45;&gt;Node29 -->
<g id="edge53" class="edge"><title>Node41&#45;&gt;Node29</title>
<path fill="none" stroke="midnightblue" d="M2460.38,-202.539C2363.26,-198.465 2159.74,-186.727 1979.72,-153.912"/>
<polygon fill="midnightblue" stroke="midnightblue" points="1980.27,-150.456 1969.8,-152.08 1979,-157.34 1980.27,-150.456"/>
</g>
<!-- Node41&#45;&gt;Node32 -->
<g id="edge57" class="edge"><title>Node41&#45;&gt;Node32</title>
<path fill="none" stroke="midnightblue" d="M2483.37,-190.399C2459.21,-180.416 2427.1,-167.147 2403.83,-157.534"/>
<polygon fill="midnightblue" stroke="midnightblue" points="2405.03,-154.242 2394.45,-153.658 2402.36,-160.711 2405.03,-154.242"/>
</g>
<!-- Node42 -->
<g id="node42" class="node"><title>Node42</title>
<polygon fill="none" stroke="#bfbfbf" points="2658.5,-134.5 2658.5,-153.5 2720.5,-153.5 2720.5,-134.5 2658.5,-134.5"/>
<text text-anchor="middle" x="2689.5" y="-141.5" font-family="Helvetica,sans-Serif" font-size="10.00">TNamed.h</text>
</g>
<!-- Node41&#45;&gt;Node42 -->
<g id="edge52" class="edge"><title>Node41&#45;&gt;Node42</title>
<path fill="none" stroke="midnightblue" d="M2558.26,-190.399C2587.72,-180.207 2627.09,-166.59 2655,-156.935"/>
<polygon fill="midnightblue" stroke="midnightblue" points="2656.42,-160.148 2664.72,-153.571 2654.13,-153.533 2656.42,-160.148"/>
</g>
<!-- Node43 -->
<g id="node43" class="node"><title>Node43</title>
<polygon fill="none" stroke="#bfbfbf" points="2739,-134.5 2739,-153.5 2798,-153.5 2798,-134.5 2739,-134.5"/>
<text text-anchor="middle" x="2768.5" y="-141.5" font-family="Helvetica,sans-Serif" font-size="10.00">stdexcept</text>
</g>
<!-- Node41&#45;&gt;Node43 -->
<g id="edge55" class="edge"><title>Node41&#45;&gt;Node43</title>
<path fill="none" stroke="midnightblue" d="M2574.77,-190.924C2621.95,-179.739 2687.63,-164.171 2729.09,-154.342"/>
<polygon fill="midnightblue" stroke="midnightblue" points="2729.91,-157.745 2738.83,-152.033 2728.29,-150.934 2729.91,-157.745"/>
</g>
<!-- Node44 -->
<g id="node44" class="node"><title>Node44</title>
<polygon fill="none" stroke="#bfbfbf" points="2461,-134.5 2461,-153.5 2506,-153.5 2506,-134.5 2461,-134.5"/>
<text text-anchor="middle" x="2483.5" y="-141.5" font-family="Helvetica,sans-Serif" font-size="10.00">gsl/gsl</text>
</g>
<!-- Node41&#45;&gt;Node44 -->
<g id="edge56" class="edge"><title>Node41&#45;&gt;Node44</title>
<path fill="none" stroke="midnightblue" d="M2509.44,-190.399C2504.65,-182.021 2498.54,-171.327 2493.46,-162.423"/>
<polygon fill="midnightblue" stroke="midnightblue" points="2496.45,-160.604 2488.45,-153.658 2490.37,-164.077 2496.45,-160.604"/>
</g>
<!-- Node45 -->
<g id="node45" class="node"><title>Node45</title>
<polygon fill="none" stroke="#bfbfbf" points="2524.5,-134.5 2524.5,-153.5 2570.5,-153.5 2570.5,-134.5 2524.5,-134.5"/>
<text text-anchor="middle" x="2547.5" y="-141.5" font-family="Helvetica,sans-Serif" font-size="10.00">cstring</text>
</g>
<!-- Node41&#45;&gt;Node45 -->
<g id="edge58" class="edge"><title>Node41&#45;&gt;Node45</title>
<path fill="none" stroke="midnightblue" d="M2524.61,-190.399C2528.79,-182.11 2534.11,-171.554 2538.57,-162.708"/>
<polygon fill="midnightblue" stroke="midnightblue" points="2541.76,-164.163 2543.13,-153.658 2535.51,-161.011 2541.76,-164.163"/>
</g>
<!-- Node46 -->
<g id="node46" class="node"><title>Node46</title>
<polygon fill="none" stroke="#bfbfbf" points="2588.5,-134.5 2588.5,-153.5 2640.5,-153.5 2640.5,-134.5 2588.5,-134.5"/>
<text text-anchor="middle" x="2614.5" y="-141.5" font-family="Helvetica,sans-Serif" font-size="10.00">memory</text>
</g>
<!-- Node41&#45;&gt;Node46 -->
<g id="edge59" class="edge"><title>Node41&#45;&gt;Node46</title>
<path fill="none" stroke="midnightblue" d="M2540.49,-190.399C2555.89,-180.951 2576.09,-168.559 2591.5,-159.109"/>
<polygon fill="midnightblue" stroke="midnightblue" points="2593.69,-161.87 2600.39,-153.658 2590.03,-155.903 2593.69,-161.87"/>
</g>
<!-- Node41&#45;&gt;Node47 -->
<g id="edge60" class="edge"><title>Node41&#45;&gt;Node47</title>
<path fill="none" stroke="midnightblue" d="M2574.81,-192.598C2579.44,-191.697 2584.05,-190.821 2588.5,-190 2682.38,-172.704 2709.56,-175.576 2806.33,-154.044"/>
<polygon fill="midnightblue" stroke="midnightblue" points="2807.25,-157.425 2816.23,-151.81 2805.71,-150.597 2807.25,-157.425"/>
</g>
</g>
</svg>
