<?xml version="1.0" encoding="UTF-8" standalone="no"?>
<!DOCTYPE svg PUBLIC "-//W3C//DTD SVG 1.1//EN"
 "http://www.w3.org/Graphics/SVG/1.1/DTD/svg11.dtd">
<!-- Generated by graphviz version 2.38.0 (20140413.2041)
 -->
<!-- Title: GPUCA_NAMESPACE::gpu::deprecated::ClusterNative Pages: 1 -->
<svg width="300pt" height="204pt"
 viewBox="0.00 0.00 300.00 204.00" xmlns="http://www.w3.org/2000/svg" xmlns:xlink="http://www.w3.org/1999/xlink">
<g id="graph0" class="graph" transform="scale(1 1) rotate(0) translate(4 200)">
<title>GPUCA_NAMESPACE::gpu::deprecated::ClusterNative</title>
<!-- Node1 -->
<g id="node1" class="node"><title>Node1</title>
<polygon fill="#bfbfbf" stroke="black" points="28.5,-0.5 28.5,-68.5 171.5,-68.5 171.5,-0.5 28.5,-0.5"/>
<text text-anchor="start" x="36.5" y="-56.5" font-family="Helvetica,sans-Serif" font-size="10.00">GPUCA_NAMESPACE::gpu</text>
<text text-anchor="middle" x="100" y="-45.5" font-family="Helvetica,sans-Serif" font-size="10.00">::deprecated::ClusterNative</text>
<polyline fill="none" stroke="black" points="28.5,-38.5 171.5,-38.5 "/>
<text text-anchor="middle" x="100" y="-26.5" font-family="Helvetica,sans-Serif" font-size="10.00"> </text>
<polyline fill="none" stroke="black" points="28.5,-19.5 171.5,-19.5 "/>
<text text-anchor="middle" x="100" y="-7.5" font-family="Helvetica,sans-Serif" font-size="10.00"> </text>
</g>
<!-- Node2 -->
<g id="node2" class="node"><title>Node2</title>
<polygon fill="none" stroke="#bfbfbf" points="0,-138.5 0,-195.5 44,-195.5 44,-138.5 0,-138.5"/>
<text text-anchor="middle" x="22" y="-183.5" font-family="Helvetica,sans-Serif" font-size="10.00">ushort</text>
<polyline fill="none" stroke="#bfbfbf" points="0,-176.5 44,-176.5 "/>
<text text-anchor="middle" x="22" y="-164.5" font-family="Helvetica,sans-Serif" font-size="10.00"> </text>
<polyline fill="none" stroke="#bfbfbf" points="0,-157.5 44,-157.5 "/>
<text text-anchor="middle" x="22" y="-145.5" font-family="Helvetica,sans-Serif" font-size="10.00"> </text>
</g>
<!-- Node2&#45;&gt;Node1 -->
<g id="edge1" class="edge"><title>Node2&#45;&gt;Node1</title>
<path fill="none" stroke="#404040" d="M24.4281,-138.455C26.8217,-122.503 31.5725,-102.565 41,-87 42.9107,-83.8455 45.0788,-80.7813 47.4284,-77.8237"/>
<polygon fill="none" stroke="#404040" points="47.5001,-77.7428 48.4846,-70.5991 55.4573,-68.7603 54.4728,-75.9039 47.5001,-77.7428"/>
<text text-anchor="middle" x="68.5" y="-112" font-family="Helvetica,sans-Serif" font-size="10.00"> +qtot</text>
<text text-anchor="middle" x="68.5" y="-101" font-family="Helvetica,sans-Serif" font-size="10.00">+qmax</text>
<text text-anchor="middle" x="68.5" y="-90" font-family="Helvetica,sans-Serif" font-size="10.00">+padPacked</text>
</g>
<!-- Node3 -->
<g id="node3" class="node"><title>Node3</title>
<polygon fill="none" stroke="#bfbfbf" points="84,-138.5 84,-195.5 116,-195.5 116,-138.5 84,-138.5"/>
<text text-anchor="middle" x="100" y="-183.5" font-family="Helvetica,sans-Serif" font-size="10.00">uint</text>
<polyline fill="none" stroke="#bfbfbf" points="84,-176.5 116,-176.5 "/>
<text text-anchor="middle" x="100" y="-164.5" font-family="Helvetica,sans-Serif" font-size="10.00"> </text>
<polyline fill="none" stroke="#bfbfbf" points="84,-157.5 116,-157.5 "/>
<text text-anchor="middle" x="100" y="-145.5" font-family="Helvetica,sans-Serif" font-size="10.00"> </text>
</g>
<!-- Node3&#45;&gt;Node1 -->
<g id="edge2" class="edge"><title>Node3&#45;&gt;Node1</title>
<path fill="none" stroke="#404040" d="M100,-138.324C100,-121.63 100,-99.9589 100,-80.8185"/>
<polygon fill="none" stroke="#404040" points="100,-80.6838 96,-74.6838 100,-68.6838 104,-74.6838 100,-80.6838"/>
<text text-anchor="middle" x="142.5" y="-101" font-family="Helvetica,sans-Serif" font-size="10.00"> +timeFlagsPacked</text>
</g>
<!-- Node4 -->
<g id="node4" class="node"><title>Node4</title>
<polygon fill="none" stroke="#bfbfbf" points="180,-138.5 180,-195.5 236,-195.5 236,-138.5 180,-138.5"/>
<text text-anchor="middle" x="208" y="-183.5" font-family="Helvetica,sans-Serif" font-size="10.00">unsigned</text>
<polyline fill="none" stroke="#bfbfbf" points="180,-176.5 236,-176.5 "/>
<text text-anchor="middle" x="208" y="-164.5" font-family="Helvetica,sans-Serif" font-size="10.00"> </text>
<polyline fill="none" stroke="#bfbfbf" points="180,-157.5 236,-157.5 "/>
<text text-anchor="middle" x="208" y="-145.5" font-family="Helvetica,sans-Serif" font-size="10.00"> </text>
</g>
<!-- Node4&#45;&gt;Node1 -->
<g id="edge3" class="edge"><title>Node4&#45;&gt;Node1</title>
<path fill="none" stroke="#404040" d="M205.475,-138.497C202.804,-122.171 197.308,-101.832 186,-87 183.253,-83.3975 180.176,-79.9951 176.864,-76.7894"/>
<polygon fill="none" stroke="#404040" points="176.675,-76.6261 169.522,-75.7144 167.613,-68.7607 174.766,-69.6725 176.675,-76.6261"/>
<text text-anchor="middle" x="246.5" y="-106.5" font-family="Helvetica,sans-Serif" font-size="10.00"> +sigmaTimePacked</text>
<text text-anchor="middle" x="246.5" y="-95.5" font-family="Helvetica,sans-Serif" font-size="10.00">+sigmaPadPacked</text>
</g>
</g>
</svg>
