<?xml version="1.0" encoding="UTF-8" standalone="no"?>
<!DOCTYPE svg PUBLIC "-//W3C//DTD SVG 1.1//EN"
 "http://www.w3.org/Graphics/SVG/1.1/DTD/svg11.dtd">
<!-- Generated by graphviz version 2.38.0 (20140413.2041)
 -->
<!-- Title: /home/travis/build/AliceO2Group/AliceO2/Detectors/TPC/reconstruction/include/TPCReconstruction/RawReaderCRU.h Pages: 1 -->
<svg width="1431pt" height="486pt"
 viewBox="0.00 0.00 1431.00 486.00" xmlns="http://www.w3.org/2000/svg" xmlns:xlink="http://www.w3.org/1999/xlink">
<g id="graph0" class="graph" transform="scale(1 1) rotate(0) translate(4 482)">
<title>/home/travis/build/AliceO2Group/AliceO2/Detectors/TPC/reconstruction/include/TPCReconstruction/RawReaderCRU.h</title>
<!-- Node1 -->
<g id="node1" class="node"><title>Node1</title>
<polygon fill="#bfbfbf" stroke="black" points="548,-414.5 548,-477.5 698,-477.5 698,-414.5 548,-414.5"/>
<text text-anchor="start" x="556" y="-465.5" font-family="Helvetica,sans-Serif" font-size="10.00">/home/travis/build</text>
<text text-anchor="start" x="556" y="-454.5" font-family="Helvetica,sans-Serif" font-size="10.00">/AliceO2Group/AliceO2</text>
<text text-anchor="start" x="556" y="-443.5" font-family="Helvetica,sans-Serif" font-size="10.00">/Detectors/TPC/reconstruction</text>
<text text-anchor="start" x="556" y="-432.5" font-family="Helvetica,sans-Serif" font-size="10.00">/include/TPCReconstruction</text>
<text text-anchor="middle" x="623" y="-421.5" font-family="Helvetica,sans-Serif" font-size="10.00">/RawReaderCRU.h</text>
</g>
<!-- Node2 -->
<g id="node2" class="node"><title>Node2</title>
<polygon fill="none" stroke="#bfbfbf" points="0,-358.5 0,-377.5 54,-377.5 54,-358.5 0,-358.5"/>
<text text-anchor="middle" x="27" y="-365.5" font-family="Helvetica,sans-Serif" font-size="10.00">iostream</text>
</g>
<!-- Node1&#45;&gt;Node2 -->
<g id="edge1" class="edge"><title>Node1&#45;&gt;Node2</title>
<path fill="none" stroke="midnightblue" d="M547.82,-439.034C441.858,-429.954 242.5,-410.406 63.8842,-377.954"/>
<polygon fill="midnightblue" stroke="midnightblue" points="64.5144,-374.511 54.047,-376.15 63.2514,-381.396 64.5144,-374.511"/>
</g>
<!-- Node3 -->
<g id="node3" class="node"><title>Node3</title>
<polygon fill="none" stroke="#bfbfbf" points="72,-358.5 72,-377.5 122,-377.5 122,-358.5 72,-358.5"/>
<text text-anchor="middle" x="97" y="-365.5" font-family="Helvetica,sans-Serif" font-size="10.00">fstream</text>
</g>
<!-- Node1&#45;&gt;Node3 -->
<g id="edge2" class="edge"><title>Node1&#45;&gt;Node3</title>
<path fill="none" stroke="midnightblue" d="M547.996,-436.807C452.071,-425.842 281.005,-404.65 136,-378 134.731,-377.767 133.442,-377.52 132.141,-377.263"/>
<polygon fill="midnightblue" stroke="midnightblue" points="132.613,-373.786 122.106,-375.144 131.167,-380.635 132.613,-373.786"/>
</g>
<!-- Node4 -->
<g id="node4" class="node"><title>Node4</title>
<polygon fill="none" stroke="#bfbfbf" points="176,-302.5 176,-321.5 222,-321.5 222,-302.5 176,-302.5"/>
<text text-anchor="middle" x="199" y="-309.5" font-family="Helvetica,sans-Serif" font-size="10.00">cstdint</text>
</g>
<!-- Node1&#45;&gt;Node4 -->
<g id="edge3" class="edge"><title>Node1&#45;&gt;Node4</title>
<path fill="none" stroke="midnightblue" d="M547.777,-445.26C431.642,-443.879 217.028,-433.636 169,-378 156.644,-363.686 169.57,-343.429 182.092,-329.347"/>
<polygon fill="midnightblue" stroke="midnightblue" points="184.86,-331.516 189.224,-321.862 179.792,-326.687 184.86,-331.516"/>
</g>
<!-- Node5 -->
<g id="node5" class="node"><title>Node5</title>
<polygon fill="none" stroke="#bfbfbf" points="338,-358.5 338,-377.5 388,-377.5 388,-358.5 338,-358.5"/>
<text text-anchor="middle" x="363" y="-365.5" font-family="Helvetica,sans-Serif" font-size="10.00">iomanip</text>
</g>
<!-- Node1&#45;&gt;Node5 -->
<g id="edge4" class="edge"><title>Node1&#45;&gt;Node5</title>
<path fill="none" stroke="midnightblue" d="M547.797,-423.018C498.372,-408.57 436.013,-390.342 397.846,-379.186"/>
<polygon fill="midnightblue" stroke="midnightblue" points="398.8,-375.818 388.22,-376.372 396.836,-382.537 398.8,-375.818"/>
</g>
<!-- Node6 -->
<g id="node6" class="node"><title>Node6</title>
<polygon fill="none" stroke="#bfbfbf" points="406,-358.5 406,-377.5 450,-377.5 450,-358.5 406,-358.5"/>
<text text-anchor="middle" x="428" y="-365.5" font-family="Helvetica,sans-Serif" font-size="10.00">vector</text>
</g>
<!-- Node1&#45;&gt;Node6 -->
<g id="edge5" class="edge"><title>Node1&#45;&gt;Node6</title>
<path fill="none" stroke="midnightblue" d="M547.887,-415.725C517.282,-403.797 483.567,-390.657 459.707,-381.358"/>
<polygon fill="midnightblue" stroke="midnightblue" points="460.711,-377.992 450.122,-377.622 458.169,-384.514 460.711,-377.992"/>
</g>
<!-- Node7 -->
<g id="node7" class="node"><title>Node7</title>
<polygon fill="none" stroke="#bfbfbf" points="468.5,-358.5 468.5,-377.5 503.5,-377.5 503.5,-358.5 468.5,-358.5"/>
<text text-anchor="middle" x="486" y="-365.5" font-family="Helvetica,sans-Serif" font-size="10.00">map</text>
</g>
<!-- Node1&#45;&gt;Node7 -->
<g id="edge6" class="edge"><title>Node1&#45;&gt;Node7</title>
<path fill="none" stroke="midnightblue" d="M567.672,-414.307C547.869,-403.322 526.54,-391.489 510.646,-382.672"/>
<polygon fill="midnightblue" stroke="midnightblue" points="511.957,-379.397 501.515,-377.607 508.561,-385.518 511.957,-379.397"/>
</g>
<!-- Node8 -->
<g id="node8" class="node"><title>Node8</title>
<polygon fill="none" stroke="#bfbfbf" points="522,-358.5 522,-377.5 560,-377.5 560,-358.5 522,-358.5"/>
<text text-anchor="middle" x="541" y="-365.5" font-family="Helvetica,sans-Serif" font-size="10.00">array</text>
</g>
<!-- Node1&#45;&gt;Node8 -->
<g id="edge7" class="edge"><title>Node1&#45;&gt;Node8</title>
<path fill="none" stroke="midnightblue" d="M589.647,-414.088C578.673,-403.917 566.941,-393.043 557.748,-384.523"/>
<polygon fill="midnightblue" stroke="midnightblue" points="560.12,-381.949 550.406,-377.718 555.362,-387.083 560.12,-381.949"/>
</g>
<!-- Node9 -->
<g id="node9" class="node"><title>Node9</title>
<polygon fill="none" stroke="#bfbfbf" points="578.5,-358.5 578.5,-377.5 619.5,-377.5 619.5,-358.5 578.5,-358.5"/>
<text text-anchor="middle" x="599" y="-365.5" font-family="Helvetica,sans-Serif" font-size="10.00">bitset</text>
</g>
<!-- Node1&#45;&gt;Node9 -->
<g id="edge8" class="edge"><title>Node1&#45;&gt;Node9</title>
<path fill="none" stroke="midnightblue" d="M613.238,-414.088C610.383,-405.047 607.353,-395.451 604.825,-387.446"/>
<polygon fill="midnightblue" stroke="midnightblue" points="608.102,-386.2 601.753,-377.718 601.427,-388.308 608.102,-386.2"/>
</g>
<!-- Node10 -->
<g id="node10" class="node"><title>Node10</title>
<polygon fill="none" stroke="#bfbfbf" points="694,-134.5 694,-153.5 738,-153.5 738,-134.5 694,-134.5"/>
<text text-anchor="middle" x="716" y="-141.5" font-family="Helvetica,sans-Serif" font-size="10.00">cmath</text>
</g>
<!-- Node1&#45;&gt;Node10 -->
<g id="edge9" class="edge"><title>Node1&#45;&gt;Node10</title>
<path fill="none" stroke="midnightblue" d="M625.489,-414.074C630.672,-354.885 643.924,-228.078 665,-190 671.701,-177.893 682.954,-167.441 693.187,-159.665"/>
<polygon fill="midnightblue" stroke="midnightblue" points="695.317,-162.445 701.421,-153.786 691.249,-156.749 695.317,-162.445"/>
</g>
<!-- Node11 -->
<g id="node11" class="node"><title>Node11</title>
<polygon fill="none" stroke="#bfbfbf" points="972,-358.5 972,-377.5 1038,-377.5 1038,-358.5 972,-358.5"/>
<text text-anchor="middle" x="1005" y="-365.5" font-family="Helvetica,sans-Serif" font-size="10.00">string_view</text>
</g>
<!-- Node1&#45;&gt;Node11 -->
<g id="edge10" class="edge"><title>Node1&#45;&gt;Node11</title>
<path fill="none" stroke="midnightblue" d="M698.015,-430.076C776.64,-414.433 897.466,-390.394 961.569,-377.641"/>
<polygon fill="midnightblue" stroke="midnightblue" points="962.606,-381.003 971.731,-375.619 961.24,-374.138 962.606,-381.003"/>
</g>
<!-- Node12 -->
<g id="node12" class="node"><title>Node12</title>
<polygon fill="none" stroke="#bfbfbf" points="1056,-358.5 1056,-377.5 1112,-377.5 1112,-358.5 1056,-358.5"/>
<text text-anchor="middle" x="1084" y="-365.5" font-family="Helvetica,sans-Serif" font-size="10.00">algorithm</text>
</g>
<!-- Node1&#45;&gt;Node12 -->
<g id="edge11" class="edge"><title>Node1&#45;&gt;Node12</title>
<path fill="none" stroke="midnightblue" d="M698.006,-435.041C780.843,-423.614 918.316,-403.391 1045.83,-378.105"/>
<polygon fill="midnightblue" stroke="midnightblue" points="1046.65,-381.51 1055.77,-376.119 1045.28,-374.645 1046.65,-381.51"/>
</g>
<!-- Node13 -->
<g id="node13" class="node"><title>Node13</title>
<polygon fill="none" stroke="#bfbfbf" points="1130.5,-358.5 1130.5,-377.5 1189.5,-377.5 1189.5,-358.5 1130.5,-358.5"/>
<text text-anchor="middle" x="1160" y="-365.5" font-family="Helvetica,sans-Serif" font-size="10.00">functional</text>
</g>
<!-- Node1&#45;&gt;Node13 -->
<g id="edge12" class="edge"><title>Node1&#45;&gt;Node13</title>
<path fill="none" stroke="midnightblue" d="M698.009,-437.112C793.676,-426.558 964.35,-406.08 1120.02,-378.025"/>
<polygon fill="midnightblue" stroke="midnightblue" points="1121.04,-381.397 1130.25,-376.166 1119.78,-374.51 1121.04,-381.397"/>
</g>
<!-- Node14 -->
<g id="node14" class="node"><title>Node14</title>
<polygon fill="none" stroke="#bfbfbf" points="1207.5,-358.5 1207.5,-377.5 1260.5,-377.5 1260.5,-358.5 1207.5,-358.5"/>
<text text-anchor="middle" x="1234" y="-365.5" font-family="Helvetica,sans-Serif" font-size="10.00">gsl/span</text>
</g>
<!-- Node1&#45;&gt;Node14 -->
<g id="edge13" class="edge"><title>Node1&#45;&gt;Node14</title>
<path fill="none" stroke="midnightblue" d="M698.348,-439.34C806.712,-430.508 1012.87,-411.126 1197.46,-377.869"/>
<polygon fill="midnightblue" stroke="midnightblue" points="1198.13,-381.303 1207.35,-376.07 1196.88,-374.416 1198.13,-381.303"/>
</g>
<!-- Node15 -->
<g id="node15" class="node"><title>Node15</title>
<g id="a_node15"><a xlink:href="../../d7/df8/Types_8h.html" target="_top" xlink:title="MemoryResources/Types.h">
<polygon fill="none" stroke="black" points="1278.5,-358.5 1278.5,-377.5 1415.5,-377.5 1415.5,-358.5 1278.5,-358.5"/>
<text text-anchor="middle" x="1347" y="-365.5" font-family="Helvetica,sans-Serif" font-size="10.00">MemoryResources/Types.h</text>
</a>
</g>
</g>
<!-- Node1&#45;&gt;Node15 -->
<g id="edge14" class="edge"><title>Node1&#45;&gt;Node15</title>
<path fill="none" stroke="midnightblue" d="M698.124,-437.492C816.724,-425.577 1054.89,-401.394 1267.97,-378.102"/>
<polygon fill="midnightblue" stroke="midnightblue" points="1268.54,-381.561 1278.1,-376.993 1267.78,-374.602 1268.54,-381.561"/>
</g>
<!-- Node16 -->
<g id="node16" class="node"><title>Node16</title>
<g id="a_node16"><a xlink:href="../../df/d26/CRU_8h.html" target="_top" xlink:title="TPCBase/CRU.h">
<polygon fill="none" stroke="black" points="676.5,-358.5 676.5,-377.5 769.5,-377.5 769.5,-358.5 676.5,-358.5"/>
<text text-anchor="middle" x="723" y="-365.5" font-family="Helvetica,sans-Serif" font-size="10.00">TPCBase/CRU.h</text>
</a>
</g>
</g>
<!-- Node1&#45;&gt;Node16 -->
<g id="edge15" class="edge"><title>Node1&#45;&gt;Node16</title>
<path fill="none" stroke="midnightblue" d="M663.386,-414.307C677.208,-403.802 692.05,-392.522 703.466,-383.846"/>
<polygon fill="midnightblue" stroke="midnightblue" points="705.612,-386.611 711.455,-377.774 701.376,-381.038 705.612,-386.611"/>
</g>
<!-- Node33 -->
<g id="node33" class="node"><title>Node33</title>
<g id="a_node33"><a xlink:href="../../d4/d78/DataFormats_2Headers_2include_2Headers_2RAWDataHeader_8h.html" target="_top" xlink:title="Headers/RAWDataHeader.h">
<polygon fill="none" stroke="black" points="178.5,-358.5 178.5,-377.5 319.5,-377.5 319.5,-358.5 178.5,-358.5"/>
<text text-anchor="middle" x="249" y="-365.5" font-family="Helvetica,sans-Serif" font-size="10.00">Headers/RAWDataHeader.h</text>
</a>
</g>
</g>
<!-- Node1&#45;&gt;Node33 -->
<g id="edge37" class="edge"><title>Node1&#45;&gt;Node33</title>
<path fill="none" stroke="midnightblue" d="M547.765,-429.712C474.469,-414.817 364.987,-392.57 300.904,-379.547"/>
<polygon fill="midnightblue" stroke="midnightblue" points="301.518,-376.101 291.021,-377.539 300.124,-382.96 301.518,-376.101"/>
</g>
<!-- Node34 -->
<g id="node34" class="node"><title>Node34</title>
<g id="a_node34"><a xlink:href="../../de/d41/PadPos_8h.html" target="_top" xlink:title="TPCBase/PadPos.h">
<polygon fill="none" stroke="black" points="939.5,-302.5 939.5,-321.5 1044.5,-321.5 1044.5,-302.5 939.5,-302.5"/>
<text text-anchor="middle" x="992" y="-309.5" font-family="Helvetica,sans-Serif" font-size="10.00">TPCBase/PadPos.h</text>
</a>
</g>
</g>
<!-- Node1&#45;&gt;Node34 -->
<g id="edge39" class="edge"><title>Node1&#45;&gt;Node34</title>
<path fill="none" stroke="midnightblue" d="M698.026,-439.813C761.674,-432.815 853.729,-416.408 925,-378 947.182,-366.046 967.135,-344.635 979.383,-329.664"/>
<polygon fill="midnightblue" stroke="midnightblue" points="982.211,-331.731 985.663,-321.714 976.718,-327.392 982.211,-331.731"/>
</g>
<!-- Node35 -->
<g id="node35" class="node"><title>Node35</title>
<g id="a_node35"><a xlink:href="../../da/d61/PadROCPos_8h.html" target="_top" xlink:title="TPCBase/PadROCPos.h">
<polygon fill="none" stroke="black" points="788,-358.5 788,-377.5 916,-377.5 916,-358.5 788,-358.5"/>
<text text-anchor="middle" x="852" y="-365.5" font-family="Helvetica,sans-Serif" font-size="10.00">TPCBase/PadROCPos.h</text>
</a>
</g>
</g>
<!-- Node1&#45;&gt;Node35 -->
<g id="edge40" class="edge"><title>Node1&#45;&gt;Node35</title>
<path fill="none" stroke="midnightblue" d="M698.3,-420.009C738.177,-406.775 785.268,-391.147 816.718,-380.709"/>
<polygon fill="midnightblue" stroke="midnightblue" points="817.963,-383.984 826.351,-377.512 815.758,-377.34 817.963,-383.984"/>
</g>
<!-- Node17 -->
<g id="node17" class="node"><title>Node17</title>
<g id="a_node17"><a xlink:href="../../d1/d73/Defs_8h.html" target="_top" xlink:title="Common definitions for 2D coordinates. ">
<polygon fill="none" stroke="black" points="842,-190.5 842,-209.5 968,-209.5 968,-190.5 842,-190.5"/>
<text text-anchor="middle" x="905" y="-197.5" font-family="Helvetica,sans-Serif" font-size="10.00">DataFormatsTPC/Defs.h</text>
</a>
</g>
</g>
<!-- Node16&#45;&gt;Node17 -->
<g id="edge16" class="edge"><title>Node16&#45;&gt;Node17</title>
<path fill="none" stroke="midnightblue" d="M729.936,-358.163C740.251,-345.247 760.515,-320.714 780,-302 814.74,-268.634 859.474,-234.336 884.922,-215.538"/>
<polygon fill="midnightblue" stroke="midnightblue" points="887.077,-218.299 893.071,-209.563 882.937,-212.654 887.077,-218.299"/>
</g>
<!-- Node30 -->
<g id="node30" class="node"><title>Node30</title>
<g id="a_node30"><a xlink:href="../../d3/dd6/Sector_8h.html" target="_top" xlink:title="TPCBase/Sector.h">
<polygon fill="none" stroke="black" points="674.5,-246.5 674.5,-265.5 773.5,-265.5 773.5,-246.5 674.5,-246.5"/>
<text text-anchor="middle" x="724" y="-253.5" font-family="Helvetica,sans-Serif" font-size="10.00">TPCBase/Sector.h</text>
</a>
</g>
</g>
<!-- Node16&#45;&gt;Node30 -->
<g id="edge31" class="edge"><title>Node16&#45;&gt;Node30</title>
<path fill="none" stroke="midnightblue" d="M723.078,-358.368C723.24,-340.617 723.612,-299.666 723.831,-275.597"/>
<polygon fill="midnightblue" stroke="midnightblue" points="727.331,-275.623 723.922,-265.591 720.331,-275.559 727.331,-275.623"/>
</g>
<!-- Node32 -->
<g id="node32" class="node"><title>Node32</title>
<g id="a_node32"><a xlink:href="../../dc/d14/ROC_8h.html" target="_top" xlink:title="TPCBase/ROC.h">
<polygon fill="none" stroke="black" points="789.5,-302.5 789.5,-321.5 882.5,-321.5 882.5,-302.5 789.5,-302.5"/>
<text text-anchor="middle" x="836" y="-309.5" font-family="Helvetica,sans-Serif" font-size="10.00">TPCBase/ROC.h</text>
</a>
</g>
</g>
<!-- Node16&#45;&gt;Node32 -->
<g id="edge34" class="edge"><title>Node16&#45;&gt;Node32</title>
<path fill="none" stroke="midnightblue" d="M740.905,-358.444C759.254,-349.675 788.005,-335.935 809.094,-325.858"/>
<polygon fill="midnightblue" stroke="midnightblue" points="810.665,-328.986 818.179,-321.516 807.647,-322.67 810.665,-328.986"/>
</g>
<!-- Node17&#45;&gt;Node10 -->
<g id="edge17" class="edge"><title>Node17&#45;&gt;Node10</title>
<path fill="none" stroke="midnightblue" d="M875.052,-190.444C840.379,-180.537 783.496,-164.285 747.981,-154.137"/>
<polygon fill="midnightblue" stroke="midnightblue" points="748.707,-150.705 738.13,-151.323 746.784,-157.436 748.707,-150.705"/>
</g>
<!-- Node18 -->
<g id="node18" class="node"><title>Node18</title>
<g id="a_node18"><a xlink:href="../../d2/dd0/Cartesian2D_8h.html" target="_top" xlink:title="MathUtils/Cartesian2D.h">
<polygon fill="none" stroke="black" points="1181.5,-73 1181.5,-92 1306.5,-92 1306.5,-73 1181.5,-73"/>
<text text-anchor="middle" x="1244" y="-80" font-family="Helvetica,sans-Serif" font-size="10.00">MathUtils/Cartesian2D.h</text>
</a>
</g>
</g>
<!-- Node17&#45;&gt;Node18 -->
<g id="edge18" class="edge"><title>Node17&#45;&gt;Node18</title>
<path fill="none" stroke="midnightblue" d="M930.203,-190.413C990.02,-170.033 1140.66,-118.709 1209.14,-95.3759"/>
<polygon fill="midnightblue" stroke="midnightblue" points="1210.29,-98.6815 1218.63,-92.1434 1208.04,-92.0555 1210.29,-98.6815"/>
</g>
<!-- Node21 -->
<g id="node21" class="node"><title>Node21</title>
<g id="a_node21"><a xlink:href="../../dd/d76/Cartesian3D_8h.html" target="_top" xlink:title="MathUtils/Cartesian3D.h">
<polygon fill="none" stroke="black" points="788.5,-134.5 788.5,-153.5 913.5,-153.5 913.5,-134.5 788.5,-134.5"/>
<text text-anchor="middle" x="851" y="-141.5" font-family="Helvetica,sans-Serif" font-size="10.00">MathUtils/Cartesian3D.h</text>
</a>
</g>
</g>
<!-- Node17&#45;&gt;Node21 -->
<g id="edge21" class="edge"><title>Node17&#45;&gt;Node21</title>
<path fill="none" stroke="midnightblue" d="M896.083,-190.083C888.22,-182.22 876.569,-170.569 867.081,-161.081"/>
<polygon fill="midnightblue" stroke="midnightblue" points="869.297,-158.347 859.751,-153.751 864.347,-163.297 869.297,-158.347"/>
</g>
<!-- Node19 -->
<g id="node19" class="node"><title>Node19</title>
<polygon fill="none" stroke="#bfbfbf" points="1077.5,-0.5 1077.5,-30.5 1228.5,-30.5 1228.5,-0.5 1077.5,-0.5"/>
<text text-anchor="start" x="1085.5" y="-18.5" font-family="Helvetica,sans-Serif" font-size="10.00">Math/GenVector/Displacement</text>
<text text-anchor="middle" x="1153" y="-7.5" font-family="Helvetica,sans-Serif" font-size="10.00">Vector2D.h</text>
</g>
<!-- Node18&#45;&gt;Node19 -->
<g id="edge19" class="edge"><title>Node18&#45;&gt;Node19</title>
<path fill="none" stroke="midnightblue" d="M1231.73,-72.7338C1218.84,-63.527 1198.13,-48.7328 1181.18,-36.6293"/>
<polygon fill="midnightblue" stroke="midnightblue" points="1182.9,-33.5534 1172.72,-30.589 1178.83,-39.2495 1182.9,-33.5534"/>
</g>
<!-- Node20 -->
<g id="node20" class="node"><title>Node20</title>
<polygon fill="none" stroke="#bfbfbf" points="1247,-6 1247,-25 1423,-25 1423,-6 1247,-6"/>
<text text-anchor="middle" x="1335" y="-13" font-family="Helvetica,sans-Serif" font-size="10.00">Math/GenVector/PositionVector2D.h</text>
</g>
<!-- Node18&#45;&gt;Node20 -->
<g id="edge20" class="edge"><title>Node18&#45;&gt;Node20</title>
<path fill="none" stroke="midnightblue" d="M1256.27,-72.7338C1271.15,-62.1106 1296.43,-44.0485 1314.33,-31.2642"/>
<polygon fill="midnightblue" stroke="midnightblue" points="1316.82,-33.7878 1322.92,-25.1273 1312.75,-28.0917 1316.82,-33.7878"/>
</g>
<!-- Node21&#45;&gt;Node18 -->
<g id="edge30" class="edge"><title>Node21&#45;&gt;Node18</title>
<path fill="none" stroke="midnightblue" d="M913.608,-135.342C978.429,-127.152 1082.55,-113.263 1172,-98 1179.09,-96.7909 1186.54,-95.4112 1193.86,-93.9946"/>
<polygon fill="midnightblue" stroke="midnightblue" points="1194.58,-97.4208 1203.71,-92.0526 1193.23,-90.553 1194.58,-97.4208"/>
</g>
<!-- Node22 -->
<g id="node22" class="node"><title>Node22</title>
<polygon fill="none" stroke="#bfbfbf" points="1012.5,-67.5 1012.5,-97.5 1163.5,-97.5 1163.5,-67.5 1012.5,-67.5"/>
<text text-anchor="start" x="1020.5" y="-85.5" font-family="Helvetica,sans-Serif" font-size="10.00">Math/GenVector/Displacement</text>
<text text-anchor="middle" x="1088" y="-74.5" font-family="Helvetica,sans-Serif" font-size="10.00">Vector3D.h</text>
</g>
<!-- Node21&#45;&gt;Node22 -->
<g id="edge22" class="edge"><title>Node21&#45;&gt;Node22</title>
<path fill="none" stroke="midnightblue" d="M884.956,-134.475C920.654,-125.513 977.712,-111.188 1022.26,-100.003"/>
<polygon fill="midnightblue" stroke="midnightblue" points="1023.3,-103.353 1032.14,-97.523 1021.59,-96.5634 1023.3,-103.353"/>
</g>
<!-- Node23 -->
<g id="node23" class="node"><title>Node23</title>
<polygon fill="none" stroke="#bfbfbf" points="68,-73 68,-92 244,-92 244,-73 68,-73"/>
<text text-anchor="middle" x="156" y="-80" font-family="Helvetica,sans-Serif" font-size="10.00">Math/GenVector/PositionVector3D.h</text>
</g>
<!-- Node21&#45;&gt;Node23 -->
<g id="edge23" class="edge"><title>Node21&#45;&gt;Node23</title>
<path fill="none" stroke="midnightblue" d="M788.317,-137.435C774.699,-136.266 760.369,-135.065 747,-134 527.115,-116.491 471.217,-122.49 252,-98 240.858,-96.7552 229.024,-95.1784 217.612,-93.5261"/>
<polygon fill="midnightblue" stroke="midnightblue" points="218.123,-90.0638 207.719,-92.0612 217.098,-96.9883 218.123,-90.0638"/>
</g>
<!-- Node24 -->
<g id="node24" class="node"><title>Node24</title>
<polygon fill="none" stroke="#bfbfbf" points="261.5,-73 261.5,-92 410.5,-92 410.5,-73 261.5,-73"/>
<text text-anchor="middle" x="336" y="-80" font-family="Helvetica,sans-Serif" font-size="10.00">Math/GenVector/Rotation3D.h</text>
</g>
<!-- Node21&#45;&gt;Node24 -->
<g id="edge24" class="edge"><title>Node21&#45;&gt;Node24</title>
<path fill="none" stroke="midnightblue" d="M788.315,-136.977C686.479,-127.104 489.493,-107.615 420,-98 410.957,-96.7488 401.395,-95.2587 392.088,-93.7175"/>
<polygon fill="midnightblue" stroke="midnightblue" points="392.571,-90.2494 382.127,-92.0338 391.404,-97.1515 392.571,-90.2494"/>
</g>
<!-- Node25 -->
<g id="node25" class="node"><title>Node25</title>
<polygon fill="none" stroke="#bfbfbf" points="429,-73 429,-92 585,-92 585,-73 429,-73"/>
<text text-anchor="middle" x="507" y="-80" font-family="Helvetica,sans-Serif" font-size="10.00">Math/GenVector/Transform3D.h</text>
</g>
<!-- Node21&#45;&gt;Node25 -->
<g id="edge25" class="edge"><title>Node21&#45;&gt;Node25</title>
<path fill="none" stroke="midnightblue" d="M801.713,-134.475C739.512,-123.716 632.634,-105.23 566.11,-93.724"/>
<polygon fill="midnightblue" stroke="midnightblue" points="566.646,-90.2647 556.195,-92.0091 565.453,-97.1623 566.646,-90.2647"/>
</g>
<!-- Node26 -->
<g id="node26" class="node"><title>Node26</title>
<polygon fill="none" stroke="#bfbfbf" points="603,-73 603,-92 763,-92 763,-73 603,-73"/>
<text text-anchor="middle" x="683" y="-80" font-family="Helvetica,sans-Serif" font-size="10.00">Math/GenVector/Translation3D.h</text>
</g>
<!-- Node21&#45;&gt;Node26 -->
<g id="edge26" class="edge"><title>Node21&#45;&gt;Node26</title>
<path fill="none" stroke="midnightblue" d="M826.93,-134.475C797.987,-124.225 749.238,-106.959 716.598,-95.3994"/>
<polygon fill="midnightblue" stroke="midnightblue" points="717.62,-92.0484 707.026,-92.0091 715.283,-98.6468 717.62,-92.0484"/>
</g>
<!-- Node27 -->
<g id="node27" class="node"><title>Node27</title>
<polygon fill="none" stroke="#bfbfbf" points="781,-73 781,-92 837,-92 837,-73 781,-73"/>
<text text-anchor="middle" x="809" y="-80" font-family="Helvetica,sans-Serif" font-size="10.00">Rtypes.h</text>
</g>
<!-- Node21&#45;&gt;Node27 -->
<g id="edge27" class="edge"><title>Node21&#45;&gt;Node27</title>
<path fill="none" stroke="midnightblue" d="M844.982,-134.475C838.745,-125.638 828.827,-111.589 820.982,-100.475"/>
<polygon fill="midnightblue" stroke="midnightblue" points="823.633,-98.1604 815.006,-92.0091 817.914,-102.197 823.633,-98.1604"/>
</g>
<!-- Node28 -->
<g id="node28" class="node"><title>Node28</title>
<polygon fill="none" stroke="#bfbfbf" points="855,-73 855,-92 931,-92 931,-73 855,-73"/>
<text text-anchor="middle" x="893" y="-80" font-family="Helvetica,sans-Serif" font-size="10.00">TGeoMatrix.h</text>
</g>
<!-- Node21&#45;&gt;Node28 -->
<g id="edge28" class="edge"><title>Node21&#45;&gt;Node28</title>
<path fill="none" stroke="midnightblue" d="M857.018,-134.475C863.255,-125.638 873.173,-111.589 881.018,-100.475"/>
<polygon fill="midnightblue" stroke="midnightblue" points="884.086,-102.197 886.994,-92.0091 878.367,-98.1604 884.086,-102.197"/>
</g>
<!-- Node29 -->
<g id="node29" class="node"><title>Node29</title>
<polygon fill="none" stroke="#bfbfbf" points="949.5,-73 949.5,-92 994.5,-92 994.5,-73 949.5,-73"/>
<text text-anchor="middle" x="972" y="-80" font-family="Helvetica,sans-Serif" font-size="10.00">iosfwd</text>
</g>
<!-- Node21&#45;&gt;Node29 -->
<g id="edge29" class="edge"><title>Node21&#45;&gt;Node29</title>
<path fill="none" stroke="midnightblue" d="M868.336,-134.475C888.553,-124.534 922.187,-107.995 945.642,-96.461"/>
<polygon fill="midnightblue" stroke="midnightblue" points="947.267,-99.5627 954.696,-92.0091 944.178,-93.281 947.267,-99.5627"/>
</g>
<!-- Node30&#45;&gt;Node17 -->
<g id="edge33" class="edge"><title>Node30&#45;&gt;Node17</title>
<path fill="none" stroke="midnightblue" d="M752.68,-246.444C783.527,-237.241 832.728,-222.562 866.829,-212.388"/>
<polygon fill="midnightblue" stroke="midnightblue" points="867.872,-215.729 876.454,-209.516 865.871,-209.021 867.872,-215.729"/>
</g>
<!-- Node31 -->
<g id="node31" class="node"><title>Node31</title>
<g id="a_node31"><a xlink:href="../../d0/dda/DataFormats_2Detectors_2TPC_2include_2DataFormatsTPC_2Constants_8h.html" target="_top" xlink:title="DataFormatsTPC/Constants.h">
<polygon fill="none" stroke="black" points="674,-190.5 674,-209.5 824,-209.5 824,-190.5 674,-190.5"/>
<text text-anchor="middle" x="749" y="-197.5" font-family="Helvetica,sans-Serif" font-size="10.00">DataFormatsTPC/Constants.h</text>
</a>
</g>
</g>
<!-- Node30&#45;&gt;Node31 -->
<g id="edge32" class="edge"><title>Node30&#45;&gt;Node31</title>
<path fill="none" stroke="midnightblue" d="M728.128,-246.083C731.514,-238.77 736.416,-228.181 740.619,-219.103"/>
<polygon fill="midnightblue" stroke="midnightblue" points="743.923,-220.296 744.949,-209.751 737.571,-217.355 743.923,-220.296"/>
</g>
<!-- Node32&#45;&gt;Node17 -->
<g id="edge35" class="edge"><title>Node32&#45;&gt;Node17</title>
<path fill="none" stroke="midnightblue" d="M841.414,-302.368C852.751,-284.296 879.171,-242.176 894.144,-218.307"/>
<polygon fill="midnightblue" stroke="midnightblue" points="897.262,-219.923 899.611,-209.591 891.332,-216.203 897.262,-219.923"/>
</g>
<!-- Node32&#45;&gt;Node30 -->
<g id="edge36" class="edge"><title>Node32&#45;&gt;Node30</title>
<path fill="none" stroke="midnightblue" d="M818.005,-302.324C799.962,-293.625 771.953,-280.12 751.197,-270.113"/>
<polygon fill="midnightblue" stroke="midnightblue" points="752.478,-266.845 741.95,-265.655 749.438,-273.15 752.478,-266.845"/>
</g>
<!-- Node33&#45;&gt;Node4 -->
<g id="edge38" class="edge"><title>Node33&#45;&gt;Node4</title>
<path fill="none" stroke="midnightblue" d="M240.744,-358.083C233.535,-350.298 222.89,-338.801 214.154,-329.367"/>
<polygon fill="midnightblue" stroke="midnightblue" points="216.465,-326.711 207.103,-321.751 211.329,-331.467 216.465,-326.711"/>
</g>
<!-- Node35&#45;&gt;Node17 -->
<g id="edge41" class="edge"><title>Node35&#45;&gt;Node17</title>
<path fill="none" stroke="midnightblue" d="M862.586,-358.201C871.776,-349.896 884.586,-336.572 891,-322 905.856,-288.248 906.969,-244.333 906.168,-219.763"/>
<polygon fill="midnightblue" stroke="midnightblue" points="909.659,-219.485 905.691,-209.661 902.667,-219.815 909.659,-219.485"/>
</g>
<!-- Node35&#45;&gt;Node32 -->
<g id="edge42" class="edge"><title>Node35&#45;&gt;Node32</title>
<path fill="none" stroke="midnightblue" d="M849.358,-358.083C847.214,-350.849 844.121,-340.409 841.451,-331.397"/>
<polygon fill="midnightblue" stroke="midnightblue" points="844.79,-330.345 838.593,-321.751 838.078,-332.333 844.79,-330.345"/>
</g>
<!-- Node35&#45;&gt;Node34 -->
<g id="edge43" class="edge"><title>Node35&#45;&gt;Node34</title>
<path fill="none" stroke="midnightblue" d="M874.183,-358.444C897.428,-349.478 934.149,-335.314 960.415,-325.183"/>
<polygon fill="midnightblue" stroke="midnightblue" points="961.85,-328.381 969.92,-321.516 959.331,-321.85 961.85,-328.381"/>
</g>
</g>
</svg>
