<?xml version="1.0" encoding="UTF-8" standalone="no"?>
<!DOCTYPE svg PUBLIC "-//W3C//DTD SVG 1.1//EN"
 "http://www.w3.org/Graphics/SVG/1.1/DTD/svg11.dtd">
<!-- Generated by graphviz version 2.38.0 (20140413.2041)
 -->
<!-- Title: /home/travis/build/AliceO2Group/AliceO2/Detectors/MUON/MCH/Simulation/include/MCHSimulation/Detector.h Pages: 1 -->
<svg width="871pt" height="239pt"
 viewBox="0.00 0.00 870.50 239.00" xmlns="http://www.w3.org/2000/svg" xmlns:xlink="http://www.w3.org/1999/xlink">
<g id="graph0" class="graph" transform="scale(1 1) rotate(0) translate(4 235)">
<title>/home/travis/build/AliceO2Group/AliceO2/Detectors/MUON/MCH/Simulation/include/MCHSimulation/Detector.h</title>
<!-- Node1 -->
<g id="node1" class="node"><title>Node1</title>
<polygon fill="#bfbfbf" stroke="black" points="468,-178.5 468,-230.5 639,-230.5 639,-178.5 468,-178.5"/>
<text text-anchor="start" x="476" y="-218.5" font-family="Helvetica,sans-Serif" font-size="10.00">/home/travis/build</text>
<text text-anchor="start" x="476" y="-207.5" font-family="Helvetica,sans-Serif" font-size="10.00">/AliceO2Group/AliceO2</text>
<text text-anchor="start" x="476" y="-196.5" font-family="Helvetica,sans-Serif" font-size="10.00">/Detectors/MUON/MCH/Simulation</text>
<text text-anchor="middle" x="553.5" y="-185.5" font-family="Helvetica,sans-Serif" font-size="10.00">/include/MCHSimulation/Detector.h</text>
</g>
<!-- Node2 -->
<g id="node2" class="node"><title>Node2</title>
<g id="a_node2"><a xlink:href="../../df/d3f/Response_8h.html" target="_top" xlink:title="/home/travis/build\l/AliceO2Group/AliceO2\l/Detectors/MUON/MCH/Simulation\l/include/MCHSimulation/Response.h">
<polygon fill="none" stroke="black" points="185.5,-89.5 185.5,-141.5 363.5,-141.5 363.5,-89.5 185.5,-89.5"/>
<text text-anchor="start" x="193.5" y="-129.5" font-family="Helvetica,sans-Serif" font-size="10.00">/home/travis/build</text>
<text text-anchor="start" x="193.5" y="-118.5" font-family="Helvetica,sans-Serif" font-size="10.00">/AliceO2Group/AliceO2</text>
<text text-anchor="start" x="193.5" y="-107.5" font-family="Helvetica,sans-Serif" font-size="10.00">/Detectors/MUON/MCH/Simulation</text>
<text text-anchor="middle" x="274.5" y="-96.5" font-family="Helvetica,sans-Serif" font-size="10.00">/include/MCHSimulation/Response.h</text>
</a>
</g>
</g>
<!-- Node1&#45;&gt;Node2 -->
<g id="edge1" class="edge"><title>Node1&#45;&gt;Node2</title>
<path fill="none" stroke="midnightblue" d="M463.445,-175.418C428.465,-164.511 388.721,-152.117 354.74,-141.521"/>
<polygon fill="midnightblue" stroke="midnightblue" points="462.587,-178.817 473.176,-178.453 464.671,-172.134 462.587,-178.817"/>
</g>
<!-- Node6 -->
<g id="node6" class="node"><title>Node6</title>
<g id="a_node6"><a xlink:href="../../da/ddd/MUON_2MCH_2Simulation_2src_2Detector_8cxx.html" target="_top" xlink:title="/home/travis/build\l/AliceO2Group/AliceO2\l/Detectors/MUON/MCH/Simulation\l/src/Detector.cxx">
<polygon fill="none" stroke="black" points="382,-89.5 382,-141.5 553,-141.5 553,-89.5 382,-89.5"/>
<text text-anchor="start" x="390" y="-129.5" font-family="Helvetica,sans-Serif" font-size="10.00">/home/travis/build</text>
<text text-anchor="start" x="390" y="-118.5" font-family="Helvetica,sans-Serif" font-size="10.00">/AliceO2Group/AliceO2</text>
<text text-anchor="start" x="390" y="-107.5" font-family="Helvetica,sans-Serif" font-size="10.00">/Detectors/MUON/MCH/Simulation</text>
<text text-anchor="middle" x="467.5" y="-96.5" font-family="Helvetica,sans-Serif" font-size="10.00">/src/Detector.cxx</text>
</a>
</g>
</g>
<!-- Node1&#45;&gt;Node6 -->
<g id="edge5" class="edge"><title>Node1&#45;&gt;Node6</title>
<path fill="none" stroke="midnightblue" d="M521.449,-171.077C511.82,-161.335 501.406,-150.8 492.319,-141.607"/>
<polygon fill="midnightblue" stroke="midnightblue" points="519.106,-173.685 528.625,-178.336 524.084,-168.764 519.106,-173.685"/>
</g>
<!-- Node7 -->
<g id="node7" class="node"><title>Node7</title>
<g id="a_node7"><a xlink:href="../../db/d2f/MCHDigitizerSpec_8cxx.html" target="_top" xlink:title="/home/travis/build\l/AliceO2Group/AliceO2\l/Steer/DigitizerWorkflow\l/src/MCHDigitizerSpec.cxx">
<polygon fill="none" stroke="black" points="571,-89.5 571,-141.5 708,-141.5 708,-89.5 571,-89.5"/>
<text text-anchor="start" x="579" y="-129.5" font-family="Helvetica,sans-Serif" font-size="10.00">/home/travis/build</text>
<text text-anchor="start" x="579" y="-118.5" font-family="Helvetica,sans-Serif" font-size="10.00">/AliceO2Group/AliceO2</text>
<text text-anchor="start" x="579" y="-107.5" font-family="Helvetica,sans-Serif" font-size="10.00">/Steer/DigitizerWorkflow</text>
<text text-anchor="middle" x="639.5" y="-96.5" font-family="Helvetica,sans-Serif" font-size="10.00">/src/MCHDigitizerSpec.cxx</text>
</a>
</g>
</g>
<!-- Node1&#45;&gt;Node7 -->
<g id="edge6" class="edge"><title>Node1&#45;&gt;Node7</title>
<path fill="none" stroke="midnightblue" d="M585.551,-171.077C595.18,-161.335 605.594,-150.8 614.681,-141.607"/>
<polygon fill="midnightblue" stroke="midnightblue" points="582.916,-168.764 578.375,-178.336 587.894,-173.685 582.916,-168.764"/>
</g>
<!-- Node8 -->
<g id="node8" class="node"><title>Node8</title>
<g id="a_node8"><a xlink:href="../../db/d50/O2HitMerger_8h.html" target="_top" xlink:title="/home/travis/build\l/AliceO2Group/AliceO2\l/run/O2HitMerger.h">
<polygon fill="none" stroke="black" points="726.5,-95 726.5,-136 844.5,-136 844.5,-95 726.5,-95"/>
<text text-anchor="start" x="734.5" y="-124" font-family="Helvetica,sans-Serif" font-size="10.00">/home/travis/build</text>
<text text-anchor="start" x="734.5" y="-113" font-family="Helvetica,sans-Serif" font-size="10.00">/AliceO2Group/AliceO2</text>
<text text-anchor="middle" x="785.5" y="-102" font-family="Helvetica,sans-Serif" font-size="10.00">/run/O2HitMerger.h</text>
</a>
</g>
</g>
<!-- Node1&#45;&gt;Node8 -->
<g id="edge7" class="edge"><title>Node1&#45;&gt;Node8</title>
<path fill="none" stroke="midnightblue" d="M629.701,-174.925C663.583,-162.219 702.62,-147.58 733.143,-136.134"/>
<polygon fill="midnightblue" stroke="midnightblue" points="628.427,-171.664 620.293,-178.453 630.885,-178.219 628.427,-171.664"/>
</g>
<!-- Node3 -->
<g id="node3" class="node"><title>Node3</title>
<g id="a_node3"><a xlink:href="../../d7/de0/MUON_2MCH_2Simulation_2src_2Digitizer_8cxx.html" target="_top" xlink:title="/home/travis/build\l/AliceO2Group/AliceO2\l/Detectors/MUON/MCH/Simulation\l/src/Digitizer.cxx">
<polygon fill="none" stroke="black" points="0,-0.5 0,-52.5 171,-52.5 171,-0.5 0,-0.5"/>
<text text-anchor="start" x="8" y="-40.5" font-family="Helvetica,sans-Serif" font-size="10.00">/home/travis/build</text>
<text text-anchor="start" x="8" y="-29.5" font-family="Helvetica,sans-Serif" font-size="10.00">/AliceO2Group/AliceO2</text>
<text text-anchor="start" x="8" y="-18.5" font-family="Helvetica,sans-Serif" font-size="10.00">/Detectors/MUON/MCH/Simulation</text>
<text text-anchor="middle" x="85.5" y="-7.5" font-family="Helvetica,sans-Serif" font-size="10.00">/src/Digitizer.cxx</text>
</a>
</g>
</g>
<!-- Node2&#45;&gt;Node3 -->
<g id="edge2" class="edge"><title>Node2&#45;&gt;Node3</title>
<path fill="none" stroke="midnightblue" d="M210.747,-85.1533C187.734,-74.56 161.99,-62.7099 139.856,-52.5211"/>
<polygon fill="midnightblue" stroke="midnightblue" points="209.54,-88.4506 220.087,-89.4527 212.467,-82.0919 209.54,-88.4506"/>
</g>
<!-- Node4 -->
<g id="node4" class="node"><title>Node4</title>
<g id="a_node4"><a xlink:href="../../d9/dbf/Response_8cxx.html" target="_top" xlink:title="/home/travis/build\l/AliceO2Group/AliceO2\l/Detectors/MUON/MCH/Simulation\l/src/Response.cxx">
<polygon fill="none" stroke="black" points="189,-0.5 189,-52.5 360,-52.5 360,-0.5 189,-0.5"/>
<text text-anchor="start" x="197" y="-40.5" font-family="Helvetica,sans-Serif" font-size="10.00">/home/travis/build</text>
<text text-anchor="start" x="197" y="-29.5" font-family="Helvetica,sans-Serif" font-size="10.00">/AliceO2Group/AliceO2</text>
<text text-anchor="start" x="197" y="-18.5" font-family="Helvetica,sans-Serif" font-size="10.00">/Detectors/MUON/MCH/Simulation</text>
<text text-anchor="middle" x="274.5" y="-7.5" font-family="Helvetica,sans-Serif" font-size="10.00">/src/Response.cxx</text>
</a>
</g>
</g>
<!-- Node2&#45;&gt;Node4 -->
<g id="edge3" class="edge"><title>Node2&#45;&gt;Node4</title>
<path fill="none" stroke="midnightblue" d="M274.5,-79.1908C274.5,-70.2824 274.5,-60.8986 274.5,-52.6075"/>
<polygon fill="midnightblue" stroke="midnightblue" points="271,-79.336 274.5,-89.336 278,-79.336 271,-79.336"/>
</g>
<!-- Node5 -->
<g id="node5" class="node"><title>Node5</title>
<g id="a_node5"><a xlink:href="../../d5/d7c/testResponse_8cxx.html" target="_top" xlink:title="This task tests of the Response of the MCH digitization. ">
<polygon fill="none" stroke="black" points="378,-0.5 378,-52.5 549,-52.5 549,-0.5 378,-0.5"/>
<text text-anchor="start" x="386" y="-40.5" font-family="Helvetica,sans-Serif" font-size="10.00">/home/travis/build</text>
<text text-anchor="start" x="386" y="-29.5" font-family="Helvetica,sans-Serif" font-size="10.00">/AliceO2Group/AliceO2</text>
<text text-anchor="start" x="386" y="-18.5" font-family="Helvetica,sans-Serif" font-size="10.00">/Detectors/MUON/MCH/Simulation</text>
<text text-anchor="middle" x="463.5" y="-7.5" font-family="Helvetica,sans-Serif" font-size="10.00">/test/testResponse.cxx</text>
</a>
</g>
</g>
<!-- Node2&#45;&gt;Node5 -->
<g id="edge4" class="edge"><title>Node2&#45;&gt;Node5</title>
<path fill="none" stroke="midnightblue" d="M338.253,-85.1533C361.266,-74.56 387.01,-62.7099 409.144,-52.5211"/>
<polygon fill="midnightblue" stroke="midnightblue" points="336.533,-82.0919 328.913,-89.4527 339.46,-88.4506 336.533,-82.0919"/>
</g>
<!-- Node8&#45;&gt;Node8 -->
<g id="edge8" class="edge"><title>Node8&#45;&gt;Node8</title>
<path fill="none" stroke="midnightblue" d="M854.162,-127.831C859.326,-125.081 862.5,-120.97 862.5,-115.5 862.5,-107.164 855.13,-101.987 844.579,-99.9678"/>
<polygon fill="midnightblue" stroke="midnightblue" points="852.955,-124.544 844.579,-131.032 855.173,-131.183 852.955,-124.544"/>
</g>
<!-- Node9 -->
<g id="node9" class="node"><title>Node9</title>
<g id="a_node9"><a xlink:href="../../d9/d16/O2HitMergerRunner_8cxx.html" target="_top" xlink:title="/home/travis/build\l/AliceO2Group/AliceO2\l/run/O2HitMergerRunner.cxx">
<polygon fill="none" stroke="black" points="714.5,-6 714.5,-47 856.5,-47 856.5,-6 714.5,-6"/>
<text text-anchor="start" x="722.5" y="-35" font-family="Helvetica,sans-Serif" font-size="10.00">/home/travis/build</text>
<text text-anchor="start" x="722.5" y="-24" font-family="Helvetica,sans-Serif" font-size="10.00">/AliceO2Group/AliceO2</text>
<text text-anchor="middle" x="785.5" y="-13" font-family="Helvetica,sans-Serif" font-size="10.00">/run/O2HitMergerRunner.cxx</text>
</a>
</g>
</g>
<!-- Node8&#45;&gt;Node9 -->
<g id="edge9" class="edge"><title>Node8&#45;&gt;Node9</title>
<path fill="none" stroke="midnightblue" d="M785.5,-84.4407C785.5,-72.1014 785.5,-58.1619 785.5,-47.1635"/>
<polygon fill="midnightblue" stroke="midnightblue" points="782,-84.7583 785.5,-94.7584 789,-84.7584 782,-84.7583"/>
</g>
</g>
</svg>
