<?xml version="1.0" encoding="UTF-8" standalone="no"?>
<!DOCTYPE svg PUBLIC "-//W3C//DTD SVG 1.1//EN"
 "http://www.w3.org/Graphics/SVG/1.1/DTD/svg11.dtd">
<!-- Generated by graphviz version 2.38.0 (20140413.2041)
 -->
<!-- Title: /home/travis/build/AliceO2Group/AliceO2/Detectors/EMCAL/calib/src/TriggerDCS.cxx Pages: 1 -->
<svg width="674pt" height="229pt"
 viewBox="0.00 0.00 674.22 229.00" xmlns="http://www.w3.org/2000/svg" xmlns:xlink="http://www.w3.org/1999/xlink">
<g id="graph0" class="graph" transform="scale(1 1) rotate(0) translate(4 225)">
<title>/home/travis/build/AliceO2Group/AliceO2/Detectors/EMCAL/calib/src/TriggerDCS.cxx</title>
<!-- Node1 -->
<g id="node1" class="node"><title>Node1</title>
<polygon fill="#bfbfbf" stroke="black" points="336.718,-168.5 336.718,-220.5 459.718,-220.5 459.718,-168.5 336.718,-168.5"/>
<text text-anchor="start" x="344.718" y="-208.5" font-family="Helvetica,sans-Serif" font-size="10.00">/home/travis/build</text>
<text text-anchor="start" x="344.718" y="-197.5" font-family="Helvetica,sans-Serif" font-size="10.00">/AliceO2Group/AliceO2</text>
<text text-anchor="start" x="344.718" y="-186.5" font-family="Helvetica,sans-Serif" font-size="10.00">/Detectors/EMCAL/calib</text>
<text text-anchor="middle" x="398.218" y="-175.5" font-family="Helvetica,sans-Serif" font-size="10.00">/src/TriggerDCS.cxx</text>
</g>
<!-- Node2 -->
<g id="node2" class="node"><title>Node2</title>
<g id="a_node2"><a xlink:href="../../d1/d3e/TriggerDCS_8h.html" target="_top" xlink:title="EMCALCalib/TriggerDCS.h">
<polygon fill="none" stroke="black" points="131.718,-112.5 131.718,-131.5 268.718,-131.5 268.718,-112.5 131.718,-112.5"/>
<text text-anchor="middle" x="200.218" y="-119.5" font-family="Helvetica,sans-Serif" font-size="10.00">EMCALCalib/TriggerDCS.h</text>
</a>
</g>
</g>
<!-- Node1&#45;&gt;Node2 -->
<g id="edge1" class="edge"><title>Node1&#45;&gt;Node2</title>
<path fill="none" stroke="midnightblue" d="M336.655,-171.58C302.785,-159.52 262.058,-145.019 233.968,-135.017"/>
<polygon fill="midnightblue" stroke="midnightblue" points="234.821,-131.606 224.226,-131.548 232.473,-138.2 234.821,-131.606"/>
</g>
<!-- Node6 -->
<g id="node6" class="node"><title>Node6</title>
<g id="a_node6"><a xlink:href="../../d1/d50/TriggerTRUDCS_8h.html" target="_top" xlink:title="EMCALCalib/TriggerTRUDCS.h">
<polygon fill="none" stroke="black" points="228.218,-56.5 228.218,-75.5 386.218,-75.5 386.218,-56.5 228.218,-56.5"/>
<text text-anchor="middle" x="307.218" y="-63.5" font-family="Helvetica,sans-Serif" font-size="10.00">EMCALCalib/TriggerTRUDCS.h</text>
</a>
</g>
</g>
<!-- Node1&#45;&gt;Node6 -->
<g id="edge13" class="edge"><title>Node1&#45;&gt;Node6</title>
<path fill="none" stroke="midnightblue" d="M351.897,-168.404C338.305,-158.789 324.8,-146.565 316.218,-132 307.995,-118.044 306.13,-99.5388 306.097,-85.8433"/>
<polygon fill="midnightblue" stroke="midnightblue" points="309.601,-85.7759 306.401,-75.6757 302.604,-85.5667 309.601,-85.7759"/>
</g>
<!-- Node7 -->
<g id="node7" class="node"><title>Node7</title>
<g id="a_node7"><a xlink:href="../../d7/d16/TriggerSTUDCS_8h.html" target="_top" xlink:title="EMCALCalib/TriggerSTUDCS.h">
<polygon fill="none" stroke="black" points="14.7181,-56.5 14.7181,-75.5 171.718,-75.5 171.718,-56.5 14.7181,-56.5"/>
<text text-anchor="middle" x="93.2181" y="-63.5" font-family="Helvetica,sans-Serif" font-size="10.00">EMCALCalib/TriggerSTUDCS.h</text>
</a>
</g>
</g>
<!-- Node1&#45;&gt;Node7 -->
<g id="edge14" class="edge"><title>Node1&#45;&gt;Node7</title>
<path fill="none" stroke="midnightblue" d="M336.641,-186.282C265.637,-176.862 154.528,-158.407 122.218,-132 108.037,-120.41 100.555,-100.451 96.7698,-85.7001"/>
<polygon fill="midnightblue" stroke="midnightblue" points="100.126,-84.6658 94.5454,-75.6596 93.2913,-86.1799 100.126,-84.6658"/>
</g>
<!-- Node8 -->
<g id="node8" class="node"><title>Node8</title>
<polygon fill="none" stroke="#bfbfbf" points="325.718,-112.5 325.718,-131.5 396.718,-131.5 396.718,-112.5 325.718,-112.5"/>
<text text-anchor="middle" x="361.218" y="-119.5" font-family="Helvetica,sans-Serif" font-size="10.00">FairLogger.h</text>
</g>
<!-- Node1&#45;&gt;Node8 -->
<g id="edge15" class="edge"><title>Node1&#45;&gt;Node8</title>
<path fill="none" stroke="midnightblue" d="M385.069,-168.446C380.232,-159.229 374.861,-148.995 370.442,-140.576"/>
<polygon fill="midnightblue" stroke="midnightblue" points="373.528,-138.924 365.782,-131.695 367.33,-142.177 373.528,-138.924"/>
</g>
<!-- Node9 -->
<g id="node9" class="node"><title>Node9</title>
<polygon fill="none" stroke="#bfbfbf" points="414.718,-112.5 414.718,-131.5 455.718,-131.5 455.718,-112.5 414.718,-112.5"/>
<text text-anchor="middle" x="435.218" y="-119.5" font-family="Helvetica,sans-Serif" font-size="10.00">bitset</text>
</g>
<!-- Node1&#45;&gt;Node9 -->
<g id="edge16" class="edge"><title>Node1&#45;&gt;Node9</title>
<path fill="none" stroke="midnightblue" d="M411.367,-168.446C416.204,-159.229 421.575,-148.995 425.994,-140.576"/>
<polygon fill="midnightblue" stroke="midnightblue" points="429.107,-142.177 430.655,-131.695 422.908,-138.924 429.107,-142.177"/>
</g>
<!-- Node10 -->
<g id="node10" class="node"><title>Node10</title>
<polygon fill="none" stroke="#bfbfbf" points="474.218,-112.5 474.218,-131.5 524.218,-131.5 524.218,-112.5 474.218,-112.5"/>
<text text-anchor="middle" x="499.218" y="-119.5" font-family="Helvetica,sans-Serif" font-size="10.00">iomanip</text>
</g>
<!-- Node1&#45;&gt;Node10 -->
<g id="edge17" class="edge"><title>Node1&#45;&gt;Node10</title>
<path fill="none" stroke="midnightblue" d="M434.111,-168.446C448.894,-158.127 465.504,-146.533 478.247,-137.638"/>
<polygon fill="midnightblue" stroke="midnightblue" points="480.564,-140.289 486.761,-131.695 476.558,-134.549 480.564,-140.289"/>
</g>
<!-- Node11 -->
<g id="node11" class="node"><title>Node11</title>
<polygon fill="none" stroke="#bfbfbf" points="542.218,-112.5 542.218,-131.5 596.218,-131.5 596.218,-112.5 542.218,-112.5"/>
<text text-anchor="middle" x="569.218" y="-119.5" font-family="Helvetica,sans-Serif" font-size="10.00">iostream</text>
</g>
<!-- Node1&#45;&gt;Node11 -->
<g id="edge18" class="edge"><title>Node1&#45;&gt;Node11</title>
<path fill="none" stroke="midnightblue" d="M458.988,-168.446C486.126,-157.257 516.902,-144.569 539.024,-135.448"/>
<polygon fill="midnightblue" stroke="midnightblue" points="540.625,-138.574 548.536,-131.527 537.957,-132.103 540.625,-138.574"/>
</g>
<!-- Node12 -->
<g id="node12" class="node"><title>Node12</title>
<polygon fill="none" stroke="#bfbfbf" points="614.218,-112.5 614.218,-131.5 666.218,-131.5 666.218,-112.5 614.218,-112.5"/>
<text text-anchor="middle" x="640.218" y="-119.5" font-family="Helvetica,sans-Serif" font-size="10.00">sstream</text>
</g>
<!-- Node1&#45;&gt;Node12 -->
<g id="edge19" class="edge"><title>Node1&#45;&gt;Node12</title>
<path fill="none" stroke="midnightblue" d="M459.911,-175.527C505.675,-162.196 566.475,-144.483 604.473,-133.413"/>
<polygon fill="midnightblue" stroke="midnightblue" points="605.464,-136.77 614.086,-130.613 603.507,-130.049 605.464,-136.77"/>
</g>
<!-- Node3 -->
<g id="node3" class="node"><title>Node3</title>
<polygon fill="none" stroke="#bfbfbf" points="70.7181,-0.5 70.7181,-19.5 115.718,-19.5 115.718,-0.5 70.7181,-0.5"/>
<text text-anchor="middle" x="93.2181" y="-7.5" font-family="Helvetica,sans-Serif" font-size="10.00">iosfwd</text>
</g>
<!-- Node2&#45;&gt;Node3 -->
<g id="edge2" class="edge"><title>Node2&#45;&gt;Node3</title>
<path fill="none" stroke="midnightblue" d="M131.64,-114.175C82.003,-107.653 20.9809,-95.8146 5.21814,-76 -14.392,-51.349 28.3377,-31.358 60.8663,-20.3348"/>
<polygon fill="midnightblue" stroke="midnightblue" points="62.113,-23.6102 70.5536,-17.2064 59.9618,-16.9489 62.113,-23.6102"/>
</g>
<!-- Node4 -->
<g id="node4" class="node"><title>Node4</title>
<polygon fill="none" stroke="#bfbfbf" points="288.218,-0.5 288.218,-19.5 326.218,-19.5 326.218,-0.5 288.218,-0.5"/>
<text text-anchor="middle" x="307.218" y="-7.5" font-family="Helvetica,sans-Serif" font-size="10.00">array</text>
</g>
<!-- Node2&#45;&gt;Node4 -->
<g id="edge3" class="edge"><title>Node2&#45;&gt;Node4</title>
<path fill="none" stroke="midnightblue" d="M268.797,-114.175C318.433,-107.653 379.455,-95.8146 395.218,-76 415.578,-50.4061 368.738,-29.8355 335.886,-19.1094"/>
<polygon fill="midnightblue" stroke="midnightblue" points="336.818,-15.7338 326.229,-16.102 334.736,-22.4172 336.818,-15.7338"/>
</g>
<!-- Node5 -->
<g id="node5" class="node"><title>Node5</title>
<polygon fill="none" stroke="#bfbfbf" points="172.218,-0.5 172.218,-19.5 228.218,-19.5 228.218,-0.5 172.218,-0.5"/>
<text text-anchor="middle" x="200.218" y="-7.5" font-family="Helvetica,sans-Serif" font-size="10.00">Rtypes.h</text>
</g>
<!-- Node2&#45;&gt;Node5 -->
<g id="edge4" class="edge"><title>Node2&#45;&gt;Node5</title>
<path fill="none" stroke="midnightblue" d="M200.218,-112.368C200.218,-94.617 200.218,-53.6664 200.218,-29.5974"/>
<polygon fill="midnightblue" stroke="midnightblue" points="203.718,-29.5914 200.218,-19.5914 196.718,-29.5915 203.718,-29.5914"/>
</g>
<!-- Node2&#45;&gt;Node6 -->
<g id="edge5" class="edge"><title>Node2&#45;&gt;Node6</title>
<path fill="none" stroke="midnightblue" d="M217.41,-112.324C234.569,-103.664 261.164,-90.2424 280.965,-80.249"/>
<polygon fill="midnightblue" stroke="midnightblue" points="282.719,-83.2847 290.069,-75.6545 279.565,-77.0354 282.719,-83.2847"/>
</g>
<!-- Node2&#45;&gt;Node7 -->
<g id="edge9" class="edge"><title>Node2&#45;&gt;Node7</title>
<path fill="none" stroke="midnightblue" d="M183.027,-112.324C165.867,-103.664 139.272,-90.2424 119.471,-80.249"/>
<polygon fill="midnightblue" stroke="midnightblue" points="120.871,-77.0354 110.367,-75.6545 117.717,-83.2847 120.871,-77.0354"/>
</g>
<!-- Node6&#45;&gt;Node3 -->
<g id="edge6" class="edge"><title>Node6&#45;&gt;Node3</title>
<path fill="none" stroke="midnightblue" d="M273.309,-56.4435C232.761,-46.2117 165.387,-29.2109 125.55,-19.1585"/>
<polygon fill="midnightblue" stroke="midnightblue" points="126.361,-15.7535 115.808,-16.7003 124.648,-22.5407 126.361,-15.7535"/>
</g>
<!-- Node6&#45;&gt;Node4 -->
<g id="edge7" class="edge"><title>Node6&#45;&gt;Node4</title>
<path fill="none" stroke="midnightblue" d="M307.218,-56.083C307.218,-49.0059 307.218,-38.8611 307.218,-29.9865"/>
<polygon fill="midnightblue" stroke="midnightblue" points="310.718,-29.751 307.218,-19.7511 303.718,-29.7511 310.718,-29.751"/>
</g>
<!-- Node6&#45;&gt;Node5 -->
<g id="edge8" class="edge"><title>Node6&#45;&gt;Node5</title>
<path fill="none" stroke="midnightblue" d="M290.027,-56.324C272.867,-47.6641 246.272,-34.2424 226.471,-24.249"/>
<polygon fill="midnightblue" stroke="midnightblue" points="227.871,-21.0354 217.367,-19.6545 224.717,-27.2847 227.871,-21.0354"/>
</g>
<!-- Node7&#45;&gt;Node3 -->
<g id="edge10" class="edge"><title>Node7&#45;&gt;Node3</title>
<path fill="none" stroke="midnightblue" d="M93.2181,-56.083C93.2181,-49.0059 93.2181,-38.8611 93.2181,-29.9865"/>
<polygon fill="midnightblue" stroke="midnightblue" points="96.7182,-29.751 93.2181,-19.7511 89.7182,-29.7511 96.7182,-29.751"/>
</g>
<!-- Node7&#45;&gt;Node4 -->
<g id="edge11" class="edge"><title>Node7&#45;&gt;Node4</title>
<path fill="none" stroke="midnightblue" d="M127.127,-56.4435C168.888,-45.9058 239.101,-28.1884 278.384,-18.276"/>
<polygon fill="midnightblue" stroke="midnightblue" points="279.292,-21.6566 288.132,-15.8162 277.579,-14.8694 279.292,-21.6566"/>
</g>
<!-- Node7&#45;&gt;Node5 -->
<g id="edge12" class="edge"><title>Node7&#45;&gt;Node5</title>
<path fill="none" stroke="midnightblue" d="M110.41,-56.324C127.569,-47.6641 154.164,-34.2424 173.965,-24.249"/>
<polygon fill="midnightblue" stroke="midnightblue" points="175.719,-27.2847 183.069,-19.6545 172.565,-21.0354 175.719,-27.2847"/>
</g>
</g>
</svg>
