<?xml version="1.0" encoding="UTF-8" standalone="no"?>
<!DOCTYPE svg PUBLIC "-//W3C//DTD SVG 1.1//EN"
 "http://www.w3.org/Graphics/SVG/1.1/DTD/svg11.dtd">
<!-- Generated by graphviz version 2.38.0 (20140413.2041)
 -->
<!-- Title: o2::ft0::FT0DPLDigitWriter Pages: 1 -->
<svg width="917pt" height="1099pt"
 viewBox="0.00 0.00 917.06 1099.00" xmlns="http://www.w3.org/2000/svg" xmlns:xlink="http://www.w3.org/1999/xlink">
<g id="graph0" class="graph" transform="scale(1 1) rotate(0) translate(4 1095)">
<title>o2::ft0::FT0DPLDigitWriter</title>
<!-- Node1 -->
<g id="node1" class="node"><title>Node1</title>
<polygon fill="#bfbfbf" stroke="black" points="550.564,-0.5 550.564,-90.5 684.564,-90.5 684.564,-0.5 550.564,-0.5"/>
<text text-anchor="middle" x="617.564" y="-78.5" font-family="Helvetica,sans-Serif" font-size="10.00">o2::ft0::FT0DPLDigitWriter</text>
<polyline fill="none" stroke="black" points="550.564,-71.5 684.564,-71.5 "/>
<text text-anchor="middle" x="617.564" y="-59.5" font-family="Helvetica,sans-Serif" font-size="10.00"> </text>
<polyline fill="none" stroke="black" points="550.564,-52.5 684.564,-52.5 "/>
<text text-anchor="start" x="558.564" y="-40.5" font-family="Helvetica,sans-Serif" font-size="10.00">+ init()</text>
<text text-anchor="start" x="558.564" y="-29.5" font-family="Helvetica,sans-Serif" font-size="10.00">+ run()</text>
<text text-anchor="start" x="558.564" y="-18.5" font-family="Helvetica,sans-Serif" font-size="10.00">+ FT0DPLDigitWriter()</text>
<text text-anchor="start" x="558.564" y="-7.5" font-family="Helvetica,sans-Serif" font-size="10.00"># getOrMakeBranch()</text>
</g>
<!-- Node2 -->
<g id="node2" class="node"><title>Node2</title>
<g id="a_node2"><a xlink:href="../../d9/db3/structo2_1_1header_1_1Descriptor.html" target="_top" xlink:title="{o2::header::Descriptor\l\&lt; gSizeDataOriginString,\l printDataOrigin \&gt;\n||+ Descriptor()\l+ Descriptor()\l+ Descriptor()\l+ Descriptor()\l+ operator=()\l+ operator ItgType()\l+ runtimeInit()\l+ operator==()\l+ operator==()\l+ operator\&lt;()\l+ operator!=()\l+ operator!=()\l+ as()\l+ print()\l}">
<polygon fill="none" stroke="black" points="121.064,-138.5 121.064,-360.5 246.064,-360.5 246.064,-138.5 121.064,-138.5"/>
<text text-anchor="start" x="129.064" y="-348.5" font-family="Helvetica,sans-Serif" font-size="10.00">o2::header::Descriptor</text>
<text text-anchor="start" x="129.064" y="-337.5" font-family="Helvetica,sans-Serif" font-size="10.00">&lt; gSizeDataOriginString,</text>
<text text-anchor="middle" x="183.564" y="-326.5" font-family="Helvetica,sans-Serif" font-size="10.00"> printDataOrigin &gt;</text>
<polyline fill="none" stroke="black" points="121.064,-319.5 246.064,-319.5 "/>
<text text-anchor="middle" x="183.564" y="-307.5" font-family="Helvetica,sans-Serif" font-size="10.00"> </text>
<polyline fill="none" stroke="black" points="121.064,-300.5 246.064,-300.5 "/>
<text text-anchor="start" x="129.064" y="-288.5" font-family="Helvetica,sans-Serif" font-size="10.00">+ Descriptor()</text>
<text text-anchor="start" x="129.064" y="-277.5" font-family="Helvetica,sans-Serif" font-size="10.00">+ Descriptor()</text>
<text text-anchor="start" x="129.064" y="-266.5" font-family="Helvetica,sans-Serif" font-size="10.00">+ Descriptor()</text>
<text text-anchor="start" x="129.064" y="-255.5" font-family="Helvetica,sans-Serif" font-size="10.00">+ Descriptor()</text>
<text text-anchor="start" x="129.064" y="-244.5" font-family="Helvetica,sans-Serif" font-size="10.00">+ operator=()</text>
<text text-anchor="start" x="129.064" y="-233.5" font-family="Helvetica,sans-Serif" font-size="10.00">+ operator ItgType()</text>
<text text-anchor="start" x="129.064" y="-222.5" font-family="Helvetica,sans-Serif" font-size="10.00">+ runtimeInit()</text>
<text text-anchor="start" x="129.064" y="-211.5" font-family="Helvetica,sans-Serif" font-size="10.00">+ operator==()</text>
<text text-anchor="start" x="129.064" y="-200.5" font-family="Helvetica,sans-Serif" font-size="10.00">+ operator==()</text>
<text text-anchor="start" x="129.064" y="-189.5" font-family="Helvetica,sans-Serif" font-size="10.00">+ operator&lt;()</text>
<text text-anchor="start" x="129.064" y="-178.5" font-family="Helvetica,sans-Serif" font-size="10.00">+ operator!=()</text>
<text text-anchor="start" x="129.064" y="-167.5" font-family="Helvetica,sans-Serif" font-size="10.00">+ operator!=()</text>
<text text-anchor="start" x="129.064" y="-156.5" font-family="Helvetica,sans-Serif" font-size="10.00">+ as()</text>
<text text-anchor="start" x="129.064" y="-145.5" font-family="Helvetica,sans-Serif" font-size="10.00">+ print()</text>
</a>
</g>
</g>
<!-- Node2&#45;&gt;Node1 -->
<g id="edge1" class="edge"><title>Node2&#45;&gt;Node1</title>
<path fill="none" stroke="#404040" d="M246.209,-190.491C279.723,-162.234 322.989,-129.925 366.564,-109 421.093,-82.8151 487.731,-66.8821 538.637,-57.662"/>
<polygon fill="none" stroke="#404040" points="538.743,-57.6435 543.963,-52.6679 550.563,-55.5721 545.344,-60.5478 538.743,-57.6435"/>
<text text-anchor="middle" x="388.064" y="-112" font-family="Helvetica,sans-Serif" font-size="10.00"> #mOrigin</text>
</g>
<!-- Node3 -->
<g id="node3" class="node"><title>Node3</title>
<polygon fill="none" stroke="#bfbfbf" points="21.5641,-1033.5 21.5641,-1090.5 59.5641,-1090.5 59.5641,-1033.5 21.5641,-1033.5"/>
<text text-anchor="middle" x="40.5641" y="-1078.5" font-family="Helvetica,sans-Serif" font-size="10.00">Type</text>
<polyline fill="none" stroke="#bfbfbf" points="21.5641,-1071.5 59.5641,-1071.5 "/>
<text text-anchor="middle" x="40.5641" y="-1059.5" font-family="Helvetica,sans-Serif" font-size="10.00"> </text>
<polyline fill="none" stroke="#bfbfbf" points="21.5641,-1052.5 59.5641,-1052.5 "/>
<text text-anchor="middle" x="40.5641" y="-1040.5" font-family="Helvetica,sans-Serif" font-size="10.00"> </text>
</g>
<!-- Node3&#45;&gt;Node2 -->
<g id="edge2" class="edge"><title>Node3&#45;&gt;Node2</title>
<path fill="none" stroke="#404040" d="M34.2899,-1033.39C13.9569,-937.637 -43.0166,-612.956 60.5641,-379 72.3238,-352.439 92.0475,-328.048 112.295,-307.819"/>
<polygon fill="none" stroke="#404040" points="112.36,-307.755 113.89,-300.708 120.983,-299.41 119.454,-306.457 112.36,-307.755"/>
<text text-anchor="middle" x="18.5641" y="-767.5" font-family="Helvetica,sans-Serif" font-size="10.00"> +itg</text>
</g>
<!-- Node7 -->
<g id="node7" class="node"><title>Node7</title>
<g id="a_node7"><a xlink:href="../../d9/db3/structo2_1_1header_1_1Descriptor.html" target="_top" xlink:title="{o2::header::Descriptor\l\&lt; N, PrinterPolicy \&gt;\n||+ Descriptor()\l+ Descriptor()\l+ Descriptor()\l+ operator=()\l+ operator ItgType()\l+ Descriptor()\l+ runtimeInit()\l+ operator==()\l+ operator\&lt;()\l+ operator!=()\l+ operator==()\l+ operator!=()\l+ as()\l+ print()\l}">
<polygon fill="none" stroke="black" points="128.064,-664.5 128.064,-875.5 241.064,-875.5 241.064,-664.5 128.064,-664.5"/>
<text text-anchor="start" x="136.064" y="-863.5" font-family="Helvetica,sans-Serif" font-size="10.00">o2::header::Descriptor</text>
<text text-anchor="middle" x="184.564" y="-852.5" font-family="Helvetica,sans-Serif" font-size="10.00">&lt; N, PrinterPolicy &gt;</text>
<polyline fill="none" stroke="black" points="128.064,-845.5 241.064,-845.5 "/>
<text text-anchor="middle" x="184.564" y="-833.5" font-family="Helvetica,sans-Serif" font-size="10.00"> </text>
<polyline fill="none" stroke="black" points="128.064,-826.5 241.064,-826.5 "/>
<text text-anchor="start" x="136.064" y="-814.5" font-family="Helvetica,sans-Serif" font-size="10.00">+ Descriptor()</text>
<text text-anchor="start" x="136.064" y="-803.5" font-family="Helvetica,sans-Serif" font-size="10.00">+ Descriptor()</text>
<text text-anchor="start" x="136.064" y="-792.5" font-family="Helvetica,sans-Serif" font-size="10.00">+ Descriptor()</text>
<text text-anchor="start" x="136.064" y="-781.5" font-family="Helvetica,sans-Serif" font-size="10.00">+ operator=()</text>
<text text-anchor="start" x="136.064" y="-770.5" font-family="Helvetica,sans-Serif" font-size="10.00">+ operator ItgType()</text>
<text text-anchor="start" x="136.064" y="-759.5" font-family="Helvetica,sans-Serif" font-size="10.00">+ Descriptor()</text>
<text text-anchor="start" x="136.064" y="-748.5" font-family="Helvetica,sans-Serif" font-size="10.00">+ runtimeInit()</text>
<text text-anchor="start" x="136.064" y="-737.5" font-family="Helvetica,sans-Serif" font-size="10.00">+ operator==()</text>
<text text-anchor="start" x="136.064" y="-726.5" font-family="Helvetica,sans-Serif" font-size="10.00">+ operator&lt;()</text>
<text text-anchor="start" x="136.064" y="-715.5" font-family="Helvetica,sans-Serif" font-size="10.00">+ operator!=()</text>
<text text-anchor="start" x="136.064" y="-704.5" font-family="Helvetica,sans-Serif" font-size="10.00">+ operator==()</text>
<text text-anchor="start" x="136.064" y="-693.5" font-family="Helvetica,sans-Serif" font-size="10.00">+ operator!=()</text>
<text text-anchor="start" x="136.064" y="-682.5" font-family="Helvetica,sans-Serif" font-size="10.00">+ as()</text>
<text text-anchor="start" x="136.064" y="-671.5" font-family="Helvetica,sans-Serif" font-size="10.00">+ print()</text>
</a>
</g>
</g>
<!-- Node3&#45;&gt;Node7 -->
<g id="edge7" class="edge"><title>Node3&#45;&gt;Node7</title>
<path fill="none" stroke="#404040" d="M43.9594,-1033.45C49.3325,-998.51 62.354,-937.557 91.5641,-894 98.6005,-883.507 105.047,-885.331 113.564,-876 115.782,-873.57 117.984,-871.065 120.163,-868.503"/>
<polygon fill="none" stroke="#404040" points="120.339,-868.288 121.047,-861.112 127.944,-859.006 127.235,-866.182 120.339,-868.288"/>
<text text-anchor="middle" x="101.564" y="-952" font-family="Helvetica,sans-Serif" font-size="10.00"> +itg</text>
</g>
<!-- Node4 -->
<g id="node4" class="node"><title>Node4</title>
<polygon fill="none" stroke="#bfbfbf" points="84.0641,-1033.5 84.0641,-1090.5 119.064,-1090.5 119.064,-1033.5 84.0641,-1033.5"/>
<text text-anchor="middle" x="101.564" y="-1078.5" font-family="Helvetica,sans-Serif" font-size="10.00">char</text>
<polyline fill="none" stroke="#bfbfbf" points="84.0641,-1071.5 119.064,-1071.5 "/>
<text text-anchor="middle" x="101.564" y="-1059.5" font-family="Helvetica,sans-Serif" font-size="10.00"> </text>
<polyline fill="none" stroke="#bfbfbf" points="84.0641,-1052.5 119.064,-1052.5 "/>
<text text-anchor="middle" x="101.564" y="-1040.5" font-family="Helvetica,sans-Serif" font-size="10.00"> </text>
</g>
<!-- Node4&#45;&gt;Node2 -->
<g id="edge3" class="edge"><title>Node4&#45;&gt;Node2</title>
<path fill="none" stroke="#404040" d="M96.0924,-1033.22C78.6564,-938.91 29.6882,-623.221 102.564,-379 105.81,-368.122 110.255,-357.269 115.403,-346.74"/>
<polygon fill="none" stroke="#404040" points="115.496,-346.56 114.695,-339.393 121.002,-335.898 121.803,-343.064 115.496,-346.56"/>
<text text-anchor="middle" x="84.0641" y="-767.5" font-family="Helvetica,sans-Serif" font-size="10.00"> +str</text>
</g>
<!-- Node4&#45;&gt;Node7 -->
<g id="edge8" class="edge"><title>Node4&#45;&gt;Node7</title>
<path fill="none" stroke="#404040" d="M109.447,-1033.46C119.061,-999.868 135.925,-940.943 151.242,-887.426"/>
<polygon fill="none" stroke="#404040" points="151.283,-887.282 149.089,-880.413 154.585,-875.745 156.78,-882.615 151.283,-887.282"/>
<text text-anchor="middle" x="159.064" y="-952" font-family="Helvetica,sans-Serif" font-size="10.00"> +str</text>
</g>
<!-- Node5 -->
<g id="node5" class="node"><title>Node5</title>
<polygon fill="none" stroke="#bfbfbf" points="259.064,-741.5 259.064,-798.5 288.064,-798.5 288.064,-741.5 259.064,-741.5"/>
<text text-anchor="middle" x="273.564" y="-786.5" font-family="Helvetica,sans-Serif" font-size="10.00">int</text>
<polyline fill="none" stroke="#bfbfbf" points="259.064,-779.5 288.064,-779.5 "/>
<text text-anchor="middle" x="273.564" y="-767.5" font-family="Helvetica,sans-Serif" font-size="10.00"> </text>
<polyline fill="none" stroke="#bfbfbf" points="259.064,-760.5 288.064,-760.5 "/>
<text text-anchor="middle" x="273.564" y="-748.5" font-family="Helvetica,sans-Serif" font-size="10.00"> </text>
</g>
<!-- Node5&#45;&gt;Node2 -->
<g id="edge4" class="edge"><title>Node5&#45;&gt;Node2</title>
<path fill="none" stroke="#404040" d="M270.177,-741.179C267.197,-716.264 262.835,-678.72 259.564,-646 247.717,-527.485 264.71,-494.733 236.564,-379 236.008,-376.714 235.418,-374.415 234.796,-372.109"/>
<polygon fill="none" stroke="#404040" points="234.781,-372.056 229.27,-367.405 231.445,-360.529 236.955,-365.181 234.781,-372.056"/>
<text text-anchor="middle" x="285.064" y="-521" font-family="Helvetica,sans-Serif" font-size="10.00"> +arraySize</text>
<text text-anchor="middle" x="285.064" y="-510" font-family="Helvetica,sans-Serif" font-size="10.00">+size</text>
<text text-anchor="middle" x="285.064" y="-499" font-family="Helvetica,sans-Serif" font-size="10.00">+bitcount</text>
</g>
<!-- Node6 -->
<g id="node6" class="node"><title>Node6</title>
<polygon fill="none" stroke="#bfbfbf" points="240.064,-1033.5 240.064,-1090.5 337.064,-1090.5 337.064,-1033.5 240.064,-1033.5"/>
<text text-anchor="middle" x="288.564" y="-1078.5" font-family="Helvetica,sans-Serif" font-size="10.00">anonymous:+@24</text>
<polyline fill="none" stroke="#bfbfbf" points="240.064,-1071.5 337.064,-1071.5 "/>
<text text-anchor="middle" x="288.564" y="-1059.5" font-family="Helvetica,sans-Serif" font-size="10.00"> </text>
<polyline fill="none" stroke="#bfbfbf" points="240.064,-1052.5 337.064,-1052.5 "/>
<text text-anchor="middle" x="288.564" y="-1040.5" font-family="Helvetica,sans-Serif" font-size="10.00"> </text>
</g>
<!-- Node6&#45;&gt;Node2 -->
<g id="edge5" class="edge"><title>Node6&#45;&gt;Node2</title>
<path fill="none" stroke="#404040" d="M301.268,-1033.26C303.447,-1027.35 305.386,-1021.06 306.564,-1015 360.48,-737.517 417.971,-640.472 310.564,-379 298.832,-350.44 277.345,-324.844 255.339,-304.156"/>
<polygon fill="none" stroke="#404040" points="255.121,-303.957 247.99,-302.884 246.238,-295.889 253.369,-296.962 255.121,-303.957"/>
<text text-anchor="middle" x="387.064" y="-767.5" font-family="Helvetica,sans-Serif" font-size="10.00"> +@24</text>
</g>
<!-- Node6&#45;&gt;Node7 -->
<g id="edge9" class="edge"><title>Node6&#45;&gt;Node7</title>
<path fill="none" stroke="#404040" d="M278.686,-1033.46C266.615,-999.797 245.421,-940.696 226.196,-887.09"/>
<polygon fill="none" stroke="#404040" points="226.179,-887.041 220.388,-882.744 222.128,-875.745 227.919,-880.043 226.179,-887.041"/>
<text text-anchor="middle" x="287.064" y="-952" font-family="Helvetica,sans-Serif" font-size="10.00"> +@24</text>
</g>
<!-- Node7&#45;&gt;Node2 -->
<g id="edge6" class="edge"><title>Node7&#45;&gt;Node2</title>
<path fill="none" stroke="orange" d="M126.778,-654.651C125.969,-651.762 125.228,-648.876 124.564,-646 97.8665,-530.376 99.2218,-494.929 124.564,-379 125.901,-372.885 127.557,-366.713 129.455,-360.556"/>
<polygon fill="orange" stroke="orange" points="123.508,-655.93 129.775,-664.473 130.204,-653.886 123.508,-655.93"/>
<text text-anchor="start" x="124.564" y="-515.5" font-family="Helvetica,sans-Serif" font-size="10.00"> &lt; gSizeDataOriginString,</text>
<text text-anchor="middle" x="180.564" y="-504.5" font-family="Helvetica,sans-Serif" font-size="10.00"> printDataOrigin &gt;</text>
</g>
<!-- Node8 -->
<g id="node8" class="node"><title>Node8</title>
<polygon fill="none" stroke="#bfbfbf" points="403.064,-1033.5 403.064,-1090.5 444.064,-1090.5 444.064,-1033.5 403.064,-1033.5"/>
<text text-anchor="middle" x="423.564" y="-1078.5" font-family="Helvetica,sans-Serif" font-size="10.00">static</text>
<polyline fill="none" stroke="#bfbfbf" points="403.064,-1071.5 444.064,-1071.5 "/>
<text text-anchor="middle" x="423.564" y="-1059.5" font-family="Helvetica,sans-Serif" font-size="10.00"> </text>
<polyline fill="none" stroke="#bfbfbf" points="403.064,-1052.5 444.064,-1052.5 "/>
<text text-anchor="middle" x="423.564" y="-1040.5" font-family="Helvetica,sans-Serif" font-size="10.00"> </text>
</g>
<!-- Node8&#45;&gt;Node1 -->
<g id="edge17" class="edge"><title>Node8&#45;&gt;Node1</title>
<path fill="none" stroke="#404040" d="M422.469,-1033.08C416.966,-887.122 394.439,-215.654 442.564,-138 463.994,-103.421 503.155,-81.2394 539.006,-67.3917"/>
<polygon fill="none" stroke="#404040" points="539.234,-67.3082 543.494,-61.4895 550.503,-63.1833 546.244,-69.002 539.234,-67.3082"/>
<text text-anchor="middle" x="435.564" y="-515.5" font-family="Helvetica,sans-Serif" font-size="10.00"> +DETID</text>
<text text-anchor="middle" x="435.564" y="-504.5" font-family="Helvetica,sans-Serif" font-size="10.00">+DETOR</text>
</g>
<!-- Node8&#45;&gt;Node7 -->
<g id="edge10" class="edge"><title>Node8&#45;&gt;Node7</title>
<path fill="none" stroke="#404040" d="M402.819,-1050.32C388.777,-1042.22 370.653,-1029.94 358.564,-1015 321.74,-969.501 349.971,-933.269 306.564,-894 289.249,-878.335 274.537,-888.903 251.327,-875.742"/>
<polygon fill="none" stroke="#404040" points="251.121,-875.601 243.91,-875.511 241.22,-868.82 248.431,-868.911 251.121,-875.601"/>
<text text-anchor="middle" x="384.064" y="-963" font-family="Helvetica,sans-Serif" font-size="10.00"> +arraySize</text>
<text text-anchor="middle" x="384.064" y="-952" font-family="Helvetica,sans-Serif" font-size="10.00">+size</text>
<text text-anchor="middle" x="384.064" y="-941" font-family="Helvetica,sans-Serif" font-size="10.00">+bitcount</text>
</g>
<!-- Node11 -->
<g id="node11" class="node"><title>Node11</title>
<g id="a_node11"><a xlink:href="../../d6/dd5/classo2_1_1detectors_1_1DetID.html" target="_top" xlink:title="Static class with identifiers, bitmasks and names for ALICE detectors. ">
<polygon fill="none" stroke="black" points="560.564,-379.5 560.564,-645.5 666.564,-645.5 666.564,-379.5 560.564,-379.5"/>
<text text-anchor="middle" x="613.564" y="-633.5" font-family="Helvetica,sans-Serif" font-size="10.00">o2::detectors::DetID</text>
<polyline fill="none" stroke="black" points="560.564,-626.5 666.564,-626.5 "/>
<text text-anchor="start" x="568.564" y="-614.5" font-family="Helvetica,sans-Serif" font-size="10.00">+ ITS</text>
<text text-anchor="start" x="568.564" y="-603.5" font-family="Helvetica,sans-Serif" font-size="10.00">+ TOF</text>
<text text-anchor="start" x="568.564" y="-592.5" font-family="Helvetica,sans-Serif" font-size="10.00">+ PHS</text>
<text text-anchor="start" x="568.564" y="-581.5" font-family="Helvetica,sans-Serif" font-size="10.00">+ CPV</text>
<text text-anchor="start" x="568.564" y="-570.5" font-family="Helvetica,sans-Serif" font-size="10.00">+ EMC</text>
<text text-anchor="start" x="568.564" y="-559.5" font-family="Helvetica,sans-Serif" font-size="10.00">+ HMP</text>
<text text-anchor="start" x="568.564" y="-548.5" font-family="Helvetica,sans-Serif" font-size="10.00">+ MFT</text>
<text text-anchor="start" x="568.564" y="-537.5" font-family="Helvetica,sans-Serif" font-size="10.00">+ MID</text>
<text text-anchor="start" x="568.564" y="-526.5" font-family="Helvetica,sans-Serif" font-size="10.00">+ Last</text>
<polyline fill="none" stroke="black" points="560.564,-519.5 666.564,-519.5 "/>
<text text-anchor="start" x="568.564" y="-507.5" font-family="Helvetica,sans-Serif" font-size="10.00">+ DetID()</text>
<text text-anchor="start" x="568.564" y="-496.5" font-family="Helvetica,sans-Serif" font-size="10.00">+ DetID()</text>
<text text-anchor="start" x="568.564" y="-485.5" font-family="Helvetica,sans-Serif" font-size="10.00">+ DetID()</text>
<text text-anchor="start" x="568.564" y="-474.5" font-family="Helvetica,sans-Serif" font-size="10.00">+ operator=()</text>
<text text-anchor="start" x="568.564" y="-463.5" font-family="Helvetica,sans-Serif" font-size="10.00">+ getID()</text>
<text text-anchor="start" x="568.564" y="-452.5" font-family="Helvetica,sans-Serif" font-size="10.00">+ getMask()</text>
<text text-anchor="start" x="568.564" y="-441.5" font-family="Helvetica,sans-Serif" font-size="10.00">+ getName()</text>
<text text-anchor="start" x="568.564" y="-430.5" font-family="Helvetica,sans-Serif" font-size="10.00">+ operator int()</text>
<text text-anchor="start" x="568.564" y="-419.5" font-family="Helvetica,sans-Serif" font-size="10.00">+ DetID()</text>
<text text-anchor="start" x="568.564" y="-408.5" font-family="Helvetica,sans-Serif" font-size="10.00">+ getNDetectors()</text>
<text text-anchor="start" x="568.564" y="-397.5" font-family="Helvetica,sans-Serif" font-size="10.00">+ getName()</text>
<text text-anchor="start" x="568.564" y="-386.5" font-family="Helvetica,sans-Serif" font-size="10.00">+ getMask()</text>
</a>
</g>
</g>
<!-- Node8&#45;&gt;Node11 -->
<g id="edge14" class="edge"><title>Node8&#45;&gt;Node11</title>
<path fill="none" stroke="#404040" d="M433.116,-1033.47C456.674,-965.591 518.884,-786.329 563.672,-657.267"/>
<polygon fill="none" stroke="#404040" points="563.744,-657.06 561.932,-650.08 567.679,-645.723 569.49,-652.703 563.744,-657.06"/>
<text text-anchor="middle" x="507.064" y="-1007" font-family="Helvetica,sans-Serif" font-size="10.00"> +ACO</text>
<text text-anchor="middle" x="507.064" y="-996" font-family="Helvetica,sans-Serif" font-size="10.00">+First</text>
<text text-anchor="middle" x="507.064" y="-985" font-family="Helvetica,sans-Serif" font-size="10.00">+MCH</text>
<text text-anchor="middle" x="507.064" y="-974" font-family="Helvetica,sans-Serif" font-size="10.00">+FV0</text>
<text text-anchor="middle" x="507.064" y="-963" font-family="Helvetica,sans-Serif" font-size="10.00">+FT0</text>
<text text-anchor="middle" x="507.064" y="-952" font-family="Helvetica,sans-Serif" font-size="10.00">+FDD</text>
<text text-anchor="middle" x="507.064" y="-941" font-family="Helvetica,sans-Serif" font-size="10.00">+TRD</text>
<text text-anchor="middle" x="507.064" y="-930" font-family="Helvetica,sans-Serif" font-size="10.00">+nDetectors</text>
<text text-anchor="middle" x="507.064" y="-919" font-family="Helvetica,sans-Serif" font-size="10.00">+TPC</text>
<text text-anchor="middle" x="507.064" y="-908" font-family="Helvetica,sans-Serif" font-size="10.00">+ZDC</text>
<text text-anchor="middle" x="507.064" y="-897" font-family="Helvetica,sans-Serif" font-size="10.00">...</text>
</g>
<!-- Node9 -->
<g id="node9" class="node"><title>Node9</title>
<polygon fill="none" stroke="#bfbfbf" points="452.064,-215.5 452.064,-283.5 549.064,-283.5 549.064,-215.5 452.064,-215.5"/>
<text text-anchor="start" x="460.064" y="-271.5" font-family="Helvetica,sans-Serif" font-size="10.00">vector&lt; o2::ft0::o2</text>
<text text-anchor="middle" x="500.564" y="-260.5" font-family="Helvetica,sans-Serif" font-size="10.00">::ft0::Digit &gt;</text>
<polyline fill="none" stroke="#bfbfbf" points="452.064,-253.5 549.064,-253.5 "/>
<text text-anchor="middle" x="500.564" y="-241.5" font-family="Helvetica,sans-Serif" font-size="10.00"> </text>
<polyline fill="none" stroke="#bfbfbf" points="452.064,-234.5 549.064,-234.5 "/>
<text text-anchor="middle" x="500.564" y="-222.5" font-family="Helvetica,sans-Serif" font-size="10.00"> </text>
</g>
<!-- Node9&#45;&gt;Node1 -->
<g id="edge11" class="edge"><title>Node9&#45;&gt;Node1</title>
<path fill="none" stroke="#404040" d="M515.091,-215.47C528.254,-186.622 548.863,-144.007 570.564,-109 572.282,-106.229 574.091,-103.428 575.959,-100.626"/>
<polygon fill="none" stroke="#404040" points="576.108,-100.411 576.225,-93.2011 582.925,-90.5359 582.808,-97.7461 576.108,-100.411"/>
<text text-anchor="middle" x="592.064" y="-112" font-family="Helvetica,sans-Serif" font-size="10.00"> #mDigits</text>
</g>
<!-- Node10 -->
<g id="node10" class="node"><title>Node10</title>
<polygon fill="none" stroke="#bfbfbf" points="567.064,-221 567.064,-278 668.064,-278 668.064,-221 567.064,-221"/>
<text text-anchor="middle" x="617.564" y="-266" font-family="Helvetica,sans-Serif" font-size="10.00">unique_ptr&lt; TFile &gt;</text>
<polyline fill="none" stroke="#bfbfbf" points="567.064,-259 668.064,-259 "/>
<text text-anchor="middle" x="617.564" y="-247" font-family="Helvetica,sans-Serif" font-size="10.00"> </text>
<polyline fill="none" stroke="#bfbfbf" points="567.064,-240 668.064,-240 "/>
<text text-anchor="middle" x="617.564" y="-228" font-family="Helvetica,sans-Serif" font-size="10.00"> </text>
</g>
<!-- Node10&#45;&gt;Node1 -->
<g id="edge12" class="edge"><title>Node10&#45;&gt;Node1</title>
<path fill="none" stroke="#404040" d="M617.564,-220.836C617.564,-190.611 617.564,-141.375 617.564,-102.923"/>
<polygon fill="none" stroke="#404040" points="617.564,-102.855 613.564,-96.8552 617.564,-90.8551 621.564,-96.8551 617.564,-102.855"/>
<text text-anchor="middle" x="642.064" y="-112" font-family="Helvetica,sans-Serif" font-size="10.00"> #mOutFile</text>
</g>
<!-- Node11&#45;&gt;Node1 -->
<g id="edge13" class="edge"><title>Node11&#45;&gt;Node1</title>
<path fill="none" stroke="#404040" d="M666.571,-397.949C670.638,-385.684 674.11,-373.219 676.564,-361 698.626,-251.162 719.664,-209.699 670.564,-109 669.227,-106.259 667.743,-103.538 666.145,-100.854"/>
<polygon fill="none" stroke="#404040" points="666.075,-100.748 659.439,-97.9277 659.489,-90.7167 666.126,-93.5371 666.075,-100.748"/>
<text text-anchor="middle" x="714.564" y="-247" font-family="Helvetica,sans-Serif" font-size="10.00"> #mID</text>
</g>
<!-- Node12 -->
<g id="node12" class="node"><title>Node12</title>
<polygon fill="none" stroke="#bfbfbf" points="751.064,-221 751.064,-278 856.064,-278 856.064,-221 751.064,-221"/>
<text text-anchor="middle" x="803.564" y="-266" font-family="Helvetica,sans-Serif" font-size="10.00">unique_ptr&lt; TTree &gt;</text>
<polyline fill="none" stroke="#bfbfbf" points="751.064,-259 856.064,-259 "/>
<text text-anchor="middle" x="803.564" y="-247" font-family="Helvetica,sans-Serif" font-size="10.00"> </text>
<polyline fill="none" stroke="#bfbfbf" points="751.064,-240 856.064,-240 "/>
<text text-anchor="middle" x="803.564" y="-228" font-family="Helvetica,sans-Serif" font-size="10.00"> </text>
</g>
<!-- Node12&#45;&gt;Node1 -->
<g id="edge15" class="edge"><title>Node12&#45;&gt;Node1</title>
<path fill="none" stroke="#404040" d="M791.658,-220.96C777.571,-190.753 751.776,-142.167 718.564,-109 711.38,-101.826 703.224,-95.0998 694.735,-88.9144"/>
<polygon fill="none" stroke="#404040" points="694.508,-88.7568 687.299,-88.6164 684.655,-81.9072 691.865,-82.0476 694.508,-88.7568"/>
<text text-anchor="middle" x="754.564" y="-112" font-family="Helvetica,sans-Serif" font-size="10.00"> #mOutTree</text>
</g>
<!-- Node13 -->
<g id="node13" class="node"><title>Node13</title>
<polygon fill="none" stroke="#bfbfbf" points="874.064,-221 874.064,-278 909.064,-278 909.064,-221 874.064,-221"/>
<text text-anchor="middle" x="891.564" y="-266" font-family="Helvetica,sans-Serif" font-size="10.00">bool</text>
<polyline fill="none" stroke="#bfbfbf" points="874.064,-259 909.064,-259 "/>
<text text-anchor="middle" x="891.564" y="-247" font-family="Helvetica,sans-Serif" font-size="10.00"> </text>
<polyline fill="none" stroke="#bfbfbf" points="874.064,-240 909.064,-240 "/>
<text text-anchor="middle" x="891.564" y="-228" font-family="Helvetica,sans-Serif" font-size="10.00"> </text>
</g>
<!-- Node13&#45;&gt;Node1 -->
<g id="edge16" class="edge"><title>Node13&#45;&gt;Node1</title>
<path fill="none" stroke="#404040" d="M891.757,-220.667C890.457,-196.082 884.796,-160.706 864.564,-138 821.786,-89.9904 751.481,-67.1159 696.795,-56.249"/>
<polygon fill="none" stroke="#404040" points="696.469,-56.1883 689.837,-59.018 684.674,-53.9838 691.306,-51.1541 696.469,-56.1883"/>
<text text-anchor="middle" x="871.564" y="-112" font-family="Helvetica,sans-Serif" font-size="10.00"> #mFinished</text>
</g>
</g>
</svg>
