<?xml version="1.0" encoding="UTF-8" standalone="no"?>
<!DOCTYPE svg PUBLIC "-//W3C//DTD SVG 1.1//EN"
 "http://www.w3.org/Graphics/SVG/1.1/DTD/svg11.dtd">
<!-- Generated by graphviz version 2.38.0 (20140413.2041)
 -->
<!-- Title: /home/travis/build/AliceO2Group/AliceO2/GPU/GPUTracking/TPCClusterFinder/GPUTPCClusterFinderKernels.h Pages: 1 -->
<!--zoomable 565 -->
<svg id="main" version="1.1" xmlns="http://www.w3.org/2000/svg" xmlns:xlink="http://www.w3.org/1999/xlink" xml:space="preserve" onload="init(evt)">
<style type="text/css"><![CDATA[
.edge:hover path { stroke: red; }
.edge:hover polygon { stroke: red; fill: red; }
]]></style>
<script type="text/javascript"><![CDATA[
var edges = document.getElementsByTagName('g');
if (edges && edges.length) {
  for (var i=0;i<edges.length;i++) {
    if (edges[i].id.substr(0,4)=='edge') {
      edges[i].setAttribute('class','edge');
    }
  }
}
]]></script>
        <defs>
                <circle id="rim" cx="0" cy="0" r="7"/>
                <circle id="rim2" cx="0" cy="0" r="3.5"/>
                <g id="zoomPlus">
                        <use xlink:href="#rim" fill="#404040">
                                <set attributeName="fill" to="#808080" begin="zoomplus.mouseover" end="zoomplus.mouseout"/>
                        </use>
                        <path d="M-4,0h8M0,-4v8" fill="none" stroke="white" stroke-width="1.5" pointer-events="none"/>
                </g>
                <g id="zoomMin">
                        <use xlink:href="#rim" fill="#404040">
                                <set attributeName="fill" to="#808080" begin="zoomminus.mouseover" end="zoomminus.mouseout"/>
                        </use>
                        <path d="M-4,0h8" fill="none" stroke="white" stroke-width="1.5" pointer-events="none"/>
                </g>
                <g id="dirArrow">
                        <path fill="none" stroke="white" stroke-width="1.5" d="M0,-3.0v7 M-2.5,-0.5L0,-3.0L2.5,-0.5"/>
                </g>
               <g id="resetDef">
                       <use xlink:href="#rim2" fill="#404040">
                               <set attributeName="fill" to="#808080" begin="reset.mouseover" end="reset.mouseout"/>
                       </use>
               </g>
        </defs>

<script type="text/javascript">
var viewWidth = 1626;
var viewHeight = 565;
var sectionId = 'dynsection-0';
</script>
<script xlink:href="../../svgpan.js"/>
<svg id="graph" class="graph">
<g id="viewport">
<title>/home/travis/build/AliceO2Group/AliceO2/GPU/GPUTracking/TPCClusterFinder/GPUTPCClusterFinderKernels.h</title>
<!-- Node1 -->
<g id="node1" class="node"><title>Node1</title>
<polygon fill="#bfbfbf" stroke="black" points="1231.24,-504.5 1231.24,-556.5 1416.24,-556.5 1416.24,-504.5 1231.24,-504.5"/>
<text text-anchor="start" x="1239.24" y="-544.5" font-family="Helvetica,sans-Serif" font-size="10.00">/home/travis/build</text>
<text text-anchor="start" x="1239.24" y="-533.5" font-family="Helvetica,sans-Serif" font-size="10.00">/AliceO2Group/AliceO2</text>
<text text-anchor="start" x="1239.24" y="-522.5" font-family="Helvetica,sans-Serif" font-size="10.00">/GPU/GPUTracking/TPCClusterFinder</text>
<text text-anchor="middle" x="1323.74" y="-511.5" font-family="Helvetica,sans-Serif" font-size="10.00">/GPUTPCClusterFinderKernels.h</text>
</g>
<!-- Node2 -->
<g id="node2" class="node"><title>Node2</title>
<g id="a_node2"><a xlink:href="../../d9/de5/GPUGeneralKernels_8h.html" target="_top" xlink:title="GPUGeneralKernels.h">
<polygon fill="none" stroke="black" points="1126.24,-224.5 1126.24,-243.5 1239.24,-243.5 1239.24,-224.5 1126.24,-224.5"/>
<text text-anchor="middle" x="1182.74" y="-231.5" font-family="Helvetica,sans-Serif" font-size="10.00">GPUGeneralKernels.h</text>
</a>
</g>
</g>
<!-- Node1&#45;&gt;Node2 -->
<g id="edge1" class="edge"><title>Node1&#45;&gt;Node2</title>
<path fill="none" stroke="midnightblue" d="M1311.43,-504.391C1305.99,-493.255 1299.52,-479.985 1293.74,-468 1255.16,-387.97 1209.76,-292.134 1191.24,-252.987"/>
<polygon fill="midnightblue" stroke="midnightblue" points="1194.39,-251.447 1186.95,-243.902 1188.06,-254.439 1194.39,-251.447"/>
</g>
<!-- Node14 -->
<g id="node14" class="node"><title>Node14</title>
<g id="a_node14"><a xlink:href="../../db/df8/GPUConstantMem_8h.html" target="_top" xlink:title="GPUConstantMem.h">
<polygon fill="none" stroke="black" points="1132.74,-448.5 1132.74,-467.5 1240.74,-467.5 1240.74,-448.5 1132.74,-448.5"/>
<text text-anchor="middle" x="1186.74" y="-455.5" font-family="Helvetica,sans-Serif" font-size="10.00">GPUConstantMem.h</text>
</a>
</g>
</g>
<!-- Node1&#45;&gt;Node14 -->
<g id="edge14" class="edge"><title>Node1&#45;&gt;Node14</title>
<path fill="none" stroke="midnightblue" d="M1275.06,-504.446C1253.9,-493.56 1229.99,-481.254 1212.39,-472.196"/>
<polygon fill="midnightblue" stroke="midnightblue" points="1213.81,-468.991 1203.31,-467.527 1210.61,-475.215 1213.81,-468.991"/>
</g>
<!-- Node35 -->
<g id="node35" class="node"><title>Node35</title>
<g id="a_node35"><a xlink:href="../../d5/df1/GPUTPCSharedMemoryData_8h.html" target="_top" xlink:title="GPUTPCSharedMemoryData.h">
<polygon fill="none" stroke="black" points="1302.74,-448.5 1302.74,-467.5 1456.74,-467.5 1456.74,-448.5 1302.74,-448.5"/>
<text text-anchor="middle" x="1379.74" y="-455.5" font-family="Helvetica,sans-Serif" font-size="10.00">GPUTPCSharedMemoryData.h</text>
</a>
</g>
</g>
<!-- Node1&#45;&gt;Node35 -->
<g id="edge61" class="edge"><title>Node1&#45;&gt;Node35</title>
<path fill="none" stroke="midnightblue" d="M1343.65,-504.446C1351.21,-494.929 1359.63,-484.327 1366.43,-475.758"/>
<polygon fill="midnightblue" stroke="midnightblue" points="1369.36,-477.703 1372.84,-467.695 1363.88,-473.349 1369.36,-477.703"/>
</g>
<!-- Node36 -->
<g id="node36" class="node"><title>Node36</title>
<g id="a_node36"><a xlink:href="../../d9/db0/clusterFinderDefs_8h.html" target="_top" xlink:title="clusterFinderDefs.h">
<polygon fill="none" stroke="black" points="1439.74,-336.5 1439.74,-355.5 1541.74,-355.5 1541.74,-336.5 1439.74,-336.5"/>
<text text-anchor="middle" x="1490.74" y="-343.5" font-family="Helvetica,sans-Serif" font-size="10.00">clusterFinderDefs.h</text>
</a>
</g>
</g>
<!-- Node1&#45;&gt;Node36 -->
<g id="edge70" class="edge"><title>Node1&#45;&gt;Node36</title>
<path fill="none" stroke="midnightblue" d="M1416.52,-504.534C1435.11,-495.694 1452.86,-483.839 1465.74,-468 1489.69,-438.563 1492.48,-392.028 1491.92,-366.084"/>
<polygon fill="midnightblue" stroke="midnightblue" points="1495.4,-365.593 1491.49,-355.747 1488.41,-365.884 1495.4,-365.593"/>
</g>
<!-- Node3 -->
<g id="node3" class="node"><title>Node3</title>
<g id="a_node3"><a xlink:href="../../d2/d6d/GPUDef_8h.html" target="_top" xlink:title="GPUDef.h">
<polygon fill="none" stroke="black" points="605.745,-112.5 605.745,-131.5 667.745,-131.5 667.745,-112.5 605.745,-112.5"/>
<text text-anchor="middle" x="636.745" y="-119.5" font-family="Helvetica,sans-Serif" font-size="10.00">GPUDef.h</text>
</a>
</g>
</g>
<!-- Node2&#45;&gt;Node3 -->
<g id="edge2" class="edge"><title>Node2&#45;&gt;Node3</title>
<path fill="none" stroke="midnightblue" d="M1177.05,-224.378C1166.9,-209.833 1144.16,-180.758 1116.74,-168 1106.82,-163.382 792.52,-136.256 677.98,-126.496"/>
<polygon fill="midnightblue" stroke="midnightblue" points="678.113,-122.995 667.852,-125.634 677.519,-129.97 678.113,-122.995"/>
</g>
<!-- Node12 -->
<g id="node12" class="node"><title>Node12</title>
<g id="a_node12"><a xlink:href="../../d4/dc5/GPUDataTypes_8h.html" target="_top" xlink:title="GPUDataTypes.h">
<polygon fill="none" stroke="black" points="1164.24,-168.5 1164.24,-187.5 1259.24,-187.5 1259.24,-168.5 1164.24,-168.5"/>
<text text-anchor="middle" x="1211.74" y="-175.5" font-family="Helvetica,sans-Serif" font-size="10.00">GPUDataTypes.h</text>
</a>
</g>
</g>
<!-- Node2&#45;&gt;Node12 -->
<g id="edge11" class="edge"><title>Node2&#45;&gt;Node12</title>
<path fill="none" stroke="midnightblue" d="M1187.53,-224.083C1191.5,-216.691 1197.27,-205.953 1202.18,-196.811"/>
<polygon fill="midnightblue" stroke="midnightblue" points="1205.4,-198.217 1207.05,-187.751 1199.23,-194.905 1205.4,-198.217"/>
</g>
<!-- Node4 -->
<g id="node4" class="node"><title>Node4</title>
<g id="a_node4"><a xlink:href="../../df/d21/GPUCommonDef_8h.html" target="_top" xlink:title="GPUCommonDef.h">
<polygon fill="none" stroke="black" points="899.745,-56.5 899.745,-75.5 1001.74,-75.5 1001.74,-56.5 899.745,-56.5"/>
<text text-anchor="middle" x="950.745" y="-63.5" font-family="Helvetica,sans-Serif" font-size="10.00">GPUCommonDef.h</text>
</a>
</g>
</g>
<!-- Node3&#45;&gt;Node4 -->
<g id="edge3" class="edge"><title>Node3&#45;&gt;Node4</title>
<path fill="none" stroke="midnightblue" d="M668.192,-114.579C672.735,-113.69 677.356,-112.806 681.745,-112 752.842,-98.9469 834.804,-85.4592 889.389,-76.6971"/>
<polygon fill="midnightblue" stroke="midnightblue" points="890.271,-80.1005 899.592,-75.0632 889.164,-73.1886 890.271,-80.1005"/>
</g>
<!-- Node7 -->
<g id="node7" class="node"><title>Node7</title>
<g id="a_node7"><a xlink:href="../../d2/d37/GPUDefConstantsAndSettings_8h.html" target="_top" xlink:title="GPUDefConstantsAndSettings.h">
<polygon fill="none" stroke="black" points="392.245,-56.5 392.245,-75.5 553.245,-75.5 553.245,-56.5 392.245,-56.5"/>
<text text-anchor="middle" x="472.745" y="-63.5" font-family="Helvetica,sans-Serif" font-size="10.00">GPUDefConstantsAndSettings.h</text>
</a>
</g>
</g>
<!-- Node3&#45;&gt;Node7 -->
<g id="edge6" class="edge"><title>Node3&#45;&gt;Node7</title>
<path fill="none" stroke="midnightblue" d="M610.758,-112.444C583.049,-103.32 538.992,-88.8133 508.129,-78.6509"/>
<polygon fill="midnightblue" stroke="midnightblue" points="509.202,-75.3196 498.609,-75.5164 507.013,-81.9684 509.202,-75.3196"/>
</g>
<!-- Node8 -->
<g id="node8" class="node"><title>Node8</title>
<g id="a_node8"><a xlink:href="../../dc/de9/GPUDefGPUParameters_8h.html" target="_top" xlink:title="GPUDefGPUParameters.h">
<polygon fill="none" stroke="black" points="571.745,-56.5 571.745,-75.5 705.745,-75.5 705.745,-56.5 571.745,-56.5"/>
<text text-anchor="middle" x="638.745" y="-63.5" font-family="Helvetica,sans-Serif" font-size="10.00">GPUDefGPUParameters.h</text>
</a>
</g>
</g>
<!-- Node3&#45;&gt;Node8 -->
<g id="edge7" class="edge"><title>Node3&#45;&gt;Node8</title>
<path fill="none" stroke="midnightblue" d="M637.075,-112.083C637.337,-105.006 637.713,-94.8611 638.041,-85.9865"/>
<polygon fill="midnightblue" stroke="midnightblue" points="641.548,-85.8738 638.421,-75.7511 634.553,-85.6147 641.548,-85.8738"/>
</g>
<!-- Node9 -->
<g id="node9" class="node"><title>Node9</title>
<g id="a_node9"><a xlink:href="../../d3/d4c/GPUDefOpenCL12Templates_8h.html" target="_top" xlink:title="GPUDefOpenCL12Templates.h">
<polygon fill="none" stroke="black" points="724.245,-56.5 724.245,-75.5 879.245,-75.5 879.245,-56.5 724.245,-56.5"/>
<text text-anchor="middle" x="801.745" y="-63.5" font-family="Helvetica,sans-Serif" font-size="10.00">GPUDefOpenCL12Templates.h</text>
</a>
</g>
</g>
<!-- Node3&#45;&gt;Node9 -->
<g id="edge8" class="edge"><title>Node3&#45;&gt;Node9</title>
<path fill="none" stroke="midnightblue" d="M662.889,-112.444C690.768,-103.32 735.093,-88.8133 766.145,-78.6509"/>
<polygon fill="midnightblue" stroke="midnightblue" points="767.307,-81.9533 775.722,-75.5164 765.13,-75.3005 767.307,-81.9533"/>
</g>
<!-- Node10 -->
<g id="node10" class="node"><title>Node10</title>
<g id="a_node10"><a xlink:href="../../d2/d45/GPUCommonRtypes_8h.html" target="_top" xlink:title="GPUCommonRtypes.h">
<polygon fill="none" stroke="black" points="255.745,-56.5 255.745,-75.5 373.745,-75.5 373.745,-56.5 255.745,-56.5"/>
<text text-anchor="middle" x="314.745" y="-63.5" font-family="Helvetica,sans-Serif" font-size="10.00">GPUCommonRtypes.h</text>
</a>
</g>
</g>
<!-- Node3&#45;&gt;Node10 -->
<g id="edge9" class="edge"><title>Node3&#45;&gt;Node10</title>
<path fill="none" stroke="midnightblue" d="M605.577,-115.773C552.658,-106.899 444.327,-88.7313 375.852,-77.2479"/>
<polygon fill="midnightblue" stroke="midnightblue" points="376.076,-73.7366 365.635,-75.5344 374.918,-80.6402 376.076,-73.7366"/>
</g>
<!-- Node5 -->
<g id="node5" class="node"><title>Node5</title>
<g id="a_node5"><a xlink:href="../../d5/d93/GPUCommonDefSettings_8h.html" target="_top" xlink:title="GPUCommonDefSettings.h">
<polygon fill="none" stroke="black" points="954.745,-0.5 954.745,-19.5 1092.74,-19.5 1092.74,-0.5 954.745,-0.5"/>
<text text-anchor="middle" x="1023.74" y="-7.5" font-family="Helvetica,sans-Serif" font-size="10.00">GPUCommonDefSettings.h</text>
</a>
</g>
</g>
<!-- Node4&#45;&gt;Node5 -->
<g id="edge4" class="edge"><title>Node4&#45;&gt;Node5</title>
<path fill="none" stroke="midnightblue" d="M962.473,-56.324C973.582,-48.1066 990.487,-35.6017 1003.73,-25.8069"/>
<polygon fill="midnightblue" stroke="midnightblue" points="1005.84,-28.5948 1011.8,-19.8339 1001.68,-22.9671 1005.84,-28.5948"/>
</g>
<!-- Node6 -->
<g id="node6" class="node"><title>Node6</title>
<g id="a_node6"><a xlink:href="../../da/d5a/GPUCommonDefAPI_8h.html" target="_top" xlink:title="GPUCommonDefAPI.h">
<polygon fill="none" stroke="black" points="817.245,-0.5 817.245,-19.5 936.245,-19.5 936.245,-0.5 817.245,-0.5"/>
<text text-anchor="middle" x="876.745" y="-7.5" font-family="Helvetica,sans-Serif" font-size="10.00">GPUCommonDefAPI.h</text>
</a>
</g>
</g>
<!-- Node4&#45;&gt;Node6 -->
<g id="edge5" class="edge"><title>Node4&#45;&gt;Node6</title>
<path fill="none" stroke="midnightblue" d="M938.855,-56.324C927.594,-48.1066 910.458,-35.6017 897.036,-25.8069"/>
<polygon fill="midnightblue" stroke="midnightblue" points="898.991,-22.9014 888.85,-19.8339 894.865,-28.5559 898.991,-22.9014"/>
</g>
<!-- Node11 -->
<g id="node11" class="node"><title>Node11</title>
<polygon fill="none" stroke="#bfbfbf" points="286.745,-0.5 286.745,-19.5 342.745,-19.5 342.745,-0.5 286.745,-0.5"/>
<text text-anchor="middle" x="314.745" y="-7.5" font-family="Helvetica,sans-Serif" font-size="10.00">Rtypes.h</text>
</g>
<!-- Node10&#45;&gt;Node11 -->
<g id="edge10" class="edge"><title>Node10&#45;&gt;Node11</title>
<path fill="none" stroke="midnightblue" d="M314.745,-56.083C314.745,-49.0059 314.745,-38.8611 314.745,-29.9865"/>
<polygon fill="midnightblue" stroke="midnightblue" points="318.245,-29.751 314.745,-19.7511 311.245,-29.7511 318.245,-29.751"/>
</g>
<!-- Node12&#45;&gt;Node4 -->
<g id="edge12" class="edge"><title>Node12&#45;&gt;Node4</title>
<path fill="none" stroke="midnightblue" d="M1196.84,-168.449C1173.47,-155.246 1126.52,-129.589 1084.74,-112 1053.56,-98.8691 1017.09,-86.8285 990.082,-78.513"/>
<polygon fill="midnightblue" stroke="midnightblue" points="990.81,-75.0759 980.224,-75.5139 988.772,-81.7729 990.81,-75.0759"/>
</g>
<!-- Node13 -->
<g id="node13" class="node"><title>Node13</title>
<polygon fill="none" stroke="#bfbfbf" points="836.245,-112.5 836.245,-131.5 885.245,-131.5 885.245,-112.5 836.245,-112.5"/>
<text text-anchor="middle" x="860.745" y="-119.5" font-family="Helvetica,sans-Serif" font-size="10.00">cstddef</text>
</g>
<!-- Node12&#45;&gt;Node13 -->
<g id="edge13" class="edge"><title>Node12&#45;&gt;Node13</title>
<path fill="none" stroke="midnightblue" d="M1164.04,-169.661C1092.46,-158.648 958.915,-138.103 895.673,-128.374"/>
<polygon fill="midnightblue" stroke="midnightblue" points="895.844,-124.859 885.429,-126.798 894.78,-131.777 895.844,-124.859"/>
</g>
<!-- Node14&#45;&gt;Node12 -->
<g id="edge57" class="edge"><title>Node14&#45;&gt;Node12</title>
<path fill="none" stroke="midnightblue" d="M1190.26,-448.27C1201.6,-419.616 1237.11,-325.595 1248.74,-244 1250,-235.2 1251.74,-232.368 1248.74,-224 1244.8,-213.003 1236.89,-202.769 1229.39,-194.848"/>
<polygon fill="midnightblue" stroke="midnightblue" points="1231.76,-192.278 1222.18,-187.755 1226.85,-197.266 1231.76,-192.278"/>
</g>
<!-- Node15 -->
<g id="node15" class="node"><title>Node15</title>
<g id="a_node15"><a xlink:href="../../d6/d25/GPUTPCTracker_8h.html" target="_top" xlink:title="GPUTPCTracker.h">
<polygon fill="none" stroke="black" points="713.745,-392.5 713.745,-411.5 813.745,-411.5 813.745,-392.5 713.745,-392.5"/>
<text text-anchor="middle" x="763.745" y="-399.5" font-family="Helvetica,sans-Serif" font-size="10.00">GPUTPCTracker.h</text>
</a>
</g>
</g>
<!-- Node14&#45;&gt;Node15 -->
<g id="edge15" class="edge"><title>Node14&#45;&gt;Node15</title>
<path fill="none" stroke="midnightblue" d="M1132.74,-450.106C1053.53,-439.993 906.306,-421.199 823.787,-410.665"/>
<polygon fill="midnightblue" stroke="midnightblue" points="824.172,-407.186 813.809,-409.391 823.285,-414.129 824.172,-407.186"/>
</g>
<!-- Node25 -->
<g id="node25" class="node"><title>Node25</title>
<g id="a_node25"><a xlink:href="../../df/d13/GPUParam_8h.html" target="_top" xlink:title="GPUParam.h">
<polygon fill="none" stroke="black" points="839.245,-280.5 839.245,-299.5 914.245,-299.5 914.245,-280.5 839.245,-280.5"/>
<text text-anchor="middle" x="876.745" y="-287.5" font-family="Helvetica,sans-Serif" font-size="10.00">GPUParam.h</text>
</a>
</g>
</g>
<!-- Node14&#45;&gt;Node25 -->
<g id="edge56" class="edge"><title>Node14&#45;&gt;Node25</title>
<path fill="none" stroke="midnightblue" d="M1175.69,-448.357C1147.94,-426.97 1072.55,-370.791 1002.74,-336 974.94,-322.142 941.796,-310.482 916.482,-302.505"/>
<polygon fill="midnightblue" stroke="midnightblue" points="917.433,-299.135 906.846,-299.526 915.366,-305.823 917.433,-299.135"/>
</g>
<!-- Node34 -->
<g id="node34" class="node"><title>Node34</title>
<g id="a_node34"><a xlink:href="../../da/d28/GPUO2FakeClasses_8h.html" target="_top" xlink:title="GPUO2FakeClasses.h">
<polygon fill="none" stroke="black" points="1296.24,-224.5 1296.24,-243.5 1413.24,-243.5 1413.24,-224.5 1296.24,-224.5"/>
<text text-anchor="middle" x="1354.74" y="-231.5" font-family="Helvetica,sans-Serif" font-size="10.00">GPUO2FakeClasses.h</text>
</a>
</g>
</g>
<!-- Node14&#45;&gt;Node34 -->
<g id="edge58" class="edge"><title>Node14&#45;&gt;Node34</title>
<path fill="none" stroke="midnightblue" d="M1200.19,-448.44C1212.65,-440.103 1231.23,-426.582 1244.74,-412 1292.01,-360.998 1330.31,-286.809 1346.46,-252.998"/>
<polygon fill="midnightblue" stroke="midnightblue" points="1349.83,-254.059 1350.91,-243.52 1343.49,-251.084 1349.83,-254.059"/>
</g>
<!-- Node16 -->
<g id="node16" class="node"><title>Node16</title>
<g id="a_node16"><a xlink:href="../../da/dab/GPUTPCDef_8h.html" target="_top" xlink:title="GPUTPCDef.h">
<polygon fill="none" stroke="black" points="234.245,-168.5 234.245,-187.5 317.245,-187.5 317.245,-168.5 234.245,-168.5"/>
<text text-anchor="middle" x="275.745" y="-175.5" font-family="Helvetica,sans-Serif" font-size="10.00">GPUTPCDef.h</text>
</a>
</g>
</g>
<!-- Node15&#45;&gt;Node16 -->
<g id="edge16" class="edge"><title>Node15&#45;&gt;Node16</title>
<path fill="none" stroke="midnightblue" d="M713.553,-400.575C566.364,-398.346 139.613,-384.569 34.7447,-300 7.17153,-277.764 -12.1098,-251.063 10.7447,-224 37.4862,-192.335 154.704,-182.947 223.965,-180.167"/>
<polygon fill="midnightblue" stroke="midnightblue" points="224.369,-183.655 234.234,-179.789 224.112,-176.659 224.369,-183.655"/>
</g>
<!-- Node17 -->
<g id="node17" class="node"><title>Node17</title>
<polygon fill="none" stroke="#bfbfbf" points="833.745,-336.5 833.745,-355.5 887.745,-355.5 887.745,-336.5 833.745,-336.5"/>
<text text-anchor="middle" x="860.745" y="-343.5" font-family="Helvetica,sans-Serif" font-size="10.00">iostream</text>
</g>
<!-- Node15&#45;&gt;Node17 -->
<g id="edge18" class="edge"><title>Node15&#45;&gt;Node17</title>
<path fill="none" stroke="midnightblue" d="M779.329,-392.324C794.744,-383.743 818.557,-370.486 836.454,-360.522"/>
<polygon fill="midnightblue" stroke="midnightblue" points="838.164,-363.577 845.199,-355.655 834.759,-357.461 838.164,-363.577"/>
</g>
<!-- Node18 -->
<g id="node18" class="node"><title>Node18</title>
<g id="a_node18"><a xlink:href="../../dd/d7b/GPUTPCHitId_8h.html" target="_top" xlink:title="GPUTPCHitId.h">
<polygon fill="none" stroke="black" points="905.745,-336.5 905.745,-355.5 993.745,-355.5 993.745,-336.5 905.745,-336.5"/>
<text text-anchor="middle" x="949.745" y="-343.5" font-family="Helvetica,sans-Serif" font-size="10.00">GPUTPCHitId.h</text>
</a>
</g>
</g>
<!-- Node15&#45;&gt;Node18 -->
<g id="edge19" class="edge"><title>Node15&#45;&gt;Node18</title>
<path fill="none" stroke="midnightblue" d="M793.217,-392.444C824.916,-383.241 875.477,-368.562 910.52,-358.388"/>
<polygon fill="midnightblue" stroke="midnightblue" points="911.783,-361.666 920.41,-355.516 909.831,-354.943 911.783,-361.666"/>
</g>
<!-- Node19 -->
<g id="node19" class="node"><title>Node19</title>
<g id="a_node19"><a xlink:href="../../df/d4a/GPUTPCSliceData_8h.html" target="_top" xlink:title="GPUTPCSliceData.h">
<polygon fill="none" stroke="black" points="665.745,-336.5 665.745,-355.5 775.745,-355.5 775.745,-336.5 665.745,-336.5"/>
<text text-anchor="middle" x="720.745" y="-343.5" font-family="Helvetica,sans-Serif" font-size="10.00">GPUTPCSliceData.h</text>
</a>
</g>
</g>
<!-- Node15&#45;&gt;Node19 -->
<g id="edge20" class="edge"><title>Node15&#45;&gt;Node19</title>
<path fill="none" stroke="midnightblue" d="M756.644,-392.083C750.508,-384.377 741.475,-373.033 734.005,-363.653"/>
<polygon fill="midnightblue" stroke="midnightblue" points="736.68,-361.394 727.713,-355.751 731.204,-365.754 736.68,-361.394"/>
</g>
<!-- Node30 -->
<g id="node30" class="node"><title>Node30</title>
<g id="a_node30"><a xlink:href="../../d6/d57/GPUProcessor_8h.html" target="_top" xlink:title="GPUProcessor.h">
<polygon fill="none" stroke="black" points="724.245,-168.5 724.245,-187.5 815.245,-187.5 815.245,-168.5 724.245,-168.5"/>
<text text-anchor="middle" x="769.745" y="-175.5" font-family="Helvetica,sans-Serif" font-size="10.00">GPUProcessor.h</text>
</a>
</g>
</g>
<!-- Node15&#45;&gt;Node30 -->
<g id="edge55" class="edge"><title>Node15&#45;&gt;Node30</title>
<path fill="none" stroke="midnightblue" d="M769.078,-392.432C774.211,-383.658 781.637,-369.439 784.745,-356 797.963,-298.835 797.284,-281.719 786.745,-224 785.057,-214.757 781.57,-204.948 778.19,-196.855"/>
<polygon fill="midnightblue" stroke="midnightblue" points="781.376,-195.405 774.111,-187.693 774.981,-198.252 781.376,-195.405"/>
</g>
<!-- Node31 -->
<g id="node31" class="node"><title>Node31</title>
<g id="a_node31"><a xlink:href="../../de/d15/GPUTPCTrackParam_8h.html" target="_top" xlink:title="GPUTPCTrackParam.h">
<polygon fill="none" stroke="black" points="163.745,-280.5 163.745,-299.5 283.745,-299.5 283.745,-280.5 163.745,-280.5"/>
<text text-anchor="middle" x="223.745" y="-287.5" font-family="Helvetica,sans-Serif" font-size="10.00">GPUTPCTrackParam.h</text>
</a>
</g>
</g>
<!-- Node15&#45;&gt;Node31 -->
<g id="edge47" class="edge"><title>Node15&#45;&gt;Node31</title>
<path fill="none" stroke="midnightblue" d="M721.821,-392.46C624.237,-372.582 382.117,-323.261 275.525,-301.548"/>
<polygon fill="midnightblue" stroke="midnightblue" points="276.139,-298.101 265.642,-299.535 274.742,-304.96 276.139,-298.101"/>
</g>
<!-- Node33 -->
<g id="node33" class="node"><title>Node33</title>
<g id="a_node33"><a xlink:href="../../db/d6e/GPUTPCTracklet_8h.html" target="_top" xlink:title="GPUTPCTracklet.h">
<polygon fill="none" stroke="black" points="43.7447,-280.5 43.7447,-299.5 145.745,-299.5 145.745,-280.5 43.7447,-280.5"/>
<text text-anchor="middle" x="94.7447" y="-287.5" font-family="Helvetica,sans-Serif" font-size="10.00">GPUTPCTracklet.h</text>
</a>
</g>
</g>
<!-- Node15&#45;&gt;Node33 -->
<g id="edge52" class="edge"><title>Node15&#45;&gt;Node33</title>
<path fill="none" stroke="midnightblue" d="M713.715,-394.738C650.307,-386.634 537.7,-371.683 441.745,-356 336.744,-338.838 214.593,-315.064 146.828,-301.536"/>
<polygon fill="midnightblue" stroke="midnightblue" points="147.324,-298.066 136.832,-299.536 145.951,-304.93 147.324,-298.066"/>
</g>
<!-- Node16&#45;&gt;Node3 -->
<g id="edge17" class="edge"><title>Node16&#45;&gt;Node3</title>
<path fill="none" stroke="midnightblue" d="M317.509,-170.753C387.064,-160.348 525.83,-139.591 595.224,-129.211"/>
<polygon fill="midnightblue" stroke="midnightblue" points="595.971,-132.638 605.343,-127.697 594.936,-125.715 595.971,-132.638"/>
</g>
<!-- Node19&#45;&gt;Node16 -->
<g id="edge21" class="edge"><title>Node19&#45;&gt;Node16</title>
<path fill="none" stroke="midnightblue" d="M692.861,-336.439C641.43,-320.35 528.501,-283.637 436.745,-244 418.862,-236.275 415.582,-231.829 397.745,-224 369.22,-211.48 336,-199.382 311.434,-190.89"/>
<polygon fill="midnightblue" stroke="midnightblue" points="312.403,-187.522 301.808,-187.593 310.135,-194.144 312.403,-187.522"/>
</g>
<!-- Node20 -->
<g id="node20" class="node"><title>Node20</title>
<g id="a_node20"><a xlink:href="../../d8/dff/GPUTPCRow_8h.html" target="_top" xlink:title="GPUTPCRow.h">
<polygon fill="none" stroke="black" points="302.245,-280.5 302.245,-299.5 389.245,-299.5 389.245,-280.5 302.245,-280.5"/>
<text text-anchor="middle" x="345.745" y="-287.5" font-family="Helvetica,sans-Serif" font-size="10.00">GPUTPCRow.h</text>
</a>
</g>
</g>
<!-- Node19&#45;&gt;Node20 -->
<g id="edge22" class="edge"><title>Node19&#45;&gt;Node20</title>
<path fill="none" stroke="midnightblue" d="M665.737,-337.411C602.49,-328.634 495.566,-313.641 403.745,-300 402.296,-299.785 400.827,-299.565 399.344,-299.343"/>
<polygon fill="midnightblue" stroke="midnightblue" points="399.851,-295.88 389.44,-297.842 398.803,-302.801 399.851,-295.88"/>
</g>
<!-- Node22 -->
<g id="node22" class="node"><title>Node22</title>
<g id="a_node22"><a xlink:href="../../d6/da2/GPUCommonMath_8h.html" target="_top" xlink:title="GPUCommonMath.h">
<polygon fill="none" stroke="black" points="999.745,-168.5 999.745,-187.5 1107.74,-187.5 1107.74,-168.5 999.745,-168.5"/>
<text text-anchor="middle" x="1053.74" y="-175.5" font-family="Helvetica,sans-Serif" font-size="10.00">GPUCommonMath.h</text>
</a>
</g>
</g>
<!-- Node19&#45;&gt;Node22 -->
<g id="edge26" class="edge"><title>Node19&#45;&gt;Node22</title>
<path fill="none" stroke="midnightblue" d="M775.929,-336.92C817.211,-329.874 874.598,-317.934 922.745,-300 971.94,-281.675 991.53,-282.934 1026.74,-244 1038.65,-230.842 1045.73,-211.702 1049.64,-197.597"/>
<polygon fill="midnightblue" stroke="midnightblue" points="1053.11,-198.124 1052.12,-187.576 1046.32,-196.441 1053.11,-198.124"/>
</g>
<!-- Node19&#45;&gt;Node25 -->
<g id="edge30" class="edge"><title>Node19&#45;&gt;Node25</title>
<path fill="none" stroke="midnightblue" d="M745.463,-336.444C771.593,-327.399 813.004,-313.064 842.321,-302.916"/>
<polygon fill="midnightblue" stroke="midnightblue" points="843.837,-306.095 852.142,-299.516 841.547,-299.48 843.837,-306.095"/>
</g>
<!-- Node29 -->
<g id="node29" class="node"><title>Node29</title>
<g id="a_node29"><a xlink:href="../../d5/da6/GPUMemoryResource_8h.html" target="_top" xlink:title="GPUMemoryResource.h">
<polygon fill="none" stroke="black" points="653.745,-224.5 653.745,-243.5 777.745,-243.5 777.745,-224.5 653.745,-224.5"/>
<text text-anchor="middle" x="715.745" y="-231.5" font-family="Helvetica,sans-Serif" font-size="10.00">GPUMemoryResource.h</text>
</a>
</g>
</g>
<!-- Node19&#45;&gt;Node29 -->
<g id="edge40" class="edge"><title>Node19&#45;&gt;Node29</title>
<path fill="none" stroke="midnightblue" d="M720.352,-336.368C719.545,-318.617 717.684,-277.666 716.59,-253.597"/>
<polygon fill="midnightblue" stroke="midnightblue" points="720.086,-253.422 716.135,-243.591 713.093,-253.74 720.086,-253.422"/>
</g>
<!-- Node20&#45;&gt;Node16 -->
<g id="edge23" class="edge"><title>Node20&#45;&gt;Node16</title>
<path fill="none" stroke="midnightblue" d="M332.099,-280.254C320.546,-272.172 304.371,-259.148 294.745,-244 285.779,-229.891 280.911,-211.403 278.355,-197.753"/>
<polygon fill="midnightblue" stroke="midnightblue" points="281.769,-196.937 276.713,-187.627 274.859,-198.058 281.769,-196.937"/>
</g>
<!-- Node21 -->
<g id="node21" class="node"><title>Node21</title>
<g id="a_node21"><a xlink:href="../../d3/da7/GPUTPCGrid_8h.html" target="_top" xlink:title="GPUTPCGrid.h">
<polygon fill="none" stroke="black" points="304.245,-224.5 304.245,-243.5 389.245,-243.5 389.245,-224.5 304.245,-224.5"/>
<text text-anchor="middle" x="346.745" y="-231.5" font-family="Helvetica,sans-Serif" font-size="10.00">GPUTPCGrid.h</text>
</a>
</g>
</g>
<!-- Node20&#45;&gt;Node21 -->
<g id="edge24" class="edge"><title>Node20&#45;&gt;Node21</title>
<path fill="none" stroke="midnightblue" d="M345.91,-280.083C346.041,-273.006 346.229,-262.861 346.393,-253.986"/>
<polygon fill="midnightblue" stroke="midnightblue" points="349.897,-253.814 346.583,-243.751 342.898,-253.685 349.897,-253.814"/>
</g>
<!-- Node21&#45;&gt;Node16 -->
<g id="edge25" class="edge"><title>Node21&#45;&gt;Node16</title>
<path fill="none" stroke="midnightblue" d="M335.337,-224.324C324.636,-216.185 308.404,-203.839 295.582,-194.087"/>
<polygon fill="midnightblue" stroke="midnightblue" points="297.438,-191.102 287.36,-187.834 293.2,-196.673 297.438,-191.102"/>
</g>
<!-- Node22&#45;&gt;Node4 -->
<g id="edge27" class="edge"><title>Node22&#45;&gt;Node4</title>
<path fill="none" stroke="midnightblue" d="M1045.66,-168.368C1028.44,-149.974 987.891,-106.671 965.775,-83.0519"/>
<polygon fill="midnightblue" stroke="midnightblue" points="968.179,-80.4987 958.789,-75.5914 963.07,-85.2832 968.179,-80.4987"/>
</g>
<!-- Node23 -->
<g id="node23" class="node"><title>Node23</title>
<polygon fill="none" stroke="#bfbfbf" points="1031.74,-112.5 1031.74,-131.5 1075.74,-131.5 1075.74,-112.5 1031.74,-112.5"/>
<text text-anchor="middle" x="1053.74" y="-119.5" font-family="Helvetica,sans-Serif" font-size="10.00">cmath</text>
</g>
<!-- Node22&#45;&gt;Node23 -->
<g id="edge28" class="edge"><title>Node22&#45;&gt;Node23</title>
<path fill="none" stroke="midnightblue" d="M1053.74,-168.083C1053.74,-161.006 1053.74,-150.861 1053.74,-141.986"/>
<polygon fill="midnightblue" stroke="midnightblue" points="1057.24,-141.751 1053.74,-131.751 1050.24,-141.751 1057.24,-141.751"/>
</g>
<!-- Node24 -->
<g id="node24" class="node"><title>Node24</title>
<polygon fill="none" stroke="#bfbfbf" points="761.745,-112.5 761.745,-131.5 817.745,-131.5 817.745,-112.5 761.745,-112.5"/>
<text text-anchor="middle" x="789.745" y="-119.5" font-family="Helvetica,sans-Serif" font-size="10.00">algorithm</text>
</g>
<!-- Node22&#45;&gt;Node24 -->
<g id="edge29" class="edge"><title>Node22&#45;&gt;Node24</title>
<path fill="none" stroke="midnightblue" d="M1007.54,-168.442C963.739,-160.195 895.86,-147.066 828.006,-132.209"/>
<polygon fill="midnightblue" stroke="midnightblue" points="828.516,-128.737 817.997,-130.004 827.011,-135.573 828.516,-128.737"/>
</g>
<!-- Node25&#45;&gt;Node3 -->
<g id="edge33" class="edge"><title>Node25&#45;&gt;Node3</title>
<path fill="none" stroke="midnightblue" d="M838.899,-287.105C779.825,-283.29 669.844,-272.466 644.745,-244 619.77,-215.674 625.866,-167.638 631.753,-141.419"/>
<polygon fill="midnightblue" stroke="midnightblue" points="635.169,-142.187 634.172,-131.639 628.373,-140.506 635.169,-142.187"/>
</g>
<!-- Node25&#45;&gt;Node4 -->
<g id="edge31" class="edge"><title>Node25&#45;&gt;Node4</title>
<path fill="none" stroke="midnightblue" d="M873.139,-280.46C865.141,-260.213 847.762,-208.003 862.745,-168 863.227,-166.711 911.168,-112.041 936.076,-83.6861"/>
<polygon fill="midnightblue" stroke="midnightblue" points="939.017,-85.6415 942.989,-75.8192 933.759,-81.0208 939.017,-85.6415"/>
</g>
<!-- Node25&#45;&gt;Node22 -->
<g id="edge32" class="edge"><title>Node25&#45;&gt;Node22</title>
<path fill="none" stroke="midnightblue" d="M914.303,-281.225C940.557,-274.481 975.479,-262.783 1001.74,-244 1019.49,-231.312 1034.38,-210.99 1043.62,-196.446"/>
<polygon fill="midnightblue" stroke="midnightblue" points="1046.64,-198.224 1048.85,-187.862 1040.66,-194.583 1046.64,-198.224"/>
</g>
<!-- Node26 -->
<g id="node26" class="node"><title>Node26</title>
<g id="a_node26"><a xlink:href="../../dd/dc6/GPUSettings_8h.html" target="_top" xlink:title="GPUSettings.h">
<polygon fill="none" stroke="black" points="910.245,-224.5 910.245,-243.5 993.245,-243.5 993.245,-224.5 910.245,-224.5"/>
<text text-anchor="middle" x="951.745" y="-231.5" font-family="Helvetica,sans-Serif" font-size="10.00">GPUSettings.h</text>
</a>
</g>
</g>
<!-- Node25&#45;&gt;Node26 -->
<g id="edge34" class="edge"><title>Node25&#45;&gt;Node26</title>
<path fill="none" stroke="midnightblue" d="M888.795,-280.324C900.208,-272.107 917.576,-259.602 931.18,-249.807"/>
<polygon fill="midnightblue" stroke="midnightblue" points="933.405,-252.517 939.475,-243.834 929.315,-246.837 933.405,-252.517"/>
</g>
<!-- Node27 -->
<g id="node27" class="node"><title>Node27</title>
<g id="a_node27"><a xlink:href="../../d6/d1b/GPUTPCGeometry_8h.html" target="_top" xlink:title="GPUTPCGeometry.h">
<polygon fill="none" stroke="black" points="871.745,-168.5 871.745,-187.5 981.745,-187.5 981.745,-168.5 871.745,-168.5"/>
<text text-anchor="middle" x="926.745" y="-175.5" font-family="Helvetica,sans-Serif" font-size="10.00">GPUTPCGeometry.h</text>
</a>
</g>
</g>
<!-- Node25&#45;&gt;Node27 -->
<g id="edge36" class="edge"><title>Node25&#45;&gt;Node27</title>
<path fill="none" stroke="midnightblue" d="M879.402,-280.398C883.417,-267.773 891.545,-243.601 900.745,-224 905.153,-214.607 910.848,-204.572 915.783,-196.367"/>
<polygon fill="midnightblue" stroke="midnightblue" points="918.842,-198.075 921.106,-187.725 912.882,-194.404 918.842,-198.075"/>
</g>
<!-- Node28 -->
<g id="node28" class="node"><title>Node28</title>
<g id="a_node28"><a xlink:href="../../d9/d9c/GPUTPCGMPolynomialField_8h.html" target="_top" xlink:title="GPUTPCGMPolynomialField.h">
<polygon fill="none" stroke="black" points="445.745,-224.5 445.745,-243.5 597.745,-243.5 597.745,-224.5 445.745,-224.5"/>
<text text-anchor="middle" x="521.745" y="-231.5" font-family="Helvetica,sans-Serif" font-size="10.00">GPUTPCGMPolynomialField.h</text>
</a>
</g>
</g>
<!-- Node25&#45;&gt;Node28 -->
<g id="edge38" class="edge"><title>Node25&#45;&gt;Node28</title>
<path fill="none" stroke="midnightblue" d="M839.09,-283.272C779.354,-274.186 662.073,-256.346 588.031,-245.083"/>
<polygon fill="midnightblue" stroke="midnightblue" points="588.293,-241.583 577.88,-243.539 587.24,-248.503 588.293,-241.583"/>
</g>
<!-- Node26&#45;&gt;Node22 -->
<g id="edge35" class="edge"><title>Node26&#45;&gt;Node22</title>
<path fill="none" stroke="midnightblue" d="M968.133,-224.324C984.416,-215.703 1009.61,-202.364 1028.46,-192.386"/>
<polygon fill="midnightblue" stroke="midnightblue" points="1030.2,-195.427 1037.4,-187.655 1026.92,-189.24 1030.2,-195.427"/>
</g>
<!-- Node27&#45;&gt;Node4 -->
<g id="edge37" class="edge"><title>Node27&#45;&gt;Node4</title>
<path fill="none" stroke="midnightblue" d="M928.628,-168.368C932.501,-150.617 941.436,-109.666 946.687,-85.5974"/>
<polygon fill="midnightblue" stroke="midnightblue" points="950.158,-86.1077 948.87,-75.5914 943.319,-84.6155 950.158,-86.1077"/>
</g>
<!-- Node28&#45;&gt;Node16 -->
<g id="edge39" class="edge"><title>Node28&#45;&gt;Node16</title>
<path fill="none" stroke="midnightblue" d="M482.765,-224.444C439.851,-215.023 370.799,-199.866 324.376,-189.675"/>
<polygon fill="midnightblue" stroke="midnightblue" points="325.06,-186.242 314.542,-187.516 323.559,-193.079 325.06,-186.242"/>
</g>
<!-- Node29&#45;&gt;Node4 -->
<g id="edge41" class="edge"><title>Node29&#45;&gt;Node4</title>
<path fill="none" stroke="midnightblue" d="M715.496,-224.374C715.248,-215.316 714.885,-200.659 714.745,-188 714.646,-179.112 712.641,-176.636 714.745,-168 721.378,-140.768 721.492,-129.041 743.745,-112 755.486,-103.009 834.187,-87.5522 891.072,-77.3036"/>
<polygon fill="midnightblue" stroke="midnightblue" points="891.836,-80.7226 901.063,-75.5164 890.603,-73.832 891.836,-80.7226"/>
</g>
<!-- Node29&#45;&gt;Node30 -->
<g id="edge42" class="edge"><title>Node29&#45;&gt;Node30</title>
<path fill="none" stroke="midnightblue" d="M724.662,-224.083C732.525,-216.22 744.176,-204.569 753.663,-195.081"/>
<polygon fill="midnightblue" stroke="midnightblue" points="756.397,-197.297 760.994,-187.751 751.448,-192.347 756.397,-197.297"/>
</g>
<!-- Node30&#45;&gt;Node3 -->
<g id="edge44" class="edge"><title>Node30&#45;&gt;Node3</title>
<path fill="none" stroke="midnightblue" d="M748.67,-168.444C726.685,-159.517 692.01,-145.439 667.081,-135.317"/>
<polygon fill="midnightblue" stroke="midnightblue" points="668.302,-132.035 657.72,-131.516 665.669,-138.521 668.302,-132.035"/>
</g>
<!-- Node30&#45;&gt;Node4 -->
<g id="edge43" class="edge"><title>Node30&#45;&gt;Node4</title>
<path fill="none" stroke="midnightblue" d="M763.29,-168.448C753.995,-155.014 739.355,-128.774 752.745,-112 761.414,-101.139 834.526,-86.5847 889.403,-77.0076"/>
<polygon fill="midnightblue" stroke="midnightblue" points="890.159,-80.429 899.418,-75.2792 888.968,-73.5309 890.159,-80.429"/>
</g>
<!-- Node30&#45;&gt;Node13 -->
<g id="edge45" class="edge"><title>Node30&#45;&gt;Node13</title>
<path fill="none" stroke="midnightblue" d="M784.365,-168.324C798.694,-159.822 820.757,-146.729 837.493,-136.797"/>
<polygon fill="midnightblue" stroke="midnightblue" points="839.347,-139.768 846.16,-131.655 835.774,-133.748 839.347,-139.768"/>
</g>
<!-- Node30&#45;&gt;Node24 -->
<g id="edge46" class="edge"><title>Node30&#45;&gt;Node24</title>
<path fill="none" stroke="midnightblue" d="M773.047,-168.083C775.727,-160.849 779.593,-150.409 782.931,-141.397"/>
<polygon fill="midnightblue" stroke="midnightblue" points="786.312,-142.344 786.504,-131.751 779.748,-139.913 786.312,-142.344"/>
</g>
<!-- Node31&#45;&gt;Node16 -->
<g id="edge50" class="edge"><title>Node31&#45;&gt;Node16</title>
<path fill="none" stroke="midnightblue" d="M221.512,-280.1C218.731,-267.104 215.301,-242.474 223.745,-224 229.522,-211.36 240.797,-200.911 251.375,-193.274"/>
<polygon fill="midnightblue" stroke="midnightblue" points="253.593,-196.001 259.961,-187.533 249.703,-190.182 253.593,-196.001"/>
</g>
<!-- Node31&#45;&gt;Node22 -->
<g id="edge51" class="edge"><title>Node31&#45;&gt;Node22</title>
<path fill="none" stroke="midnightblue" d="M229.978,-280.246C241.058,-265.501 265.764,-236.133 294.745,-224 434.743,-165.387 820.723,-201.453 989.423,-187.958"/>
<polygon fill="midnightblue" stroke="midnightblue" points="989.833,-191.436 999.486,-187.068 989.216,-184.463 989.833,-191.436"/>
</g>
<!-- Node32 -->
<g id="node32" class="node"><title>Node32</title>
<g id="a_node32"><a xlink:href="../../df/d00/GPUTPCBaseTrackParam_8h.html" target="_top" xlink:title="GPUTPCBaseTrackParam.h">
<polygon fill="none" stroke="black" points="28.2447,-224.5 28.2447,-243.5 171.245,-243.5 171.245,-224.5 28.2447,-224.5"/>
<text text-anchor="middle" x="99.7447" y="-231.5" font-family="Helvetica,sans-Serif" font-size="10.00">GPUTPCBaseTrackParam.h</text>
</a>
</g>
</g>
<!-- Node31&#45;&gt;Node32 -->
<g id="edge48" class="edge"><title>Node31&#45;&gt;Node32</title>
<path fill="none" stroke="midnightblue" d="M204.097,-280.444C183.78,-271.596 151.842,-257.687 128.647,-247.586"/>
<polygon fill="midnightblue" stroke="midnightblue" points="129.867,-244.3 119.301,-243.516 127.072,-250.718 129.867,-244.3"/>
</g>
<!-- Node32&#45;&gt;Node16 -->
<g id="edge49" class="edge"><title>Node32&#45;&gt;Node16</title>
<path fill="none" stroke="midnightblue" d="M127.632,-224.444C157.498,-215.28 205.059,-200.688 238.201,-190.519"/>
<polygon fill="midnightblue" stroke="midnightblue" points="239.454,-193.796 247.987,-187.516 237.401,-187.104 239.454,-193.796"/>
</g>
<!-- Node33&#45;&gt;Node16 -->
<g id="edge54" class="edge"><title>Node33&#45;&gt;Node16</title>
<path fill="none" stroke="midnightblue" d="M70.3659,-280.385C41.406,-268.846 -0.687629,-247.13 18.7447,-224 44.4497,-193.403 156.806,-183.606 224.157,-180.472"/>
<polygon fill="midnightblue" stroke="midnightblue" points="224.316,-183.968 234.156,-180.04 224.014,-176.975 224.316,-183.968"/>
</g>
<!-- Node33&#45;&gt;Node32 -->
<g id="edge53" class="edge"><title>Node33&#45;&gt;Node32</title>
<path fill="none" stroke="midnightblue" d="M95.5703,-280.083C96.2256,-273.006 97.165,-262.861 97.9867,-253.986"/>
<polygon fill="midnightblue" stroke="midnightblue" points="101.497,-254.031 98.9344,-243.751 94.5272,-253.386 101.497,-254.031"/>
</g>
<!-- Node34&#45;&gt;Node4 -->
<g id="edge59" class="edge"><title>Node34&#45;&gt;Node4</title>
<path fill="none" stroke="midnightblue" d="M1345.32,-224.417C1330.13,-210.942 1298.89,-184.645 1268.74,-168 1183.06,-120.694 1071.96,-91.8362 1006.31,-77.6815"/>
<polygon fill="midnightblue" stroke="midnightblue" points="1006.69,-74.1831 996.18,-75.5355 1005.24,-81.0312 1006.69,-74.1831"/>
</g>
<!-- Node34&#45;&gt;Node12 -->
<g id="edge60" class="edge"><title>Node34&#45;&gt;Node12</title>
<path fill="none" stroke="midnightblue" d="M1332.09,-224.444C1308.34,-215.478 1270.84,-201.314 1244.01,-191.183"/>
<polygon fill="midnightblue" stroke="midnightblue" points="1244.89,-187.775 1234.3,-187.516 1242.42,-194.324 1244.89,-187.775"/>
</g>
<!-- Node35&#45;&gt;Node36 -->
<g id="edge62" class="edge"><title>Node35&#45;&gt;Node36</title>
<path fill="none" stroke="midnightblue" d="M1391.36,-448.183C1402.61,-439.448 1419.94,-425.461 1433.74,-412 1449.61,-396.528 1466.14,-377.28 1477.28,-363.759"/>
<polygon fill="midnightblue" stroke="midnightblue" points="1480.17,-365.761 1483.77,-355.798 1474.74,-361.339 1480.17,-365.761"/>
</g>
<!-- Node39 -->
<g id="node39" class="node"><title>Node39</title>
<g id="a_node39"><a xlink:href="../../d1/d65/PackedCharge_8h.html" target="_top" xlink:title="PackedCharge.h">
<polygon fill="none" stroke="black" points="1335.24,-392.5 1335.24,-411.5 1424.24,-411.5 1424.24,-392.5 1335.24,-392.5"/>
<text text-anchor="middle" x="1379.74" y="-399.5" font-family="Helvetica,sans-Serif" font-size="10.00">PackedCharge.h</text>
</a>
</g>
</g>
<!-- Node35&#45;&gt;Node39 -->
<g id="edge67" class="edge"><title>Node35&#45;&gt;Node39</title>
<path fill="none" stroke="midnightblue" d="M1379.74,-448.083C1379.74,-441.006 1379.74,-430.861 1379.74,-421.986"/>
<polygon fill="midnightblue" stroke="midnightblue" points="1383.24,-421.751 1379.74,-411.751 1376.24,-421.751 1383.24,-421.751"/>
</g>
<!-- Node36&#45;&gt;Node3 -->
<g id="edge63" class="edge"><title>Node36&#45;&gt;Node3</title>
<path fill="none" stroke="midnightblue" d="M1484.7,-336.196C1478.65,-327.239 1469.18,-312.881 1461.74,-300 1442.77,-267.115 1451.22,-249.112 1422.74,-224 1368.12,-175.829 1339.99,-183.126 1268.74,-168 1043.87,-120.254 982.014,-148.892 752.745,-132 727.876,-130.168 700.017,-128.01 677.835,-126.266"/>
<polygon fill="midnightblue" stroke="midnightblue" points="678.002,-122.769 667.758,-125.472 677.452,-129.747 678.002,-122.769"/>
</g>
<!-- Node37 -->
<g id="node37" class="node"><title>Node37</title>
<g id="a_node37"><a xlink:href="../../d6/deb/GPU_2GPUTracking_2TPCClusterFinder_2Digit_8h.html" target="_top" xlink:title="Digit.h">
<polygon fill="none" stroke="black" points="1470.24,-280.5 1470.24,-299.5 1515.24,-299.5 1515.24,-280.5 1470.24,-280.5"/>
<text text-anchor="middle" x="1492.74" y="-287.5" font-family="Helvetica,sans-Serif" font-size="10.00">Digit.h</text>
</a>
</g>
</g>
<!-- Node36&#45;&gt;Node37 -->
<g id="edge64" class="edge"><title>Node36&#45;&gt;Node37</title>
<path fill="none" stroke="midnightblue" d="M1485.91,-336.083C1484.66,-328.927 1484.61,-318.635 1485.59,-309.691"/>
<polygon fill="midnightblue" stroke="midnightblue" points="1489.06,-310.197 1487.29,-299.751 1482.16,-309.021 1489.06,-310.197"/>
</g>
<!-- Node38 -->
<g id="node38" class="node"><title>Node38</title>
<g id="a_node38"><a xlink:href="../../d0/dc1/GPU_2GPUTracking_2TPCClusterFinder_2ClusterNative_8h.html" target="_top" xlink:title="ClusterNative.h">
<polygon fill="none" stroke="black" points="1533.24,-280.5 1533.24,-299.5 1618.24,-299.5 1618.24,-280.5 1533.24,-280.5"/>
<text text-anchor="middle" x="1575.74" y="-287.5" font-family="Helvetica,sans-Serif" font-size="10.00">ClusterNative.h</text>
</a>
</g>
</g>
<!-- Node36&#45;&gt;Node38 -->
<g id="edge66" class="edge"><title>Node36&#45;&gt;Node38</title>
<path fill="none" stroke="midnightblue" d="M1504.4,-336.324C1517.66,-327.9 1538.01,-314.971 1553.59,-305.074"/>
<polygon fill="midnightblue" stroke="midnightblue" points="1555.56,-307.971 1562.12,-299.655 1551.8,-302.063 1555.56,-307.971"/>
</g>
<!-- Node37&#45;&gt;Node36 -->
<g id="edge65" class="edge"><title>Node37&#45;&gt;Node36</title>
<path fill="none" stroke="midnightblue" d="M1497.55,-299.751C1498.81,-306.858 1498.88,-317.136 1497.92,-326.101"/>
<polygon fill="midnightblue" stroke="midnightblue" points="1494.45,-325.642 1496.24,-336.083 1501.35,-326.8 1494.45,-325.642"/>
</g>
<!-- Node39&#45;&gt;Node22 -->
<g id="edge69" class="edge"><title>Node39&#45;&gt;Node22</title>
<path fill="none" stroke="midnightblue" d="M1362.23,-392.477C1318.66,-370.866 1202.77,-310.879 1117.74,-244 1098.98,-229.243 1080.13,-209.332 1067.8,-195.451"/>
<polygon fill="midnightblue" stroke="midnightblue" points="1070.23,-192.918 1061.02,-187.687 1064.96,-197.522 1070.23,-192.918"/>
</g>
<!-- Node39&#45;&gt;Node36 -->
<g id="edge68" class="edge"><title>Node39&#45;&gt;Node36</title>
<path fill="none" stroke="midnightblue" d="M1397.58,-392.324C1415.46,-383.625 1443.22,-370.12 1463.79,-360.113"/>
<polygon fill="midnightblue" stroke="midnightblue" points="1465.49,-363.177 1472.95,-355.655 1462.43,-356.882 1465.49,-363.177"/>
</g>
</g>
</svg>
        <g id="navigator" transform="translate(0 0)" fill="#404254">
                <rect fill="#f2f5e9" fill-opacity="0.5" stroke="#606060" stroke-width=".5" x="0" y="0" width="60" height="60"/>
                <use id="zoomplus" xlink:href="#zoomPlus" x="17" y="9" onmousedown="handleZoom(evt,'in')"/>
                <use id="zoomminus" xlink:href="#zoomMin" x="42" y="9" onmousedown="handleZoom(evt,'out')"/>
                <use id="reset" xlink:href="#resetDef" x="30" y="36" onmousedown="handleReset()"/>
                <g id="arrowUp" xlink:href="#dirArrow" transform="translate(30 24)" onmousedown="handlePan(0,-1)">
                  <use xlink:href="#rim" fill="#404040">
                        <set attributeName="fill" to="#808080" begin="arrowUp.mouseover" end="arrowUp.mouseout"/>
                  </use>
                  <path fill="none" stroke="white" stroke-width="1.5" d="M0,-3.0v7 M-2.5,-0.5L0,-3.0L2.5,-0.5"/>
                </g>
                <g id="arrowRight" xlink:href="#dirArrow" transform="rotate(90) translate(36 -43)" onmousedown="handlePan(1,0)">
                  <use xlink:href="#rim" fill="#404040">
                        <set attributeName="fill" to="#808080" begin="arrowRight.mouseover" end="arrowRight.mouseout"/>
                  </use>
                  <path fill="none" stroke="white" stroke-width="1.5" d="M0,-3.0v7 M-2.5,-0.5L0,-3.0L2.5,-0.5"/>
                </g>
                <g id="arrowDown" xlink:href="#dirArrow" transform="rotate(180) translate(-30 -48)" onmousedown="handlePan(0,1)">
                  <use xlink:href="#rim" fill="#404040">
                        <set attributeName="fill" to="#808080" begin="arrowDown.mouseover" end="arrowDown.mouseout"/>
                  </use>
                  <path fill="none" stroke="white" stroke-width="1.5" d="M0,-3.0v7 M-2.5,-0.5L0,-3.0L2.5,-0.5"/>
                </g>
                <g id="arrowLeft" xlink:href="#dirArrow" transform="rotate(270) translate(-36 17)" onmousedown="handlePan(-1,0)">
                  <use xlink:href="#rim" fill="#404040">
                        <set attributeName="fill" to="#808080" begin="arrowLeft.mouseover" end="arrowLeft.mouseout"/>
                  </use>
                  <path fill="none" stroke="white" stroke-width="1.5" d="M0,-3.0v7 M-2.5,-0.5L0,-3.0L2.5,-0.5"/>
                </g>
        </g>
        <svg viewBox="0 0 15 15" width="100%" height="30px" preserveAspectRatio="xMaxYMin meet">
         <g id="arrow_out" transform="scale(0.3 0.3)">
          <a xlink:href="GPUTPCClusterFinderKernels_8h__incl_org.svg" target="_base">
           <rect id="button" ry="5" rx="5" y="6" x="6" height="38" width="38"
                fill="#f2f5e9" fill-opacity="0.5" stroke="#606060" stroke-width="1.0"/>
           <path id="arrow"
             d="M 11.500037,31.436501 C 11.940474,20.09759 22.043105,11.32322 32.158766,21.979434 L 37.068811,17.246167 C 37.068811,17.246167 37.088388,32 37.088388,32 L 22.160133,31.978069 C 22.160133,31.978069 26.997745,27.140456 26.997745,27.140456 C 18.528582,18.264221 13.291696,25.230495 11.500037,31.436501 z"
             style="fill:#404040;"/>
          </a>
         </g>
        </svg>
</svg>
