<?xml version="1.0" encoding="UTF-8" standalone="no"?>
<!DOCTYPE svg PUBLIC "-//W3C//DTD SVG 1.1//EN"
 "http://www.w3.org/Graphics/SVG/1.1/DTD/svg11.dtd">
<!-- Generated by graphviz version 2.38.0 (20140413.2041)
 -->
<!-- Title: o2::trd::TRDGeometryFlat Pages: 1 -->
<svg width="663pt" height="2482pt"
 viewBox="0.00 0.00 662.50 2482.00" xmlns="http://www.w3.org/2000/svg" xmlns:xlink="http://www.w3.org/1999/xlink">
<g id="graph0" class="graph" transform="scale(1 1) rotate(0) translate(4 2478)">
<title>o2::trd::TRDGeometryFlat</title>
<!-- Node1 -->
<g id="node1" class="node"><title>Node1</title>
<polygon fill="#bfbfbf" stroke="black" points="409,-0.5 409,-90.5 540,-90.5 540,-0.5 409,-0.5"/>
<text text-anchor="middle" x="474.5" y="-78.5" font-family="Helvetica,sans-Serif" font-size="10.00">o2::trd::TRDGeometryFlat</text>
<polyline fill="none" stroke="black" points="409,-71.5 540,-71.5 "/>
<text text-anchor="middle" x="474.5" y="-59.5" font-family="Helvetica,sans-Serif" font-size="10.00"> </text>
<polyline fill="none" stroke="black" points="409,-52.5 540,-52.5 "/>
<text text-anchor="start" x="417" y="-40.5" font-family="Helvetica,sans-Serif" font-size="10.00">+ TRDGeometryFlat()</text>
<text text-anchor="start" x="417" y="-29.5" font-family="Helvetica,sans-Serif" font-size="10.00">+ TRDGeometryFlat()</text>
<text text-anchor="start" x="417" y="-18.5" font-family="Helvetica,sans-Serif" font-size="10.00">+ TRDGeometryFlat()</text>
<text text-anchor="start" x="417" y="-7.5" font-family="Helvetica,sans-Serif" font-size="10.00">+ ~TRDGeometryFlat()</text>
</g>
<!-- Node2 -->
<g id="node2" class="node"><title>Node2</title>
<g id="a_node2"><a xlink:href="../../d8/db1/classo2_1_1gpu_1_1FlatObject.html" target="_top" xlink:title="{FlatObject\n||}">
<polygon fill="none" stroke="black" points="325.5,-732.5 325.5,-789.5 387.5,-789.5 387.5,-732.5 325.5,-732.5"/>
<text text-anchor="middle" x="356.5" y="-777.5" font-family="Helvetica,sans-Serif" font-size="10.00">FlatObject</text>
<polyline fill="none" stroke="black" points="325.5,-770.5 387.5,-770.5 "/>
<text text-anchor="middle" x="356.5" y="-758.5" font-family="Helvetica,sans-Serif" font-size="10.00"> </text>
<polyline fill="none" stroke="black" points="325.5,-751.5 387.5,-751.5 "/>
<text text-anchor="middle" x="356.5" y="-739.5" font-family="Helvetica,sans-Serif" font-size="10.00"> </text>
</a>
</g>
</g>
<!-- Node2&#45;&gt;Node1 -->
<g id="edge1" class="edge"><title>Node2&#45;&gt;Node1</title>
<path fill="none" stroke="midnightblue" d="M350.944,-722.071C337.949,-622.09 312.674,-344.824 396.5,-138 403.478,-120.783 415.032,-104.477 427.136,-90.5314"/>
<polygon fill="none" stroke="midnightblue" points="347.515,-722.835 352.31,-732.282 354.453,-721.907 347.515,-722.835"/>
</g>
<!-- Node3 -->
<g id="node3" class="node"><title>Node3</title>
<g id="a_node3"><a xlink:href="../../d6/dbe/classo2_1_1trd_1_1TRDGeometryBase.html" target="_top" xlink:title="{o2::trd::TRDGeometryBase\n|+ MAXMATRICES\l# TLENGTH\l# SHEIGHT\l# SWIDTH1\l# SWIDTH2\l# SLENGTH\l# FLENGTH\l# SMPLTT\l# VSPACE\l# CRAH\l# CDRH\l# CAMH\l# CROH\l# CROW\l# CH\l# CHSV\l# ANODEPOS\l# CALT\l# CCLST\l# CCLFT\l# CGLT\l# CCUTA\l# CCUTB\l# CAUT\l# CALW\l# CALH\l# CALWMOD\l# CALHMOD\l# CWSW\l# CWSH\l# DRTHICK\l# AMTHICK\l# XETHICK\l# WRTHICK\l# RMYTHICK\l# RCBTHICK\l# RFBTHICK\l# PPPTHICK\l# PCBTHICK\l# PPCTHICK\l# PRBTHICK\l# PELTHICK\l# PHCTHICK\l# DRZPOS\l# AMZPOS\l# WRZPOSA\l# WRZPOSB\l# CALZPOS\l# MCMROW\l# ROBMAXC0\l# ROBMAXC1\l# ADCMAX\l# TBMAX\l# PADMAX\l# COLMAX\l# ROWMAXC0\l# ROWMAXC1\l# TIME0BASE\l# TIME0\l# XTRDBEG\l# XTRDEND\l# CWIDTH\l# CLENGTH\l|+ ~TRDGeometryBase()\l+ GPUd()\l+ GPUd()\l+ GPUd()\l+ GPUd()\l+ GPUd()\l+ GPUd()\l+ GPUd()\l+ GPUd()\l+ GPUd()\l+ GPUd()\l+ getSector()\l+ getTime0()\l+ getXtrdBeg()\l+ getXtrdEnd()\l+ getChamberWidth()\l+ getChamberLength()\l+ getAlpha()\l+ cheight()\l+ cheightSV()\l+ cspace()\l+ craHght()\l+ cdrHght()\l+ camHght()\l+ croHght()\l+ csvHght()\l+ croWid()\l+ anodePos()\l+ myThick()\l+ drThick()\l+ amThick()\l+ drZpos()\l+ rpadW()\l+ cpadW()\l+ cwidcha()\l+ MCMmax()\l+ MCMrow()\l+ ROBmaxC0()\l+ ROBmaxC1()\l+ ADCmax()\l+ TBmax()\l+ padmax()\l+ colmax()\l+ rowmaxC0()\l+ rowmaxC1()\l# TRDGeometryBase()\l# ClassDefNV()\l}">
<polygon fill="none" stroke="black" points="406,-138.5 406,-1383.5 543,-1383.5 543,-138.5 406,-138.5"/>
<text text-anchor="middle" x="474.5" y="-1371.5" font-family="Helvetica,sans-Serif" font-size="10.00">o2::trd::TRDGeometryBase</text>
<polyline fill="none" stroke="black" points="406,-1364.5 543,-1364.5 "/>
<text text-anchor="start" x="414" y="-1352.5" font-family="Helvetica,sans-Serif" font-size="10.00">+ MAXMATRICES</text>
<text text-anchor="start" x="414" y="-1341.5" font-family="Helvetica,sans-Serif" font-size="10.00"># TLENGTH</text>
<text text-anchor="start" x="414" y="-1330.5" font-family="Helvetica,sans-Serif" font-size="10.00"># SHEIGHT</text>
<text text-anchor="start" x="414" y="-1319.5" font-family="Helvetica,sans-Serif" font-size="10.00"># SWIDTH1</text>
<text text-anchor="start" x="414" y="-1308.5" font-family="Helvetica,sans-Serif" font-size="10.00"># SWIDTH2</text>
<text text-anchor="start" x="414" y="-1297.5" font-family="Helvetica,sans-Serif" font-size="10.00"># SLENGTH</text>
<text text-anchor="start" x="414" y="-1286.5" font-family="Helvetica,sans-Serif" font-size="10.00"># FLENGTH</text>
<text text-anchor="start" x="414" y="-1275.5" font-family="Helvetica,sans-Serif" font-size="10.00"># SMPLTT</text>
<text text-anchor="start" x="414" y="-1264.5" font-family="Helvetica,sans-Serif" font-size="10.00"># VSPACE</text>
<text text-anchor="start" x="414" y="-1253.5" font-family="Helvetica,sans-Serif" font-size="10.00"># CRAH</text>
<text text-anchor="start" x="414" y="-1242.5" font-family="Helvetica,sans-Serif" font-size="10.00"># CDRH</text>
<text text-anchor="start" x="414" y="-1231.5" font-family="Helvetica,sans-Serif" font-size="10.00"># CAMH</text>
<text text-anchor="start" x="414" y="-1220.5" font-family="Helvetica,sans-Serif" font-size="10.00"># CROH</text>
<text text-anchor="start" x="414" y="-1209.5" font-family="Helvetica,sans-Serif" font-size="10.00"># CROW</text>
<text text-anchor="start" x="414" y="-1198.5" font-family="Helvetica,sans-Serif" font-size="10.00"># CH</text>
<text text-anchor="start" x="414" y="-1187.5" font-family="Helvetica,sans-Serif" font-size="10.00"># CHSV</text>
<text text-anchor="start" x="414" y="-1176.5" font-family="Helvetica,sans-Serif" font-size="10.00"># ANODEPOS</text>
<text text-anchor="start" x="414" y="-1165.5" font-family="Helvetica,sans-Serif" font-size="10.00"># CALT</text>
<text text-anchor="start" x="414" y="-1154.5" font-family="Helvetica,sans-Serif" font-size="10.00"># CCLST</text>
<text text-anchor="start" x="414" y="-1143.5" font-family="Helvetica,sans-Serif" font-size="10.00"># CCLFT</text>
<text text-anchor="start" x="414" y="-1132.5" font-family="Helvetica,sans-Serif" font-size="10.00"># CGLT</text>
<text text-anchor="start" x="414" y="-1121.5" font-family="Helvetica,sans-Serif" font-size="10.00"># CCUTA</text>
<text text-anchor="start" x="414" y="-1110.5" font-family="Helvetica,sans-Serif" font-size="10.00"># CCUTB</text>
<text text-anchor="start" x="414" y="-1099.5" font-family="Helvetica,sans-Serif" font-size="10.00"># CAUT</text>
<text text-anchor="start" x="414" y="-1088.5" font-family="Helvetica,sans-Serif" font-size="10.00"># CALW</text>
<text text-anchor="start" x="414" y="-1077.5" font-family="Helvetica,sans-Serif" font-size="10.00"># CALH</text>
<text text-anchor="start" x="414" y="-1066.5" font-family="Helvetica,sans-Serif" font-size="10.00"># CALWMOD</text>
<text text-anchor="start" x="414" y="-1055.5" font-family="Helvetica,sans-Serif" font-size="10.00"># CALHMOD</text>
<text text-anchor="start" x="414" y="-1044.5" font-family="Helvetica,sans-Serif" font-size="10.00"># CWSW</text>
<text text-anchor="start" x="414" y="-1033.5" font-family="Helvetica,sans-Serif" font-size="10.00"># CWSH</text>
<text text-anchor="start" x="414" y="-1022.5" font-family="Helvetica,sans-Serif" font-size="10.00"># DRTHICK</text>
<text text-anchor="start" x="414" y="-1011.5" font-family="Helvetica,sans-Serif" font-size="10.00"># AMTHICK</text>
<text text-anchor="start" x="414" y="-1000.5" font-family="Helvetica,sans-Serif" font-size="10.00"># XETHICK</text>
<text text-anchor="start" x="414" y="-989.5" font-family="Helvetica,sans-Serif" font-size="10.00"># WRTHICK</text>
<text text-anchor="start" x="414" y="-978.5" font-family="Helvetica,sans-Serif" font-size="10.00"># RMYTHICK</text>
<text text-anchor="start" x="414" y="-967.5" font-family="Helvetica,sans-Serif" font-size="10.00"># RCBTHICK</text>
<text text-anchor="start" x="414" y="-956.5" font-family="Helvetica,sans-Serif" font-size="10.00"># RFBTHICK</text>
<text text-anchor="start" x="414" y="-945.5" font-family="Helvetica,sans-Serif" font-size="10.00"># PPPTHICK</text>
<text text-anchor="start" x="414" y="-934.5" font-family="Helvetica,sans-Serif" font-size="10.00"># PCBTHICK</text>
<text text-anchor="start" x="414" y="-923.5" font-family="Helvetica,sans-Serif" font-size="10.00"># PPCTHICK</text>
<text text-anchor="start" x="414" y="-912.5" font-family="Helvetica,sans-Serif" font-size="10.00"># PRBTHICK</text>
<text text-anchor="start" x="414" y="-901.5" font-family="Helvetica,sans-Serif" font-size="10.00"># PELTHICK</text>
<text text-anchor="start" x="414" y="-890.5" font-family="Helvetica,sans-Serif" font-size="10.00"># PHCTHICK</text>
<text text-anchor="start" x="414" y="-879.5" font-family="Helvetica,sans-Serif" font-size="10.00"># DRZPOS</text>
<text text-anchor="start" x="414" y="-868.5" font-family="Helvetica,sans-Serif" font-size="10.00"># AMZPOS</text>
<text text-anchor="start" x="414" y="-857.5" font-family="Helvetica,sans-Serif" font-size="10.00"># WRZPOSA</text>
<text text-anchor="start" x="414" y="-846.5" font-family="Helvetica,sans-Serif" font-size="10.00"># WRZPOSB</text>
<text text-anchor="start" x="414" y="-835.5" font-family="Helvetica,sans-Serif" font-size="10.00"># CALZPOS</text>
<text text-anchor="start" x="414" y="-824.5" font-family="Helvetica,sans-Serif" font-size="10.00"># MCMROW</text>
<text text-anchor="start" x="414" y="-813.5" font-family="Helvetica,sans-Serif" font-size="10.00"># ROBMAXC0</text>
<text text-anchor="start" x="414" y="-802.5" font-family="Helvetica,sans-Serif" font-size="10.00"># ROBMAXC1</text>
<text text-anchor="start" x="414" y="-791.5" font-family="Helvetica,sans-Serif" font-size="10.00"># ADCMAX</text>
<text text-anchor="start" x="414" y="-780.5" font-family="Helvetica,sans-Serif" font-size="10.00"># TBMAX</text>
<text text-anchor="start" x="414" y="-769.5" font-family="Helvetica,sans-Serif" font-size="10.00"># PADMAX</text>
<text text-anchor="start" x="414" y="-758.5" font-family="Helvetica,sans-Serif" font-size="10.00"># COLMAX</text>
<text text-anchor="start" x="414" y="-747.5" font-family="Helvetica,sans-Serif" font-size="10.00"># ROWMAXC0</text>
<text text-anchor="start" x="414" y="-736.5" font-family="Helvetica,sans-Serif" font-size="10.00"># ROWMAXC1</text>
<text text-anchor="start" x="414" y="-725.5" font-family="Helvetica,sans-Serif" font-size="10.00"># TIME0BASE</text>
<text text-anchor="start" x="414" y="-714.5" font-family="Helvetica,sans-Serif" font-size="10.00"># TIME0</text>
<text text-anchor="start" x="414" y="-703.5" font-family="Helvetica,sans-Serif" font-size="10.00"># XTRDBEG</text>
<text text-anchor="start" x="414" y="-692.5" font-family="Helvetica,sans-Serif" font-size="10.00"># XTRDEND</text>
<text text-anchor="start" x="414" y="-681.5" font-family="Helvetica,sans-Serif" font-size="10.00"># CWIDTH</text>
<text text-anchor="start" x="414" y="-670.5" font-family="Helvetica,sans-Serif" font-size="10.00"># CLENGTH</text>
<polyline fill="none" stroke="black" points="406,-663.5 543,-663.5 "/>
<text text-anchor="start" x="414" y="-651.5" font-family="Helvetica,sans-Serif" font-size="10.00">+ ~TRDGeometryBase()</text>
<text text-anchor="start" x="414" y="-640.5" font-family="Helvetica,sans-Serif" font-size="10.00">+ GPUd()</text>
<text text-anchor="start" x="414" y="-629.5" font-family="Helvetica,sans-Serif" font-size="10.00">+ GPUd()</text>
<text text-anchor="start" x="414" y="-618.5" font-family="Helvetica,sans-Serif" font-size="10.00">+ GPUd()</text>
<text text-anchor="start" x="414" y="-607.5" font-family="Helvetica,sans-Serif" font-size="10.00">+ GPUd()</text>
<text text-anchor="start" x="414" y="-596.5" font-family="Helvetica,sans-Serif" font-size="10.00">+ GPUd()</text>
<text text-anchor="start" x="414" y="-585.5" font-family="Helvetica,sans-Serif" font-size="10.00">+ GPUd()</text>
<text text-anchor="start" x="414" y="-574.5" font-family="Helvetica,sans-Serif" font-size="10.00">+ GPUd()</text>
<text text-anchor="start" x="414" y="-563.5" font-family="Helvetica,sans-Serif" font-size="10.00">+ GPUd()</text>
<text text-anchor="start" x="414" y="-552.5" font-family="Helvetica,sans-Serif" font-size="10.00">+ GPUd()</text>
<text text-anchor="start" x="414" y="-541.5" font-family="Helvetica,sans-Serif" font-size="10.00">+ GPUd()</text>
<text text-anchor="start" x="414" y="-530.5" font-family="Helvetica,sans-Serif" font-size="10.00">+ getSector()</text>
<text text-anchor="start" x="414" y="-519.5" font-family="Helvetica,sans-Serif" font-size="10.00">+ getTime0()</text>
<text text-anchor="start" x="414" y="-508.5" font-family="Helvetica,sans-Serif" font-size="10.00">+ getXtrdBeg()</text>
<text text-anchor="start" x="414" y="-497.5" font-family="Helvetica,sans-Serif" font-size="10.00">+ getXtrdEnd()</text>
<text text-anchor="start" x="414" y="-486.5" font-family="Helvetica,sans-Serif" font-size="10.00">+ getChamberWidth()</text>
<text text-anchor="start" x="414" y="-475.5" font-family="Helvetica,sans-Serif" font-size="10.00">+ getChamberLength()</text>
<text text-anchor="start" x="414" y="-464.5" font-family="Helvetica,sans-Serif" font-size="10.00">+ getAlpha()</text>
<text text-anchor="start" x="414" y="-453.5" font-family="Helvetica,sans-Serif" font-size="10.00">+ cheight()</text>
<text text-anchor="start" x="414" y="-442.5" font-family="Helvetica,sans-Serif" font-size="10.00">+ cheightSV()</text>
<text text-anchor="start" x="414" y="-431.5" font-family="Helvetica,sans-Serif" font-size="10.00">+ cspace()</text>
<text text-anchor="start" x="414" y="-420.5" font-family="Helvetica,sans-Serif" font-size="10.00">+ craHght()</text>
<text text-anchor="start" x="414" y="-409.5" font-family="Helvetica,sans-Serif" font-size="10.00">+ cdrHght()</text>
<text text-anchor="start" x="414" y="-398.5" font-family="Helvetica,sans-Serif" font-size="10.00">+ camHght()</text>
<text text-anchor="start" x="414" y="-387.5" font-family="Helvetica,sans-Serif" font-size="10.00">+ croHght()</text>
<text text-anchor="start" x="414" y="-376.5" font-family="Helvetica,sans-Serif" font-size="10.00">+ csvHght()</text>
<text text-anchor="start" x="414" y="-365.5" font-family="Helvetica,sans-Serif" font-size="10.00">+ croWid()</text>
<text text-anchor="start" x="414" y="-354.5" font-family="Helvetica,sans-Serif" font-size="10.00">+ anodePos()</text>
<text text-anchor="start" x="414" y="-343.5" font-family="Helvetica,sans-Serif" font-size="10.00">+ myThick()</text>
<text text-anchor="start" x="414" y="-332.5" font-family="Helvetica,sans-Serif" font-size="10.00">+ drThick()</text>
<text text-anchor="start" x="414" y="-321.5" font-family="Helvetica,sans-Serif" font-size="10.00">+ amThick()</text>
<text text-anchor="start" x="414" y="-310.5" font-family="Helvetica,sans-Serif" font-size="10.00">+ drZpos()</text>
<text text-anchor="start" x="414" y="-299.5" font-family="Helvetica,sans-Serif" font-size="10.00">+ rpadW()</text>
<text text-anchor="start" x="414" y="-288.5" font-family="Helvetica,sans-Serif" font-size="10.00">+ cpadW()</text>
<text text-anchor="start" x="414" y="-277.5" font-family="Helvetica,sans-Serif" font-size="10.00">+ cwidcha()</text>
<text text-anchor="start" x="414" y="-266.5" font-family="Helvetica,sans-Serif" font-size="10.00">+ MCMmax()</text>
<text text-anchor="start" x="414" y="-255.5" font-family="Helvetica,sans-Serif" font-size="10.00">+ MCMrow()</text>
<text text-anchor="start" x="414" y="-244.5" font-family="Helvetica,sans-Serif" font-size="10.00">+ ROBmaxC0()</text>
<text text-anchor="start" x="414" y="-233.5" font-family="Helvetica,sans-Serif" font-size="10.00">+ ROBmaxC1()</text>
<text text-anchor="start" x="414" y="-222.5" font-family="Helvetica,sans-Serif" font-size="10.00">+ ADCmax()</text>
<text text-anchor="start" x="414" y="-211.5" font-family="Helvetica,sans-Serif" font-size="10.00">+ TBmax()</text>
<text text-anchor="start" x="414" y="-200.5" font-family="Helvetica,sans-Serif" font-size="10.00">+ padmax()</text>
<text text-anchor="start" x="414" y="-189.5" font-family="Helvetica,sans-Serif" font-size="10.00">+ colmax()</text>
<text text-anchor="start" x="414" y="-178.5" font-family="Helvetica,sans-Serif" font-size="10.00">+ rowmaxC0()</text>
<text text-anchor="start" x="414" y="-167.5" font-family="Helvetica,sans-Serif" font-size="10.00">+ rowmaxC1()</text>
<text text-anchor="start" x="414" y="-156.5" font-family="Helvetica,sans-Serif" font-size="10.00"># TRDGeometryBase()</text>
<text text-anchor="start" x="414" y="-145.5" font-family="Helvetica,sans-Serif" font-size="10.00"># ClassDefNV()</text>
</a>
</g>
</g>
<!-- Node3&#45;&gt;Node1 -->
<g id="edge2" class="edge"><title>Node3&#45;&gt;Node1</title>
<path fill="none" stroke="midnightblue" d="M474.5,-127.955C474.5,-114.064 474.5,-101.591 474.5,-90.8252"/>
<polygon fill="none" stroke="midnightblue" points="471,-128.317 474.5,-138.317 478,-128.317 471,-128.317"/>
</g>
<!-- Node4 -->
<g id="node4" class="node"><title>Node4</title>
<g id="a_node4"><a xlink:href="../../d4/dc3/classfloat.html" target="_top" xlink:title="{float\n||}">
<polygon fill="none" stroke="black" points="247,-1866 247,-1923 282,-1923 282,-1866 247,-1866"/>
<text text-anchor="middle" x="264.5" y="-1911" font-family="Helvetica,sans-Serif" font-size="10.00">float</text>
<polyline fill="none" stroke="black" points="247,-1904 282,-1904 "/>
<text text-anchor="middle" x="264.5" y="-1892" font-family="Helvetica,sans-Serif" font-size="10.00"> </text>
<polyline fill="none" stroke="black" points="247,-1885 282,-1885 "/>
<text text-anchor="middle" x="264.5" y="-1873" font-family="Helvetica,sans-Serif" font-size="10.00"> </text>
</a>
</g>
</g>
<!-- Node4&#45;&gt;Node3 -->
<g id="edge3" class="edge"><title>Node4&#45;&gt;Node3</title>
<path fill="none" stroke="#404040" d="M263.03,-1865.93C260.574,-1805.75 258.68,-1658.58 290.5,-1541 308.466,-1474.61 309.564,-1450.32 358.5,-1402 371.797,-1388.87 385.542,-1399.14 396.5,-1384 397.298,-1382.9 398.089,-1381.79 398.875,-1380.68"/>
<polygon fill="none" stroke="#404040" points="399.01,-1380.49 399.1,-1373.28 405.79,-1370.59 405.7,-1377.8 399.01,-1380.49"/>
<text text-anchor="middle" x="372" y="-1471" font-family="Helvetica,sans-Serif" font-size="10.00"> +eps</text>
<text text-anchor="middle" x="372" y="-1460" font-family="Helvetica,sans-Serif" font-size="10.00">+y</text>
<text text-anchor="middle" x="372" y="-1449" font-family="Helvetica,sans-Serif" font-size="10.00">+z</text>
</g>
<!-- Node5 -->
<g id="node5" class="node"><title>Node5</title>
<g id="a_node5"><a xlink:href="../../da/dc0/classo2_1_1trd_1_1TRDPadPlane.html" target="_top" xlink:title="{o2::trd::TRDPadPlane\n|# mLength\l# mLengthRim\l# mLengthOPad\l# mWidthOPad\l# mTiltingAngle\l# mPadRowSMOffset\l# mAnodeWireOffset\l|+ TRDPadPlane()\l+ TRDPadPlane()\l+ TRDPadPlane()\l+ operator=()\l+ ~TRDPadPlane()\l+ setLayer()\l+ setStack()\l+ setRowSpacing()\l+ setColSpacing()\l+ setLengthRim()\l+ setWidthRim()\l+ setNcols()\l+ setNrows()\l+ setPadCol()\l+ setPadRow()\l+ setLength()\l+ setWidth()\l+ setLengthOPad()\l+ setWidthOPad()\l+ setLengthIPad()\l+ setWidthIPad()\l+ setPadRowSMOffset()\l+ setAnodeWireOffset()\l+ setTiltingAngle()\l+ GPUd()\l+ GPUd()\l+ GPUd()\l+ GPUd()\l+ GPUd()\l+ GPUd()\l+ GPUd()\l+ GPUd()\l+ GPUd()\l+ GPUd()\l+ GPUd()\l+ GPUd()\l+ GPUd()\l+ GPUd()\l+ GPUd()\l+ GPUd()\l+ GPUd()\l+ GPUd()\l+ GPUd()\l+ GPUd()\l+ GPUd()\l+ GPUd()\l+ GPUd()\l+ GPUd()\l+ GPUd()\l+ GPUd()\l+ GPUd()\l+ GPUd()\l+ GPUd()\l+ GPUd()\l}">
<polygon fill="none" stroke="black" points="300,-1541.5 300,-2247.5 425,-2247.5 425,-1541.5 300,-1541.5"/>
<text text-anchor="middle" x="362.5" y="-2235.5" font-family="Helvetica,sans-Serif" font-size="10.00">o2::trd::TRDPadPlane</text>
<polyline fill="none" stroke="black" points="300,-2228.5 425,-2228.5 "/>
<text text-anchor="start" x="308" y="-2216.5" font-family="Helvetica,sans-Serif" font-size="10.00"># mLength</text>
<text text-anchor="start" x="308" y="-2205.5" font-family="Helvetica,sans-Serif" font-size="10.00"># mLengthRim</text>
<text text-anchor="start" x="308" y="-2194.5" font-family="Helvetica,sans-Serif" font-size="10.00"># mLengthOPad</text>
<text text-anchor="start" x="308" y="-2183.5" font-family="Helvetica,sans-Serif" font-size="10.00"># mWidthOPad</text>
<text text-anchor="start" x="308" y="-2172.5" font-family="Helvetica,sans-Serif" font-size="10.00"># mTiltingAngle</text>
<text text-anchor="start" x="308" y="-2161.5" font-family="Helvetica,sans-Serif" font-size="10.00"># mPadRowSMOffset</text>
<text text-anchor="start" x="308" y="-2150.5" font-family="Helvetica,sans-Serif" font-size="10.00"># mAnodeWireOffset</text>
<polyline fill="none" stroke="black" points="300,-2143.5 425,-2143.5 "/>
<text text-anchor="start" x="308" y="-2131.5" font-family="Helvetica,sans-Serif" font-size="10.00">+ TRDPadPlane()</text>
<text text-anchor="start" x="308" y="-2120.5" font-family="Helvetica,sans-Serif" font-size="10.00">+ TRDPadPlane()</text>
<text text-anchor="start" x="308" y="-2109.5" font-family="Helvetica,sans-Serif" font-size="10.00">+ TRDPadPlane()</text>
<text text-anchor="start" x="308" y="-2098.5" font-family="Helvetica,sans-Serif" font-size="10.00">+ operator=()</text>
<text text-anchor="start" x="308" y="-2087.5" font-family="Helvetica,sans-Serif" font-size="10.00">+ ~TRDPadPlane()</text>
<text text-anchor="start" x="308" y="-2076.5" font-family="Helvetica,sans-Serif" font-size="10.00">+ setLayer()</text>
<text text-anchor="start" x="308" y="-2065.5" font-family="Helvetica,sans-Serif" font-size="10.00">+ setStack()</text>
<text text-anchor="start" x="308" y="-2054.5" font-family="Helvetica,sans-Serif" font-size="10.00">+ setRowSpacing()</text>
<text text-anchor="start" x="308" y="-2043.5" font-family="Helvetica,sans-Serif" font-size="10.00">+ setColSpacing()</text>
<text text-anchor="start" x="308" y="-2032.5" font-family="Helvetica,sans-Serif" font-size="10.00">+ setLengthRim()</text>
<text text-anchor="start" x="308" y="-2021.5" font-family="Helvetica,sans-Serif" font-size="10.00">+ setWidthRim()</text>
<text text-anchor="start" x="308" y="-2010.5" font-family="Helvetica,sans-Serif" font-size="10.00">+ setNcols()</text>
<text text-anchor="start" x="308" y="-1999.5" font-family="Helvetica,sans-Serif" font-size="10.00">+ setNrows()</text>
<text text-anchor="start" x="308" y="-1988.5" font-family="Helvetica,sans-Serif" font-size="10.00">+ setPadCol()</text>
<text text-anchor="start" x="308" y="-1977.5" font-family="Helvetica,sans-Serif" font-size="10.00">+ setPadRow()</text>
<text text-anchor="start" x="308" y="-1966.5" font-family="Helvetica,sans-Serif" font-size="10.00">+ setLength()</text>
<text text-anchor="start" x="308" y="-1955.5" font-family="Helvetica,sans-Serif" font-size="10.00">+ setWidth()</text>
<text text-anchor="start" x="308" y="-1944.5" font-family="Helvetica,sans-Serif" font-size="10.00">+ setLengthOPad()</text>
<text text-anchor="start" x="308" y="-1933.5" font-family="Helvetica,sans-Serif" font-size="10.00">+ setWidthOPad()</text>
<text text-anchor="start" x="308" y="-1922.5" font-family="Helvetica,sans-Serif" font-size="10.00">+ setLengthIPad()</text>
<text text-anchor="start" x="308" y="-1911.5" font-family="Helvetica,sans-Serif" font-size="10.00">+ setWidthIPad()</text>
<text text-anchor="start" x="308" y="-1900.5" font-family="Helvetica,sans-Serif" font-size="10.00">+ setPadRowSMOffset()</text>
<text text-anchor="start" x="308" y="-1889.5" font-family="Helvetica,sans-Serif" font-size="10.00">+ setAnodeWireOffset()</text>
<text text-anchor="start" x="308" y="-1878.5" font-family="Helvetica,sans-Serif" font-size="10.00">+ setTiltingAngle()</text>
<text text-anchor="start" x="308" y="-1867.5" font-family="Helvetica,sans-Serif" font-size="10.00">+ GPUd()</text>
<text text-anchor="start" x="308" y="-1856.5" font-family="Helvetica,sans-Serif" font-size="10.00">+ GPUd()</text>
<text text-anchor="start" x="308" y="-1845.5" font-family="Helvetica,sans-Serif" font-size="10.00">+ GPUd()</text>
<text text-anchor="start" x="308" y="-1834.5" font-family="Helvetica,sans-Serif" font-size="10.00">+ GPUd()</text>
<text text-anchor="start" x="308" y="-1823.5" font-family="Helvetica,sans-Serif" font-size="10.00">+ GPUd()</text>
<text text-anchor="start" x="308" y="-1812.5" font-family="Helvetica,sans-Serif" font-size="10.00">+ GPUd()</text>
<text text-anchor="start" x="308" y="-1801.5" font-family="Helvetica,sans-Serif" font-size="10.00">+ GPUd()</text>
<text text-anchor="start" x="308" y="-1790.5" font-family="Helvetica,sans-Serif" font-size="10.00">+ GPUd()</text>
<text text-anchor="start" x="308" y="-1779.5" font-family="Helvetica,sans-Serif" font-size="10.00">+ GPUd()</text>
<text text-anchor="start" x="308" y="-1768.5" font-family="Helvetica,sans-Serif" font-size="10.00">+ GPUd()</text>
<text text-anchor="start" x="308" y="-1757.5" font-family="Helvetica,sans-Serif" font-size="10.00">+ GPUd()</text>
<text text-anchor="start" x="308" y="-1746.5" font-family="Helvetica,sans-Serif" font-size="10.00">+ GPUd()</text>
<text text-anchor="start" x="308" y="-1735.5" font-family="Helvetica,sans-Serif" font-size="10.00">+ GPUd()</text>
<text text-anchor="start" x="308" y="-1724.5" font-family="Helvetica,sans-Serif" font-size="10.00">+ GPUd()</text>
<text text-anchor="start" x="308" y="-1713.5" font-family="Helvetica,sans-Serif" font-size="10.00">+ GPUd()</text>
<text text-anchor="start" x="308" y="-1702.5" font-family="Helvetica,sans-Serif" font-size="10.00">+ GPUd()</text>
<text text-anchor="start" x="308" y="-1691.5" font-family="Helvetica,sans-Serif" font-size="10.00">+ GPUd()</text>
<text text-anchor="start" x="308" y="-1680.5" font-family="Helvetica,sans-Serif" font-size="10.00">+ GPUd()</text>
<text text-anchor="start" x="308" y="-1669.5" font-family="Helvetica,sans-Serif" font-size="10.00">+ GPUd()</text>
<text text-anchor="start" x="308" y="-1658.5" font-family="Helvetica,sans-Serif" font-size="10.00">+ GPUd()</text>
<text text-anchor="start" x="308" y="-1647.5" font-family="Helvetica,sans-Serif" font-size="10.00">+ GPUd()</text>
<text text-anchor="start" x="308" y="-1636.5" font-family="Helvetica,sans-Serif" font-size="10.00">+ GPUd()</text>
<text text-anchor="start" x="308" y="-1625.5" font-family="Helvetica,sans-Serif" font-size="10.00">+ GPUd()</text>
<text text-anchor="start" x="308" y="-1614.5" font-family="Helvetica,sans-Serif" font-size="10.00">+ GPUd()</text>
<text text-anchor="start" x="308" y="-1603.5" font-family="Helvetica,sans-Serif" font-size="10.00">+ GPUd()</text>
<text text-anchor="start" x="308" y="-1592.5" font-family="Helvetica,sans-Serif" font-size="10.00">+ GPUd()</text>
<text text-anchor="start" x="308" y="-1581.5" font-family="Helvetica,sans-Serif" font-size="10.00">+ GPUd()</text>
<text text-anchor="start" x="308" y="-1570.5" font-family="Helvetica,sans-Serif" font-size="10.00">+ GPUd()</text>
<text text-anchor="start" x="308" y="-1559.5" font-family="Helvetica,sans-Serif" font-size="10.00">+ GPUd()</text>
<text text-anchor="start" x="308" y="-1548.5" font-family="Helvetica,sans-Serif" font-size="10.00">+ GPUd()</text>
</a>
</g>
</g>
<!-- Node5&#45;&gt;Node3 -->
<g id="edge4" class="edge"><title>Node5&#45;&gt;Node3</title>
<path fill="none" stroke="#404040" d="M384.631,-1541.27C388.229,-1494.41 392.202,-1447.02 396.5,-1402 399.048,-1375.31 401.802,-1348.01 404.702,-1320.44"/>
<polygon fill="none" stroke="#404040" points="404.735,-1320.13 401.389,-1313.74 405.998,-1308.19 409.344,-1314.58 404.735,-1320.13"/>
<text text-anchor="middle" x="428.5" y="-1460" font-family="Helvetica,sans-Serif" font-size="10.00"> #mPadPlanes</text>
</g>
<!-- Node6 -->
<g id="node6" class="node"><title>Node6</title>
<polygon fill="none" stroke="#bfbfbf" points="99,-2411 99,-2468 144,-2468 144,-2411 99,-2411"/>
<text text-anchor="middle" x="121.5" y="-2456" font-family="Helvetica,sans-Serif" font-size="10.00">double</text>
<polyline fill="none" stroke="#bfbfbf" points="99,-2449 144,-2449 "/>
<text text-anchor="middle" x="121.5" y="-2437" font-family="Helvetica,sans-Serif" font-size="10.00"> </text>
<polyline fill="none" stroke="#bfbfbf" points="99,-2430 144,-2430 "/>
<text text-anchor="middle" x="121.5" y="-2418" font-family="Helvetica,sans-Serif" font-size="10.00"> </text>
</g>
<!-- Node6&#45;&gt;Node5 -->
<g id="edge5" class="edge"><title>Node6&#45;&gt;Node5</title>
<path fill="none" stroke="#404040" d="M121.324,-2410.71C122.7,-2372.04 131.353,-2302.62 173.5,-2266 213.215,-2231.49 252.401,-2284.28 290.5,-2248 290.807,-2247.71 291.114,-2247.41 291.419,-2247.12"/>
<polygon fill="none" stroke="#404040" points="291.6,-2246.93 292.909,-2239.84 299.959,-2238.32 298.649,-2245.41 291.6,-2246.93"/>
<text text-anchor="middle" x="208.5" y="-2379" font-family="Helvetica,sans-Serif" font-size="10.00"> #mPadRow</text>
<text text-anchor="middle" x="208.5" y="-2368" font-family="Helvetica,sans-Serif" font-size="10.00">#mWidth</text>
<text text-anchor="middle" x="208.5" y="-2357" font-family="Helvetica,sans-Serif" font-size="10.00">#mTiltingTan</text>
<text text-anchor="middle" x="208.5" y="-2346" font-family="Helvetica,sans-Serif" font-size="10.00">#mWidthIPad</text>
<text text-anchor="middle" x="208.5" y="-2335" font-family="Helvetica,sans-Serif" font-size="10.00">#mPadCol</text>
<text text-anchor="middle" x="208.5" y="-2324" font-family="Helvetica,sans-Serif" font-size="10.00">+const</text>
<text text-anchor="middle" x="208.5" y="-2313" font-family="Helvetica,sans-Serif" font-size="10.00">#mLengthIPad</text>
<text text-anchor="middle" x="208.5" y="-2302" font-family="Helvetica,sans-Serif" font-size="10.00">#mWidthRim</text>
<text text-anchor="middle" x="208.5" y="-2291" font-family="Helvetica,sans-Serif" font-size="10.00">#mRowSpacing</text>
<text text-anchor="middle" x="208.5" y="-2280" font-family="Helvetica,sans-Serif" font-size="10.00">#mColSpacing</text>
<text text-anchor="middle" x="208.5" y="-2269" font-family="Helvetica,sans-Serif" font-size="10.00">...</text>
</g>
<!-- Node7 -->
<g id="node7" class="node"><title>Node7</title>
<polygon fill="none" stroke="#bfbfbf" points="0,-2411 0,-2468 81,-2468 81,-2411 0,-2411"/>
<text text-anchor="middle" x="40.5" y="-2456" font-family="Helvetica,sans-Serif" font-size="10.00">else return rphi</text>
<polyline fill="none" stroke="#bfbfbf" points="0,-2449 81,-2449 "/>
<text text-anchor="middle" x="40.5" y="-2437" font-family="Helvetica,sans-Serif" font-size="10.00"> </text>
<polyline fill="none" stroke="#bfbfbf" points="0,-2430 81,-2430 "/>
<text text-anchor="middle" x="40.5" y="-2418" font-family="Helvetica,sans-Serif" font-size="10.00"> </text>
</g>
<!-- Node7&#45;&gt;Node5 -->
<g id="edge6" class="edge"><title>Node7&#45;&gt;Node5</title>
<path fill="none" stroke="#404040" d="M35.8858,-2410.72C31.2247,-2372.06 29.5705,-2302.66 69.5,-2266 105.795,-2232.68 253.628,-2280.69 290.5,-2248 290.704,-2247.82 290.908,-2247.64 291.112,-2247.45"/>
<polygon fill="none" stroke="#404040" points="291.28,-2247.29 292.845,-2240.25 299.945,-2238.99 298.38,-2246.03 291.28,-2247.29"/>
<text text-anchor="middle" x="94.5" y="-2324" font-family="Helvetica,sans-Serif" font-size="10.00"> +mPadCol</text>
</g>
<!-- Node8 -->
<g id="node8" class="node"><title>Node8</title>
<polygon fill="none" stroke="#bfbfbf" points="460,-2411 460,-2468 489,-2468 489,-2411 460,-2411"/>
<text text-anchor="middle" x="474.5" y="-2456" font-family="Helvetica,sans-Serif" font-size="10.00">int</text>
<polyline fill="none" stroke="#bfbfbf" points="460,-2449 489,-2449 "/>
<text text-anchor="middle" x="474.5" y="-2437" font-family="Helvetica,sans-Serif" font-size="10.00"> </text>
<polyline fill="none" stroke="#bfbfbf" points="460,-2430 489,-2430 "/>
<text text-anchor="middle" x="474.5" y="-2418" font-family="Helvetica,sans-Serif" font-size="10.00"> </text>
</g>
<!-- Node8&#45;&gt;Node3 -->
<g id="edge10" class="edge"><title>Node8&#45;&gt;Node3</title>
<path fill="none" stroke="#404040" d="M474.5,-2410.8C474.5,-2291.44 474.5,-1808.42 474.5,-1395.79"/>
<polygon fill="none" stroke="#404040" points="474.5,-1395.6 470.5,-1389.6 474.5,-1383.6 478.5,-1389.6 474.5,-1395.6"/>
<text text-anchor="middle" x="503.5" y="-1908.5" font-family="Helvetica,sans-Serif" font-size="10.00"> +const</text>
<text text-anchor="middle" x="503.5" y="-1897.5" font-family="Helvetica,sans-Serif" font-size="10.00">#mSMStatus</text>
<text text-anchor="middle" x="503.5" y="-1886.5" font-family="Helvetica,sans-Serif" font-size="10.00">+stack</text>
<text text-anchor="middle" x="503.5" y="-1875.5" font-family="Helvetica,sans-Serif" font-size="10.00">+st</text>
</g>
<!-- Node8&#45;&gt;Node5 -->
<g id="edge7" class="edge"><title>Node8&#45;&gt;Node5</title>
<path fill="none" stroke="#404040" d="M459.844,-2414.23C457.049,-2410.82 453.916,-2407.6 450.5,-2405 432.039,-2390.95 415.522,-2405.48 401.5,-2387 391.471,-2373.78 383.939,-2323.47 378.312,-2259.75"/>
<polygon fill="none" stroke="#404040" points="378.304,-2259.66 373.808,-2254.02 377.283,-2247.7 381.779,-2253.34 378.304,-2259.66"/>
<text text-anchor="middle" x="431" y="-2351.5" font-family="Helvetica,sans-Serif" font-size="10.00"> #mNrows</text>
<text text-anchor="middle" x="431" y="-2340.5" font-family="Helvetica,sans-Serif" font-size="10.00">#mLayer</text>
<text text-anchor="middle" x="431" y="-2329.5" font-family="Helvetica,sans-Serif" font-size="10.00">#MAXROWS</text>
<text text-anchor="middle" x="431" y="-2318.5" font-family="Helvetica,sans-Serif" font-size="10.00">#mNcols</text>
<text text-anchor="middle" x="431" y="-2307.5" font-family="Helvetica,sans-Serif" font-size="10.00">#MAXCOLS</text>
<text text-anchor="middle" x="431" y="-2296.5" font-family="Helvetica,sans-Serif" font-size="10.00">#mStack</text>
</g>
<!-- Node9 -->
<g id="node9" class="node"><title>Node9</title>
<polygon fill="none" stroke="#bfbfbf" points="162,-2405.5 162,-2473.5 291,-2473.5 291,-2405.5 162,-2405.5"/>
<text text-anchor="start" x="170" y="-2461.5" font-family="Helvetica,sans-Serif" font-size="10.00">else return mPadRow</text>
<text text-anchor="middle" x="226.5" y="-2450.5" font-family="Helvetica,sans-Serif" font-size="10.00">[row] mPadRowSMOffset</text>
<polyline fill="none" stroke="#bfbfbf" points="162,-2443.5 291,-2443.5 "/>
<text text-anchor="middle" x="226.5" y="-2431.5" font-family="Helvetica,sans-Serif" font-size="10.00"> </text>
<polyline fill="none" stroke="#bfbfbf" points="162,-2424.5 291,-2424.5 "/>
<text text-anchor="middle" x="226.5" y="-2412.5" font-family="Helvetica,sans-Serif" font-size="10.00"> </text>
</g>
<!-- Node9&#45;&gt;Node5 -->
<g id="edge8" class="edge"><title>Node9&#45;&gt;Node5</title>
<path fill="none" stroke="#404040" d="M238.964,-2405.5C252.876,-2367.81 275.409,-2304.1 290.5,-2248 292.678,-2239.9 294.826,-2231.69 296.94,-2223.38"/>
<polygon fill="none" stroke="#404040" points="296.979,-2223.23 294.564,-2216.44 299.907,-2211.59 302.322,-2218.39 296.979,-2223.23"/>
<text text-anchor="middle" x="293" y="-2324" font-family="Helvetica,sans-Serif" font-size="10.00"> +z</text>
</g>
<!-- Node10 -->
<g id="node10" class="node"><title>Node10</title>
<polygon fill="none" stroke="#bfbfbf" points="309,-2411 309,-2468 442,-2468 442,-2411 309,-2411"/>
<text text-anchor="middle" x="375.5" y="-2456" font-family="Helvetica,sans-Serif" font-size="10.00">else return mPadRow[row]</text>
<polyline fill="none" stroke="#bfbfbf" points="309,-2449 442,-2449 "/>
<text text-anchor="middle" x="375.5" y="-2437" font-family="Helvetica,sans-Serif" font-size="10.00"> </text>
<polyline fill="none" stroke="#bfbfbf" points="309,-2430 442,-2430 "/>
<text text-anchor="middle" x="375.5" y="-2418" font-family="Helvetica,sans-Serif" font-size="10.00"> </text>
</g>
<!-- Node10&#45;&gt;Node5 -->
<g id="edge9" class="edge"><title>Node10&#45;&gt;Node5</title>
<path fill="none" stroke="#404040" d="M367.856,-2410.91C366.062,-2403.23 364.41,-2394.84 363.5,-2387 358.737,-2345.94 355.741,-2302.81 354.013,-2259.88"/>
<polygon fill="none" stroke="#404040" points="354.009,-2259.77 349.787,-2253.92 353.559,-2247.78 357.781,-2253.62 354.009,-2259.77"/>
<text text-anchor="middle" x="371" y="-2324" font-family="Helvetica,sans-Serif" font-size="10.00"> +z</text>
</g>
<!-- Node11 -->
<g id="node11" class="node"><title>Node11</title>
<polygon fill="none" stroke="#bfbfbf" points="551,-1866 551,-1923 586,-1923 586,-1866 551,-1866"/>
<text text-anchor="middle" x="568.5" y="-1911" font-family="Helvetica,sans-Serif" font-size="10.00">bool</text>
<polyline fill="none" stroke="#bfbfbf" points="551,-1904 586,-1904 "/>
<text text-anchor="middle" x="568.5" y="-1892" font-family="Helvetica,sans-Serif" font-size="10.00"> </text>
<polyline fill="none" stroke="#bfbfbf" points="551,-1885 586,-1885 "/>
<text text-anchor="middle" x="568.5" y="-1873" font-family="Helvetica,sans-Serif" font-size="10.00"> </text>
</g>
<!-- Node11&#45;&gt;Node3 -->
<g id="edge11" class="edge"><title>Node11&#45;&gt;Node3</title>
<path fill="none" stroke="#404040" d="M566.2,-1865.81C560.372,-1795.66 544.27,-1601.84 527.153,-1395.8"/>
<polygon fill="none" stroke="#404040" points="527.149,-1395.74 522.666,-1390.09 526.155,-1383.78 530.638,-1389.43 527.149,-1395.74"/>
<text text-anchor="middle" x="554" y="-1460" font-family="Helvetica,sans-Serif" font-size="10.00"> +status</text>
</g>
<!-- Node12 -->
<g id="node12" class="node"><title>Node12</title>
<polygon fill="none" stroke="#bfbfbf" points="606,-1866 606,-1923 647,-1923 647,-1866 606,-1866"/>
<text text-anchor="middle" x="626.5" y="-1911" font-family="Helvetica,sans-Serif" font-size="10.00">static</text>
<polyline fill="none" stroke="#bfbfbf" points="606,-1904 647,-1904 "/>
<text text-anchor="middle" x="626.5" y="-1892" font-family="Helvetica,sans-Serif" font-size="10.00"> </text>
<polyline fill="none" stroke="#bfbfbf" points="606,-1885 647,-1885 "/>
<text text-anchor="middle" x="626.5" y="-1873" font-family="Helvetica,sans-Serif" font-size="10.00"> </text>
</g>
<!-- Node12&#45;&gt;Node3 -->
<g id="edge12" class="edge"><title>Node12&#45;&gt;Node3</title>
<path fill="none" stroke="#404040" d="M624.331,-1865.59C619.616,-1805.94 607.781,-1661.63 594.5,-1541 587.683,-1479.08 608.409,-1455.5 576.5,-1402 569.487,-1390.24 558.48,-1395.78 551.5,-1384 550.681,-1382.62 549.869,-1381.23 549.063,-1379.84"/>
<polygon fill="none" stroke="#404040" points="548.898,-1379.54 542.472,-1376.27 543.022,-1369.08 549.447,-1372.35 548.898,-1379.54"/>
<text text-anchor="middle" x="625" y="-1515" font-family="Helvetica,sans-Serif" font-size="10.00"> #RPADW</text>
<text text-anchor="middle" x="625" y="-1504" font-family="Helvetica,sans-Serif" font-size="10.00">#VROCSM</text>
<text text-anchor="middle" x="625" y="-1493" font-family="Helvetica,sans-Serif" font-size="10.00">#MCMMAX</text>
<text text-anchor="middle" x="625" y="-1482" font-family="Helvetica,sans-Serif" font-size="10.00">#PGLTHICK</text>
<text text-anchor="middle" x="625" y="-1471" font-family="Helvetica,sans-Serif" font-size="10.00">#CPADW</text>
<text text-anchor="middle" x="625" y="-1460" font-family="Helvetica,sans-Serif" font-size="10.00">#PPDTHICK</text>
<text text-anchor="middle" x="625" y="-1449" font-family="Helvetica,sans-Serif" font-size="10.00">#RRHTHICK</text>
<text text-anchor="middle" x="625" y="-1438" font-family="Helvetica,sans-Serif" font-size="10.00">#RGLTHICK</text>
<text text-anchor="middle" x="625" y="-1427" font-family="Helvetica,sans-Serif" font-size="10.00">#CSVH</text>
<text text-anchor="middle" x="625" y="-1416" font-family="Helvetica,sans-Serif" font-size="10.00">#HSPACE</text>
<text text-anchor="middle" x="625" y="-1405" font-family="Helvetica,sans-Serif" font-size="10.00">...</text>
</g>
<!-- Node13 -->
<g id="node13" class="node"><title>Node13</title>
<polygon fill="none" stroke="#bfbfbf" points="561,-732.5 561,-789.5 602,-789.5 602,-732.5 561,-732.5"/>
<text text-anchor="middle" x="581.5" y="-777.5" font-family="Helvetica,sans-Serif" font-size="10.00">const</text>
<polyline fill="none" stroke="#bfbfbf" points="561,-770.5 602,-770.5 "/>
<text text-anchor="middle" x="581.5" y="-758.5" font-family="Helvetica,sans-Serif" font-size="10.00"> </text>
<polyline fill="none" stroke="#bfbfbf" points="561,-751.5 602,-751.5 "/>
<text text-anchor="middle" x="581.5" y="-739.5" font-family="Helvetica,sans-Serif" font-size="10.00"> </text>
</g>
<!-- Node13&#45;&gt;Node1 -->
<g id="edge13" class="edge"><title>Node13&#45;&gt;Node1</title>
<path fill="none" stroke="#404040" d="M586.215,-732.345C600.273,-642.641 635.899,-353.125 551.5,-138 546.228,-124.561 538.139,-111.673 529.153,-100.027"/>
<polygon fill="none" stroke="#404040" points="529.014,-99.8561 522.123,-97.73 521.436,-90.5517 528.326,-92.6778 529.014,-99.8561"/>
<text text-anchor="middle" x="586.5" y="-112" font-family="Helvetica,sans-Serif" font-size="10.00"> +mMatrixIndirection</text>
</g>
</g>
</svg>
