<?xml version="1.0" encoding="UTF-8" standalone="no"?>
<!DOCTYPE svg PUBLIC "-//W3C//DTD SVG 1.1//EN"
 "http://www.w3.org/Graphics/SVG/1.1/DTD/svg11.dtd">
<!-- Generated by graphviz version 2.38.0 (20140413.2041)
 -->
<!-- Title: o2::tpc::CalibPulserParam Pages: 1 -->
<svg width="339pt" height="1125pt"
 viewBox="0.00 0.00 339.00 1125.00" xmlns="http://www.w3.org/2000/svg" xmlns:xlink="http://www.w3.org/1999/xlink">
<g id="graph0" class="graph" transform="scale(1 1) rotate(0) translate(4 1121)">
<title>o2::tpc::CalibPulserParam</title>
<!-- Node1 -->
<g id="node1" class="node"><title>Node1</title>
<polygon fill="#bfbfbf" stroke="black" points="112.5,-0.5 112.5,-57.5 243.5,-57.5 243.5,-0.5 112.5,-0.5"/>
<text text-anchor="middle" x="178" y="-45.5" font-family="Helvetica,sans-Serif" font-size="10.00">o2::tpc::CalibPulserParam</text>
<polyline fill="none" stroke="black" points="112.5,-38.5 243.5,-38.5 "/>
<text text-anchor="middle" x="178" y="-26.5" font-family="Helvetica,sans-Serif" font-size="10.00"> </text>
<polyline fill="none" stroke="black" points="112.5,-19.5 243.5,-19.5 "/>
<text text-anchor="start" x="120.5" y="-7.5" font-family="Helvetica,sans-Serif" font-size="10.00">+ O2ParamDef()</text>
</g>
<!-- Node2 -->
<g id="node2" class="node"><title>Node2</title>
<g id="a_node2"><a xlink:href="../../d7/d50/classo2_1_1conf_1_1ConfigurableParamHelper.html" target="_top" xlink:title="{o2::conf::ConfigurableParam\lHelper\&lt; CalibPulserParam \&gt;\n||+ getName()\l+ printKeyValues()\l+ output()\l+ getDataMembers()\l+ putKeyValues()\l+ initFrom()\l+ serializeTo()\l+ Instance()\l}">
<polygon fill="none" stroke="black" points="0,-215.5 0,-360.5 142,-360.5 142,-215.5 0,-215.5"/>
<text text-anchor="start" x="8" y="-348.5" font-family="Helvetica,sans-Serif" font-size="10.00">o2::conf::ConfigurableParam</text>
<text text-anchor="middle" x="71" y="-337.5" font-family="Helvetica,sans-Serif" font-size="10.00">Helper&lt; CalibPulserParam &gt;</text>
<polyline fill="none" stroke="black" points="0,-330.5 142,-330.5 "/>
<text text-anchor="middle" x="71" y="-318.5" font-family="Helvetica,sans-Serif" font-size="10.00"> </text>
<polyline fill="none" stroke="black" points="0,-311.5 142,-311.5 "/>
<text text-anchor="start" x="8" y="-299.5" font-family="Helvetica,sans-Serif" font-size="10.00">+ getName()</text>
<text text-anchor="start" x="8" y="-288.5" font-family="Helvetica,sans-Serif" font-size="10.00">+ printKeyValues()</text>
<text text-anchor="start" x="8" y="-277.5" font-family="Helvetica,sans-Serif" font-size="10.00">+ output()</text>
<text text-anchor="start" x="8" y="-266.5" font-family="Helvetica,sans-Serif" font-size="10.00">+ getDataMembers()</text>
<text text-anchor="start" x="8" y="-255.5" font-family="Helvetica,sans-Serif" font-size="10.00">+ putKeyValues()</text>
<text text-anchor="start" x="8" y="-244.5" font-family="Helvetica,sans-Serif" font-size="10.00">+ initFrom()</text>
<text text-anchor="start" x="8" y="-233.5" font-family="Helvetica,sans-Serif" font-size="10.00">+ serializeTo()</text>
<text text-anchor="start" x="8" y="-222.5" font-family="Helvetica,sans-Serif" font-size="10.00">+ Instance()</text>
</a>
</g>
</g>
<!-- Node2&#45;&gt;Node1 -->
<g id="edge1" class="edge"><title>Node2&#45;&gt;Node1</title>
<path fill="none" stroke="midnightblue" d="M104.695,-206.068C125.847,-155.264 151.809,-92.908 166.473,-57.6866"/>
<polygon fill="none" stroke="midnightblue" points="101.418,-204.834 100.805,-215.411 107.88,-207.525 101.418,-204.834"/>
</g>
<!-- Node3 -->
<g id="node3" class="node"><title>Node3</title>
<g id="a_node3"><a xlink:href="../../d6/d14/classo2_1_1conf_1_1ConfigurableParam.html" target="_top" xlink:title="{o2::conf::ConfigurableParam\n||+ getName()\l+ printKeyValues()\l+ toString()\l+ printAllRegisteredParamNames()\l+ printAllKeyValuePairs()\l+ readINI()\l+ readJSON()\l+ readConfigFile()\l+ writeJSON()\l+ writeINI()\l+ getValueAs()\l+ setValue()\l+ setValue()\l+ setEnumValue()\l+ setArrayValue()\l+ setValues()\l+ initialize()\l+ toCCDB()\l+ fromCCDB()\l+ updateFromString()\l+ updateFromFile()\l# ConfigurableParam()\l# ~ConfigurableParam()\l# putKeyValues()\l# output()\l# serializeTo()\l# initFrom()\l# setRegisterMode()\l# initPropertyTree()\l# updateThroughStorageMap()\l# updateThroughStorageMapWith\lConversion()\l}">
<polygon fill="none" stroke="black" points="1.5,-591.5 1.5,-989.5 170.5,-989.5 170.5,-591.5 1.5,-591.5"/>
<text text-anchor="middle" x="86" y="-977.5" font-family="Helvetica,sans-Serif" font-size="10.00">o2::conf::ConfigurableParam</text>
<polyline fill="none" stroke="black" points="1.5,-970.5 170.5,-970.5 "/>
<text text-anchor="middle" x="86" y="-958.5" font-family="Helvetica,sans-Serif" font-size="10.00"> </text>
<polyline fill="none" stroke="black" points="1.5,-951.5 170.5,-951.5 "/>
<text text-anchor="start" x="9.5" y="-939.5" font-family="Helvetica,sans-Serif" font-size="10.00">+ getName()</text>
<text text-anchor="start" x="9.5" y="-928.5" font-family="Helvetica,sans-Serif" font-size="10.00">+ printKeyValues()</text>
<text text-anchor="start" x="9.5" y="-917.5" font-family="Helvetica,sans-Serif" font-size="10.00">+ toString()</text>
<text text-anchor="start" x="9.5" y="-906.5" font-family="Helvetica,sans-Serif" font-size="10.00">+ printAllRegisteredParamNames()</text>
<text text-anchor="start" x="9.5" y="-895.5" font-family="Helvetica,sans-Serif" font-size="10.00">+ printAllKeyValuePairs()</text>
<text text-anchor="start" x="9.5" y="-884.5" font-family="Helvetica,sans-Serif" font-size="10.00">+ readINI()</text>
<text text-anchor="start" x="9.5" y="-873.5" font-family="Helvetica,sans-Serif" font-size="10.00">+ readJSON()</text>
<text text-anchor="start" x="9.5" y="-862.5" font-family="Helvetica,sans-Serif" font-size="10.00">+ readConfigFile()</text>
<text text-anchor="start" x="9.5" y="-851.5" font-family="Helvetica,sans-Serif" font-size="10.00">+ writeJSON()</text>
<text text-anchor="start" x="9.5" y="-840.5" font-family="Helvetica,sans-Serif" font-size="10.00">+ writeINI()</text>
<text text-anchor="start" x="9.5" y="-829.5" font-family="Helvetica,sans-Serif" font-size="10.00">+ getValueAs()</text>
<text text-anchor="start" x="9.5" y="-818.5" font-family="Helvetica,sans-Serif" font-size="10.00">+ setValue()</text>
<text text-anchor="start" x="9.5" y="-807.5" font-family="Helvetica,sans-Serif" font-size="10.00">+ setValue()</text>
<text text-anchor="start" x="9.5" y="-796.5" font-family="Helvetica,sans-Serif" font-size="10.00">+ setEnumValue()</text>
<text text-anchor="start" x="9.5" y="-785.5" font-family="Helvetica,sans-Serif" font-size="10.00">+ setArrayValue()</text>
<text text-anchor="start" x="9.5" y="-774.5" font-family="Helvetica,sans-Serif" font-size="10.00">+ setValues()</text>
<text text-anchor="start" x="9.5" y="-763.5" font-family="Helvetica,sans-Serif" font-size="10.00">+ initialize()</text>
<text text-anchor="start" x="9.5" y="-752.5" font-family="Helvetica,sans-Serif" font-size="10.00">+ toCCDB()</text>
<text text-anchor="start" x="9.5" y="-741.5" font-family="Helvetica,sans-Serif" font-size="10.00">+ fromCCDB()</text>
<text text-anchor="start" x="9.5" y="-730.5" font-family="Helvetica,sans-Serif" font-size="10.00">+ updateFromString()</text>
<text text-anchor="start" x="9.5" y="-719.5" font-family="Helvetica,sans-Serif" font-size="10.00">+ updateFromFile()</text>
<text text-anchor="start" x="9.5" y="-708.5" font-family="Helvetica,sans-Serif" font-size="10.00"># ConfigurableParam()</text>
<text text-anchor="start" x="9.5" y="-697.5" font-family="Helvetica,sans-Serif" font-size="10.00"># ~ConfigurableParam()</text>
<text text-anchor="start" x="9.5" y="-686.5" font-family="Helvetica,sans-Serif" font-size="10.00"># putKeyValues()</text>
<text text-anchor="start" x="9.5" y="-675.5" font-family="Helvetica,sans-Serif" font-size="10.00"># output()</text>
<text text-anchor="start" x="9.5" y="-664.5" font-family="Helvetica,sans-Serif" font-size="10.00"># serializeTo()</text>
<text text-anchor="start" x="9.5" y="-653.5" font-family="Helvetica,sans-Serif" font-size="10.00"># initFrom()</text>
<text text-anchor="start" x="9.5" y="-642.5" font-family="Helvetica,sans-Serif" font-size="10.00"># setRegisterMode()</text>
<text text-anchor="start" x="9.5" y="-631.5" font-family="Helvetica,sans-Serif" font-size="10.00"># initPropertyTree()</text>
<text text-anchor="start" x="9.5" y="-620.5" font-family="Helvetica,sans-Serif" font-size="10.00"># updateThroughStorageMap()</text>
<text text-anchor="start" x="9.5" y="-609.5" font-family="Helvetica,sans-Serif" font-size="10.00"># updateThroughStorageMapWith</text>
<text text-anchor="start" x="9.5" y="-598.5" font-family="Helvetica,sans-Serif" font-size="10.00">Conversion()</text>
</a>
</g>
</g>
<!-- Node3&#45;&gt;Node2 -->
<g id="edge2" class="edge"><title>Node3&#45;&gt;Node2</title>
<path fill="none" stroke="midnightblue" d="M74.9457,-581.29C74.5964,-572.069 74.2783,-562.94 74,-554 71.9638,-488.583 71.2642,-414.043 71.0445,-360.718"/>
<polygon fill="none" stroke="midnightblue" points="71.45,-581.471 75.3364,-591.327 78.4447,-581.199 71.45,-581.471"/>
</g>
<!-- Node5 -->
<g id="node5" class="node"><title>Node5</title>
<g id="a_node5"><a xlink:href="../../d7/d50/classo2_1_1conf_1_1ConfigurableParamHelper.html" target="_top" xlink:title="{o2::conf::ConfigurableParam\lHelper\&lt; P \&gt;\n||+ getName()\l+ printKeyValues()\l+ output()\l+ getDataMembers()\l+ putKeyValues()\l+ initFrom()\l+ serializeTo()\l+ Instance()\l}">
<polygon fill="none" stroke="black" points="83.5,-408.5 83.5,-553.5 224.5,-553.5 224.5,-408.5 83.5,-408.5"/>
<text text-anchor="start" x="91.5" y="-541.5" font-family="Helvetica,sans-Serif" font-size="10.00">o2::conf::ConfigurableParam</text>
<text text-anchor="middle" x="154" y="-530.5" font-family="Helvetica,sans-Serif" font-size="10.00">Helper&lt; P &gt;</text>
<polyline fill="none" stroke="black" points="83.5,-523.5 224.5,-523.5 "/>
<text text-anchor="middle" x="154" y="-511.5" font-family="Helvetica,sans-Serif" font-size="10.00"> </text>
<polyline fill="none" stroke="black" points="83.5,-504.5 224.5,-504.5 "/>
<text text-anchor="start" x="91.5" y="-492.5" font-family="Helvetica,sans-Serif" font-size="10.00">+ getName()</text>
<text text-anchor="start" x="91.5" y="-481.5" font-family="Helvetica,sans-Serif" font-size="10.00">+ printKeyValues()</text>
<text text-anchor="start" x="91.5" y="-470.5" font-family="Helvetica,sans-Serif" font-size="10.00">+ output()</text>
<text text-anchor="start" x="91.5" y="-459.5" font-family="Helvetica,sans-Serif" font-size="10.00">+ getDataMembers()</text>
<text text-anchor="start" x="91.5" y="-448.5" font-family="Helvetica,sans-Serif" font-size="10.00">+ putKeyValues()</text>
<text text-anchor="start" x="91.5" y="-437.5" font-family="Helvetica,sans-Serif" font-size="10.00">+ initFrom()</text>
<text text-anchor="start" x="91.5" y="-426.5" font-family="Helvetica,sans-Serif" font-size="10.00">+ serializeTo()</text>
<text text-anchor="start" x="91.5" y="-415.5" font-family="Helvetica,sans-Serif" font-size="10.00">+ Instance()</text>
</a>
</g>
</g>
<!-- Node3&#45;&gt;Node5 -->
<g id="edge5" class="edge"><title>Node3&#45;&gt;Node5</title>
<path fill="none" stroke="midnightblue" d="M132.058,-581.224C134.168,-571.68 136.208,-562.458 138.137,-553.734"/>
<polygon fill="none" stroke="midnightblue" points="128.576,-580.759 129.834,-591.279 135.411,-582.27 128.576,-580.759"/>
</g>
<!-- Node4 -->
<g id="node4" class="node"><title>Node4</title>
<polygon fill="none" stroke="#bfbfbf" points="65.5,-1059.5 65.5,-1116.5 106.5,-1116.5 106.5,-1059.5 65.5,-1059.5"/>
<text text-anchor="middle" x="86" y="-1104.5" font-family="Helvetica,sans-Serif" font-size="10.00">static</text>
<polyline fill="none" stroke="#bfbfbf" points="65.5,-1097.5 106.5,-1097.5 "/>
<text text-anchor="middle" x="86" y="-1085.5" font-family="Helvetica,sans-Serif" font-size="10.00"> </text>
<polyline fill="none" stroke="#bfbfbf" points="65.5,-1078.5 106.5,-1078.5 "/>
<text text-anchor="middle" x="86" y="-1066.5" font-family="Helvetica,sans-Serif" font-size="10.00"> </text>
</g>
<!-- Node4&#45;&gt;Node3 -->
<g id="edge3" class="edge"><title>Node4&#45;&gt;Node3</title>
<path fill="none" stroke="#404040" d="M86,-1059.47C86,-1044.4 86,-1024.21 86,-1001.65"/>
<polygon fill="none" stroke="#404040" points="86.0001,-1001.65 82,-995.65 86,-989.65 90,-995.65 86.0001,-1001.65"/>
<text text-anchor="middle" x="139" y="-1033" font-family="Helvetica,sans-Serif" font-size="10.00"> #sEnumRegistry</text>
<text text-anchor="middle" x="139" y="-1022" font-family="Helvetica,sans-Serif" font-size="10.00">#sValueProvenanceMap</text>
<text text-anchor="middle" x="139" y="-1011" font-family="Helvetica,sans-Serif" font-size="10.00">#sKeyToStorageMap</text>
</g>
<!-- Node5&#45;&gt;Node2 -->
<g id="edge4" class="edge"><title>Node5&#45;&gt;Node2</title>
<path fill="none" stroke="orange" d="M118.857,-399.128C113.316,-386.378 107.621,-373.273 102.179,-360.749"/>
<polygon fill="orange" stroke="orange" points="115.662,-400.559 122.858,-408.335 122.082,-397.769 115.662,-400.559"/>
<text text-anchor="middle" x="163" y="-382" font-family="Helvetica,sans-Serif" font-size="10.00"> &lt; CalibPulserParam &gt;</text>
</g>
<!-- Node6 -->
<g id="node6" class="node"><title>Node6</title>
<g id="a_node6"><a xlink:href="../../d4/dc3/classfloat.html" target="_top" xlink:title="{float\n||}">
<polygon fill="none" stroke="black" points="160.5,-259.5 160.5,-316.5 195.5,-316.5 195.5,-259.5 160.5,-259.5"/>
<text text-anchor="middle" x="178" y="-304.5" font-family="Helvetica,sans-Serif" font-size="10.00">float</text>
<polyline fill="none" stroke="black" points="160.5,-297.5 195.5,-297.5 "/>
<text text-anchor="middle" x="178" y="-285.5" font-family="Helvetica,sans-Serif" font-size="10.00"> </text>
<polyline fill="none" stroke="black" points="160.5,-278.5 195.5,-278.5 "/>
<text text-anchor="middle" x="178" y="-266.5" font-family="Helvetica,sans-Serif" font-size="10.00"> </text>
</a>
</g>
</g>
<!-- Node6&#45;&gt;Node1 -->
<g id="edge6" class="edge"><title>Node6&#45;&gt;Node1</title>
<path fill="none" stroke="#404040" d="M178,-259.496C178,-213.919 178,-122.547 178,-69.8839"/>
<polygon fill="none" stroke="#404040" points="178,-69.6942 174,-63.6942 178,-57.6942 182,-63.6942 178,-69.6942"/>
<text text-anchor="middle" x="207" y="-161.5" font-family="Helvetica,sans-Serif" font-size="10.00"> +XminQtot</text>
<text text-anchor="middle" x="207" y="-150.5" font-family="Helvetica,sans-Serif" font-size="10.00">+XmaxQtot</text>
<text text-anchor="middle" x="207" y="-139.5" font-family="Helvetica,sans-Serif" font-size="10.00">+XminT0</text>
<text text-anchor="middle" x="207" y="-128.5" font-family="Helvetica,sans-Serif" font-size="10.00">+XmaxT0</text>
<text text-anchor="middle" x="207" y="-117.5" font-family="Helvetica,sans-Serif" font-size="10.00">+XminWidth</text>
<text text-anchor="middle" x="207" y="-106.5" font-family="Helvetica,sans-Serif" font-size="10.00">+XmaxWidth</text>
</g>
<!-- Node7 -->
<g id="node7" class="node"><title>Node7</title>
<polygon fill="none" stroke="#bfbfbf" points="244.5,-259.5 244.5,-316.5 273.5,-316.5 273.5,-259.5 244.5,-259.5"/>
<text text-anchor="middle" x="259" y="-304.5" font-family="Helvetica,sans-Serif" font-size="10.00">int</text>
<polyline fill="none" stroke="#bfbfbf" points="244.5,-297.5 273.5,-297.5 "/>
<text text-anchor="middle" x="259" y="-285.5" font-family="Helvetica,sans-Serif" font-size="10.00"> </text>
<polyline fill="none" stroke="#bfbfbf" points="244.5,-278.5 273.5,-278.5 "/>
<text text-anchor="middle" x="259" y="-266.5" font-family="Helvetica,sans-Serif" font-size="10.00"> </text>
</g>
<!-- Node7&#45;&gt;Node1 -->
<g id="edge7" class="edge"><title>Node7&#45;&gt;Node1</title>
<path fill="none" stroke="#404040" d="M262.661,-259.345C266.896,-216.989 269.592,-134.785 237,-76 235.17,-72.6987 232.995,-69.5541 230.576,-66.5732"/>
<polygon fill="none" stroke="#404040" points="230.374,-66.3582 223.349,-64.7292 222.151,-57.6184 229.176,-59.2473 230.374,-66.3582"/>
<text text-anchor="middle" x="297.5" y="-189" font-family="Helvetica,sans-Serif" font-size="10.00"> +FirstTimeBin</text>
<text text-anchor="middle" x="297.5" y="-178" font-family="Helvetica,sans-Serif" font-size="10.00">+PeakIntMinus</text>
<text text-anchor="middle" x="297.5" y="-167" font-family="Helvetica,sans-Serif" font-size="10.00">+NbinsQtot</text>
<text text-anchor="middle" x="297.5" y="-156" font-family="Helvetica,sans-Serif" font-size="10.00">+LastTimeBin</text>
<text text-anchor="middle" x="297.5" y="-145" font-family="Helvetica,sans-Serif" font-size="10.00">+MinimumQtot</text>
<text text-anchor="middle" x="297.5" y="-134" font-family="Helvetica,sans-Serif" font-size="10.00">+ADCMax</text>
<text text-anchor="middle" x="297.5" y="-123" font-family="Helvetica,sans-Serif" font-size="10.00">+NbinsT0</text>
<text text-anchor="middle" x="297.5" y="-112" font-family="Helvetica,sans-Serif" font-size="10.00">+PeakIntPlus</text>
<text text-anchor="middle" x="297.5" y="-101" font-family="Helvetica,sans-Serif" font-size="10.00">+NbinsWidth</text>
<text text-anchor="middle" x="297.5" y="-90" font-family="Helvetica,sans-Serif" font-size="10.00">+ADCMin</text>
<text text-anchor="middle" x="297.5" y="-79" font-family="Helvetica,sans-Serif" font-size="10.00">...</text>
</g>
</g>
</svg>
