<?xml version="1.0" encoding="UTF-8" standalone="no"?>
<!DOCTYPE svg PUBLIC "-//W3C//DTD SVG 1.1//EN"
 "http://www.w3.org/Graphics/SVG/1.1/DTD/svg11.dtd">
<!-- Generated by graphviz version 2.38.0 (20140413.2041)
 -->
<!-- Title: /home/travis/build/AliceO2Group/AliceO2/Detectors/EMCAL/reconstruction/include/EMCALReconstruction/ClusterizerTask.h Pages: 1 -->
<!--zoomable 396 -->
<svg id="main" version="1.1" xmlns="http://www.w3.org/2000/svg" xmlns:xlink="http://www.w3.org/1999/xlink" xml:space="preserve" onload="init(evt)">
<style type="text/css"><![CDATA[
.edge:hover path { stroke: red; }
.edge:hover polygon { stroke: red; fill: red; }
]]></style>
<script type="text/javascript"><![CDATA[
var edges = document.getElementsByTagName('g');
if (edges && edges.length) {
  for (var i=0;i<edges.length;i++) {
    if (edges[i].id.substr(0,4)=='edge') {
      edges[i].setAttribute('class','edge');
    }
  }
}
]]></script>
        <defs>
                <circle id="rim" cx="0" cy="0" r="7"/>
                <circle id="rim2" cx="0" cy="0" r="3.5"/>
                <g id="zoomPlus">
                        <use xlink:href="#rim" fill="#404040">
                                <set attributeName="fill" to="#808080" begin="zoomplus.mouseover" end="zoomplus.mouseout"/>
                        </use>
                        <path d="M-4,0h8M0,-4v8" fill="none" stroke="white" stroke-width="1.5" pointer-events="none"/>
                </g>
                <g id="zoomMin">
                        <use xlink:href="#rim" fill="#404040">
                                <set attributeName="fill" to="#808080" begin="zoomminus.mouseover" end="zoomminus.mouseout"/>
                        </use>
                        <path d="M-4,0h8" fill="none" stroke="white" stroke-width="1.5" pointer-events="none"/>
                </g>
                <g id="dirArrow">
                        <path fill="none" stroke="white" stroke-width="1.5" d="M0,-3.0v7 M-2.5,-0.5L0,-3.0L2.5,-0.5"/>
                </g>
               <g id="resetDef">
                       <use xlink:href="#rim2" fill="#404040">
                               <set attributeName="fill" to="#808080" begin="reset.mouseover" end="reset.mouseout"/>
                       </use>
               </g>
        </defs>

<script type="text/javascript">
var viewWidth = 2222;
var viewHeight = 396;
var sectionId = 'dynsection-0';
</script>
<script xlink:href="../../svgpan.js"/>
<svg id="graph" class="graph">
<g id="viewport">
<title>/home/travis/build/AliceO2Group/AliceO2/Detectors/EMCAL/reconstruction/include/EMCALReconstruction/ClusterizerTask.h</title>
<!-- Node1 -->
<g id="node1" class="node"><title>Node1</title>
<polygon fill="#bfbfbf" stroke="black" points="390.212,-324.5 390.212,-387.5 554.212,-387.5 554.212,-324.5 390.212,-324.5"/>
<text text-anchor="start" x="398.212" y="-375.5" font-family="Helvetica,sans-Serif" font-size="10.00">/home/travis/build</text>
<text text-anchor="start" x="398.212" y="-364.5" font-family="Helvetica,sans-Serif" font-size="10.00">/AliceO2Group/AliceO2</text>
<text text-anchor="start" x="398.212" y="-353.5" font-family="Helvetica,sans-Serif" font-size="10.00">/Detectors/EMCAL/reconstruction</text>
<text text-anchor="start" x="398.212" y="-342.5" font-family="Helvetica,sans-Serif" font-size="10.00">/include/EMCALReconstruction</text>
<text text-anchor="middle" x="472.212" y="-331.5" font-family="Helvetica,sans-Serif" font-size="10.00">/ClusterizerTask.h</text>
</g>
<!-- Node2 -->
<g id="node2" class="node"><title>Node2</title>
<g id="a_node2"><a xlink:href="../../dc/d27/DataFormats_2Detectors_2EMCAL_2include_2DataFormatsEMCAL_2Cluster_8h.html" target="_top" xlink:title="DataFormatsEMCAL/Cluster.h">
<polygon fill="none" stroke="black" points="280.712,-201.5 280.712,-220.5 431.712,-220.5 431.712,-201.5 280.712,-201.5"/>
<text text-anchor="middle" x="356.212" y="-208.5" font-family="Helvetica,sans-Serif" font-size="10.00">DataFormatsEMCAL/Cluster.h</text>
</a>
</g>
</g>
<!-- Node1&#45;&gt;Node2 -->
<g id="edge1" class="edge"><title>Node1&#45;&gt;Node2</title>
<path fill="none" stroke="midnightblue" d="M462.404,-324.208C454.699,-303.524 442.383,-276.576 425.212,-257 413.794,-243.984 397.745,-233.215 383.997,-225.478"/>
<polygon fill="midnightblue" stroke="midnightblue" points="385.4,-222.259 374.933,-220.617 382.091,-228.428 385.4,-222.259"/>
</g>
<!-- Node11 -->
<g id="node11" class="node"><title>Node11</title>
<g id="a_node11"><a xlink:href="../../d3/d6e/DataFormats_2Detectors_2EMCAL_2include_2DataFormatsEMCAL_2Digit_8h.html" target="_top" xlink:title="DataFormatsEMCAL/Digit.h">
<polygon fill="none" stroke="black" points="521.212,-201.5 521.212,-220.5 661.212,-220.5 661.212,-201.5 521.212,-201.5"/>
<text text-anchor="middle" x="591.212" y="-208.5" font-family="Helvetica,sans-Serif" font-size="10.00">DataFormatsEMCAL/Digit.h</text>
</a>
</g>
</g>
<!-- Node1&#45;&gt;Node11 -->
<g id="edge11" class="edge"><title>Node1&#45;&gt;Node11</title>
<path fill="none" stroke="midnightblue" d="M483.441,-324.268C492.065,-303.611 505.501,-276.67 523.212,-257 534.756,-244.178 550.72,-233.365 564.28,-225.555"/>
<polygon fill="midnightblue" stroke="midnightblue" points="566.13,-228.532 573.199,-220.64 562.751,-222.401 566.13,-228.532"/>
</g>
<!-- Node17 -->
<g id="node17" class="node"><title>Node17</title>
<g id="a_node17"><a xlink:href="../../dd/da8/EMCAL_2base_2include_2EMCALBase_2Geometry_8h.html" target="_top" xlink:title="EMCALBase/Geometry.h">
<polygon fill="none" stroke="black" points="1219.21,-201.5 1219.21,-220.5 1347.21,-220.5 1347.21,-201.5 1219.21,-201.5"/>
<text text-anchor="middle" x="1283.21" y="-208.5" font-family="Helvetica,sans-Serif" font-size="10.00">EMCALBase/Geometry.h</text>
</a>
</g>
</g>
<!-- Node1&#45;&gt;Node17 -->
<g id="edge22" class="edge"><title>Node1&#45;&gt;Node17</title>
<path fill="none" stroke="midnightblue" d="M554.438,-340.501C718.262,-311.615 1081.85,-247.505 1224.32,-222.384"/>
<polygon fill="midnightblue" stroke="midnightblue" points="1225.36,-225.756 1234.6,-220.572 1224.14,-218.862 1225.36,-225.756"/>
</g>
<!-- Node34 -->
<g id="node34" class="node"><title>Node34</title>
<g id="a_node34"><a xlink:href="../../d1/dff/DigitReader_8h.html" target="_top" xlink:title="Definition of EMCAL digit reader. ">
<polygon fill="none" stroke="black" points="532.712,-257.5 532.712,-287.5 649.712,-287.5 649.712,-257.5 532.712,-257.5"/>
<text text-anchor="start" x="540.712" y="-275.5" font-family="Helvetica,sans-Serif" font-size="10.00">EMCALReconstruction</text>
<text text-anchor="middle" x="591.212" y="-264.5" font-family="Helvetica,sans-Serif" font-size="10.00">/DigitReader.h</text>
</a>
</g>
</g>
<!-- Node1&#45;&gt;Node34 -->
<g id="edge47" class="edge"><title>Node1&#45;&gt;Node34</title>
<path fill="none" stroke="midnightblue" d="M516.861,-324.421C532.009,-314.046 548.529,-302.732 562.142,-293.409"/>
<polygon fill="midnightblue" stroke="midnightblue" points="564.351,-296.139 570.623,-287.6 560.395,-290.363 564.351,-296.139"/>
</g>
<!-- Node36 -->
<g id="node36" class="node"><title>Node36</title>
<g id="a_node36"><a xlink:href="../../d2/d45/ClusterizerParameters_8h.html" target="_top" xlink:title="Definition of the EMCAL clusterizer parameter class. ">
<polygon fill="none" stroke="black" points="35.7115,-257.5 35.7115,-287.5 160.712,-287.5 160.712,-257.5 35.7115,-257.5"/>
<text text-anchor="start" x="43.7115" y="-275.5" font-family="Helvetica,sans-Serif" font-size="10.00">EMCALReconstruction</text>
<text text-anchor="middle" x="98.2115" y="-264.5" font-family="Helvetica,sans-Serif" font-size="10.00">/ClusterizerParameters.h</text>
</a>
</g>
</g>
<!-- Node1&#45;&gt;Node36 -->
<g id="edge50" class="edge"><title>Node1&#45;&gt;Node36</title>
<path fill="none" stroke="midnightblue" d="M390.136,-337.114C324.618,-322.837 233.693,-303.023 170.805,-289.319"/>
<polygon fill="midnightblue" stroke="midnightblue" points="171.477,-285.883 160.961,-287.174 169.986,-292.723 171.477,-285.883"/>
</g>
<!-- Node37 -->
<g id="node37" class="node"><title>Node37</title>
<g id="a_node37"><a xlink:href="../../d5/d67/Detectors_2EMCAL_2reconstruction_2include_2EMCALReconstruction_2Clusterizer_8h.html" target="_top" xlink:title="EMCALReconstruction\l/Clusterizer.h">
<polygon fill="none" stroke="black" points="299.712,-257.5 299.712,-287.5 416.712,-287.5 416.712,-257.5 299.712,-257.5"/>
<text text-anchor="start" x="307.712" y="-275.5" font-family="Helvetica,sans-Serif" font-size="10.00">EMCALReconstruction</text>
<text text-anchor="middle" x="358.212" y="-264.5" font-family="Helvetica,sans-Serif" font-size="10.00">/Clusterizer.h</text>
</a>
</g>
</g>
<!-- Node1&#45;&gt;Node37 -->
<g id="edge52" class="edge"><title>Node1&#45;&gt;Node37</title>
<path fill="none" stroke="midnightblue" d="M429.438,-324.421C415.064,-314.145 399.402,-302.947 386.433,-293.676"/>
<polygon fill="midnightblue" stroke="midnightblue" points="388.105,-290.569 377.935,-287.6 384.034,-296.263 388.105,-290.569"/>
</g>
<!-- Node3 -->
<g id="node3" class="node"><title>Node3</title>
<polygon fill="none" stroke="#bfbfbf" points="30.2115,-140 30.2115,-159 68.2115,-159 68.2115,-140 30.2115,-140"/>
<text text-anchor="middle" x="49.2115" y="-147" font-family="Helvetica,sans-Serif" font-size="10.00">array</text>
</g>
<!-- Node2&#45;&gt;Node3 -->
<g id="edge2" class="edge"><title>Node2&#45;&gt;Node3</title>
<path fill="none" stroke="midnightblue" d="M280.661,-204.355C223.638,-198.539 144.068,-187.072 77.2115,-165 75.782,-164.528 74.3365,-163.99 72.8949,-163.406"/>
<polygon fill="midnightblue" stroke="midnightblue" points="74.1917,-160.149 63.6502,-159.087 71.2285,-166.491 74.1917,-160.149"/>
</g>
<!-- Node4 -->
<g id="node4" class="node"><title>Node4</title>
<polygon fill="none" stroke="#bfbfbf" points="710.712,-73 710.712,-92 755.712,-92 755.712,-73 710.712,-73"/>
<text text-anchor="middle" x="733.212" y="-80" font-family="Helvetica,sans-Serif" font-size="10.00">iosfwd</text>
</g>
<!-- Node2&#45;&gt;Node4 -->
<g id="edge3" class="edge"><title>Node2&#45;&gt;Node4</title>
<path fill="none" stroke="midnightblue" d="M348.781,-201.382C336.465,-186.031 314.822,-153.717 332.212,-134 344.404,-120.176 606.805,-95.0174 700.404,-86.4491"/>
<polygon fill="midnightblue" stroke="midnightblue" points="700.809,-89.9268 710.45,-85.5339 700.174,-82.9557 700.809,-89.9268"/>
</g>
<!-- Node5 -->
<g id="node5" class="node"><title>Node5</title>
<polygon fill="none" stroke="#bfbfbf" points="927.712,-73 927.712,-92 968.712,-92 968.712,-73 927.712,-73"/>
<text text-anchor="middle" x="948.212" y="-80" font-family="Helvetica,sans-Serif" font-size="10.00">string</text>
</g>
<!-- Node2&#45;&gt;Node5 -->
<g id="edge4" class="edge"><title>Node2&#45;&gt;Node5</title>
<path fill="none" stroke="midnightblue" d="M354.155,-201.425C350.916,-185.55 346.745,-151.6 365.212,-134 406.736,-94.4258 823.41,-106.001 880.212,-98 892.475,-96.2726 905.83,-93.601 917.432,-91.0193"/>
<polygon fill="midnightblue" stroke="midnightblue" points="918.551,-94.3536 927.513,-88.7034 916.984,-87.5313 918.551,-94.3536"/>
</g>
<!-- Node6 -->
<g id="node6" class="node"><title>Node6</title>
<polygon fill="none" stroke="#bfbfbf" points="700.212,-140 700.212,-159 744.212,-159 744.212,-140 700.212,-140"/>
<text text-anchor="middle" x="722.212" y="-147" font-family="Helvetica,sans-Serif" font-size="10.00">vector</text>
</g>
<!-- Node2&#45;&gt;Node6 -->
<g id="edge5" class="edge"><title>Node2&#45;&gt;Node6</title>
<path fill="none" stroke="midnightblue" d="M431.746,-206.407C500.548,-201.604 604.359,-190.495 691.212,-165 693.093,-164.448 695.004,-163.797 696.907,-163.082"/>
<polygon fill="midnightblue" stroke="midnightblue" points="698.338,-166.277 706.164,-159.135 695.593,-159.838 698.338,-166.277"/>
</g>
<!-- Node7 -->
<g id="node7" class="node"><title>Node7</title>
<g id="a_node7"><a xlink:href="../../df/d5d/common_2include_2CommonDataFormat_2TimeStamp_8h.html" target="_top" xlink:title="CommonDataFormat/TimeStamp.h">
<polygon fill="none" stroke="black" points="374.212,-140 374.212,-159 544.212,-159 544.212,-140 374.212,-140"/>
<text text-anchor="middle" x="459.212" y="-147" font-family="Helvetica,sans-Serif" font-size="10.00">CommonDataFormat/TimeStamp.h</text>
</a>
</g>
</g>
<!-- Node2&#45;&gt;Node7 -->
<g id="edge6" class="edge"><title>Node2&#45;&gt;Node7</title>
<path fill="none" stroke="midnightblue" d="M370.969,-201.475C387.872,-191.711 415.794,-175.581 435.702,-164.081"/>
<polygon fill="midnightblue" stroke="midnightblue" points="437.573,-167.042 444.482,-159.009 434.072,-160.981 437.573,-167.042"/>
</g>
<!-- Node10 -->
<g id="node10" class="node"><title>Node10</title>
<g id="a_node10"><a xlink:href="../../de/d64/RangeReference_8h.html" target="_top" xlink:title="Class to refer to the 1st entry and N elements of some group in the continuous container. ">
<polygon fill="none" stroke="black" points="86.7115,-140 86.7115,-159 279.712,-159 279.712,-140 86.7115,-140"/>
<text text-anchor="middle" x="183.212" y="-147" font-family="Helvetica,sans-Serif" font-size="10.00">CommonDataFormat/RangeReference.h</text>
</a>
</g>
</g>
<!-- Node2&#45;&gt;Node10 -->
<g id="edge9" class="edge"><title>Node2&#45;&gt;Node10</title>
<path fill="none" stroke="midnightblue" d="M331.425,-201.475C301.621,-191.225 251.421,-173.959 217.81,-162.399"/>
<polygon fill="midnightblue" stroke="midnightblue" points="218.547,-158.952 207.952,-159.009 216.27,-165.571 218.547,-158.952"/>
</g>
<!-- Node8 -->
<g id="node8" class="node"><title>Node8</title>
<g id="a_node8"><a xlink:href="../../d2/d45/GPUCommonRtypes_8h.html" target="_top" xlink:title="GPUCommonRtypes.h">
<polygon fill="none" stroke="black" points="400.212,-73 400.212,-92 518.212,-92 518.212,-73 400.212,-73"/>
<text text-anchor="middle" x="459.212" y="-80" font-family="Helvetica,sans-Serif" font-size="10.00">GPUCommonRtypes.h</text>
</a>
</g>
</g>
<!-- Node7&#45;&gt;Node8 -->
<g id="edge7" class="edge"><title>Node7&#45;&gt;Node8</title>
<path fill="none" stroke="midnightblue" d="M459.212,-139.734C459.212,-130.183 459.212,-114.618 459.212,-102.283"/>
<polygon fill="midnightblue" stroke="midnightblue" points="462.712,-102.127 459.212,-92.1273 455.712,-102.127 462.712,-102.127"/>
</g>
<!-- Node9 -->
<g id="node9" class="node"><title>Node9</title>
<polygon fill="none" stroke="#bfbfbf" points="487.212,-6 487.212,-25 543.212,-25 543.212,-6 487.212,-6"/>
<text text-anchor="middle" x="515.212" y="-13" font-family="Helvetica,sans-Serif" font-size="10.00">Rtypes.h</text>
</g>
<!-- Node8&#45;&gt;Node9 -->
<g id="edge8" class="edge"><title>Node8&#45;&gt;Node9</title>
<path fill="none" stroke="midnightblue" d="M466.764,-72.7338C475.496,-62.5979 490.063,-45.6899 500.948,-33.0556"/>
<polygon fill="midnightblue" stroke="midnightblue" points="503.903,-34.9879 507.779,-25.1273 498.6,-30.4189 503.903,-34.9879"/>
</g>
<!-- Node10&#45;&gt;Node8 -->
<g id="edge10" class="edge"><title>Node10&#45;&gt;Node8</title>
<path fill="none" stroke="midnightblue" d="M219.578,-139.936C269.324,-128.22 358.609,-107.193 413.027,-94.3768"/>
<polygon fill="midnightblue" stroke="midnightblue" points="413.834,-97.7827 422.765,-92.0834 412.229,-90.9691 413.834,-97.7827"/>
</g>
<!-- Node11&#45;&gt;Node4 -->
<g id="edge12" class="edge"><title>Node11&#45;&gt;Node4</title>
<path fill="none" stroke="midnightblue" d="M593.512,-201.379C598.001,-186.024 609.278,-153.704 629.212,-134 649.142,-114.3 678.267,-101.067 700.629,-93.107"/>
<polygon fill="midnightblue" stroke="midnightblue" points="702.016,-96.3327 710.37,-89.8164 699.776,-89.7009 702.016,-96.3327"/>
</g>
<!-- Node11&#45;&gt;Node7 -->
<g id="edge15" class="edge"><title>Node11&#45;&gt;Node7</title>
<path fill="none" stroke="midnightblue" d="M572.299,-201.475C550.049,-191.445 512.899,-174.7 487.286,-163.155"/>
<polygon fill="midnightblue" stroke="midnightblue" points="488.644,-159.928 478.089,-159.009 485.767,-166.309 488.644,-159.928"/>
</g>
<!-- Node11&#45;&gt;Node9 -->
<g id="edge14" class="edge"><title>Node11&#45;&gt;Node9</title>
<path fill="none" stroke="midnightblue" d="M587.848,-201.436C576.35,-172.162 538.443,-75.6473 522.44,-34.9053"/>
<polygon fill="midnightblue" stroke="midnightblue" points="525.623,-33.4351 518.71,-25.4068 519.108,-35.9942 525.623,-33.4351"/>
</g>
<!-- Node12 -->
<g id="node12" class="node"><title>Node12</title>
<polygon fill="none" stroke="#bfbfbf" points="638.212,-140 638.212,-159 682.212,-159 682.212,-140 638.212,-140"/>
<text text-anchor="middle" x="660.212" y="-147" font-family="Helvetica,sans-Serif" font-size="10.00">cmath</text>
</g>
<!-- Node11&#45;&gt;Node12 -->
<g id="edge13" class="edge"><title>Node11&#45;&gt;Node12</title>
<path fill="none" stroke="midnightblue" d="M601.098,-201.475C611.858,-192.197 629.283,-177.171 642.433,-165.831"/>
<polygon fill="midnightblue" stroke="midnightblue" points="645.056,-168.19 650.344,-159.009 640.485,-162.889 645.056,-168.19"/>
</g>
<!-- Node13 -->
<g id="node13" class="node"><title>Node13</title>
<g id="a_node13"><a xlink:href="../../dd/dda/DataFormats_2Detectors_2EMCAL_2include_2DataFormatsEMCAL_2Constants_8h.html" target="_top" xlink:title="DataFormatsEMCAL/Constants.h">
<polygon fill="none" stroke="black" points="876.212,-140 876.212,-159 1040.21,-159 1040.21,-140 876.212,-140"/>
<text text-anchor="middle" x="958.212" y="-147" font-family="Helvetica,sans-Serif" font-size="10.00">DataFormatsEMCAL/Constants.h</text>
</a>
</g>
</g>
<!-- Node11&#45;&gt;Node13 -->
<g id="edge16" class="edge"><title>Node11&#45;&gt;Node13</title>
<path fill="none" stroke="midnightblue" d="M643.794,-201.475C710.29,-190.694 824.646,-172.154 895.586,-160.653"/>
<polygon fill="midnightblue" stroke="midnightblue" points="896.416,-164.064 905.727,-159.009 895.296,-157.155 896.416,-164.064"/>
</g>
<!-- Node16 -->
<g id="node16" class="node"><title>Node16</title>
<polygon fill="none" stroke="#bfbfbf" points="762.712,-134.5 762.712,-164.5 857.712,-164.5 857.712,-134.5 762.712,-134.5"/>
<text text-anchor="start" x="770.712" y="-152.5" font-family="Helvetica,sans-Serif" font-size="10.00">boost/serialization</text>
<text text-anchor="middle" x="810.212" y="-141.5" font-family="Helvetica,sans-Serif" font-size="10.00">/base_object.hpp</text>
</g>
<!-- Node11&#45;&gt;Node16 -->
<g id="edge21" class="edge"><title>Node11&#45;&gt;Node16</title>
<path fill="none" stroke="midnightblue" d="M622.589,-201.475C656.423,-192.283 711.019,-177.449 752.616,-166.148"/>
<polygon fill="midnightblue" stroke="midnightblue" points="753.619,-169.502 762.352,-163.503 751.784,-162.747 753.619,-169.502"/>
</g>
<!-- Node13&#45;&gt;Node4 -->
<g id="edge18" class="edge"><title>Node13&#45;&gt;Node4</title>
<path fill="none" stroke="midnightblue" d="M928.333,-139.869C886.058,-127.656 809.092,-105.421 765.528,-92.8358"/>
<polygon fill="midnightblue" stroke="midnightblue" points="766.308,-89.4182 755.73,-90.0052 764.365,-96.1432 766.308,-89.4182"/>
</g>
<!-- Node13&#45;&gt;Node9 -->
<g id="edge17" class="edge"><title>Node13&#45;&gt;Node9</title>
<path fill="none" stroke="midnightblue" d="M951.151,-139.786C935.449,-120.643 897.652,-75.9119 880.212,-67 823.718,-38.1316 635.659,-23.6821 553.817,-18.6378"/>
<polygon fill="midnightblue" stroke="midnightblue" points="553.649,-15.1215 543.457,-18.0148 553.229,-22.1089 553.649,-15.1215"/>
</g>
<!-- Node14 -->
<g id="node14" class="node"><title>Node14</title>
<polygon fill="none" stroke="#bfbfbf" points="986.712,-73 986.712,-92 1045.71,-92 1045.71,-73 986.712,-73"/>
<text text-anchor="middle" x="1016.21" y="-80" font-family="Helvetica,sans-Serif" font-size="10.00">exception</text>
</g>
<!-- Node13&#45;&gt;Node14 -->
<g id="edge19" class="edge"><title>Node13&#45;&gt;Node14</title>
<path fill="none" stroke="midnightblue" d="M966.034,-139.734C975.165,-129.5 990.456,-112.364 1001.76,-99.6924"/>
<polygon fill="midnightblue" stroke="midnightblue" points="1004.47,-101.919 1008.51,-92.1273 999.244,-97.2585 1004.47,-101.919"/>
</g>
<!-- Node15 -->
<g id="node15" class="node"><title>Node15</title>
<polygon fill="none" stroke="#bfbfbf" points="825.212,-73 825.212,-92 871.212,-92 871.212,-73 825.212,-73"/>
<text text-anchor="middle" x="848.212" y="-80" font-family="Helvetica,sans-Serif" font-size="10.00">cstdint</text>
</g>
<!-- Node13&#45;&gt;Node15 -->
<g id="edge20" class="edge"><title>Node13&#45;&gt;Node15</title>
<path fill="none" stroke="midnightblue" d="M943.376,-139.734C924.904,-128.818 893.14,-110.049 871.432,-97.2209"/>
<polygon fill="midnightblue" stroke="midnightblue" points="873.201,-94.2014 862.812,-92.1273 869.64,-100.228 873.201,-94.2014"/>
</g>
<!-- Node17&#45;&gt;Node5 -->
<g id="edge24" class="edge"><title>Node17&#45;&gt;Node5</title>
<path fill="none" stroke="midnightblue" d="M1218.94,-202.809C1179.43,-196.583 1128.61,-185.252 1087.21,-165 1067.63,-155.422 1067.51,-145.835 1049.21,-134 1048.99,-133.858 1004.24,-111.493 974.388,-96.5777"/>
<polygon fill="midnightblue" stroke="midnightblue" points="975.805,-93.3729 965.295,-92.0343 972.676,-99.6348 975.805,-93.3729"/>
</g>
<!-- Node17&#45;&gt;Node6 -->
<g id="edge26" class="edge"><title>Node17&#45;&gt;Node6</title>
<path fill="none" stroke="midnightblue" d="M1218.83,-207.366C1097.49,-201.935 839.415,-188.034 753.212,-165 751.274,-164.482 749.309,-163.849 747.357,-163.14"/>
<polygon fill="midnightblue" stroke="midnightblue" points="748.468,-159.81 737.894,-159.142 745.744,-166.258 748.468,-159.81"/>
</g>
<!-- Node17&#45;&gt;Node13 -->
<g id="edge32" class="edge"><title>Node17&#45;&gt;Node13</title>
<path fill="none" stroke="midnightblue" d="M1236.65,-201.475C1178.12,-190.761 1077.74,-172.382 1014.83,-160.866"/>
<polygon fill="midnightblue" stroke="midnightblue" points="1015.16,-157.367 1004.69,-159.009 1013.9,-164.253 1015.16,-157.367"/>
</g>
<!-- Node17&#45;&gt;Node14 -->
<g id="edge23" class="edge"><title>Node17&#45;&gt;Node14</title>
<path fill="none" stroke="midnightblue" d="M1347.3,-202.088C1350.32,-201.719 1353.3,-201.355 1356.21,-201 1491.4,-184.529 1748.59,-233.134 1655.21,-134 1609.34,-85.3027 1119.61,-112.088 1054.21,-98 1051.14,-97.3374 1047.98,-96.466 1044.86,-95.4788"/>
<polygon fill="midnightblue" stroke="midnightblue" points="1045.79,-92.0944 1035.2,-92.0436 1043.45,-98.6903 1045.79,-92.0944"/>
</g>
<!-- Node18 -->
<g id="node18" class="node"><title>Node18</title>
<polygon fill="none" stroke="#bfbfbf" points="1264.21,-140 1264.21,-159 1302.21,-159 1302.21,-140 1264.21,-140"/>
<text text-anchor="middle" x="1283.21" y="-147" font-family="Helvetica,sans-Serif" font-size="10.00">tuple</text>
</g>
<!-- Node17&#45;&gt;Node18 -->
<g id="edge25" class="edge"><title>Node17&#45;&gt;Node18</title>
<path fill="none" stroke="midnightblue" d="M1283.21,-201.475C1283.21,-193.08 1283.21,-179.981 1283.21,-169.163"/>
<polygon fill="midnightblue" stroke="midnightblue" points="1286.71,-169.009 1283.21,-159.009 1279.71,-169.009 1286.71,-169.009"/>
</g>
<!-- Node19 -->
<g id="node19" class="node"><title>Node19</title>
<polygon fill="none" stroke="#bfbfbf" points="1320.21,-140 1320.21,-159 1400.21,-159 1400.21,-140 1320.21,-140"/>
<text text-anchor="middle" x="1360.21" y="-147" font-family="Helvetica,sans-Serif" font-size="10.00">RStringView.h</text>
</g>
<!-- Node17&#45;&gt;Node19 -->
<g id="edge27" class="edge"><title>Node17&#45;&gt;Node19</title>
<path fill="none" stroke="midnightblue" d="M1294.24,-201.475C1306.48,-192.02 1326.44,-176.596 1341.2,-165.187"/>
<polygon fill="midnightblue" stroke="midnightblue" points="1343.43,-167.893 1349.2,-159.009 1339.15,-162.354 1343.43,-167.893"/>
</g>
<!-- Node20 -->
<g id="node20" class="node"><title>Node20</title>
<polygon fill="none" stroke="#bfbfbf" points="2128.21,-73 2128.21,-92 2204.21,-92 2204.21,-73 2128.21,-73"/>
<text text-anchor="middle" x="2166.21" y="-80" font-family="Helvetica,sans-Serif" font-size="10.00">TGeoMatrix.h</text>
</g>
<!-- Node17&#45;&gt;Node20 -->
<g id="edge28" class="edge"><title>Node17&#45;&gt;Node20</title>
<path fill="none" stroke="midnightblue" d="M1347.29,-201.924C1350.3,-201.599 1353.29,-201.289 1356.21,-201 1569.54,-179.878 1625.37,-197.88 1837.21,-165 1964.51,-145.242 1994.93,-131.896 2119.21,-98 2122.61,-97.0732 2126.13,-96.0686 2129.65,-95.0353"/>
<polygon fill="midnightblue" stroke="midnightblue" points="2130.89,-98.3188 2139.46,-92.0882 2128.87,-91.6151 2130.89,-98.3188"/>
</g>
<!-- Node21 -->
<g id="node21" class="node"><title>Node21</title>
<polygon fill="none" stroke="#bfbfbf" points="1418.21,-140 1418.21,-159 1480.21,-159 1480.21,-140 1418.21,-140"/>
<text text-anchor="middle" x="1449.21" y="-147" font-family="Helvetica,sans-Serif" font-size="10.00">TNamed.h</text>
</g>
<!-- Node17&#45;&gt;Node21 -->
<g id="edge29" class="edge"><title>Node17&#45;&gt;Node21</title>
<path fill="none" stroke="midnightblue" d="M1307.38,-201.407C1332.75,-192.376 1373.8,-177.74 1409.21,-165 1411.44,-164.198 1413.74,-163.37 1416.05,-162.534"/>
<polygon fill="midnightblue" stroke="midnightblue" points="1417.32,-165.799 1425.53,-159.106 1414.93,-159.216 1417.32,-165.799"/>
</g>
<!-- Node22 -->
<g id="node22" class="node"><title>Node22</title>
<polygon fill="none" stroke="#bfbfbf" points="1498.21,-140 1498.21,-159 1562.21,-159 1562.21,-140 1498.21,-140"/>
<text text-anchor="middle" x="1530.21" y="-147" font-family="Helvetica,sans-Serif" font-size="10.00">TParticle.h</text>
</g>
<!-- Node17&#45;&gt;Node22 -->
<g id="edge30" class="edge"><title>Node17&#45;&gt;Node22</title>
<path fill="none" stroke="midnightblue" d="M1330.26,-201.46C1372.28,-193.421 1435.35,-180.344 1489.21,-165 1492,-164.205 1494.88,-163.322 1497.75,-162.395"/>
<polygon fill="midnightblue" stroke="midnightblue" points="1499.04,-165.657 1507.39,-159.139 1496.79,-159.025 1499.04,-165.657"/>
</g>
<!-- Node23 -->
<g id="node23" class="node"><title>Node23</title>
<polygon fill="none" stroke="#bfbfbf" points="1580.71,-140 1580.71,-159 1645.71,-159 1645.71,-140 1580.71,-140"/>
<text text-anchor="middle" x="1613.21" y="-147" font-family="Helvetica,sans-Serif" font-size="10.00">TVector3.h</text>
</g>
<!-- Node17&#45;&gt;Node23 -->
<g id="edge31" class="edge"><title>Node17&#45;&gt;Node23</title>
<path fill="none" stroke="midnightblue" d="M1346.33,-201.472C1417.82,-191.577 1529.77,-175.304 1571.21,-165 1574.43,-164.2 1577.75,-163.259 1581.05,-162.248"/>
<polygon fill="midnightblue" stroke="midnightblue" points="1582.35,-165.507 1590.76,-159.072 1580.17,-158.854 1582.35,-165.507"/>
</g>
<!-- Node24 -->
<g id="node24" class="node"><title>Node24</title>
<g id="a_node24"><a xlink:href="../../d5/d5e/GeometryBase_8h.html" target="_top" xlink:title="EMCALBase/GeometryBase.h">
<polygon fill="none" stroke="black" points="1096.21,-140 1096.21,-159 1246.21,-159 1246.21,-140 1096.21,-140"/>
<text text-anchor="middle" x="1171.21" y="-147" font-family="Helvetica,sans-Serif" font-size="10.00">EMCALBase/GeometryBase.h</text>
</a>
</g>
</g>
<!-- Node17&#45;&gt;Node24 -->
<g id="edge33" class="edge"><title>Node17&#45;&gt;Node24</title>
<path fill="none" stroke="midnightblue" d="M1267.16,-201.475C1248.62,-191.622 1217.87,-175.288 1196.19,-163.77"/>
<polygon fill="midnightblue" stroke="midnightblue" points="1197.7,-160.61 1187.23,-159.009 1194.42,-166.792 1197.7,-160.61"/>
</g>
<!-- Node25 -->
<g id="node25" class="node"><title>Node25</title>
<g id="a_node25"><a xlink:href="../../dd/d76/Cartesian3D_8h.html" target="_top" xlink:title="MathUtils/Cartesian3D.h">
<polygon fill="none" stroke="black" points="1702.71,-140 1702.71,-159 1827.71,-159 1827.71,-140 1702.71,-140"/>
<text text-anchor="middle" x="1765.21" y="-147" font-family="Helvetica,sans-Serif" font-size="10.00">MathUtils/Cartesian3D.h</text>
</a>
</g>
</g>
<!-- Node17&#45;&gt;Node25 -->
<g id="edge35" class="edge"><title>Node17&#45;&gt;Node25</title>
<path fill="none" stroke="midnightblue" d="M1347.3,-202.045C1350.31,-201.688 1353.29,-201.338 1356.21,-201 1503.65,-183.919 1541.39,-186.75 1688.21,-165 1696.25,-163.81 1704.72,-162.385 1713,-160.902"/>
<polygon fill="midnightblue" stroke="midnightblue" points="1713.75,-164.323 1722.95,-159.073 1712.48,-157.438 1713.75,-164.323"/>
</g>
<!-- Node24&#45;&gt;Node5 -->
<g id="edge34" class="edge"><title>Node24&#45;&gt;Node5</title>
<path fill="none" stroke="midnightblue" d="M1128.03,-139.975C1088.18,-131.474 1027.71,-116.961 977.212,-98 975.828,-97.4806 974.424,-96.9153 973.017,-96.319"/>
<polygon fill="midnightblue" stroke="midnightblue" points="974.443,-93.1225 963.899,-92.0904 971.498,-99.4728 974.443,-93.1225"/>
</g>
<!-- Node25&#45;&gt;Node4 -->
<g id="edge43" class="edge"><title>Node25&#45;&gt;Node4</title>
<path fill="none" stroke="midnightblue" d="M1707.94,-139.978C1691,-137.72 1672.39,-135.498 1655.21,-134 1283.39,-101.58 1187.27,-138.2 816.212,-98 799.551,-96.195 781.18,-93.1017 765.966,-90.2346"/>
<polygon fill="midnightblue" stroke="midnightblue" points="766.48,-86.7692 755.997,-88.3044 765.149,-93.6416 766.48,-86.7692"/>
</g>
<!-- Node25&#45;&gt;Node9 -->
<g id="edge41" class="edge"><title>Node25&#45;&gt;Node9</title>
<path fill="none" stroke="midnightblue" d="M1802.7,-139.999C1850.79,-128.72 1929.01,-108.962 1937.21,-98 1945.47,-86.9704 1946.78,-76.9137 1937.21,-67 1887.82,-15.8186 775.969,-15.8566 553.683,-16.3779"/>
<polygon fill="midnightblue" stroke="midnightblue" points="553.477,-12.8783 543.486,-16.4037 553.495,-19.8783 553.477,-12.8783"/>
</g>
<!-- Node25&#45;&gt;Node20 -->
<g id="edge42" class="edge"><title>Node25&#45;&gt;Node20</title>
<path fill="none" stroke="midnightblue" d="M1827.78,-142.587C1898.94,-135.168 2018.35,-120.605 2119.21,-98 2123.13,-97.1217 2127.2,-96.0767 2131.22,-94.956"/>
<polygon fill="midnightblue" stroke="midnightblue" points="2132.44,-98.2471 2141.04,-92.0657 2130.46,-91.532 2132.44,-98.2471"/>
</g>
<!-- Node26 -->
<g id="node26" class="node"><title>Node26</title>
<polygon fill="none" stroke="#bfbfbf" points="1063.71,-67.5 1063.71,-97.5 1214.71,-97.5 1214.71,-67.5 1063.71,-67.5"/>
<text text-anchor="start" x="1071.71" y="-85.5" font-family="Helvetica,sans-Serif" font-size="10.00">Math/GenVector/Displacement</text>
<text text-anchor="middle" x="1139.21" y="-74.5" font-family="Helvetica,sans-Serif" font-size="10.00">Vector3D.h</text>
</g>
<!-- Node25&#45;&gt;Node26 -->
<g id="edge36" class="edge"><title>Node25&#45;&gt;Node26</title>
<path fill="none" stroke="midnightblue" d="M1724.58,-139.994C1712.89,-137.778 1700.08,-135.573 1688.21,-134 1486.37,-107.246 1431.2,-122.91 1225.09,-98.0262"/>
<polygon fill="midnightblue" stroke="midnightblue" points="1225.51,-94.5517 1215.16,-96.8103 1224.66,-101.5 1225.51,-94.5517"/>
</g>
<!-- Node27 -->
<g id="node27" class="node"><title>Node27</title>
<polygon fill="none" stroke="#bfbfbf" points="1233.21,-73 1233.21,-92 1409.21,-92 1409.21,-73 1233.21,-73"/>
<text text-anchor="middle" x="1321.21" y="-80" font-family="Helvetica,sans-Serif" font-size="10.00">Math/GenVector/PositionVector3D.h</text>
</g>
<!-- Node25&#45;&gt;Node27 -->
<g id="edge37" class="edge"><title>Node25&#45;&gt;Node27</title>
<path fill="none" stroke="midnightblue" d="M1722.12,-139.959C1711.08,-137.89 1699.23,-135.767 1688.21,-134 1568.24,-114.75 1537.51,-115.074 1417.21,-98 1407.32,-96.5966 1396.87,-95.0661 1386.64,-93.5425"/>
<polygon fill="midnightblue" stroke="midnightblue" points="1386.93,-90.0463 1376.52,-92.0262 1385.89,-96.9691 1386.93,-90.0463"/>
</g>
<!-- Node28 -->
<g id="node28" class="node"><title>Node28</title>
<polygon fill="none" stroke="#bfbfbf" points="1426.71,-73 1426.71,-92 1575.71,-92 1575.71,-73 1426.71,-73"/>
<text text-anchor="middle" x="1501.21" y="-80" font-family="Helvetica,sans-Serif" font-size="10.00">Math/GenVector/Rotation3D.h</text>
</g>
<!-- Node25&#45;&gt;Node28 -->
<g id="edge38" class="edge"><title>Node25&#45;&gt;Node28</title>
<path fill="none" stroke="midnightblue" d="M1730.43,-139.936C1683.04,-128.268 1598.15,-107.367 1546.04,-94.5367"/>
<polygon fill="midnightblue" stroke="midnightblue" points="1546.62,-91.0757 1536.07,-92.0834 1544.95,-97.8727 1546.62,-91.0757"/>
</g>
<!-- Node29 -->
<g id="node29" class="node"><title>Node29</title>
<polygon fill="none" stroke="#bfbfbf" points="1594.21,-73 1594.21,-92 1750.21,-92 1750.21,-73 1594.21,-73"/>
<text text-anchor="middle" x="1672.21" y="-80" font-family="Helvetica,sans-Serif" font-size="10.00">Math/GenVector/Transform3D.h</text>
</g>
<!-- Node25&#45;&gt;Node29 -->
<g id="edge39" class="edge"><title>Node25&#45;&gt;Node29</title>
<path fill="none" stroke="midnightblue" d="M1752.67,-139.734C1737.33,-129.013 1711.15,-110.716 1692.83,-97.9137"/>
<polygon fill="midnightblue" stroke="midnightblue" points="1694.76,-94.9873 1684.56,-92.1273 1690.75,-100.725 1694.76,-94.9873"/>
</g>
<!-- Node30 -->
<g id="node30" class="node"><title>Node30</title>
<polygon fill="none" stroke="#bfbfbf" points="1768.21,-73 1768.21,-92 1928.21,-92 1928.21,-73 1768.21,-73"/>
<text text-anchor="middle" x="1848.21" y="-80" font-family="Helvetica,sans-Serif" font-size="10.00">Math/GenVector/Translation3D.h</text>
</g>
<!-- Node25&#45;&gt;Node30 -->
<g id="edge40" class="edge"><title>Node25&#45;&gt;Node30</title>
<path fill="none" stroke="midnightblue" d="M1776.41,-139.734C1789.85,-129.208 1812.61,-111.379 1828.91,-98.6174"/>
<polygon fill="midnightblue" stroke="midnightblue" points="1831.48,-101.049 1837.2,-92.1273 1827.16,-95.5374 1831.48,-101.049"/>
</g>
<!-- Node31 -->
<g id="node31" class="node"><title>Node31</title>
<g id="a_node31"><a xlink:href="../../d2/dd0/Cartesian2D_8h.html" target="_top" xlink:title="MathUtils/Cartesian2D.h">
<polygon fill="none" stroke="black" points="1984.71,-73 1984.71,-92 2109.71,-92 2109.71,-73 1984.71,-73"/>
<text text-anchor="middle" x="2047.21" y="-80" font-family="Helvetica,sans-Serif" font-size="10.00">MathUtils/Cartesian2D.h</text>
</a>
</g>
</g>
<!-- Node25&#45;&gt;Node31 -->
<g id="edge44" class="edge"><title>Node25&#45;&gt;Node31</title>
<path fill="none" stroke="midnightblue" d="M1802.37,-139.936C1853.2,-128.22 1944.42,-107.193 2000.02,-94.3768"/>
<polygon fill="midnightblue" stroke="midnightblue" points="2001.01,-97.7401 2009.97,-92.0834 1999.44,-90.919 2001.01,-97.7401"/>
</g>
<!-- Node32 -->
<g id="node32" class="node"><title>Node32</title>
<polygon fill="none" stroke="#bfbfbf" points="2062.71,-0.5 2062.71,-30.5 2213.71,-30.5 2213.71,-0.5 2062.71,-0.5"/>
<text text-anchor="start" x="2070.71" y="-18.5" font-family="Helvetica,sans-Serif" font-size="10.00">Math/GenVector/Displacement</text>
<text text-anchor="middle" x="2138.21" y="-7.5" font-family="Helvetica,sans-Serif" font-size="10.00">Vector2D.h</text>
</g>
<!-- Node31&#45;&gt;Node32 -->
<g id="edge45" class="edge"><title>Node31&#45;&gt;Node32</title>
<path fill="none" stroke="midnightblue" d="M2059.48,-72.7338C2072.37,-63.527 2093.09,-48.7328 2110.03,-36.6293"/>
<polygon fill="midnightblue" stroke="midnightblue" points="2112.38,-39.2495 2118.49,-30.589 2108.32,-33.5534 2112.38,-39.2495"/>
</g>
<!-- Node33 -->
<g id="node33" class="node"><title>Node33</title>
<polygon fill="none" stroke="#bfbfbf" points="1868.21,-6 1868.21,-25 2044.21,-25 2044.21,-6 1868.21,-6"/>
<text text-anchor="middle" x="1956.21" y="-13" font-family="Helvetica,sans-Serif" font-size="10.00">Math/GenVector/PositionVector2D.h</text>
</g>
<!-- Node31&#45;&gt;Node33 -->
<g id="edge46" class="edge"><title>Node31&#45;&gt;Node33</title>
<path fill="none" stroke="midnightblue" d="M2034.94,-72.7338C2020.07,-62.1106 1994.78,-44.0485 1976.88,-31.2642"/>
<polygon fill="midnightblue" stroke="midnightblue" points="1978.46,-28.0917 1968.29,-25.1273 1974.39,-33.7878 1978.46,-28.0917"/>
</g>
<!-- Node34&#45;&gt;Node11 -->
<g id="edge49" class="edge"><title>Node34&#45;&gt;Node11</title>
<path fill="none" stroke="midnightblue" d="M591.212,-257.399C591.212,-249.466 591.212,-239.458 591.212,-230.858"/>
<polygon fill="midnightblue" stroke="midnightblue" points="594.712,-230.658 591.212,-220.658 587.712,-230.658 594.712,-230.658"/>
</g>
<!-- Node35 -->
<g id="node35" class="node"><title>Node35</title>
<polygon fill="none" stroke="#bfbfbf" points="1365.21,-201.5 1365.21,-220.5 1415.21,-220.5 1415.21,-201.5 1365.21,-201.5"/>
<text text-anchor="middle" x="1390.21" y="-208.5" font-family="Helvetica,sans-Serif" font-size="10.00">TTree.h</text>
</g>
<!-- Node34&#45;&gt;Node35 -->
<g id="edge48" class="edge"><title>Node34&#45;&gt;Node35</title>
<path fill="none" stroke="midnightblue" d="M650.194,-271.465C777.57,-270.557 1087.78,-263.87 1355.18,-220.843"/>
<polygon fill="midnightblue" stroke="midnightblue" points="1355.77,-224.294 1365.08,-219.231 1354.64,-217.385 1355.77,-224.294"/>
</g>
<!-- Node36&#45;&gt;Node9 -->
<g id="edge51" class="edge"><title>Node36&#45;&gt;Node9</title>
<path fill="none" stroke="midnightblue" d="M66.2032,-257.398C50.321,-248.928 32.0513,-236.722 20.2115,-221 4.56416,-200.223 7.03071,-190.729 3.21153,-165 1.18851,-151.372 -2.20002,-146.671 3.21153,-134 20.1265,-94.3957 34.2231,-85.2899 73.2115,-67 144.58,-33.5202 383.171,-21.3238 476.921,-17.756"/>
<polygon fill="midnightblue" stroke="midnightblue" points="477.233,-21.247 487.097,-17.3812 476.975,-14.2517 477.233,-21.247"/>
</g>
<!-- Node37&#45;&gt;Node2 -->
<g id="edge55" class="edge"><title>Node37&#45;&gt;Node2</title>
<path fill="none" stroke="midnightblue" d="M357.738,-257.399C357.471,-249.466 357.134,-239.458 356.845,-230.858"/>
<polygon fill="midnightblue" stroke="midnightblue" points="360.337,-230.535 356.503,-220.658 353.341,-230.77 360.337,-230.535"/>
</g>
<!-- Node37&#45;&gt;Node3 -->
<g id="edge53" class="edge"><title>Node37&#45;&gt;Node3</title>
<path fill="none" stroke="midnightblue" d="M316.655,-257.443C261.276,-238.329 160.574,-202.233 77.2115,-165 76.2119,-164.554 75.1975,-164.088 74.1768,-163.61"/>
<polygon fill="midnightblue" stroke="midnightblue" points="75.5638,-160.391 65.0474,-159.105 72.4659,-166.669 75.5638,-160.391"/>
</g>
<!-- Node37&#45;&gt;Node9 -->
<g id="edge54" class="edge"><title>Node37&#45;&gt;Node9</title>
<path fill="none" stroke="midnightblue" d="M299.585,-268.459C183.983,-260.301 -55.7623,-231.43 21.2115,-134 78.2738,-61.7733 370.96,-29.195 476.886,-19.6413"/>
<polygon fill="midnightblue" stroke="midnightblue" points="477.468,-23.1036 487.122,-18.7378 476.853,-16.1307 477.468,-23.1036"/>
</g>
<!-- Node37&#45;&gt;Node11 -->
<g id="edge56" class="edge"><title>Node37&#45;&gt;Node11</title>
<path fill="none" stroke="midnightblue" d="M413.134,-257.475C454.385,-246.941 510.089,-232.716 548.145,-222.998"/>
<polygon fill="midnightblue" stroke="midnightblue" points="549.078,-226.372 557.901,-220.506 547.346,-219.59 549.078,-226.372"/>
</g>
<!-- Node37&#45;&gt;Node17 -->
<g id="edge57" class="edge"><title>Node37&#45;&gt;Node17</title>
<path fill="none" stroke="midnightblue" d="M416.98,-265.926C448.468,-263.042 487.937,-259.594 523.212,-257 774.376,-238.532 1072.67,-222.627 1208.81,-215.7"/>
<polygon fill="midnightblue" stroke="midnightblue" points="1209.3,-219.179 1219.11,-215.177 1208.95,-212.188 1209.3,-219.179"/>
</g>
</g>
</svg>
        <g id="navigator" transform="translate(0 0)" fill="#404254">
                <rect fill="#f2f5e9" fill-opacity="0.5" stroke="#606060" stroke-width=".5" x="0" y="0" width="60" height="60"/>
                <use id="zoomplus" xlink:href="#zoomPlus" x="17" y="9" onmousedown="handleZoom(evt,'in')"/>
                <use id="zoomminus" xlink:href="#zoomMin" x="42" y="9" onmousedown="handleZoom(evt,'out')"/>
                <use id="reset" xlink:href="#resetDef" x="30" y="36" onmousedown="handleReset()"/>
                <g id="arrowUp" xlink:href="#dirArrow" transform="translate(30 24)" onmousedown="handlePan(0,-1)">
                  <use xlink:href="#rim" fill="#404040">
                        <set attributeName="fill" to="#808080" begin="arrowUp.mouseover" end="arrowUp.mouseout"/>
                  </use>
                  <path fill="none" stroke="white" stroke-width="1.5" d="M0,-3.0v7 M-2.5,-0.5L0,-3.0L2.5,-0.5"/>
                </g>
                <g id="arrowRight" xlink:href="#dirArrow" transform="rotate(90) translate(36 -43)" onmousedown="handlePan(1,0)">
                  <use xlink:href="#rim" fill="#404040">
                        <set attributeName="fill" to="#808080" begin="arrowRight.mouseover" end="arrowRight.mouseout"/>
                  </use>
                  <path fill="none" stroke="white" stroke-width="1.5" d="M0,-3.0v7 M-2.5,-0.5L0,-3.0L2.5,-0.5"/>
                </g>
                <g id="arrowDown" xlink:href="#dirArrow" transform="rotate(180) translate(-30 -48)" onmousedown="handlePan(0,1)">
                  <use xlink:href="#rim" fill="#404040">
                        <set attributeName="fill" to="#808080" begin="arrowDown.mouseover" end="arrowDown.mouseout"/>
                  </use>
                  <path fill="none" stroke="white" stroke-width="1.5" d="M0,-3.0v7 M-2.5,-0.5L0,-3.0L2.5,-0.5"/>
                </g>
                <g id="arrowLeft" xlink:href="#dirArrow" transform="rotate(270) translate(-36 17)" onmousedown="handlePan(-1,0)">
                  <use xlink:href="#rim" fill="#404040">
                        <set attributeName="fill" to="#808080" begin="arrowLeft.mouseover" end="arrowLeft.mouseout"/>
                  </use>
                  <path fill="none" stroke="white" stroke-width="1.5" d="M0,-3.0v7 M-2.5,-0.5L0,-3.0L2.5,-0.5"/>
                </g>
        </g>
        <svg viewBox="0 0 15 15" width="100%" height="30px" preserveAspectRatio="xMaxYMin meet">
         <g id="arrow_out" transform="scale(0.3 0.3)">
          <a xlink:href="ClusterizerTask_8h__incl_org.svg" target="_base">
           <rect id="button" ry="5" rx="5" y="6" x="6" height="38" width="38"
                fill="#f2f5e9" fill-opacity="0.5" stroke="#606060" stroke-width="1.0"/>
           <path id="arrow"
             d="M 11.500037,31.436501 C 11.940474,20.09759 22.043105,11.32322 32.158766,21.979434 L 37.068811,17.246167 C 37.068811,17.246167 37.088388,32 37.088388,32 L 22.160133,31.978069 C 22.160133,31.978069 26.997745,27.140456 26.997745,27.140456 C 18.528582,18.264221 13.291696,25.230495 11.500037,31.436501 z"
             style="fill:#404040;"/>
          </a>
         </g>
        </svg>
</svg>
