<?xml version="1.0" encoding="UTF-8" standalone="no"?>
<!DOCTYPE svg PUBLIC "-//W3C//DTD SVG 1.1//EN"
 "http://www.w3.org/Graphics/SVG/1.1/DTD/svg11.dtd">
<!-- Generated by graphviz version 2.38.0 (20140413.2041)
 -->
<!-- Title: /home/travis/build/AliceO2Group/AliceO2/DataFormats/Detectors/ITSMFT/ITS/include/DataFormatsITS/TrackITS.h Pages: 1 -->
<svg width="2180pt" height="361pt"
 viewBox="0.00 0.00 2179.50 361.00" xmlns="http://www.w3.org/2000/svg" xmlns:xlink="http://www.w3.org/1999/xlink">
<g id="graph0" class="graph" transform="scale(1 1) rotate(0) translate(4 357)">
<title>/home/travis/build/AliceO2Group/AliceO2/DataFormats/Detectors/ITSMFT/ITS/include/DataFormatsITS/TrackITS.h</title>
<!-- Node1 -->
<g id="node1" class="node"><title>Node1</title>
<polygon fill="#bfbfbf" stroke="black" points="1199.5,-289.5 1199.5,-352.5 1367.5,-352.5 1367.5,-289.5 1199.5,-289.5"/>
<text text-anchor="start" x="1207.5" y="-340.5" font-family="Helvetica,sans-Serif" font-size="10.00">/home/travis/build</text>
<text text-anchor="start" x="1207.5" y="-329.5" font-family="Helvetica,sans-Serif" font-size="10.00">/AliceO2Group/AliceO2</text>
<text text-anchor="start" x="1207.5" y="-318.5" font-family="Helvetica,sans-Serif" font-size="10.00">/DataFormats/Detectors</text>
<text text-anchor="start" x="1207.5" y="-307.5" font-family="Helvetica,sans-Serif" font-size="10.00">/ITSMFT/ITS/include/DataFormats</text>
<text text-anchor="middle" x="1283.5" y="-296.5" font-family="Helvetica,sans-Serif" font-size="10.00">ITS/TrackITS.h</text>
</g>
<!-- Node2 -->
<g id="node2" class="node"><title>Node2</title>
<g id="a_node2"><a xlink:href="../../dd/dea/TrackITS_8cxx.html" target="_top" xlink:title="Implementation of the ITS cooked track. ">
<polygon fill="none" stroke="black" points="171,-195 171,-247 324,-247 324,-195 171,-195"/>
<text text-anchor="start" x="179" y="-235" font-family="Helvetica,sans-Serif" font-size="10.00">/home/travis/build</text>
<text text-anchor="start" x="179" y="-224" font-family="Helvetica,sans-Serif" font-size="10.00">/AliceO2Group/AliceO2</text>
<text text-anchor="start" x="179" y="-213" font-family="Helvetica,sans-Serif" font-size="10.00">/DataFormats/Detectors</text>
<text text-anchor="middle" x="247.5" y="-202" font-family="Helvetica,sans-Serif" font-size="10.00">/ITSMFT/ITS/src/TrackITS.cxx</text>
</a>
</g>
</g>
<!-- Node1&#45;&gt;Node2 -->
<g id="edge1" class="edge"><title>Node1&#45;&gt;Node2</title>
<path fill="none" stroke="midnightblue" d="M1188.98,-316.695C981.955,-308.911 494.077,-287.443 332.5,-253 325.126,-251.428 317.529,-249.356 310.052,-247.026"/>
<polygon fill="midnightblue" stroke="midnightblue" points="1189.1,-320.202 1199.22,-317.078 1189.36,-313.207 1189.1,-320.202"/>
</g>
<!-- Node3 -->
<g id="node3" class="node"><title>Node3</title>
<g id="a_node3"><a xlink:href="../../d3/dac/MatchTPCITS_8h.html" target="_top" xlink:title="Class to perform TPC ITS matching. ">
<polygon fill="none" stroke="black" points="342,-195 342,-247 535,-247 535,-195 342,-195"/>
<text text-anchor="start" x="350" y="-235" font-family="Helvetica,sans-Serif" font-size="10.00">/home/travis/build</text>
<text text-anchor="start" x="350" y="-224" font-family="Helvetica,sans-Serif" font-size="10.00">/AliceO2Group/AliceO2</text>
<text text-anchor="start" x="350" y="-213" font-family="Helvetica,sans-Serif" font-size="10.00">/Detectors/GlobalTracking</text>
<text text-anchor="middle" x="438.5" y="-202" font-family="Helvetica,sans-Serif" font-size="10.00">/include/GlobalTracking/MatchTPCITS.h</text>
</a>
</g>
</g>
<!-- Node1&#45;&gt;Node3 -->
<g id="edge2" class="edge"><title>Node1&#45;&gt;Node3</title>
<path fill="none" stroke="midnightblue" d="M1189.41,-310.501C1068.68,-298.141 852.825,-275.459 668.5,-253 624.705,-247.664 576.295,-241.221 535.231,-235.594"/>
<polygon fill="midnightblue" stroke="midnightblue" points="1189.06,-313.984 1199.36,-311.519 1189.77,-307.02 1189.06,-313.984"/>
</g>
<!-- Node10 -->
<g id="node10" class="node"><title>Node10</title>
<g id="a_node10"><a xlink:href="../../d6/d73/TPCITSMatchingSpec_8cxx.html" target="_top" xlink:title="/home/travis/build\l/AliceO2Group/AliceO2\l/Detectors/GlobalTrackingWorkflow\l/src/TPCITSMatchingSpec.cxx">
<polygon fill="none" stroke="black" points="669.5,-0.5 669.5,-52.5 841.5,-52.5 841.5,-0.5 669.5,-0.5"/>
<text text-anchor="start" x="677.5" y="-40.5" font-family="Helvetica,sans-Serif" font-size="10.00">/home/travis/build</text>
<text text-anchor="start" x="677.5" y="-29.5" font-family="Helvetica,sans-Serif" font-size="10.00">/AliceO2Group/AliceO2</text>
<text text-anchor="start" x="677.5" y="-18.5" font-family="Helvetica,sans-Serif" font-size="10.00">/Detectors/GlobalTrackingWorkflow</text>
<text text-anchor="middle" x="755.5" y="-7.5" font-family="Helvetica,sans-Serif" font-size="10.00">/src/TPCITSMatchingSpec.cxx</text>
</a>
</g>
</g>
<!-- Node1&#45;&gt;Node10 -->
<g id="edge11" class="edge"><title>Node1&#45;&gt;Node10</title>
<path fill="none" stroke="midnightblue" d="M1189.12,-309.644C1104.31,-298.822 987.447,-279.682 949.5,-253 879.854,-204.029 909.75,-150.141 850.5,-89 836.964,-75.0318 819.69,-62.6697 803.593,-52.7604"/>
<polygon fill="midnightblue" stroke="midnightblue" points="1188.93,-313.149 1199.29,-310.923 1189.81,-306.204 1188.93,-313.149"/>
</g>
<!-- Node11 -->
<g id="node11" class="node"><title>Node11</title>
<g id="a_node11"><a xlink:href="../../d6/d0c/CookedTracker_8h.html" target="_top" xlink:title="Definition of the &quot;Cooked Matrix&quot; ITS tracker. ">
<polygon fill="none" stroke="black" points="1105,-189.5 1105,-252.5 1284,-252.5 1284,-189.5 1105,-189.5"/>
<text text-anchor="start" x="1113" y="-240.5" font-family="Helvetica,sans-Serif" font-size="10.00">/home/travis/build</text>
<text text-anchor="start" x="1113" y="-229.5" font-family="Helvetica,sans-Serif" font-size="10.00">/AliceO2Group/AliceO2</text>
<text text-anchor="start" x="1113" y="-218.5" font-family="Helvetica,sans-Serif" font-size="10.00">/Detectors/ITSMFT/ITS</text>
<text text-anchor="start" x="1113" y="-207.5" font-family="Helvetica,sans-Serif" font-size="10.00">/reconstruction/include</text>
<text text-anchor="middle" x="1194.5" y="-196.5" font-family="Helvetica,sans-Serif" font-size="10.00">/ITSReconstruction/CookedTracker.h</text>
</a>
</g>
</g>
<!-- Node1&#45;&gt;Node11 -->
<g id="edge12" class="edge"><title>Node1&#45;&gt;Node11</title>
<path fill="none" stroke="midnightblue" d="M1248.71,-281.687C1239.95,-272.051 1230.68,-261.835 1222.32,-252.63"/>
<polygon fill="midnightblue" stroke="midnightblue" points="1246.27,-284.211 1255.58,-289.261 1251.45,-279.505 1246.27,-284.211"/>
</g>
<!-- Node14 -->
<g id="node14" class="node"><title>Node14</title>
<g id="a_node14"><a xlink:href="../../d6/dbc/CookedTrackerSpec_8cxx.html" target="_top" xlink:title="/home/travis/build\l/AliceO2Group/AliceO2\l/Detectors/ITSMFT/ITS\l/workflow/src/CookedTrackerSpec.cxx">
<polygon fill="none" stroke="black" points="915.5,-0.5 915.5,-52.5 1101.5,-52.5 1101.5,-0.5 915.5,-0.5"/>
<text text-anchor="start" x="923.5" y="-40.5" font-family="Helvetica,sans-Serif" font-size="10.00">/home/travis/build</text>
<text text-anchor="start" x="923.5" y="-29.5" font-family="Helvetica,sans-Serif" font-size="10.00">/AliceO2Group/AliceO2</text>
<text text-anchor="start" x="923.5" y="-18.5" font-family="Helvetica,sans-Serif" font-size="10.00">/Detectors/ITSMFT/ITS</text>
<text text-anchor="middle" x="1008.5" y="-7.5" font-family="Helvetica,sans-Serif" font-size="10.00">/workflow/src/CookedTrackerSpec.cxx</text>
</a>
</g>
</g>
<!-- Node1&#45;&gt;Node14 -->
<g id="edge25" class="edge"><title>Node1&#45;&gt;Node14</title>
<path fill="none" stroke="midnightblue" d="M1189.61,-306.494C1102.98,-288.346 979.943,-246.722 926.5,-153 912.41,-128.291 913.779,-114.441 926.5,-89 933.901,-74.1977 946.747,-62.0338 960.104,-52.5449"/>
<polygon fill="midnightblue" stroke="midnightblue" points="1188.96,-309.934 1199.46,-308.49 1190.35,-303.073 1188.96,-309.934"/>
</g>
<!-- Node16 -->
<g id="node16" class="node"><title>Node16</title>
<g id="a_node16"><a xlink:href="../../d7/da0/ITSMFT_2ITS_2tracking_2include_2ITStracking_2Tracker_8h.html" target="_top" xlink:title="/home/travis/build\l/AliceO2Group/AliceO2\l/Detectors/ITSMFT/ITS\l/tracking/include/ITStracking\l/Tracker.h">
<polygon fill="none" stroke="black" points="1302,-189.5 1302,-252.5 1443,-252.5 1443,-189.5 1302,-189.5"/>
<text text-anchor="start" x="1310" y="-240.5" font-family="Helvetica,sans-Serif" font-size="10.00">/home/travis/build</text>
<text text-anchor="start" x="1310" y="-229.5" font-family="Helvetica,sans-Serif" font-size="10.00">/AliceO2Group/AliceO2</text>
<text text-anchor="start" x="1310" y="-218.5" font-family="Helvetica,sans-Serif" font-size="10.00">/Detectors/ITSMFT/ITS</text>
<text text-anchor="start" x="1310" y="-207.5" font-family="Helvetica,sans-Serif" font-size="10.00">/tracking/include/ITStracking</text>
<text text-anchor="middle" x="1372.5" y="-196.5" font-family="Helvetica,sans-Serif" font-size="10.00">/Tracker.h</text>
</a>
</g>
</g>
<!-- Node1&#45;&gt;Node16 -->
<g id="edge17" class="edge"><title>Node1&#45;&gt;Node16</title>
<path fill="none" stroke="midnightblue" d="M1318.29,-281.687C1327.05,-272.051 1336.32,-261.835 1344.68,-252.63"/>
<polygon fill="midnightblue" stroke="midnightblue" points="1315.55,-279.505 1311.42,-289.261 1320.73,-284.211 1315.55,-279.505"/>
</g>
<!-- Node19 -->
<g id="node19" class="node"><title>Node19</title>
<g id="a_node19"><a xlink:href="../../de/d95/ITSMFT_2ITS_2workflow_2src_2TrackerSpec_8cxx.html" target="_top" xlink:title="/home/travis/build\l/AliceO2Group/AliceO2\l/Detectors/ITSMFT/ITS\l/workflow/src/TrackerSpec.cxx">
<polygon fill="none" stroke="black" points="1505.5,-0.5 1505.5,-52.5 1657.5,-52.5 1657.5,-0.5 1505.5,-0.5"/>
<text text-anchor="start" x="1513.5" y="-40.5" font-family="Helvetica,sans-Serif" font-size="10.00">/home/travis/build</text>
<text text-anchor="start" x="1513.5" y="-29.5" font-family="Helvetica,sans-Serif" font-size="10.00">/AliceO2Group/AliceO2</text>
<text text-anchor="start" x="1513.5" y="-18.5" font-family="Helvetica,sans-Serif" font-size="10.00">/Detectors/ITSMFT/ITS</text>
<text text-anchor="middle" x="1581.5" y="-7.5" font-family="Helvetica,sans-Serif" font-size="10.00">/workflow/src/TrackerSpec.cxx</text>
</a>
</g>
</g>
<!-- Node1&#45;&gt;Node19 -->
<g id="edge26" class="edge"><title>Node1&#45;&gt;Node19</title>
<path fill="none" stroke="midnightblue" d="M1377.3,-295.258C1403.61,-285.173 1430.9,-271.425 1452.5,-253 1477.67,-231.532 1464.34,-209.25 1490.5,-189 1535.88,-153.871 1580.04,-198.888 1614.5,-153 1636.82,-123.276 1616.66,-79.7326 1599.51,-52.5321"/>
<polygon fill="midnightblue" stroke="midnightblue" points="1375.84,-292.067 1367.67,-298.809 1378.26,-298.635 1375.84,-292.067"/>
</g>
<!-- Node20 -->
<g id="node20" class="node"><title>Node20</title>
<g id="a_node20"><a xlink:href="../../d2/d8c/ITSMFT_2ITS_2workflow_2include_2ITSWorkflow_2TrackReaderSpec_8h.html" target="_top" xlink:title="/home/travis/build\l/AliceO2Group/AliceO2\l/Detectors/ITSMFT/ITS\l/workflow/include/ITSWorkflow\l/TrackReaderSpec.h">
<polygon fill="none" stroke="black" points="677.5,-189.5 677.5,-252.5 829.5,-252.5 829.5,-189.5 677.5,-189.5"/>
<text text-anchor="start" x="685.5" y="-240.5" font-family="Helvetica,sans-Serif" font-size="10.00">/home/travis/build</text>
<text text-anchor="start" x="685.5" y="-229.5" font-family="Helvetica,sans-Serif" font-size="10.00">/AliceO2Group/AliceO2</text>
<text text-anchor="start" x="685.5" y="-218.5" font-family="Helvetica,sans-Serif" font-size="10.00">/Detectors/ITSMFT/ITS</text>
<text text-anchor="start" x="685.5" y="-207.5" font-family="Helvetica,sans-Serif" font-size="10.00">/workflow/include/ITSWorkflow</text>
<text text-anchor="middle" x="753.5" y="-196.5" font-family="Helvetica,sans-Serif" font-size="10.00">/TrackReaderSpec.h</text>
</a>
</g>
</g>
<!-- Node1&#45;&gt;Node20 -->
<g id="edge22" class="edge"><title>Node1&#45;&gt;Node20</title>
<path fill="none" stroke="midnightblue" d="M1189.05,-309.068C1101.84,-298.067 969.037,-279.006 855.5,-253 847.111,-251.078 838.404,-248.832 829.772,-246.443"/>
<polygon fill="midnightblue" stroke="midnightblue" points="1188.83,-312.568 1199.19,-310.337 1189.7,-305.623 1188.83,-312.568"/>
</g>
<!-- Node22 -->
<g id="node22" class="node"><title>Node22</title>
<g id="a_node22"><a xlink:href="../../dc/d27/ITS_2workflow_2src_2TrackWriterSpec_8cxx.html" target="_top" xlink:title="/home/travis/build\l/AliceO2Group/AliceO2\l/Detectors/ITSMFT/ITS\l/workflow/src/TrackWriterSpec.cxx">
<polygon fill="none" stroke="black" points="1499.5,-195 1499.5,-247 1669.5,-247 1669.5,-195 1499.5,-195"/>
<text text-anchor="start" x="1507.5" y="-235" font-family="Helvetica,sans-Serif" font-size="10.00">/home/travis/build</text>
<text text-anchor="start" x="1507.5" y="-224" font-family="Helvetica,sans-Serif" font-size="10.00">/AliceO2Group/AliceO2</text>
<text text-anchor="start" x="1507.5" y="-213" font-family="Helvetica,sans-Serif" font-size="10.00">/Detectors/ITSMFT/ITS</text>
<text text-anchor="middle" x="1584.5" y="-202" font-family="Helvetica,sans-Serif" font-size="10.00">/workflow/src/TrackWriterSpec.cxx</text>
</a>
</g>
</g>
<!-- Node1&#45;&gt;Node22 -->
<g id="edge27" class="edge"><title>Node1&#45;&gt;Node22</title>
<path fill="none" stroke="midnightblue" d="M1377.39,-289.432C1419.21,-275.816 1467.85,-259.978 1507.49,-247.073"/>
<polygon fill="midnightblue" stroke="midnightblue" points="1376.17,-286.147 1367.75,-292.571 1378.34,-292.803 1376.17,-286.147"/>
</g>
<!-- Node23 -->
<g id="node23" class="node"><title>Node23</title>
<g id="a_node23"><a xlink:href="../../d3/d0c/TrackInterpolation_8h.html" target="_top" xlink:title="Definition of the TrackInterpolation class. ">
<polygon fill="none" stroke="black" points="1688,-189.5 1688,-252.5 1855,-252.5 1855,-189.5 1688,-189.5"/>
<text text-anchor="start" x="1696" y="-240.5" font-family="Helvetica,sans-Serif" font-size="10.00">/home/travis/build</text>
<text text-anchor="start" x="1696" y="-229.5" font-family="Helvetica,sans-Serif" font-size="10.00">/AliceO2Group/AliceO2</text>
<text text-anchor="start" x="1696" y="-218.5" font-family="Helvetica,sans-Serif" font-size="10.00">/Detectors/TPC/calibration</text>
<text text-anchor="start" x="1696" y="-207.5" font-family="Helvetica,sans-Serif" font-size="10.00">/SpacePoints/include/SpacePoints</text>
<text text-anchor="middle" x="1771.5" y="-196.5" font-family="Helvetica,sans-Serif" font-size="10.00">/TrackInterpolation.h</text>
</a>
</g>
</g>
<!-- Node1&#45;&gt;Node23 -->
<g id="edge28" class="edge"><title>Node1&#45;&gt;Node23</title>
<path fill="none" stroke="midnightblue" d="M1378,-308.133C1458.56,-297.03 1577.06,-278.349 1678.5,-253 1681.55,-252.237 1684.65,-251.422 1687.77,-250.567"/>
<polygon fill="midnightblue" stroke="midnightblue" points="1377.32,-304.695 1367.88,-309.516 1378.26,-311.63 1377.32,-304.695"/>
</g>
<!-- Node27 -->
<g id="node27" class="node"><title>Node27</title>
<g id="a_node27"><a xlink:href="../../d2/d8a/DataInterpreterITS_8cxx.html" target="_top" xlink:title="converting ITS data to Event Visualisation primitives ">
<polygon fill="none" stroke="black" points="1873.5,-195 1873.5,-247 2019.5,-247 2019.5,-195 1873.5,-195"/>
<text text-anchor="start" x="1881.5" y="-235" font-family="Helvetica,sans-Serif" font-size="10.00">/home/travis/build</text>
<text text-anchor="start" x="1881.5" y="-224" font-family="Helvetica,sans-Serif" font-size="10.00">/AliceO2Group/AliceO2</text>
<text text-anchor="start" x="1881.5" y="-213" font-family="Helvetica,sans-Serif" font-size="10.00">/EventVisualisation/Detectors</text>
<text text-anchor="middle" x="1946.5" y="-202" font-family="Helvetica,sans-Serif" font-size="10.00">/src/DataInterpreterITS.cxx</text>
</a>
</g>
</g>
<!-- Node1&#45;&gt;Node27 -->
<g id="edge32" class="edge"><title>Node1&#45;&gt;Node27</title>
<path fill="none" stroke="midnightblue" d="M1378.13,-316.248C1494.17,-310.016 1696.17,-293.86 1864.5,-253 1871.3,-251.349 1878.31,-249.29 1885.23,-247.023"/>
<polygon fill="midnightblue" stroke="midnightblue" points="1377.67,-312.767 1367.86,-316.785 1378.03,-319.758 1377.67,-312.767"/>
</g>
<!-- Node28 -->
<g id="node28" class="node"><title>Node28</title>
<g id="a_node28"><a xlink:href="../../d6/d2c/GPUChainITS_8cxx.html" target="_top" xlink:title="/home/travis/build\l/AliceO2Group/AliceO2\l/GPU/GPUTracking/Global\l/GPUChainITS.cxx">
<polygon fill="none" stroke="black" points="2037.5,-195 2037.5,-247 2171.5,-247 2171.5,-195 2037.5,-195"/>
<text text-anchor="start" x="2045.5" y="-235" font-family="Helvetica,sans-Serif" font-size="10.00">/home/travis/build</text>
<text text-anchor="start" x="2045.5" y="-224" font-family="Helvetica,sans-Serif" font-size="10.00">/AliceO2Group/AliceO2</text>
<text text-anchor="start" x="2045.5" y="-213" font-family="Helvetica,sans-Serif" font-size="10.00">/GPU/GPUTracking/Global</text>
<text text-anchor="middle" x="2104.5" y="-202" font-family="Helvetica,sans-Serif" font-size="10.00">/GPUChainITS.cxx</text>
</a>
</g>
</g>
<!-- Node1&#45;&gt;Node28 -->
<g id="edge33" class="edge"><title>Node1&#45;&gt;Node28</title>
<path fill="none" stroke="midnightblue" d="M1377.83,-320.427C1520.66,-319.089 1799.45,-308.687 2028.5,-253 2035.01,-251.418 2041.69,-249.372 2048.26,-247.085"/>
<polygon fill="midnightblue" stroke="midnightblue" points="1377.75,-316.928 1367.78,-320.508 1377.81,-323.927 1377.75,-316.928"/>
</g>
<!-- Node4 -->
<g id="node4" class="node"><title>Node4</title>
<g id="a_node4"><a xlink:href="../../d0/d74/MatchTOF_8h.html" target="_top" xlink:title="Class to perform TOF calibration. ">
<polygon fill="none" stroke="black" points="93.5,-95 93.5,-147 269.5,-147 269.5,-95 93.5,-95"/>
<text text-anchor="start" x="101.5" y="-135" font-family="Helvetica,sans-Serif" font-size="10.00">/home/travis/build</text>
<text text-anchor="start" x="101.5" y="-124" font-family="Helvetica,sans-Serif" font-size="10.00">/AliceO2Group/AliceO2</text>
<text text-anchor="start" x="101.5" y="-113" font-family="Helvetica,sans-Serif" font-size="10.00">/Detectors/GlobalTracking</text>
<text text-anchor="middle" x="181.5" y="-102" font-family="Helvetica,sans-Serif" font-size="10.00">/include/GlobalTracking/MatchTOF.h</text>
</a>
</g>
</g>
<!-- Node3&#45;&gt;Node4 -->
<g id="edge3" class="edge"><title>Node3&#45;&gt;Node4</title>
<path fill="none" stroke="midnightblue" d="M362.981,-191.203C326.247,-177.195 282.511,-160.518 247.179,-147.045"/>
<polygon fill="midnightblue" stroke="midnightblue" points="362.059,-194.597 372.65,-194.89 364.553,-188.056 362.059,-194.597"/>
</g>
<!-- Node5 -->
<g id="node5" class="node"><title>Node5</title>
<g id="a_node5"><a xlink:href="../../db/d6a/MatchTOF_8cxx.html" target="_top" xlink:title="/home/travis/build\l/AliceO2Group/AliceO2\l/Detectors/GlobalTracking\l/src/MatchTOF.cxx">
<polygon fill="none" stroke="black" points="0,-0.5 0,-52.5 131,-52.5 131,-0.5 0,-0.5"/>
<text text-anchor="start" x="8" y="-40.5" font-family="Helvetica,sans-Serif" font-size="10.00">/home/travis/build</text>
<text text-anchor="start" x="8" y="-29.5" font-family="Helvetica,sans-Serif" font-size="10.00">/AliceO2Group/AliceO2</text>
<text text-anchor="start" x="8" y="-18.5" font-family="Helvetica,sans-Serif" font-size="10.00">/Detectors/GlobalTracking</text>
<text text-anchor="middle" x="65.5" y="-7.5" font-family="Helvetica,sans-Serif" font-size="10.00">/src/MatchTOF.cxx</text>
</a>
</g>
</g>
<!-- Node3&#45;&gt;Node5 -->
<g id="edge6" class="edge"><title>Node3&#45;&gt;Node5</title>
<path fill="none" stroke="midnightblue" d="M347.471,-192.491C342.424,-191.243 337.409,-190.069 332.5,-189 278.086,-177.155 123.998,-192.258 84.5,-153 58.2423,-126.902 58.2652,-81.0093 61.3837,-52.5419"/>
<polygon fill="midnightblue" stroke="midnightblue" points="346.643,-195.892 357.198,-194.972 348.373,-189.109 346.643,-195.892"/>
</g>
<!-- Node7 -->
<g id="node7" class="node"><title>Node7</title>
<g id="a_node7"><a xlink:href="../../dc/d59/MatchTPCITS_8cxx.html" target="_top" xlink:title="/home/travis/build\l/AliceO2Group/AliceO2\l/Detectors/GlobalTracking\l/src/MatchTPCITS.cxx">
<polygon fill="none" stroke="black" points="288,-95 288,-147 419,-147 419,-95 288,-95"/>
<text text-anchor="start" x="296" y="-135" font-family="Helvetica,sans-Serif" font-size="10.00">/home/travis/build</text>
<text text-anchor="start" x="296" y="-124" font-family="Helvetica,sans-Serif" font-size="10.00">/AliceO2Group/AliceO2</text>
<text text-anchor="start" x="296" y="-113" font-family="Helvetica,sans-Serif" font-size="10.00">/Detectors/GlobalTracking</text>
<text text-anchor="middle" x="353.5" y="-102" font-family="Helvetica,sans-Serif" font-size="10.00">/src/MatchTPCITS.cxx</text>
</a>
</g>
</g>
<!-- Node3&#45;&gt;Node7 -->
<g id="edge7" class="edge"><title>Node3&#45;&gt;Node7</title>
<path fill="none" stroke="midnightblue" d="M409.813,-186.925C398.541,-173.93 385.815,-159.257 375.315,-147.152"/>
<polygon fill="midnightblue" stroke="midnightblue" points="407.414,-189.501 416.61,-194.763 412.702,-184.915 407.414,-189.501"/>
</g>
<!-- Node8 -->
<g id="node8" class="node"><title>Node8</title>
<g id="a_node8"><a xlink:href="../../da/d20/TPCITSMatchingSpec_8h.html" target="_top" xlink:title="/home/travis/build\l/AliceO2Group/AliceO2\l/Detectors/GlobalTrackingWorkflow\l/include/GlobalTrackingWorkflow\l/TPCITSMatchingSpec.h">
<polygon fill="none" stroke="black" points="437.5,-89.5 437.5,-152.5 609.5,-152.5 609.5,-89.5 437.5,-89.5"/>
<text text-anchor="start" x="445.5" y="-140.5" font-family="Helvetica,sans-Serif" font-size="10.00">/home/travis/build</text>
<text text-anchor="start" x="445.5" y="-129.5" font-family="Helvetica,sans-Serif" font-size="10.00">/AliceO2Group/AliceO2</text>
<text text-anchor="start" x="445.5" y="-118.5" font-family="Helvetica,sans-Serif" font-size="10.00">/Detectors/GlobalTrackingWorkflow</text>
<text text-anchor="start" x="445.5" y="-107.5" font-family="Helvetica,sans-Serif" font-size="10.00">/include/GlobalTrackingWorkflow</text>
<text text-anchor="middle" x="523.5" y="-96.5" font-family="Helvetica,sans-Serif" font-size="10.00">/TPCITSMatchingSpec.h</text>
</a>
</g>
</g>
<!-- Node3&#45;&gt;Node8 -->
<g id="edge8" class="edge"><title>Node3&#45;&gt;Node8</title>
<path fill="none" stroke="midnightblue" d="M467.155,-186.963C476.747,-175.903 487.395,-163.627 496.83,-152.749"/>
<polygon fill="midnightblue" stroke="midnightblue" points="464.298,-184.915 460.39,-194.763 469.586,-189.501 464.298,-184.915"/>
</g>
<!-- Node4&#45;&gt;Node5 -->
<g id="edge4" class="edge"><title>Node4&#45;&gt;Node5</title>
<path fill="none" stroke="midnightblue" d="M142.131,-88.6064C127.387,-76.8496 110.846,-63.6599 96.9164,-52.5518"/>
<polygon fill="midnightblue" stroke="midnightblue" points="140.108,-91.47 150.109,-94.9682 144.472,-85.997 140.108,-91.47"/>
</g>
<!-- Node6 -->
<g id="node6" class="node"><title>Node6</title>
<g id="a_node6"><a xlink:href="../../d8/d84/RecoWorkflowSpec_8cxx.html" target="_top" xlink:title="/home/travis/build\l/AliceO2Group/AliceO2\l/Detectors/GlobalTrackingWorkflow\l/tofworkflow/src/RecoWorkflowSpec.cxx">
<polygon fill="none" stroke="black" points="149,-0.5 149,-52.5 344,-52.5 344,-0.5 149,-0.5"/>
<text text-anchor="start" x="157" y="-40.5" font-family="Helvetica,sans-Serif" font-size="10.00">/home/travis/build</text>
<text text-anchor="start" x="157" y="-29.5" font-family="Helvetica,sans-Serif" font-size="10.00">/AliceO2Group/AliceO2</text>
<text text-anchor="start" x="157" y="-18.5" font-family="Helvetica,sans-Serif" font-size="10.00">/Detectors/GlobalTrackingWorkflow</text>
<text text-anchor="middle" x="246.5" y="-7.5" font-family="Helvetica,sans-Serif" font-size="10.00">/tofworkflow/src/RecoWorkflowSpec.cxx</text>
</a>
</g>
</g>
<!-- Node4&#45;&gt;Node6 -->
<g id="edge5" class="edge"><title>Node4&#45;&gt;Node6</title>
<path fill="none" stroke="midnightblue" d="M205.063,-86.4679C212.884,-75.338 221.454,-63.1427 228.76,-52.7455"/>
<polygon fill="midnightblue" stroke="midnightblue" points="202.147,-84.5297 199.262,-94.724 207.875,-88.5544 202.147,-84.5297"/>
</g>
<!-- Node9 -->
<g id="node9" class="node"><title>Node9</title>
<g id="a_node9"><a xlink:href="../../d5/db4/MatchTPCITSWorkflow_8cxx.html" target="_top" xlink:title="/home/travis/build\l/AliceO2Group/AliceO2\l/Detectors/GlobalTrackingWorkflow\l/src/MatchTPCITSWorkflow.cxx">
<polygon fill="none" stroke="black" points="451.5,-0.5 451.5,-52.5 623.5,-52.5 623.5,-0.5 451.5,-0.5"/>
<text text-anchor="start" x="459.5" y="-40.5" font-family="Helvetica,sans-Serif" font-size="10.00">/home/travis/build</text>
<text text-anchor="start" x="459.5" y="-29.5" font-family="Helvetica,sans-Serif" font-size="10.00">/AliceO2Group/AliceO2</text>
<text text-anchor="start" x="459.5" y="-18.5" font-family="Helvetica,sans-Serif" font-size="10.00">/Detectors/GlobalTrackingWorkflow</text>
<text text-anchor="middle" x="537.5" y="-7.5" font-family="Helvetica,sans-Serif" font-size="10.00">/src/MatchTPCITSWorkflow.cxx</text>
</a>
</g>
</g>
<!-- Node8&#45;&gt;Node9 -->
<g id="edge9" class="edge"><title>Node8&#45;&gt;Node9</title>
<path fill="none" stroke="midnightblue" d="M529.641,-79.4229C531.013,-70.3585 532.43,-60.999 533.676,-52.7655"/>
<polygon fill="midnightblue" stroke="midnightblue" points="526.159,-79.0445 528.123,-89.4557 533.08,-80.0921 526.159,-79.0445"/>
</g>
<!-- Node8&#45;&gt;Node10 -->
<g id="edge10" class="edge"><title>Node8&#45;&gt;Node10</title>
<path fill="none" stroke="midnightblue" d="M609.71,-85.6275C637.168,-74.6799 667.014,-62.78 692.508,-52.6152"/>
<polygon fill="midnightblue" stroke="midnightblue" points="608.101,-82.501 600.108,-89.4557 610.694,-89.0032 608.101,-82.501"/>
</g>
<!-- Node12 -->
<g id="node12" class="node"><title>Node12</title>
<g id="a_node12"><a xlink:href="../../d7/dca/CookedTracker_8cxx.html" target="_top" xlink:title="Implementation of the &quot;Cooked Matrix&quot; ITS tracker. ">
<polygon fill="none" stroke="black" points="935.5,-95 935.5,-147 1121.5,-147 1121.5,-95 935.5,-95"/>
<text text-anchor="start" x="943.5" y="-135" font-family="Helvetica,sans-Serif" font-size="10.00">/home/travis/build</text>
<text text-anchor="start" x="943.5" y="-124" font-family="Helvetica,sans-Serif" font-size="10.00">/AliceO2Group/AliceO2</text>
<text text-anchor="start" x="943.5" y="-113" font-family="Helvetica,sans-Serif" font-size="10.00">/Detectors/ITSMFT/ITS</text>
<text text-anchor="middle" x="1028.5" y="-102" font-family="Helvetica,sans-Serif" font-size="10.00">/reconstruction/src/CookedTracker.cxx</text>
</a>
</g>
</g>
<!-- Node11&#45;&gt;Node12 -->
<g id="edge13" class="edge"><title>Node11&#45;&gt;Node12</title>
<path fill="none" stroke="midnightblue" d="M1133.65,-184.075C1112.82,-171.78 1089.99,-158.301 1070.94,-147.054"/>
<polygon fill="midnightblue" stroke="midnightblue" points="1132.04,-187.191 1142.43,-189.261 1135.6,-181.163 1132.04,-187.191"/>
</g>
<!-- Node13 -->
<g id="node13" class="node"><title>Node13</title>
<g id="a_node13"><a xlink:href="../../d2/d0b/CookedTrackerSpec_8h.html" target="_top" xlink:title="/home/travis/build\l/AliceO2Group/AliceO2\l/Detectors/ITSMFT/ITS\l/workflow/include/ITSWorkflow\l/CookedTrackerSpec.h">
<polygon fill="none" stroke="black" points="1139.5,-89.5 1139.5,-152.5 1291.5,-152.5 1291.5,-89.5 1139.5,-89.5"/>
<text text-anchor="start" x="1147.5" y="-140.5" font-family="Helvetica,sans-Serif" font-size="10.00">/home/travis/build</text>
<text text-anchor="start" x="1147.5" y="-129.5" font-family="Helvetica,sans-Serif" font-size="10.00">/AliceO2Group/AliceO2</text>
<text text-anchor="start" x="1147.5" y="-118.5" font-family="Helvetica,sans-Serif" font-size="10.00">/Detectors/ITSMFT/ITS</text>
<text text-anchor="start" x="1147.5" y="-107.5" font-family="Helvetica,sans-Serif" font-size="10.00">/workflow/include/ITSWorkflow</text>
<text text-anchor="middle" x="1215.5" y="-96.5" font-family="Helvetica,sans-Serif" font-size="10.00">/CookedTrackerSpec.h</text>
</a>
</g>
</g>
<!-- Node11&#45;&gt;Node13 -->
<g id="edge14" class="edge"><title>Node11&#45;&gt;Node13</title>
<path fill="none" stroke="midnightblue" d="M1203.2,-179.387C1205.12,-170.439 1207.12,-161.106 1208.94,-152.63"/>
<polygon fill="midnightblue" stroke="midnightblue" points="1199.76,-178.75 1201.09,-189.261 1206.6,-180.216 1199.76,-178.75"/>
</g>
<!-- Node13&#45;&gt;Node14 -->
<g id="edge15" class="edge"><title>Node13&#45;&gt;Node14</title>
<path fill="none" stroke="midnightblue" d="M1137.94,-85.3405C1113.62,-74.4722 1087.25,-62.6912 1064.7,-52.6152"/>
<polygon fill="midnightblue" stroke="midnightblue" points="1136.59,-88.5713 1147.15,-89.4557 1139.44,-82.1804 1136.59,-88.5713"/>
</g>
<!-- Node15 -->
<g id="node15" class="node"><title>Node15</title>
<g id="a_node15"><a xlink:href="../../d5/d99/ITSMFT_2ITS_2workflow_2src_2RecoWorkflow_8cxx.html" target="_top" xlink:title="/home/travis/build\l/AliceO2Group/AliceO2\l/Detectors/ITSMFT/ITS\l/workflow/src/RecoWorkflow.cxx">
<polygon fill="none" stroke="black" points="1204,-0.5 1204,-52.5 1365,-52.5 1365,-0.5 1204,-0.5"/>
<text text-anchor="start" x="1212" y="-40.5" font-family="Helvetica,sans-Serif" font-size="10.00">/home/travis/build</text>
<text text-anchor="start" x="1212" y="-29.5" font-family="Helvetica,sans-Serif" font-size="10.00">/AliceO2Group/AliceO2</text>
<text text-anchor="start" x="1212" y="-18.5" font-family="Helvetica,sans-Serif" font-size="10.00">/Detectors/ITSMFT/ITS</text>
<text text-anchor="middle" x="1284.5" y="-7.5" font-family="Helvetica,sans-Serif" font-size="10.00">/workflow/src/RecoWorkflow.cxx</text>
</a>
</g>
</g>
<!-- Node13&#45;&gt;Node15 -->
<g id="edge16" class="edge"><title>Node13&#45;&gt;Node15</title>
<path fill="none" stroke="midnightblue" d="M1244.46,-81.1732C1251.63,-71.5709 1259.12,-61.5302 1265.65,-52.7655"/>
<polygon fill="midnightblue" stroke="midnightblue" points="1241.46,-79.3474 1238.28,-89.4557 1247.07,-83.5328 1241.46,-79.3474"/>
</g>
<!-- Node17 -->
<g id="node17" class="node"><title>Node17</title>
<g id="a_node17"><a xlink:href="../../d7/dd9/ITSMFT_2ITS_2tracking_2src_2Tracker_8cxx.html" target="_top" xlink:title="/home/travis/build\l/AliceO2Group/AliceO2\l/Detectors/ITSMFT/ITS\l/tracking/src/Tracker.cxx">
<polygon fill="none" stroke="black" points="1310,-95 1310,-147 1435,-147 1435,-95 1310,-95"/>
<text text-anchor="start" x="1318" y="-135" font-family="Helvetica,sans-Serif" font-size="10.00">/home/travis/build</text>
<text text-anchor="start" x="1318" y="-124" font-family="Helvetica,sans-Serif" font-size="10.00">/AliceO2Group/AliceO2</text>
<text text-anchor="start" x="1318" y="-113" font-family="Helvetica,sans-Serif" font-size="10.00">/Detectors/ITSMFT/ITS</text>
<text text-anchor="middle" x="1372.5" y="-102" font-family="Helvetica,sans-Serif" font-size="10.00">/tracking/src/Tracker.cxx</text>
</a>
</g>
</g>
<!-- Node16&#45;&gt;Node17 -->
<g id="edge18" class="edge"><title>Node16&#45;&gt;Node17</title>
<path fill="none" stroke="midnightblue" d="M1372.5,-179.079C1372.5,-168.21 1372.5,-156.794 1372.5,-147.054"/>
<polygon fill="midnightblue" stroke="midnightblue" points="1369,-179.261 1372.5,-189.261 1376,-179.261 1369,-179.261"/>
</g>
<!-- Node18 -->
<g id="node18" class="node"><title>Node18</title>
<g id="a_node18"><a xlink:href="../../de/d90/ITSMFT_2ITS_2workflow_2include_2ITSWorkflow_2TrackerSpec_8h.html" target="_top" xlink:title="/home/travis/build\l/AliceO2Group/AliceO2\l/Detectors/ITSMFT/ITS\l/workflow/include/ITSWorkflow\l/TrackerSpec.h">
<polygon fill="none" stroke="black" points="1453.5,-89.5 1453.5,-152.5 1605.5,-152.5 1605.5,-89.5 1453.5,-89.5"/>
<text text-anchor="start" x="1461.5" y="-140.5" font-family="Helvetica,sans-Serif" font-size="10.00">/home/travis/build</text>
<text text-anchor="start" x="1461.5" y="-129.5" font-family="Helvetica,sans-Serif" font-size="10.00">/AliceO2Group/AliceO2</text>
<text text-anchor="start" x="1461.5" y="-118.5" font-family="Helvetica,sans-Serif" font-size="10.00">/Detectors/ITSMFT/ITS</text>
<text text-anchor="start" x="1461.5" y="-107.5" font-family="Helvetica,sans-Serif" font-size="10.00">/workflow/include/ITSWorkflow</text>
<text text-anchor="middle" x="1529.5" y="-96.5" font-family="Helvetica,sans-Serif" font-size="10.00">/TrackerSpec.h</text>
</a>
</g>
</g>
<!-- Node16&#45;&gt;Node18 -->
<g id="edge19" class="edge"><title>Node16&#45;&gt;Node18</title>
<path fill="none" stroke="midnightblue" d="M1430.23,-183.966C1446.71,-173.676 1464.52,-162.564 1480.43,-152.63"/>
<polygon fill="midnightblue" stroke="midnightblue" points="1428.37,-180.997 1421.75,-189.261 1432.08,-186.935 1428.37,-180.997"/>
</g>
<!-- Node18&#45;&gt;Node15 -->
<g id="edge20" class="edge"><title>Node18&#45;&gt;Node15</title>
<path fill="none" stroke="midnightblue" d="M1443.6,-87.5674C1413.25,-76.1102 1379.61,-63.4073 1351.1,-52.6453"/>
<polygon fill="midnightblue" stroke="midnightblue" points="1442.73,-90.9817 1453.32,-91.2395 1445.2,-84.4329 1442.73,-90.9817"/>
</g>
<!-- Node18&#45;&gt;Node19 -->
<g id="edge21" class="edge"><title>Node18&#45;&gt;Node19</title>
<path fill="none" stroke="midnightblue" d="M1551.65,-80.5907C1556.95,-71.1657 1562.47,-61.3532 1567.3,-52.7655"/>
<polygon fill="midnightblue" stroke="midnightblue" points="1548.52,-79.0235 1546.67,-89.4557 1554.62,-82.4538 1548.52,-79.0235"/>
</g>
<!-- Node20&#45;&gt;Node9 -->
<g id="edge23" class="edge"><title>Node20&#45;&gt;Node9</title>
<path fill="none" stroke="midnightblue" d="M692.13,-183.582C679.52,-174.52 666.926,-164.168 656.5,-153 633.925,-128.819 640.526,-113.682 618.5,-89 606.391,-75.4311 590.914,-62.8253 576.739,-52.6041"/>
<polygon fill="midnightblue" stroke="midnightblue" points="690.192,-186.497 700.396,-189.346 694.196,-180.755 690.192,-186.497"/>
</g>
<!-- Node21 -->
<g id="node21" class="node"><title>Node21</title>
<g id="a_node21"><a xlink:href="../../dc/d5e/ITSMFT_2ITS_2workflow_2src_2TrackReaderSpec_8cxx.html" target="_top" xlink:title="/home/travis/build\l/AliceO2Group/AliceO2\l/Detectors/ITSMFT/ITS\l/workflow/src/TrackReaderSpec.cxx">
<polygon fill="none" stroke="black" points="665.5,-95 665.5,-147 841.5,-147 841.5,-95 665.5,-95"/>
<text text-anchor="start" x="673.5" y="-135" font-family="Helvetica,sans-Serif" font-size="10.00">/home/travis/build</text>
<text text-anchor="start" x="673.5" y="-124" font-family="Helvetica,sans-Serif" font-size="10.00">/AliceO2Group/AliceO2</text>
<text text-anchor="start" x="673.5" y="-113" font-family="Helvetica,sans-Serif" font-size="10.00">/Detectors/ITSMFT/ITS</text>
<text text-anchor="middle" x="753.5" y="-102" font-family="Helvetica,sans-Serif" font-size="10.00">/workflow/src/TrackReaderSpec.cxx</text>
</a>
</g>
</g>
<!-- Node20&#45;&gt;Node21 -->
<g id="edge24" class="edge"><title>Node20&#45;&gt;Node21</title>
<path fill="none" stroke="midnightblue" d="M753.5,-179.079C753.5,-168.21 753.5,-156.794 753.5,-147.054"/>
<polygon fill="midnightblue" stroke="midnightblue" points="750,-179.261 753.5,-189.261 757,-179.261 750,-179.261"/>
</g>
<!-- Node24 -->
<g id="node24" class="node"><title>Node24</title>
<g id="a_node24"><a xlink:href="../../da/ddb/TrackResiduals_8h.html" target="_top" xlink:title="Definition of the TrackResiduals class. ">
<polygon fill="none" stroke="black" points="1878,-89.5 1878,-152.5 2045,-152.5 2045,-89.5 1878,-89.5"/>
<text text-anchor="start" x="1886" y="-140.5" font-family="Helvetica,sans-Serif" font-size="10.00">/home/travis/build</text>
<text text-anchor="start" x="1886" y="-129.5" font-family="Helvetica,sans-Serif" font-size="10.00">/AliceO2Group/AliceO2</text>
<text text-anchor="start" x="1886" y="-118.5" font-family="Helvetica,sans-Serif" font-size="10.00">/Detectors/TPC/calibration</text>
<text text-anchor="start" x="1886" y="-107.5" font-family="Helvetica,sans-Serif" font-size="10.00">/SpacePoints/include/SpacePoints</text>
<text text-anchor="middle" x="1961.5" y="-96.5" font-family="Helvetica,sans-Serif" font-size="10.00">/TrackResiduals.h</text>
</a>
</g>
</g>
<!-- Node23&#45;&gt;Node24 -->
<g id="edge29" class="edge"><title>Node23&#45;&gt;Node24</title>
<path fill="none" stroke="midnightblue" d="M1839.78,-184.781C1860.23,-174.234 1882.47,-162.76 1902.29,-152.541"/>
<polygon fill="midnightblue" stroke="midnightblue" points="1838.12,-181.701 1830.84,-189.395 1841.33,-187.922 1838.12,-181.701"/>
</g>
<!-- Node26 -->
<g id="node26" class="node"><title>Node26</title>
<g id="a_node26"><a xlink:href="../../d4/d15/TrackInterpolation_8cxx.html" target="_top" xlink:title="Implementation of the TrackInterpolation class. ">
<polygon fill="none" stroke="black" points="1669,-95 1669,-147 1860,-147 1860,-95 1669,-95"/>
<text text-anchor="start" x="1677" y="-135" font-family="Helvetica,sans-Serif" font-size="10.00">/home/travis/build</text>
<text text-anchor="start" x="1677" y="-124" font-family="Helvetica,sans-Serif" font-size="10.00">/AliceO2Group/AliceO2</text>
<text text-anchor="start" x="1677" y="-113" font-family="Helvetica,sans-Serif" font-size="10.00">/Detectors/TPC/calibration</text>
<text text-anchor="middle" x="1764.5" y="-102" font-family="Helvetica,sans-Serif" font-size="10.00">/SpacePoints/src/TrackInterpolation.cxx</text>
</a>
</g>
</g>
<!-- Node23&#45;&gt;Node26 -->
<g id="edge31" class="edge"><title>Node23&#45;&gt;Node26</title>
<path fill="none" stroke="midnightblue" d="M1768.58,-179.079C1767.8,-168.21 1766.99,-156.794 1766.29,-147.054"/>
<polygon fill="midnightblue" stroke="midnightblue" points="1765.1,-179.536 1769.3,-189.261 1772.08,-179.037 1765.1,-179.536"/>
</g>
<!-- Node25 -->
<g id="node25" class="node"><title>Node25</title>
<g id="a_node25"><a xlink:href="../../d9/df0/TrackResiduals_8cxx.html" target="_top" xlink:title="Implementation of the TrackResiduals class. ">
<polygon fill="none" stroke="black" points="1870.5,-0.5 1870.5,-52.5 2052.5,-52.5 2052.5,-0.5 1870.5,-0.5"/>
<text text-anchor="start" x="1878.5" y="-40.5" font-family="Helvetica,sans-Serif" font-size="10.00">/home/travis/build</text>
<text text-anchor="start" x="1878.5" y="-29.5" font-family="Helvetica,sans-Serif" font-size="10.00">/AliceO2Group/AliceO2</text>
<text text-anchor="start" x="1878.5" y="-18.5" font-family="Helvetica,sans-Serif" font-size="10.00">/Detectors/TPC/calibration</text>
<text text-anchor="middle" x="1961.5" y="-7.5" font-family="Helvetica,sans-Serif" font-size="10.00">/SpacePoints/src/TrackResiduals.cxx</text>
</a>
</g>
</g>
<!-- Node24&#45;&gt;Node25 -->
<g id="edge30" class="edge"><title>Node24&#45;&gt;Node25</title>
<path fill="none" stroke="midnightblue" d="M1961.5,-79.4229C1961.5,-70.3585 1961.5,-60.999 1961.5,-52.7655"/>
<polygon fill="midnightblue" stroke="midnightblue" points="1958,-79.4556 1961.5,-89.4557 1965,-79.4557 1958,-79.4556"/>
</g>
</g>
</svg>
