<?xml version="1.0" encoding="UTF-8" standalone="no"?>
<!DOCTYPE svg PUBLIC "-//W3C//DTD SVG 1.1//EN"
 "http://www.w3.org/Graphics/SVG/1.1/DTD/svg11.dtd">
<!-- Generated by graphviz version 2.38.0 (20140413.2041)
 -->
<!-- Title: /home/travis/build/AliceO2Group/AliceO2/EventVisualisation/DataConverter/include/EventVisualisationDataConverter/ConversionConstants.h Pages: 1 -->
<svg width="1587pt" height="761pt"
 viewBox="0.00 0.00 1586.50 761.00" xmlns="http://www.w3.org/2000/svg" xmlns:xlink="http://www.w3.org/1999/xlink">
<g id="graph0" class="graph" transform="scale(1 1) rotate(0) translate(4 757)">
<title>/home/travis/build/AliceO2Group/AliceO2/EventVisualisation/DataConverter/include/EventVisualisationDataConverter/ConversionConstants.h</title>
<!-- Node1 -->
<g id="node1" class="node"><title>Node1</title>
<polygon fill="#bfbfbf" stroke="black" points="1195,-689.5 1195,-752.5 1393,-752.5 1393,-689.5 1195,-689.5"/>
<text text-anchor="start" x="1203" y="-740.5" font-family="Helvetica,sans-Serif" font-size="10.00">/home/travis/build</text>
<text text-anchor="start" x="1203" y="-729.5" font-family="Helvetica,sans-Serif" font-size="10.00">/AliceO2Group/AliceO2</text>
<text text-anchor="start" x="1203" y="-718.5" font-family="Helvetica,sans-Serif" font-size="10.00">/EventVisualisation/DataConverter</text>
<text text-anchor="start" x="1203" y="-707.5" font-family="Helvetica,sans-Serif" font-size="10.00">/include/EventVisualisationDataConverter</text>
<text text-anchor="middle" x="1294" y="-696.5" font-family="Helvetica,sans-Serif" font-size="10.00">/ConversionConstants.h</text>
</g>
<!-- Node2 -->
<g id="node2" class="node"><title>Node2</title>
<g id="a_node2"><a xlink:href="../../d0/d40/VisualisationTrack_8h.html" target="_top" xlink:title="/home/travis/build\l/AliceO2Group/AliceO2\l/EventVisualisation/DataConverter\l/include/EventVisualisationDataConverter\l/VisualisationTrack.h">
<polygon fill="none" stroke="black" points="1195,-589.5 1195,-652.5 1393,-652.5 1393,-589.5 1195,-589.5"/>
<text text-anchor="start" x="1203" y="-640.5" font-family="Helvetica,sans-Serif" font-size="10.00">/home/travis/build</text>
<text text-anchor="start" x="1203" y="-629.5" font-family="Helvetica,sans-Serif" font-size="10.00">/AliceO2Group/AliceO2</text>
<text text-anchor="start" x="1203" y="-618.5" font-family="Helvetica,sans-Serif" font-size="10.00">/EventVisualisation/DataConverter</text>
<text text-anchor="start" x="1203" y="-607.5" font-family="Helvetica,sans-Serif" font-size="10.00">/include/EventVisualisationDataConverter</text>
<text text-anchor="middle" x="1294" y="-596.5" font-family="Helvetica,sans-Serif" font-size="10.00">/VisualisationTrack.h</text>
</a>
</g>
</g>
<!-- Node1&#45;&gt;Node2 -->
<g id="edge1" class="edge"><title>Node1&#45;&gt;Node2</title>
<path fill="none" stroke="midnightblue" d="M1294,-679.099C1294,-670.238 1294,-661.015 1294,-652.63"/>
<polygon fill="midnightblue" stroke="midnightblue" points="1290.5,-679.261 1294,-689.261 1297.5,-679.261 1290.5,-679.261"/>
</g>
<!-- Node3 -->
<g id="node3" class="node"><title>Node3</title>
<g id="a_node3"><a xlink:href="../../d5/d20/VisualisationCluster_8h.html" target="_top" xlink:title="/home/travis/build\l/AliceO2Group/AliceO2\l/EventVisualisation/DataConverter\l/include/EventVisualisationDataConverter\l/VisualisationCluster.h">
<polygon fill="none" stroke="black" points="1195,-489.5 1195,-552.5 1393,-552.5 1393,-489.5 1195,-489.5"/>
<text text-anchor="start" x="1203" y="-540.5" font-family="Helvetica,sans-Serif" font-size="10.00">/home/travis/build</text>
<text text-anchor="start" x="1203" y="-529.5" font-family="Helvetica,sans-Serif" font-size="10.00">/AliceO2Group/AliceO2</text>
<text text-anchor="start" x="1203" y="-518.5" font-family="Helvetica,sans-Serif" font-size="10.00">/EventVisualisation/DataConverter</text>
<text text-anchor="start" x="1203" y="-507.5" font-family="Helvetica,sans-Serif" font-size="10.00">/include/EventVisualisationDataConverter</text>
<text text-anchor="middle" x="1294" y="-496.5" font-family="Helvetica,sans-Serif" font-size="10.00">/VisualisationCluster.h</text>
</a>
</g>
</g>
<!-- Node2&#45;&gt;Node3 -->
<g id="edge2" class="edge"><title>Node2&#45;&gt;Node3</title>
<path fill="none" stroke="midnightblue" d="M1294,-579.099C1294,-570.238 1294,-561.015 1294,-552.63"/>
<polygon fill="midnightblue" stroke="midnightblue" points="1290.5,-579.261 1294,-589.261 1297.5,-579.261 1290.5,-579.261"/>
</g>
<!-- Node4 -->
<g id="node4" class="node"><title>Node4</title>
<g id="a_node4"><a xlink:href="../../d0/d35/VisualisationEvent_8h.html" target="_top" xlink:title="/home/travis/build\l/AliceO2Group/AliceO2\l/EventVisualisation/DataConverter\l/include/EventVisualisationDataConverter\l/VisualisationEvent.h">
<polygon fill="none" stroke="black" points="961,-389.5 961,-452.5 1159,-452.5 1159,-389.5 961,-389.5"/>
<text text-anchor="start" x="969" y="-440.5" font-family="Helvetica,sans-Serif" font-size="10.00">/home/travis/build</text>
<text text-anchor="start" x="969" y="-429.5" font-family="Helvetica,sans-Serif" font-size="10.00">/AliceO2Group/AliceO2</text>
<text text-anchor="start" x="969" y="-418.5" font-family="Helvetica,sans-Serif" font-size="10.00">/EventVisualisation/DataConverter</text>
<text text-anchor="start" x="969" y="-407.5" font-family="Helvetica,sans-Serif" font-size="10.00">/include/EventVisualisationDataConverter</text>
<text text-anchor="middle" x="1060" y="-396.5" font-family="Helvetica,sans-Serif" font-size="10.00">/VisualisationEvent.h</text>
</a>
</g>
</g>
<!-- Node2&#45;&gt;Node4 -->
<g id="edge34" class="edge"><title>Node2&#45;&gt;Node4</title>
<path fill="none" stroke="midnightblue" d="M1230.18,-584.071C1215.19,-574.649 1199.62,-564.019 1186,-553 1147.97,-522.243 1109.8,-480.707 1085.6,-452.72"/>
<polygon fill="midnightblue" stroke="midnightblue" points="1228.57,-587.193 1238.92,-589.473 1232.25,-581.238 1228.57,-587.193"/>
</g>
<!-- Node23 -->
<g id="node23" class="node"><title>Node23</title>
<g id="a_node23"><a xlink:href="../../de/d45/VisualisationTrack_8cxx.html" target="_top" xlink:title="/home/travis/build\l/AliceO2Group/AliceO2\l/EventVisualisation/DataConverter\l/src/VisualisationTrack.cxx">
<polygon fill="none" stroke="black" points="1411.5,-495 1411.5,-547 1578.5,-547 1578.5,-495 1411.5,-495"/>
<text text-anchor="start" x="1419.5" y="-535" font-family="Helvetica,sans-Serif" font-size="10.00">/home/travis/build</text>
<text text-anchor="start" x="1419.5" y="-524" font-family="Helvetica,sans-Serif" font-size="10.00">/AliceO2Group/AliceO2</text>
<text text-anchor="start" x="1419.5" y="-513" font-family="Helvetica,sans-Serif" font-size="10.00">/EventVisualisation/DataConverter</text>
<text text-anchor="middle" x="1495" y="-502" font-family="Helvetica,sans-Serif" font-size="10.00">/src/VisualisationTrack.cxx</text>
</a>
</g>
</g>
<!-- Node2&#45;&gt;Node23 -->
<g id="edge35" class="edge"><title>Node2&#45;&gt;Node23</title>
<path fill="none" stroke="midnightblue" d="M1366.07,-584.863C1391.66,-572.383 1419.94,-558.596 1443.48,-547.121"/>
<polygon fill="midnightblue" stroke="midnightblue" points="1364.23,-581.867 1356.77,-589.395 1367.29,-588.159 1364.23,-581.867"/>
</g>
<!-- Node3&#45;&gt;Node4 -->
<g id="edge3" class="edge"><title>Node3&#45;&gt;Node4</title>
<path fill="none" stroke="midnightblue" d="M1211.6,-485.489C1185.95,-474.75 1157.87,-462.99 1132.92,-452.541"/>
<polygon fill="midnightblue" stroke="midnightblue" points="1210.35,-488.761 1220.92,-489.395 1213.05,-482.304 1210.35,-488.761"/>
</g>
<!-- Node11 -->
<g id="node11" class="node"><title>Node11</title>
<g id="a_node11"><a xlink:href="../../d5/df5/DataInterpreterTPC_8cxx.html" target="_top" xlink:title="converting TPC data to Event Visualisation primitives ">
<polygon fill="none" stroke="black" points="1219,-95 1219,-147 1365,-147 1365,-95 1219,-95"/>
<text text-anchor="start" x="1227" y="-135" font-family="Helvetica,sans-Serif" font-size="10.00">/home/travis/build</text>
<text text-anchor="start" x="1227" y="-124" font-family="Helvetica,sans-Serif" font-size="10.00">/AliceO2Group/AliceO2</text>
<text text-anchor="start" x="1227" y="-113" font-family="Helvetica,sans-Serif" font-size="10.00">/EventVisualisation/Detectors</text>
<text text-anchor="middle" x="1292" y="-102" font-family="Helvetica,sans-Serif" font-size="10.00">/src/DataInterpreterTPC.cxx</text>
</a>
</g>
</g>
<!-- Node3&#45;&gt;Node11 -->
<g id="edge33" class="edge"><title>Node3&#45;&gt;Node11</title>
<path fill="none" stroke="midnightblue" d="M1295.58,-479.189C1297.74,-416.686 1300.89,-293.503 1297,-189 1296.48,-175.129 1295.37,-159.676 1294.32,-147.11"/>
<polygon fill="midnightblue" stroke="midnightblue" points="1292.08,-479.294 1295.22,-489.412 1299.07,-479.542 1292.08,-479.294"/>
</g>
<!-- Node22 -->
<g id="node22" class="node"><title>Node22</title>
<g id="a_node22"><a xlink:href="../../d5/dba/VisualisationCluster_8cxx.html" target="_top" xlink:title="/home/travis/build\l/AliceO2Group/AliceO2\l/EventVisualisation/DataConverter\l/src/VisualisationCluster.cxx">
<polygon fill="none" stroke="black" points="1357.5,-395 1357.5,-447 1524.5,-447 1524.5,-395 1357.5,-395"/>
<text text-anchor="start" x="1365.5" y="-435" font-family="Helvetica,sans-Serif" font-size="10.00">/home/travis/build</text>
<text text-anchor="start" x="1365.5" y="-424" font-family="Helvetica,sans-Serif" font-size="10.00">/AliceO2Group/AliceO2</text>
<text text-anchor="start" x="1365.5" y="-413" font-family="Helvetica,sans-Serif" font-size="10.00">/EventVisualisation/DataConverter</text>
<text text-anchor="middle" x="1441" y="-402" font-family="Helvetica,sans-Serif" font-size="10.00">/src/VisualisationCluster.cxx</text>
</a>
</g>
</g>
<!-- Node3&#45;&gt;Node22 -->
<g id="edge32" class="edge"><title>Node3&#45;&gt;Node22</title>
<path fill="none" stroke="midnightblue" d="M1348.88,-483.415C1367.05,-471.299 1386.85,-458.1 1403.42,-447.054"/>
<polygon fill="midnightblue" stroke="midnightblue" points="1346.49,-480.802 1340.11,-489.261 1350.37,-486.626 1346.49,-480.802"/>
</g>
<!-- Node5 -->
<g id="node5" class="node"><title>Node5</title>
<g id="a_node5"><a xlink:href="../../dd/dbf/DataInterpreter_8h.html" target="_top" xlink:title="/home/travis/build\l/AliceO2Group/AliceO2\l/EventVisualisation/Base\l/include/EventVisualisationBase\l/DataInterpreter.h">
<polygon fill="none" stroke="black" points="525.5,-289.5 525.5,-352.5 682.5,-352.5 682.5,-289.5 525.5,-289.5"/>
<text text-anchor="start" x="533.5" y="-340.5" font-family="Helvetica,sans-Serif" font-size="10.00">/home/travis/build</text>
<text text-anchor="start" x="533.5" y="-329.5" font-family="Helvetica,sans-Serif" font-size="10.00">/AliceO2Group/AliceO2</text>
<text text-anchor="start" x="533.5" y="-318.5" font-family="Helvetica,sans-Serif" font-size="10.00">/EventVisualisation/Base</text>
<text text-anchor="start" x="533.5" y="-307.5" font-family="Helvetica,sans-Serif" font-size="10.00">/include/EventVisualisationBase</text>
<text text-anchor="middle" x="604" y="-296.5" font-family="Helvetica,sans-Serif" font-size="10.00">/DataInterpreter.h</text>
</a>
</g>
</g>
<!-- Node4&#45;&gt;Node5 -->
<g id="edge4" class="edge"><title>Node4&#45;&gt;Node5</title>
<path fill="none" stroke="midnightblue" d="M950.493,-404.9C876.531,-393.537 777.064,-375.983 691,-353 688.212,-352.255 685.385,-351.462 682.54,-350.631"/>
<polygon fill="midnightblue" stroke="midnightblue" points="950.343,-408.417 960.756,-406.462 951.396,-401.497 950.343,-408.417"/>
</g>
<!-- Node8 -->
<g id="node8" class="node"><title>Node8</title>
<g id="a_node8"><a xlink:href="../../d2/d8a/DataInterpreterITS_8cxx.html" target="_top" xlink:title="converting ITS data to Event Visualisation primitives ">
<polygon fill="none" stroke="black" points="987,-95 987,-147 1133,-147 1133,-95 987,-95"/>
<text text-anchor="start" x="995" y="-135" font-family="Helvetica,sans-Serif" font-size="10.00">/home/travis/build</text>
<text text-anchor="start" x="995" y="-124" font-family="Helvetica,sans-Serif" font-size="10.00">/AliceO2Group/AliceO2</text>
<text text-anchor="start" x="995" y="-113" font-family="Helvetica,sans-Serif" font-size="10.00">/EventVisualisation/Detectors</text>
<text text-anchor="middle" x="1060" y="-102" font-family="Helvetica,sans-Serif" font-size="10.00">/src/DataInterpreterITS.cxx</text>
</a>
</g>
</g>
<!-- Node4&#45;&gt;Node8 -->
<g id="edge28" class="edge"><title>Node4&#45;&gt;Node8</title>
<path fill="none" stroke="midnightblue" d="M1060,-378.921C1060,-316.197 1060,-198.424 1060,-147.042"/>
<polygon fill="midnightblue" stroke="midnightblue" points="1056.5,-379.231 1060,-389.231 1063.5,-379.231 1056.5,-379.231"/>
</g>
<!-- Node10 -->
<g id="node10" class="node"><title>Node10</title>
<g id="a_node10"><a xlink:href="../../dc/df2/DataInterpreterTPC_8h.html" target="_top" xlink:title="converting TPC data to Event Visualisation primitives ">
<polygon fill="none" stroke="black" points="1087.5,-189.5 1087.5,-252.5 1264.5,-252.5 1264.5,-189.5 1087.5,-189.5"/>
<text text-anchor="start" x="1095.5" y="-240.5" font-family="Helvetica,sans-Serif" font-size="10.00">/home/travis/build</text>
<text text-anchor="start" x="1095.5" y="-229.5" font-family="Helvetica,sans-Serif" font-size="10.00">/AliceO2Group/AliceO2</text>
<text text-anchor="start" x="1095.5" y="-218.5" font-family="Helvetica,sans-Serif" font-size="10.00">/EventVisualisation/Detectors</text>
<text text-anchor="start" x="1095.5" y="-207.5" font-family="Helvetica,sans-Serif" font-size="10.00">/include/EventVisualisationDetectors</text>
<text text-anchor="middle" x="1176" y="-196.5" font-family="Helvetica,sans-Serif" font-size="10.00">/DataInterpreterTPC.h</text>
</a>
</g>
</g>
<!-- Node4&#45;&gt;Node10 -->
<g id="edge27" class="edge"><title>Node4&#45;&gt;Node10</title>
<path fill="none" stroke="midnightblue" d="M1082.96,-380.814C1105.03,-343.147 1137.92,-286.999 1158.11,-252.538"/>
<polygon fill="midnightblue" stroke="midnightblue" points="1079.91,-379.099 1077.87,-389.496 1085.95,-382.637 1079.91,-379.099"/>
</g>
<!-- Node4&#45;&gt;Node11 -->
<g id="edge29" class="edge"><title>Node4&#45;&gt;Node11</title>
<path fill="none" stroke="midnightblue" d="M1129.53,-384.302C1177.96,-355.606 1239.63,-310.612 1273,-253 1292.06,-220.088 1294.42,-174.98 1293.7,-147.2"/>
<polygon fill="midnightblue" stroke="midnightblue" points="1127.53,-381.415 1120.65,-389.47 1131.05,-387.465 1127.53,-381.415"/>
</g>
<!-- Node13 -->
<g id="node13" class="node"><title>Node13</title>
<g id="a_node13"><a xlink:href="../../de/df8/DataInterpreterVSD_8cxx.html" target="_top" xlink:title="converting VSD data to Event Visualisation primitives ">
<polygon fill="none" stroke="black" points="0,-95 0,-147 146,-147 146,-95 0,-95"/>
<text text-anchor="start" x="8" y="-135" font-family="Helvetica,sans-Serif" font-size="10.00">/home/travis/build</text>
<text text-anchor="start" x="8" y="-124" font-family="Helvetica,sans-Serif" font-size="10.00">/AliceO2Group/AliceO2</text>
<text text-anchor="start" x="8" y="-113" font-family="Helvetica,sans-Serif" font-size="10.00">/EventVisualisation/Detectors</text>
<text text-anchor="middle" x="73" y="-102" font-family="Helvetica,sans-Serif" font-size="10.00">/src/DataInterpreterVSD.cxx</text>
</a>
</g>
</g>
<!-- Node4&#45;&gt;Node13 -->
<g id="edge30" class="edge"><title>Node4&#45;&gt;Node13</title>
<path fill="none" stroke="midnightblue" d="M950.45,-419.632C709.741,-416.216 147.053,-393.085 33,-253 7.85189,-222.112 32.7366,-175.562 52.9475,-147.069"/>
<polygon fill="midnightblue" stroke="midnightblue" points="950.575,-423.134 960.621,-419.768 950.669,-416.135 950.575,-423.134"/>
</g>
<!-- Node19 -->
<g id="node19" class="node"><title>Node19</title>
<g id="a_node19"><a xlink:href="../../dd/d21/EventManager_8cxx.html" target="_top" xlink:title="/home/travis/build\l/AliceO2Group/AliceO2\l/EventVisualisation/View\l/src/EventManager.cxx">
<polygon fill="none" stroke="black" points="805.5,-95 805.5,-147 930.5,-147 930.5,-95 805.5,-95"/>
<text text-anchor="start" x="813.5" y="-135" font-family="Helvetica,sans-Serif" font-size="10.00">/home/travis/build</text>
<text text-anchor="start" x="813.5" y="-124" font-family="Helvetica,sans-Serif" font-size="10.00">/AliceO2Group/AliceO2</text>
<text text-anchor="start" x="813.5" y="-113" font-family="Helvetica,sans-Serif" font-size="10.00">/EventVisualisation/View</text>
<text text-anchor="middle" x="868" y="-102" font-family="Helvetica,sans-Serif" font-size="10.00">/src/EventManager.cxx</text>
</a>
</g>
</g>
<!-- Node4&#45;&gt;Node19 -->
<g id="edge31" class="edge"><title>Node4&#45;&gt;Node19</title>
<path fill="none" stroke="midnightblue" d="M1002.85,-383.813C945.365,-346.042 862.884,-287.593 846,-253 829.411,-219.011 843.105,-174.808 855.091,-147.427"/>
<polygon fill="midnightblue" stroke="midnightblue" points="1001.2,-386.92 1011.49,-389.46 1005.03,-381.06 1001.2,-386.92"/>
</g>
<!-- Node21 -->
<g id="node21" class="node"><title>Node21</title>
<g id="a_node21"><a xlink:href="../../d5/d73/VisualisationEvent_8cxx.html" target="_top" xlink:title="/home/travis/build\l/AliceO2Group/AliceO2\l/EventVisualisation/DataConverter\l/src/VisualisationEvent.cxx">
<polygon fill="none" stroke="black" points="700.5,-295 700.5,-347 867.5,-347 867.5,-295 700.5,-295"/>
<text text-anchor="start" x="708.5" y="-335" font-family="Helvetica,sans-Serif" font-size="10.00">/home/travis/build</text>
<text text-anchor="start" x="708.5" y="-324" font-family="Helvetica,sans-Serif" font-size="10.00">/AliceO2Group/AliceO2</text>
<text text-anchor="start" x="708.5" y="-313" font-family="Helvetica,sans-Serif" font-size="10.00">/EventVisualisation/DataConverter</text>
<text text-anchor="middle" x="784" y="-302" font-family="Helvetica,sans-Serif" font-size="10.00">/src/VisualisationEvent.cxx</text>
</a>
</g>
</g>
<!-- Node4&#45;&gt;Node21 -->
<g id="edge26" class="edge"><title>Node4&#45;&gt;Node21</title>
<path fill="none" stroke="midnightblue" d="M964.27,-386.009C928.286,-373.232 888.057,-358.948 854.748,-347.121"/>
<polygon fill="midnightblue" stroke="midnightblue" points="963.212,-389.347 973.807,-389.395 965.555,-382.751 963.212,-389.347"/>
</g>
<!-- Node6 -->
<g id="node6" class="node"><title>Node6</title>
<g id="a_node6"><a xlink:href="../../d5/d0c/DataInterpreter_8cxx.html" target="_top" xlink:title="/home/travis/build\l/AliceO2Group/AliceO2\l/EventVisualisation/Base\l/src/DataInterpreter.cxx">
<polygon fill="none" stroke="black" points="449,-195 449,-247 575,-247 575,-195 449,-195"/>
<text text-anchor="start" x="457" y="-235" font-family="Helvetica,sans-Serif" font-size="10.00">/home/travis/build</text>
<text text-anchor="start" x="457" y="-224" font-family="Helvetica,sans-Serif" font-size="10.00">/AliceO2Group/AliceO2</text>
<text text-anchor="start" x="457" y="-213" font-family="Helvetica,sans-Serif" font-size="10.00">/EventVisualisation/Base</text>
<text text-anchor="middle" x="512" y="-202" font-family="Helvetica,sans-Serif" font-size="10.00">/src/DataInterpreter.cxx</text>
</a>
</g>
</g>
<!-- Node5&#45;&gt;Node6 -->
<g id="edge5" class="edge"><title>Node5&#45;&gt;Node6</title>
<path fill="none" stroke="midnightblue" d="M568.098,-281.756C557.159,-270.104 545.418,-257.598 535.52,-247.054"/>
<polygon fill="midnightblue" stroke="midnightblue" points="565.747,-284.366 575.143,-289.261 570.85,-279.575 565.747,-284.366"/>
</g>
<!-- Node7 -->
<g id="node7" class="node"><title>Node7</title>
<g id="a_node7"><a xlink:href="../../d9/d95/DataInterpreterITS_8h.html" target="_top" xlink:title="converting ITS data to Event Visualisation primitives ">
<polygon fill="none" stroke="black" points="855.5,-189.5 855.5,-252.5 1032.5,-252.5 1032.5,-189.5 855.5,-189.5"/>
<text text-anchor="start" x="863.5" y="-240.5" font-family="Helvetica,sans-Serif" font-size="10.00">/home/travis/build</text>
<text text-anchor="start" x="863.5" y="-229.5" font-family="Helvetica,sans-Serif" font-size="10.00">/AliceO2Group/AliceO2</text>
<text text-anchor="start" x="863.5" y="-218.5" font-family="Helvetica,sans-Serif" font-size="10.00">/EventVisualisation/Detectors</text>
<text text-anchor="start" x="863.5" y="-207.5" font-family="Helvetica,sans-Serif" font-size="10.00">/include/EventVisualisationDetectors</text>
<text text-anchor="middle" x="944" y="-196.5" font-family="Helvetica,sans-Serif" font-size="10.00">/DataInterpreterITS.h</text>
</a>
</g>
</g>
<!-- Node5&#45;&gt;Node7 -->
<g id="edge6" class="edge"><title>Node5&#45;&gt;Node7</title>
<path fill="none" stroke="midnightblue" d="M692.502,-288.605C751.588,-270.505 809.168,-255.23 855.378,-243.541"/>
<polygon fill="midnightblue" stroke="midnightblue" points="691.145,-285.361 682.622,-291.654 693.209,-292.05 691.145,-285.361"/>
</g>
<!-- Node5&#45;&gt;Node10 -->
<g id="edge9" class="edge"><title>Node5&#45;&gt;Node10</title>
<path fill="none" stroke="midnightblue" d="M693.137,-288.697C845.432,-255.519 890.039,-277.998 1041,-253 1056.06,-250.505 1071.96,-247.341 1087.35,-243.992"/>
<polygon fill="midnightblue" stroke="midnightblue" points="691.949,-285.376 682.948,-290.964 693.469,-292.209 691.949,-285.376"/>
</g>
<!-- Node12 -->
<g id="node12" class="node"><title>Node12</title>
<g id="a_node12"><a xlink:href="../../d2/d21/DataInterpreterVSD_8h.html" target="_top" xlink:title="converting VSD data to Event Visualisation primitives ">
<polygon fill="none" stroke="black" points="42.5,-189.5 42.5,-252.5 219.5,-252.5 219.5,-189.5 42.5,-189.5"/>
<text text-anchor="start" x="50.5" y="-240.5" font-family="Helvetica,sans-Serif" font-size="10.00">/home/travis/build</text>
<text text-anchor="start" x="50.5" y="-229.5" font-family="Helvetica,sans-Serif" font-size="10.00">/AliceO2Group/AliceO2</text>
<text text-anchor="start" x="50.5" y="-218.5" font-family="Helvetica,sans-Serif" font-size="10.00">/EventVisualisation/Detectors</text>
<text text-anchor="start" x="50.5" y="-207.5" font-family="Helvetica,sans-Serif" font-size="10.00">/include/EventVisualisationDetectors</text>
<text text-anchor="middle" x="131" y="-196.5" font-family="Helvetica,sans-Serif" font-size="10.00">/DataInterpreterVSD.h</text>
</a>
</g>
</g>
<!-- Node5&#45;&gt;Node12 -->
<g id="edge12" class="edge"><title>Node5&#45;&gt;Node12</title>
<path fill="none" stroke="midnightblue" d="M515.324,-306.961C439.782,-295.145 328.598,-276.076 233,-253 228.592,-251.936 224.094,-250.792 219.562,-249.592"/>
<polygon fill="midnightblue" stroke="midnightblue" points="514.859,-310.431 525.278,-308.508 515.935,-303.514 514.859,-310.431"/>
</g>
<!-- Node14 -->
<g id="node14" class="node"><title>Node14</title>
<g id="a_node14"><a xlink:href="../../d8/d25/EventManager_8h.html" target="_top" xlink:title="/home/travis/build\l/AliceO2Group/AliceO2\l/EventVisualisation/View\l/include/EventVisualisationView\l/EventManager.h">
<polygon fill="none" stroke="black" points="593,-189.5 593,-252.5 749,-252.5 749,-189.5 593,-189.5"/>
<text text-anchor="start" x="601" y="-240.5" font-family="Helvetica,sans-Serif" font-size="10.00">/home/travis/build</text>
<text text-anchor="start" x="601" y="-229.5" font-family="Helvetica,sans-Serif" font-size="10.00">/AliceO2Group/AliceO2</text>
<text text-anchor="start" x="601" y="-218.5" font-family="Helvetica,sans-Serif" font-size="10.00">/EventVisualisation/View</text>
<text text-anchor="start" x="601" y="-207.5" font-family="Helvetica,sans-Serif" font-size="10.00">/include/EventVisualisationView</text>
<text text-anchor="middle" x="671" y="-196.5" font-family="Helvetica,sans-Serif" font-size="10.00">/EventManager.h</text>
</a>
</g>
</g>
<!-- Node5&#45;&gt;Node14 -->
<g id="edge14" class="edge"><title>Node5&#45;&gt;Node14</title>
<path fill="none" stroke="midnightblue" d="M630.781,-280.827C637.196,-271.445 643.953,-261.561 650.059,-252.63"/>
<polygon fill="midnightblue" stroke="midnightblue" points="627.77,-279.031 625.015,-289.261 633.549,-282.981 627.77,-279.031"/>
</g>
<!-- Node18 -->
<g id="node18" class="node"><title>Node18</title>
<g id="a_node18"><a xlink:href="../../d5/d40/main_8cxx.html" target="_top" xlink:title="/home/travis/build\l/AliceO2Group/AliceO2\l/EventVisualisation/View\l/src/main.cxx">
<polygon fill="none" stroke="black" points="237.5,-0.5 237.5,-52.5 362.5,-52.5 362.5,-0.5 237.5,-0.5"/>
<text text-anchor="start" x="245.5" y="-40.5" font-family="Helvetica,sans-Serif" font-size="10.00">/home/travis/build</text>
<text text-anchor="start" x="245.5" y="-29.5" font-family="Helvetica,sans-Serif" font-size="10.00">/AliceO2Group/AliceO2</text>
<text text-anchor="start" x="245.5" y="-18.5" font-family="Helvetica,sans-Serif" font-size="10.00">/EventVisualisation/View</text>
<text text-anchor="middle" x="300" y="-7.5" font-family="Helvetica,sans-Serif" font-size="10.00">/src/main.cxx</text>
</a>
</g>
</g>
<!-- Node5&#45;&gt;Node18 -->
<g id="edge25" class="edge"><title>Node5&#45;&gt;Node18</title>
<path fill="none" stroke="midnightblue" d="M515.467,-304.518C433.808,-284.924 317.663,-242.278 266,-153 247.571,-121.153 266.394,-78.982 282.502,-52.5452"/>
<polygon fill="midnightblue" stroke="midnightblue" points="514.714,-307.936 525.247,-306.795 516.301,-301.119 514.714,-307.936"/>
</g>
<!-- Node5&#45;&gt;Node19 -->
<g id="edge24" class="edge"><title>Node5&#45;&gt;Node19</title>
<path fill="none" stroke="midnightblue" d="M691.965,-285.771C719.703,-274.114 746.193,-261.816 758,-253 768.768,-244.96 819.298,-182.803 847.981,-147.073"/>
<polygon fill="midnightblue" stroke="midnightblue" points="690.42,-282.623 682.53,-289.694 693.107,-289.087 690.42,-282.623"/>
</g>
<!-- Node7&#45;&gt;Node8 -->
<g id="edge7" class="edge"><title>Node7&#45;&gt;Node8</title>
<path fill="none" stroke="midnightblue" d="M988.088,-182.753C1002.21,-170.82 1017.51,-157.899 1030.34,-147.054"/>
<polygon fill="midnightblue" stroke="midnightblue" points="985.765,-180.134 980.385,-189.261 990.282,-185.481 985.765,-180.134"/>
</g>
<!-- Node9 -->
<g id="node9" class="node"><title>Node9</title>
<g id="a_node9"><a xlink:href="../../df/d2a/Initializer_8cxx.html" target="_top" xlink:title="/home/travis/build\l/AliceO2Group/AliceO2\l/EventVisualisation/View\l/src/Initializer.cxx">
<polygon fill="none" stroke="black" points="738.5,-0.5 738.5,-52.5 863.5,-52.5 863.5,-0.5 738.5,-0.5"/>
<text text-anchor="start" x="746.5" y="-40.5" font-family="Helvetica,sans-Serif" font-size="10.00">/home/travis/build</text>
<text text-anchor="start" x="746.5" y="-29.5" font-family="Helvetica,sans-Serif" font-size="10.00">/AliceO2Group/AliceO2</text>
<text text-anchor="start" x="746.5" y="-18.5" font-family="Helvetica,sans-Serif" font-size="10.00">/EventVisualisation/View</text>
<text text-anchor="middle" x="801" y="-7.5" font-family="Helvetica,sans-Serif" font-size="10.00">/src/Initializer.cxx</text>
</a>
</g>
</g>
<!-- Node7&#45;&gt;Node9 -->
<g id="edge8" class="edge"><title>Node7&#45;&gt;Node9</title>
<path fill="none" stroke="midnightblue" d="M952.949,-179.204C956.679,-151.451 956.699,-115.159 939,-89 921.802,-63.5826 891.499,-48.5523 863.662,-39.7238"/>
<polygon fill="midnightblue" stroke="midnightblue" points="949.444,-178.965 951.367,-189.384 956.361,-180.04 949.444,-178.965"/>
</g>
<!-- Node10&#45;&gt;Node9 -->
<g id="edge11" class="edge"><title>Node10&#45;&gt;Node9</title>
<path fill="none" stroke="midnightblue" d="M1176.36,-179.007C1174.31,-149.777 1166.55,-111.765 1142,-89 1102.41,-52.2911 950.688,-36.8247 863.547,-30.8592"/>
<polygon fill="midnightblue" stroke="midnightblue" points="1172.88,-179.522 1176.87,-189.334 1179.87,-179.172 1172.88,-179.522"/>
</g>
<!-- Node10&#45;&gt;Node11 -->
<g id="edge10" class="edge"><title>Node10&#45;&gt;Node11</title>
<path fill="none" stroke="midnightblue" d="M1220.09,-182.753C1234.21,-170.82 1249.51,-157.899 1262.34,-147.054"/>
<polygon fill="midnightblue" stroke="midnightblue" points="1217.76,-180.134 1212.38,-189.261 1222.28,-185.481 1217.76,-180.134"/>
</g>
<!-- Node12&#45;&gt;Node13 -->
<g id="edge13" class="edge"><title>Node12&#45;&gt;Node13</title>
<path fill="none" stroke="midnightblue" d="M107.576,-180.421C100.907,-169.154 93.8304,-157.196 87.8276,-147.054"/>
<polygon fill="midnightblue" stroke="midnightblue" points="104.702,-182.438 112.808,-189.261 110.726,-178.873 104.702,-182.438"/>
</g>
<!-- Node14&#45;&gt;Node9 -->
<g id="edge22" class="edge"><title>Node14&#45;&gt;Node9</title>
<path fill="none" stroke="midnightblue" d="M728.997,-183.061C739.727,-174.224 750.041,-164.094 758,-153 780.018,-122.309 791.473,-79.4358 796.862,-52.5842"/>
<polygon fill="midnightblue" stroke="midnightblue" points="726.82,-180.321 721.139,-189.263 731.157,-185.816 726.82,-180.321"/>
</g>
<!-- Node15 -->
<g id="node15" class="node"><title>Node15</title>
<g id="a_node15"><a xlink:href="../../d9/d30/EventManagerFrame_8h.html" target="_top" xlink:title="GUI (bottom buttons) for visualisation. ">
<polygon fill="none" stroke="black" points="593,-89.5 593,-152.5 749,-152.5 749,-89.5 593,-89.5"/>
<text text-anchor="start" x="601" y="-140.5" font-family="Helvetica,sans-Serif" font-size="10.00">/home/travis/build</text>
<text text-anchor="start" x="601" y="-129.5" font-family="Helvetica,sans-Serif" font-size="10.00">/AliceO2Group/AliceO2</text>
<text text-anchor="start" x="601" y="-118.5" font-family="Helvetica,sans-Serif" font-size="10.00">/EventVisualisation/View</text>
<text text-anchor="start" x="601" y="-107.5" font-family="Helvetica,sans-Serif" font-size="10.00">/include/EventVisualisationView</text>
<text text-anchor="middle" x="671" y="-96.5" font-family="Helvetica,sans-Serif" font-size="10.00">/EventManagerFrame.h</text>
</a>
</g>
</g>
<!-- Node14&#45;&gt;Node15 -->
<g id="edge15" class="edge"><title>Node14&#45;&gt;Node15</title>
<path fill="none" stroke="midnightblue" d="M671,-179.099C671,-170.238 671,-161.015 671,-152.63"/>
<polygon fill="midnightblue" stroke="midnightblue" points="667.5,-179.261 671,-189.261 674.5,-179.261 667.5,-179.261"/>
</g>
<!-- Node17 -->
<g id="node17" class="node"><title>Node17</title>
<g id="a_node17"><a xlink:href="../../d8/df3/Initializer_8h.html" target="_top" xlink:title="/home/travis/build\l/AliceO2Group/AliceO2\l/EventVisualisation/View\l/include/EventVisualisationView\l/Initializer.h">
<polygon fill="none" stroke="black" points="275,-89.5 275,-152.5 431,-152.5 431,-89.5 275,-89.5"/>
<text text-anchor="start" x="283" y="-140.5" font-family="Helvetica,sans-Serif" font-size="10.00">/home/travis/build</text>
<text text-anchor="start" x="283" y="-129.5" font-family="Helvetica,sans-Serif" font-size="10.00">/AliceO2Group/AliceO2</text>
<text text-anchor="start" x="283" y="-118.5" font-family="Helvetica,sans-Serif" font-size="10.00">/EventVisualisation/View</text>
<text text-anchor="start" x="283" y="-107.5" font-family="Helvetica,sans-Serif" font-size="10.00">/include/EventVisualisationView</text>
<text text-anchor="middle" x="353" y="-96.5" font-family="Helvetica,sans-Serif" font-size="10.00">/Initializer.h</text>
</a>
</g>
</g>
<!-- Node14&#45;&gt;Node17 -->
<g id="edge18" class="edge"><title>Node14&#45;&gt;Node17</title>
<path fill="none" stroke="midnightblue" d="M583.086,-188.836C519.094,-170.064 500.186,-171.199 440,-153 437.084,-152.118 434.121,-151.197 431.135,-150.246"/>
<polygon fill="midnightblue" stroke="midnightblue" points="582.281,-192.248 592.865,-191.754 584.283,-185.54 582.281,-192.248"/>
</g>
<!-- Node14&#45;&gt;Node19 -->
<g id="edge21" class="edge"><title>Node14&#45;&gt;Node19</title>
<path fill="none" stroke="midnightblue" d="M741.632,-184.863C766.72,-172.383 794.435,-158.596 817.502,-147.121"/>
<polygon fill="midnightblue" stroke="midnightblue" points="739.916,-181.808 732.522,-189.395 743.034,-188.075 739.916,-181.808"/>
</g>
<!-- Node20 -->
<g id="node20" class="node"><title>Node20</title>
<g id="a_node20"><a xlink:href="../../da/d7a/MultiView_8cxx.html" target="_top" xlink:title="/home/travis/build\l/AliceO2Group/AliceO2\l/EventVisualisation/View\l/src/MultiView.cxx">
<polygon fill="none" stroke="black" points="449.5,-95 449.5,-147 574.5,-147 574.5,-95 449.5,-95"/>
<text text-anchor="start" x="457.5" y="-135" font-family="Helvetica,sans-Serif" font-size="10.00">/home/travis/build</text>
<text text-anchor="start" x="457.5" y="-124" font-family="Helvetica,sans-Serif" font-size="10.00">/AliceO2Group/AliceO2</text>
<text text-anchor="start" x="457.5" y="-113" font-family="Helvetica,sans-Serif" font-size="10.00">/EventVisualisation/View</text>
<text text-anchor="middle" x="512" y="-102" font-family="Helvetica,sans-Serif" font-size="10.00">/src/MultiView.cxx</text>
</a>
</g>
</g>
<!-- Node14&#45;&gt;Node20 -->
<g id="edge23" class="edge"><title>Node14&#45;&gt;Node20</title>
<path fill="none" stroke="midnightblue" d="M612.445,-183.91C592.57,-171.66 570.815,-158.251 552.648,-147.054"/>
<polygon fill="midnightblue" stroke="midnightblue" points="610.778,-186.994 621.128,-189.261 614.451,-181.035 610.778,-186.994"/>
</g>
<!-- Node15&#45;&gt;Node9 -->
<g id="edge17" class="edge"><title>Node15&#45;&gt;Node9</title>
<path fill="none" stroke="midnightblue" d="M722.309,-83.4916C736.77,-73.202 752.178,-62.2385 765.492,-52.7655"/>
<polygon fill="midnightblue" stroke="midnightblue" points="720.046,-80.8063 713.927,-89.4557 724.104,-86.5099 720.046,-80.8063"/>
</g>
<!-- Node16 -->
<g id="node16" class="node"><title>Node16</title>
<g id="a_node16"><a xlink:href="../../d0/dc0/EventManagerFrame_8cxx.html" target="_top" xlink:title="GUI (bottom buttons) for visualisation. ">
<polygon fill="none" stroke="black" points="574,-0.5 574,-52.5 720,-52.5 720,-0.5 574,-0.5"/>
<text text-anchor="start" x="582" y="-40.5" font-family="Helvetica,sans-Serif" font-size="10.00">/home/travis/build</text>
<text text-anchor="start" x="582" y="-29.5" font-family="Helvetica,sans-Serif" font-size="10.00">/AliceO2Group/AliceO2</text>
<text text-anchor="start" x="582" y="-18.5" font-family="Helvetica,sans-Serif" font-size="10.00">/EventVisualisation/View</text>
<text text-anchor="middle" x="647" y="-7.5" font-family="Helvetica,sans-Serif" font-size="10.00">/src/EventManagerFrame.cxx</text>
</a>
</g>
</g>
<!-- Node15&#45;&gt;Node16 -->
<g id="edge16" class="edge"><title>Node15&#45;&gt;Node16</title>
<path fill="none" stroke="midnightblue" d="M660.548,-79.7152C658.172,-70.5599 655.715,-61.0876 653.555,-52.7655"/>
<polygon fill="midnightblue" stroke="midnightblue" points="657.176,-80.6552 663.075,-89.4557 663.951,-78.8972 657.176,-80.6552"/>
</g>
<!-- Node17&#45;&gt;Node9 -->
<g id="edge19" class="edge"><title>Node17&#45;&gt;Node9</title>
<path fill="none" stroke="midnightblue" d="M441.103,-88.9502C567.877,-60.2672 606.234,-82.0242 729,-53 732.097,-52.2678 735.247,-51.4487 738.411,-50.5655"/>
<polygon fill="midnightblue" stroke="midnightblue" points="439.96,-85.6227 431.012,-91.2965 441.545,-92.4409 439.96,-85.6227"/>
</g>
<!-- Node17&#45;&gt;Node18 -->
<g id="edge20" class="edge"><title>Node17&#45;&gt;Node18</title>
<path fill="none" stroke="midnightblue" d="M330.42,-80.5907C325.019,-71.1657 319.397,-61.3532 314.476,-52.7655"/>
<polygon fill="midnightblue" stroke="midnightblue" points="327.491,-82.5191 335.499,-89.4557 333.564,-79.039 327.491,-82.5191"/>
</g>
</g>
</svg>
