<?xml version="1.0" encoding="UTF-8" standalone="no"?>
<!DOCTYPE svg PUBLIC "-//W3C//DTD SVG 1.1//EN"
 "http://www.w3.org/Graphics/SVG/1.1/DTD/svg11.dtd">
<!-- Generated by graphviz version 2.38.0 (20140413.2041)
 -->
<!-- Title: Foo Pages: 1 -->
<svg width="311pt" height="259pt"
 viewBox="0.00 0.00 310.50 259.00" xmlns="http://www.w3.org/2000/svg" xmlns:xlink="http://www.w3.org/1999/xlink">
<g id="graph0" class="graph" transform="scale(1 1) rotate(0) translate(4 255)">
<title>Foo</title>
<!-- Node1 -->
<g id="node1" class="node"><title>Node1</title>
<polygon fill="#bfbfbf" stroke="black" points="71,-0.5 71,-112.5 190,-112.5 190,-0.5 71,-0.5"/>
<text text-anchor="middle" x="130.5" y="-100.5" font-family="Helvetica,sans-Serif" font-size="10.00">Foo</text>
<polyline fill="none" stroke="black" points="71,-93.5 190,-93.5 "/>
<text text-anchor="middle" x="130.5" y="-81.5" font-family="Helvetica,sans-Serif" font-size="10.00"> </text>
<polyline fill="none" stroke="black" points="71,-74.5 190,-74.5 "/>
<text text-anchor="start" x="79" y="-62.5" font-family="Helvetica,sans-Serif" font-size="10.00">+ Foo()</text>
<text text-anchor="start" x="79" y="-51.5" font-family="Helvetica,sans-Serif" font-size="10.00">+ Foo()</text>
<text text-anchor="start" x="79" y="-40.5" font-family="Helvetica,sans-Serif" font-size="10.00">+ serialize()</text>
<text text-anchor="start" x="79" y="-29.5" font-family="Helvetica,sans-Serif" font-size="10.00">+ Foo()</text>
<text text-anchor="start" x="79" y="-18.5" font-family="Helvetica,sans-Serif" font-size="10.00">+ someHiddenMethod()</text>
<text text-anchor="start" x="79" y="-7.5" font-family="Helvetica,sans-Serif" font-size="10.00">+ a()</text>
</g>
<!-- Node2 -->
<g id="node2" class="node"><title>Node2</title>
<polygon fill="none" stroke="#bfbfbf" points="0,-193.5 0,-250.5 45,-250.5 45,-193.5 0,-193.5"/>
<text text-anchor="middle" x="22.5" y="-238.5" font-family="Helvetica,sans-Serif" font-size="10.00">double</text>
<polyline fill="none" stroke="#bfbfbf" points="0,-231.5 45,-231.5 "/>
<text text-anchor="middle" x="22.5" y="-219.5" font-family="Helvetica,sans-Serif" font-size="10.00"> </text>
<polyline fill="none" stroke="#bfbfbf" points="0,-212.5 45,-212.5 "/>
<text text-anchor="middle" x="22.5" y="-200.5" font-family="Helvetica,sans-Serif" font-size="10.00"> </text>
</g>
<!-- Node2&#45;&gt;Node1 -->
<g id="edge1" class="edge"><title>Node2&#45;&gt;Node1</title>
<path fill="none" stroke="#404040" d="M30.4419,-193.257C36.483,-174.73 45.9077,-150.313 58.5,-131 60.4208,-128.054 62.4719,-125.127 64.6221,-122.232"/>
<polygon fill="none" stroke="#404040" points="64.8361,-121.961 65.4117,-114.773 72.2683,-112.539 71.6927,-119.728 64.8361,-121.961"/>
<text text-anchor="middle" x="75" y="-150.5" font-family="Helvetica,sans-Serif" font-size="10.00"> +fBar2</text>
</g>
<!-- Node3 -->
<g id="node3" class="node"><title>Node3</title>
<g id="a_node3"><a xlink:href="../../d4/dc3/classfloat.html" target="_top" xlink:title="{float\n||}">
<polygon fill="none" stroke="black" points="63,-193.5 63,-250.5 98,-250.5 98,-193.5 63,-193.5"/>
<text text-anchor="middle" x="80.5" y="-238.5" font-family="Helvetica,sans-Serif" font-size="10.00">float</text>
<polyline fill="none" stroke="black" points="63,-231.5 98,-231.5 "/>
<text text-anchor="middle" x="80.5" y="-219.5" font-family="Helvetica,sans-Serif" font-size="10.00"> </text>
<polyline fill="none" stroke="black" points="63,-212.5 98,-212.5 "/>
<text text-anchor="middle" x="80.5" y="-200.5" font-family="Helvetica,sans-Serif" font-size="10.00"> </text>
</a>
</g>
</g>
<!-- Node3&#45;&gt;Node1 -->
<g id="edge2" class="edge"><title>Node3&#45;&gt;Node1</title>
<path fill="none" stroke="#404040" d="M88.9818,-193.264C94.7762,-174.317 102.713,-148.362 110.097,-124.219"/>
<polygon fill="none" stroke="#404040" points="110.155,-124.026 108.085,-117.119 113.665,-112.551 115.735,-119.458 110.155,-124.026"/>
<text text-anchor="middle" x="115" y="-150.5" font-family="Helvetica,sans-Serif" font-size="10.00"> +y</text>
</g>
<!-- Node4 -->
<g id="node4" class="node"><title>Node4</title>
<polygon fill="none" stroke="#bfbfbf" points="116,-193.5 116,-250.5 145,-250.5 145,-193.5 116,-193.5"/>
<text text-anchor="middle" x="130.5" y="-238.5" font-family="Helvetica,sans-Serif" font-size="10.00">int</text>
<polyline fill="none" stroke="#bfbfbf" points="116,-231.5 145,-231.5 "/>
<text text-anchor="middle" x="130.5" y="-219.5" font-family="Helvetica,sans-Serif" font-size="10.00"> </text>
<polyline fill="none" stroke="#bfbfbf" points="116,-212.5 145,-212.5 "/>
<text text-anchor="middle" x="130.5" y="-200.5" font-family="Helvetica,sans-Serif" font-size="10.00"> </text>
</g>
<!-- Node4&#45;&gt;Node1 -->
<g id="edge3" class="edge"><title>Node4&#45;&gt;Node1</title>
<path fill="none" stroke="#404040" d="M130.5,-193.264C130.5,-174.489 130.5,-148.833 130.5,-124.878"/>
<polygon fill="none" stroke="#404040" points="130.5,-124.551 126.5,-118.551 130.5,-112.551 134.5,-118.551 130.5,-124.551"/>
<text text-anchor="middle" x="145.5" y="-167" font-family="Helvetica,sans-Serif" font-size="10.00"> +foo</text>
<text text-anchor="middle" x="145.5" y="-156" font-family="Helvetica,sans-Serif" font-size="10.00">+fBar1</text>
<text text-anchor="middle" x="145.5" y="-145" font-family="Helvetica,sans-Serif" font-size="10.00">+x</text>
<text text-anchor="middle" x="145.5" y="-134" font-family="Helvetica,sans-Serif" font-size="10.00">+y</text>
</g>
<!-- Node5 -->
<g id="node5" class="node"><title>Node5</title>
<polygon fill="none" stroke="#bfbfbf" points="163,-193.5 163,-250.5 204,-250.5 204,-193.5 163,-193.5"/>
<text text-anchor="middle" x="183.5" y="-238.5" font-family="Helvetica,sans-Serif" font-size="10.00">string</text>
<polyline fill="none" stroke="#bfbfbf" points="163,-231.5 204,-231.5 "/>
<text text-anchor="middle" x="183.5" y="-219.5" font-family="Helvetica,sans-Serif" font-size="10.00"> </text>
<polyline fill="none" stroke="#bfbfbf" points="163,-212.5 204,-212.5 "/>
<text text-anchor="middle" x="183.5" y="-200.5" font-family="Helvetica,sans-Serif" font-size="10.00"> </text>
</g>
<!-- Node5&#45;&gt;Node1 -->
<g id="edge4" class="edge"><title>Node5&#45;&gt;Node1</title>
<path fill="none" stroke="#404040" d="M177.885,-193.104C173.979,-175.163 168.269,-151.464 161.5,-131 160.719,-128.637 159.894,-126.244 159.036,-123.837"/>
<polygon fill="none" stroke="#404040" points="159.011,-123.768 153.167,-119.543 154.818,-112.524 160.662,-116.748 159.011,-123.768"/>
<text text-anchor="middle" x="191" y="-150.5" font-family="Helvetica,sans-Serif" font-size="10.00"> +fBar4</text>
</g>
<!-- Node6 -->
<g id="node6" class="node"><title>Node6</title>
<polygon fill="none" stroke="#bfbfbf" points="222.5,-193.5 222.5,-250.5 302.5,-250.5 302.5,-193.5 222.5,-193.5"/>
<text text-anchor="middle" x="262.5" y="-238.5" font-family="Helvetica,sans-Serif" font-size="10.00">vector&lt; float &gt;</text>
<polyline fill="none" stroke="#bfbfbf" points="222.5,-231.5 302.5,-231.5 "/>
<text text-anchor="middle" x="262.5" y="-219.5" font-family="Helvetica,sans-Serif" font-size="10.00"> </text>
<polyline fill="none" stroke="#bfbfbf" points="222.5,-212.5 302.5,-212.5 "/>
<text text-anchor="middle" x="262.5" y="-200.5" font-family="Helvetica,sans-Serif" font-size="10.00"> </text>
</g>
<!-- Node6&#45;&gt;Node1 -->
<g id="edge5" class="edge"><title>Node6&#45;&gt;Node1</title>
<path fill="none" stroke="#404040" d="M249.648,-193.193C240.395,-174.637 226.87,-150.213 211.5,-131 207.597,-126.121 203.358,-121.281 198.936,-116.552"/>
<polygon fill="none" stroke="#404040" points="198.609,-116.216 191.558,-114.703 190.244,-107.612 197.294,-109.126 198.609,-116.216"/>
<text text-anchor="middle" x="256" y="-150.5" font-family="Helvetica,sans-Serif" font-size="10.00"> +fBar3</text>
</g>
</g>
</svg>
