<?xml version="1.0" encoding="UTF-8" standalone="no"?>
<!DOCTYPE svg PUBLIC "-//W3C//DTD SVG 1.1//EN"
 "http://www.w3.org/Graphics/SVG/1.1/DTD/svg11.dtd">
<!-- Generated by graphviz version 2.38.0 (20140413.2041)
 -->
<!-- Title: o2::zdc::ChannelSimCondition Pages: 1 -->
<svg width="353pt" height="237pt"
 viewBox="0.00 0.00 352.50 237.00" xmlns="http://www.w3.org/2000/svg" xmlns:xlink="http://www.w3.org/1999/xlink">
<g id="graph0" class="graph" transform="scale(1 1) rotate(0) translate(4 233)">
<title>o2::zdc::ChannelSimCondition</title>
<!-- Node1 -->
<g id="node1" class="node"><title>Node1</title>
<polygon fill="#bfbfbf" stroke="black" points="74,-0.5 74,-68.5 223,-68.5 223,-0.5 74,-0.5"/>
<text text-anchor="middle" x="148.5" y="-56.5" font-family="Helvetica,sans-Serif" font-size="10.00">o2::zdc::ChannelSimCondition</text>
<polyline fill="none" stroke="black" points="74,-49.5 223,-49.5 "/>
<text text-anchor="middle" x="148.5" y="-37.5" font-family="Helvetica,sans-Serif" font-size="10.00"> </text>
<polyline fill="none" stroke="black" points="74,-30.5 223,-30.5 "/>
<text text-anchor="start" x="82" y="-18.5" font-family="Helvetica,sans-Serif" font-size="10.00">+ print()</text>
<text text-anchor="start" x="82" y="-7.5" font-family="Helvetica,sans-Serif" font-size="10.00">+ ClassDefNV()</text>
</g>
<!-- Node2 -->
<g id="node2" class="node"><title>Node2</title>
<g id="a_node2"><a xlink:href="../../d4/dc3/classfloat.html" target="_top" xlink:title="{float\n||}">
<polygon fill="none" stroke="black" points="0,-171.5 0,-228.5 35,-228.5 35,-171.5 0,-171.5"/>
<text text-anchor="middle" x="17.5" y="-216.5" font-family="Helvetica,sans-Serif" font-size="10.00">float</text>
<polyline fill="none" stroke="black" points="0,-209.5 35,-209.5 "/>
<text text-anchor="middle" x="17.5" y="-197.5" font-family="Helvetica,sans-Serif" font-size="10.00"> </text>
<polyline fill="none" stroke="black" points="0,-190.5 35,-190.5 "/>
<text text-anchor="middle" x="17.5" y="-178.5" font-family="Helvetica,sans-Serif" font-size="10.00"> </text>
</a>
</g>
</g>
<!-- Node2&#45;&gt;Node1 -->
<g id="edge1" class="edge"><title>Node2&#45;&gt;Node1</title>
<path fill="none" stroke="#404040" d="M13.5026,-171.366C11.4995,-146.835 12.5598,-111.226 30.5,-87 38.9698,-75.5626 50.526,-66.6287 63.1093,-59.6606"/>
<polygon fill="none" stroke="#404040" points="63.1503,-59.64 66.719,-53.3738 73.8757,-54.2579 70.3071,-60.5241 63.1503,-59.64"/>
<text text-anchor="middle" x="65" y="-145" font-family="Helvetica,sans-Serif" font-size="10.00"> +pedestalFluct</text>
<text text-anchor="middle" x="65" y="-134" font-family="Helvetica,sans-Serif" font-size="10.00">+timeJitter</text>
<text text-anchor="middle" x="65" y="-123" font-family="Helvetica,sans-Serif" font-size="10.00">+pedestal</text>
<text text-anchor="middle" x="65" y="-112" font-family="Helvetica,sans-Serif" font-size="10.00">+gain</text>
<text text-anchor="middle" x="65" y="-101" font-family="Helvetica,sans-Serif" font-size="10.00">+pedestalNoise</text>
<text text-anchor="middle" x="65" y="-90" font-family="Helvetica,sans-Serif" font-size="10.00">+timePosition</text>
</g>
<!-- Node3 -->
<g id="node3" class="node"><title>Node3</title>
<polygon fill="none" stroke="#bfbfbf" points="95,-171.5 95,-228.5 124,-228.5 124,-171.5 95,-171.5"/>
<text text-anchor="middle" x="109.5" y="-216.5" font-family="Helvetica,sans-Serif" font-size="10.00">int</text>
<polyline fill="none" stroke="#bfbfbf" points="95,-209.5 124,-209.5 "/>
<text text-anchor="middle" x="109.5" y="-197.5" font-family="Helvetica,sans-Serif" font-size="10.00"> </text>
<polyline fill="none" stroke="#bfbfbf" points="95,-190.5 124,-190.5 "/>
<text text-anchor="middle" x="109.5" y="-178.5" font-family="Helvetica,sans-Serif" font-size="10.00"> </text>
</g>
<!-- Node3&#45;&gt;Node1 -->
<g id="edge2" class="edge"><title>Node3&#45;&gt;Node1</title>
<path fill="none" stroke="#404040" d="M105.068,-171.06C102.489,-147.914 101.322,-114.481 110.5,-87 111.358,-84.431 112.397,-81.8844 113.575,-79.3791"/>
<polygon fill="none" stroke="#404040" points="113.669,-79.2087 113.087,-72.0211 119.497,-68.7189 120.08,-75.9064 113.669,-79.2087"/>
<text text-anchor="middle" x="138" y="-117.5" font-family="Helvetica,sans-Serif" font-size="10.00"> +ampMinID</text>
</g>
<!-- Node4 -->
<g id="node4" class="node"><title>Node4</title>
<polygon fill="none" stroke="#bfbfbf" points="147.5,-171.5 147.5,-228.5 227.5,-228.5 227.5,-171.5 147.5,-171.5"/>
<text text-anchor="middle" x="187.5" y="-216.5" font-family="Helvetica,sans-Serif" font-size="10.00">vector&lt; float &gt;</text>
<polyline fill="none" stroke="#bfbfbf" points="147.5,-209.5 227.5,-209.5 "/>
<text text-anchor="middle" x="187.5" y="-197.5" font-family="Helvetica,sans-Serif" font-size="10.00"> </text>
<polyline fill="none" stroke="#bfbfbf" points="147.5,-190.5 227.5,-190.5 "/>
<text text-anchor="middle" x="187.5" y="-178.5" font-family="Helvetica,sans-Serif" font-size="10.00"> </text>
</g>
<!-- Node4&#45;&gt;Node1 -->
<g id="edge3" class="edge"><title>Node4&#45;&gt;Node1</title>
<path fill="none" stroke="#404040" d="M183.028,-171.165C179.128,-148.37 172.937,-115.369 165.5,-87 164.909,-84.7458 164.273,-82.4462 163.607,-80.1309"/>
<polygon fill="none" stroke="#404040" points="163.581,-80.043 158.008,-75.4667 160.089,-68.5623 165.662,-73.1386 163.581,-80.043"/>
<text text-anchor="middle" x="197.5" y="-117.5" font-family="Helvetica,sans-Serif" font-size="10.00"> +shape</text>
</g>
<!-- Node5 -->
<g id="node5" class="node"><title>Node5</title>
<polygon fill="none" stroke="#bfbfbf" points="246,-171.5 246,-228.5 287,-228.5 287,-171.5 246,-171.5"/>
<text text-anchor="middle" x="266.5" y="-216.5" font-family="Helvetica,sans-Serif" font-size="10.00">static</text>
<polyline fill="none" stroke="#bfbfbf" points="246,-209.5 287,-209.5 "/>
<text text-anchor="middle" x="266.5" y="-197.5" font-family="Helvetica,sans-Serif" font-size="10.00"> </text>
<polyline fill="none" stroke="#bfbfbf" points="246,-190.5 287,-190.5 "/>
<text text-anchor="middle" x="266.5" y="-178.5" font-family="Helvetica,sans-Serif" font-size="10.00"> </text>
</g>
<!-- Node5&#45;&gt;Node1 -->
<g id="edge4" class="edge"><title>Node5&#45;&gt;Node1</title>
<path fill="none" stroke="#404040" d="M259.531,-171.476C252.416,-147.35 239.542,-112.283 219.5,-87 216.736,-83.5133 213.678,-80.1517 210.429,-76.9319"/>
<polygon fill="none" stroke="#404040" points="210.323,-76.8355 203.194,-75.7501 201.454,-68.7521 208.583,-69.8375 210.323,-76.8355"/>
<text text-anchor="middle" x="299" y="-123" font-family="Helvetica,sans-Serif" font-size="10.00"> +ShapeBinWidthInv</text>
<text text-anchor="middle" x="299" y="-112" font-family="Helvetica,sans-Serif" font-size="10.00">+ShapeBinWidth</text>
</g>
</g>
</svg>
