<?xml version="1.0" encoding="UTF-8" standalone="no"?>
<!DOCTYPE svg PUBLIC "-//W3C//DTD SVG 1.1//EN"
 "http://www.w3.org/Graphics/SVG/1.1/DTD/svg11.dtd">
<!-- Generated by graphviz version 2.38.0 (20140413.2041)
 -->
<!-- Title: o2::header::BaseHeader Pages: 1 -->
<svg width="860pt" height="887pt"
 viewBox="0.00 0.00 860.47 887.00" xmlns="http://www.w3.org/2000/svg" xmlns:xlink="http://www.w3.org/1999/xlink">
<g id="graph0" class="graph" transform="scale(1 1) rotate(0) translate(4 883)">
<title>o2::header::BaseHeader</title>
<!-- Node1 -->
<g id="node1" class="node"><title>Node1</title>
<polygon fill="#bfbfbf" stroke="black" points="473.474,-0.5 473.474,-145.5 595.474,-145.5 595.474,-0.5 473.474,-0.5"/>
<text text-anchor="middle" x="534.474" y="-133.5" font-family="Helvetica,sans-Serif" font-size="10.00">o2::header::BaseHeader</text>
<polyline fill="none" stroke="black" points="473.474,-126.5 595.474,-126.5 "/>
<text text-anchor="middle" x="534.474" y="-114.5" font-family="Helvetica,sans-Serif" font-size="10.00"> </text>
<polyline fill="none" stroke="black" points="473.474,-107.5 595.474,-107.5 "/>
<text text-anchor="start" x="481.474" y="-95.5" font-family="Helvetica,sans-Serif" font-size="10.00">+ BaseHeader()</text>
<text text-anchor="start" x="481.474" y="-84.5" font-family="Helvetica,sans-Serif" font-size="10.00">+ BaseHeader()</text>
<text text-anchor="start" x="481.474" y="-73.5" font-family="Helvetica,sans-Serif" font-size="10.00">+ BaseHeader()</text>
<text text-anchor="start" x="481.474" y="-62.5" font-family="Helvetica,sans-Serif" font-size="10.00">+ size()</text>
<text text-anchor="start" x="481.474" y="-51.5" font-family="Helvetica,sans-Serif" font-size="10.00">+ data()</text>
<text text-anchor="start" x="481.474" y="-40.5" font-family="Helvetica,sans-Serif" font-size="10.00">+ next()</text>
<text text-anchor="start" x="481.474" y="-29.5" font-family="Helvetica,sans-Serif" font-size="10.00">+ next()</text>
<text text-anchor="start" x="481.474" y="-18.5" font-family="Helvetica,sans-Serif" font-size="10.00">+ get()</text>
<text text-anchor="start" x="481.474" y="-7.5" font-family="Helvetica,sans-Serif" font-size="10.00">+ get()</text>
</g>
<!-- Node2 -->
<g id="node2" class="node"><title>Node2</title>
<g id="a_node2"><a xlink:href="../../d9/db3/structo2_1_1header_1_1Descriptor.html" target="_top" xlink:title="{o2::header::Descriptor\l\&lt; gSizeHeaderDescriptionString \&gt;\n||+ Descriptor()\l+ Descriptor()\l+ Descriptor()\l+ Descriptor()\l+ operator=()\l+ operator ItgType()\l+ runtimeInit()\l+ operator==()\l+ operator==()\l+ operator\&lt;()\l+ operator!=()\l+ operator!=()\l+ as()\l+ print()\l}">
<polygon fill="none" stroke="black" points="94.4743,-248.5 94.4743,-459.5 260.474,-459.5 260.474,-248.5 94.4743,-248.5"/>
<text text-anchor="start" x="102.474" y="-447.5" font-family="Helvetica,sans-Serif" font-size="10.00">o2::header::Descriptor</text>
<text text-anchor="middle" x="177.474" y="-436.5" font-family="Helvetica,sans-Serif" font-size="10.00">&lt; gSizeHeaderDescriptionString &gt;</text>
<polyline fill="none" stroke="black" points="94.4743,-429.5 260.474,-429.5 "/>
<text text-anchor="middle" x="177.474" y="-417.5" font-family="Helvetica,sans-Serif" font-size="10.00"> </text>
<polyline fill="none" stroke="black" points="94.4743,-410.5 260.474,-410.5 "/>
<text text-anchor="start" x="102.474" y="-398.5" font-family="Helvetica,sans-Serif" font-size="10.00">+ Descriptor()</text>
<text text-anchor="start" x="102.474" y="-387.5" font-family="Helvetica,sans-Serif" font-size="10.00">+ Descriptor()</text>
<text text-anchor="start" x="102.474" y="-376.5" font-family="Helvetica,sans-Serif" font-size="10.00">+ Descriptor()</text>
<text text-anchor="start" x="102.474" y="-365.5" font-family="Helvetica,sans-Serif" font-size="10.00">+ Descriptor()</text>
<text text-anchor="start" x="102.474" y="-354.5" font-family="Helvetica,sans-Serif" font-size="10.00">+ operator=()</text>
<text text-anchor="start" x="102.474" y="-343.5" font-family="Helvetica,sans-Serif" font-size="10.00">+ operator ItgType()</text>
<text text-anchor="start" x="102.474" y="-332.5" font-family="Helvetica,sans-Serif" font-size="10.00">+ runtimeInit()</text>
<text text-anchor="start" x="102.474" y="-321.5" font-family="Helvetica,sans-Serif" font-size="10.00">+ operator==()</text>
<text text-anchor="start" x="102.474" y="-310.5" font-family="Helvetica,sans-Serif" font-size="10.00">+ operator==()</text>
<text text-anchor="start" x="102.474" y="-299.5" font-family="Helvetica,sans-Serif" font-size="10.00">+ operator&lt;()</text>
<text text-anchor="start" x="102.474" y="-288.5" font-family="Helvetica,sans-Serif" font-size="10.00">+ operator!=()</text>
<text text-anchor="start" x="102.474" y="-277.5" font-family="Helvetica,sans-Serif" font-size="10.00">+ operator!=()</text>
<text text-anchor="start" x="102.474" y="-266.5" font-family="Helvetica,sans-Serif" font-size="10.00">+ as()</text>
<text text-anchor="start" x="102.474" y="-255.5" font-family="Helvetica,sans-Serif" font-size="10.00">+ print()</text>
</a>
</g>
</g>
<!-- Node2&#45;&gt;Node1 -->
<g id="edge1" class="edge"><title>Node2&#45;&gt;Node1</title>
<path fill="none" stroke="#404040" d="M260.529,-264.262C294.192,-230.786 334.514,-193.661 374.474,-164 401.818,-143.703 434.21,-124.671 462.672,-109.383"/>
<polygon fill="none" stroke="#404040" points="462.767,-109.333 466.194,-102.989 473.369,-103.713 469.941,-110.057 462.767,-109.333"/>
<text text-anchor="middle" x="402.974" y="-194.5" font-family="Helvetica,sans-Serif" font-size="10.00"> +description</text>
</g>
<!-- Node3 -->
<g id="node3" class="node"><title>Node3</title>
<polygon fill="none" stroke="#bfbfbf" points="429.474,-821.5 429.474,-878.5 467.474,-878.5 467.474,-821.5 429.474,-821.5"/>
<text text-anchor="middle" x="448.474" y="-866.5" font-family="Helvetica,sans-Serif" font-size="10.00">Type</text>
<polyline fill="none" stroke="#bfbfbf" points="429.474,-859.5 467.474,-859.5 "/>
<text text-anchor="middle" x="448.474" y="-847.5" font-family="Helvetica,sans-Serif" font-size="10.00"> </text>
<polyline fill="none" stroke="#bfbfbf" points="429.474,-840.5 467.474,-840.5 "/>
<text text-anchor="middle" x="448.474" y="-828.5" font-family="Helvetica,sans-Serif" font-size="10.00"> </text>
</g>
<!-- Node3&#45;&gt;Node2 -->
<g id="edge2" class="edge"><title>Node3&#45;&gt;Node2</title>
<path fill="none" stroke="#404040" d="M453.584,-821.32C462.627,-764.039 475.667,-630.317 420.474,-540 407.037,-518.011 344.767,-490.927 322.474,-478 307.683,-469.423 302.368,-469.966 288.474,-460 282.321,-455.586 276.16,-450.851 270.069,-445.921"/>
<polygon fill="none" stroke="#404040" points="269.8,-445.698 262.628,-444.942 260.567,-438.032 267.739,-438.787 269.8,-445.698"/>
<text text-anchor="middle" x="472.474" y="-643.5" font-family="Helvetica,sans-Serif" font-size="10.00"> +itg</text>
</g>
<!-- Node7 -->
<g id="node7" class="node"><title>Node7</title>
<g id="a_node7"><a xlink:href="../../d9/db3/structo2_1_1header_1_1Descriptor.html" target="_top" xlink:title="{o2::header::Descriptor\l\&lt; N, PrinterPolicy \&gt;\n||+ Descriptor()\l+ Descriptor()\l+ Descriptor()\l+ operator=()\l+ operator ItgType()\l+ Descriptor()\l+ runtimeInit()\l+ operator==()\l+ operator\&lt;()\l+ operator!=()\l+ operator==()\l+ operator!=()\l+ as()\l+ print()\l}">
<polygon fill="none" stroke="black" points="298.974,-540.5 298.974,-751.5 411.974,-751.5 411.974,-540.5 298.974,-540.5"/>
<text text-anchor="start" x="306.974" y="-739.5" font-family="Helvetica,sans-Serif" font-size="10.00">o2::header::Descriptor</text>
<text text-anchor="middle" x="355.474" y="-728.5" font-family="Helvetica,sans-Serif" font-size="10.00">&lt; N, PrinterPolicy &gt;</text>
<polyline fill="none" stroke="black" points="298.974,-721.5 411.974,-721.5 "/>
<text text-anchor="middle" x="355.474" y="-709.5" font-family="Helvetica,sans-Serif" font-size="10.00"> </text>
<polyline fill="none" stroke="black" points="298.974,-702.5 411.974,-702.5 "/>
<text text-anchor="start" x="306.974" y="-690.5" font-family="Helvetica,sans-Serif" font-size="10.00">+ Descriptor()</text>
<text text-anchor="start" x="306.974" y="-679.5" font-family="Helvetica,sans-Serif" font-size="10.00">+ Descriptor()</text>
<text text-anchor="start" x="306.974" y="-668.5" font-family="Helvetica,sans-Serif" font-size="10.00">+ Descriptor()</text>
<text text-anchor="start" x="306.974" y="-657.5" font-family="Helvetica,sans-Serif" font-size="10.00">+ operator=()</text>
<text text-anchor="start" x="306.974" y="-646.5" font-family="Helvetica,sans-Serif" font-size="10.00">+ operator ItgType()</text>
<text text-anchor="start" x="306.974" y="-635.5" font-family="Helvetica,sans-Serif" font-size="10.00">+ Descriptor()</text>
<text text-anchor="start" x="306.974" y="-624.5" font-family="Helvetica,sans-Serif" font-size="10.00">+ runtimeInit()</text>
<text text-anchor="start" x="306.974" y="-613.5" font-family="Helvetica,sans-Serif" font-size="10.00">+ operator==()</text>
<text text-anchor="start" x="306.974" y="-602.5" font-family="Helvetica,sans-Serif" font-size="10.00">+ operator&lt;()</text>
<text text-anchor="start" x="306.974" y="-591.5" font-family="Helvetica,sans-Serif" font-size="10.00">+ operator!=()</text>
<text text-anchor="start" x="306.974" y="-580.5" font-family="Helvetica,sans-Serif" font-size="10.00">+ operator==()</text>
<text text-anchor="start" x="306.974" y="-569.5" font-family="Helvetica,sans-Serif" font-size="10.00">+ operator!=()</text>
<text text-anchor="start" x="306.974" y="-558.5" font-family="Helvetica,sans-Serif" font-size="10.00">+ as()</text>
<text text-anchor="start" x="306.974" y="-547.5" font-family="Helvetica,sans-Serif" font-size="10.00">+ print()</text>
</a>
</g>
</g>
<!-- Node3&#45;&gt;Node7 -->
<g id="edge7" class="edge"><title>Node3&#45;&gt;Node7</title>
<path fill="none" stroke="#404040" d="M429.169,-825.484C423.981,-818.507 418.657,-810.673 414.474,-803 407.531,-790.261 401.045,-776.533 395.104,-762.69"/>
<polygon fill="none" stroke="#404040" points="395.088,-762.652 389.083,-758.66 390.458,-751.581 396.463,-755.573 395.088,-762.652"/>
<text text-anchor="middle" x="424.474" y="-784" font-family="Helvetica,sans-Serif" font-size="10.00"> +itg</text>
</g>
<!-- Node10 -->
<g id="node10" class="node"><title>Node10</title>
<g id="a_node10"><a xlink:href="../../d9/db3/structo2_1_1header_1_1Descriptor.html" target="_top" xlink:title="{o2::header::Descriptor\l\&lt; gSizeSerializationMethodString \&gt;\n||+ Descriptor()\l+ Descriptor()\l+ Descriptor()\l+ Descriptor()\l+ operator=()\l+ operator ItgType()\l+ runtimeInit()\l+ operator==()\l+ operator==()\l+ operator\&lt;()\l+ operator!=()\l+ operator!=()\l+ as()\l+ print()\l}">
<polygon fill="none" stroke="black" points="297.474,-248.5 297.474,-459.5 467.474,-459.5 467.474,-248.5 297.474,-248.5"/>
<text text-anchor="start" x="305.474" y="-447.5" font-family="Helvetica,sans-Serif" font-size="10.00">o2::header::Descriptor</text>
<text text-anchor="middle" x="382.474" y="-436.5" font-family="Helvetica,sans-Serif" font-size="10.00">&lt; gSizeSerializationMethodString &gt;</text>
<polyline fill="none" stroke="black" points="297.474,-429.5 467.474,-429.5 "/>
<text text-anchor="middle" x="382.474" y="-417.5" font-family="Helvetica,sans-Serif" font-size="10.00"> </text>
<polyline fill="none" stroke="black" points="297.474,-410.5 467.474,-410.5 "/>
<text text-anchor="start" x="305.474" y="-398.5" font-family="Helvetica,sans-Serif" font-size="10.00">+ Descriptor()</text>
<text text-anchor="start" x="305.474" y="-387.5" font-family="Helvetica,sans-Serif" font-size="10.00">+ Descriptor()</text>
<text text-anchor="start" x="305.474" y="-376.5" font-family="Helvetica,sans-Serif" font-size="10.00">+ Descriptor()</text>
<text text-anchor="start" x="305.474" y="-365.5" font-family="Helvetica,sans-Serif" font-size="10.00">+ Descriptor()</text>
<text text-anchor="start" x="305.474" y="-354.5" font-family="Helvetica,sans-Serif" font-size="10.00">+ operator=()</text>
<text text-anchor="start" x="305.474" y="-343.5" font-family="Helvetica,sans-Serif" font-size="10.00">+ operator ItgType()</text>
<text text-anchor="start" x="305.474" y="-332.5" font-family="Helvetica,sans-Serif" font-size="10.00">+ runtimeInit()</text>
<text text-anchor="start" x="305.474" y="-321.5" font-family="Helvetica,sans-Serif" font-size="10.00">+ operator==()</text>
<text text-anchor="start" x="305.474" y="-310.5" font-family="Helvetica,sans-Serif" font-size="10.00">+ operator==()</text>
<text text-anchor="start" x="305.474" y="-299.5" font-family="Helvetica,sans-Serif" font-size="10.00">+ operator&lt;()</text>
<text text-anchor="start" x="305.474" y="-288.5" font-family="Helvetica,sans-Serif" font-size="10.00">+ operator!=()</text>
<text text-anchor="start" x="305.474" y="-277.5" font-family="Helvetica,sans-Serif" font-size="10.00">+ operator!=()</text>
<text text-anchor="start" x="305.474" y="-266.5" font-family="Helvetica,sans-Serif" font-size="10.00">+ as()</text>
<text text-anchor="start" x="305.474" y="-255.5" font-family="Helvetica,sans-Serif" font-size="10.00">+ print()</text>
</a>
</g>
</g>
<!-- Node3&#45;&gt;Node10 -->
<g id="edge15" class="edge"><title>Node3&#45;&gt;Node10</title>
<path fill="none" stroke="#404040" d="M467.549,-847.218C493.174,-843.689 537.872,-833.298 558.474,-803 581.767,-768.744 643.063,-766.425 559.474,-540 546.92,-505.992 534.155,-501.408 506.474,-478 496.642,-469.685 490.741,-469.59 477.236,-459.916"/>
<polygon fill="none" stroke="#404040" points="477.197,-459.885 470.006,-459.343 467.741,-452.496 474.932,-453.039 477.197,-459.885"/>
<text text-anchor="middle" x="612.474" y="-643.5" font-family="Helvetica,sans-Serif" font-size="10.00"> +itg</text>
</g>
<!-- Node4 -->
<g id="node4" class="node"><title>Node4</title>
<polygon fill="none" stroke="#bfbfbf" points="78.9743,-821.5 78.9743,-878.5 113.974,-878.5 113.974,-821.5 78.9743,-821.5"/>
<text text-anchor="middle" x="96.4743" y="-866.5" font-family="Helvetica,sans-Serif" font-size="10.00">char</text>
<polyline fill="none" stroke="#bfbfbf" points="78.9743,-859.5 113.974,-859.5 "/>
<text text-anchor="middle" x="96.4743" y="-847.5" font-family="Helvetica,sans-Serif" font-size="10.00"> </text>
<polyline fill="none" stroke="#bfbfbf" points="78.9743,-840.5 113.974,-840.5 "/>
<text text-anchor="middle" x="96.4743" y="-828.5" font-family="Helvetica,sans-Serif" font-size="10.00"> </text>
</g>
<!-- Node4&#45;&gt;Node1 -->
<g id="edge12" class="edge"><title>Node4&#45;&gt;Node1</title>
<path fill="none" stroke="#404040" d="M83.3066,-821.12C80.8168,-815.219 78.3946,-808.969 76.4743,-803 69.3723,-780.926 70.0975,-774.722 65.4743,-752 20.7778,-532.325 -64.2992,-414.802 85.4743,-248 184.532,-137.68 361.836,-96.7044 461.428,-81.9401"/>
<polygon fill="none" stroke="#404040" points="461.592,-81.9168 466.969,-77.1114 473.473,-80.2263 468.096,-85.0317 461.592,-81.9168"/>
<text text-anchor="middle" x="39.9743" y="-497.5" font-family="Helvetica,sans-Serif" font-size="10.00"> +magicString</text>
</g>
<!-- Node4&#45;&gt;Node2 -->
<g id="edge3" class="edge"><title>Node4&#45;&gt;Node2</title>
<path fill="none" stroke="#404040" d="M89.7285,-821.212C77.5925,-766.466 55.5551,-641.189 80.4743,-540 86.2498,-516.547 95.5855,-492.776 106.238,-470.44"/>
<polygon fill="none" stroke="#404040" points="106.273,-470.368 105.328,-463.219 111.564,-459.597 112.509,-466.746 106.273,-470.368"/>
<text text-anchor="middle" x="90.9743" y="-643.5" font-family="Helvetica,sans-Serif" font-size="10.00"> +str</text>
</g>
<!-- Node4&#45;&gt;Node7 -->
<g id="edge8" class="edge"><title>Node4&#45;&gt;Node7</title>
<path fill="none" stroke="#404040" d="M114.305,-839.873C160.875,-816.025 282.698,-753.578 284.474,-752 286.513,-750.189 288.52,-748.308 290.495,-746.367"/>
<polygon fill="none" stroke="#404040" points="290.659,-746.195 291.903,-739.092 298.938,-737.509 297.694,-744.612 290.659,-746.195"/>
<text text-anchor="middle" x="258.974" y="-784" font-family="Helvetica,sans-Serif" font-size="10.00"> +str</text>
</g>
<!-- Node4&#45;&gt;Node10 -->
<g id="edge16" class="edge"><title>Node4&#45;&gt;Node10</title>
<path fill="none" stroke="#404040" d="M114.167,-831.888C131.656,-813.805 157.608,-783.582 170.474,-752 188.382,-708.044 164.572,-575.144 196.474,-540 221.261,-512.694 247.334,-543.25 277.474,-522 277.887,-521.709 292.265,-498.937 310.255,-470.3"/>
<polygon fill="none" stroke="#404040" points="310.371,-470.115 310.174,-462.907 316.752,-459.953 316.949,-467.161 310.371,-470.115"/>
<text text-anchor="middle" x="206.974" y="-643.5" font-family="Helvetica,sans-Serif" font-size="10.00"> +str</text>
</g>
<!-- Node5 -->
<g id="node5" class="node"><title>Node5</title>
<polygon fill="none" stroke="#bfbfbf" points="200.974,-821.5 200.974,-878.5 297.974,-878.5 297.974,-821.5 200.974,-821.5"/>
<text text-anchor="middle" x="249.474" y="-866.5" font-family="Helvetica,sans-Serif" font-size="10.00">anonymous:+@24</text>
<polyline fill="none" stroke="#bfbfbf" points="200.974,-859.5 297.974,-859.5 "/>
<text text-anchor="middle" x="249.474" y="-847.5" font-family="Helvetica,sans-Serif" font-size="10.00"> </text>
<polyline fill="none" stroke="#bfbfbf" points="200.974,-840.5 297.974,-840.5 "/>
<text text-anchor="middle" x="249.474" y="-828.5" font-family="Helvetica,sans-Serif" font-size="10.00"> </text>
</g>
<!-- Node5&#45;&gt;Node2 -->
<g id="edge4" class="edge"><title>Node5&#45;&gt;Node2</title>
<path fill="none" stroke="#404040" d="M229.828,-821.44C216.96,-804.89 198.958,-784.334 179.474,-770 163.771,-758.447 150.059,-768.371 139.474,-752 85.92,-669.174 103.733,-555.598 130.071,-471.141"/>
<polygon fill="none" stroke="#404040" points="130.081,-471.11 128.107,-464.174 133.751,-459.685 135.724,-466.621 130.081,-471.11"/>
<text text-anchor="middle" x="154.974" y="-643.5" font-family="Helvetica,sans-Serif" font-size="10.00"> +@24</text>
</g>
<!-- Node5&#45;&gt;Node7 -->
<g id="edge9" class="edge"><title>Node5&#45;&gt;Node7</title>
<path fill="none" stroke="#404040" d="M263.991,-821.336C272.274,-805.551 283.279,-784.579 294.778,-762.667"/>
<polygon fill="none" stroke="#404040" points="294.877,-762.479 294.123,-755.307 300.453,-751.853 301.206,-759.024 294.877,-762.479"/>
<text text-anchor="middle" x="305.974" y="-784" font-family="Helvetica,sans-Serif" font-size="10.00"> +@24</text>
</g>
<!-- Node5&#45;&gt;Node10 -->
<g id="edge17" class="edge"><title>Node5&#45;&gt;Node10</title>
<path fill="none" stroke="#404040" d="M240.939,-821.067C224.945,-762.729 197.294,-626.228 258.474,-540 271.418,-521.757 289.142,-537.284 305.474,-522 320.843,-507.618 333.402,-489.568 343.58,-470.692"/>
<polygon fill="none" stroke="#404040" points="343.677,-470.505 342.851,-463.341 349.146,-459.824 349.972,-466.988 343.677,-470.505"/>
<text text-anchor="middle" x="273.974" y="-643.5" font-family="Helvetica,sans-Serif" font-size="10.00"> +@24</text>
</g>
<!-- Node6 -->
<g id="node6" class="node"><title>Node6</title>
<polygon fill="none" stroke="#bfbfbf" points="605.974,-821.5 605.974,-878.5 646.974,-878.5 646.974,-821.5 605.974,-821.5"/>
<text text-anchor="middle" x="626.474" y="-866.5" font-family="Helvetica,sans-Serif" font-size="10.00">static</text>
<polyline fill="none" stroke="#bfbfbf" points="605.974,-859.5 646.974,-859.5 "/>
<text text-anchor="middle" x="626.474" y="-847.5" font-family="Helvetica,sans-Serif" font-size="10.00"> </text>
<polyline fill="none" stroke="#bfbfbf" points="605.974,-840.5 646.974,-840.5 "/>
<text text-anchor="middle" x="626.474" y="-828.5" font-family="Helvetica,sans-Serif" font-size="10.00"> </text>
</g>
<!-- Node6&#45;&gt;Node1 -->
<g id="edge21" class="edge"><title>Node6&#45;&gt;Node1</title>
<path fill="none" stroke="#404040" d="M647.303,-832.286C667.347,-814.74 696.346,-785.132 708.474,-752 721.218,-717.185 720.716,-284.594 706.474,-248 686.663,-197.094 643.351,-153.424 605.149,-122.565"/>
<polygon fill="none" stroke="#404040" points="604.983,-122.435 597.795,-121.857 595.564,-114.999 602.752,-115.577 604.983,-122.435"/>
<text text-anchor="middle" x="766.974" y="-514" font-family="Helvetica,sans-Serif" font-size="10.00"> +sMagicString</text>
<text text-anchor="middle" x="766.974" y="-503" font-family="Helvetica,sans-Serif" font-size="10.00">+sHeaderType</text>
<text text-anchor="middle" x="766.974" y="-492" font-family="Helvetica,sans-Serif" font-size="10.00">+sSerializationMethod</text>
<text text-anchor="middle" x="766.974" y="-481" font-family="Helvetica,sans-Serif" font-size="10.00">+sVersion</text>
</g>
<!-- Node6&#45;&gt;Node2 -->
<g id="edge5" class="edge"><title>Node6&#45;&gt;Node2</title>
<path fill="none" stroke="#404040" d="M608.583,-821.48C596.299,-804.522 578.611,-783.51 558.474,-770 537.466,-755.906 520.307,-771.731 504.474,-752 445.188,-678.118 540.383,-614.967 482.474,-540 468.546,-521.969 454.427,-533.001 434.474,-522 406.14,-506.378 405.947,-491.352 376.474,-478 340.111,-461.526 323.89,-478.424 288.474,-460 282.518,-456.901 276.654,-453.389 270.922,-449.574"/>
<polygon fill="none" stroke="#404040" points="270.565,-449.322 263.356,-449.134 260.758,-442.407 267.966,-442.596 270.565,-449.322"/>
<text text-anchor="middle" x="529.974" y="-654.5" font-family="Helvetica,sans-Serif" font-size="10.00"> +arraySize</text>
<text text-anchor="middle" x="529.974" y="-643.5" font-family="Helvetica,sans-Serif" font-size="10.00">+size</text>
<text text-anchor="middle" x="529.974" y="-632.5" font-family="Helvetica,sans-Serif" font-size="10.00">+bitcount</text>
</g>
<!-- Node6&#45;&gt;Node7 -->
<g id="edge10" class="edge"><title>Node6&#45;&gt;Node7</title>
<path fill="none" stroke="#404040" d="M605.724,-842.94C566.975,-830.82 482.475,-800.516 426.474,-752 424.447,-750.244 422.452,-748.417 420.491,-746.53"/>
<polygon fill="none" stroke="#404040" points="420.474,-746.512 413.424,-744.996 412.112,-737.905 419.162,-739.421 420.474,-746.512"/>
<text text-anchor="middle" x="528.974" y="-795" font-family="Helvetica,sans-Serif" font-size="10.00"> +arraySize</text>
<text text-anchor="middle" x="528.974" y="-784" font-family="Helvetica,sans-Serif" font-size="10.00">+size</text>
<text text-anchor="middle" x="528.974" y="-773" font-family="Helvetica,sans-Serif" font-size="10.00">+bitcount</text>
</g>
<!-- Node6&#45;&gt;Node10 -->
<g id="edge18" class="edge"><title>Node6&#45;&gt;Node10</title>
<path fill="none" stroke="#404040" d="M634.187,-821.103C648.212,-764.552 672.346,-633.821 625.474,-540 605.055,-499.128 584.517,-498.076 543.474,-478 518.698,-465.881 505.65,-473.969 477.978,-459.996"/>
<polygon fill="none" stroke="#404040" points="477.97,-459.992 470.778,-460.506 467.537,-454.065 474.729,-453.55 477.97,-459.992"/>
<text text-anchor="middle" x="678.974" y="-654.5" font-family="Helvetica,sans-Serif" font-size="10.00"> +arraySize</text>
<text text-anchor="middle" x="678.974" y="-643.5" font-family="Helvetica,sans-Serif" font-size="10.00">+size</text>
<text text-anchor="middle" x="678.974" y="-632.5" font-family="Helvetica,sans-Serif" font-size="10.00">+bitcount</text>
</g>
<!-- Node7&#45;&gt;Node2 -->
<g id="edge6" class="edge"><title>Node7&#45;&gt;Node2</title>
<path fill="none" stroke="orange" d="M291.003,-544.831C288.877,-543.134 286.701,-541.519 284.474,-540 254.37,-519.459 229.446,-548.544 204.474,-522 188.576,-505.101 179.919,-482.728 175.548,-459.87"/>
<polygon fill="orange" stroke="orange" points="289.11,-547.824 298.948,-551.758 293.71,-542.548 289.11,-547.824"/>
<text text-anchor="start" x="204.474" y="-503" font-family="Helvetica,sans-Serif" font-size="10.00"> &lt; gSizeHeaderDescription</text>
<text text-anchor="middle" x="263.474" y="-492" font-family="Helvetica,sans-Serif" font-size="10.00">String &gt;</text>
</g>
<!-- Node7&#45;&gt;Node10 -->
<g id="edge19" class="edge"><title>Node7&#45;&gt;Node10</title>
<path fill="none" stroke="orange" d="M374.578,-530.277C374.896,-527.493 375.196,-524.731 375.474,-522 377.519,-501.936 378.969,-480.458 379.997,-459.812"/>
<polygon fill="orange" stroke="orange" points="371.075,-530.085 373.348,-540.433 378.025,-530.927 371.075,-530.085"/>
<text text-anchor="start" x="379.474" y="-503" font-family="Helvetica,sans-Serif" font-size="10.00"> &lt; gSizeSerializationMethod</text>
<text text-anchor="middle" x="440.974" y="-492" font-family="Helvetica,sans-Serif" font-size="10.00">String &gt;</text>
</g>
<!-- Node8 -->
<g id="node8" class="node"><title>Node8</title>
<polygon fill="none" stroke="#bfbfbf" points="485.974,-325.5 485.974,-382.5 582.974,-382.5 582.974,-325.5 485.974,-325.5"/>
<text text-anchor="middle" x="534.474" y="-370.5" font-family="Helvetica,sans-Serif" font-size="10.00">anonymous:+@26</text>
<polyline fill="none" stroke="#bfbfbf" points="485.974,-363.5 582.974,-363.5 "/>
<text text-anchor="middle" x="534.474" y="-351.5" font-family="Helvetica,sans-Serif" font-size="10.00"> </text>
<polyline fill="none" stroke="#bfbfbf" points="485.974,-344.5 582.974,-344.5 "/>
<text text-anchor="middle" x="534.474" y="-332.5" font-family="Helvetica,sans-Serif" font-size="10.00"> </text>
</g>
<!-- Node8&#45;&gt;Node1 -->
<g id="edge11" class="edge"><title>Node8&#45;&gt;Node1</title>
<path fill="none" stroke="#404040" d="M534.474,-325.485C534.474,-286.869 534.474,-214.933 534.474,-157.858"/>
<polygon fill="none" stroke="#404040" points="534.474,-157.554 530.474,-151.554 534.474,-145.554 538.474,-151.554 534.474,-157.554"/>
<text text-anchor="middle" x="549.974" y="-194.5" font-family="Helvetica,sans-Serif" font-size="10.00"> +@26</text>
</g>
<!-- Node9 -->
<g id="node9" class="node"><title>Node9</title>
<polygon fill="none" stroke="#bfbfbf" points="600.974,-325.5 600.974,-382.5 697.974,-382.5 697.974,-325.5 600.974,-325.5"/>
<text text-anchor="middle" x="649.474" y="-370.5" font-family="Helvetica,sans-Serif" font-size="10.00">anonymous:+@28</text>
<polyline fill="none" stroke="#bfbfbf" points="600.974,-363.5 697.974,-363.5 "/>
<text text-anchor="middle" x="649.474" y="-351.5" font-family="Helvetica,sans-Serif" font-size="10.00"> </text>
<polyline fill="none" stroke="#bfbfbf" points="600.974,-344.5 697.974,-344.5 "/>
<text text-anchor="middle" x="649.474" y="-332.5" font-family="Helvetica,sans-Serif" font-size="10.00"> </text>
</g>
<!-- Node9&#45;&gt;Node1 -->
<g id="edge13" class="edge"><title>Node9&#45;&gt;Node1</title>
<path fill="none" stroke="#404040" d="M638.133,-325.485C622.116,-286.627 592.191,-214.027 568.596,-156.783"/>
<polygon fill="none" stroke="#404040" points="568.541,-156.648 562.556,-152.626 563.968,-145.554 569.953,-149.577 568.541,-156.648"/>
<text text-anchor="middle" x="610.974" y="-194.5" font-family="Helvetica,sans-Serif" font-size="10.00"> +@28</text>
</g>
<!-- Node10&#45;&gt;Node1 -->
<g id="edge14" class="edge"><title>Node10&#45;&gt;Node1</title>
<path fill="none" stroke="#404040" d="M426.348,-248.164C439.202,-220.259 453.994,-190.515 469.474,-164 471.026,-161.342 472.637,-158.665 474.294,-155.983"/>
<polygon fill="none" stroke="#404040" points="474.439,-155.756 474.288,-148.546 480.884,-145.634 481.036,-152.843 474.439,-155.756"/>
<text text-anchor="middle" x="499.974" y="-194.5" font-family="Helvetica,sans-Serif" font-size="10.00"> +serialization</text>
</g>
<!-- Node11 -->
<g id="node11" class="node"><title>Node11</title>
<polygon fill="none" stroke="#bfbfbf" points="754.974,-325.5 754.974,-382.5 805.974,-382.5 805.974,-325.5 754.974,-325.5"/>
<text text-anchor="middle" x="780.474" y="-370.5" font-family="Helvetica,sans-Serif" font-size="10.00">uint32_t</text>
<polyline fill="none" stroke="#bfbfbf" points="754.974,-363.5 805.974,-363.5 "/>
<text text-anchor="middle" x="780.474" y="-351.5" font-family="Helvetica,sans-Serif" font-size="10.00"> </text>
<polyline fill="none" stroke="#bfbfbf" points="754.974,-344.5 805.974,-344.5 "/>
<text text-anchor="middle" x="780.474" y="-332.5" font-family="Helvetica,sans-Serif" font-size="10.00"> </text>
</g>
<!-- Node11&#45;&gt;Node1 -->
<g id="edge20" class="edge"><title>Node11&#45;&gt;Node1</title>
<path fill="none" stroke="#404040" d="M782.074,-325.292C782.893,-285.227 778.61,-210.801 740.474,-164 707.319,-123.312 652.15,-100.536 607.245,-88.0809"/>
<polygon fill="none" stroke="#404040" points="607.081,-88.0377 600.26,-90.379 595.476,-84.9838 602.296,-82.6424 607.081,-88.0377"/>
<text text-anchor="middle" x="812.474" y="-222" font-family="Helvetica,sans-Serif" font-size="10.00"> +headerVersion</text>
<text text-anchor="middle" x="812.474" y="-211" font-family="Helvetica,sans-Serif" font-size="10.00">+headerSize</text>
<text text-anchor="middle" x="812.474" y="-200" font-family="Helvetica,sans-Serif" font-size="10.00">+flagsNextHeader</text>
<text text-anchor="middle" x="812.474" y="-189" font-family="Helvetica,sans-Serif" font-size="10.00">+magicStringInt</text>
<text text-anchor="middle" x="812.474" y="-178" font-family="Helvetica,sans-Serif" font-size="10.00">+flagsUnused</text>
<text text-anchor="middle" x="812.474" y="-167" font-family="Helvetica,sans-Serif" font-size="10.00">+flags</text>
</g>
</g>
</svg>
