<?xml version="1.0" encoding="UTF-8" standalone="no"?>
<!DOCTYPE svg PUBLIC "-//W3C//DTD SVG 1.1//EN"
 "http://www.w3.org/Graphics/SVG/1.1/DTD/svg11.dtd">
<!-- Generated by graphviz version 2.38.0 (20140413.2041)
 -->
<!-- Title: /home/travis/build/AliceO2Group/AliceO2/Framework/Core/include/Framework/DeviceMetricsInfo.h Pages: 1 -->
<svg width="1696pt" height="239pt"
 viewBox="0.00 0.00 1695.50 239.00" xmlns="http://www.w3.org/2000/svg" xmlns:xlink="http://www.w3.org/1999/xlink">
<g id="graph0" class="graph" transform="scale(1 1) rotate(0) translate(4 235)">
<title>/home/travis/build/AliceO2Group/AliceO2/Framework/Core/include/Framework/DeviceMetricsInfo.h</title>
<!-- Node1 -->
<g id="node1" class="node"><title>Node1</title>
<polygon fill="#bfbfbf" stroke="black" points="827.5,-178.5 827.5,-230.5 986.5,-230.5 986.5,-178.5 827.5,-178.5"/>
<text text-anchor="start" x="835.5" y="-218.5" font-family="Helvetica,sans-Serif" font-size="10.00">/home/travis/build</text>
<text text-anchor="start" x="835.5" y="-207.5" font-family="Helvetica,sans-Serif" font-size="10.00">/AliceO2Group/AliceO2</text>
<text text-anchor="start" x="835.5" y="-196.5" font-family="Helvetica,sans-Serif" font-size="10.00">/Framework/Core/include</text>
<text text-anchor="middle" x="907" y="-185.5" font-family="Helvetica,sans-Serif" font-size="10.00">/Framework/DeviceMetricsInfo.h</text>
</g>
<!-- Node2 -->
<g id="node2" class="node"><title>Node2</title>
<g id="a_node2"><a xlink:href="../../dd/d9a/FrameworkGUIDebugger_8h.html" target="_top" xlink:title="/home/travis/build\l/AliceO2Group/AliceO2\l/Framework/Core/include\l/Framework/FrameworkGUIDebugger.h">
<polygon fill="none" stroke="black" points="200,-89.5 200,-141.5 388,-141.5 388,-89.5 200,-89.5"/>
<text text-anchor="start" x="208" y="-129.5" font-family="Helvetica,sans-Serif" font-size="10.00">/home/travis/build</text>
<text text-anchor="start" x="208" y="-118.5" font-family="Helvetica,sans-Serif" font-size="10.00">/AliceO2Group/AliceO2</text>
<text text-anchor="start" x="208" y="-107.5" font-family="Helvetica,sans-Serif" font-size="10.00">/Framework/Core/include</text>
<text text-anchor="middle" x="294" y="-96.5" font-family="Helvetica,sans-Serif" font-size="10.00">/Framework/FrameworkGUIDebugger.h</text>
</a>
</g>
</g>
<!-- Node1&#45;&gt;Node2 -->
<g id="edge1" class="edge"><title>Node1&#45;&gt;Node2</title>
<path fill="none" stroke="midnightblue" d="M817.501,-196.059C715.269,-186.784 543.229,-168.813 397,-142 394.101,-141.468 391.162,-140.904 388.199,-140.312"/>
<polygon fill="midnightblue" stroke="midnightblue" points="817.205,-199.546 827.478,-196.956 817.832,-192.574 817.205,-199.546"/>
</g>
<!-- Node5 -->
<g id="node5" class="node"><title>Node5</title>
<g id="a_node5"><a xlink:href="../../d7/d54/runDataProcessing_8cxx.html" target="_top" xlink:title="/home/travis/build\l/AliceO2Group/AliceO2\l/Framework/Core/src/runDataProcessing.cxx">
<polygon fill="none" stroke="black" points="0,-6 0,-47 214,-47 214,-6 0,-6"/>
<text text-anchor="start" x="8" y="-35" font-family="Helvetica,sans-Serif" font-size="10.00">/home/travis/build</text>
<text text-anchor="start" x="8" y="-24" font-family="Helvetica,sans-Serif" font-size="10.00">/AliceO2Group/AliceO2</text>
<text text-anchor="middle" x="107" y="-13" font-family="Helvetica,sans-Serif" font-size="10.00">/Framework/Core/src/runDataProcessing.cxx</text>
</a>
</g>
</g>
<!-- Node1&#45;&gt;Node5 -->
<g id="edge12" class="edge"><title>Node1&#45;&gt;Node5</title>
<path fill="none" stroke="midnightblue" d="M817.093,-199.92C636.946,-192.148 244.387,-171.987 191,-142 152.953,-120.63 127.362,-74.0746 115.191,-47.3765"/>
<polygon fill="midnightblue" stroke="midnightblue" points="817.2,-203.427 827.34,-200.358 817.499,-196.434 817.2,-203.427"/>
</g>
<!-- Node6 -->
<g id="node6" class="node"><title>Node6</title>
<g id="a_node6"><a xlink:href="../../dd/d49/FrameworkGUIDevicesGraph_8h.html" target="_top" xlink:title="/home/travis/build\l/AliceO2Group/AliceO2\l/Framework/Core/include\l/Framework/FrameworkGUIDevicesGraph.h">
<polygon fill="none" stroke="black" points="406.5,-89.5 406.5,-141.5 615.5,-141.5 615.5,-89.5 406.5,-89.5"/>
<text text-anchor="start" x="414.5" y="-129.5" font-family="Helvetica,sans-Serif" font-size="10.00">/home/travis/build</text>
<text text-anchor="start" x="414.5" y="-118.5" font-family="Helvetica,sans-Serif" font-size="10.00">/AliceO2Group/AliceO2</text>
<text text-anchor="start" x="414.5" y="-107.5" font-family="Helvetica,sans-Serif" font-size="10.00">/Framework/Core/include</text>
<text text-anchor="middle" x="511" y="-96.5" font-family="Helvetica,sans-Serif" font-size="10.00">/Framework/FrameworkGUIDevicesGraph.h</text>
</a>
</g>
</g>
<!-- Node1&#45;&gt;Node6 -->
<g id="edge5" class="edge"><title>Node1&#45;&gt;Node6</title>
<path fill="none" stroke="midnightblue" d="M817.56,-184.122C762.1,-172.075 689.391,-156.223 625,-142 621.93,-141.322 618.815,-140.633 615.67,-139.936"/>
<polygon fill="midnightblue" stroke="midnightblue" points="816.843,-187.548 827.358,-186.25 818.329,-180.707 816.843,-187.548"/>
</g>
<!-- Node8 -->
<g id="node8" class="node"><title>Node8</title>
<g id="a_node8"><a xlink:href="../../d9/d09/DeviceMetricsInfo_8cxx.html" target="_top" xlink:title="/home/travis/build\l/AliceO2Group/AliceO2\l/Framework/Core/src/DeviceMetrics\lInfo.cxx">
<polygon fill="none" stroke="black" points="633.5,-89.5 633.5,-141.5 808.5,-141.5 808.5,-89.5 633.5,-89.5"/>
<text text-anchor="start" x="641.5" y="-129.5" font-family="Helvetica,sans-Serif" font-size="10.00">/home/travis/build</text>
<text text-anchor="start" x="641.5" y="-118.5" font-family="Helvetica,sans-Serif" font-size="10.00">/AliceO2Group/AliceO2</text>
<text text-anchor="start" x="641.5" y="-107.5" font-family="Helvetica,sans-Serif" font-size="10.00">/Framework/Core/src/DeviceMetrics</text>
<text text-anchor="middle" x="721" y="-96.5" font-family="Helvetica,sans-Serif" font-size="10.00">Info.cxx</text>
</a>
</g>
</g>
<!-- Node1&#45;&gt;Node8 -->
<g id="edge8" class="edge"><title>Node1&#45;&gt;Node8</title>
<path fill="none" stroke="midnightblue" d="M844.054,-174.058C821.523,-163.519 796.354,-151.746 774.678,-141.607"/>
<polygon fill="midnightblue" stroke="midnightblue" points="842.66,-177.269 853.201,-178.336 845.626,-170.929 842.66,-177.269"/>
</g>
<!-- Node9 -->
<g id="node9" class="node"><title>Node9</title>
<g id="a_node9"><a xlink:href="../../d8/d1c/FrameworkGUIDataRelayerUsage_8cxx.html" target="_top" xlink:title="/home/travis/build\l/AliceO2Group/AliceO2\l/Framework/Core/src/Framework\lGUIDataRelayerUsage.cxx">
<polygon fill="none" stroke="black" points="826.5,-89.5 826.5,-141.5 987.5,-141.5 987.5,-89.5 826.5,-89.5"/>
<text text-anchor="start" x="834.5" y="-129.5" font-family="Helvetica,sans-Serif" font-size="10.00">/home/travis/build</text>
<text text-anchor="start" x="834.5" y="-118.5" font-family="Helvetica,sans-Serif" font-size="10.00">/AliceO2Group/AliceO2</text>
<text text-anchor="start" x="834.5" y="-107.5" font-family="Helvetica,sans-Serif" font-size="10.00">/Framework/Core/src/Framework</text>
<text text-anchor="middle" x="907" y="-96.5" font-family="Helvetica,sans-Serif" font-size="10.00">GUIDataRelayerUsage.cxx</text>
</a>
</g>
</g>
<!-- Node1&#45;&gt;Node9 -->
<g id="edge9" class="edge"><title>Node1&#45;&gt;Node9</title>
<path fill="none" stroke="midnightblue" d="M907,-168.191C907,-159.282 907,-149.899 907,-141.607"/>
<polygon fill="midnightblue" stroke="midnightblue" points="903.5,-168.336 907,-178.336 910.5,-168.336 903.5,-168.336"/>
</g>
<!-- Node10 -->
<g id="node10" class="node"><title>Node10</title>
<g id="a_node10"><a xlink:href="../../d4/d72/FrameworkGUIDeviceInspector_8cxx.html" target="_top" xlink:title="/home/travis/build\l/AliceO2Group/AliceO2\l/Framework/Core/src/Framework\lGUIDeviceInspector.cxx">
<polygon fill="none" stroke="black" points="1005.5,-89.5 1005.5,-141.5 1166.5,-141.5 1166.5,-89.5 1005.5,-89.5"/>
<text text-anchor="start" x="1013.5" y="-129.5" font-family="Helvetica,sans-Serif" font-size="10.00">/home/travis/build</text>
<text text-anchor="start" x="1013.5" y="-118.5" font-family="Helvetica,sans-Serif" font-size="10.00">/AliceO2Group/AliceO2</text>
<text text-anchor="start" x="1013.5" y="-107.5" font-family="Helvetica,sans-Serif" font-size="10.00">/Framework/Core/src/Framework</text>
<text text-anchor="middle" x="1086" y="-96.5" font-family="Helvetica,sans-Serif" font-size="10.00">GUIDeviceInspector.cxx</text>
</a>
</g>
</g>
<!-- Node1&#45;&gt;Node10 -->
<g id="edge10" class="edge"><title>Node1&#45;&gt;Node10</title>
<path fill="none" stroke="midnightblue" d="M967.866,-173.917C989.476,-163.414 1013.57,-151.701 1034.34,-141.607"/>
<polygon fill="midnightblue" stroke="midnightblue" points="966.238,-170.817 958.774,-178.336 969.298,-177.112 966.238,-170.817"/>
</g>
<!-- Node11 -->
<g id="node11" class="node"><title>Node11</title>
<g id="a_node11"><a xlink:href="../../df/d73/Metric2DViewIndex_8cxx.html" target="_top" xlink:title="/home/travis/build\l/AliceO2Group/AliceO2\l/Framework/Core/src/Metric2DView\lIndex.cxx">
<polygon fill="none" stroke="black" points="1184.5,-89.5 1184.5,-141.5 1357.5,-141.5 1357.5,-89.5 1184.5,-89.5"/>
<text text-anchor="start" x="1192.5" y="-129.5" font-family="Helvetica,sans-Serif" font-size="10.00">/home/travis/build</text>
<text text-anchor="start" x="1192.5" y="-118.5" font-family="Helvetica,sans-Serif" font-size="10.00">/AliceO2Group/AliceO2</text>
<text text-anchor="start" x="1192.5" y="-107.5" font-family="Helvetica,sans-Serif" font-size="10.00">/Framework/Core/src/Metric2DView</text>
<text text-anchor="middle" x="1271" y="-96.5" font-family="Helvetica,sans-Serif" font-size="10.00">Index.cxx</text>
</a>
</g>
</g>
<!-- Node1&#45;&gt;Node11 -->
<g id="edge11" class="edge"><title>Node1&#45;&gt;Node11</title>
<path fill="none" stroke="midnightblue" d="M996.578,-183.903C1048.99,-172.216 1116.38,-156.812 1176,-142 1178.73,-141.321 1181.51,-140.623 1184.31,-139.912"/>
<polygon fill="midnightblue" stroke="midnightblue" points="995.638,-180.526 986.637,-186.115 997.158,-187.359 995.638,-180.526"/>
</g>
<!-- Node12 -->
<g id="node12" class="node"><title>Node12</title>
<g id="a_node12"><a xlink:href="../../d3/da8/benchmark__DeviceMetricsInfo_8cxx.html" target="_top" xlink:title="/home/travis/build\l/AliceO2Group/AliceO2\l/Framework/Core/test/benchmark\l_DeviceMetricsInfo.cxx">
<polygon fill="none" stroke="black" points="1375.5,-89.5 1375.5,-141.5 1538.5,-141.5 1538.5,-89.5 1375.5,-89.5"/>
<text text-anchor="start" x="1383.5" y="-129.5" font-family="Helvetica,sans-Serif" font-size="10.00">/home/travis/build</text>
<text text-anchor="start" x="1383.5" y="-118.5" font-family="Helvetica,sans-Serif" font-size="10.00">/AliceO2Group/AliceO2</text>
<text text-anchor="start" x="1383.5" y="-107.5" font-family="Helvetica,sans-Serif" font-size="10.00">/Framework/Core/test/benchmark</text>
<text text-anchor="middle" x="1457" y="-96.5" font-family="Helvetica,sans-Serif" font-size="10.00">_DeviceMetricsInfo.cxx</text>
</a>
</g>
</g>
<!-- Node1&#45;&gt;Node12 -->
<g id="edge13" class="edge"><title>Node1&#45;&gt;Node12</title>
<path fill="none" stroke="midnightblue" d="M996.491,-195.368C1089.66,-186.01 1239.5,-168.444 1367,-142 1369.7,-141.439 1372.44,-140.841 1375.21,-140.212"/>
<polygon fill="midnightblue" stroke="midnightblue" points="996.141,-191.886 986.536,-196.358 996.834,-198.851 996.141,-191.886"/>
</g>
<!-- Node13 -->
<g id="node13" class="node"><title>Node13</title>
<g id="a_node13"><a xlink:href="../../d8/da3/test__DeviceMetricsInfo_8cxx.html" target="_top" xlink:title="/home/travis/build\l/AliceO2Group/AliceO2\l/Framework/Core/test/test\l_DeviceMetricsInfo.cxx">
<polygon fill="none" stroke="black" points="1556.5,-89.5 1556.5,-141.5 1687.5,-141.5 1687.5,-89.5 1556.5,-89.5"/>
<text text-anchor="start" x="1564.5" y="-129.5" font-family="Helvetica,sans-Serif" font-size="10.00">/home/travis/build</text>
<text text-anchor="start" x="1564.5" y="-118.5" font-family="Helvetica,sans-Serif" font-size="10.00">/AliceO2Group/AliceO2</text>
<text text-anchor="start" x="1564.5" y="-107.5" font-family="Helvetica,sans-Serif" font-size="10.00">/Framework/Core/test/test</text>
<text text-anchor="middle" x="1622" y="-96.5" font-family="Helvetica,sans-Serif" font-size="10.00">_DeviceMetricsInfo.cxx</text>
</a>
</g>
</g>
<!-- Node1&#45;&gt;Node13 -->
<g id="edge14" class="edge"><title>Node1&#45;&gt;Node13</title>
<path fill="none" stroke="midnightblue" d="M996.9,-201.547C1121.85,-197.328 1354.47,-184.01 1548,-142 1550.79,-141.395 1553.62,-140.717 1556.46,-139.983"/>
<polygon fill="midnightblue" stroke="midnightblue" points="996.502,-198.058 986.621,-201.882 996.73,-205.054 996.502,-198.058"/>
</g>
<!-- Node3 -->
<g id="node3" class="node"><title>Node3</title>
<g id="a_node3"><a xlink:href="../../de/ddc/FrameworkDummyDebugger_8cxx.html" target="_top" xlink:title="/home/travis/build\l/AliceO2Group/AliceO2\l/Framework/Core/src/Framework\lDummyDebugger.cxx">
<polygon fill="none" stroke="black" points="232.5,-0.5 232.5,-52.5 393.5,-52.5 393.5,-0.5 232.5,-0.5"/>
<text text-anchor="start" x="240.5" y="-40.5" font-family="Helvetica,sans-Serif" font-size="10.00">/home/travis/build</text>
<text text-anchor="start" x="240.5" y="-29.5" font-family="Helvetica,sans-Serif" font-size="10.00">/AliceO2Group/AliceO2</text>
<text text-anchor="start" x="240.5" y="-18.5" font-family="Helvetica,sans-Serif" font-size="10.00">/Framework/Core/src/Framework</text>
<text text-anchor="middle" x="313" y="-7.5" font-family="Helvetica,sans-Serif" font-size="10.00">DummyDebugger.cxx</text>
</a>
</g>
</g>
<!-- Node2&#45;&gt;Node3 -->
<g id="edge2" class="edge"><title>Node2&#45;&gt;Node3</title>
<path fill="none" stroke="midnightblue" d="M301.648,-79.4811C303.612,-70.4865 305.686,-60.9887 307.517,-52.6075"/>
<polygon fill="midnightblue" stroke="midnightblue" points="298.21,-78.8195 299.496,-89.336 305.049,-80.3131 298.21,-78.8195"/>
</g>
<!-- Node4 -->
<g id="node4" class="node"><title>Node4</title>
<g id="a_node4"><a xlink:href="../../d3/d29/FrameworkGUIDebugger_8cxx.html" target="_top" xlink:title="/home/travis/build\l/AliceO2Group/AliceO2\l/Framework/Core/src/Framework\lGUIDebugger.cxx">
<polygon fill="none" stroke="black" points="411.5,-0.5 411.5,-52.5 572.5,-52.5 572.5,-0.5 411.5,-0.5"/>
<text text-anchor="start" x="419.5" y="-40.5" font-family="Helvetica,sans-Serif" font-size="10.00">/home/travis/build</text>
<text text-anchor="start" x="419.5" y="-29.5" font-family="Helvetica,sans-Serif" font-size="10.00">/AliceO2Group/AliceO2</text>
<text text-anchor="start" x="419.5" y="-18.5" font-family="Helvetica,sans-Serif" font-size="10.00">/Framework/Core/src/Framework</text>
<text text-anchor="middle" x="492" y="-7.5" font-family="Helvetica,sans-Serif" font-size="10.00">GUIDebugger.cxx</text>
</a>
</g>
</g>
<!-- Node2&#45;&gt;Node4 -->
<g id="edge3" class="edge"><title>Node2&#45;&gt;Node4</title>
<path fill="none" stroke="midnightblue" d="M360.468,-85.2945C384.658,-74.6654 411.764,-62.7552 435.055,-52.5211"/>
<polygon fill="midnightblue" stroke="midnightblue" points="358.751,-82.2256 351.004,-89.4527 361.567,-88.6342 358.751,-82.2256"/>
</g>
<!-- Node2&#45;&gt;Node5 -->
<g id="edge4" class="edge"><title>Node2&#45;&gt;Node5</title>
<path fill="none" stroke="midnightblue" d="M230.823,-85.1075C203.927,-72.5946 173.278,-58.3353 149.201,-47.1338"/>
<polygon fill="midnightblue" stroke="midnightblue" points="229.62,-88.4078 240.163,-89.4527 232.572,-82.061 229.62,-88.4078"/>
</g>
<!-- Node6&#45;&gt;Node4 -->
<g id="edge6" class="edge"><title>Node6&#45;&gt;Node4</title>
<path fill="none" stroke="midnightblue" d="M503.352,-79.4811C501.388,-70.4865 499.314,-60.9887 497.483,-52.6075"/>
<polygon fill="midnightblue" stroke="midnightblue" points="499.951,-80.3131 505.504,-89.336 506.79,-78.8195 499.951,-80.3131"/>
</g>
<!-- Node7 -->
<g id="node7" class="node"><title>Node7</title>
<g id="a_node7"><a xlink:href="../../d7/d5a/FrameworkGUIDevicesGraph_8cxx.html" target="_top" xlink:title="/home/travis/build\l/AliceO2Group/AliceO2\l/Framework/Core/src/Framework\lGUIDevicesGraph.cxx">
<polygon fill="none" stroke="black" points="590.5,-0.5 590.5,-52.5 751.5,-52.5 751.5,-0.5 590.5,-0.5"/>
<text text-anchor="start" x="598.5" y="-40.5" font-family="Helvetica,sans-Serif" font-size="10.00">/home/travis/build</text>
<text text-anchor="start" x="598.5" y="-29.5" font-family="Helvetica,sans-Serif" font-size="10.00">/AliceO2Group/AliceO2</text>
<text text-anchor="start" x="598.5" y="-18.5" font-family="Helvetica,sans-Serif" font-size="10.00">/Framework/Core/src/Framework</text>
<text text-anchor="middle" x="671" y="-7.5" font-family="Helvetica,sans-Serif" font-size="10.00">GUIDevicesGraph.cxx</text>
</a>
</g>
</g>
<!-- Node6&#45;&gt;Node7 -->
<g id="edge7" class="edge"><title>Node6&#45;&gt;Node7</title>
<path fill="none" stroke="midnightblue" d="M566.183,-84.4944C585.298,-74.1005 606.511,-62.5658 624.825,-52.6075"/>
<polygon fill="midnightblue" stroke="midnightblue" points="564.392,-81.4841 557.279,-89.336 567.736,-87.6338 564.392,-81.4841"/>
</g>
</g>
</svg>
