<?xml version="1.0" encoding="UTF-8" standalone="no"?>
<!DOCTYPE svg PUBLIC "-//W3C//DTD SVG 1.1//EN"
 "http://www.w3.org/Graphics/SVG/1.1/DTD/svg11.dtd">
<!-- Generated by graphviz version 2.38.0 (20140413.2041)
 -->
<!-- Title: /home/travis/build/AliceO2Group/AliceO2/DataFormats/Detectors/ZDC/include/DataFormatsZDC/RecEvent.h Pages: 1 -->
<!--zoomable 206 -->
<svg id="main" version="1.1" xmlns="http://www.w3.org/2000/svg" xmlns:xlink="http://www.w3.org/1999/xlink" xml:space="preserve" onload="init(evt)">
<style type="text/css"><![CDATA[
.edge:hover path { stroke: red; }
.edge:hover polygon { stroke: red; fill: red; }
]]></style>
<script type="text/javascript"><![CDATA[
var edges = document.getElementsByTagName('g');
if (edges && edges.length) {
  for (var i=0;i<edges.length;i++) {
    if (edges[i].id.substr(0,4)=='edge') {
      edges[i].setAttribute('class','edge');
    }
  }
}
]]></script>
        <defs>
                <circle id="rim" cx="0" cy="0" r="7"/>
                <circle id="rim2" cx="0" cy="0" r="3.5"/>
                <g id="zoomPlus">
                        <use xlink:href="#rim" fill="#404040">
                                <set attributeName="fill" to="#808080" begin="zoomplus.mouseover" end="zoomplus.mouseout"/>
                        </use>
                        <path d="M-4,0h8M0,-4v8" fill="none" stroke="white" stroke-width="1.5" pointer-events="none"/>
                </g>
                <g id="zoomMin">
                        <use xlink:href="#rim" fill="#404040">
                                <set attributeName="fill" to="#808080" begin="zoomminus.mouseover" end="zoomminus.mouseout"/>
                        </use>
                        <path d="M-4,0h8" fill="none" stroke="white" stroke-width="1.5" pointer-events="none"/>
                </g>
                <g id="dirArrow">
                        <path fill="none" stroke="white" stroke-width="1.5" d="M0,-3.0v7 M-2.5,-0.5L0,-3.0L2.5,-0.5"/>
                </g>
               <g id="resetDef">
                       <use xlink:href="#rim2" fill="#404040">
                               <set attributeName="fill" to="#808080" begin="reset.mouseover" end="reset.mouseout"/>
                       </use>
               </g>
        </defs>

<script type="text/javascript">
var viewWidth = 1250;
var viewHeight = 206;
var sectionId = 'dynsection-0';
</script>
<script xlink:href="../../svgpan.js"/>
<svg id="graph" class="graph">
<g id="viewport">
<title>/home/travis/build/AliceO2Group/AliceO2/DataFormats/Detectors/ZDC/include/DataFormatsZDC/RecEvent.h</title>
<!-- Node1 -->
<g id="node1" class="node"><title>Node1</title>
<polygon fill="#bfbfbf" stroke="black" points="627.5,-134.5 627.5,-197.5 782.5,-197.5 782.5,-134.5 627.5,-134.5"/>
<text text-anchor="start" x="635.5" y="-185.5" font-family="Helvetica,sans-Serif" font-size="10.00">/home/travis/build</text>
<text text-anchor="start" x="635.5" y="-174.5" font-family="Helvetica,sans-Serif" font-size="10.00">/AliceO2Group/AliceO2</text>
<text text-anchor="start" x="635.5" y="-163.5" font-family="Helvetica,sans-Serif" font-size="10.00">/DataFormats/Detectors</text>
<text text-anchor="start" x="635.5" y="-152.5" font-family="Helvetica,sans-Serif" font-size="10.00">/ZDC/include/DataFormatsZDC</text>
<text text-anchor="middle" x="705" y="-141.5" font-family="Helvetica,sans-Serif" font-size="10.00">/RecEvent.h</text>
</g>
<!-- Node2 -->
<g id="node2" class="node"><title>Node2</title>
<g id="a_node2"><a xlink:href="../../d9/d80/InteractionRecord_8h.html" target="_top" xlink:title="CommonDataFormat/Interaction\lRecord.h">
<polygon fill="none" stroke="black" points="172.5,-67.5 172.5,-97.5 329.5,-97.5 329.5,-67.5 172.5,-67.5"/>
<text text-anchor="start" x="180.5" y="-85.5" font-family="Helvetica,sans-Serif" font-size="10.00">CommonDataFormat/Interaction</text>
<text text-anchor="middle" x="251" y="-74.5" font-family="Helvetica,sans-Serif" font-size="10.00">Record.h</text>
</a>
</g>
</g>
<!-- Node1&#45;&gt;Node2 -->
<g id="edge1" class="edge"><title>Node1&#45;&gt;Node2</title>
<path fill="none" stroke="midnightblue" d="M627.47,-151.082C547.525,-136.731 423.055,-114.386 339.351,-99.3603"/>
<polygon fill="midnightblue" stroke="midnightblue" points="339.812,-95.8872 329.351,-97.5652 338.575,-102.777 339.812,-95.8872"/>
</g>
<!-- Node3 -->
<g id="node3" class="node"><title>Node3</title>
<polygon fill="none" stroke="#bfbfbf" points="0,-6 0,-25 56,-25 56,-6 0,-6"/>
<text text-anchor="middle" x="28" y="-13" font-family="Helvetica,sans-Serif" font-size="10.00">Rtypes.h</text>
</g>
<!-- Node1&#45;&gt;Node3 -->
<g id="edge16" class="edge"><title>Node1&#45;&gt;Node3</title>
<path fill="none" stroke="midnightblue" d="M627.321,-165.472C519.983,-163.892 321.597,-152.867 163,-98 118.066,-82.455 71.9675,-50.4925 46.9645,-31.5424"/>
<polygon fill="midnightblue" stroke="midnightblue" points="48.8041,-28.5411 38.7485,-25.2039 44.5283,-34.0834 48.8041,-28.5411"/>
</g>
<!-- Node8 -->
<g id="node8" class="node"><title>Node8</title>
<g id="a_node8"><a xlink:href="../../d2/dd0/Cartesian2D_8h.html" target="_top" xlink:title="MathUtils/Cartesian2D.h">
<polygon fill="none" stroke="black" points="845.5,-73 845.5,-92 970.5,-92 970.5,-73 845.5,-73"/>
<text text-anchor="middle" x="908" y="-80" font-family="Helvetica,sans-Serif" font-size="10.00">MathUtils/Cartesian2D.h</text>
</a>
</g>
</g>
<!-- Node1&#45;&gt;Node8 -->
<g id="edge7" class="edge"><title>Node1&#45;&gt;Node8</title>
<path fill="none" stroke="midnightblue" d="M781.167,-134.421C814.539,-121.023 851.813,-106.058 877.268,-95.8384"/>
<polygon fill="midnightblue" stroke="midnightblue" points="878.767,-99.0081 886.743,-92.0343 876.159,-92.5121 878.767,-99.0081"/>
</g>
<!-- Node11 -->
<g id="node11" class="node"><title>Node11</title>
<g id="a_node11"><a xlink:href="../../d3/dd7/Detectors_2ZDC_2base_2include_2ZDCBase_2Constants_8h.html" target="_top" xlink:title="ZDCBase/Constants.h">
<polygon fill="none" stroke="black" points="647,-73 647,-92 763,-92 763,-73 647,-73"/>
<text text-anchor="middle" x="705" y="-80" font-family="Helvetica,sans-Serif" font-size="10.00">ZDCBase/Constants.h</text>
</a>
</g>
</g>
<!-- Node1&#45;&gt;Node11 -->
<g id="edge10" class="edge"><title>Node1&#45;&gt;Node11</title>
<path fill="none" stroke="midnightblue" d="M705,-134.188C705,-123.549 705,-111.947 705,-102.53"/>
<polygon fill="midnightblue" stroke="midnightblue" points="708.5,-102.341 705,-92.3406 701.5,-102.341 708.5,-102.341"/>
</g>
<!-- Node16 -->
<g id="node16" class="node"><title>Node16</title>
<polygon fill="none" stroke="#bfbfbf" points="989,-73 989,-92 1027,-92 1027,-73 989,-73"/>
<text text-anchor="middle" x="1008" y="-80" font-family="Helvetica,sans-Serif" font-size="10.00">array</text>
</g>
<!-- Node1&#45;&gt;Node16 -->
<g id="edge17" class="edge"><title>Node1&#45;&gt;Node16</title>
<path fill="none" stroke="midnightblue" d="M782.642,-151.24C838.554,-140.098 915.231,-122.261 980,-98 981.24,-97.5355 982.496,-97.0294 983.753,-96.4936"/>
<polygon fill="midnightblue" stroke="midnightblue" points="985.662,-99.4614 993.189,-92.0056 982.655,-93.14 985.662,-99.4614"/>
</g>
<!-- Node2&#45;&gt;Node3 -->
<g id="edge2" class="edge"><title>Node2&#45;&gt;Node3</title>
<path fill="none" stroke="midnightblue" d="M192.709,-67.4035C155.807,-58.0546 107.253,-44.9697 65,-31 62.7339,-30.2508 60.4046,-29.4393 58.0706,-28.596"/>
<polygon fill="midnightblue" stroke="midnightblue" points="59.1908,-25.278 48.5989,-25.0287 56.7236,-31.8287 59.1908,-25.278"/>
</g>
<!-- Node4 -->
<g id="node4" class="node"><title>Node4</title>
<polygon fill="none" stroke="#bfbfbf" points="74.5,-6 74.5,-25 119.5,-25 119.5,-6 74.5,-6"/>
<text text-anchor="middle" x="97" y="-13" font-family="Helvetica,sans-Serif" font-size="10.00">iosfwd</text>
</g>
<!-- Node2&#45;&gt;Node4 -->
<g id="edge3" class="edge"><title>Node2&#45;&gt;Node4</title>
<path fill="none" stroke="midnightblue" d="M216.164,-67.4367C191.691,-57.4698 158.236,-43.6706 129,-31 127.636,-30.4088 126.241,-29.7987 124.835,-29.1788"/>
<polygon fill="midnightblue" stroke="midnightblue" points="126.125,-25.9218 115.567,-25.0382 123.27,-32.3129 126.125,-25.9218"/>
</g>
<!-- Node5 -->
<g id="node5" class="node"><title>Node5</title>
<polygon fill="none" stroke="#bfbfbf" points="138,-6 138,-25 182,-25 182,-6 138,-6"/>
<text text-anchor="middle" x="160" y="-13" font-family="Helvetica,sans-Serif" font-size="10.00">cmath</text>
</g>
<!-- Node2&#45;&gt;Node5 -->
<g id="edge4" class="edge"><title>Node2&#45;&gt;Node5</title>
<path fill="none" stroke="midnightblue" d="M231.254,-67.396C216.135,-56.5966 195.359,-41.7564 180.142,-30.8872"/>
<polygon fill="midnightblue" stroke="midnightblue" points="182.082,-27.9714 171.91,-25.007 178.013,-33.6675 182.082,-27.9714"/>
</g>
<!-- Node6 -->
<g id="node6" class="node"><title>Node6</title>
<polygon fill="none" stroke="#bfbfbf" points="396,-6 396,-25 442,-25 442,-6 396,-6"/>
<text text-anchor="middle" x="419" y="-13" font-family="Helvetica,sans-Serif" font-size="10.00">cstdint</text>
</g>
<!-- Node2&#45;&gt;Node6 -->
<g id="edge5" class="edge"><title>Node2&#45;&gt;Node6</title>
<path fill="none" stroke="midnightblue" d="M291.156,-67.4229C318.386,-57.6736 355.092,-44.1344 387,-31 388.41,-30.4196 389.85,-29.8142 391.3,-29.1944"/>
<polygon fill="midnightblue" stroke="midnightblue" points="393.078,-32.236 400.82,-25.0033 390.257,-25.8294 393.078,-32.236"/>
</g>
<!-- Node7 -->
<g id="node7" class="node"><title>Node7</title>
<g id="a_node7"><a xlink:href="../../d4/dc6/LHCConstants_8h.html" target="_top" xlink:title="Header to collect LHC related constants. ">
<polygon fill="none" stroke="black" points="200,-6 200,-25 378,-25 378,-6 200,-6"/>
<text text-anchor="middle" x="289" y="-13" font-family="Helvetica,sans-Serif" font-size="10.00">CommonConstants/LHCConstants.h</text>
</a>
</g>
</g>
<!-- Node2&#45;&gt;Node7 -->
<g id="edge6" class="edge"><title>Node2&#45;&gt;Node7</title>
<path fill="none" stroke="midnightblue" d="M259.245,-67.396C264.994,-57.5621 272.702,-44.3777 278.832,-33.892"/>
<polygon fill="midnightblue" stroke="midnightblue" points="281.892,-35.594 283.917,-25.1945 275.848,-32.0611 281.892,-35.594"/>
</g>
<!-- Node9 -->
<g id="node9" class="node"><title>Node9</title>
<polygon fill="none" stroke="#bfbfbf" points="896.5,-0.5 896.5,-30.5 1047.5,-30.5 1047.5,-0.5 896.5,-0.5"/>
<text text-anchor="start" x="904.5" y="-18.5" font-family="Helvetica,sans-Serif" font-size="10.00">Math/GenVector/Displacement</text>
<text text-anchor="middle" x="972" y="-7.5" font-family="Helvetica,sans-Serif" font-size="10.00">Vector2D.h</text>
</g>
<!-- Node8&#45;&gt;Node9 -->
<g id="edge8" class="edge"><title>Node8&#45;&gt;Node9</title>
<path fill="none" stroke="midnightblue" d="M916.631,-72.7338C925.364,-63.8649 939.201,-49.8111 950.858,-37.9722"/>
<polygon fill="midnightblue" stroke="midnightblue" points="953.606,-40.1703 958.128,-30.589 948.618,-35.2591 953.606,-40.1703"/>
</g>
<!-- Node10 -->
<g id="node10" class="node"><title>Node10</title>
<polygon fill="none" stroke="#bfbfbf" points="1066,-6 1066,-25 1242,-25 1242,-6 1066,-6"/>
<text text-anchor="middle" x="1154" y="-13" font-family="Helvetica,sans-Serif" font-size="10.00">Math/GenVector/PositionVector2D.h</text>
</g>
<!-- Node8&#45;&gt;Node10 -->
<g id="edge9" class="edge"><title>Node8&#45;&gt;Node10</title>
<path fill="none" stroke="midnightblue" d="M940.413,-72.9355C984.384,-61.3171 1063.01,-40.5409 1111.62,-27.6975"/>
<polygon fill="midnightblue" stroke="midnightblue" points="1112.74,-31.022 1121.52,-25.0834 1110.95,-24.2542 1112.74,-31.022"/>
</g>
<!-- Node11&#45;&gt;Node6 -->
<g id="edge12" class="edge"><title>Node11&#45;&gt;Node6</title>
<path fill="none" stroke="midnightblue" d="M646.795,-73.8099C594.683,-66.015 516.599,-52.0751 451,-31 449.127,-30.3983 447.219,-29.7182 445.313,-28.9888"/>
<polygon fill="midnightblue" stroke="midnightblue" points="446.561,-25.7168 435.986,-25.0678 443.848,-32.1697 446.561,-25.7168"/>
</g>
<!-- Node12 -->
<g id="node12" class="node"><title>Node12</title>
<g id="a_node12"><a xlink:href="../../d3/d9d/PhysicsConstants_8h.html" target="_top" xlink:title="Header to collect physics constants. ">
<polygon fill="none" stroke="black" points="460.5,-6 460.5,-25 653.5,-25 653.5,-6 460.5,-6"/>
<text text-anchor="middle" x="557" y="-13" font-family="Helvetica,sans-Serif" font-size="10.00">CommonConstants/PhysicsConstants.h</text>
</a>
</g>
</g>
<!-- Node11&#45;&gt;Node12 -->
<g id="edge11" class="edge"><title>Node11&#45;&gt;Node12</title>
<path fill="none" stroke="midnightblue" d="M685.347,-72.8685C659.915,-61.699 615.396,-42.1468 586.054,-29.2602"/>
<polygon fill="midnightblue" stroke="midnightblue" points="587.298,-25.9839 576.735,-25.1672 584.483,-32.393 587.298,-25.9839"/>
</g>
<!-- Node13 -->
<g id="node13" class="node"><title>Node13</title>
<polygon fill="none" stroke="#bfbfbf" points="672,-6 672,-25 738,-25 738,-6 672,-6"/>
<text text-anchor="middle" x="705" y="-13" font-family="Helvetica,sans-Serif" font-size="10.00">string_view</text>
</g>
<!-- Node11&#45;&gt;Node13 -->
<g id="edge13" class="edge"><title>Node11&#45;&gt;Node13</title>
<path fill="none" stroke="midnightblue" d="M705,-72.7338C705,-63.1826 705,-47.6183 705,-35.2829"/>
<polygon fill="midnightblue" stroke="midnightblue" points="708.5,-35.1273 705,-25.1273 701.5,-35.1273 708.5,-35.1273"/>
</g>
<!-- Node14 -->
<g id="node14" class="node"><title>Node14</title>
<polygon fill="none" stroke="#bfbfbf" points="756.5,-6 756.5,-25 797.5,-25 797.5,-6 756.5,-6"/>
<text text-anchor="middle" x="777" y="-13" font-family="Helvetica,sans-Serif" font-size="10.00">string</text>
</g>
<!-- Node11&#45;&gt;Node14 -->
<g id="edge14" class="edge"><title>Node11&#45;&gt;Node14</title>
<path fill="none" stroke="midnightblue" d="M714.71,-72.7338C726.262,-62.3055 745.753,-44.7088 759.86,-31.9732"/>
<polygon fill="midnightblue" stroke="midnightblue" points="762.366,-34.4263 767.444,-25.1273 757.676,-29.2304 762.366,-34.4263"/>
</g>
<!-- Node15 -->
<g id="node15" class="node"><title>Node15</title>
<polygon fill="none" stroke="#bfbfbf" points="816,-6 816,-25 878,-25 878,-6 816,-6"/>
<text text-anchor="middle" x="847" y="-13" font-family="Helvetica,sans-Serif" font-size="10.00">type_traits</text>
</g>
<!-- Node11&#45;&gt;Node15 -->
<g id="edge15" class="edge"><title>Node11&#45;&gt;Node15</title>
<path fill="none" stroke="midnightblue" d="M723.857,-72.8685C748.151,-61.7476 790.601,-42.3167 818.756,-29.4286"/>
<polygon fill="midnightblue" stroke="midnightblue" points="820.43,-32.5118 828.066,-25.1672 817.516,-26.147 820.43,-32.5118"/>
</g>
</g>
</svg>
        <g id="navigator" transform="translate(0 0)" fill="#404254">
                <rect fill="#f2f5e9" fill-opacity="0.5" stroke="#606060" stroke-width=".5" x="0" y="0" width="60" height="60"/>
                <use id="zoomplus" xlink:href="#zoomPlus" x="17" y="9" onmousedown="handleZoom(evt,'in')"/>
                <use id="zoomminus" xlink:href="#zoomMin" x="42" y="9" onmousedown="handleZoom(evt,'out')"/>
                <use id="reset" xlink:href="#resetDef" x="30" y="36" onmousedown="handleReset()"/>
                <g id="arrowUp" xlink:href="#dirArrow" transform="translate(30 24)" onmousedown="handlePan(0,-1)">
                  <use xlink:href="#rim" fill="#404040">
                        <set attributeName="fill" to="#808080" begin="arrowUp.mouseover" end="arrowUp.mouseout"/>
                  </use>
                  <path fill="none" stroke="white" stroke-width="1.5" d="M0,-3.0v7 M-2.5,-0.5L0,-3.0L2.5,-0.5"/>
                </g>
                <g id="arrowRight" xlink:href="#dirArrow" transform="rotate(90) translate(36 -43)" onmousedown="handlePan(1,0)">
                  <use xlink:href="#rim" fill="#404040">
                        <set attributeName="fill" to="#808080" begin="arrowRight.mouseover" end="arrowRight.mouseout"/>
                  </use>
                  <path fill="none" stroke="white" stroke-width="1.5" d="M0,-3.0v7 M-2.5,-0.5L0,-3.0L2.5,-0.5"/>
                </g>
                <g id="arrowDown" xlink:href="#dirArrow" transform="rotate(180) translate(-30 -48)" onmousedown="handlePan(0,1)">
                  <use xlink:href="#rim" fill="#404040">
                        <set attributeName="fill" to="#808080" begin="arrowDown.mouseover" end="arrowDown.mouseout"/>
                  </use>
                  <path fill="none" stroke="white" stroke-width="1.5" d="M0,-3.0v7 M-2.5,-0.5L0,-3.0L2.5,-0.5"/>
                </g>
                <g id="arrowLeft" xlink:href="#dirArrow" transform="rotate(270) translate(-36 17)" onmousedown="handlePan(-1,0)">
                  <use xlink:href="#rim" fill="#404040">
                        <set attributeName="fill" to="#808080" begin="arrowLeft.mouseover" end="arrowLeft.mouseout"/>
                  </use>
                  <path fill="none" stroke="white" stroke-width="1.5" d="M0,-3.0v7 M-2.5,-0.5L0,-3.0L2.5,-0.5"/>
                </g>
        </g>
        <svg viewBox="0 0 15 15" width="100%" height="30px" preserveAspectRatio="xMaxYMin meet">
         <g id="arrow_out" transform="scale(0.3 0.3)">
          <a xlink:href="RecEvent_8h__incl_org.svg" target="_base">
           <rect id="button" ry="5" rx="5" y="6" x="6" height="38" width="38"
                fill="#f2f5e9" fill-opacity="0.5" stroke="#606060" stroke-width="1.0"/>
           <path id="arrow"
             d="M 11.500037,31.436501 C 11.940474,20.09759 22.043105,11.32322 32.158766,21.979434 L 37.068811,17.246167 C 37.068811,17.246167 37.088388,32 37.088388,32 L 22.160133,31.978069 C 22.160133,31.978069 26.997745,27.140456 26.997745,27.140456 C 18.528582,18.264221 13.291696,25.230495 11.500037,31.436501 z"
             style="fill:#404040;"/>
          </a>
         </g>
        </svg>
</svg>
