<?xml version="1.0" encoding="UTF-8" standalone="no"?>
<!DOCTYPE svg PUBLIC "-//W3C//DTD SVG 1.1//EN"
 "http://www.w3.org/Graphics/SVG/1.1/DTD/svg11.dtd">
<!-- Generated by graphviz version 2.38.0 (20140413.2041)
 -->
<!-- Title: o2::framework::data_matcher::ContextElement Pages: 1 -->
<svg width="175pt" height="204pt"
 viewBox="0.00 0.00 174.50 204.00" xmlns="http://www.w3.org/2000/svg" xmlns:xlink="http://www.w3.org/1999/xlink">
<g id="graph0" class="graph" transform="scale(1 1) rotate(0) translate(4 200)">
<title>o2::framework::data_matcher::ContextElement</title>
<!-- Node1 -->
<g id="node1" class="node"><title>Node1</title>
<polygon fill="#bfbfbf" stroke="black" points="32.5,-0.5 32.5,-68.5 166.5,-68.5 166.5,-0.5 32.5,-0.5"/>
<text text-anchor="start" x="40.5" y="-56.5" font-family="Helvetica,sans-Serif" font-size="10.00">o2::framework::data</text>
<text text-anchor="middle" x="99.5" y="-45.5" font-family="Helvetica,sans-Serif" font-size="10.00">_matcher::ContextElement</text>
<polyline fill="none" stroke="black" points="32.5,-38.5 166.5,-38.5 "/>
<text text-anchor="middle" x="99.5" y="-26.5" font-family="Helvetica,sans-Serif" font-size="10.00"> </text>
<polyline fill="none" stroke="black" points="32.5,-19.5 166.5,-19.5 "/>
<text text-anchor="middle" x="99.5" y="-7.5" font-family="Helvetica,sans-Serif" font-size="10.00"> </text>
</g>
<!-- Node2 -->
<g id="node2" class="node"><title>Node2</title>
<polygon fill="none" stroke="#bfbfbf" points="0,-116.5 0,-195.5 107,-195.5 107,-116.5 0,-116.5"/>
<text text-anchor="start" x="8" y="-183.5" font-family="Helvetica,sans-Serif" font-size="10.00">variant&lt; uint32_t,</text>
<text text-anchor="start" x="8" y="-172.5" font-family="Helvetica,sans-Serif" font-size="10.00"> uint64_t, std::string,</text>
<text text-anchor="middle" x="53.5" y="-161.5" font-family="Helvetica,sans-Serif" font-size="10.00"> None &gt;</text>
<polyline fill="none" stroke="#bfbfbf" points="0,-154.5 107,-154.5 "/>
<text text-anchor="middle" x="53.5" y="-142.5" font-family="Helvetica,sans-Serif" font-size="10.00"> </text>
<polyline fill="none" stroke="#bfbfbf" points="0,-135.5 107,-135.5 "/>
<text text-anchor="middle" x="53.5" y="-123.5" font-family="Helvetica,sans-Serif" font-size="10.00"> </text>
</g>
<!-- Node2&#45;&gt;Node1 -->
<g id="edge1" class="edge"><title>Node2&#45;&gt;Node1</title>
<path fill="none" stroke="#404040" d="M68.4349,-116.202C72.8422,-104.752 77.7018,-92.1279 82.2425,-80.3321"/>
<polygon fill="none" stroke="#404040" points="82.3373,-80.0856 80.7598,-73.0492 86.6482,-68.8867 88.2257,-75.9232 82.3373,-80.0856"/>
<text text-anchor="middle" x="96" y="-90" font-family="Helvetica,sans-Serif" font-size="10.00"> +value</text>
</g>
<!-- Node3 -->
<g id="node3" class="node"><title>Node3</title>
<polygon fill="none" stroke="#bfbfbf" points="125,-127.5 125,-184.5 166,-184.5 166,-127.5 125,-127.5"/>
<text text-anchor="middle" x="145.5" y="-172.5" font-family="Helvetica,sans-Serif" font-size="10.00">string</text>
<polyline fill="none" stroke="#bfbfbf" points="125,-165.5 166,-165.5 "/>
<text text-anchor="middle" x="145.5" y="-153.5" font-family="Helvetica,sans-Serif" font-size="10.00"> </text>
<polyline fill="none" stroke="#bfbfbf" points="125,-146.5 166,-146.5 "/>
<text text-anchor="middle" x="145.5" y="-134.5" font-family="Helvetica,sans-Serif" font-size="10.00"> </text>
</g>
<!-- Node3&#45;&gt;Node1 -->
<g id="edge2" class="edge"><title>Node3&#45;&gt;Node1</title>
<path fill="none" stroke="#404040" d="M134.831,-127.284C129.406,-113.192 122.682,-95.7238 116.561,-79.8213"/>
<polygon fill="none" stroke="#404040" points="116.548,-79.788 110.66,-75.6255 112.237,-68.5891 118.126,-72.7516 116.548,-79.788"/>
<text text-anchor="middle" x="137.5" y="-90" font-family="Helvetica,sans-Serif" font-size="10.00"> +label</text>
</g>
</g>
</svg>
