<?xml version="1.0" encoding="UTF-8" standalone="no"?>
<!DOCTYPE svg PUBLIC "-//W3C//DTD SVG 1.1//EN"
 "http://www.w3.org/Graphics/SVG/1.1/DTD/svg11.dtd">
<!-- Generated by graphviz version 2.38.0 (20140413.2041)
 -->
<!-- Title: /home/travis/build/AliceO2Group/AliceO2/GPU/GPUTracking/TPCClusterFinder/ClusterAccumulator.h Pages: 1 -->
<svg width="599pt" height="150pt"
 viewBox="0.00 0.00 599.00 150.00" xmlns="http://www.w3.org/2000/svg" xmlns:xlink="http://www.w3.org/1999/xlink">
<g id="graph0" class="graph" transform="scale(1 1) rotate(0) translate(4 146)">
<title>/home/travis/build/AliceO2Group/AliceO2/GPU/GPUTracking/TPCClusterFinder/ClusterAccumulator.h</title>
<!-- Node1 -->
<g id="node1" class="node"><title>Node1</title>
<polygon fill="#bfbfbf" stroke="black" points="203,-89.5 203,-141.5 388,-141.5 388,-89.5 203,-89.5"/>
<text text-anchor="start" x="211" y="-129.5" font-family="Helvetica,sans-Serif" font-size="10.00">/home/travis/build</text>
<text text-anchor="start" x="211" y="-118.5" font-family="Helvetica,sans-Serif" font-size="10.00">/AliceO2Group/AliceO2</text>
<text text-anchor="start" x="211" y="-107.5" font-family="Helvetica,sans-Serif" font-size="10.00">/GPU/GPUTracking/TPCClusterFinder</text>
<text text-anchor="middle" x="295.5" y="-96.5" font-family="Helvetica,sans-Serif" font-size="10.00">/ClusterAccumulator.h</text>
</g>
<!-- Node2 -->
<g id="node2" class="node"><title>Node2</title>
<g id="a_node2"><a xlink:href="../../d8/db8/ClusterAccumulator_8cxx.html" target="_top" xlink:title="/home/travis/build\l/AliceO2Group/AliceO2\l/GPU/GPUTracking/TPCClusterFinder\l/ClusterAccumulator.cxx">
<polygon fill="none" stroke="black" points="0,-0.5 0,-52.5 185,-52.5 185,-0.5 0,-0.5"/>
<text text-anchor="start" x="8" y="-40.5" font-family="Helvetica,sans-Serif" font-size="10.00">/home/travis/build</text>
<text text-anchor="start" x="8" y="-29.5" font-family="Helvetica,sans-Serif" font-size="10.00">/AliceO2Group/AliceO2</text>
<text text-anchor="start" x="8" y="-18.5" font-family="Helvetica,sans-Serif" font-size="10.00">/GPU/GPUTracking/TPCClusterFinder</text>
<text text-anchor="middle" x="92.5" y="-7.5" font-family="Helvetica,sans-Serif" font-size="10.00">/ClusterAccumulator.cxx</text>
</a>
</g>
</g>
<!-- Node1&#45;&gt;Node2 -->
<g id="edge1" class="edge"><title>Node1&#45;&gt;Node2</title>
<path fill="none" stroke="midnightblue" d="M227.683,-85.4355C202.799,-74.7708 174.868,-62.8004 150.883,-52.5211"/>
<polygon fill="midnightblue" stroke="midnightblue" points="226.486,-88.7305 237.056,-89.4527 229.244,-82.2965 226.486,-88.7305"/>
</g>
<!-- Node3 -->
<g id="node3" class="node"><title>Node3</title>
<g id="a_node3"><a xlink:href="../../db/ddd/GPU_2GPUTracking_2TPCClusterFinder_2Clusterizer_8cxx.html" target="_top" xlink:title="/home/travis/build\l/AliceO2Group/AliceO2\l/GPU/GPUTracking/TPCClusterFinder\l/Clusterizer.cxx">
<polygon fill="none" stroke="black" points="203,-0.5 203,-52.5 388,-52.5 388,-0.5 203,-0.5"/>
<text text-anchor="start" x="211" y="-40.5" font-family="Helvetica,sans-Serif" font-size="10.00">/home/travis/build</text>
<text text-anchor="start" x="211" y="-29.5" font-family="Helvetica,sans-Serif" font-size="10.00">/AliceO2Group/AliceO2</text>
<text text-anchor="start" x="211" y="-18.5" font-family="Helvetica,sans-Serif" font-size="10.00">/GPU/GPUTracking/TPCClusterFinder</text>
<text text-anchor="middle" x="295.5" y="-7.5" font-family="Helvetica,sans-Serif" font-size="10.00">/Clusterizer.cxx</text>
</a>
</g>
</g>
<!-- Node1&#45;&gt;Node3 -->
<g id="edge2" class="edge"><title>Node1&#45;&gt;Node3</title>
<path fill="none" stroke="midnightblue" d="M295.5,-79.1908C295.5,-70.2824 295.5,-60.8986 295.5,-52.6075"/>
<polygon fill="midnightblue" stroke="midnightblue" points="292,-79.336 295.5,-89.336 299,-79.336 292,-79.336"/>
</g>
<!-- Node4 -->
<g id="node4" class="node"><title>Node4</title>
<g id="a_node4"><a xlink:href="../../d8/db5/GPUTPCClusterFinderKernels_8cxx.html" target="_top" xlink:title="/home/travis/build\l/AliceO2Group/AliceO2\l/GPU/GPUTracking/TPCClusterFinder\l/GPUTPCClusterFinderKernels.cxx">
<polygon fill="none" stroke="black" points="406,-0.5 406,-52.5 591,-52.5 591,-0.5 406,-0.5"/>
<text text-anchor="start" x="414" y="-40.5" font-family="Helvetica,sans-Serif" font-size="10.00">/home/travis/build</text>
<text text-anchor="start" x="414" y="-29.5" font-family="Helvetica,sans-Serif" font-size="10.00">/AliceO2Group/AliceO2</text>
<text text-anchor="start" x="414" y="-18.5" font-family="Helvetica,sans-Serif" font-size="10.00">/GPU/GPUTracking/TPCClusterFinder</text>
<text text-anchor="middle" x="498.5" y="-7.5" font-family="Helvetica,sans-Serif" font-size="10.00">/GPUTPCClusterFinderKernels.cxx</text>
</a>
</g>
</g>
<!-- Node1&#45;&gt;Node4 -->
<g id="edge3" class="edge"><title>Node1&#45;&gt;Node4</title>
<path fill="none" stroke="midnightblue" d="M363.317,-85.4355C388.201,-74.7708 416.132,-62.8004 440.117,-52.5211"/>
<polygon fill="midnightblue" stroke="midnightblue" points="361.756,-82.2965 353.944,-89.4527 364.514,-88.7305 361.756,-82.2965"/>
</g>
</g>
</svg>
