<?xml version="1.0" encoding="UTF-8" standalone="no"?>
<!DOCTYPE svg PUBLIC "-//W3C//DTD SVG 1.1//EN"
 "http://www.w3.org/Graphics/SVG/1.1/DTD/svg11.dtd">
<!-- Generated by graphviz version 2.38.0 (20140413.2041)
 -->
<!-- Title: o2::framework::gui::Node Pages: 1 -->
<svg width="337pt" height="215pt"
 viewBox="0.00 0.00 337.00 215.00" xmlns="http://www.w3.org/2000/svg" xmlns:xlink="http://www.w3.org/1999/xlink">
<g id="graph0" class="graph" transform="scale(1 1) rotate(0) translate(4 211)">
<title>o2::framework::gui::Node</title>
<!-- Node1 -->
<g id="node1" class="node"><title>Node1</title>
<polygon fill="#bfbfbf" stroke="black" points="103,-0.5 103,-68.5 201,-68.5 201,-0.5 103,-0.5"/>
<text text-anchor="start" x="111" y="-56.5" font-family="Helvetica,sans-Serif" font-size="10.00">o2::framework::gui</text>
<text text-anchor="middle" x="152" y="-45.5" font-family="Helvetica,sans-Serif" font-size="10.00">::Node</text>
<polyline fill="none" stroke="black" points="103,-38.5 201,-38.5 "/>
<text text-anchor="middle" x="152" y="-26.5" font-family="Helvetica,sans-Serif" font-size="10.00"> </text>
<polyline fill="none" stroke="black" points="103,-19.5 201,-19.5 "/>
<text text-anchor="start" x="111" y="-7.5" font-family="Helvetica,sans-Serif" font-size="10.00">+ Node()</text>
</g>
<!-- Node2 -->
<g id="node2" class="node"><title>Node2</title>
<polygon fill="none" stroke="#bfbfbf" points="0,-149.5 0,-206.5 50,-206.5 50,-149.5 0,-149.5"/>
<text text-anchor="middle" x="25" y="-194.5" font-family="Helvetica,sans-Serif" font-size="10.00">ImVec2</text>
<polyline fill="none" stroke="#bfbfbf" points="0,-187.5 50,-187.5 "/>
<text text-anchor="middle" x="25" y="-175.5" font-family="Helvetica,sans-Serif" font-size="10.00"> </text>
<polyline fill="none" stroke="#bfbfbf" points="0,-168.5 50,-168.5 "/>
<text text-anchor="middle" x="25" y="-156.5" font-family="Helvetica,sans-Serif" font-size="10.00"> </text>
</g>
<!-- Node2&#45;&gt;Node1 -->
<g id="edge1" class="edge"><title>Node2&#45;&gt;Node1</title>
<path fill="none" stroke="#404040" d="M33.8567,-149.435C41.0419,-130.285 52.6701,-105.062 69,-87 75.8665,-79.4053 84.1107,-72.5285 92.7008,-66.4533"/>
<polygon fill="none" stroke="#404040" points="92.8843,-66.3315 95.6709,-59.6805 102.882,-59.6947 100.095,-66.3457 92.8843,-66.3315"/>
<text text-anchor="middle" x="83.5" y="-106.5" font-family="Helvetica,sans-Serif" font-size="10.00"> +Size</text>
</g>
<!-- Node3 -->
<g id="node3" class="node"><title>Node3</title>
<polygon fill="none" stroke="#bfbfbf" points="68,-149.5 68,-206.5 118,-206.5 118,-149.5 68,-149.5"/>
<text text-anchor="middle" x="93" y="-194.5" font-family="Helvetica,sans-Serif" font-size="10.00">ImVec4</text>
<polyline fill="none" stroke="#bfbfbf" points="68,-187.5 118,-187.5 "/>
<text text-anchor="middle" x="93" y="-175.5" font-family="Helvetica,sans-Serif" font-size="10.00"> </text>
<polyline fill="none" stroke="#bfbfbf" points="68,-168.5 118,-168.5 "/>
<text text-anchor="middle" x="93" y="-156.5" font-family="Helvetica,sans-Serif" font-size="10.00"> </text>
</g>
<!-- Node3&#45;&gt;Node1 -->
<g id="edge2" class="edge"><title>Node3&#45;&gt;Node1</title>
<path fill="none" stroke="#404040" d="M97.3945,-149.354C100.934,-131.089 106.854,-106.935 116,-87 117.254,-84.2671 118.655,-81.5258 120.157,-78.8094"/>
<polygon fill="none" stroke="#404040" points="120.16,-78.8048 119.831,-71.6012 126.354,-68.5271 126.683,-75.7307 120.16,-78.8048"/>
<text text-anchor="middle" x="132.5" y="-106.5" font-family="Helvetica,sans-Serif" font-size="10.00"> +Color</text>
</g>
<!-- Node4 -->
<g id="node4" class="node"><title>Node4</title>
<g id="a_node4"><a xlink:href="../../d4/dc3/classfloat.html" target="_top" xlink:title="{float\n||}">
<polygon fill="none" stroke="black" points="136.5,-149.5 136.5,-206.5 171.5,-206.5 171.5,-149.5 136.5,-149.5"/>
<text text-anchor="middle" x="154" y="-194.5" font-family="Helvetica,sans-Serif" font-size="10.00">float</text>
<polyline fill="none" stroke="black" points="136.5,-187.5 171.5,-187.5 "/>
<text text-anchor="middle" x="154" y="-175.5" font-family="Helvetica,sans-Serif" font-size="10.00"> </text>
<polyline fill="none" stroke="black" points="136.5,-168.5 171.5,-168.5 "/>
<text text-anchor="middle" x="154" y="-156.5" font-family="Helvetica,sans-Serif" font-size="10.00"> </text>
</a>
</g>
</g>
<!-- Node4&#45;&gt;Node1 -->
<g id="edge3" class="edge"><title>Node4&#45;&gt;Node1</title>
<path fill="none" stroke="#404040" d="M153.347,-149.271C153.219,-143.247 153.095,-136.91 153,-131 152.737,-114.648 152.528,-96.72 152.371,-80.8577"/>
<polygon fill="none" stroke="#404040" points="152.369,-80.6483 148.312,-74.6863 152.255,-68.6489 156.312,-74.6108 152.369,-80.6483"/>
<text text-anchor="middle" x="170" y="-106.5" font-family="Helvetica,sans-Serif" font-size="10.00"> +Value</text>
</g>
<!-- Node5 -->
<g id="node5" class="node"><title>Node5</title>
<polygon fill="none" stroke="#bfbfbf" points="191.5,-149.5 191.5,-206.5 226.5,-206.5 226.5,-149.5 191.5,-149.5"/>
<text text-anchor="middle" x="209" y="-194.5" font-family="Helvetica,sans-Serif" font-size="10.00">char</text>
<polyline fill="none" stroke="#bfbfbf" points="191.5,-187.5 226.5,-187.5 "/>
<text text-anchor="middle" x="209" y="-175.5" font-family="Helvetica,sans-Serif" font-size="10.00"> </text>
<polyline fill="none" stroke="#bfbfbf" points="191.5,-168.5 226.5,-168.5 "/>
<text text-anchor="middle" x="209" y="-156.5" font-family="Helvetica,sans-Serif" font-size="10.00"> </text>
</g>
<!-- Node5&#45;&gt;Node1 -->
<g id="edge4" class="edge"><title>Node5&#45;&gt;Node1</title>
<path fill="none" stroke="#404040" d="M204.888,-149.39C201.54,-131.14 195.887,-106.989 187,-87 185.833,-84.3746 184.531,-81.7392 183.134,-79.1242"/>
<polygon fill="none" stroke="#404040" points="183.02,-78.9283 176.54,-75.7653 176.967,-68.5669 183.447,-71.7299 183.02,-78.9283"/>
<text text-anchor="middle" x="219" y="-106.5" font-family="Helvetica,sans-Serif" font-size="10.00"> +Name</text>
</g>
<!-- Node6 -->
<g id="node6" class="node"><title>Node6</title>
<polygon fill="none" stroke="#bfbfbf" points="253.5,-149.5 253.5,-206.5 282.5,-206.5 282.5,-149.5 253.5,-149.5"/>
<text text-anchor="middle" x="268" y="-194.5" font-family="Helvetica,sans-Serif" font-size="10.00">int</text>
<polyline fill="none" stroke="#bfbfbf" points="253.5,-187.5 282.5,-187.5 "/>
<text text-anchor="middle" x="268" y="-175.5" font-family="Helvetica,sans-Serif" font-size="10.00"> </text>
<polyline fill="none" stroke="#bfbfbf" points="253.5,-168.5 282.5,-168.5 "/>
<text text-anchor="middle" x="268" y="-156.5" font-family="Helvetica,sans-Serif" font-size="10.00"> </text>
</g>
<!-- Node6&#45;&gt;Node1 -->
<g id="edge5" class="edge"><title>Node6&#45;&gt;Node1</title>
<path fill="none" stroke="#404040" d="M265.116,-149.346C261.909,-130.154 255.161,-104.918 241,-87 233.115,-77.0233 222.727,-68.6112 211.839,-61.6656"/>
<polygon fill="none" stroke="#404040" points="211.647,-61.5523 204.447,-61.947 201.313,-55.4525 208.513,-55.0577 211.647,-61.5523"/>
<text text-anchor="middle" x="295.5" y="-123" font-family="Helvetica,sans-Serif" font-size="10.00"> +ID</text>
<text text-anchor="middle" x="295.5" y="-112" font-family="Helvetica,sans-Serif" font-size="10.00">+GroupID</text>
<text text-anchor="middle" x="295.5" y="-101" font-family="Helvetica,sans-Serif" font-size="10.00">+OutputsCount</text>
<text text-anchor="middle" x="295.5" y="-90" font-family="Helvetica,sans-Serif" font-size="10.00">+InputsCount</text>
</g>
</g>
</svg>
