<?xml version="1.0" encoding="UTF-8" standalone="no"?>
<!DOCTYPE svg PUBLIC "-//W3C//DTD SVG 1.1//EN"
 "http://www.w3.org/Graphics/SVG/1.1/DTD/svg11.dtd">
<!-- Generated by graphviz version 2.38.0 (20140413.2041)
 -->
<!-- Title: o2::conf::SimConfigData Pages: 1 -->
<svg width="753pt" height="303pt"
 viewBox="0.00 0.00 752.50 303.00" xmlns="http://www.w3.org/2000/svg" xmlns:xlink="http://www.w3.org/1999/xlink">
<g id="graph0" class="graph" transform="scale(1 1) rotate(0) translate(4 299)">
<title>o2::conf::SimConfigData</title>
<!-- Node1 -->
<g id="node1" class="node"><title>Node1</title>
<polygon fill="#bfbfbf" stroke="black" points="274,-0.5 274,-79.5 399,-79.5 399,-0.5 274,-0.5"/>
<text text-anchor="middle" x="336.5" y="-67.5" font-family="Helvetica,sans-Serif" font-size="10.00">o2::conf::SimConfigData</text>
<polyline fill="none" stroke="black" points="274,-60.5 399,-60.5 "/>
<text text-anchor="start" x="282" y="-48.5" font-family="Helvetica,sans-Serif" font-size="10.00">+ mExtKinFileName</text>
<text text-anchor="start" x="282" y="-37.5" font-family="Helvetica,sans-Serif" font-size="10.00">+ mExtGenFuncName</text>
<text text-anchor="start" x="282" y="-26.5" font-family="Helvetica,sans-Serif" font-size="10.00">+ mConfigFile</text>
<polyline fill="none" stroke="black" points="274,-19.5 399,-19.5 "/>
<text text-anchor="start" x="282" y="-7.5" font-family="Helvetica,sans-Serif" font-size="10.00">+ ClassDefNV()</text>
</g>
<!-- Node2 -->
<g id="node2" class="node"><title>Node2</title>
<g id="a_node2"><a xlink:href="../../d4/dc3/classfloat.html" target="_top" xlink:title="{float\n||}">
<polygon fill="none" stroke="black" points="0,-237.5 0,-294.5 35,-294.5 35,-237.5 0,-237.5"/>
<text text-anchor="middle" x="17.5" y="-282.5" font-family="Helvetica,sans-Serif" font-size="10.00">float</text>
<polyline fill="none" stroke="black" points="0,-275.5 35,-275.5 "/>
<text text-anchor="middle" x="17.5" y="-263.5" font-family="Helvetica,sans-Serif" font-size="10.00"> </text>
<polyline fill="none" stroke="black" points="0,-256.5 35,-256.5 "/>
<text text-anchor="middle" x="17.5" y="-244.5" font-family="Helvetica,sans-Serif" font-size="10.00"> </text>
</a>
</g>
</g>
<!-- Node2&#45;&gt;Node1 -->
<g id="edge1" class="edge"><title>Node2&#45;&gt;Node1</title>
<path fill="none" stroke="#404040" d="M13.8369,-237.413C10.6006,-200.41 11.0498,-135.075 47.5,-98 76.7501,-68.2487 186.117,-53.2669 261.591,-46.3135"/>
<polygon fill="none" stroke="#404040" points="261.907,-46.2855 267.531,-41.7712 273.861,-45.2256 268.237,-49.7399 261.907,-46.2855"/>
<text text-anchor="middle" x="69" y="-156" font-family="Helvetica,sans-Serif" font-size="10.00"> +mBMax</text>
</g>
<!-- Node3 -->
<g id="node3" class="node"><title>Node3</title>
<polygon fill="none" stroke="#bfbfbf" points="53,-237.5 53,-294.5 158,-294.5 158,-237.5 53,-237.5"/>
<text text-anchor="middle" x="105.5" y="-282.5" font-family="Helvetica,sans-Serif" font-size="10.00">vector&lt; std::string &gt;</text>
<polyline fill="none" stroke="#bfbfbf" points="53,-275.5 158,-275.5 "/>
<text text-anchor="middle" x="105.5" y="-263.5" font-family="Helvetica,sans-Serif" font-size="10.00"> </text>
<polyline fill="none" stroke="#bfbfbf" points="53,-256.5 158,-256.5 "/>
<text text-anchor="middle" x="105.5" y="-244.5" font-family="Helvetica,sans-Serif" font-size="10.00"> </text>
</g>
<!-- Node3&#45;&gt;Node1 -->
<g id="edge2" class="edge"><title>Node3&#45;&gt;Node1</title>
<path fill="none" stroke="#404040" d="M99.0386,-237.443C92.2627,-201.072 86.653,-137.094 119.5,-98 137.913,-76.0856 206.702,-60.5469 261.959,-51.286"/>
<polygon fill="none" stroke="#404040" points="262.034,-51.2738 267.315,-46.3631 273.879,-49.3487 268.598,-54.2595 262.034,-51.2738"/>
<text text-anchor="middle" x="163.5" y="-156" font-family="Helvetica,sans-Serif" font-size="10.00"> +mActiveDetectors</text>
</g>
<!-- Node4 -->
<g id="node4" class="node"><title>Node4</title>
<polygon fill="none" stroke="#bfbfbf" points="202,-237.5 202,-294.5 231,-294.5 231,-237.5 202,-237.5"/>
<text text-anchor="middle" x="216.5" y="-282.5" font-family="Helvetica,sans-Serif" font-size="10.00">int</text>
<polyline fill="none" stroke="#bfbfbf" points="202,-275.5 231,-275.5 "/>
<text text-anchor="middle" x="216.5" y="-263.5" font-family="Helvetica,sans-Serif" font-size="10.00"> </text>
<polyline fill="none" stroke="#bfbfbf" points="202,-256.5 231,-256.5 "/>
<text text-anchor="middle" x="216.5" y="-244.5" font-family="Helvetica,sans-Serif" font-size="10.00"> </text>
</g>
<!-- Node4&#45;&gt;Node1 -->
<g id="edge3" class="edge"><title>Node4&#45;&gt;Node1</title>
<path fill="none" stroke="#404040" d="M212.436,-237.297C208.75,-201.909 207.538,-140.205 235.5,-98 242.694,-87.1411 252.703,-78.1303 263.644,-70.727"/>
<polygon fill="none" stroke="#404040" points="263.699,-70.693 266.693,-64.1328 273.9,-64.3731 270.906,-70.9334 263.699,-70.693"/>
<text text-anchor="middle" x="284" y="-178" font-family="Helvetica,sans-Serif" font-size="10.00"> +mStartSeed</text>
<text text-anchor="middle" x="284" y="-167" font-family="Helvetica,sans-Serif" font-size="10.00">+mInternalChunkSize</text>
<text text-anchor="middle" x="284" y="-156" font-family="Helvetica,sans-Serif" font-size="10.00">+mPrimaryChunkSize</text>
<text text-anchor="middle" x="284" y="-145" font-family="Helvetica,sans-Serif" font-size="10.00">+mField</text>
<text text-anchor="middle" x="284" y="-134" font-family="Helvetica,sans-Serif" font-size="10.00">+mSimWorkers</text>
</g>
<!-- Node5 -->
<g id="node5" class="node"><title>Node5</title>
<polygon fill="none" stroke="#bfbfbf" points="319,-237.5 319,-294.5 354,-294.5 354,-237.5 319,-237.5"/>
<text text-anchor="middle" x="336.5" y="-282.5" font-family="Helvetica,sans-Serif" font-size="10.00">bool</text>
<polyline fill="none" stroke="#bfbfbf" points="319,-275.5 354,-275.5 "/>
<text text-anchor="middle" x="336.5" y="-263.5" font-family="Helvetica,sans-Serif" font-size="10.00"> </text>
<polyline fill="none" stroke="#bfbfbf" points="319,-256.5 354,-256.5 "/>
<text text-anchor="middle" x="336.5" y="-244.5" font-family="Helvetica,sans-Serif" font-size="10.00"> </text>
</g>
<!-- Node5&#45;&gt;Node1 -->
<g id="edge4" class="edge"><title>Node5&#45;&gt;Node1</title>
<path fill="none" stroke="#404040" d="M336.5,-237.083C336.5,-200.849 336.5,-136.946 336.5,-91.9601"/>
<polygon fill="none" stroke="#404040" points="336.5,-91.812 332.5,-85.812 336.5,-79.812 340.5,-85.812 336.5,-91.812"/>
<text text-anchor="middle" x="384.5" y="-161.5" font-family="Helvetica,sans-Serif" font-size="10.00"> +mFilterNoHitEvents</text>
<text text-anchor="middle" x="384.5" y="-150.5" font-family="Helvetica,sans-Serif" font-size="10.00">+mIsMT</text>
</g>
<!-- Node6 -->
<g id="node6" class="node"><title>Node6</title>
<polygon fill="none" stroke="#bfbfbf" points="435,-237.5 435,-294.5 476,-294.5 476,-237.5 435,-237.5"/>
<text text-anchor="middle" x="455.5" y="-282.5" font-family="Helvetica,sans-Serif" font-size="10.00">string</text>
<polyline fill="none" stroke="#bfbfbf" points="435,-275.5 476,-275.5 "/>
<text text-anchor="middle" x="455.5" y="-263.5" font-family="Helvetica,sans-Serif" font-size="10.00"> </text>
<polyline fill="none" stroke="#bfbfbf" points="435,-256.5 476,-256.5 "/>
<text text-anchor="middle" x="455.5" y="-244.5" font-family="Helvetica,sans-Serif" font-size="10.00"> </text>
</g>
<!-- Node6&#45;&gt;Node1 -->
<g id="edge5" class="edge"><title>Node6&#45;&gt;Node1</title>
<path fill="none" stroke="#404040" d="M454.759,-237.447C453.172,-196.058 448.281,-120.305 433.5,-98 427.133,-88.3931 418.549,-80.1866 409.107,-73.2454"/>
<polygon fill="none" stroke="#404040" points="408.974,-73.1565 401.763,-73.1307 399.014,-66.4643 406.225,-66.4902 408.974,-73.1565"/>
<text text-anchor="middle" x="506.5" y="-211" font-family="Helvetica,sans-Serif" font-size="10.00"> +mOutputPrefix</text>
<text text-anchor="middle" x="506.5" y="-200" font-family="Helvetica,sans-Serif" font-size="10.00">+mMCEngine</text>
<text text-anchor="middle" x="506.5" y="-189" font-family="Helvetica,sans-Serif" font-size="10.00">+mCCDBUrl</text>
<text text-anchor="middle" x="506.5" y="-178" font-family="Helvetica,sans-Serif" font-size="10.00">+mKeyValueTokens</text>
<text text-anchor="middle" x="506.5" y="-167" font-family="Helvetica,sans-Serif" font-size="10.00">+mLogSeverity</text>
<text text-anchor="middle" x="506.5" y="-156" font-family="Helvetica,sans-Serif" font-size="10.00">+mHepMCFileName</text>
<text text-anchor="middle" x="506.5" y="-145" font-family="Helvetica,sans-Serif" font-size="10.00">+mGenerator</text>
<text text-anchor="middle" x="506.5" y="-134" font-family="Helvetica,sans-Serif" font-size="10.00">+mEmbedIntoFileName</text>
<text text-anchor="middle" x="506.5" y="-123" font-family="Helvetica,sans-Serif" font-size="10.00">+mExtGenFileName</text>
<text text-anchor="middle" x="506.5" y="-112" font-family="Helvetica,sans-Serif" font-size="10.00">+mLogVerbosity</text>
<text text-anchor="middle" x="506.5" y="-101" font-family="Helvetica,sans-Serif" font-size="10.00">...</text>
</g>
<!-- Node7 -->
<g id="node7" class="node"><title>Node7</title>
<polygon fill="none" stroke="#bfbfbf" points="565,-237.5 565,-294.5 600,-294.5 600,-237.5 565,-237.5"/>
<text text-anchor="middle" x="582.5" y="-282.5" font-family="Helvetica,sans-Serif" font-size="10.00">long</text>
<polyline fill="none" stroke="#bfbfbf" points="565,-275.5 600,-275.5 "/>
<text text-anchor="middle" x="582.5" y="-263.5" font-family="Helvetica,sans-Serif" font-size="10.00"> </text>
<polyline fill="none" stroke="#bfbfbf" points="565,-256.5 600,-256.5 "/>
<text text-anchor="middle" x="582.5" y="-244.5" font-family="Helvetica,sans-Serif" font-size="10.00"> </text>
</g>
<!-- Node7&#45;&gt;Node1 -->
<g id="edge6" class="edge"><title>Node7&#45;&gt;Node1</title>
<path fill="none" stroke="#404040" d="M582.493,-237.231C581.896,-195.166 578.319,-118.06 560.5,-98 540.689,-75.6978 468.338,-60.075 411.155,-50.8954"/>
<polygon fill="none" stroke="#404040" points="411.064,-50.8814 404.52,-53.9102 399.207,-49.0343 405.751,-46.0055 411.064,-50.8814"/>
<text text-anchor="middle" x="616" y="-156" font-family="Helvetica,sans-Serif" font-size="10.00"> +mTimestamp</text>
</g>
<!-- Node8 -->
<g id="node8" class="node"><title>Node8</title>
<polygon fill="none" stroke="#bfbfbf" points="644.5,-237.5 644.5,-294.5 700.5,-294.5 700.5,-237.5 644.5,-237.5"/>
<text text-anchor="middle" x="672.5" y="-282.5" font-family="Helvetica,sans-Serif" font-size="10.00">unsigned</text>
<polyline fill="none" stroke="#bfbfbf" points="644.5,-275.5 700.5,-275.5 "/>
<text text-anchor="middle" x="672.5" y="-263.5" font-family="Helvetica,sans-Serif" font-size="10.00"> </text>
<polyline fill="none" stroke="#bfbfbf" points="644.5,-256.5 700.5,-256.5 "/>
<text text-anchor="middle" x="672.5" y="-244.5" font-family="Helvetica,sans-Serif" font-size="10.00"> </text>
</g>
<!-- Node8&#45;&gt;Node1 -->
<g id="edge7" class="edge"><title>Node8&#45;&gt;Node1</title>
<path fill="none" stroke="#404040" d="M677.752,-237.5C683.068,-200.595 686.1,-135.373 650.5,-98 618.436,-64.3384 493.477,-50.3151 411.193,-44.6482"/>
<polygon fill="none" stroke="#404040" points="411.102,-44.6423 404.853,-48.2404 399.128,-43.8557 405.377,-40.2576 411.102,-44.6423"/>
<text text-anchor="middle" x="712.5" y="-161.5" font-family="Helvetica,sans-Serif" font-size="10.00"> +mStartEvent</text>
<text text-anchor="middle" x="712.5" y="-150.5" font-family="Helvetica,sans-Serif" font-size="10.00">+mNEvents</text>
</g>
</g>
</svg>
