<?xml version="1.0" encoding="UTF-8" standalone="no"?>
<!DOCTYPE svg PUBLIC "-//W3C//DTD SVG 1.1//EN"
 "http://www.w3.org/Graphics/SVG/1.1/DTD/svg11.dtd">
<!-- Generated by graphviz version 2.38.0 (20140413.2041)
 -->
<!-- Title: FooBar Pages: 1 -->
<svg width="311pt" height="354pt"
 viewBox="0.00 0.00 310.50 354.00" xmlns="http://www.w3.org/2000/svg" xmlns:xlink="http://www.w3.org/1999/xlink">
<g id="graph0" class="graph" transform="scale(1 1) rotate(0) translate(4 350)">
<title>FooBar</title>
<!-- Node1 -->
<g id="node1" class="node"><title>Node1</title>
<polygon fill="#bfbfbf" stroke="black" points="106.5,-0.5 106.5,-57.5 154.5,-57.5 154.5,-0.5 106.5,-0.5"/>
<text text-anchor="middle" x="130.5" y="-45.5" font-family="Helvetica,sans-Serif" font-size="10.00">FooBar</text>
<polyline fill="none" stroke="black" points="106.5,-38.5 154.5,-38.5 "/>
<text text-anchor="middle" x="130.5" y="-26.5" font-family="Helvetica,sans-Serif" font-size="10.00"> </text>
<polyline fill="none" stroke="black" points="106.5,-19.5 154.5,-19.5 "/>
<text text-anchor="middle" x="130.5" y="-7.5" font-family="Helvetica,sans-Serif" font-size="10.00"> </text>
</g>
<!-- Node2 -->
<g id="node2" class="node"><title>Node2</title>
<g id="a_node2"><a xlink:href="../../d8/d5d/classFoo.html" target="_top" xlink:title="Dummy boost&#45;serializable struct to perform some tests. ">
<polygon fill="none" stroke="black" points="71,-95.5 71,-207.5 190,-207.5 190,-95.5 71,-95.5"/>
<text text-anchor="middle" x="130.5" y="-195.5" font-family="Helvetica,sans-Serif" font-size="10.00">Foo</text>
<polyline fill="none" stroke="black" points="71,-188.5 190,-188.5 "/>
<text text-anchor="middle" x="130.5" y="-176.5" font-family="Helvetica,sans-Serif" font-size="10.00"> </text>
<polyline fill="none" stroke="black" points="71,-169.5 190,-169.5 "/>
<text text-anchor="start" x="79" y="-157.5" font-family="Helvetica,sans-Serif" font-size="10.00">+ Foo()</text>
<text text-anchor="start" x="79" y="-146.5" font-family="Helvetica,sans-Serif" font-size="10.00">+ Foo()</text>
<text text-anchor="start" x="79" y="-135.5" font-family="Helvetica,sans-Serif" font-size="10.00">+ serialize()</text>
<text text-anchor="start" x="79" y="-124.5" font-family="Helvetica,sans-Serif" font-size="10.00">+ Foo()</text>
<text text-anchor="start" x="79" y="-113.5" font-family="Helvetica,sans-Serif" font-size="10.00">+ someHiddenMethod()</text>
<text text-anchor="start" x="79" y="-102.5" font-family="Helvetica,sans-Serif" font-size="10.00">+ a()</text>
</a>
</g>
</g>
<!-- Node2&#45;&gt;Node1 -->
<g id="edge1" class="edge"><title>Node2&#45;&gt;Node1</title>
<path fill="none" stroke="midnightblue" d="M130.5,-85.1187C130.5,-75.478 130.5,-66.0138 130.5,-57.7231"/>
<polygon fill="none" stroke="midnightblue" points="127,-85.1874 130.5,-95.1875 134,-85.1875 127,-85.1874"/>
</g>
<!-- Node3 -->
<g id="node3" class="node"><title>Node3</title>
<polygon fill="none" stroke="#bfbfbf" points="0,-288.5 0,-345.5 45,-345.5 45,-288.5 0,-288.5"/>
<text text-anchor="middle" x="22.5" y="-333.5" font-family="Helvetica,sans-Serif" font-size="10.00">double</text>
<polyline fill="none" stroke="#bfbfbf" points="0,-326.5 45,-326.5 "/>
<text text-anchor="middle" x="22.5" y="-314.5" font-family="Helvetica,sans-Serif" font-size="10.00"> </text>
<polyline fill="none" stroke="#bfbfbf" points="0,-307.5 45,-307.5 "/>
<text text-anchor="middle" x="22.5" y="-295.5" font-family="Helvetica,sans-Serif" font-size="10.00"> </text>
</g>
<!-- Node3&#45;&gt;Node2 -->
<g id="edge2" class="edge"><title>Node3&#45;&gt;Node2</title>
<path fill="none" stroke="#404040" d="M30.4419,-288.257C36.483,-269.73 45.9077,-245.313 58.5,-226 60.4208,-223.054 62.4719,-220.127 64.6221,-217.232"/>
<polygon fill="none" stroke="#404040" points="64.8361,-216.961 65.4117,-209.773 72.2683,-207.539 71.6927,-214.728 64.8361,-216.961"/>
<text text-anchor="middle" x="75" y="-245.5" font-family="Helvetica,sans-Serif" font-size="10.00"> +fBar2</text>
</g>
<!-- Node4 -->
<g id="node4" class="node"><title>Node4</title>
<g id="a_node4"><a xlink:href="../../d4/dc3/classfloat.html" target="_top" xlink:title="{float\n||}">
<polygon fill="none" stroke="black" points="63,-288.5 63,-345.5 98,-345.5 98,-288.5 63,-288.5"/>
<text text-anchor="middle" x="80.5" y="-333.5" font-family="Helvetica,sans-Serif" font-size="10.00">float</text>
<polyline fill="none" stroke="black" points="63,-326.5 98,-326.5 "/>
<text text-anchor="middle" x="80.5" y="-314.5" font-family="Helvetica,sans-Serif" font-size="10.00"> </text>
<polyline fill="none" stroke="black" points="63,-307.5 98,-307.5 "/>
<text text-anchor="middle" x="80.5" y="-295.5" font-family="Helvetica,sans-Serif" font-size="10.00"> </text>
</a>
</g>
</g>
<!-- Node4&#45;&gt;Node2 -->
<g id="edge3" class="edge"><title>Node4&#45;&gt;Node2</title>
<path fill="none" stroke="#404040" d="M88.9818,-288.264C94.7762,-269.317 102.713,-243.362 110.097,-219.219"/>
<polygon fill="none" stroke="#404040" points="110.155,-219.026 108.085,-212.119 113.665,-207.551 115.735,-214.458 110.155,-219.026"/>
<text text-anchor="middle" x="115" y="-245.5" font-family="Helvetica,sans-Serif" font-size="10.00"> +y</text>
</g>
<!-- Node5 -->
<g id="node5" class="node"><title>Node5</title>
<polygon fill="none" stroke="#bfbfbf" points="116,-288.5 116,-345.5 145,-345.5 145,-288.5 116,-288.5"/>
<text text-anchor="middle" x="130.5" y="-333.5" font-family="Helvetica,sans-Serif" font-size="10.00">int</text>
<polyline fill="none" stroke="#bfbfbf" points="116,-326.5 145,-326.5 "/>
<text text-anchor="middle" x="130.5" y="-314.5" font-family="Helvetica,sans-Serif" font-size="10.00"> </text>
<polyline fill="none" stroke="#bfbfbf" points="116,-307.5 145,-307.5 "/>
<text text-anchor="middle" x="130.5" y="-295.5" font-family="Helvetica,sans-Serif" font-size="10.00"> </text>
</g>
<!-- Node5&#45;&gt;Node2 -->
<g id="edge4" class="edge"><title>Node5&#45;&gt;Node2</title>
<path fill="none" stroke="#404040" d="M130.5,-288.264C130.5,-269.489 130.5,-243.833 130.5,-219.878"/>
<polygon fill="none" stroke="#404040" points="130.5,-219.551 126.5,-213.551 130.5,-207.551 134.5,-213.551 130.5,-219.551"/>
<text text-anchor="middle" x="145.5" y="-262" font-family="Helvetica,sans-Serif" font-size="10.00"> +foo</text>
<text text-anchor="middle" x="145.5" y="-251" font-family="Helvetica,sans-Serif" font-size="10.00">+fBar1</text>
<text text-anchor="middle" x="145.5" y="-240" font-family="Helvetica,sans-Serif" font-size="10.00">+x</text>
<text text-anchor="middle" x="145.5" y="-229" font-family="Helvetica,sans-Serif" font-size="10.00">+y</text>
</g>
<!-- Node6 -->
<g id="node6" class="node"><title>Node6</title>
<polygon fill="none" stroke="#bfbfbf" points="163,-288.5 163,-345.5 204,-345.5 204,-288.5 163,-288.5"/>
<text text-anchor="middle" x="183.5" y="-333.5" font-family="Helvetica,sans-Serif" font-size="10.00">string</text>
<polyline fill="none" stroke="#bfbfbf" points="163,-326.5 204,-326.5 "/>
<text text-anchor="middle" x="183.5" y="-314.5" font-family="Helvetica,sans-Serif" font-size="10.00"> </text>
<polyline fill="none" stroke="#bfbfbf" points="163,-307.5 204,-307.5 "/>
<text text-anchor="middle" x="183.5" y="-295.5" font-family="Helvetica,sans-Serif" font-size="10.00"> </text>
</g>
<!-- Node6&#45;&gt;Node2 -->
<g id="edge5" class="edge"><title>Node6&#45;&gt;Node2</title>
<path fill="none" stroke="#404040" d="M177.885,-288.104C173.979,-270.163 168.269,-246.464 161.5,-226 160.719,-223.637 159.894,-221.244 159.036,-218.837"/>
<polygon fill="none" stroke="#404040" points="159.011,-218.768 153.167,-214.543 154.818,-207.524 160.662,-211.748 159.011,-218.768"/>
<text text-anchor="middle" x="191" y="-245.5" font-family="Helvetica,sans-Serif" font-size="10.00"> +fBar4</text>
</g>
<!-- Node7 -->
<g id="node7" class="node"><title>Node7</title>
<polygon fill="none" stroke="#bfbfbf" points="222.5,-288.5 222.5,-345.5 302.5,-345.5 302.5,-288.5 222.5,-288.5"/>
<text text-anchor="middle" x="262.5" y="-333.5" font-family="Helvetica,sans-Serif" font-size="10.00">vector&lt; float &gt;</text>
<polyline fill="none" stroke="#bfbfbf" points="222.5,-326.5 302.5,-326.5 "/>
<text text-anchor="middle" x="262.5" y="-314.5" font-family="Helvetica,sans-Serif" font-size="10.00"> </text>
<polyline fill="none" stroke="#bfbfbf" points="222.5,-307.5 302.5,-307.5 "/>
<text text-anchor="middle" x="262.5" y="-295.5" font-family="Helvetica,sans-Serif" font-size="10.00"> </text>
</g>
<!-- Node7&#45;&gt;Node2 -->
<g id="edge6" class="edge"><title>Node7&#45;&gt;Node2</title>
<path fill="none" stroke="#404040" d="M249.648,-288.193C240.395,-269.637 226.87,-245.213 211.5,-226 207.597,-221.121 203.358,-216.281 198.936,-211.552"/>
<polygon fill="none" stroke="#404040" points="198.609,-211.216 191.558,-209.703 190.244,-202.612 197.294,-204.126 198.609,-211.216"/>
<text text-anchor="middle" x="256" y="-245.5" font-family="Helvetica,sans-Serif" font-size="10.00"> +fBar3</text>
</g>
</g>
</svg>
