<?xml version="1.0" encoding="UTF-8" standalone="no"?>
<!DOCTYPE svg PUBLIC "-//W3C//DTD SVG 1.1//EN"
 "http://www.w3.org/Graphics/SVG/1.1/DTD/svg11.dtd">
<!-- Generated by graphviz version 2.38.0 (20140413.2041)
 -->
<!-- Title: /home/travis/build/AliceO2Group/AliceO2/DataFormats/Detectors/ZDC/include/DataFormatsZDC/OrbitRawData.h Pages: 1 -->
<svg width="886pt" height="195pt"
 viewBox="0.00 0.00 886.00 195.00" xmlns="http://www.w3.org/2000/svg" xmlns:xlink="http://www.w3.org/1999/xlink">
<g id="graph0" class="graph" transform="scale(1 1) rotate(0) translate(4 191)">
<title>/home/travis/build/AliceO2Group/AliceO2/DataFormats/Detectors/ZDC/include/DataFormatsZDC/OrbitRawData.h</title>
<!-- Node1 -->
<g id="node1" class="node"><title>Node1</title>
<polygon fill="#bfbfbf" stroke="black" points="344.5,-123.5 344.5,-186.5 499.5,-186.5 499.5,-123.5 344.5,-123.5"/>
<text text-anchor="start" x="352.5" y="-174.5" font-family="Helvetica,sans-Serif" font-size="10.00">/home/travis/build</text>
<text text-anchor="start" x="352.5" y="-163.5" font-family="Helvetica,sans-Serif" font-size="10.00">/AliceO2Group/AliceO2</text>
<text text-anchor="start" x="352.5" y="-152.5" font-family="Helvetica,sans-Serif" font-size="10.00">/DataFormats/Detectors</text>
<text text-anchor="start" x="352.5" y="-141.5" font-family="Helvetica,sans-Serif" font-size="10.00">/ZDC/include/DataFormatsZDC</text>
<text text-anchor="middle" x="422" y="-130.5" font-family="Helvetica,sans-Serif" font-size="10.00">/OrbitRawData.h</text>
</g>
<!-- Node2 -->
<g id="node2" class="node"><title>Node2</title>
<g id="a_node2"><a xlink:href="../../d9/d80/InteractionRecord_8h.html" target="_top" xlink:title="CommonDataFormat/Interaction\lRecord.h">
<polygon fill="none" stroke="black" points="145.5,-56.5 145.5,-86.5 302.5,-86.5 302.5,-56.5 145.5,-56.5"/>
<text text-anchor="start" x="153.5" y="-74.5" font-family="Helvetica,sans-Serif" font-size="10.00">CommonDataFormat/Interaction</text>
<text text-anchor="middle" x="224" y="-63.5" font-family="Helvetica,sans-Serif" font-size="10.00">Record.h</text>
</a>
</g>
</g>
<!-- Node1&#45;&gt;Node2 -->
<g id="edge1" class="edge"><title>Node1&#45;&gt;Node2</title>
<path fill="none" stroke="midnightblue" d="M347.709,-123.421C320.704,-112.305 291.079,-100.111 267.592,-90.443"/>
<polygon fill="midnightblue" stroke="midnightblue" points="268.835,-87.1701 258.256,-86.6003 266.171,-93.6432 268.835,-87.1701"/>
</g>
<!-- Node3 -->
<g id="node3" class="node"><title>Node3</title>
<polygon fill="none" stroke="#bfbfbf" points="0,-0.5 0,-19.5 56,-19.5 56,-0.5 0,-0.5"/>
<text text-anchor="middle" x="28" y="-7.5" font-family="Helvetica,sans-Serif" font-size="10.00">Rtypes.h</text>
</g>
<!-- Node1&#45;&gt;Node3 -->
<g id="edge13" class="edge"><title>Node1&#45;&gt;Node3</title>
<path fill="none" stroke="midnightblue" d="M344.455,-144.056C285.405,-134.558 203.12,-117.108 136,-87 101.039,-71.3177 65.6969,-43.7208 45.3712,-26.4494"/>
<polygon fill="midnightblue" stroke="midnightblue" points="47.4762,-23.6424 37.6245,-19.7444 42.8951,-28.9352 47.4762,-23.6424"/>
</g>
<!-- Node8 -->
<g id="node8" class="node"><title>Node8</title>
<g id="a_node8"><a xlink:href="../../d3/dd7/Detectors_2ZDC_2base_2include_2ZDCBase_2Constants_8h.html" target="_top" xlink:title="ZDCBase/Constants.h">
<polygon fill="none" stroke="black" points="499,-62 499,-81 615,-81 615,-62 499,-62"/>
<text text-anchor="middle" x="557" y="-69" font-family="Helvetica,sans-Serif" font-size="10.00">ZDCBase/Constants.h</text>
</a>
</g>
</g>
<!-- Node1&#45;&gt;Node8 -->
<g id="edge7" class="edge"><title>Node1&#45;&gt;Node8</title>
<path fill="none" stroke="midnightblue" d="M472.653,-123.421C493.864,-110.615 517.446,-96.379 534.27,-86.2222"/>
<polygon fill="midnightblue" stroke="midnightblue" points="536.111,-89.199 542.863,-81.0343 532.494,-83.2063 536.111,-89.199"/>
</g>
<!-- Node13 -->
<g id="node13" class="node"><title>Node13</title>
<polygon fill="none" stroke="#bfbfbf" points="633,-62 633,-81 671,-81 671,-62 633,-62"/>
<text text-anchor="middle" x="652" y="-69" font-family="Helvetica,sans-Serif" font-size="10.00">array</text>
</g>
<!-- Node1&#45;&gt;Node13 -->
<g id="edge14" class="edge"><title>Node1&#45;&gt;Node13</title>
<path fill="none" stroke="midnightblue" d="M499.79,-131.35C537.771,-119.498 583.827,-103.94 624,-87 625.034,-86.564 626.082,-86.1048 627.135,-85.629"/>
<polygon fill="midnightblue" stroke="midnightblue" points="629.046,-88.5917 636.51,-81.0727 625.986,-82.2958 629.046,-88.5917"/>
</g>
<!-- Node2&#45;&gt;Node3 -->
<g id="edge2" class="edge"><title>Node2&#45;&gt;Node3</title>
<path fill="none" stroke="midnightblue" d="M177.551,-56.3993C143.535,-46.0733 97.9369,-32.2309 66.0667,-22.5559"/>
<polygon fill="midnightblue" stroke="midnightblue" points="66.8191,-19.1267 56.2336,-19.5709 64.7857,-25.8249 66.8191,-19.1267"/>
</g>
<!-- Node4 -->
<g id="node4" class="node"><title>Node4</title>
<polygon fill="none" stroke="#bfbfbf" points="74.5,-0.5 74.5,-19.5 119.5,-19.5 119.5,-0.5 74.5,-0.5"/>
<text text-anchor="middle" x="97" y="-7.5" font-family="Helvetica,sans-Serif" font-size="10.00">iosfwd</text>
</g>
<!-- Node2&#45;&gt;Node4 -->
<g id="edge3" class="edge"><title>Node2&#45;&gt;Node4</title>
<path fill="none" stroke="midnightblue" d="M193.903,-56.3993C172.88,-46.55 145.028,-33.5014 124.581,-23.9217"/>
<polygon fill="midnightblue" stroke="midnightblue" points="126.02,-20.7309 115.48,-19.6578 123.05,-27.0698 126.02,-20.7309"/>
</g>
<!-- Node5 -->
<g id="node5" class="node"><title>Node5</title>
<polygon fill="none" stroke="#bfbfbf" points="138,-0.5 138,-19.5 182,-19.5 182,-0.5 138,-0.5"/>
<text text-anchor="middle" x="160" y="-7.5" font-family="Helvetica,sans-Serif" font-size="10.00">cmath</text>
</g>
<!-- Node2&#45;&gt;Node5 -->
<g id="edge4" class="edge"><title>Node2&#45;&gt;Node5</title>
<path fill="none" stroke="midnightblue" d="M208.833,-56.3993C199.245,-47.4859 186.839,-35.9523 176.931,-26.7408"/>
<polygon fill="midnightblue" stroke="midnightblue" points="179.02,-23.9033 169.313,-19.6578 174.253,-29.0301 179.02,-23.9033"/>
</g>
<!-- Node6 -->
<g id="node6" class="node"><title>Node6</title>
<polygon fill="none" stroke="#bfbfbf" points="396,-0.5 396,-19.5 442,-19.5 442,-0.5 396,-0.5"/>
<text text-anchor="middle" x="419" y="-7.5" font-family="Helvetica,sans-Serif" font-size="10.00">cstdint</text>
</g>
<!-- Node2&#45;&gt;Node6 -->
<g id="edge5" class="edge"><title>Node2&#45;&gt;Node6</title>
<path fill="none" stroke="midnightblue" d="M270.212,-56.3993C305.883,-45.5151 354.358,-30.7241 386.146,-21.0248"/>
<polygon fill="midnightblue" stroke="midnightblue" points="387.299,-24.3321 395.843,-18.066 385.256,-17.6369 387.299,-24.3321"/>
</g>
<!-- Node7 -->
<g id="node7" class="node"><title>Node7</title>
<g id="a_node7"><a xlink:href="../../d4/dc6/LHCConstants_8h.html" target="_top" xlink:title="Header to collect LHC related constants. ">
<polygon fill="none" stroke="black" points="200,-0.5 200,-19.5 378,-19.5 378,-0.5 200,-0.5"/>
<text text-anchor="middle" x="289" y="-7.5" font-family="Helvetica,sans-Serif" font-size="10.00">CommonConstants/LHCConstants.h</text>
</a>
</g>
</g>
<!-- Node2&#45;&gt;Node7 -->
<g id="edge6" class="edge"><title>Node2&#45;&gt;Node7</title>
<path fill="none" stroke="midnightblue" d="M239.404,-56.3993C249.239,-47.3967 261.993,-35.7214 272.105,-26.4652"/>
<polygon fill="midnightblue" stroke="midnightblue" points="274.529,-28.9916 279.542,-19.6578 269.802,-23.8282 274.529,-28.9916"/>
</g>
<!-- Node8&#45;&gt;Node6 -->
<g id="edge9" class="edge"><title>Node8&#45;&gt;Node6</title>
<path fill="none" stroke="midnightblue" d="M537.228,-61.9751C513.864,-51.9013 474.786,-35.0525 447.997,-23.5023"/>
<polygon fill="midnightblue" stroke="midnightblue" points="449.304,-20.2544 438.735,-19.5091 446.532,-26.6824 449.304,-20.2544"/>
</g>
<!-- Node9 -->
<g id="node9" class="node"><title>Node9</title>
<g id="a_node9"><a xlink:href="../../d3/d9d/PhysicsConstants_8h.html" target="_top" xlink:title="Header to collect physics constants. ">
<polygon fill="none" stroke="black" points="460.5,-0.5 460.5,-19.5 653.5,-19.5 653.5,-0.5 460.5,-0.5"/>
<text text-anchor="middle" x="557" y="-7.5" font-family="Helvetica,sans-Serif" font-size="10.00">CommonConstants/PhysicsConstants.h</text>
</a>
</g>
</g>
<!-- Node8&#45;&gt;Node9 -->
<g id="edge8" class="edge"><title>Node8&#45;&gt;Node9</title>
<path fill="none" stroke="midnightblue" d="M557,-61.9751C557,-53.5803 557,-40.4806 557,-29.6631"/>
<polygon fill="midnightblue" stroke="midnightblue" points="560.5,-29.5091 557,-19.5091 553.5,-29.5091 560.5,-29.5091"/>
</g>
<!-- Node10 -->
<g id="node10" class="node"><title>Node10</title>
<polygon fill="none" stroke="#bfbfbf" points="672,-0.5 672,-19.5 738,-19.5 738,-0.5 672,-0.5"/>
<text text-anchor="middle" x="705" y="-7.5" font-family="Helvetica,sans-Serif" font-size="10.00">string_view</text>
</g>
<!-- Node8&#45;&gt;Node10 -->
<g id="edge10" class="edge"><title>Node8&#45;&gt;Node10</title>
<path fill="none" stroke="midnightblue" d="M578.205,-61.9751C603.372,-51.8571 645.54,-34.9046 674.279,-23.3507"/>
<polygon fill="midnightblue" stroke="midnightblue" points="675.862,-26.4867 683.835,-19.5091 673.251,-19.9919 675.862,-26.4867"/>
</g>
<!-- Node11 -->
<g id="node11" class="node"><title>Node11</title>
<polygon fill="none" stroke="#bfbfbf" points="756.5,-0.5 756.5,-19.5 797.5,-19.5 797.5,-0.5 756.5,-0.5"/>
<text text-anchor="middle" x="777" y="-7.5" font-family="Helvetica,sans-Serif" font-size="10.00">string</text>
</g>
<!-- Node8&#45;&gt;Node11 -->
<g id="edge11" class="edge"><title>Node8&#45;&gt;Node11</title>
<path fill="none" stroke="midnightblue" d="M590.38,-61.9695C626.462,-52.6731 685.891,-37.1449 746.615,-20.041"/>
<polygon fill="midnightblue" stroke="midnightblue" points="747.698,-23.372 756.368,-17.2831 745.793,-16.6361 747.698,-23.372"/>
</g>
<!-- Node12 -->
<g id="node12" class="node"><title>Node12</title>
<polygon fill="none" stroke="#bfbfbf" points="816,-0.5 816,-19.5 878,-19.5 878,-0.5 816,-0.5"/>
<text text-anchor="middle" x="847" y="-7.5" font-family="Helvetica,sans-Serif" font-size="10.00">type_traits</text>
</g>
<!-- Node8&#45;&gt;Node12 -->
<g id="edge12" class="edge"><title>Node8&#45;&gt;Node12</title>
<path fill="none" stroke="midnightblue" d="M595.945,-61.9415C605.138,-59.9574 614.909,-57.8778 624,-56 702.008,-39.8875 724.18,-37.2885 805.373,-20.3"/>
<polygon fill="midnightblue" stroke="midnightblue" points="806.509,-23.6378 815.575,-18.1551 805.068,-16.7876 806.509,-23.6378"/>
</g>
</g>
</svg>
