<?xml version="1.0" encoding="UTF-8" standalone="no"?>
<!DOCTYPE svg PUBLIC "-//W3C//DTD SVG 1.1//EN"
 "http://www.w3.org/Graphics/SVG/1.1/DTD/svg11.dtd">
<!-- Generated by graphviz version 2.38.0 (20140413.2041)
 -->
<!-- Title: o2::framework::InputObject Pages: 1 -->
<svg width="181pt" height="171pt"
 viewBox="0.00 0.00 181.00 171.00" xmlns="http://www.w3.org/2000/svg" xmlns:xlink="http://www.w3.org/1999/xlink">
<g id="graph0" class="graph" transform="scale(1 1) rotate(0) translate(4 167)">
<title>o2::framework::InputObject</title>
<!-- Node1 -->
<g id="node1" class="node"><title>Node1</title>
<polygon fill="#bfbfbf" stroke="black" points="26,-0.5 26,-57.5 161,-57.5 161,-0.5 26,-0.5"/>
<text text-anchor="middle" x="93.5" y="-45.5" font-family="Helvetica,sans-Serif" font-size="10.00">o2::framework::InputObject</text>
<polyline fill="none" stroke="black" points="26,-38.5 161,-38.5 "/>
<text text-anchor="middle" x="93.5" y="-26.5" font-family="Helvetica,sans-Serif" font-size="10.00"> </text>
<polyline fill="none" stroke="black" points="26,-19.5 161,-19.5 "/>
<text text-anchor="middle" x="93.5" y="-7.5" font-family="Helvetica,sans-Serif" font-size="10.00"> </text>
</g>
<!-- Node2 -->
<g id="node2" class="node"><title>Node2</title>
<polygon fill="none" stroke="#bfbfbf" points="0,-105.5 0,-162.5 55,-162.5 55,-105.5 0,-105.5"/>
<text text-anchor="middle" x="27.5" y="-150.5" font-family="Helvetica,sans-Serif" font-size="10.00">TClass *</text>
<polyline fill="none" stroke="#bfbfbf" points="0,-143.5 55,-143.5 "/>
<text text-anchor="middle" x="27.5" y="-131.5" font-family="Helvetica,sans-Serif" font-size="10.00"> </text>
<polyline fill="none" stroke="#bfbfbf" points="0,-124.5 55,-124.5 "/>
<text text-anchor="middle" x="27.5" y="-112.5" font-family="Helvetica,sans-Serif" font-size="10.00"> </text>
</g>
<!-- Node2&#45;&gt;Node1 -->
<g id="edge1" class="edge"><title>Node2&#45;&gt;Node1</title>
<path fill="none" stroke="#404040" d="M43.5444,-105.219C49.0935,-95.8511 55.4421,-85.3928 61.5,-76 63.268,-73.2586 65.1219,-70.4462 67.0088,-67.6284"/>
<polygon fill="none" stroke="#404040" points="67.1389,-67.4372 67.209,-60.2265 73.8921,-57.5178 73.822,-64.7286 67.1389,-67.4372"/>
<text text-anchor="middle" x="75.5" y="-79" font-family="Helvetica,sans-Serif" font-size="10.00"> +kind</text>
</g>
<!-- Node3 -->
<g id="node3" class="node"><title>Node3</title>
<polygon fill="none" stroke="#bfbfbf" points="73,-105.5 73,-162.5 114,-162.5 114,-105.5 73,-105.5"/>
<text text-anchor="middle" x="93.5" y="-150.5" font-family="Helvetica,sans-Serif" font-size="10.00">string</text>
<polyline fill="none" stroke="#bfbfbf" points="73,-143.5 114,-143.5 "/>
<text text-anchor="middle" x="93.5" y="-131.5" font-family="Helvetica,sans-Serif" font-size="10.00"> </text>
<polyline fill="none" stroke="#bfbfbf" points="73,-124.5 114,-124.5 "/>
<text text-anchor="middle" x="93.5" y="-112.5" font-family="Helvetica,sans-Serif" font-size="10.00"> </text>
</g>
<!-- Node3&#45;&gt;Node1 -->
<g id="edge2" class="edge"><title>Node3&#45;&gt;Node1</title>
<path fill="none" stroke="#404040" d="M93.5,-105.398C93.5,-94.5451 93.5,-81.8731 93.5,-70.0493"/>
<polygon fill="none" stroke="#404040" points="93.5001,-69.6783 89.5,-63.6783 93.5,-57.6783 97.5,-63.6783 93.5001,-69.6783"/>
<text text-anchor="middle" x="110.5" y="-79" font-family="Helvetica,sans-Serif" font-size="10.00"> +name</text>
</g>
<!-- Node4 -->
<g id="node4" class="node"><title>Node4</title>
<polygon fill="none" stroke="#bfbfbf" points="132,-105.5 132,-162.5 173,-162.5 173,-105.5 132,-105.5"/>
<text text-anchor="middle" x="152.5" y="-150.5" font-family="Helvetica,sans-Serif" font-size="10.00">void *</text>
<polyline fill="none" stroke="#bfbfbf" points="132,-143.5 173,-143.5 "/>
<text text-anchor="middle" x="152.5" y="-131.5" font-family="Helvetica,sans-Serif" font-size="10.00"> </text>
<polyline fill="none" stroke="#bfbfbf" points="132,-124.5 173,-124.5 "/>
<text text-anchor="middle" x="152.5" y="-112.5" font-family="Helvetica,sans-Serif" font-size="10.00"> </text>
</g>
<!-- Node4&#45;&gt;Node1 -->
<g id="edge3" class="edge"><title>Node4&#45;&gt;Node1</title>
<path fill="none" stroke="#404040" d="M143.743,-105.246C140.222,-95.6839 135.744,-85.0982 130.5,-76 128.877,-73.1835 127.088,-70.3588 125.199,-67.5711"/>
<polygon fill="none" stroke="#404040" points="125.094,-67.427 118.331,-64.9244 118.04,-57.7192 124.803,-60.2217 125.094,-67.427"/>
<text text-anchor="middle" x="146.5" y="-79" font-family="Helvetica,sans-Serif" font-size="10.00"> +obj</text>
</g>
</g>
</svg>
