<?xml version="1.0" encoding="UTF-8" standalone="no"?>
<!DOCTYPE svg PUBLIC "-//W3C//DTD SVG 1.1//EN"
 "http://www.w3.org/Graphics/SVG/1.1/DTD/svg11.dtd">
<!-- Generated by graphviz version 2.38.0 (20140413.2041)
 -->
<!-- Title: /home/travis/build/AliceO2Group/AliceO2/Detectors/MUON/MID/Raw/src/CRUUserLogicDecoder.cxx Pages: 1 -->
<!--zoomable 296 -->
<svg id="main" version="1.1" xmlns="http://www.w3.org/2000/svg" xmlns:xlink="http://www.w3.org/1999/xlink" xml:space="preserve" onload="init(evt)">
<style type="text/css"><![CDATA[
.edge:hover path { stroke: red; }
.edge:hover polygon { stroke: red; fill: red; }
]]></style>
<script type="text/javascript"><![CDATA[
var edges = document.getElementsByTagName('g');
if (edges && edges.length) {
  for (var i=0;i<edges.length;i++) {
    if (edges[i].id.substr(0,4)=='edge') {
      edges[i].setAttribute('class','edge');
    }
  }
}
]]></script>
        <defs>
                <circle id="rim" cx="0" cy="0" r="7"/>
                <circle id="rim2" cx="0" cy="0" r="3.5"/>
                <g id="zoomPlus">
                        <use xlink:href="#rim" fill="#404040">
                                <set attributeName="fill" to="#808080" begin="zoomplus.mouseover" end="zoomplus.mouseout"/>
                        </use>
                        <path d="M-4,0h8M0,-4v8" fill="none" stroke="white" stroke-width="1.5" pointer-events="none"/>
                </g>
                <g id="zoomMin">
                        <use xlink:href="#rim" fill="#404040">
                                <set attributeName="fill" to="#808080" begin="zoomminus.mouseover" end="zoomminus.mouseout"/>
                        </use>
                        <path d="M-4,0h8" fill="none" stroke="white" stroke-width="1.5" pointer-events="none"/>
                </g>
                <g id="dirArrow">
                        <path fill="none" stroke="white" stroke-width="1.5" d="M0,-3.0v7 M-2.5,-0.5L0,-3.0L2.5,-0.5"/>
                </g>
               <g id="resetDef">
                       <use xlink:href="#rim2" fill="#404040">
                               <set attributeName="fill" to="#808080" begin="reset.mouseover" end="reset.mouseout"/>
                       </use>
               </g>
        </defs>

<script type="text/javascript">
var viewWidth = 1077;
var viewHeight = 296;
var sectionId = 'dynsection-0';
</script>
<script xlink:href="../../svgpan.js"/>
<svg id="graph" class="graph">
<g id="viewport">
<title>/home/travis/build/AliceO2Group/AliceO2/Detectors/MUON/MID/Raw/src/CRUUserLogicDecoder.cxx</title>
<!-- Node1 -->
<g id="node1" class="node"><title>Node1</title>
<polygon fill="#bfbfbf" stroke="black" points="613,-235.5 613,-287.5 771,-287.5 771,-235.5 613,-235.5"/>
<text text-anchor="start" x="621" y="-275.5" font-family="Helvetica,sans-Serif" font-size="10.00">/home/travis/build</text>
<text text-anchor="start" x="621" y="-264.5" font-family="Helvetica,sans-Serif" font-size="10.00">/AliceO2Group/AliceO2</text>
<text text-anchor="start" x="621" y="-253.5" font-family="Helvetica,sans-Serif" font-size="10.00">/Detectors/MUON/MID/Raw</text>
<text text-anchor="middle" x="692" y="-242.5" font-family="Helvetica,sans-Serif" font-size="10.00">/src/CRUUserLogicDecoder.cxx</text>
</g>
<!-- Node2 -->
<g id="node2" class="node"><title>Node2</title>
<g id="a_node2"><a xlink:href="../../da/d46/CRUUserLogicDecoder_8h.html" target="_top" xlink:title="MID CRU user logic decoder. ">
<polygon fill="none" stroke="black" points="720,-179.5 720,-198.5 890,-198.5 890,-179.5 720,-179.5"/>
<text text-anchor="middle" x="805" y="-186.5" font-family="Helvetica,sans-Serif" font-size="10.00">MIDRaw/CRUUserLogicDecoder.h</text>
</a>
</g>
</g>
<!-- Node1&#45;&gt;Node2 -->
<g id="edge1" class="edge"><title>Node1&#45;&gt;Node2</title>
<path fill="none" stroke="midnightblue" d="M732.158,-235.446C749.122,-224.862 768.237,-212.936 782.628,-203.958"/>
<polygon fill="midnightblue" stroke="midnightblue" points="784.701,-206.79 791.333,-198.527 780.996,-200.851 784.701,-206.79"/>
</g>
<!-- Node18 -->
<g id="node18" class="node"><title>Node18</title>
<g id="a_node18"><a xlink:href="../../d7/d1a/RawInfo_8h.html" target="_top" xlink:title="Raw data format MID. ">
<polygon fill="none" stroke="black" points="1004,-179.5 1004,-198.5 1066,-198.5 1066,-179.5 1004,-179.5"/>
<text text-anchor="middle" x="1035" y="-186.5" font-family="Helvetica,sans-Serif" font-size="10.00">RawInfo.h</text>
</a>
</g>
</g>
<!-- Node1&#45;&gt;Node18 -->
<g id="edge25" class="edge"><title>Node1&#45;&gt;Node18</title>
<path fill="none" stroke="midnightblue" d="M771.122,-244.237C840.635,-229.95 939.01,-209.73 993.899,-198.448"/>
<polygon fill="midnightblue" stroke="midnightblue" points="994.86,-201.824 1003.95,-196.382 993.45,-194.967 994.86,-201.824"/>
</g>
<!-- Node19 -->
<g id="node19" class="node"><title>Node19</title>
<g id="a_node19"><a xlink:href="../../d2/da5/CrateParameters_8h.html" target="_top" xlink:title="MID RO crate parameters. ">
<polygon fill="none" stroke="black" points="404.5,-123.5 404.5,-142.5 545.5,-142.5 545.5,-123.5 404.5,-123.5"/>
<text text-anchor="middle" x="475" y="-130.5" font-family="Helvetica,sans-Serif" font-size="10.00">MIDRaw/CrateParameters.h</text>
</a>
</g>
</g>
<!-- Node1&#45;&gt;Node19 -->
<g id="edge27" class="edge"><title>Node1&#45;&gt;Node19</title>
<path fill="none" stroke="midnightblue" d="M648.868,-235.356C603.71,-209.032 534.467,-168.666 498.506,-147.703"/>
<polygon fill="midnightblue" stroke="midnightblue" points="500.106,-144.584 489.704,-142.572 496.581,-150.632 500.106,-144.584"/>
</g>
<!-- Node20 -->
<g id="node20" class="node"><title>Node20</title>
<g id="a_node20"><a xlink:href="../../de/da4/Triggers_8h.html" target="_top" xlink:title="Definition of the Alpide triggers defined in https://twiki.cern.ch/twiki/pub/ALICE/NoteForFEDeveloper...">
<polygon fill="none" stroke="black" points="316,-62 316,-81 464,-81 464,-62 316,-62"/>
<text text-anchor="middle" x="390" y="-69" font-family="Helvetica,sans-Serif" font-size="10.00">CommonConstants/Triggers.h</text>
</a>
</g>
</g>
<!-- Node1&#45;&gt;Node20 -->
<g id="edge30" class="edge"><title>Node1&#45;&gt;Node20</title>
<path fill="none" stroke="midnightblue" d="M612.84,-252.322C543.334,-240.593 445.642,-212.102 395,-143 384.144,-128.187 384.273,-106.596 386.253,-91.2169"/>
<polygon fill="midnightblue" stroke="midnightblue" points="389.714,-91.7385 387.891,-81.3017 382.808,-90.5973 389.714,-91.7385"/>
</g>
<!-- Node3 -->
<g id="node3" class="node"><title>Node3</title>
<polygon fill="none" stroke="#bfbfbf" points="669,-0.5 669,-19.5 715,-19.5 715,-0.5 669,-0.5"/>
<text text-anchor="middle" x="692" y="-7.5" font-family="Helvetica,sans-Serif" font-size="10.00">cstdint</text>
</g>
<!-- Node2&#45;&gt;Node3 -->
<g id="edge2" class="edge"><title>Node2&#45;&gt;Node3</title>
<path fill="none" stroke="midnightblue" d="M882.173,-179.497C933.655,-172.355 995.366,-160.479 1015,-143 1044.56,-116.684 1060.1,-85.7554 1034,-56 1013.78,-32.9507 807.085,-17.9829 725.173,-12.9157"/>
<polygon fill="midnightblue" stroke="midnightblue" points="725.341,-9.4195 715.147,-12.3065 724.916,-16.4066 725.341,-9.4195"/>
</g>
<!-- Node4 -->
<g id="node4" class="node"><title>Node4</title>
<polygon fill="none" stroke="#bfbfbf" points="880,-62 880,-81 924,-81 924,-62 880,-62"/>
<text text-anchor="middle" x="902" y="-69" font-family="Helvetica,sans-Serif" font-size="10.00">vector</text>
</g>
<!-- Node2&#45;&gt;Node4 -->
<g id="edge3" class="edge"><title>Node2&#45;&gt;Node4</title>
<path fill="none" stroke="midnightblue" d="M812.291,-179.319C828.371,-160.172 867.11,-114.044 888.033,-89.1306"/>
<polygon fill="midnightblue" stroke="midnightblue" points="890.874,-91.1906 894.625,-81.282 885.513,-86.6888 890.874,-91.1906"/>
</g>
<!-- Node5 -->
<g id="node5" class="node"><title>Node5</title>
<polygon fill="none" stroke="#bfbfbf" points="980.5,-62 980.5,-81 1025.5,-81 1025.5,-62 980.5,-62"/>
<text text-anchor="middle" x="1003" y="-69" font-family="Helvetica,sans-Serif" font-size="10.00">gsl/gsl</text>
</g>
<!-- Node2&#45;&gt;Node5 -->
<g id="edge4" class="edge"><title>Node2&#45;&gt;Node5</title>
<path fill="none" stroke="midnightblue" d="M878.953,-179.48C925.828,-172.464 980.458,-160.749 996,-143 1008.26,-129.001 1008.47,-106.928 1006.6,-91.2116"/>
<polygon fill="midnightblue" stroke="midnightblue" points="1010.02,-90.4316 1005.01,-81.0978 1003.1,-91.5205 1010.02,-90.4316"/>
</g>
<!-- Node6 -->
<g id="node6" class="node"><title>Node6</title>
<g id="a_node6"><a xlink:href="../../d2/df9/MUON_2MID_2include_2DataFormatsMID_2ROFRecord_8h.html" target="_top" xlink:title="Definition of the MID event record. ">
<polygon fill="none" stroke="black" points="166,-123.5 166,-142.5 322,-142.5 322,-123.5 166,-123.5"/>
<text text-anchor="middle" x="244" y="-130.5" font-family="Helvetica,sans-Serif" font-size="10.00">DataFormatsMID/ROFRecord.h</text>
</a>
</g>
</g>
<!-- Node2&#45;&gt;Node6 -->
<g id="edge5" class="edge"><title>Node2&#45;&gt;Node6</title>
<path fill="none" stroke="midnightblue" d="M719.796,-179.799C615.125,-169.723 438.425,-152.715 332.339,-142.503"/>
<polygon fill="midnightblue" stroke="midnightblue" points="332.587,-139.011 322.297,-141.537 331.916,-145.979 332.587,-139.011"/>
</g>
<!-- Node12 -->
<g id="node12" class="node"><title>Node12</title>
<g id="a_node12"><a xlink:href="../../d3/d4a/LocalBoardRO_8h.html" target="_top" xlink:title="Structure to store the FEE local board information. ">
<polygon fill="none" stroke="black" points="563.5,-123.5 563.5,-142.5 694.5,-142.5 694.5,-123.5 563.5,-123.5"/>
<text text-anchor="middle" x="629" y="-130.5" font-family="Helvetica,sans-Serif" font-size="10.00">MIDRaw/LocalBoardRO.h</text>
</a>
</g>
</g>
<!-- Node2&#45;&gt;Node12 -->
<g id="edge12" class="edge"><title>Node2&#45;&gt;Node12</title>
<path fill="none" stroke="midnightblue" d="M777.112,-179.444C747.246,-170.28 699.685,-155.688 666.544,-145.519"/>
<polygon fill="midnightblue" stroke="midnightblue" points="667.344,-142.104 656.757,-142.516 665.291,-148.796 667.344,-142.104"/>
</g>
<!-- Node14 -->
<g id="node14" class="node"><title>Node14</title>
<g id="a_node14"><a xlink:href="../../db/d21/MUON_2MID_2Raw_2include_2MIDRaw_2RawBuffer_8h.html" target="_top" xlink:title="Handler of the RAW buffer. ">
<polygon fill="none" stroke="black" points="874.5,-123.5 874.5,-142.5 987.5,-142.5 987.5,-123.5 874.5,-123.5"/>
<text text-anchor="middle" x="931" y="-130.5" font-family="Helvetica,sans-Serif" font-size="10.00">MIDRaw/RawBuffer.h</text>
</a>
</g>
</g>
<!-- Node2&#45;&gt;Node14 -->
<g id="edge15" class="edge"><title>Node2&#45;&gt;Node14</title>
<path fill="none" stroke="midnightblue" d="M824.965,-179.444C845.609,-170.596 878.063,-156.687 901.632,-146.586"/>
<polygon fill="midnightblue" stroke="midnightblue" points="903.316,-149.673 911.128,-142.516 900.558,-143.239 903.316,-149.673"/>
</g>
<!-- Node16 -->
<g id="node16" class="node"><title>Node16</title>
<g id="a_node16"><a xlink:href="../../df/db7/RawUnit_8h.html" target="_top" xlink:title="Raw data format MID. ">
<polygon fill="none" stroke="black" points="712.5,-123.5 712.5,-142.5 817.5,-142.5 817.5,-123.5 712.5,-123.5"/>
<text text-anchor="middle" x="765" y="-130.5" font-family="Helvetica,sans-Serif" font-size="10.00">MIDRaw/RawUnit.h</text>
</a>
</g>
</g>
<!-- Node2&#45;&gt;Node16 -->
<g id="edge21" class="edge"><title>Node2&#45;&gt;Node16</title>
<path fill="none" stroke="midnightblue" d="M798.395,-179.083C792.745,-171.455 784.455,-160.264 777.549,-150.941"/>
<polygon fill="midnightblue" stroke="midnightblue" points="780.247,-148.703 771.482,-142.751 774.622,-152.87 780.247,-148.703"/>
</g>
<!-- Node7 -->
<g id="node7" class="node"><title>Node7</title>
<g id="a_node7"><a xlink:href="../../d9/d80/InteractionRecord_8h.html" target="_top" xlink:title="CommonDataFormat/Interaction\lRecord.h">
<polygon fill="none" stroke="black" points="140.5,-56.5 140.5,-86.5 297.5,-86.5 297.5,-56.5 140.5,-56.5"/>
<text text-anchor="start" x="148.5" y="-74.5" font-family="Helvetica,sans-Serif" font-size="10.00">CommonDataFormat/Interaction</text>
<text text-anchor="middle" x="219" y="-63.5" font-family="Helvetica,sans-Serif" font-size="10.00">Record.h</text>
</a>
</g>
</g>
<!-- Node6&#45;&gt;Node7 -->
<g id="edge6" class="edge"><title>Node6&#45;&gt;Node7</title>
<path fill="none" stroke="midnightblue" d="M240.418,-123.475C237.38,-116.245 232.876,-105.525 228.781,-95.7792"/>
<polygon fill="midnightblue" stroke="midnightblue" points="231.992,-94.3865 224.892,-86.523 225.539,-97.098 231.992,-94.3865"/>
</g>
<!-- Node7&#45;&gt;Node3 -->
<g id="edge10" class="edge"><title>Node7&#45;&gt;Node3</title>
<path fill="none" stroke="midnightblue" d="M297.654,-57.3521C300.809,-56.8843 303.933,-56.4316 307,-56 436.721,-37.742 591.773,-21.2313 658.627,-14.3676"/>
<polygon fill="midnightblue" stroke="midnightblue" points="659.36,-17.811 668.952,-13.3124 658.648,-10.8473 659.36,-17.811"/>
</g>
<!-- Node8 -->
<g id="node8" class="node"><title>Node8</title>
<polygon fill="none" stroke="#bfbfbf" points="342,-0.5 342,-19.5 398,-19.5 398,-0.5 342,-0.5"/>
<text text-anchor="middle" x="370" y="-7.5" font-family="Helvetica,sans-Serif" font-size="10.00">Rtypes.h</text>
</g>
<!-- Node7&#45;&gt;Node8 -->
<g id="edge7" class="edge"><title>Node7&#45;&gt;Node8</title>
<path fill="none" stroke="midnightblue" d="M254.785,-56.3993C280.233,-46.3717 314.097,-33.028 338.518,-23.405"/>
<polygon fill="midnightblue" stroke="midnightblue" points="340.008,-26.5802 348.028,-19.6578 337.441,-20.0676 340.008,-26.5802"/>
</g>
<!-- Node9 -->
<g id="node9" class="node"><title>Node9</title>
<polygon fill="none" stroke="#bfbfbf" points="196.5,-0.5 196.5,-19.5 241.5,-19.5 241.5,-0.5 196.5,-0.5"/>
<text text-anchor="middle" x="219" y="-7.5" font-family="Helvetica,sans-Serif" font-size="10.00">iosfwd</text>
</g>
<!-- Node7&#45;&gt;Node9 -->
<g id="edge8" class="edge"><title>Node7&#45;&gt;Node9</title>
<path fill="none" stroke="midnightblue" d="M219,-56.3993C219,-48.4664 219,-38.458 219,-29.8583"/>
<polygon fill="midnightblue" stroke="midnightblue" points="222.5,-29.6577 219,-19.6578 215.5,-29.6578 222.5,-29.6577"/>
</g>
<!-- Node10 -->
<g id="node10" class="node"><title>Node10</title>
<polygon fill="none" stroke="#bfbfbf" points="260,-0.5 260,-19.5 304,-19.5 304,-0.5 260,-0.5"/>
<text text-anchor="middle" x="282" y="-7.5" font-family="Helvetica,sans-Serif" font-size="10.00">cmath</text>
</g>
<!-- Node7&#45;&gt;Node10 -->
<g id="edge9" class="edge"><title>Node7&#45;&gt;Node10</title>
<path fill="none" stroke="midnightblue" d="M233.93,-56.3993C243.368,-47.4859 255.58,-35.9523 265.333,-26.7408"/>
<polygon fill="midnightblue" stroke="midnightblue" points="267.966,-29.0686 272.833,-19.6578 263.16,-23.9795 267.966,-29.0686"/>
</g>
<!-- Node11 -->
<g id="node11" class="node"><title>Node11</title>
<g id="a_node11"><a xlink:href="../../d4/dc6/LHCConstants_8h.html" target="_top" xlink:title="Header to collect LHC related constants. ">
<polygon fill="none" stroke="black" points="0,-0.5 0,-19.5 178,-19.5 178,-0.5 0,-0.5"/>
<text text-anchor="middle" x="89" y="-7.5" font-family="Helvetica,sans-Serif" font-size="10.00">CommonConstants/LHCConstants.h</text>
</a>
</g>
</g>
<!-- Node7&#45;&gt;Node11 -->
<g id="edge11" class="edge"><title>Node7&#45;&gt;Node11</title>
<path fill="none" stroke="midnightblue" d="M188.192,-56.3993C166.672,-46.55 138.163,-33.5014 117.232,-23.9217"/>
<polygon fill="midnightblue" stroke="midnightblue" points="118.466,-20.6371 107.916,-19.6578 115.552,-27.0021 118.466,-20.6371"/>
</g>
<!-- Node12&#45;&gt;Node3 -->
<g id="edge13" class="edge"><title>Node12&#45;&gt;Node3</title>
<path fill="none" stroke="midnightblue" d="M621.957,-123.465C610.759,-108.792 591.476,-78.2211 605,-56 616.744,-36.7028 639.727,-25.3155 659.122,-18.8252"/>
<polygon fill="midnightblue" stroke="midnightblue" points="660.312,-22.1218 668.859,-15.8616 658.273,-15.4251 660.312,-22.1218"/>
</g>
<!-- Node13 -->
<g id="node13" class="node"><title>Node13</title>
<polygon fill="none" stroke="#bfbfbf" points="520,-62 520,-81 558,-81 558,-62 520,-62"/>
<text text-anchor="middle" x="539" y="-69" font-family="Helvetica,sans-Serif" font-size="10.00">array</text>
</g>
<!-- Node12&#45;&gt;Node13 -->
<g id="edge14" class="edge"><title>Node12&#45;&gt;Node13</title>
<path fill="none" stroke="midnightblue" d="M616.105,-123.475C601.536,-113.843 577.598,-98.0175 560.255,-86.5517"/>
<polygon fill="midnightblue" stroke="midnightblue" points="562.143,-83.6044 551.871,-81.0091 558.283,-89.4437 562.143,-83.6044"/>
</g>
<!-- Node14&#45;&gt;Node3 -->
<g id="edge16" class="edge"><title>Node14&#45;&gt;Node3</title>
<path fill="none" stroke="midnightblue" d="M934.525,-123.297C940.16,-107.811 949.023,-75.2918 933,-56 906.961,-24.6485 785.019,-15.0209 725.226,-12.1597"/>
<polygon fill="midnightblue" stroke="midnightblue" points="725.308,-8.66001 715.163,-11.7143 724.998,-15.6532 725.308,-8.66001"/>
</g>
<!-- Node14&#45;&gt;Node4 -->
<g id="edge17" class="edge"><title>Node14&#45;&gt;Node4</title>
<path fill="none" stroke="midnightblue" d="M926.845,-123.475C922.624,-114.815 915.963,-101.149 910.6,-90.1453"/>
<polygon fill="midnightblue" stroke="midnightblue" points="913.675,-88.4648 906.147,-81.0091 907.382,-91.5317 913.675,-88.4648"/>
</g>
<!-- Node14&#45;&gt;Node5 -->
<g id="edge18" class="edge"><title>Node14&#45;&gt;Node5</title>
<path fill="none" stroke="midnightblue" d="M941.316,-123.475C952.651,-114.108 971.073,-98.8839 984.839,-87.5081"/>
<polygon fill="midnightblue" stroke="midnightblue" points="987.224,-90.0773 992.703,-81.0091 982.765,-84.6813 987.224,-90.0773"/>
</g>
<!-- Node15 -->
<g id="node15" class="node"><title>Node15</title>
<g id="a_node15"><a xlink:href="../../d4/d78/DataFormats_2Headers_2include_2Headers_2RAWDataHeader_8h.html" target="_top" xlink:title="Headers/RAWDataHeader.h">
<polygon fill="none" stroke="black" points="720.5,-62 720.5,-81 861.5,-81 861.5,-62 720.5,-62"/>
<text text-anchor="middle" x="791" y="-69" font-family="Helvetica,sans-Serif" font-size="10.00">Headers/RAWDataHeader.h</text>
</a>
</g>
</g>
<!-- Node14&#45;&gt;Node15 -->
<g id="edge19" class="edge"><title>Node14&#45;&gt;Node15</title>
<path fill="none" stroke="midnightblue" d="M910.941,-123.475C887.238,-113.401 847.594,-96.5525 820.417,-85.0023"/>
<polygon fill="midnightblue" stroke="midnightblue" points="821.594,-81.6994 811.021,-81.0091 818.856,-88.1417 821.594,-81.6994"/>
</g>
<!-- Node15&#45;&gt;Node3 -->
<g id="edge20" class="edge"><title>Node15&#45;&gt;Node3</title>
<path fill="none" stroke="midnightblue" d="M776.816,-61.9751C760.642,-52.2548 733.974,-36.2266 714.857,-24.7372"/>
<polygon fill="midnightblue" stroke="midnightblue" points="716.532,-21.6606 706.158,-19.5091 712.926,-27.6603 716.532,-21.6606"/>
</g>
<!-- Node16&#45;&gt;Node3 -->
<g id="edge22" class="edge"><title>Node16&#45;&gt;Node3</title>
<path fill="none" stroke="midnightblue" d="M749.898,-123.218C737.598,-115.289 720.732,-102.504 711,-87 700.062,-69.5734 695.416,-46.2028 693.446,-29.999"/>
<polygon fill="midnightblue" stroke="midnightblue" points="696.891,-29.2652 692.432,-19.6542 689.924,-29.9479 696.891,-29.2652"/>
</g>
<!-- Node16&#45;&gt;Node15 -->
<g id="edge24" class="edge"><title>Node16&#45;&gt;Node15</title>
<path fill="none" stroke="midnightblue" d="M768.725,-123.475C772.471,-114.904 778.36,-101.427 783.142,-90.483"/>
<polygon fill="midnightblue" stroke="midnightblue" points="786.485,-91.5739 787.282,-81.0091 780.07,-88.771 786.485,-91.5739"/>
</g>
<!-- Node17 -->
<g id="node17" class="node"><title>Node17</title>
<polygon fill="none" stroke="#bfbfbf" points="614.5,-62 614.5,-81 663.5,-81 663.5,-62 614.5,-62"/>
<text text-anchor="middle" x="639" y="-69" font-family="Helvetica,sans-Serif" font-size="10.00">cstddef</text>
</g>
<!-- Node16&#45;&gt;Node17 -->
<g id="edge23" class="edge"><title>Node16&#45;&gt;Node17</title>
<path fill="none" stroke="midnightblue" d="M746.947,-123.475C725.802,-113.49 690.56,-96.8476 666.122,-85.3075"/>
<polygon fill="midnightblue" stroke="midnightblue" points="667.556,-82.1143 657.019,-81.0091 664.567,-88.4441 667.556,-82.1143"/>
</g>
<!-- Node18&#45;&gt;Node3 -->
<g id="edge26" class="edge"><title>Node18&#45;&gt;Node3</title>
<path fill="none" stroke="midnightblue" d="M1040.41,-179.295C1054.09,-156.068 1086.77,-91.9526 1055,-56 1033.32,-31.4718 811.099,-17.2636 725.428,-12.6626"/>
<polygon fill="midnightblue" stroke="midnightblue" points="725.381,-9.15535 715.211,-12.1249 725.013,-16.1457 725.381,-9.15535"/>
</g>
<!-- Node19&#45;&gt;Node3 -->
<g id="edge28" class="edge"><title>Node19&#45;&gt;Node3</title>
<path fill="none" stroke="midnightblue" d="M476.558,-123.455C479.905,-107.629 489.31,-73.7577 511,-56 553.573,-21.1451 619.373,-12.7347 658.809,-11.0196"/>
<polygon fill="midnightblue" stroke="midnightblue" points="659.068,-14.5133 668.954,-10.7014 658.849,-7.51672 659.068,-14.5133"/>
</g>
<!-- Node19&#45;&gt;Node13 -->
<g id="edge29" class="edge"><title>Node19&#45;&gt;Node13</title>
<path fill="none" stroke="midnightblue" d="M484.17,-123.475C494.15,-114.197 510.312,-99.1706 522.509,-87.831"/>
<polygon fill="midnightblue" stroke="midnightblue" points="524.907,-90.3814 529.847,-81.0091 520.14,-85.2547 524.907,-90.3814"/>
</g>
<!-- Node20&#45;&gt;Node3 -->
<g id="edge31" class="edge"><title>Node20&#45;&gt;Node3</title>
<path fill="none" stroke="midnightblue" d="M433.269,-61.9751C494.252,-49.9604 604.148,-28.3085 658.995,-17.5026"/>
<polygon fill="midnightblue" stroke="midnightblue" points="659.751,-20.9211 668.886,-15.5539 658.398,-14.0531 659.751,-20.9211"/>
</g>
<!-- Node20&#45;&gt;Node8 -->
<g id="edge32" class="edge"><title>Node20&#45;&gt;Node8</title>
<path fill="none" stroke="midnightblue" d="M387.134,-61.9751C384.283,-53.4919 379.817,-40.2043 376.159,-29.3222"/>
<polygon fill="midnightblue" stroke="midnightblue" points="379.364,-27.8727 372.86,-19.5091 372.729,-30.1031 379.364,-27.8727"/>
</g>
</g>
</svg>
        <g id="navigator" transform="translate(0 0)" fill="#404254">
                <rect fill="#f2f5e9" fill-opacity="0.5" stroke="#606060" stroke-width=".5" x="0" y="0" width="60" height="60"/>
                <use id="zoomplus" xlink:href="#zoomPlus" x="17" y="9" onmousedown="handleZoom(evt,'in')"/>
                <use id="zoomminus" xlink:href="#zoomMin" x="42" y="9" onmousedown="handleZoom(evt,'out')"/>
                <use id="reset" xlink:href="#resetDef" x="30" y="36" onmousedown="handleReset()"/>
                <g id="arrowUp" xlink:href="#dirArrow" transform="translate(30 24)" onmousedown="handlePan(0,-1)">
                  <use xlink:href="#rim" fill="#404040">
                        <set attributeName="fill" to="#808080" begin="arrowUp.mouseover" end="arrowUp.mouseout"/>
                  </use>
                  <path fill="none" stroke="white" stroke-width="1.5" d="M0,-3.0v7 M-2.5,-0.5L0,-3.0L2.5,-0.5"/>
                </g>
                <g id="arrowRight" xlink:href="#dirArrow" transform="rotate(90) translate(36 -43)" onmousedown="handlePan(1,0)">
                  <use xlink:href="#rim" fill="#404040">
                        <set attributeName="fill" to="#808080" begin="arrowRight.mouseover" end="arrowRight.mouseout"/>
                  </use>
                  <path fill="none" stroke="white" stroke-width="1.5" d="M0,-3.0v7 M-2.5,-0.5L0,-3.0L2.5,-0.5"/>
                </g>
                <g id="arrowDown" xlink:href="#dirArrow" transform="rotate(180) translate(-30 -48)" onmousedown="handlePan(0,1)">
                  <use xlink:href="#rim" fill="#404040">
                        <set attributeName="fill" to="#808080" begin="arrowDown.mouseover" end="arrowDown.mouseout"/>
                  </use>
                  <path fill="none" stroke="white" stroke-width="1.5" d="M0,-3.0v7 M-2.5,-0.5L0,-3.0L2.5,-0.5"/>
                </g>
                <g id="arrowLeft" xlink:href="#dirArrow" transform="rotate(270) translate(-36 17)" onmousedown="handlePan(-1,0)">
                  <use xlink:href="#rim" fill="#404040">
                        <set attributeName="fill" to="#808080" begin="arrowLeft.mouseover" end="arrowLeft.mouseout"/>
                  </use>
                  <path fill="none" stroke="white" stroke-width="1.5" d="M0,-3.0v7 M-2.5,-0.5L0,-3.0L2.5,-0.5"/>
                </g>
        </g>
        <svg viewBox="0 0 15 15" width="100%" height="30px" preserveAspectRatio="xMaxYMin meet">
         <g id="arrow_out" transform="scale(0.3 0.3)">
          <a xlink:href="CRUUserLogicDecoder_8cxx__incl_org.svg" target="_base">
           <rect id="button" ry="5" rx="5" y="6" x="6" height="38" width="38"
                fill="#f2f5e9" fill-opacity="0.5" stroke="#606060" stroke-width="1.0"/>
           <path id="arrow"
             d="M 11.500037,31.436501 C 11.940474,20.09759 22.043105,11.32322 32.158766,21.979434 L 37.068811,17.246167 C 37.068811,17.246167 37.088388,32 37.088388,32 L 22.160133,31.978069 C 22.160133,31.978069 26.997745,27.140456 26.997745,27.140456 C 18.528582,18.264221 13.291696,25.230495 11.500037,31.436501 z"
             style="fill:#404040;"/>
          </a>
         </g>
        </svg>
</svg>
