<?xml version="1.0" encoding="UTF-8" standalone="no"?>
<!DOCTYPE svg PUBLIC "-//W3C//DTD SVG 1.1//EN"
 "http://www.w3.org/Graphics/SVG/1.1/DTD/svg11.dtd">
<!-- Generated by graphviz version 2.38.0 (20140413.2041)
 -->
<!-- Title: o2::tpc::ClusterNative Pages: 1 -->
<svg width="494pt" height="556pt"
 viewBox="0.00 0.00 493.50 556.00" xmlns="http://www.w3.org/2000/svg" xmlns:xlink="http://www.w3.org/1999/xlink">
<g id="graph0" class="graph" transform="scale(1 1) rotate(0) translate(4 552)">
<title>o2::tpc::ClusterNative</title>
<!-- Node1 -->
<g id="node1" class="node"><title>Node1</title>
<polygon fill="#bfbfbf" stroke="black" points="158,-0.5 158,-365.5 271,-365.5 271,-0.5 158,-0.5"/>
<text text-anchor="middle" x="214.5" y="-353.5" font-family="Helvetica,sans-Serif" font-size="10.00">o2::tpc::ClusterNative</text>
<polyline fill="none" stroke="black" points="158,-346.5 271,-346.5 "/>
<text text-anchor="middle" x="214.5" y="-334.5" font-family="Helvetica,sans-Serif" font-size="10.00"> </text>
<polyline fill="none" stroke="black" points="158,-327.5 271,-327.5 "/>
<text text-anchor="start" x="166" y="-315.5" font-family="Helvetica,sans-Serif" font-size="10.00">+ GPUd()</text>
<text text-anchor="start" x="166" y="-304.5" font-family="Helvetica,sans-Serif" font-size="10.00">+ GPUd()</text>
<text text-anchor="start" x="166" y="-293.5" font-family="Helvetica,sans-Serif" font-size="10.00">+ GPUd()</text>
<text text-anchor="start" x="166" y="-282.5" font-family="Helvetica,sans-Serif" font-size="10.00">+ GPUd()</text>
<text text-anchor="start" x="166" y="-271.5" font-family="Helvetica,sans-Serif" font-size="10.00">+ GPUdDefault()</text>
<text text-anchor="start" x="166" y="-260.5" font-family="Helvetica,sans-Serif" font-size="10.00">+ GPUd()</text>
<text text-anchor="start" x="166" y="-249.5" font-family="Helvetica,sans-Serif" font-size="10.00">+ sigmaTimePacked()</text>
<text text-anchor="start" x="166" y="-238.5" font-family="Helvetica,sans-Serif" font-size="10.00">+ sigmaPadPacked()</text>
<text text-anchor="start" x="166" y="-227.5" font-family="Helvetica,sans-Serif" font-size="10.00">+ qMax()</text>
<text text-anchor="start" x="166" y="-216.5" font-family="Helvetica,sans-Serif" font-size="10.00">+ qTot()</text>
<text text-anchor="start" x="166" y="-205.5" font-family="Helvetica,sans-Serif" font-size="10.00">+ GPUd()</text>
<text text-anchor="start" x="166" y="-194.5" font-family="Helvetica,sans-Serif" font-size="10.00">+ GPUd()</text>
<text text-anchor="start" x="166" y="-183.5" font-family="Helvetica,sans-Serif" font-size="10.00">+ GPUd()</text>
<text text-anchor="start" x="166" y="-172.5" font-family="Helvetica,sans-Serif" font-size="10.00">+ GPUd()</text>
<text text-anchor="start" x="166" y="-161.5" font-family="Helvetica,sans-Serif" font-size="10.00">+ GPUd()</text>
<text text-anchor="start" x="166" y="-150.5" font-family="Helvetica,sans-Serif" font-size="10.00">+ GPUd()</text>
<text text-anchor="start" x="166" y="-139.5" font-family="Helvetica,sans-Serif" font-size="10.00">+ GPUd()</text>
<text text-anchor="start" x="166" y="-128.5" font-family="Helvetica,sans-Serif" font-size="10.00">+ GPUd()</text>
<text text-anchor="start" x="166" y="-117.5" font-family="Helvetica,sans-Serif" font-size="10.00">+ GPUd()</text>
<text text-anchor="start" x="166" y="-106.5" font-family="Helvetica,sans-Serif" font-size="10.00">+ GPUd()</text>
<text text-anchor="start" x="166" y="-95.5" font-family="Helvetica,sans-Serif" font-size="10.00">+ GPUd()</text>
<text text-anchor="start" x="166" y="-84.5" font-family="Helvetica,sans-Serif" font-size="10.00">+ GPUd()</text>
<text text-anchor="start" x="166" y="-73.5" font-family="Helvetica,sans-Serif" font-size="10.00">+ GPUd()</text>
<text text-anchor="start" x="166" y="-62.5" font-family="Helvetica,sans-Serif" font-size="10.00">+ GPUd()</text>
<text text-anchor="start" x="166" y="-51.5" font-family="Helvetica,sans-Serif" font-size="10.00">+ GPUd()</text>
<text text-anchor="start" x="166" y="-40.5" font-family="Helvetica,sans-Serif" font-size="10.00">+ GPUd()</text>
<text text-anchor="start" x="166" y="-29.5" font-family="Helvetica,sans-Serif" font-size="10.00">+ GPUd()</text>
<text text-anchor="start" x="166" y="-18.5" font-family="Helvetica,sans-Serif" font-size="10.00">+ GPUd()</text>
<text text-anchor="start" x="166" y="-7.5" font-family="Helvetica,sans-Serif" font-size="10.00">+ GPUd()</text>
</g>
<!-- Node2 -->
<g id="node2" class="node"><title>Node2</title>
<polygon fill="none" stroke="#bfbfbf" points="0,-490.5 0,-547.5 51,-547.5 51,-490.5 0,-490.5"/>
<text text-anchor="middle" x="25.5" y="-535.5" font-family="Helvetica,sans-Serif" font-size="10.00">uint16_t</text>
<polyline fill="none" stroke="#bfbfbf" points="0,-528.5 51,-528.5 "/>
<text text-anchor="middle" x="25.5" y="-516.5" font-family="Helvetica,sans-Serif" font-size="10.00"> </text>
<polyline fill="none" stroke="#bfbfbf" points="0,-509.5 51,-509.5 "/>
<text text-anchor="middle" x="25.5" y="-497.5" font-family="Helvetica,sans-Serif" font-size="10.00"> </text>
</g>
<!-- Node2&#45;&gt;Node1 -->
<g id="edge1" class="edge"><title>Node2&#45;&gt;Node1</title>
<path fill="none" stroke="#404040" d="M26.101,-490.337C27.641,-462.347 32.6596,-418.414 48.5,-384 72.6046,-331.632 113.993,-281.721 149.411,-244.859"/>
<polygon fill="none" stroke="#404040" points="149.426,-244.843 150.75,-237.755 157.803,-236.25 156.479,-243.339 149.426,-244.843"/>
<text text-anchor="middle" x="76" y="-436.5" font-family="Helvetica,sans-Serif" font-size="10.00"> +qTot</text>
<text text-anchor="middle" x="76" y="-425.5" font-family="Helvetica,sans-Serif" font-size="10.00">+padPacked</text>
<text text-anchor="middle" x="76" y="-414.5" font-family="Helvetica,sans-Serif" font-size="10.00">+qMax</text>
</g>
<!-- Node3 -->
<g id="node3" class="node"><title>Node3</title>
<polygon fill="none" stroke="#bfbfbf" points="80.5,-490.5 80.5,-547.5 126.5,-547.5 126.5,-490.5 80.5,-490.5"/>
<text text-anchor="middle" x="103.5" y="-535.5" font-family="Helvetica,sans-Serif" font-size="10.00">uint8_t</text>
<polyline fill="none" stroke="#bfbfbf" points="80.5,-528.5 126.5,-528.5 "/>
<text text-anchor="middle" x="103.5" y="-516.5" font-family="Helvetica,sans-Serif" font-size="10.00"> </text>
<polyline fill="none" stroke="#bfbfbf" points="80.5,-509.5 126.5,-509.5 "/>
<text text-anchor="middle" x="103.5" y="-497.5" font-family="Helvetica,sans-Serif" font-size="10.00"> </text>
</g>
<!-- Node3&#45;&gt;Node1 -->
<g id="edge2" class="edge"><title>Node3&#45;&gt;Node1</title>
<path fill="none" stroke="#404040" d="M105.077,-490.301C107.184,-462.853 111.96,-419.842 122.5,-384 130.425,-357.05 141.383,-329.088 152.979,-302.918"/>
<polygon fill="none" stroke="#404040" points="153.05,-302.76 151.869,-295.647 157.981,-291.82 159.162,-298.934 153.05,-302.76"/>
<text text-anchor="middle" x="166.5" y="-464" font-family="Helvetica,sans-Serif" font-size="10.00"> +qtot</text>
<text text-anchor="middle" x="166.5" y="-453" font-family="Helvetica,sans-Serif" font-size="10.00">+sigmaTimePacked</text>
<text text-anchor="middle" x="166.5" y="-442" font-family="Helvetica,sans-Serif" font-size="10.00">+pad</text>
<text text-anchor="middle" x="166.5" y="-431" font-family="Helvetica,sans-Serif" font-size="10.00">+sigmaTime</text>
<text text-anchor="middle" x="166.5" y="-420" font-family="Helvetica,sans-Serif" font-size="10.00">+flags</text>
<text text-anchor="middle" x="166.5" y="-409" font-family="Helvetica,sans-Serif" font-size="10.00">+sigmaPad</text>
<text text-anchor="middle" x="166.5" y="-398" font-family="Helvetica,sans-Serif" font-size="10.00">+sigmaPadPacked</text>
<text text-anchor="middle" x="166.5" y="-387" font-family="Helvetica,sans-Serif" font-size="10.00">+qmax</text>
</g>
<!-- Node4 -->
<g id="node4" class="node"><title>Node4</title>
<polygon fill="none" stroke="#bfbfbf" points="189,-490.5 189,-547.5 240,-547.5 240,-490.5 189,-490.5"/>
<text text-anchor="middle" x="214.5" y="-535.5" font-family="Helvetica,sans-Serif" font-size="10.00">uint32_t</text>
<polyline fill="none" stroke="#bfbfbf" points="189,-528.5 240,-528.5 "/>
<text text-anchor="middle" x="214.5" y="-516.5" font-family="Helvetica,sans-Serif" font-size="10.00"> </text>
<polyline fill="none" stroke="#bfbfbf" points="189,-509.5 240,-509.5 "/>
<text text-anchor="middle" x="214.5" y="-497.5" font-family="Helvetica,sans-Serif" font-size="10.00"> </text>
</g>
<!-- Node4&#45;&gt;Node1 -->
<g id="edge3" class="edge"><title>Node4&#45;&gt;Node1</title>
<path fill="none" stroke="#404040" d="M214.5,-490.383C214.5,-464.128 214.5,-422.119 214.5,-377.52"/>
<polygon fill="none" stroke="#404040" points="214.5,-377.511 210.5,-371.511 214.5,-365.511 218.5,-371.511 214.5,-377.511"/>
<text text-anchor="middle" x="257" y="-425.5" font-family="Helvetica,sans-Serif" font-size="10.00"> +timeFlagsPacked</text>
</g>
<!-- Node5 -->
<g id="node5" class="node"><title>Node5</title>
<polygon fill="none" stroke="#bfbfbf" points="308,-490.5 308,-547.5 337,-547.5 337,-490.5 308,-490.5"/>
<text text-anchor="middle" x="322.5" y="-535.5" font-family="Helvetica,sans-Serif" font-size="10.00">int</text>
<polyline fill="none" stroke="#bfbfbf" points="308,-528.5 337,-528.5 "/>
<text text-anchor="middle" x="322.5" y="-516.5" font-family="Helvetica,sans-Serif" font-size="10.00"> </text>
<polyline fill="none" stroke="#bfbfbf" points="308,-509.5 337,-509.5 "/>
<text text-anchor="middle" x="322.5" y="-497.5" font-family="Helvetica,sans-Serif" font-size="10.00"> </text>
</g>
<!-- Node5&#45;&gt;Node1 -->
<g id="edge4" class="edge"><title>Node5&#45;&gt;Node1</title>
<path fill="none" stroke="#404040" d="M319.948,-490.36C316.957,-462.957 311.018,-419.979 300.5,-384 293.733,-360.852 284.996,-336.817 275.692,-313.777"/>
<polygon fill="none" stroke="#404040" points="275.643,-313.656 269.664,-309.624 271.086,-302.555 277.065,-306.586 275.643,-313.656"/>
<text text-anchor="middle" x="333" y="-431" font-family="Helvetica,sans-Serif" font-size="10.00"> +f</text>
<text text-anchor="middle" x="333" y="-420" font-family="Helvetica,sans-Serif" font-size="10.00">+qMax</text>
</g>
<!-- Node6 -->
<g id="node6" class="node"><title>Node6</title>
<polygon fill="none" stroke="#bfbfbf" points="356,-490.5 356,-547.5 397,-547.5 397,-490.5 356,-490.5"/>
<text text-anchor="middle" x="376.5" y="-535.5" font-family="Helvetica,sans-Serif" font-size="10.00">static</text>
<polyline fill="none" stroke="#bfbfbf" points="356,-528.5 397,-528.5 "/>
<text text-anchor="middle" x="376.5" y="-516.5" font-family="Helvetica,sans-Serif" font-size="10.00"> </text>
<polyline fill="none" stroke="#bfbfbf" points="356,-509.5 397,-509.5 "/>
<text text-anchor="middle" x="376.5" y="-497.5" font-family="Helvetica,sans-Serif" font-size="10.00"> </text>
</g>
<!-- Node6&#45;&gt;Node1 -->
<g id="edge5" class="edge"><title>Node6&#45;&gt;Node1</title>
<path fill="none" stroke="#404040" d="M374.98,-490.353C372.673,-462.568 366.898,-418.966 352.5,-384 334.368,-339.965 305.393,-295.876 278.664,-260.343"/>
<polygon fill="none" stroke="#404040" points="278.475,-260.095 271.655,-257.751 271.195,-250.555 278.015,-252.898 278.475,-260.095"/>
<text text-anchor="middle" x="429.5" y="-442" font-family="Helvetica,sans-Serif" font-size="10.00"> +scaleTimePacked</text>
<text text-anchor="middle" x="429.5" y="-431" font-family="Helvetica,sans-Serif" font-size="10.00">+scaleSigmaPadPacked</text>
<text text-anchor="middle" x="429.5" y="-420" font-family="Helvetica,sans-Serif" font-size="10.00">+scaleSigmaTimePacked</text>
<text text-anchor="middle" x="429.5" y="-409" font-family="Helvetica,sans-Serif" font-size="10.00">+scalePadPacked</text>
</g>
</g>
</svg>
