<?xml version="1.0" encoding="UTF-8" standalone="no"?>
<!DOCTYPE svg PUBLIC "-//W3C//DTD SVG 1.1//EN"
 "http://www.w3.org/Graphics/SVG/1.1/DTD/svg11.dtd">
<!-- Generated by graphviz version 2.38.0 (20140413.2041)
 -->
<!-- Title: o2::itsmft::ClusterPattern Pages: 1 -->
<svg width="265pt" height="281pt"
 viewBox="0.00 0.00 264.50 281.00" xmlns="http://www.w3.org/2000/svg" xmlns:xlink="http://www.w3.org/1999/xlink">
<g id="graph0" class="graph" transform="scale(1 1) rotate(0) translate(4 277)">
<title>o2::itsmft::ClusterPattern</title>
<!-- Node1 -->
<g id="node1" class="node"><title>Node1</title>
<polygon fill="#bfbfbf" stroke="black" points="25,-0.5 25,-145.5 152,-145.5 152,-0.5 25,-0.5"/>
<text text-anchor="middle" x="88.5" y="-133.5" font-family="Helvetica,sans-Serif" font-size="10.00">o2::itsmft::ClusterPattern</text>
<polyline fill="none" stroke="black" points="25,-126.5 152,-126.5 "/>
<text text-anchor="middle" x="88.5" y="-114.5" font-family="Helvetica,sans-Serif" font-size="10.00"> </text>
<polyline fill="none" stroke="black" points="25,-107.5 152,-107.5 "/>
<text text-anchor="start" x="33" y="-95.5" font-family="Helvetica,sans-Serif" font-size="10.00">+ ClusterPattern()</text>
<text text-anchor="start" x="33" y="-84.5" font-family="Helvetica,sans-Serif" font-size="10.00">+ ClusterPattern()</text>
<text text-anchor="start" x="33" y="-73.5" font-family="Helvetica,sans-Serif" font-size="10.00">+ getPattern()</text>
<text text-anchor="start" x="33" y="-62.5" font-family="Helvetica,sans-Serif" font-size="10.00">+ getByte()</text>
<text text-anchor="start" x="33" y="-51.5" font-family="Helvetica,sans-Serif" font-size="10.00">+ getRowSpan()</text>
<text text-anchor="start" x="33" y="-40.5" font-family="Helvetica,sans-Serif" font-size="10.00">+ getColumnSpan()</text>
<text text-anchor="start" x="33" y="-29.5" font-family="Helvetica,sans-Serif" font-size="10.00">+ getUsedBytes()</text>
<text text-anchor="start" x="33" y="-18.5" font-family="Helvetica,sans-Serif" font-size="10.00">+ setPattern()</text>
<text text-anchor="start" x="33" y="-7.5" font-family="Helvetica,sans-Serif" font-size="10.00">+ setPattern()</text>
</g>
<!-- Node2 -->
<g id="node2" class="node"><title>Node2</title>
<polygon fill="none" stroke="#bfbfbf" points="0,-215.5 0,-272.5 41,-272.5 41,-215.5 0,-215.5"/>
<text text-anchor="middle" x="20.5" y="-260.5" font-family="Helvetica,sans-Serif" font-size="10.00">static</text>
<polyline fill="none" stroke="#bfbfbf" points="0,-253.5 41,-253.5 "/>
<text text-anchor="middle" x="20.5" y="-241.5" font-family="Helvetica,sans-Serif" font-size="10.00"> </text>
<polyline fill="none" stroke="#bfbfbf" points="0,-234.5 41,-234.5 "/>
<text text-anchor="middle" x="20.5" y="-222.5" font-family="Helvetica,sans-Serif" font-size="10.00"> </text>
</g>
<!-- Node2&#45;&gt;Node1 -->
<g id="edge1" class="edge"><title>Node2&#45;&gt;Node1</title>
<path fill="none" stroke="#404040" d="M16.7261,-215.239C15.6315,-199.764 15.9603,-180.371 21.5,-164 22.3624,-161.451 23.3268,-158.916 24.3797,-156.399"/>
<polygon fill="none" stroke="#404040" points="24.3992,-156.358 23.3427,-149.225 29.5209,-145.506 30.5774,-152.639 24.3992,-156.358"/>
<text text-anchor="middle" x="78" y="-178" font-family="Helvetica,sans-Serif" font-size="10.00"> +kExtendedPatternBytes</text>
</g>
<!-- Node3 -->
<g id="node3" class="node"><title>Node3</title>
<polygon fill="none" stroke="#bfbfbf" points="136,-215.5 136,-272.5 177,-272.5 177,-215.5 136,-215.5"/>
<text text-anchor="middle" x="156.5" y="-260.5" font-family="Helvetica,sans-Serif" font-size="10.00">friend</text>
<polyline fill="none" stroke="#bfbfbf" points="136,-253.5 177,-253.5 "/>
<text text-anchor="middle" x="156.5" y="-241.5" font-family="Helvetica,sans-Serif" font-size="10.00"> </text>
<polyline fill="none" stroke="#bfbfbf" points="136,-234.5 177,-234.5 "/>
<text text-anchor="middle" x="156.5" y="-222.5" font-family="Helvetica,sans-Serif" font-size="10.00"> </text>
</g>
<!-- Node3&#45;&gt;Node1 -->
<g id="edge2" class="edge"><title>Node3&#45;&gt;Node1</title>
<path fill="none" stroke="#404040" d="M150.196,-215.135C146.366,-199.803 140.969,-180.579 134.5,-164 133.578,-161.637 132.614,-159.255 131.614,-156.862"/>
<polygon fill="none" stroke="#404040" points="131.511,-156.624 125.445,-152.723 126.713,-145.624 132.778,-149.525 131.511,-156.624"/>
<text text-anchor="middle" x="200.5" y="-189" font-family="Helvetica,sans-Serif" font-size="10.00"> +TopologyDictionary</text>
<text text-anchor="middle" x="200.5" y="-178" font-family="Helvetica,sans-Serif" font-size="10.00">+ClusterTopology</text>
<text text-anchor="middle" x="200.5" y="-167" font-family="Helvetica,sans-Serif" font-size="10.00">+BuildTopologyDictionary</text>
</g>
</g>
</svg>
