<?xml version="1.0" encoding="UTF-8" standalone="no"?>
<!DOCTYPE svg PUBLIC "-//W3C//DTD SVG 1.1//EN"
 "http://www.w3.org/Graphics/SVG/1.1/DTD/svg11.dtd">
<!-- Generated by graphviz version 2.38.0 (20140413.2041)
 -->
<!-- Title: /home/travis/build/AliceO2Group/AliceO2/Detectors/MUON/MID/Clustering/src/PreClusterizer.cxx Pages: 1 -->
<!--zoomable 296 -->
<svg id="main" version="1.1" xmlns="http://www.w3.org/2000/svg" xmlns:xlink="http://www.w3.org/1999/xlink" xml:space="preserve" onload="init(evt)">
<style type="text/css"><![CDATA[
.edge:hover path { stroke: red; }
.edge:hover polygon { stroke: red; fill: red; }
]]></style>
<script type="text/javascript"><![CDATA[
var edges = document.getElementsByTagName('g');
if (edges && edges.length) {
  for (var i=0;i<edges.length;i++) {
    if (edges[i].id.substr(0,4)=='edge') {
      edges[i].setAttribute('class','edge');
    }
  }
}
]]></script>
        <defs>
                <circle id="rim" cx="0" cy="0" r="7"/>
                <circle id="rim2" cx="0" cy="0" r="3.5"/>
                <g id="zoomPlus">
                        <use xlink:href="#rim" fill="#404040">
                                <set attributeName="fill" to="#808080" begin="zoomplus.mouseover" end="zoomplus.mouseout"/>
                        </use>
                        <path d="M-4,0h8M0,-4v8" fill="none" stroke="white" stroke-width="1.5" pointer-events="none"/>
                </g>
                <g id="zoomMin">
                        <use xlink:href="#rim" fill="#404040">
                                <set attributeName="fill" to="#808080" begin="zoomminus.mouseover" end="zoomminus.mouseout"/>
                        </use>
                        <path d="M-4,0h8" fill="none" stroke="white" stroke-width="1.5" pointer-events="none"/>
                </g>
                <g id="dirArrow">
                        <path fill="none" stroke="white" stroke-width="1.5" d="M0,-3.0v7 M-2.5,-0.5L0,-3.0L2.5,-0.5"/>
                </g>
               <g id="resetDef">
                       <use xlink:href="#rim2" fill="#404040">
                               <set attributeName="fill" to="#808080" begin="reset.mouseover" end="reset.mouseout"/>
                       </use>
               </g>
        </defs>

<script type="text/javascript">
var viewWidth = 1009;
var viewHeight = 296;
var sectionId = 'dynsection-0';
</script>
<script xlink:href="../../svgpan.js"/>
<svg id="graph" class="graph">
<g id="viewport">
<title>/home/travis/build/AliceO2Group/AliceO2/Detectors/MUON/MID/Clustering/src/PreClusterizer.cxx</title>
<!-- Node1 -->
<g id="node1" class="node"><title>Node1</title>
<polygon fill="#bfbfbf" stroke="black" points="290,-235.5 290,-287.5 455,-287.5 455,-235.5 290,-235.5"/>
<text text-anchor="start" x="298" y="-275.5" font-family="Helvetica,sans-Serif" font-size="10.00">/home/travis/build</text>
<text text-anchor="start" x="298" y="-264.5" font-family="Helvetica,sans-Serif" font-size="10.00">/AliceO2Group/AliceO2</text>
<text text-anchor="start" x="298" y="-253.5" font-family="Helvetica,sans-Serif" font-size="10.00">/Detectors/MUON/MID/Clustering</text>
<text text-anchor="middle" x="372.5" y="-242.5" font-family="Helvetica,sans-Serif" font-size="10.00">/src/PreClusterizer.cxx</text>
</g>
<!-- Node2 -->
<g id="node2" class="node"><title>Node2</title>
<g id="a_node2"><a xlink:href="../../d7/d1a/PreClusterizer_8h.html" target="_top" xlink:title="Pre&#45;cluster reconstruction algorithm for MID. ">
<polygon fill="none" stroke="black" points="296,-179.5 296,-198.5 449,-198.5 449,-179.5 296,-179.5"/>
<text text-anchor="middle" x="372.5" y="-186.5" font-family="Helvetica,sans-Serif" font-size="10.00">MIDClustering/PreClusterizer.h</text>
</a>
</g>
</g>
<!-- Node1&#45;&gt;Node2 -->
<g id="edge1" class="edge"><title>Node1&#45;&gt;Node2</title>
<path fill="none" stroke="midnightblue" d="M372.5,-235.446C372.5,-226.73 372.5,-217.104 372.5,-208.964"/>
<polygon fill="midnightblue" stroke="midnightblue" points="376,-208.695 372.5,-198.695 369,-208.696 376,-208.695"/>
</g>
<!-- Node20 -->
<g id="node20" class="node"><title>Node20</title>
<polygon fill="none" stroke="#bfbfbf" points="467,-179.5 467,-198.5 516,-198.5 516,-179.5 467,-179.5"/>
<text text-anchor="middle" x="491.5" y="-186.5" font-family="Helvetica,sans-Serif" font-size="10.00">cassert</text>
</g>
<!-- Node1&#45;&gt;Node20 -->
<g id="edge24" class="edge"><title>Node1&#45;&gt;Node20</title>
<path fill="none" stroke="midnightblue" d="M414.79,-235.446C432.825,-224.761 453.169,-212.709 468.372,-203.702"/>
<polygon fill="midnightblue" stroke="midnightblue" points="470.287,-206.635 477.107,-198.527 466.719,-200.613 470.287,-206.635"/>
</g>
<!-- Node21 -->
<g id="node21" class="node"><title>Node21</title>
<g id="a_node21"><a xlink:href="../../dc/de4/DetectorParameters_8h.html" target="_top" xlink:title="Useful detector parameters for MID. ">
<polygon fill="none" stroke="black" points="0,-179.5 0,-198.5 157,-198.5 157,-179.5 0,-179.5"/>
<text text-anchor="middle" x="78.5" y="-186.5" font-family="Helvetica,sans-Serif" font-size="10.00">MIDBase/DetectorParameters.h</text>
</a>
</g>
</g>
<!-- Node1&#45;&gt;Node21 -->
<g id="edge25" class="edge"><title>Node1&#45;&gt;Node21</title>
<path fill="none" stroke="midnightblue" d="M289.822,-240.674C236.092,-227.79 168.081,-211.481 123.95,-200.899"/>
<polygon fill="midnightblue" stroke="midnightblue" points="124.631,-197.463 114.09,-198.534 122.998,-204.27 124.631,-197.463"/>
</g>
<!-- Node3 -->
<g id="node3" class="node"><title>Node3</title>
<polygon fill="none" stroke="#bfbfbf" points="242,-123.5 242,-142.5 325,-142.5 325,-123.5 242,-123.5"/>
<text text-anchor="middle" x="283.5" y="-130.5" font-family="Helvetica,sans-Serif" font-size="10.00">unordered_map</text>
</g>
<!-- Node2&#45;&gt;Node3 -->
<g id="edge2" class="edge"><title>Node2&#45;&gt;Node3</title>
<path fill="none" stroke="midnightblue" d="M358.201,-179.324C344.317,-170.9 323.008,-157.971 306.696,-148.074"/>
<polygon fill="midnightblue" stroke="midnightblue" points="308.129,-144.85 297.764,-142.655 304.498,-150.834 308.129,-144.85"/>
</g>
<!-- Node4 -->
<g id="node4" class="node"><title>Node4</title>
<polygon fill="none" stroke="#bfbfbf" points="245.5,-62 245.5,-81 289.5,-81 289.5,-62 245.5,-62"/>
<text text-anchor="middle" x="267.5" y="-69" font-family="Helvetica,sans-Serif" font-size="10.00">vector</text>
</g>
<!-- Node2&#45;&gt;Node4 -->
<g id="edge3" class="edge"><title>Node2&#45;&gt;Node4</title>
<path fill="none" stroke="midnightblue" d="M368.607,-179.324C362.436,-166.18 349.455,-140.863 333.5,-123 320.807,-108.789 303.644,-95.7999 290.002,-86.5546"/>
<polygon fill="midnightblue" stroke="midnightblue" points="291.906,-83.6176 281.628,-81.0445 288.058,-89.4652 291.906,-83.6176"/>
</g>
<!-- Node5 -->
<g id="node5" class="node"><title>Node5</title>
<polygon fill="none" stroke="#bfbfbf" points="420,-123.5 420,-142.5 465,-142.5 465,-123.5 420,-123.5"/>
<text text-anchor="middle" x="442.5" y="-130.5" font-family="Helvetica,sans-Serif" font-size="10.00">gsl/gsl</text>
</g>
<!-- Node2&#45;&gt;Node5 -->
<g id="edge4" class="edge"><title>Node2&#45;&gt;Node5</title>
<path fill="none" stroke="midnightblue" d="M383.747,-179.324C394.297,-171.185 410.301,-158.839 422.942,-149.087"/>
<polygon fill="midnightblue" stroke="midnightblue" points="425.269,-151.713 431.049,-142.834 420.993,-146.171 425.269,-151.713"/>
</g>
<!-- Node6 -->
<g id="node6" class="node"><title>Node6</title>
<g id="a_node6"><a xlink:href="../../d4/d73/MID_2Base_2include_2MIDBase_2Mapping_8h.html" target="_top" xlink:title="Mapping for MID. ">
<polygon fill="none" stroke="black" points="117.5,-123.5 117.5,-142.5 223.5,-142.5 223.5,-123.5 117.5,-123.5"/>
<text text-anchor="middle" x="170.5" y="-130.5" font-family="Helvetica,sans-Serif" font-size="10.00">MIDBase/Mapping.h</text>
</a>
</g>
</g>
<!-- Node2&#45;&gt;Node6 -->
<g id="edge5" class="edge"><title>Node2&#45;&gt;Node6</title>
<path fill="none" stroke="midnightblue" d="M340.492,-179.444C305.771,-170.162 250.212,-155.309 212.123,-145.127"/>
<polygon fill="midnightblue" stroke="midnightblue" points="212.922,-141.718 202.358,-142.516 211.115,-148.48 212.922,-141.718"/>
</g>
<!-- Node9 -->
<g id="node9" class="node"><title>Node9</title>
<g id="a_node9"><a xlink:href="../../d3/d53/ColumnData_8h.html" target="_top" xlink:title="Strip pattern (aka digits) ">
<polygon fill="none" stroke="black" points="312.5,-62 312.5,-81 470.5,-81 470.5,-62 312.5,-62"/>
<text text-anchor="middle" x="391.5" y="-69" font-family="Helvetica,sans-Serif" font-size="10.00">DataFormatsMID/ColumnData.h</text>
</a>
</g>
</g>
<!-- Node2&#45;&gt;Node9 -->
<g id="edge10" class="edge"><title>Node2&#45;&gt;Node9</title>
<path fill="none" stroke="midnightblue" d="M373.928,-179.319C376.982,-160.757 384.206,-116.839 388.379,-91.4734"/>
<polygon fill="midnightblue" stroke="midnightblue" points="391.886,-91.7175 390.055,-81.282 384.978,-90.5812 391.886,-91.7175"/>
</g>
<!-- Node12 -->
<g id="node12" class="node"><title>Node12</title>
<g id="a_node12"><a xlink:href="../../d2/df9/MUON_2MID_2include_2DataFormatsMID_2ROFRecord_8h.html" target="_top" xlink:title="Definition of the MID event record. ">
<polygon fill="none" stroke="black" points="638.5,-123.5 638.5,-142.5 794.5,-142.5 794.5,-123.5 638.5,-123.5"/>
<text text-anchor="middle" x="716.5" y="-130.5" font-family="Helvetica,sans-Serif" font-size="10.00">DataFormatsMID/ROFRecord.h</text>
</a>
</g>
</g>
<!-- Node2&#45;&gt;Node12 -->
<g id="edge14" class="edge"><title>Node2&#45;&gt;Node12</title>
<path fill="none" stroke="midnightblue" d="M427.008,-179.444C488.15,-169.846 587.235,-154.292 652.136,-144.104"/>
<polygon fill="midnightblue" stroke="midnightblue" points="652.911,-147.525 662.247,-142.516 651.825,-140.61 652.911,-147.525"/>
</g>
<!-- Node18 -->
<g id="node18" class="node"><title>Node18</title>
<g id="a_node18"><a xlink:href="../../db/dfb/PreCluster_8h.html" target="_top" xlink:title="Pre&#45;cluster structure for MID. ">
<polygon fill="none" stroke="black" points="483,-123.5 483,-142.5 620,-142.5 620,-123.5 483,-123.5"/>
<text text-anchor="middle" x="551.5" y="-130.5" font-family="Helvetica,sans-Serif" font-size="10.00">MIDClustering/PreCluster.h</text>
</a>
</g>
</g>
<!-- Node2&#45;&gt;Node18 -->
<g id="edge21" class="edge"><title>Node2&#45;&gt;Node18</title>
<path fill="none" stroke="midnightblue" d="M400.863,-179.444C431.238,-170.28 479.61,-155.688 513.316,-145.519"/>
<polygon fill="midnightblue" stroke="midnightblue" points="514.707,-148.756 523.27,-142.516 512.685,-142.054 514.707,-148.756"/>
</g>
<!-- Node6&#45;&gt;Node4 -->
<g id="edge7" class="edge"><title>Node6&#45;&gt;Node4</title>
<path fill="none" stroke="midnightblue" d="M184.398,-123.475C200.172,-113.799 226.137,-97.8721 244.849,-86.3941"/>
<polygon fill="midnightblue" stroke="midnightblue" points="246.934,-89.2213 253.628,-81.0091 243.274,-83.2544 246.934,-89.2213"/>
</g>
<!-- Node7 -->
<g id="node7" class="node"><title>Node7</title>
<polygon fill="none" stroke="#bfbfbf" points="113.5,-0.5 113.5,-19.5 151.5,-19.5 151.5,-0.5 113.5,-0.5"/>
<text text-anchor="middle" x="132.5" y="-7.5" font-family="Helvetica,sans-Serif" font-size="10.00">array</text>
</g>
<!-- Node6&#45;&gt;Node7 -->
<g id="edge6" class="edge"><title>Node6&#45;&gt;Node7</title>
<path fill="none" stroke="midnightblue" d="M151.516,-123.398C137.614,-115.954 119.786,-103.741 111.5,-87 102.147,-68.1029 111.651,-44.4321 120.707,-28.5734"/>
<polygon fill="midnightblue" stroke="midnightblue" points="123.836,-30.168 126.115,-19.8211 117.881,-26.4885 123.836,-30.168"/>
</g>
<!-- Node8 -->
<g id="node8" class="node"><title>Node8</title>
<g id="a_node8"><a xlink:href="../../d7/d0a/MpArea_8h.html" target="_top" xlink:title="Mapping area for MID. ">
<polygon fill="none" stroke="black" points="121,-62 121,-81 224,-81 224,-62 121,-62"/>
<text text-anchor="middle" x="172.5" y="-69" font-family="Helvetica,sans-Serif" font-size="10.00">MIDBase/MpArea.h</text>
</a>
</g>
</g>
<!-- Node6&#45;&gt;Node8 -->
<g id="edge8" class="edge"><title>Node6&#45;&gt;Node8</title>
<path fill="none" stroke="midnightblue" d="M170.787,-123.475C171.069,-115.08 171.509,-101.981 171.873,-91.1631"/>
<polygon fill="midnightblue" stroke="midnightblue" points="175.376,-91.1211 172.214,-81.0091 168.38,-90.8858 175.376,-91.1211"/>
</g>
<!-- Node8&#45;&gt;Node7 -->
<g id="edge9" class="edge"><title>Node8&#45;&gt;Node7</title>
<path fill="none" stroke="midnightblue" d="M166.769,-61.9751C160.828,-53.1384 151.383,-39.0886 143.912,-27.975"/>
<polygon fill="midnightblue" stroke="midnightblue" points="146.704,-25.8554 138.22,-19.5091 140.895,-29.7608 146.704,-25.8554"/>
</g>
<!-- Node9&#45;&gt;Node7 -->
<g id="edge13" class="edge"><title>Node9&#45;&gt;Node7</title>
<path fill="none" stroke="midnightblue" d="M354.392,-61.9751C302.376,-50.0255 208.864,-28.543 161.575,-17.6793"/>
<polygon fill="midnightblue" stroke="midnightblue" points="162.206,-14.2333 151.676,-15.4054 160.639,-21.0556 162.206,-14.2333"/>
</g>
<!-- Node10 -->
<g id="node10" class="node"><title>Node10</title>
<polygon fill="none" stroke="#bfbfbf" points="555.5,-0.5 555.5,-19.5 601.5,-19.5 601.5,-0.5 555.5,-0.5"/>
<text text-anchor="middle" x="578.5" y="-7.5" font-family="Helvetica,sans-Serif" font-size="10.00">cstdint</text>
</g>
<!-- Node9&#45;&gt;Node10 -->
<g id="edge11" class="edge"><title>Node9&#45;&gt;Node10</title>
<path fill="none" stroke="midnightblue" d="M418.293,-61.9751C451.894,-51.2837 509.479,-32.9613 545.687,-21.4406"/>
<polygon fill="midnightblue" stroke="midnightblue" points="546.826,-24.7509 555.294,-18.3836 544.704,-18.0804 546.826,-24.7509"/>
</g>
<!-- Node11 -->
<g id="node11" class="node"><title>Node11</title>
<polygon fill="none" stroke="#bfbfbf" points="364.5,-0.5 364.5,-19.5 418.5,-19.5 418.5,-0.5 364.5,-0.5"/>
<text text-anchor="middle" x="391.5" y="-7.5" font-family="Helvetica,sans-Serif" font-size="10.00">iostream</text>
</g>
<!-- Node9&#45;&gt;Node11 -->
<g id="edge12" class="edge"><title>Node9&#45;&gt;Node11</title>
<path fill="none" stroke="midnightblue" d="M391.5,-61.9751C391.5,-53.5803 391.5,-40.4806 391.5,-29.6631"/>
<polygon fill="midnightblue" stroke="midnightblue" points="395,-29.5091 391.5,-19.5091 388,-29.5091 395,-29.5091"/>
</g>
<!-- Node13 -->
<g id="node13" class="node"><title>Node13</title>
<g id="a_node13"><a xlink:href="../../d9/d80/InteractionRecord_8h.html" target="_top" xlink:title="CommonDataFormat/Interaction\lRecord.h">
<polygon fill="none" stroke="black" points="633,-56.5 633,-86.5 790,-86.5 790,-56.5 633,-56.5"/>
<text text-anchor="start" x="641" y="-74.5" font-family="Helvetica,sans-Serif" font-size="10.00">CommonDataFormat/Interaction</text>
<text text-anchor="middle" x="711.5" y="-63.5" font-family="Helvetica,sans-Serif" font-size="10.00">Record.h</text>
</a>
</g>
</g>
<!-- Node12&#45;&gt;Node13 -->
<g id="edge15" class="edge"><title>Node12&#45;&gt;Node13</title>
<path fill="none" stroke="midnightblue" d="M715.784,-123.475C715.195,-116.471 714.331,-106.192 713.533,-96.6956"/>
<polygon fill="midnightblue" stroke="midnightblue" points="717.004,-96.1947 712.678,-86.523 710.028,-96.781 717.004,-96.1947"/>
</g>
<!-- Node13&#45;&gt;Node10 -->
<g id="edge19" class="edge"><title>Node13&#45;&gt;Node10</title>
<path fill="none" stroke="midnightblue" d="M679.981,-56.3993C657.865,-46.5054 628.533,-33.3832 607.094,-23.7919"/>
<polygon fill="midnightblue" stroke="midnightblue" points="608.41,-20.5466 597.853,-19.6578 605.552,-26.9364 608.41,-20.5466"/>
</g>
<!-- Node14 -->
<g id="node14" class="node"><title>Node14</title>
<polygon fill="none" stroke="#bfbfbf" points="944.5,-0.5 944.5,-19.5 1000.5,-19.5 1000.5,-0.5 944.5,-0.5"/>
<text text-anchor="middle" x="972.5" y="-7.5" font-family="Helvetica,sans-Serif" font-size="10.00">Rtypes.h</text>
</g>
<!-- Node13&#45;&gt;Node14 -->
<g id="edge16" class="edge"><title>Node13&#45;&gt;Node14</title>
<path fill="none" stroke="midnightblue" d="M775.291,-56.4189C817.782,-46.9699 875.119,-34.0872 934.327,-20.2482"/>
<polygon fill="midnightblue" stroke="midnightblue" points="935.292,-23.6169 944.23,-17.9284 933.695,-16.8014 935.292,-23.6169"/>
</g>
<!-- Node15 -->
<g id="node15" class="node"><title>Node15</title>
<polygon fill="none" stroke="#bfbfbf" points="623,-0.5 623,-19.5 668,-19.5 668,-0.5 623,-0.5"/>
<text text-anchor="middle" x="645.5" y="-7.5" font-family="Helvetica,sans-Serif" font-size="10.00">iosfwd</text>
</g>
<!-- Node13&#45;&gt;Node15 -->
<g id="edge17" class="edge"><title>Node13&#45;&gt;Node15</title>
<path fill="none" stroke="midnightblue" d="M695.859,-56.3993C685.873,-47.3967 672.922,-35.7214 662.655,-26.4652"/>
<polygon fill="midnightblue" stroke="midnightblue" points="664.875,-23.7541 655.104,-19.6578 660.187,-28.9533 664.875,-23.7541"/>
</g>
<!-- Node16 -->
<g id="node16" class="node"><title>Node16</title>
<polygon fill="none" stroke="#bfbfbf" points="686.5,-0.5 686.5,-19.5 730.5,-19.5 730.5,-0.5 686.5,-0.5"/>
<text text-anchor="middle" x="708.5" y="-7.5" font-family="Helvetica,sans-Serif" font-size="10.00">cmath</text>
</g>
<!-- Node13&#45;&gt;Node16 -->
<g id="edge18" class="edge"><title>Node13&#45;&gt;Node16</title>
<path fill="none" stroke="midnightblue" d="M710.789,-56.3993C710.389,-48.4664 709.884,-38.458 709.451,-29.8583"/>
<polygon fill="midnightblue" stroke="midnightblue" points="712.936,-29.4688 708.937,-19.6578 705.945,-29.8214 712.936,-29.4688"/>
</g>
<!-- Node17 -->
<g id="node17" class="node"><title>Node17</title>
<g id="a_node17"><a xlink:href="../../d4/dc6/LHCConstants_8h.html" target="_top" xlink:title="Header to collect LHC related constants. ">
<polygon fill="none" stroke="black" points="748.5,-0.5 748.5,-19.5 926.5,-19.5 926.5,-0.5 748.5,-0.5"/>
<text text-anchor="middle" x="837.5" y="-7.5" font-family="Helvetica,sans-Serif" font-size="10.00">CommonConstants/LHCConstants.h</text>
</a>
</g>
</g>
<!-- Node13&#45;&gt;Node17 -->
<g id="edge20" class="edge"><title>Node13&#45;&gt;Node17</title>
<path fill="none" stroke="midnightblue" d="M741.36,-56.3993C762.123,-46.5945 789.6,-33.6194 809.861,-24.052"/>
<polygon fill="midnightblue" stroke="midnightblue" points="811.618,-27.0928 819.166,-19.6578 808.629,-20.763 811.618,-27.0928"/>
</g>
<!-- Node18&#45;&gt;Node10 -->
<g id="edge22" class="edge"><title>Node18&#45;&gt;Node10</title>
<path fill="none" stroke="midnightblue" d="M553.442,-123.298C557.801,-103.763 568.444,-56.0646 574.361,-29.5471"/>
<polygon fill="midnightblue" stroke="midnightblue" points="577.814,-30.1454 576.576,-19.6232 570.982,-28.6209 577.814,-30.1454"/>
</g>
<!-- Node19 -->
<g id="node19" class="node"><title>Node19</title>
<polygon fill="none" stroke="#bfbfbf" points="498.5,-62 498.5,-81 550.5,-81 550.5,-62 498.5,-62"/>
<text text-anchor="middle" x="524.5" y="-69" font-family="Helvetica,sans-Serif" font-size="10.00">ostream</text>
</g>
<!-- Node18&#45;&gt;Node19 -->
<g id="edge23" class="edge"><title>Node18&#45;&gt;Node19</title>
<path fill="none" stroke="midnightblue" d="M547.632,-123.475C543.702,-114.815 537.5,-101.149 532.507,-90.1453"/>
<polygon fill="midnightblue" stroke="midnightblue" points="535.681,-88.6691 528.361,-81.0091 529.306,-91.5617 535.681,-88.6691"/>
</g>
<!-- Node21&#45;&gt;Node7 -->
<g id="edge26" class="edge"><title>Node21&#45;&gt;Node7</title>
<path fill="none" stroke="midnightblue" d="M69.8936,-179.42C58.7406,-167.214 41.5041,-143.988 48.5,-123 61.6636,-83.5091 94.81,-46.7297 115.31,-26.7088"/>
<polygon fill="midnightblue" stroke="midnightblue" points="117.894,-29.0817 122.729,-19.6546 113.071,-24.0088 117.894,-29.0817"/>
</g>
<!-- Node22 -->
<g id="node22" class="node"><title>Node22</title>
<polygon fill="none" stroke="#bfbfbf" points="58,-123.5 58,-142.5 99,-142.5 99,-123.5 58,-123.5"/>
<text text-anchor="middle" x="78.5" y="-130.5" font-family="Helvetica,sans-Serif" font-size="10.00">string</text>
</g>
<!-- Node21&#45;&gt;Node22 -->
<g id="edge27" class="edge"><title>Node21&#45;&gt;Node22</title>
<path fill="none" stroke="midnightblue" d="M78.5,-179.083C78.5,-172.006 78.5,-161.861 78.5,-152.986"/>
<polygon fill="midnightblue" stroke="midnightblue" points="82.0001,-152.751 78.5,-142.751 75.0001,-152.751 82.0001,-152.751"/>
</g>
</g>
</svg>
        <g id="navigator" transform="translate(0 0)" fill="#404254">
                <rect fill="#f2f5e9" fill-opacity="0.5" stroke="#606060" stroke-width=".5" x="0" y="0" width="60" height="60"/>
                <use id="zoomplus" xlink:href="#zoomPlus" x="17" y="9" onmousedown="handleZoom(evt,'in')"/>
                <use id="zoomminus" xlink:href="#zoomMin" x="42" y="9" onmousedown="handleZoom(evt,'out')"/>
                <use id="reset" xlink:href="#resetDef" x="30" y="36" onmousedown="handleReset()"/>
                <g id="arrowUp" xlink:href="#dirArrow" transform="translate(30 24)" onmousedown="handlePan(0,-1)">
                  <use xlink:href="#rim" fill="#404040">
                        <set attributeName="fill" to="#808080" begin="arrowUp.mouseover" end="arrowUp.mouseout"/>
                  </use>
                  <path fill="none" stroke="white" stroke-width="1.5" d="M0,-3.0v7 M-2.5,-0.5L0,-3.0L2.5,-0.5"/>
                </g>
                <g id="arrowRight" xlink:href="#dirArrow" transform="rotate(90) translate(36 -43)" onmousedown="handlePan(1,0)">
                  <use xlink:href="#rim" fill="#404040">
                        <set attributeName="fill" to="#808080" begin="arrowRight.mouseover" end="arrowRight.mouseout"/>
                  </use>
                  <path fill="none" stroke="white" stroke-width="1.5" d="M0,-3.0v7 M-2.5,-0.5L0,-3.0L2.5,-0.5"/>
                </g>
                <g id="arrowDown" xlink:href="#dirArrow" transform="rotate(180) translate(-30 -48)" onmousedown="handlePan(0,1)">
                  <use xlink:href="#rim" fill="#404040">
                        <set attributeName="fill" to="#808080" begin="arrowDown.mouseover" end="arrowDown.mouseout"/>
                  </use>
                  <path fill="none" stroke="white" stroke-width="1.5" d="M0,-3.0v7 M-2.5,-0.5L0,-3.0L2.5,-0.5"/>
                </g>
                <g id="arrowLeft" xlink:href="#dirArrow" transform="rotate(270) translate(-36 17)" onmousedown="handlePan(-1,0)">
                  <use xlink:href="#rim" fill="#404040">
                        <set attributeName="fill" to="#808080" begin="arrowLeft.mouseover" end="arrowLeft.mouseout"/>
                  </use>
                  <path fill="none" stroke="white" stroke-width="1.5" d="M0,-3.0v7 M-2.5,-0.5L0,-3.0L2.5,-0.5"/>
                </g>
        </g>
        <svg viewBox="0 0 15 15" width="100%" height="30px" preserveAspectRatio="xMaxYMin meet">
         <g id="arrow_out" transform="scale(0.3 0.3)">
          <a xlink:href="PreClusterizer_8cxx__incl_org.svg" target="_base">
           <rect id="button" ry="5" rx="5" y="6" x="6" height="38" width="38"
                fill="#f2f5e9" fill-opacity="0.5" stroke="#606060" stroke-width="1.0"/>
           <path id="arrow"
             d="M 11.500037,31.436501 C 11.940474,20.09759 22.043105,11.32322 32.158766,21.979434 L 37.068811,17.246167 C 37.068811,17.246167 37.088388,32 37.088388,32 L 22.160133,31.978069 C 22.160133,31.978069 26.997745,27.140456 26.997745,27.140456 C 18.528582,18.264221 13.291696,25.230495 11.500037,31.436501 z"
             style="fill:#404040;"/>
          </a>
         </g>
        </svg>
</svg>
