<?xml version="1.0" encoding="UTF-8" standalone="no"?>
<!DOCTYPE svg PUBLIC "-//W3C//DTD SVG 1.1//EN"
 "http://www.w3.org/Graphics/SVG/1.1/DTD/svg11.dtd">
<!-- Generated by graphviz version 2.38.0 (20140413.2041)
 -->
<!-- Title: o2::tpc::CalibPedestalParam Pages: 1 -->
<svg width="350pt" height="1048pt"
 viewBox="0.00 0.00 350.00 1048.00" xmlns="http://www.w3.org/2000/svg" xmlns:xlink="http://www.w3.org/1999/xlink">
<g id="graph0" class="graph" transform="scale(1 1) rotate(0) translate(4 1044)">
<title>o2::tpc::CalibPedestalParam</title>
<!-- Node1 -->
<g id="node1" class="node"><title>Node1</title>
<polygon fill="#bfbfbf" stroke="black" points="139,-0.5 139,-57.5 281,-57.5 281,-0.5 139,-0.5"/>
<text text-anchor="middle" x="210" y="-45.5" font-family="Helvetica,sans-Serif" font-size="10.00">o2::tpc::CalibPedestalParam</text>
<polyline fill="none" stroke="black" points="139,-38.5 281,-38.5 "/>
<text text-anchor="middle" x="210" y="-26.5" font-family="Helvetica,sans-Serif" font-size="10.00"> </text>
<polyline fill="none" stroke="black" points="139,-19.5 281,-19.5 "/>
<text text-anchor="start" x="147" y="-7.5" font-family="Helvetica,sans-Serif" font-size="10.00">+ O2ParamDef()</text>
</g>
<!-- Node2 -->
<g id="node2" class="node"><title>Node2</title>
<g id="a_node2"><a xlink:href="../../d7/d50/classo2_1_1conf_1_1ConfigurableParamHelper.html" target="_top" xlink:title="{o2::conf::ConfigurableParam\lHelper\&lt; CalibPedestalParam \&gt;\n||+ getName()\l+ printKeyValues()\l+ output()\l+ getDataMembers()\l+ putKeyValues()\l+ initFrom()\l+ serializeTo()\l+ Instance()\l}">
<polygon fill="none" stroke="black" points="0,-138.5 0,-283.5 152,-283.5 152,-138.5 0,-138.5"/>
<text text-anchor="start" x="8" y="-271.5" font-family="Helvetica,sans-Serif" font-size="10.00">o2::conf::ConfigurableParam</text>
<text text-anchor="middle" x="76" y="-260.5" font-family="Helvetica,sans-Serif" font-size="10.00">Helper&lt; CalibPedestalParam &gt;</text>
<polyline fill="none" stroke="black" points="0,-253.5 152,-253.5 "/>
<text text-anchor="middle" x="76" y="-241.5" font-family="Helvetica,sans-Serif" font-size="10.00"> </text>
<polyline fill="none" stroke="black" points="0,-234.5 152,-234.5 "/>
<text text-anchor="start" x="8" y="-222.5" font-family="Helvetica,sans-Serif" font-size="10.00">+ getName()</text>
<text text-anchor="start" x="8" y="-211.5" font-family="Helvetica,sans-Serif" font-size="10.00">+ printKeyValues()</text>
<text text-anchor="start" x="8" y="-200.5" font-family="Helvetica,sans-Serif" font-size="10.00">+ output()</text>
<text text-anchor="start" x="8" y="-189.5" font-family="Helvetica,sans-Serif" font-size="10.00">+ getDataMembers()</text>
<text text-anchor="start" x="8" y="-178.5" font-family="Helvetica,sans-Serif" font-size="10.00">+ putKeyValues()</text>
<text text-anchor="start" x="8" y="-167.5" font-family="Helvetica,sans-Serif" font-size="10.00">+ initFrom()</text>
<text text-anchor="start" x="8" y="-156.5" font-family="Helvetica,sans-Serif" font-size="10.00">+ serializeTo()</text>
<text text-anchor="start" x="8" y="-145.5" font-family="Helvetica,sans-Serif" font-size="10.00">+ Instance()</text>
</a>
</g>
</g>
<!-- Node2&#45;&gt;Node1 -->
<g id="edge1" class="edge"><title>Node2&#45;&gt;Node1</title>
<path fill="none" stroke="midnightblue" d="M135.549,-130.009C154.771,-104.189 174.82,-77.2561 189.265,-57.8536"/>
<polygon fill="none" stroke="midnightblue" points="132.509,-128.231 129.345,-138.342 138.124,-132.411 132.509,-128.231"/>
</g>
<!-- Node3 -->
<g id="node3" class="node"><title>Node3</title>
<g id="a_node3"><a xlink:href="../../d6/d14/classo2_1_1conf_1_1ConfigurableParam.html" target="_top" xlink:title="{o2::conf::ConfigurableParam\n||+ getName()\l+ printKeyValues()\l+ toString()\l+ printAllRegisteredParamNames()\l+ printAllKeyValuePairs()\l+ readINI()\l+ readJSON()\l+ readConfigFile()\l+ writeJSON()\l+ writeINI()\l+ getValueAs()\l+ setValue()\l+ setValue()\l+ setEnumValue()\l+ setArrayValue()\l+ setValues()\l+ initialize()\l+ toCCDB()\l+ fromCCDB()\l+ updateFromString()\l+ updateFromFile()\l# ConfigurableParam()\l# ~ConfigurableParam()\l# putKeyValues()\l# output()\l# serializeTo()\l# initFrom()\l# setRegisterMode()\l# initPropertyTree()\l# updateThroughStorageMap()\l# updateThroughStorageMapWith\lConversion()\l}">
<polygon fill="none" stroke="black" points="6.5,-514.5 6.5,-912.5 175.5,-912.5 175.5,-514.5 6.5,-514.5"/>
<text text-anchor="middle" x="91" y="-900.5" font-family="Helvetica,sans-Serif" font-size="10.00">o2::conf::ConfigurableParam</text>
<polyline fill="none" stroke="black" points="6.5,-893.5 175.5,-893.5 "/>
<text text-anchor="middle" x="91" y="-881.5" font-family="Helvetica,sans-Serif" font-size="10.00"> </text>
<polyline fill="none" stroke="black" points="6.5,-874.5 175.5,-874.5 "/>
<text text-anchor="start" x="14.5" y="-862.5" font-family="Helvetica,sans-Serif" font-size="10.00">+ getName()</text>
<text text-anchor="start" x="14.5" y="-851.5" font-family="Helvetica,sans-Serif" font-size="10.00">+ printKeyValues()</text>
<text text-anchor="start" x="14.5" y="-840.5" font-family="Helvetica,sans-Serif" font-size="10.00">+ toString()</text>
<text text-anchor="start" x="14.5" y="-829.5" font-family="Helvetica,sans-Serif" font-size="10.00">+ printAllRegisteredParamNames()</text>
<text text-anchor="start" x="14.5" y="-818.5" font-family="Helvetica,sans-Serif" font-size="10.00">+ printAllKeyValuePairs()</text>
<text text-anchor="start" x="14.5" y="-807.5" font-family="Helvetica,sans-Serif" font-size="10.00">+ readINI()</text>
<text text-anchor="start" x="14.5" y="-796.5" font-family="Helvetica,sans-Serif" font-size="10.00">+ readJSON()</text>
<text text-anchor="start" x="14.5" y="-785.5" font-family="Helvetica,sans-Serif" font-size="10.00">+ readConfigFile()</text>
<text text-anchor="start" x="14.5" y="-774.5" font-family="Helvetica,sans-Serif" font-size="10.00">+ writeJSON()</text>
<text text-anchor="start" x="14.5" y="-763.5" font-family="Helvetica,sans-Serif" font-size="10.00">+ writeINI()</text>
<text text-anchor="start" x="14.5" y="-752.5" font-family="Helvetica,sans-Serif" font-size="10.00">+ getValueAs()</text>
<text text-anchor="start" x="14.5" y="-741.5" font-family="Helvetica,sans-Serif" font-size="10.00">+ setValue()</text>
<text text-anchor="start" x="14.5" y="-730.5" font-family="Helvetica,sans-Serif" font-size="10.00">+ setValue()</text>
<text text-anchor="start" x="14.5" y="-719.5" font-family="Helvetica,sans-Serif" font-size="10.00">+ setEnumValue()</text>
<text text-anchor="start" x="14.5" y="-708.5" font-family="Helvetica,sans-Serif" font-size="10.00">+ setArrayValue()</text>
<text text-anchor="start" x="14.5" y="-697.5" font-family="Helvetica,sans-Serif" font-size="10.00">+ setValues()</text>
<text text-anchor="start" x="14.5" y="-686.5" font-family="Helvetica,sans-Serif" font-size="10.00">+ initialize()</text>
<text text-anchor="start" x="14.5" y="-675.5" font-family="Helvetica,sans-Serif" font-size="10.00">+ toCCDB()</text>
<text text-anchor="start" x="14.5" y="-664.5" font-family="Helvetica,sans-Serif" font-size="10.00">+ fromCCDB()</text>
<text text-anchor="start" x="14.5" y="-653.5" font-family="Helvetica,sans-Serif" font-size="10.00">+ updateFromString()</text>
<text text-anchor="start" x="14.5" y="-642.5" font-family="Helvetica,sans-Serif" font-size="10.00">+ updateFromFile()</text>
<text text-anchor="start" x="14.5" y="-631.5" font-family="Helvetica,sans-Serif" font-size="10.00"># ConfigurableParam()</text>
<text text-anchor="start" x="14.5" y="-620.5" font-family="Helvetica,sans-Serif" font-size="10.00"># ~ConfigurableParam()</text>
<text text-anchor="start" x="14.5" y="-609.5" font-family="Helvetica,sans-Serif" font-size="10.00"># putKeyValues()</text>
<text text-anchor="start" x="14.5" y="-598.5" font-family="Helvetica,sans-Serif" font-size="10.00"># output()</text>
<text text-anchor="start" x="14.5" y="-587.5" font-family="Helvetica,sans-Serif" font-size="10.00"># serializeTo()</text>
<text text-anchor="start" x="14.5" y="-576.5" font-family="Helvetica,sans-Serif" font-size="10.00"># initFrom()</text>
<text text-anchor="start" x="14.5" y="-565.5" font-family="Helvetica,sans-Serif" font-size="10.00"># setRegisterMode()</text>
<text text-anchor="start" x="14.5" y="-554.5" font-family="Helvetica,sans-Serif" font-size="10.00"># initPropertyTree()</text>
<text text-anchor="start" x="14.5" y="-543.5" font-family="Helvetica,sans-Serif" font-size="10.00"># updateThroughStorageMap()</text>
<text text-anchor="start" x="14.5" y="-532.5" font-family="Helvetica,sans-Serif" font-size="10.00"># updateThroughStorageMapWith</text>
<text text-anchor="start" x="14.5" y="-521.5" font-family="Helvetica,sans-Serif" font-size="10.00">Conversion()</text>
</a>
</g>
</g>
<!-- Node3&#45;&gt;Node2 -->
<g id="edge2" class="edge"><title>Node3&#45;&gt;Node2</title>
<path fill="none" stroke="midnightblue" d="M79.9457,-504.29C79.5964,-495.069 79.2783,-485.94 79,-477 76.9638,-411.583 76.2642,-337.043 76.0445,-283.718"/>
<polygon fill="none" stroke="midnightblue" points="76.45,-504.471 80.3364,-514.327 83.4447,-504.199 76.45,-504.471"/>
</g>
<!-- Node5 -->
<g id="node5" class="node"><title>Node5</title>
<g id="a_node5"><a xlink:href="../../d7/d50/classo2_1_1conf_1_1ConfigurableParamHelper.html" target="_top" xlink:title="{o2::conf::ConfigurableParam\lHelper\&lt; P \&gt;\n||+ getName()\l+ printKeyValues()\l+ output()\l+ getDataMembers()\l+ putKeyValues()\l+ initFrom()\l+ serializeTo()\l+ Instance()\l}">
<polygon fill="none" stroke="black" points="88.5,-331.5 88.5,-476.5 229.5,-476.5 229.5,-331.5 88.5,-331.5"/>
<text text-anchor="start" x="96.5" y="-464.5" font-family="Helvetica,sans-Serif" font-size="10.00">o2::conf::ConfigurableParam</text>
<text text-anchor="middle" x="159" y="-453.5" font-family="Helvetica,sans-Serif" font-size="10.00">Helper&lt; P &gt;</text>
<polyline fill="none" stroke="black" points="88.5,-446.5 229.5,-446.5 "/>
<text text-anchor="middle" x="159" y="-434.5" font-family="Helvetica,sans-Serif" font-size="10.00"> </text>
<polyline fill="none" stroke="black" points="88.5,-427.5 229.5,-427.5 "/>
<text text-anchor="start" x="96.5" y="-415.5" font-family="Helvetica,sans-Serif" font-size="10.00">+ getName()</text>
<text text-anchor="start" x="96.5" y="-404.5" font-family="Helvetica,sans-Serif" font-size="10.00">+ printKeyValues()</text>
<text text-anchor="start" x="96.5" y="-393.5" font-family="Helvetica,sans-Serif" font-size="10.00">+ output()</text>
<text text-anchor="start" x="96.5" y="-382.5" font-family="Helvetica,sans-Serif" font-size="10.00">+ getDataMembers()</text>
<text text-anchor="start" x="96.5" y="-371.5" font-family="Helvetica,sans-Serif" font-size="10.00">+ putKeyValues()</text>
<text text-anchor="start" x="96.5" y="-360.5" font-family="Helvetica,sans-Serif" font-size="10.00">+ initFrom()</text>
<text text-anchor="start" x="96.5" y="-349.5" font-family="Helvetica,sans-Serif" font-size="10.00">+ serializeTo()</text>
<text text-anchor="start" x="96.5" y="-338.5" font-family="Helvetica,sans-Serif" font-size="10.00">+ Instance()</text>
</a>
</g>
</g>
<!-- Node3&#45;&gt;Node5 -->
<g id="edge5" class="edge"><title>Node3&#45;&gt;Node5</title>
<path fill="none" stroke="midnightblue" d="M137.058,-504.224C139.168,-494.68 141.208,-485.458 143.137,-476.734"/>
<polygon fill="none" stroke="midnightblue" points="133.576,-503.759 134.834,-514.279 140.411,-505.27 133.576,-503.759"/>
</g>
<!-- Node4 -->
<g id="node4" class="node"><title>Node4</title>
<polygon fill="none" stroke="#bfbfbf" points="70.5,-982.5 70.5,-1039.5 111.5,-1039.5 111.5,-982.5 70.5,-982.5"/>
<text text-anchor="middle" x="91" y="-1027.5" font-family="Helvetica,sans-Serif" font-size="10.00">static</text>
<polyline fill="none" stroke="#bfbfbf" points="70.5,-1020.5 111.5,-1020.5 "/>
<text text-anchor="middle" x="91" y="-1008.5" font-family="Helvetica,sans-Serif" font-size="10.00"> </text>
<polyline fill="none" stroke="#bfbfbf" points="70.5,-1001.5 111.5,-1001.5 "/>
<text text-anchor="middle" x="91" y="-989.5" font-family="Helvetica,sans-Serif" font-size="10.00"> </text>
</g>
<!-- Node4&#45;&gt;Node3 -->
<g id="edge3" class="edge"><title>Node4&#45;&gt;Node3</title>
<path fill="none" stroke="#404040" d="M91,-982.465C91,-967.397 91,-947.213 91,-924.651"/>
<polygon fill="none" stroke="#404040" points="91.0001,-924.65 87,-918.65 91,-912.65 95,-918.65 91.0001,-924.65"/>
<text text-anchor="middle" x="144" y="-956" font-family="Helvetica,sans-Serif" font-size="10.00"> #sEnumRegistry</text>
<text text-anchor="middle" x="144" y="-945" font-family="Helvetica,sans-Serif" font-size="10.00">#sValueProvenanceMap</text>
<text text-anchor="middle" x="144" y="-934" font-family="Helvetica,sans-Serif" font-size="10.00">#sKeyToStorageMap</text>
</g>
<!-- Node5&#45;&gt;Node2 -->
<g id="edge4" class="edge"><title>Node5&#45;&gt;Node2</title>
<path fill="none" stroke="orange" d="M123.857,-322.128C118.316,-309.378 112.621,-296.273 107.179,-283.749"/>
<polygon fill="orange" stroke="orange" points="120.662,-323.559 127.858,-331.335 127.082,-320.769 120.662,-323.559"/>
<text text-anchor="middle" x="173.5" y="-305" font-family="Helvetica,sans-Serif" font-size="10.00"> &lt; CalibPedestalParam &gt;</text>
</g>
<!-- Node6 -->
<g id="node6" class="node"><title>Node6</title>
<polygon fill="none" stroke="#bfbfbf" points="170,-182.5 170,-239.5 250,-239.5 250,-182.5 170,-182.5"/>
<text text-anchor="middle" x="210" y="-227.5" font-family="Helvetica,sans-Serif" font-size="10.00">StatisticsType</text>
<polyline fill="none" stroke="#bfbfbf" points="170,-220.5 250,-220.5 "/>
<text text-anchor="middle" x="210" y="-208.5" font-family="Helvetica,sans-Serif" font-size="10.00"> </text>
<polyline fill="none" stroke="#bfbfbf" points="170,-201.5 250,-201.5 "/>
<text text-anchor="middle" x="210" y="-189.5" font-family="Helvetica,sans-Serif" font-size="10.00"> </text>
</g>
<!-- Node6&#45;&gt;Node1 -->
<g id="edge6" class="edge"><title>Node6&#45;&gt;Node1</title>
<path fill="none" stroke="#404040" d="M210,-182.269C210,-152.276 210,-104.185 210,-70.0809"/>
<polygon fill="none" stroke="#404040" points="210,-69.762 206,-63.7621 210,-57.762 214,-63.762 210,-69.762"/>
<text text-anchor="middle" x="234.5" y="-95.5" font-family="Helvetica,sans-Serif" font-size="10.00"> +StatType</text>
</g>
<!-- Node7 -->
<g id="node7" class="node"><title>Node7</title>
<polygon fill="none" stroke="#bfbfbf" points="268.5,-182.5 268.5,-239.5 297.5,-239.5 297.5,-182.5 268.5,-182.5"/>
<text text-anchor="middle" x="283" y="-227.5" font-family="Helvetica,sans-Serif" font-size="10.00">int</text>
<polyline fill="none" stroke="#bfbfbf" points="268.5,-220.5 297.5,-220.5 "/>
<text text-anchor="middle" x="283" y="-208.5" font-family="Helvetica,sans-Serif" font-size="10.00"> </text>
<polyline fill="none" stroke="#bfbfbf" points="268.5,-201.5 297.5,-201.5 "/>
<text text-anchor="middle" x="283" y="-189.5" font-family="Helvetica,sans-Serif" font-size="10.00"> </text>
</g>
<!-- Node7&#45;&gt;Node1 -->
<g id="edge7" class="edge"><title>Node7&#45;&gt;Node1</title>
<path fill="none" stroke="#404040" d="M283.679,-182.363C283.227,-154.001 279.247,-109.417 261,-76 259.228,-72.7558 257.138,-69.6228 254.832,-66.6216"/>
<polygon fill="none" stroke="#404040" points="254.762,-66.5411 247.8,-64.6597 246.86,-57.5102 253.821,-59.3916 254.762,-66.5411"/>
<text text-anchor="middle" x="309.5" y="-112" font-family="Helvetica,sans-Serif" font-size="10.00"> +FirstTimeBin</text>
<text text-anchor="middle" x="309.5" y="-101" font-family="Helvetica,sans-Serif" font-size="10.00">+LastTimeBin</text>
<text text-anchor="middle" x="309.5" y="-90" font-family="Helvetica,sans-Serif" font-size="10.00">+ADCMax</text>
<text text-anchor="middle" x="309.5" y="-79" font-family="Helvetica,sans-Serif" font-size="10.00">+ADCMin</text>
</g>
</g>
</svg>
