<?xml version="1.0" encoding="UTF-8" standalone="no"?>
<!DOCTYPE svg PUBLIC "-//W3C//DTD SVG 1.1//EN"
 "http://www.w3.org/Graphics/SVG/1.1/DTD/svg11.dtd">
<!-- Generated by graphviz version 2.38.0 (20140413.2041)
 -->
<!-- Title: o2::devices::FLPSyncSampler Pages: 1 -->
<svg width="734pt" height="303pt"
 viewBox="0.00 0.00 734.00 303.00" xmlns="http://www.w3.org/2000/svg" xmlns:xlink="http://www.w3.org/1999/xlink">
<g id="graph0" class="graph" transform="scale(1 1) rotate(0) translate(4 299)">
<title>o2::devices::FLPSyncSampler</title>
<!-- Node1 -->
<g id="node1" class="node"><title>Node1</title>
<polygon fill="#bfbfbf" stroke="black" points="250.5,-0.5 250.5,-134.5 399.5,-134.5 399.5,-0.5 250.5,-0.5"/>
<text text-anchor="middle" x="325" y="-122.5" font-family="Helvetica,sans-Serif" font-size="10.00">o2::devices::FLPSyncSampler</text>
<polyline fill="none" stroke="black" points="250.5,-115.5 399.5,-115.5 "/>
<text text-anchor="middle" x="325" y="-103.5" font-family="Helvetica,sans-Serif" font-size="10.00"> </text>
<polyline fill="none" stroke="black" points="250.5,-96.5 399.5,-96.5 "/>
<text text-anchor="start" x="258.5" y="-84.5" font-family="Helvetica,sans-Serif" font-size="10.00">+ FLPSyncSampler()</text>
<text text-anchor="start" x="258.5" y="-73.5" font-family="Helvetica,sans-Serif" font-size="10.00">+ ~FLPSyncSampler()</text>
<text text-anchor="start" x="258.5" y="-62.5" font-family="Helvetica,sans-Serif" font-size="10.00">+ ResetEventCounter()</text>
<text text-anchor="start" x="258.5" y="-51.5" font-family="Helvetica,sans-Serif" font-size="10.00">+ ListenForAcks()</text>
<text text-anchor="start" x="258.5" y="-40.5" font-family="Helvetica,sans-Serif" font-size="10.00"># InitTask()</text>
<text text-anchor="start" x="258.5" y="-29.5" font-family="Helvetica,sans-Serif" font-size="10.00"># ConditionalRun()</text>
<text text-anchor="start" x="258.5" y="-18.5" font-family="Helvetica,sans-Serif" font-size="10.00"># PreRun()</text>
<text text-anchor="start" x="258.5" y="-7.5" font-family="Helvetica,sans-Serif" font-size="10.00"># PostRun()</text>
</g>
<!-- Node2 -->
<g id="node2" class="node"><title>Node2</title>
<g id="a_node2"><a xlink:href="../../db/dfe/classFairMQDevice.html" target="_top" xlink:title="{FairMQDevice\n||}">
<polygon fill="none" stroke="black" points="0,-226.5 0,-283.5 80,-283.5 80,-226.5 0,-226.5"/>
<text text-anchor="middle" x="40" y="-271.5" font-family="Helvetica,sans-Serif" font-size="10.00">FairMQDevice</text>
<polyline fill="none" stroke="black" points="0,-264.5 80,-264.5 "/>
<text text-anchor="middle" x="40" y="-252.5" font-family="Helvetica,sans-Serif" font-size="10.00"> </text>
<polyline fill="none" stroke="black" points="0,-245.5 80,-245.5 "/>
<text text-anchor="middle" x="40" y="-233.5" font-family="Helvetica,sans-Serif" font-size="10.00"> </text>
</a>
</g>
</g>
<!-- Node2&#45;&gt;Node1 -->
<g id="edge1" class="edge"><title>Node2&#45;&gt;Node1</title>
<path fill="none" stroke="midnightblue" d="M63.5342,-218.282C78.9683,-197.064 100.739,-170.894 125,-153 162.616,-125.256 210.716,-104.564 250.317,-90.6013"/>
<polygon fill="none" stroke="midnightblue" points="60.6764,-216.262 57.7319,-226.439 66.3805,-220.319 60.6764,-216.262"/>
</g>
<!-- Node3 -->
<g id="node3" class="node"><title>Node3</title>
<polygon fill="none" stroke="#bfbfbf" points="98.5,-226.5 98.5,-283.5 149.5,-283.5 149.5,-226.5 98.5,-226.5"/>
<text text-anchor="middle" x="124" y="-271.5" font-family="Helvetica,sans-Serif" font-size="10.00">uint16_t</text>
<polyline fill="none" stroke="#bfbfbf" points="98.5,-264.5 149.5,-264.5 "/>
<text text-anchor="middle" x="124" y="-252.5" font-family="Helvetica,sans-Serif" font-size="10.00"> </text>
<polyline fill="none" stroke="#bfbfbf" points="98.5,-245.5 149.5,-245.5 "/>
<text text-anchor="middle" x="124" y="-233.5" font-family="Helvetica,sans-Serif" font-size="10.00"> </text>
</g>
<!-- Node3&#45;&gt;Node1 -->
<g id="edge2" class="edge"><title>Node3&#45;&gt;Node1</title>
<path fill="none" stroke="#404040" d="M124.262,-226.32C125.838,-204.267 131.241,-173.752 148,-153 171.061,-124.445 206.082,-104.955 238.903,-91.9597"/>
<polygon fill="none" stroke="#404040" points="239.168,-91.86 243.373,-86.0016 250.397,-87.6296 246.193,-93.488 239.168,-91.86"/>
<text text-anchor="middle" x="185.5" y="-172.5" font-family="Helvetica,sans-Serif" font-size="10.00"> #mTimeFrameId</text>
</g>
<!-- Node4 -->
<g id="node4" class="node"><title>Node4</title>
<polygon fill="none" stroke="#bfbfbf" points="207.5,-226.5 207.5,-283.5 236.5,-283.5 236.5,-226.5 207.5,-226.5"/>
<text text-anchor="middle" x="222" y="-271.5" font-family="Helvetica,sans-Serif" font-size="10.00">int</text>
<polyline fill="none" stroke="#bfbfbf" points="207.5,-264.5 236.5,-264.5 "/>
<text text-anchor="middle" x="222" y="-252.5" font-family="Helvetica,sans-Serif" font-size="10.00"> </text>
<polyline fill="none" stroke="#bfbfbf" points="207.5,-245.5 236.5,-245.5 "/>
<text text-anchor="middle" x="222" y="-233.5" font-family="Helvetica,sans-Serif" font-size="10.00"> </text>
</g>
<!-- Node4&#45;&gt;Node1 -->
<g id="edge3" class="edge"><title>Node4&#45;&gt;Node1</title>
<path fill="none" stroke="#404040" d="M222.826,-226.416C224.461,-205.259 228.957,-175.897 241,-153 242.453,-150.237 244.027,-147.505 245.703,-144.812"/>
<polygon fill="none" stroke="#404040" points="245.881,-144.549 245.945,-137.338 252.626,-134.624 252.562,-141.835 245.881,-144.549"/>
<text text-anchor="middle" x="281" y="-189" font-family="Helvetica,sans-Serif" font-size="10.00"> #mMaxEvents</text>
<text text-anchor="middle" x="281" y="-178" font-family="Helvetica,sans-Serif" font-size="10.00">#mStoreRTTinFile</text>
<text text-anchor="middle" x="281" y="-167" font-family="Helvetica,sans-Serif" font-size="10.00">#mEventRate</text>
<text text-anchor="middle" x="281" y="-156" font-family="Helvetica,sans-Serif" font-size="10.00">#mEventCounter</text>
</g>
<!-- Node5 -->
<g id="node5" class="node"><title>Node5</title>
<polygon fill="none" stroke="#bfbfbf" points="304.5,-226.5 304.5,-283.5 345.5,-283.5 345.5,-226.5 304.5,-226.5"/>
<text text-anchor="middle" x="325" y="-271.5" font-family="Helvetica,sans-Serif" font-size="10.00">string</text>
<polyline fill="none" stroke="#bfbfbf" points="304.5,-264.5 345.5,-264.5 "/>
<text text-anchor="middle" x="325" y="-252.5" font-family="Helvetica,sans-Serif" font-size="10.00"> </text>
<polyline fill="none" stroke="#bfbfbf" points="304.5,-245.5 345.5,-245.5 "/>
<text text-anchor="middle" x="325" y="-233.5" font-family="Helvetica,sans-Serif" font-size="10.00"> </text>
</g>
<!-- Node5&#45;&gt;Node1 -->
<g id="edge4" class="edge"><title>Node5&#45;&gt;Node1</title>
<path fill="none" stroke="#404040" d="M325,-226.229C325,-205.187 325,-175.178 325,-146.973"/>
<polygon fill="none" stroke="#404040" points="325,-146.605 321,-140.606 325,-134.605 329,-140.605 325,-146.605"/>
<text text-anchor="middle" x="373.5" y="-178" font-family="Helvetica,sans-Serif" font-size="10.00"> #mAckChannelName</text>
<text text-anchor="middle" x="373.5" y="-167" font-family="Helvetica,sans-Serif" font-size="10.00">#mOutChannelName</text>
</g>
<!-- Node6 -->
<g id="node6" class="node"><title>Node6</title>
<polygon fill="none" stroke="#bfbfbf" points="389,-215.5 389,-294.5 495,-294.5 495,-215.5 389,-215.5"/>
<text text-anchor="start" x="397" y="-282.5" font-family="Helvetica,sans-Serif" font-size="10.00">array&lt; o2::devices</text>
<text text-anchor="start" x="397" y="-271.5" font-family="Helvetica,sans-Serif" font-size="10.00">::timeframeDuration,</text>
<text text-anchor="middle" x="442" y="-260.5" font-family="Helvetica,sans-Serif" font-size="10.00"> UINT16_MAX &gt;</text>
<polyline fill="none" stroke="#bfbfbf" points="389,-253.5 495,-253.5 "/>
<text text-anchor="middle" x="442" y="-241.5" font-family="Helvetica,sans-Serif" font-size="10.00"> </text>
<polyline fill="none" stroke="#bfbfbf" points="389,-234.5 495,-234.5 "/>
<text text-anchor="middle" x="442" y="-222.5" font-family="Helvetica,sans-Serif" font-size="10.00"> </text>
</g>
<!-- Node6&#45;&gt;Node1 -->
<g id="edge5" class="edge"><title>Node6&#45;&gt;Node1</title>
<path fill="none" stroke="#404040" d="M440.763,-215.456C438.689,-195.685 433.865,-171.862 423,-153 418.856,-145.806 413.867,-138.929 408.363,-132.426"/>
<polygon fill="none" stroke="#404040" points="408.031,-132.061 401.037,-130.305 399.968,-123.174 406.962,-124.93 408.031,-132.061"/>
<text text-anchor="middle" x="479.5" y="-172.5" font-family="Helvetica,sans-Serif" font-size="10.00"> #mTimeframeRTT</text>
</g>
<!-- Node7 -->
<g id="node7" class="node"><title>Node7</title>
<polygon fill="none" stroke="#bfbfbf" points="513,-226.5 513,-283.5 595,-283.5 595,-226.5 513,-226.5"/>
<text text-anchor="middle" x="554" y="-271.5" font-family="Helvetica,sans-Serif" font-size="10.00">atomic&lt; bool &gt;</text>
<polyline fill="none" stroke="#bfbfbf" points="513,-264.5 595,-264.5 "/>
<text text-anchor="middle" x="554" y="-252.5" font-family="Helvetica,sans-Serif" font-size="10.00"> </text>
<polyline fill="none" stroke="#bfbfbf" points="513,-245.5 595,-245.5 "/>
<text text-anchor="middle" x="554" y="-233.5" font-family="Helvetica,sans-Serif" font-size="10.00"> </text>
</g>
<!-- Node7&#45;&gt;Node1 -->
<g id="edge6" class="edge"><title>Node7&#45;&gt;Node1</title>
<path fill="none" stroke="#404040" d="M552.487,-226.476C549.898,-204.218 543.032,-173.34 525,-153 495.527,-119.755 450.798,-99.2107 411.108,-86.719"/>
<polygon fill="none" stroke="#404040" points="411.018,-86.6919 404.123,-88.8033 399.522,-83.2507 406.417,-81.1393 411.018,-86.6919"/>
<text text-anchor="middle" x="572.5" y="-172.5" font-family="Helvetica,sans-Serif" font-size="10.00"> #mLeaving</text>
</g>
<!-- Node8 -->
<g id="node8" class="node"><title>Node8</title>
<polygon fill="none" stroke="#bfbfbf" points="613,-226.5 613,-283.5 657,-283.5 657,-226.5 613,-226.5"/>
<text text-anchor="middle" x="635" y="-271.5" font-family="Helvetica,sans-Serif" font-size="10.00">thread</text>
<polyline fill="none" stroke="#bfbfbf" points="613,-264.5 657,-264.5 "/>
<text text-anchor="middle" x="635" y="-252.5" font-family="Helvetica,sans-Serif" font-size="10.00"> </text>
<polyline fill="none" stroke="#bfbfbf" points="613,-245.5 657,-245.5 "/>
<text text-anchor="middle" x="635" y="-233.5" font-family="Helvetica,sans-Serif" font-size="10.00"> </text>
</g>
<!-- Node8&#45;&gt;Node1 -->
<g id="edge7" class="edge"><title>Node8&#45;&gt;Node1</title>
<path fill="none" stroke="#404040" d="M632.874,-226.355C629.692,-203.718 621.758,-172.372 602,-153 551.368,-103.356 472.453,-82.7651 411.785,-74.2828"/>
<polygon fill="none" stroke="#404040" points="411.422,-74.2359 404.958,-77.4332 399.521,-72.6965 405.984,-69.4993 411.422,-74.2359"/>
<text text-anchor="middle" x="676" y="-178" font-family="Helvetica,sans-Serif" font-size="10.00"> #mAckListener</text>
<text text-anchor="middle" x="676" y="-167" font-family="Helvetica,sans-Serif" font-size="10.00">#mResetEventCounter</text>
</g>
</g>
</svg>
