<?xml version="1.0" encoding="UTF-8" standalone="no"?>
<!DOCTYPE svg PUBLIC "-//W3C//DTD SVG 1.1//EN"
 "http://www.w3.org/Graphics/SVG/1.1/DTD/svg11.dtd">
<!-- Generated by graphviz version 2.38.0 (20140413.2041)
 -->
<!-- Title: /home/travis/build/AliceO2Group/AliceO2/GPU/GPUTracking/TPCClusterFinder/Clusterizer.h Pages: 1 -->
<svg width="1674pt" height="621pt"
 viewBox="0.00 0.00 1674.00 621.00" xmlns="http://www.w3.org/2000/svg" xmlns:xlink="http://www.w3.org/1999/xlink">
<g id="graph0" class="graph" transform="scale(1 1) rotate(0) translate(4 617)">
<title>/home/travis/build/AliceO2Group/AliceO2/GPU/GPUTracking/TPCClusterFinder/Clusterizer.h</title>
<!-- Node1 -->
<g id="node1" class="node"><title>Node1</title>
<polygon fill="#bfbfbf" stroke="black" points="162,-560.5 162,-612.5 347,-612.5 347,-560.5 162,-560.5"/>
<text text-anchor="start" x="170" y="-600.5" font-family="Helvetica,sans-Serif" font-size="10.00">/home/travis/build</text>
<text text-anchor="start" x="170" y="-589.5" font-family="Helvetica,sans-Serif" font-size="10.00">/AliceO2Group/AliceO2</text>
<text text-anchor="start" x="170" y="-578.5" font-family="Helvetica,sans-Serif" font-size="10.00">/GPU/GPUTracking/TPCClusterFinder</text>
<text text-anchor="middle" x="254.5" y="-567.5" font-family="Helvetica,sans-Serif" font-size="10.00">/Clusterizer.h</text>
</g>
<!-- Node2 -->
<g id="node2" class="node"><title>Node2</title>
<g id="a_node2"><a xlink:href="../../d9/db0/clusterFinderDefs_8h.html" target="_top" xlink:title="clusterFinderDefs.h">
<polygon fill="none" stroke="black" points="125.5,-336.5 125.5,-355.5 227.5,-355.5 227.5,-336.5 125.5,-336.5"/>
<text text-anchor="middle" x="176.5" y="-343.5" font-family="Helvetica,sans-Serif" font-size="10.00">clusterFinderDefs.h</text>
</a>
</g>
</g>
<!-- Node1&#45;&gt;Node2 -->
<g id="edge1" class="edge"><title>Node1&#45;&gt;Node2</title>
<path fill="none" stroke="midnightblue" d="M246.3,-560.427C230.54,-512.238 196.357,-407.717 182.508,-365.371"/>
<polygon fill="midnightblue" stroke="midnightblue" points="185.814,-364.22 179.379,-355.804 179.161,-366.396 185.814,-364.22"/>
</g>
<!-- Node14 -->
<g id="node14" class="node"><title>Node14</title>
<g id="a_node14"><a xlink:href="../../d1/d59/GPUTPCClusterFinderKernels_8h.html" target="_top" xlink:title="GPUTPCClusterFinderKernels.h">
<polygon fill="none" stroke="black" points="282.5,-504.5 282.5,-523.5 440.5,-523.5 440.5,-504.5 282.5,-504.5"/>
<text text-anchor="middle" x="361.5" y="-511.5" font-family="Helvetica,sans-Serif" font-size="10.00">GPUTPCClusterFinderKernels.h</text>
</a>
</g>
</g>
<!-- Node1&#45;&gt;Node14 -->
<g id="edge14" class="edge"><title>Node1&#45;&gt;Node14</title>
<path fill="none" stroke="midnightblue" d="M292.525,-560.446C308.436,-549.963 326.344,-538.163 339.925,-529.215"/>
<polygon fill="midnightblue" stroke="midnightblue" points="342.134,-531.952 348.558,-523.527 338.282,-526.106 342.134,-531.952"/>
</g>
<!-- Node40 -->
<g id="node40" class="node"><title>Node40</title>
<g id="a_node40"><a xlink:href="../../d1/d65/PackedCharge_8h.html" target="_top" xlink:title="PackedCharge.h">
<polygon fill="none" stroke="black" points="243,-392.5 243,-411.5 332,-411.5 332,-392.5 243,-392.5"/>
<text text-anchor="middle" x="287.5" y="-399.5" font-family="Helvetica,sans-Serif" font-size="10.00">PackedCharge.h</text>
</a>
</g>
</g>
<!-- Node1&#45;&gt;Node40 -->
<g id="edge73" class="edge"><title>Node1&#45;&gt;Node40</title>
<path fill="none" stroke="midnightblue" d="M257.098,-560.477C260.214,-532.779 266.092,-486.904 274.5,-448 276.435,-439.047 279.184,-429.26 281.656,-421.107"/>
<polygon fill="midnightblue" stroke="midnightblue" points="285.004,-422.127 284.654,-411.538 278.325,-420.034 285.004,-422.127"/>
</g>
<!-- Node3 -->
<g id="node3" class="node"><title>Node3</title>
<g id="a_node3"><a xlink:href="../../d2/d6d/GPUDef_8h.html" target="_top" xlink:title="GPUDef.h">
<polygon fill="none" stroke="black" points="873.5,-112.5 873.5,-131.5 935.5,-131.5 935.5,-112.5 873.5,-112.5"/>
<text text-anchor="middle" x="904.5" y="-119.5" font-family="Helvetica,sans-Serif" font-size="10.00">GPUDef.h</text>
</a>
</g>
</g>
<!-- Node2&#45;&gt;Node3 -->
<g id="edge2" class="edge"><title>Node2&#45;&gt;Node3</title>
<path fill="none" stroke="midnightblue" d="M179.191,-336.397C186.625,-314.096 209.647,-254.069 250.5,-224 348.934,-151.549 735.511,-129.762 863.268,-124.47"/>
<polygon fill="midnightblue" stroke="midnightblue" points="863.566,-127.961 873.417,-124.062 863.285,-120.966 863.566,-127.961"/>
</g>
<!-- Node12 -->
<g id="node12" class="node"><title>Node12</title>
<g id="a_node12"><a xlink:href="../../d6/deb/GPU_2GPUTracking_2TPCClusterFinder_2Digit_8h.html" target="_top" xlink:title="Digit.h">
<polygon fill="none" stroke="black" points="103,-280.5 103,-299.5 148,-299.5 148,-280.5 103,-280.5"/>
<text text-anchor="middle" x="125.5" y="-287.5" font-family="Helvetica,sans-Serif" font-size="10.00">Digit.h</text>
</a>
</g>
</g>
<!-- Node2&#45;&gt;Node12 -->
<g id="edge11" class="edge"><title>Node2&#45;&gt;Node12</title>
<path fill="none" stroke="midnightblue" d="M163.191,-336.324C154.287,-328.654 143.12,-317.25 135.064,-307.8"/>
<polygon fill="midnightblue" stroke="midnightblue" points="137.673,-305.458 128.694,-299.834 132.206,-309.83 137.673,-305.458"/>
</g>
<!-- Node13 -->
<g id="node13" class="node"><title>Node13</title>
<g id="a_node13"><a xlink:href="../../d0/dc1/GPU_2GPUTracking_2TPCClusterFinder_2ClusterNative_8h.html" target="_top" xlink:title="ClusterNative.h">
<polygon fill="none" stroke="black" points="0,-280.5 0,-299.5 85,-299.5 85,-280.5 0,-280.5"/>
<text text-anchor="middle" x="42.5" y="-287.5" font-family="Helvetica,sans-Serif" font-size="10.00">ClusterNative.h</text>
</a>
</g>
</g>
<!-- Node2&#45;&gt;Node13 -->
<g id="edge13" class="edge"><title>Node2&#45;&gt;Node13</title>
<path fill="none" stroke="midnightblue" d="M155.267,-336.444C133.116,-327.517 98.1813,-313.439 73.064,-303.317"/>
<polygon fill="midnightblue" stroke="midnightblue" points="74.2168,-300.008 63.6334,-299.516 71.6003,-306.501 74.2168,-300.008"/>
</g>
<!-- Node4 -->
<g id="node4" class="node"><title>Node4</title>
<g id="a_node4"><a xlink:href="../../df/d21/GPUCommonDef_8h.html" target="_top" xlink:title="GPUCommonDef.h">
<polygon fill="none" stroke="black" points="1233.5,-56.5 1233.5,-75.5 1335.5,-75.5 1335.5,-56.5 1233.5,-56.5"/>
<text text-anchor="middle" x="1284.5" y="-63.5" font-family="Helvetica,sans-Serif" font-size="10.00">GPUCommonDef.h</text>
</a>
</g>
</g>
<!-- Node3&#45;&gt;Node4 -->
<g id="edge3" class="edge"><title>Node3&#45;&gt;Node4</title>
<path fill="none" stroke="midnightblue" d="M935.889,-113.658C938.793,-113.063 941.697,-112.5 944.5,-112 1041.38,-94.7265 1154.87,-81.0013 1223.15,-73.4419"/>
<polygon fill="midnightblue" stroke="midnightblue" points="1223.74,-76.898 1233.3,-72.3268 1222.98,-69.9399 1223.74,-76.898"/>
</g>
<!-- Node7 -->
<g id="node7" class="node"><title>Node7</title>
<g id="a_node7"><a xlink:href="../../d2/d37/GPUDefConstantsAndSettings_8h.html" target="_top" xlink:title="GPUDefConstantsAndSettings.h">
<polygon fill="none" stroke="black" points="999,-56.5 999,-75.5 1160,-75.5 1160,-56.5 999,-56.5"/>
<text text-anchor="middle" x="1079.5" y="-63.5" font-family="Helvetica,sans-Serif" font-size="10.00">GPUDefConstantsAndSettings.h</text>
</a>
</g>
</g>
<!-- Node3&#45;&gt;Node7 -->
<g id="edge6" class="edge"><title>Node3&#45;&gt;Node7</title>
<path fill="none" stroke="midnightblue" d="M932.229,-112.444C961.926,-103.28 1009.22,-88.6876 1042.17,-78.5192"/>
<polygon fill="midnightblue" stroke="midnightblue" points="1043.38,-81.8094 1051.9,-75.5164 1041.31,-75.1206 1043.38,-81.8094"/>
</g>
<!-- Node8 -->
<g id="node8" class="node"><title>Node8</title>
<g id="a_node8"><a xlink:href="../../dc/de9/GPUDefGPUParameters_8h.html" target="_top" xlink:title="GPUDefGPUParameters.h">
<polygon fill="none" stroke="black" points="536.5,-56.5 536.5,-75.5 670.5,-75.5 670.5,-56.5 536.5,-56.5"/>
<text text-anchor="middle" x="603.5" y="-63.5" font-family="Helvetica,sans-Serif" font-size="10.00">GPUDefGPUParameters.h</text>
</a>
</g>
</g>
<!-- Node3&#45;&gt;Node8 -->
<g id="edge7" class="edge"><title>Node3&#45;&gt;Node8</title>
<path fill="none" stroke="midnightblue" d="M873.421,-115.424C823.48,-106.465 724.572,-88.7206 661.356,-77.3795"/>
<polygon fill="midnightblue" stroke="midnightblue" points="661.606,-73.8685 651.145,-75.5476 660.37,-80.7585 661.606,-73.8685"/>
</g>
<!-- Node9 -->
<g id="node9" class="node"><title>Node9</title>
<g id="a_node9"><a xlink:href="../../d3/d4c/GPUDefOpenCL12Templates_8h.html" target="_top" xlink:title="GPUDefOpenCL12Templates.h">
<polygon fill="none" stroke="black" points="689,-56.5 689,-75.5 844,-75.5 844,-56.5 689,-56.5"/>
<text text-anchor="middle" x="766.5" y="-63.5" font-family="Helvetica,sans-Serif" font-size="10.00">GPUDefOpenCL12Templates.h</text>
</a>
</g>
</g>
<!-- Node3&#45;&gt;Node9 -->
<g id="edge8" class="edge"><title>Node3&#45;&gt;Node9</title>
<path fill="none" stroke="midnightblue" d="M882.633,-112.444C859.721,-103.478 823.525,-89.314 797.634,-79.1827"/>
<polygon fill="midnightblue" stroke="midnightblue" points="798.852,-75.9011 788.264,-75.5164 796.301,-82.4198 798.852,-75.9011"/>
</g>
<!-- Node10 -->
<g id="node10" class="node"><title>Node10</title>
<g id="a_node10"><a xlink:href="../../d2/d45/GPUCommonRtypes_8h.html" target="_top" xlink:title="GPUCommonRtypes.h">
<polygon fill="none" stroke="black" points="862.5,-56.5 862.5,-75.5 980.5,-75.5 980.5,-56.5 862.5,-56.5"/>
<text text-anchor="middle" x="921.5" y="-63.5" font-family="Helvetica,sans-Serif" font-size="10.00">GPUCommonRtypes.h</text>
</a>
</g>
</g>
<!-- Node3&#45;&gt;Node10 -->
<g id="edge9" class="edge"><title>Node3&#45;&gt;Node10</title>
<path fill="none" stroke="midnightblue" d="M907.307,-112.083C909.585,-104.849 912.871,-94.4087 915.708,-85.3968"/>
<polygon fill="midnightblue" stroke="midnightblue" points="919.081,-86.3406 918.745,-75.7511 912.404,-84.2385 919.081,-86.3406"/>
</g>
<!-- Node5 -->
<g id="node5" class="node"><title>Node5</title>
<g id="a_node5"><a xlink:href="../../d5/d93/GPUCommonDefSettings_8h.html" target="_top" xlink:title="GPUCommonDefSettings.h">
<polygon fill="none" stroke="black" points="1288.5,-0.5 1288.5,-19.5 1426.5,-19.5 1426.5,-0.5 1288.5,-0.5"/>
<text text-anchor="middle" x="1357.5" y="-7.5" font-family="Helvetica,sans-Serif" font-size="10.00">GPUCommonDefSettings.h</text>
</a>
</g>
</g>
<!-- Node4&#45;&gt;Node5 -->
<g id="edge4" class="edge"><title>Node4&#45;&gt;Node5</title>
<path fill="none" stroke="midnightblue" d="M1296.23,-56.324C1307.34,-48.1066 1324.24,-35.6017 1337.48,-25.8069"/>
<polygon fill="midnightblue" stroke="midnightblue" points="1339.6,-28.5948 1345.56,-19.8339 1335.44,-22.9671 1339.6,-28.5948"/>
</g>
<!-- Node6 -->
<g id="node6" class="node"><title>Node6</title>
<g id="a_node6"><a xlink:href="../../da/d5a/GPUCommonDefAPI_8h.html" target="_top" xlink:title="GPUCommonDefAPI.h">
<polygon fill="none" stroke="black" points="1151,-0.5 1151,-19.5 1270,-19.5 1270,-0.5 1151,-0.5"/>
<text text-anchor="middle" x="1210.5" y="-7.5" font-family="Helvetica,sans-Serif" font-size="10.00">GPUCommonDefAPI.h</text>
</a>
</g>
</g>
<!-- Node4&#45;&gt;Node6 -->
<g id="edge5" class="edge"><title>Node4&#45;&gt;Node6</title>
<path fill="none" stroke="midnightblue" d="M1272.61,-56.324C1261.35,-48.1066 1244.21,-35.6017 1230.79,-25.8069"/>
<polygon fill="midnightblue" stroke="midnightblue" points="1232.75,-22.9014 1222.61,-19.8339 1228.62,-28.5559 1232.75,-22.9014"/>
</g>
<!-- Node11 -->
<g id="node11" class="node"><title>Node11</title>
<polygon fill="none" stroke="#bfbfbf" points="893.5,-0.5 893.5,-19.5 949.5,-19.5 949.5,-0.5 893.5,-0.5"/>
<text text-anchor="middle" x="921.5" y="-7.5" font-family="Helvetica,sans-Serif" font-size="10.00">Rtypes.h</text>
</g>
<!-- Node10&#45;&gt;Node11 -->
<g id="edge10" class="edge"><title>Node10&#45;&gt;Node11</title>
<path fill="none" stroke="midnightblue" d="M921.5,-56.083C921.5,-49.0059 921.5,-38.8611 921.5,-29.9865"/>
<polygon fill="midnightblue" stroke="midnightblue" points="925,-29.751 921.5,-19.7511 918,-29.7511 925,-29.751"/>
</g>
<!-- Node12&#45;&gt;Node2 -->
<g id="edge12" class="edge"><title>Node12&#45;&gt;Node2</title>
<path fill="none" stroke="midnightblue" d="M138.896,-299.751C147.768,-307.405 158.862,-318.736 166.888,-328.144"/>
<polygon fill="midnightblue" stroke="midnightblue" points="164.262,-330.465 173.245,-336.083 169.726,-326.089 164.262,-330.465"/>
</g>
<!-- Node14&#45;&gt;Node2 -->
<g id="edge72" class="edge"><title>Node14&#45;&gt;Node2</title>
<path fill="none" stroke="midnightblue" d="M338.904,-504.375C320.392,-496.623 294.143,-484.005 274.5,-468 236.591,-437.112 203.325,-389.461 187.068,-364.159"/>
<polygon fill="midnightblue" stroke="midnightblue" points="189.99,-362.23 181.696,-355.637 184.068,-365.963 189.99,-362.23"/>
</g>
<!-- Node15 -->
<g id="node15" class="node"><title>Node15</title>
<g id="a_node15"><a xlink:href="../../d9/de5/GPUGeneralKernels_8h.html" target="_top" xlink:title="GPUGeneralKernels.h">
<polygon fill="none" stroke="black" points="1379,-224.5 1379,-243.5 1492,-243.5 1492,-224.5 1379,-224.5"/>
<text text-anchor="middle" x="1435.5" y="-231.5" font-family="Helvetica,sans-Serif" font-size="10.00">GPUGeneralKernels.h</text>
</a>
</g>
</g>
<!-- Node14&#45;&gt;Node15 -->
<g id="edge15" class="edge"><title>Node14&#45;&gt;Node15</title>
<path fill="none" stroke="midnightblue" d="M440.539,-512.106C668.745,-508.486 1312.5,-490.517 1312.5,-403 1312.5,-403 1312.5,-403 1312.5,-345 1312.5,-296.48 1366.34,-264.014 1402.77,-247.597"/>
<polygon fill="midnightblue" stroke="midnightblue" points="1404.28,-250.758 1412.08,-243.58 1401.51,-244.332 1404.28,-250.758"/>
</g>
<!-- Node18 -->
<g id="node18" class="node"><title>Node18</title>
<g id="a_node18"><a xlink:href="../../db/df8/GPUConstantMem_8h.html" target="_top" xlink:title="GPUConstantMem.h">
<polygon fill="none" stroke="black" points="1340.5,-448.5 1340.5,-467.5 1448.5,-467.5 1448.5,-448.5 1340.5,-448.5"/>
<text text-anchor="middle" x="1394.5" y="-455.5" font-family="Helvetica,sans-Serif" font-size="10.00">GPUConstantMem.h</text>
</a>
</g>
</g>
<!-- Node14&#45;&gt;Node18 -->
<g id="edge20" class="edge"><title>Node14&#45;&gt;Node18</title>
<path fill="none" stroke="midnightblue" d="M440.774,-511.583C605.857,-508.13 998.452,-497.304 1326.5,-468 1327.77,-467.887 1329.05,-467.767 1330.34,-467.642"/>
<polygon fill="midnightblue" stroke="midnightblue" points="1330.78,-471.116 1340.36,-466.588 1330.04,-464.154 1330.78,-471.116"/>
</g>
<!-- Node39 -->
<g id="node39" class="node"><title>Node39</title>
<g id="a_node39"><a xlink:href="../../d5/df1/GPUTPCSharedMemoryData_8h.html" target="_top" xlink:title="GPUTPCSharedMemoryData.h">
<polygon fill="none" stroke="black" points="283.5,-448.5 283.5,-467.5 437.5,-467.5 437.5,-448.5 283.5,-448.5"/>
<text text-anchor="middle" x="360.5" y="-455.5" font-family="Helvetica,sans-Serif" font-size="10.00">GPUTPCSharedMemoryData.h</text>
</a>
</g>
</g>
<!-- Node14&#45;&gt;Node39 -->
<g id="edge67" class="edge"><title>Node14&#45;&gt;Node39</title>
<path fill="none" stroke="midnightblue" d="M361.335,-504.083C361.204,-497.006 361.016,-486.861 360.852,-477.986"/>
<polygon fill="midnightblue" stroke="midnightblue" points="364.347,-477.685 360.662,-467.751 357.348,-477.814 364.347,-477.685"/>
</g>
<!-- Node15&#45;&gt;Node3 -->
<g id="edge16" class="edge"><title>Node15&#45;&gt;Node3</title>
<path fill="none" stroke="midnightblue" d="M1383.22,-224.483C1332.15,-215.97 1252.28,-202.143 1183.5,-188 1098.6,-170.543 1000,-146.732 945.696,-133.308"/>
<polygon fill="midnightblue" stroke="midnightblue" points="946.312,-129.854 935.764,-130.846 944.628,-136.649 946.312,-129.854"/>
</g>
<!-- Node16 -->
<g id="node16" class="node"><title>Node16</title>
<g id="a_node16"><a xlink:href="../../d4/dc5/GPUDataTypes_8h.html" target="_top" xlink:title="GPUDataTypes.h">
<polygon fill="none" stroke="black" points="1469,-168.5 1469,-187.5 1564,-187.5 1564,-168.5 1469,-168.5"/>
<text text-anchor="middle" x="1516.5" y="-175.5" font-family="Helvetica,sans-Serif" font-size="10.00">GPUDataTypes.h</text>
</a>
</g>
</g>
<!-- Node15&#45;&gt;Node16 -->
<g id="edge17" class="edge"><title>Node15&#45;&gt;Node16</title>
<path fill="none" stroke="midnightblue" d="M1448.51,-224.324C1461.03,-215.979 1480.18,-203.212 1494.97,-193.352"/>
<polygon fill="midnightblue" stroke="midnightblue" points="1497.14,-196.114 1503.52,-187.655 1493.26,-190.289 1497.14,-196.114"/>
</g>
<!-- Node16&#45;&gt;Node4 -->
<g id="edge18" class="edge"><title>Node16&#45;&gt;Node4</title>
<path fill="none" stroke="midnightblue" d="M1498.3,-168.368C1457.72,-149.131 1359.68,-102.648 1311.77,-79.9314"/>
<polygon fill="midnightblue" stroke="midnightblue" points="1313.16,-76.7132 1302.62,-75.5914 1310.16,-83.0382 1313.16,-76.7132"/>
</g>
<!-- Node17 -->
<g id="node17" class="node"><title>Node17</title>
<polygon fill="none" stroke="#bfbfbf" points="1235,-112.5 1235,-131.5 1284,-131.5 1284,-112.5 1235,-112.5"/>
<text text-anchor="middle" x="1259.5" y="-119.5" font-family="Helvetica,sans-Serif" font-size="10.00">cstddef</text>
</g>
<!-- Node16&#45;&gt;Node17 -->
<g id="edge19" class="edge"><title>Node16&#45;&gt;Node17</title>
<path fill="none" stroke="midnightblue" d="M1475.78,-168.444C1425.64,-157.91 1341.36,-140.201 1294.18,-130.286"/>
<polygon fill="midnightblue" stroke="midnightblue" points="1294.65,-126.808 1284.14,-128.177 1293.21,-133.659 1294.65,-126.808"/>
</g>
<!-- Node18&#45;&gt;Node16 -->
<g id="edge63" class="edge"><title>Node18&#45;&gt;Node16</title>
<path fill="none" stroke="midnightblue" d="M1418.79,-448.47C1455.41,-433.881 1520.5,-400.43 1520.5,-347 1520.5,-347 1520.5,-347 1520.5,-289 1520.5,-256.927 1518.78,-219.628 1517.6,-197.741"/>
<polygon fill="midnightblue" stroke="midnightblue" points="1521.08,-197.341 1517.02,-187.554 1514.09,-197.735 1521.08,-197.341"/>
</g>
<!-- Node19 -->
<g id="node19" class="node"><title>Node19</title>
<g id="a_node19"><a xlink:href="../../d6/d25/GPUTPCTracker_8h.html" target="_top" xlink:title="GPUTPCTracker.h">
<polygon fill="none" stroke="black" points="831.5,-392.5 831.5,-411.5 931.5,-411.5 931.5,-392.5 831.5,-392.5"/>
<text text-anchor="middle" x="881.5" y="-399.5" font-family="Helvetica,sans-Serif" font-size="10.00">GPUTPCTracker.h</text>
</a>
</g>
</g>
<!-- Node18&#45;&gt;Node19 -->
<g id="edge21" class="edge"><title>Node18&#45;&gt;Node19</title>
<path fill="none" stroke="midnightblue" d="M1340.09,-451.272C1243.36,-441.09 1042.21,-419.916 941.565,-409.323"/>
<polygon fill="midnightblue" stroke="midnightblue" points="941.872,-405.836 931.56,-408.27 941.139,-412.797 941.872,-405.836"/>
</g>
<!-- Node29 -->
<g id="node29" class="node"><title>Node29</title>
<g id="a_node29"><a xlink:href="../../df/d13/GPUParam_8h.html" target="_top" xlink:title="GPUParam.h">
<polygon fill="none" stroke="black" points="1022,-280.5 1022,-299.5 1097,-299.5 1097,-280.5 1022,-280.5"/>
<text text-anchor="middle" x="1059.5" y="-287.5" font-family="Helvetica,sans-Serif" font-size="10.00">GPUParam.h</text>
</a>
</g>
</g>
<!-- Node18&#45;&gt;Node29 -->
<g id="edge62" class="edge"><title>Node18&#45;&gt;Node29</title>
<path fill="none" stroke="midnightblue" d="M1376.96,-448.309C1321.9,-421.024 1152.22,-336.947 1086.19,-304.224"/>
<polygon fill="midnightblue" stroke="midnightblue" points="1087.38,-300.909 1076.87,-299.605 1084.27,-307.181 1087.38,-300.909"/>
</g>
<!-- Node38 -->
<g id="node38" class="node"><title>Node38</title>
<g id="a_node38"><a xlink:href="../../da/d28/GPUO2FakeClasses_8h.html" target="_top" xlink:title="GPUO2FakeClasses.h">
<polygon fill="none" stroke="black" points="1549,-224.5 1549,-243.5 1666,-243.5 1666,-224.5 1549,-224.5"/>
<text text-anchor="middle" x="1607.5" y="-231.5" font-family="Helvetica,sans-Serif" font-size="10.00">GPUO2FakeClasses.h</text>
</a>
</g>
</g>
<!-- Node18&#45;&gt;Node38 -->
<g id="edge64" class="edge"><title>Node18&#45;&gt;Node38</title>
<path fill="none" stroke="midnightblue" d="M1448.54,-450.711C1477.12,-444.879 1511.05,-433.643 1534.5,-412 1581.67,-368.468 1599.21,-289.901 1604.99,-253.921"/>
<polygon fill="midnightblue" stroke="midnightblue" points="1608.48,-254.237 1606.47,-243.834 1601.55,-253.218 1608.48,-254.237"/>
</g>
<!-- Node20 -->
<g id="node20" class="node"><title>Node20</title>
<g id="a_node20"><a xlink:href="../../da/dab/GPUTPCDef_8h.html" target="_top" xlink:title="GPUTPCDef.h">
<polygon fill="none" stroke="black" points="482,-168.5 482,-187.5 565,-187.5 565,-168.5 482,-168.5"/>
<text text-anchor="middle" x="523.5" y="-175.5" font-family="Helvetica,sans-Serif" font-size="10.00">GPUTPCDef.h</text>
</a>
</g>
</g>
<!-- Node19&#45;&gt;Node20 -->
<g id="edge22" class="edge"><title>Node19&#45;&gt;Node20</title>
<path fill="none" stroke="midnightblue" d="M831.138,-398.93C702.797,-392.672 367.803,-369.875 285.5,-300 258.693,-277.241 240.854,-250.902 263.5,-224 289.597,-192.999 403.799,-183.355 471.866,-180.354"/>
<polygon fill="midnightblue" stroke="midnightblue" points="472.117,-183.847 481.966,-179.943 471.832,-176.853 472.117,-183.847"/>
</g>
<!-- Node21 -->
<g id="node21" class="node"><title>Node21</title>
<polygon fill="none" stroke="#bfbfbf" points="904.5,-336.5 904.5,-355.5 958.5,-355.5 958.5,-336.5 904.5,-336.5"/>
<text text-anchor="middle" x="931.5" y="-343.5" font-family="Helvetica,sans-Serif" font-size="10.00">iostream</text>
</g>
<!-- Node19&#45;&gt;Node21 -->
<g id="edge24" class="edge"><title>Node19&#45;&gt;Node21</title>
<path fill="none" stroke="midnightblue" d="M889.756,-392.083C896.965,-384.298 907.61,-372.801 916.346,-363.367"/>
<polygon fill="midnightblue" stroke="midnightblue" points="919.171,-365.467 923.397,-355.751 914.035,-360.711 919.171,-365.467"/>
</g>
<!-- Node22 -->
<g id="node22" class="node"><title>Node22</title>
<g id="a_node22"><a xlink:href="../../dd/d7b/GPUTPCHitId_8h.html" target="_top" xlink:title="GPUTPCHitId.h">
<polygon fill="none" stroke="black" points="976.5,-336.5 976.5,-355.5 1064.5,-355.5 1064.5,-336.5 976.5,-336.5"/>
<text text-anchor="middle" x="1020.5" y="-343.5" font-family="Helvetica,sans-Serif" font-size="10.00">GPUTPCHitId.h</text>
</a>
</g>
</g>
<!-- Node19&#45;&gt;Node22 -->
<g id="edge25" class="edge"><title>Node19&#45;&gt;Node22</title>
<path fill="none" stroke="midnightblue" d="M903.525,-392.444C926.604,-383.478 963.062,-369.314 989.141,-359.183"/>
<polygon fill="midnightblue" stroke="midnightblue" points="990.524,-362.4 998.578,-355.516 987.989,-355.875 990.524,-362.4"/>
</g>
<!-- Node23 -->
<g id="node23" class="node"><title>Node23</title>
<g id="a_node23"><a xlink:href="../../df/d4a/GPUTPCSliceData_8h.html" target="_top" xlink:title="GPUTPCSliceData.h">
<polygon fill="none" stroke="black" points="776.5,-336.5 776.5,-355.5 886.5,-355.5 886.5,-336.5 776.5,-336.5"/>
<text text-anchor="middle" x="831.5" y="-343.5" font-family="Helvetica,sans-Serif" font-size="10.00">GPUTPCSliceData.h</text>
</a>
</g>
</g>
<!-- Node19&#45;&gt;Node23 -->
<g id="edge26" class="edge"><title>Node19&#45;&gt;Node23</title>
<path fill="none" stroke="midnightblue" d="M873.244,-392.083C866.035,-384.298 855.39,-372.801 846.654,-363.367"/>
<polygon fill="midnightblue" stroke="midnightblue" points="848.965,-360.711 839.603,-355.751 843.829,-365.467 848.965,-360.711"/>
</g>
<!-- Node34 -->
<g id="node34" class="node"><title>Node34</title>
<g id="a_node34"><a xlink:href="../../d6/d57/GPUProcessor_8h.html" target="_top" xlink:title="GPUProcessor.h">
<polygon fill="none" stroke="black" points="1193,-168.5 1193,-187.5 1284,-187.5 1284,-168.5 1193,-168.5"/>
<text text-anchor="middle" x="1238.5" y="-175.5" font-family="Helvetica,sans-Serif" font-size="10.00">GPUProcessor.h</text>
</a>
</g>
</g>
<!-- Node19&#45;&gt;Node34 -->
<g id="edge61" class="edge"><title>Node19&#45;&gt;Node34</title>
<path fill="none" stroke="midnightblue" d="M931.786,-393.765C971.335,-387.005 1027.29,-375.047 1073.5,-356 1161.31,-319.808 1209.17,-326.912 1255.5,-244 1263.83,-229.088 1257.07,-209.964 1249.75,-196.329"/>
<polygon fill="midnightblue" stroke="midnightblue" points="1252.64,-194.334 1244.54,-187.508 1246.61,-197.897 1252.64,-194.334"/>
</g>
<!-- Node35 -->
<g id="node35" class="node"><title>Node35</title>
<g id="a_node35"><a xlink:href="../../de/d15/GPUTPCTrackParam_8h.html" target="_top" xlink:title="GPUTPCTrackParam.h">
<polygon fill="none" stroke="black" points="414.5,-280.5 414.5,-299.5 534.5,-299.5 534.5,-280.5 414.5,-280.5"/>
<text text-anchor="middle" x="474.5" y="-287.5" font-family="Helvetica,sans-Serif" font-size="10.00">GPUTPCTrackParam.h</text>
</a>
</g>
</g>
<!-- Node19&#45;&gt;Node35 -->
<g id="edge53" class="edge"><title>Node19&#45;&gt;Node35</title>
<path fill="none" stroke="midnightblue" d="M849.902,-392.46C777.094,-372.782 597.534,-324.252 515.987,-302.213"/>
<polygon fill="midnightblue" stroke="midnightblue" points="516.645,-298.765 506.078,-299.535 514.818,-305.522 516.645,-298.765"/>
</g>
<!-- Node37 -->
<g id="node37" class="node"><title>Node37</title>
<g id="a_node37"><a xlink:href="../../db/d6e/GPUTPCTracklet_8h.html" target="_top" xlink:title="GPUTPCTracklet.h">
<polygon fill="none" stroke="black" points="294.5,-280.5 294.5,-299.5 396.5,-299.5 396.5,-280.5 294.5,-280.5"/>
<text text-anchor="middle" x="345.5" y="-287.5" font-family="Helvetica,sans-Serif" font-size="10.00">GPUTPCTracklet.h</text>
</a>
</g>
</g>
<!-- Node19&#45;&gt;Node37 -->
<g id="edge58" class="edge"><title>Node19&#45;&gt;Node37</title>
<path fill="none" stroke="midnightblue" d="M832.531,-392.454C783.386,-383.754 705.559,-369.643 638.5,-356 551.077,-338.214 449.528,-315.143 391.856,-301.813"/>
<polygon fill="midnightblue" stroke="midnightblue" points="392.487,-298.366 381.955,-299.52 390.908,-305.186 392.487,-298.366"/>
</g>
<!-- Node20&#45;&gt;Node3 -->
<g id="edge23" class="edge"><title>Node20&#45;&gt;Node3</title>
<path fill="none" stroke="midnightblue" d="M565.364,-171.067C638.786,-160.66 789.907,-139.241 863.042,-128.876"/>
<polygon fill="midnightblue" stroke="midnightblue" points="863.838,-132.298 873.248,-127.429 862.856,-125.367 863.838,-132.298"/>
</g>
<!-- Node23&#45;&gt;Node20 -->
<g id="edge27" class="edge"><title>Node23&#45;&gt;Node20</title>
<path fill="none" stroke="midnightblue" d="M815.374,-336.309C764.853,-309.08 609.39,-225.292 548.411,-192.426"/>
<polygon fill="midnightblue" stroke="midnightblue" points="549.93,-189.269 539.466,-187.605 546.608,-195.431 549.93,-189.269"/>
</g>
<!-- Node24 -->
<g id="node24" class="node"><title>Node24</title>
<g id="a_node24"><a xlink:href="../../d8/dff/GPUTPCRow_8h.html" target="_top" xlink:title="GPUTPCRow.h">
<polygon fill="none" stroke="black" points="553,-280.5 553,-299.5 640,-299.5 640,-280.5 553,-280.5"/>
<text text-anchor="middle" x="596.5" y="-287.5" font-family="Helvetica,sans-Serif" font-size="10.00">GPUTPCRow.h</text>
</a>
</g>
</g>
<!-- Node23&#45;&gt;Node24 -->
<g id="edge28" class="edge"><title>Node23&#45;&gt;Node24</title>
<path fill="none" stroke="midnightblue" d="M794.264,-336.444C753.44,-327.063 687.857,-311.993 643.516,-301.804"/>
<polygon fill="midnightblue" stroke="midnightblue" points="644.092,-298.345 633.562,-299.516 642.524,-305.167 644.092,-298.345"/>
</g>
<!-- Node26 -->
<g id="node26" class="node"><title>Node26</title>
<g id="a_node26"><a xlink:href="../../d6/da2/GPUCommonMath_8h.html" target="_top" xlink:title="GPUCommonMath.h">
<polygon fill="none" stroke="black" points="957.5,-168.5 957.5,-187.5 1065.5,-187.5 1065.5,-168.5 957.5,-168.5"/>
<text text-anchor="middle" x="1011.5" y="-175.5" font-family="Helvetica,sans-Serif" font-size="10.00">GPUCommonMath.h</text>
</a>
</g>
</g>
<!-- Node23&#45;&gt;Node26 -->
<g id="edge32" class="edge"><title>Node23&#45;&gt;Node26</title>
<path fill="none" stroke="midnightblue" d="M841.178,-336.075C870.37,-309.153 957.811,-228.514 994.743,-194.453"/>
<polygon fill="midnightblue" stroke="midnightblue" points="997.231,-196.92 1002.21,-187.568 992.485,-191.775 997.231,-196.92"/>
</g>
<!-- Node23&#45;&gt;Node29 -->
<g id="edge36" class="edge"><title>Node23&#45;&gt;Node29</title>
<path fill="none" stroke="midnightblue" d="M867.627,-336.444C907.151,-327.083 970.597,-312.056 1013.61,-301.868"/>
<polygon fill="midnightblue" stroke="midnightblue" points="1014.62,-305.227 1023.54,-299.516 1013,-298.415 1014.62,-305.227"/>
</g>
<!-- Node33 -->
<g id="node33" class="node"><title>Node33</title>
<g id="a_node33"><a xlink:href="../../d5/da6/GPUMemoryResource_8h.html" target="_top" xlink:title="GPUMemoryResource.h">
<polygon fill="none" stroke="black" points="1122.5,-224.5 1122.5,-243.5 1246.5,-243.5 1246.5,-224.5 1122.5,-224.5"/>
<text text-anchor="middle" x="1184.5" y="-231.5" font-family="Helvetica,sans-Serif" font-size="10.00">GPUMemoryResource.h</text>
</a>
</g>
</g>
<!-- Node23&#45;&gt;Node33 -->
<g id="edge46" class="edge"><title>Node23&#45;&gt;Node33</title>
<path fill="none" stroke="midnightblue" d="M886.675,-336.69C963.808,-324.963 1095.61,-304.485 1105.5,-300 1130.89,-288.491 1154.84,-266.665 1169.57,-251.497"/>
<polygon fill="midnightblue" stroke="midnightblue" points="1172.45,-253.542 1176.76,-243.862 1167.36,-248.744 1172.45,-253.542"/>
</g>
<!-- Node24&#45;&gt;Node20 -->
<g id="edge29" class="edge"><title>Node24&#45;&gt;Node20</title>
<path fill="none" stroke="midnightblue" d="M595.059,-280.371C592.563,-267.289 586.511,-242.052 574.5,-224 566.63,-212.172 554.893,-201.523 544.662,-193.556"/>
<polygon fill="midnightblue" stroke="midnightblue" points="546.656,-190.677 536.54,-187.528 542.484,-196.299 546.656,-190.677"/>
</g>
<!-- Node25 -->
<g id="node25" class="node"><title>Node25</title>
<g id="a_node25"><a xlink:href="../../d3/da7/GPUTPCGrid_8h.html" target="_top" xlink:title="GPUTPCGrid.h">
<polygon fill="none" stroke="black" points="481,-224.5 481,-243.5 566,-243.5 566,-224.5 481,-224.5"/>
<text text-anchor="middle" x="523.5" y="-231.5" font-family="Helvetica,sans-Serif" font-size="10.00">GPUTPCGrid.h</text>
</a>
</g>
</g>
<!-- Node24&#45;&gt;Node25 -->
<g id="edge30" class="edge"><title>Node24&#45;&gt;Node25</title>
<path fill="none" stroke="midnightblue" d="M584.771,-280.324C573.663,-272.107 556.758,-259.602 543.517,-249.807"/>
<polygon fill="midnightblue" stroke="midnightblue" points="545.563,-246.967 535.442,-243.834 541.4,-252.595 545.563,-246.967"/>
</g>
<!-- Node25&#45;&gt;Node20 -->
<g id="edge31" class="edge"><title>Node25&#45;&gt;Node20</title>
<path fill="none" stroke="midnightblue" d="M523.5,-224.083C523.5,-217.006 523.5,-206.861 523.5,-197.986"/>
<polygon fill="midnightblue" stroke="midnightblue" points="527,-197.751 523.5,-187.751 520,-197.751 527,-197.751"/>
</g>
<!-- Node26&#45;&gt;Node4 -->
<g id="edge33" class="edge"><title>Node26&#45;&gt;Node4</title>
<path fill="none" stroke="midnightblue" d="M1013.33,-168.245C1016.78,-154.034 1025.66,-126.118 1044.5,-112 1072.13,-91.2877 1161.81,-78.7121 1223.36,-72.3058"/>
<polygon fill="midnightblue" stroke="midnightblue" points="1223.76,-75.7827 1233.36,-71.2929 1223.06,-68.8183 1223.76,-75.7827"/>
</g>
<!-- Node27 -->
<g id="node27" class="node"><title>Node27</title>
<polygon fill="none" stroke="#bfbfbf" points="953.5,-112.5 953.5,-131.5 997.5,-131.5 997.5,-112.5 953.5,-112.5"/>
<text text-anchor="middle" x="975.5" y="-119.5" font-family="Helvetica,sans-Serif" font-size="10.00">cmath</text>
</g>
<!-- Node26&#45;&gt;Node27 -->
<g id="edge34" class="edge"><title>Node26&#45;&gt;Node27</title>
<path fill="none" stroke="midnightblue" d="M1005.56,-168.083C1000.52,-160.534 993.163,-149.495 986.987,-140.23"/>
<polygon fill="midnightblue" stroke="midnightblue" points="989.793,-138.13 981.334,-131.751 983.969,-142.013 989.793,-138.13"/>
</g>
<!-- Node28 -->
<g id="node28" class="node"><title>Node28</title>
<polygon fill="none" stroke="#bfbfbf" points="1053.5,-112.5 1053.5,-131.5 1109.5,-131.5 1109.5,-112.5 1053.5,-112.5"/>
<text text-anchor="middle" x="1081.5" y="-119.5" font-family="Helvetica,sans-Serif" font-size="10.00">algorithm</text>
</g>
<!-- Node26&#45;&gt;Node28 -->
<g id="edge35" class="edge"><title>Node26&#45;&gt;Node28</title>
<path fill="none" stroke="midnightblue" d="M1022.75,-168.324C1033.3,-160.185 1049.3,-147.839 1061.94,-138.087"/>
<polygon fill="midnightblue" stroke="midnightblue" points="1064.27,-140.713 1070.05,-131.834 1059.99,-135.171 1064.27,-140.713"/>
</g>
<!-- Node29&#45;&gt;Node3 -->
<g id="edge39" class="edge"><title>Node29&#45;&gt;Node3</title>
<path fill="none" stroke="midnightblue" d="M1034.55,-280.37C1015.99,-272.978 990.966,-260.845 973.5,-244 942.43,-214.034 921.142,-167.029 911.1,-141.315"/>
<polygon fill="midnightblue" stroke="midnightblue" points="914.284,-139.839 907.489,-131.71 907.732,-142.302 914.284,-139.839"/>
</g>
<!-- Node29&#45;&gt;Node4 -->
<g id="edge37" class="edge"><title>Node29&#45;&gt;Node4</title>
<path fill="none" stroke="midnightblue" d="M1097.1,-288.491C1139.19,-286.197 1207.73,-277.125 1255.5,-244 1305.57,-209.281 1297.85,-172.692 1292.5,-112 1291.72,-103.197 1290.11,-93.5357 1288.53,-85.4298"/>
<polygon fill="midnightblue" stroke="midnightblue" points="1291.94,-84.648 1286.49,-75.5666 1285.09,-86.0689 1291.94,-84.648"/>
</g>
<!-- Node29&#45;&gt;Node26 -->
<g id="edge38" class="edge"><title>Node29&#45;&gt;Node26</title>
<path fill="none" stroke="midnightblue" d="M1065.2,-280.116C1072.75,-267.141 1084.04,-242.536 1074.5,-224 1067.42,-210.247 1053.98,-199.766 1041.32,-192.394"/>
<polygon fill="midnightblue" stroke="midnightblue" points="1042.81,-189.222 1032.35,-187.573 1039.5,-195.389 1042.81,-189.222"/>
</g>
<!-- Node30 -->
<g id="node30" class="node"><title>Node30</title>
<g id="a_node30"><a xlink:href="../../dd/dc6/GPUSettings_8h.html" target="_top" xlink:title="GPUSettings.h">
<polygon fill="none" stroke="black" points="983,-224.5 983,-243.5 1066,-243.5 1066,-224.5 983,-224.5"/>
<text text-anchor="middle" x="1024.5" y="-231.5" font-family="Helvetica,sans-Serif" font-size="10.00">GPUSettings.h</text>
</a>
</g>
</g>
<!-- Node29&#45;&gt;Node30 -->
<g id="edge40" class="edge"><title>Node29&#45;&gt;Node30</title>
<path fill="none" stroke="midnightblue" d="M1053.72,-280.083C1048.83,-272.534 1041.67,-261.495 1035.67,-252.23"/>
<polygon fill="midnightblue" stroke="midnightblue" points="1038.55,-250.239 1030.17,-243.751 1032.67,-254.046 1038.55,-250.239"/>
</g>
<!-- Node31 -->
<g id="node31" class="node"><title>Node31</title>
<g id="a_node31"><a xlink:href="../../d6/d1b/GPUTPCGeometry_8h.html" target="_top" xlink:title="GPUTPCGeometry.h">
<polygon fill="none" stroke="black" points="1340.5,-168.5 1340.5,-187.5 1450.5,-187.5 1450.5,-168.5 1340.5,-168.5"/>
<text text-anchor="middle" x="1395.5" y="-175.5" font-family="Helvetica,sans-Serif" font-size="10.00">GPUTPCGeometry.h</text>
</a>
</g>
</g>
<!-- Node29&#45;&gt;Node31 -->
<g id="edge42" class="edge"><title>Node29&#45;&gt;Node31</title>
<path fill="none" stroke="midnightblue" d="M1097.44,-289.393C1151.2,-288.49 1251.36,-281.346 1326.5,-244 1349.41,-232.611 1369.95,-211.079 1382.54,-195.926"/>
<polygon fill="midnightblue" stroke="midnightblue" points="1385.47,-197.86 1388.99,-187.866 1380.01,-193.484 1385.47,-197.86"/>
</g>
<!-- Node32 -->
<g id="node32" class="node"><title>Node32</title>
<g id="a_node32"><a xlink:href="../../d9/d9c/GPUTPCGMPolynomialField_8h.html" target="_top" xlink:title="GPUTPCGMPolynomialField.h">
<polygon fill="none" stroke="black" points="736.5,-224.5 736.5,-243.5 888.5,-243.5 888.5,-224.5 736.5,-224.5"/>
<text text-anchor="middle" x="812.5" y="-231.5" font-family="Helvetica,sans-Serif" font-size="10.00">GPUTPCGMPolynomialField.h</text>
</a>
</g>
</g>
<!-- Node29&#45;&gt;Node32 -->
<g id="edge44" class="edge"><title>Node29&#45;&gt;Node32</title>
<path fill="none" stroke="midnightblue" d="M1021.99,-280.799C979.112,-271.425 908.79,-256.051 861.59,-245.732"/>
<polygon fill="midnightblue" stroke="midnightblue" points="862.11,-242.263 851.593,-243.547 860.615,-249.102 862.11,-242.263"/>
</g>
<!-- Node30&#45;&gt;Node26 -->
<g id="edge41" class="edge"><title>Node30&#45;&gt;Node26</title>
<path fill="none" stroke="midnightblue" d="M1022.35,-224.083C1020.63,-216.927 1018.15,-206.635 1016,-197.691"/>
<polygon fill="midnightblue" stroke="midnightblue" points="1019.35,-196.654 1013.61,-187.751 1012.54,-198.293 1019.35,-196.654"/>
</g>
<!-- Node31&#45;&gt;Node4 -->
<g id="edge43" class="edge"><title>Node31&#45;&gt;Node4</title>
<path fill="none" stroke="midnightblue" d="M1386.79,-168.368C1368.15,-149.894 1324.15,-106.293 1300.39,-82.7436"/>
<polygon fill="midnightblue" stroke="midnightblue" points="1302.74,-80.1444 1293.17,-75.5914 1297.81,-85.1165 1302.74,-80.1444"/>
</g>
<!-- Node32&#45;&gt;Node20 -->
<g id="edge45" class="edge"><title>Node32&#45;&gt;Node20</title>
<path fill="none" stroke="midnightblue" d="M766.707,-224.444C714.673,-214.721 629.928,-198.886 575.462,-188.709"/>
<polygon fill="midnightblue" stroke="midnightblue" points="575.798,-185.211 565.325,-186.815 574.512,-192.092 575.798,-185.211"/>
</g>
<!-- Node33&#45;&gt;Node4 -->
<g id="edge47" class="edge"><title>Node33&#45;&gt;Node4</title>
<path fill="none" stroke="midnightblue" d="M1182.81,-224.378C1180.67,-211.73 1177.9,-187.528 1183.5,-168 1191.59,-139.787 1198.16,-133.163 1218.5,-112 1230.33,-99.6887 1246.05,-88.811 1259.18,-80.8355"/>
<polygon fill="midnightblue" stroke="midnightblue" points="1261.32,-83.6342 1268.18,-75.562 1257.79,-77.593 1261.32,-83.6342"/>
</g>
<!-- Node33&#45;&gt;Node34 -->
<g id="edge48" class="edge"><title>Node33&#45;&gt;Node34</title>
<path fill="none" stroke="midnightblue" d="M1193.42,-224.083C1201.28,-216.22 1212.93,-204.569 1222.42,-195.081"/>
<polygon fill="midnightblue" stroke="midnightblue" points="1225.15,-197.297 1229.75,-187.751 1220.2,-192.347 1225.15,-197.297"/>
</g>
<!-- Node34&#45;&gt;Node3 -->
<g id="edge50" class="edge"><title>Node34&#45;&gt;Node3</title>
<path fill="none" stroke="midnightblue" d="M1192.98,-170.118C1121.4,-159.284 987.072,-138.907 945.924,-132.035"/>
<polygon fill="midnightblue" stroke="midnightblue" points="946.354,-128.557 935.9,-130.281 945.147,-135.452 946.354,-128.557"/>
</g>
<!-- Node34&#45;&gt;Node4 -->
<g id="edge49" class="edge"><title>Node34&#45;&gt;Node4</title>
<path fill="none" stroke="midnightblue" d="M1233.31,-168.124C1226.47,-155.158 1216.31,-130.565 1225.5,-112 1232.1,-98.6595 1244.76,-88.1941 1256.67,-80.7262"/>
<polygon fill="midnightblue" stroke="midnightblue" points="1258.62,-83.6435 1265.52,-75.6018 1255.11,-77.5866 1258.62,-83.6435"/>
</g>
<!-- Node34&#45;&gt;Node17 -->
<g id="edge51" class="edge"><title>Node34&#45;&gt;Node17</title>
<path fill="none" stroke="midnightblue" d="M1241.97,-168.083C1244.81,-160.77 1248.93,-150.181 1252.46,-141.103"/>
<polygon fill="midnightblue" stroke="midnightblue" points="1255.73,-142.34 1256.1,-131.751 1249.21,-139.803 1255.73,-142.34"/>
</g>
<!-- Node34&#45;&gt;Node28 -->
<g id="edge52" class="edge"><title>Node34&#45;&gt;Node28</title>
<path fill="none" stroke="midnightblue" d="M1213.62,-168.444C1187.21,-159.359 1145.28,-144.939 1115.76,-134.783"/>
<polygon fill="midnightblue" stroke="midnightblue" points="1116.86,-131.459 1106.26,-131.516 1114.58,-138.079 1116.86,-131.459"/>
</g>
<!-- Node35&#45;&gt;Node20 -->
<g id="edge56" class="edge"><title>Node35&#45;&gt;Node20</title>
<path fill="none" stroke="midnightblue" d="M471.629,-280.105C467.964,-267.116 463.047,-242.494 471.5,-224 477.277,-211.36 488.552,-200.911 499.131,-193.274"/>
<polygon fill="midnightblue" stroke="midnightblue" points="501.349,-196.001 507.717,-187.533 497.458,-190.182 501.349,-196.001"/>
</g>
<!-- Node35&#45;&gt;Node26 -->
<g id="edge57" class="edge"><title>Node35&#45;&gt;Node26</title>
<path fill="none" stroke="midnightblue" d="M494.002,-280.445C526.861,-266.394 595.639,-238.543 656.5,-224 756.421,-200.123 875.383,-188.316 947.091,-182.949"/>
<polygon fill="midnightblue" stroke="midnightblue" points="947.601,-186.421 957.32,-182.203 947.092,-179.44 947.601,-186.421"/>
</g>
<!-- Node36 -->
<g id="node36" class="node"><title>Node36</title>
<g id="a_node36"><a xlink:href="../../df/d00/GPUTPCBaseTrackParam_8h.html" target="_top" xlink:title="GPUTPCBaseTrackParam.h">
<polygon fill="none" stroke="black" points="281,-224.5 281,-243.5 424,-243.5 424,-224.5 281,-224.5"/>
<text text-anchor="middle" x="352.5" y="-231.5" font-family="Helvetica,sans-Serif" font-size="10.00">GPUTPCBaseTrackParam.h</text>
</a>
</g>
</g>
<!-- Node35&#45;&gt;Node36 -->
<g id="edge54" class="edge"><title>Node35&#45;&gt;Node36</title>
<path fill="none" stroke="midnightblue" d="M455.169,-280.444C435.18,-271.596 403.757,-257.687 380.936,-247.586"/>
<polygon fill="midnightblue" stroke="midnightblue" points="382.302,-244.363 371.741,-243.516 379.468,-250.764 382.302,-244.363"/>
</g>
<!-- Node36&#45;&gt;Node20 -->
<g id="edge55" class="edge"><title>Node36&#45;&gt;Node20</title>
<path fill="none" stroke="midnightblue" d="M379.595,-224.444C408.488,-215.32 454.425,-200.813 486.605,-190.651"/>
<polygon fill="midnightblue" stroke="midnightblue" points="488.049,-193.865 496.531,-187.516 485.941,-187.19 488.049,-193.865"/>
</g>
<!-- Node37&#45;&gt;Node20 -->
<g id="edge60" class="edge"><title>Node37&#45;&gt;Node20</title>
<path fill="none" stroke="midnightblue" d="M322.194,-280.487C293.924,-268.894 252.29,-246.944 271.5,-224 296.516,-194.121 405.514,-184.061 471.694,-180.688"/>
<polygon fill="midnightblue" stroke="midnightblue" points="472.106,-184.173 481.929,-180.202 471.774,-177.18 472.106,-184.173"/>
</g>
<!-- Node37&#45;&gt;Node36 -->
<g id="edge59" class="edge"><title>Node37&#45;&gt;Node36</title>
<path fill="none" stroke="midnightblue" d="M346.656,-280.083C347.584,-272.927 348.918,-262.635 350.077,-253.691"/>
<polygon fill="midnightblue" stroke="midnightblue" points="353.551,-254.118 351.366,-243.751 346.609,-253.218 353.551,-254.118"/>
</g>
<!-- Node38&#45;&gt;Node4 -->
<g id="edge65" class="edge"><title>Node38&#45;&gt;Node4</title>
<path fill="none" stroke="midnightblue" d="M1605,-224.11C1600.65,-210.213 1590.4,-183.349 1572.5,-168 1507.25,-112.056 1409.05,-86.4565 1345.86,-75.2086"/>
<polygon fill="midnightblue" stroke="midnightblue" points="1346.09,-71.6974 1335.64,-73.4608 1344.91,-78.5971 1346.09,-71.6974"/>
</g>
<!-- Node38&#45;&gt;Node16 -->
<g id="edge66" class="edge"><title>Node38&#45;&gt;Node16</title>
<path fill="none" stroke="midnightblue" d="M1592.88,-224.324C1578.55,-215.822 1556.49,-202.729 1539.75,-192.797"/>
<polygon fill="midnightblue" stroke="midnightblue" points="1541.47,-189.748 1531.08,-187.655 1537.9,-195.768 1541.47,-189.748"/>
</g>
<!-- Node39&#45;&gt;Node2 -->
<g id="edge68" class="edge"><title>Node39&#45;&gt;Node2</title>
<path fill="none" stroke="midnightblue" d="M360.345,-448.056C359.605,-434.086 356.096,-407.124 340.5,-392 313.204,-365.529 271.866,-354.303 237.522,-349.683"/>
<polygon fill="midnightblue" stroke="midnightblue" points="237.92,-346.205 227.577,-348.499 237.093,-353.156 237.92,-346.205"/>
</g>
<!-- Node39&#45;&gt;Node40 -->
<g id="edge69" class="edge"><title>Node39&#45;&gt;Node40</title>
<path fill="none" stroke="midnightblue" d="M348.771,-448.324C337.663,-440.107 320.758,-427.602 307.517,-417.807"/>
<polygon fill="midnightblue" stroke="midnightblue" points="309.563,-414.967 299.442,-411.834 305.4,-420.595 309.563,-414.967"/>
</g>
<!-- Node40&#45;&gt;Node2 -->
<g id="edge70" class="edge"><title>Node40&#45;&gt;Node2</title>
<path fill="none" stroke="midnightblue" d="M269.666,-392.324C251.784,-383.625 224.025,-370.12 203.454,-360.113"/>
<polygon fill="midnightblue" stroke="midnightblue" points="204.813,-356.882 194.29,-355.655 201.751,-363.177 204.813,-356.882"/>
</g>
<!-- Node40&#45;&gt;Node26 -->
<g id="edge71" class="edge"><title>Node40&#45;&gt;Node26</title>
<path fill="none" stroke="midnightblue" d="M332.146,-395.672C403.15,-385.683 544.405,-359.521 648.5,-300 690.795,-275.816 683.878,-245.699 727.5,-224 765.042,-205.325 875.605,-191.782 947.19,-184.677"/>
<polygon fill="midnightblue" stroke="midnightblue" points="947.843,-188.13 957.456,-183.676 947.163,-181.163 947.843,-188.13"/>
</g>
</g>
</svg>
