<?xml version="1.0" encoding="UTF-8" standalone="no"?>
<!DOCTYPE svg PUBLIC "-//W3C//DTD SVG 1.1//EN"
 "http://www.w3.org/Graphics/SVG/1.1/DTD/svg11.dtd">
<!-- Generated by graphviz version 2.38.0 (20140413.2041)
 -->
<!-- Title: /home/travis/build/AliceO2Group/AliceO2/Framework/Foundation/include/Framework/VariantHelpers.h Pages: 1 -->
<!--zoomable 239 -->
<svg id="main" version="1.1" xmlns="http://www.w3.org/2000/svg" xmlns:xlink="http://www.w3.org/1999/xlink" xml:space="preserve" onload="init(evt)">
<style type="text/css"><![CDATA[
.edge:hover path { stroke: red; }
.edge:hover polygon { stroke: red; fill: red; }
]]></style>
<script type="text/javascript"><![CDATA[
var edges = document.getElementsByTagName('g');
if (edges && edges.length) {
  for (var i=0;i<edges.length;i++) {
    if (edges[i].id.substr(0,4)=='edge') {
      edges[i].setAttribute('class','edge');
    }
  }
}
]]></script>
        <defs>
                <circle id="rim" cx="0" cy="0" r="7"/>
                <circle id="rim2" cx="0" cy="0" r="3.5"/>
                <g id="zoomPlus">
                        <use xlink:href="#rim" fill="#404040">
                                <set attributeName="fill" to="#808080" begin="zoomplus.mouseover" end="zoomplus.mouseout"/>
                        </use>
                        <path d="M-4,0h8M0,-4v8" fill="none" stroke="white" stroke-width="1.5" pointer-events="none"/>
                </g>
                <g id="zoomMin">
                        <use xlink:href="#rim" fill="#404040">
                                <set attributeName="fill" to="#808080" begin="zoomminus.mouseover" end="zoomminus.mouseout"/>
                        </use>
                        <path d="M-4,0h8" fill="none" stroke="white" stroke-width="1.5" pointer-events="none"/>
                </g>
                <g id="dirArrow">
                        <path fill="none" stroke="white" stroke-width="1.5" d="M0,-3.0v7 M-2.5,-0.5L0,-3.0L2.5,-0.5"/>
                </g>
               <g id="resetDef">
                       <use xlink:href="#rim2" fill="#404040">
                               <set attributeName="fill" to="#808080" begin="reset.mouseover" end="reset.mouseout"/>
                       </use>
               </g>
        </defs>

<script type="text/javascript">
var viewWidth = 2937;
var viewHeight = 239;
var sectionId = 'dynsection-1';
</script>
<script xlink:href="../../svgpan.js"/>
<svg id="graph" class="graph">
<g id="viewport">
<title>/home/travis/build/AliceO2Group/AliceO2/Framework/Foundation/include/Framework/VariantHelpers.h</title>
<!-- Node1 -->
<g id="node1" class="node"><title>Node1</title>
<polygon fill="#bfbfbf" stroke="black" points="1926.5,-178.5 1926.5,-230.5 2104.5,-230.5 2104.5,-178.5 1926.5,-178.5"/>
<text text-anchor="start" x="1934.5" y="-218.5" font-family="Helvetica,sans-Serif" font-size="10.00">/home/travis/build</text>
<text text-anchor="start" x="1934.5" y="-207.5" font-family="Helvetica,sans-Serif" font-size="10.00">/AliceO2Group/AliceO2</text>
<text text-anchor="start" x="1934.5" y="-196.5" font-family="Helvetica,sans-Serif" font-size="10.00">/Framework/Foundation</text>
<text text-anchor="middle" x="2015.5" y="-185.5" font-family="Helvetica,sans-Serif" font-size="10.00">/include/Framework/VariantHelpers.h</text>
</g>
<!-- Node2 -->
<g id="node2" class="node"><title>Node2</title>
<g id="a_node2"><a xlink:href="../../d6/d57/AnalysisTask_8h.html" target="_top" xlink:title="/home/travis/build\l/AliceO2Group/AliceO2\l/Framework/Core/include\l/Framework/AnalysisTask.h">
<polygon fill="none" stroke="black" points="890,-89.5 890,-141.5 1029,-141.5 1029,-89.5 890,-89.5"/>
<text text-anchor="start" x="898" y="-129.5" font-family="Helvetica,sans-Serif" font-size="10.00">/home/travis/build</text>
<text text-anchor="start" x="898" y="-118.5" font-family="Helvetica,sans-Serif" font-size="10.00">/AliceO2Group/AliceO2</text>
<text text-anchor="start" x="898" y="-107.5" font-family="Helvetica,sans-Serif" font-size="10.00">/Framework/Core/include</text>
<text text-anchor="middle" x="959.5" y="-96.5" font-family="Helvetica,sans-Serif" font-size="10.00">/Framework/AnalysisTask.h</text>
</a>
</g>
</g>
<!-- Node1&#45;&gt;Node2 -->
<g id="edge1" class="edge"><title>Node1&#45;&gt;Node2</title>
<path fill="none" stroke="midnightblue" d="M1916.19,-195.318C1704.18,-177.852 1211.8,-137.286 1029.25,-122.246"/>
<polygon fill="midnightblue" stroke="midnightblue" points="1916.12,-198.824 1926.38,-196.157 1916.7,-191.848 1916.12,-198.824"/>
</g>
<!-- Node14 -->
<g id="node14" class="node"><title>Node14</title>
<g id="a_node14"><a xlink:href="../../d7/dc7/DataMatcherWalker_8h.html" target="_top" xlink:title="/home/travis/build\l/AliceO2Group/AliceO2\l/Framework/Core/include\l/Framework/DataMatcherWalker.h">
<polygon fill="none" stroke="black" points="1877,-89.5 1877,-141.5 2044,-141.5 2044,-89.5 1877,-89.5"/>
<text text-anchor="start" x="1885" y="-129.5" font-family="Helvetica,sans-Serif" font-size="10.00">/home/travis/build</text>
<text text-anchor="start" x="1885" y="-118.5" font-family="Helvetica,sans-Serif" font-size="10.00">/AliceO2Group/AliceO2</text>
<text text-anchor="start" x="1885" y="-107.5" font-family="Helvetica,sans-Serif" font-size="10.00">/Framework/Core/include</text>
<text text-anchor="middle" x="1960.5" y="-96.5" font-family="Helvetica,sans-Serif" font-size="10.00">/Framework/DataMatcherWalker.h</text>
</a>
</g>
</g>
<!-- Node1&#45;&gt;Node14 -->
<g id="edge13" class="edge"><title>Node1&#45;&gt;Node14</title>
<path fill="none" stroke="midnightblue" d="M1994.09,-169.639C1988.19,-160.306 1981.9,-150.349 1976.37,-141.607"/>
<polygon fill="midnightblue" stroke="midnightblue" points="1991.29,-171.754 1999.59,-178.336 1997.21,-168.013 1991.29,-171.754"/>
</g>
<!-- Node15 -->
<g id="node15" class="node"><title>Node15</title>
<g id="a_node15"><a xlink:href="../../d0/d2b/DataDescriptorMatcher_8cxx.html" target="_top" xlink:title="/home/travis/build\l/AliceO2Group/AliceO2\l/Framework/Core/src/DataDescriptor\lMatcher.cxx">
<polygon fill="none" stroke="black" points="1789.5,-0.5 1789.5,-52.5 1967.5,-52.5 1967.5,-0.5 1789.5,-0.5"/>
<text text-anchor="start" x="1797.5" y="-40.5" font-family="Helvetica,sans-Serif" font-size="10.00">/home/travis/build</text>
<text text-anchor="start" x="1797.5" y="-29.5" font-family="Helvetica,sans-Serif" font-size="10.00">/AliceO2Group/AliceO2</text>
<text text-anchor="start" x="1797.5" y="-18.5" font-family="Helvetica,sans-Serif" font-size="10.00">/Framework/Core/src/DataDescriptor</text>
<text text-anchor="middle" x="1878.5" y="-7.5" font-family="Helvetica,sans-Serif" font-size="10.00">Matcher.cxx</text>
</a>
</g>
</g>
<!-- Node1&#45;&gt;Node15 -->
<g id="edge16" class="edge"><title>Node1&#45;&gt;Node15</title>
<path fill="none" stroke="midnightblue" d="M1916.93,-181.424C1897.44,-172.43 1879.37,-159.782 1867.5,-142 1849.76,-115.423 1858.49,-77.3406 1867.54,-52.5163"/>
<polygon fill="midnightblue" stroke="midnightblue" points="1915.71,-184.707 1926.28,-185.428 1918.46,-178.273 1915.71,-184.707"/>
</g>
<!-- Node16 -->
<g id="node16" class="node"><title>Node16</title>
<g id="a_node16"><a xlink:href="../../d4/dab/DataSpecUtils_8cxx.html" target="_top" xlink:title="/home/travis/build\l/AliceO2Group/AliceO2\l/Framework/Core/src/DataSpec\lUtils.cxx">
<polygon fill="none" stroke="black" points="1986,-0.5 1986,-52.5 2141,-52.5 2141,-0.5 1986,-0.5"/>
<text text-anchor="start" x="1994" y="-40.5" font-family="Helvetica,sans-Serif" font-size="10.00">/home/travis/build</text>
<text text-anchor="start" x="1994" y="-29.5" font-family="Helvetica,sans-Serif" font-size="10.00">/AliceO2Group/AliceO2</text>
<text text-anchor="start" x="1994" y="-18.5" font-family="Helvetica,sans-Serif" font-size="10.00">/Framework/Core/src/DataSpec</text>
<text text-anchor="middle" x="2063.5" y="-7.5" font-family="Helvetica,sans-Serif" font-size="10.00">Utils.cxx</text>
</a>
</g>
</g>
<!-- Node1&#45;&gt;Node16 -->
<g id="edge17" class="edge"><title>Node1&#45;&gt;Node16</title>
<path fill="none" stroke="midnightblue" d="M2039.46,-169.738C2044.57,-161.059 2049.37,-151.485 2052.5,-142 2062.26,-112.416 2064.21,-76.3689 2064.24,-52.7218"/>
<polygon fill="midnightblue" stroke="midnightblue" points="2036.37,-168.074 2034.07,-178.416 2042.32,-171.765 2036.37,-168.074"/>
</g>
<!-- Node17 -->
<g id="node17" class="node"><title>Node17</title>
<g id="a_node17"><a xlink:href="../../da/d8b/Expressions_8cxx.html" target="_top" xlink:title="/home/travis/build\l/AliceO2Group/AliceO2\l/Framework/Core/src/Expressions.cxx">
<polygon fill="none" stroke="black" points="2099,-95 2099,-136 2284,-136 2284,-95 2099,-95"/>
<text text-anchor="start" x="2107" y="-124" font-family="Helvetica,sans-Serif" font-size="10.00">/home/travis/build</text>
<text text-anchor="start" x="2107" y="-113" font-family="Helvetica,sans-Serif" font-size="10.00">/AliceO2Group/AliceO2</text>
<text text-anchor="middle" x="2191.5" y="-102" font-family="Helvetica,sans-Serif" font-size="10.00">/Framework/Core/src/Expressions.cxx</text>
</a>
</g>
</g>
<!-- Node1&#45;&gt;Node17 -->
<g id="edge18" class="edge"><title>Node1&#45;&gt;Node17</title>
<path fill="none" stroke="midnightblue" d="M2075.52,-173.829C2100.74,-161.364 2129.38,-147.208 2151.89,-136.082"/>
<polygon fill="midnightblue" stroke="midnightblue" points="2073.82,-170.767 2066.41,-178.336 2076.92,-177.042 2073.82,-170.767"/>
</g>
<!-- Node18 -->
<g id="node18" class="node"><title>Node18</title>
<g id="a_node18"><a xlink:href="../../df/d22/RawParser_8h.html" target="_top" xlink:title="Generic parser for consecutive raw pages. ">
<polygon fill="none" stroke="black" points="2396,-89.5 2396,-141.5 2521,-141.5 2521,-89.5 2396,-89.5"/>
<text text-anchor="start" x="2404" y="-129.5" font-family="Helvetica,sans-Serif" font-size="10.00">/home/travis/build</text>
<text text-anchor="start" x="2404" y="-118.5" font-family="Helvetica,sans-Serif" font-size="10.00">/AliceO2Group/AliceO2</text>
<text text-anchor="start" x="2404" y="-107.5" font-family="Helvetica,sans-Serif" font-size="10.00">/Framework/Utils/include</text>
<text text-anchor="middle" x="2458.5" y="-96.5" font-family="Helvetica,sans-Serif" font-size="10.00">/DPLUtils/RawParser.h</text>
</a>
</g>
</g>
<!-- Node1&#45;&gt;Node18 -->
<g id="edge19" class="edge"><title>Node1&#45;&gt;Node18</title>
<path fill="none" stroke="midnightblue" d="M2114.67,-184.025C2200.76,-167.116 2322.79,-143.152 2395.94,-128.785"/>
<polygon fill="midnightblue" stroke="midnightblue" points="2113.75,-180.637 2104.61,-185.999 2115.1,-187.506 2113.75,-180.637"/>
</g>
<!-- Node3 -->
<g id="node3" class="node"><title>Node3</title>
<g id="a_node3"><a xlink:href="../../d6/dcb/associatedExample_8cxx.html" target="_top" xlink:title="/home/travis/build\l/AliceO2Group/AliceO2\l/Framework/AnalysisTutorial\l/src/associatedExample.cxx">
<polygon fill="none" stroke="black" points="0,-0.5 0,-52.5 141,-52.5 141,-0.5 0,-0.5"/>
<text text-anchor="start" x="8" y="-40.5" font-family="Helvetica,sans-Serif" font-size="10.00">/home/travis/build</text>
<text text-anchor="start" x="8" y="-29.5" font-family="Helvetica,sans-Serif" font-size="10.00">/AliceO2Group/AliceO2</text>
<text text-anchor="start" x="8" y="-18.5" font-family="Helvetica,sans-Serif" font-size="10.00">/Framework/AnalysisTutorial</text>
<text text-anchor="middle" x="70.5" y="-7.5" font-family="Helvetica,sans-Serif" font-size="10.00">/src/associatedExample.cxx</text>
</a>
</g>
</g>
<!-- Node2&#45;&gt;Node3 -->
<g id="edge2" class="edge"><title>Node2&#45;&gt;Node3</title>
<path fill="none" stroke="midnightblue" d="M879.73,-114.657C733.517,-113.576 413.362,-104.842 149.5,-53 146.813,-52.4721 144.09,-51.8821 141.35,-51.2421"/>
<polygon fill="midnightblue" stroke="midnightblue" points="879.932,-118.158 889.954,-114.722 879.976,-111.159 879.932,-118.158"/>
</g>
<!-- Node4 -->
<g id="node4" class="node"><title>Node4</title>
<g id="a_node4"><a xlink:href="../../d4/dd5/collisionTracksIteration_8cxx.html" target="_top" xlink:title="/home/travis/build\l/AliceO2Group/AliceO2\l/Framework/AnalysisTutorial\l/src/collisionTracksIteration.cxx">
<polygon fill="none" stroke="black" points="159,-0.5 159,-52.5 314,-52.5 314,-0.5 159,-0.5"/>
<text text-anchor="start" x="167" y="-40.5" font-family="Helvetica,sans-Serif" font-size="10.00">/home/travis/build</text>
<text text-anchor="start" x="167" y="-29.5" font-family="Helvetica,sans-Serif" font-size="10.00">/AliceO2Group/AliceO2</text>
<text text-anchor="start" x="167" y="-18.5" font-family="Helvetica,sans-Serif" font-size="10.00">/Framework/AnalysisTutorial</text>
<text text-anchor="middle" x="236.5" y="-7.5" font-family="Helvetica,sans-Serif" font-size="10.00">/src/collisionTracksIteration.cxx</text>
</a>
</g>
</g>
<!-- Node2&#45;&gt;Node4 -->
<g id="edge3" class="edge"><title>Node2&#45;&gt;Node4</title>
<path fill="none" stroke="midnightblue" d="M879.269,-111.692C757.799,-106.333 520.397,-91.5216 322.5,-53 319.748,-52.4644 316.959,-51.8781 314.15,-51.2508"/>
<polygon fill="midnightblue" stroke="midnightblue" points="879.449,-115.203 889.591,-112.137 879.751,-108.209 879.449,-115.203"/>
</g>
<!-- Node5 -->
<g id="node5" class="node"><title>Node5</title>
<g id="a_node5"><a xlink:href="../../d2/df5/dynamicColumns_8cxx.html" target="_top" xlink:title="/home/travis/build\l/AliceO2Group/AliceO2\l/Framework/AnalysisTutorial\l/src/dynamicColumns.cxx">
<polygon fill="none" stroke="black" points="332,-0.5 332,-52.5 473,-52.5 473,-0.5 332,-0.5"/>
<text text-anchor="start" x="340" y="-40.5" font-family="Helvetica,sans-Serif" font-size="10.00">/home/travis/build</text>
<text text-anchor="start" x="340" y="-29.5" font-family="Helvetica,sans-Serif" font-size="10.00">/AliceO2Group/AliceO2</text>
<text text-anchor="start" x="340" y="-18.5" font-family="Helvetica,sans-Serif" font-size="10.00">/Framework/AnalysisTutorial</text>
<text text-anchor="middle" x="402.5" y="-7.5" font-family="Helvetica,sans-Serif" font-size="10.00">/src/dynamicColumns.cxx</text>
</a>
</g>
</g>
<!-- Node2&#45;&gt;Node5 -->
<g id="edge4" class="edge"><title>Node2&#45;&gt;Node5</title>
<path fill="none" stroke="midnightblue" d="M879.776,-108.762C784.248,-100.851 619.761,-83.9313 481.5,-53 478.828,-52.4022 476.117,-51.7526 473.388,-51.0623"/>
<polygon fill="midnightblue" stroke="midnightblue" points="879.687,-112.266 889.939,-109.591 880.256,-105.289 879.687,-112.266"/>
</g>
<!-- Node6 -->
<g id="node6" class="node"><title>Node6</title>
<g id="a_node6"><a xlink:href="../../d6/d77/filters_8cxx.html" target="_top" xlink:title="/home/travis/build\l/AliceO2Group/AliceO2\l/Framework/AnalysisTutorial\l/src/filters.cxx">
<polygon fill="none" stroke="black" points="491,-0.5 491,-52.5 632,-52.5 632,-0.5 491,-0.5"/>
<text text-anchor="start" x="499" y="-40.5" font-family="Helvetica,sans-Serif" font-size="10.00">/home/travis/build</text>
<text text-anchor="start" x="499" y="-29.5" font-family="Helvetica,sans-Serif" font-size="10.00">/AliceO2Group/AliceO2</text>
<text text-anchor="start" x="499" y="-18.5" font-family="Helvetica,sans-Serif" font-size="10.00">/Framework/AnalysisTutorial</text>
<text text-anchor="middle" x="561.5" y="-7.5" font-family="Helvetica,sans-Serif" font-size="10.00">/src/filters.cxx</text>
</a>
</g>
</g>
<!-- Node2&#45;&gt;Node6 -->
<g id="edge5" class="edge"><title>Node2&#45;&gt;Node6</title>
<path fill="none" stroke="midnightblue" d="M879.726,-101.895C814.834,-90.9788 721.135,-73.7047 640.5,-53 637.708,-52.2831 634.87,-51.5226 632.011,-50.7297"/>
<polygon fill="midnightblue" stroke="midnightblue" points="879.447,-105.397 889.887,-103.592 880.6,-98.4927 879.447,-105.397"/>
</g>
<!-- Node7 -->
<g id="node7" class="node"><title>Node7</title>
<g id="a_node7"><a xlink:href="../../d2/d4e/fullTrackIteration_8cxx.html" target="_top" xlink:title="/home/travis/build\l/AliceO2Group/AliceO2\l/Framework/AnalysisTutorial\l/src/fullTrackIteration.cxx">
<polygon fill="none" stroke="black" points="650,-0.5 650,-52.5 791,-52.5 791,-0.5 650,-0.5"/>
<text text-anchor="start" x="658" y="-40.5" font-family="Helvetica,sans-Serif" font-size="10.00">/home/travis/build</text>
<text text-anchor="start" x="658" y="-29.5" font-family="Helvetica,sans-Serif" font-size="10.00">/AliceO2Group/AliceO2</text>
<text text-anchor="start" x="658" y="-18.5" font-family="Helvetica,sans-Serif" font-size="10.00">/Framework/AnalysisTutorial</text>
<text text-anchor="middle" x="720.5" y="-7.5" font-family="Helvetica,sans-Serif" font-size="10.00">/src/fullTrackIteration.cxx</text>
</a>
</g>
</g>
<!-- Node2&#45;&gt;Node7 -->
<g id="edge6" class="edge"><title>Node2&#45;&gt;Node7</title>
<path fill="none" stroke="midnightblue" d="M881.202,-85.9981C851.519,-75.1932 817.972,-62.9816 789.236,-52.5211"/>
<polygon fill="midnightblue" stroke="midnightblue" points="880.098,-89.3209 890.692,-89.4527 882.492,-82.7432 880.098,-89.3209"/>
</g>
<!-- Node8 -->
<g id="node8" class="node"><title>Node8</title>
<g id="a_node8"><a xlink:href="../../df/d90/histograms_8cxx.html" target="_top" xlink:title="/home/travis/build\l/AliceO2Group/AliceO2\l/Framework/AnalysisTutorial\l/src/histograms.cxx">
<polygon fill="none" stroke="black" points="809,-0.5 809,-52.5 950,-52.5 950,-0.5 809,-0.5"/>
<text text-anchor="start" x="817" y="-40.5" font-family="Helvetica,sans-Serif" font-size="10.00">/home/travis/build</text>
<text text-anchor="start" x="817" y="-29.5" font-family="Helvetica,sans-Serif" font-size="10.00">/AliceO2Group/AliceO2</text>
<text text-anchor="start" x="817" y="-18.5" font-family="Helvetica,sans-Serif" font-size="10.00">/Framework/AnalysisTutorial</text>
<text text-anchor="middle" x="879.5" y="-7.5" font-family="Helvetica,sans-Serif" font-size="10.00">/src/histograms.cxx</text>
</a>
</g>
</g>
<!-- Node2&#45;&gt;Node8 -->
<g id="edge7" class="edge"><title>Node2&#45;&gt;Node8</title>
<path fill="none" stroke="midnightblue" d="M929.422,-81.79C920.538,-72.1288 910.957,-61.7097 902.587,-52.6075"/>
<polygon fill="midnightblue" stroke="midnightblue" points="927.016,-84.344 936.361,-89.336 932.168,-79.6059 927.016,-84.344"/>
</g>
<!-- Node9 -->
<g id="node9" class="node"><title>Node9</title>
<g id="a_node9"><a xlink:href="../../d7/d10/newCollections_8cxx.html" target="_top" xlink:title="/home/travis/build\l/AliceO2Group/AliceO2\l/Framework/AnalysisTutorial\l/src/newCollections.cxx">
<polygon fill="none" stroke="black" points="968,-0.5 968,-52.5 1109,-52.5 1109,-0.5 968,-0.5"/>
<text text-anchor="start" x="976" y="-40.5" font-family="Helvetica,sans-Serif" font-size="10.00">/home/travis/build</text>
<text text-anchor="start" x="976" y="-29.5" font-family="Helvetica,sans-Serif" font-size="10.00">/AliceO2Group/AliceO2</text>
<text text-anchor="start" x="976" y="-18.5" font-family="Helvetica,sans-Serif" font-size="10.00">/Framework/AnalysisTutorial</text>
<text text-anchor="middle" x="1038.5" y="-7.5" font-family="Helvetica,sans-Serif" font-size="10.00">/src/newCollections.cxx</text>
</a>
</g>
</g>
<!-- Node2&#45;&gt;Node9 -->
<g id="edge8" class="edge"><title>Node2&#45;&gt;Node9</title>
<path fill="none" stroke="midnightblue" d="M989.202,-81.79C997.975,-72.1288 1007.44,-61.7097 1015.7,-52.6075"/>
<polygon fill="midnightblue" stroke="midnightblue" points="986.481,-79.5798 982.35,-89.336 991.664,-84.2856 986.481,-79.5798"/>
</g>
<!-- Node10 -->
<g id="node10" class="node"><title>Node10</title>
<g id="a_node10"><a xlink:href="../../d4/ded/trackCollectionIteration_8cxx.html" target="_top" xlink:title="/home/travis/build\l/AliceO2Group/AliceO2\l/Framework/AnalysisTutorial\l/src/trackCollectionIteration.cxx">
<polygon fill="none" stroke="black" points="1127,-0.5 1127,-52.5 1282,-52.5 1282,-0.5 1127,-0.5"/>
<text text-anchor="start" x="1135" y="-40.5" font-family="Helvetica,sans-Serif" font-size="10.00">/home/travis/build</text>
<text text-anchor="start" x="1135" y="-29.5" font-family="Helvetica,sans-Serif" font-size="10.00">/AliceO2Group/AliceO2</text>
<text text-anchor="start" x="1135" y="-18.5" font-family="Helvetica,sans-Serif" font-size="10.00">/Framework/AnalysisTutorial</text>
<text text-anchor="middle" x="1204.5" y="-7.5" font-family="Helvetica,sans-Serif" font-size="10.00">/src/trackCollectionIteration.cxx</text>
</a>
</g>
</g>
<!-- Node2&#45;&gt;Node10 -->
<g id="edge9" class="edge"><title>Node2&#45;&gt;Node10</title>
<path fill="none" stroke="midnightblue" d="M1038.84,-86.3278C1069.45,-75.4562 1104.19,-63.1199 1133.92,-52.5619"/>
<polygon fill="midnightblue" stroke="midnightblue" points="1037.3,-83.1574 1029.05,-89.802 1039.65,-89.7539 1037.3,-83.1574"/>
</g>
<!-- Node11 -->
<g id="node11" class="node"><title>Node11</title>
<g id="a_node11"><a xlink:href="../../db/d7e/trackIteration_8cxx.html" target="_top" xlink:title="/home/travis/build\l/AliceO2Group/AliceO2\l/Framework/AnalysisTutorial\l/src/trackIteration.cxx">
<polygon fill="none" stroke="black" points="1300,-0.5 1300,-52.5 1441,-52.5 1441,-0.5 1300,-0.5"/>
<text text-anchor="start" x="1308" y="-40.5" font-family="Helvetica,sans-Serif" font-size="10.00">/home/travis/build</text>
<text text-anchor="start" x="1308" y="-29.5" font-family="Helvetica,sans-Serif" font-size="10.00">/AliceO2Group/AliceO2</text>
<text text-anchor="start" x="1308" y="-18.5" font-family="Helvetica,sans-Serif" font-size="10.00">/Framework/AnalysisTutorial</text>
<text text-anchor="middle" x="1370.5" y="-7.5" font-family="Helvetica,sans-Serif" font-size="10.00">/src/trackIteration.cxx</text>
</a>
</g>
</g>
<!-- Node2&#45;&gt;Node11 -->
<g id="edge10" class="edge"><title>Node2&#45;&gt;Node11</title>
<path fill="none" stroke="midnightblue" d="M1039.27,-102.546C1106.7,-91.7608 1205.58,-74.3353 1290.5,-53 1293.61,-52.2186 1296.78,-51.3831 1299.97,-50.5087"/>
<polygon fill="midnightblue" stroke="midnightblue" points="1038.47,-99.1294 1029.15,-104.154 1039.57,-106.043 1038.47,-99.1294"/>
</g>
<!-- Node12 -->
<g id="node12" class="node"><title>Node12</title>
<g id="a_node12"><a xlink:href="../../d9/d09/test__AnalysisTask_8cxx.html" target="_top" xlink:title="/home/travis/build\l/AliceO2Group/AliceO2\l/Framework/Core/test/test\l_AnalysisTask.cxx">
<polygon fill="none" stroke="black" points="1459,-0.5 1459,-52.5 1590,-52.5 1590,-0.5 1459,-0.5"/>
<text text-anchor="start" x="1467" y="-40.5" font-family="Helvetica,sans-Serif" font-size="10.00">/home/travis/build</text>
<text text-anchor="start" x="1467" y="-29.5" font-family="Helvetica,sans-Serif" font-size="10.00">/AliceO2Group/AliceO2</text>
<text text-anchor="start" x="1467" y="-18.5" font-family="Helvetica,sans-Serif" font-size="10.00">/Framework/Core/test/test</text>
<text text-anchor="middle" x="1524.5" y="-7.5" font-family="Helvetica,sans-Serif" font-size="10.00">_AnalysisTask.cxx</text>
</a>
</g>
</g>
<!-- Node2&#45;&gt;Node12 -->
<g id="edge11" class="edge"><title>Node2&#45;&gt;Node12</title>
<path fill="none" stroke="midnightblue" d="M1039.35,-109.474C1137.06,-102.182 1307.07,-85.7926 1449.5,-53 1452.58,-52.2903 1455.72,-51.5023 1458.87,-50.6557"/>
<polygon fill="midnightblue" stroke="midnightblue" points="1038.97,-105.992 1029.25,-110.214 1039.48,-112.973 1038.97,-105.992"/>
</g>
<!-- Node13 -->
<g id="node13" class="node"><title>Node13</title>
<g id="a_node13"><a xlink:href="../../d1/d61/o2AnalysisTaskExample_8cxx.html" target="_top" xlink:title="/home/travis/build\l/AliceO2Group/AliceO2\l/Framework/TestWorkflows\l/src/o2AnalysisTaskExample.cxx">
<polygon fill="none" stroke="black" points="1608,-0.5 1608,-52.5 1771,-52.5 1771,-0.5 1608,-0.5"/>
<text text-anchor="start" x="1616" y="-40.5" font-family="Helvetica,sans-Serif" font-size="10.00">/home/travis/build</text>
<text text-anchor="start" x="1616" y="-29.5" font-family="Helvetica,sans-Serif" font-size="10.00">/AliceO2Group/AliceO2</text>
<text text-anchor="start" x="1616" y="-18.5" font-family="Helvetica,sans-Serif" font-size="10.00">/Framework/TestWorkflows</text>
<text text-anchor="middle" x="1689.5" y="-7.5" font-family="Helvetica,sans-Serif" font-size="10.00">/src/o2AnalysisTaskExample.cxx</text>
</a>
</g>
</g>
<!-- Node2&#45;&gt;Node13 -->
<g id="edge12" class="edge"><title>Node2&#45;&gt;Node13</title>
<path fill="none" stroke="midnightblue" d="M1039.42,-111.358C1161.03,-105.556 1399.43,-90.1674 1598.5,-53 1601.56,-52.4279 1604.68,-51.8002 1607.81,-51.1284"/>
<polygon fill="midnightblue" stroke="midnightblue" points="1038.92,-107.878 1029.09,-111.841 1039.24,-114.87 1038.92,-107.878"/>
</g>
<!-- Node14&#45;&gt;Node15 -->
<g id="edge14" class="edge"><title>Node14&#45;&gt;Node15</title>
<path fill="none" stroke="midnightblue" d="M1929.67,-81.79C1920.56,-72.1288 1910.74,-61.7097 1902.16,-52.6075"/>
<polygon fill="midnightblue" stroke="midnightblue" points="1927.38,-84.4595 1936.78,-89.336 1932.47,-79.6583 1927.38,-84.4595"/>
</g>
<!-- Node14&#45;&gt;Node16 -->
<g id="edge15" class="edge"><title>Node14&#45;&gt;Node16</title>
<path fill="none" stroke="midnightblue" d="M1998.21,-82.6489C2009.93,-72.749 2022.68,-61.9801 2033.78,-52.6075"/>
<polygon fill="midnightblue" stroke="midnightblue" points="1995.67,-80.2094 1990.29,-89.336 2000.19,-85.557 1995.67,-80.2094"/>
</g>
<!-- Node19 -->
<g id="node19" class="node"><title>Node19</title>
<g id="a_node19"><a xlink:href="../../dd/d58/calib-pedestal_8cxx.html" target="_top" xlink:title="/home/travis/build\l/AliceO2Group/AliceO2\l/Detectors/TPC/calibration\l/run/calib&#45;pedestal.cxx">
<polygon fill="none" stroke="black" points="2159,-0.5 2159,-52.5 2292,-52.5 2292,-0.5 2159,-0.5"/>
<text text-anchor="start" x="2167" y="-40.5" font-family="Helvetica,sans-Serif" font-size="10.00">/home/travis/build</text>
<text text-anchor="start" x="2167" y="-29.5" font-family="Helvetica,sans-Serif" font-size="10.00">/AliceO2Group/AliceO2</text>
<text text-anchor="start" x="2167" y="-18.5" font-family="Helvetica,sans-Serif" font-size="10.00">/Detectors/TPC/calibration</text>
<text text-anchor="middle" x="2225.5" y="-7.5" font-family="Helvetica,sans-Serif" font-size="10.00">/run/calib&#45;pedestal.cxx</text>
</a>
</g>
</g>
<!-- Node18&#45;&gt;Node19 -->
<g id="edge20" class="edge"><title>Node18&#45;&gt;Node19</title>
<path fill="none" stroke="midnightblue" d="M2386.17,-87.4922C2356.11,-76.2686 2321.45,-63.3256 2292.03,-52.3411"/>
<polygon fill="midnightblue" stroke="midnightblue" points="2385.16,-90.852 2395.75,-91.0712 2387.61,-84.2942 2385.16,-90.852"/>
</g>
<!-- Node20 -->
<g id="node20" class="node"><title>Node20</title>
<g id="a_node20"><a xlink:href="../../d4/d96/raw-parser_8cxx.html" target="_top" xlink:title="/home/travis/build\l/AliceO2Group/AliceO2\l/Framework/Utils/src/raw\l&#45;parser.cxx">
<polygon fill="none" stroke="black" points="2310,-0.5 2310,-52.5 2437,-52.5 2437,-0.5 2310,-0.5"/>
<text text-anchor="start" x="2318" y="-40.5" font-family="Helvetica,sans-Serif" font-size="10.00">/home/travis/build</text>
<text text-anchor="start" x="2318" y="-29.5" font-family="Helvetica,sans-Serif" font-size="10.00">/AliceO2Group/AliceO2</text>
<text text-anchor="start" x="2318" y="-18.5" font-family="Helvetica,sans-Serif" font-size="10.00">/Framework/Utils/src/raw</text>
<text text-anchor="middle" x="2373.5" y="-7.5" font-family="Helvetica,sans-Serif" font-size="10.00">&#45;parser.cxx</text>
</a>
</g>
</g>
<!-- Node18&#45;&gt;Node20 -->
<g id="edge21" class="edge"><title>Node18&#45;&gt;Node20</title>
<path fill="none" stroke="midnightblue" d="M2426.82,-82.0768C2417.3,-72.3353 2407.01,-61.7998 2398.03,-52.6075"/>
<polygon fill="midnightblue" stroke="midnightblue" points="2424.42,-84.6291 2433.91,-89.336 2429.43,-79.7372 2424.42,-84.6291"/>
</g>
<!-- Node21 -->
<g id="node21" class="node"><title>Node21</title>
<g id="a_node21"><a xlink:href="../../d8/d93/RawParser_8cxx.html" target="_top" xlink:title="Generic parser for consecutive raw pages. ">
<polygon fill="none" stroke="black" points="2455,-6 2455,-47 2634,-47 2634,-6 2455,-6"/>
<text text-anchor="start" x="2463" y="-35" font-family="Helvetica,sans-Serif" font-size="10.00">/home/travis/build</text>
<text text-anchor="start" x="2463" y="-24" font-family="Helvetica,sans-Serif" font-size="10.00">/AliceO2Group/AliceO2</text>
<text text-anchor="middle" x="2544.5" y="-13" font-family="Helvetica,sans-Serif" font-size="10.00">/Framework/Utils/src/RawParser.cxx</text>
</a>
</g>
</g>
<!-- Node18&#45;&gt;Node21 -->
<g id="edge22" class="edge"><title>Node18&#45;&gt;Node21</title>
<path fill="none" stroke="midnightblue" d="M2490.45,-82.1814C2502.1,-70.3922 2514.92,-57.4276 2525.14,-47.0821"/>
<polygon fill="midnightblue" stroke="midnightblue" points="2487.92,-79.7636 2483.37,-89.336 2492.89,-84.6847 2487.92,-79.7636"/>
</g>
<!-- Node22 -->
<g id="node22" class="node"><title>Node22</title>
<g id="a_node22"><a xlink:href="../../d2/d34/benchmark__RawParser_8cxx.html" target="_top" xlink:title="/home/travis/build\l/AliceO2Group/AliceO2\l/Framework/Utils/test\l/benchmark_RawParser.cxx">
<polygon fill="none" stroke="black" points="2652.5,-0.5 2652.5,-52.5 2792.5,-52.5 2792.5,-0.5 2652.5,-0.5"/>
<text text-anchor="start" x="2660.5" y="-40.5" font-family="Helvetica,sans-Serif" font-size="10.00">/home/travis/build</text>
<text text-anchor="start" x="2660.5" y="-29.5" font-family="Helvetica,sans-Serif" font-size="10.00">/AliceO2Group/AliceO2</text>
<text text-anchor="start" x="2660.5" y="-18.5" font-family="Helvetica,sans-Serif" font-size="10.00">/Framework/Utils/test</text>
<text text-anchor="middle" x="2722.5" y="-7.5" font-family="Helvetica,sans-Serif" font-size="10.00">/benchmark_RawParser.cxx</text>
</a>
</g>
</g>
<!-- Node18&#45;&gt;Node22 -->
<g id="edge23" class="edge"><title>Node18&#45;&gt;Node22</title>
<path fill="none" stroke="midnightblue" d="M2531,-90.6063C2568.87,-78.1288 2614.99,-62.9296 2652.48,-50.5744"/>
<polygon fill="midnightblue" stroke="midnightblue" points="2529.47,-87.4281 2521.06,-93.8822 2531.66,-94.0764 2529.47,-87.4281"/>
</g>
<!-- Node23 -->
<g id="node23" class="node"><title>Node23</title>
<g id="a_node23"><a xlink:href="../../dd/d7b/test__RawParser_8cxx.html" target="_top" xlink:title="/home/travis/build\l/AliceO2Group/AliceO2\l/Framework/Utils/test\l/test_RawParser.cxx">
<polygon fill="none" stroke="black" points="2810.5,-0.5 2810.5,-52.5 2928.5,-52.5 2928.5,-0.5 2810.5,-0.5"/>
<text text-anchor="start" x="2818.5" y="-40.5" font-family="Helvetica,sans-Serif" font-size="10.00">/home/travis/build</text>
<text text-anchor="start" x="2818.5" y="-29.5" font-family="Helvetica,sans-Serif" font-size="10.00">/AliceO2Group/AliceO2</text>
<text text-anchor="start" x="2818.5" y="-18.5" font-family="Helvetica,sans-Serif" font-size="10.00">/Framework/Utils/test</text>
<text text-anchor="middle" x="2869.5" y="-7.5" font-family="Helvetica,sans-Serif" font-size="10.00">/test_RawParser.cxx</text>
</a>
</g>
</g>
<!-- Node18&#45;&gt;Node23 -->
<g id="edge24" class="edge"><title>Node18&#45;&gt;Node23</title>
<path fill="none" stroke="midnightblue" d="M2531.27,-105.359C2601.29,-95.6497 2709.76,-78.2027 2801.5,-53 2804.42,-52.1984 2807.39,-51.323 2810.37,-50.3947"/>
<polygon fill="midnightblue" stroke="midnightblue" points="2530.65,-101.91 2521.22,-106.735 2531.6,-108.845 2530.65,-101.91"/>
</g>
</g>
</svg>
        <g id="navigator" transform="translate(0 0)" fill="#404254">
                <rect fill="#f2f5e9" fill-opacity="0.5" stroke="#606060" stroke-width=".5" x="0" y="0" width="60" height="60"/>
                <use id="zoomplus" xlink:href="#zoomPlus" x="17" y="9" onmousedown="handleZoom(evt,'in')"/>
                <use id="zoomminus" xlink:href="#zoomMin" x="42" y="9" onmousedown="handleZoom(evt,'out')"/>
                <use id="reset" xlink:href="#resetDef" x="30" y="36" onmousedown="handleReset()"/>
                <g id="arrowUp" xlink:href="#dirArrow" transform="translate(30 24)" onmousedown="handlePan(0,-1)">
                  <use xlink:href="#rim" fill="#404040">
                        <set attributeName="fill" to="#808080" begin="arrowUp.mouseover" end="arrowUp.mouseout"/>
                  </use>
                  <path fill="none" stroke="white" stroke-width="1.5" d="M0,-3.0v7 M-2.5,-0.5L0,-3.0L2.5,-0.5"/>
                </g>
                <g id="arrowRight" xlink:href="#dirArrow" transform="rotate(90) translate(36 -43)" onmousedown="handlePan(1,0)">
                  <use xlink:href="#rim" fill="#404040">
                        <set attributeName="fill" to="#808080" begin="arrowRight.mouseover" end="arrowRight.mouseout"/>
                  </use>
                  <path fill="none" stroke="white" stroke-width="1.5" d="M0,-3.0v7 M-2.5,-0.5L0,-3.0L2.5,-0.5"/>
                </g>
                <g id="arrowDown" xlink:href="#dirArrow" transform="rotate(180) translate(-30 -48)" onmousedown="handlePan(0,1)">
                  <use xlink:href="#rim" fill="#404040">
                        <set attributeName="fill" to="#808080" begin="arrowDown.mouseover" end="arrowDown.mouseout"/>
                  </use>
                  <path fill="none" stroke="white" stroke-width="1.5" d="M0,-3.0v7 M-2.5,-0.5L0,-3.0L2.5,-0.5"/>
                </g>
                <g id="arrowLeft" xlink:href="#dirArrow" transform="rotate(270) translate(-36 17)" onmousedown="handlePan(-1,0)">
                  <use xlink:href="#rim" fill="#404040">
                        <set attributeName="fill" to="#808080" begin="arrowLeft.mouseover" end="arrowLeft.mouseout"/>
                  </use>
                  <path fill="none" stroke="white" stroke-width="1.5" d="M0,-3.0v7 M-2.5,-0.5L0,-3.0L2.5,-0.5"/>
                </g>
        </g>
        <svg viewBox="0 0 15 15" width="100%" height="30px" preserveAspectRatio="xMaxYMin meet">
         <g id="arrow_out" transform="scale(0.3 0.3)">
          <a xlink:href="VariantHelpers_8h__dep__incl_org.svg" target="_base">
           <rect id="button" ry="5" rx="5" y="6" x="6" height="38" width="38"
                fill="#f2f5e9" fill-opacity="0.5" stroke="#606060" stroke-width="1.0"/>
           <path id="arrow"
             d="M 11.500037,31.436501 C 11.940474,20.09759 22.043105,11.32322 32.158766,21.979434 L 37.068811,17.246167 C 37.068811,17.246167 37.088388,32 37.088388,32 L 22.160133,31.978069 C 22.160133,31.978069 26.997745,27.140456 26.997745,27.140456 C 18.528582,18.264221 13.291696,25.230495 11.500037,31.436501 z"
             style="fill:#404040;"/>
          </a>
         </g>
        </svg>
</svg>
