<?xml version="1.0" encoding="UTF-8" standalone="no"?>
<!DOCTYPE svg PUBLIC "-//W3C//DTD SVG 1.1//EN"
 "http://www.w3.org/Graphics/SVG/1.1/DTD/svg11.dtd">
<!-- Generated by graphviz version 2.38.0 (20140413.2041)
 -->
<!-- Title: /home/travis/build/AliceO2Group/AliceO2/Common/Utils/include/CommonUtils/RootChain.h Pages: 1 -->
<svg width="941pt" height="150pt"
 viewBox="0.00 0.00 940.50 150.00" xmlns="http://www.w3.org/2000/svg" xmlns:xlink="http://www.w3.org/1999/xlink">
<g id="graph0" class="graph" transform="scale(1 1) rotate(0) translate(4 146)">
<title>/home/travis/build/AliceO2Group/AliceO2/Common/Utils/include/CommonUtils/RootChain.h</title>
<!-- Node1 -->
<g id="node1" class="node"><title>Node1</title>
<polygon fill="#bfbfbf" stroke="black" points="374.5,-89.5 374.5,-141.5 511.5,-141.5 511.5,-89.5 374.5,-89.5"/>
<text text-anchor="start" x="382.5" y="-129.5" font-family="Helvetica,sans-Serif" font-size="10.00">/home/travis/build</text>
<text text-anchor="start" x="382.5" y="-118.5" font-family="Helvetica,sans-Serif" font-size="10.00">/AliceO2Group/AliceO2</text>
<text text-anchor="start" x="382.5" y="-107.5" font-family="Helvetica,sans-Serif" font-size="10.00">/Common/Utils/include</text>
<text text-anchor="middle" x="443" y="-96.5" font-family="Helvetica,sans-Serif" font-size="10.00">/CommonUtils/RootChain.h</text>
</g>
<!-- Node2 -->
<g id="node2" class="node"><title>Node2</title>
<g id="a_node2"><a xlink:href="../../da/d2b/testCcdbApi_8cxx.html" target="_top" xlink:title="/home/travis/build\l/AliceO2Group/AliceO2\l/CCDB/test/testCcdbApi.cxx">
<polygon fill="none" stroke="black" points="0,-6 0,-47 144,-47 144,-6 0,-6"/>
<text text-anchor="start" x="8" y="-35" font-family="Helvetica,sans-Serif" font-size="10.00">/home/travis/build</text>
<text text-anchor="start" x="8" y="-24" font-family="Helvetica,sans-Serif" font-size="10.00">/AliceO2Group/AliceO2</text>
<text text-anchor="middle" x="72" y="-13" font-family="Helvetica,sans-Serif" font-size="10.00">/CCDB/test/testCcdbApi.cxx</text>
</a>
</g>
</g>
<!-- Node1&#45;&gt;Node2 -->
<g id="edge1" class="edge"><title>Node1&#45;&gt;Node2</title>
<path fill="none" stroke="midnightblue" d="M364.369,-99.9465C305.76,-88.5859 223.935,-71.6412 153,-53 146.156,-51.2014 139.031,-49.1808 131.97,-47.0846"/>
<polygon fill="midnightblue" stroke="midnightblue" points="363.82,-103.405 374.302,-101.861 365.145,-96.5315 363.82,-103.405"/>
</g>
<!-- Node3 -->
<g id="node3" class="node"><title>Node3</title>
<g id="a_node3"><a xlink:href="../../d7/d36/RootChain_8cxx.html" target="_top" xlink:title="/home/travis/build\l/AliceO2Group/AliceO2\l/Common/Utils/src/RootChain.cxx">
<polygon fill="none" stroke="black" points="162.5,-6 162.5,-47 329.5,-47 329.5,-6 162.5,-6"/>
<text text-anchor="start" x="170.5" y="-35" font-family="Helvetica,sans-Serif" font-size="10.00">/home/travis/build</text>
<text text-anchor="start" x="170.5" y="-24" font-family="Helvetica,sans-Serif" font-size="10.00">/AliceO2Group/AliceO2</text>
<text text-anchor="middle" x="246" y="-13" font-family="Helvetica,sans-Serif" font-size="10.00">/Common/Utils/src/RootChain.cxx</text>
</a>
</g>
</g>
<!-- Node1&#45;&gt;Node3 -->
<g id="edge2" class="edge"><title>Node1&#45;&gt;Node3</title>
<path fill="none" stroke="midnightblue" d="M376.815,-85.2713C348.393,-72.7192 315.933,-58.3842 290.458,-47.1338"/>
<polygon fill="midnightblue" stroke="midnightblue" points="375.722,-88.6145 386.284,-89.4527 378.55,-82.2111 375.722,-88.6145"/>
</g>
<!-- Node4 -->
<g id="node4" class="node"><title>Node4</title>
<g id="a_node4"><a xlink:href="../../dd/d75/testTreeStream_8cxx.html" target="_top" xlink:title="/home/travis/build\l/AliceO2Group/AliceO2\l/Common/Utils/test/testTreeStream.cxx">
<polygon fill="none" stroke="black" points="347.5,-6 347.5,-47 538.5,-47 538.5,-6 347.5,-6"/>
<text text-anchor="start" x="355.5" y="-35" font-family="Helvetica,sans-Serif" font-size="10.00">/home/travis/build</text>
<text text-anchor="start" x="355.5" y="-24" font-family="Helvetica,sans-Serif" font-size="10.00">/AliceO2Group/AliceO2</text>
<text text-anchor="middle" x="443" y="-13" font-family="Helvetica,sans-Serif" font-size="10.00">/Common/Utils/test/testTreeStream.cxx</text>
</a>
</g>
</g>
<!-- Node1&#45;&gt;Node4 -->
<g id="edge3" class="edge"><title>Node1&#45;&gt;Node4</title>
<path fill="none" stroke="midnightblue" d="M443,-79.1554C443,-68.2096 443,-56.5492 443,-47.0821"/>
<polygon fill="midnightblue" stroke="midnightblue" points="439.5,-79.336 443,-89.336 446.5,-79.336 439.5,-79.336"/>
</g>
<!-- Node5 -->
<g id="node5" class="node"><title>Node5</title>
<g id="a_node5"><a xlink:href="../../dc/dda/DigitReader_8cxx.html" target="_top" xlink:title="Implementation of EMCAL digit reader. ">
<polygon fill="none" stroke="black" points="557,-0.5 557,-52.5 721,-52.5 721,-0.5 557,-0.5"/>
<text text-anchor="start" x="565" y="-40.5" font-family="Helvetica,sans-Serif" font-size="10.00">/home/travis/build</text>
<text text-anchor="start" x="565" y="-29.5" font-family="Helvetica,sans-Serif" font-size="10.00">/AliceO2Group/AliceO2</text>
<text text-anchor="start" x="565" y="-18.5" font-family="Helvetica,sans-Serif" font-size="10.00">/Detectors/EMCAL/reconstruction</text>
<text text-anchor="middle" x="639" y="-7.5" font-family="Helvetica,sans-Serif" font-size="10.00">/src/DigitReader.cxx</text>
</a>
</g>
</g>
<!-- Node1&#45;&gt;Node5 -->
<g id="edge4" class="edge"><title>Node1&#45;&gt;Node5</title>
<path fill="none" stroke="midnightblue" d="M508.796,-85.2945C532.742,-74.6654 559.575,-62.7552 582.631,-52.5211"/>
<polygon fill="midnightblue" stroke="midnightblue" points="507.148,-82.1966 499.428,-89.4527 509.988,-88.5946 507.148,-82.1966"/>
</g>
<!-- Node6 -->
<g id="node6" class="node"><title>Node6</title>
<g id="a_node6"><a xlink:href="../../d5/d1b/DigitPixelReader_8cxx.html" target="_top" xlink:title="Implementation of the Alpide pixel reader for MC digits processing. ">
<polygon fill="none" stroke="black" points="739.5,-0.5 739.5,-52.5 932.5,-52.5 932.5,-0.5 739.5,-0.5"/>
<text text-anchor="start" x="747.5" y="-40.5" font-family="Helvetica,sans-Serif" font-size="10.00">/home/travis/build</text>
<text text-anchor="start" x="747.5" y="-29.5" font-family="Helvetica,sans-Serif" font-size="10.00">/AliceO2Group/AliceO2</text>
<text text-anchor="start" x="747.5" y="-18.5" font-family="Helvetica,sans-Serif" font-size="10.00">/Detectors/ITSMFT/common</text>
<text text-anchor="middle" x="836" y="-7.5" font-family="Helvetica,sans-Serif" font-size="10.00">/reconstruction/src/DigitPixelReader.cxx</text>
</a>
</g>
</g>
<!-- Node1&#45;&gt;Node6 -->
<g id="edge5" class="edge"><title>Node1&#45;&gt;Node6</title>
<path fill="none" stroke="midnightblue" d="M521.323,-98.2677C579.086,-86.1625 659.542,-69.0213 730,-53 733.045,-52.3075 736.138,-51.5984 739.261,-50.8776"/>
<polygon fill="midnightblue" stroke="midnightblue" points="520.603,-94.8424 511.532,-100.317 522.037,-101.694 520.603,-94.8424"/>
</g>
</g>
</svg>
