<?xml version="1.0" encoding="UTF-8" standalone="no"?>
<!DOCTYPE svg PUBLIC "-//W3C//DTD SVG 1.1//EN"
 "http://www.w3.org/Graphics/SVG/1.1/DTD/svg11.dtd">
<!-- Generated by graphviz version 2.38.0 (20140413.2041)
 -->
<!-- Title: o2::cpv::Detector Pages: 1 -->
<svg width="752pt" height="1379pt"
 viewBox="0.00 0.00 752.23 1379.00" xmlns="http://www.w3.org/2000/svg" xmlns:xlink="http://www.w3.org/1999/xlink">
<g id="graph0" class="graph" transform="scale(1 1) rotate(0) translate(4 1375)">
<title>o2::cpv::Detector</title>
<!-- Node1 -->
<g id="node1" class="node"><title>Node1</title>
<polygon fill="#bfbfbf" stroke="black" points="230.23,-0.5 230.23,-233.5 372.23,-233.5 372.23,-0.5 230.23,-0.5"/>
<text text-anchor="middle" x="301.23" y="-221.5" font-family="Helvetica,sans-Serif" font-size="10.00">o2::cpv::Detector</text>
<polyline fill="none" stroke="black" points="230.23,-214.5 372.23,-214.5 "/>
<text text-anchor="middle" x="301.23" y="-202.5" font-family="Helvetica,sans-Serif" font-size="10.00"> </text>
<polyline fill="none" stroke="black" points="230.23,-195.5 372.23,-195.5 "/>
<text text-anchor="start" x="238.23" y="-183.5" font-family="Helvetica,sans-Serif" font-size="10.00">+ Detector()</text>
<text text-anchor="start" x="238.23" y="-172.5" font-family="Helvetica,sans-Serif" font-size="10.00">+ Detector()</text>
<text text-anchor="start" x="238.23" y="-161.5" font-family="Helvetica,sans-Serif" font-size="10.00">+ ~Detector()</text>
<text text-anchor="start" x="238.23" y="-150.5" font-family="Helvetica,sans-Serif" font-size="10.00">+ InitializeO2Detector()</text>
<text text-anchor="start" x="238.23" y="-139.5" font-family="Helvetica,sans-Serif" font-size="10.00">+ ProcessHits()</text>
<text text-anchor="start" x="238.23" y="-128.5" font-family="Helvetica,sans-Serif" font-size="10.00">+ AddHit()</text>
<text text-anchor="start" x="238.23" y="-117.5" font-family="Helvetica,sans-Serif" font-size="10.00">+ Register()</text>
<text text-anchor="start" x="238.23" y="-106.5" font-family="Helvetica,sans-Serif" font-size="10.00">+ getHits()</text>
<text text-anchor="start" x="238.23" y="-95.5" font-family="Helvetica,sans-Serif" font-size="10.00">+ Reset()</text>
<text text-anchor="start" x="238.23" y="-84.5" font-family="Helvetica,sans-Serif" font-size="10.00">+ FinishEvent()</text>
<text text-anchor="start" x="238.23" y="-73.5" font-family="Helvetica,sans-Serif" font-size="10.00">+ EndOfEvent()</text>
<text text-anchor="start" x="238.23" y="-62.5" font-family="Helvetica,sans-Serif" font-size="10.00">+ addAlignableVolumes()</text>
<text text-anchor="start" x="238.23" y="-51.5" font-family="Helvetica,sans-Serif" font-size="10.00">+ GetGeometry()</text>
<text text-anchor="start" x="238.23" y="-40.5" font-family="Helvetica,sans-Serif" font-size="10.00"># CreateMaterials()</text>
<text text-anchor="start" x="238.23" y="-29.5" font-family="Helvetica,sans-Serif" font-size="10.00"># ConstructGeometry()</text>
<text text-anchor="start" x="238.23" y="-18.5" font-family="Helvetica,sans-Serif" font-size="10.00"># PadResponseFunction()</text>
<text text-anchor="start" x="238.23" y="-7.5" font-family="Helvetica,sans-Serif" font-size="10.00"># CPVCumulPadResponse()</text>
</g>
<!-- Node2 -->
<g id="node2" class="node"><title>Node2</title>
<g id="a_node2"><a xlink:href="../../de/dc8/classo2_1_1base_1_1DetImpl.html" target="_top" xlink:title="{o2::base::DetImpl\&lt;\l Detector \&gt;\n||+ getHitBranchNames()\l+ updateHitTrackIndices()\l+ attachHits()\l+ mergeAndAdjustHits()\l+ mergeHitEntries()\l+ fillHitBranch()\l+ CloneModule()\l+ freeHitBuffers()\l+ setHits()\l+ createHitBuffers()\l+ initializeLate()\l+ BeginEvent()\l+ ~DetImpl()\l# ClassDefOverride()\l}">
<polygon fill="none" stroke="black" points="236.23,-271.5 236.23,-482.5 366.23,-482.5 366.23,-271.5 236.23,-271.5"/>
<text text-anchor="start" x="244.23" y="-470.5" font-family="Helvetica,sans-Serif" font-size="10.00">o2::base::DetImpl&lt;</text>
<text text-anchor="middle" x="301.23" y="-459.5" font-family="Helvetica,sans-Serif" font-size="10.00"> Detector &gt;</text>
<polyline fill="none" stroke="black" points="236.23,-452.5 366.23,-452.5 "/>
<text text-anchor="middle" x="301.23" y="-440.5" font-family="Helvetica,sans-Serif" font-size="10.00"> </text>
<polyline fill="none" stroke="black" points="236.23,-433.5 366.23,-433.5 "/>
<text text-anchor="start" x="244.23" y="-421.5" font-family="Helvetica,sans-Serif" font-size="10.00">+ getHitBranchNames()</text>
<text text-anchor="start" x="244.23" y="-410.5" font-family="Helvetica,sans-Serif" font-size="10.00">+ updateHitTrackIndices()</text>
<text text-anchor="start" x="244.23" y="-399.5" font-family="Helvetica,sans-Serif" font-size="10.00">+ attachHits()</text>
<text text-anchor="start" x="244.23" y="-388.5" font-family="Helvetica,sans-Serif" font-size="10.00">+ mergeAndAdjustHits()</text>
<text text-anchor="start" x="244.23" y="-377.5" font-family="Helvetica,sans-Serif" font-size="10.00">+ mergeHitEntries()</text>
<text text-anchor="start" x="244.23" y="-366.5" font-family="Helvetica,sans-Serif" font-size="10.00">+ fillHitBranch()</text>
<text text-anchor="start" x="244.23" y="-355.5" font-family="Helvetica,sans-Serif" font-size="10.00">+ CloneModule()</text>
<text text-anchor="start" x="244.23" y="-344.5" font-family="Helvetica,sans-Serif" font-size="10.00">+ freeHitBuffers()</text>
<text text-anchor="start" x="244.23" y="-333.5" font-family="Helvetica,sans-Serif" font-size="10.00">+ setHits()</text>
<text text-anchor="start" x="244.23" y="-322.5" font-family="Helvetica,sans-Serif" font-size="10.00">+ createHitBuffers()</text>
<text text-anchor="start" x="244.23" y="-311.5" font-family="Helvetica,sans-Serif" font-size="10.00">+ initializeLate()</text>
<text text-anchor="start" x="244.23" y="-300.5" font-family="Helvetica,sans-Serif" font-size="10.00">+ BeginEvent()</text>
<text text-anchor="start" x="244.23" y="-289.5" font-family="Helvetica,sans-Serif" font-size="10.00">+ ~DetImpl()</text>
<text text-anchor="start" x="244.23" y="-278.5" font-family="Helvetica,sans-Serif" font-size="10.00"># ClassDefOverride()</text>
</a>
</g>
</g>
<!-- Node2&#45;&gt;Node1 -->
<g id="edge1" class="edge"><title>Node2&#45;&gt;Node1</title>
<path fill="none" stroke="midnightblue" d="M301.23,-261.175C301.23,-252.044 301.23,-242.817 301.23,-233.681"/>
<polygon fill="none" stroke="midnightblue" points="297.73,-261.433 301.23,-271.433 304.73,-261.433 297.73,-261.433"/>
</g>
<!-- Node3 -->
<g id="node3" class="node"><title>Node3</title>
<g id="a_node3"><a xlink:href="../../d2/d00/classo2_1_1base_1_1Detector.html" target="_top" xlink:title="{o2::base::Detector\n||+ Detector()\l+ Detector()\l+ ~Detector()\l+ Material()\l+ Mixture()\l+ Medium()\l+ SpecialCuts()\l+ SpecialCut()\l+ SpecialProcesses()\l+ SpecialProcess()\l+ Matrix()\l+ SetSpecialPhysicsCuts()\l+ addAlignableVolumes()\l+ defineWrapperVolume()\l+ setNumberOfWrapperVolumes()\l+ defineLayer()\l+ defineLayerTurbo()\l+ getMaterialID()\l+ getMediumID()\l+ getMediumIDMappingAsVector()\l+ addNameTo()\l+ getHitBranchNames()\l+ updateHitTrackIndices()\l+ attachHits()\l+ fillHitBranch()\l+ mergeHitEntries()\l+ InitializeO2Detector()\l+ Initialize()\l+ initializeLate()\l+ registerSensitiveVolumeAnd\lGetVolID()\l+ registerSensitiveVolumeAnd\lGetVolID()\l+ GetCollection()\l+ setDensityFactor()\l+ getDensityFactor()\l+ initFieldTrackingParams()\l# Detector()\l# operator=()\l}">
<polygon fill="none" stroke="black" points="480.73,-800.5 480.73,-1275.5 647.73,-1275.5 647.73,-800.5 480.73,-800.5"/>
<text text-anchor="middle" x="564.23" y="-1263.5" font-family="Helvetica,sans-Serif" font-size="10.00">o2::base::Detector</text>
<polyline fill="none" stroke="black" points="480.73,-1256.5 647.73,-1256.5 "/>
<text text-anchor="middle" x="564.23" y="-1244.5" font-family="Helvetica,sans-Serif" font-size="10.00"> </text>
<polyline fill="none" stroke="black" points="480.73,-1237.5 647.73,-1237.5 "/>
<text text-anchor="start" x="488.73" y="-1225.5" font-family="Helvetica,sans-Serif" font-size="10.00">+ Detector()</text>
<text text-anchor="start" x="488.73" y="-1214.5" font-family="Helvetica,sans-Serif" font-size="10.00">+ Detector()</text>
<text text-anchor="start" x="488.73" y="-1203.5" font-family="Helvetica,sans-Serif" font-size="10.00">+ ~Detector()</text>
<text text-anchor="start" x="488.73" y="-1192.5" font-family="Helvetica,sans-Serif" font-size="10.00">+ Material()</text>
<text text-anchor="start" x="488.73" y="-1181.5" font-family="Helvetica,sans-Serif" font-size="10.00">+ Mixture()</text>
<text text-anchor="start" x="488.73" y="-1170.5" font-family="Helvetica,sans-Serif" font-size="10.00">+ Medium()</text>
<text text-anchor="start" x="488.73" y="-1159.5" font-family="Helvetica,sans-Serif" font-size="10.00">+ SpecialCuts()</text>
<text text-anchor="start" x="488.73" y="-1148.5" font-family="Helvetica,sans-Serif" font-size="10.00">+ SpecialCut()</text>
<text text-anchor="start" x="488.73" y="-1137.5" font-family="Helvetica,sans-Serif" font-size="10.00">+ SpecialProcesses()</text>
<text text-anchor="start" x="488.73" y="-1126.5" font-family="Helvetica,sans-Serif" font-size="10.00">+ SpecialProcess()</text>
<text text-anchor="start" x="488.73" y="-1115.5" font-family="Helvetica,sans-Serif" font-size="10.00">+ Matrix()</text>
<text text-anchor="start" x="488.73" y="-1104.5" font-family="Helvetica,sans-Serif" font-size="10.00">+ SetSpecialPhysicsCuts()</text>
<text text-anchor="start" x="488.73" y="-1093.5" font-family="Helvetica,sans-Serif" font-size="10.00">+ addAlignableVolumes()</text>
<text text-anchor="start" x="488.73" y="-1082.5" font-family="Helvetica,sans-Serif" font-size="10.00">+ defineWrapperVolume()</text>
<text text-anchor="start" x="488.73" y="-1071.5" font-family="Helvetica,sans-Serif" font-size="10.00">+ setNumberOfWrapperVolumes()</text>
<text text-anchor="start" x="488.73" y="-1060.5" font-family="Helvetica,sans-Serif" font-size="10.00">+ defineLayer()</text>
<text text-anchor="start" x="488.73" y="-1049.5" font-family="Helvetica,sans-Serif" font-size="10.00">+ defineLayerTurbo()</text>
<text text-anchor="start" x="488.73" y="-1038.5" font-family="Helvetica,sans-Serif" font-size="10.00">+ getMaterialID()</text>
<text text-anchor="start" x="488.73" y="-1027.5" font-family="Helvetica,sans-Serif" font-size="10.00">+ getMediumID()</text>
<text text-anchor="start" x="488.73" y="-1016.5" font-family="Helvetica,sans-Serif" font-size="10.00">+ getMediumIDMappingAsVector()</text>
<text text-anchor="start" x="488.73" y="-1005.5" font-family="Helvetica,sans-Serif" font-size="10.00">+ addNameTo()</text>
<text text-anchor="start" x="488.73" y="-994.5" font-family="Helvetica,sans-Serif" font-size="10.00">+ getHitBranchNames()</text>
<text text-anchor="start" x="488.73" y="-983.5" font-family="Helvetica,sans-Serif" font-size="10.00">+ updateHitTrackIndices()</text>
<text text-anchor="start" x="488.73" y="-972.5" font-family="Helvetica,sans-Serif" font-size="10.00">+ attachHits()</text>
<text text-anchor="start" x="488.73" y="-961.5" font-family="Helvetica,sans-Serif" font-size="10.00">+ fillHitBranch()</text>
<text text-anchor="start" x="488.73" y="-950.5" font-family="Helvetica,sans-Serif" font-size="10.00">+ mergeHitEntries()</text>
<text text-anchor="start" x="488.73" y="-939.5" font-family="Helvetica,sans-Serif" font-size="10.00">+ InitializeO2Detector()</text>
<text text-anchor="start" x="488.73" y="-928.5" font-family="Helvetica,sans-Serif" font-size="10.00">+ Initialize()</text>
<text text-anchor="start" x="488.73" y="-917.5" font-family="Helvetica,sans-Serif" font-size="10.00">+ initializeLate()</text>
<text text-anchor="start" x="488.73" y="-906.5" font-family="Helvetica,sans-Serif" font-size="10.00">+ registerSensitiveVolumeAnd</text>
<text text-anchor="start" x="488.73" y="-895.5" font-family="Helvetica,sans-Serif" font-size="10.00">GetVolID()</text>
<text text-anchor="start" x="488.73" y="-884.5" font-family="Helvetica,sans-Serif" font-size="10.00">+ registerSensitiveVolumeAnd</text>
<text text-anchor="start" x="488.73" y="-873.5" font-family="Helvetica,sans-Serif" font-size="10.00">GetVolID()</text>
<text text-anchor="start" x="488.73" y="-862.5" font-family="Helvetica,sans-Serif" font-size="10.00">+ GetCollection()</text>
<text text-anchor="start" x="488.73" y="-851.5" font-family="Helvetica,sans-Serif" font-size="10.00">+ setDensityFactor()</text>
<text text-anchor="start" x="488.73" y="-840.5" font-family="Helvetica,sans-Serif" font-size="10.00">+ getDensityFactor()</text>
<text text-anchor="start" x="488.73" y="-829.5" font-family="Helvetica,sans-Serif" font-size="10.00">+ initFieldTrackingParams()</text>
<text text-anchor="start" x="488.73" y="-818.5" font-family="Helvetica,sans-Serif" font-size="10.00"># Detector()</text>
<text text-anchor="start" x="488.73" y="-807.5" font-family="Helvetica,sans-Serif" font-size="10.00"># operator=()</text>
</a>
</g>
</g>
<!-- Node3&#45;&gt;Node2 -->
<g id="edge2" class="edge"><title>Node3&#45;&gt;Node2</title>
<path fill="none" stroke="midnightblue" d="M640.141,-790.03C638.997,-779.871 637.069,-769.828 634.23,-760 600.69,-643.907 569.516,-620.313 489.23,-530 452.838,-489.063 404.695,-450.364 366.238,-422.259"/>
<polygon fill="none" stroke="midnightblue" points="636.674,-790.565 641.029,-800.224 643.648,-789.958 636.674,-790.565"/>
</g>
<!-- Node9 -->
<g id="node9" class="node"><title>Node9</title>
<g id="a_node9"><a xlink:href="../../de/dc8/classo2_1_1base_1_1DetImpl.html" target="_top" xlink:title="{o2::base::DetImpl\&lt;\l Det \&gt;\n||+ getHitBranchNames()\l+ updateHitTrackIndices()\l+ attachHits()\l+ mergeAndAdjustHits()\l+ mergeHitEntries()\l+ fillHitBranch()\l+ CloneModule()\l+ freeHitBuffers()\l+ setHits()\l+ createHitBuffers()\l+ initializeLate()\l+ BeginEvent()\l+ ~DetImpl()\l# ClassDefOverride()\l}">
<polygon fill="none" stroke="black" points="350.23,-530.5 350.23,-741.5 480.23,-741.5 480.23,-530.5 350.23,-530.5"/>
<text text-anchor="start" x="358.23" y="-729.5" font-family="Helvetica,sans-Serif" font-size="10.00">o2::base::DetImpl&lt;</text>
<text text-anchor="middle" x="415.23" y="-718.5" font-family="Helvetica,sans-Serif" font-size="10.00"> Det &gt;</text>
<polyline fill="none" stroke="black" points="350.23,-711.5 480.23,-711.5 "/>
<text text-anchor="middle" x="415.23" y="-699.5" font-family="Helvetica,sans-Serif" font-size="10.00"> </text>
<polyline fill="none" stroke="black" points="350.23,-692.5 480.23,-692.5 "/>
<text text-anchor="start" x="358.23" y="-680.5" font-family="Helvetica,sans-Serif" font-size="10.00">+ getHitBranchNames()</text>
<text text-anchor="start" x="358.23" y="-669.5" font-family="Helvetica,sans-Serif" font-size="10.00">+ updateHitTrackIndices()</text>
<text text-anchor="start" x="358.23" y="-658.5" font-family="Helvetica,sans-Serif" font-size="10.00">+ attachHits()</text>
<text text-anchor="start" x="358.23" y="-647.5" font-family="Helvetica,sans-Serif" font-size="10.00">+ mergeAndAdjustHits()</text>
<text text-anchor="start" x="358.23" y="-636.5" font-family="Helvetica,sans-Serif" font-size="10.00">+ mergeHitEntries()</text>
<text text-anchor="start" x="358.23" y="-625.5" font-family="Helvetica,sans-Serif" font-size="10.00">+ fillHitBranch()</text>
<text text-anchor="start" x="358.23" y="-614.5" font-family="Helvetica,sans-Serif" font-size="10.00">+ CloneModule()</text>
<text text-anchor="start" x="358.23" y="-603.5" font-family="Helvetica,sans-Serif" font-size="10.00">+ freeHitBuffers()</text>
<text text-anchor="start" x="358.23" y="-592.5" font-family="Helvetica,sans-Serif" font-size="10.00">+ setHits()</text>
<text text-anchor="start" x="358.23" y="-581.5" font-family="Helvetica,sans-Serif" font-size="10.00">+ createHitBuffers()</text>
<text text-anchor="start" x="358.23" y="-570.5" font-family="Helvetica,sans-Serif" font-size="10.00">+ initializeLate()</text>
<text text-anchor="start" x="358.23" y="-559.5" font-family="Helvetica,sans-Serif" font-size="10.00">+ BeginEvent()</text>
<text text-anchor="start" x="358.23" y="-548.5" font-family="Helvetica,sans-Serif" font-size="10.00">+ ~DetImpl()</text>
<text text-anchor="start" x="358.23" y="-537.5" font-family="Helvetica,sans-Serif" font-size="10.00"># ClassDefOverride()</text>
</a>
</g>
</g>
<!-- Node3&#45;&gt;Node9 -->
<g id="edge9" class="edge"><title>Node3&#45;&gt;Node9</title>
<path fill="none" stroke="midnightblue" d="M516.549,-790.579C512.744,-780.128 508.644,-769.89 504.23,-760 497.729,-745.438 489.331,-730.89 480.294,-717.161"/>
<polygon fill="none" stroke="midnightblue" points="513.329,-791.972 519.962,-800.234 519.929,-789.64 513.329,-791.972"/>
</g>
<!-- Node4 -->
<g id="node4" class="node"><title>Node4</title>
<g id="a_node4"><a xlink:href="../../d6/d0c/classFairDetector.html" target="_top" xlink:title="{FairDetector\n||}">
<polygon fill="none" stroke="black" points="528.73,-1313.5 528.73,-1370.5 599.73,-1370.5 599.73,-1313.5 528.73,-1313.5"/>
<text text-anchor="middle" x="564.23" y="-1358.5" font-family="Helvetica,sans-Serif" font-size="10.00">FairDetector</text>
<polyline fill="none" stroke="black" points="528.73,-1351.5 599.73,-1351.5 "/>
<text text-anchor="middle" x="564.23" y="-1339.5" font-family="Helvetica,sans-Serif" font-size="10.00"> </text>
<polyline fill="none" stroke="black" points="528.73,-1332.5 599.73,-1332.5 "/>
<text text-anchor="middle" x="564.23" y="-1320.5" font-family="Helvetica,sans-Serif" font-size="10.00"> </text>
</a>
</g>
</g>
<!-- Node4&#45;&gt;Node3 -->
<g id="edge3" class="edge"><title>Node4&#45;&gt;Node3</title>
<path fill="none" stroke="midnightblue" d="M564.23,-1303.23C564.23,-1295.01 564.23,-1285.74 564.23,-1275.72"/>
<polygon fill="none" stroke="midnightblue" points="560.73,-1303.4 564.23,-1313.4 567.73,-1303.4 560.73,-1303.4"/>
</g>
<!-- Node5 -->
<g id="node5" class="node"><title>Node5</title>
<g id="a_node5"><a xlink:href="../../d4/d34/classstatic_01constexpr_01int.html" target="_top" xlink:title="{static constexpr int\n||}">
<polygon fill="none" stroke="black" points="102.23,-607.5 102.23,-664.5 202.23,-664.5 202.23,-607.5 102.23,-607.5"/>
<text text-anchor="middle" x="152.23" y="-652.5" font-family="Helvetica,sans-Serif" font-size="10.00">static constexpr int</text>
<polyline fill="none" stroke="black" points="102.23,-645.5 202.23,-645.5 "/>
<text text-anchor="middle" x="152.23" y="-633.5" font-family="Helvetica,sans-Serif" font-size="10.00"> </text>
<polyline fill="none" stroke="black" points="102.23,-626.5 202.23,-626.5 "/>
<text text-anchor="middle" x="152.23" y="-614.5" font-family="Helvetica,sans-Serif" font-size="10.00"> </text>
</a>
</g>
</g>
<!-- Node5&#45;&gt;Node2 -->
<g id="edge4" class="edge"><title>Node5&#45;&gt;Node2</title>
<path fill="none" stroke="#404040" d="M144.966,-607.314C139.088,-579.111 134.152,-534.833 150.23,-501 166.262,-467.262 196.578,-439.737 225.863,-419.345"/>
<polygon fill="none" stroke="#404040" points="226.193,-419.123 228.943,-412.457 236.154,-412.431 233.404,-419.098 226.193,-419.123"/>
<text text-anchor="middle" x="190.23" y="-504" font-family="Helvetica,sans-Serif" font-size="10.00"> #NHITBUFFERS</text>
</g>
<!-- Node6 -->
<g id="node6" class="node"><title>Node6</title>
<polygon fill="none" stroke="#bfbfbf" points="121.73,-1009.5 121.73,-1066.5 162.73,-1066.5 162.73,-1009.5 121.73,-1009.5"/>
<text text-anchor="middle" x="142.23" y="-1054.5" font-family="Helvetica,sans-Serif" font-size="10.00">bool *</text>
<polyline fill="none" stroke="#bfbfbf" points="121.73,-1047.5 162.73,-1047.5 "/>
<text text-anchor="middle" x="142.23" y="-1035.5" font-family="Helvetica,sans-Serif" font-size="10.00"> </text>
<polyline fill="none" stroke="#bfbfbf" points="121.73,-1028.5 162.73,-1028.5 "/>
<text text-anchor="middle" x="142.23" y="-1016.5" font-family="Helvetica,sans-Serif" font-size="10.00"> </text>
</g>
<!-- Node6&#45;&gt;Node2 -->
<g id="edge5" class="edge"><title>Node6&#45;&gt;Node2</title>
<path fill="none" stroke="#404040" d="M123.535,-1009.31C72.0591,-929.316 -61.8183,-693.179 33.2296,-530 74.0987,-459.836 160.733,-419.437 224.487,-398.174"/>
<polygon fill="none" stroke="#404040" points="224.689,-398.109 229.171,-392.459 236.109,-394.423 231.627,-400.073 224.689,-398.109"/>
<text text-anchor="middle" x="63.2296" y="-633.5" font-family="Helvetica,sans-Serif" font-size="10.00"> #mShmBusy</text>
</g>
<!-- Node6&#45;&gt;Node9 -->
<g id="edge10" class="edge"><title>Node6&#45;&gt;Node9</title>
<path fill="none" stroke="#404040" d="M151.328,-1009.29C169.722,-956.353 215.437,-839.062 283.23,-760 292.142,-749.606 297.758,-750.82 308.23,-742 319.194,-732.765 330.393,-722.644 341.218,-712.445"/>
<polygon fill="none" stroke="#404040" points="341.523,-712.155 343.108,-705.12 350.211,-703.877 348.626,-710.912 341.523,-712.155"/>
<text text-anchor="middle" x="313.23" y="-768.5" font-family="Helvetica,sans-Serif" font-size="10.00"> #mShmBusy</text>
</g>
<!-- Node7 -->
<g id="node7" class="node"><title>Node7</title>
<polygon fill="none" stroke="#bfbfbf" points="672.73,-1009.5 672.73,-1066.5 701.73,-1066.5 701.73,-1009.5 672.73,-1009.5"/>
<text text-anchor="middle" x="687.23" y="-1054.5" font-family="Helvetica,sans-Serif" font-size="10.00">int</text>
<polyline fill="none" stroke="#bfbfbf" points="672.73,-1047.5 701.73,-1047.5 "/>
<text text-anchor="middle" x="687.23" y="-1035.5" font-family="Helvetica,sans-Serif" font-size="10.00"> </text>
<polyline fill="none" stroke="#bfbfbf" points="672.73,-1028.5 701.73,-1028.5 "/>
<text text-anchor="middle" x="687.23" y="-1016.5" font-family="Helvetica,sans-Serif" font-size="10.00"> </text>
</g>
<!-- Node7&#45;&gt;Node2 -->
<g id="edge6" class="edge"><title>Node7&#45;&gt;Node2</title>
<path fill="none" stroke="#404040" d="M689.147,-1009.39C693.38,-926.539 694.858,-676.73 573.23,-530 521.987,-468.181 438.723,-426.949 377.799,-403.213"/>
<polygon fill="none" stroke="#404040" points="377.527,-403.11 370.497,-404.714 366.312,-398.841 373.343,-397.237 377.527,-403.11"/>
<text text-anchor="middle" x="706.23" y="-639" font-family="Helvetica,sans-Serif" font-size="10.00"> #mCurrentBuffer</text>
<text text-anchor="middle" x="706.23" y="-628" font-family="Helvetica,sans-Serif" font-size="10.00">#mInitialized</text>
</g>
<!-- Node7&#45;&gt;Node9 -->
<g id="edge11" class="edge"><title>Node7&#45;&gt;Node9</title>
<path fill="none" stroke="#404040" d="M692.152,-1009.29C699.061,-961.002 705.776,-860.795 656.23,-800 640.779,-781.042 625.764,-793.592 604.23,-782 563.96,-760.322 523.214,-730.316 489.917,-703.222"/>
<polygon fill="none" stroke="#404040" points="489.549,-702.919 482.374,-702.195 480.282,-695.294 487.457,-696.017 489.549,-702.919"/>
<text text-anchor="middle" x="642.23" y="-774" font-family="Helvetica,sans-Serif" font-size="10.00"> #mCurrentBuffer</text>
<text text-anchor="middle" x="642.23" y="-763" font-family="Helvetica,sans-Serif" font-size="10.00">#mInitialized</text>
</g>
<!-- Node8 -->
<g id="node8" class="node"><title>Node8</title>
<polygon fill="none" stroke="#bfbfbf" points="299.23,-1009.5 299.23,-1066.5 385.23,-1066.5 385.23,-1009.5 299.23,-1009.5"/>
<text text-anchor="middle" x="342.23" y="-1054.5" font-family="Helvetica,sans-Serif" font-size="10.00">vector&lt; void * &gt;</text>
<polyline fill="none" stroke="#bfbfbf" points="299.23,-1047.5 385.23,-1047.5 "/>
<text text-anchor="middle" x="342.23" y="-1035.5" font-family="Helvetica,sans-Serif" font-size="10.00"> </text>
<polyline fill="none" stroke="#bfbfbf" points="299.23,-1028.5 385.23,-1028.5 "/>
<text text-anchor="middle" x="342.23" y="-1016.5" font-family="Helvetica,sans-Serif" font-size="10.00"> </text>
</g>
<!-- Node8&#45;&gt;Node2 -->
<g id="edge7" class="edge"><title>Node8&#45;&gt;Node2</title>
<path fill="none" stroke="#404040" d="M330.779,-1009.33C312.369,-963.186 276.963,-867.163 264.23,-782 256.906,-733.017 218.423,-1079.92 277.23,-530 278.442,-518.663 279.917,-506.883 281.533,-495.12"/>
<polygon fill="none" stroke="#404040" points="281.583,-494.771 278.463,-488.27 283.264,-482.889 286.384,-489.391 281.583,-494.771"/>
<text text-anchor="middle" x="309.23" y="-633.5" font-family="Helvetica,sans-Serif" font-size="10.00"> #mCachedPtr</text>
</g>
<!-- Node8&#45;&gt;Node9 -->
<g id="edge12" class="edge"><title>Node8&#45;&gt;Node9</title>
<path fill="none" stroke="#404040" d="M339.322,-1009.3C334.872,-958.784 329.131,-848.714 352.23,-760 352.794,-757.831 353.402,-755.656 354.048,-753.478"/>
<polygon fill="none" stroke="#404040" points="354.126,-753.24 352.188,-746.294 357.853,-741.833 359.792,-748.779 354.126,-753.24"/>
<text text-anchor="middle" x="384.23" y="-768.5" font-family="Helvetica,sans-Serif" font-size="10.00"> #mCachedPtr</text>
</g>
<!-- Node9&#45;&gt;Node2 -->
<g id="edge8" class="edge"><title>Node9&#45;&gt;Node2</title>
<path fill="none" stroke="orange" d="M364.758,-521.218C359.097,-508.456 353.349,-495.498 347.742,-482.856"/>
<polygon fill="orange" stroke="orange" points="361.607,-522.746 368.861,-530.468 368.006,-519.908 361.607,-522.746"/>
<text text-anchor="middle" x="387.73" y="-504" font-family="Helvetica,sans-Serif" font-size="10.00"> &lt; Detector &gt;</text>
</g>
<!-- Node10 -->
<g id="node10" class="node"><title>Node10</title>
<polygon fill="none" stroke="#bfbfbf" points="408.73,-1009.5 408.73,-1066.5 449.73,-1066.5 449.73,-1009.5 408.73,-1009.5"/>
<text text-anchor="middle" x="429.23" y="-1054.5" font-family="Helvetica,sans-Serif" font-size="10.00">static</text>
<polyline fill="none" stroke="#bfbfbf" points="408.73,-1047.5 449.73,-1047.5 "/>
<text text-anchor="middle" x="429.23" y="-1035.5" font-family="Helvetica,sans-Serif" font-size="10.00"> </text>
<polyline fill="none" stroke="#bfbfbf" points="408.73,-1028.5 449.73,-1028.5 "/>
<text text-anchor="middle" x="429.23" y="-1016.5" font-family="Helvetica,sans-Serif" font-size="10.00"> </text>
</g>
<!-- Node10&#45;&gt;Node9 -->
<g id="edge13" class="edge"><title>Node10&#45;&gt;Node9</title>
<path fill="none" stroke="#404040" d="M428.256,-1009.19C426.433,-957.105 422.409,-842.123 419.312,-753.647"/>
<polygon fill="none" stroke="#404040" points="419.311,-753.616 415.104,-747.76 418.891,-741.623 423.099,-747.48 419.311,-753.616"/>
<text text-anchor="middle" x="460.23" y="-768.5" font-family="Helvetica,sans-Serif" font-size="10.00"> #NHITBUFFERS</text>
</g>
</g>
</svg>
