<?xml version="1.0" encoding="UTF-8" standalone="no"?>
<!DOCTYPE svg PUBLIC "-//W3C//DTD SVG 1.1//EN"
 "http://www.w3.org/Graphics/SVG/1.1/DTD/svg11.dtd">
<!-- Generated by graphviz version 2.38.0 (20140413.2041)
 -->
<!-- Title: /home/travis/build/AliceO2Group/AliceO2/Detectors/EMCAL/calib/test/testTriggerTRUDCS.cxx Pages: 1 -->
<svg width="378pt" height="173pt"
 viewBox="0.00 0.00 377.50 173.00" xmlns="http://www.w3.org/2000/svg" xmlns:xlink="http://www.w3.org/1999/xlink">
<g id="graph0" class="graph" transform="scale(1 1) rotate(0) translate(4 169)">
<title>/home/travis/build/AliceO2Group/AliceO2/Detectors/EMCAL/calib/test/testTriggerTRUDCS.cxx</title>
<!-- Node1 -->
<g id="node1" class="node"><title>Node1</title>
<polygon fill="#bfbfbf" stroke="black" points="143,-112.5 143,-164.5 290,-164.5 290,-112.5 143,-112.5"/>
<text text-anchor="start" x="151" y="-152.5" font-family="Helvetica,sans-Serif" font-size="10.00">/home/travis/build</text>
<text text-anchor="start" x="151" y="-141.5" font-family="Helvetica,sans-Serif" font-size="10.00">/AliceO2Group/AliceO2</text>
<text text-anchor="start" x="151" y="-130.5" font-family="Helvetica,sans-Serif" font-size="10.00">/Detectors/EMCAL/calib</text>
<text text-anchor="middle" x="216.5" y="-119.5" font-family="Helvetica,sans-Serif" font-size="10.00">/test/testTriggerTRUDCS.cxx</text>
</g>
<!-- Node2 -->
<g id="node2" class="node"><title>Node2</title>
<polygon fill="none" stroke="#bfbfbf" points="0,-56.5 0,-75.5 119,-75.5 119,-56.5 0,-56.5"/>
<text text-anchor="middle" x="59.5" y="-63.5" font-family="Helvetica,sans-Serif" font-size="10.00">boost/test/unit_test.hpp</text>
</g>
<!-- Node1&#45;&gt;Node2 -->
<g id="edge1" class="edge"><title>Node1&#45;&gt;Node2</title>
<path fill="none" stroke="midnightblue" d="M160.706,-112.446C136.013,-101.358 108.042,-88.7974 87.7726,-79.6957"/>
<polygon fill="midnightblue" stroke="midnightblue" points="89.0454,-76.4306 78.4891,-75.527 86.1779,-82.8163 89.0454,-76.4306"/>
</g>
<!-- Node3 -->
<g id="node3" class="node"><title>Node3</title>
<g id="a_node3"><a xlink:href="../../d1/d50/TriggerTRUDCS_8h.html" target="_top" xlink:title="EMCALCalib/TriggerTRUDCS.h">
<polygon fill="none" stroke="black" points="137.5,-56.5 137.5,-75.5 295.5,-75.5 295.5,-56.5 137.5,-56.5"/>
<text text-anchor="middle" x="216.5" y="-63.5" font-family="Helvetica,sans-Serif" font-size="10.00">EMCALCalib/TriggerTRUDCS.h</text>
</a>
</g>
</g>
<!-- Node1&#45;&gt;Node3 -->
<g id="edge2" class="edge"><title>Node1&#45;&gt;Node3</title>
<path fill="none" stroke="midnightblue" d="M216.5,-112.446C216.5,-103.73 216.5,-94.1045 216.5,-85.9641"/>
<polygon fill="midnightblue" stroke="midnightblue" points="220,-85.6954 216.5,-75.6955 213,-85.6955 220,-85.6954"/>
</g>
<!-- Node7 -->
<g id="node7" class="node"><title>Node7</title>
<polygon fill="none" stroke="#bfbfbf" points="313.5,-56.5 313.5,-75.5 369.5,-75.5 369.5,-56.5 313.5,-56.5"/>
<text text-anchor="middle" x="341.5" y="-63.5" font-family="Helvetica,sans-Serif" font-size="10.00">algorithm</text>
</g>
<!-- Node1&#45;&gt;Node7 -->
<g id="edge6" class="edge"><title>Node1&#45;&gt;Node7</title>
<path fill="none" stroke="midnightblue" d="M260.922,-112.446C280.046,-101.66 301.639,-89.4814 317.656,-80.448"/>
<polygon fill="midnightblue" stroke="midnightblue" points="319.39,-83.4881 326.381,-75.527 315.952,-77.391 319.39,-83.4881"/>
</g>
<!-- Node4 -->
<g id="node4" class="node"><title>Node4</title>
<polygon fill="none" stroke="#bfbfbf" points="134,-0.5 134,-19.5 179,-19.5 179,-0.5 134,-0.5"/>
<text text-anchor="middle" x="156.5" y="-7.5" font-family="Helvetica,sans-Serif" font-size="10.00">iosfwd</text>
</g>
<!-- Node3&#45;&gt;Node4 -->
<g id="edge3" class="edge"><title>Node3&#45;&gt;Node4</title>
<path fill="none" stroke="midnightblue" d="M206.86,-56.324C197.99,-48.3414 184.625,-36.3128 173.892,-26.6529"/>
<polygon fill="midnightblue" stroke="midnightblue" points="176.09,-23.922 166.315,-19.8339 171.407,-29.1251 176.09,-23.922"/>
</g>
<!-- Node5 -->
<g id="node5" class="node"><title>Node5</title>
<polygon fill="none" stroke="#bfbfbf" points="197.5,-0.5 197.5,-19.5 235.5,-19.5 235.5,-0.5 197.5,-0.5"/>
<text text-anchor="middle" x="216.5" y="-7.5" font-family="Helvetica,sans-Serif" font-size="10.00">array</text>
</g>
<!-- Node3&#45;&gt;Node5 -->
<g id="edge4" class="edge"><title>Node3&#45;&gt;Node5</title>
<path fill="none" stroke="midnightblue" d="M216.5,-56.083C216.5,-49.0059 216.5,-38.8611 216.5,-29.9865"/>
<polygon fill="midnightblue" stroke="midnightblue" points="220,-29.751 216.5,-19.7511 213,-29.7511 220,-29.751"/>
</g>
<!-- Node6 -->
<g id="node6" class="node"><title>Node6</title>
<polygon fill="none" stroke="#bfbfbf" points="253.5,-0.5 253.5,-19.5 309.5,-19.5 309.5,-0.5 253.5,-0.5"/>
<text text-anchor="middle" x="281.5" y="-7.5" font-family="Helvetica,sans-Serif" font-size="10.00">Rtypes.h</text>
</g>
<!-- Node3&#45;&gt;Node6 -->
<g id="edge5" class="edge"><title>Node3&#45;&gt;Node6</title>
<path fill="none" stroke="midnightblue" d="M226.943,-56.324C236.646,-48.2631 251.315,-36.0765 263,-26.3695"/>
<polygon fill="midnightblue" stroke="midnightblue" points="265.411,-28.9163 270.867,-19.8339 260.938,-23.532 265.411,-28.9163"/>
</g>
</g>
</svg>
