<?xml version="1.0" encoding="UTF-8" standalone="no"?>
<!DOCTYPE svg PUBLIC "-//W3C//DTD SVG 1.1//EN"
 "http://www.w3.org/Graphics/SVG/1.1/DTD/svg11.dtd">
<!-- Generated by graphviz version 2.38.0 (20140413.2041)
 -->
<!-- Title: o2::header::Descriptor&lt; N, PrinterPolicy &gt; Pages: 1 -->
<svg width="274pt" height="347pt"
 viewBox="0.00 0.00 273.50 347.00" xmlns="http://www.w3.org/2000/svg" xmlns:xlink="http://www.w3.org/1999/xlink">
<g id="graph0" class="graph" transform="scale(1 1) rotate(0) translate(4 343)">
<title>o2::header::Descriptor&lt; N, PrinterPolicy &gt;</title>
<!-- Node1 -->
<g id="node1" class="node"><title>Node1</title>
<polygon fill="#bfbfbf" stroke="black" points="59.5,-0.5 59.5,-211.5 172.5,-211.5 172.5,-0.5 59.5,-0.5"/>
<text text-anchor="start" x="67.5" y="-199.5" font-family="Helvetica,sans-Serif" font-size="10.00">o2::header::Descriptor</text>
<text text-anchor="middle" x="116" y="-188.5" font-family="Helvetica,sans-Serif" font-size="10.00">&lt; N, PrinterPolicy &gt;</text>
<polyline fill="none" stroke="black" points="59.5,-181.5 172.5,-181.5 "/>
<text text-anchor="middle" x="116" y="-169.5" font-family="Helvetica,sans-Serif" font-size="10.00"> </text>
<polyline fill="none" stroke="black" points="59.5,-162.5 172.5,-162.5 "/>
<text text-anchor="start" x="67.5" y="-150.5" font-family="Helvetica,sans-Serif" font-size="10.00">+ Descriptor()</text>
<text text-anchor="start" x="67.5" y="-139.5" font-family="Helvetica,sans-Serif" font-size="10.00">+ Descriptor()</text>
<text text-anchor="start" x="67.5" y="-128.5" font-family="Helvetica,sans-Serif" font-size="10.00">+ Descriptor()</text>
<text text-anchor="start" x="67.5" y="-117.5" font-family="Helvetica,sans-Serif" font-size="10.00">+ operator=()</text>
<text text-anchor="start" x="67.5" y="-106.5" font-family="Helvetica,sans-Serif" font-size="10.00">+ operator ItgType()</text>
<text text-anchor="start" x="67.5" y="-95.5" font-family="Helvetica,sans-Serif" font-size="10.00">+ Descriptor()</text>
<text text-anchor="start" x="67.5" y="-84.5" font-family="Helvetica,sans-Serif" font-size="10.00">+ runtimeInit()</text>
<text text-anchor="start" x="67.5" y="-73.5" font-family="Helvetica,sans-Serif" font-size="10.00">+ operator==()</text>
<text text-anchor="start" x="67.5" y="-62.5" font-family="Helvetica,sans-Serif" font-size="10.00">+ operator&lt;()</text>
<text text-anchor="start" x="67.5" y="-51.5" font-family="Helvetica,sans-Serif" font-size="10.00">+ operator!=()</text>
<text text-anchor="start" x="67.5" y="-40.5" font-family="Helvetica,sans-Serif" font-size="10.00">+ operator==()</text>
<text text-anchor="start" x="67.5" y="-29.5" font-family="Helvetica,sans-Serif" font-size="10.00">+ operator!=()</text>
<text text-anchor="start" x="67.5" y="-18.5" font-family="Helvetica,sans-Serif" font-size="10.00">+ as()</text>
<text text-anchor="start" x="67.5" y="-7.5" font-family="Helvetica,sans-Serif" font-size="10.00">+ print()</text>
</g>
<!-- Node2 -->
<g id="node2" class="node"><title>Node2</title>
<polygon fill="none" stroke="#bfbfbf" points="0,-281.5 0,-338.5 38,-338.5 38,-281.5 0,-281.5"/>
<text text-anchor="middle" x="19" y="-326.5" font-family="Helvetica,sans-Serif" font-size="10.00">Type</text>
<polyline fill="none" stroke="#bfbfbf" points="0,-319.5 38,-319.5 "/>
<text text-anchor="middle" x="19" y="-307.5" font-family="Helvetica,sans-Serif" font-size="10.00"> </text>
<polyline fill="none" stroke="#bfbfbf" points="0,-300.5 38,-300.5 "/>
<text text-anchor="middle" x="19" y="-288.5" font-family="Helvetica,sans-Serif" font-size="10.00"> </text>
</g>
<!-- Node2&#45;&gt;Node1 -->
<g id="edge1" class="edge"><title>Node2&#45;&gt;Node1</title>
<path fill="none" stroke="#404040" d="M32.284,-281.336C39.8299,-265.622 49.8432,-244.77 60.3136,-222.966"/>
<polygon fill="none" stroke="#404040" points="60.4553,-222.67 59.4468,-215.53 65.6499,-211.853 66.6584,-218.993 60.4553,-222.67"/>
<text text-anchor="middle" x="66" y="-244" font-family="Helvetica,sans-Serif" font-size="10.00"> +itg</text>
</g>
<!-- Node3 -->
<g id="node3" class="node"><title>Node3</title>
<polygon fill="none" stroke="#bfbfbf" points="56.5,-281.5 56.5,-338.5 91.5,-338.5 91.5,-281.5 56.5,-281.5"/>
<text text-anchor="middle" x="74" y="-326.5" font-family="Helvetica,sans-Serif" font-size="10.00">char</text>
<polyline fill="none" stroke="#bfbfbf" points="56.5,-319.5 91.5,-319.5 "/>
<text text-anchor="middle" x="74" y="-307.5" font-family="Helvetica,sans-Serif" font-size="10.00"> </text>
<polyline fill="none" stroke="#bfbfbf" points="56.5,-300.5 91.5,-300.5 "/>
<text text-anchor="middle" x="74" y="-288.5" font-family="Helvetica,sans-Serif" font-size="10.00"> </text>
</g>
<!-- Node3&#45;&gt;Node1 -->
<g id="edge2" class="edge"><title>Node3&#45;&gt;Node1</title>
<path fill="none" stroke="#404040" d="M79.7519,-281.336C82.9744,-265.838 87.2362,-245.34 91.7022,-223.861"/>
<polygon fill="none" stroke="#404040" points="91.756,-223.602 89.0612,-216.913 94.1989,-211.853 96.8937,-218.541 91.756,-223.602"/>
<text text-anchor="middle" x="101.5" y="-244" font-family="Helvetica,sans-Serif" font-size="10.00"> +str</text>
</g>
<!-- Node4 -->
<g id="node4" class="node"><title>Node4</title>
<polygon fill="none" stroke="#bfbfbf" points="109.5,-281.5 109.5,-338.5 206.5,-338.5 206.5,-281.5 109.5,-281.5"/>
<text text-anchor="middle" x="158" y="-326.5" font-family="Helvetica,sans-Serif" font-size="10.00">anonymous:+@24</text>
<polyline fill="none" stroke="#bfbfbf" points="109.5,-319.5 206.5,-319.5 "/>
<text text-anchor="middle" x="158" y="-307.5" font-family="Helvetica,sans-Serif" font-size="10.00"> </text>
<polyline fill="none" stroke="#bfbfbf" points="109.5,-300.5 206.5,-300.5 "/>
<text text-anchor="middle" x="158" y="-288.5" font-family="Helvetica,sans-Serif" font-size="10.00"> </text>
</g>
<!-- Node4&#45;&gt;Node1 -->
<g id="edge3" class="edge"><title>Node4&#45;&gt;Node1</title>
<path fill="none" stroke="#404040" d="M152.248,-281.336C149.026,-265.838 144.764,-245.34 140.298,-223.861"/>
<polygon fill="none" stroke="#404040" points="140.244,-223.602 135.106,-218.541 137.801,-211.853 142.939,-216.913 140.244,-223.602"/>
<text text-anchor="middle" x="163.5" y="-244" font-family="Helvetica,sans-Serif" font-size="10.00"> +@24</text>
</g>
<!-- Node5 -->
<g id="node5" class="node"><title>Node5</title>
<polygon fill="none" stroke="#bfbfbf" points="224.5,-281.5 224.5,-338.5 265.5,-338.5 265.5,-281.5 224.5,-281.5"/>
<text text-anchor="middle" x="245" y="-326.5" font-family="Helvetica,sans-Serif" font-size="10.00">static</text>
<polyline fill="none" stroke="#bfbfbf" points="224.5,-319.5 265.5,-319.5 "/>
<text text-anchor="middle" x="245" y="-307.5" font-family="Helvetica,sans-Serif" font-size="10.00"> </text>
<polyline fill="none" stroke="#bfbfbf" points="224.5,-300.5 265.5,-300.5 "/>
<text text-anchor="middle" x="245" y="-288.5" font-family="Helvetica,sans-Serif" font-size="10.00"> </text>
</g>
<!-- Node5&#45;&gt;Node1 -->
<g id="edge4" class="edge"><title>Node5&#45;&gt;Node1</title>
<path fill="none" stroke="#404040" d="M227.334,-281.336C214.674,-261.512 196.791,-233.51 179.054,-205.736"/>
<polygon fill="none" stroke="#404040" points="178.995,-205.643 172.394,-202.739 172.536,-195.529 179.136,-198.433 178.995,-205.643"/>
<text text-anchor="middle" x="239.5" y="-255" font-family="Helvetica,sans-Serif" font-size="10.00"> +arraySize</text>
<text text-anchor="middle" x="239.5" y="-244" font-family="Helvetica,sans-Serif" font-size="10.00">+size</text>
<text text-anchor="middle" x="239.5" y="-233" font-family="Helvetica,sans-Serif" font-size="10.00">+bitcount</text>
</g>
</g>
</svg>
