<?xml version="1.0" encoding="UTF-8" standalone="no"?>
<!DOCTYPE svg PUBLIC "-//W3C//DTD SVG 1.1//EN"
 "http://www.w3.org/Graphics/SVG/1.1/DTD/svg11.dtd">
<!-- Generated by graphviz version 2.38.0 (20140413.2041)
 -->
<!-- Title: o2::base::MatLayerCyl Pages: 1 -->
<svg width="505pt" height="933pt"
 viewBox="0.00 0.00 505.00 933.00" xmlns="http://www.w3.org/2000/svg" xmlns:xlink="http://www.w3.org/1999/xlink">
<g id="graph0" class="graph" transform="scale(1 1) rotate(0) translate(4 929)">
<title>o2::base::MatLayerCyl</title>
<!-- Node1 -->
<g id="node1" class="node"><title>Node1</title>
<polygon fill="#bfbfbf" stroke="black" points="158,-0.5 158,-629.5 298,-629.5 298,-0.5 158,-0.5"/>
<text text-anchor="middle" x="228" y="-617.5" font-family="Helvetica,sans-Serif" font-size="10.00">o2::base::MatLayerCyl</text>
<polyline fill="none" stroke="black" points="158,-610.5 298,-610.5 "/>
<text text-anchor="middle" x="228" y="-598.5" font-family="Helvetica,sans-Serif" font-size="10.00"> </text>
<polyline fill="none" stroke="black" points="158,-591.5 298,-591.5 "/>
<text text-anchor="start" x="166" y="-579.5" font-family="Helvetica,sans-Serif" font-size="10.00">+ MatLayerCyl()</text>
<text text-anchor="start" x="166" y="-568.5" font-family="Helvetica,sans-Serif" font-size="10.00">+ MatLayerCyl()</text>
<text text-anchor="start" x="166" y="-557.5" font-family="Helvetica,sans-Serif" font-size="10.00">+ ~MatLayerCyl()</text>
<text text-anchor="start" x="166" y="-546.5" font-family="Helvetica,sans-Serif" font-size="10.00">+ MatLayerCyl()</text>
<text text-anchor="start" x="166" y="-535.5" font-family="Helvetica,sans-Serif" font-size="10.00">+ initSegmentation()</text>
<text text-anchor="start" x="166" y="-524.5" font-family="Helvetica,sans-Serif" font-size="10.00">+ initSegmentation()</text>
<text text-anchor="start" x="166" y="-513.5" font-family="Helvetica,sans-Serif" font-size="10.00">+ populateFromTGeo()</text>
<text text-anchor="start" x="166" y="-502.5" font-family="Helvetica,sans-Serif" font-size="10.00">+ populateFromTGeo()</text>
<text text-anchor="start" x="166" y="-491.5" font-family="Helvetica,sans-Serif" font-size="10.00">+ print()</text>
<text text-anchor="start" x="166" y="-480.5" font-family="Helvetica,sans-Serif" font-size="10.00">+ GPUd()</text>
<text text-anchor="start" x="166" y="-469.5" font-family="Helvetica,sans-Serif" font-size="10.00">+ GPUd()</text>
<text text-anchor="start" x="166" y="-458.5" font-family="Helvetica,sans-Serif" font-size="10.00">+ GPUd()</text>
<text text-anchor="start" x="166" y="-447.5" font-family="Helvetica,sans-Serif" font-size="10.00">+ GPUd()</text>
<text text-anchor="start" x="166" y="-436.5" font-family="Helvetica,sans-Serif" font-size="10.00">+ GPUd()</text>
<text text-anchor="start" x="166" y="-425.5" font-family="Helvetica,sans-Serif" font-size="10.00">+ GPUd()</text>
<text text-anchor="start" x="166" y="-414.5" font-family="Helvetica,sans-Serif" font-size="10.00">+ GPUd()</text>
<text text-anchor="start" x="166" y="-403.5" font-family="Helvetica,sans-Serif" font-size="10.00">+ GPUd()</text>
<text text-anchor="start" x="166" y="-392.5" font-family="Helvetica,sans-Serif" font-size="10.00">+ GPUd()</text>
<text text-anchor="start" x="166" y="-381.5" font-family="Helvetica,sans-Serif" font-size="10.00">+ GPUd()</text>
<text text-anchor="start" x="166" y="-370.5" font-family="Helvetica,sans-Serif" font-size="10.00">+ GPUd()</text>
<text text-anchor="start" x="166" y="-359.5" font-family="Helvetica,sans-Serif" font-size="10.00">+ GPUd()</text>
<text text-anchor="start" x="166" y="-348.5" font-family="Helvetica,sans-Serif" font-size="10.00">+ GPUd()</text>
<text text-anchor="start" x="166" y="-337.5" font-family="Helvetica,sans-Serif" font-size="10.00">+ GPUd()</text>
<text text-anchor="start" x="166" y="-326.5" font-family="Helvetica,sans-Serif" font-size="10.00">+ GPUd()</text>
<text text-anchor="start" x="166" y="-315.5" font-family="Helvetica,sans-Serif" font-size="10.00">+ GPUd()</text>
<text text-anchor="start" x="166" y="-304.5" font-family="Helvetica,sans-Serif" font-size="10.00">+ GPUd()</text>
<text text-anchor="start" x="166" y="-293.5" font-family="Helvetica,sans-Serif" font-size="10.00">+ GPUd()</text>
<text text-anchor="start" x="166" y="-282.5" font-family="Helvetica,sans-Serif" font-size="10.00">+ GPUd()</text>
<text text-anchor="start" x="166" y="-271.5" font-family="Helvetica,sans-Serif" font-size="10.00">+ GPUd()</text>
<text text-anchor="start" x="166" y="-260.5" font-family="Helvetica,sans-Serif" font-size="10.00">+ GPUd()</text>
<text text-anchor="start" x="166" y="-249.5" font-family="Helvetica,sans-Serif" font-size="10.00">+ GPUd()</text>
<text text-anchor="start" x="166" y="-238.5" font-family="Helvetica,sans-Serif" font-size="10.00">+ GPUd()</text>
<text text-anchor="start" x="166" y="-227.5" font-family="Helvetica,sans-Serif" font-size="10.00">+ GPUd()</text>
<text text-anchor="start" x="166" y="-216.5" font-family="Helvetica,sans-Serif" font-size="10.00">+ getMeanRMS()</text>
<text text-anchor="start" x="166" y="-205.5" font-family="Helvetica,sans-Serif" font-size="10.00">+ cellsDiffer()</text>
<text text-anchor="start" x="166" y="-194.5" font-family="Helvetica,sans-Serif" font-size="10.00">+ canMergePhiSlices()</text>
<text text-anchor="start" x="166" y="-183.5" font-family="Helvetica,sans-Serif" font-size="10.00">+ optimizePhiSlices()</text>
<text text-anchor="start" x="166" y="-172.5" font-family="Helvetica,sans-Serif" font-size="10.00">+ flatten()</text>
<text text-anchor="start" x="166" y="-161.5" font-family="Helvetica,sans-Serif" font-size="10.00">+ estimateFlatBufferSize()</text>
<text text-anchor="start" x="166" y="-150.5" font-family="Helvetica,sans-Serif" font-size="10.00">+ fixPointers()</text>
<text text-anchor="start" x="166" y="-139.5" font-family="Helvetica,sans-Serif" font-size="10.00">+ setFlatPointer()</text>
<text text-anchor="start" x="166" y="-128.5" font-family="Helvetica,sans-Serif" font-size="10.00">+ estimateFlatBufferSize()</text>
<text text-anchor="start" x="166" y="-117.5" font-family="Helvetica,sans-Serif" font-size="10.00">+ getClassAlignmentBytes()</text>
<text text-anchor="start" x="166" y="-106.5" font-family="Helvetica,sans-Serif" font-size="10.00">+ getBufferAlignmentBytes()</text>
<text text-anchor="start" x="166" y="-95.5" font-family="Helvetica,sans-Serif" font-size="10.00"># GPUd()</text>
<text text-anchor="start" x="166" y="-84.5" font-family="Helvetica,sans-Serif" font-size="10.00"># GPUd()</text>
<text text-anchor="start" x="166" y="-73.5" font-family="Helvetica,sans-Serif" font-size="10.00"># GPUd()</text>
<text text-anchor="start" x="166" y="-62.5" font-family="Helvetica,sans-Serif" font-size="10.00"># GPUd()</text>
<text text-anchor="start" x="166" y="-51.5" font-family="Helvetica,sans-Serif" font-size="10.00"># GPUd()</text>
<text text-anchor="start" x="166" y="-40.5" font-family="Helvetica,sans-Serif" font-size="10.00"># GPUd()</text>
<text text-anchor="start" x="166" y="-29.5" font-family="Helvetica,sans-Serif" font-size="10.00"># GPUd()</text>
<text text-anchor="start" x="166" y="-18.5" font-family="Helvetica,sans-Serif" font-size="10.00"># while()</text>
<text text-anchor="start" x="166" y="-7.5" font-family="Helvetica,sans-Serif" font-size="10.00"># ClassDefNV()</text>
</g>
<!-- Node2 -->
<g id="node2" class="node"><title>Node2</title>
<g id="a_node2"><a xlink:href="../../d8/db1/classo2_1_1gpu_1_1FlatObject.html" target="_top" xlink:title="{o2::gpu::FlatObject\n||}">
<polygon fill="none" stroke="black" points="0,-731 0,-788 100,-788 100,-731 0,-731"/>
<text text-anchor="middle" x="50" y="-776" font-family="Helvetica,sans-Serif" font-size="10.00">o2::gpu::FlatObject</text>
<polyline fill="none" stroke="black" points="0,-769 100,-769 "/>
<text text-anchor="middle" x="50" y="-757" font-family="Helvetica,sans-Serif" font-size="10.00"> </text>
<polyline fill="none" stroke="black" points="0,-750 100,-750 "/>
<text text-anchor="middle" x="50" y="-738" font-family="Helvetica,sans-Serif" font-size="10.00"> </text>
</a>
</g>
</g>
<!-- Node2&#45;&gt;Node1 -->
<g id="edge1" class="edge"><title>Node2&#45;&gt;Node1</title>
<path fill="none" stroke="midnightblue" d="M64.8693,-721.536C85.3619,-670.592 123.655,-575.398 157.992,-490.038"/>
<polygon fill="none" stroke="midnightblue" points="61.6196,-720.236 61.1347,-730.82 68.1139,-722.848 61.6196,-720.236"/>
</g>
<!-- Node3 -->
<g id="node3" class="node"><title>Node3</title>
<polygon fill="none" stroke="#bfbfbf" points="118.5,-731 118.5,-788 159.5,-788 159.5,-731 118.5,-731"/>
<text text-anchor="middle" x="139" y="-776" font-family="Helvetica,sans-Serif" font-size="10.00">return</text>
<polyline fill="none" stroke="#bfbfbf" points="118.5,-769 159.5,-769 "/>
<text text-anchor="middle" x="139" y="-757" font-family="Helvetica,sans-Serif" font-size="10.00"> </text>
<polyline fill="none" stroke="#bfbfbf" points="118.5,-750 159.5,-750 "/>
<text text-anchor="middle" x="139" y="-738" font-family="Helvetica,sans-Serif" font-size="10.00"> </text>
</g>
<!-- Node3&#45;&gt;Node1 -->
<g id="edge2" class="edge"><title>Node3&#45;&gt;Node1</title>
<path fill="none" stroke="#404040" d="M144.567,-730.82C148.808,-709.735 155.155,-678.176 162.491,-641.703"/>
<polygon fill="none" stroke="#404040" points="162.54,-641.46 159.802,-634.789 164.906,-629.696 167.645,-636.366 162.54,-641.46"/>
<text text-anchor="middle" x="170.5" y="-667.5" font-family="Helvetica,sans-Serif" font-size="10.00"> #dir</text>
</g>
<!-- Node4 -->
<g id="node4" class="node"><title>Node4</title>
<g id="a_node4"><a xlink:href="../../d4/dc3/classfloat.html" target="_top" xlink:title="{float\n||}">
<polygon fill="none" stroke="black" points="197.5,-867.5 197.5,-924.5 232.5,-924.5 232.5,-867.5 197.5,-867.5"/>
<text text-anchor="middle" x="215" y="-912.5" font-family="Helvetica,sans-Serif" font-size="10.00">float</text>
<polyline fill="none" stroke="black" points="197.5,-905.5 232.5,-905.5 "/>
<text text-anchor="middle" x="215" y="-893.5" font-family="Helvetica,sans-Serif" font-size="10.00"> </text>
<polyline fill="none" stroke="black" points="197.5,-886.5 232.5,-886.5 "/>
<text text-anchor="middle" x="215" y="-874.5" font-family="Helvetica,sans-Serif" font-size="10.00"> </text>
</a>
</g>
</g>
<!-- Node4&#45;&gt;Node1 -->
<g id="edge3" class="edge"><title>Node4&#45;&gt;Node1</title>
<path fill="none" stroke="#404040" d="M210.939,-867.185C208.691,-850.38 206.13,-828.508 205,-809 201.871,-755.008 201.684,-697.671 203.177,-641.92"/>
<polygon fill="none" stroke="#404040" points="203.184,-641.67 199.36,-635.557 203.532,-629.675 207.357,-635.789 203.184,-641.67"/>
<text text-anchor="middle" x="232" y="-801" font-family="Helvetica,sans-Serif" font-size="10.00"> #mSliceSin</text>
<text text-anchor="middle" x="232" y="-790" font-family="Helvetica,sans-Serif" font-size="10.00">#mDPhi</text>
<text text-anchor="middle" x="232" y="-779" font-family="Helvetica,sans-Serif" font-size="10.00">#mDZInv</text>
<text text-anchor="middle" x="232" y="-768" font-family="Helvetica,sans-Serif" font-size="10.00">#mZHalf</text>
<text text-anchor="middle" x="232" y="-757" font-family="Helvetica,sans-Serif" font-size="10.00">#mDPhiInv</text>
<text text-anchor="middle" x="232" y="-746" font-family="Helvetica,sans-Serif" font-size="10.00">#mRMin2</text>
<text text-anchor="middle" x="232" y="-735" font-family="Helvetica,sans-Serif" font-size="10.00">#mDZ</text>
<text text-anchor="middle" x="232" y="-724" font-family="Helvetica,sans-Serif" font-size="10.00">#mRMax2</text>
<text text-anchor="middle" x="232" y="-713" font-family="Helvetica,sans-Serif" font-size="10.00">#mSliceCos</text>
</g>
<!-- Node7 -->
<g id="node7" class="node"><title>Node7</title>
<g id="a_node7"><a xlink:href="../../dd/dcd/structo2_1_1base_1_1MatCell.html" target="_top" xlink:title="{o2::base::MatCell\n||+ GPUd()\l+ GPUdDefault()\l+ GPUd()\l+ ClassDefNV()\l}">
<polygon fill="none" stroke="black" points="268,-714.5 268,-804.5 362,-804.5 362,-714.5 268,-714.5"/>
<text text-anchor="middle" x="315" y="-792.5" font-family="Helvetica,sans-Serif" font-size="10.00">o2::base::MatCell</text>
<polyline fill="none" stroke="black" points="268,-785.5 362,-785.5 "/>
<text text-anchor="middle" x="315" y="-773.5" font-family="Helvetica,sans-Serif" font-size="10.00"> </text>
<polyline fill="none" stroke="black" points="268,-766.5 362,-766.5 "/>
<text text-anchor="start" x="276" y="-754.5" font-family="Helvetica,sans-Serif" font-size="10.00">+ GPUd()</text>
<text text-anchor="start" x="276" y="-743.5" font-family="Helvetica,sans-Serif" font-size="10.00">+ GPUdDefault()</text>
<text text-anchor="start" x="276" y="-732.5" font-family="Helvetica,sans-Serif" font-size="10.00">+ GPUd()</text>
<text text-anchor="start" x="276" y="-721.5" font-family="Helvetica,sans-Serif" font-size="10.00">+ ClassDefNV()</text>
</a>
</g>
</g>
<!-- Node4&#45;&gt;Node7 -->
<g id="edge7" class="edge"><title>Node4&#45;&gt;Node7</title>
<path fill="none" stroke="#404040" d="M230.064,-867.461C237.379,-854.79 246.607,-839.771 256,-827 259.172,-822.687 262.568,-818.322 266.068,-813.998"/>
<polygon fill="none" stroke="#404040" points="266.181,-813.862 266.941,-806.691 273.852,-804.635 273.093,-811.806 266.181,-813.862"/>
<text text-anchor="middle" x="283.5" y="-841" font-family="Helvetica,sans-Serif" font-size="10.00"> +meanRho</text>
<text text-anchor="middle" x="283.5" y="-830" font-family="Helvetica,sans-Serif" font-size="10.00">+meanX2X0</text>
</g>
<!-- Node5 -->
<g id="node5" class="node"><title>Node5</title>
<g id="a_node5"><a xlink:href="../../dc/d10/classshort.html" target="_top" xlink:title="{short\n||}">
<polygon fill="none" stroke="black" points="380,-731 380,-788 418,-788 418,-731 380,-731"/>
<text text-anchor="middle" x="399" y="-776" font-family="Helvetica,sans-Serif" font-size="10.00">short</text>
<polyline fill="none" stroke="black" points="380,-769 418,-769 "/>
<text text-anchor="middle" x="399" y="-757" font-family="Helvetica,sans-Serif" font-size="10.00"> </text>
<polyline fill="none" stroke="black" points="380,-750 418,-750 "/>
<text text-anchor="middle" x="399" y="-738" font-family="Helvetica,sans-Serif" font-size="10.00"> </text>
</a>
</g>
</g>
<!-- Node5&#45;&gt;Node1 -->
<g id="edge4" class="edge"><title>Node5&#45;&gt;Node1</title>
<path fill="none" stroke="#404040" d="M388.303,-730.82C371.037,-686.139 335.596,-594.429 302.42,-508.577"/>
<polygon fill="none" stroke="#404040" points="302.397,-508.519 296.503,-504.364 298.072,-497.326 303.966,-501.481 302.397,-508.519"/>
<text text-anchor="middle" x="407.5" y="-684" font-family="Helvetica,sans-Serif" font-size="10.00"> #mPhiBin2Slice</text>
<text text-anchor="middle" x="407.5" y="-673" font-family="Helvetica,sans-Serif" font-size="10.00">#mNZBins</text>
<text text-anchor="middle" x="407.5" y="-662" font-family="Helvetica,sans-Serif" font-size="10.00">#mNPhiSlices</text>
<text text-anchor="middle" x="407.5" y="-651" font-family="Helvetica,sans-Serif" font-size="10.00">#mNPhiBins</text>
</g>
<!-- Node6 -->
<g id="node6" class="node"><title>Node6</title>
<polygon fill="none" stroke="#bfbfbf" points="458.5,-731 458.5,-788 487.5,-788 487.5,-731 458.5,-731"/>
<text text-anchor="middle" x="473" y="-776" font-family="Helvetica,sans-Serif" font-size="10.00">int</text>
<polyline fill="none" stroke="#bfbfbf" points="458.5,-769 487.5,-769 "/>
<text text-anchor="middle" x="473" y="-757" font-family="Helvetica,sans-Serif" font-size="10.00"> </text>
<polyline fill="none" stroke="#bfbfbf" points="458.5,-750 487.5,-750 "/>
<text text-anchor="middle" x="473" y="-738" font-family="Helvetica,sans-Serif" font-size="10.00"> </text>
</g>
<!-- Node6&#45;&gt;Node1 -->
<g id="edge5" class="edge"><title>Node6&#45;&gt;Node1</title>
<path fill="none" stroke="#404040" d="M469.584,-730.848C466.096,-707.961 459.517,-674.949 448,-648 411.558,-562.726 352.919,-475.68 305.341,-412.123"/>
<polygon fill="none" stroke="#404040" points="305.329,-412.106 298.523,-409.723 298.106,-402.524 304.912,-404.907 305.329,-412.106"/>
<text text-anchor="middle" x="479.5" y="-678.5" font-family="Helvetica,sans-Serif" font-size="10.00"> +const</text>
<text text-anchor="middle" x="479.5" y="-667.5" font-family="Helvetica,sans-Serif" font-size="10.00">+binMin</text>
<text text-anchor="middle" x="479.5" y="-656.5" font-family="Helvetica,sans-Serif" font-size="10.00">#const</text>
</g>
<!-- Node7&#45;&gt;Node1 -->
<g id="edge6" class="edge"><title>Node7&#45;&gt;Node1</title>
<path fill="none" stroke="#404040" d="M306.34,-714.454C302.485,-694.848 297.577,-669.884 292.103,-642.041"/>
<polygon fill="none" stroke="#404040" points="292.039,-641.714 286.956,-636.598 289.724,-629.94 294.806,-635.055 292.039,-641.714"/>
<text text-anchor="middle" x="321" y="-667.5" font-family="Helvetica,sans-Serif" font-size="10.00"> #mCells</text>
</g>
<!-- Node8 -->
<g id="node8" class="node"><title>Node8</title>
<polygon fill="none" stroke="#bfbfbf" points="294.5,-867.5 294.5,-924.5 335.5,-924.5 335.5,-867.5 294.5,-867.5"/>
<text text-anchor="middle" x="315" y="-912.5" font-family="Helvetica,sans-Serif" font-size="10.00">static</text>
<polyline fill="none" stroke="#bfbfbf" points="294.5,-905.5 335.5,-905.5 "/>
<text text-anchor="middle" x="315" y="-893.5" font-family="Helvetica,sans-Serif" font-size="10.00"> </text>
<polyline fill="none" stroke="#bfbfbf" points="294.5,-886.5 335.5,-886.5 "/>
<text text-anchor="middle" x="315" y="-874.5" font-family="Helvetica,sans-Serif" font-size="10.00"> </text>
</g>
<!-- Node8&#45;&gt;Node7 -->
<g id="edge8" class="edge"><title>Node8&#45;&gt;Node7</title>
<path fill="none" stroke="#404040" d="M315,-867.457C315,-852.853 315,-834.357 315,-816.869"/>
<polygon fill="none" stroke="#404040" points="315,-816.685 311,-810.685 315,-804.685 319,-810.685 315,-816.685"/>
<text text-anchor="middle" x="340.5" y="-835.5" font-family="Helvetica,sans-Serif" font-size="10.00"> +NParams</text>
</g>
</g>
</svg>
