<?xml version="1.0" encoding="UTF-8" standalone="no"?>
<!DOCTYPE svg PUBLIC "-//W3C//DTD SVG 1.1//EN"
 "http://www.w3.org/Graphics/SVG/1.1/DTD/svg11.dtd">
<!-- Generated by graphviz version 2.38.0 (20140413.2041)
 -->
<!-- Title: /home/travis/build/AliceO2Group/AliceO2/Detectors/MUON/MID/Raw/include/MIDRaw/LocalBoardRO.h Pages: 1 -->
<svg width="996pt" height="328pt"
 viewBox="0.00 0.00 996.00 328.00" xmlns="http://www.w3.org/2000/svg" xmlns:xlink="http://www.w3.org/1999/xlink">
<g id="graph0" class="graph" transform="scale(1 1) rotate(0) translate(4 324)">
<title>/home/travis/build/AliceO2Group/AliceO2/Detectors/MUON/MID/Raw/include/MIDRaw/LocalBoardRO.h</title>
<!-- Node1 -->
<g id="node1" class="node"><title>Node1</title>
<polygon fill="#bfbfbf" stroke="black" points="511,-267.5 511,-319.5 678,-319.5 678,-267.5 511,-267.5"/>
<text text-anchor="start" x="519" y="-307.5" font-family="Helvetica,sans-Serif" font-size="10.00">/home/travis/build</text>
<text text-anchor="start" x="519" y="-296.5" font-family="Helvetica,sans-Serif" font-size="10.00">/AliceO2Group/AliceO2</text>
<text text-anchor="start" x="519" y="-285.5" font-family="Helvetica,sans-Serif" font-size="10.00">/Detectors/MUON/MID/Raw</text>
<text text-anchor="middle" x="594.5" y="-274.5" font-family="Helvetica,sans-Serif" font-size="10.00">/include/MIDRaw/LocalBoardRO.h</text>
</g>
<!-- Node2 -->
<g id="node2" class="node"><title>Node2</title>
<g id="a_node2"><a xlink:href="../../da/d46/CRUUserLogicDecoder_8h.html" target="_top" xlink:title="MID CRU user logic decoder. ">
<polygon fill="none" stroke="black" points="359,-178.5 359,-230.5 566,-230.5 566,-178.5 359,-178.5"/>
<text text-anchor="start" x="367" y="-218.5" font-family="Helvetica,sans-Serif" font-size="10.00">/home/travis/build</text>
<text text-anchor="start" x="367" y="-207.5" font-family="Helvetica,sans-Serif" font-size="10.00">/AliceO2Group/AliceO2</text>
<text text-anchor="start" x="367" y="-196.5" font-family="Helvetica,sans-Serif" font-size="10.00">/Detectors/MUON/MID/Raw</text>
<text text-anchor="middle" x="462.5" y="-185.5" font-family="Helvetica,sans-Serif" font-size="10.00">/include/MIDRaw/CRUUserLogicDecoder.h</text>
</a>
</g>
</g>
<!-- Node1&#45;&gt;Node2 -->
<g id="edge1" class="edge"><title>Node1&#45;&gt;Node2</title>
<path fill="none" stroke="midnightblue" d="M547.901,-261.787C532.414,-251.579 515.362,-240.341 500.594,-230.607"/>
<polygon fill="midnightblue" stroke="midnightblue" points="546.044,-264.755 556.32,-267.336 549.897,-258.91 546.044,-264.755"/>
</g>
<!-- Node3 -->
<g id="node3" class="node"><title>Node3</title>
<g id="a_node3"><a xlink:href="../../de/dc5/MUON_2MID_2Raw_2include_2MIDRaw_2Decoder_8h.html" target="_top" xlink:title="Mid raw data decoder. ">
<polygon fill="none" stroke="black" points="224,-89.5 224,-141.5 365,-141.5 365,-89.5 224,-89.5"/>
<text text-anchor="start" x="232" y="-129.5" font-family="Helvetica,sans-Serif" font-size="10.00">/home/travis/build</text>
<text text-anchor="start" x="232" y="-118.5" font-family="Helvetica,sans-Serif" font-size="10.00">/AliceO2Group/AliceO2</text>
<text text-anchor="start" x="232" y="-107.5" font-family="Helvetica,sans-Serif" font-size="10.00">/Detectors/MUON/MID/Raw</text>
<text text-anchor="middle" x="294.5" y="-96.5" font-family="Helvetica,sans-Serif" font-size="10.00">/include/MIDRaw/Decoder.h</text>
</a>
</g>
</g>
<!-- Node1&#45;&gt;Node3 -->
<g id="edge16" class="edge"><title>Node1&#45;&gt;Node3</title>
<path fill="none" stroke="midnightblue" d="M500.654,-287.841C451.057,-281.05 391.856,-265.565 349.5,-231 321.65,-208.273 306.968,-168.068 299.976,-141.856"/>
<polygon fill="midnightblue" stroke="midnightblue" points="500.398,-291.337 510.759,-289.124 501.28,-284.392 500.398,-291.337"/>
</g>
<!-- Node9 -->
<g id="node9" class="node"><title>Node9</title>
<g id="a_node9"><a xlink:href="../../dd/dee/CRUUserLogicEncoder_8h.html" target="_top" xlink:title="Raw data encoder for MID CRU user logic. ">
<polygon fill="none" stroke="black" points="622.5,-178.5 622.5,-230.5 828.5,-230.5 828.5,-178.5 622.5,-178.5"/>
<text text-anchor="start" x="630.5" y="-218.5" font-family="Helvetica,sans-Serif" font-size="10.00">/home/travis/build</text>
<text text-anchor="start" x="630.5" y="-207.5" font-family="Helvetica,sans-Serif" font-size="10.00">/AliceO2Group/AliceO2</text>
<text text-anchor="start" x="630.5" y="-196.5" font-family="Helvetica,sans-Serif" font-size="10.00">/Detectors/MUON/MID/Raw</text>
<text text-anchor="middle" x="725.5" y="-185.5" font-family="Helvetica,sans-Serif" font-size="10.00">/include/MIDRaw/CRUUserLogicEncoder.h</text>
</a>
</g>
</g>
<!-- Node1&#45;&gt;Node9 -->
<g id="edge9" class="edge"><title>Node1&#45;&gt;Node9</title>
<path fill="none" stroke="midnightblue" d="M640.746,-261.787C656.116,-251.579 673.039,-240.341 687.695,-230.607"/>
<polygon fill="midnightblue" stroke="midnightblue" points="638.785,-258.888 632.391,-267.336 642.657,-264.719 638.785,-258.888"/>
</g>
<!-- Node10 -->
<g id="node10" class="node"><title>Node10</title>
<g id="a_node10"><a xlink:href="../../db/de0/MUON_2MID_2Raw_2include_2MIDRaw_2Encoder_8h.html" target="_top" xlink:title="MID raw data encoder. ">
<polygon fill="none" stroke="black" points="598,-89.5 598,-141.5 739,-141.5 739,-89.5 598,-89.5"/>
<text text-anchor="start" x="606" y="-129.5" font-family="Helvetica,sans-Serif" font-size="10.00">/home/travis/build</text>
<text text-anchor="start" x="606" y="-118.5" font-family="Helvetica,sans-Serif" font-size="10.00">/AliceO2Group/AliceO2</text>
<text text-anchor="start" x="606" y="-107.5" font-family="Helvetica,sans-Serif" font-size="10.00">/Detectors/MUON/MID/Raw</text>
<text text-anchor="middle" x="668.5" y="-96.5" font-family="Helvetica,sans-Serif" font-size="10.00">/include/MIDRaw/Encoder.h</text>
</a>
</g>
</g>
<!-- Node1&#45;&gt;Node10 -->
<g id="edge17" class="edge"><title>Node1&#45;&gt;Node10</title>
<path fill="none" stroke="midnightblue" d="M595.295,-256.976C597.021,-233.549 601.64,-202.738 613.5,-178 619.94,-164.567 630.225,-151.898 640.167,-141.59"/>
<polygon fill="midnightblue" stroke="midnightblue" points="591.789,-256.982 594.691,-267.172 598.777,-257.397 591.789,-256.982"/>
</g>
<!-- Node14 -->
<g id="node14" class="node"><title>Node14</title>
<g id="a_node14"><a xlink:href="../../d7/dee/LocalBoardRO_8cxx.html" target="_top" xlink:title="Structure to store the FEE local board information. ">
<polygon fill="none" stroke="black" points="847,-178.5 847,-230.5 988,-230.5 988,-178.5 847,-178.5"/>
<text text-anchor="start" x="855" y="-218.5" font-family="Helvetica,sans-Serif" font-size="10.00">/home/travis/build</text>
<text text-anchor="start" x="855" y="-207.5" font-family="Helvetica,sans-Serif" font-size="10.00">/AliceO2Group/AliceO2</text>
<text text-anchor="start" x="855" y="-196.5" font-family="Helvetica,sans-Serif" font-size="10.00">/Detectors/MUON/MID/Raw</text>
<text text-anchor="middle" x="917.5" y="-185.5" font-family="Helvetica,sans-Serif" font-size="10.00">/src/LocalBoardRO.cxx</text>
</a>
</g>
</g>
<!-- Node1&#45;&gt;Node14 -->
<g id="edge18" class="edge"><title>Node1&#45;&gt;Node14</title>
<path fill="none" stroke="midnightblue" d="M687.875,-270.274C733.214,-259.125 788.381,-245.03 837.5,-231 840.584,-230.119 843.728,-229.201 846.9,-228.26"/>
<polygon fill="midnightblue" stroke="midnightblue" points="686.939,-266.9 678.059,-272.68 688.605,-273.699 686.939,-266.9"/>
</g>
<!-- Node2&#45;&gt;Node3 -->
<g id="edge2" class="edge"><title>Node2&#45;&gt;Node3</title>
<path fill="none" stroke="midnightblue" d="M404.83,-173.635C384.689,-163.205 362.3,-151.611 342.983,-141.607"/>
<polygon fill="midnightblue" stroke="midnightblue" points="403.418,-176.845 413.907,-178.336 406.637,-170.629 403.418,-176.845"/>
</g>
<!-- Node6 -->
<g id="node6" class="node"><title>Node6</title>
<g id="a_node6"><a xlink:href="../../d8/d4c/testRaw_8cxx.html" target="_top" xlink:title="/home/travis/build\l/AliceO2Group/AliceO2\l/Detectors/MUON/MID/Raw\l/test/testRaw.cxx">
<polygon fill="none" stroke="black" points="499,-0.5 499,-52.5 640,-52.5 640,-0.5 499,-0.5"/>
<text text-anchor="start" x="507" y="-40.5" font-family="Helvetica,sans-Serif" font-size="10.00">/home/travis/build</text>
<text text-anchor="start" x="507" y="-29.5" font-family="Helvetica,sans-Serif" font-size="10.00">/AliceO2Group/AliceO2</text>
<text text-anchor="start" x="507" y="-18.5" font-family="Helvetica,sans-Serif" font-size="10.00">/Detectors/MUON/MID/Raw</text>
<text text-anchor="middle" x="569.5" y="-7.5" font-family="Helvetica,sans-Serif" font-size="10.00">/test/testRaw.cxx</text>
</a>
</g>
</g>
<!-- Node2&#45;&gt;Node6 -->
<g id="edge8" class="edge"><title>Node2&#45;&gt;Node6</title>
<path fill="none" stroke="midnightblue" d="M521.158,-172.42C532.449,-163.954 543.06,-153.798 550.5,-142 567.59,-114.9 570.781,-77.2939 570.745,-52.6865"/>
<polygon fill="midnightblue" stroke="midnightblue" points="519.002,-169.658 512.851,-178.285 523.039,-175.376 519.002,-169.658"/>
</g>
<!-- Node8 -->
<g id="node8" class="node"><title>Node8</title>
<g id="a_node8"><a xlink:href="../../d8/df0/CRUUserLogicDecoder_8cxx.html" target="_top" xlink:title="MID CRU user logic decoder. ">
<polygon fill="none" stroke="black" points="383.5,-89.5 383.5,-141.5 541.5,-141.5 541.5,-89.5 383.5,-89.5"/>
<text text-anchor="start" x="391.5" y="-129.5" font-family="Helvetica,sans-Serif" font-size="10.00">/home/travis/build</text>
<text text-anchor="start" x="391.5" y="-118.5" font-family="Helvetica,sans-Serif" font-size="10.00">/AliceO2Group/AliceO2</text>
<text text-anchor="start" x="391.5" y="-107.5" font-family="Helvetica,sans-Serif" font-size="10.00">/Detectors/MUON/MID/Raw</text>
<text text-anchor="middle" x="462.5" y="-96.5" font-family="Helvetica,sans-Serif" font-size="10.00">/src/CRUUserLogicDecoder.cxx</text>
</a>
</g>
</g>
<!-- Node2&#45;&gt;Node8 -->
<g id="edge7" class="edge"><title>Node2&#45;&gt;Node8</title>
<path fill="none" stroke="midnightblue" d="M462.5,-168.191C462.5,-159.282 462.5,-149.899 462.5,-141.607"/>
<polygon fill="midnightblue" stroke="midnightblue" points="459,-168.336 462.5,-178.336 466,-168.336 459,-168.336"/>
</g>
<!-- Node4 -->
<g id="node4" class="node"><title>Node4</title>
<g id="a_node4"><a xlink:href="../../dc/d28/MUON_2MID_2Raw_2src_2Decoder_8cxx.html" target="_top" xlink:title="MID raw data decoder. ">
<polygon fill="none" stroke="black" points="0,-0.5 0,-52.5 141,-52.5 141,-0.5 0,-0.5"/>
<text text-anchor="start" x="8" y="-40.5" font-family="Helvetica,sans-Serif" font-size="10.00">/home/travis/build</text>
<text text-anchor="start" x="8" y="-29.5" font-family="Helvetica,sans-Serif" font-size="10.00">/AliceO2Group/AliceO2</text>
<text text-anchor="start" x="8" y="-18.5" font-family="Helvetica,sans-Serif" font-size="10.00">/Detectors/MUON/MID/Raw</text>
<text text-anchor="middle" x="70.5" y="-7.5" font-family="Helvetica,sans-Serif" font-size="10.00">/src/Decoder.cxx</text>
</a>
</g>
</g>
<!-- Node3&#45;&gt;Node4 -->
<g id="edge3" class="edge"><title>Node3&#45;&gt;Node4</title>
<path fill="none" stroke="midnightblue" d="M220.392,-85.7171C192.752,-74.9819 161.622,-62.891 134.922,-52.5211"/>
<polygon fill="midnightblue" stroke="midnightblue" points="219.422,-89.0948 230.01,-89.4527 221.956,-82.5696 219.422,-89.0948"/>
</g>
<!-- Node5 -->
<g id="node5" class="node"><title>Node5</title>
<g id="a_node5"><a xlink:href="../../d5/d52/bench__Raw_8cxx.html" target="_top" xlink:title="/home/travis/build\l/AliceO2Group/AliceO2\l/Detectors/MUON/MID/Raw\l/test/bench_Raw.cxx">
<polygon fill="none" stroke="black" points="340,-0.5 340,-52.5 481,-52.5 481,-0.5 340,-0.5"/>
<text text-anchor="start" x="348" y="-40.5" font-family="Helvetica,sans-Serif" font-size="10.00">/home/travis/build</text>
<text text-anchor="start" x="348" y="-29.5" font-family="Helvetica,sans-Serif" font-size="10.00">/AliceO2Group/AliceO2</text>
<text text-anchor="start" x="348" y="-18.5" font-family="Helvetica,sans-Serif" font-size="10.00">/Detectors/MUON/MID/Raw</text>
<text text-anchor="middle" x="410.5" y="-7.5" font-family="Helvetica,sans-Serif" font-size="10.00">/test/bench_Raw.cxx</text>
</a>
</g>
</g>
<!-- Node3&#45;&gt;Node5 -->
<g id="edge4" class="edge"><title>Node3&#45;&gt;Node5</title>
<path fill="none" stroke="midnightblue" d="M336.208,-83.219C349.615,-73.1637 364.286,-62.1603 377.023,-52.6075"/>
<polygon fill="midnightblue" stroke="midnightblue" points="333.952,-80.5359 328.052,-89.336 338.152,-86.136 333.952,-80.5359"/>
</g>
<!-- Node3&#45;&gt;Node6 -->
<g id="edge5" class="edge"><title>Node3&#45;&gt;Node6</title>
<path fill="none" stroke="midnightblue" d="M374.986,-88.8535C427.149,-72.4046 441.323,-68.2188 489.5,-53 492.558,-52.034 495.681,-51.0457 498.836,-50.046"/>
<polygon fill="midnightblue" stroke="midnightblue" points="373.647,-85.606 365.164,-91.954 375.754,-92.2814 373.647,-85.606"/>
</g>
<!-- Node7 -->
<g id="node7" class="node"><title>Node7</title>
<g id="a_node7"><a xlink:href="../../d7/dc9/RawReaderSpec_8cxx.html" target="_top" xlink:title="Data processor spec for MID raw reader device. ">
<polygon fill="none" stroke="black" points="159.5,-0.5 159.5,-52.5 321.5,-52.5 321.5,-0.5 159.5,-0.5"/>
<text text-anchor="start" x="167.5" y="-40.5" font-family="Helvetica,sans-Serif" font-size="10.00">/home/travis/build</text>
<text text-anchor="start" x="167.5" y="-29.5" font-family="Helvetica,sans-Serif" font-size="10.00">/AliceO2Group/AliceO2</text>
<text text-anchor="start" x="167.5" y="-18.5" font-family="Helvetica,sans-Serif" font-size="10.00">/Detectors/MUON/MID/Workflow</text>
<text text-anchor="middle" x="240.5" y="-7.5" font-family="Helvetica,sans-Serif" font-size="10.00">/src/RawReaderSpec.cxx</text>
</a>
</g>
</g>
<!-- Node3&#45;&gt;Node7 -->
<g id="edge6" class="edge"><title>Node3&#45;&gt;Node7</title>
<path fill="none" stroke="midnightblue" d="M273.483,-80.6387C267.69,-71.3056 261.51,-61.3492 256.084,-52.6075"/>
<polygon fill="midnightblue" stroke="midnightblue" points="270.634,-82.6854 278.881,-89.336 276.581,-78.9938 270.634,-82.6854"/>
</g>
<!-- Node9&#45;&gt;Node10 -->
<g id="edge10" class="edge"><title>Node9&#45;&gt;Node10</title>
<path fill="none" stroke="midnightblue" d="M703.504,-169.927C697.335,-160.511 690.736,-150.439 684.95,-141.607"/>
<polygon fill="midnightblue" stroke="midnightblue" points="700.605,-171.889 709.013,-178.336 706.461,-168.053 700.605,-171.889"/>
</g>
<!-- Node13 -->
<g id="node13" class="node"><title>Node13</title>
<g id="a_node13"><a xlink:href="../../de/da7/CRUUserLogicEncoder_8cxx.html" target="_top" xlink:title="Raw data encoder for MID CRU user logic. ">
<polygon fill="none" stroke="black" points="757.5,-89.5 757.5,-141.5 915.5,-141.5 915.5,-89.5 757.5,-89.5"/>
<text text-anchor="start" x="765.5" y="-129.5" font-family="Helvetica,sans-Serif" font-size="10.00">/home/travis/build</text>
<text text-anchor="start" x="765.5" y="-118.5" font-family="Helvetica,sans-Serif" font-size="10.00">/AliceO2Group/AliceO2</text>
<text text-anchor="start" x="765.5" y="-107.5" font-family="Helvetica,sans-Serif" font-size="10.00">/Detectors/MUON/MID/Raw</text>
<text text-anchor="middle" x="836.5" y="-96.5" font-family="Helvetica,sans-Serif" font-size="10.00">/src/CRUUserLogicEncoder.cxx</text>
</a>
</g>
</g>
<!-- Node9&#45;&gt;Node13 -->
<g id="edge15" class="edge"><title>Node9&#45;&gt;Node13</title>
<path fill="none" stroke="midnightblue" d="M765.774,-171.934C778.504,-161.956 792.393,-151.07 804.466,-141.607"/>
<polygon fill="midnightblue" stroke="midnightblue" points="763.317,-169.412 757.606,-178.336 767.635,-174.922 763.317,-169.412"/>
</g>
<!-- Node10&#45;&gt;Node5 -->
<g id="edge12" class="edge"><title>Node10&#45;&gt;Node5</title>
<path fill="none" stroke="midnightblue" d="M588.152,-87.4058C553.904,-75.8573 514.297,-62.5013 481.183,-51.3349"/>
<polygon fill="midnightblue" stroke="midnightblue" points="587.065,-90.7329 597.659,-90.6118 589.302,-84.0999 587.065,-90.7329"/>
</g>
<!-- Node10&#45;&gt;Node6 -->
<g id="edge13" class="edge"><title>Node10&#45;&gt;Node6</title>
<path fill="none" stroke="midnightblue" d="M632.256,-82.6489C620.99,-72.749 608.736,-61.9801 598.071,-52.6075"/>
<polygon fill="midnightblue" stroke="midnightblue" points="630.043,-85.3639 639.865,-89.336 634.664,-80.1057 630.043,-85.3639"/>
</g>
<!-- Node11 -->
<g id="node11" class="node"><title>Node11</title>
<g id="a_node11"><a xlink:href="../../d8/dc6/MUON_2MID_2Raw_2src_2Encoder_8cxx.html" target="_top" xlink:title="MID raw data encoder. ">
<polygon fill="none" stroke="black" points="658,-0.5 658,-52.5 799,-52.5 799,-0.5 658,-0.5"/>
<text text-anchor="start" x="666" y="-40.5" font-family="Helvetica,sans-Serif" font-size="10.00">/home/travis/build</text>
<text text-anchor="start" x="666" y="-29.5" font-family="Helvetica,sans-Serif" font-size="10.00">/AliceO2Group/AliceO2</text>
<text text-anchor="start" x="666" y="-18.5" font-family="Helvetica,sans-Serif" font-size="10.00">/Detectors/MUON/MID/Raw</text>
<text text-anchor="middle" x="728.5" y="-7.5" font-family="Helvetica,sans-Serif" font-size="10.00">/src/Encoder.cxx</text>
</a>
</g>
</g>
<!-- Node10&#45;&gt;Node11 -->
<g id="edge11" class="edge"><title>Node10&#45;&gt;Node11</title>
<path fill="none" stroke="midnightblue" d="M691.654,-80.9272C698.148,-71.511 705.094,-61.4393 711.185,-52.6075"/>
<polygon fill="midnightblue" stroke="midnightblue" points="688.651,-79.1168 685.854,-89.336 694.413,-83.0909 688.651,-79.1168"/>
</g>
<!-- Node12 -->
<g id="node12" class="node"><title>Node12</title>
<g id="a_node12"><a xlink:href="../../db/dd6/RawWriterSpec_8cxx.html" target="_top" xlink:title="Digits to raw converter spec for MID. ">
<polygon fill="none" stroke="black" points="817.5,-0.5 817.5,-52.5 979.5,-52.5 979.5,-0.5 817.5,-0.5"/>
<text text-anchor="start" x="825.5" y="-40.5" font-family="Helvetica,sans-Serif" font-size="10.00">/home/travis/build</text>
<text text-anchor="start" x="825.5" y="-29.5" font-family="Helvetica,sans-Serif" font-size="10.00">/AliceO2Group/AliceO2</text>
<text text-anchor="start" x="825.5" y="-18.5" font-family="Helvetica,sans-Serif" font-size="10.00">/Detectors/MUON/MID/Workflow</text>
<text text-anchor="middle" x="898.5" y="-7.5" font-family="Helvetica,sans-Serif" font-size="10.00">/src/RawWriterSpec.cxx</text>
</a>
</g>
</g>
<!-- Node10&#45;&gt;Node12 -->
<g id="edge14" class="edge"><title>Node10&#45;&gt;Node12</title>
<path fill="none" stroke="midnightblue" d="M744.221,-85.8577C772.694,-75.0875 804.818,-62.9363 832.352,-52.5211"/>
<polygon fill="midnightblue" stroke="midnightblue" points="742.832,-82.6411 734.717,-89.4527 745.308,-89.1883 742.832,-82.6411"/>
</g>
</g>
</svg>
