<?xml version="1.0" encoding="UTF-8" standalone="no"?>
<!DOCTYPE svg PUBLIC "-//W3C//DTD SVG 1.1//EN"
 "http://www.w3.org/Graphics/SVG/1.1/DTD/svg11.dtd">
<!-- Generated by graphviz version 2.38.0 (20140413.2041)
 -->
<!-- Title: o2::trd::TrapConfig::TrapDmemWord Pages: 1 -->
<svg width="254pt" height="518pt"
 viewBox="0.00 0.00 254.00 518.00" xmlns="http://www.w3.org/2000/svg" xmlns:xlink="http://www.w3.org/1999/xlink">
<g id="graph0" class="graph" transform="scale(1 1) rotate(0) translate(4 514)">
<title>o2::trd::TrapConfig::TrapDmemWord</title>
<!-- Node1 -->
<g id="node1" class="node"><title>Node1</title>
<polygon fill="#bfbfbf" stroke="black" points="96,-0.5 96,-167.5 206,-167.5 206,-0.5 96,-0.5"/>
<text text-anchor="start" x="104" y="-155.5" font-family="Helvetica,sans-Serif" font-size="10.00">o2::trd::TrapConfig</text>
<text text-anchor="middle" x="151" y="-144.5" font-family="Helvetica,sans-Serif" font-size="10.00">::TrapDmemWord</text>
<polyline fill="none" stroke="black" points="96,-137.5 206,-137.5 "/>
<text text-anchor="middle" x="151" y="-125.5" font-family="Helvetica,sans-Serif" font-size="10.00"> </text>
<polyline fill="none" stroke="black" points="96,-118.5 206,-118.5 "/>
<text text-anchor="start" x="104" y="-106.5" font-family="Helvetica,sans-Serif" font-size="10.00">+ TrapDmemWord()</text>
<text text-anchor="start" x="104" y="-95.5" font-family="Helvetica,sans-Serif" font-size="10.00">+ ~TrapDmemWord()</text>
<text text-anchor="start" x="104" y="-84.5" font-family="Helvetica,sans-Serif" font-size="10.00">+ reset()</text>
<text text-anchor="start" x="104" y="-73.5" font-family="Helvetica,sans-Serif" font-size="10.00">+ setValue()</text>
<text text-anchor="start" x="104" y="-62.5" font-family="Helvetica,sans-Serif" font-size="10.00">+ setValue()</text>
<text text-anchor="start" x="104" y="-51.5" font-family="Helvetica,sans-Serif" font-size="10.00">+ getValue()</text>
<text text-anchor="start" x="104" y="-40.5" font-family="Helvetica,sans-Serif" font-size="10.00">+ setAddress()</text>
<text text-anchor="start" x="104" y="-29.5" font-family="Helvetica,sans-Serif" font-size="10.00">+ getName()</text>
<text text-anchor="start" x="104" y="-18.5" font-family="Helvetica,sans-Serif" font-size="10.00"># TrapDmemWord()</text>
<text text-anchor="start" x="104" y="-7.5" font-family="Helvetica,sans-Serif" font-size="10.00"># operator=()</text>
</g>
<!-- Node2 -->
<g id="node2" class="node"><title>Node2</title>
<g id="a_node2"><a xlink:href="../../d0/dbb/classo2_1_1trd_1_1TrapConfig_1_1TrapValue.html" target="_top" xlink:title="{o2::trd::TrapConfig\l::TrapValue\n||+ TrapValue()\l+ ~TrapValue()\l+ allocate()\l+ allocatei()\l+ getName()\l+ setDataFromRun2()\l+ getDataSize()\l# setData()\l# setData()\l# setData()\l# getData()\l# getIdx()\l}">
<polygon fill="none" stroke="black" points="0,-215.5 0,-404.5 112,-404.5 112,-215.5 0,-215.5"/>
<text text-anchor="start" x="8" y="-392.5" font-family="Helvetica,sans-Serif" font-size="10.00">o2::trd::TrapConfig</text>
<text text-anchor="middle" x="56" y="-381.5" font-family="Helvetica,sans-Serif" font-size="10.00">::TrapValue</text>
<polyline fill="none" stroke="black" points="0,-374.5 112,-374.5 "/>
<text text-anchor="middle" x="56" y="-362.5" font-family="Helvetica,sans-Serif" font-size="10.00"> </text>
<polyline fill="none" stroke="black" points="0,-355.5 112,-355.5 "/>
<text text-anchor="start" x="8" y="-343.5" font-family="Helvetica,sans-Serif" font-size="10.00">+ TrapValue()</text>
<text text-anchor="start" x="8" y="-332.5" font-family="Helvetica,sans-Serif" font-size="10.00">+ ~TrapValue()</text>
<text text-anchor="start" x="8" y="-321.5" font-family="Helvetica,sans-Serif" font-size="10.00">+ allocate()</text>
<text text-anchor="start" x="8" y="-310.5" font-family="Helvetica,sans-Serif" font-size="10.00">+ allocatei()</text>
<text text-anchor="start" x="8" y="-299.5" font-family="Helvetica,sans-Serif" font-size="10.00">+ getName()</text>
<text text-anchor="start" x="8" y="-288.5" font-family="Helvetica,sans-Serif" font-size="10.00">+ setDataFromRun2()</text>
<text text-anchor="start" x="8" y="-277.5" font-family="Helvetica,sans-Serif" font-size="10.00">+ getDataSize()</text>
<text text-anchor="start" x="8" y="-266.5" font-family="Helvetica,sans-Serif" font-size="10.00"># setData()</text>
<text text-anchor="start" x="8" y="-255.5" font-family="Helvetica,sans-Serif" font-size="10.00"># setData()</text>
<text text-anchor="start" x="8" y="-244.5" font-family="Helvetica,sans-Serif" font-size="10.00"># setData()</text>
<text text-anchor="start" x="8" y="-233.5" font-family="Helvetica,sans-Serif" font-size="10.00"># getData()</text>
<text text-anchor="start" x="8" y="-222.5" font-family="Helvetica,sans-Serif" font-size="10.00"># getIdx()</text>
</a>
</g>
</g>
<!-- Node2&#45;&gt;Node1 -->
<g id="edge1" class="edge"><title>Node2&#45;&gt;Node1</title>
<path fill="none" stroke="midnightblue" d="M99.6908,-205.982C105.141,-193.13 110.659,-180.12 115.954,-167.634"/>
<polygon fill="none" stroke="midnightblue" points="96.4204,-204.729 95.7381,-215.302 102.865,-207.462 96.4204,-204.729"/>
</g>
<!-- Node3 -->
<g id="node3" class="node"><title>Node3</title>
<polygon fill="none" stroke="#bfbfbf" points="35.5,-452.5 35.5,-509.5 76.5,-509.5 76.5,-452.5 35.5,-452.5"/>
<text text-anchor="middle" x="56" y="-497.5" font-family="Helvetica,sans-Serif" font-size="10.00">static</text>
<polyline fill="none" stroke="#bfbfbf" points="35.5,-490.5 76.5,-490.5 "/>
<text text-anchor="middle" x="56" y="-478.5" font-family="Helvetica,sans-Serif" font-size="10.00"> </text>
<polyline fill="none" stroke="#bfbfbf" points="35.5,-471.5 76.5,-471.5 "/>
<text text-anchor="middle" x="56" y="-459.5" font-family="Helvetica,sans-Serif" font-size="10.00"> </text>
</g>
<!-- Node3&#45;&gt;Node2 -->
<g id="edge2" class="edge"><title>Node3&#45;&gt;Node2</title>
<path fill="none" stroke="#404040" d="M56,-452.471C56,-442.231 56,-429.901 56,-416.844"/>
<polygon fill="none" stroke="#404040" points="56.0001,-416.687 52,-410.687 56,-404.687 60,-410.687 56.0001,-416.687"/>
<text text-anchor="middle" x="80" y="-426" font-family="Helvetica,sans-Serif" font-size="10.00"> +mgkSize</text>
</g>
<!-- Node4 -->
<g id="node4" class="node"><title>Node4</title>
<polygon fill="none" stroke="#bfbfbf" points="130.5,-281.5 130.5,-338.5 171.5,-338.5 171.5,-281.5 130.5,-281.5"/>
<text text-anchor="middle" x="151" y="-326.5" font-family="Helvetica,sans-Serif" font-size="10.00">string</text>
<polyline fill="none" stroke="#bfbfbf" points="130.5,-319.5 171.5,-319.5 "/>
<text text-anchor="middle" x="151" y="-307.5" font-family="Helvetica,sans-Serif" font-size="10.00"> </text>
<polyline fill="none" stroke="#bfbfbf" points="130.5,-300.5 171.5,-300.5 "/>
<text text-anchor="middle" x="151" y="-288.5" font-family="Helvetica,sans-Serif" font-size="10.00"> </text>
</g>
<!-- Node4&#45;&gt;Node1 -->
<g id="edge3" class="edge"><title>Node4&#45;&gt;Node1</title>
<path fill="none" stroke="#404040" d="M151,-281.083C151,-255.689 151,-216.706 151,-180.168"/>
<polygon fill="none" stroke="#404040" points="151,-179.893 147,-173.893 151,-167.893 155,-173.893 151,-179.893"/>
<text text-anchor="middle" x="172.5" y="-189" font-family="Helvetica,sans-Serif" font-size="10.00"> #mName</text>
</g>
<!-- Node5 -->
<g id="node5" class="node"><title>Node5</title>
<polygon fill="none" stroke="#bfbfbf" points="190,-281.5 190,-338.5 246,-338.5 246,-281.5 190,-281.5"/>
<text text-anchor="middle" x="218" y="-326.5" font-family="Helvetica,sans-Serif" font-size="10.00">unsigned</text>
<polyline fill="none" stroke="#bfbfbf" points="190,-319.5 246,-319.5 "/>
<text text-anchor="middle" x="218" y="-307.5" font-family="Helvetica,sans-Serif" font-size="10.00"> </text>
<polyline fill="none" stroke="#bfbfbf" points="190,-300.5 246,-300.5 "/>
<text text-anchor="middle" x="218" y="-288.5" font-family="Helvetica,sans-Serif" font-size="10.00"> </text>
</g>
<!-- Node5&#45;&gt;Node1 -->
<g id="edge4" class="edge"><title>Node5&#45;&gt;Node1</title>
<path fill="none" stroke="#404040" d="M214.978,-281.189C211.779,-255.959 205.811,-217.934 196,-186 195.302,-183.729 194.567,-181.442 193.799,-179.145"/>
<polygon fill="none" stroke="#404040" points="193.721,-178.924 187.947,-174.604 189.715,-167.613 195.488,-171.933 193.721,-178.924"/>
<text text-anchor="middle" x="217.5" y="-189" font-family="Helvetica,sans-Serif" font-size="10.00"> #mAddr</text>
</g>
</g>
</svg>
