<?xml version="1.0" encoding="UTF-8" standalone="no"?>
<!DOCTYPE svg PUBLIC "-//W3C//DTD SVG 1.1//EN"
 "http://www.w3.org/Graphics/SVG/1.1/DTD/svg11.dtd">
<!-- Generated by graphviz version 2.38.0 (20140413.2041)
 -->
<!-- Title: o2::ft0::RawEventData Pages: 1 -->
<svg width="660pt" height="551pt"
 viewBox="0.00 0.00 660.00 551.00" xmlns="http://www.w3.org/2000/svg" xmlns:xlink="http://www.w3.org/1999/xlink">
<g id="graph0" class="graph" transform="scale(1 1) rotate(0) translate(4 547)">
<title>o2::ft0::RawEventData</title>
<!-- Node1 -->
<g id="node1" class="node"><title>Node1</title>
<polygon fill="#bfbfbf" stroke="black" points="391,-0.5 391,-200.5 531,-200.5 531,-0.5 391,-0.5"/>
<text text-anchor="middle" x="461" y="-188.5" font-family="Helvetica,sans-Serif" font-size="10.00">o2::ft0::RawEventData</text>
<polyline fill="none" stroke="black" points="391,-181.5 531,-181.5 "/>
<text text-anchor="middle" x="461" y="-169.5" font-family="Helvetica,sans-Serif" font-size="10.00"> </text>
<polyline fill="none" stroke="black" points="391,-162.5 531,-162.5 "/>
<text text-anchor="start" x="399" y="-150.5" font-family="Helvetica,sans-Serif" font-size="10.00">+ RawEventData()</text>
<text text-anchor="start" x="399" y="-139.5" font-family="Helvetica,sans-Serif" font-size="10.00">+ GenerateHeader()</text>
<text text-anchor="start" x="399" y="-128.5" font-family="Helvetica,sans-Serif" font-size="10.00">+ GenerateData()</text>
<text text-anchor="start" x="399" y="-117.5" font-family="Helvetica,sans-Serif" font-size="10.00">+ GenerateRandomHeader()</text>
<text text-anchor="start" x="399" y="-106.5" font-family="Helvetica,sans-Serif" font-size="10.00">+ GenerateRandomData()</text>
<text text-anchor="start" x="399" y="-95.5" font-family="Helvetica,sans-Serif" font-size="10.00">+ GenerateRandomEvent()</text>
<text text-anchor="start" x="399" y="-84.5" font-family="Helvetica,sans-Serif" font-size="10.00">+ GetEventHeaderPtr()</text>
<text text-anchor="start" x="399" y="-73.5" font-family="Helvetica,sans-Serif" font-size="10.00">+ GetEventDataPtr()</text>
<text text-anchor="start" x="399" y="-62.5" font-family="Helvetica,sans-Serif" font-size="10.00">+ Print()</text>
<text text-anchor="start" x="399" y="-51.5" font-family="Helvetica,sans-Serif" font-size="10.00">+ size()</text>
<text text-anchor="start" x="399" y="-40.5" font-family="Helvetica,sans-Serif" font-size="10.00">+ to_vector()</text>
<text text-anchor="start" x="399" y="-29.5" font-family="Helvetica,sans-Serif" font-size="10.00">+ setIsPadded()</text>
<text text-anchor="start" x="399" y="-18.5" font-family="Helvetica,sans-Serif" font-size="10.00">+ ClassDefNV()</text>
<text text-anchor="start" x="399" y="-7.5" font-family="Helvetica,sans-Serif" font-size="10.00">+ printRDH()</text>
</g>
<!-- Node2 -->
<g id="node2" class="node"><title>Node2</title>
<g id="a_node2"><a xlink:href="../../d9/d8e/structo2_1_1ft0_1_1EventHeader.html" target="_top" xlink:title="{o2::ft0::EventHeader\n||+ ClassDefNV()\l}">
<polygon fill="none" stroke="black" points="96.5,-259.5 96.5,-316.5 203.5,-316.5 203.5,-259.5 96.5,-259.5"/>
<text text-anchor="middle" x="150" y="-304.5" font-family="Helvetica,sans-Serif" font-size="10.00">o2::ft0::EventHeader</text>
<polyline fill="none" stroke="black" points="96.5,-297.5 203.5,-297.5 "/>
<text text-anchor="middle" x="150" y="-285.5" font-family="Helvetica,sans-Serif" font-size="10.00"> </text>
<polyline fill="none" stroke="black" points="96.5,-278.5 203.5,-278.5 "/>
<text text-anchor="start" x="104.5" y="-266.5" font-family="Helvetica,sans-Serif" font-size="10.00">+ ClassDefNV()</text>
</a>
</g>
</g>
<!-- Node2&#45;&gt;Node1 -->
<g id="edge1" class="edge"><title>Node2&#45;&gt;Node1</title>
<path fill="none" stroke="#404040" d="M196.224,-259.429C244.75,-230.485 321.984,-184.418 380.543,-149.49"/>
<polygon fill="none" stroke="#404040" points="380.572,-149.472 383.676,-142.963 390.878,-143.325 387.774,-149.834 380.572,-149.472"/>
<text text-anchor="middle" x="297.5" y="-222" font-family="Helvetica,sans-Serif" font-size="10.00"> +mEventHeader</text>
</g>
<!-- Node3 -->
<g id="node3" class="node"><title>Node3</title>
<polygon fill="none" stroke="#bfbfbf" points="346.5,-485.5 346.5,-542.5 397.5,-542.5 397.5,-485.5 346.5,-485.5"/>
<text text-anchor="middle" x="372" y="-530.5" font-family="Helvetica,sans-Serif" font-size="10.00">uint64_t</text>
<polyline fill="none" stroke="#bfbfbf" points="346.5,-523.5 397.5,-523.5 "/>
<text text-anchor="middle" x="372" y="-511.5" font-family="Helvetica,sans-Serif" font-size="10.00"> </text>
<polyline fill="none" stroke="#bfbfbf" points="346.5,-504.5 397.5,-504.5 "/>
<text text-anchor="middle" x="372" y="-492.5" font-family="Helvetica,sans-Serif" font-size="10.00"> </text>
</g>
<!-- Node3&#45;&gt;Node2 -->
<g id="edge2" class="edge"><title>Node3&#45;&gt;Node2</title>
<path fill="none" stroke="#404040" d="M346.434,-495.265C337.306,-487.62 327.844,-477.92 322,-467 296.314,-419.005 337.439,-388.158 303,-346 281.548,-319.74 246.738,-305.576 215.737,-297.937"/>
<polygon fill="none" stroke="#404040" points="215.343,-297.849 208.614,-300.441 203.633,-295.227 210.362,-292.634 215.343,-297.849"/>
<text text-anchor="middle" x="357.5" y="-442.5" font-family="Helvetica,sans-Serif" font-size="10.00"> +word</text>
<text text-anchor="middle" x="357.5" y="-431.5" font-family="Helvetica,sans-Serif" font-size="10.00">+nGBTWords</text>
<text text-anchor="middle" x="357.5" y="-420.5" font-family="Helvetica,sans-Serif" font-size="10.00">+startDescriptor</text>
<text text-anchor="middle" x="357.5" y="-409.5" font-family="Helvetica,sans-Serif" font-size="10.00">+reservedField1</text>
<text text-anchor="middle" x="357.5" y="-398.5" font-family="Helvetica,sans-Serif" font-size="10.00">+reservedField2</text>
<text text-anchor="middle" x="357.5" y="-387.5" font-family="Helvetica,sans-Serif" font-size="10.00">+bc</text>
<text text-anchor="middle" x="357.5" y="-376.5" font-family="Helvetica,sans-Serif" font-size="10.00">+reservedField3</text>
<text text-anchor="middle" x="357.5" y="-365.5" font-family="Helvetica,sans-Serif" font-size="10.00">+orbit</text>
</g>
<!-- Node6 -->
<g id="node6" class="node"><title>Node6</title>
<g id="a_node6"><a xlink:href="../../d2/df4/structo2_1_1ft0_1_1EventData.html" target="_top" xlink:title="{o2::ft0::EventData\n|+ isDoubleEvent\l+ is1TimeLostEvent\l+ isAmpHigh\l|+ ClassDefNV()\l}">
<polygon fill="none" stroke="black" points="367,-248.5 367,-327.5 471,-327.5 471,-248.5 367,-248.5"/>
<text text-anchor="middle" x="419" y="-315.5" font-family="Helvetica,sans-Serif" font-size="10.00">o2::ft0::EventData</text>
<polyline fill="none" stroke="black" points="367,-308.5 471,-308.5 "/>
<text text-anchor="start" x="375" y="-296.5" font-family="Helvetica,sans-Serif" font-size="10.00">+ isDoubleEvent</text>
<text text-anchor="start" x="375" y="-285.5" font-family="Helvetica,sans-Serif" font-size="10.00">+ is1TimeLostEvent</text>
<text text-anchor="start" x="375" y="-274.5" font-family="Helvetica,sans-Serif" font-size="10.00">+ isAmpHigh</text>
<polyline fill="none" stroke="black" points="367,-267.5 471,-267.5 "/>
<text text-anchor="start" x="375" y="-255.5" font-family="Helvetica,sans-Serif" font-size="10.00">+ ClassDefNV()</text>
</a>
</g>
</g>
<!-- Node3&#45;&gt;Node6 -->
<g id="edge6" class="edge"><title>Node3&#45;&gt;Node6</title>
<path fill="none" stroke="#404040" d="M389.337,-485.032C392.307,-479.243 395.057,-473.058 397,-467 410.314,-425.492 415.646,-376.151 417.744,-339.957"/>
<polygon fill="none" stroke="#404040" points="417.755,-339.722 414.062,-333.529 418.359,-327.737 422.052,-333.931 417.755,-339.722"/>
<text text-anchor="middle" x="460.5" y="-459" font-family="Helvetica,sans-Serif" font-size="10.00"> +isEventInTVDC</text>
<text text-anchor="middle" x="460.5" y="-448" font-family="Helvetica,sans-Serif" font-size="10.00">+is2TimeLostEvent</text>
<text text-anchor="middle" x="460.5" y="-437" font-family="Helvetica,sans-Serif" font-size="10.00">+isADCinGate</text>
<text text-anchor="middle" x="460.5" y="-426" font-family="Helvetica,sans-Serif" font-size="10.00">+word</text>
<text text-anchor="middle" x="460.5" y="-415" font-family="Helvetica,sans-Serif" font-size="10.00">+isTimeInfoLate</text>
<text text-anchor="middle" x="460.5" y="-404" font-family="Helvetica,sans-Serif" font-size="10.00">+numberADC</text>
<text text-anchor="middle" x="460.5" y="-393" font-family="Helvetica,sans-Serif" font-size="10.00">+word_zeros</text>
<text text-anchor="middle" x="460.5" y="-382" font-family="Helvetica,sans-Serif" font-size="10.00">+channelID</text>
<text text-anchor="middle" x="460.5" y="-371" font-family="Helvetica,sans-Serif" font-size="10.00">+isTimeInfoLost</text>
<text text-anchor="middle" x="460.5" y="-360" font-family="Helvetica,sans-Serif" font-size="10.00">+reservedField</text>
<text text-anchor="middle" x="460.5" y="-349" font-family="Helvetica,sans-Serif" font-size="10.00">...</text>
</g>
<!-- Node4 -->
<g id="node4" class="node"><title>Node4</title>
<polygon fill="none" stroke="#bfbfbf" points="0,-485.5 0,-542.5 92,-542.5 92,-485.5 0,-485.5"/>
<text text-anchor="middle" x="46" y="-530.5" font-family="Helvetica,sans-Serif" font-size="10.00">anonymous:+@7</text>
<polyline fill="none" stroke="#bfbfbf" points="0,-523.5 92,-523.5 "/>
<text text-anchor="middle" x="46" y="-511.5" font-family="Helvetica,sans-Serif" font-size="10.00"> </text>
<polyline fill="none" stroke="#bfbfbf" points="0,-504.5 92,-504.5 "/>
<text text-anchor="middle" x="46" y="-492.5" font-family="Helvetica,sans-Serif" font-size="10.00"> </text>
</g>
<!-- Node4&#45;&gt;Node2 -->
<g id="edge3" class="edge"><title>Node4&#45;&gt;Node2</title>
<path fill="none" stroke="#404040" d="M38.8767,-485.303C31.493,-450.198 24.2761,-389.076 50,-346 58.3278,-332.055 71.4483,-321.219 85.4786,-312.923"/>
<polygon fill="none" stroke="#404040" points="85.763,-312.77 89.1404,-306.398 96.3206,-307.065 92.9432,-313.437 85.763,-312.77"/>
<text text-anchor="middle" x="62.5" y="-404" font-family="Helvetica,sans-Serif" font-size="10.00"> +@7</text>
</g>
<!-- Node5 -->
<g id="node5" class="node"><title>Node5</title>
<polygon fill="none" stroke="#bfbfbf" points="135.5,-485.5 135.5,-542.5 176.5,-542.5 176.5,-485.5 135.5,-485.5"/>
<text text-anchor="middle" x="156" y="-530.5" font-family="Helvetica,sans-Serif" font-size="10.00">static</text>
<polyline fill="none" stroke="#bfbfbf" points="135.5,-523.5 176.5,-523.5 "/>
<text text-anchor="middle" x="156" y="-511.5" font-family="Helvetica,sans-Serif" font-size="10.00"> </text>
<polyline fill="none" stroke="#bfbfbf" points="135.5,-504.5 176.5,-504.5 "/>
<text text-anchor="middle" x="156" y="-492.5" font-family="Helvetica,sans-Serif" font-size="10.00"> </text>
</g>
<!-- Node5&#45;&gt;Node2 -->
<g id="edge4" class="edge"><title>Node5&#45;&gt;Node2</title>
<path fill="none" stroke="#404040" d="M135.482,-503.787C121.251,-496.167 103.401,-483.857 95,-467 71.0128,-418.868 74.8645,-395.866 95,-346 97.9059,-338.804 102.204,-332.01 107.138,-325.791"/>
<polygon fill="none" stroke="#404040" points="107.376,-325.521 108.341,-318.375 115.309,-316.517 114.344,-323.663 107.376,-325.521"/>
<text text-anchor="middle" x="127" y="-404" font-family="Helvetica,sans-Serif" font-size="10.00"> +PayloadSize</text>
</g>
<!-- Node5&#45;&gt;Node6 -->
<g id="edge8" class="edge"><title>Node5&#45;&gt;Node6</title>
<path fill="none" stroke="#404040" d="M157.936,-485.355C161.32,-440.577 168.835,-356.144 178,-346 189.94,-332.786 287.377,-312.8 354.639,-300.343"/>
<polygon fill="none" stroke="#404040" points="355.017,-300.274 360.196,-295.256 366.82,-298.108 361.64,-303.125 355.017,-300.274"/>
<text text-anchor="middle" x="238.5" y="-409.5" font-family="Helvetica,sans-Serif" font-size="10.00"> +PayloadSizeSecondWord</text>
<text text-anchor="middle" x="238.5" y="-398.5" font-family="Helvetica,sans-Serif" font-size="10.00">+PayloadSizeFirstWord</text>
</g>
<!-- Node6&#45;&gt;Node1 -->
<g id="edge5" class="edge"><title>Node6&#45;&gt;Node1</title>
<path fill="none" stroke="#404040" d="M416.71,-248.324C416.767,-238.689 417.367,-228.422 419,-219 419.379,-216.814 419.795,-214.614 420.244,-212.407"/>
<polygon fill="none" stroke="#404040" points="420.281,-212.243 417.712,-205.505 422.944,-200.543 425.513,-207.281 420.281,-212.243"/>
<text text-anchor="middle" x="451" y="-222" font-family="Helvetica,sans-Serif" font-size="10.00"> +mEventData</text>
</g>
<!-- Node7 -->
<g id="node7" class="node"><title>Node7</title>
<polygon fill="none" stroke="#bfbfbf" points="594,-485.5 594,-542.5 640,-542.5 640,-485.5 594,-485.5"/>
<text text-anchor="middle" x="617" y="-530.5" font-family="Helvetica,sans-Serif" font-size="10.00">int64_t</text>
<polyline fill="none" stroke="#bfbfbf" points="594,-523.5 640,-523.5 "/>
<text text-anchor="middle" x="617" y="-511.5" font-family="Helvetica,sans-Serif" font-size="10.00"> </text>
<polyline fill="none" stroke="#bfbfbf" points="594,-504.5 640,-504.5 "/>
<text text-anchor="middle" x="617" y="-492.5" font-family="Helvetica,sans-Serif" font-size="10.00"> </text>
</g>
<!-- Node7&#45;&gt;Node6 -->
<g id="edge7" class="edge"><title>Node7&#45;&gt;Node6</title>
<path fill="none" stroke="#404040" d="M616.732,-485.459C614.801,-448.201 605.568,-382.242 566,-346 540.082,-322.261 520.576,-338.84 482.822,-327.696"/>
<polygon fill="none" stroke="#404040" points="482.391,-327.542 475.397,-329.299 471.085,-323.52 478.078,-321.762 482.391,-327.542"/>
<text text-anchor="middle" x="634" y="-409.5" font-family="Helvetica,sans-Serif" font-size="10.00"> +time</text>
<text text-anchor="middle" x="634" y="-398.5" font-family="Helvetica,sans-Serif" font-size="10.00">+charge</text>
</g>
<!-- Node8 -->
<g id="node8" class="node"><title>Node8</title>
<polygon fill="none" stroke="#bfbfbf" points="478.5,-485.5 478.5,-542.5 575.5,-542.5 575.5,-485.5 478.5,-485.5"/>
<text text-anchor="middle" x="527" y="-530.5" font-family="Helvetica,sans-Serif" font-size="10.00">anonymous:+@11</text>
<polyline fill="none" stroke="#bfbfbf" points="478.5,-523.5 575.5,-523.5 "/>
<text text-anchor="middle" x="527" y="-511.5" font-family="Helvetica,sans-Serif" font-size="10.00"> </text>
<polyline fill="none" stroke="#bfbfbf" points="478.5,-504.5 575.5,-504.5 "/>
<text text-anchor="middle" x="527" y="-492.5" font-family="Helvetica,sans-Serif" font-size="10.00"> </text>
</g>
<!-- Node8&#45;&gt;Node6 -->
<g id="edge9" class="edge"><title>Node8&#45;&gt;Node6</title>
<path fill="none" stroke="#404040" d="M530.013,-485.251C532.424,-450.091 531.798,-388.911 505,-346 503.989,-344.381 494.111,-337.517 481.385,-329.082"/>
<polygon fill="none" stroke="#404040" points="481.225,-328.977 474.014,-329.024 471.197,-322.386 478.408,-322.339 481.225,-328.977"/>
<text text-anchor="middle" x="546.5" y="-404" font-family="Helvetica,sans-Serif" font-size="10.00"> +@11</text>
</g>
<!-- Node9 -->
<g id="node9" class="node"><title>Node9</title>
<polygon fill="none" stroke="#bfbfbf" points="490.5,-259.5 490.5,-316.5 519.5,-316.5 519.5,-259.5 490.5,-259.5"/>
<text text-anchor="middle" x="505" y="-304.5" font-family="Helvetica,sans-Serif" font-size="10.00">int</text>
<polyline fill="none" stroke="#bfbfbf" points="490.5,-297.5 519.5,-297.5 "/>
<text text-anchor="middle" x="505" y="-285.5" font-family="Helvetica,sans-Serif" font-size="10.00"> </text>
<polyline fill="none" stroke="#bfbfbf" points="490.5,-278.5 519.5,-278.5 "/>
<text text-anchor="middle" x="505" y="-266.5" font-family="Helvetica,sans-Serif" font-size="10.00"> </text>
</g>
<!-- Node9&#45;&gt;Node1 -->
<g id="edge10" class="edge"><title>Node9&#45;&gt;Node1</title>
<path fill="none" stroke="#404040" d="M498.413,-259.229C495.335,-246.254 491.449,-229.869 487.353,-212.601"/>
<polygon fill="none" stroke="#404040" points="487.261,-212.212 481.984,-207.297 484.491,-200.536 489.768,-205.451 487.261,-212.212"/>
<text text-anchor="middle" x="531.5" y="-222" font-family="Helvetica,sans-Serif" font-size="10.00"> +gStartDescriptor</text>
</g>
<!-- Node10 -->
<g id="node10" class="node"><title>Node10</title>
<polygon fill="none" stroke="#bfbfbf" points="591.5,-259.5 591.5,-316.5 626.5,-316.5 626.5,-259.5 591.5,-259.5"/>
<text text-anchor="middle" x="609" y="-304.5" font-family="Helvetica,sans-Serif" font-size="10.00">bool</text>
<polyline fill="none" stroke="#bfbfbf" points="591.5,-297.5 626.5,-297.5 "/>
<text text-anchor="middle" x="609" y="-285.5" font-family="Helvetica,sans-Serif" font-size="10.00"> </text>
<polyline fill="none" stroke="#bfbfbf" points="591.5,-278.5 626.5,-278.5 "/>
<text text-anchor="middle" x="609" y="-266.5" font-family="Helvetica,sans-Serif" font-size="10.00"> </text>
</g>
<!-- Node10&#45;&gt;Node1 -->
<g id="edge11" class="edge"><title>Node10&#45;&gt;Node1</title>
<path fill="none" stroke="#404040" d="M598.046,-259.402C592.357,-246.577 584.76,-231.448 576,-219 565.354,-203.873 552.729,-188.875 539.809,-174.91"/>
<polygon fill="none" stroke="#404040" points="539.532,-174.616 532.504,-173 531.293,-165.891 538.321,-167.507 539.532,-174.616"/>
<text text-anchor="middle" x="612.5" y="-222" font-family="Helvetica,sans-Serif" font-size="10.00"> +mIsPadded</text>
</g>
</g>
</svg>
