<?xml version="1.0" encoding="UTF-8" standalone="no"?>
<!DOCTYPE svg PUBLIC "-//W3C//DTD SVG 1.1//EN"
 "http://www.w3.org/Graphics/SVG/1.1/DTD/svg11.dtd">
<!-- Generated by graphviz version 2.38.0 (20140413.2041)
 -->
<!-- Title: /home/travis/build/AliceO2Group/AliceO2/Detectors/EMCAL/base/include/EMCALBase/Geometry.h Pages: 1 -->
<svg width="1790pt" height="350pt"
 viewBox="0.00 0.00 1789.50 350.00" xmlns="http://www.w3.org/2000/svg" xmlns:xlink="http://www.w3.org/1999/xlink">
<g id="graph0" class="graph" transform="scale(1 1) rotate(0) translate(4 346)">
<title>/home/travis/build/AliceO2Group/AliceO2/Detectors/EMCAL/base/include/EMCALBase/Geometry.h</title>
<!-- Node1 -->
<g id="node1" class="node"><title>Node1</title>
<polygon fill="#bfbfbf" stroke="black" points="771,-289.5 771,-341.5 935,-341.5 935,-289.5 771,-289.5"/>
<text text-anchor="start" x="779" y="-329.5" font-family="Helvetica,sans-Serif" font-size="10.00">/home/travis/build</text>
<text text-anchor="start" x="779" y="-318.5" font-family="Helvetica,sans-Serif" font-size="10.00">/AliceO2Group/AliceO2</text>
<text text-anchor="start" x="779" y="-307.5" font-family="Helvetica,sans-Serif" font-size="10.00">/Detectors/EMCAL/base</text>
<text text-anchor="middle" x="853" y="-296.5" font-family="Helvetica,sans-Serif" font-size="10.00">/include/EMCALBase/Geometry.h</text>
</g>
<!-- Node2 -->
<g id="node2" class="node"><title>Node2</title>
<g id="a_node2"><a xlink:href="../../de/d49/EMCAL_2base_2src_2Geometry_8cxx.html" target="_top" xlink:title="/home/travis/build\l/AliceO2Group/AliceO2\l/Detectors/EMCAL/base\l/src/Geometry.cxx">
<polygon fill="none" stroke="black" points="0,-195 0,-247 124,-247 124,-195 0,-195"/>
<text text-anchor="start" x="8" y="-235" font-family="Helvetica,sans-Serif" font-size="10.00">/home/travis/build</text>
<text text-anchor="start" x="8" y="-224" font-family="Helvetica,sans-Serif" font-size="10.00">/AliceO2Group/AliceO2</text>
<text text-anchor="start" x="8" y="-213" font-family="Helvetica,sans-Serif" font-size="10.00">/Detectors/EMCAL/base</text>
<text text-anchor="middle" x="62" y="-202" font-family="Helvetica,sans-Serif" font-size="10.00">/src/Geometry.cxx</text>
</a>
</g>
</g>
<!-- Node1&#45;&gt;Node2 -->
<g id="edge1" class="edge"><title>Node1&#45;&gt;Node2</title>
<path fill="none" stroke="midnightblue" d="M760.744,-310.364C594.091,-302.271 249.355,-282.517 133,-253 126.873,-251.446 120.602,-249.417 114.447,-247.141"/>
<polygon fill="midnightblue" stroke="midnightblue" points="760.817,-313.871 770.974,-310.857 761.154,-306.879 760.817,-313.871"/>
</g>
<!-- Node3 -->
<g id="node3" class="node"><title>Node3</title>
<g id="a_node3"><a xlink:href="../../df/d2e/ShishKebabTrd1Module_8cxx.html" target="_top" xlink:title="/home/travis/build\l/AliceO2Group/AliceO2\l/Detectors/EMCAL/base\l/src/ShishKebabTrd1Module.cxx">
<polygon fill="none" stroke="black" points="142,-195 142,-247 300,-247 300,-195 142,-195"/>
<text text-anchor="start" x="150" y="-235" font-family="Helvetica,sans-Serif" font-size="10.00">/home/travis/build</text>
<text text-anchor="start" x="150" y="-224" font-family="Helvetica,sans-Serif" font-size="10.00">/AliceO2Group/AliceO2</text>
<text text-anchor="start" x="150" y="-213" font-family="Helvetica,sans-Serif" font-size="10.00">/Detectors/EMCAL/base</text>
<text text-anchor="middle" x="221" y="-202" font-family="Helvetica,sans-Serif" font-size="10.00">/src/ShishKebabTrd1Module.cxx</text>
</a>
</g>
</g>
<!-- Node1&#45;&gt;Node3 -->
<g id="edge2" class="edge"><title>Node1&#45;&gt;Node3</title>
<path fill="none" stroke="midnightblue" d="M760.614,-310.422C651.52,-304.148 465.151,-288.844 309,-253 301.896,-251.369 294.57,-249.354 287.32,-247.14"/>
<polygon fill="midnightblue" stroke="midnightblue" points="760.746,-313.935 770.927,-311.001 761.139,-306.946 760.746,-313.935"/>
</g>
<!-- Node4 -->
<g id="node4" class="node"><title>Node4</title>
<g id="a_node4"><a xlink:href="../../d2/d39/EMCAL_2calib_2src_2BadChannelMap_8cxx.html" target="_top" xlink:title="/home/travis/build\l/AliceO2Group/AliceO2\l/Detectors/EMCAL/calib\l/src/BadChannelMap.cxx">
<polygon fill="none" stroke="black" points="318.5,-195 318.5,-247 445.5,-247 445.5,-195 318.5,-195"/>
<text text-anchor="start" x="326.5" y="-235" font-family="Helvetica,sans-Serif" font-size="10.00">/home/travis/build</text>
<text text-anchor="start" x="326.5" y="-224" font-family="Helvetica,sans-Serif" font-size="10.00">/AliceO2Group/AliceO2</text>
<text text-anchor="start" x="326.5" y="-213" font-family="Helvetica,sans-Serif" font-size="10.00">/Detectors/EMCAL/calib</text>
<text text-anchor="middle" x="382" y="-202" font-family="Helvetica,sans-Serif" font-size="10.00">/src/BadChannelMap.cxx</text>
</a>
</g>
</g>
<!-- Node1&#45;&gt;Node4 -->
<g id="edge3" class="edge"><title>Node1&#45;&gt;Node4</title>
<path fill="none" stroke="midnightblue" d="M760.688,-306.788C679.119,-298.434 557.532,-282.2 455,-253 449.041,-251.303 442.921,-249.245 436.881,-247.004"/>
<polygon fill="midnightblue" stroke="midnightblue" points="760.63,-310.3 770.93,-307.817 761.33,-303.335 760.63,-310.3"/>
</g>
<!-- Node5 -->
<g id="node5" class="node"><title>Node5</title>
<g id="a_node5"><a xlink:href="../../d8/d60/testBadChannelMap_8cxx.html" target="_top" xlink:title="/home/travis/build\l/AliceO2Group/AliceO2\l/Detectors/EMCAL/calib\l/test/testBadChannelMap.cxx">
<polygon fill="none" stroke="black" points="464,-195 464,-247 610,-247 610,-195 464,-195"/>
<text text-anchor="start" x="472" y="-235" font-family="Helvetica,sans-Serif" font-size="10.00">/home/travis/build</text>
<text text-anchor="start" x="472" y="-224" font-family="Helvetica,sans-Serif" font-size="10.00">/AliceO2Group/AliceO2</text>
<text text-anchor="start" x="472" y="-213" font-family="Helvetica,sans-Serif" font-size="10.00">/Detectors/EMCAL/calib</text>
<text text-anchor="middle" x="537" y="-202" font-family="Helvetica,sans-Serif" font-size="10.00">/test/testBadChannelMap.cxx</text>
</a>
</g>
</g>
<!-- Node1&#45;&gt;Node5 -->
<g id="edge4" class="edge"><title>Node1&#45;&gt;Node5</title>
<path fill="none" stroke="midnightblue" d="M760.846,-292.422C717.771,-281.53 665.96,-267.609 620,-253 614.283,-251.183 608.381,-249.2 602.484,-247.144"/>
<polygon fill="midnightblue" stroke="midnightblue" points="760.194,-295.867 770.746,-294.911 761.901,-289.078 760.194,-295.867"/>
</g>
<!-- Node6 -->
<g id="node6" class="node"><title>Node6</title>
<g id="a_node6"><a xlink:href="../../dc/d1a/testGainCalibration_8cxx.html" target="_top" xlink:title="/home/travis/build\l/AliceO2Group/AliceO2\l/Detectors/EMCAL/calib\l/test/testGainCalibration.cxx">
<polygon fill="none" stroke="black" points="628.5,-195 628.5,-247 769.5,-247 769.5,-195 628.5,-195"/>
<text text-anchor="start" x="636.5" y="-235" font-family="Helvetica,sans-Serif" font-size="10.00">/home/travis/build</text>
<text text-anchor="start" x="636.5" y="-224" font-family="Helvetica,sans-Serif" font-size="10.00">/AliceO2Group/AliceO2</text>
<text text-anchor="start" x="636.5" y="-213" font-family="Helvetica,sans-Serif" font-size="10.00">/Detectors/EMCAL/calib</text>
<text text-anchor="middle" x="699" y="-202" font-family="Helvetica,sans-Serif" font-size="10.00">/test/testGainCalibration.cxx</text>
</a>
</g>
</g>
<!-- Node1&#45;&gt;Node6 -->
<g id="edge5" class="edge"><title>Node1&#45;&gt;Node6</title>
<path fill="none" stroke="midnightblue" d="M802.629,-284.245C782.587,-272.207 759.801,-258.52 740.708,-247.052"/>
<polygon fill="midnightblue" stroke="midnightblue" points="800.951,-287.319 811.325,-289.468 804.555,-281.319 800.951,-287.319"/>
</g>
<!-- Node7 -->
<g id="node7" class="node"><title>Node7</title>
<g id="a_node7"><a xlink:href="../../d5/d67/Detectors_2EMCAL_2reconstruction_2include_2EMCALReconstruction_2Clusterizer_8h.html" target="_top" xlink:title="/home/travis/build\l/AliceO2Group/AliceO2\l/Detectors/EMCAL/reconstruction\l/include/EMCALReconstruction\l/Clusterizer.h">
<polygon fill="none" stroke="black" points="826,-189.5 826,-252.5 990,-252.5 990,-189.5 826,-189.5"/>
<text text-anchor="start" x="834" y="-240.5" font-family="Helvetica,sans-Serif" font-size="10.00">/home/travis/build</text>
<text text-anchor="start" x="834" y="-229.5" font-family="Helvetica,sans-Serif" font-size="10.00">/AliceO2Group/AliceO2</text>
<text text-anchor="start" x="834" y="-218.5" font-family="Helvetica,sans-Serif" font-size="10.00">/Detectors/EMCAL/reconstruction</text>
<text text-anchor="start" x="834" y="-207.5" font-family="Helvetica,sans-Serif" font-size="10.00">/include/EMCALReconstruction</text>
<text text-anchor="middle" x="908" y="-196.5" font-family="Helvetica,sans-Serif" font-size="10.00">/Clusterizer.h</text>
</a>
</g>
</g>
<!-- Node1&#45;&gt;Node7 -->
<g id="edge6" class="edge"><title>Node1&#45;&gt;Node7</title>
<path fill="none" stroke="midnightblue" d="M873.29,-280.377C878.719,-271.245 884.552,-261.435 889.858,-252.512"/>
<polygon fill="midnightblue" stroke="midnightblue" points="870.131,-278.84 868.029,-289.224 876.148,-282.417 870.131,-278.84"/>
</g>
<!-- Node8 -->
<g id="node8" class="node"><title>Node8</title>
<g id="a_node8"><a xlink:href="../../d8/dc0/ClusterizerTask_8h.html" target="_top" xlink:title="Definition of the EMCAL clusterizer task. ">
<polygon fill="none" stroke="black" points="454,-89.5 454,-152.5 618,-152.5 618,-89.5 454,-89.5"/>
<text text-anchor="start" x="462" y="-140.5" font-family="Helvetica,sans-Serif" font-size="10.00">/home/travis/build</text>
<text text-anchor="start" x="462" y="-129.5" font-family="Helvetica,sans-Serif" font-size="10.00">/AliceO2Group/AliceO2</text>
<text text-anchor="start" x="462" y="-118.5" font-family="Helvetica,sans-Serif" font-size="10.00">/Detectors/EMCAL/reconstruction</text>
<text text-anchor="start" x="462" y="-107.5" font-family="Helvetica,sans-Serif" font-size="10.00">/include/EMCALReconstruction</text>
<text text-anchor="middle" x="536" y="-96.5" font-family="Helvetica,sans-Serif" font-size="10.00">/ClusterizerTask.h</text>
</a>
</g>
</g>
<!-- Node1&#45;&gt;Node8 -->
<g id="edge13" class="edge"><title>Node1&#45;&gt;Node8</title>
<path fill="none" stroke="midnightblue" d="M832.884,-280.202C811.154,-243.179 779.534,-189.393 779,-189 723.12,-147.803 693.712,-172.215 627,-153 624.113,-152.168 621.182,-151.301 618.228,-150.406"/>
<polygon fill="midnightblue" stroke="midnightblue" points="830.09,-282.357 838.17,-289.21 836.128,-278.814 830.09,-282.357"/>
</g>
<!-- Node11 -->
<g id="node11" class="node"><title>Node11</title>
<g id="a_node11"><a xlink:href="../../d2/dd1/EMCAL_2workflow_2include_2EMCALWorkflow_2ClusterizerSpec_8h.html" target="_top" xlink:title="/home/travis/build\l/AliceO2Group/AliceO2\l/Detectors/EMCAL/workflow\l/include/EMCALWorkflow/Clusterizer\lSpec.h">
<polygon fill="none" stroke="black" points="818.5,-89.5 818.5,-152.5 997.5,-152.5 997.5,-89.5 818.5,-89.5"/>
<text text-anchor="start" x="826.5" y="-140.5" font-family="Helvetica,sans-Serif" font-size="10.00">/home/travis/build</text>
<text text-anchor="start" x="826.5" y="-129.5" font-family="Helvetica,sans-Serif" font-size="10.00">/AliceO2Group/AliceO2</text>
<text text-anchor="start" x="826.5" y="-118.5" font-family="Helvetica,sans-Serif" font-size="10.00">/Detectors/EMCAL/workflow</text>
<text text-anchor="start" x="826.5" y="-107.5" font-family="Helvetica,sans-Serif" font-size="10.00">/include/EMCALWorkflow/Clusterizer</text>
<text text-anchor="middle" x="908" y="-96.5" font-family="Helvetica,sans-Serif" font-size="10.00">Spec.h</text>
</a>
</g>
</g>
<!-- Node1&#45;&gt;Node11 -->
<g id="edge25" class="edge"><title>Node1&#45;&gt;Node11</title>
<path fill="none" stroke="midnightblue" d="M944.807,-294.606C966.081,-285.505 986.213,-272.262 999,-253 1014.73,-229.302 1011.83,-214.385 999,-189 991.653,-174.468 979.505,-162.316 966.44,-152.529"/>
<polygon fill="midnightblue" stroke="midnightblue" points="943.309,-291.435 935.308,-298.379 945.894,-297.94 943.309,-291.435"/>
</g>
<!-- Node14 -->
<g id="node14" class="node"><title>Node14</title>
<g id="a_node14"><a xlink:href="../../d8/d19/EMCAL_2simulation_2include_2EMCALSimulation_2Digitizer_8h.html" target="_top" xlink:title="/home/travis/build\l/AliceO2Group/AliceO2\l/Detectors/EMCAL/simulation\l/include/EMCALSimulation/Digitizer.h">
<polygon fill="none" stroke="black" points="1181.5,-195 1181.5,-247 1362.5,-247 1362.5,-195 1181.5,-195"/>
<text text-anchor="start" x="1189.5" y="-235" font-family="Helvetica,sans-Serif" font-size="10.00">/home/travis/build</text>
<text text-anchor="start" x="1189.5" y="-224" font-family="Helvetica,sans-Serif" font-size="10.00">/AliceO2Group/AliceO2</text>
<text text-anchor="start" x="1189.5" y="-213" font-family="Helvetica,sans-Serif" font-size="10.00">/Detectors/EMCAL/simulation</text>
<text text-anchor="middle" x="1272" y="-202" font-family="Helvetica,sans-Serif" font-size="10.00">/include/EMCALSimulation/Digitizer.h</text>
</a>
</g>
</g>
<!-- Node1&#45;&gt;Node14 -->
<g id="edge14" class="edge"><title>Node1&#45;&gt;Node14</title>
<path fill="none" stroke="midnightblue" d="M945.434,-294.094C1015.56,-278.613 1111.46,-257.441 1181.19,-242.049"/>
<polygon fill="midnightblue" stroke="midnightblue" points="944.291,-290.762 935.281,-296.335 945.8,-297.597 944.291,-290.762"/>
</g>
<!-- Node16 -->
<g id="node16" class="node"><title>Node16</title>
<g id="a_node16"><a xlink:href="../../df/df1/EMCAL_2simulation_2src_2DigitizerTask_8cxx.html" target="_top" xlink:title="/home/travis/build\l/AliceO2Group/AliceO2\l/Detectors/EMCAL/simulation\l/src/DigitizerTask.cxx">
<polygon fill="none" stroke="black" points="1343.5,-0.5 1343.5,-52.5 1490.5,-52.5 1490.5,-0.5 1343.5,-0.5"/>
<text text-anchor="start" x="1351.5" y="-40.5" font-family="Helvetica,sans-Serif" font-size="10.00">/home/travis/build</text>
<text text-anchor="start" x="1351.5" y="-29.5" font-family="Helvetica,sans-Serif" font-size="10.00">/AliceO2Group/AliceO2</text>
<text text-anchor="start" x="1351.5" y="-18.5" font-family="Helvetica,sans-Serif" font-size="10.00">/Detectors/EMCAL/simulation</text>
<text text-anchor="middle" x="1417" y="-7.5" font-family="Helvetica,sans-Serif" font-size="10.00">/src/DigitizerTask.cxx</text>
</a>
</g>
</g>
<!-- Node1&#45;&gt;Node16 -->
<g id="edge24" class="edge"><title>Node1&#45;&gt;Node16</title>
<path fill="none" stroke="midnightblue" d="M945.372,-309.548C1083.96,-301.278 1338.64,-282.587 1425,-253 1505.05,-225.576 1545.78,-226.891 1587,-153 1600.86,-128.16 1603.34,-112.284 1587,-89 1565.19,-57.9124 1526.02,-42.473 1490.77,-34.8344"/>
<polygon fill="midnightblue" stroke="midnightblue" points="944.967,-306.066 935.191,-310.149 945.38,-313.054 944.967,-306.066"/>
</g>
<!-- Node17 -->
<g id="node17" class="node"><title>Node17</title>
<g id="a_node17"><a xlink:href="../../de/d7d/EMCAL_2simulation_2src_2Digitizer_8cxx.html" target="_top" xlink:title="/home/travis/build\l/AliceO2Group/AliceO2\l/Detectors/EMCAL/simulation\l/src/Digitizer.cxx">
<polygon fill="none" stroke="black" points="1430.5,-95 1430.5,-147 1577.5,-147 1577.5,-95 1430.5,-95"/>
<text text-anchor="start" x="1438.5" y="-135" font-family="Helvetica,sans-Serif" font-size="10.00">/home/travis/build</text>
<text text-anchor="start" x="1438.5" y="-124" font-family="Helvetica,sans-Serif" font-size="10.00">/AliceO2Group/AliceO2</text>
<text text-anchor="start" x="1438.5" y="-113" font-family="Helvetica,sans-Serif" font-size="10.00">/Detectors/EMCAL/simulation</text>
<text text-anchor="middle" x="1504" y="-102" font-family="Helvetica,sans-Serif" font-size="10.00">/src/Digitizer.cxx</text>
</a>
</g>
</g>
<!-- Node1&#45;&gt;Node17 -->
<g id="edge23" class="edge"><title>Node1&#45;&gt;Node17</title>
<path fill="none" stroke="midnightblue" d="M945.447,-310.754C1073.89,-304.333 1298.81,-288.335 1372,-253 1422.01,-228.857 1464.41,-178.02 1486.84,-147.259"/>
<polygon fill="midnightblue" stroke="midnightblue" points="945.046,-307.269 935.229,-311.254 945.389,-314.261 945.046,-307.269"/>
</g>
<!-- Node21 -->
<g id="node21" class="node"><title>Node21</title>
<g id="a_node21"><a xlink:href="../../da/d98/EMCAL_2simulation_2src_2Detector_8cxx.html" target="_top" xlink:title="/home/travis/build\l/AliceO2Group/AliceO2\l/Detectors/EMCAL/simulation\l/src/Detector.cxx">
<polygon fill="none" stroke="black" points="1634.5,-195 1634.5,-247 1781.5,-247 1781.5,-195 1634.5,-195"/>
<text text-anchor="start" x="1642.5" y="-235" font-family="Helvetica,sans-Serif" font-size="10.00">/home/travis/build</text>
<text text-anchor="start" x="1642.5" y="-224" font-family="Helvetica,sans-Serif" font-size="10.00">/AliceO2Group/AliceO2</text>
<text text-anchor="start" x="1642.5" y="-213" font-family="Helvetica,sans-Serif" font-size="10.00">/Detectors/EMCAL/simulation</text>
<text text-anchor="middle" x="1708" y="-202" font-family="Helvetica,sans-Serif" font-size="10.00">/src/Detector.cxx</text>
</a>
</g>
</g>
<!-- Node1&#45;&gt;Node21 -->
<g id="edge22" class="edge"><title>Node1&#45;&gt;Node21</title>
<path fill="none" stroke="midnightblue" d="M945.369,-314.751C1090.58,-313.439 1380.42,-303.904 1620,-253 1627.45,-251.418 1635.13,-249.372 1642.7,-247.085"/>
<polygon fill="midnightblue" stroke="midnightblue" points="945.139,-311.253 935.167,-314.832 945.194,-318.252 945.139,-311.253"/>
</g>
<!-- Node7&#45;&gt;Node8 -->
<g id="edge7" class="edge"><title>Node7&#45;&gt;Node8</title>
<path fill="none" stroke="midnightblue" d="M816.321,-190.134C814.872,-189.747 813.431,-189.369 812,-189 730.887,-168.092 707.944,-174.555 627,-153 624.097,-152.227 621.152,-151.409 618.186,-150.557"/>
<polygon fill="midnightblue" stroke="midnightblue" points="815.4,-193.51 825.971,-192.795 817.261,-186.762 815.4,-193.51"/>
</g>
<!-- Node10 -->
<g id="node10" class="node"><title>Node10</title>
<g id="a_node10"><a xlink:href="../../d6/de5/Detectors_2EMCAL_2reconstruction_2src_2Clusterizer_8cxx.html" target="_top" xlink:title="/home/travis/build\l/AliceO2Group/AliceO2\l/Detectors/EMCAL/reconstruction\l/src/Clusterizer.cxx">
<polygon fill="none" stroke="black" points="636,-95 636,-147 800,-147 800,-95 636,-95"/>
<text text-anchor="start" x="644" y="-135" font-family="Helvetica,sans-Serif" font-size="10.00">/home/travis/build</text>
<text text-anchor="start" x="644" y="-124" font-family="Helvetica,sans-Serif" font-size="10.00">/AliceO2Group/AliceO2</text>
<text text-anchor="start" x="644" y="-113" font-family="Helvetica,sans-Serif" font-size="10.00">/Detectors/EMCAL/reconstruction</text>
<text text-anchor="middle" x="718" y="-102" font-family="Helvetica,sans-Serif" font-size="10.00">/src/Clusterizer.cxx</text>
</a>
</g>
</g>
<!-- Node7&#45;&gt;Node10 -->
<g id="edge9" class="edge"><title>Node7&#45;&gt;Node10</title>
<path fill="none" stroke="midnightblue" d="M839.559,-184.699C815.447,-172.262 788.853,-158.545 766.703,-147.121"/>
<polygon fill="midnightblue" stroke="midnightblue" points="838.172,-187.922 848.664,-189.395 841.381,-181.701 838.172,-187.922"/>
</g>
<!-- Node7&#45;&gt;Node11 -->
<g id="edge10" class="edge"><title>Node7&#45;&gt;Node11</title>
<path fill="none" stroke="midnightblue" d="M908,-179.099C908,-170.238 908,-161.015 908,-152.63"/>
<polygon fill="midnightblue" stroke="midnightblue" points="904.5,-179.261 908,-189.261 911.5,-179.261 904.5,-179.261"/>
</g>
<!-- Node9 -->
<g id="node9" class="node"><title>Node9</title>
<g id="a_node9"><a xlink:href="../../d6/da0/ClusterizerTask_8cxx.html" target="_top" xlink:title="Implementation of the EMCAL cluster finder task. ">
<polygon fill="none" stroke="black" points="454,-0.5 454,-52.5 618,-52.5 618,-0.5 454,-0.5"/>
<text text-anchor="start" x="462" y="-40.5" font-family="Helvetica,sans-Serif" font-size="10.00">/home/travis/build</text>
<text text-anchor="start" x="462" y="-29.5" font-family="Helvetica,sans-Serif" font-size="10.00">/AliceO2Group/AliceO2</text>
<text text-anchor="start" x="462" y="-18.5" font-family="Helvetica,sans-Serif" font-size="10.00">/Detectors/EMCAL/reconstruction</text>
<text text-anchor="middle" x="536" y="-7.5" font-family="Helvetica,sans-Serif" font-size="10.00">/src/ClusterizerTask.cxx</text>
</a>
</g>
</g>
<!-- Node8&#45;&gt;Node9 -->
<g id="edge8" class="edge"><title>Node8&#45;&gt;Node9</title>
<path fill="none" stroke="midnightblue" d="M536,-79.4229C536,-70.3585 536,-60.999 536,-52.7655"/>
<polygon fill="midnightblue" stroke="midnightblue" points="532.5,-79.4556 536,-89.4557 539.5,-79.4557 532.5,-79.4556"/>
</g>
<!-- Node12 -->
<g id="node12" class="node"><title>Node12</title>
<g id="a_node12"><a xlink:href="../../d7/d67/EMCAL_2workflow_2src_2ClusterizerSpec_8cxx.html" target="_top" xlink:title="/home/travis/build\l/AliceO2Group/AliceO2\l/Detectors/EMCAL/workflow\l/src/ClusterizerSpec.cxx">
<polygon fill="none" stroke="black" points="677,-0.5 677,-52.5 819,-52.5 819,-0.5 677,-0.5"/>
<text text-anchor="start" x="685" y="-40.5" font-family="Helvetica,sans-Serif" font-size="10.00">/home/travis/build</text>
<text text-anchor="start" x="685" y="-29.5" font-family="Helvetica,sans-Serif" font-size="10.00">/AliceO2Group/AliceO2</text>
<text text-anchor="start" x="685" y="-18.5" font-family="Helvetica,sans-Serif" font-size="10.00">/Detectors/EMCAL/workflow</text>
<text text-anchor="middle" x="748" y="-7.5" font-family="Helvetica,sans-Serif" font-size="10.00">/src/ClusterizerSpec.cxx</text>
</a>
</g>
</g>
<!-- Node11&#45;&gt;Node12 -->
<g id="edge11" class="edge"><title>Node11&#45;&gt;Node12</title>
<path fill="none" stroke="midnightblue" d="M846.305,-84.3325C827.995,-73.7473 808.334,-62.3805 791.443,-52.6152"/>
<polygon fill="midnightblue" stroke="midnightblue" points="844.757,-87.4807 855.167,-89.4557 848.261,-81.4205 844.757,-87.4807"/>
</g>
<!-- Node13 -->
<g id="node13" class="node"><title>Node13</title>
<g id="a_node13"><a xlink:href="../../d2/dbf/EMCAL_2workflow_2src_2RecoWorkflow_8cxx.html" target="_top" xlink:title="/home/travis/build\l/AliceO2Group/AliceO2\l/Detectors/EMCAL/workflow\l/src/RecoWorkflow.cxx">
<polygon fill="none" stroke="black" points="837,-0.5 837,-52.5 979,-52.5 979,-0.5 837,-0.5"/>
<text text-anchor="start" x="845" y="-40.5" font-family="Helvetica,sans-Serif" font-size="10.00">/home/travis/build</text>
<text text-anchor="start" x="845" y="-29.5" font-family="Helvetica,sans-Serif" font-size="10.00">/AliceO2Group/AliceO2</text>
<text text-anchor="start" x="845" y="-18.5" font-family="Helvetica,sans-Serif" font-size="10.00">/Detectors/EMCAL/workflow</text>
<text text-anchor="middle" x="908" y="-7.5" font-family="Helvetica,sans-Serif" font-size="10.00">/src/RecoWorkflow.cxx</text>
</a>
</g>
</g>
<!-- Node11&#45;&gt;Node13 -->
<g id="edge12" class="edge"><title>Node11&#45;&gt;Node13</title>
<path fill="none" stroke="midnightblue" d="M908,-79.4229C908,-70.3585 908,-60.999 908,-52.7655"/>
<polygon fill="midnightblue" stroke="midnightblue" points="904.5,-79.4556 908,-89.4557 911.5,-79.4557 904.5,-79.4556"/>
</g>
<!-- Node15 -->
<g id="node15" class="node"><title>Node15</title>
<g id="a_node15"><a xlink:href="../../d6/d0e/EMCAL_2simulation_2include_2EMCALSimulation_2DigitizerTask_8h.html" target="_top" xlink:title="/home/travis/build\l/AliceO2Group/AliceO2\l/Detectors/EMCAL/simulation\l/include/EMCALSimulation/DigitizerTask.h">
<polygon fill="none" stroke="black" points="1170.5,-95 1170.5,-147 1373.5,-147 1373.5,-95 1170.5,-95"/>
<text text-anchor="start" x="1178.5" y="-135" font-family="Helvetica,sans-Serif" font-size="10.00">/home/travis/build</text>
<text text-anchor="start" x="1178.5" y="-124" font-family="Helvetica,sans-Serif" font-size="10.00">/AliceO2Group/AliceO2</text>
<text text-anchor="start" x="1178.5" y="-113" font-family="Helvetica,sans-Serif" font-size="10.00">/Detectors/EMCAL/simulation</text>
<text text-anchor="middle" x="1272" y="-102" font-family="Helvetica,sans-Serif" font-size="10.00">/include/EMCALSimulation/DigitizerTask.h</text>
</a>
</g>
</g>
<!-- Node14&#45;&gt;Node15 -->
<g id="edge15" class="edge"><title>Node14&#45;&gt;Node15</title>
<path fill="none" stroke="midnightblue" d="M1272,-184.703C1272,-172.277 1272,-158.572 1272,-147.152"/>
<polygon fill="midnightblue" stroke="midnightblue" points="1268.5,-184.763 1272,-194.763 1275.5,-184.763 1268.5,-184.763"/>
</g>
<!-- Node14&#45;&gt;Node16 -->
<g id="edge18" class="edge"><title>Node14&#45;&gt;Node16</title>
<path fill="none" stroke="midnightblue" d="M1340.57,-189.737C1356.4,-179.986 1371.85,-167.784 1383,-153 1405.43,-123.262 1413.07,-79.7229 1415.67,-52.5269"/>
<polygon fill="midnightblue" stroke="midnightblue" points="1338.62,-186.826 1331.76,-194.904 1342.16,-192.864 1338.62,-186.826"/>
</g>
<!-- Node14&#45;&gt;Node17 -->
<g id="edge17" class="edge"><title>Node14&#45;&gt;Node17</title>
<path fill="none" stroke="midnightblue" d="M1341.02,-190.845C1374,-176.912 1413.09,-160.403 1444.71,-147.045"/>
<polygon fill="midnightblue" stroke="midnightblue" points="1339.29,-187.774 1331.44,-194.89 1342.02,-194.223 1339.29,-187.774"/>
</g>
<!-- Node18 -->
<g id="node18" class="node"><title>Node18</title>
<g id="a_node18"><a xlink:href="../../df/d81/EMCALDigitizerSpec_8h.html" target="_top" xlink:title="/home/travis/build\l/AliceO2Group/AliceO2\l/Steer/DigitizerWorkflow\l/src/EMCALDigitizerSpec.h">
<polygon fill="none" stroke="black" points="1015.5,-95 1015.5,-147 1152.5,-147 1152.5,-95 1015.5,-95"/>
<text text-anchor="start" x="1023.5" y="-135" font-family="Helvetica,sans-Serif" font-size="10.00">/home/travis/build</text>
<text text-anchor="start" x="1023.5" y="-124" font-family="Helvetica,sans-Serif" font-size="10.00">/AliceO2Group/AliceO2</text>
<text text-anchor="start" x="1023.5" y="-113" font-family="Helvetica,sans-Serif" font-size="10.00">/Steer/DigitizerWorkflow</text>
<text text-anchor="middle" x="1084" y="-102" font-family="Helvetica,sans-Serif" font-size="10.00">/src/EMCALDigitizerSpec.h</text>
</a>
</g>
</g>
<!-- Node14&#45;&gt;Node18 -->
<g id="edge19" class="edge"><title>Node14&#45;&gt;Node18</title>
<path fill="none" stroke="midnightblue" d="M1214.48,-190.017C1188.17,-176.299 1157.33,-160.227 1132.25,-147.152"/>
<polygon fill="midnightblue" stroke="midnightblue" points="1213.1,-193.244 1223.59,-194.763 1216.34,-187.036 1213.1,-193.244"/>
</g>
<!-- Node15&#45;&gt;Node16 -->
<g id="edge16" class="edge"><title>Node15&#45;&gt;Node16</title>
<path fill="none" stroke="midnightblue" d="M1319.68,-89.5827C1338.49,-77.584 1359.83,-63.9684 1377.73,-52.5518"/>
<polygon fill="midnightblue" stroke="midnightblue" points="1317.79,-86.6392 1311.24,-94.9682 1321.55,-92.5407 1317.79,-86.6392"/>
</g>
<!-- Node19 -->
<g id="node19" class="node"><title>Node19</title>
<g id="a_node19"><a xlink:href="../../d5/d9b/EMCALDigitizerSpec_8cxx.html" target="_top" xlink:title="/home/travis/build\l/AliceO2Group/AliceO2\l/Steer/DigitizerWorkflow\l/src/EMCALDigitizerSpec.cxx">
<polygon fill="none" stroke="black" points="1177,-0.5 1177,-52.5 1325,-52.5 1325,-0.5 1177,-0.5"/>
<text text-anchor="start" x="1185" y="-40.5" font-family="Helvetica,sans-Serif" font-size="10.00">/home/travis/build</text>
<text text-anchor="start" x="1185" y="-29.5" font-family="Helvetica,sans-Serif" font-size="10.00">/AliceO2Group/AliceO2</text>
<text text-anchor="start" x="1185" y="-18.5" font-family="Helvetica,sans-Serif" font-size="10.00">/Steer/DigitizerWorkflow</text>
<text text-anchor="middle" x="1251" y="-7.5" font-family="Helvetica,sans-Serif" font-size="10.00">/src/EMCALDigitizerSpec.cxx</text>
</a>
</g>
</g>
<!-- Node18&#45;&gt;Node19 -->
<g id="edge20" class="edge"><title>Node18&#45;&gt;Node19</title>
<path fill="none" stroke="midnightblue" d="M1138.04,-90.0683C1159.91,-77.9524 1184.88,-64.1227 1205.77,-52.5518"/>
<polygon fill="midnightblue" stroke="midnightblue" points="1136.24,-87.0611 1129.19,-94.9682 1139.64,-93.1845 1136.24,-87.0611"/>
</g>
<!-- Node20 -->
<g id="node20" class="node"><title>Node20</title>
<g id="a_node20"><a xlink:href="../../d2/dd7/SimpleDigitizerWorkflow_8cxx.html" target="_top" xlink:title="/home/travis/build\l/AliceO2Group/AliceO2\l/Steer/DigitizerWorkflow\l/src/SimpleDigitizerWorkflow.cxx">
<polygon fill="none" stroke="black" points="997,-0.5 997,-52.5 1159,-52.5 1159,-0.5 997,-0.5"/>
<text text-anchor="start" x="1005" y="-40.5" font-family="Helvetica,sans-Serif" font-size="10.00">/home/travis/build</text>
<text text-anchor="start" x="1005" y="-29.5" font-family="Helvetica,sans-Serif" font-size="10.00">/AliceO2Group/AliceO2</text>
<text text-anchor="start" x="1005" y="-18.5" font-family="Helvetica,sans-Serif" font-size="10.00">/Steer/DigitizerWorkflow</text>
<text text-anchor="middle" x="1078" y="-7.5" font-family="Helvetica,sans-Serif" font-size="10.00">/src/SimpleDigitizerWorkflow.cxx</text>
</a>
</g>
</g>
<!-- Node18&#45;&gt;Node20 -->
<g id="edge21" class="edge"><title>Node18&#45;&gt;Node20</title>
<path fill="none" stroke="midnightblue" d="M1081.7,-84.4934C1081.01,-73.9095 1080.27,-62.5311 1079.64,-52.7455"/>
<polygon fill="midnightblue" stroke="midnightblue" points="1078.22,-84.9715 1082.36,-94.724 1085.21,-84.5184 1078.22,-84.9715"/>
</g>
</g>
</svg>
