<?xml version="1.0" encoding="UTF-8" standalone="no"?>
<!DOCTYPE svg PUBLIC "-//W3C//DTD SVG 1.1//EN"
 "http://www.w3.org/Graphics/SVG/1.1/DTD/svg11.dtd">
<!-- Generated by graphviz version 2.38.0 (20140413.2041)
 -->
<!-- Title: /home/travis/build/AliceO2Group/AliceO2/Detectors/EMCAL/reconstruction/include/EMCALReconstruction/Clusterizer.h Pages: 1 -->
<svg width="613pt" height="261pt"
 viewBox="0.00 0.00 613.00 261.00" xmlns="http://www.w3.org/2000/svg" xmlns:xlink="http://www.w3.org/1999/xlink">
<g id="graph0" class="graph" transform="scale(1 1) rotate(0) translate(4 257)">
<title>/home/travis/build/AliceO2Group/AliceO2/Detectors/EMCAL/reconstruction/include/EMCALReconstruction/Clusterizer.h</title>
<!-- Node1 -->
<g id="node1" class="node"><title>Node1</title>
<polygon fill="#bfbfbf" stroke="black" points="182,-189.5 182,-252.5 346,-252.5 346,-189.5 182,-189.5"/>
<text text-anchor="start" x="190" y="-240.5" font-family="Helvetica,sans-Serif" font-size="10.00">/home/travis/build</text>
<text text-anchor="start" x="190" y="-229.5" font-family="Helvetica,sans-Serif" font-size="10.00">/AliceO2Group/AliceO2</text>
<text text-anchor="start" x="190" y="-218.5" font-family="Helvetica,sans-Serif" font-size="10.00">/Detectors/EMCAL/reconstruction</text>
<text text-anchor="start" x="190" y="-207.5" font-family="Helvetica,sans-Serif" font-size="10.00">/include/EMCALReconstruction</text>
<text text-anchor="middle" x="264" y="-196.5" font-family="Helvetica,sans-Serif" font-size="10.00">/Clusterizer.h</text>
</g>
<!-- Node2 -->
<g id="node2" class="node"><title>Node2</title>
<g id="a_node2"><a xlink:href="../../d8/dc0/ClusterizerTask_8h.html" target="_top" xlink:title="Definition of the EMCAL clusterizer task. ">
<polygon fill="none" stroke="black" points="0,-89.5 0,-152.5 164,-152.5 164,-89.5 0,-89.5"/>
<text text-anchor="start" x="8" y="-140.5" font-family="Helvetica,sans-Serif" font-size="10.00">/home/travis/build</text>
<text text-anchor="start" x="8" y="-129.5" font-family="Helvetica,sans-Serif" font-size="10.00">/AliceO2Group/AliceO2</text>
<text text-anchor="start" x="8" y="-118.5" font-family="Helvetica,sans-Serif" font-size="10.00">/Detectors/EMCAL/reconstruction</text>
<text text-anchor="start" x="8" y="-107.5" font-family="Helvetica,sans-Serif" font-size="10.00">/include/EMCALReconstruction</text>
<text text-anchor="middle" x="82" y="-96.5" font-family="Helvetica,sans-Serif" font-size="10.00">/ClusterizerTask.h</text>
</a>
</g>
</g>
<!-- Node1&#45;&gt;Node2 -->
<g id="edge1" class="edge"><title>Node1&#45;&gt;Node2</title>
<path fill="none" stroke="midnightblue" d="M197.867,-184.39C178.538,-173.982 157.587,-162.701 138.884,-152.63"/>
<polygon fill="midnightblue" stroke="midnightblue" points="196.449,-187.602 206.913,-189.261 199.768,-181.438 196.449,-187.602"/>
</g>
<!-- Node4 -->
<g id="node4" class="node"><title>Node4</title>
<g id="a_node4"><a xlink:href="../../d6/de5/Detectors_2EMCAL_2reconstruction_2src_2Clusterizer_8cxx.html" target="_top" xlink:title="/home/travis/build\l/AliceO2Group/AliceO2\l/Detectors/EMCAL/reconstruction\l/src/Clusterizer.cxx">
<polygon fill="none" stroke="black" points="182,-95 182,-147 346,-147 346,-95 182,-95"/>
<text text-anchor="start" x="190" y="-135" font-family="Helvetica,sans-Serif" font-size="10.00">/home/travis/build</text>
<text text-anchor="start" x="190" y="-124" font-family="Helvetica,sans-Serif" font-size="10.00">/AliceO2Group/AliceO2</text>
<text text-anchor="start" x="190" y="-113" font-family="Helvetica,sans-Serif" font-size="10.00">/Detectors/EMCAL/reconstruction</text>
<text text-anchor="middle" x="264" y="-102" font-family="Helvetica,sans-Serif" font-size="10.00">/src/Clusterizer.cxx</text>
</a>
</g>
</g>
<!-- Node1&#45;&gt;Node4 -->
<g id="edge3" class="edge"><title>Node1&#45;&gt;Node4</title>
<path fill="none" stroke="midnightblue" d="M264,-179.079C264,-168.21 264,-156.794 264,-147.054"/>
<polygon fill="midnightblue" stroke="midnightblue" points="260.5,-179.261 264,-189.261 267.5,-179.261 260.5,-179.261"/>
</g>
<!-- Node5 -->
<g id="node5" class="node"><title>Node5</title>
<g id="a_node5"><a xlink:href="../../d2/dd1/EMCAL_2workflow_2include_2EMCALWorkflow_2ClusterizerSpec_8h.html" target="_top" xlink:title="/home/travis/build\l/AliceO2Group/AliceO2\l/Detectors/EMCAL/workflow\l/include/EMCALWorkflow/Clusterizer\lSpec.h">
<polygon fill="none" stroke="black" points="364.5,-89.5 364.5,-152.5 543.5,-152.5 543.5,-89.5 364.5,-89.5"/>
<text text-anchor="start" x="372.5" y="-140.5" font-family="Helvetica,sans-Serif" font-size="10.00">/home/travis/build</text>
<text text-anchor="start" x="372.5" y="-129.5" font-family="Helvetica,sans-Serif" font-size="10.00">/AliceO2Group/AliceO2</text>
<text text-anchor="start" x="372.5" y="-118.5" font-family="Helvetica,sans-Serif" font-size="10.00">/Detectors/EMCAL/workflow</text>
<text text-anchor="start" x="372.5" y="-107.5" font-family="Helvetica,sans-Serif" font-size="10.00">/include/EMCALWorkflow/Clusterizer</text>
<text text-anchor="middle" x="454" y="-96.5" font-family="Helvetica,sans-Serif" font-size="10.00">Spec.h</text>
</a>
</g>
</g>
<!-- Node1&#45;&gt;Node5 -->
<g id="edge4" class="edge"><title>Node1&#45;&gt;Node5</title>
<path fill="none" stroke="midnightblue" d="M332.282,-184.781C352.729,-174.234 374.975,-162.76 394.788,-152.541"/>
<polygon fill="midnightblue" stroke="midnightblue" points="330.619,-181.701 323.336,-189.395 333.828,-187.922 330.619,-181.701"/>
</g>
<!-- Node3 -->
<g id="node3" class="node"><title>Node3</title>
<g id="a_node3"><a xlink:href="../../d6/da0/ClusterizerTask_8cxx.html" target="_top" xlink:title="Implementation of the EMCAL cluster finder task. ">
<polygon fill="none" stroke="black" points="0,-0.5 0,-52.5 164,-52.5 164,-0.5 0,-0.5"/>
<text text-anchor="start" x="8" y="-40.5" font-family="Helvetica,sans-Serif" font-size="10.00">/home/travis/build</text>
<text text-anchor="start" x="8" y="-29.5" font-family="Helvetica,sans-Serif" font-size="10.00">/AliceO2Group/AliceO2</text>
<text text-anchor="start" x="8" y="-18.5" font-family="Helvetica,sans-Serif" font-size="10.00">/Detectors/EMCAL/reconstruction</text>
<text text-anchor="middle" x="82" y="-7.5" font-family="Helvetica,sans-Serif" font-size="10.00">/src/ClusterizerTask.cxx</text>
</a>
</g>
</g>
<!-- Node2&#45;&gt;Node3 -->
<g id="edge2" class="edge"><title>Node2&#45;&gt;Node3</title>
<path fill="none" stroke="midnightblue" d="M82,-79.4229C82,-70.3585 82,-60.999 82,-52.7655"/>
<polygon fill="midnightblue" stroke="midnightblue" points="78.5001,-79.4556 82,-89.4557 85.5001,-79.4557 78.5001,-79.4556"/>
</g>
<!-- Node6 -->
<g id="node6" class="node"><title>Node6</title>
<g id="a_node6"><a xlink:href="../../d7/d67/EMCAL_2workflow_2src_2ClusterizerSpec_8cxx.html" target="_top" xlink:title="/home/travis/build\l/AliceO2Group/AliceO2\l/Detectors/EMCAL/workflow\l/src/ClusterizerSpec.cxx">
<polygon fill="none" stroke="black" points="303,-0.5 303,-52.5 445,-52.5 445,-0.5 303,-0.5"/>
<text text-anchor="start" x="311" y="-40.5" font-family="Helvetica,sans-Serif" font-size="10.00">/home/travis/build</text>
<text text-anchor="start" x="311" y="-29.5" font-family="Helvetica,sans-Serif" font-size="10.00">/AliceO2Group/AliceO2</text>
<text text-anchor="start" x="311" y="-18.5" font-family="Helvetica,sans-Serif" font-size="10.00">/Detectors/EMCAL/workflow</text>
<text text-anchor="middle" x="374" y="-7.5" font-family="Helvetica,sans-Serif" font-size="10.00">/src/ClusterizerSpec.cxx</text>
</a>
</g>
</g>
<!-- Node5&#45;&gt;Node6 -->
<g id="edge5" class="edge"><title>Node5&#45;&gt;Node6</title>
<path fill="none" stroke="midnightblue" d="M420.923,-81.7546C412.467,-71.9771 403.585,-61.7073 395.851,-52.7655"/>
<polygon fill="midnightblue" stroke="midnightblue" points="418.394,-84.1816 427.583,-89.4557 423.689,-79.6025 418.394,-84.1816"/>
</g>
<!-- Node7 -->
<g id="node7" class="node"><title>Node7</title>
<g id="a_node7"><a xlink:href="../../d2/dbf/EMCAL_2workflow_2src_2RecoWorkflow_8cxx.html" target="_top" xlink:title="/home/travis/build\l/AliceO2Group/AliceO2\l/Detectors/EMCAL/workflow\l/src/RecoWorkflow.cxx">
<polygon fill="none" stroke="black" points="463,-0.5 463,-52.5 605,-52.5 605,-0.5 463,-0.5"/>
<text text-anchor="start" x="471" y="-40.5" font-family="Helvetica,sans-Serif" font-size="10.00">/home/travis/build</text>
<text text-anchor="start" x="471" y="-29.5" font-family="Helvetica,sans-Serif" font-size="10.00">/AliceO2Group/AliceO2</text>
<text text-anchor="start" x="471" y="-18.5" font-family="Helvetica,sans-Serif" font-size="10.00">/Detectors/EMCAL/workflow</text>
<text text-anchor="middle" x="534" y="-7.5" font-family="Helvetica,sans-Serif" font-size="10.00">/src/RecoWorkflow.cxx</text>
</a>
</g>
</g>
<!-- Node5&#45;&gt;Node7 -->
<g id="edge6" class="edge"><title>Node5&#45;&gt;Node7</title>
<path fill="none" stroke="midnightblue" d="M487.077,-81.7546C495.533,-71.9771 504.415,-61.7073 512.149,-52.7655"/>
<polygon fill="midnightblue" stroke="midnightblue" points="484.311,-79.6025 480.417,-89.4557 489.606,-84.1816 484.311,-79.6025"/>
</g>
</g>
</svg>
