<?xml version="1.0" encoding="UTF-8" standalone="no"?>
<!DOCTYPE svg PUBLIC "-//W3C//DTD SVG 1.1//EN"
 "http://www.w3.org/Graphics/SVG/1.1/DTD/svg11.dtd">
<!-- Generated by graphviz version 2.38.0 (20140413.2041)
 -->
<!-- Title: /home/travis/build/AliceO2Group/AliceO2/Detectors/ITSMFT/ITS/base/include/ITSBase/GeometryTGeo.h Pages: 1 -->
<svg width="2922pt" height="372pt"
 viewBox="0.00 0.00 2922.00 372.00" xmlns="http://www.w3.org/2000/svg" xmlns:xlink="http://www.w3.org/1999/xlink">
<g id="graph0" class="graph" transform="scale(1 1) rotate(0) translate(4 368)">
<title>/home/travis/build/AliceO2Group/AliceO2/Detectors/ITSMFT/ITS/base/include/ITSBase/GeometryTGeo.h</title>
<!-- Node1 -->
<g id="node1" class="node"><title>Node1</title>
<polygon fill="#bfbfbf" stroke="black" points="1363,-300.5 1363,-363.5 1524,-363.5 1524,-300.5 1363,-300.5"/>
<text text-anchor="start" x="1371" y="-351.5" font-family="Helvetica,sans-Serif" font-size="10.00">/home/travis/build</text>
<text text-anchor="start" x="1371" y="-340.5" font-family="Helvetica,sans-Serif" font-size="10.00">/AliceO2Group/AliceO2</text>
<text text-anchor="start" x="1371" y="-329.5" font-family="Helvetica,sans-Serif" font-size="10.00">/Detectors/ITSMFT/ITS</text>
<text text-anchor="start" x="1371" y="-318.5" font-family="Helvetica,sans-Serif" font-size="10.00">/base/include/ITSBase/Geometry</text>
<text text-anchor="middle" x="1443.5" y="-307.5" font-family="Helvetica,sans-Serif" font-size="10.00">TGeo.h</text>
</g>
<!-- Node2 -->
<g id="node2" class="node"><title>Node2</title>
<g id="a_node2"><a xlink:href="../../dc/d59/MatchTPCITS_8cxx.html" target="_top" xlink:title="/home/travis/build\l/AliceO2Group/AliceO2\l/Detectors/GlobalTracking\l/src/MatchTPCITS.cxx">
<polygon fill="none" stroke="black" points="0,-200.5 0,-252.5 131,-252.5 131,-200.5 0,-200.5"/>
<text text-anchor="start" x="8" y="-240.5" font-family="Helvetica,sans-Serif" font-size="10.00">/home/travis/build</text>
<text text-anchor="start" x="8" y="-229.5" font-family="Helvetica,sans-Serif" font-size="10.00">/AliceO2Group/AliceO2</text>
<text text-anchor="start" x="8" y="-218.5" font-family="Helvetica,sans-Serif" font-size="10.00">/Detectors/GlobalTracking</text>
<text text-anchor="middle" x="65.5" y="-207.5" font-family="Helvetica,sans-Serif" font-size="10.00">/src/MatchTPCITS.cxx</text>
</a>
</g>
</g>
<!-- Node1&#45;&gt;Node2 -->
<g id="edge1" class="edge"><title>Node1&#45;&gt;Node2</title>
<path fill="none" stroke="midnightblue" d="M1352.71,-331.03C1096.27,-330.372 370.218,-323.183 140.5,-264 130.123,-261.327 119.478,-257.149 109.588,-252.56"/>
<polygon fill="midnightblue" stroke="midnightblue" points="1352.73,-334.53 1362.74,-331.053 1352.74,-327.53 1352.73,-334.53"/>
</g>
<!-- Node3 -->
<g id="node3" class="node"><title>Node3</title>
<g id="a_node3"><a xlink:href="../../db/df2/ITS_2base_2src_2GeometryTGeo_8cxx.html" target="_top" xlink:title="/home/travis/build\l/AliceO2Group/AliceO2\l/Detectors/ITSMFT/ITS\l/base/src/GeometryTGeo.cxx">
<polygon fill="none" stroke="black" points="149.5,-200.5 149.5,-252.5 295.5,-252.5 295.5,-200.5 149.5,-200.5"/>
<text text-anchor="start" x="157.5" y="-240.5" font-family="Helvetica,sans-Serif" font-size="10.00">/home/travis/build</text>
<text text-anchor="start" x="157.5" y="-229.5" font-family="Helvetica,sans-Serif" font-size="10.00">/AliceO2Group/AliceO2</text>
<text text-anchor="start" x="157.5" y="-218.5" font-family="Helvetica,sans-Serif" font-size="10.00">/Detectors/ITSMFT/ITS</text>
<text text-anchor="middle" x="222.5" y="-207.5" font-family="Helvetica,sans-Serif" font-size="10.00">/base/src/GeometryTGeo.cxx</text>
</a>
</g>
</g>
<!-- Node1&#45;&gt;Node3 -->
<g id="edge2" class="edge"><title>Node1&#45;&gt;Node3</title>
<path fill="none" stroke="midnightblue" d="M1352.6,-329.85C1119.1,-326.225 502.68,-312.24 304.5,-264 293.447,-261.31 282.03,-257.186 271.356,-252.664"/>
<polygon fill="midnightblue" stroke="midnightblue" points="1352.71,-333.352 1362.76,-330.005 1352.81,-326.353 1352.71,-333.352"/>
</g>
<!-- Node4 -->
<g id="node4" class="node"><title>Node4</title>
<g id="a_node4"><a xlink:href="../../dd/d69/TestDataReader_8h.html" target="_top" xlink:title="/home/travis/build\l/AliceO2Group/AliceO2\l/Detectors/ITSMFT/ITS\l/QC/TestDataReaderWorkflow\l/include/ITSQCDataReaderWorkflow\l/TestDataReader.h">
<polygon fill="none" stroke="black" points="313.5,-189.5 313.5,-263.5 491.5,-263.5 491.5,-189.5 313.5,-189.5"/>
<text text-anchor="start" x="321.5" y="-251.5" font-family="Helvetica,sans-Serif" font-size="10.00">/home/travis/build</text>
<text text-anchor="start" x="321.5" y="-240.5" font-family="Helvetica,sans-Serif" font-size="10.00">/AliceO2Group/AliceO2</text>
<text text-anchor="start" x="321.5" y="-229.5" font-family="Helvetica,sans-Serif" font-size="10.00">/Detectors/ITSMFT/ITS</text>
<text text-anchor="start" x="321.5" y="-218.5" font-family="Helvetica,sans-Serif" font-size="10.00">/QC/TestDataReaderWorkflow</text>
<text text-anchor="start" x="321.5" y="-207.5" font-family="Helvetica,sans-Serif" font-size="10.00">/include/ITSQCDataReaderWorkflow</text>
<text text-anchor="middle" x="402.5" y="-196.5" font-family="Helvetica,sans-Serif" font-size="10.00">/TestDataReader.h</text>
</a>
</g>
</g>
<!-- Node1&#45;&gt;Node4 -->
<g id="edge3" class="edge"><title>Node1&#45;&gt;Node4</title>
<path fill="none" stroke="midnightblue" d="M1352.87,-327.81C1149.55,-320.126 662.272,-298.623 501.5,-264 498.277,-263.306 495.017,-262.529 491.742,-261.684"/>
<polygon fill="midnightblue" stroke="midnightblue" points="1352.8,-331.31 1362.93,-328.188 1353.06,-324.315 1352.8,-331.31"/>
</g>
<!-- Node7 -->
<g id="node7" class="node"><title>Node7</title>
<g id="a_node7"><a xlink:href="../../d9/da7/TestDataGetter_8cxx.html" target="_top" xlink:title="/home/travis/build\l/AliceO2Group/AliceO2\l/Detectors/ITSMFT/ITS\l/QC/TestDataReaderWorkflow\l/src/TestDataGetter.cxx">
<polygon fill="none" stroke="black" points="510,-195 510,-258 661,-258 661,-195 510,-195"/>
<text text-anchor="start" x="518" y="-246" font-family="Helvetica,sans-Serif" font-size="10.00">/home/travis/build</text>
<text text-anchor="start" x="518" y="-235" font-family="Helvetica,sans-Serif" font-size="10.00">/AliceO2Group/AliceO2</text>
<text text-anchor="start" x="518" y="-224" font-family="Helvetica,sans-Serif" font-size="10.00">/Detectors/ITSMFT/ITS</text>
<text text-anchor="start" x="518" y="-213" font-family="Helvetica,sans-Serif" font-size="10.00">/QC/TestDataReaderWorkflow</text>
<text text-anchor="middle" x="585.5" y="-202" font-family="Helvetica,sans-Serif" font-size="10.00">/src/TestDataGetter.cxx</text>
</a>
</g>
</g>
<!-- Node1&#45;&gt;Node7 -->
<g id="edge6" class="edge"><title>Node1&#45;&gt;Node7</title>
<path fill="none" stroke="midnightblue" d="M1352.7,-326.762C1177.18,-317.971 797.459,-295.882 670.5,-264 664.114,-262.396 657.593,-260.37 651.144,-258.098"/>
<polygon fill="midnightblue" stroke="midnightblue" points="1352.52,-330.257 1362.68,-327.259 1352.87,-323.266 1352.52,-330.257"/>
</g>
<!-- Node8 -->
<g id="node8" class="node"><title>Node8</title>
<g id="a_node8"><a xlink:href="../../d6/d67/ITSMFT_2ITS_2reconstruction_2include_2ITSReconstruction_2ClustererTask_8h.html" target="_top" xlink:title="/home/travis/build\l/AliceO2Group/AliceO2\l/Detectors/ITSMFT/ITS\l/reconstruction/include\l/ITSReconstruction/ClustererTask.h">
<polygon fill="none" stroke="black" points="679.5,-195 679.5,-258 853.5,-258 853.5,-195 679.5,-195"/>
<text text-anchor="start" x="687.5" y="-246" font-family="Helvetica,sans-Serif" font-size="10.00">/home/travis/build</text>
<text text-anchor="start" x="687.5" y="-235" font-family="Helvetica,sans-Serif" font-size="10.00">/AliceO2Group/AliceO2</text>
<text text-anchor="start" x="687.5" y="-224" font-family="Helvetica,sans-Serif" font-size="10.00">/Detectors/ITSMFT/ITS</text>
<text text-anchor="start" x="687.5" y="-213" font-family="Helvetica,sans-Serif" font-size="10.00">/reconstruction/include</text>
<text text-anchor="middle" x="766.5" y="-202" font-family="Helvetica,sans-Serif" font-size="10.00">/ITSReconstruction/ClustererTask.h</text>
</a>
</g>
</g>
<!-- Node1&#45;&gt;Node8 -->
<g id="edge7" class="edge"><title>Node1&#45;&gt;Node8</title>
<path fill="none" stroke="midnightblue" d="M1352.48,-327.372C1237.24,-321.215 1033.25,-305.083 863.5,-264 856.592,-262.328 849.507,-260.303 842.463,-258.074"/>
<polygon fill="midnightblue" stroke="midnightblue" points="1352.5,-330.878 1362.67,-327.902 1352.86,-323.887 1352.5,-330.878"/>
</g>
<!-- Node10 -->
<g id="node10" class="node"><title>Node10</title>
<g id="a_node10"><a xlink:href="../../d6/d0c/CookedTracker_8h.html" target="_top" xlink:title="Definition of the &quot;Cooked Matrix&quot; ITS tracker. ">
<polygon fill="none" stroke="black" points="872,-195 872,-258 1051,-258 1051,-195 872,-195"/>
<text text-anchor="start" x="880" y="-246" font-family="Helvetica,sans-Serif" font-size="10.00">/home/travis/build</text>
<text text-anchor="start" x="880" y="-235" font-family="Helvetica,sans-Serif" font-size="10.00">/AliceO2Group/AliceO2</text>
<text text-anchor="start" x="880" y="-224" font-family="Helvetica,sans-Serif" font-size="10.00">/Detectors/ITSMFT/ITS</text>
<text text-anchor="start" x="880" y="-213" font-family="Helvetica,sans-Serif" font-size="10.00">/reconstruction/include</text>
<text text-anchor="middle" x="961.5" y="-202" font-family="Helvetica,sans-Serif" font-size="10.00">/ITSReconstruction/CookedTracker.h</text>
</a>
</g>
</g>
<!-- Node1&#45;&gt;Node10 -->
<g id="edge9" class="edge"><title>Node1&#45;&gt;Node10</title>
<path fill="none" stroke="midnightblue" d="M1352.51,-319.099C1275.38,-308.008 1162.21,-289.363 1065.5,-264 1058.74,-262.228 1051.8,-260.22 1044.86,-258.078"/>
<polygon fill="midnightblue" stroke="midnightblue" points="1352.28,-322.602 1362.67,-320.547 1353.27,-315.672 1352.28,-322.602"/>
</g>
<!-- Node13 -->
<g id="node13" class="node"><title>Node13</title>
<g id="a_node13"><a xlink:href="../../d6/dbc/CookedTrackerSpec_8cxx.html" target="_top" xlink:title="/home/travis/build\l/AliceO2Group/AliceO2\l/Detectors/ITSMFT/ITS\l/workflow/src/CookedTrackerSpec.cxx">
<polygon fill="none" stroke="black" points="986.5,-0.5 986.5,-52.5 1172.5,-52.5 1172.5,-0.5 986.5,-0.5"/>
<text text-anchor="start" x="994.5" y="-40.5" font-family="Helvetica,sans-Serif" font-size="10.00">/home/travis/build</text>
<text text-anchor="start" x="994.5" y="-29.5" font-family="Helvetica,sans-Serif" font-size="10.00">/AliceO2Group/AliceO2</text>
<text text-anchor="start" x="994.5" y="-18.5" font-family="Helvetica,sans-Serif" font-size="10.00">/Detectors/ITSMFT/ITS</text>
<text text-anchor="middle" x="1079.5" y="-7.5" font-family="Helvetica,sans-Serif" font-size="10.00">/workflow/src/CookedTrackerSpec.cxx</text>
</a>
</g>
</g>
<!-- Node1&#45;&gt;Node13 -->
<g id="edge22" class="edge"><title>Node1&#45;&gt;Node13</title>
<path fill="none" stroke="midnightblue" d="M1352.93,-325.56C1262.28,-318.074 1131.62,-301.045 1098.5,-264 1045.51,-204.737 1061.62,-100.411 1072.76,-52.6519"/>
<polygon fill="midnightblue" stroke="midnightblue" points="1352.71,-329.053 1362.95,-326.362 1353.26,-322.075 1352.71,-329.053"/>
</g>
<!-- Node15 -->
<g id="node15" class="node"><title>Node15</title>
<g id="a_node15"><a xlink:href="../../d6/d49/TrivialClustererTask_8h.html" target="_top" xlink:title="Definition of the ITS cluster finder task. ">
<polygon fill="none" stroke="black" points="1107.5,-189.5 1107.5,-263.5 1277.5,-263.5 1277.5,-189.5 1107.5,-189.5"/>
<text text-anchor="start" x="1115.5" y="-251.5" font-family="Helvetica,sans-Serif" font-size="10.00">/home/travis/build</text>
<text text-anchor="start" x="1115.5" y="-240.5" font-family="Helvetica,sans-Serif" font-size="10.00">/AliceO2Group/AliceO2</text>
<text text-anchor="start" x="1115.5" y="-229.5" font-family="Helvetica,sans-Serif" font-size="10.00">/Detectors/ITSMFT/ITS</text>
<text text-anchor="start" x="1115.5" y="-218.5" font-family="Helvetica,sans-Serif" font-size="10.00">/reconstruction/include</text>
<text text-anchor="start" x="1115.5" y="-207.5" font-family="Helvetica,sans-Serif" font-size="10.00">/ITSReconstruction/TrivialClusterer</text>
<text text-anchor="middle" x="1192.5" y="-196.5" font-family="Helvetica,sans-Serif" font-size="10.00">Task.h</text>
</a>
</g>
</g>
<!-- Node1&#45;&gt;Node15 -->
<g id="edge14" class="edge"><title>Node1&#45;&gt;Node15</title>
<path fill="none" stroke="midnightblue" d="M1359.63,-296.414C1333.24,-285.536 1304.09,-273.515 1277.62,-262.601"/>
<polygon fill="midnightblue" stroke="midnightblue" points="1358.63,-299.79 1369.21,-300.367 1361.3,-293.319 1358.63,-299.79"/>
</g>
<!-- Node17 -->
<g id="node17" class="node"><title>Node17</title>
<g id="a_node17"><a xlink:href="../../d9/d0d/ITSMFT_2ITS_2simulation_2src_2Detector_8cxx.html" target="_top" xlink:title="/home/travis/build\l/AliceO2Group/AliceO2\l/Detectors/ITSMFT/ITS\l/simulation/src/Detector.cxx">
<polygon fill="none" stroke="black" points="1295.5,-200.5 1295.5,-252.5 1435.5,-252.5 1435.5,-200.5 1295.5,-200.5"/>
<text text-anchor="start" x="1303.5" y="-240.5" font-family="Helvetica,sans-Serif" font-size="10.00">/home/travis/build</text>
<text text-anchor="start" x="1303.5" y="-229.5" font-family="Helvetica,sans-Serif" font-size="10.00">/AliceO2Group/AliceO2</text>
<text text-anchor="start" x="1303.5" y="-218.5" font-family="Helvetica,sans-Serif" font-size="10.00">/Detectors/ITSMFT/ITS</text>
<text text-anchor="middle" x="1365.5" y="-207.5" font-family="Helvetica,sans-Serif" font-size="10.00">/simulation/src/Detector.cxx</text>
</a>
</g>
</g>
<!-- Node1&#45;&gt;Node17 -->
<g id="edge16" class="edge"><title>Node1&#45;&gt;Node17</title>
<path fill="none" stroke="midnightblue" d="M1414.26,-292.201C1404.32,-279.008 1393.47,-264.614 1384.54,-252.76"/>
<polygon fill="midnightblue" stroke="midnightblue" points="1411.49,-294.347 1420.31,-300.227 1417.09,-290.134 1411.49,-294.347"/>
</g>
<!-- Node18 -->
<g id="node18" class="node"><title>Node18</title>
<g id="a_node18"><a xlink:href="../../d5/dda/V1Layer_8cxx.html" target="_top" xlink:title="Implementation of the V1Layer class. ">
<polygon fill="none" stroke="black" points="1453.5,-200.5 1453.5,-252.5 1591.5,-252.5 1591.5,-200.5 1453.5,-200.5"/>
<text text-anchor="start" x="1461.5" y="-240.5" font-family="Helvetica,sans-Serif" font-size="10.00">/home/travis/build</text>
<text text-anchor="start" x="1461.5" y="-229.5" font-family="Helvetica,sans-Serif" font-size="10.00">/AliceO2Group/AliceO2</text>
<text text-anchor="start" x="1461.5" y="-218.5" font-family="Helvetica,sans-Serif" font-size="10.00">/Detectors/ITSMFT/ITS</text>
<text text-anchor="middle" x="1522.5" y="-207.5" font-family="Helvetica,sans-Serif" font-size="10.00">/simulation/src/V1Layer.cxx</text>
</a>
</g>
</g>
<!-- Node1&#45;&gt;Node18 -->
<g id="edge17" class="edge"><title>Node1&#45;&gt;Node18</title>
<path fill="none" stroke="midnightblue" d="M1473.11,-292.201C1483.19,-279.008 1494.17,-264.614 1503.22,-252.76"/>
<polygon fill="midnightblue" stroke="midnightblue" points="1470.27,-290.154 1466.99,-300.227 1475.84,-294.401 1470.27,-290.154"/>
</g>
<!-- Node19 -->
<g id="node19" class="node"><title>Node19</title>
<g id="a_node19"><a xlink:href="../../d9/d7c/V3Layer_8cxx.html" target="_top" xlink:title="Implementation of the V3Layer class. ">
<polygon fill="none" stroke="black" points="1609.5,-200.5 1609.5,-252.5 1747.5,-252.5 1747.5,-200.5 1609.5,-200.5"/>
<text text-anchor="start" x="1617.5" y="-240.5" font-family="Helvetica,sans-Serif" font-size="10.00">/home/travis/build</text>
<text text-anchor="start" x="1617.5" y="-229.5" font-family="Helvetica,sans-Serif" font-size="10.00">/AliceO2Group/AliceO2</text>
<text text-anchor="start" x="1617.5" y="-218.5" font-family="Helvetica,sans-Serif" font-size="10.00">/Detectors/ITSMFT/ITS</text>
<text text-anchor="middle" x="1678.5" y="-207.5" font-family="Helvetica,sans-Serif" font-size="10.00">/simulation/src/V3Layer.cxx</text>
</a>
</g>
</g>
<!-- Node1&#45;&gt;Node19 -->
<g id="edge18" class="edge"><title>Node1&#45;&gt;Node19</title>
<path fill="none" stroke="midnightblue" d="M1525.89,-296.466C1550.01,-286.188 1576.38,-274.787 1600.5,-264 1608.55,-260.399 1617.04,-256.519 1625.33,-252.68"/>
<polygon fill="midnightblue" stroke="midnightblue" points="1524.25,-293.361 1516.42,-300.496 1526.99,-299.803 1524.25,-293.361"/>
</g>
<!-- Node20 -->
<g id="node20" class="node"><title>Node20</title>
<g id="a_node20"><a xlink:href="../../da/dd7/V3Services_8cxx.html" target="_top" xlink:title="Implementation of the V3Services class. ">
<polygon fill="none" stroke="black" points="1765.5,-200.5 1765.5,-252.5 1917.5,-252.5 1917.5,-200.5 1765.5,-200.5"/>
<text text-anchor="start" x="1773.5" y="-240.5" font-family="Helvetica,sans-Serif" font-size="10.00">/home/travis/build</text>
<text text-anchor="start" x="1773.5" y="-229.5" font-family="Helvetica,sans-Serif" font-size="10.00">/AliceO2Group/AliceO2</text>
<text text-anchor="start" x="1773.5" y="-218.5" font-family="Helvetica,sans-Serif" font-size="10.00">/Detectors/ITSMFT/ITS</text>
<text text-anchor="middle" x="1841.5" y="-207.5" font-family="Helvetica,sans-Serif" font-size="10.00">/simulation/src/V3Services.cxx</text>
</a>
</g>
</g>
<!-- Node1&#45;&gt;Node20 -->
<g id="edge19" class="edge"><title>Node1&#45;&gt;Node20</title>
<path fill="none" stroke="midnightblue" d="M1533.99,-316.449C1597.16,-305.128 1682.99,-287.405 1756.5,-264 1766.6,-260.784 1777.14,-256.801 1787.23,-252.659"/>
<polygon fill="midnightblue" stroke="midnightblue" points="1533.29,-313.019 1524.06,-318.211 1534.51,-319.912 1533.29,-313.019"/>
</g>
<!-- Node21 -->
<g id="node21" class="node"><title>Node21</title>
<g id="a_node21"><a xlink:href="../../d5/d13/ITS_2tracking_2src_2IOUtils_8cxx.html" target="_top" xlink:title="/home/travis/build\l/AliceO2Group/AliceO2\l/Detectors/ITSMFT/ITS\l/tracking/src/IOUtils.cxx">
<polygon fill="none" stroke="black" points="1936,-200.5 1936,-252.5 2059,-252.5 2059,-200.5 1936,-200.5"/>
<text text-anchor="start" x="1944" y="-240.5" font-family="Helvetica,sans-Serif" font-size="10.00">/home/travis/build</text>
<text text-anchor="start" x="1944" y="-229.5" font-family="Helvetica,sans-Serif" font-size="10.00">/AliceO2Group/AliceO2</text>
<text text-anchor="start" x="1944" y="-218.5" font-family="Helvetica,sans-Serif" font-size="10.00">/Detectors/ITSMFT/ITS</text>
<text text-anchor="middle" x="1997.5" y="-207.5" font-family="Helvetica,sans-Serif" font-size="10.00">/tracking/src/IOUtils.cxx</text>
</a>
</g>
</g>
<!-- Node1&#45;&gt;Node21 -->
<g id="edge20" class="edge"><title>Node1&#45;&gt;Node21</title>
<path fill="none" stroke="midnightblue" d="M1534.61,-327.477C1633.24,-321.581 1794.17,-305.857 1926.5,-264 1935.75,-261.074 1945.25,-257.019 1954.17,-252.672"/>
<polygon fill="midnightblue" stroke="midnightblue" points="1534.16,-323.997 1524.38,-328.067 1534.56,-330.986 1534.16,-323.997"/>
</g>
<!-- Node22 -->
<g id="node22" class="node"><title>Node22</title>
<g id="a_node22"><a xlink:href="../../d3/da3/ITSMFT_2ITS_2workflow_2src_2ClustererSpec_8cxx.html" target="_top" xlink:title="/home/travis/build\l/AliceO2Group/AliceO2\l/Detectors/ITSMFT/ITS\l/workflow/src/ClustererSpec.cxx">
<polygon fill="none" stroke="black" points="2077,-200.5 2077,-252.5 2236,-252.5 2236,-200.5 2077,-200.5"/>
<text text-anchor="start" x="2085" y="-240.5" font-family="Helvetica,sans-Serif" font-size="10.00">/home/travis/build</text>
<text text-anchor="start" x="2085" y="-229.5" font-family="Helvetica,sans-Serif" font-size="10.00">/AliceO2Group/AliceO2</text>
<text text-anchor="start" x="2085" y="-218.5" font-family="Helvetica,sans-Serif" font-size="10.00">/Detectors/ITSMFT/ITS</text>
<text text-anchor="middle" x="2156.5" y="-207.5" font-family="Helvetica,sans-Serif" font-size="10.00">/workflow/src/ClustererSpec.cxx</text>
</a>
</g>
</g>
<!-- Node1&#45;&gt;Node22 -->
<g id="edge21" class="edge"><title>Node1&#45;&gt;Node22</title>
<path fill="none" stroke="midnightblue" d="M1534.34,-329.368C1657.27,-325.335 1882.61,-311.463 2068.5,-264 2079.88,-261.095 2091.71,-256.994 2102.88,-252.583"/>
<polygon fill="midnightblue" stroke="midnightblue" points="1534.1,-325.873 1524.22,-329.685 1534.32,-332.87 1534.1,-325.873"/>
</g>
<!-- Node23 -->
<g id="node23" class="node"><title>Node23</title>
<g id="a_node23"><a xlink:href="../../de/d95/ITSMFT_2ITS_2workflow_2src_2TrackerSpec_8cxx.html" target="_top" xlink:title="/home/travis/build\l/AliceO2Group/AliceO2\l/Detectors/ITSMFT/ITS\l/workflow/src/TrackerSpec.cxx">
<polygon fill="none" stroke="black" points="2254.5,-200.5 2254.5,-252.5 2406.5,-252.5 2406.5,-200.5 2254.5,-200.5"/>
<text text-anchor="start" x="2262.5" y="-240.5" font-family="Helvetica,sans-Serif" font-size="10.00">/home/travis/build</text>
<text text-anchor="start" x="2262.5" y="-229.5" font-family="Helvetica,sans-Serif" font-size="10.00">/AliceO2Group/AliceO2</text>
<text text-anchor="start" x="2262.5" y="-218.5" font-family="Helvetica,sans-Serif" font-size="10.00">/Detectors/ITSMFT/ITS</text>
<text text-anchor="middle" x="2330.5" y="-207.5" font-family="Helvetica,sans-Serif" font-size="10.00">/workflow/src/TrackerSpec.cxx</text>
</a>
</g>
</g>
<!-- Node1&#45;&gt;Node23 -->
<g id="edge23" class="edge"><title>Node1&#45;&gt;Node23</title>
<path fill="none" stroke="midnightblue" d="M1534.02,-327.104C1714.43,-318.738 2112.86,-297.088 2245.5,-264 2256.72,-261.201 2268.35,-257.089 2279.28,-252.625"/>
<polygon fill="midnightblue" stroke="midnightblue" points="1533.85,-323.608 1524.02,-327.564 1534.17,-330.601 1533.85,-323.608"/>
</g>
<!-- Node24 -->
<g id="node24" class="node"><title>Node24</title>
<g id="a_node24"><a xlink:href="../../d7/d4c/HitAnalysis_8cxx.html" target="_top" xlink:title="/home/travis/build\l/AliceO2Group/AliceO2\l/Detectors/ITSMFT/test\l/HitAnalysis/src/HitAnalysis.cxx">
<polygon fill="none" stroke="black" points="2424.5,-200.5 2424.5,-252.5 2582.5,-252.5 2582.5,-200.5 2424.5,-200.5"/>
<text text-anchor="start" x="2432.5" y="-240.5" font-family="Helvetica,sans-Serif" font-size="10.00">/home/travis/build</text>
<text text-anchor="start" x="2432.5" y="-229.5" font-family="Helvetica,sans-Serif" font-size="10.00">/AliceO2Group/AliceO2</text>
<text text-anchor="start" x="2432.5" y="-218.5" font-family="Helvetica,sans-Serif" font-size="10.00">/Detectors/ITSMFT/test</text>
<text text-anchor="middle" x="2503.5" y="-207.5" font-family="Helvetica,sans-Serif" font-size="10.00">/HitAnalysis/src/HitAnalysis.cxx</text>
</a>
</g>
</g>
<!-- Node1&#45;&gt;Node24 -->
<g id="edge24" class="edge"><title>Node1&#45;&gt;Node24</title>
<path fill="none" stroke="midnightblue" d="M1534.43,-328.486C1742.8,-322.117 2249.63,-303.012 2415.5,-264 2427.25,-261.236 2439.46,-257.08 2450.9,-252.551"/>
<polygon fill="midnightblue" stroke="midnightblue" points="1534.02,-324.996 1524.13,-328.797 1534.23,-331.993 1534.02,-324.996"/>
</g>
<!-- Node25 -->
<g id="node25" class="node"><title>Node25</title>
<g id="a_node25"><a xlink:href="../../d2/d8a/DataInterpreterITS_8cxx.html" target="_top" xlink:title="converting ITS data to Event Visualisation primitives ">
<polygon fill="none" stroke="black" points="2600.5,-200.5 2600.5,-252.5 2746.5,-252.5 2746.5,-200.5 2600.5,-200.5"/>
<text text-anchor="start" x="2608.5" y="-240.5" font-family="Helvetica,sans-Serif" font-size="10.00">/home/travis/build</text>
<text text-anchor="start" x="2608.5" y="-229.5" font-family="Helvetica,sans-Serif" font-size="10.00">/AliceO2Group/AliceO2</text>
<text text-anchor="start" x="2608.5" y="-218.5" font-family="Helvetica,sans-Serif" font-size="10.00">/EventVisualisation/Detectors</text>
<text text-anchor="middle" x="2673.5" y="-207.5" font-family="Helvetica,sans-Serif" font-size="10.00">/src/DataInterpreterITS.cxx</text>
</a>
</g>
</g>
<!-- Node1&#45;&gt;Node25 -->
<g id="edge25" class="edge"><title>Node1&#45;&gt;Node25</title>
<path fill="none" stroke="midnightblue" d="M1534.27,-329.901C1768.98,-326.389 2391.51,-312.632 2591.5,-264 2602.55,-261.312 2613.97,-257.189 2624.65,-252.668"/>
<polygon fill="midnightblue" stroke="midnightblue" points="1534.01,-326.404 1524.07,-330.051 1534.12,-333.403 1534.01,-326.404"/>
</g>
<!-- Node26 -->
<g id="node26" class="node"><title>Node26</title>
<g id="a_node26"><a xlink:href="../../d3/d43/ITSMFTDigitizerSpec_8cxx.html" target="_top" xlink:title="/home/travis/build\l/AliceO2Group/AliceO2\l/Steer/DigitizerWorkflow\l/src/ITSMFTDigitizerSpec.cxx">
<polygon fill="none" stroke="black" points="2765,-200.5 2765,-252.5 2914,-252.5 2914,-200.5 2765,-200.5"/>
<text text-anchor="start" x="2773" y="-240.5" font-family="Helvetica,sans-Serif" font-size="10.00">/home/travis/build</text>
<text text-anchor="start" x="2773" y="-229.5" font-family="Helvetica,sans-Serif" font-size="10.00">/AliceO2Group/AliceO2</text>
<text text-anchor="start" x="2773" y="-218.5" font-family="Helvetica,sans-Serif" font-size="10.00">/Steer/DigitizerWorkflow</text>
<text text-anchor="middle" x="2839.5" y="-207.5" font-family="Helvetica,sans-Serif" font-size="10.00">/src/ITSMFTDigitizerSpec.cxx</text>
</a>
</g>
</g>
<!-- Node1&#45;&gt;Node26 -->
<g id="edge26" class="edge"><title>Node1&#45;&gt;Node26</title>
<path fill="none" stroke="midnightblue" d="M1534.34,-330.575C1791.82,-328.704 2522.83,-318.594 2755.5,-264 2766.96,-261.312 2778.81,-257.128 2789.87,-252.538"/>
<polygon fill="midnightblue" stroke="midnightblue" points="1534.25,-327.076 1524.27,-330.646 1534.3,-334.075 1534.25,-327.076"/>
</g>
<!-- Node5 -->
<g id="node5" class="node"><title>Node5</title>
<g id="a_node5"><a xlink:href="../../d0/dd9/TestDataReader_8cxx.html" target="_top" xlink:title="/home/travis/build\l/AliceO2Group/AliceO2\l/Detectors/ITSMFT/ITS\l/QC/TestDataReaderWorkflow\l/src/TestDataReader.cxx">
<polygon fill="none" stroke="black" points="140,-89.5 140,-152.5 291,-152.5 291,-89.5 140,-89.5"/>
<text text-anchor="start" x="148" y="-140.5" font-family="Helvetica,sans-Serif" font-size="10.00">/home/travis/build</text>
<text text-anchor="start" x="148" y="-129.5" font-family="Helvetica,sans-Serif" font-size="10.00">/AliceO2Group/AliceO2</text>
<text text-anchor="start" x="148" y="-118.5" font-family="Helvetica,sans-Serif" font-size="10.00">/Detectors/ITSMFT/ITS</text>
<text text-anchor="start" x="148" y="-107.5" font-family="Helvetica,sans-Serif" font-size="10.00">/QC/TestDataReaderWorkflow</text>
<text text-anchor="middle" x="215.5" y="-96.5" font-family="Helvetica,sans-Serif" font-size="10.00">/src/TestDataReader.cxx</text>
</a>
</g>
</g>
<!-- Node4&#45;&gt;Node5 -->
<g id="edge4" class="edge"><title>Node4&#45;&gt;Node5</title>
<path fill="none" stroke="midnightblue" d="M328.601,-184.598C309.333,-173.934 288.903,-162.627 270.785,-152.599"/>
<polygon fill="midnightblue" stroke="midnightblue" points="326.915,-187.666 337.359,-189.446 330.305,-181.541 326.915,-187.666"/>
</g>
<!-- Node6 -->
<g id="node6" class="node"><title>Node6</title>
<g id="a_node6"><a xlink:href="../../d1/dc6/TestDataReaderWorkflow_8cxx.html" target="_top" xlink:title="/home/travis/build\l/AliceO2Group/AliceO2\l/Detectors/ITSMFT/ITS\l/QC/TestDataReaderWorkflow\l/src/TestDataReaderWorkflow.cxx">
<polygon fill="none" stroke="black" points="309.5,-89.5 309.5,-152.5 477.5,-152.5 477.5,-89.5 309.5,-89.5"/>
<text text-anchor="start" x="317.5" y="-140.5" font-family="Helvetica,sans-Serif" font-size="10.00">/home/travis/build</text>
<text text-anchor="start" x="317.5" y="-129.5" font-family="Helvetica,sans-Serif" font-size="10.00">/AliceO2Group/AliceO2</text>
<text text-anchor="start" x="317.5" y="-118.5" font-family="Helvetica,sans-Serif" font-size="10.00">/Detectors/ITSMFT/ITS</text>
<text text-anchor="start" x="317.5" y="-107.5" font-family="Helvetica,sans-Serif" font-size="10.00">/QC/TestDataReaderWorkflow</text>
<text text-anchor="middle" x="393.5" y="-96.5" font-family="Helvetica,sans-Serif" font-size="10.00">/src/TestDataReaderWorkflow.cxx</text>
</a>
</g>
</g>
<!-- Node4&#45;&gt;Node6 -->
<g id="edge5" class="edge"><title>Node4&#45;&gt;Node6</title>
<path fill="none" stroke="midnightblue" d="M398.477,-179.234C397.689,-170.179 396.882,-160.898 396.154,-152.515"/>
<polygon fill="midnightblue" stroke="midnightblue" points="394.999,-179.642 399.352,-189.301 401.973,-179.035 394.999,-179.642"/>
</g>
<!-- Node9 -->
<g id="node9" class="node"><title>Node9</title>
<g id="a_node9"><a xlink:href="../../d8/d95/ITSMFT_2ITS_2reconstruction_2src_2ClustererTask_8cxx.html" target="_top" xlink:title="/home/travis/build\l/AliceO2Group/AliceO2\l/Detectors/ITSMFT/ITS\l/reconstruction/src/ClustererTask.cxx">
<polygon fill="none" stroke="black" points="496,-95 496,-147 677,-147 677,-95 496,-95"/>
<text text-anchor="start" x="504" y="-135" font-family="Helvetica,sans-Serif" font-size="10.00">/home/travis/build</text>
<text text-anchor="start" x="504" y="-124" font-family="Helvetica,sans-Serif" font-size="10.00">/AliceO2Group/AliceO2</text>
<text text-anchor="start" x="504" y="-113" font-family="Helvetica,sans-Serif" font-size="10.00">/Detectors/ITSMFT/ITS</text>
<text text-anchor="middle" x="586.5" y="-102" font-family="Helvetica,sans-Serif" font-size="10.00">/reconstruction/src/ClustererTask.cxx</text>
</a>
</g>
</g>
<!-- Node8&#45;&gt;Node9 -->
<g id="edge8" class="edge"><title>Node8&#45;&gt;Node9</title>
<path fill="none" stroke="midnightblue" d="M704.144,-189.645C679.748,-175.618 652.35,-159.864 630.137,-147.091"/>
<polygon fill="midnightblue" stroke="midnightblue" points="702.568,-192.776 712.981,-194.727 706.057,-186.708 702.568,-192.776"/>
</g>
<!-- Node11 -->
<g id="node11" class="node"><title>Node11</title>
<g id="a_node11"><a xlink:href="../../d7/dca/CookedTracker_8cxx.html" target="_top" xlink:title="Implementation of the &quot;Cooked Matrix&quot; ITS tracker. ">
<polygon fill="none" stroke="black" points="695.5,-95 695.5,-147 881.5,-147 881.5,-95 695.5,-95"/>
<text text-anchor="start" x="703.5" y="-135" font-family="Helvetica,sans-Serif" font-size="10.00">/home/travis/build</text>
<text text-anchor="start" x="703.5" y="-124" font-family="Helvetica,sans-Serif" font-size="10.00">/AliceO2Group/AliceO2</text>
<text text-anchor="start" x="703.5" y="-113" font-family="Helvetica,sans-Serif" font-size="10.00">/Detectors/ITSMFT/ITS</text>
<text text-anchor="middle" x="788.5" y="-102" font-family="Helvetica,sans-Serif" font-size="10.00">/reconstruction/src/CookedTracker.cxx</text>
</a>
</g>
</g>
<!-- Node10&#45;&gt;Node11 -->
<g id="edge10" class="edge"><title>Node10&#45;&gt;Node11</title>
<path fill="none" stroke="midnightblue" d="M901.261,-189.461C877.891,-175.48 851.696,-159.808 830.44,-147.091"/>
<polygon fill="midnightblue" stroke="midnightblue" points="899.684,-192.596 910.063,-194.727 903.278,-186.589 899.684,-192.596"/>
</g>
<!-- Node12 -->
<g id="node12" class="node"><title>Node12</title>
<g id="a_node12"><a xlink:href="../../d2/d0b/CookedTrackerSpec_8h.html" target="_top" xlink:title="/home/travis/build\l/AliceO2Group/AliceO2\l/Detectors/ITSMFT/ITS\l/workflow/include/ITSWorkflow\l/CookedTrackerSpec.h">
<polygon fill="none" stroke="black" points="899.5,-89.5 899.5,-152.5 1051.5,-152.5 1051.5,-89.5 899.5,-89.5"/>
<text text-anchor="start" x="907.5" y="-140.5" font-family="Helvetica,sans-Serif" font-size="10.00">/home/travis/build</text>
<text text-anchor="start" x="907.5" y="-129.5" font-family="Helvetica,sans-Serif" font-size="10.00">/AliceO2Group/AliceO2</text>
<text text-anchor="start" x="907.5" y="-118.5" font-family="Helvetica,sans-Serif" font-size="10.00">/Detectors/ITSMFT/ITS</text>
<text text-anchor="start" x="907.5" y="-107.5" font-family="Helvetica,sans-Serif" font-size="10.00">/workflow/include/ITSWorkflow</text>
<text text-anchor="middle" x="975.5" y="-96.5" font-family="Helvetica,sans-Serif" font-size="10.00">/CookedTrackerSpec.h</text>
</a>
</g>
</g>
<!-- Node10&#45;&gt;Node12 -->
<g id="edge11" class="edge"><title>Node10&#45;&gt;Node12</title>
<path fill="none" stroke="midnightblue" d="M967.007,-184.791C968.445,-174.153 969.973,-162.863 971.329,-152.833"/>
<polygon fill="midnightblue" stroke="midnightblue" points="963.535,-184.348 965.663,-194.727 970.472,-185.286 963.535,-184.348"/>
</g>
<!-- Node12&#45;&gt;Node13 -->
<g id="edge12" class="edge"><title>Node12&#45;&gt;Node13</title>
<path fill="none" stroke="midnightblue" d="M1017.52,-82.6245C1028.81,-72.5884 1040.74,-61.9729 1051.09,-52.7655"/>
<polygon fill="midnightblue" stroke="midnightblue" points="1014.99,-80.1945 1009.84,-89.4557 1019.64,-85.425 1014.99,-80.1945"/>
</g>
<!-- Node14 -->
<g id="node14" class="node"><title>Node14</title>
<g id="a_node14"><a xlink:href="../../d5/d99/ITSMFT_2ITS_2workflow_2src_2RecoWorkflow_8cxx.html" target="_top" xlink:title="/home/travis/build\l/AliceO2Group/AliceO2\l/Detectors/ITSMFT/ITS\l/workflow/src/RecoWorkflow.cxx">
<polygon fill="none" stroke="black" points="807,-0.5 807,-52.5 968,-52.5 968,-0.5 807,-0.5"/>
<text text-anchor="start" x="815" y="-40.5" font-family="Helvetica,sans-Serif" font-size="10.00">/home/travis/build</text>
<text text-anchor="start" x="815" y="-29.5" font-family="Helvetica,sans-Serif" font-size="10.00">/AliceO2Group/AliceO2</text>
<text text-anchor="start" x="815" y="-18.5" font-family="Helvetica,sans-Serif" font-size="10.00">/Detectors/ITSMFT/ITS</text>
<text text-anchor="middle" x="887.5" y="-7.5" font-family="Helvetica,sans-Serif" font-size="10.00">/workflow/src/RecoWorkflow.cxx</text>
</a>
</g>
</g>
<!-- Node12&#45;&gt;Node14 -->
<g id="edge13" class="edge"><title>Node12&#45;&gt;Node14</title>
<path fill="none" stroke="midnightblue" d="M939.391,-82.0449C930.007,-72.1806 920.127,-61.7958 911.536,-52.7655"/>
<polygon fill="midnightblue" stroke="midnightblue" points="937.013,-84.623 946.442,-89.4557 942.085,-79.7981 937.013,-84.623"/>
</g>
<!-- Node16 -->
<g id="node16" class="node"><title>Node16</title>
<g id="a_node16"><a xlink:href="../../dd/d81/TrivialClustererTask_8cxx.html" target="_top" xlink:title="Implementation of the ITS cluster finder task. ">
<polygon fill="none" stroke="black" points="1109,-89.5 1109,-152.5 1276,-152.5 1276,-89.5 1109,-89.5"/>
<text text-anchor="start" x="1117" y="-140.5" font-family="Helvetica,sans-Serif" font-size="10.00">/home/travis/build</text>
<text text-anchor="start" x="1117" y="-129.5" font-family="Helvetica,sans-Serif" font-size="10.00">/AliceO2Group/AliceO2</text>
<text text-anchor="start" x="1117" y="-118.5" font-family="Helvetica,sans-Serif" font-size="10.00">/Detectors/ITSMFT/ITS</text>
<text text-anchor="start" x="1117" y="-107.5" font-family="Helvetica,sans-Serif" font-size="10.00">/reconstruction/src/TrivialClusterer</text>
<text text-anchor="middle" x="1192.5" y="-96.5" font-family="Helvetica,sans-Serif" font-size="10.00">Task.cxx</text>
</a>
</g>
</g>
<!-- Node15&#45;&gt;Node16 -->
<g id="edge15" class="edge"><title>Node15&#45;&gt;Node16</title>
<path fill="none" stroke="midnightblue" d="M1192.5,-179.234C1192.5,-170.179 1192.5,-160.898 1192.5,-152.515"/>
<polygon fill="midnightblue" stroke="midnightblue" points="1189,-179.301 1192.5,-189.301 1196,-179.301 1189,-179.301"/>
</g>
</g>
</svg>
