<?xml version="1.0" encoding="UTF-8" standalone="no"?>
<!DOCTYPE svg PUBLIC "-//W3C//DTD SVG 1.1//EN"
 "http://www.w3.org/Graphics/SVG/1.1/DTD/svg11.dtd">
<!-- Generated by graphviz version 2.38.0 (20140413.2041)
 -->
<!-- Title: o2::tpc::ParameterDetector Pages: 1 -->
<!--zoomable 1026 -->
<svg id="main" version="1.1" xmlns="http://www.w3.org/2000/svg" xmlns:xlink="http://www.w3.org/1999/xlink" xml:space="preserve" onload="init(evt)">
<style type="text/css"><![CDATA[
.edge:hover path { stroke: red; }
.edge:hover polygon { stroke: red; fill: red; }
]]></style>
<script type="text/javascript"><![CDATA[
var edges = document.getElementsByTagName('g');
if (edges && edges.length) {
  for (var i=0;i<edges.length;i++) {
    if (edges[i].id.substr(0,4)=='edge') {
      edges[i].setAttribute('class','edge');
    }
  }
}
]]></script>
        <defs>
                <circle id="rim" cx="0" cy="0" r="7"/>
                <circle id="rim2" cx="0" cy="0" r="3.5"/>
                <g id="zoomPlus">
                        <use xlink:href="#rim" fill="#404040">
                                <set attributeName="fill" to="#808080" begin="zoomplus.mouseover" end="zoomplus.mouseout"/>
                        </use>
                        <path d="M-4,0h8M0,-4v8" fill="none" stroke="white" stroke-width="1.5" pointer-events="none"/>
                </g>
                <g id="zoomMin">
                        <use xlink:href="#rim" fill="#404040">
                                <set attributeName="fill" to="#808080" begin="zoomminus.mouseover" end="zoomminus.mouseout"/>
                        </use>
                        <path d="M-4,0h8" fill="none" stroke="white" stroke-width="1.5" pointer-events="none"/>
                </g>
                <g id="dirArrow">
                        <path fill="none" stroke="white" stroke-width="1.5" d="M0,-3.0v7 M-2.5,-0.5L0,-3.0L2.5,-0.5"/>
                </g>
               <g id="resetDef">
                       <use xlink:href="#rim2" fill="#404040">
                               <set attributeName="fill" to="#808080" begin="reset.mouseover" end="reset.mouseout"/>
                       </use>
               </g>
        </defs>

<script type="text/javascript">
var viewWidth = 360;
var viewHeight = 1026;
var sectionId = 'dynsection-1';
</script>
<script xlink:href="../../svgpan.js"/>
<svg id="graph" class="graph">
<g id="viewport">
<title>o2::tpc::ParameterDetector</title>
<!-- Node1 -->
<g id="node1" class="node"><title>Node1</title>
<polygon fill="#bfbfbf" stroke="black" points="114.5,-0.5 114.5,-57.5 249.5,-57.5 249.5,-0.5 114.5,-0.5"/>
<text text-anchor="middle" x="182" y="-45.5" font-family="Helvetica,sans-Serif" font-size="10.00">o2::tpc::ParameterDetector</text>
<polyline fill="none" stroke="black" points="114.5,-38.5 249.5,-38.5 "/>
<text text-anchor="middle" x="182" y="-26.5" font-family="Helvetica,sans-Serif" font-size="10.00"> </text>
<polyline fill="none" stroke="black" points="114.5,-19.5 249.5,-19.5 "/>
<text text-anchor="start" x="122.5" y="-7.5" font-family="Helvetica,sans-Serif" font-size="10.00">+ O2ParamDef()</text>
</g>
<!-- Node2 -->
<g id="node2" class="node"><title>Node2</title>
<g id="a_node2"><a xlink:href="../../d7/d50/classo2_1_1conf_1_1ConfigurableParamHelper.html" target="_top" xlink:title="{o2::conf::ConfigurableParam\lHelper\&lt; ParameterDetector \&gt;\n||+ getName()\l+ printKeyValues()\l+ output()\l+ getDataMembers()\l+ putKeyValues()\l+ initFrom()\l+ serializeTo()\l+ Instance()\l}">
<polygon fill="none" stroke="black" points="0,-116.5 0,-261.5 146,-261.5 146,-116.5 0,-116.5"/>
<text text-anchor="start" x="8" y="-249.5" font-family="Helvetica,sans-Serif" font-size="10.00">o2::conf::ConfigurableParam</text>
<text text-anchor="middle" x="73" y="-238.5" font-family="Helvetica,sans-Serif" font-size="10.00">Helper&lt; ParameterDetector &gt;</text>
<polyline fill="none" stroke="black" points="0,-231.5 146,-231.5 "/>
<text text-anchor="middle" x="73" y="-219.5" font-family="Helvetica,sans-Serif" font-size="10.00"> </text>
<polyline fill="none" stroke="black" points="0,-212.5 146,-212.5 "/>
<text text-anchor="start" x="8" y="-200.5" font-family="Helvetica,sans-Serif" font-size="10.00">+ getName()</text>
<text text-anchor="start" x="8" y="-189.5" font-family="Helvetica,sans-Serif" font-size="10.00">+ printKeyValues()</text>
<text text-anchor="start" x="8" y="-178.5" font-family="Helvetica,sans-Serif" font-size="10.00">+ output()</text>
<text text-anchor="start" x="8" y="-167.5" font-family="Helvetica,sans-Serif" font-size="10.00">+ getDataMembers()</text>
<text text-anchor="start" x="8" y="-156.5" font-family="Helvetica,sans-Serif" font-size="10.00">+ putKeyValues()</text>
<text text-anchor="start" x="8" y="-145.5" font-family="Helvetica,sans-Serif" font-size="10.00">+ initFrom()</text>
<text text-anchor="start" x="8" y="-134.5" font-family="Helvetica,sans-Serif" font-size="10.00">+ serializeTo()</text>
<text text-anchor="start" x="8" y="-123.5" font-family="Helvetica,sans-Serif" font-size="10.00">+ Instance()</text>
</a>
</g>
</g>
<!-- Node2&#45;&gt;Node1 -->
<g id="edge1" class="edge"><title>Node2&#45;&gt;Node1</title>
<path fill="none" stroke="midnightblue" d="M128.159,-108.045C140.712,-89.8491 153.218,-71.7204 163.014,-57.5215"/>
<polygon fill="none" stroke="midnightblue" points="125.195,-106.178 122.397,-116.397 130.957,-110.153 125.195,-106.178"/>
</g>
<!-- Node3 -->
<g id="node3" class="node"><title>Node3</title>
<g id="a_node3"><a xlink:href="../../d6/d14/classo2_1_1conf_1_1ConfigurableParam.html" target="_top" xlink:title="{o2::conf::ConfigurableParam\n||+ getName()\l+ printKeyValues()\l+ toString()\l+ printAllRegisteredParamNames()\l+ printAllKeyValuePairs()\l+ readINI()\l+ readJSON()\l+ readConfigFile()\l+ writeJSON()\l+ writeINI()\l+ getValueAs()\l+ setValue()\l+ setValue()\l+ setEnumValue()\l+ setArrayValue()\l+ setValues()\l+ initialize()\l+ toCCDB()\l+ fromCCDB()\l+ updateFromString()\l+ updateFromFile()\l# ConfigurableParam()\l# ~ConfigurableParam()\l# putKeyValues()\l# output()\l# serializeTo()\l# initFrom()\l# setRegisterMode()\l# initPropertyTree()\l# updateThroughStorageMap()\l# updateThroughStorageMapWith\lConversion()\l}">
<polygon fill="none" stroke="black" points="3.5,-492.5 3.5,-890.5 172.5,-890.5 172.5,-492.5 3.5,-492.5"/>
<text text-anchor="middle" x="88" y="-878.5" font-family="Helvetica,sans-Serif" font-size="10.00">o2::conf::ConfigurableParam</text>
<polyline fill="none" stroke="black" points="3.5,-871.5 172.5,-871.5 "/>
<text text-anchor="middle" x="88" y="-859.5" font-family="Helvetica,sans-Serif" font-size="10.00"> </text>
<polyline fill="none" stroke="black" points="3.5,-852.5 172.5,-852.5 "/>
<text text-anchor="start" x="11.5" y="-840.5" font-family="Helvetica,sans-Serif" font-size="10.00">+ getName()</text>
<text text-anchor="start" x="11.5" y="-829.5" font-family="Helvetica,sans-Serif" font-size="10.00">+ printKeyValues()</text>
<text text-anchor="start" x="11.5" y="-818.5" font-family="Helvetica,sans-Serif" font-size="10.00">+ toString()</text>
<text text-anchor="start" x="11.5" y="-807.5" font-family="Helvetica,sans-Serif" font-size="10.00">+ printAllRegisteredParamNames()</text>
<text text-anchor="start" x="11.5" y="-796.5" font-family="Helvetica,sans-Serif" font-size="10.00">+ printAllKeyValuePairs()</text>
<text text-anchor="start" x="11.5" y="-785.5" font-family="Helvetica,sans-Serif" font-size="10.00">+ readINI()</text>
<text text-anchor="start" x="11.5" y="-774.5" font-family="Helvetica,sans-Serif" font-size="10.00">+ readJSON()</text>
<text text-anchor="start" x="11.5" y="-763.5" font-family="Helvetica,sans-Serif" font-size="10.00">+ readConfigFile()</text>
<text text-anchor="start" x="11.5" y="-752.5" font-family="Helvetica,sans-Serif" font-size="10.00">+ writeJSON()</text>
<text text-anchor="start" x="11.5" y="-741.5" font-family="Helvetica,sans-Serif" font-size="10.00">+ writeINI()</text>
<text text-anchor="start" x="11.5" y="-730.5" font-family="Helvetica,sans-Serif" font-size="10.00">+ getValueAs()</text>
<text text-anchor="start" x="11.5" y="-719.5" font-family="Helvetica,sans-Serif" font-size="10.00">+ setValue()</text>
<text text-anchor="start" x="11.5" y="-708.5" font-family="Helvetica,sans-Serif" font-size="10.00">+ setValue()</text>
<text text-anchor="start" x="11.5" y="-697.5" font-family="Helvetica,sans-Serif" font-size="10.00">+ setEnumValue()</text>
<text text-anchor="start" x="11.5" y="-686.5" font-family="Helvetica,sans-Serif" font-size="10.00">+ setArrayValue()</text>
<text text-anchor="start" x="11.5" y="-675.5" font-family="Helvetica,sans-Serif" font-size="10.00">+ setValues()</text>
<text text-anchor="start" x="11.5" y="-664.5" font-family="Helvetica,sans-Serif" font-size="10.00">+ initialize()</text>
<text text-anchor="start" x="11.5" y="-653.5" font-family="Helvetica,sans-Serif" font-size="10.00">+ toCCDB()</text>
<text text-anchor="start" x="11.5" y="-642.5" font-family="Helvetica,sans-Serif" font-size="10.00">+ fromCCDB()</text>
<text text-anchor="start" x="11.5" y="-631.5" font-family="Helvetica,sans-Serif" font-size="10.00">+ updateFromString()</text>
<text text-anchor="start" x="11.5" y="-620.5" font-family="Helvetica,sans-Serif" font-size="10.00">+ updateFromFile()</text>
<text text-anchor="start" x="11.5" y="-609.5" font-family="Helvetica,sans-Serif" font-size="10.00"># ConfigurableParam()</text>
<text text-anchor="start" x="11.5" y="-598.5" font-family="Helvetica,sans-Serif" font-size="10.00"># ~ConfigurableParam()</text>
<text text-anchor="start" x="11.5" y="-587.5" font-family="Helvetica,sans-Serif" font-size="10.00"># putKeyValues()</text>
<text text-anchor="start" x="11.5" y="-576.5" font-family="Helvetica,sans-Serif" font-size="10.00"># output()</text>
<text text-anchor="start" x="11.5" y="-565.5" font-family="Helvetica,sans-Serif" font-size="10.00"># serializeTo()</text>
<text text-anchor="start" x="11.5" y="-554.5" font-family="Helvetica,sans-Serif" font-size="10.00"># initFrom()</text>
<text text-anchor="start" x="11.5" y="-543.5" font-family="Helvetica,sans-Serif" font-size="10.00"># setRegisterMode()</text>
<text text-anchor="start" x="11.5" y="-532.5" font-family="Helvetica,sans-Serif" font-size="10.00"># initPropertyTree()</text>
<text text-anchor="start" x="11.5" y="-521.5" font-family="Helvetica,sans-Serif" font-size="10.00"># updateThroughStorageMap()</text>
<text text-anchor="start" x="11.5" y="-510.5" font-family="Helvetica,sans-Serif" font-size="10.00"># updateThroughStorageMapWith</text>
<text text-anchor="start" x="11.5" y="-499.5" font-family="Helvetica,sans-Serif" font-size="10.00">Conversion()</text>
</a>
</g>
</g>
<!-- Node3&#45;&gt;Node2 -->
<g id="edge2" class="edge"><title>Node3&#45;&gt;Node2</title>
<path fill="none" stroke="midnightblue" d="M76.9457,-482.29C76.5964,-473.069 76.2783,-463.94 76,-455 73.9638,-389.583 73.2642,-315.043 73.0445,-261.718"/>
<polygon fill="none" stroke="midnightblue" points="73.45,-482.471 77.3364,-492.327 80.4447,-482.199 73.45,-482.471"/>
</g>
<!-- Node5 -->
<g id="node5" class="node"><title>Node5</title>
<g id="a_node5"><a xlink:href="../../d7/d50/classo2_1_1conf_1_1ConfigurableParamHelper.html" target="_top" xlink:title="{o2::conf::ConfigurableParam\lHelper\&lt; P \&gt;\n||+ getName()\l+ printKeyValues()\l+ output()\l+ getDataMembers()\l+ putKeyValues()\l+ initFrom()\l+ serializeTo()\l+ Instance()\l}">
<polygon fill="none" stroke="black" points="85.5,-309.5 85.5,-454.5 226.5,-454.5 226.5,-309.5 85.5,-309.5"/>
<text text-anchor="start" x="93.5" y="-442.5" font-family="Helvetica,sans-Serif" font-size="10.00">o2::conf::ConfigurableParam</text>
<text text-anchor="middle" x="156" y="-431.5" font-family="Helvetica,sans-Serif" font-size="10.00">Helper&lt; P &gt;</text>
<polyline fill="none" stroke="black" points="85.5,-424.5 226.5,-424.5 "/>
<text text-anchor="middle" x="156" y="-412.5" font-family="Helvetica,sans-Serif" font-size="10.00"> </text>
<polyline fill="none" stroke="black" points="85.5,-405.5 226.5,-405.5 "/>
<text text-anchor="start" x="93.5" y="-393.5" font-family="Helvetica,sans-Serif" font-size="10.00">+ getName()</text>
<text text-anchor="start" x="93.5" y="-382.5" font-family="Helvetica,sans-Serif" font-size="10.00">+ printKeyValues()</text>
<text text-anchor="start" x="93.5" y="-371.5" font-family="Helvetica,sans-Serif" font-size="10.00">+ output()</text>
<text text-anchor="start" x="93.5" y="-360.5" font-family="Helvetica,sans-Serif" font-size="10.00">+ getDataMembers()</text>
<text text-anchor="start" x="93.5" y="-349.5" font-family="Helvetica,sans-Serif" font-size="10.00">+ putKeyValues()</text>
<text text-anchor="start" x="93.5" y="-338.5" font-family="Helvetica,sans-Serif" font-size="10.00">+ initFrom()</text>
<text text-anchor="start" x="93.5" y="-327.5" font-family="Helvetica,sans-Serif" font-size="10.00">+ serializeTo()</text>
<text text-anchor="start" x="93.5" y="-316.5" font-family="Helvetica,sans-Serif" font-size="10.00">+ Instance()</text>
</a>
</g>
</g>
<!-- Node3&#45;&gt;Node5 -->
<g id="edge5" class="edge"><title>Node3&#45;&gt;Node5</title>
<path fill="none" stroke="midnightblue" d="M134.058,-482.224C136.168,-472.68 138.208,-463.458 140.137,-454.734"/>
<polygon fill="none" stroke="midnightblue" points="130.576,-481.759 131.834,-492.279 137.411,-483.27 130.576,-481.759"/>
</g>
<!-- Node4 -->
<g id="node4" class="node"><title>Node4</title>
<polygon fill="none" stroke="#bfbfbf" points="67.5,-960.5 67.5,-1017.5 108.5,-1017.5 108.5,-960.5 67.5,-960.5"/>
<text text-anchor="middle" x="88" y="-1005.5" font-family="Helvetica,sans-Serif" font-size="10.00">static</text>
<polyline fill="none" stroke="#bfbfbf" points="67.5,-998.5 108.5,-998.5 "/>
<text text-anchor="middle" x="88" y="-986.5" font-family="Helvetica,sans-Serif" font-size="10.00"> </text>
<polyline fill="none" stroke="#bfbfbf" points="67.5,-979.5 108.5,-979.5 "/>
<text text-anchor="middle" x="88" y="-967.5" font-family="Helvetica,sans-Serif" font-size="10.00"> </text>
</g>
<!-- Node4&#45;&gt;Node3 -->
<g id="edge3" class="edge"><title>Node4&#45;&gt;Node3</title>
<path fill="none" stroke="#404040" d="M88,-960.465C88,-945.397 88,-925.213 88,-902.651"/>
<polygon fill="none" stroke="#404040" points="88.0001,-902.65 84,-896.65 88,-890.65 92,-896.65 88.0001,-902.65"/>
<text text-anchor="middle" x="141" y="-934" font-family="Helvetica,sans-Serif" font-size="10.00"> #sEnumRegistry</text>
<text text-anchor="middle" x="141" y="-923" font-family="Helvetica,sans-Serif" font-size="10.00">#sValueProvenanceMap</text>
<text text-anchor="middle" x="141" y="-912" font-family="Helvetica,sans-Serif" font-size="10.00">#sKeyToStorageMap</text>
</g>
<!-- Node5&#45;&gt;Node2 -->
<g id="edge4" class="edge"><title>Node5&#45;&gt;Node2</title>
<path fill="none" stroke="orange" d="M120.857,-300.128C115.316,-287.378 109.621,-274.273 104.179,-261.749"/>
<polygon fill="orange" stroke="orange" points="117.662,-301.559 124.858,-309.335 124.082,-298.769 117.662,-301.559"/>
<text text-anchor="middle" x="167" y="-283" font-family="Helvetica,sans-Serif" font-size="10.00"> &lt; ParameterDetector &gt;</text>
</g>
<!-- Node6 -->
<g id="node6" class="node"><title>Node6</title>
<g id="a_node6"><a xlink:href="../../d4/dc3/classfloat.html" target="_top" xlink:title="{float\n||}">
<polygon fill="none" stroke="black" points="164.5,-160.5 164.5,-217.5 199.5,-217.5 199.5,-160.5 164.5,-160.5"/>
<text text-anchor="middle" x="182" y="-205.5" font-family="Helvetica,sans-Serif" font-size="10.00">float</text>
<polyline fill="none" stroke="black" points="164.5,-198.5 199.5,-198.5 "/>
<text text-anchor="middle" x="182" y="-186.5" font-family="Helvetica,sans-Serif" font-size="10.00"> </text>
<polyline fill="none" stroke="black" points="164.5,-179.5 199.5,-179.5 "/>
<text text-anchor="middle" x="182" y="-167.5" font-family="Helvetica,sans-Serif" font-size="10.00"> </text>
</a>
</g>
</g>
<!-- Node6&#45;&gt;Node1 -->
<g id="edge6" class="edge"><title>Node6&#45;&gt;Node1</title>
<path fill="none" stroke="#404040" d="M182,-160.479C182,-135.484 182,-98.3112 182,-70.0293"/>
<polygon fill="none" stroke="#404040" points="182,-69.7362 178,-63.7363 182,-57.7362 186,-63.7362 182,-69.7362"/>
<text text-anchor="middle" x="223" y="-90" font-family="Helvetica,sans-Serif" font-size="10.00"> +PadCapacitance</text>
<text text-anchor="middle" x="223" y="-79" font-family="Helvetica,sans-Serif" font-size="10.00">+TPClength</text>
</g>
<!-- Node7 -->
<g id="node7" class="node"><title>Node7</title>
<polygon fill="none" stroke="#bfbfbf" points="259,-160.5 259,-217.5 315,-217.5 315,-160.5 259,-160.5"/>
<text text-anchor="middle" x="287" y="-205.5" font-family="Helvetica,sans-Serif" font-size="10.00">unsigned</text>
<polyline fill="none" stroke="#bfbfbf" points="259,-198.5 315,-198.5 "/>
<text text-anchor="middle" x="287" y="-186.5" font-family="Helvetica,sans-Serif" font-size="10.00"> </text>
<polyline fill="none" stroke="#bfbfbf" points="259,-179.5 315,-179.5 "/>
<text text-anchor="middle" x="287" y="-167.5" font-family="Helvetica,sans-Serif" font-size="10.00"> </text>
</g>
<!-- Node7&#45;&gt;Node1 -->
<g id="edge7" class="edge"><title>Node7&#45;&gt;Node1</title>
<path fill="none" stroke="#404040" d="M287.848,-160.101C287.219,-135.728 282.846,-100.51 265,-76 262.189,-72.1397 258.951,-68.5639 255.418,-65.2576"/>
<polygon fill="none" stroke="#404040" points="255.367,-65.2156 248.193,-64.488 246.105,-57.5858 253.28,-58.3133 255.367,-65.2156"/>
<text text-anchor="middle" x="314.5" y="-84.5" font-family="Helvetica,sans-Serif" font-size="10.00"> +TmaxTriggered</text>
</g>
</g>
</svg>
        <g id="navigator" transform="translate(0 0)" fill="#404254">
                <rect fill="#f2f5e9" fill-opacity="0.5" stroke="#606060" stroke-width=".5" x="0" y="0" width="60" height="60"/>
                <use id="zoomplus" xlink:href="#zoomPlus" x="17" y="9" onmousedown="handleZoom(evt,'in')"/>
                <use id="zoomminus" xlink:href="#zoomMin" x="42" y="9" onmousedown="handleZoom(evt,'out')"/>
                <use id="reset" xlink:href="#resetDef" x="30" y="36" onmousedown="handleReset()"/>
                <g id="arrowUp" xlink:href="#dirArrow" transform="translate(30 24)" onmousedown="handlePan(0,-1)">
                  <use xlink:href="#rim" fill="#404040">
                        <set attributeName="fill" to="#808080" begin="arrowUp.mouseover" end="arrowUp.mouseout"/>
                  </use>
                  <path fill="none" stroke="white" stroke-width="1.5" d="M0,-3.0v7 M-2.5,-0.5L0,-3.0L2.5,-0.5"/>
                </g>
                <g id="arrowRight" xlink:href="#dirArrow" transform="rotate(90) translate(36 -43)" onmousedown="handlePan(1,0)">
                  <use xlink:href="#rim" fill="#404040">
                        <set attributeName="fill" to="#808080" begin="arrowRight.mouseover" end="arrowRight.mouseout"/>
                  </use>
                  <path fill="none" stroke="white" stroke-width="1.5" d="M0,-3.0v7 M-2.5,-0.5L0,-3.0L2.5,-0.5"/>
                </g>
                <g id="arrowDown" xlink:href="#dirArrow" transform="rotate(180) translate(-30 -48)" onmousedown="handlePan(0,1)">
                  <use xlink:href="#rim" fill="#404040">
                        <set attributeName="fill" to="#808080" begin="arrowDown.mouseover" end="arrowDown.mouseout"/>
                  </use>
                  <path fill="none" stroke="white" stroke-width="1.5" d="M0,-3.0v7 M-2.5,-0.5L0,-3.0L2.5,-0.5"/>
                </g>
                <g id="arrowLeft" xlink:href="#dirArrow" transform="rotate(270) translate(-36 17)" onmousedown="handlePan(-1,0)">
                  <use xlink:href="#rim" fill="#404040">
                        <set attributeName="fill" to="#808080" begin="arrowLeft.mouseover" end="arrowLeft.mouseout"/>
                  </use>
                  <path fill="none" stroke="white" stroke-width="1.5" d="M0,-3.0v7 M-2.5,-0.5L0,-3.0L2.5,-0.5"/>
                </g>
        </g>
        <svg viewBox="0 0 15 15" width="100%" height="30px" preserveAspectRatio="xMaxYMin meet">
         <g id="arrow_out" transform="scale(0.3 0.3)">
          <a xlink:href="structo2_1_1tpc_1_1ParameterDetector__coll__graph_org.svg" target="_base">
           <rect id="button" ry="5" rx="5" y="6" x="6" height="38" width="38"
                fill="#f2f5e9" fill-opacity="0.5" stroke="#606060" stroke-width="1.0"/>
           <path id="arrow"
             d="M 11.500037,31.436501 C 11.940474,20.09759 22.043105,11.32322 32.158766,21.979434 L 37.068811,17.246167 C 37.068811,17.246167 37.088388,32 37.088388,32 L 22.160133,31.978069 C 22.160133,31.978069 26.997745,27.140456 26.997745,27.140456 C 18.528582,18.264221 13.291696,25.230495 11.500037,31.436501 z"
             style="fill:#404040;"/>
          </a>
         </g>
        </svg>
</svg>
