<?xml version="1.0" encoding="UTF-8" standalone="no"?>
<!DOCTYPE svg PUBLIC "-//W3C//DTD SVG 1.1//EN"
 "http://www.w3.org/Graphics/SVG/1.1/DTD/svg11.dtd">
<!-- Generated by graphviz version 2.38.0 (20140413.2041)
 -->
<!-- Title: o2::itsmft::ITSDPLDigitWriter Pages: 1 -->
<!--zoomable 1238 -->
<svg id="main" version="1.1" xmlns="http://www.w3.org/2000/svg" xmlns:xlink="http://www.w3.org/1999/xlink" xml:space="preserve" onload="init(evt)">
<style type="text/css"><![CDATA[
.edge:hover path { stroke: red; }
.edge:hover polygon { stroke: red; fill: red; }
]]></style>
<script type="text/javascript"><![CDATA[
var edges = document.getElementsByTagName('g');
if (edges && edges.length) {
  for (var i=0;i<edges.length;i++) {
    if (edges[i].id.substr(0,4)=='edge') {
      edges[i].setAttribute('class','edge');
    }
  }
}
]]></script>
        <defs>
                <circle id="rim" cx="0" cy="0" r="7"/>
                <circle id="rim2" cx="0" cy="0" r="3.5"/>
                <g id="zoomPlus">
                        <use xlink:href="#rim" fill="#404040">
                                <set attributeName="fill" to="#808080" begin="zoomplus.mouseover" end="zoomplus.mouseout"/>
                        </use>
                        <path d="M-4,0h8M0,-4v8" fill="none" stroke="white" stroke-width="1.5" pointer-events="none"/>
                </g>
                <g id="zoomMin">
                        <use xlink:href="#rim" fill="#404040">
                                <set attributeName="fill" to="#808080" begin="zoomminus.mouseover" end="zoomminus.mouseout"/>
                        </use>
                        <path d="M-4,0h8" fill="none" stroke="white" stroke-width="1.5" pointer-events="none"/>
                </g>
                <g id="dirArrow">
                        <path fill="none" stroke="white" stroke-width="1.5" d="M0,-3.0v7 M-2.5,-0.5L0,-3.0L2.5,-0.5"/>
                </g>
               <g id="resetDef">
                       <use xlink:href="#rim2" fill="#404040">
                               <set attributeName="fill" to="#808080" begin="reset.mouseover" end="reset.mouseout"/>
                       </use>
               </g>
        </defs>

<script type="text/javascript">
var viewWidth = 777;
var viewHeight = 1238;
var sectionId = 'dynsection-1';
</script>
<script xlink:href="../../svgpan.js"/>
<svg id="graph" class="graph">
<g id="viewport">
<title>o2::itsmft::ITSDPLDigitWriter</title>
<!-- Node1 -->
<g id="node1" class="node"><title>Node1</title>
<polygon fill="#bfbfbf" stroke="black" points="566.5,-0.5 566.5,-57.5 712.5,-57.5 712.5,-0.5 566.5,-0.5"/>
<text text-anchor="middle" x="639.5" y="-45.5" font-family="Helvetica,sans-Serif" font-size="10.00">o2::itsmft::ITSDPLDigitWriter</text>
<polyline fill="none" stroke="black" points="566.5,-38.5 712.5,-38.5 "/>
<text text-anchor="middle" x="639.5" y="-26.5" font-family="Helvetica,sans-Serif" font-size="10.00"> </text>
<polyline fill="none" stroke="black" points="566.5,-19.5 712.5,-19.5 "/>
<text text-anchor="start" x="574.5" y="-7.5" font-family="Helvetica,sans-Serif" font-size="10.00">+ ITSDPLDigitWriter()</text>
</g>
<!-- Node2 -->
<g id="node2" class="node"><title>Node2</title>
<g id="a_node2"><a xlink:href="../../da/dc9/classo2_1_1itsmft_1_1ITSMFTDPLDigitWriter.html" target="_top" xlink:title="{o2::itsmft::ITSMFTDPLDigit\lWriter\n||+ init()\l+ run()\l# ITSMFTDPLDigitWriter()\l# getOrMakeBranch()\l}">
<polygon fill="none" stroke="black" points="370.5,-95.5 370.5,-196.5 510.5,-196.5 510.5,-95.5 370.5,-95.5"/>
<text text-anchor="start" x="378.5" y="-184.5" font-family="Helvetica,sans-Serif" font-size="10.00">o2::itsmft::ITSMFTDPLDigit</text>
<text text-anchor="middle" x="440.5" y="-173.5" font-family="Helvetica,sans-Serif" font-size="10.00">Writer</text>
<polyline fill="none" stroke="black" points="370.5,-166.5 510.5,-166.5 "/>
<text text-anchor="middle" x="440.5" y="-154.5" font-family="Helvetica,sans-Serif" font-size="10.00"> </text>
<polyline fill="none" stroke="black" points="370.5,-147.5 510.5,-147.5 "/>
<text text-anchor="start" x="378.5" y="-135.5" font-family="Helvetica,sans-Serif" font-size="10.00">+ init()</text>
<text text-anchor="start" x="378.5" y="-124.5" font-family="Helvetica,sans-Serif" font-size="10.00">+ run()</text>
<text text-anchor="start" x="378.5" y="-113.5" font-family="Helvetica,sans-Serif" font-size="10.00"># ITSMFTDPLDigitWriter()</text>
<text text-anchor="start" x="378.5" y="-102.5" font-family="Helvetica,sans-Serif" font-size="10.00"># getOrMakeBranch()</text>
</a>
</g>
</g>
<!-- Node2&#45;&gt;Node1 -->
<g id="edge1" class="edge"><title>Node2&#45;&gt;Node1</title>
<path fill="none" stroke="midnightblue" d="M519.573,-99.3046C544.008,-85.1839 570.16,-70.0707 591.787,-57.5728"/>
<polygon fill="none" stroke="midnightblue" points="517.567,-96.4214 510.66,-104.455 521.069,-102.482 517.567,-96.4214"/>
</g>
<!-- Node3 -->
<g id="node3" class="node"><title>Node3</title>
<polygon fill="none" stroke="#bfbfbf" points="527,-354.5 527,-422.5 626,-422.5 626,-354.5 527,-354.5"/>
<text text-anchor="start" x="535" y="-410.5" font-family="Helvetica,sans-Serif" font-size="10.00">vector&lt; o2::itsmft</text>
<text text-anchor="middle" x="576.5" y="-399.5" font-family="Helvetica,sans-Serif" font-size="10.00">::o2::itsmft::Digit &gt;</text>
<polyline fill="none" stroke="#bfbfbf" points="527,-392.5 626,-392.5 "/>
<text text-anchor="middle" x="576.5" y="-380.5" font-family="Helvetica,sans-Serif" font-size="10.00"> </text>
<polyline fill="none" stroke="#bfbfbf" points="527,-373.5 626,-373.5 "/>
<text text-anchor="middle" x="576.5" y="-361.5" font-family="Helvetica,sans-Serif" font-size="10.00"> </text>
</g>
<!-- Node3&#45;&gt;Node2 -->
<g id="edge2" class="edge"><title>Node3&#45;&gt;Node2</title>
<path fill="none" stroke="#404040" d="M584.818,-354.483C592.157,-317.512 598.018,-257.252 571.5,-215 559.777,-196.321 541.13,-182.516 521.541,-172.419"/>
<polygon fill="none" stroke="#404040" points="521.423,-172.363 514.284,-173.381 510.598,-167.183 517.737,-166.165 521.423,-172.363"/>
<text text-anchor="middle" x="610" y="-234.5" font-family="Helvetica,sans-Serif" font-size="10.00"> #mDigits</text>
</g>
<!-- Node4 -->
<g id="node4" class="node"><title>Node4</title>
<g id="a_node4"><a xlink:href="../../d9/db3/structo2_1_1header_1_1Descriptor.html" target="_top" xlink:title="{o2::header::Descriptor\l\&lt; gSizeDataOriginString,\l printDataOrigin \&gt;\n||+ Descriptor()\l+ Descriptor()\l+ Descriptor()\l+ Descriptor()\l+ operator=()\l+ operator ItgType()\l+ runtimeInit()\l+ operator==()\l+ operator==()\l+ operator\&lt;()\l+ operator!=()\l+ operator!=()\l+ as()\l+ print()\l}">
<polygon fill="none" stroke="black" points="119,-277.5 119,-499.5 244,-499.5 244,-277.5 119,-277.5"/>
<text text-anchor="start" x="127" y="-487.5" font-family="Helvetica,sans-Serif" font-size="10.00">o2::header::Descriptor</text>
<text text-anchor="start" x="127" y="-476.5" font-family="Helvetica,sans-Serif" font-size="10.00">&lt; gSizeDataOriginString,</text>
<text text-anchor="middle" x="181.5" y="-465.5" font-family="Helvetica,sans-Serif" font-size="10.00"> printDataOrigin &gt;</text>
<polyline fill="none" stroke="black" points="119,-458.5 244,-458.5 "/>
<text text-anchor="middle" x="181.5" y="-446.5" font-family="Helvetica,sans-Serif" font-size="10.00"> </text>
<polyline fill="none" stroke="black" points="119,-439.5 244,-439.5 "/>
<text text-anchor="start" x="127" y="-427.5" font-family="Helvetica,sans-Serif" font-size="10.00">+ Descriptor()</text>
<text text-anchor="start" x="127" y="-416.5" font-family="Helvetica,sans-Serif" font-size="10.00">+ Descriptor()</text>
<text text-anchor="start" x="127" y="-405.5" font-family="Helvetica,sans-Serif" font-size="10.00">+ Descriptor()</text>
<text text-anchor="start" x="127" y="-394.5" font-family="Helvetica,sans-Serif" font-size="10.00">+ Descriptor()</text>
<text text-anchor="start" x="127" y="-383.5" font-family="Helvetica,sans-Serif" font-size="10.00">+ operator=()</text>
<text text-anchor="start" x="127" y="-372.5" font-family="Helvetica,sans-Serif" font-size="10.00">+ operator ItgType()</text>
<text text-anchor="start" x="127" y="-361.5" font-family="Helvetica,sans-Serif" font-size="10.00">+ runtimeInit()</text>
<text text-anchor="start" x="127" y="-350.5" font-family="Helvetica,sans-Serif" font-size="10.00">+ operator==()</text>
<text text-anchor="start" x="127" y="-339.5" font-family="Helvetica,sans-Serif" font-size="10.00">+ operator==()</text>
<text text-anchor="start" x="127" y="-328.5" font-family="Helvetica,sans-Serif" font-size="10.00">+ operator&lt;()</text>
<text text-anchor="start" x="127" y="-317.5" font-family="Helvetica,sans-Serif" font-size="10.00">+ operator!=()</text>
<text text-anchor="start" x="127" y="-306.5" font-family="Helvetica,sans-Serif" font-size="10.00">+ operator!=()</text>
<text text-anchor="start" x="127" y="-295.5" font-family="Helvetica,sans-Serif" font-size="10.00">+ as()</text>
<text text-anchor="start" x="127" y="-284.5" font-family="Helvetica,sans-Serif" font-size="10.00">+ print()</text>
</a>
</g>
</g>
<!-- Node4&#45;&gt;Node2 -->
<g id="edge3" class="edge"><title>Node4&#45;&gt;Node2</title>
<path fill="none" stroke="#404040" d="M200.483,-277.244C208.726,-254.4 220.547,-232.111 237.5,-215 269.404,-182.798 316.983,-165.845 358.061,-156.92"/>
<polygon fill="none" stroke="#404040" points="358.252,-156.881 363.341,-151.772 370.014,-154.505 364.925,-159.614 358.252,-156.881"/>
<text text-anchor="middle" x="259" y="-234.5" font-family="Helvetica,sans-Serif" font-size="10.00"> #mOrigin</text>
</g>
<!-- Node5 -->
<g id="node5" class="node"><title>Node5</title>
<polygon fill="none" stroke="#bfbfbf" points="90.5,-1172.5 90.5,-1229.5 128.5,-1229.5 128.5,-1172.5 90.5,-1172.5"/>
<text text-anchor="middle" x="109.5" y="-1217.5" font-family="Helvetica,sans-Serif" font-size="10.00">Type</text>
<polyline fill="none" stroke="#bfbfbf" points="90.5,-1210.5 128.5,-1210.5 "/>
<text text-anchor="middle" x="109.5" y="-1198.5" font-family="Helvetica,sans-Serif" font-size="10.00"> </text>
<polyline fill="none" stroke="#bfbfbf" points="90.5,-1191.5 128.5,-1191.5 "/>
<text text-anchor="middle" x="109.5" y="-1179.5" font-family="Helvetica,sans-Serif" font-size="10.00"> </text>
</g>
<!-- Node5&#45;&gt;Node4 -->
<g id="edge4" class="edge"><title>Node5&#45;&gt;Node4</title>
<path fill="none" stroke="#404040" d="M109.315,-1172.49C109.248,-1139.37 109.634,-1082.07 112.5,-1033 125.91,-803.383 136.207,-746.383 163.5,-518 163.759,-515.83 164.025,-513.639 164.296,-511.433"/>
<polygon fill="none" stroke="#404040" points="164.297,-511.422 161.075,-504.971 165.791,-499.516 169.013,-505.967 164.297,-511.422"/>
<text text-anchor="middle" x="140.5" y="-906.5" font-family="Helvetica,sans-Serif" font-size="10.00"> +itg</text>
</g>
<!-- Node9 -->
<g id="node9" class="node"><title>Node9</title>
<g id="a_node9"><a xlink:href="../../d9/db3/structo2_1_1header_1_1Descriptor.html" target="_top" xlink:title="{o2::header::Descriptor\l\&lt; N, PrinterPolicy \&gt;\n||+ Descriptor()\l+ Descriptor()\l+ Descriptor()\l+ operator=()\l+ operator ItgType()\l+ Descriptor()\l+ runtimeInit()\l+ operator==()\l+ operator\&lt;()\l+ operator!=()\l+ operator==()\l+ operator!=()\l+ as()\l+ print()\l}">
<polygon fill="none" stroke="black" points="197,-803.5 197,-1014.5 310,-1014.5 310,-803.5 197,-803.5"/>
<text text-anchor="start" x="205" y="-1002.5" font-family="Helvetica,sans-Serif" font-size="10.00">o2::header::Descriptor</text>
<text text-anchor="middle" x="253.5" y="-991.5" font-family="Helvetica,sans-Serif" font-size="10.00">&lt; N, PrinterPolicy &gt;</text>
<polyline fill="none" stroke="black" points="197,-984.5 310,-984.5 "/>
<text text-anchor="middle" x="253.5" y="-972.5" font-family="Helvetica,sans-Serif" font-size="10.00"> </text>
<polyline fill="none" stroke="black" points="197,-965.5 310,-965.5 "/>
<text text-anchor="start" x="205" y="-953.5" font-family="Helvetica,sans-Serif" font-size="10.00">+ Descriptor()</text>
<text text-anchor="start" x="205" y="-942.5" font-family="Helvetica,sans-Serif" font-size="10.00">+ Descriptor()</text>
<text text-anchor="start" x="205" y="-931.5" font-family="Helvetica,sans-Serif" font-size="10.00">+ Descriptor()</text>
<text text-anchor="start" x="205" y="-920.5" font-family="Helvetica,sans-Serif" font-size="10.00">+ operator=()</text>
<text text-anchor="start" x="205" y="-909.5" font-family="Helvetica,sans-Serif" font-size="10.00">+ operator ItgType()</text>
<text text-anchor="start" x="205" y="-898.5" font-family="Helvetica,sans-Serif" font-size="10.00">+ Descriptor()</text>
<text text-anchor="start" x="205" y="-887.5" font-family="Helvetica,sans-Serif" font-size="10.00">+ runtimeInit()</text>
<text text-anchor="start" x="205" y="-876.5" font-family="Helvetica,sans-Serif" font-size="10.00">+ operator==()</text>
<text text-anchor="start" x="205" y="-865.5" font-family="Helvetica,sans-Serif" font-size="10.00">+ operator&lt;()</text>
<text text-anchor="start" x="205" y="-854.5" font-family="Helvetica,sans-Serif" font-size="10.00">+ operator!=()</text>
<text text-anchor="start" x="205" y="-843.5" font-family="Helvetica,sans-Serif" font-size="10.00">+ operator==()</text>
<text text-anchor="start" x="205" y="-832.5" font-family="Helvetica,sans-Serif" font-size="10.00">+ operator!=()</text>
<text text-anchor="start" x="205" y="-821.5" font-family="Helvetica,sans-Serif" font-size="10.00">+ as()</text>
<text text-anchor="start" x="205" y="-810.5" font-family="Helvetica,sans-Serif" font-size="10.00">+ print()</text>
</a>
</g>
</g>
<!-- Node5&#45;&gt;Node9 -->
<g id="edge9" class="edge"><title>Node5&#45;&gt;Node9</title>
<path fill="none" stroke="#404040" d="M112.895,-1172.45C118.268,-1137.51 131.29,-1076.56 160.5,-1033 167.536,-1022.51 173.983,-1024.33 182.5,-1015 184.718,-1012.57 186.92,-1010.06 189.099,-1007.5"/>
<polygon fill="none" stroke="#404040" points="189.274,-1007.29 189.983,-1000.11 196.88,-998.006 196.171,-1005.18 189.274,-1007.29"/>
<text text-anchor="middle" x="170.5" y="-1091" font-family="Helvetica,sans-Serif" font-size="10.00"> +itg</text>
</g>
<!-- Node6 -->
<g id="node6" class="node"><title>Node6</title>
<polygon fill="none" stroke="#bfbfbf" points="153,-1172.5 153,-1229.5 188,-1229.5 188,-1172.5 153,-1172.5"/>
<text text-anchor="middle" x="170.5" y="-1217.5" font-family="Helvetica,sans-Serif" font-size="10.00">char</text>
<polyline fill="none" stroke="#bfbfbf" points="153,-1210.5 188,-1210.5 "/>
<text text-anchor="middle" x="170.5" y="-1198.5" font-family="Helvetica,sans-Serif" font-size="10.00"> </text>
<polyline fill="none" stroke="#bfbfbf" points="153,-1191.5 188,-1191.5 "/>
<text text-anchor="middle" x="170.5" y="-1179.5" font-family="Helvetica,sans-Serif" font-size="10.00"> </text>
</g>
<!-- Node6&#45;&gt;Node4 -->
<g id="edge5" class="edge"><title>Node6&#45;&gt;Node4</title>
<path fill="none" stroke="#404040" d="M169.718,-1172.42C168.735,-1136.27 167.104,-1070.9 166.5,-1015 165.482,-920.783 164.792,-897.207 166.5,-803 168.276,-705.036 172.418,-594.081 175.9,-511.788"/>
<polygon fill="none" stroke="#404040" points="175.908,-511.592 172.168,-505.427 176.42,-499.603 180.16,-505.768 175.908,-511.592"/>
<text text-anchor="middle" x="177" y="-906.5" font-family="Helvetica,sans-Serif" font-size="10.00"> +str</text>
</g>
<!-- Node6&#45;&gt;Node9 -->
<g id="edge10" class="edge"><title>Node6&#45;&gt;Node9</title>
<path fill="none" stroke="#404040" d="M178.383,-1172.46C187.997,-1138.87 204.861,-1079.94 220.178,-1026.43"/>
<polygon fill="none" stroke="#404040" points="220.219,-1026.28 218.025,-1019.41 223.521,-1014.75 225.716,-1021.61 220.219,-1026.28"/>
<text text-anchor="middle" x="228" y="-1091" font-family="Helvetica,sans-Serif" font-size="10.00"> +str</text>
</g>
<!-- Node7 -->
<g id="node7" class="node"><title>Node7</title>
<polygon fill="none" stroke="#bfbfbf" points="396,-880.5 396,-937.5 425,-937.5 425,-880.5 396,-880.5"/>
<text text-anchor="middle" x="410.5" y="-925.5" font-family="Helvetica,sans-Serif" font-size="10.00">int</text>
<polyline fill="none" stroke="#bfbfbf" points="396,-918.5 425,-918.5 "/>
<text text-anchor="middle" x="410.5" y="-906.5" font-family="Helvetica,sans-Serif" font-size="10.00"> </text>
<polyline fill="none" stroke="#bfbfbf" points="396,-899.5 425,-899.5 "/>
<text text-anchor="middle" x="410.5" y="-887.5" font-family="Helvetica,sans-Serif" font-size="10.00"> </text>
</g>
<!-- Node7&#45;&gt;Node4 -->
<g id="edge6" class="edge"><title>Node7&#45;&gt;Node4</title>
<path fill="none" stroke="#404040" d="M416.79,-880.254C431.11,-809.173 457.808,-619.042 360.5,-518 329.25,-485.551 298.128,-520.697 254.852,-500.018"/>
<polygon fill="none" stroke="#404040" points="254.61,-499.879 247.415,-500.36 244.203,-493.904 251.398,-493.422 254.61,-499.879"/>
<text text-anchor="middle" x="457" y="-660" font-family="Helvetica,sans-Serif" font-size="10.00"> +arraySize</text>
<text text-anchor="middle" x="457" y="-649" font-family="Helvetica,sans-Serif" font-size="10.00">+size</text>
<text text-anchor="middle" x="457" y="-638" font-family="Helvetica,sans-Serif" font-size="10.00">+bitcount</text>
</g>
<!-- Node8 -->
<g id="node8" class="node"><title>Node8</title>
<polygon fill="none" stroke="#bfbfbf" points="266,-1172.5 266,-1229.5 363,-1229.5 363,-1172.5 266,-1172.5"/>
<text text-anchor="middle" x="314.5" y="-1217.5" font-family="Helvetica,sans-Serif" font-size="10.00">anonymous:+@24</text>
<polyline fill="none" stroke="#bfbfbf" points="266,-1210.5 363,-1210.5 "/>
<text text-anchor="middle" x="314.5" y="-1198.5" font-family="Helvetica,sans-Serif" font-size="10.00"> </text>
<polyline fill="none" stroke="#bfbfbf" points="266,-1191.5 363,-1191.5 "/>
<text text-anchor="middle" x="314.5" y="-1179.5" font-family="Helvetica,sans-Serif" font-size="10.00"> </text>
</g>
<!-- Node8&#45;&gt;Node4 -->
<g id="edge7" class="edge"><title>Node8&#45;&gt;Node4</title>
<path fill="none" stroke="#404040" d="M327.255,-1172.27C329.43,-1166.36 331.355,-1160.07 332.5,-1154 345.603,-1084.56 376.645,-573.181 332.5,-518 311.868,-492.21 287.453,-515.54 254.566,-499.73"/>
<polygon fill="none" stroke="#404040" points="254.385,-499.622 247.183,-499.98 244.083,-493.469 251.285,-493.111 254.385,-499.622"/>
<text text-anchor="middle" x="370" y="-906.5" font-family="Helvetica,sans-Serif" font-size="10.00"> +@24</text>
</g>
<!-- Node8&#45;&gt;Node9 -->
<g id="edge11" class="edge"><title>Node8&#45;&gt;Node9</title>
<path fill="none" stroke="#404040" d="M306.297,-1172.37C304.618,-1166.34 302.929,-1159.97 301.5,-1154 291.603,-1112.63 282.214,-1066.96 274.408,-1026.44"/>
<polygon fill="none" stroke="#404040" points="274.397,-1026.38 269.342,-1021.24 272.144,-1014.59 277.2,-1019.73 274.397,-1026.38"/>
<text text-anchor="middle" x="317" y="-1091" font-family="Helvetica,sans-Serif" font-size="10.00"> +@24</text>
</g>
<!-- Node9&#45;&gt;Node4 -->
<g id="edge8" class="edge"><title>Node9&#45;&gt;Node4</title>
<path fill="none" stroke="orange" d="M222.068,-793.205C221.518,-790.448 220.994,-787.71 220.5,-785 203.094,-689.46 193.039,-579.423 187.513,-499.71"/>
<polygon fill="orange" stroke="orange" points="218.695,-794.176 224.165,-803.25 225.547,-792.745 218.695,-794.176"/>
<text text-anchor="start" x="220.5" y="-654.5" font-family="Helvetica,sans-Serif" font-size="10.00"> &lt; gSizeDataOriginString,</text>
<text text-anchor="middle" x="276.5" y="-643.5" font-family="Helvetica,sans-Serif" font-size="10.00"> printDataOrigin &gt;</text>
</g>
<!-- Node10 -->
<g id="node10" class="node"><title>Node10</title>
<polygon fill="none" stroke="#bfbfbf" points="636,-1172.5 636,-1229.5 677,-1229.5 677,-1172.5 636,-1172.5"/>
<text text-anchor="middle" x="656.5" y="-1217.5" font-family="Helvetica,sans-Serif" font-size="10.00">static</text>
<polyline fill="none" stroke="#bfbfbf" points="636,-1210.5 677,-1210.5 "/>
<text text-anchor="middle" x="656.5" y="-1198.5" font-family="Helvetica,sans-Serif" font-size="10.00"> </text>
<polyline fill="none" stroke="#bfbfbf" points="636,-1191.5 677,-1191.5 "/>
<text text-anchor="middle" x="656.5" y="-1179.5" font-family="Helvetica,sans-Serif" font-size="10.00"> </text>
</g>
<!-- Node10&#45;&gt;Node1 -->
<g id="edge19" class="edge"><title>Node10&#45;&gt;Node1</title>
<path fill="none" stroke="#404040" d="M677.048,-1189.03C689.652,-1181.11 704.804,-1169.14 712.5,-1154 761.715,-1057.17 726.5,-1018.62 726.5,-910 726.5,-910 726.5,-910 726.5,-145 726.5,-114.223 706.436,-86.4846 685.579,-65.9645"/>
<polygon fill="none" stroke="#404040" points="685.419,-65.8144 678.303,-64.6428 676.648,-57.6242 683.763,-58.7958 685.419,-65.8144"/>
<text text-anchor="middle" x="747.5" y="-391.5" font-family="Helvetica,sans-Serif" font-size="10.00"> +DETID</text>
<text text-anchor="middle" x="747.5" y="-380.5" font-family="Helvetica,sans-Serif" font-size="10.00">+DETOR</text>
</g>
<!-- Node10&#45;&gt;Node9 -->
<g id="edge12" class="edge"><title>Node10&#45;&gt;Node9</title>
<path fill="none" stroke="#404040" d="M635.729,-1192.41C580.1,-1171.3 425.152,-1107.33 324.5,-1015 322.491,-1013.16 320.51,-1011.25 318.559,-1009.28"/>
<polygon fill="none" stroke="#404040" points="318.39,-1009.1 311.372,-1007.44 310.204,-1000.32 317.222,-1001.98 318.39,-1009.1"/>
<text text-anchor="middle" x="563" y="-1102" font-family="Helvetica,sans-Serif" font-size="10.00"> +arraySize</text>
<text text-anchor="middle" x="563" y="-1091" font-family="Helvetica,sans-Serif" font-size="10.00">+size</text>
<text text-anchor="middle" x="563" y="-1080" font-family="Helvetica,sans-Serif" font-size="10.00">+bitcount</text>
</g>
<!-- Node12 -->
<g id="node12" class="node"><title>Node12</title>
<g id="a_node12"><a xlink:href="../../d6/dd5/classo2_1_1detectors_1_1DetID.html" target="_top" xlink:title="Static class with identifiers, bitmasks and names for ALICE detectors. ">
<polygon fill="none" stroke="black" points="604.5,-518.5 604.5,-784.5 710.5,-784.5 710.5,-518.5 604.5,-518.5"/>
<text text-anchor="middle" x="657.5" y="-772.5" font-family="Helvetica,sans-Serif" font-size="10.00">o2::detectors::DetID</text>
<polyline fill="none" stroke="black" points="604.5,-765.5 710.5,-765.5 "/>
<text text-anchor="start" x="612.5" y="-753.5" font-family="Helvetica,sans-Serif" font-size="10.00">+ ITS</text>
<text text-anchor="start" x="612.5" y="-742.5" font-family="Helvetica,sans-Serif" font-size="10.00">+ TOF</text>
<text text-anchor="start" x="612.5" y="-731.5" font-family="Helvetica,sans-Serif" font-size="10.00">+ PHS</text>
<text text-anchor="start" x="612.5" y="-720.5" font-family="Helvetica,sans-Serif" font-size="10.00">+ CPV</text>
<text text-anchor="start" x="612.5" y="-709.5" font-family="Helvetica,sans-Serif" font-size="10.00">+ EMC</text>
<text text-anchor="start" x="612.5" y="-698.5" font-family="Helvetica,sans-Serif" font-size="10.00">+ HMP</text>
<text text-anchor="start" x="612.5" y="-687.5" font-family="Helvetica,sans-Serif" font-size="10.00">+ MFT</text>
<text text-anchor="start" x="612.5" y="-676.5" font-family="Helvetica,sans-Serif" font-size="10.00">+ MID</text>
<text text-anchor="start" x="612.5" y="-665.5" font-family="Helvetica,sans-Serif" font-size="10.00">+ Last</text>
<polyline fill="none" stroke="black" points="604.5,-658.5 710.5,-658.5 "/>
<text text-anchor="start" x="612.5" y="-646.5" font-family="Helvetica,sans-Serif" font-size="10.00">+ DetID()</text>
<text text-anchor="start" x="612.5" y="-635.5" font-family="Helvetica,sans-Serif" font-size="10.00">+ DetID()</text>
<text text-anchor="start" x="612.5" y="-624.5" font-family="Helvetica,sans-Serif" font-size="10.00">+ DetID()</text>
<text text-anchor="start" x="612.5" y="-613.5" font-family="Helvetica,sans-Serif" font-size="10.00">+ operator=()</text>
<text text-anchor="start" x="612.5" y="-602.5" font-family="Helvetica,sans-Serif" font-size="10.00">+ getID()</text>
<text text-anchor="start" x="612.5" y="-591.5" font-family="Helvetica,sans-Serif" font-size="10.00">+ getMask()</text>
<text text-anchor="start" x="612.5" y="-580.5" font-family="Helvetica,sans-Serif" font-size="10.00">+ getName()</text>
<text text-anchor="start" x="612.5" y="-569.5" font-family="Helvetica,sans-Serif" font-size="10.00">+ operator int()</text>
<text text-anchor="start" x="612.5" y="-558.5" font-family="Helvetica,sans-Serif" font-size="10.00">+ DetID()</text>
<text text-anchor="start" x="612.5" y="-547.5" font-family="Helvetica,sans-Serif" font-size="10.00">+ getNDetectors()</text>
<text text-anchor="start" x="612.5" y="-536.5" font-family="Helvetica,sans-Serif" font-size="10.00">+ getName()</text>
<text text-anchor="start" x="612.5" y="-525.5" font-family="Helvetica,sans-Serif" font-size="10.00">+ getMask()</text>
</a>
</g>
</g>
<!-- Node10&#45;&gt;Node12 -->
<g id="edge15" class="edge"><title>Node10&#45;&gt;Node12</title>
<path fill="none" stroke="#404040" d="M656.55,-1172.47C656.674,-1104.73 657,-926.05 657.236,-797.047"/>
<polygon fill="none" stroke="#404040" points="657.236,-796.723 653.247,-790.716 657.258,-784.723 661.247,-790.73 657.236,-796.723"/>
<text text-anchor="middle" x="685" y="-1146" font-family="Helvetica,sans-Serif" font-size="10.00"> +ACO</text>
<text text-anchor="middle" x="685" y="-1135" font-family="Helvetica,sans-Serif" font-size="10.00">+First</text>
<text text-anchor="middle" x="685" y="-1124" font-family="Helvetica,sans-Serif" font-size="10.00">+MCH</text>
<text text-anchor="middle" x="685" y="-1113" font-family="Helvetica,sans-Serif" font-size="10.00">+FV0</text>
<text text-anchor="middle" x="685" y="-1102" font-family="Helvetica,sans-Serif" font-size="10.00">+FT0</text>
<text text-anchor="middle" x="685" y="-1091" font-family="Helvetica,sans-Serif" font-size="10.00">+FDD</text>
<text text-anchor="middle" x="685" y="-1080" font-family="Helvetica,sans-Serif" font-size="10.00">+TRD</text>
<text text-anchor="middle" x="685" y="-1069" font-family="Helvetica,sans-Serif" font-size="10.00">+nDetectors</text>
<text text-anchor="middle" x="685" y="-1058" font-family="Helvetica,sans-Serif" font-size="10.00">+TPC</text>
<text text-anchor="middle" x="685" y="-1047" font-family="Helvetica,sans-Serif" font-size="10.00">+ZDC</text>
<text text-anchor="middle" x="685" y="-1036" font-family="Helvetica,sans-Serif" font-size="10.00">...</text>
</g>
<!-- Node11 -->
<g id="node11" class="node"><title>Node11</title>
<polygon fill="none" stroke="#bfbfbf" points="0,-360 0,-417 101,-417 101,-360 0,-360"/>
<text text-anchor="middle" x="50.5" y="-405" font-family="Helvetica,sans-Serif" font-size="10.00">unique_ptr&lt; TFile &gt;</text>
<polyline fill="none" stroke="#bfbfbf" points="0,-398 101,-398 "/>
<text text-anchor="middle" x="50.5" y="-386" font-family="Helvetica,sans-Serif" font-size="10.00"> </text>
<polyline fill="none" stroke="#bfbfbf" points="0,-379 101,-379 "/>
<text text-anchor="middle" x="50.5" y="-367" font-family="Helvetica,sans-Serif" font-size="10.00"> </text>
</g>
<!-- Node11&#45;&gt;Node2 -->
<g id="edge13" class="edge"><title>Node11&#45;&gt;Node2</title>
<path fill="none" stroke="#404040" d="M59.2226,-359.695C73.1446,-320.334 104.376,-249.344 157.5,-215 217.844,-175.989 298.47,-159.335 358.226,-152.239"/>
<polygon fill="none" stroke="#404040" points="358.339,-152.226 363.862,-147.589 370.266,-150.904 364.743,-155.541 358.339,-152.226"/>
<text text-anchor="middle" x="182" y="-234.5" font-family="Helvetica,sans-Serif" font-size="10.00"> #mOutFile</text>
</g>
<!-- Node12&#45;&gt;Node2 -->
<g id="edge14" class="edge"><title>Node12&#45;&gt;Node2</title>
<path fill="none" stroke="#404040" d="M666.543,-518.244C671.296,-407.857 670.219,-261.353 635.5,-215 609.09,-179.74 563.11,-162.663 522.43,-154.436"/>
<polygon fill="none" stroke="#404040" points="522.364,-154.424 515.738,-157.271 510.562,-152.25 517.188,-149.403 522.364,-154.424"/>
<text text-anchor="middle" x="683.5" y="-386" font-family="Helvetica,sans-Serif" font-size="10.00"> #mID</text>
</g>
<!-- Node13 -->
<g id="node13" class="node"><title>Node13</title>
<polygon fill="none" stroke="#bfbfbf" points="262,-360 262,-417 367,-417 367,-360 262,-360"/>
<text text-anchor="middle" x="314.5" y="-405" font-family="Helvetica,sans-Serif" font-size="10.00">unique_ptr&lt; TTree &gt;</text>
<polyline fill="none" stroke="#bfbfbf" points="262,-398 367,-398 "/>
<text text-anchor="middle" x="314.5" y="-386" font-family="Helvetica,sans-Serif" font-size="10.00"> </text>
<polyline fill="none" stroke="#bfbfbf" points="262,-379 367,-379 "/>
<text text-anchor="middle" x="314.5" y="-367" font-family="Helvetica,sans-Serif" font-size="10.00"> </text>
</g>
<!-- Node13&#45;&gt;Node2 -->
<g id="edge16" class="edge"><title>Node13&#45;&gt;Node2</title>
<path fill="none" stroke="#404040" d="M302.283,-359.996C288.225,-323.792 270.448,-259.536 298.5,-215 312.334,-193.037 335.443,-178.012 359.044,-167.799"/>
<polygon fill="none" stroke="#404040" points="359.121,-167.768 363.201,-161.821 370.258,-163.3 366.179,-169.246 359.121,-167.768"/>
<text text-anchor="middle" x="345.5" y="-245.5" font-family="Helvetica,sans-Serif" font-size="10.00"> #mOutTreeMC2ROF</text>
<text text-anchor="middle" x="345.5" y="-234.5" font-family="Helvetica,sans-Serif" font-size="10.00">#mOutTreeDig</text>
<text text-anchor="middle" x="345.5" y="-223.5" font-family="Helvetica,sans-Serif" font-size="10.00">#mOutTreeROF</text>
</g>
<!-- Node14 -->
<g id="node14" class="node"><title>Node14</title>
<polygon fill="none" stroke="#bfbfbf" points="385,-360 385,-417 420,-417 420,-360 385,-360"/>
<text text-anchor="middle" x="402.5" y="-405" font-family="Helvetica,sans-Serif" font-size="10.00">bool</text>
<polyline fill="none" stroke="#bfbfbf" points="385,-398 420,-398 "/>
<text text-anchor="middle" x="402.5" y="-386" font-family="Helvetica,sans-Serif" font-size="10.00"> </text>
<polyline fill="none" stroke="#bfbfbf" points="385,-379 420,-379 "/>
<text text-anchor="middle" x="402.5" y="-367" font-family="Helvetica,sans-Serif" font-size="10.00"> </text>
</g>
<!-- Node14&#45;&gt;Node2 -->
<g id="edge17" class="edge"><title>Node14&#45;&gt;Node2</title>
<path fill="none" stroke="#404040" d="M398.568,-359.782C394.595,-325.252 390.691,-264.739 403.5,-215 404.091,-212.706 404.776,-210.406 405.539,-208.111"/>
<polygon fill="none" stroke="#404040" points="405.609,-207.928 404.04,-200.889 409.934,-196.734 411.503,-203.772 405.609,-207.928"/>
<text text-anchor="middle" x="430.5" y="-234.5" font-family="Helvetica,sans-Serif" font-size="10.00"> #mFinished</text>
</g>
<!-- Node15 -->
<g id="node15" class="node"><title>Node15</title>
<polygon fill="none" stroke="#bfbfbf" points="459,-360 459,-417 500,-417 500,-360 459,-360"/>
<text text-anchor="middle" x="479.5" y="-405" font-family="Helvetica,sans-Serif" font-size="10.00">string</text>
<polyline fill="none" stroke="#bfbfbf" points="459,-398 500,-398 "/>
<text text-anchor="middle" x="479.5" y="-386" font-family="Helvetica,sans-Serif" font-size="10.00"> </text>
<polyline fill="none" stroke="#bfbfbf" points="459,-379 500,-379 "/>
<text text-anchor="middle" x="479.5" y="-367" font-family="Helvetica,sans-Serif" font-size="10.00"> </text>
</g>
<!-- Node15&#45;&gt;Node2 -->
<g id="edge18" class="edge"><title>Node15&#45;&gt;Node2</title>
<path fill="none" stroke="#404040" d="M476.991,-359.857C473.653,-325.658 467.043,-265.736 457.5,-215 457.096,-212.851 456.665,-210.669 456.212,-208.468"/>
<polygon fill="none" stroke="#404040" points="456.184,-208.339 450.996,-203.331 453.623,-196.616 458.811,-201.624 456.184,-208.339"/>
<text text-anchor="middle" x="516.5" y="-251" font-family="Helvetica,sans-Serif" font-size="10.00"> #mTreeNameROF</text>
<text text-anchor="middle" x="516.5" y="-240" font-family="Helvetica,sans-Serif" font-size="10.00">#mTreeNameDig</text>
<text text-anchor="middle" x="516.5" y="-229" font-family="Helvetica,sans-Serif" font-size="10.00">#mTreeNameMC2ROF</text>
<text text-anchor="middle" x="516.5" y="-218" font-family="Helvetica,sans-Serif" font-size="10.00">#mFileName</text>
</g>
</g>
</svg>
        <g id="navigator" transform="translate(0 0)" fill="#404254">
                <rect fill="#f2f5e9" fill-opacity="0.5" stroke="#606060" stroke-width=".5" x="0" y="0" width="60" height="60"/>
                <use id="zoomplus" xlink:href="#zoomPlus" x="17" y="9" onmousedown="handleZoom(evt,'in')"/>
                <use id="zoomminus" xlink:href="#zoomMin" x="42" y="9" onmousedown="handleZoom(evt,'out')"/>
                <use id="reset" xlink:href="#resetDef" x="30" y="36" onmousedown="handleReset()"/>
                <g id="arrowUp" xlink:href="#dirArrow" transform="translate(30 24)" onmousedown="handlePan(0,-1)">
                  <use xlink:href="#rim" fill="#404040">
                        <set attributeName="fill" to="#808080" begin="arrowUp.mouseover" end="arrowUp.mouseout"/>
                  </use>
                  <path fill="none" stroke="white" stroke-width="1.5" d="M0,-3.0v7 M-2.5,-0.5L0,-3.0L2.5,-0.5"/>
                </g>
                <g id="arrowRight" xlink:href="#dirArrow" transform="rotate(90) translate(36 -43)" onmousedown="handlePan(1,0)">
                  <use xlink:href="#rim" fill="#404040">
                        <set attributeName="fill" to="#808080" begin="arrowRight.mouseover" end="arrowRight.mouseout"/>
                  </use>
                  <path fill="none" stroke="white" stroke-width="1.5" d="M0,-3.0v7 M-2.5,-0.5L0,-3.0L2.5,-0.5"/>
                </g>
                <g id="arrowDown" xlink:href="#dirArrow" transform="rotate(180) translate(-30 -48)" onmousedown="handlePan(0,1)">
                  <use xlink:href="#rim" fill="#404040">
                        <set attributeName="fill" to="#808080" begin="arrowDown.mouseover" end="arrowDown.mouseout"/>
                  </use>
                  <path fill="none" stroke="white" stroke-width="1.5" d="M0,-3.0v7 M-2.5,-0.5L0,-3.0L2.5,-0.5"/>
                </g>
                <g id="arrowLeft" xlink:href="#dirArrow" transform="rotate(270) translate(-36 17)" onmousedown="handlePan(-1,0)">
                  <use xlink:href="#rim" fill="#404040">
                        <set attributeName="fill" to="#808080" begin="arrowLeft.mouseover" end="arrowLeft.mouseout"/>
                  </use>
                  <path fill="none" stroke="white" stroke-width="1.5" d="M0,-3.0v7 M-2.5,-0.5L0,-3.0L2.5,-0.5"/>
                </g>
        </g>
        <svg viewBox="0 0 15 15" width="100%" height="30px" preserveAspectRatio="xMaxYMin meet">
         <g id="arrow_out" transform="scale(0.3 0.3)">
          <a xlink:href="classo2_1_1itsmft_1_1ITSDPLDigitWriter__coll__graph_org.svg" target="_base">
           <rect id="button" ry="5" rx="5" y="6" x="6" height="38" width="38"
                fill="#f2f5e9" fill-opacity="0.5" stroke="#606060" stroke-width="1.0"/>
           <path id="arrow"
             d="M 11.500037,31.436501 C 11.940474,20.09759 22.043105,11.32322 32.158766,21.979434 L 37.068811,17.246167 C 37.068811,17.246167 37.088388,32 37.088388,32 L 22.160133,31.978069 C 22.160133,31.978069 26.997745,27.140456 26.997745,27.140456 C 18.528582,18.264221 13.291696,25.230495 11.500037,31.436501 z"
             style="fill:#404040;"/>
          </a>
         </g>
        </svg>
</svg>
