<?xml version="1.0" encoding="UTF-8" standalone="no"?>
<!DOCTYPE svg PUBLIC "-//W3C//DTD SVG 1.1//EN"
 "http://www.w3.org/Graphics/SVG/1.1/DTD/svg11.dtd">
<!-- Generated by graphviz version 2.38.0 (20140413.2041)
 -->
<!-- Title: GPUCA_NAMESPACE::gpu::GPUDisplayBackendGlfw Pages: 1 -->
<!--zoomable 1014 -->
<svg id="main" version="1.1" xmlns="http://www.w3.org/2000/svg" xmlns:xlink="http://www.w3.org/1999/xlink" xml:space="preserve" onload="init(evt)">
<style type="text/css"><![CDATA[
.edge:hover path { stroke: red; }
.edge:hover polygon { stroke: red; fill: red; }
]]></style>
<script type="text/javascript"><![CDATA[
var edges = document.getElementsByTagName('g');
if (edges && edges.length) {
  for (var i=0;i<edges.length;i++) {
    if (edges[i].id.substr(0,4)=='edge') {
      edges[i].setAttribute('class','edge');
    }
  }
}
]]></script>
        <defs>
                <circle id="rim" cx="0" cy="0" r="7"/>
                <circle id="rim2" cx="0" cy="0" r="3.5"/>
                <g id="zoomPlus">
                        <use xlink:href="#rim" fill="#404040">
                                <set attributeName="fill" to="#808080" begin="zoomplus.mouseover" end="zoomplus.mouseout"/>
                        </use>
                        <path d="M-4,0h8M0,-4v8" fill="none" stroke="white" stroke-width="1.5" pointer-events="none"/>
                </g>
                <g id="zoomMin">
                        <use xlink:href="#rim" fill="#404040">
                                <set attributeName="fill" to="#808080" begin="zoomminus.mouseover" end="zoomminus.mouseout"/>
                        </use>
                        <path d="M-4,0h8" fill="none" stroke="white" stroke-width="1.5" pointer-events="none"/>
                </g>
                <g id="dirArrow">
                        <path fill="none" stroke="white" stroke-width="1.5" d="M0,-3.0v7 M-2.5,-0.5L0,-3.0L2.5,-0.5"/>
                </g>
               <g id="resetDef">
                       <use xlink:href="#rim2" fill="#404040">
                               <set attributeName="fill" to="#808080" begin="reset.mouseover" end="reset.mouseout"/>
                       </use>
               </g>
        </defs>

<script type="text/javascript">
var viewWidth = 481;
var viewHeight = 1014;
var sectionId = 'dynsection-1';
</script>
<script xlink:href="../../svgpan.js"/>
<svg id="graph" class="graph">
<g id="viewport">
<title>GPUCA_NAMESPACE::gpu::GPUDisplayBackendGlfw</title>
<!-- Node1 -->
<g id="node1" class="node"><title>Node1</title>
<polygon fill="#bfbfbf" stroke="black" points="137,-0.5 137,-156.5 288,-156.5 288,-0.5 137,-0.5"/>
<text text-anchor="start" x="145" y="-144.5" font-family="Helvetica,sans-Serif" font-size="10.00">GPUCA_NAMESPACE::gpu</text>
<text text-anchor="middle" x="212.5" y="-133.5" font-family="Helvetica,sans-Serif" font-size="10.00">::GPUDisplayBackendGlfw</text>
<polyline fill="none" stroke="black" points="137,-126.5 288,-126.5 "/>
<text text-anchor="middle" x="212.5" y="-114.5" font-family="Helvetica,sans-Serif" font-size="10.00"> </text>
<polyline fill="none" stroke="black" points="137,-107.5 288,-107.5 "/>
<text text-anchor="start" x="145" y="-95.5" font-family="Helvetica,sans-Serif" font-size="10.00">+ GPUDisplayBackendGlfw()</text>
<text text-anchor="start" x="145" y="-84.5" font-family="Helvetica,sans-Serif" font-size="10.00">+ ~GPUDisplayBackendGlfw()</text>
<text text-anchor="start" x="145" y="-73.5" font-family="Helvetica,sans-Serif" font-size="10.00">+ StartDisplay()</text>
<text text-anchor="start" x="145" y="-62.5" font-family="Helvetica,sans-Serif" font-size="10.00">+ DisplayExit()</text>
<text text-anchor="start" x="145" y="-51.5" font-family="Helvetica,sans-Serif" font-size="10.00">+ SwitchFullscreen()</text>
<text text-anchor="start" x="145" y="-40.5" font-family="Helvetica,sans-Serif" font-size="10.00">+ ToggleMaximized()</text>
<text text-anchor="start" x="145" y="-29.5" font-family="Helvetica,sans-Serif" font-size="10.00">+ SetVSync()</text>
<text text-anchor="start" x="145" y="-18.5" font-family="Helvetica,sans-Serif" font-size="10.00">+ OpenGLPrint()</text>
<text text-anchor="start" x="145" y="-7.5" font-family="Helvetica,sans-Serif" font-size="10.00">+ EnableSendKey()</text>
</g>
<!-- Node2 -->
<g id="node2" class="node"><title>Node2</title>
<g id="a_node2"><a xlink:href="../../d6/d42/classGPUCA__NAMESPACE_1_1gpu_1_1GPUDisplayBackend.html" target="_top" xlink:title="{GPUCA_NAMESPACE::gpu\l::GPUDisplayBackend\n|# INIT_WIDTH\l# GL_WINDOW_NAME\l# KEY_LEFT\l# KEY_RIGHT\l# KEY_PAGEUP\l# KEY_PAGEDOWN\l# KEY_SHIFT\l# KEY_ALT\l# KEY_CTRL\l# KEY_F1\l# KEY_F2\l# KEY_F3\l# KEY_F10\l# KEY_F11\l# KEY_F12\l# KEY_HOME\l# KEY_END\l# KEY_INSERT\l# KEY_ESCAPE\l# KEY_ENTER\l|+ GPUDisplayBackend()\l+ ~GPUDisplayBackend()\l+ StartDisplay()\l+ DisplayExit()\l+ SwitchFullscreen()\l+ ToggleMaximized()\l+ SetVSync()\l+ EnableSendKey()\l+ OpenGLPrint()\l# OpenGLMain()\l# HandleKeyRelease()\l# DrawGLScene()\l# HandleSendKey()\l# ReSizeGLScene()\l# InitGL()\l# ExitGL()\l# OpenGLWrapper()\l}">
<polygon fill="none" stroke="black" points="141,-194.5 141,-647.5 284,-647.5 284,-194.5 141,-194.5"/>
<text text-anchor="start" x="149" y="-635.5" font-family="Helvetica,sans-Serif" font-size="10.00">GPUCA_NAMESPACE::gpu</text>
<text text-anchor="middle" x="212.5" y="-624.5" font-family="Helvetica,sans-Serif" font-size="10.00">::GPUDisplayBackend</text>
<polyline fill="none" stroke="black" points="141,-617.5 284,-617.5 "/>
<text text-anchor="start" x="149" y="-605.5" font-family="Helvetica,sans-Serif" font-size="10.00"># INIT_WIDTH</text>
<text text-anchor="start" x="149" y="-594.5" font-family="Helvetica,sans-Serif" font-size="10.00"># GL_WINDOW_NAME</text>
<text text-anchor="start" x="149" y="-583.5" font-family="Helvetica,sans-Serif" font-size="10.00"># KEY_LEFT</text>
<text text-anchor="start" x="149" y="-572.5" font-family="Helvetica,sans-Serif" font-size="10.00"># KEY_RIGHT</text>
<text text-anchor="start" x="149" y="-561.5" font-family="Helvetica,sans-Serif" font-size="10.00"># KEY_PAGEUP</text>
<text text-anchor="start" x="149" y="-550.5" font-family="Helvetica,sans-Serif" font-size="10.00"># KEY_PAGEDOWN</text>
<text text-anchor="start" x="149" y="-539.5" font-family="Helvetica,sans-Serif" font-size="10.00"># KEY_SHIFT</text>
<text text-anchor="start" x="149" y="-528.5" font-family="Helvetica,sans-Serif" font-size="10.00"># KEY_ALT</text>
<text text-anchor="start" x="149" y="-517.5" font-family="Helvetica,sans-Serif" font-size="10.00"># KEY_CTRL</text>
<text text-anchor="start" x="149" y="-506.5" font-family="Helvetica,sans-Serif" font-size="10.00"># KEY_F1</text>
<text text-anchor="start" x="149" y="-495.5" font-family="Helvetica,sans-Serif" font-size="10.00"># KEY_F2</text>
<text text-anchor="start" x="149" y="-484.5" font-family="Helvetica,sans-Serif" font-size="10.00"># KEY_F3</text>
<text text-anchor="start" x="149" y="-473.5" font-family="Helvetica,sans-Serif" font-size="10.00"># KEY_F10</text>
<text text-anchor="start" x="149" y="-462.5" font-family="Helvetica,sans-Serif" font-size="10.00"># KEY_F11</text>
<text text-anchor="start" x="149" y="-451.5" font-family="Helvetica,sans-Serif" font-size="10.00"># KEY_F12</text>
<text text-anchor="start" x="149" y="-440.5" font-family="Helvetica,sans-Serif" font-size="10.00"># KEY_HOME</text>
<text text-anchor="start" x="149" y="-429.5" font-family="Helvetica,sans-Serif" font-size="10.00"># KEY_END</text>
<text text-anchor="start" x="149" y="-418.5" font-family="Helvetica,sans-Serif" font-size="10.00"># KEY_INSERT</text>
<text text-anchor="start" x="149" y="-407.5" font-family="Helvetica,sans-Serif" font-size="10.00"># KEY_ESCAPE</text>
<text text-anchor="start" x="149" y="-396.5" font-family="Helvetica,sans-Serif" font-size="10.00"># KEY_ENTER</text>
<polyline fill="none" stroke="black" points="141,-389.5 284,-389.5 "/>
<text text-anchor="start" x="149" y="-377.5" font-family="Helvetica,sans-Serif" font-size="10.00">+ GPUDisplayBackend()</text>
<text text-anchor="start" x="149" y="-366.5" font-family="Helvetica,sans-Serif" font-size="10.00">+ ~GPUDisplayBackend()</text>
<text text-anchor="start" x="149" y="-355.5" font-family="Helvetica,sans-Serif" font-size="10.00">+ StartDisplay()</text>
<text text-anchor="start" x="149" y="-344.5" font-family="Helvetica,sans-Serif" font-size="10.00">+ DisplayExit()</text>
<text text-anchor="start" x="149" y="-333.5" font-family="Helvetica,sans-Serif" font-size="10.00">+ SwitchFullscreen()</text>
<text text-anchor="start" x="149" y="-322.5" font-family="Helvetica,sans-Serif" font-size="10.00">+ ToggleMaximized()</text>
<text text-anchor="start" x="149" y="-311.5" font-family="Helvetica,sans-Serif" font-size="10.00">+ SetVSync()</text>
<text text-anchor="start" x="149" y="-300.5" font-family="Helvetica,sans-Serif" font-size="10.00">+ EnableSendKey()</text>
<text text-anchor="start" x="149" y="-289.5" font-family="Helvetica,sans-Serif" font-size="10.00">+ OpenGLPrint()</text>
<text text-anchor="start" x="149" y="-278.5" font-family="Helvetica,sans-Serif" font-size="10.00"># OpenGLMain()</text>
<text text-anchor="start" x="149" y="-267.5" font-family="Helvetica,sans-Serif" font-size="10.00"># HandleKeyRelease()</text>
<text text-anchor="start" x="149" y="-256.5" font-family="Helvetica,sans-Serif" font-size="10.00"># DrawGLScene()</text>
<text text-anchor="start" x="149" y="-245.5" font-family="Helvetica,sans-Serif" font-size="10.00"># HandleSendKey()</text>
<text text-anchor="start" x="149" y="-234.5" font-family="Helvetica,sans-Serif" font-size="10.00"># ReSizeGLScene()</text>
<text text-anchor="start" x="149" y="-223.5" font-family="Helvetica,sans-Serif" font-size="10.00"># InitGL()</text>
<text text-anchor="start" x="149" y="-212.5" font-family="Helvetica,sans-Serif" font-size="10.00"># ExitGL()</text>
<text text-anchor="start" x="149" y="-201.5" font-family="Helvetica,sans-Serif" font-size="10.00"># OpenGLWrapper()</text>
</a>
</g>
</g>
<!-- Node2&#45;&gt;Node1 -->
<g id="edge1" class="edge"><title>Node2&#45;&gt;Node1</title>
<path fill="none" stroke="midnightblue" d="M212.5,-184.208C212.5,-174.629 212.5,-165.377 212.5,-156.601"/>
<polygon fill="none" stroke="midnightblue" points="209,-184.303 212.5,-194.303 216,-184.303 209,-184.303"/>
</g>
<!-- Node3 -->
<g id="node3" class="node"><title>Node3</title>
<g id="a_node3"><a xlink:href="../../d4/dc3/classfloat.html" target="_top" xlink:title="{float\n||}">
<polygon fill="none" stroke="black" points="0,-877 0,-934 35,-934 35,-877 0,-877"/>
<text text-anchor="middle" x="17.5" y="-922" font-family="Helvetica,sans-Serif" font-size="10.00">float</text>
<polyline fill="none" stroke="black" points="0,-915 35,-915 "/>
<text text-anchor="middle" x="17.5" y="-903" font-family="Helvetica,sans-Serif" font-size="10.00"> </text>
<polyline fill="none" stroke="black" points="0,-896 35,-896 "/>
<text text-anchor="middle" x="17.5" y="-884" font-family="Helvetica,sans-Serif" font-size="10.00"> </text>
</a>
</g>
</g>
<!-- Node3&#45;&gt;Node2 -->
<g id="edge2" class="edge"><title>Node3&#45;&gt;Node2</title>
<path fill="none" stroke="#404040" d="M20.135,-876.826C25.1174,-831.478 38.0773,-739.08 66.5,-666 84.0719,-620.819 109.646,-574.397 134.498,-534.333"/>
<polygon fill="none" stroke="#404040" points="134.59,-534.187 134.389,-526.978 140.966,-524.021 141.167,-531.229 134.59,-534.187"/>
<text text-anchor="middle" x="99.5" y="-740.5" font-family="Helvetica,sans-Serif" font-size="10.00"> #mMouseDnX</text>
<text text-anchor="middle" x="99.5" y="-729.5" font-family="Helvetica,sans-Serif" font-size="10.00">#mMouseDnY</text>
<text text-anchor="middle" x="99.5" y="-718.5" font-family="Helvetica,sans-Serif" font-size="10.00">#mouseMvX</text>
<text text-anchor="middle" x="99.5" y="-707.5" font-family="Helvetica,sans-Serif" font-size="10.00">#mouseMvY</text>
</g>
<!-- Node4 -->
<g id="node4" class="node"><title>Node4</title>
<g id="a_node4"><a xlink:href="../../d9/dda/classGPUCA__NAMESPACE_1_1gpu_1_1GPUDisplay.html" target="_top" xlink:title="{GPUCA_NAMESPACE::gpu\l::GPUDisplay\n||+ GPUDisplay()\l+ ~GPUDisplay()\l+ GPUDisplay()\l+ StartDisplay()\l+ ShowNextEvent()\l+ WaitForNextEvent()\l+ SetCollisionFirstCluster()\l+ HandleKeyRelease()\l+ DrawGLScene()\l+ HandleSendKey()\l+ InitGL()\l+ ExitGL()\l+ ReSizeGLScene()\l}">
<polygon fill="none" stroke="black" points="53,-805.5 53,-1005.5 196,-1005.5 196,-805.5 53,-805.5"/>
<text text-anchor="start" x="61" y="-993.5" font-family="Helvetica,sans-Serif" font-size="10.00">GPUCA_NAMESPACE::gpu</text>
<text text-anchor="middle" x="124.5" y="-982.5" font-family="Helvetica,sans-Serif" font-size="10.00">::GPUDisplay</text>
<polyline fill="none" stroke="black" points="53,-975.5 196,-975.5 "/>
<text text-anchor="middle" x="124.5" y="-963.5" font-family="Helvetica,sans-Serif" font-size="10.00"> </text>
<polyline fill="none" stroke="black" points="53,-956.5 196,-956.5 "/>
<text text-anchor="start" x="61" y="-944.5" font-family="Helvetica,sans-Serif" font-size="10.00">+ GPUDisplay()</text>
<text text-anchor="start" x="61" y="-933.5" font-family="Helvetica,sans-Serif" font-size="10.00">+ ~GPUDisplay()</text>
<text text-anchor="start" x="61" y="-922.5" font-family="Helvetica,sans-Serif" font-size="10.00">+ GPUDisplay()</text>
<text text-anchor="start" x="61" y="-911.5" font-family="Helvetica,sans-Serif" font-size="10.00">+ StartDisplay()</text>
<text text-anchor="start" x="61" y="-900.5" font-family="Helvetica,sans-Serif" font-size="10.00">+ ShowNextEvent()</text>
<text text-anchor="start" x="61" y="-889.5" font-family="Helvetica,sans-Serif" font-size="10.00">+ WaitForNextEvent()</text>
<text text-anchor="start" x="61" y="-878.5" font-family="Helvetica,sans-Serif" font-size="10.00">+ SetCollisionFirstCluster()</text>
<text text-anchor="start" x="61" y="-867.5" font-family="Helvetica,sans-Serif" font-size="10.00">+ HandleKeyRelease()</text>
<text text-anchor="start" x="61" y="-856.5" font-family="Helvetica,sans-Serif" font-size="10.00">+ DrawGLScene()</text>
<text text-anchor="start" x="61" y="-845.5" font-family="Helvetica,sans-Serif" font-size="10.00">+ HandleSendKey()</text>
<text text-anchor="start" x="61" y="-834.5" font-family="Helvetica,sans-Serif" font-size="10.00">+ InitGL()</text>
<text text-anchor="start" x="61" y="-823.5" font-family="Helvetica,sans-Serif" font-size="10.00">+ ExitGL()</text>
<text text-anchor="start" x="61" y="-812.5" font-family="Helvetica,sans-Serif" font-size="10.00">+ ReSizeGLScene()</text>
</a>
</g>
</g>
<!-- Node4&#45;&gt;Node2 -->
<g id="edge3" class="edge"><title>Node4&#45;&gt;Node2</title>
<path fill="none" stroke="#404040" d="M134.555,-805.211C139.534,-762.244 146.26,-711.478 154.5,-666 154.874,-663.938 155.254,-661.868 155.64,-659.789"/>
<polygon fill="none" stroke="#404040" points="155.676,-659.6 152.866,-652.959 157.915,-647.811 160.725,-654.452 155.676,-659.6"/>
<text text-anchor="middle" x="179.5" y="-724" font-family="Helvetica,sans-Serif" font-size="10.00"> #mDisplay</text>
</g>
<!-- Node5 -->
<g id="node5" class="node"><title>Node5</title>
<polygon fill="none" stroke="#bfbfbf" points="214,-877 214,-934 243,-934 243,-877 214,-877"/>
<text text-anchor="middle" x="228.5" y="-922" font-family="Helvetica,sans-Serif" font-size="10.00">int</text>
<polyline fill="none" stroke="#bfbfbf" points="214,-915 243,-915 "/>
<text text-anchor="middle" x="228.5" y="-903" font-family="Helvetica,sans-Serif" font-size="10.00"> </text>
<polyline fill="none" stroke="#bfbfbf" points="214,-896 243,-896 "/>
<text text-anchor="middle" x="228.5" y="-884" font-family="Helvetica,sans-Serif" font-size="10.00"> </text>
</g>
<!-- Node5&#45;&gt;Node2 -->
<g id="edge4" class="edge"><title>Node5&#45;&gt;Node2</title>
<path fill="none" stroke="#404040" d="M223.943,-876.58C220.305,-852.832 215.499,-817.782 213.5,-787 210.831,-745.905 209.453,-702.152 208.882,-659.74"/>
<polygon fill="none" stroke="#404040" points="208.879,-659.52 204.809,-653.567 208.739,-647.52 212.809,-653.473 208.879,-659.52"/>
<text text-anchor="middle" x="253" y="-757" font-family="Helvetica,sans-Serif" font-size="10.00"> #mMouseWheel</text>
<text text-anchor="middle" x="253" y="-746" font-family="Helvetica,sans-Serif" font-size="10.00">#mDisplayHeight</text>
<text text-anchor="middle" x="253" y="-735" font-family="Helvetica,sans-Serif" font-size="10.00">+mSendKey</text>
<text text-anchor="middle" x="253" y="-724" font-family="Helvetica,sans-Serif" font-size="10.00">#mMaxFPSRate</text>
<text text-anchor="middle" x="253" y="-713" font-family="Helvetica,sans-Serif" font-size="10.00">+mNeedUpdate</text>
<text text-anchor="middle" x="253" y="-702" font-family="Helvetica,sans-Serif" font-size="10.00">+mDisplayControl</text>
<text text-anchor="middle" x="253" y="-691" font-family="Helvetica,sans-Serif" font-size="10.00">#mDisplayWidth</text>
</g>
<!-- Node6 -->
<g id="node6" class="node"><title>Node6</title>
<polygon fill="none" stroke="#bfbfbf" points="297,-877 297,-934 332,-934 332,-877 297,-877"/>
<text text-anchor="middle" x="314.5" y="-922" font-family="Helvetica,sans-Serif" font-size="10.00">bool</text>
<polyline fill="none" stroke="#bfbfbf" points="297,-915 332,-915 "/>
<text text-anchor="middle" x="314.5" y="-903" font-family="Helvetica,sans-Serif" font-size="10.00"> </text>
<polyline fill="none" stroke="#bfbfbf" points="297,-896 332,-896 "/>
<text text-anchor="middle" x="314.5" y="-884" font-family="Helvetica,sans-Serif" font-size="10.00"> </text>
</g>
<!-- Node6&#45;&gt;Node2 -->
<g id="edge5" class="edge"><title>Node6&#45;&gt;Node2</title>
<path fill="none" stroke="#404040" d="M313.954,-876.659C312.626,-831.843 308.073,-741.122 292.5,-666 290.824,-657.915 288.972,-649.723 286.978,-641.481"/>
<polygon fill="none" stroke="#404040" points="286.969,-641.446 281.637,-636.591 284.067,-629.802 289.399,-634.657 286.969,-641.446"/>
<text text-anchor="middle" x="342" y="-740.5" font-family="Helvetica,sans-Serif" font-size="10.00"> #mMouseDnR</text>
<text text-anchor="middle" x="342" y="-729.5" font-family="Helvetica,sans-Serif" font-size="10.00">#mMouseDn</text>
<text text-anchor="middle" x="342" y="-718.5" font-family="Helvetica,sans-Serif" font-size="10.00">#mKeys</text>
<text text-anchor="middle" x="342" y="-707.5" font-family="Helvetica,sans-Serif" font-size="10.00">#mKeysShift</text>
</g>
<!-- Node7 -->
<g id="node7" class="node"><title>Node7</title>
<polygon fill="none" stroke="#bfbfbf" points="384,-877 384,-934 425,-934 425,-877 384,-877"/>
<text text-anchor="middle" x="404.5" y="-922" font-family="Helvetica,sans-Serif" font-size="10.00">static</text>
<polyline fill="none" stroke="#bfbfbf" points="384,-915 425,-915 "/>
<text text-anchor="middle" x="404.5" y="-903" font-family="Helvetica,sans-Serif" font-size="10.00"> </text>
<polyline fill="none" stroke="#bfbfbf" points="384,-896 425,-896 "/>
<text text-anchor="middle" x="404.5" y="-884" font-family="Helvetica,sans-Serif" font-size="10.00"> </text>
</g>
<!-- Node7&#45;&gt;Node2 -->
<g id="edge6" class="edge"><title>Node7&#45;&gt;Node2</title>
<path fill="none" stroke="#404040" d="M405.92,-876.691C407.305,-831.15 406.15,-738.486 379.5,-666 359.409,-611.354 324.339,-557.233 291.507,-513.9"/>
<polygon fill="none" stroke="#404040" points="291.412,-513.776 284.585,-511.453 284.104,-504.258 290.93,-506.581 291.412,-513.776"/>
<text text-anchor="middle" x="438" y="-779" font-family="Helvetica,sans-Serif" font-size="10.00"> #KEY_F4</text>
<text text-anchor="middle" x="438" y="-768" font-family="Helvetica,sans-Serif" font-size="10.00">#KEY_DOWN</text>
<text text-anchor="middle" x="438" y="-757" font-family="Helvetica,sans-Serif" font-size="10.00">#KEY_UP</text>
<text text-anchor="middle" x="438" y="-746" font-family="Helvetica,sans-Serif" font-size="10.00">#KEY_F5</text>
<text text-anchor="middle" x="438" y="-735" font-family="Helvetica,sans-Serif" font-size="10.00">#INIT_HEIGHT</text>
<text text-anchor="middle" x="438" y="-724" font-family="Helvetica,sans-Serif" font-size="10.00">#KEY_F6</text>
<text text-anchor="middle" x="438" y="-713" font-family="Helvetica,sans-Serif" font-size="10.00">#KEY_F7</text>
<text text-anchor="middle" x="438" y="-702" font-family="Helvetica,sans-Serif" font-size="10.00">#KEY_SPACE</text>
<text text-anchor="middle" x="438" y="-691" font-family="Helvetica,sans-Serif" font-size="10.00">#KEY_F8</text>
<text text-anchor="middle" x="438" y="-680" font-family="Helvetica,sans-Serif" font-size="10.00">#KEY_F9</text>
<text text-anchor="middle" x="438" y="-669" font-family="Helvetica,sans-Serif" font-size="10.00">...</text>
</g>
</g>
</svg>
        <g id="navigator" transform="translate(0 0)" fill="#404254">
                <rect fill="#f2f5e9" fill-opacity="0.5" stroke="#606060" stroke-width=".5" x="0" y="0" width="60" height="60"/>
                <use id="zoomplus" xlink:href="#zoomPlus" x="17" y="9" onmousedown="handleZoom(evt,'in')"/>
                <use id="zoomminus" xlink:href="#zoomMin" x="42" y="9" onmousedown="handleZoom(evt,'out')"/>
                <use id="reset" xlink:href="#resetDef" x="30" y="36" onmousedown="handleReset()"/>
                <g id="arrowUp" xlink:href="#dirArrow" transform="translate(30 24)" onmousedown="handlePan(0,-1)">
                  <use xlink:href="#rim" fill="#404040">
                        <set attributeName="fill" to="#808080" begin="arrowUp.mouseover" end="arrowUp.mouseout"/>
                  </use>
                  <path fill="none" stroke="white" stroke-width="1.5" d="M0,-3.0v7 M-2.5,-0.5L0,-3.0L2.5,-0.5"/>
                </g>
                <g id="arrowRight" xlink:href="#dirArrow" transform="rotate(90) translate(36 -43)" onmousedown="handlePan(1,0)">
                  <use xlink:href="#rim" fill="#404040">
                        <set attributeName="fill" to="#808080" begin="arrowRight.mouseover" end="arrowRight.mouseout"/>
                  </use>
                  <path fill="none" stroke="white" stroke-width="1.5" d="M0,-3.0v7 M-2.5,-0.5L0,-3.0L2.5,-0.5"/>
                </g>
                <g id="arrowDown" xlink:href="#dirArrow" transform="rotate(180) translate(-30 -48)" onmousedown="handlePan(0,1)">
                  <use xlink:href="#rim" fill="#404040">
                        <set attributeName="fill" to="#808080" begin="arrowDown.mouseover" end="arrowDown.mouseout"/>
                  </use>
                  <path fill="none" stroke="white" stroke-width="1.5" d="M0,-3.0v7 M-2.5,-0.5L0,-3.0L2.5,-0.5"/>
                </g>
                <g id="arrowLeft" xlink:href="#dirArrow" transform="rotate(270) translate(-36 17)" onmousedown="handlePan(-1,0)">
                  <use xlink:href="#rim" fill="#404040">
                        <set attributeName="fill" to="#808080" begin="arrowLeft.mouseover" end="arrowLeft.mouseout"/>
                  </use>
                  <path fill="none" stroke="white" stroke-width="1.5" d="M0,-3.0v7 M-2.5,-0.5L0,-3.0L2.5,-0.5"/>
                </g>
        </g>
        <svg viewBox="0 0 15 15" width="100%" height="30px" preserveAspectRatio="xMaxYMin meet">
         <g id="arrow_out" transform="scale(0.3 0.3)">
          <a xlink:href="classGPUCA__NAMESPACE_1_1gpu_1_1GPUDisplayBackendGlfw__coll__graph_org.svg" target="_base">
           <rect id="button" ry="5" rx="5" y="6" x="6" height="38" width="38"
                fill="#f2f5e9" fill-opacity="0.5" stroke="#606060" stroke-width="1.0"/>
           <path id="arrow"
             d="M 11.500037,31.436501 C 11.940474,20.09759 22.043105,11.32322 32.158766,21.979434 L 37.068811,17.246167 C 37.068811,17.246167 37.088388,32 37.088388,32 L 22.160133,31.978069 C 22.160133,31.978069 26.997745,27.140456 26.997745,27.140456 C 18.528582,18.264221 13.291696,25.230495 11.500037,31.436501 z"
             style="fill:#404040;"/>
          </a>
         </g>
        </svg>
</svg>
