<?xml version="1.0" encoding="UTF-8" standalone="no"?>
<!DOCTYPE svg PUBLIC "-//W3C//DTD SVG 1.1//EN"
 "http://www.w3.org/Graphics/SVG/1.1/DTD/svg11.dtd">
<!-- Generated by graphviz version 2.38.0 (20140413.2041)
 -->
<!-- Title: /home/travis/build/AliceO2Group/AliceO2/EventVisualisation/View/src/EventManager.cxx Pages: 1 -->
<!--zoomable 508 -->
<svg id="main" version="1.1" xmlns="http://www.w3.org/2000/svg" xmlns:xlink="http://www.w3.org/1999/xlink" xml:space="preserve" onload="init(evt)">
<style type="text/css"><![CDATA[
.edge:hover path { stroke: red; }
.edge:hover polygon { stroke: red; fill: red; }
]]></style>
<script type="text/javascript"><![CDATA[
var edges = document.getElementsByTagName('g');
if (edges && edges.length) {
  for (var i=0;i<edges.length;i++) {
    if (edges[i].id.substr(0,4)=='edge') {
      edges[i].setAttribute('class','edge');
    }
  }
}
]]></script>
        <defs>
                <circle id="rim" cx="0" cy="0" r="7"/>
                <circle id="rim2" cx="0" cy="0" r="3.5"/>
                <g id="zoomPlus">
                        <use xlink:href="#rim" fill="#404040">
                                <set attributeName="fill" to="#808080" begin="zoomplus.mouseover" end="zoomplus.mouseout"/>
                        </use>
                        <path d="M-4,0h8M0,-4v8" fill="none" stroke="white" stroke-width="1.5" pointer-events="none"/>
                </g>
                <g id="zoomMin">
                        <use xlink:href="#rim" fill="#404040">
                                <set attributeName="fill" to="#808080" begin="zoomminus.mouseover" end="zoomminus.mouseout"/>
                        </use>
                        <path d="M-4,0h8" fill="none" stroke="white" stroke-width="1.5" pointer-events="none"/>
                </g>
                <g id="dirArrow">
                        <path fill="none" stroke="white" stroke-width="1.5" d="M0,-3.0v7 M-2.5,-0.5L0,-3.0L2.5,-0.5"/>
                </g>
               <g id="resetDef">
                       <use xlink:href="#rim2" fill="#404040">
                               <set attributeName="fill" to="#808080" begin="reset.mouseover" end="reset.mouseout"/>
                       </use>
               </g>
        </defs>

<script type="text/javascript">
var viewWidth = 2215;
var viewHeight = 508;
var sectionId = 'dynsection-0';
</script>
<script xlink:href="../../svgpan.js"/>
<svg id="graph" class="graph">
<g id="viewport">
<title>/home/travis/build/AliceO2Group/AliceO2/EventVisualisation/View/src/EventManager.cxx</title>
<!-- Node1 -->
<g id="node1" class="node"><title>Node1</title>
<polygon fill="#bfbfbf" stroke="black" points="1223.5,-447.5 1223.5,-499.5 1348.5,-499.5 1348.5,-447.5 1223.5,-447.5"/>
<text text-anchor="start" x="1231.5" y="-487.5" font-family="Helvetica,sans-Serif" font-size="10.00">/home/travis/build</text>
<text text-anchor="start" x="1231.5" y="-476.5" font-family="Helvetica,sans-Serif" font-size="10.00">/AliceO2Group/AliceO2</text>
<text text-anchor="start" x="1231.5" y="-465.5" font-family="Helvetica,sans-Serif" font-size="10.00">/EventVisualisation/View</text>
<text text-anchor="middle" x="1286" y="-454.5" font-family="Helvetica,sans-Serif" font-size="10.00">/src/EventManager.cxx</text>
</g>
<!-- Node2 -->
<g id="node2" class="node"><title>Node2</title>
<g id="a_node2"><a xlink:href="../../d8/d25/EventManager_8h.html" target="_top" xlink:title="EventVisualisationView\l/EventManager.h">
<polygon fill="none" stroke="black" points="375.5,-380.5 375.5,-410.5 494.5,-410.5 494.5,-380.5 375.5,-380.5"/>
<text text-anchor="start" x="383.5" y="-398.5" font-family="Helvetica,sans-Serif" font-size="10.00">EventVisualisationView</text>
<text text-anchor="middle" x="435" y="-387.5" font-family="Helvetica,sans-Serif" font-size="10.00">/EventManager.h</text>
</a>
</g>
</g>
<!-- Node1&#45;&gt;Node2 -->
<g id="edge1" class="edge"><title>Node1&#45;&gt;Node2</title>
<path fill="none" stroke="midnightblue" d="M1223.07,-468.676C1093.87,-460.532 789.448,-439.838 535,-411 525.195,-409.889 514.871,-408.566 504.729,-407.178"/>
<polygon fill="midnightblue" stroke="midnightblue" points="505.062,-403.69 494.674,-405.774 504.094,-410.623 505.062,-403.69"/>
</g>
<!-- Node5 -->
<g id="node5" class="node"><title>Node5</title>
<g id="a_node5"><a xlink:href="../../dd/dbf/DataInterpreter_8h.html" target="_top" xlink:title="EventVisualisationBase\l/DataInterpreter.h">
<polygon fill="none" stroke="black" points="577,-313.5 577,-343.5 697,-343.5 697,-313.5 577,-313.5"/>
<text text-anchor="start" x="585" y="-331.5" font-family="Helvetica,sans-Serif" font-size="10.00">EventVisualisationBase</text>
<text text-anchor="middle" x="637" y="-320.5" font-family="Helvetica,sans-Serif" font-size="10.00">/DataInterpreter.h</text>
</a>
</g>
</g>
<!-- Node1&#45;&gt;Node5 -->
<g id="edge51" class="edge"><title>Node1&#45;&gt;Node5</title>
<path fill="none" stroke="midnightblue" d="M1223.11,-469.32C1100.52,-462.466 834.141,-444.174 749,-411 713.833,-397.297 679.689,-369.763 658.532,-350.507"/>
<polygon fill="midnightblue" stroke="midnightblue" points="660.79,-347.827 651.084,-343.579 656.022,-352.953 660.79,-347.827"/>
</g>
<!-- Node6 -->
<g id="node6" class="node"><title>Node6</title>
<g id="a_node6"><a xlink:href="../../d0/d35/VisualisationEvent_8h.html" target="_top" xlink:title="EventVisualisationDataConverter\l/VisualisationEvent.h">
<polygon fill="none" stroke="black" points="715.5,-246.5 715.5,-276.5 876.5,-276.5 876.5,-246.5 715.5,-246.5"/>
<text text-anchor="start" x="723.5" y="-264.5" font-family="Helvetica,sans-Serif" font-size="10.00">EventVisualisationDataConverter</text>
<text text-anchor="middle" x="796" y="-253.5" font-family="Helvetica,sans-Serif" font-size="10.00">/VisualisationEvent.h</text>
</a>
</g>
</g>
<!-- Node1&#45;&gt;Node6 -->
<g id="edge46" class="edge"><title>Node1&#45;&gt;Node6</title>
<path fill="none" stroke="midnightblue" d="M1223.29,-468.588C1147.04,-462.414 1015.27,-447.145 908,-411 847.895,-390.748 814.665,-398.366 782,-344 771.431,-326.409 777.03,-303.052 784.036,-285.853"/>
<polygon fill="midnightblue" stroke="midnightblue" points="787.319,-287.086 788.213,-276.529 780.931,-284.224 787.319,-287.086"/>
</g>
<!-- Node15 -->
<g id="node15" class="node"><title>Node15</title>
<polygon fill="none" stroke="#bfbfbf" points="544,-252 544,-271 628,-271 628,-252 544,-252"/>
<text text-anchor="middle" x="586" y="-259" font-family="Helvetica,sans-Serif" font-size="10.00">TEveElement.h</text>
</g>
<!-- Node1&#45;&gt;Node15 -->
<g id="edge67" class="edge"><title>Node1&#45;&gt;Node15</title>
<path fill="none" stroke="midnightblue" d="M1223.31,-469.074C1091.74,-461.383 790.9,-441.036 693,-411 632.74,-392.512 600.374,-398.084 568,-344 556.117,-324.149 566.059,-297.357 575.223,-280.004"/>
<polygon fill="midnightblue" stroke="midnightblue" points="578.444,-281.422 580.359,-271.002 572.364,-277.953 578.444,-281.422"/>
</g>
<!-- Node28 -->
<g id="node28" class="node"><title>Node28</title>
<g id="a_node28"><a xlink:href="../../d7/d29/MultiView_8h.html" target="_top" xlink:title="EventVisualisationView\l/MultiView.h">
<polygon fill="none" stroke="black" points="1093.5,-380.5 1093.5,-410.5 1212.5,-410.5 1212.5,-380.5 1093.5,-380.5"/>
<text text-anchor="start" x="1101.5" y="-398.5" font-family="Helvetica,sans-Serif" font-size="10.00">EventVisualisationView</text>
<text text-anchor="middle" x="1153" y="-387.5" font-family="Helvetica,sans-Serif" font-size="10.00">/MultiView.h</text>
</a>
</g>
</g>
<!-- Node1&#45;&gt;Node28 -->
<g id="edge40" class="edge"><title>Node1&#45;&gt;Node28</title>
<path fill="none" stroke="midnightblue" d="M1242.08,-447.404C1224.08,-437.117 1203.57,-425.397 1186.77,-415.798"/>
<polygon fill="midnightblue" stroke="midnightblue" points="1188.28,-412.629 1177.86,-410.707 1184.81,-418.707 1188.28,-412.629"/>
</g>
<!-- Node33 -->
<g id="node33" class="node"><title>Node33</title>
<g id="a_node33"><a xlink:href="../../db/d9e/ConfigurationManager_8h.html" target="_top" xlink:title="EventVisualisationBase\l/ConfigurationManager.h">
<polygon fill="none" stroke="black" points="1269.5,-380.5 1269.5,-410.5 1392.5,-410.5 1392.5,-380.5 1269.5,-380.5"/>
<text text-anchor="start" x="1277.5" y="-398.5" font-family="Helvetica,sans-Serif" font-size="10.00">EventVisualisationBase</text>
<text text-anchor="middle" x="1331" y="-387.5" font-family="Helvetica,sans-Serif" font-size="10.00">/ConfigurationManager.h</text>
</a>
</g>
</g>
<!-- Node1&#45;&gt;Node33 -->
<g id="edge47" class="edge"><title>Node1&#45;&gt;Node33</title>
<path fill="none" stroke="midnightblue" d="M1300.98,-447.193C1306.24,-438.314 1312.12,-428.391 1317.27,-419.694"/>
<polygon fill="midnightblue" stroke="midnightblue" points="1320.42,-421.233 1322.51,-410.845 1314.4,-417.667 1320.42,-421.233"/>
</g>
<!-- Node34 -->
<g id="node34" class="node"><title>Node34</title>
<polygon fill="none" stroke="#bfbfbf" points="1499,-319 1499,-338 1547,-338 1547,-319 1499,-319"/>
<text text-anchor="middle" x="1523" y="-326" font-family="Helvetica,sans-Serif" font-size="10.00">TEnv.h</text>
</g>
<!-- Node1&#45;&gt;Node34 -->
<g id="edge66" class="edge"><title>Node1&#45;&gt;Node34</title>
<path fill="none" stroke="midnightblue" d="M1267.7,-447.427C1255.3,-427.122 1243.84,-398.885 1260,-380 1293.63,-340.692 1440.35,-358.527 1490,-344 1492.15,-343.372 1494.34,-342.636 1496.52,-341.836"/>
<polygon fill="midnightblue" stroke="midnightblue" points="1497.9,-345.051 1505.85,-338.04 1495.26,-338.568 1497.9,-345.051"/>
</g>
<!-- Node35 -->
<g id="node35" class="node"><title>Node35</title>
<g id="a_node35"><a xlink:href="../../dc/d54/DataSource_8h.html" target="_top" xlink:title="EventVisualisationBase\l/DataSource.h">
<polygon fill="none" stroke="black" points="929,-313.5 929,-343.5 1049,-343.5 1049,-313.5 929,-313.5"/>
<text text-anchor="start" x="937" y="-331.5" font-family="Helvetica,sans-Serif" font-size="10.00">EventVisualisationBase</text>
<text text-anchor="middle" x="989" y="-320.5" font-family="Helvetica,sans-Serif" font-size="10.00">/DataSource.h</text>
</a>
</g>
</g>
<!-- Node1&#45;&gt;Node35 -->
<g id="edge49" class="edge"><title>Node1&#45;&gt;Node35</title>
<path fill="none" stroke="midnightblue" d="M1223.26,-460.451C1181.98,-450.86 1127.7,-435.003 1084,-411 1079.97,-408.784 1039.64,-373.786 1012.84,-350.38"/>
<polygon fill="midnightblue" stroke="midnightblue" points="1014.85,-347.484 1005.01,-343.538 1010.24,-352.754 1014.85,-347.484"/>
</g>
<!-- Node36 -->
<g id="node36" class="node"><title>Node36</title>
<g id="a_node36"><a xlink:href="../../d1/deb/DataSourceOffline_8h.html" target="_top" xlink:title="Grouping reading from file(s) ">
<polygon fill="none" stroke="black" points="917,-380.5 917,-410.5 1037,-410.5 1037,-380.5 917,-380.5"/>
<text text-anchor="start" x="925" y="-398.5" font-family="Helvetica,sans-Serif" font-size="10.00">EventVisualisationBase</text>
<text text-anchor="middle" x="977" y="-387.5" font-family="Helvetica,sans-Serif" font-size="10.00">/DataSourceOffline.h</text>
</a>
</g>
</g>
<!-- Node1&#45;&gt;Node36 -->
<g id="edge52" class="edge"><title>Node1&#45;&gt;Node36</title>
<path fill="none" stroke="midnightblue" d="M1223.47,-457.12C1171.37,-444.305 1097.32,-426.093 1044.01,-412.981"/>
<polygon fill="midnightblue" stroke="midnightblue" points="1044.52,-409.502 1033.97,-410.512 1042.85,-416.299 1044.52,-409.502"/>
</g>
<!-- Node37 -->
<g id="node37" class="node"><title>Node37</title>
<g id="a_node37"><a xlink:href="../../d3/d28/DataReaderVSD_8h.html" target="_top" xlink:title="EventVisualisationDetectors\l/DataReaderVSD.h">
<polygon fill="none" stroke="black" points="1411,-380.5 1411,-410.5 1551,-410.5 1551,-380.5 1411,-380.5"/>
<text text-anchor="start" x="1419" y="-398.5" font-family="Helvetica,sans-Serif" font-size="10.00">EventVisualisationDetectors</text>
<text text-anchor="middle" x="1481" y="-387.5" font-family="Helvetica,sans-Serif" font-size="10.00">/DataReaderVSD.h</text>
</a>
</g>
</g>
<!-- Node1&#45;&gt;Node37 -->
<g id="edge55" class="edge"><title>Node1&#45;&gt;Node37</title>
<path fill="none" stroke="midnightblue" d="M1348.5,-448.14C1376.76,-437.129 1409.53,-424.357 1435.41,-414.269"/>
<polygon fill="midnightblue" stroke="midnightblue" points="1436.92,-417.436 1444.97,-410.544 1434.38,-410.914 1436.92,-417.436"/>
</g>
<!-- Node41 -->
<g id="node41" class="node"><title>Node41</title>
<polygon fill="none" stroke="#bfbfbf" points="1569,-386 1569,-405 1655,-405 1655,-386 1569,-386"/>
<text text-anchor="middle" x="1612" y="-393" font-family="Helvetica,sans-Serif" font-size="10.00">TEveManager.h</text>
</g>
<!-- Node1&#45;&gt;Node41 -->
<g id="edge62" class="edge"><title>Node1&#45;&gt;Node41</title>
<path fill="none" stroke="midnightblue" d="M1348.52,-459.421C1404.19,-447.546 1487.78,-429.162 1560,-411 1564.09,-409.971 1568.35,-408.856 1572.59,-407.717"/>
<polygon fill="midnightblue" stroke="midnightblue" points="1573.65,-411.057 1582.37,-405.044 1571.8,-404.305 1573.65,-411.057"/>
</g>
<!-- Node42 -->
<g id="node42" class="node"><title>Node42</title>
<polygon fill="none" stroke="#bfbfbf" points="1673.5,-386 1673.5,-405 1802.5,-405 1802.5,-386 1673.5,-386"/>
<text text-anchor="middle" x="1738" y="-393" font-family="Helvetica,sans-Serif" font-size="10.00">TEveProjectionManager.h</text>
</g>
<!-- Node1&#45;&gt;Node42 -->
<g id="edge63" class="edge"><title>Node1&#45;&gt;Node42</title>
<path fill="none" stroke="midnightblue" d="M1348.64,-462.941C1423.71,-451.339 1553.24,-430.857 1664,-411 1671.09,-409.729 1678.55,-408.336 1685.89,-406.93"/>
<polygon fill="midnightblue" stroke="midnightblue" points="1686.63,-410.352 1695.78,-405.016 1685.3,-403.479 1686.63,-410.352"/>
</g>
<!-- Node43 -->
<g id="node43" class="node"><title>Node43</title>
<polygon fill="none" stroke="#bfbfbf" points="1821,-386 1821,-405 1941,-405 1941,-386 1821,-386"/>
<text text-anchor="middle" x="1881" y="-393" font-family="Helvetica,sans-Serif" font-size="10.00">TEveTrackPropagator.h</text>
</g>
<!-- Node1&#45;&gt;Node43 -->
<g id="edge64" class="edge"><title>Node1&#45;&gt;Node43</title>
<path fill="none" stroke="midnightblue" d="M1348.6,-467.034C1447.43,-457.989 1645.49,-438.172 1812,-411 1818.9,-409.874 1826.15,-408.529 1833.26,-407.118"/>
<polygon fill="midnightblue" stroke="midnightblue" points="1834.42,-410.455 1843.51,-405.023 1833.02,-403.596 1834.42,-410.455"/>
</g>
<!-- Node44 -->
<g id="node44" class="node"><title>Node44</title>
<polygon fill="none" stroke="#bfbfbf" points="1959.5,-386 1959.5,-405 2024.5,-405 2024.5,-386 1959.5,-386"/>
<text text-anchor="middle" x="1992" y="-393" font-family="Helvetica,sans-Serif" font-size="10.00">TSystem.h</text>
</g>
<!-- Node1&#45;&gt;Node44 -->
<g id="edge65" class="edge"><title>Node1&#45;&gt;Node44</title>
<path fill="none" stroke="midnightblue" d="M1348.55,-471.687C1467.17,-469.051 1732.43,-457.917 1950,-411 1953.5,-410.245 1957.11,-409.288 1960.68,-408.226"/>
<polygon fill="midnightblue" stroke="midnightblue" points="1962.06,-411.458 1970.48,-405.038 1959.89,-404.801 1962.06,-411.458"/>
</g>
<!-- Node45 -->
<g id="node45" class="node"><title>Node45</title>
<polygon fill="none" stroke="#bfbfbf" points="2043,-386 2043,-405 2117,-405 2117,-386 2043,-386"/>
<text text-anchor="middle" x="2080" y="-393" font-family="Helvetica,sans-Serif" font-size="10.00">TGListTree.h</text>
</g>
<!-- Node1&#45;&gt;Node45 -->
<g id="edge68" class="edge"><title>Node1&#45;&gt;Node45</title>
<path fill="none" stroke="midnightblue" d="M1348.71,-472.05C1478.06,-470.093 1783.39,-460.159 2034,-411 2038.16,-410.184 2042.47,-409.124 2046.72,-407.948"/>
<polygon fill="midnightblue" stroke="midnightblue" points="2047.81,-411.274 2056.39,-405.054 2045.8,-404.568 2047.81,-411.274"/>
</g>
<!-- Node46 -->
<g id="node46" class="node"><title>Node46</title>
<polygon fill="none" stroke="#bfbfbf" points="2135.5,-386 2135.5,-405 2206.5,-405 2206.5,-386 2135.5,-386"/>
<text text-anchor="middle" x="2171" y="-393" font-family="Helvetica,sans-Serif" font-size="10.00">FairLogger.h</text>
</g>
<!-- Node1&#45;&gt;Node46 -->
<g id="edge69" class="edge"><title>Node1&#45;&gt;Node46</title>
<path fill="none" stroke="midnightblue" d="M1348.58,-472.987C1489.04,-472.979 1839.49,-466.816 2126,-411 2129.97,-410.228 2134.07,-409.216 2138.11,-408.086"/>
<polygon fill="midnightblue" stroke="midnightblue" points="2139.37,-411.361 2147.92,-405.102 2137.34,-404.664 2139.37,-411.361"/>
</g>
<!-- Node3 -->
<g id="node3" class="node"><title>Node3</title>
<g id="a_node3"><a xlink:href="../../d6/d7c/VisualisationConstants_8h.html" target="_top" xlink:title="EventVisualisationBase\l/VisualisationConstants.h">
<polygon fill="none" stroke="black" points="921,-246.5 921,-276.5 1049,-276.5 1049,-246.5 921,-246.5"/>
<text text-anchor="start" x="929" y="-264.5" font-family="Helvetica,sans-Serif" font-size="10.00">EventVisualisationBase</text>
<text text-anchor="middle" x="985" y="-253.5" font-family="Helvetica,sans-Serif" font-size="10.00">/VisualisationConstants.h</text>
</a>
</g>
</g>
<!-- Node2&#45;&gt;Node3 -->
<g id="edge2" class="edge"><title>Node2&#45;&gt;Node3</title>
<path fill="none" stroke="midnightblue" d="M494.76,-386.923C550.222,-379.058 634.713,-364.945 706,-344 741,-333.717 747.322,-324.321 782,-313 823.992,-299.291 871.906,-287.209 910.637,-278.303"/>
<polygon fill="midnightblue" stroke="midnightblue" points="911.815,-281.624 920.789,-275.992 910.261,-274.799 911.815,-281.624"/>
</g>
<!-- Node4 -->
<g id="node4" class="node"><title>Node4</title>
<polygon fill="none" stroke="#bfbfbf" points="514.5,-0.5 514.5,-19.5 555.5,-19.5 555.5,-0.5 514.5,-0.5"/>
<text text-anchor="middle" x="535" y="-7.5" font-family="Helvetica,sans-Serif" font-size="10.00">string</text>
</g>
<!-- Node2&#45;&gt;Node4 -->
<g id="edge39" class="edge"><title>Node2&#45;&gt;Node4</title>
<path fill="none" stroke="midnightblue" d="M375.394,-394.759C306.497,-393 191.046,-383.62 101,-344 48.204,-320.77 0,-320.181 0,-262.5 0,-262.5 0,-262.5 0,-126.5 0,-22.5959 390.439,-11.9269 504.229,-11.0239"/>
<polygon fill="midnightblue" stroke="midnightblue" points="504.376,-14.5232 514.355,-10.9642 504.335,-7.52333 504.376,-14.5232"/>
</g>
<!-- Node2&#45;&gt;Node5 -->
<g id="edge4" class="edge"><title>Node2&#45;&gt;Node5</title>
<path fill="none" stroke="midnightblue" d="M478.831,-380.396C509.537,-370.515 550.754,-357.252 583.414,-346.743"/>
<polygon fill="midnightblue" stroke="midnightblue" points="584.807,-349.971 593.255,-343.577 582.663,-343.308 584.807,-349.971"/>
</g>
<!-- Node2&#45;&gt;Node15 -->
<g id="edge36" class="edge"><title>Node2&#45;&gt;Node15</title>
<path fill="none" stroke="midnightblue" d="M451.16,-380.374C479.689,-355.434 538.757,-303.798 568.328,-277.948"/>
<polygon fill="midnightblue" stroke="midnightblue" points="570.94,-280.314 576.165,-271.097 566.333,-275.044 570.94,-280.314"/>
</g>
<!-- Node16 -->
<g id="node16" class="node"><title>Node16</title>
<g id="a_node16"><a xlink:href="../../d7/dec/EventVisualisation_2Base_2include_2EventVisualisationBase_2DataReader_8h.html" target="_top" xlink:title="EventVisualisationBase\l/DataReader.h">
<polygon fill="none" stroke="black" points="791,-313.5 791,-343.5 911,-343.5 911,-313.5 791,-313.5"/>
<text text-anchor="start" x="799" y="-331.5" font-family="Helvetica,sans-Serif" font-size="10.00">EventVisualisationBase</text>
<text text-anchor="middle" x="851" y="-320.5" font-family="Helvetica,sans-Serif" font-size="10.00">/DataReader.h</text>
</a>
</g>
</g>
<!-- Node2&#45;&gt;Node16 -->
<g id="edge22" class="edge"><title>Node2&#45;&gt;Node16</title>
<path fill="none" stroke="midnightblue" d="M494.603,-385.187C570.225,-373.371 700.454,-353.023 780.805,-340.468"/>
<polygon fill="midnightblue" stroke="midnightblue" points="781.493,-343.903 790.833,-338.901 780.412,-336.987 781.493,-343.903"/>
</g>
<!-- Node17 -->
<g id="node17" class="node"><title>Node17</title>
<g id="a_node17"><a xlink:href="../../d5/df3/BasicCCDBManager_8h.html" target="_top" xlink:title="CCDB/BasicCCDBManager.h">
<polygon fill="none" stroke="black" points="334.5,-319 334.5,-338 483.5,-338 483.5,-319 334.5,-319"/>
<text text-anchor="middle" x="409" y="-326" font-family="Helvetica,sans-Serif" font-size="10.00">CCDB/BasicCCDBManager.h</text>
</a>
</g>
</g>
<!-- Node2&#45;&gt;Node17 -->
<g id="edge23" class="edge"><title>Node2&#45;&gt;Node17</title>
<path fill="none" stroke="midnightblue" d="M429.358,-380.396C425.505,-370.763 420.366,-357.914 416.215,-347.537"/>
<polygon fill="midnightblue" stroke="midnightblue" points="419.441,-346.179 412.478,-338.195 412.942,-348.779 419.441,-346.179"/>
</g>
<!-- Node18 -->
<g id="node18" class="node"><title>Node18</title>
<g id="a_node18"><a xlink:href="../../dd/d3e/CcdbApi_8h.html" target="_top" xlink:title="CCDB/CcdbApi.h">
<polygon fill="none" stroke="black" points="178.5,-252 178.5,-271 273.5,-271 273.5,-252 178.5,-252"/>
<text text-anchor="middle" x="226" y="-259" font-family="Helvetica,sans-Serif" font-size="10.00">CCDB/CcdbApi.h</text>
</a>
</g>
</g>
<!-- Node2&#45;&gt;Node18 -->
<g id="edge35" class="edge"><title>Node2&#45;&gt;Node18</title>
<path fill="none" stroke="midnightblue" d="M375.449,-394.089C291.374,-392.1 144.369,-382.973 111,-344 84.4965,-313.046 141.137,-287.876 183.965,-274.064"/>
<polygon fill="midnightblue" stroke="midnightblue" points="185.166,-277.356 193.676,-271.045 183.088,-270.671 185.166,-277.356"/>
</g>
<!-- Node26 -->
<g id="node26" class="node"><title>Node26</title>
<polygon fill="none" stroke="#bfbfbf" points="120.5,-319 120.5,-338 231.5,-338 231.5,-319 120.5,-319"/>
<text text-anchor="middle" x="176" y="-326" font-family="Helvetica,sans-Serif" font-size="10.00">TEveEventManager.h</text>
</g>
<!-- Node2&#45;&gt;Node26 -->
<g id="edge37" class="edge"><title>Node2&#45;&gt;Node26</title>
<path fill="none" stroke="midnightblue" d="M379.12,-380.476C331.385,-368.496 263.666,-351.501 219.783,-340.488"/>
<polygon fill="midnightblue" stroke="midnightblue" points="220.535,-337.068 209.983,-338.029 218.831,-343.858 220.535,-337.068"/>
</g>
<!-- Node27 -->
<g id="node27" class="node"><title>Node27</title>
<polygon fill="none" stroke="#bfbfbf" points="249.5,-319 249.5,-338 316.5,-338 316.5,-319 249.5,-319"/>
<text text-anchor="middle" x="283" y="-326" font-family="Helvetica,sans-Serif" font-size="10.00">TQObject.h</text>
</g>
<!-- Node2&#45;&gt;Node27 -->
<g id="edge38" class="edge"><title>Node2&#45;&gt;Node27</title>
<path fill="none" stroke="midnightblue" d="M402.018,-380.396C375.23,-368.941 337.81,-352.938 312.119,-341.952"/>
<polygon fill="midnightblue" stroke="midnightblue" points="313.464,-338.721 302.893,-338.007 310.712,-345.157 313.464,-338.721"/>
</g>
<!-- Node3&#45;&gt;Node4 -->
<g id="edge3" class="edge"><title>Node3&#45;&gt;Node4</title>
<path fill="none" stroke="midnightblue" d="M1003.42,-246.29C1013.66,-237.175 1025.43,-224.377 1031,-210 1036.46,-195.89 1040.27,-132.108 1030,-112 1011.08,-74.9518 993.724,-71.2002 955,-56 883.881,-28.0837 650.29,-15.7995 565.825,-12.1946"/>
<polygon fill="midnightblue" stroke="midnightblue" points="565.74,-8.68816 555.604,-11.77 565.45,-15.6821 565.74,-8.68816"/>
</g>
<!-- Node5&#45;&gt;Node3 -->
<g id="edge5" class="edge"><title>Node5&#45;&gt;Node3</title>
<path fill="none" stroke="midnightblue" d="M697.165,-315.652C701.845,-314.749 706.499,-313.856 711,-313 778.55,-300.157 855.566,-286.006 910.707,-275.96"/>
<polygon fill="midnightblue" stroke="midnightblue" points="911.53,-279.367 920.742,-274.133 910.276,-272.481 911.53,-279.367"/>
</g>
<!-- Node5&#45;&gt;Node6 -->
<g id="edge6" class="edge"><title>Node5&#45;&gt;Node6</title>
<path fill="none" stroke="midnightblue" d="M671.501,-313.396C695.149,-303.728 726.719,-290.823 752.15,-280.426"/>
<polygon fill="midnightblue" stroke="midnightblue" points="753.635,-283.6 761.567,-276.577 750.986,-277.121 753.635,-283.6"/>
</g>
<!-- Node5&#45;&gt;Node15 -->
<g id="edge21" class="edge"><title>Node5&#45;&gt;Node15</title>
<path fill="none" stroke="midnightblue" d="M625.934,-313.396C618.06,-303.361 607.45,-289.838 599.145,-279.253"/>
<polygon fill="midnightblue" stroke="midnightblue" points="601.748,-276.901 592.822,-271.195 596.241,-281.222 601.748,-276.901"/>
</g>
<!-- Node7 -->
<g id="node7" class="node"><title>Node7</title>
<g id="a_node7"><a xlink:href="../../d0/d40/VisualisationTrack_8h.html" target="_top" xlink:title="EventVisualisationDataConverter\l/VisualisationTrack.h">
<polygon fill="none" stroke="black" points="658.5,-112.5 658.5,-142.5 819.5,-142.5 819.5,-112.5 658.5,-112.5"/>
<text text-anchor="start" x="666.5" y="-130.5" font-family="Helvetica,sans-Serif" font-size="10.00">EventVisualisationDataConverter</text>
<text text-anchor="middle" x="739" y="-119.5" font-family="Helvetica,sans-Serif" font-size="10.00">/VisualisationTrack.h</text>
</a>
</g>
</g>
<!-- Node6&#45;&gt;Node7 -->
<g id="edge7" class="edge"><title>Node6&#45;&gt;Node7</title>
<path fill="none" stroke="midnightblue" d="M789.9,-246.374C780.129,-223.746 760.869,-179.143 749.045,-151.761"/>
<polygon fill="midnightblue" stroke="midnightblue" points="752.234,-150.318 745.056,-142.525 745.807,-153.093 752.234,-150.318"/>
</g>
<!-- Node10 -->
<g id="node10" class="node"><title>Node10</title>
<polygon fill="none" stroke="#bfbfbf" points="902,-56.5 902,-75.5 946,-75.5 946,-56.5 902,-56.5"/>
<text text-anchor="middle" x="924" y="-63.5" font-family="Helvetica,sans-Serif" font-size="10.00">vector</text>
</g>
<!-- Node6&#45;&gt;Node10 -->
<g id="edge19" class="edge"><title>Node6&#45;&gt;Node10</title>
<path fill="none" stroke="midnightblue" d="M801.354,-246.421C807.965,-229.744 820.061,-201.401 834,-179 856.803,-142.353 889.897,-104.079 908.953,-83.1195"/>
<polygon fill="midnightblue" stroke="midnightblue" points="911.552,-85.4633 915.742,-75.7323 906.398,-80.7263 911.552,-85.4633"/>
</g>
<!-- Node13 -->
<g id="node13" class="node"><title>Node13</title>
<g id="a_node13"><a xlink:href="../../d5/d20/VisualisationCluster_8h.html" target="_top" xlink:title="EventVisualisationDataConverter\l/VisualisationCluster.h">
<polygon fill="none" stroke="black" points="843.5,-179.5 843.5,-209.5 1004.5,-209.5 1004.5,-179.5 843.5,-179.5"/>
<text text-anchor="start" x="851.5" y="-197.5" font-family="Helvetica,sans-Serif" font-size="10.00">EventVisualisationDataConverter</text>
<text text-anchor="middle" x="924" y="-186.5" font-family="Helvetica,sans-Serif" font-size="10.00">/VisualisationCluster.h</text>
</a>
</g>
</g>
<!-- Node6&#45;&gt;Node13 -->
<g id="edge15" class="edge"><title>Node6&#45;&gt;Node13</title>
<path fill="none" stroke="midnightblue" d="M823.774,-246.396C842.393,-236.941 867.11,-224.39 887.339,-214.117"/>
<polygon fill="midnightblue" stroke="midnightblue" points="888.949,-217.225 896.28,-209.577 885.779,-210.984 888.949,-217.225"/>
</g>
<!-- Node14 -->
<g id="node14" class="node"><title>Node14</title>
<polygon fill="none" stroke="#bfbfbf" points="980.5,-118 980.5,-137 1021.5,-137 1021.5,-118 980.5,-118"/>
<text text-anchor="middle" x="1001" y="-125" font-family="Helvetica,sans-Serif" font-size="10.00">ctime</text>
</g>
<!-- Node6&#45;&gt;Node14 -->
<g id="edge20" class="edge"><title>Node6&#45;&gt;Node14</title>
<path fill="none" stroke="midnightblue" d="M876.604,-246.72C934.637,-235.978 1004.21,-221.076 1013,-210 1027.34,-191.939 1018.85,-164.295 1010.61,-146.307"/>
<polygon fill="midnightblue" stroke="midnightblue" points="1013.67,-144.595 1006.08,-137.202 1007.4,-147.714 1013.67,-144.595"/>
</g>
<!-- Node7&#45;&gt;Node4 -->
<g id="edge11" class="edge"><title>Node7&#45;&gt;Node4</title>
<path fill="none" stroke="midnightblue" d="M658.083,-114.555C628.975,-107.163 597.348,-95.232 573,-76 557.647,-63.873 547.257,-43.7078 541.275,-29.0488"/>
<polygon fill="midnightblue" stroke="midnightblue" points="544.493,-27.6636 537.69,-19.5416 537.944,-30.1334 544.493,-27.6636"/>
</g>
<!-- Node8 -->
<g id="node8" class="node"><title>Node8</title>
<g id="a_node8"><a xlink:href="../../de/ddf/ConversionConstants_8h.html" target="_top" xlink:title="ConversionConstants.h">
<polygon fill="none" stroke="black" points="582.5,-56.5 582.5,-75.5 701.5,-75.5 701.5,-56.5 582.5,-56.5"/>
<text text-anchor="middle" x="642" y="-63.5" font-family="Helvetica,sans-Serif" font-size="10.00">ConversionConstants.h</text>
</a>
</g>
</g>
<!-- Node7&#45;&gt;Node8 -->
<g id="edge8" class="edge"><title>Node7&#45;&gt;Node8</title>
<path fill="none" stroke="midnightblue" d="M716.012,-112.399C700.609,-102.951 680.407,-90.5589 665.001,-81.1089"/>
<polygon fill="midnightblue" stroke="midnightblue" points="666.469,-77.9031 656.114,-75.6578 662.808,-83.87 666.469,-77.9031"/>
</g>
<!-- Node9 -->
<g id="node9" class="node"><title>Node9</title>
<polygon fill="none" stroke="#bfbfbf" points="838.5,-56.5 838.5,-75.5 883.5,-75.5 883.5,-56.5 838.5,-56.5"/>
<text text-anchor="middle" x="861" y="-63.5" font-family="Helvetica,sans-Serif" font-size="10.00">iosfwd</text>
</g>
<!-- Node7&#45;&gt;Node9 -->
<g id="edge10" class="edge"><title>Node7&#45;&gt;Node9</title>
<path fill="none" stroke="midnightblue" d="M767.912,-112.399C788.016,-102.595 814.621,-89.6194 834.238,-80.052"/>
<polygon fill="midnightblue" stroke="midnightblue" points="835.794,-83.1872 843.248,-75.6578 832.726,-76.8955 835.794,-83.1872"/>
</g>
<!-- Node7&#45;&gt;Node10 -->
<g id="edge12" class="edge"><title>Node7&#45;&gt;Node10</title>
<path fill="none" stroke="midnightblue" d="M782.842,-112.399C816.442,-101.593 862.014,-86.9359 892.18,-77.2341"/>
<polygon fill="midnightblue" stroke="midnightblue" points="893.331,-80.5403 901.78,-74.1466 891.188,-73.8765 893.331,-80.5403"/>
</g>
<!-- Node11 -->
<g id="node11" class="node"><title>Node11</title>
<polygon fill="none" stroke="#bfbfbf" points="720,-56.5 720,-75.5 758,-75.5 758,-56.5 720,-56.5"/>
<text text-anchor="middle" x="739" y="-63.5" font-family="Helvetica,sans-Serif" font-size="10.00">array</text>
</g>
<!-- Node7&#45;&gt;Node11 -->
<g id="edge13" class="edge"><title>Node7&#45;&gt;Node11</title>
<path fill="none" stroke="midnightblue" d="M739,-112.399C739,-104.466 739,-94.458 739,-85.8583"/>
<polygon fill="midnightblue" stroke="midnightblue" points="742.5,-85.6577 739,-75.6578 735.5,-85.6578 742.5,-85.6577"/>
</g>
<!-- Node12 -->
<g id="node12" class="node"><title>Node12</title>
<polygon fill="none" stroke="#bfbfbf" points="776,-56.5 776,-75.5 820,-75.5 820,-56.5 776,-56.5"/>
<text text-anchor="middle" x="798" y="-63.5" font-family="Helvetica,sans-Serif" font-size="10.00">cmath</text>
</g>
<!-- Node7&#45;&gt;Node12 -->
<g id="edge14" class="edge"><title>Node7&#45;&gt;Node12</title>
<path fill="none" stroke="midnightblue" d="M752.982,-112.399C761.732,-103.575 773.029,-92.1827 782.117,-83.0178"/>
<polygon fill="midnightblue" stroke="midnightblue" points="784.859,-85.2231 789.415,-75.6578 779.888,-80.2942 784.859,-85.2231"/>
</g>
<!-- Node8&#45;&gt;Node4 -->
<g id="edge9" class="edge"><title>Node8&#45;&gt;Node4</title>
<path fill="none" stroke="midnightblue" d="M624.809,-56.324C607.649,-47.6641 581.054,-34.2424 561.253,-24.249"/>
<polygon fill="midnightblue" stroke="midnightblue" points="562.653,-21.0354 552.149,-19.6545 559.499,-27.2847 562.653,-21.0354"/>
</g>
<!-- Node13&#45;&gt;Node7 -->
<g id="edge16" class="edge"><title>Node13&#45;&gt;Node7</title>
<path fill="none" stroke="midnightblue" d="M883.858,-179.396C855.979,-169.601 818.638,-156.481 788.851,-146.015"/>
<polygon fill="midnightblue" stroke="midnightblue" points="789.659,-142.589 779.064,-142.577 787.338,-149.194 789.659,-142.589"/>
</g>
<!-- Node13&#45;&gt;Node10 -->
<g id="edge17" class="edge"><title>Node13&#45;&gt;Node10</title>
<path fill="none" stroke="midnightblue" d="M924,-179.479C924,-156.719 924,-111.702 924,-86.0582"/>
<polygon fill="midnightblue" stroke="midnightblue" points="927.5,-85.7885 924,-75.7885 920.5,-85.7886 927.5,-85.7885"/>
</g>
<!-- Node13&#45;&gt;Node14 -->
<g id="edge18" class="edge"><title>Node13&#45;&gt;Node14</title>
<path fill="none" stroke="midnightblue" d="M940.708,-179.396C953.189,-168.86 970.227,-154.477 983.007,-143.689"/>
<polygon fill="midnightblue" stroke="midnightblue" points="985.317,-146.32 990.7,-137.195 980.801,-140.971 985.317,-146.32"/>
</g>
<!-- Node17&#45;&gt;Node4 -->
<g id="edge33" class="edge"><title>Node17&#45;&gt;Node4</title>
<path fill="none" stroke="midnightblue" d="M434.919,-318.846C454.568,-310.965 480.716,-297.41 496,-277 518.356,-247.146 516,-232.797 516,-195.5 516,-195.5 516,-195.5 516,-126.5 516,-91.9049 524.402,-52.2448 530.032,-29.5547"/>
<polygon fill="midnightblue" stroke="midnightblue" points="533.487,-30.1707 532.594,-19.6136 526.709,-28.4237 533.487,-30.1707"/>
</g>
<!-- Node17&#45;&gt;Node18 -->
<g id="edge24" class="edge"><title>Node17&#45;&gt;Node18</title>
<path fill="none" stroke="midnightblue" d="M384.699,-318.869C352.617,-307.473 295.97,-287.353 259.748,-274.487"/>
<polygon fill="midnightblue" stroke="midnightblue" points="260.705,-271.113 250.11,-271.064 258.362,-277.709 260.705,-271.113"/>
</g>
<!-- Node21 -->
<g id="node21" class="node"><title>Node21</title>
<polygon fill="none" stroke="#bfbfbf" points="452.5,-185 452.5,-204 487.5,-204 487.5,-185 452.5,-185"/>
<text text-anchor="middle" x="470" y="-192" font-family="Helvetica,sans-Serif" font-size="10.00">map</text>
</g>
<!-- Node17&#45;&gt;Node21 -->
<g id="edge34" class="edge"><title>Node17&#45;&gt;Node21</title>
<path fill="none" stroke="midnightblue" d="M378.782,-318.935C358.518,-311.443 333.358,-298.341 321,-277 314.095,-265.077 312.751,-257.035 321,-246 354.849,-200.72 390.709,-231.488 443,-210 444.033,-209.575 445.079,-209.123 446.128,-208.65"/>
<polygon fill="midnightblue" stroke="midnightblue" points="448.011,-211.622 455.412,-204.041 444.898,-205.353 448.011,-211.622"/>
</g>
<!-- Node25 -->
<g id="node25" class="node"><title>Node25</title>
<g id="a_node25"><a xlink:href="../../da/d86/CCDBTimeStampUtils_8h.html" target="_top" xlink:title="CCDB/CCDBTimeStampUtils.h">
<polygon fill="none" stroke="black" points="330.5,-252 330.5,-271 487.5,-271 487.5,-252 330.5,-252"/>
<text text-anchor="middle" x="409" y="-259" font-family="Helvetica,sans-Serif" font-size="10.00">CCDB/CCDBTimeStampUtils.h</text>
</a>
</g>
</g>
<!-- Node17&#45;&gt;Node25 -->
<g id="edge32" class="edge"><title>Node17&#45;&gt;Node25</title>
<path fill="none" stroke="midnightblue" d="M409,-318.734C409,-309.183 409,-293.618 409,-281.283"/>
<polygon fill="midnightblue" stroke="midnightblue" points="412.5,-281.127 409,-271.127 405.5,-281.127 412.5,-281.127"/>
</g>
<!-- Node18&#45;&gt;Node4 -->
<g id="edge25" class="edge"><title>Node18&#45;&gt;Node4</title>
<path fill="none" stroke="midnightblue" d="M248.17,-251.858C269.591,-242.983 302.459,-227.954 328,-210 370.057,-180.436 478.709,-69.3393 519.351,-27.2759"/>
<polygon fill="midnightblue" stroke="midnightblue" points="522.11,-29.4562 526.532,-19.8282 517.071,-24.5972 522.11,-29.4562"/>
</g>
<!-- Node19 -->
<g id="node19" class="node"><title>Node19</title>
<polygon fill="none" stroke="#bfbfbf" points="195,-185 195,-204 247,-204 247,-185 195,-185"/>
<text text-anchor="middle" x="221" y="-192" font-family="Helvetica,sans-Serif" font-size="10.00">memory</text>
</g>
<!-- Node18&#45;&gt;Node19 -->
<g id="edge26" class="edge"><title>Node18&#45;&gt;Node19</title>
<path fill="none" stroke="midnightblue" d="M225.326,-251.734C224.591,-242.183 223.394,-226.618 222.445,-214.283"/>
<polygon fill="midnightblue" stroke="midnightblue" points="225.92,-213.829 221.664,-204.127 218.941,-214.366 225.92,-213.829"/>
</g>
<!-- Node20 -->
<g id="node20" class="node"><title>Node20</title>
<polygon fill="none" stroke="#bfbfbf" points="265,-185 265,-204 319,-204 319,-185 265,-185"/>
<text text-anchor="middle" x="292" y="-192" font-family="Helvetica,sans-Serif" font-size="10.00">iostream</text>
</g>
<!-- Node18&#45;&gt;Node20 -->
<g id="edge27" class="edge"><title>Node18&#45;&gt;Node20</title>
<path fill="none" stroke="midnightblue" d="M234.901,-251.734C245.391,-241.403 263.024,-224.037 275.925,-211.332"/>
<polygon fill="midnightblue" stroke="midnightblue" points="278.571,-213.638 283.24,-204.127 273.659,-208.651 278.571,-213.638"/>
</g>
<!-- Node18&#45;&gt;Node21 -->
<g id="edge28" class="edge"><title>Node18&#45;&gt;Node21</title>
<path fill="none" stroke="midnightblue" d="M262.388,-251.98C270.798,-250.014 279.71,-247.932 288,-246 356.877,-229.947 376.824,-234.948 443,-210 444.204,-209.546 445.422,-209.048 446.64,-208.519"/>
<polygon fill="midnightblue" stroke="midnightblue" points="448.316,-211.596 455.758,-204.055 445.238,-205.309 448.316,-211.596"/>
</g>
<!-- Node22 -->
<g id="node22" class="node"><title>Node22</title>
<polygon fill="none" stroke="#bfbfbf" points="375.5,-185 375.5,-204 434.5,-204 434.5,-185 375.5,-185"/>
<text text-anchor="middle" x="405" y="-192" font-family="Helvetica,sans-Serif" font-size="10.00">curl/curl.h</text>
</g>
<!-- Node18&#45;&gt;Node22 -->
<g id="edge29" class="edge"><title>Node18&#45;&gt;Node22</title>
<path fill="none" stroke="midnightblue" d="M249.77,-251.869C281.151,-240.473 336.559,-220.353 371.99,-207.487"/>
<polygon fill="midnightblue" stroke="midnightblue" points="373.212,-210.767 381.417,-204.064 370.823,-204.187 373.212,-210.767"/>
</g>
<!-- Node23 -->
<g id="node23" class="node"><title>Node23</title>
<polygon fill="none" stroke="#bfbfbf" points="28.5,-185 28.5,-204 87.5,-204 87.5,-185 28.5,-185"/>
<text text-anchor="middle" x="58" y="-192" font-family="Helvetica,sans-Serif" font-size="10.00">TObject.h</text>
</g>
<!-- Node18&#45;&gt;Node23 -->
<g id="edge30" class="edge"><title>Node18&#45;&gt;Node23</title>
<path fill="none" stroke="midnightblue" d="M203.691,-251.869C174.49,-240.571 123.122,-220.696 89.8382,-207.818"/>
<polygon fill="midnightblue" stroke="midnightblue" points="90.723,-204.408 80.1338,-204.064 88.1971,-210.936 90.723,-204.408"/>
</g>
<!-- Node24 -->
<g id="node24" class="node"><title>Node24</title>
<polygon fill="none" stroke="#bfbfbf" points="105.5,-185 105.5,-204 176.5,-204 176.5,-185 105.5,-185"/>
<text text-anchor="middle" x="141" y="-192" font-family="Helvetica,sans-Serif" font-size="10.00">TMessage.h</text>
</g>
<!-- Node18&#45;&gt;Node24 -->
<g id="edge31" class="edge"><title>Node18&#45;&gt;Node24</title>
<path fill="none" stroke="midnightblue" d="M214.537,-251.734C200.645,-241.111 177.025,-223.049 160.307,-210.264"/>
<polygon fill="midnightblue" stroke="midnightblue" points="162.352,-207.422 152.282,-204.127 158.099,-212.982 162.352,-207.422"/>
</g>
<!-- Node28&#45;&gt;Node10 -->
<g id="edge45" class="edge"><title>Node28&#45;&gt;Node10</title>
<path fill="none" stroke="midnightblue" d="M1131.28,-380.363C1119.14,-371.359 1104.73,-358.651 1096,-344 1076.96,-312.049 1077,-299.694 1077,-262.5 1077,-262.5 1077,-262.5 1077,-193.5 1077,-151.686 1061.31,-139.715 1030,-112 1018.47,-101.791 982.419,-87.5701 955.543,-77.8645"/>
<polygon fill="midnightblue" stroke="midnightblue" points="956.713,-74.566 946.119,-74.5089 954.365,-81.1605 956.713,-74.566"/>
</g>
<!-- Node29 -->
<g id="node29" class="node"><title>Node29</title>
<polygon fill="none" stroke="#bfbfbf" points="1105,-319 1105,-338 1179,-338 1179,-319 1105,-319"/>
<text text-anchor="middle" x="1142" y="-326" font-family="Helvetica,sans-Serif" font-size="10.00">TGLViewer.h</text>
</g>
<!-- Node28&#45;&gt;Node29 -->
<g id="edge41" class="edge"><title>Node28&#45;&gt;Node29</title>
<path fill="none" stroke="midnightblue" d="M1150.61,-380.396C1149.02,-370.963 1146.9,-358.448 1145.16,-348.189"/>
<polygon fill="midnightblue" stroke="midnightblue" points="1148.59,-347.47 1143.47,-338.195 1141.69,-348.638 1148.59,-347.47"/>
</g>
<!-- Node30 -->
<g id="node30" class="node"><title>Node30</title>
<polygon fill="none" stroke="#bfbfbf" points="1197,-319 1197,-338 1291,-338 1291,-319 1197,-319"/>
<text text-anchor="middle" x="1244" y="-326" font-family="Helvetica,sans-Serif" font-size="10.00">TEveGeoShape.h</text>
</g>
<!-- Node28&#45;&gt;Node30 -->
<g id="edge42" class="edge"><title>Node28&#45;&gt;Node30</title>
<path fill="none" stroke="midnightblue" d="M1172.75,-380.396C1187.86,-369.597 1208.64,-354.756 1223.86,-343.887"/>
<polygon fill="midnightblue" stroke="midnightblue" points="1225.99,-346.667 1232.09,-338.007 1221.92,-340.971 1225.99,-346.667"/>
</g>
<!-- Node31 -->
<g id="node31" class="node"><title>Node31</title>
<polygon fill="none" stroke="#bfbfbf" points="1309,-319 1309,-338 1385,-338 1385,-319 1309,-319"/>
<text text-anchor="middle" x="1347" y="-326" font-family="Helvetica,sans-Serif" font-size="10.00">TEveScene.h</text>
</g>
<!-- Node28&#45;&gt;Node31 -->
<g id="edge43" class="edge"><title>Node28&#45;&gt;Node31</title>
<path fill="none" stroke="midnightblue" d="M1195.1,-380.396C1230.04,-368.688 1279.16,-352.231 1311.98,-341.234"/>
<polygon fill="midnightblue" stroke="midnightblue" points="1313.24,-344.503 1321.61,-338.007 1311.02,-337.865 1313.24,-344.503"/>
</g>
<!-- Node32 -->
<g id="node32" class="node"><title>Node32</title>
<polygon fill="none" stroke="#bfbfbf" points="1403,-319 1403,-338 1481,-338 1481,-319 1403,-319"/>
<text text-anchor="middle" x="1442" y="-326" font-family="Helvetica,sans-Serif" font-size="10.00">TEveViewer.h</text>
</g>
<!-- Node28&#45;&gt;Node32 -->
<g id="edge44" class="edge"><title>Node28&#45;&gt;Node32</title>
<path fill="none" stroke="midnightblue" d="M1212.77,-382.594C1272.58,-370.568 1360.4,-352.579 1394,-344 1397.67,-343.062 1401.49,-342.023 1405.29,-340.945"/>
<polygon fill="midnightblue" stroke="midnightblue" points="1406.59,-344.211 1415.21,-338.043 1404.62,-337.493 1406.59,-344.211"/>
</g>
<!-- Node33&#45;&gt;Node34 -->
<g id="edge48" class="edge"><title>Node33&#45;&gt;Node34</title>
<path fill="none" stroke="midnightblue" d="M1379.82,-380.464C1411.51,-370.992 1453.55,-357.751 1490,-344 1491.61,-343.393 1493.26,-342.748 1494.91,-342.082"/>
<polygon fill="midnightblue" stroke="midnightblue" points="1496.44,-345.237 1504.3,-338.131 1493.72,-338.785 1496.44,-345.237"/>
</g>
<!-- Node35&#45;&gt;Node3 -->
<g id="edge50" class="edge"><title>Node35&#45;&gt;Node3</title>
<path fill="none" stroke="midnightblue" d="M988.132,-313.396C987.65,-305.56 987.037,-295.596 986.481,-286.565"/>
<polygon fill="midnightblue" stroke="midnightblue" points="989.974,-286.343 985.866,-276.577 982.987,-286.773 989.974,-286.343"/>
</g>
<!-- Node36&#45;&gt;Node16 -->
<g id="edge54" class="edge"><title>Node36&#45;&gt;Node16</title>
<path fill="none" stroke="midnightblue" d="M949.66,-380.396C931.415,-370.984 907.22,-358.503 887.357,-348.256"/>
<polygon fill="midnightblue" stroke="midnightblue" points="888.779,-345.051 878.287,-343.577 885.569,-351.272 888.779,-345.051"/>
</g>
<!-- Node36&#45;&gt;Node35 -->
<g id="edge53" class="edge"><title>Node36&#45;&gt;Node35</title>
<path fill="none" stroke="midnightblue" d="M979.604,-380.396C981.051,-372.56 982.89,-362.596 984.557,-353.565"/>
<polygon fill="midnightblue" stroke="midnightblue" points="988.028,-354.046 986.401,-343.577 981.144,-352.775 988.028,-354.046"/>
</g>
<!-- Node37&#45;&gt;Node3 -->
<g id="edge57" class="edge"><title>Node37&#45;&gt;Node3</title>
<path fill="none" stroke="midnightblue" d="M1551.04,-380.667C1619.96,-366.894 1715.3,-347.331 1718,-344 1726.67,-333.29 1727.4,-323.072 1718,-313 1673.71,-265.55 1236.45,-261.63 1059.12,-262.015"/>
<polygon fill="midnightblue" stroke="midnightblue" points="1059.09,-258.515 1049.1,-262.042 1059.11,-265.515 1059.09,-258.515"/>
</g>
<!-- Node37&#45;&gt;Node16 -->
<g id="edge56" class="edge"><title>Node37&#45;&gt;Node16</title>
<path fill="none" stroke="midnightblue" d="M1410.82,-381.352C1407.51,-380.866 1404.22,-380.411 1401,-380 1191.57,-353.258 1133.98,-373.477 921.057,-344.019"/>
<polygon fill="midnightblue" stroke="midnightblue" points="921.517,-340.549 911.128,-342.625 920.544,-347.481 921.517,-340.549"/>
</g>
<!-- Node37&#45;&gt;Node32 -->
<g id="edge60" class="edge"><title>Node37&#45;&gt;Node32</title>
<path fill="none" stroke="midnightblue" d="M1472.54,-380.396C1466.64,-370.562 1458.73,-357.378 1452.44,-346.892"/>
<polygon fill="midnightblue" stroke="midnightblue" points="1455.36,-344.969 1447.22,-338.195 1449.36,-348.57 1455.36,-344.969"/>
</g>
<!-- Node38 -->
<g id="node38" class="node"><title>Node38</title>
<polygon fill="none" stroke="#bfbfbf" points="1653,-319 1653,-338 1709,-338 1709,-319 1653,-319"/>
<text text-anchor="middle" x="1681" y="-326" font-family="Helvetica,sans-Serif" font-size="10.00">TString.h</text>
</g>
<!-- Node37&#45;&gt;Node38 -->
<g id="edge58" class="edge"><title>Node37&#45;&gt;Node38</title>
<path fill="none" stroke="midnightblue" d="M1529.8,-380.395C1562.35,-370.741 1605.98,-357.321 1644,-344 1646.12,-343.259 1648.29,-342.472 1650.48,-341.663"/>
<polygon fill="midnightblue" stroke="midnightblue" points="1651.87,-344.879 1659.97,-338.049 1649.38,-338.337 1651.87,-344.879"/>
</g>
<!-- Node39 -->
<g id="node39" class="node"><title>Node39</title>
<polygon fill="none" stroke="#bfbfbf" points="1765.5,-319 1765.5,-338 1838.5,-338 1838.5,-319 1765.5,-319"/>
<text text-anchor="middle" x="1802" y="-326" font-family="Helvetica,sans-Serif" font-size="10.00">TEveTrack.h</text>
</g>
<!-- Node37&#45;&gt;Node39 -->
<g id="edge59" class="edge"><title>Node37&#45;&gt;Node39</title>
<path fill="none" stroke="midnightblue" d="M1551.32,-381.513C1628.02,-367.325 1741.25,-346.292 1751,-344 1755.18,-343.016 1759.54,-341.909 1763.86,-340.756"/>
<polygon fill="midnightblue" stroke="midnightblue" points="1765.08,-344.049 1773.8,-338.02 1763.23,-337.301 1765.08,-344.049"/>
</g>
<!-- Node40 -->
<g id="node40" class="node"><title>Node40</title>
<polygon fill="none" stroke="#bfbfbf" points="1565.5,-319 1565.5,-338 1634.5,-338 1634.5,-319 1565.5,-319"/>
<text text-anchor="middle" x="1600" y="-326" font-family="Helvetica,sans-Serif" font-size="10.00">TEveVSD.h</text>
</g>
<!-- Node37&#45;&gt;Node40 -->
<g id="edge61" class="edge"><title>Node37&#45;&gt;Node40</title>
<path fill="none" stroke="midnightblue" d="M1506.82,-380.396C1527.24,-369.243 1555.55,-353.781 1575.59,-342.834"/>
<polygon fill="midnightblue" stroke="midnightblue" points="1577.33,-345.872 1584.43,-338.007 1573.97,-339.729 1577.33,-345.872"/>
</g>
</g>
</svg>
        <g id="navigator" transform="translate(0 0)" fill="#404254">
                <rect fill="#f2f5e9" fill-opacity="0.5" stroke="#606060" stroke-width=".5" x="0" y="0" width="60" height="60"/>
                <use id="zoomplus" xlink:href="#zoomPlus" x="17" y="9" onmousedown="handleZoom(evt,'in')"/>
                <use id="zoomminus" xlink:href="#zoomMin" x="42" y="9" onmousedown="handleZoom(evt,'out')"/>
                <use id="reset" xlink:href="#resetDef" x="30" y="36" onmousedown="handleReset()"/>
                <g id="arrowUp" xlink:href="#dirArrow" transform="translate(30 24)" onmousedown="handlePan(0,-1)">
                  <use xlink:href="#rim" fill="#404040">
                        <set attributeName="fill" to="#808080" begin="arrowUp.mouseover" end="arrowUp.mouseout"/>
                  </use>
                  <path fill="none" stroke="white" stroke-width="1.5" d="M0,-3.0v7 M-2.5,-0.5L0,-3.0L2.5,-0.5"/>
                </g>
                <g id="arrowRight" xlink:href="#dirArrow" transform="rotate(90) translate(36 -43)" onmousedown="handlePan(1,0)">
                  <use xlink:href="#rim" fill="#404040">
                        <set attributeName="fill" to="#808080" begin="arrowRight.mouseover" end="arrowRight.mouseout"/>
                  </use>
                  <path fill="none" stroke="white" stroke-width="1.5" d="M0,-3.0v7 M-2.5,-0.5L0,-3.0L2.5,-0.5"/>
                </g>
                <g id="arrowDown" xlink:href="#dirArrow" transform="rotate(180) translate(-30 -48)" onmousedown="handlePan(0,1)">
                  <use xlink:href="#rim" fill="#404040">
                        <set attributeName="fill" to="#808080" begin="arrowDown.mouseover" end="arrowDown.mouseout"/>
                  </use>
                  <path fill="none" stroke="white" stroke-width="1.5" d="M0,-3.0v7 M-2.5,-0.5L0,-3.0L2.5,-0.5"/>
                </g>
                <g id="arrowLeft" xlink:href="#dirArrow" transform="rotate(270) translate(-36 17)" onmousedown="handlePan(-1,0)">
                  <use xlink:href="#rim" fill="#404040">
                        <set attributeName="fill" to="#808080" begin="arrowLeft.mouseover" end="arrowLeft.mouseout"/>
                  </use>
                  <path fill="none" stroke="white" stroke-width="1.5" d="M0,-3.0v7 M-2.5,-0.5L0,-3.0L2.5,-0.5"/>
                </g>
        </g>
        <svg viewBox="0 0 15 15" width="100%" height="30px" preserveAspectRatio="xMaxYMin meet">
         <g id="arrow_out" transform="scale(0.3 0.3)">
          <a xlink:href="EventManager_8cxx__incl_org.svg" target="_base">
           <rect id="button" ry="5" rx="5" y="6" x="6" height="38" width="38"
                fill="#f2f5e9" fill-opacity="0.5" stroke="#606060" stroke-width="1.0"/>
           <path id="arrow"
             d="M 11.500037,31.436501 C 11.940474,20.09759 22.043105,11.32322 32.158766,21.979434 L 37.068811,17.246167 C 37.068811,17.246167 37.088388,32 37.088388,32 L 22.160133,31.978069 C 22.160133,31.978069 26.997745,27.140456 26.997745,27.140456 C 18.528582,18.264221 13.291696,25.230495 11.500037,31.436501 z"
             style="fill:#404040;"/>
          </a>
         </g>
        </svg>
</svg>
