<?xml version="1.0" encoding="UTF-8" standalone="no"?>
<!DOCTYPE svg PUBLIC "-//W3C//DTD SVG 1.1//EN"
 "http://www.w3.org/Graphics/SVG/1.1/DTD/svg11.dtd">
<!-- Generated by graphviz version 2.38.0 (20140413.2041)
 -->
<!-- Title: /home/travis/build/AliceO2Group/AliceO2/Detectors/ZDC/base/include/ZDCBase/Geometry.h Pages: 1 -->
<svg width="459pt" height="317pt"
 viewBox="0.00 0.00 458.50 317.00" xmlns="http://www.w3.org/2000/svg" xmlns:xlink="http://www.w3.org/1999/xlink">
<g id="graph0" class="graph" transform="scale(1 1) rotate(0) translate(4 313)">
<title>/home/travis/build/AliceO2Group/AliceO2/Detectors/ZDC/base/include/ZDCBase/Geometry.h</title>
<!-- Node1 -->
<g id="node1" class="node"><title>Node1</title>
<polygon fill="#bfbfbf" stroke="black" points="74.5,-256.5 74.5,-308.5 218.5,-308.5 218.5,-256.5 74.5,-256.5"/>
<text text-anchor="start" x="82.5" y="-296.5" font-family="Helvetica,sans-Serif" font-size="10.00">/home/travis/build</text>
<text text-anchor="start" x="82.5" y="-285.5" font-family="Helvetica,sans-Serif" font-size="10.00">/AliceO2Group/AliceO2</text>
<text text-anchor="start" x="82.5" y="-274.5" font-family="Helvetica,sans-Serif" font-size="10.00">/Detectors/ZDC/base/include</text>
<text text-anchor="middle" x="146.5" y="-263.5" font-family="Helvetica,sans-Serif" font-size="10.00">/ZDCBase/Geometry.h</text>
</g>
<!-- Node2 -->
<g id="node2" class="node"><title>Node2</title>
<g id="a_node2"><a xlink:href="../../da/d8b/ZDC_2base_2src_2Geometry_8cxx.html" target="_top" xlink:title="/home/travis/build\l/AliceO2Group/AliceO2\l/Detectors/ZDC/base/src\l/Geometry.cxx">
<polygon fill="none" stroke="black" points="0,-167.5 0,-219.5 127,-219.5 127,-167.5 0,-167.5"/>
<text text-anchor="start" x="8" y="-207.5" font-family="Helvetica,sans-Serif" font-size="10.00">/home/travis/build</text>
<text text-anchor="start" x="8" y="-196.5" font-family="Helvetica,sans-Serif" font-size="10.00">/AliceO2Group/AliceO2</text>
<text text-anchor="start" x="8" y="-185.5" font-family="Helvetica,sans-Serif" font-size="10.00">/Detectors/ZDC/base/src</text>
<text text-anchor="middle" x="63.5" y="-174.5" font-family="Helvetica,sans-Serif" font-size="10.00">/Geometry.cxx</text>
</a>
</g>
</g>
<!-- Node1&#45;&gt;Node2 -->
<g id="edge1" class="edge"><title>Node1&#45;&gt;Node2</title>
<path fill="none" stroke="midnightblue" d="M115.568,-249.077C106.274,-239.335 96.2228,-228.8 87.4531,-219.607"/>
<polygon fill="midnightblue" stroke="midnightblue" points="113.058,-251.517 122.493,-256.336 118.123,-246.685 113.058,-251.517"/>
</g>
<!-- Node3 -->
<g id="node3" class="node"><title>Node3</title>
<g id="a_node3"><a xlink:href="../../de/d29/ZDC_2simulation_2include_2ZDCSimulation_2Detector_8h.html" target="_top" xlink:title="/home/travis/build\l/AliceO2Group/AliceO2\l/Detectors/ZDC/simulation\l/include/ZDCSimulation/Detector.h">
<polygon fill="none" stroke="black" points="145,-167.5 145,-219.5 314,-219.5 314,-167.5 145,-167.5"/>
<text text-anchor="start" x="153" y="-207.5" font-family="Helvetica,sans-Serif" font-size="10.00">/home/travis/build</text>
<text text-anchor="start" x="153" y="-196.5" font-family="Helvetica,sans-Serif" font-size="10.00">/AliceO2Group/AliceO2</text>
<text text-anchor="start" x="153" y="-185.5" font-family="Helvetica,sans-Serif" font-size="10.00">/Detectors/ZDC/simulation</text>
<text text-anchor="middle" x="229.5" y="-174.5" font-family="Helvetica,sans-Serif" font-size="10.00">/include/ZDCSimulation/Detector.h</text>
</a>
</g>
</g>
<!-- Node1&#45;&gt;Node3 -->
<g id="edge2" class="edge"><title>Node1&#45;&gt;Node3</title>
<path fill="none" stroke="midnightblue" d="M177.432,-249.077C186.726,-239.335 196.777,-228.8 205.547,-219.607"/>
<polygon fill="midnightblue" stroke="midnightblue" points="174.877,-246.685 170.507,-256.336 179.942,-251.517 174.877,-246.685"/>
</g>
<!-- Node4 -->
<g id="node4" class="node"><title>Node4</title>
<g id="a_node4"><a xlink:href="../../df/dac/ZDC_2simulation_2src_2Detector_8cxx.html" target="_top" xlink:title="/home/travis/build\l/AliceO2Group/AliceO2\l/Detectors/ZDC/simulation\l/src/Detector.cxx">
<polygon fill="none" stroke="black" points="10.5,-78.5 10.5,-130.5 144.5,-130.5 144.5,-78.5 10.5,-78.5"/>
<text text-anchor="start" x="18.5" y="-118.5" font-family="Helvetica,sans-Serif" font-size="10.00">/home/travis/build</text>
<text text-anchor="start" x="18.5" y="-107.5" font-family="Helvetica,sans-Serif" font-size="10.00">/AliceO2Group/AliceO2</text>
<text text-anchor="start" x="18.5" y="-96.5" font-family="Helvetica,sans-Serif" font-size="10.00">/Detectors/ZDC/simulation</text>
<text text-anchor="middle" x="77.5" y="-85.5" font-family="Helvetica,sans-Serif" font-size="10.00">/src/Detector.cxx</text>
</a>
</g>
</g>
<!-- Node3&#45;&gt;Node4 -->
<g id="edge3" class="edge"><title>Node3&#45;&gt;Node4</title>
<path fill="none" stroke="midnightblue" d="M176.83,-162.353C158.735,-151.996 138.686,-140.521 121.366,-130.607"/>
<polygon fill="midnightblue" stroke="midnightblue" points="175.118,-165.406 185.535,-167.336 178.595,-159.331 175.118,-165.406"/>
</g>
<!-- Node5 -->
<g id="node5" class="node"><title>Node5</title>
<g id="a_node5"><a xlink:href="../../d1/d1a/ZDCDigitizerSpec_8cxx.html" target="_top" xlink:title="/home/travis/build\l/AliceO2Group/AliceO2\l/Steer/DigitizerWorkflow\l/src/ZDCDigitizerSpec.cxx">
<polygon fill="none" stroke="black" points="162.5,-78.5 162.5,-130.5 296.5,-130.5 296.5,-78.5 162.5,-78.5"/>
<text text-anchor="start" x="170.5" y="-118.5" font-family="Helvetica,sans-Serif" font-size="10.00">/home/travis/build</text>
<text text-anchor="start" x="170.5" y="-107.5" font-family="Helvetica,sans-Serif" font-size="10.00">/AliceO2Group/AliceO2</text>
<text text-anchor="start" x="170.5" y="-96.5" font-family="Helvetica,sans-Serif" font-size="10.00">/Steer/DigitizerWorkflow</text>
<text text-anchor="middle" x="229.5" y="-85.5" font-family="Helvetica,sans-Serif" font-size="10.00">/src/ZDCDigitizerSpec.cxx</text>
</a>
</g>
</g>
<!-- Node3&#45;&gt;Node5 -->
<g id="edge4" class="edge"><title>Node3&#45;&gt;Node5</title>
<path fill="none" stroke="midnightblue" d="M229.5,-157.191C229.5,-148.282 229.5,-138.899 229.5,-130.607"/>
<polygon fill="midnightblue" stroke="midnightblue" points="226,-157.336 229.5,-167.336 233,-157.336 226,-157.336"/>
</g>
<!-- Node6 -->
<g id="node6" class="node"><title>Node6</title>
<g id="a_node6"><a xlink:href="../../db/d50/O2HitMerger_8h.html" target="_top" xlink:title="/home/travis/build\l/AliceO2Group/AliceO2\l/run/O2HitMerger.h">
<polygon fill="none" stroke="black" points="314.5,-84 314.5,-125 432.5,-125 432.5,-84 314.5,-84"/>
<text text-anchor="start" x="322.5" y="-113" font-family="Helvetica,sans-Serif" font-size="10.00">/home/travis/build</text>
<text text-anchor="start" x="322.5" y="-102" font-family="Helvetica,sans-Serif" font-size="10.00">/AliceO2Group/AliceO2</text>
<text text-anchor="middle" x="373.5" y="-91" font-family="Helvetica,sans-Serif" font-size="10.00">/run/O2HitMerger.h</text>
</a>
</g>
</g>
<!-- Node3&#45;&gt;Node6 -->
<g id="edge5" class="edge"><title>Node3&#45;&gt;Node6</title>
<path fill="none" stroke="midnightblue" d="M279.972,-162.006C300.267,-149.745 323.076,-135.964 341.088,-125.082"/>
<polygon fill="midnightblue" stroke="midnightblue" points="277.9,-159.169 271.151,-167.336 281.52,-165.161 277.9,-159.169"/>
</g>
<!-- Node6&#45;&gt;Node6 -->
<g id="edge6" class="edge"><title>Node6&#45;&gt;Node6</title>
<path fill="none" stroke="midnightblue" d="M442.162,-115.99C447.326,-113.427 450.5,-109.597 450.5,-104.5 450.5,-96.7324 443.13,-91.908 432.579,-90.0268"/>
<polygon fill="midnightblue" stroke="midnightblue" points="441.087,-112.659 432.579,-118.973 443.167,-119.342 441.087,-112.659"/>
</g>
<!-- Node7 -->
<g id="node7" class="node"><title>Node7</title>
<g id="a_node7"><a xlink:href="../../d9/d16/O2HitMergerRunner_8cxx.html" target="_top" xlink:title="/home/travis/build\l/AliceO2Group/AliceO2\l/run/O2HitMergerRunner.cxx">
<polygon fill="none" stroke="black" points="302.5,-0.5 302.5,-41.5 444.5,-41.5 444.5,-0.5 302.5,-0.5"/>
<text text-anchor="start" x="310.5" y="-29.5" font-family="Helvetica,sans-Serif" font-size="10.00">/home/travis/build</text>
<text text-anchor="start" x="310.5" y="-18.5" font-family="Helvetica,sans-Serif" font-size="10.00">/AliceO2Group/AliceO2</text>
<text text-anchor="middle" x="373.5" y="-7.5" font-family="Helvetica,sans-Serif" font-size="10.00">/run/O2HitMergerRunner.cxx</text>
</a>
</g>
</g>
<!-- Node6&#45;&gt;Node7 -->
<g id="edge7" class="edge"><title>Node6&#45;&gt;Node7</title>
<path fill="none" stroke="midnightblue" d="M373.5,-73.5646C373.5,-62.8819 373.5,-51.1303 373.5,-41.5472"/>
<polygon fill="midnightblue" stroke="midnightblue" points="370,-73.7711 373.5,-83.7711 377,-73.7712 370,-73.7711"/>
</g>
</g>
</svg>
