<?xml version="1.0" encoding="UTF-8" standalone="no"?>
<!DOCTYPE svg PUBLIC "-//W3C//DTD SVG 1.1//EN"
 "http://www.w3.org/Graphics/SVG/1.1/DTD/svg11.dtd">
<!-- Generated by graphviz version 2.38.0 (20140413.2041)
 -->
<!-- Title: /home/travis/build/AliceO2Group/AliceO2/Framework/Core/src/DataProcessorInfo.h Pages: 1 -->
<!--zoomable 417 -->
<svg id="main" version="1.1" xmlns="http://www.w3.org/2000/svg" xmlns:xlink="http://www.w3.org/1999/xlink" xml:space="preserve" onload="init(evt)">
<style type="text/css"><![CDATA[
.edge:hover path { stroke: red; }
.edge:hover polygon { stroke: red; fill: red; }
]]></style>
<script type="text/javascript"><![CDATA[
var edges = document.getElementsByTagName('g');
if (edges && edges.length) {
  for (var i=0;i<edges.length;i++) {
    if (edges[i].id.substr(0,4)=='edge') {
      edges[i].setAttribute('class','edge');
    }
  }
}
]]></script>
        <defs>
                <circle id="rim" cx="0" cy="0" r="7"/>
                <circle id="rim2" cx="0" cy="0" r="3.5"/>
                <g id="zoomPlus">
                        <use xlink:href="#rim" fill="#404040">
                                <set attributeName="fill" to="#808080" begin="zoomplus.mouseover" end="zoomplus.mouseout"/>
                        </use>
                        <path d="M-4,0h8M0,-4v8" fill="none" stroke="white" stroke-width="1.5" pointer-events="none"/>
                </g>
                <g id="zoomMin">
                        <use xlink:href="#rim" fill="#404040">
                                <set attributeName="fill" to="#808080" begin="zoomminus.mouseover" end="zoomminus.mouseout"/>
                        </use>
                        <path d="M-4,0h8" fill="none" stroke="white" stroke-width="1.5" pointer-events="none"/>
                </g>
                <g id="dirArrow">
                        <path fill="none" stroke="white" stroke-width="1.5" d="M0,-3.0v7 M-2.5,-0.5L0,-3.0L2.5,-0.5"/>
                </g>
               <g id="resetDef">
                       <use xlink:href="#rim2" fill="#404040">
                               <set attributeName="fill" to="#808080" begin="reset.mouseover" end="reset.mouseout"/>
                       </use>
               </g>
        </defs>

<script type="text/javascript">
var viewWidth = 2105;
var viewHeight = 417;
var sectionId = 'dynsection-1';
</script>
<script xlink:href="../../svgpan.js"/>
<svg id="graph" class="graph">
<g id="viewport">
<title>/home/travis/build/AliceO2Group/AliceO2/Framework/Core/src/DataProcessorInfo.h</title>
<!-- Node1 -->
<g id="node1" class="node"><title>Node1</title>
<polygon fill="#bfbfbf" stroke="black" points="677,-356.5 677,-408.5 854,-408.5 854,-356.5 677,-356.5"/>
<text text-anchor="start" x="685" y="-396.5" font-family="Helvetica,sans-Serif" font-size="10.00">/home/travis/build</text>
<text text-anchor="start" x="685" y="-385.5" font-family="Helvetica,sans-Serif" font-size="10.00">/AliceO2Group/AliceO2</text>
<text text-anchor="start" x="685" y="-374.5" font-family="Helvetica,sans-Serif" font-size="10.00">/Framework/Core/src/DataProcessor</text>
<text text-anchor="middle" x="765.5" y="-363.5" font-family="Helvetica,sans-Serif" font-size="10.00">Info.h</text>
</g>
<!-- Node2 -->
<g id="node2" class="node"><title>Node2</title>
<g id="a_node2"><a xlink:href="../../dd/d9a/FrameworkGUIDebugger_8h.html" target="_top" xlink:title="/home/travis/build\l/AliceO2Group/AliceO2\l/Framework/Core/include\l/Framework/FrameworkGUIDebugger.h">
<polygon fill="none" stroke="black" points="102.5,-267.5 102.5,-319.5 290.5,-319.5 290.5,-267.5 102.5,-267.5"/>
<text text-anchor="start" x="110.5" y="-307.5" font-family="Helvetica,sans-Serif" font-size="10.00">/home/travis/build</text>
<text text-anchor="start" x="110.5" y="-296.5" font-family="Helvetica,sans-Serif" font-size="10.00">/AliceO2Group/AliceO2</text>
<text text-anchor="start" x="110.5" y="-285.5" font-family="Helvetica,sans-Serif" font-size="10.00">/Framework/Core/include</text>
<text text-anchor="middle" x="196.5" y="-274.5" font-family="Helvetica,sans-Serif" font-size="10.00">/Framework/FrameworkGUIDebugger.h</text>
</a>
</g>
</g>
<!-- Node1&#45;&gt;Node2 -->
<g id="edge1" class="edge"><title>Node1&#45;&gt;Node2</title>
<path fill="none" stroke="midnightblue" d="M666.68,-371.19C573.027,-360.742 428.616,-342.873 304.5,-320 299.953,-319.162 295.309,-318.257 290.627,-317.305"/>
<polygon fill="midnightblue" stroke="midnightblue" points="666.387,-374.679 676.712,-372.303 667.158,-367.722 666.387,-374.679"/>
</g>
<!-- Node3 -->
<g id="node3" class="node"><title>Node3</title>
<g id="a_node3"><a xlink:href="../../de/ddc/FrameworkDummyDebugger_8cxx.html" target="_top" xlink:title="/home/travis/build\l/AliceO2Group/AliceO2\l/Framework/Core/src/Framework\lDummyDebugger.cxx">
<polygon fill="none" stroke="black" points="0,-178.5 0,-230.5 161,-230.5 161,-178.5 0,-178.5"/>
<text text-anchor="start" x="8" y="-218.5" font-family="Helvetica,sans-Serif" font-size="10.00">/home/travis/build</text>
<text text-anchor="start" x="8" y="-207.5" font-family="Helvetica,sans-Serif" font-size="10.00">/AliceO2Group/AliceO2</text>
<text text-anchor="start" x="8" y="-196.5" font-family="Helvetica,sans-Serif" font-size="10.00">/Framework/Core/src/Framework</text>
<text text-anchor="middle" x="80.5" y="-185.5" font-family="Helvetica,sans-Serif" font-size="10.00">DummyDebugger.cxx</text>
</a>
</g>
</g>
<!-- Node1&#45;&gt;Node3 -->
<g id="edge33" class="edge"><title>Node1&#45;&gt;Node3</title>
<path fill="none" stroke="midnightblue" d="M666.743,-379.228C489.854,-374.185 133.596,-359.232 93.5,-320 70.1913,-297.194 71.2945,-257.01 75.1721,-230.824"/>
<polygon fill="midnightblue" stroke="midnightblue" points="666.744,-382.729 676.838,-379.51 666.94,-375.732 666.744,-382.729"/>
</g>
<!-- Node5 -->
<g id="node5" class="node"><title>Node5</title>
<g id="a_node5"><a xlink:href="../../d7/d54/runDataProcessing_8cxx.html" target="_top" xlink:title="/home/travis/build\l/AliceO2Group/AliceO2\l/Framework/Core/src/runDataProcessing.cxx">
<polygon fill="none" stroke="black" points="305.5,-95 305.5,-136 519.5,-136 519.5,-95 305.5,-95"/>
<text text-anchor="start" x="313.5" y="-124" font-family="Helvetica,sans-Serif" font-size="10.00">/home/travis/build</text>
<text text-anchor="start" x="313.5" y="-113" font-family="Helvetica,sans-Serif" font-size="10.00">/AliceO2Group/AliceO2</text>
<text text-anchor="middle" x="412.5" y="-102" font-family="Helvetica,sans-Serif" font-size="10.00">/Framework/Core/src/runDataProcessing.cxx</text>
</a>
</g>
</g>
<!-- Node1&#45;&gt;Node5 -->
<g id="edge35" class="edge"><title>Node1&#45;&gt;Node5</title>
<path fill="none" stroke="midnightblue" d="M666.778,-365.167C540.315,-341.876 332.496,-294.775 291.5,-231 278.763,-211.185 279.182,-198.078 291.5,-178 303.268,-158.818 323.095,-145.389 343.33,-136.09"/>
<polygon fill="midnightblue" stroke="midnightblue" points="666.403,-368.657 676.869,-367.007 667.659,-361.77 666.403,-368.657"/>
</g>
<!-- Node6 -->
<g id="node6" class="node"><title>Node6</title>
<g id="a_node6"><a xlink:href="../../dd/d49/FrameworkGUIDevicesGraph_8h.html" target="_top" xlink:title="/home/travis/build\l/AliceO2Group/AliceO2\l/Framework/Core/include\l/Framework/FrameworkGUIDevicesGraph.h">
<polygon fill="none" stroke="black" points="865,-267.5 865,-319.5 1074,-319.5 1074,-267.5 865,-267.5"/>
<text text-anchor="start" x="873" y="-307.5" font-family="Helvetica,sans-Serif" font-size="10.00">/home/travis/build</text>
<text text-anchor="start" x="873" y="-296.5" font-family="Helvetica,sans-Serif" font-size="10.00">/AliceO2Group/AliceO2</text>
<text text-anchor="start" x="873" y="-285.5" font-family="Helvetica,sans-Serif" font-size="10.00">/Framework/Core/include</text>
<text text-anchor="middle" x="969.5" y="-274.5" font-family="Helvetica,sans-Serif" font-size="10.00">/Framework/FrameworkGUIDevicesGraph.h</text>
</a>
</g>
</g>
<!-- Node1&#45;&gt;Node6 -->
<g id="edge5" class="edge"><title>Node1&#45;&gt;Node6</title>
<path fill="none" stroke="midnightblue" d="M833.651,-352.436C858.658,-341.771 886.727,-329.8 910.83,-319.521"/>
<polygon fill="midnightblue" stroke="midnightblue" points="832.057,-349.31 824.232,-356.453 834.803,-355.749 832.057,-349.31"/>
</g>
<!-- Node8 -->
<g id="node8" class="node"><title>Node8</title>
<g id="a_node8"><a xlink:href="../../d9/da0/WorkflowHelpers_8h.html" target="_top" xlink:title="/home/travis/build\l/AliceO2Group/AliceO2\l/Framework/Core/src/Workflow\lHelpers.h">
<polygon fill="none" stroke="black" points="1424,-267.5 1424,-319.5 1577,-319.5 1577,-267.5 1424,-267.5"/>
<text text-anchor="start" x="1432" y="-307.5" font-family="Helvetica,sans-Serif" font-size="10.00">/home/travis/build</text>
<text text-anchor="start" x="1432" y="-296.5" font-family="Helvetica,sans-Serif" font-size="10.00">/AliceO2Group/AliceO2</text>
<text text-anchor="start" x="1432" y="-285.5" font-family="Helvetica,sans-Serif" font-size="10.00">/Framework/Core/src/Workflow</text>
<text text-anchor="middle" x="1500.5" y="-274.5" font-family="Helvetica,sans-Serif" font-size="10.00">Helpers.h</text>
</a>
</g>
</g>
<!-- Node1&#45;&gt;Node8 -->
<g id="edge8" class="edge"><title>Node1&#45;&gt;Node8</title>
<path fill="none" stroke="midnightblue" d="M864.171,-369.821C1012.44,-352.27 1289.59,-319.465 1423.78,-303.581"/>
<polygon fill="midnightblue" stroke="midnightblue" points="863.677,-366.354 854.158,-371.006 864.5,-373.306 863.677,-366.354"/>
</g>
<!-- Node10 -->
<g id="node10" class="node"><title>Node10</title>
<g id="a_node10"><a xlink:href="../../df/dda/DeviceSpecHelpers_8h.html" target="_top" xlink:title="/home/travis/build\l/AliceO2Group/AliceO2\l/Framework/Core/src/DeviceSpec\lHelpers.h">
<polygon fill="none" stroke="black" points="1153,-178.5 1153,-230.5 1318,-230.5 1318,-178.5 1153,-178.5"/>
<text text-anchor="start" x="1161" y="-218.5" font-family="Helvetica,sans-Serif" font-size="10.00">/home/travis/build</text>
<text text-anchor="start" x="1161" y="-207.5" font-family="Helvetica,sans-Serif" font-size="10.00">/AliceO2Group/AliceO2</text>
<text text-anchor="start" x="1161" y="-196.5" font-family="Helvetica,sans-Serif" font-size="10.00">/Framework/Core/src/DeviceSpec</text>
<text text-anchor="middle" x="1235.5" y="-185.5" font-family="Helvetica,sans-Serif" font-size="10.00">Helpers.h</text>
</a>
</g>
</g>
<!-- Node1&#45;&gt;Node10 -->
<g id="edge24" class="edge"><title>Node1&#45;&gt;Node10</title>
<path fill="none" stroke="midnightblue" d="M864.259,-373.861C928.604,-366.142 1013.17,-350.715 1082.5,-320 1132.25,-297.961 1181.05,-257.168 1209.7,-230.695"/>
<polygon fill="midnightblue" stroke="midnightblue" points="863.642,-370.409 854.111,-375.035 864.447,-377.362 863.642,-370.409"/>
</g>
<!-- Node20 -->
<g id="node20" class="node"><title>Node20</title>
<g id="a_node20"><a xlink:href="../../de/da9/DriverInfo_8h.html" target="_top" xlink:title="/home/travis/build\l/AliceO2Group/AliceO2\l/Framework/Core/src/DriverInfo.h">
<polygon fill="none" stroke="black" points="684,-273 684,-314 847,-314 847,-273 684,-273"/>
<text text-anchor="start" x="692" y="-302" font-family="Helvetica,sans-Serif" font-size="10.00">/home/travis/build</text>
<text text-anchor="start" x="692" y="-291" font-family="Helvetica,sans-Serif" font-size="10.00">/AliceO2Group/AliceO2</text>
<text text-anchor="middle" x="765.5" y="-280" font-family="Helvetica,sans-Serif" font-size="10.00">/Framework/Core/src/DriverInfo.h</text>
</a>
</g>
</g>
<!-- Node1&#45;&gt;Node20 -->
<g id="edge25" class="edge"><title>Node1&#45;&gt;Node20</title>
<path fill="none" stroke="midnightblue" d="M765.5,-346.155C765.5,-335.21 765.5,-323.549 765.5,-314.082"/>
<polygon fill="midnightblue" stroke="midnightblue" points="762,-346.336 765.5,-356.336 769,-346.336 762,-346.336"/>
</g>
<!-- Node24 -->
<g id="node24" class="node"><title>Node24</title>
<g id="a_node24"><a xlink:href="../../d4/d72/FrameworkGUIDeviceInspector_8cxx.html" target="_top" xlink:title="/home/travis/build\l/AliceO2Group/AliceO2\l/Framework/Core/src/Framework\lGUIDeviceInspector.cxx">
<polygon fill="none" stroke="black" points="1595,-267.5 1595,-319.5 1756,-319.5 1756,-267.5 1595,-267.5"/>
<text text-anchor="start" x="1603" y="-307.5" font-family="Helvetica,sans-Serif" font-size="10.00">/home/travis/build</text>
<text text-anchor="start" x="1603" y="-296.5" font-family="Helvetica,sans-Serif" font-size="10.00">/AliceO2Group/AliceO2</text>
<text text-anchor="start" x="1603" y="-285.5" font-family="Helvetica,sans-Serif" font-size="10.00">/Framework/Core/src/Framework</text>
<text text-anchor="middle" x="1675.5" y="-274.5" font-family="Helvetica,sans-Serif" font-size="10.00">GUIDeviceInspector.cxx</text>
</a>
</g>
</g>
<!-- Node1&#45;&gt;Node24 -->
<g id="edge34" class="edge"><title>Node1&#45;&gt;Node24</title>
<path fill="none" stroke="midnightblue" d="M864.642,-380.478C1019.62,-377.444 1328.2,-365.62 1585.5,-320 1588.54,-319.461 1591.62,-318.862 1594.73,-318.214"/>
<polygon fill="midnightblue" stroke="midnightblue" points="864.137,-376.987 854.204,-380.673 864.268,-383.985 864.137,-376.987"/>
</g>
<!-- Node25 -->
<g id="node25" class="node"><title>Node25</title>
<g id="a_node25"><a xlink:href="../../d3/d50/WorkflowSerializationHelpers_8h.html" target="_top" xlink:title="/home/travis/build\l/AliceO2Group/AliceO2\l/Framework/Core/src/Workflow\lSerializationHelpers.h">
<polygon fill="none" stroke="black" points="496,-267.5 496,-319.5 649,-319.5 649,-267.5 496,-267.5"/>
<text text-anchor="start" x="504" y="-307.5" font-family="Helvetica,sans-Serif" font-size="10.00">/home/travis/build</text>
<text text-anchor="start" x="504" y="-296.5" font-family="Helvetica,sans-Serif" font-size="10.00">/AliceO2Group/AliceO2</text>
<text text-anchor="start" x="504" y="-285.5" font-family="Helvetica,sans-Serif" font-size="10.00">/Framework/Core/src/Workflow</text>
<text text-anchor="middle" x="572.5" y="-274.5" font-family="Helvetica,sans-Serif" font-size="10.00">SerializationHelpers.h</text>
</a>
</g>
</g>
<!-- Node1&#45;&gt;Node25 -->
<g id="edge36" class="edge"><title>Node1&#45;&gt;Node25</title>
<path fill="none" stroke="midnightblue" d="M700.711,-352.295C677.131,-341.665 650.71,-329.755 628.007,-319.521"/>
<polygon fill="midnightblue" stroke="midnightblue" points="699.38,-355.534 709.935,-356.453 702.257,-349.152 699.38,-355.534"/>
</g>
<!-- Node2&#45;&gt;Node3 -->
<g id="edge2" class="edge"><title>Node2&#45;&gt;Node3</title>
<path fill="none" stroke="midnightblue" d="M154.792,-261.219C141.385,-251.164 126.714,-240.16 113.977,-230.607"/>
<polygon fill="midnightblue" stroke="midnightblue" points="152.848,-264.136 162.948,-267.336 157.048,-258.536 152.848,-264.136"/>
</g>
<!-- Node4 -->
<g id="node4" class="node"><title>Node4</title>
<g id="a_node4"><a xlink:href="../../d3/d29/FrameworkGUIDebugger_8cxx.html" target="_top" xlink:title="/home/travis/build\l/AliceO2Group/AliceO2\l/Framework/Core/src/Framework\lGUIDebugger.cxx">
<polygon fill="none" stroke="black" points="650,-0.5 650,-52.5 811,-52.5 811,-0.5 650,-0.5"/>
<text text-anchor="start" x="658" y="-40.5" font-family="Helvetica,sans-Serif" font-size="10.00">/home/travis/build</text>
<text text-anchor="start" x="658" y="-29.5" font-family="Helvetica,sans-Serif" font-size="10.00">/AliceO2Group/AliceO2</text>
<text text-anchor="start" x="658" y="-18.5" font-family="Helvetica,sans-Serif" font-size="10.00">/Framework/Core/src/Framework</text>
<text text-anchor="middle" x="730.5" y="-7.5" font-family="Helvetica,sans-Serif" font-size="10.00">GUIDebugger.cxx</text>
</a>
</g>
</g>
<!-- Node2&#45;&gt;Node4 -->
<g id="edge3" class="edge"><title>Node2&#45;&gt;Node4</title>
<path fill="none" stroke="midnightblue" d="M198.069,-256.972C200.269,-233.543 205.441,-202.732 217.5,-178 240.68,-130.459 249.903,-114.023 296.5,-89 356.002,-57.0472 541.636,-39.838 649.887,-32.2884"/>
<polygon fill="midnightblue" stroke="midnightblue" points="194.562,-256.922 197.254,-267.169 201.54,-257.48 194.562,-256.922"/>
</g>
<!-- Node2&#45;&gt;Node5 -->
<g id="edge4" class="edge"><title>Node2&#45;&gt;Node5</title>
<path fill="none" stroke="midnightblue" d="M207.957,-257.837C217.832,-232.706 234.349,-199.493 258.5,-178 279.791,-159.052 307.646,-145.562 333.803,-136.142"/>
<polygon fill="midnightblue" stroke="midnightblue" points="204.616,-256.779 204.374,-267.371 211.168,-259.242 204.616,-256.779"/>
</g>
<!-- Node6&#45;&gt;Node4 -->
<g id="edge6" class="edge"><title>Node6&#45;&gt;Node4</title>
<path fill="none" stroke="midnightblue" d="M966.147,-257.382C960.544,-205.873 947.653,-113.305 925.5,-89 896.446,-57.124 851.046,-41.6522 811.361,-34.1936"/>
<polygon fill="midnightblue" stroke="midnightblue" points="962.675,-257.829 967.202,-267.407 969.636,-257.096 962.675,-257.829"/>
</g>
<!-- Node7 -->
<g id="node7" class="node"><title>Node7</title>
<g id="a_node7"><a xlink:href="../../d7/d5a/FrameworkGUIDevicesGraph_8cxx.html" target="_top" xlink:title="/home/travis/build\l/AliceO2Group/AliceO2\l/Framework/Core/src/Framework\lGUIDevicesGraph.cxx">
<polygon fill="none" stroke="black" points="974,-178.5 974,-230.5 1135,-230.5 1135,-178.5 974,-178.5"/>
<text text-anchor="start" x="982" y="-218.5" font-family="Helvetica,sans-Serif" font-size="10.00">/home/travis/build</text>
<text text-anchor="start" x="982" y="-207.5" font-family="Helvetica,sans-Serif" font-size="10.00">/AliceO2Group/AliceO2</text>
<text text-anchor="start" x="982" y="-196.5" font-family="Helvetica,sans-Serif" font-size="10.00">/Framework/Core/src/Framework</text>
<text text-anchor="middle" x="1054.5" y="-185.5" font-family="Helvetica,sans-Serif" font-size="10.00">GUIDevicesGraph.cxx</text>
</a>
</g>
</g>
<!-- Node6&#45;&gt;Node7 -->
<g id="edge7" class="edge"><title>Node6&#45;&gt;Node7</title>
<path fill="none" stroke="midnightblue" d="M1001.18,-260.077C1010.7,-250.335 1020.99,-239.8 1029.97,-230.607"/>
<polygon fill="midnightblue" stroke="midnightblue" points="998.57,-257.737 994.086,-267.336 1003.58,-262.629 998.57,-257.737"/>
</g>
<!-- Node8&#45;&gt;Node7 -->
<g id="edge19" class="edge"><title>Node8&#45;&gt;Node7</title>
<path fill="none" stroke="midnightblue" d="M1413.75,-280.249C1341.13,-269.351 1234.99,-251.923 1143.5,-231 1140.84,-230.391 1138.13,-229.75 1135.41,-229.085"/>
<polygon fill="midnightblue" stroke="midnightblue" points="1413.36,-283.73 1423.77,-281.743 1414.39,-276.806 1413.36,-283.73"/>
</g>
<!-- Node9 -->
<g id="node9" class="node"><title>Node9</title>
<g id="a_node9"><a xlink:href="../../d8/d84/DeviceSpec_8cxx.html" target="_top" xlink:title="/home/travis/build\l/AliceO2Group/AliceO2\l/Framework/Core/src/DeviceSpec.cxx">
<polygon fill="none" stroke="black" points="1837.5,-184 1837.5,-225 2021.5,-225 2021.5,-184 1837.5,-184"/>
<text text-anchor="start" x="1845.5" y="-213" font-family="Helvetica,sans-Serif" font-size="10.00">/home/travis/build</text>
<text text-anchor="start" x="1845.5" y="-202" font-family="Helvetica,sans-Serif" font-size="10.00">/AliceO2Group/AliceO2</text>
<text text-anchor="middle" x="1929.5" y="-191" font-family="Helvetica,sans-Serif" font-size="10.00">/Framework/Core/src/DeviceSpec.cxx</text>
</a>
</g>
</g>
<!-- Node8&#45;&gt;Node9 -->
<g id="edge9" class="edge"><title>Node8&#45;&gt;Node9</title>
<path fill="none" stroke="midnightblue" d="M1587.12,-266.763C1693.41,-243.811 1723.97,-251.59 1827.5,-231 1836.45,-229.22 1845.8,-227.162 1855.04,-225.003"/>
<polygon fill="midnightblue" stroke="midnightblue" points="1586.29,-263.36 1577.28,-268.927 1587.8,-270.196 1586.29,-263.36"/>
</g>
<!-- Node8&#45;&gt;Node10 -->
<g id="edge10" class="edge"><title>Node8&#45;&gt;Node10</title>
<path fill="none" stroke="midnightblue" d="M1414.54,-264.278C1381.42,-253.405 1343.85,-241.072 1311.71,-230.521"/>
<polygon fill="midnightblue" stroke="midnightblue" points="1413.61,-267.659 1424.21,-267.453 1415.8,-261.008 1413.61,-267.659"/>
</g>
<!-- Node11 -->
<g id="node11" class="node"><title>Node11</title>
<g id="a_node11"><a xlink:href="../../d1/dd9/DeviceSpecHelpers_8cxx.html" target="_top" xlink:title="/home/travis/build\l/AliceO2Group/AliceO2\l/Framework/Core/src/DeviceSpec\lHelpers.cxx">
<polygon fill="none" stroke="black" points="1727,-89.5 1727,-141.5 1892,-141.5 1892,-89.5 1727,-89.5"/>
<text text-anchor="start" x="1735" y="-129.5" font-family="Helvetica,sans-Serif" font-size="10.00">/home/travis/build</text>
<text text-anchor="start" x="1735" y="-118.5" font-family="Helvetica,sans-Serif" font-size="10.00">/AliceO2Group/AliceO2</text>
<text text-anchor="start" x="1735" y="-107.5" font-family="Helvetica,sans-Serif" font-size="10.00">/Framework/Core/src/DeviceSpec</text>
<text text-anchor="middle" x="1809.5" y="-96.5" font-family="Helvetica,sans-Serif" font-size="10.00">Helpers.cxx</text>
</a>
</g>
</g>
<!-- Node8&#45;&gt;Node11 -->
<g id="edge18" class="edge"><title>Node8&#45;&gt;Node11</title>
<path fill="none" stroke="midnightblue" d="M1587.2,-267.291C1667.52,-258.625 1998.44,-265.754 2030.5,-231 2046.47,-213.685 2044.75,-196.757 2030.5,-178 2013.42,-155.524 1947.5,-139.083 1892.06,-128.884"/>
<polygon fill="midnightblue" stroke="midnightblue" points="1586.65,-263.834 1577.23,-268.691 1587.62,-270.766 1586.65,-263.834"/>
</g>
<!-- Node12 -->
<g id="node12" class="node"><title>Node12</title>
<g id="a_node12"><a xlink:href="../../d9/d51/test__DeviceSpec_8cxx.html" target="_top" xlink:title="/home/travis/build\l/AliceO2Group/AliceO2\l/Framework/Core/test/test\l_DeviceSpec.cxx">
<polygon fill="none" stroke="black" points="1966,-89.5 1966,-141.5 2097,-141.5 2097,-89.5 1966,-89.5"/>
<text text-anchor="start" x="1974" y="-129.5" font-family="Helvetica,sans-Serif" font-size="10.00">/home/travis/build</text>
<text text-anchor="start" x="1974" y="-118.5" font-family="Helvetica,sans-Serif" font-size="10.00">/AliceO2Group/AliceO2</text>
<text text-anchor="start" x="1974" y="-107.5" font-family="Helvetica,sans-Serif" font-size="10.00">/Framework/Core/test/test</text>
<text text-anchor="middle" x="2031.5" y="-96.5" font-family="Helvetica,sans-Serif" font-size="10.00">_DeviceSpec.cxx</text>
</a>
</g>
</g>
<!-- Node8&#45;&gt;Node12 -->
<g id="edge22" class="edge"><title>Node8&#45;&gt;Node12</title>
<path fill="none" stroke="midnightblue" d="M1587.32,-267.278C1670.31,-258.462 2015.99,-267.211 2049.5,-231 2071.64,-207.074 2058.55,-167.578 2045.95,-141.798"/>
<polygon fill="midnightblue" stroke="midnightblue" points="1586.65,-263.837 1577.23,-268.679 1587.62,-270.77 1586.65,-263.837"/>
</g>
<!-- Node17 -->
<g id="node17" class="node"><title>Node17</title>
<g id="a_node17"><a xlink:href="../../dc/da7/WorkflowHelpers_8cxx.html" target="_top" xlink:title="/home/travis/build\l/AliceO2Group/AliceO2\l/Framework/Core/src/Workflow\lHelpers.cxx">
<polygon fill="none" stroke="black" points="1336,-178.5 1336,-230.5 1489,-230.5 1489,-178.5 1336,-178.5"/>
<text text-anchor="start" x="1344" y="-218.5" font-family="Helvetica,sans-Serif" font-size="10.00">/home/travis/build</text>
<text text-anchor="start" x="1344" y="-207.5" font-family="Helvetica,sans-Serif" font-size="10.00">/AliceO2Group/AliceO2</text>
<text text-anchor="start" x="1344" y="-196.5" font-family="Helvetica,sans-Serif" font-size="10.00">/Framework/Core/src/Workflow</text>
<text text-anchor="middle" x="1412.5" y="-185.5" font-family="Helvetica,sans-Serif" font-size="10.00">Helpers.cxx</text>
</a>
</g>
</g>
<!-- Node8&#45;&gt;Node17 -->
<g id="edge20" class="edge"><title>Node8&#45;&gt;Node17</title>
<path fill="none" stroke="midnightblue" d="M1467.7,-260.077C1457.85,-250.335 1447.19,-239.8 1437.9,-230.607"/>
<polygon fill="midnightblue" stroke="midnightblue" points="1465.47,-262.794 1475.05,-267.336 1470.4,-257.816 1465.47,-262.794"/>
</g>
<!-- Node18 -->
<g id="node18" class="node"><title>Node18</title>
<g id="a_node18"><a xlink:href="../../df/d36/benchmark__WorkflowHelpers_8cxx.html" target="_top" xlink:title="/home/travis/build\l/AliceO2Group/AliceO2\l/Framework/Core/test/benchmark\l_WorkflowHelpers.cxx">
<polygon fill="none" stroke="black" points="1507,-178.5 1507,-230.5 1670,-230.5 1670,-178.5 1507,-178.5"/>
<text text-anchor="start" x="1515" y="-218.5" font-family="Helvetica,sans-Serif" font-size="10.00">/home/travis/build</text>
<text text-anchor="start" x="1515" y="-207.5" font-family="Helvetica,sans-Serif" font-size="10.00">/AliceO2Group/AliceO2</text>
<text text-anchor="start" x="1515" y="-196.5" font-family="Helvetica,sans-Serif" font-size="10.00">/Framework/Core/test/benchmark</text>
<text text-anchor="middle" x="1588.5" y="-185.5" font-family="Helvetica,sans-Serif" font-size="10.00">_WorkflowHelpers.cxx</text>
</a>
</g>
</g>
<!-- Node8&#45;&gt;Node18 -->
<g id="edge21" class="edge"><title>Node8&#45;&gt;Node18</title>
<path fill="none" stroke="midnightblue" d="M1533.3,-260.077C1543.15,-250.335 1553.81,-239.8 1563.1,-230.607"/>
<polygon fill="midnightblue" stroke="midnightblue" points="1530.6,-257.816 1525.95,-267.336 1535.53,-262.794 1530.6,-257.816"/>
</g>
<!-- Node19 -->
<g id="node19" class="node"><title>Node19</title>
<g id="a_node19"><a xlink:href="../../de/dc3/test__WorkflowHelpers_8cxx.html" target="_top" xlink:title="/home/travis/build\l/AliceO2Group/AliceO2\l/Framework/Core/test/test\l_WorkflowHelpers.cxx">
<polygon fill="none" stroke="black" points="1688,-178.5 1688,-230.5 1819,-230.5 1819,-178.5 1688,-178.5"/>
<text text-anchor="start" x="1696" y="-218.5" font-family="Helvetica,sans-Serif" font-size="10.00">/home/travis/build</text>
<text text-anchor="start" x="1696" y="-207.5" font-family="Helvetica,sans-Serif" font-size="10.00">/AliceO2Group/AliceO2</text>
<text text-anchor="start" x="1696" y="-196.5" font-family="Helvetica,sans-Serif" font-size="10.00">/Framework/Core/test/test</text>
<text text-anchor="middle" x="1753.5" y="-185.5" font-family="Helvetica,sans-Serif" font-size="10.00">_WorkflowHelpers.cxx</text>
</a>
</g>
</g>
<!-- Node8&#45;&gt;Node19 -->
<g id="edge23" class="edge"><title>Node8&#45;&gt;Node19</title>
<path fill="none" stroke="midnightblue" d="M1583.22,-264.055C1617.09,-252.407 1655.74,-239.116 1687.65,-228.145"/>
<polygon fill="midnightblue" stroke="midnightblue" points="1581.66,-260.891 1573.34,-267.453 1583.93,-267.511 1581.66,-260.891"/>
</g>
<!-- Node10&#45;&gt;Node5 -->
<g id="edge12" class="edge"><title>Node10&#45;&gt;Node5</title>
<path fill="none" stroke="midnightblue" d="M1142.79,-178.063C871.564,-134.301 796.409,-179.052 528.5,-142 517.164,-140.432 505.291,-138.346 493.647,-136.039"/>
<polygon fill="midnightblue" stroke="midnightblue" points="1142.5,-181.562 1152.93,-179.726 1143.63,-174.654 1142.5,-181.562"/>
</g>
<!-- Node10&#45;&gt;Node11 -->
<g id="edge11" class="edge"><title>Node10&#45;&gt;Node11</title>
<path fill="none" stroke="midnightblue" d="M1328.21,-178.156C1380.16,-170.494 1603.38,-142.376 1726.89,-126.863"/>
<polygon fill="midnightblue" stroke="midnightblue" points="1327.52,-174.722 1318.2,-179.771 1328.63,-181.632 1327.52,-174.722"/>
</g>
<!-- Node10&#45;&gt;Node12 -->
<g id="edge13" class="edge"><title>Node10&#45;&gt;Node12</title>
<path fill="none" stroke="midnightblue" d="M1328.36,-177.834C1580.35,-136.299 1650.3,-174.06 1900.5,-142 1921.87,-139.261 1945.01,-135.147 1965.8,-131.018"/>
<polygon fill="midnightblue" stroke="midnightblue" points="1327.44,-174.438 1318.16,-179.541 1328.6,-181.342 1327.44,-174.438"/>
</g>
<!-- Node13 -->
<g id="node13" class="node"><title>Node13</title>
<g id="a_node13"><a xlink:href="../../d4/de8/test__DeviceSpecHelpers_8cxx.html" target="_top" xlink:title="/home/travis/build\l/AliceO2Group/AliceO2\l/Framework/Core/test/test\l_DeviceSpecHelpers.cxx">
<polygon fill="none" stroke="black" points="1467,-89.5 1467,-141.5 1598,-141.5 1598,-89.5 1467,-89.5"/>
<text text-anchor="start" x="1475" y="-129.5" font-family="Helvetica,sans-Serif" font-size="10.00">/home/travis/build</text>
<text text-anchor="start" x="1475" y="-118.5" font-family="Helvetica,sans-Serif" font-size="10.00">/AliceO2Group/AliceO2</text>
<text text-anchor="start" x="1475" y="-107.5" font-family="Helvetica,sans-Serif" font-size="10.00">/Framework/Core/test/test</text>
<text text-anchor="middle" x="1532.5" y="-96.5" font-family="Helvetica,sans-Serif" font-size="10.00">_DeviceSpecHelpers.cxx</text>
</a>
</g>
</g>
<!-- Node10&#45;&gt;Node13 -->
<g id="edge14" class="edge"><title>Node10&#45;&gt;Node13</title>
<path fill="none" stroke="midnightblue" d="M1328.05,-177.589C1386.33,-161.597 1402.71,-158.826 1457.5,-142 1460.52,-141.071 1463.61,-140.104 1466.72,-139.112"/>
<polygon fill="midnightblue" stroke="midnightblue" points="1327.03,-174.238 1318.32,-180.273 1328.89,-180.986 1327.03,-174.238"/>
</g>
<!-- Node14 -->
<g id="node14" class="node"><title>Node14</title>
<g id="a_node14"><a xlink:href="../../d6/d53/test__FrameworkDataFlowToDDS_8cxx.html" target="_top" xlink:title="/home/travis/build\l/AliceO2Group/AliceO2\l/Framework/Core/test/test\l_FrameworkDataFlowToDDS.cxx">
<polygon fill="none" stroke="black" points="980.5,-89.5 980.5,-141.5 1144.5,-141.5 1144.5,-89.5 980.5,-89.5"/>
<text text-anchor="start" x="988.5" y="-129.5" font-family="Helvetica,sans-Serif" font-size="10.00">/home/travis/build</text>
<text text-anchor="start" x="988.5" y="-118.5" font-family="Helvetica,sans-Serif" font-size="10.00">/AliceO2Group/AliceO2</text>
<text text-anchor="start" x="988.5" y="-107.5" font-family="Helvetica,sans-Serif" font-size="10.00">/Framework/Core/test/test</text>
<text text-anchor="middle" x="1062.5" y="-96.5" font-family="Helvetica,sans-Serif" font-size="10.00">_FrameworkDataFlowToDDS.cxx</text>
</a>
</g>
</g>
<!-- Node10&#45;&gt;Node14 -->
<g id="edge15" class="edge"><title>Node10&#45;&gt;Node14</title>
<path fill="none" stroke="midnightblue" d="M1176.39,-173.776C1155.58,-163.309 1132.41,-151.656 1112.43,-141.607"/>
<polygon fill="midnightblue" stroke="midnightblue" points="1174.95,-176.97 1185.46,-178.336 1178.1,-170.716 1174.95,-176.97"/>
</g>
<!-- Node15 -->
<g id="node15" class="node"><title>Node15</title>
<g id="a_node15"><a xlink:href="../../d4/dc4/test__Graphviz_8cxx.html" target="_top" xlink:title="/home/travis/build\l/AliceO2Group/AliceO2\l/Framework/Core/test/test\l_Graphviz.cxx">
<polygon fill="none" stroke="black" points="1163,-89.5 1163,-141.5 1294,-141.5 1294,-89.5 1163,-89.5"/>
<text text-anchor="start" x="1171" y="-129.5" font-family="Helvetica,sans-Serif" font-size="10.00">/home/travis/build</text>
<text text-anchor="start" x="1171" y="-118.5" font-family="Helvetica,sans-Serif" font-size="10.00">/AliceO2Group/AliceO2</text>
<text text-anchor="start" x="1171" y="-107.5" font-family="Helvetica,sans-Serif" font-size="10.00">/Framework/Core/test/test</text>
<text text-anchor="middle" x="1228.5" y="-96.5" font-family="Helvetica,sans-Serif" font-size="10.00">_Graphviz.cxx</text>
</a>
</g>
</g>
<!-- Node10&#45;&gt;Node15 -->
<g id="edge16" class="edge"><title>Node10&#45;&gt;Node15</title>
<path fill="none" stroke="midnightblue" d="M1232.66,-168.191C1231.94,-159.282 1231.19,-149.899 1230.52,-141.607"/>
<polygon fill="midnightblue" stroke="midnightblue" points="1229.18,-168.649 1233.48,-178.336 1236.16,-168.087 1229.18,-168.649"/>
</g>
<!-- Node16 -->
<g id="node16" class="node"><title>Node16</title>
<g id="a_node16"><a xlink:href="../../dd/d8a/test__TimeParallelPipelining_8cxx.html" target="_top" xlink:title="/home/travis/build\l/AliceO2Group/AliceO2\l/Framework/Core/test/test\l_TimeParallelPipelining.cxx">
<polygon fill="none" stroke="black" points="1312,-89.5 1312,-141.5 1449,-141.5 1449,-89.5 1312,-89.5"/>
<text text-anchor="start" x="1320" y="-129.5" font-family="Helvetica,sans-Serif" font-size="10.00">/home/travis/build</text>
<text text-anchor="start" x="1320" y="-118.5" font-family="Helvetica,sans-Serif" font-size="10.00">/AliceO2Group/AliceO2</text>
<text text-anchor="start" x="1320" y="-107.5" font-family="Helvetica,sans-Serif" font-size="10.00">/Framework/Core/test/test</text>
<text text-anchor="middle" x="1380.5" y="-96.5" font-family="Helvetica,sans-Serif" font-size="10.00">_TimeParallelPipelining.cxx</text>
</a>
</g>
</g>
<!-- Node10&#45;&gt;Node16 -->
<g id="edge17" class="edge"><title>Node10&#45;&gt;Node16</title>
<path fill="none" stroke="midnightblue" d="M1286.22,-173.07C1303.35,-162.788 1322.28,-151.431 1338.65,-141.607"/>
<polygon fill="midnightblue" stroke="midnightblue" points="1284.21,-170.19 1277.44,-178.336 1287.82,-176.192 1284.21,-170.19"/>
</g>
<!-- Node20&#45;&gt;Node5 -->
<g id="edge32" class="edge"><title>Node20&#45;&gt;Node5</title>
<path fill="none" stroke="midnightblue" d="M733.88,-266.334C720.951,-255.513 705.91,-242.767 692.5,-231 666.253,-207.968 665.055,-194.904 634.5,-178 610.922,-164.956 550.658,-148.605 498.86,-136.042"/>
<polygon fill="midnightblue" stroke="midnightblue" points="731.703,-269.077 741.623,-272.797 736.189,-263.702 731.703,-269.077"/>
</g>
<!-- Node21 -->
<g id="node21" class="node"><title>Node21</title>
<g id="a_node21"><a xlink:href="../../de/d66/DriverControl_8h.html" target="_top" xlink:title="/home/travis/build\l/AliceO2Group/AliceO2\l/Framework/Core/src/DriverControl.h">
<polygon fill="none" stroke="black" points="701.5,-184 701.5,-225 879.5,-225 879.5,-184 701.5,-184"/>
<text text-anchor="start" x="709.5" y="-213" font-family="Helvetica,sans-Serif" font-size="10.00">/home/travis/build</text>
<text text-anchor="start" x="709.5" y="-202" font-family="Helvetica,sans-Serif" font-size="10.00">/AliceO2Group/AliceO2</text>
<text text-anchor="middle" x="790.5" y="-191" font-family="Helvetica,sans-Serif" font-size="10.00">/Framework/Core/src/DriverControl.h</text>
</a>
</g>
</g>
<!-- Node20&#45;&gt;Node21 -->
<g id="edge26" class="edge"><title>Node20&#45;&gt;Node21</title>
<path fill="none" stroke="midnightblue" d="M774.03,-262.814C777.603,-250.383 781.657,-236.273 784.85,-225.164"/>
<polygon fill="midnightblue" stroke="midnightblue" points="770.571,-262.181 771.173,-272.758 777.299,-264.114 770.571,-262.181"/>
</g>
<!-- Node23 -->
<g id="node23" class="node"><title>Node23</title>
<g id="a_node23"><a xlink:href="../../d6/d76/DriverInfo_8cxx.html" target="_top" xlink:title="/home/travis/build\l/AliceO2Group/AliceO2\l/Framework/Core/src/DriverInfo.cxx">
<polygon fill="none" stroke="black" points="744,-95 744,-136 917,-136 917,-95 744,-95"/>
<text text-anchor="start" x="752" y="-124" font-family="Helvetica,sans-Serif" font-size="10.00">/home/travis/build</text>
<text text-anchor="start" x="752" y="-113" font-family="Helvetica,sans-Serif" font-size="10.00">/AliceO2Group/AliceO2</text>
<text text-anchor="middle" x="830.5" y="-102" font-family="Helvetica,sans-Serif" font-size="10.00">/Framework/Core/src/DriverInfo.cxx</text>
</a>
</g>
</g>
<!-- Node20&#45;&gt;Node23 -->
<g id="edge30" class="edge"><title>Node20&#45;&gt;Node23</title>
<path fill="none" stroke="midnightblue" d="M845.433,-268.46C862.495,-259.489 878.399,-247.343 888.5,-231 900.884,-210.962 897.195,-199.892 888.5,-178 881.945,-161.496 868.629,-146.854 856.408,-136.001"/>
<polygon fill="midnightblue" stroke="midnightblue" points="843.873,-265.327 836.43,-272.868 846.951,-271.614 843.873,-265.327"/>
</g>
<!-- Node21&#45;&gt;Node5 -->
<g id="edge29" class="edge"><title>Node21&#45;&gt;Node5</title>
<path fill="none" stroke="midnightblue" d="M702.552,-181.585C697.462,-180.361 692.417,-179.158 687.5,-178 652.56,-169.769 567.311,-150.765 500.913,-136.045"/>
<polygon fill="midnightblue" stroke="midnightblue" points="701.831,-185.012 712.374,-183.961 703.477,-178.208 701.831,-185.012"/>
</g>
<!-- Node22 -->
<g id="node22" class="node"><title>Node22</title>
<g id="a_node22"><a xlink:href="../../d5/d3a/DriverControl_8cxx.html" target="_top" xlink:title="/home/travis/build\l/AliceO2Group/AliceO2\l/Framework/Core/src/DriverControl.cxx">
<polygon fill="none" stroke="black" points="537.5,-95 537.5,-136 725.5,-136 725.5,-95 537.5,-95"/>
<text text-anchor="start" x="545.5" y="-124" font-family="Helvetica,sans-Serif" font-size="10.00">/home/travis/build</text>
<text text-anchor="start" x="545.5" y="-113" font-family="Helvetica,sans-Serif" font-size="10.00">/AliceO2Group/AliceO2</text>
<text text-anchor="middle" x="631.5" y="-102" font-family="Helvetica,sans-Serif" font-size="10.00">/Framework/Core/src/DriverControl.cxx</text>
</a>
</g>
</g>
<!-- Node21&#45;&gt;Node22 -->
<g id="edge27" class="edge"><title>Node21&#45;&gt;Node22</title>
<path fill="none" stroke="midnightblue" d="M745.95,-179.124C721.12,-165.537 690.611,-148.844 667.338,-136.11"/>
<polygon fill="midnightblue" stroke="midnightblue" points="744.365,-182.246 754.817,-183.976 747.725,-176.105 744.365,-182.246"/>
</g>
<!-- Node22&#45;&gt;Node4 -->
<g id="edge28" class="edge"><title>Node22&#45;&gt;Node4</title>
<path fill="none" stroke="midnightblue" d="M661.599,-88.0496C674.343,-76.8499 689.126,-63.8588 701.724,-52.7882"/>
<polygon fill="midnightblue" stroke="midnightblue" points="659.166,-85.5281 653.965,-94.7584 663.787,-90.7863 659.166,-85.5281"/>
</g>
<!-- Node23&#45;&gt;Node4 -->
<g id="edge31" class="edge"><title>Node23&#45;&gt;Node4</title>
<path fill="none" stroke="midnightblue" d="M800.097,-88.0496C787.224,-76.8499 772.292,-63.8588 759.567,-52.7882"/>
<polygon fill="midnightblue" stroke="midnightblue" points="797.967,-90.8352 807.808,-94.7584 802.561,-85.5541 797.967,-90.8352"/>
</g>
<!-- Node25&#45;&gt;Node5 -->
<g id="edge37" class="edge"><title>Node25&#45;&gt;Node5</title>
<path fill="none" stroke="midnightblue" d="M601.092,-259.129C618.221,-234.902 633.495,-202.255 615.5,-178 607.724,-167.52 546.321,-149.79 493.062,-136.052"/>
<polygon fill="midnightblue" stroke="midnightblue" points="598.161,-257.205 595.007,-267.32 603.78,-261.38 598.161,-257.205"/>
</g>
<!-- Node26 -->
<g id="node26" class="node"><title>Node26</title>
<g id="a_node26"><a xlink:href="../../d0/d54/WorkflowSerializationHelpers_8cxx.html" target="_top" xlink:title="/home/travis/build\l/AliceO2Group/AliceO2\l/Framework/Core/src/Workflow\lSerializationHelpers.cxx">
<polygon fill="none" stroke="black" points="454,-178.5 454,-230.5 607,-230.5 607,-178.5 454,-178.5"/>
<text text-anchor="start" x="462" y="-218.5" font-family="Helvetica,sans-Serif" font-size="10.00">/home/travis/build</text>
<text text-anchor="start" x="462" y="-207.5" font-family="Helvetica,sans-Serif" font-size="10.00">/AliceO2Group/AliceO2</text>
<text text-anchor="start" x="462" y="-196.5" font-family="Helvetica,sans-Serif" font-size="10.00">/Framework/Core/src/Workflow</text>
<text text-anchor="middle" x="530.5" y="-185.5" font-family="Helvetica,sans-Serif" font-size="10.00">SerializationHelpers.cxx</text>
</a>
</g>
</g>
<!-- Node25&#45;&gt;Node26 -->
<g id="edge38" class="edge"><title>Node25&#45;&gt;Node26</title>
<path fill="none" stroke="midnightblue" d="M555.874,-258.061C551.45,-248.896 546.754,-239.169 542.621,-230.607"/>
<polygon fill="midnightblue" stroke="midnightblue" points="552.852,-259.852 560.352,-267.336 559.156,-256.809 552.852,-259.852"/>
</g>
<!-- Node27 -->
<g id="node27" class="node"><title>Node27</title>
<g id="a_node27"><a xlink:href="../../da/d5e/test__WorkflowSerialization_8cxx.html" target="_top" xlink:title="/home/travis/build\l/AliceO2Group/AliceO2\l/Framework/Core/test/test\l_WorkflowSerialization.cxx">
<polygon fill="none" stroke="black" points="301,-178.5 301,-230.5 436,-230.5 436,-178.5 301,-178.5"/>
<text text-anchor="start" x="309" y="-218.5" font-family="Helvetica,sans-Serif" font-size="10.00">/home/travis/build</text>
<text text-anchor="start" x="309" y="-207.5" font-family="Helvetica,sans-Serif" font-size="10.00">/AliceO2Group/AliceO2</text>
<text text-anchor="start" x="309" y="-196.5" font-family="Helvetica,sans-Serif" font-size="10.00">/Framework/Core/test/test</text>
<text text-anchor="middle" x="368.5" y="-185.5" font-family="Helvetica,sans-Serif" font-size="10.00">_WorkflowSerialization.cxx</text>
</a>
</g>
</g>
<!-- Node25&#45;&gt;Node27 -->
<g id="edge39" class="edge"><title>Node25&#45;&gt;Node27</title>
<path fill="none" stroke="midnightblue" d="M504.349,-263.436C479.342,-252.771 451.273,-240.8 427.17,-230.521"/>
<polygon fill="midnightblue" stroke="midnightblue" points="503.197,-266.749 513.768,-267.453 505.943,-260.31 503.197,-266.749"/>
</g>
</g>
</svg>
        <g id="navigator" transform="translate(0 0)" fill="#404254">
                <rect fill="#f2f5e9" fill-opacity="0.5" stroke="#606060" stroke-width=".5" x="0" y="0" width="60" height="60"/>
                <use id="zoomplus" xlink:href="#zoomPlus" x="17" y="9" onmousedown="handleZoom(evt,'in')"/>
                <use id="zoomminus" xlink:href="#zoomMin" x="42" y="9" onmousedown="handleZoom(evt,'out')"/>
                <use id="reset" xlink:href="#resetDef" x="30" y="36" onmousedown="handleReset()"/>
                <g id="arrowUp" xlink:href="#dirArrow" transform="translate(30 24)" onmousedown="handlePan(0,-1)">
                  <use xlink:href="#rim" fill="#404040">
                        <set attributeName="fill" to="#808080" begin="arrowUp.mouseover" end="arrowUp.mouseout"/>
                  </use>
                  <path fill="none" stroke="white" stroke-width="1.5" d="M0,-3.0v7 M-2.5,-0.5L0,-3.0L2.5,-0.5"/>
                </g>
                <g id="arrowRight" xlink:href="#dirArrow" transform="rotate(90) translate(36 -43)" onmousedown="handlePan(1,0)">
                  <use xlink:href="#rim" fill="#404040">
                        <set attributeName="fill" to="#808080" begin="arrowRight.mouseover" end="arrowRight.mouseout"/>
                  </use>
                  <path fill="none" stroke="white" stroke-width="1.5" d="M0,-3.0v7 M-2.5,-0.5L0,-3.0L2.5,-0.5"/>
                </g>
                <g id="arrowDown" xlink:href="#dirArrow" transform="rotate(180) translate(-30 -48)" onmousedown="handlePan(0,1)">
                  <use xlink:href="#rim" fill="#404040">
                        <set attributeName="fill" to="#808080" begin="arrowDown.mouseover" end="arrowDown.mouseout"/>
                  </use>
                  <path fill="none" stroke="white" stroke-width="1.5" d="M0,-3.0v7 M-2.5,-0.5L0,-3.0L2.5,-0.5"/>
                </g>
                <g id="arrowLeft" xlink:href="#dirArrow" transform="rotate(270) translate(-36 17)" onmousedown="handlePan(-1,0)">
                  <use xlink:href="#rim" fill="#404040">
                        <set attributeName="fill" to="#808080" begin="arrowLeft.mouseover" end="arrowLeft.mouseout"/>
                  </use>
                  <path fill="none" stroke="white" stroke-width="1.5" d="M0,-3.0v7 M-2.5,-0.5L0,-3.0L2.5,-0.5"/>
                </g>
        </g>
        <svg viewBox="0 0 15 15" width="100%" height="30px" preserveAspectRatio="xMaxYMin meet">
         <g id="arrow_out" transform="scale(0.3 0.3)">
          <a xlink:href="DataProcessorInfo_8h__dep__incl_org.svg" target="_base">
           <rect id="button" ry="5" rx="5" y="6" x="6" height="38" width="38"
                fill="#f2f5e9" fill-opacity="0.5" stroke="#606060" stroke-width="1.0"/>
           <path id="arrow"
             d="M 11.500037,31.436501 C 11.940474,20.09759 22.043105,11.32322 32.158766,21.979434 L 37.068811,17.246167 C 37.068811,17.246167 37.088388,32 37.088388,32 L 22.160133,31.978069 C 22.160133,31.978069 26.997745,27.140456 26.997745,27.140456 C 18.528582,18.264221 13.291696,25.230495 11.500037,31.436501 z"
             style="fill:#404040;"/>
          </a>
         </g>
        </svg>
</svg>
