<?xml version="1.0" encoding="UTF-8" standalone="no"?>
<!DOCTYPE svg PUBLIC "-//W3C//DTD SVG 1.1//EN"
 "http://www.w3.org/Graphics/SVG/1.1/DTD/svg11.dtd">
<!-- Generated by graphviz version 2.38.0 (20140413.2041)
 -->
<!-- Title: o2::GlobalProcessCutSimParam Pages: 1 -->
<svg width="348pt" height="1158pt"
 viewBox="0.00 0.00 348.00 1158.00" xmlns="http://www.w3.org/2000/svg" xmlns:xlink="http://www.w3.org/1999/xlink">
<g id="graph0" class="graph" transform="scale(1 1) rotate(0) translate(4 1154)">
<title>o2::GlobalProcessCutSimParam</title>
<!-- Node1 -->
<g id="node1" class="node"><title>Node1</title>
<polygon fill="#bfbfbf" stroke="black" points="150,-0.5 150,-90.5 308,-90.5 308,-0.5 150,-0.5"/>
<text text-anchor="middle" x="229" y="-78.5" font-family="Helvetica,sans-Serif" font-size="10.00">o2::GlobalProcessCutSimParam</text>
<polyline fill="none" stroke="black" points="150,-71.5 308,-71.5 "/>
<text text-anchor="start" x="158" y="-59.5" font-family="Helvetica,sans-Serif" font-size="10.00">+ BREM</text>
<text text-anchor="start" x="158" y="-48.5" font-family="Helvetica,sans-Serif" font-size="10.00">+ HADR</text>
<text text-anchor="start" x="158" y="-37.5" font-family="Helvetica,sans-Serif" font-size="10.00">+ DCAY</text>
<text text-anchor="start" x="158" y="-26.5" font-family="Helvetica,sans-Serif" font-size="10.00">+ CUTMUO</text>
<polyline fill="none" stroke="black" points="150,-19.5 308,-19.5 "/>
<text text-anchor="start" x="158" y="-7.5" font-family="Helvetica,sans-Serif" font-size="10.00">+ O2ParamDef()</text>
</g>
<!-- Node2 -->
<g id="node2" class="node"><title>Node2</title>
<g id="a_node2"><a xlink:href="../../d7/d50/classo2_1_1conf_1_1ConfigurableParamHelper.html" target="_top" xlink:title="{o2::conf::ConfigurableParam\lHelper\&lt; GlobalProcessCutSimParam \&gt;\n||+ getName()\l+ printKeyValues()\l+ output()\l+ getDataMembers()\l+ putKeyValues()\l+ initFrom()\l+ serializeTo()\l+ Instance()\l}">
<polygon fill="none" stroke="black" points="0,-248.5 0,-393.5 188,-393.5 188,-248.5 0,-248.5"/>
<text text-anchor="start" x="8" y="-381.5" font-family="Helvetica,sans-Serif" font-size="10.00">o2::conf::ConfigurableParam</text>
<text text-anchor="middle" x="94" y="-370.5" font-family="Helvetica,sans-Serif" font-size="10.00">Helper&lt; GlobalProcessCutSimParam &gt;</text>
<polyline fill="none" stroke="black" points="0,-363.5 188,-363.5 "/>
<text text-anchor="middle" x="94" y="-351.5" font-family="Helvetica,sans-Serif" font-size="10.00"> </text>
<polyline fill="none" stroke="black" points="0,-344.5 188,-344.5 "/>
<text text-anchor="start" x="8" y="-332.5" font-family="Helvetica,sans-Serif" font-size="10.00">+ getName()</text>
<text text-anchor="start" x="8" y="-321.5" font-family="Helvetica,sans-Serif" font-size="10.00">+ printKeyValues()</text>
<text text-anchor="start" x="8" y="-310.5" font-family="Helvetica,sans-Serif" font-size="10.00">+ output()</text>
<text text-anchor="start" x="8" y="-299.5" font-family="Helvetica,sans-Serif" font-size="10.00">+ getDataMembers()</text>
<text text-anchor="start" x="8" y="-288.5" font-family="Helvetica,sans-Serif" font-size="10.00">+ putKeyValues()</text>
<text text-anchor="start" x="8" y="-277.5" font-family="Helvetica,sans-Serif" font-size="10.00">+ initFrom()</text>
<text text-anchor="start" x="8" y="-266.5" font-family="Helvetica,sans-Serif" font-size="10.00">+ serializeTo()</text>
<text text-anchor="start" x="8" y="-255.5" font-family="Helvetica,sans-Serif" font-size="10.00">+ Instance()</text>
</a>
</g>
</g>
<!-- Node2&#45;&gt;Node1 -->
<g id="edge1" class="edge"><title>Node2&#45;&gt;Node1</title>
<path fill="none" stroke="midnightblue" d="M133.856,-239.255C157.838,-190.669 187.448,-130.681 207.206,-90.6538"/>
<polygon fill="none" stroke="midnightblue" points="130.581,-237.982 129.293,-248.498 136.858,-241.08 130.581,-237.982"/>
</g>
<!-- Node3 -->
<g id="node3" class="node"><title>Node3</title>
<g id="a_node3"><a xlink:href="../../d6/d14/classo2_1_1conf_1_1ConfigurableParam.html" target="_top" xlink:title="{o2::conf::ConfigurableParam\n||+ getName()\l+ printKeyValues()\l+ toString()\l+ printAllRegisteredParamNames()\l+ printAllKeyValuePairs()\l+ readINI()\l+ readJSON()\l+ readConfigFile()\l+ writeJSON()\l+ writeINI()\l+ getValueAs()\l+ setValue()\l+ setValue()\l+ setEnumValue()\l+ setArrayValue()\l+ setValues()\l+ initialize()\l+ toCCDB()\l+ fromCCDB()\l+ updateFromString()\l+ updateFromFile()\l# ConfigurableParam()\l# ~ConfigurableParam()\l# putKeyValues()\l# output()\l# serializeTo()\l# initFrom()\l# setRegisterMode()\l# initPropertyTree()\l# updateThroughStorageMap()\l# updateThroughStorageMapWith\lConversion()\l}">
<polygon fill="none" stroke="black" points="24.5,-624.5 24.5,-1022.5 193.5,-1022.5 193.5,-624.5 24.5,-624.5"/>
<text text-anchor="middle" x="109" y="-1010.5" font-family="Helvetica,sans-Serif" font-size="10.00">o2::conf::ConfigurableParam</text>
<polyline fill="none" stroke="black" points="24.5,-1003.5 193.5,-1003.5 "/>
<text text-anchor="middle" x="109" y="-991.5" font-family="Helvetica,sans-Serif" font-size="10.00"> </text>
<polyline fill="none" stroke="black" points="24.5,-984.5 193.5,-984.5 "/>
<text text-anchor="start" x="32.5" y="-972.5" font-family="Helvetica,sans-Serif" font-size="10.00">+ getName()</text>
<text text-anchor="start" x="32.5" y="-961.5" font-family="Helvetica,sans-Serif" font-size="10.00">+ printKeyValues()</text>
<text text-anchor="start" x="32.5" y="-950.5" font-family="Helvetica,sans-Serif" font-size="10.00">+ toString()</text>
<text text-anchor="start" x="32.5" y="-939.5" font-family="Helvetica,sans-Serif" font-size="10.00">+ printAllRegisteredParamNames()</text>
<text text-anchor="start" x="32.5" y="-928.5" font-family="Helvetica,sans-Serif" font-size="10.00">+ printAllKeyValuePairs()</text>
<text text-anchor="start" x="32.5" y="-917.5" font-family="Helvetica,sans-Serif" font-size="10.00">+ readINI()</text>
<text text-anchor="start" x="32.5" y="-906.5" font-family="Helvetica,sans-Serif" font-size="10.00">+ readJSON()</text>
<text text-anchor="start" x="32.5" y="-895.5" font-family="Helvetica,sans-Serif" font-size="10.00">+ readConfigFile()</text>
<text text-anchor="start" x="32.5" y="-884.5" font-family="Helvetica,sans-Serif" font-size="10.00">+ writeJSON()</text>
<text text-anchor="start" x="32.5" y="-873.5" font-family="Helvetica,sans-Serif" font-size="10.00">+ writeINI()</text>
<text text-anchor="start" x="32.5" y="-862.5" font-family="Helvetica,sans-Serif" font-size="10.00">+ getValueAs()</text>
<text text-anchor="start" x="32.5" y="-851.5" font-family="Helvetica,sans-Serif" font-size="10.00">+ setValue()</text>
<text text-anchor="start" x="32.5" y="-840.5" font-family="Helvetica,sans-Serif" font-size="10.00">+ setValue()</text>
<text text-anchor="start" x="32.5" y="-829.5" font-family="Helvetica,sans-Serif" font-size="10.00">+ setEnumValue()</text>
<text text-anchor="start" x="32.5" y="-818.5" font-family="Helvetica,sans-Serif" font-size="10.00">+ setArrayValue()</text>
<text text-anchor="start" x="32.5" y="-807.5" font-family="Helvetica,sans-Serif" font-size="10.00">+ setValues()</text>
<text text-anchor="start" x="32.5" y="-796.5" font-family="Helvetica,sans-Serif" font-size="10.00">+ initialize()</text>
<text text-anchor="start" x="32.5" y="-785.5" font-family="Helvetica,sans-Serif" font-size="10.00">+ toCCDB()</text>
<text text-anchor="start" x="32.5" y="-774.5" font-family="Helvetica,sans-Serif" font-size="10.00">+ fromCCDB()</text>
<text text-anchor="start" x="32.5" y="-763.5" font-family="Helvetica,sans-Serif" font-size="10.00">+ updateFromString()</text>
<text text-anchor="start" x="32.5" y="-752.5" font-family="Helvetica,sans-Serif" font-size="10.00">+ updateFromFile()</text>
<text text-anchor="start" x="32.5" y="-741.5" font-family="Helvetica,sans-Serif" font-size="10.00"># ConfigurableParam()</text>
<text text-anchor="start" x="32.5" y="-730.5" font-family="Helvetica,sans-Serif" font-size="10.00"># ~ConfigurableParam()</text>
<text text-anchor="start" x="32.5" y="-719.5" font-family="Helvetica,sans-Serif" font-size="10.00"># putKeyValues()</text>
<text text-anchor="start" x="32.5" y="-708.5" font-family="Helvetica,sans-Serif" font-size="10.00"># output()</text>
<text text-anchor="start" x="32.5" y="-697.5" font-family="Helvetica,sans-Serif" font-size="10.00"># serializeTo()</text>
<text text-anchor="start" x="32.5" y="-686.5" font-family="Helvetica,sans-Serif" font-size="10.00"># initFrom()</text>
<text text-anchor="start" x="32.5" y="-675.5" font-family="Helvetica,sans-Serif" font-size="10.00"># setRegisterMode()</text>
<text text-anchor="start" x="32.5" y="-664.5" font-family="Helvetica,sans-Serif" font-size="10.00"># initPropertyTree()</text>
<text text-anchor="start" x="32.5" y="-653.5" font-family="Helvetica,sans-Serif" font-size="10.00"># updateThroughStorageMap()</text>
<text text-anchor="start" x="32.5" y="-642.5" font-family="Helvetica,sans-Serif" font-size="10.00"># updateThroughStorageMapWith</text>
<text text-anchor="start" x="32.5" y="-631.5" font-family="Helvetica,sans-Serif" font-size="10.00">Conversion()</text>
</a>
</g>
</g>
<!-- Node3&#45;&gt;Node2 -->
<g id="edge2" class="edge"><title>Node3&#45;&gt;Node2</title>
<path fill="none" stroke="midnightblue" d="M97.9457,-614.29C97.5964,-605.069 97.2783,-595.94 97,-587 94.9638,-521.583 94.2642,-447.043 94.0445,-393.718"/>
<polygon fill="none" stroke="midnightblue" points="94.45,-614.471 98.3364,-624.327 101.445,-614.199 94.45,-614.471"/>
</g>
<!-- Node5 -->
<g id="node5" class="node"><title>Node5</title>
<g id="a_node5"><a xlink:href="../../d7/d50/classo2_1_1conf_1_1ConfigurableParamHelper.html" target="_top" xlink:title="{o2::conf::ConfigurableParam\lHelper\&lt; P \&gt;\n||+ getName()\l+ printKeyValues()\l+ output()\l+ getDataMembers()\l+ putKeyValues()\l+ initFrom()\l+ serializeTo()\l+ Instance()\l}">
<polygon fill="none" stroke="black" points="106.5,-441.5 106.5,-586.5 247.5,-586.5 247.5,-441.5 106.5,-441.5"/>
<text text-anchor="start" x="114.5" y="-574.5" font-family="Helvetica,sans-Serif" font-size="10.00">o2::conf::ConfigurableParam</text>
<text text-anchor="middle" x="177" y="-563.5" font-family="Helvetica,sans-Serif" font-size="10.00">Helper&lt; P &gt;</text>
<polyline fill="none" stroke="black" points="106.5,-556.5 247.5,-556.5 "/>
<text text-anchor="middle" x="177" y="-544.5" font-family="Helvetica,sans-Serif" font-size="10.00"> </text>
<polyline fill="none" stroke="black" points="106.5,-537.5 247.5,-537.5 "/>
<text text-anchor="start" x="114.5" y="-525.5" font-family="Helvetica,sans-Serif" font-size="10.00">+ getName()</text>
<text text-anchor="start" x="114.5" y="-514.5" font-family="Helvetica,sans-Serif" font-size="10.00">+ printKeyValues()</text>
<text text-anchor="start" x="114.5" y="-503.5" font-family="Helvetica,sans-Serif" font-size="10.00">+ output()</text>
<text text-anchor="start" x="114.5" y="-492.5" font-family="Helvetica,sans-Serif" font-size="10.00">+ getDataMembers()</text>
<text text-anchor="start" x="114.5" y="-481.5" font-family="Helvetica,sans-Serif" font-size="10.00">+ putKeyValues()</text>
<text text-anchor="start" x="114.5" y="-470.5" font-family="Helvetica,sans-Serif" font-size="10.00">+ initFrom()</text>
<text text-anchor="start" x="114.5" y="-459.5" font-family="Helvetica,sans-Serif" font-size="10.00">+ serializeTo()</text>
<text text-anchor="start" x="114.5" y="-448.5" font-family="Helvetica,sans-Serif" font-size="10.00">+ Instance()</text>
</a>
</g>
</g>
<!-- Node3&#45;&gt;Node5 -->
<g id="edge5" class="edge"><title>Node3&#45;&gt;Node5</title>
<path fill="none" stroke="midnightblue" d="M155.058,-614.224C157.168,-604.68 159.208,-595.458 161.137,-586.734"/>
<polygon fill="none" stroke="midnightblue" points="151.576,-613.759 152.834,-624.279 158.411,-615.27 151.576,-613.759"/>
</g>
<!-- Node4 -->
<g id="node4" class="node"><title>Node4</title>
<polygon fill="none" stroke="#bfbfbf" points="88.5,-1092.5 88.5,-1149.5 129.5,-1149.5 129.5,-1092.5 88.5,-1092.5"/>
<text text-anchor="middle" x="109" y="-1137.5" font-family="Helvetica,sans-Serif" font-size="10.00">static</text>
<polyline fill="none" stroke="#bfbfbf" points="88.5,-1130.5 129.5,-1130.5 "/>
<text text-anchor="middle" x="109" y="-1118.5" font-family="Helvetica,sans-Serif" font-size="10.00"> </text>
<polyline fill="none" stroke="#bfbfbf" points="88.5,-1111.5 129.5,-1111.5 "/>
<text text-anchor="middle" x="109" y="-1099.5" font-family="Helvetica,sans-Serif" font-size="10.00"> </text>
</g>
<!-- Node4&#45;&gt;Node3 -->
<g id="edge3" class="edge"><title>Node4&#45;&gt;Node3</title>
<path fill="none" stroke="#404040" d="M109,-1092.47C109,-1077.4 109,-1057.21 109,-1034.65"/>
<polygon fill="none" stroke="#404040" points="109,-1034.65 105,-1028.65 109,-1022.65 113,-1028.65 109,-1034.65"/>
<text text-anchor="middle" x="162" y="-1066" font-family="Helvetica,sans-Serif" font-size="10.00"> #sEnumRegistry</text>
<text text-anchor="middle" x="162" y="-1055" font-family="Helvetica,sans-Serif" font-size="10.00">#sValueProvenanceMap</text>
<text text-anchor="middle" x="162" y="-1044" font-family="Helvetica,sans-Serif" font-size="10.00">#sKeyToStorageMap</text>
</g>
<!-- Node5&#45;&gt;Node2 -->
<g id="edge4" class="edge"><title>Node5&#45;&gt;Node2</title>
<path fill="none" stroke="orange" d="M141.857,-432.128C136.316,-419.378 130.621,-406.273 125.179,-393.749"/>
<polygon fill="orange" stroke="orange" points="138.662,-433.559 145.858,-441.335 145.082,-430.769 138.662,-433.559"/>
<text text-anchor="middle" x="209.5" y="-415" font-family="Helvetica,sans-Serif" font-size="10.00"> &lt; GlobalProcessCutSimParam &gt;</text>
</g>
<!-- Node6 -->
<g id="node6" class="node"><title>Node6</title>
<polygon fill="none" stroke="#bfbfbf" points="206.5,-292.5 206.5,-349.5 251.5,-349.5 251.5,-292.5 206.5,-292.5"/>
<text text-anchor="middle" x="229" y="-337.5" font-family="Helvetica,sans-Serif" font-size="10.00">double</text>
<polyline fill="none" stroke="#bfbfbf" points="206.5,-330.5 251.5,-330.5 "/>
<text text-anchor="middle" x="229" y="-318.5" font-family="Helvetica,sans-Serif" font-size="10.00"> </text>
<polyline fill="none" stroke="#bfbfbf" points="206.5,-311.5 251.5,-311.5 "/>
<text text-anchor="middle" x="229" y="-299.5" font-family="Helvetica,sans-Serif" font-size="10.00"> </text>
</g>
<!-- Node6&#45;&gt;Node1 -->
<g id="edge6" class="edge"><title>Node6&#45;&gt;Node1</title>
<path fill="none" stroke="#404040" d="M229,-292.27C229,-248.115 229,-160.926 229,-103.167"/>
<polygon fill="none" stroke="#404040" points="229,-102.957 225,-96.9571 229,-90.9571 233,-96.9571 229,-102.957"/>
<text text-anchor="middle" x="254" y="-222" font-family="Helvetica,sans-Serif" font-size="10.00"> +BCUTM</text>
<text text-anchor="middle" x="254" y="-211" font-family="Helvetica,sans-Serif" font-size="10.00">+CUTHAD</text>
<text text-anchor="middle" x="254" y="-200" font-family="Helvetica,sans-Serif" font-size="10.00">+DCUTM</text>
<text text-anchor="middle" x="254" y="-189" font-family="Helvetica,sans-Serif" font-size="10.00">+PPCUTM</text>
<text text-anchor="middle" x="254" y="-178" font-family="Helvetica,sans-Serif" font-size="10.00">+TOFMAX</text>
<text text-anchor="middle" x="254" y="-167" font-family="Helvetica,sans-Serif" font-size="10.00">+CUTELE</text>
<text text-anchor="middle" x="254" y="-156" font-family="Helvetica,sans-Serif" font-size="10.00">+CUTNEU</text>
<text text-anchor="middle" x="254" y="-145" font-family="Helvetica,sans-Serif" font-size="10.00">+BCUTE</text>
<text text-anchor="middle" x="254" y="-134" font-family="Helvetica,sans-Serif" font-size="10.00">+CUTGAM</text>
<text text-anchor="middle" x="254" y="-123" font-family="Helvetica,sans-Serif" font-size="10.00">+DCUTE</text>
<text text-anchor="middle" x="254" y="-112" font-family="Helvetica,sans-Serif" font-size="10.00">...</text>
</g>
<!-- Node7 -->
<g id="node7" class="node"><title>Node7</title>
<polygon fill="none" stroke="#bfbfbf" points="287.5,-292.5 287.5,-349.5 316.5,-349.5 316.5,-292.5 287.5,-292.5"/>
<text text-anchor="middle" x="302" y="-337.5" font-family="Helvetica,sans-Serif" font-size="10.00">int</text>
<polyline fill="none" stroke="#bfbfbf" points="287.5,-330.5 316.5,-330.5 "/>
<text text-anchor="middle" x="302" y="-318.5" font-family="Helvetica,sans-Serif" font-size="10.00"> </text>
<polyline fill="none" stroke="#bfbfbf" points="287.5,-311.5 316.5,-311.5 "/>
<text text-anchor="middle" x="302" y="-299.5" font-family="Helvetica,sans-Serif" font-size="10.00"> </text>
</g>
<!-- Node7&#45;&gt;Node1 -->
<g id="edge7" class="edge"><title>Node7&#45;&gt;Node1</title>
<path fill="none" stroke="#404040" d="M304.017,-292.473C306,-250.985 305.671,-170.722 280,-109 278.888,-106.327 277.623,-103.678 276.238,-101.067"/>
<polygon fill="none" stroke="#404040" points="276.118,-100.867 269.6,-97.7821 269.941,-90.5791 276.459,-93.6641 276.118,-100.867"/>
<text text-anchor="middle" x="321.5" y="-222" font-family="Helvetica,sans-Serif" font-size="10.00"> +ANNI</text>
<text text-anchor="middle" x="321.5" y="-211" font-family="Helvetica,sans-Serif" font-size="10.00">+PAIR</text>
<text text-anchor="middle" x="321.5" y="-200" font-family="Helvetica,sans-Serif" font-size="10.00">+PHOT</text>
<text text-anchor="middle" x="321.5" y="-189" font-family="Helvetica,sans-Serif" font-size="10.00">+CKOV</text>
<text text-anchor="middle" x="321.5" y="-178" font-family="Helvetica,sans-Serif" font-size="10.00">+MULS</text>
<text text-anchor="middle" x="321.5" y="-167" font-family="Helvetica,sans-Serif" font-size="10.00">+MUNU</text>
<text text-anchor="middle" x="321.5" y="-156" font-family="Helvetica,sans-Serif" font-size="10.00">+COMP</text>
<text text-anchor="middle" x="321.5" y="-145" font-family="Helvetica,sans-Serif" font-size="10.00">+PFIS</text>
<text text-anchor="middle" x="321.5" y="-134" font-family="Helvetica,sans-Serif" font-size="10.00">+LOSS</text>
<text text-anchor="middle" x="321.5" y="-123" font-family="Helvetica,sans-Serif" font-size="10.00">+DRAY</text>
<text text-anchor="middle" x="321.5" y="-112" font-family="Helvetica,sans-Serif" font-size="10.00">...</text>
</g>
</g>
</svg>
