<?xml version="1.0" encoding="UTF-8" standalone="no"?>
<!DOCTYPE svg PUBLIC "-//W3C//DTD SVG 1.1//EN"
 "http://www.w3.org/Graphics/SVG/1.1/DTD/svg11.dtd">
<!-- Generated by graphviz version 2.38.0 (20140413.2041)
 -->
<!-- Title: o2::itsmft::GroupStruct Pages: 1 -->
<!--zoomable 419 -->
<svg id="main" version="1.1" xmlns="http://www.w3.org/2000/svg" xmlns:xlink="http://www.w3.org/1999/xlink" xml:space="preserve" onload="init(evt)">
<style type="text/css"><![CDATA[
.edge:hover path { stroke: red; }
.edge:hover polygon { stroke: red; fill: red; }
]]></style>
<script type="text/javascript"><![CDATA[
var edges = document.getElementsByTagName('g');
if (edges && edges.length) {
  for (var i=0;i<edges.length;i++) {
    if (edges[i].id.substr(0,4)=='edge') {
      edges[i].setAttribute('class','edge');
    }
  }
}
]]></script>
        <defs>
                <circle id="rim" cx="0" cy="0" r="7"/>
                <circle id="rim2" cx="0" cy="0" r="3.5"/>
                <g id="zoomPlus">
                        <use xlink:href="#rim" fill="#404040">
                                <set attributeName="fill" to="#808080" begin="zoomplus.mouseover" end="zoomplus.mouseout"/>
                        </use>
                        <path d="M-4,0h8M0,-4v8" fill="none" stroke="white" stroke-width="1.5" pointer-events="none"/>
                </g>
                <g id="zoomMin">
                        <use xlink:href="#rim" fill="#404040">
                                <set attributeName="fill" to="#808080" begin="zoomminus.mouseover" end="zoomminus.mouseout"/>
                        </use>
                        <path d="M-4,0h8" fill="none" stroke="white" stroke-width="1.5" pointer-events="none"/>
                </g>
                <g id="dirArrow">
                        <path fill="none" stroke="white" stroke-width="1.5" d="M0,-3.0v7 M-2.5,-0.5L0,-3.0L2.5,-0.5"/>
                </g>
               <g id="resetDef">
                       <use xlink:href="#rim2" fill="#404040">
                               <set attributeName="fill" to="#808080" begin="reset.mouseover" end="reset.mouseout"/>
                       </use>
               </g>
        </defs>

<script type="text/javascript">
var viewWidth = 521;
var viewHeight = 419;
var sectionId = 'dynsection-0';
</script>
<script xlink:href="../../svgpan.js"/>
<svg id="graph" class="graph">
<g id="viewport">
<title>o2::itsmft::GroupStruct</title>
<!-- Node1 -->
<g id="node1" class="node"><title>Node1</title>
<polygon fill="#bfbfbf" stroke="black" points="155.5,-0.5 155.5,-57.5 271.5,-57.5 271.5,-0.5 155.5,-0.5"/>
<text text-anchor="middle" x="213.5" y="-45.5" font-family="Helvetica,sans-Serif" font-size="10.00">o2::itsmft::GroupStruct</text>
<polyline fill="none" stroke="black" points="155.5,-38.5 271.5,-38.5 "/>
<text text-anchor="middle" x="213.5" y="-26.5" font-family="Helvetica,sans-Serif" font-size="10.00"> </text>
<polyline fill="none" stroke="black" points="155.5,-19.5 271.5,-19.5 "/>
<text text-anchor="start" x="163.5" y="-7.5" font-family="Helvetica,sans-Serif" font-size="10.00">+ ClassDefNV()</text>
</g>
<!-- Node2 -->
<g id="node2" class="node"><title>Node2</title>
<polygon fill="none" stroke="#bfbfbf" points="0,-182.5 0,-239.5 45,-239.5 45,-182.5 0,-182.5"/>
<text text-anchor="middle" x="22.5" y="-227.5" font-family="Helvetica,sans-Serif" font-size="10.00">double</text>
<polyline fill="none" stroke="#bfbfbf" points="0,-220.5 45,-220.5 "/>
<text text-anchor="middle" x="22.5" y="-208.5" font-family="Helvetica,sans-Serif" font-size="10.00"> </text>
<polyline fill="none" stroke="#bfbfbf" points="0,-201.5 45,-201.5 "/>
<text text-anchor="middle" x="22.5" y="-189.5" font-family="Helvetica,sans-Serif" font-size="10.00"> </text>
</g>
<!-- Node2&#45;&gt;Node1 -->
<g id="edge1" class="edge"><title>Node2&#45;&gt;Node1</title>
<path fill="none" stroke="#404040" d="M16.5116,-182.375C11.7745,-152.546 9.5464,-105.37 34.5,-76 48.8205,-59.1452 99.6275,-47.1035 143.471,-39.579"/>
<polygon fill="none" stroke="#404040" points="143.481,-39.5774 148.75,-34.6537 155.321,-37.6231 150.052,-42.5469 143.481,-39.5774"/>
<text text-anchor="middle" x="66.5" y="-95.5" font-family="Helvetica,sans-Serif" font-size="10.00"> +mFrequency</text>
</g>
<!-- Node3 -->
<g id="node3" class="node"><title>Node3</title>
<g id="a_node3"><a xlink:href="../../d4/dc3/classfloat.html" target="_top" xlink:title="{float\n||}">
<polygon fill="none" stroke="black" points="92,-182.5 92,-239.5 127,-239.5 127,-182.5 92,-182.5"/>
<text text-anchor="middle" x="109.5" y="-227.5" font-family="Helvetica,sans-Serif" font-size="10.00">float</text>
<polyline fill="none" stroke="black" points="92,-220.5 127,-220.5 "/>
<text text-anchor="middle" x="109.5" y="-208.5" font-family="Helvetica,sans-Serif" font-size="10.00"> </text>
<polyline fill="none" stroke="black" points="92,-201.5 127,-201.5 "/>
<text text-anchor="middle" x="109.5" y="-189.5" font-family="Helvetica,sans-Serif" font-size="10.00"> </text>
</a>
</g>
</g>
<!-- Node3&#45;&gt;Node1 -->
<g id="edge2" class="edge"><title>Node3&#45;&gt;Node1</title>
<path fill="none" stroke="#404040" d="M103.51,-182.278C98.8598,-153.232 96.3086,-107.528 117.5,-76 124.304,-65.8767 133.981,-57.9157 144.597,-51.675"/>
<polygon fill="none" stroke="#404040" points="144.823,-51.5568 148.283,-45.2303 155.454,-45.9913 151.994,-52.3179 144.823,-51.5568"/>
<text text-anchor="middle" x="139.5" y="-112" font-family="Helvetica,sans-Serif" font-size="10.00"> +mErrX</text>
<text text-anchor="middle" x="139.5" y="-101" font-family="Helvetica,sans-Serif" font-size="10.00">+mZCOG</text>
<text text-anchor="middle" x="139.5" y="-90" font-family="Helvetica,sans-Serif" font-size="10.00">+mErrZ</text>
<text text-anchor="middle" x="139.5" y="-79" font-family="Helvetica,sans-Serif" font-size="10.00">+mXCOG</text>
</g>
<!-- Node4 -->
<g id="node4" class="node"><title>Node4</title>
<polygon fill="none" stroke="#bfbfbf" points="162,-182.5 162,-239.5 191,-239.5 191,-182.5 162,-182.5"/>
<text text-anchor="middle" x="176.5" y="-227.5" font-family="Helvetica,sans-Serif" font-size="10.00">int</text>
<polyline fill="none" stroke="#bfbfbf" points="162,-220.5 191,-220.5 "/>
<text text-anchor="middle" x="176.5" y="-208.5" font-family="Helvetica,sans-Serif" font-size="10.00"> </text>
<polyline fill="none" stroke="#bfbfbf" points="162,-201.5 191,-201.5 "/>
<text text-anchor="middle" x="176.5" y="-189.5" font-family="Helvetica,sans-Serif" font-size="10.00"> </text>
</g>
<!-- Node4&#45;&gt;Node1 -->
<g id="edge3" class="edge"><title>Node4&#45;&gt;Node1</title>
<path fill="none" stroke="#404040" d="M170.049,-182.313C164.891,-154.498 160.458,-110.873 173.5,-76 174.57,-73.1377 175.908,-70.3359 177.44,-67.6173"/>
<polygon fill="none" stroke="#404040" points="177.474,-67.5654 177.487,-60.3543 184.148,-57.5926 184.136,-64.8037 177.474,-67.5654"/>
<text text-anchor="middle" x="199" y="-95.5" font-family="Helvetica,sans-Serif" font-size="10.00"> +mNpixels</text>
</g>
<!-- Node5 -->
<g id="node5" class="node"><title>Node5</title>
<polygon fill="none" stroke="#bfbfbf" points="227,-182.5 227,-239.5 262,-239.5 262,-182.5 227,-182.5"/>
<text text-anchor="middle" x="244.5" y="-227.5" font-family="Helvetica,sans-Serif" font-size="10.00">bool</text>
<polyline fill="none" stroke="#bfbfbf" points="227,-220.5 262,-220.5 "/>
<text text-anchor="middle" x="244.5" y="-208.5" font-family="Helvetica,sans-Serif" font-size="10.00"> </text>
<polyline fill="none" stroke="#bfbfbf" points="227,-201.5 262,-201.5 "/>
<text text-anchor="middle" x="244.5" y="-189.5" font-family="Helvetica,sans-Serif" font-size="10.00"> </text>
</g>
<!-- Node5&#45;&gt;Node1 -->
<g id="edge4" class="edge"><title>Node5&#45;&gt;Node1</title>
<path fill="none" stroke="#404040" d="M242.785,-182.275C240.724,-154.99 236.496,-112.264 228.5,-76 228.032,-73.8775 227.505,-71.7141 226.937,-69.5398"/>
<polygon fill="none" stroke="#404040" points="226.926,-69.5042 221.416,-64.8531 223.59,-57.9774 229.1,-62.6285 226.926,-69.5042"/>
<text text-anchor="middle" x="262.5" y="-95.5" font-family="Helvetica,sans-Serif" font-size="10.00"> +mIsGroup</text>
</g>
<!-- Node6 -->
<g id="node6" class="node"><title>Node6</title>
<g id="a_node6"><a xlink:href="../../d3/d02/classo2_1_1itsmft_1_1ClusterPattern.html" target="_top" xlink:title="{o2::itsmft::ClusterPattern\n||+ ClusterPattern()\l+ ClusterPattern()\l+ getPattern()\l+ getByte()\l+ getRowSpan()\l+ getColumnSpan()\l+ getUsedBytes()\l+ setPattern()\l+ setPattern()\l}">
<polygon fill="none" stroke="black" points="280,-138.5 280,-283.5 407,-283.5 407,-138.5 280,-138.5"/>
<text text-anchor="middle" x="343.5" y="-271.5" font-family="Helvetica,sans-Serif" font-size="10.00">o2::itsmft::ClusterPattern</text>
<polyline fill="none" stroke="black" points="280,-264.5 407,-264.5 "/>
<text text-anchor="middle" x="343.5" y="-252.5" font-family="Helvetica,sans-Serif" font-size="10.00"> </text>
<polyline fill="none" stroke="black" points="280,-245.5 407,-245.5 "/>
<text text-anchor="start" x="288" y="-233.5" font-family="Helvetica,sans-Serif" font-size="10.00">+ ClusterPattern()</text>
<text text-anchor="start" x="288" y="-222.5" font-family="Helvetica,sans-Serif" font-size="10.00">+ ClusterPattern()</text>
<text text-anchor="start" x="288" y="-211.5" font-family="Helvetica,sans-Serif" font-size="10.00">+ getPattern()</text>
<text text-anchor="start" x="288" y="-200.5" font-family="Helvetica,sans-Serif" font-size="10.00">+ getByte()</text>
<text text-anchor="start" x="288" y="-189.5" font-family="Helvetica,sans-Serif" font-size="10.00">+ getRowSpan()</text>
<text text-anchor="start" x="288" y="-178.5" font-family="Helvetica,sans-Serif" font-size="10.00">+ getColumnSpan()</text>
<text text-anchor="start" x="288" y="-167.5" font-family="Helvetica,sans-Serif" font-size="10.00">+ getUsedBytes()</text>
<text text-anchor="start" x="288" y="-156.5" font-family="Helvetica,sans-Serif" font-size="10.00">+ setPattern()</text>
<text text-anchor="start" x="288" y="-145.5" font-family="Helvetica,sans-Serif" font-size="10.00">+ setPattern()</text>
</a>
</g>
</g>
<!-- Node6&#45;&gt;Node1 -->
<g id="edge5" class="edge"><title>Node6&#45;&gt;Node1</title>
<path fill="none" stroke="#404040" d="M326.265,-138.367C318.535,-116.648 307.638,-93.8418 292.5,-76 289.208,-72.1198 285.501,-68.49 281.535,-65.1087"/>
<polygon fill="none" stroke="#404040" points="281.389,-64.9957 274.195,-64.5004 271.885,-57.6692 279.079,-58.1645 281.389,-64.9957"/>
<text text-anchor="middle" x="344" y="-95.5" font-family="Helvetica,sans-Serif" font-size="10.00"> +mPattern</text>
</g>
<!-- Node7 -->
<g id="node7" class="node"><title>Node7</title>
<polygon fill="none" stroke="#bfbfbf" points="255,-353.5 255,-410.5 296,-410.5 296,-353.5 255,-353.5"/>
<text text-anchor="middle" x="275.5" y="-398.5" font-family="Helvetica,sans-Serif" font-size="10.00">static</text>
<polyline fill="none" stroke="#bfbfbf" points="255,-391.5 296,-391.5 "/>
<text text-anchor="middle" x="275.5" y="-379.5" font-family="Helvetica,sans-Serif" font-size="10.00"> </text>
<polyline fill="none" stroke="#bfbfbf" points="255,-372.5 296,-372.5 "/>
<text text-anchor="middle" x="275.5" y="-360.5" font-family="Helvetica,sans-Serif" font-size="10.00"> </text>
</g>
<!-- Node7&#45;&gt;Node6 -->
<g id="edge6" class="edge"><title>Node7&#45;&gt;Node6</title>
<path fill="none" stroke="#404040" d="M271.726,-353.239C270.631,-337.764 270.96,-318.371 276.5,-302 277.362,-299.451 278.327,-296.916 279.38,-294.399"/>
<polygon fill="none" stroke="#404040" points="279.399,-294.358 278.343,-287.225 284.521,-283.506 285.577,-290.639 279.399,-294.358"/>
<text text-anchor="middle" x="333" y="-316" font-family="Helvetica,sans-Serif" font-size="10.00"> +kExtendedPatternBytes</text>
</g>
<!-- Node8 -->
<g id="node8" class="node"><title>Node8</title>
<polygon fill="none" stroke="#bfbfbf" points="391,-353.5 391,-410.5 432,-410.5 432,-353.5 391,-353.5"/>
<text text-anchor="middle" x="411.5" y="-398.5" font-family="Helvetica,sans-Serif" font-size="10.00">friend</text>
<polyline fill="none" stroke="#bfbfbf" points="391,-391.5 432,-391.5 "/>
<text text-anchor="middle" x="411.5" y="-379.5" font-family="Helvetica,sans-Serif" font-size="10.00"> </text>
<polyline fill="none" stroke="#bfbfbf" points="391,-372.5 432,-372.5 "/>
<text text-anchor="middle" x="411.5" y="-360.5" font-family="Helvetica,sans-Serif" font-size="10.00"> </text>
</g>
<!-- Node8&#45;&gt;Node6 -->
<g id="edge7" class="edge"><title>Node8&#45;&gt;Node6</title>
<path fill="none" stroke="#404040" d="M405.196,-353.135C401.366,-337.803 395.969,-318.579 389.5,-302 388.578,-299.637 387.614,-297.255 386.614,-294.862"/>
<polygon fill="none" stroke="#404040" points="386.511,-294.624 380.445,-290.723 381.713,-283.624 387.778,-287.525 386.511,-294.624"/>
<text text-anchor="middle" x="456.5" y="-327" font-family="Helvetica,sans-Serif" font-size="10.00"> +TopologyDictionary</text>
<text text-anchor="middle" x="456.5" y="-316" font-family="Helvetica,sans-Serif" font-size="10.00">+ClusterTopology</text>
<text text-anchor="middle" x="456.5" y="-305" font-family="Helvetica,sans-Serif" font-size="10.00">+BuildTopologyDictionary</text>
</g>
<!-- Node9 -->
<g id="node9" class="node"><title>Node9</title>
<polygon fill="none" stroke="#bfbfbf" points="425.5,-182.5 425.5,-239.5 481.5,-239.5 481.5,-182.5 425.5,-182.5"/>
<text text-anchor="middle" x="453.5" y="-227.5" font-family="Helvetica,sans-Serif" font-size="10.00">unsigned</text>
<polyline fill="none" stroke="#bfbfbf" points="425.5,-220.5 481.5,-220.5 "/>
<text text-anchor="middle" x="453.5" y="-208.5" font-family="Helvetica,sans-Serif" font-size="10.00"> </text>
<polyline fill="none" stroke="#bfbfbf" points="425.5,-201.5 481.5,-201.5 "/>
<text text-anchor="middle" x="453.5" y="-189.5" font-family="Helvetica,sans-Serif" font-size="10.00"> </text>
</g>
<!-- Node9&#45;&gt;Node1 -->
<g id="edge8" class="edge"><title>Node9&#45;&gt;Node1</title>
<path fill="none" stroke="#404040" d="M444.305,-182.278C432.604,-151.442 409.368,-102.489 372.5,-76 346.553,-57.358 313.154,-46.232 283.669,-39.6099"/>
<polygon fill="none" stroke="#404040" points="283.482,-39.571 276.791,-42.262 271.734,-37.1214 278.424,-34.4304 283.482,-39.571"/>
<text text-anchor="middle" x="434" y="-95.5" font-family="Helvetica,sans-Serif" font-size="10.00"> +mHash</text>
</g>
</g>
</svg>
        <g id="navigator" transform="translate(0 0)" fill="#404254">
                <rect fill="#f2f5e9" fill-opacity="0.5" stroke="#606060" stroke-width=".5" x="0" y="0" width="60" height="60"/>
                <use id="zoomplus" xlink:href="#zoomPlus" x="17" y="9" onmousedown="handleZoom(evt,'in')"/>
                <use id="zoomminus" xlink:href="#zoomMin" x="42" y="9" onmousedown="handleZoom(evt,'out')"/>
                <use id="reset" xlink:href="#resetDef" x="30" y="36" onmousedown="handleReset()"/>
                <g id="arrowUp" xlink:href="#dirArrow" transform="translate(30 24)" onmousedown="handlePan(0,-1)">
                  <use xlink:href="#rim" fill="#404040">
                        <set attributeName="fill" to="#808080" begin="arrowUp.mouseover" end="arrowUp.mouseout"/>
                  </use>
                  <path fill="none" stroke="white" stroke-width="1.5" d="M0,-3.0v7 M-2.5,-0.5L0,-3.0L2.5,-0.5"/>
                </g>
                <g id="arrowRight" xlink:href="#dirArrow" transform="rotate(90) translate(36 -43)" onmousedown="handlePan(1,0)">
                  <use xlink:href="#rim" fill="#404040">
                        <set attributeName="fill" to="#808080" begin="arrowRight.mouseover" end="arrowRight.mouseout"/>
                  </use>
                  <path fill="none" stroke="white" stroke-width="1.5" d="M0,-3.0v7 M-2.5,-0.5L0,-3.0L2.5,-0.5"/>
                </g>
                <g id="arrowDown" xlink:href="#dirArrow" transform="rotate(180) translate(-30 -48)" onmousedown="handlePan(0,1)">
                  <use xlink:href="#rim" fill="#404040">
                        <set attributeName="fill" to="#808080" begin="arrowDown.mouseover" end="arrowDown.mouseout"/>
                  </use>
                  <path fill="none" stroke="white" stroke-width="1.5" d="M0,-3.0v7 M-2.5,-0.5L0,-3.0L2.5,-0.5"/>
                </g>
                <g id="arrowLeft" xlink:href="#dirArrow" transform="rotate(270) translate(-36 17)" onmousedown="handlePan(-1,0)">
                  <use xlink:href="#rim" fill="#404040">
                        <set attributeName="fill" to="#808080" begin="arrowLeft.mouseover" end="arrowLeft.mouseout"/>
                  </use>
                  <path fill="none" stroke="white" stroke-width="1.5" d="M0,-3.0v7 M-2.5,-0.5L0,-3.0L2.5,-0.5"/>
                </g>
        </g>
        <svg viewBox="0 0 15 15" width="100%" height="30px" preserveAspectRatio="xMaxYMin meet">
         <g id="arrow_out" transform="scale(0.3 0.3)">
          <a xlink:href="structo2_1_1itsmft_1_1GroupStruct__coll__graph_org.svg" target="_base">
           <rect id="button" ry="5" rx="5" y="6" x="6" height="38" width="38"
                fill="#f2f5e9" fill-opacity="0.5" stroke="#606060" stroke-width="1.0"/>
           <path id="arrow"
             d="M 11.500037,31.436501 C 11.940474,20.09759 22.043105,11.32322 32.158766,21.979434 L 37.068811,17.246167 C 37.068811,17.246167 37.088388,32 37.088388,32 L 22.160133,31.978069 C 22.160133,31.978069 26.997745,27.140456 26.997745,27.140456 C 18.528582,18.264221 13.291696,25.230495 11.500037,31.436501 z"
             style="fill:#404040;"/>
          </a>
         </g>
        </svg>
</svg>
