<?xml version="1.0" encoding="UTF-8" standalone="no"?>
<!DOCTYPE svg PUBLIC "-//W3C//DTD SVG 1.1//EN"
 "http://www.w3.org/Graphics/SVG/1.1/DTD/svg11.dtd">
<!-- Generated by graphviz version 2.38.0 (20140413.2041)
 -->
<!-- Title: o2::fv0::Detector Pages: 1 -->
<!--zoomable 1313 -->
<svg id="main" version="1.1" xmlns="http://www.w3.org/2000/svg" xmlns:xlink="http://www.w3.org/1999/xlink" xml:space="preserve" onload="init(evt)">
<style type="text/css"><![CDATA[
.edge:hover path { stroke: red; }
.edge:hover polygon { stroke: red; fill: red; }
]]></style>
<script type="text/javascript"><![CDATA[
var edges = document.getElementsByTagName('g');
if (edges && edges.length) {
  for (var i=0;i<edges.length;i++) {
    if (edges[i].id.substr(0,4)=='edge') {
      edges[i].setAttribute('class','edge');
    }
  }
}
]]></script>
        <defs>
                <circle id="rim" cx="0" cy="0" r="7"/>
                <circle id="rim2" cx="0" cy="0" r="3.5"/>
                <g id="zoomPlus">
                        <use xlink:href="#rim" fill="#404040">
                                <set attributeName="fill" to="#808080" begin="zoomplus.mouseover" end="zoomplus.mouseout"/>
                        </use>
                        <path d="M-4,0h8M0,-4v8" fill="none" stroke="white" stroke-width="1.5" pointer-events="none"/>
                </g>
                <g id="zoomMin">
                        <use xlink:href="#rim" fill="#404040">
                                <set attributeName="fill" to="#808080" begin="zoomminus.mouseover" end="zoomminus.mouseout"/>
                        </use>
                        <path d="M-4,0h8" fill="none" stroke="white" stroke-width="1.5" pointer-events="none"/>
                </g>
                <g id="dirArrow">
                        <path fill="none" stroke="white" stroke-width="1.5" d="M0,-3.0v7 M-2.5,-0.5L0,-3.0L2.5,-0.5"/>
                </g>
               <g id="resetDef">
                       <use xlink:href="#rim2" fill="#404040">
                               <set attributeName="fill" to="#808080" begin="reset.mouseover" end="reset.mouseout"/>
                       </use>
               </g>
        </defs>

<script type="text/javascript">
var viewWidth = 752;
var viewHeight = 1313;
var sectionId = 'dynsection-1';
</script>
<script xlink:href="../../svgpan.js"/>
<svg id="graph" class="graph">
<g id="viewport">
<title>o2::fv0::Detector</title>
<!-- Node1 -->
<g id="node1" class="node"><title>Node1</title>
<polygon fill="#bfbfbf" stroke="black" points="242.23,-0.5 242.23,-167.5 360.23,-167.5 360.23,-0.5 242.23,-0.5"/>
<text text-anchor="middle" x="301.23" y="-155.5" font-family="Helvetica,sans-Serif" font-size="10.00">o2::fv0::Detector</text>
<polyline fill="none" stroke="black" points="242.23,-148.5 360.23,-148.5 "/>
<text text-anchor="middle" x="301.23" y="-136.5" font-family="Helvetica,sans-Serif" font-size="10.00"> </text>
<polyline fill="none" stroke="black" points="242.23,-129.5 360.23,-129.5 "/>
<text text-anchor="start" x="250.23" y="-117.5" font-family="Helvetica,sans-Serif" font-size="10.00">+ Detector()</text>
<text text-anchor="start" x="250.23" y="-106.5" font-family="Helvetica,sans-Serif" font-size="10.00">+ ~Detector()</text>
<text text-anchor="start" x="250.23" y="-95.5" font-family="Helvetica,sans-Serif" font-size="10.00">+ Detector()</text>
<text text-anchor="start" x="250.23" y="-84.5" font-family="Helvetica,sans-Serif" font-size="10.00">+ InitializeO2Detector()</text>
<text text-anchor="start" x="250.23" y="-73.5" font-family="Helvetica,sans-Serif" font-size="10.00">+ ProcessHits()</text>
<text text-anchor="start" x="250.23" y="-62.5" font-family="Helvetica,sans-Serif" font-size="10.00">+ Register()</text>
<text text-anchor="start" x="250.23" y="-51.5" font-family="Helvetica,sans-Serif" font-size="10.00">+ getHits()</text>
<text text-anchor="start" x="250.23" y="-40.5" font-family="Helvetica,sans-Serif" font-size="10.00">+ Reset()</text>
<text text-anchor="start" x="250.23" y="-29.5" font-family="Helvetica,sans-Serif" font-size="10.00">+ EndOfEvent()</text>
<text text-anchor="start" x="250.23" y="-18.5" font-family="Helvetica,sans-Serif" font-size="10.00">+ createMaterials()</text>
<text text-anchor="start" x="250.23" y="-7.5" font-family="Helvetica,sans-Serif" font-size="10.00">+ ConstructGeometry()</text>
</g>
<!-- Node2 -->
<g id="node2" class="node"><title>Node2</title>
<g id="a_node2"><a xlink:href="../../de/dc8/classo2_1_1base_1_1DetImpl.html" target="_top" xlink:title="{o2::base::DetImpl\&lt;\l Detector \&gt;\n||+ getHitBranchNames()\l+ updateHitTrackIndices()\l+ attachHits()\l+ mergeAndAdjustHits()\l+ mergeHitEntries()\l+ fillHitBranch()\l+ CloneModule()\l+ freeHitBuffers()\l+ setHits()\l+ createHitBuffers()\l+ initializeLate()\l+ BeginEvent()\l+ ~DetImpl()\l# ClassDefOverride()\l}">
<polygon fill="none" stroke="black" points="236.23,-205.5 236.23,-416.5 366.23,-416.5 366.23,-205.5 236.23,-205.5"/>
<text text-anchor="start" x="244.23" y="-404.5" font-family="Helvetica,sans-Serif" font-size="10.00">o2::base::DetImpl&lt;</text>
<text text-anchor="middle" x="301.23" y="-393.5" font-family="Helvetica,sans-Serif" font-size="10.00"> Detector &gt;</text>
<polyline fill="none" stroke="black" points="236.23,-386.5 366.23,-386.5 "/>
<text text-anchor="middle" x="301.23" y="-374.5" font-family="Helvetica,sans-Serif" font-size="10.00"> </text>
<polyline fill="none" stroke="black" points="236.23,-367.5 366.23,-367.5 "/>
<text text-anchor="start" x="244.23" y="-355.5" font-family="Helvetica,sans-Serif" font-size="10.00">+ getHitBranchNames()</text>
<text text-anchor="start" x="244.23" y="-344.5" font-family="Helvetica,sans-Serif" font-size="10.00">+ updateHitTrackIndices()</text>
<text text-anchor="start" x="244.23" y="-333.5" font-family="Helvetica,sans-Serif" font-size="10.00">+ attachHits()</text>
<text text-anchor="start" x="244.23" y="-322.5" font-family="Helvetica,sans-Serif" font-size="10.00">+ mergeAndAdjustHits()</text>
<text text-anchor="start" x="244.23" y="-311.5" font-family="Helvetica,sans-Serif" font-size="10.00">+ mergeHitEntries()</text>
<text text-anchor="start" x="244.23" y="-300.5" font-family="Helvetica,sans-Serif" font-size="10.00">+ fillHitBranch()</text>
<text text-anchor="start" x="244.23" y="-289.5" font-family="Helvetica,sans-Serif" font-size="10.00">+ CloneModule()</text>
<text text-anchor="start" x="244.23" y="-278.5" font-family="Helvetica,sans-Serif" font-size="10.00">+ freeHitBuffers()</text>
<text text-anchor="start" x="244.23" y="-267.5" font-family="Helvetica,sans-Serif" font-size="10.00">+ setHits()</text>
<text text-anchor="start" x="244.23" y="-256.5" font-family="Helvetica,sans-Serif" font-size="10.00">+ createHitBuffers()</text>
<text text-anchor="start" x="244.23" y="-245.5" font-family="Helvetica,sans-Serif" font-size="10.00">+ initializeLate()</text>
<text text-anchor="start" x="244.23" y="-234.5" font-family="Helvetica,sans-Serif" font-size="10.00">+ BeginEvent()</text>
<text text-anchor="start" x="244.23" y="-223.5" font-family="Helvetica,sans-Serif" font-size="10.00">+ ~DetImpl()</text>
<text text-anchor="start" x="244.23" y="-212.5" font-family="Helvetica,sans-Serif" font-size="10.00"># ClassDefOverride()</text>
</a>
</g>
</g>
<!-- Node2&#45;&gt;Node1 -->
<g id="edge1" class="edge"><title>Node2&#45;&gt;Node1</title>
<path fill="none" stroke="midnightblue" d="M301.23,-195.329C301.23,-186.039 301.23,-176.77 301.23,-167.773"/>
<polygon fill="none" stroke="midnightblue" points="297.73,-195.404 301.23,-205.404 304.73,-195.404 297.73,-195.404"/>
</g>
<!-- Node3 -->
<g id="node3" class="node"><title>Node3</title>
<g id="a_node3"><a xlink:href="../../d2/d00/classo2_1_1base_1_1Detector.html" target="_top" xlink:title="{o2::base::Detector\n||+ Detector()\l+ Detector()\l+ ~Detector()\l+ Material()\l+ Mixture()\l+ Medium()\l+ SpecialCuts()\l+ SpecialCut()\l+ SpecialProcesses()\l+ SpecialProcess()\l+ Matrix()\l+ SetSpecialPhysicsCuts()\l+ addAlignableVolumes()\l+ defineWrapperVolume()\l+ setNumberOfWrapperVolumes()\l+ defineLayer()\l+ defineLayerTurbo()\l+ getMaterialID()\l+ getMediumID()\l+ getMediumIDMappingAsVector()\l+ addNameTo()\l+ getHitBranchNames()\l+ updateHitTrackIndices()\l+ attachHits()\l+ fillHitBranch()\l+ mergeHitEntries()\l+ InitializeO2Detector()\l+ Initialize()\l+ initializeLate()\l+ registerSensitiveVolumeAnd\lGetVolID()\l+ registerSensitiveVolumeAnd\lGetVolID()\l+ GetCollection()\l+ setDensityFactor()\l+ getDensityFactor()\l+ initFieldTrackingParams()\l# Detector()\l# operator=()\l}">
<polygon fill="none" stroke="black" points="480.73,-734.5 480.73,-1209.5 647.73,-1209.5 647.73,-734.5 480.73,-734.5"/>
<text text-anchor="middle" x="564.23" y="-1197.5" font-family="Helvetica,sans-Serif" font-size="10.00">o2::base::Detector</text>
<polyline fill="none" stroke="black" points="480.73,-1190.5 647.73,-1190.5 "/>
<text text-anchor="middle" x="564.23" y="-1178.5" font-family="Helvetica,sans-Serif" font-size="10.00"> </text>
<polyline fill="none" stroke="black" points="480.73,-1171.5 647.73,-1171.5 "/>
<text text-anchor="start" x="488.73" y="-1159.5" font-family="Helvetica,sans-Serif" font-size="10.00">+ Detector()</text>
<text text-anchor="start" x="488.73" y="-1148.5" font-family="Helvetica,sans-Serif" font-size="10.00">+ Detector()</text>
<text text-anchor="start" x="488.73" y="-1137.5" font-family="Helvetica,sans-Serif" font-size="10.00">+ ~Detector()</text>
<text text-anchor="start" x="488.73" y="-1126.5" font-family="Helvetica,sans-Serif" font-size="10.00">+ Material()</text>
<text text-anchor="start" x="488.73" y="-1115.5" font-family="Helvetica,sans-Serif" font-size="10.00">+ Mixture()</text>
<text text-anchor="start" x="488.73" y="-1104.5" font-family="Helvetica,sans-Serif" font-size="10.00">+ Medium()</text>
<text text-anchor="start" x="488.73" y="-1093.5" font-family="Helvetica,sans-Serif" font-size="10.00">+ SpecialCuts()</text>
<text text-anchor="start" x="488.73" y="-1082.5" font-family="Helvetica,sans-Serif" font-size="10.00">+ SpecialCut()</text>
<text text-anchor="start" x="488.73" y="-1071.5" font-family="Helvetica,sans-Serif" font-size="10.00">+ SpecialProcesses()</text>
<text text-anchor="start" x="488.73" y="-1060.5" font-family="Helvetica,sans-Serif" font-size="10.00">+ SpecialProcess()</text>
<text text-anchor="start" x="488.73" y="-1049.5" font-family="Helvetica,sans-Serif" font-size="10.00">+ Matrix()</text>
<text text-anchor="start" x="488.73" y="-1038.5" font-family="Helvetica,sans-Serif" font-size="10.00">+ SetSpecialPhysicsCuts()</text>
<text text-anchor="start" x="488.73" y="-1027.5" font-family="Helvetica,sans-Serif" font-size="10.00">+ addAlignableVolumes()</text>
<text text-anchor="start" x="488.73" y="-1016.5" font-family="Helvetica,sans-Serif" font-size="10.00">+ defineWrapperVolume()</text>
<text text-anchor="start" x="488.73" y="-1005.5" font-family="Helvetica,sans-Serif" font-size="10.00">+ setNumberOfWrapperVolumes()</text>
<text text-anchor="start" x="488.73" y="-994.5" font-family="Helvetica,sans-Serif" font-size="10.00">+ defineLayer()</text>
<text text-anchor="start" x="488.73" y="-983.5" font-family="Helvetica,sans-Serif" font-size="10.00">+ defineLayerTurbo()</text>
<text text-anchor="start" x="488.73" y="-972.5" font-family="Helvetica,sans-Serif" font-size="10.00">+ getMaterialID()</text>
<text text-anchor="start" x="488.73" y="-961.5" font-family="Helvetica,sans-Serif" font-size="10.00">+ getMediumID()</text>
<text text-anchor="start" x="488.73" y="-950.5" font-family="Helvetica,sans-Serif" font-size="10.00">+ getMediumIDMappingAsVector()</text>
<text text-anchor="start" x="488.73" y="-939.5" font-family="Helvetica,sans-Serif" font-size="10.00">+ addNameTo()</text>
<text text-anchor="start" x="488.73" y="-928.5" font-family="Helvetica,sans-Serif" font-size="10.00">+ getHitBranchNames()</text>
<text text-anchor="start" x="488.73" y="-917.5" font-family="Helvetica,sans-Serif" font-size="10.00">+ updateHitTrackIndices()</text>
<text text-anchor="start" x="488.73" y="-906.5" font-family="Helvetica,sans-Serif" font-size="10.00">+ attachHits()</text>
<text text-anchor="start" x="488.73" y="-895.5" font-family="Helvetica,sans-Serif" font-size="10.00">+ fillHitBranch()</text>
<text text-anchor="start" x="488.73" y="-884.5" font-family="Helvetica,sans-Serif" font-size="10.00">+ mergeHitEntries()</text>
<text text-anchor="start" x="488.73" y="-873.5" font-family="Helvetica,sans-Serif" font-size="10.00">+ InitializeO2Detector()</text>
<text text-anchor="start" x="488.73" y="-862.5" font-family="Helvetica,sans-Serif" font-size="10.00">+ Initialize()</text>
<text text-anchor="start" x="488.73" y="-851.5" font-family="Helvetica,sans-Serif" font-size="10.00">+ initializeLate()</text>
<text text-anchor="start" x="488.73" y="-840.5" font-family="Helvetica,sans-Serif" font-size="10.00">+ registerSensitiveVolumeAnd</text>
<text text-anchor="start" x="488.73" y="-829.5" font-family="Helvetica,sans-Serif" font-size="10.00">GetVolID()</text>
<text text-anchor="start" x="488.73" y="-818.5" font-family="Helvetica,sans-Serif" font-size="10.00">+ registerSensitiveVolumeAnd</text>
<text text-anchor="start" x="488.73" y="-807.5" font-family="Helvetica,sans-Serif" font-size="10.00">GetVolID()</text>
<text text-anchor="start" x="488.73" y="-796.5" font-family="Helvetica,sans-Serif" font-size="10.00">+ GetCollection()</text>
<text text-anchor="start" x="488.73" y="-785.5" font-family="Helvetica,sans-Serif" font-size="10.00">+ setDensityFactor()</text>
<text text-anchor="start" x="488.73" y="-774.5" font-family="Helvetica,sans-Serif" font-size="10.00">+ getDensityFactor()</text>
<text text-anchor="start" x="488.73" y="-763.5" font-family="Helvetica,sans-Serif" font-size="10.00">+ initFieldTrackingParams()</text>
<text text-anchor="start" x="488.73" y="-752.5" font-family="Helvetica,sans-Serif" font-size="10.00"># Detector()</text>
<text text-anchor="start" x="488.73" y="-741.5" font-family="Helvetica,sans-Serif" font-size="10.00"># operator=()</text>
</a>
</g>
</g>
<!-- Node3&#45;&gt;Node2 -->
<g id="edge2" class="edge"><title>Node3&#45;&gt;Node2</title>
<path fill="none" stroke="midnightblue" d="M640.141,-724.03C638.997,-713.871 637.069,-703.828 634.23,-694 600.69,-577.907 569.516,-554.313 489.23,-464 452.838,-423.063 404.695,-384.364 366.238,-356.259"/>
<polygon fill="none" stroke="midnightblue" points="636.674,-724.565 641.029,-734.224 643.648,-723.958 636.674,-724.565"/>
</g>
<!-- Node9 -->
<g id="node9" class="node"><title>Node9</title>
<g id="a_node9"><a xlink:href="../../de/dc8/classo2_1_1base_1_1DetImpl.html" target="_top" xlink:title="{o2::base::DetImpl\&lt;\l Det \&gt;\n||+ getHitBranchNames()\l+ updateHitTrackIndices()\l+ attachHits()\l+ mergeAndAdjustHits()\l+ mergeHitEntries()\l+ fillHitBranch()\l+ CloneModule()\l+ freeHitBuffers()\l+ setHits()\l+ createHitBuffers()\l+ initializeLate()\l+ BeginEvent()\l+ ~DetImpl()\l# ClassDefOverride()\l}">
<polygon fill="none" stroke="black" points="350.23,-464.5 350.23,-675.5 480.23,-675.5 480.23,-464.5 350.23,-464.5"/>
<text text-anchor="start" x="358.23" y="-663.5" font-family="Helvetica,sans-Serif" font-size="10.00">o2::base::DetImpl&lt;</text>
<text text-anchor="middle" x="415.23" y="-652.5" font-family="Helvetica,sans-Serif" font-size="10.00"> Det &gt;</text>
<polyline fill="none" stroke="black" points="350.23,-645.5 480.23,-645.5 "/>
<text text-anchor="middle" x="415.23" y="-633.5" font-family="Helvetica,sans-Serif" font-size="10.00"> </text>
<polyline fill="none" stroke="black" points="350.23,-626.5 480.23,-626.5 "/>
<text text-anchor="start" x="358.23" y="-614.5" font-family="Helvetica,sans-Serif" font-size="10.00">+ getHitBranchNames()</text>
<text text-anchor="start" x="358.23" y="-603.5" font-family="Helvetica,sans-Serif" font-size="10.00">+ updateHitTrackIndices()</text>
<text text-anchor="start" x="358.23" y="-592.5" font-family="Helvetica,sans-Serif" font-size="10.00">+ attachHits()</text>
<text text-anchor="start" x="358.23" y="-581.5" font-family="Helvetica,sans-Serif" font-size="10.00">+ mergeAndAdjustHits()</text>
<text text-anchor="start" x="358.23" y="-570.5" font-family="Helvetica,sans-Serif" font-size="10.00">+ mergeHitEntries()</text>
<text text-anchor="start" x="358.23" y="-559.5" font-family="Helvetica,sans-Serif" font-size="10.00">+ fillHitBranch()</text>
<text text-anchor="start" x="358.23" y="-548.5" font-family="Helvetica,sans-Serif" font-size="10.00">+ CloneModule()</text>
<text text-anchor="start" x="358.23" y="-537.5" font-family="Helvetica,sans-Serif" font-size="10.00">+ freeHitBuffers()</text>
<text text-anchor="start" x="358.23" y="-526.5" font-family="Helvetica,sans-Serif" font-size="10.00">+ setHits()</text>
<text text-anchor="start" x="358.23" y="-515.5" font-family="Helvetica,sans-Serif" font-size="10.00">+ createHitBuffers()</text>
<text text-anchor="start" x="358.23" y="-504.5" font-family="Helvetica,sans-Serif" font-size="10.00">+ initializeLate()</text>
<text text-anchor="start" x="358.23" y="-493.5" font-family="Helvetica,sans-Serif" font-size="10.00">+ BeginEvent()</text>
<text text-anchor="start" x="358.23" y="-482.5" font-family="Helvetica,sans-Serif" font-size="10.00">+ ~DetImpl()</text>
<text text-anchor="start" x="358.23" y="-471.5" font-family="Helvetica,sans-Serif" font-size="10.00"># ClassDefOverride()</text>
</a>
</g>
</g>
<!-- Node3&#45;&gt;Node9 -->
<g id="edge9" class="edge"><title>Node3&#45;&gt;Node9</title>
<path fill="none" stroke="midnightblue" d="M516.549,-724.579C512.744,-714.128 508.644,-703.89 504.23,-694 497.729,-679.438 489.331,-664.89 480.294,-651.161"/>
<polygon fill="none" stroke="midnightblue" points="513.329,-725.972 519.962,-734.234 519.929,-723.64 513.329,-725.972"/>
</g>
<!-- Node4 -->
<g id="node4" class="node"><title>Node4</title>
<g id="a_node4"><a xlink:href="../../d6/d0c/classFairDetector.html" target="_top" xlink:title="{FairDetector\n||}">
<polygon fill="none" stroke="black" points="528.73,-1247.5 528.73,-1304.5 599.73,-1304.5 599.73,-1247.5 528.73,-1247.5"/>
<text text-anchor="middle" x="564.23" y="-1292.5" font-family="Helvetica,sans-Serif" font-size="10.00">FairDetector</text>
<polyline fill="none" stroke="black" points="528.73,-1285.5 599.73,-1285.5 "/>
<text text-anchor="middle" x="564.23" y="-1273.5" font-family="Helvetica,sans-Serif" font-size="10.00"> </text>
<polyline fill="none" stroke="black" points="528.73,-1266.5 599.73,-1266.5 "/>
<text text-anchor="middle" x="564.23" y="-1254.5" font-family="Helvetica,sans-Serif" font-size="10.00"> </text>
</a>
</g>
</g>
<!-- Node4&#45;&gt;Node3 -->
<g id="edge3" class="edge"><title>Node4&#45;&gt;Node3</title>
<path fill="none" stroke="midnightblue" d="M564.23,-1237.23C564.23,-1229.01 564.23,-1219.74 564.23,-1209.72"/>
<polygon fill="none" stroke="midnightblue" points="560.73,-1237.4 564.23,-1247.4 567.73,-1237.4 560.73,-1237.4"/>
</g>
<!-- Node5 -->
<g id="node5" class="node"><title>Node5</title>
<g id="a_node5"><a xlink:href="../../d4/d34/classstatic_01constexpr_01int.html" target="_top" xlink:title="{static constexpr int\n||}">
<polygon fill="none" stroke="black" points="102.23,-541.5 102.23,-598.5 202.23,-598.5 202.23,-541.5 102.23,-541.5"/>
<text text-anchor="middle" x="152.23" y="-586.5" font-family="Helvetica,sans-Serif" font-size="10.00">static constexpr int</text>
<polyline fill="none" stroke="black" points="102.23,-579.5 202.23,-579.5 "/>
<text text-anchor="middle" x="152.23" y="-567.5" font-family="Helvetica,sans-Serif" font-size="10.00"> </text>
<polyline fill="none" stroke="black" points="102.23,-560.5 202.23,-560.5 "/>
<text text-anchor="middle" x="152.23" y="-548.5" font-family="Helvetica,sans-Serif" font-size="10.00"> </text>
</a>
</g>
</g>
<!-- Node5&#45;&gt;Node2 -->
<g id="edge4" class="edge"><title>Node5&#45;&gt;Node2</title>
<path fill="none" stroke="#404040" d="M144.966,-541.314C139.088,-513.111 134.152,-468.833 150.23,-435 166.262,-401.262 196.578,-373.737 225.863,-353.345"/>
<polygon fill="none" stroke="#404040" points="226.193,-353.123 228.943,-346.457 236.154,-346.431 233.404,-353.098 226.193,-353.123"/>
<text text-anchor="middle" x="190.23" y="-438" font-family="Helvetica,sans-Serif" font-size="10.00"> #NHITBUFFERS</text>
</g>
<!-- Node6 -->
<g id="node6" class="node"><title>Node6</title>
<polygon fill="none" stroke="#bfbfbf" points="121.73,-943.5 121.73,-1000.5 162.73,-1000.5 162.73,-943.5 121.73,-943.5"/>
<text text-anchor="middle" x="142.23" y="-988.5" font-family="Helvetica,sans-Serif" font-size="10.00">bool *</text>
<polyline fill="none" stroke="#bfbfbf" points="121.73,-981.5 162.73,-981.5 "/>
<text text-anchor="middle" x="142.23" y="-969.5" font-family="Helvetica,sans-Serif" font-size="10.00"> </text>
<polyline fill="none" stroke="#bfbfbf" points="121.73,-962.5 162.73,-962.5 "/>
<text text-anchor="middle" x="142.23" y="-950.5" font-family="Helvetica,sans-Serif" font-size="10.00"> </text>
</g>
<!-- Node6&#45;&gt;Node2 -->
<g id="edge5" class="edge"><title>Node6&#45;&gt;Node2</title>
<path fill="none" stroke="#404040" d="M123.535,-943.313C72.0591,-863.316 -61.8183,-627.179 33.2296,-464 74.0987,-393.836 160.733,-353.437 224.487,-332.174"/>
<polygon fill="none" stroke="#404040" points="224.689,-332.109 229.171,-326.459 236.109,-328.423 231.627,-334.073 224.689,-332.109"/>
<text text-anchor="middle" x="63.2296" y="-567.5" font-family="Helvetica,sans-Serif" font-size="10.00"> #mShmBusy</text>
</g>
<!-- Node6&#45;&gt;Node9 -->
<g id="edge10" class="edge"><title>Node6&#45;&gt;Node9</title>
<path fill="none" stroke="#404040" d="M151.328,-943.294C169.722,-890.353 215.437,-773.062 283.23,-694 292.142,-683.606 297.758,-684.82 308.23,-676 319.194,-666.765 330.393,-656.644 341.218,-646.445"/>
<polygon fill="none" stroke="#404040" points="341.523,-646.155 343.108,-639.12 350.211,-637.877 348.626,-644.912 341.523,-646.155"/>
<text text-anchor="middle" x="313.23" y="-702.5" font-family="Helvetica,sans-Serif" font-size="10.00"> #mShmBusy</text>
</g>
<!-- Node7 -->
<g id="node7" class="node"><title>Node7</title>
<polygon fill="none" stroke="#bfbfbf" points="672.73,-943.5 672.73,-1000.5 701.73,-1000.5 701.73,-943.5 672.73,-943.5"/>
<text text-anchor="middle" x="687.23" y="-988.5" font-family="Helvetica,sans-Serif" font-size="10.00">int</text>
<polyline fill="none" stroke="#bfbfbf" points="672.73,-981.5 701.73,-981.5 "/>
<text text-anchor="middle" x="687.23" y="-969.5" font-family="Helvetica,sans-Serif" font-size="10.00"> </text>
<polyline fill="none" stroke="#bfbfbf" points="672.73,-962.5 701.73,-962.5 "/>
<text text-anchor="middle" x="687.23" y="-950.5" font-family="Helvetica,sans-Serif" font-size="10.00"> </text>
</g>
<!-- Node7&#45;&gt;Node2 -->
<g id="edge6" class="edge"><title>Node7&#45;&gt;Node2</title>
<path fill="none" stroke="#404040" d="M689.147,-943.39C693.38,-860.539 694.858,-610.73 573.23,-464 521.987,-402.181 438.723,-360.949 377.799,-337.213"/>
<polygon fill="none" stroke="#404040" points="377.527,-337.11 370.497,-338.714 366.312,-332.841 373.343,-331.237 377.527,-337.11"/>
<text text-anchor="middle" x="706.23" y="-573" font-family="Helvetica,sans-Serif" font-size="10.00"> #mCurrentBuffer</text>
<text text-anchor="middle" x="706.23" y="-562" font-family="Helvetica,sans-Serif" font-size="10.00">#mInitialized</text>
</g>
<!-- Node7&#45;&gt;Node9 -->
<g id="edge11" class="edge"><title>Node7&#45;&gt;Node9</title>
<path fill="none" stroke="#404040" d="M692.152,-943.289C699.061,-895.002 705.776,-794.795 656.23,-734 640.779,-715.042 625.764,-727.592 604.23,-716 563.96,-694.322 523.214,-664.316 489.917,-637.222"/>
<polygon fill="none" stroke="#404040" points="489.549,-636.919 482.374,-636.195 480.282,-629.294 487.457,-630.017 489.549,-636.919"/>
<text text-anchor="middle" x="642.23" y="-708" font-family="Helvetica,sans-Serif" font-size="10.00"> #mCurrentBuffer</text>
<text text-anchor="middle" x="642.23" y="-697" font-family="Helvetica,sans-Serif" font-size="10.00">#mInitialized</text>
</g>
<!-- Node8 -->
<g id="node8" class="node"><title>Node8</title>
<polygon fill="none" stroke="#bfbfbf" points="299.23,-943.5 299.23,-1000.5 385.23,-1000.5 385.23,-943.5 299.23,-943.5"/>
<text text-anchor="middle" x="342.23" y="-988.5" font-family="Helvetica,sans-Serif" font-size="10.00">vector&lt; void * &gt;</text>
<polyline fill="none" stroke="#bfbfbf" points="299.23,-981.5 385.23,-981.5 "/>
<text text-anchor="middle" x="342.23" y="-969.5" font-family="Helvetica,sans-Serif" font-size="10.00"> </text>
<polyline fill="none" stroke="#bfbfbf" points="299.23,-962.5 385.23,-962.5 "/>
<text text-anchor="middle" x="342.23" y="-950.5" font-family="Helvetica,sans-Serif" font-size="10.00"> </text>
</g>
<!-- Node8&#45;&gt;Node2 -->
<g id="edge7" class="edge"><title>Node8&#45;&gt;Node2</title>
<path fill="none" stroke="#404040" d="M330.779,-943.332C312.369,-897.186 276.963,-801.163 264.23,-716 256.906,-667.017 218.423,-1013.92 277.23,-464 278.442,-452.663 279.917,-440.883 281.533,-429.12"/>
<polygon fill="none" stroke="#404040" points="281.583,-428.771 278.463,-422.27 283.264,-416.889 286.384,-423.391 281.583,-428.771"/>
<text text-anchor="middle" x="309.23" y="-567.5" font-family="Helvetica,sans-Serif" font-size="10.00"> #mCachedPtr</text>
</g>
<!-- Node8&#45;&gt;Node9 -->
<g id="edge12" class="edge"><title>Node8&#45;&gt;Node9</title>
<path fill="none" stroke="#404040" d="M339.322,-943.301C334.872,-892.784 329.131,-782.714 352.23,-694 352.794,-691.831 353.402,-689.656 354.048,-687.478"/>
<polygon fill="none" stroke="#404040" points="354.126,-687.24 352.188,-680.294 357.853,-675.833 359.792,-682.779 354.126,-687.24"/>
<text text-anchor="middle" x="384.23" y="-702.5" font-family="Helvetica,sans-Serif" font-size="10.00"> #mCachedPtr</text>
</g>
<!-- Node9&#45;&gt;Node2 -->
<g id="edge8" class="edge"><title>Node9&#45;&gt;Node2</title>
<path fill="none" stroke="orange" d="M364.758,-455.218C359.097,-442.456 353.349,-429.498 347.742,-416.856"/>
<polygon fill="orange" stroke="orange" points="361.607,-456.746 368.861,-464.468 368.006,-453.908 361.607,-456.746"/>
<text text-anchor="middle" x="387.73" y="-438" font-family="Helvetica,sans-Serif" font-size="10.00"> &lt; Detector &gt;</text>
</g>
<!-- Node10 -->
<g id="node10" class="node"><title>Node10</title>
<polygon fill="none" stroke="#bfbfbf" points="408.73,-943.5 408.73,-1000.5 449.73,-1000.5 449.73,-943.5 408.73,-943.5"/>
<text text-anchor="middle" x="429.23" y="-988.5" font-family="Helvetica,sans-Serif" font-size="10.00">static</text>
<polyline fill="none" stroke="#bfbfbf" points="408.73,-981.5 449.73,-981.5 "/>
<text text-anchor="middle" x="429.23" y="-969.5" font-family="Helvetica,sans-Serif" font-size="10.00"> </text>
<polyline fill="none" stroke="#bfbfbf" points="408.73,-962.5 449.73,-962.5 "/>
<text text-anchor="middle" x="429.23" y="-950.5" font-family="Helvetica,sans-Serif" font-size="10.00"> </text>
</g>
<!-- Node10&#45;&gt;Node9 -->
<g id="edge13" class="edge"><title>Node10&#45;&gt;Node9</title>
<path fill="none" stroke="#404040" d="M428.256,-943.19C426.433,-891.105 422.409,-776.123 419.312,-687.647"/>
<polygon fill="none" stroke="#404040" points="419.311,-687.616 415.104,-681.76 418.891,-675.623 423.099,-681.48 419.311,-687.616"/>
<text text-anchor="middle" x="460.23" y="-702.5" font-family="Helvetica,sans-Serif" font-size="10.00"> #NHITBUFFERS</text>
</g>
</g>
</svg>
        <g id="navigator" transform="translate(0 0)" fill="#404254">
                <rect fill="#f2f5e9" fill-opacity="0.5" stroke="#606060" stroke-width=".5" x="0" y="0" width="60" height="60"/>
                <use id="zoomplus" xlink:href="#zoomPlus" x="17" y="9" onmousedown="handleZoom(evt,'in')"/>
                <use id="zoomminus" xlink:href="#zoomMin" x="42" y="9" onmousedown="handleZoom(evt,'out')"/>
                <use id="reset" xlink:href="#resetDef" x="30" y="36" onmousedown="handleReset()"/>
                <g id="arrowUp" xlink:href="#dirArrow" transform="translate(30 24)" onmousedown="handlePan(0,-1)">
                  <use xlink:href="#rim" fill="#404040">
                        <set attributeName="fill" to="#808080" begin="arrowUp.mouseover" end="arrowUp.mouseout"/>
                  </use>
                  <path fill="none" stroke="white" stroke-width="1.5" d="M0,-3.0v7 M-2.5,-0.5L0,-3.0L2.5,-0.5"/>
                </g>
                <g id="arrowRight" xlink:href="#dirArrow" transform="rotate(90) translate(36 -43)" onmousedown="handlePan(1,0)">
                  <use xlink:href="#rim" fill="#404040">
                        <set attributeName="fill" to="#808080" begin="arrowRight.mouseover" end="arrowRight.mouseout"/>
                  </use>
                  <path fill="none" stroke="white" stroke-width="1.5" d="M0,-3.0v7 M-2.5,-0.5L0,-3.0L2.5,-0.5"/>
                </g>
                <g id="arrowDown" xlink:href="#dirArrow" transform="rotate(180) translate(-30 -48)" onmousedown="handlePan(0,1)">
                  <use xlink:href="#rim" fill="#404040">
                        <set attributeName="fill" to="#808080" begin="arrowDown.mouseover" end="arrowDown.mouseout"/>
                  </use>
                  <path fill="none" stroke="white" stroke-width="1.5" d="M0,-3.0v7 M-2.5,-0.5L0,-3.0L2.5,-0.5"/>
                </g>
                <g id="arrowLeft" xlink:href="#dirArrow" transform="rotate(270) translate(-36 17)" onmousedown="handlePan(-1,0)">
                  <use xlink:href="#rim" fill="#404040">
                        <set attributeName="fill" to="#808080" begin="arrowLeft.mouseover" end="arrowLeft.mouseout"/>
                  </use>
                  <path fill="none" stroke="white" stroke-width="1.5" d="M0,-3.0v7 M-2.5,-0.5L0,-3.0L2.5,-0.5"/>
                </g>
        </g>
        <svg viewBox="0 0 15 15" width="100%" height="30px" preserveAspectRatio="xMaxYMin meet">
         <g id="arrow_out" transform="scale(0.3 0.3)">
          <a xlink:href="classo2_1_1fv0_1_1Detector__coll__graph_org.svg" target="_base">
           <rect id="button" ry="5" rx="5" y="6" x="6" height="38" width="38"
                fill="#f2f5e9" fill-opacity="0.5" stroke="#606060" stroke-width="1.0"/>
           <path id="arrow"
             d="M 11.500037,31.436501 C 11.940474,20.09759 22.043105,11.32322 32.158766,21.979434 L 37.068811,17.246167 C 37.068811,17.246167 37.088388,32 37.088388,32 L 22.160133,31.978069 C 22.160133,31.978069 26.997745,27.140456 26.997745,27.140456 C 18.528582,18.264221 13.291696,25.230495 11.500037,31.436501 z"
             style="fill:#404040;"/>
          </a>
         </g>
        </svg>
</svg>
