<?xml version="1.0" encoding="UTF-8" standalone="no"?>
<!DOCTYPE svg PUBLIC "-//W3C//DTD SVG 1.1//EN"
 "http://www.w3.org/Graphics/SVG/1.1/DTD/svg11.dtd">
<!-- Generated by graphviz version 2.38.0 (20140413.2041)
 -->
<!-- Title: o2::framework::DeviceConnectionEdge Pages: 1 -->
<svg width="277pt" height="226pt"
 viewBox="0.00 0.00 276.50 226.00" xmlns="http://www.w3.org/2000/svg" xmlns:xlink="http://www.w3.org/1999/xlink">
<g id="graph0" class="graph" transform="scale(1 1) rotate(0) translate(4 222)">
<title>o2::framework::DeviceConnectionEdge</title>
<!-- Node1 -->
<g id="node1" class="node"><title>Node1</title>
<polygon fill="#bfbfbf" stroke="black" points="0,-0.5 0,-57.5 188,-57.5 188,-0.5 0,-0.5"/>
<text text-anchor="middle" x="94" y="-45.5" font-family="Helvetica,sans-Serif" font-size="10.00">o2::framework::DeviceConnectionEdge</text>
<polyline fill="none" stroke="black" points="0,-38.5 188,-38.5 "/>
<text text-anchor="middle" x="94" y="-26.5" font-family="Helvetica,sans-Serif" font-size="10.00"> </text>
<polyline fill="none" stroke="black" points="0,-19.5 188,-19.5 "/>
<text text-anchor="middle" x="94" y="-7.5" font-family="Helvetica,sans-Serif" font-size="10.00"> </text>
</g>
<!-- Node2 -->
<g id="node2" class="node"><title>Node2</title>
<polygon fill="none" stroke="#bfbfbf" points="1.5,-160.5 1.5,-217.5 36.5,-217.5 36.5,-160.5 1.5,-160.5"/>
<text text-anchor="middle" x="19" y="-205.5" font-family="Helvetica,sans-Serif" font-size="10.00">bool</text>
<polyline fill="none" stroke="#bfbfbf" points="1.5,-198.5 36.5,-198.5 "/>
<text text-anchor="middle" x="19" y="-186.5" font-family="Helvetica,sans-Serif" font-size="10.00"> </text>
<polyline fill="none" stroke="#bfbfbf" points="1.5,-179.5 36.5,-179.5 "/>
<text text-anchor="middle" x="19" y="-167.5" font-family="Helvetica,sans-Serif" font-size="10.00"> </text>
</g>
<!-- Node2&#45;&gt;Node1 -->
<g id="edge1" class="edge"><title>Node2&#45;&gt;Node1</title>
<path fill="none" stroke="#404040" d="M18.4127,-160.405C19.0814,-136.554 22.9596,-101.932 38,-76 39.8957,-72.7315 42.1173,-69.5969 44.5622,-66.6096"/>
<polygon fill="none" stroke="#404040" points="44.8062,-66.3489 45.9854,-59.2348 53.0057,-57.5871 51.8266,-64.7012 44.8062,-66.3489"/>
<text text-anchor="middle" x="64" y="-106.5" font-family="Helvetica,sans-Serif" font-size="10.00"> +isForward</text>
</g>
<!-- Node3 -->
<g id="node3" class="node"><title>Node3</title>
<polygon fill="none" stroke="#bfbfbf" points="72.5,-160.5 72.5,-217.5 115.5,-217.5 115.5,-160.5 72.5,-160.5"/>
<text text-anchor="middle" x="94" y="-205.5" font-family="Helvetica,sans-Serif" font-size="10.00">size_t</text>
<polyline fill="none" stroke="#bfbfbf" points="72.5,-198.5 115.5,-198.5 "/>
<text text-anchor="middle" x="94" y="-186.5" font-family="Helvetica,sans-Serif" font-size="10.00"> </text>
<polyline fill="none" stroke="#bfbfbf" points="72.5,-179.5 115.5,-179.5 "/>
<text text-anchor="middle" x="94" y="-167.5" font-family="Helvetica,sans-Serif" font-size="10.00"> </text>
</g>
<!-- Node3&#45;&gt;Node1 -->
<g id="edge2" class="edge"><title>Node3&#45;&gt;Node1</title>
<path fill="none" stroke="#404040" d="M94,-160.479C94,-135.484 94,-98.3112 94,-70.0293"/>
<polygon fill="none" stroke="#404040" points="94.0001,-69.7362 90,-63.7363 94,-57.7362 98,-63.7362 94.0001,-69.7362"/>
<text text-anchor="middle" x="141.5" y="-134" font-family="Helvetica,sans-Serif" font-size="10.00"> +consumer</text>
<text text-anchor="middle" x="141.5" y="-123" font-family="Helvetica,sans-Serif" font-size="10.00">+outputGlobalIndex</text>
<text text-anchor="middle" x="141.5" y="-112" font-family="Helvetica,sans-Serif" font-size="10.00">+producerTimeIndex</text>
<text text-anchor="middle" x="141.5" y="-101" font-family="Helvetica,sans-Serif" font-size="10.00">+producer</text>
<text text-anchor="middle" x="141.5" y="-90" font-family="Helvetica,sans-Serif" font-size="10.00">+consumerInputIndex</text>
<text text-anchor="middle" x="141.5" y="-79" font-family="Helvetica,sans-Serif" font-size="10.00">+timeIndex</text>
</g>
<!-- Node4 -->
<g id="node4" class="node"><title>Node4</title>
<polygon fill="none" stroke="#bfbfbf" points="155.5,-160.5 155.5,-217.5 268.5,-217.5 268.5,-160.5 155.5,-160.5"/>
<text text-anchor="middle" x="212" y="-205.5" font-family="Helvetica,sans-Serif" font-size="10.00">enum ConnectionKind</text>
<polyline fill="none" stroke="#bfbfbf" points="155.5,-198.5 268.5,-198.5 "/>
<text text-anchor="middle" x="212" y="-186.5" font-family="Helvetica,sans-Serif" font-size="10.00"> </text>
<polyline fill="none" stroke="#bfbfbf" points="155.5,-179.5 268.5,-179.5 "/>
<text text-anchor="middle" x="212" y="-167.5" font-family="Helvetica,sans-Serif" font-size="10.00"> </text>
</g>
<!-- Node4&#45;&gt;Node1 -->
<g id="edge3" class="edge"><title>Node4&#45;&gt;Node1</title>
<path fill="none" stroke="#404040" d="M213.204,-160.319C212.851,-135.757 208.685,-100.127 190,-76 186.881,-71.9726 183.321,-68.2792 179.451,-64.8946"/>
<polygon fill="none" stroke="#404040" points="179.422,-64.8728 172.228,-64.377 169.919,-57.5456 177.113,-58.0415 179.422,-64.8728"/>
<text text-anchor="middle" x="226" y="-106.5" font-family="Helvetica,sans-Serif" font-size="10.00"> +kind</text>
</g>
</g>
</svg>
