<?xml version="1.0" encoding="UTF-8" standalone="no"?>
<!DOCTYPE svg PUBLIC "-//W3C//DTD SVG 1.1//EN"
 "http://www.w3.org/Graphics/SVG/1.1/DTD/svg11.dtd">
<!-- Generated by graphviz version 2.38.0 (20140413.2041)
 -->
<!-- Title: GPUCA_NAMESPACE::gpu::GPUTPCSharedMemoryData::count_t Pages: 1 -->
<svg width="283pt" height="331pt"
 viewBox="0.00 0.00 282.50 331.00" xmlns="http://www.w3.org/2000/svg" xmlns:xlink="http://www.w3.org/1999/xlink">
<g id="graph0" class="graph" transform="scale(1 1) rotate(0) translate(4 327)">
<title>GPUCA_NAMESPACE::gpu::GPUTPCSharedMemoryData::count_t</title>
<!-- Node1 -->
<g id="node1" class="node"><title>Node1</title>
<polygon fill="#bfbfbf" stroke="black" points="73.5,-0.5 73.5,-79.5 225.5,-79.5 225.5,-0.5 73.5,-0.5"/>
<text text-anchor="start" x="81.5" y="-67.5" font-family="Helvetica,sans-Serif" font-size="10.00">GPUCA_NAMESPACE::gpu</text>
<text text-anchor="start" x="81.5" y="-56.5" font-family="Helvetica,sans-Serif" font-size="10.00">::GPUTPCSharedMemoryData</text>
<text text-anchor="middle" x="149.5" y="-45.5" font-family="Helvetica,sans-Serif" font-size="10.00">::count_t</text>
<polyline fill="none" stroke="black" points="73.5,-38.5 225.5,-38.5 "/>
<text text-anchor="middle" x="149.5" y="-26.5" font-family="Helvetica,sans-Serif" font-size="10.00"> </text>
<polyline fill="none" stroke="black" points="73.5,-19.5 225.5,-19.5 "/>
<text text-anchor="middle" x="149.5" y="-7.5" font-family="Helvetica,sans-Serif" font-size="10.00"> </text>
</g>
<!-- Node2 -->
<g id="node2" class="node"><title>Node2</title>
<g id="a_node2"><a xlink:href="../../dd/d68/structGPUCA__NAMESPACE_1_1gpu_1_1ChargePos.html" target="_top" xlink:title="{GPUCA_NAMESPACE::gpu\l::ChargePos\n||}">
<polygon fill="none" stroke="black" points="0,-138.5 0,-206.5 143,-206.5 143,-138.5 0,-138.5"/>
<text text-anchor="start" x="8" y="-194.5" font-family="Helvetica,sans-Serif" font-size="10.00">GPUCA_NAMESPACE::gpu</text>
<text text-anchor="middle" x="71.5" y="-183.5" font-family="Helvetica,sans-Serif" font-size="10.00">::ChargePos</text>
<polyline fill="none" stroke="black" points="0,-176.5 143,-176.5 "/>
<text text-anchor="middle" x="71.5" y="-164.5" font-family="Helvetica,sans-Serif" font-size="10.00"> </text>
<polyline fill="none" stroke="black" points="0,-157.5 143,-157.5 "/>
<text text-anchor="middle" x="71.5" y="-145.5" font-family="Helvetica,sans-Serif" font-size="10.00"> </text>
</a>
</g>
</g>
<!-- Node2&#45;&gt;Node1 -->
<g id="edge1" class="edge"><title>Node2&#45;&gt;Node1</title>
<path fill="none" stroke="#404040" d="M86.2234,-138.265C92.316,-125.413 99.7625,-110.756 107.5,-98 109.175,-95.2379 110.949,-92.4422 112.784,-89.6488"/>
<polygon fill="none" stroke="#404040" points="112.869,-89.5252 112.942,-82.3144 119.626,-79.6088 119.553,-86.8196 112.869,-89.5252"/>
<text text-anchor="middle" x="135.5" y="-106.5" font-family="Helvetica,sans-Serif" font-size="10.00"> +posBcast1</text>
</g>
<!-- Node3 -->
<g id="node3" class="node"><title>Node3</title>
<polygon fill="none" stroke="#bfbfbf" points="49.5,-265.5 49.5,-322.5 93.5,-322.5 93.5,-265.5 49.5,-265.5"/>
<text text-anchor="middle" x="71.5" y="-310.5" font-family="Helvetica,sans-Serif" font-size="10.00">ushort</text>
<polyline fill="none" stroke="#bfbfbf" points="49.5,-303.5 93.5,-303.5 "/>
<text text-anchor="middle" x="71.5" y="-291.5" font-family="Helvetica,sans-Serif" font-size="10.00"> </text>
<polyline fill="none" stroke="#bfbfbf" points="49.5,-284.5 93.5,-284.5 "/>
<text text-anchor="middle" x="71.5" y="-272.5" font-family="Helvetica,sans-Serif" font-size="10.00"> </text>
</g>
<!-- Node3&#45;&gt;Node2 -->
<g id="edge2" class="edge"><title>Node3&#45;&gt;Node2</title>
<path fill="none" stroke="#404040" d="M71.5,-265.284C71.5,-251.465 71.5,-234.401 71.5,-218.749"/>
<polygon fill="none" stroke="#404040" points="71.5001,-218.589 67.5,-212.589 71.5,-206.589 75.5,-212.589 71.5001,-218.589"/>
<text text-anchor="middle" x="87" y="-239" font-family="Helvetica,sans-Serif" font-size="10.00"> +gpad</text>
<text text-anchor="middle" x="87" y="-228" font-family="Helvetica,sans-Serif" font-size="10.00">+time</text>
</g>
<!-- Node4 -->
<g id="node4" class="node"><title>Node4</title>
<polygon fill="none" stroke="#bfbfbf" points="161.5,-144 161.5,-201 217.5,-201 217.5,-144 161.5,-144"/>
<text text-anchor="middle" x="189.5" y="-189" font-family="Helvetica,sans-Serif" font-size="10.00">unsigned</text>
<polyline fill="none" stroke="#bfbfbf" points="161.5,-182 217.5,-182 "/>
<text text-anchor="middle" x="189.5" y="-170" font-family="Helvetica,sans-Serif" font-size="10.00"> </text>
<polyline fill="none" stroke="#bfbfbf" points="161.5,-163 217.5,-163 "/>
<text text-anchor="middle" x="189.5" y="-151" font-family="Helvetica,sans-Serif" font-size="10.00"> </text>
</g>
<!-- Node4&#45;&gt;Node1 -->
<g id="edge3" class="edge"><title>Node4&#45;&gt;Node1</title>
<path fill="none" stroke="#404040" d="M181.017,-143.824C176.314,-128.481 170.322,-108.932 164.828,-91.0086"/>
<polygon fill="none" stroke="#404040" points="164.825,-90.9987 159.243,-86.4343 161.309,-79.5255 166.891,-84.0898 164.825,-90.9987"/>
<text text-anchor="middle" x="224" y="-112" font-family="Helvetica,sans-Serif" font-size="10.00"> +buf</text>
<text text-anchor="middle" x="224" y="-101" font-family="Helvetica,sans-Serif" font-size="10.00">+aboveThresholdBcast</text>
</g>
</g>
</svg>
