<?xml version="1.0" encoding="UTF-8" standalone="no"?>
<!DOCTYPE svg PUBLIC "-//W3C//DTD SVG 1.1//EN"
 "http://www.w3.org/Graphics/SVG/1.1/DTD/svg11.dtd">
<!-- Generated by graphviz version 2.38.0 (20140413.2041)
 -->
<!-- Title: o2::framework::ConcreteDataMatcher Pages: 1 -->
<svg width="646pt" height="821pt"
 viewBox="0.00 0.00 645.50 821.00" xmlns="http://www.w3.org/2000/svg" xmlns:xlink="http://www.w3.org/1999/xlink">
<g id="graph0" class="graph" transform="scale(1 1) rotate(0) translate(4 817)">
<title>o2::framework::ConcreteDataMatcher</title>
<!-- Node1 -->
<g id="node1" class="node"><title>Node1</title>
<polygon fill="#bfbfbf" stroke="black" points="70.5,-0.5 70.5,-134.5 216.5,-134.5 216.5,-0.5 70.5,-0.5"/>
<text text-anchor="start" x="78.5" y="-122.5" font-family="Helvetica,sans-Serif" font-size="10.00">o2::framework::ConcreteData</text>
<text text-anchor="middle" x="143.5" y="-111.5" font-family="Helvetica,sans-Serif" font-size="10.00">Matcher</text>
<polyline fill="none" stroke="black" points="70.5,-104.5 216.5,-104.5 "/>
<text text-anchor="middle" x="143.5" y="-92.5" font-family="Helvetica,sans-Serif" font-size="10.00"> </text>
<polyline fill="none" stroke="black" points="70.5,-85.5 216.5,-85.5 "/>
<text text-anchor="start" x="78.5" y="-73.5" font-family="Helvetica,sans-Serif" font-size="10.00">+ ConcreteDataMatcher()</text>
<text text-anchor="start" x="78.5" y="-62.5" font-family="Helvetica,sans-Serif" font-size="10.00">+ ConcreteDataMatcher()</text>
<text text-anchor="start" x="78.5" y="-51.5" font-family="Helvetica,sans-Serif" font-size="10.00">+ ConcreteDataMatcher()</text>
<text text-anchor="start" x="78.5" y="-40.5" font-family="Helvetica,sans-Serif" font-size="10.00">+ operator=()</text>
<text text-anchor="start" x="78.5" y="-29.5" font-family="Helvetica,sans-Serif" font-size="10.00">+ operator=()</text>
<text text-anchor="start" x="78.5" y="-18.5" font-family="Helvetica,sans-Serif" font-size="10.00">+ operator==()</text>
<text text-anchor="start" x="78.5" y="-7.5" font-family="Helvetica,sans-Serif" font-size="10.00">+ operator!=()</text>
</g>
<!-- Node2 -->
<g id="node2" class="node"><title>Node2</title>
<polygon fill="none" stroke="#bfbfbf" points="0,-265 0,-322 51,-322 51,-265 0,-265"/>
<text text-anchor="middle" x="25.5" y="-310" font-family="Helvetica,sans-Serif" font-size="10.00">uint32_t</text>
<polyline fill="none" stroke="#bfbfbf" points="0,-303 51,-303 "/>
<text text-anchor="middle" x="25.5" y="-291" font-family="Helvetica,sans-Serif" font-size="10.00"> </text>
<polyline fill="none" stroke="#bfbfbf" points="0,-284 51,-284 "/>
<text text-anchor="middle" x="25.5" y="-272" font-family="Helvetica,sans-Serif" font-size="10.00"> </text>
</g>
<!-- Node2&#45;&gt;Node1 -->
<g id="edge1" class="edge"><title>Node2&#45;&gt;Node1</title>
<path fill="none" stroke="#404040" d="M31.286,-264.715C36.7087,-241.747 46.014,-208.693 59.5,-182 65.8476,-169.436 73.5739,-156.798 81.741,-144.751"/>
<polygon fill="none" stroke="#404040" points="81.8245,-144.631 81.9725,-137.421 88.6844,-134.785 88.5364,-141.995 81.8245,-144.631"/>
<text text-anchor="middle" x="99.5" y="-156" font-family="Helvetica,sans-Serif" font-size="10.00"> +subSpec</text>
</g>
<!-- Node3 -->
<g id="node3" class="node"><title>Node3</title>
<g id="a_node3"><a xlink:href="../../d9/db3/structo2_1_1header_1_1Descriptor.html" target="_top" xlink:title="{o2::header::Descriptor\l\&lt; gSizeDataOriginString,\l printDataOrigin \&gt;\n||+ Descriptor()\l+ Descriptor()\l+ Descriptor()\l+ Descriptor()\l+ operator=()\l+ operator ItgType()\l+ runtimeInit()\l+ operator==()\l+ operator==()\l+ operator\&lt;()\l+ operator!=()\l+ operator!=()\l+ as()\l+ print()\l}">
<polygon fill="none" stroke="black" points="381,-182.5 381,-404.5 506,-404.5 506,-182.5 381,-182.5"/>
<text text-anchor="start" x="389" y="-392.5" font-family="Helvetica,sans-Serif" font-size="10.00">o2::header::Descriptor</text>
<text text-anchor="start" x="389" y="-381.5" font-family="Helvetica,sans-Serif" font-size="10.00">&lt; gSizeDataOriginString,</text>
<text text-anchor="middle" x="443.5" y="-370.5" font-family="Helvetica,sans-Serif" font-size="10.00"> printDataOrigin &gt;</text>
<polyline fill="none" stroke="black" points="381,-363.5 506,-363.5 "/>
<text text-anchor="middle" x="443.5" y="-351.5" font-family="Helvetica,sans-Serif" font-size="10.00"> </text>
<polyline fill="none" stroke="black" points="381,-344.5 506,-344.5 "/>
<text text-anchor="start" x="389" y="-332.5" font-family="Helvetica,sans-Serif" font-size="10.00">+ Descriptor()</text>
<text text-anchor="start" x="389" y="-321.5" font-family="Helvetica,sans-Serif" font-size="10.00">+ Descriptor()</text>
<text text-anchor="start" x="389" y="-310.5" font-family="Helvetica,sans-Serif" font-size="10.00">+ Descriptor()</text>
<text text-anchor="start" x="389" y="-299.5" font-family="Helvetica,sans-Serif" font-size="10.00">+ Descriptor()</text>
<text text-anchor="start" x="389" y="-288.5" font-family="Helvetica,sans-Serif" font-size="10.00">+ operator=()</text>
<text text-anchor="start" x="389" y="-277.5" font-family="Helvetica,sans-Serif" font-size="10.00">+ operator ItgType()</text>
<text text-anchor="start" x="389" y="-266.5" font-family="Helvetica,sans-Serif" font-size="10.00">+ runtimeInit()</text>
<text text-anchor="start" x="389" y="-255.5" font-family="Helvetica,sans-Serif" font-size="10.00">+ operator==()</text>
<text text-anchor="start" x="389" y="-244.5" font-family="Helvetica,sans-Serif" font-size="10.00">+ operator==()</text>
<text text-anchor="start" x="389" y="-233.5" font-family="Helvetica,sans-Serif" font-size="10.00">+ operator&lt;()</text>
<text text-anchor="start" x="389" y="-222.5" font-family="Helvetica,sans-Serif" font-size="10.00">+ operator!=()</text>
<text text-anchor="start" x="389" y="-211.5" font-family="Helvetica,sans-Serif" font-size="10.00">+ operator!=()</text>
<text text-anchor="start" x="389" y="-200.5" font-family="Helvetica,sans-Serif" font-size="10.00">+ as()</text>
<text text-anchor="start" x="389" y="-189.5" font-family="Helvetica,sans-Serif" font-size="10.00">+ print()</text>
</a>
</g>
</g>
<!-- Node3&#45;&gt;Node1 -->
<g id="edge2" class="edge"><title>Node3&#45;&gt;Node1</title>
<path fill="none" stroke="#404040" d="M380.975,-245.815C336.059,-212.278 275.059,-166.73 226.129,-130.197"/>
<polygon fill="none" stroke="#404040" points="226.128,-130.196 218.927,-129.811 216.513,-123.016 223.714,-123.401 226.128,-130.196"/>
<text text-anchor="middle" x="284" y="-156" font-family="Helvetica,sans-Serif" font-size="10.00"> +origin</text>
</g>
<!-- Node4 -->
<g id="node4" class="node"><title>Node4</title>
<polygon fill="none" stroke="#bfbfbf" points="258.5,-755.5 258.5,-812.5 296.5,-812.5 296.5,-755.5 258.5,-755.5"/>
<text text-anchor="middle" x="277.5" y="-800.5" font-family="Helvetica,sans-Serif" font-size="10.00">Type</text>
<polyline fill="none" stroke="#bfbfbf" points="258.5,-793.5 296.5,-793.5 "/>
<text text-anchor="middle" x="277.5" y="-781.5" font-family="Helvetica,sans-Serif" font-size="10.00"> </text>
<polyline fill="none" stroke="#bfbfbf" points="258.5,-774.5 296.5,-774.5 "/>
<text text-anchor="middle" x="277.5" y="-762.5" font-family="Helvetica,sans-Serif" font-size="10.00"> </text>
</g>
<!-- Node4&#45;&gt;Node3 -->
<g id="edge3" class="edge"><title>Node4&#45;&gt;Node3</title>
<path fill="none" stroke="#404040" d="M270.008,-755.13C255.716,-695.082 232.04,-552.585 304.5,-474 336.893,-438.869 376.152,-489.221 410.5,-456 421.892,-444.981 429.9,-431.172 435.454,-416.294"/>
<polygon fill="none" stroke="#404040" points="435.504,-416.142 433.57,-409.195 439.239,-404.738 441.173,-411.685 435.504,-416.142"/>
<text text-anchor="middle" x="314.5" y="-577.5" font-family="Helvetica,sans-Serif" font-size="10.00"> +itg</text>
</g>
<!-- Node8 -->
<g id="node8" class="node"><title>Node8</title>
<g id="a_node8"><a xlink:href="../../d9/db3/structo2_1_1header_1_1Descriptor.html" target="_top" xlink:title="{o2::header::Descriptor\l\&lt; N, PrinterPolicy \&gt;\n||+ Descriptor()\l+ Descriptor()\l+ Descriptor()\l+ operator=()\l+ operator ItgType()\l+ Descriptor()\l+ runtimeInit()\l+ operator==()\l+ operator\&lt;()\l+ operator!=()\l+ operator==()\l+ operator!=()\l+ as()\l+ print()\l}">
<polygon fill="none" stroke="black" points="388,-474.5 388,-685.5 501,-685.5 501,-474.5 388,-474.5"/>
<text text-anchor="start" x="396" y="-673.5" font-family="Helvetica,sans-Serif" font-size="10.00">o2::header::Descriptor</text>
<text text-anchor="middle" x="444.5" y="-662.5" font-family="Helvetica,sans-Serif" font-size="10.00">&lt; N, PrinterPolicy &gt;</text>
<polyline fill="none" stroke="black" points="388,-655.5 501,-655.5 "/>
<text text-anchor="middle" x="444.5" y="-643.5" font-family="Helvetica,sans-Serif" font-size="10.00"> </text>
<polyline fill="none" stroke="black" points="388,-636.5 501,-636.5 "/>
<text text-anchor="start" x="396" y="-624.5" font-family="Helvetica,sans-Serif" font-size="10.00">+ Descriptor()</text>
<text text-anchor="start" x="396" y="-613.5" font-family="Helvetica,sans-Serif" font-size="10.00">+ Descriptor()</text>
<text text-anchor="start" x="396" y="-602.5" font-family="Helvetica,sans-Serif" font-size="10.00">+ Descriptor()</text>
<text text-anchor="start" x="396" y="-591.5" font-family="Helvetica,sans-Serif" font-size="10.00">+ operator=()</text>
<text text-anchor="start" x="396" y="-580.5" font-family="Helvetica,sans-Serif" font-size="10.00">+ operator ItgType()</text>
<text text-anchor="start" x="396" y="-569.5" font-family="Helvetica,sans-Serif" font-size="10.00">+ Descriptor()</text>
<text text-anchor="start" x="396" y="-558.5" font-family="Helvetica,sans-Serif" font-size="10.00">+ runtimeInit()</text>
<text text-anchor="start" x="396" y="-547.5" font-family="Helvetica,sans-Serif" font-size="10.00">+ operator==()</text>
<text text-anchor="start" x="396" y="-536.5" font-family="Helvetica,sans-Serif" font-size="10.00">+ operator&lt;()</text>
<text text-anchor="start" x="396" y="-525.5" font-family="Helvetica,sans-Serif" font-size="10.00">+ operator!=()</text>
<text text-anchor="start" x="396" y="-514.5" font-family="Helvetica,sans-Serif" font-size="10.00">+ operator==()</text>
<text text-anchor="start" x="396" y="-503.5" font-family="Helvetica,sans-Serif" font-size="10.00">+ operator!=()</text>
<text text-anchor="start" x="396" y="-492.5" font-family="Helvetica,sans-Serif" font-size="10.00">+ as()</text>
<text text-anchor="start" x="396" y="-481.5" font-family="Helvetica,sans-Serif" font-size="10.00">+ print()</text>
</a>
</g>
</g>
<!-- Node4&#45;&gt;Node8 -->
<g id="edge8" class="edge"><title>Node4&#45;&gt;Node8</title>
<path fill="none" stroke="#404040" d="M296.847,-763.524C320.146,-739.949 357.742,-701.485 370.5,-686 373.861,-681.92 377.235,-677.696 380.589,-673.388"/>
<polygon fill="none" stroke="#404040" points="380.595,-673.379 381.066,-666.184 387.889,-663.85 387.419,-671.046 380.595,-673.379"/>
<text text-anchor="middle" x="364.5" y="-718" font-family="Helvetica,sans-Serif" font-size="10.00"> +itg</text>
</g>
<!-- Node10 -->
<g id="node10" class="node"><title>Node10</title>
<g id="a_node10"><a xlink:href="../../d9/db3/structo2_1_1header_1_1Descriptor.html" target="_top" xlink:title="{o2::header::Descriptor\l\&lt; gSizeDataDescriptionString,\l printDataDescription \&gt;\n||+ Descriptor()\l+ Descriptor()\l+ Descriptor()\l+ Descriptor()\l+ operator=()\l+ operator ItgType()\l+ runtimeInit()\l+ operator==()\l+ operator==()\l+ operator\&lt;()\l+ operator!=()\l+ operator!=()\l+ as()\l+ print()\l}">
<polygon fill="none" stroke="black" points="69,-182.5 69,-404.5 218,-404.5 218,-182.5 69,-182.5"/>
<text text-anchor="start" x="77" y="-392.5" font-family="Helvetica,sans-Serif" font-size="10.00">o2::header::Descriptor</text>
<text text-anchor="start" x="77" y="-381.5" font-family="Helvetica,sans-Serif" font-size="10.00">&lt; gSizeDataDescriptionString,</text>
<text text-anchor="middle" x="143.5" y="-370.5" font-family="Helvetica,sans-Serif" font-size="10.00"> printDataDescription &gt;</text>
<polyline fill="none" stroke="black" points="69,-363.5 218,-363.5 "/>
<text text-anchor="middle" x="143.5" y="-351.5" font-family="Helvetica,sans-Serif" font-size="10.00"> </text>
<polyline fill="none" stroke="black" points="69,-344.5 218,-344.5 "/>
<text text-anchor="start" x="77" y="-332.5" font-family="Helvetica,sans-Serif" font-size="10.00">+ Descriptor()</text>
<text text-anchor="start" x="77" y="-321.5" font-family="Helvetica,sans-Serif" font-size="10.00">+ Descriptor()</text>
<text text-anchor="start" x="77" y="-310.5" font-family="Helvetica,sans-Serif" font-size="10.00">+ Descriptor()</text>
<text text-anchor="start" x="77" y="-299.5" font-family="Helvetica,sans-Serif" font-size="10.00">+ Descriptor()</text>
<text text-anchor="start" x="77" y="-288.5" font-family="Helvetica,sans-Serif" font-size="10.00">+ operator=()</text>
<text text-anchor="start" x="77" y="-277.5" font-family="Helvetica,sans-Serif" font-size="10.00">+ operator ItgType()</text>
<text text-anchor="start" x="77" y="-266.5" font-family="Helvetica,sans-Serif" font-size="10.00">+ runtimeInit()</text>
<text text-anchor="start" x="77" y="-255.5" font-family="Helvetica,sans-Serif" font-size="10.00">+ operator==()</text>
<text text-anchor="start" x="77" y="-244.5" font-family="Helvetica,sans-Serif" font-size="10.00">+ operator==()</text>
<text text-anchor="start" x="77" y="-233.5" font-family="Helvetica,sans-Serif" font-size="10.00">+ operator&lt;()</text>
<text text-anchor="start" x="77" y="-222.5" font-family="Helvetica,sans-Serif" font-size="10.00">+ operator!=()</text>
<text text-anchor="start" x="77" y="-211.5" font-family="Helvetica,sans-Serif" font-size="10.00">+ operator!=()</text>
<text text-anchor="start" x="77" y="-200.5" font-family="Helvetica,sans-Serif" font-size="10.00">+ as()</text>
<text text-anchor="start" x="77" y="-189.5" font-family="Helvetica,sans-Serif" font-size="10.00">+ print()</text>
</a>
</g>
</g>
<!-- Node4&#45;&gt;Node10 -->
<g id="edge13" class="edge"><title>Node4&#45;&gt;Node10</title>
<path fill="none" stroke="#404040" d="M258.282,-780.842C215.097,-774.845 110.708,-753.677 66.5,-686 2.56764,-588.129 30.0565,-535.31 62.5,-423 63.2004,-420.575 63.9617,-418.152 64.7783,-415.734"/>
<polygon fill="none" stroke="#404040" points="64.7875,-415.709 63.1374,-408.69 68.9826,-404.467 70.6326,-411.486 64.7875,-415.709"/>
<text text-anchor="middle" x="76.5" y="-577.5" font-family="Helvetica,sans-Serif" font-size="10.00"> +itg</text>
</g>
<!-- Node5 -->
<g id="node5" class="node"><title>Node5</title>
<polygon fill="none" stroke="#bfbfbf" points="315,-755.5 315,-812.5 350,-812.5 350,-755.5 315,-755.5"/>
<text text-anchor="middle" x="332.5" y="-800.5" font-family="Helvetica,sans-Serif" font-size="10.00">char</text>
<polyline fill="none" stroke="#bfbfbf" points="315,-793.5 350,-793.5 "/>
<text text-anchor="middle" x="332.5" y="-781.5" font-family="Helvetica,sans-Serif" font-size="10.00"> </text>
<polyline fill="none" stroke="#bfbfbf" points="315,-774.5 350,-774.5 "/>
<text text-anchor="middle" x="332.5" y="-762.5" font-family="Helvetica,sans-Serif" font-size="10.00"> </text>
</g>
<!-- Node5&#45;&gt;Node3 -->
<g id="edge4" class="edge"><title>Node5&#45;&gt;Node3</title>
<path fill="none" stroke="#404040" d="M330.694,-755.039C326.915,-686.982 321.292,-515.264 357.5,-474 382.682,-445.301 417.313,-485.543 441.5,-456 450.798,-444.643 456.377,-431.179 459.37,-416.943"/>
<polygon fill="none" stroke="#404040" points="459.411,-416.684 456.405,-410.129 461.3,-404.834 464.306,-411.389 459.411,-416.684"/>
<text text-anchor="middle" x="368" y="-577.5" font-family="Helvetica,sans-Serif" font-size="10.00"> +str</text>
</g>
<!-- Node5&#45;&gt;Node8 -->
<g id="edge9" class="edge"><title>Node5&#45;&gt;Node8</title>
<path fill="none" stroke="#404040" d="M350.273,-771.114C361.658,-762.726 376.024,-750.593 385.5,-737 394.058,-724.723 401.566,-711.045 408.098,-697.032"/>
<polygon fill="none" stroke="#404040" points="408.244,-696.703 407.033,-689.595 413.128,-685.742 414.34,-692.851 408.244,-696.703"/>
<text text-anchor="middle" x="415" y="-718" font-family="Helvetica,sans-Serif" font-size="10.00"> +str</text>
</g>
<!-- Node5&#45;&gt;Node10 -->
<g id="edge14" class="edge"><title>Node5&#45;&gt;Node10</title>
<path fill="none" stroke="#404040" d="M314.712,-762.798C311.784,-760.003 308.666,-757.305 305.5,-755 249.099,-713.934 209.636,-739.2 164.5,-686 125.41,-639.926 84.7572,-482.46 95.5,-423 95.8956,-420.81 96.3263,-418.609 96.789,-416.401"/>
<polygon fill="none" stroke="#404040" points="96.8297,-416.225 94.2943,-409.475 99.5506,-404.538 102.086,-411.289 96.8297,-416.225"/>
<text text-anchor="middle" x="175" y="-577.5" font-family="Helvetica,sans-Serif" font-size="10.00"> +str</text>
</g>
<!-- Node6 -->
<g id="node6" class="node"><title>Node6</title>
<polygon fill="none" stroke="#bfbfbf" points="195,-551.5 195,-608.5 224,-608.5 224,-551.5 195,-551.5"/>
<text text-anchor="middle" x="209.5" y="-596.5" font-family="Helvetica,sans-Serif" font-size="10.00">int</text>
<polyline fill="none" stroke="#bfbfbf" points="195,-589.5 224,-589.5 "/>
<text text-anchor="middle" x="209.5" y="-577.5" font-family="Helvetica,sans-Serif" font-size="10.00"> </text>
<polyline fill="none" stroke="#bfbfbf" points="195,-570.5 224,-570.5 "/>
<text text-anchor="middle" x="209.5" y="-558.5" font-family="Helvetica,sans-Serif" font-size="10.00"> </text>
</g>
<!-- Node6&#45;&gt;Node3 -->
<g id="edge5" class="edge"><title>Node6&#45;&gt;Node3</title>
<path fill="none" stroke="#404040" d="M216.673,-551.083C224.132,-527.411 238.071,-494.178 261.5,-474 281.309,-456.94 296.066,-470.968 317.5,-456 338.013,-441.674 356.768,-423.024 373.182,-403.509"/>
<polygon fill="none" stroke="#404040" points="373.208,-403.477 373.908,-396.3 380.802,-394.186 380.102,-401.363 373.208,-403.477"/>
<text text-anchor="middle" x="381" y="-448" font-family="Helvetica,sans-Serif" font-size="10.00"> +arraySize</text>
<text text-anchor="middle" x="381" y="-437" font-family="Helvetica,sans-Serif" font-size="10.00">+size</text>
<text text-anchor="middle" x="381" y="-426" font-family="Helvetica,sans-Serif" font-size="10.00">+bitcount</text>
</g>
<!-- Node6&#45;&gt;Node10 -->
<g id="edge15" class="edge"><title>Node6&#45;&gt;Node10</title>
<path fill="none" stroke="#404040" d="M194.982,-554.261C181.025,-531.748 158.421,-498.404 133.5,-474 123.458,-464.167 114.023,-468.449 107.5,-456 101.055,-443.7 98.3281,-430.286 98.1442,-416.619"/>
<polygon fill="none" stroke="#404040" points="98.1465,-416.555 94.3801,-410.406 98.6078,-404.564 102.374,-410.713 98.1465,-416.555"/>
<text text-anchor="middle" x="133" y="-448" font-family="Helvetica,sans-Serif" font-size="10.00"> +arraySize</text>
<text text-anchor="middle" x="133" y="-437" font-family="Helvetica,sans-Serif" font-size="10.00">+size</text>
<text text-anchor="middle" x="133" y="-426" font-family="Helvetica,sans-Serif" font-size="10.00">+bitcount</text>
</g>
<!-- Node7 -->
<g id="node7" class="node"><title>Node7</title>
<polygon fill="none" stroke="#bfbfbf" points="523,-755.5 523,-812.5 620,-812.5 620,-755.5 523,-755.5"/>
<text text-anchor="middle" x="571.5" y="-800.5" font-family="Helvetica,sans-Serif" font-size="10.00">anonymous:+@24</text>
<polyline fill="none" stroke="#bfbfbf" points="523,-793.5 620,-793.5 "/>
<text text-anchor="middle" x="571.5" y="-781.5" font-family="Helvetica,sans-Serif" font-size="10.00"> </text>
<polyline fill="none" stroke="#bfbfbf" points="523,-774.5 620,-774.5 "/>
<text text-anchor="middle" x="571.5" y="-762.5" font-family="Helvetica,sans-Serif" font-size="10.00"> </text>
</g>
<!-- Node7&#45;&gt;Node3 -->
<g id="edge6" class="edge"><title>Node7&#45;&gt;Node3</title>
<path fill="none" stroke="#404040" d="M581.43,-755.083C583.121,-749.185 584.615,-742.945 585.5,-737 587.659,-722.493 585.552,-718.667 585.5,-704 585.056,-579.109 634.159,-537.156 583.5,-423 569.138,-390.637 542.214,-362.825 515.783,-341.436"/>
<polygon fill="none" stroke="#404040" points="515.542,-341.247 508.351,-340.698 506.092,-333.85 513.283,-334.399 515.542,-341.247"/>
<text text-anchor="middle" x="622" y="-577.5" font-family="Helvetica,sans-Serif" font-size="10.00"> +@24</text>
</g>
<!-- Node7&#45;&gt;Node8 -->
<g id="edge10" class="edge"><title>Node7&#45;&gt;Node8</title>
<path fill="none" stroke="#404040" d="M542.042,-755.45C536.552,-749.627 531.102,-743.323 526.5,-737 517.317,-724.384 508.539,-710.603 500.368,-696.622"/>
<polygon fill="none" stroke="#404040" points="500.198,-696.325 493.747,-693.102 494.241,-685.908 500.692,-689.131 500.198,-696.325"/>
<text text-anchor="middle" x="542" y="-718" font-family="Helvetica,sans-Serif" font-size="10.00"> +@24</text>
</g>
<!-- Node7&#45;&gt;Node10 -->
<g id="edge16" class="edge"><title>Node7&#45;&gt;Node10</title>
<path fill="none" stroke="#404040" d="M567.619,-755.369C565.222,-740.107 561.784,-720.876 557.5,-704 555.425,-695.826 553.657,-694.152 551.5,-686 526.93,-593.142 571.402,-547.446 509.5,-474 495.084,-456.896 482.95,-465.064 462.5,-456 417.784,-436.181 307.24,-379.564 228.857,-338.963"/>
<polygon fill="none" stroke="#404040" points="228.674,-338.869 221.506,-339.659 218.02,-333.346 225.188,-332.556 228.674,-338.869"/>
<text text-anchor="middle" x="567" y="-577.5" font-family="Helvetica,sans-Serif" font-size="10.00"> +@24</text>
</g>
<!-- Node8&#45;&gt;Node3 -->
<g id="edge7" class="edge"><title>Node8&#45;&gt;Node3</title>
<path fill="none" stroke="orange" d="M465.684,-464.306C465.984,-461.513 466.257,-458.742 466.5,-456 467.977,-439.356 467.551,-421.806 466.022,-404.651"/>
<polygon fill="orange" stroke="orange" points="462.178,-464.15 464.491,-474.49 469.131,-464.965 462.178,-464.15"/>
<text text-anchor="start" x="467.5" y="-442.5" font-family="Helvetica,sans-Serif" font-size="10.00"> &lt; gSizeDataOriginString,</text>
<text text-anchor="middle" x="523.5" y="-431.5" font-family="Helvetica,sans-Serif" font-size="10.00"> printDataOrigin &gt;</text>
</g>
<!-- Node8&#45;&gt;Node10 -->
<g id="edge17" class="edge"><title>Node8&#45;&gt;Node10</title>
<path fill="none" stroke="orange" d="M380.014,-480.296C376.952,-478.011 373.781,-475.9 370.5,-474 333.225,-452.413 209.652,-484.666 177.5,-456 168.571,-448.039 161.85,-428.09 156.846,-404.819"/>
<polygon fill="orange" stroke="orange" points="377.91,-483.097 387.864,-486.727 382.346,-477.682 377.91,-483.097"/>
<text text-anchor="start" x="177.5" y="-442.5" font-family="Helvetica,sans-Serif" font-size="10.00"> &lt; gSizeDataDescriptionString,</text>
<text text-anchor="middle" x="245.5" y="-431.5" font-family="Helvetica,sans-Serif" font-size="10.00"> printDataDescription &gt;</text>
</g>
<!-- Node9 -->
<g id="node9" class="node"><title>Node9</title>
<polygon fill="none" stroke="#bfbfbf" points="431,-755.5 431,-812.5 472,-812.5 472,-755.5 431,-755.5"/>
<text text-anchor="middle" x="451.5" y="-800.5" font-family="Helvetica,sans-Serif" font-size="10.00">static</text>
<polyline fill="none" stroke="#bfbfbf" points="431,-793.5 472,-793.5 "/>
<text text-anchor="middle" x="451.5" y="-781.5" font-family="Helvetica,sans-Serif" font-size="10.00"> </text>
<polyline fill="none" stroke="#bfbfbf" points="431,-774.5 472,-774.5 "/>
<text text-anchor="middle" x="451.5" y="-762.5" font-family="Helvetica,sans-Serif" font-size="10.00"> </text>
</g>
<!-- Node9&#45;&gt;Node8 -->
<g id="edge11" class="edge"><title>Node9&#45;&gt;Node8</title>
<path fill="none" stroke="#404040" d="M450.541,-755.336C450.004,-739.838 449.294,-719.34 448.55,-697.861"/>
<polygon fill="none" stroke="#404040" points="448.549,-697.846 444.344,-691.988 448.134,-685.853 452.339,-691.711 448.549,-697.846"/>
<text text-anchor="middle" x="476" y="-729" font-family="Helvetica,sans-Serif" font-size="10.00"> +arraySize</text>
<text text-anchor="middle" x="476" y="-718" font-family="Helvetica,sans-Serif" font-size="10.00">+size</text>
<text text-anchor="middle" x="476" y="-707" font-family="Helvetica,sans-Serif" font-size="10.00">+bitcount</text>
</g>
<!-- Node10&#45;&gt;Node1 -->
<g id="edge12" class="edge"><title>Node10&#45;&gt;Node1</title>
<path fill="none" stroke="#404040" d="M143.5,-182.469C143.5,-170.443 143.5,-158.388 143.5,-146.857"/>
<polygon fill="none" stroke="#404040" points="143.5,-146.576 139.5,-140.576 143.5,-134.576 147.5,-140.576 143.5,-146.576"/>
<text text-anchor="middle" x="172" y="-156" font-family="Helvetica,sans-Serif" font-size="10.00"> +description</text>
</g>
</g>
</svg>
