<?xml version="1.0" encoding="UTF-8" standalone="no"?>
<!DOCTYPE svg PUBLIC "-//W3C//DTD SVG 1.1//EN"
 "http://www.w3.org/Graphics/SVG/1.1/DTD/svg11.dtd">
<!-- Generated by graphviz version 2.38.0 (20140413.2041)
 -->
<!-- Title: o2::data::SubEventInfo Pages: 1 -->
<svg width="604pt" height="496pt"
 viewBox="0.00 0.00 604.00 496.00" xmlns="http://www.w3.org/2000/svg" xmlns:xlink="http://www.w3.org/1999/xlink">
<g id="graph0" class="graph" transform="scale(1 1) rotate(0) translate(4 492)">
<title>o2::data::SubEventInfo</title>
<!-- Node1 -->
<g id="node1" class="node"><title>Node1</title>
<polygon fill="#bfbfbf" stroke="black" points="325.5,-0.5 325.5,-57.5 442.5,-57.5 442.5,-0.5 325.5,-0.5"/>
<text text-anchor="middle" x="384" y="-45.5" font-family="Helvetica,sans-Serif" font-size="10.00">o2::data::SubEventInfo</text>
<polyline fill="none" stroke="black" points="325.5,-38.5 442.5,-38.5 "/>
<text text-anchor="middle" x="384" y="-26.5" font-family="Helvetica,sans-Serif" font-size="10.00"> </text>
<polyline fill="none" stroke="black" points="325.5,-19.5 442.5,-19.5 "/>
<text text-anchor="start" x="333.5" y="-7.5" font-family="Helvetica,sans-Serif" font-size="10.00">+ ClassDefNV()</text>
</g>
<!-- Node2 -->
<g id="node2" class="node"><title>Node2</title>
<g id="a_node2"><a xlink:href="../../d4/db1/classo2_1_1dataformats_1_1MCEventHeader.html" target="_top" xlink:title="{o2::dataformats::MCEvent\lHeader\n||+ MCEventHeader()\l+ MCEventHeader()\l+ operator=()\l+ ~MCEventHeader()\l+ setEmbeddingFileName()\l+ setEmbeddingEventIndex()\l+ Reset()\l+ getMCEventStats()\l# ClassDefOverride()\l}">
<polygon fill="none" stroke="black" points="138.5,-127.5 138.5,-283.5 281.5,-283.5 281.5,-127.5 138.5,-127.5"/>
<text text-anchor="start" x="146.5" y="-271.5" font-family="Helvetica,sans-Serif" font-size="10.00">o2::dataformats::MCEvent</text>
<text text-anchor="middle" x="210" y="-260.5" font-family="Helvetica,sans-Serif" font-size="10.00">Header</text>
<polyline fill="none" stroke="black" points="138.5,-253.5 281.5,-253.5 "/>
<text text-anchor="middle" x="210" y="-241.5" font-family="Helvetica,sans-Serif" font-size="10.00"> </text>
<polyline fill="none" stroke="black" points="138.5,-234.5 281.5,-234.5 "/>
<text text-anchor="start" x="146.5" y="-222.5" font-family="Helvetica,sans-Serif" font-size="10.00">+ MCEventHeader()</text>
<text text-anchor="start" x="146.5" y="-211.5" font-family="Helvetica,sans-Serif" font-size="10.00">+ MCEventHeader()</text>
<text text-anchor="start" x="146.5" y="-200.5" font-family="Helvetica,sans-Serif" font-size="10.00">+ operator=()</text>
<text text-anchor="start" x="146.5" y="-189.5" font-family="Helvetica,sans-Serif" font-size="10.00">+ ~MCEventHeader()</text>
<text text-anchor="start" x="146.5" y="-178.5" font-family="Helvetica,sans-Serif" font-size="10.00">+ setEmbeddingFileName()</text>
<text text-anchor="start" x="146.5" y="-167.5" font-family="Helvetica,sans-Serif" font-size="10.00">+ setEmbeddingEventIndex()</text>
<text text-anchor="start" x="146.5" y="-156.5" font-family="Helvetica,sans-Serif" font-size="10.00">+ Reset()</text>
<text text-anchor="start" x="146.5" y="-145.5" font-family="Helvetica,sans-Serif" font-size="10.00">+ getMCEventStats()</text>
<text text-anchor="start" x="146.5" y="-134.5" font-family="Helvetica,sans-Serif" font-size="10.00"># ClassDefOverride()</text>
</a>
</g>
</g>
<!-- Node2&#45;&gt;Node1 -->
<g id="edge1" class="edge"><title>Node2&#45;&gt;Node1</title>
<path fill="none" stroke="#404040" d="M216.168,-127.213C220.946,-108.586 228.903,-90.0358 242,-76 260.543,-56.1267 287.729,-44.8164 313.363,-38.3883"/>
<polygon fill="none" stroke="#404040" points="313.676,-38.3179 318.653,-33.0997 325.384,-35.6869 320.407,-40.9051 313.676,-38.3179"/>
<text text-anchor="middle" x="287.5" y="-90" font-family="Helvetica,sans-Serif" font-size="10.00"> +mMCEventHeader</text>
</g>
<!-- Node3 -->
<g id="node3" class="node"><title>Node3</title>
<g id="a_node3"><a xlink:href="../../dd/d8f/classFairMCEventHeader.html" target="_top" xlink:title="{FairMCEventHeader\n||}">
<polygon fill="none" stroke="black" points="0,-381 0,-438 106,-438 106,-381 0,-381"/>
<text text-anchor="middle" x="53" y="-426" font-family="Helvetica,sans-Serif" font-size="10.00">FairMCEventHeader</text>
<polyline fill="none" stroke="black" points="0,-419 106,-419 "/>
<text text-anchor="middle" x="53" y="-407" font-family="Helvetica,sans-Serif" font-size="10.00"> </text>
<polyline fill="none" stroke="black" points="0,-400 106,-400 "/>
<text text-anchor="middle" x="53" y="-388" font-family="Helvetica,sans-Serif" font-size="10.00"> </text>
</a>
</g>
</g>
<!-- Node3&#45;&gt;Node2 -->
<g id="edge2" class="edge"><title>Node3&#45;&gt;Node2</title>
<path fill="none" stroke="midnightblue" d="M80.71,-372.848C99.8574,-348.212 126.069,-314.487 149.888,-283.842"/>
<polygon fill="none" stroke="midnightblue" points="77.8742,-370.793 74.501,-380.836 83.4012,-375.089 77.8742,-370.793"/>
</g>
<!-- Node4 -->
<g id="node4" class="node"><title>Node4</title>
<polygon fill="none" stroke="#bfbfbf" points="124.5,-381 124.5,-438 165.5,-438 165.5,-381 124.5,-381"/>
<text text-anchor="middle" x="145" y="-426" font-family="Helvetica,sans-Serif" font-size="10.00">string</text>
<polyline fill="none" stroke="#bfbfbf" points="124.5,-419 165.5,-419 "/>
<text text-anchor="middle" x="145" y="-407" font-family="Helvetica,sans-Serif" font-size="10.00"> </text>
<polyline fill="none" stroke="#bfbfbf" points="124.5,-400 165.5,-400 "/>
<text text-anchor="middle" x="145" y="-388" font-family="Helvetica,sans-Serif" font-size="10.00"> </text>
</g>
<!-- Node4&#45;&gt;Node2 -->
<g id="edge3" class="edge"><title>Node4&#45;&gt;Node2</title>
<path fill="none" stroke="#404040" d="M140.978,-380.694C138.821,-358.804 138.025,-327.791 146,-302 146.749,-299.579 147.58,-297.164 148.485,-294.759"/>
<polygon fill="none" stroke="#404040" points="148.531,-294.651 147.19,-287.566 153.214,-283.603 154.555,-290.688 148.531,-294.651"/>
<text text-anchor="middle" x="200" y="-305" font-family="Helvetica,sans-Serif" font-size="10.00"> #mEmbeddingFileName</text>
</g>
<!-- Node5 -->
<g id="node5" class="node"><title>Node5</title>
<polygon fill="none" stroke="#bfbfbf" points="258,-381 258,-438 294,-438 294,-381 258,-381"/>
<text text-anchor="middle" x="276" y="-426" font-family="Helvetica,sans-Serif" font-size="10.00">Int_t</text>
<polyline fill="none" stroke="#bfbfbf" points="258,-419 294,-419 "/>
<text text-anchor="middle" x="276" y="-407" font-family="Helvetica,sans-Serif" font-size="10.00"> </text>
<polyline fill="none" stroke="#bfbfbf" points="258,-400 294,-400 "/>
<text text-anchor="middle" x="276" y="-388" font-family="Helvetica,sans-Serif" font-size="10.00"> </text>
</g>
<!-- Node5&#45;&gt;Node2 -->
<g id="edge4" class="edge"><title>Node5&#45;&gt;Node2</title>
<path fill="none" stroke="#404040" d="M272.075,-380.912C268.556,-359.143 262.611,-328.185 254,-302 253.22,-299.629 252.398,-297.239 251.541,-294.839"/>
<polygon fill="none" stroke="#404040" points="251.524,-294.793 245.666,-290.588 247.295,-283.563 253.153,-287.768 251.524,-294.793"/>
<text text-anchor="middle" x="314.5" y="-305" font-family="Helvetica,sans-Serif" font-size="10.00"> #mEmbeddingEventIndex</text>
</g>
<!-- Node6 -->
<g id="node6" class="node"><title>Node6</title>
<g id="a_node6"><a xlink:href="../../d9/ddb/classo2_1_1dataformats_1_1MCEventStats.html" target="_top" xlink:title="{o2::dataformats::MCEvent\lStats\n||+ setNHits()\l+ getNHits()\l+ setNTransportedTracks()\l+ getNTransportedTracks()\l+ setNKeptTracks()\l+ getNKeptTracks()\l+ setNSteps()\l+ getNSteps()\l+ add()\l}">
<polygon fill="none" stroke="black" points="347,-331.5 347,-487.5 481,-487.5 481,-331.5 347,-331.5"/>
<text text-anchor="start" x="355" y="-475.5" font-family="Helvetica,sans-Serif" font-size="10.00">o2::dataformats::MCEvent</text>
<text text-anchor="middle" x="414" y="-464.5" font-family="Helvetica,sans-Serif" font-size="10.00">Stats</text>
<polyline fill="none" stroke="black" points="347,-457.5 481,-457.5 "/>
<text text-anchor="middle" x="414" y="-445.5" font-family="Helvetica,sans-Serif" font-size="10.00"> </text>
<polyline fill="none" stroke="black" points="347,-438.5 481,-438.5 "/>
<text text-anchor="start" x="355" y="-426.5" font-family="Helvetica,sans-Serif" font-size="10.00">+ setNHits()</text>
<text text-anchor="start" x="355" y="-415.5" font-family="Helvetica,sans-Serif" font-size="10.00">+ getNHits()</text>
<text text-anchor="start" x="355" y="-404.5" font-family="Helvetica,sans-Serif" font-size="10.00">+ setNTransportedTracks()</text>
<text text-anchor="start" x="355" y="-393.5" font-family="Helvetica,sans-Serif" font-size="10.00">+ getNTransportedTracks()</text>
<text text-anchor="start" x="355" y="-382.5" font-family="Helvetica,sans-Serif" font-size="10.00">+ setNKeptTracks()</text>
<text text-anchor="start" x="355" y="-371.5" font-family="Helvetica,sans-Serif" font-size="10.00">+ getNKeptTracks()</text>
<text text-anchor="start" x="355" y="-360.5" font-family="Helvetica,sans-Serif" font-size="10.00">+ setNSteps()</text>
<text text-anchor="start" x="355" y="-349.5" font-family="Helvetica,sans-Serif" font-size="10.00">+ getNSteps()</text>
<text text-anchor="start" x="355" y="-338.5" font-family="Helvetica,sans-Serif" font-size="10.00">+ add()</text>
</a>
</g>
</g>
<!-- Node6&#45;&gt;Node2 -->
<g id="edge5" class="edge"><title>Node6&#45;&gt;Node2</title>
<path fill="none" stroke="#404040" d="M397.411,-331.497C392.132,-320.372 385.173,-310 376,-302 349.214,-278.639 328.52,-298.056 292.9,-284.392"/>
<polygon fill="none" stroke="#404040" points="292.788,-284.34 285.664,-285.454 281.896,-279.305 289.02,-278.192 292.788,-284.34"/>
<text text-anchor="middle" x="418" y="-305" font-family="Helvetica,sans-Serif" font-size="10.00"> #mEventStats</text>
</g>
<!-- Node7 -->
<g id="node7" class="node"><title>Node7</title>
<polygon fill="none" stroke="#bfbfbf" points="299.5,-177 299.5,-234 350.5,-234 350.5,-177 299.5,-177"/>
<text text-anchor="middle" x="325" y="-222" font-family="Helvetica,sans-Serif" font-size="10.00">uint16_t</text>
<polyline fill="none" stroke="#bfbfbf" points="299.5,-215 350.5,-215 "/>
<text text-anchor="middle" x="325" y="-203" font-family="Helvetica,sans-Serif" font-size="10.00"> </text>
<polyline fill="none" stroke="#bfbfbf" points="299.5,-196 350.5,-196 "/>
<text text-anchor="middle" x="325" y="-184" font-family="Helvetica,sans-Serif" font-size="10.00"> </text>
</g>
<!-- Node7&#45;&gt;Node1 -->
<g id="edge6" class="edge"><title>Node7&#45;&gt;Node1</title>
<path fill="none" stroke="#404040" d="M325.743,-176.757C327.369,-149.909 332.305,-108.602 347,-76 348.253,-73.2203 349.714,-70.4654 351.319,-67.7671"/>
<polygon fill="none" stroke="#404040" points="351.386,-67.6679 351.412,-60.4568 358.078,-57.7077 358.052,-64.9188 351.386,-67.6679"/>
<text text-anchor="middle" x="364" y="-95.5" font-family="Helvetica,sans-Serif" font-size="10.00"> +part</text>
<text text-anchor="middle" x="364" y="-84.5" font-family="Helvetica,sans-Serif" font-size="10.00">+nparts</text>
</g>
<!-- Node8 -->
<g id="node8" class="node"><title>Node8</title>
<g id="a_node8"><a xlink:href="../../d4/dc3/classfloat.html" target="_top" xlink:title="{float\n||}">
<polygon fill="none" stroke="black" points="368.5,-177 368.5,-234 403.5,-234 403.5,-177 368.5,-177"/>
<text text-anchor="middle" x="386" y="-222" font-family="Helvetica,sans-Serif" font-size="10.00">float</text>
<polyline fill="none" stroke="black" points="368.5,-215 403.5,-215 "/>
<text text-anchor="middle" x="386" y="-203" font-family="Helvetica,sans-Serif" font-size="10.00"> </text>
<polyline fill="none" stroke="black" points="368.5,-196 403.5,-196 "/>
<text text-anchor="middle" x="386" y="-184" font-family="Helvetica,sans-Serif" font-size="10.00"> </text>
</a>
</g>
</g>
<!-- Node8&#45;&gt;Node1 -->
<g id="edge7" class="edge"><title>Node8&#45;&gt;Node1</title>
<path fill="none" stroke="#404040" d="M385.683,-176.85C385.352,-148.004 384.831,-102.51 384.456,-69.8016"/>
<polygon fill="none" stroke="#404040" points="384.453,-69.5199 380.384,-63.5662 384.315,-57.5207 388.384,-63.4744 384.453,-69.5199"/>
<text text-anchor="middle" x="411" y="-90" font-family="Helvetica,sans-Serif" font-size="10.00"> +eventtime</text>
</g>
<!-- Node9 -->
<g id="node9" class="node"><title>Node9</title>
<polygon fill="none" stroke="#bfbfbf" points="436,-177 436,-234 482,-234 482,-177 436,-177"/>
<text text-anchor="middle" x="459" y="-222" font-family="Helvetica,sans-Serif" font-size="10.00">int32_t</text>
<polyline fill="none" stroke="#bfbfbf" points="436,-215 482,-215 "/>
<text text-anchor="middle" x="459" y="-203" font-family="Helvetica,sans-Serif" font-size="10.00"> </text>
<polyline fill="none" stroke="#bfbfbf" points="436,-196 482,-196 "/>
<text text-anchor="middle" x="459" y="-184" font-family="Helvetica,sans-Serif" font-size="10.00"> </text>
</g>
<!-- Node9&#45;&gt;Node1 -->
<g id="edge8" class="edge"><title>Node9&#45;&gt;Node1</title>
<path fill="none" stroke="#404040" d="M459.528,-176.898C458.892,-149.598 454.711,-107.458 437,-76 435.176,-72.7602 433.034,-69.6392 430.675,-66.6547"/>
<polygon fill="none" stroke="#404040" points="430.559,-66.5262 423.572,-64.7442 422.529,-57.6088 429.517,-59.3909 430.559,-66.5262"/>
<text text-anchor="middle" x="492" y="-101" font-family="Helvetica,sans-Serif" font-size="10.00"> +runID</text>
<text text-anchor="middle" x="492" y="-90" font-family="Helvetica,sans-Serif" font-size="10.00">+maxEvents</text>
<text text-anchor="middle" x="492" y="-79" font-family="Helvetica,sans-Serif" font-size="10.00">+npersistenttracks</text>
</g>
<!-- Node10 -->
<g id="node10" class="node"><title>Node10</title>
<polygon fill="none" stroke="#bfbfbf" points="538.5,-177 538.5,-234 589.5,-234 589.5,-177 538.5,-177"/>
<text text-anchor="middle" x="564" y="-222" font-family="Helvetica,sans-Serif" font-size="10.00">uint32_t</text>
<polyline fill="none" stroke="#bfbfbf" points="538.5,-215 589.5,-215 "/>
<text text-anchor="middle" x="564" y="-203" font-family="Helvetica,sans-Serif" font-size="10.00"> </text>
<polyline fill="none" stroke="#bfbfbf" points="538.5,-196 589.5,-196 "/>
<text text-anchor="middle" x="564" y="-184" font-family="Helvetica,sans-Serif" font-size="10.00"> </text>
</g>
<!-- Node10&#45;&gt;Node1 -->
<g id="edge9" class="edge"><title>Node10&#45;&gt;Node1</title>
<path fill="none" stroke="#404040" d="M565.851,-176.781C566.208,-147.979 562.135,-103.367 537,-76 515.975,-53.108 484.04,-41.4432 454.775,-35.5628"/>
<polygon fill="none" stroke="#404040" points="454.681,-35.5462 448.074,-38.4352 442.866,-33.4474 449.473,-30.5585 454.681,-35.5462"/>
<text text-anchor="middle" x="575.5" y="-101" font-family="Helvetica,sans-Serif" font-size="10.00"> +index</text>
<text text-anchor="middle" x="575.5" y="-90" font-family="Helvetica,sans-Serif" font-size="10.00">+eventID</text>
<text text-anchor="middle" x="575.5" y="-79" font-family="Helvetica,sans-Serif" font-size="10.00">+seed</text>
</g>
</g>
</svg>
