<?xml version="1.0" encoding="UTF-8" standalone="no"?>
<!DOCTYPE svg PUBLIC "-//W3C//DTD SVG 1.1//EN"
 "http://www.w3.org/Graphics/SVG/1.1/DTD/svg11.dtd">
<!-- Generated by graphviz version 2.38.0 (20140413.2041)
 -->
<!-- Title: /home/travis/build/AliceO2Group/AliceO2/Detectors/MUON/MID/Raw/src/CrateMapper.cxx Pages: 1 -->
<svg width="613pt" height="173pt"
 viewBox="0.00 0.00 613.00 173.00" xmlns="http://www.w3.org/2000/svg" xmlns:xlink="http://www.w3.org/1999/xlink">
<g id="graph0" class="graph" transform="scale(1 1) rotate(0) translate(4 169)">
<title>/home/travis/build/AliceO2Group/AliceO2/Detectors/MUON/MID/Raw/src/CrateMapper.cxx</title>
<!-- Node1 -->
<g id="node1" class="node"><title>Node1</title>
<polygon fill="#bfbfbf" stroke="black" points="171,-112.5 171,-164.5 312,-164.5 312,-112.5 171,-112.5"/>
<text text-anchor="start" x="179" y="-152.5" font-family="Helvetica,sans-Serif" font-size="10.00">/home/travis/build</text>
<text text-anchor="start" x="179" y="-141.5" font-family="Helvetica,sans-Serif" font-size="10.00">/AliceO2Group/AliceO2</text>
<text text-anchor="start" x="179" y="-130.5" font-family="Helvetica,sans-Serif" font-size="10.00">/Detectors/MUON/MID/Raw</text>
<text text-anchor="middle" x="241.5" y="-119.5" font-family="Helvetica,sans-Serif" font-size="10.00">/src/CrateMapper.cxx</text>
</g>
<!-- Node2 -->
<g id="node2" class="node"><title>Node2</title>
<g id="a_node2"><a xlink:href="../../db/d83/CrateMapper_8h.html" target="_top" xlink:title="Mapper to convert the RO Ids to a format suitable for O2. ">
<polygon fill="none" stroke="black" points="0,-56.5 0,-75.5 123,-75.5 123,-56.5 0,-56.5"/>
<text text-anchor="middle" x="61.5" y="-63.5" font-family="Helvetica,sans-Serif" font-size="10.00">MIDRaw/CrateMapper.h</text>
</a>
</g>
</g>
<!-- Node1&#45;&gt;Node2 -->
<g id="edge1" class="edge"><title>Node1&#45;&gt;Node2</title>
<path fill="none" stroke="midnightblue" d="M177.532,-112.446C148.708,-101.156 115.986,-88.3402 92.6557,-79.2027"/>
<polygon fill="midnightblue" stroke="midnightblue" points="93.8587,-75.915 83.271,-75.527 91.3058,-82.4329 93.8587,-75.915"/>
</g>
<!-- Node5 -->
<g id="node5" class="node"><title>Node5</title>
<polygon fill="none" stroke="#bfbfbf" points="141.5,-56.5 141.5,-75.5 193.5,-75.5 193.5,-56.5 141.5,-56.5"/>
<text text-anchor="middle" x="167.5" y="-63.5" font-family="Helvetica,sans-Serif" font-size="10.00">sstream</text>
</g>
<!-- Node1&#45;&gt;Node5 -->
<g id="edge4" class="edge"><title>Node1&#45;&gt;Node5</title>
<path fill="none" stroke="midnightblue" d="M215.202,-112.446C204.792,-102.528 193.145,-91.4318 183.965,-82.6867"/>
<polygon fill="midnightblue" stroke="midnightblue" points="186.282,-80.0592 176.627,-75.6955 181.453,-85.1274 186.282,-80.0592"/>
</g>
<!-- Node6 -->
<g id="node6" class="node"><title>Node6</title>
<polygon fill="none" stroke="#bfbfbf" points="212,-56.5 212,-75.5 271,-75.5 271,-56.5 212,-56.5"/>
<text text-anchor="middle" x="241.5" y="-63.5" font-family="Helvetica,sans-Serif" font-size="10.00">exception</text>
</g>
<!-- Node1&#45;&gt;Node6 -->
<g id="edge5" class="edge"><title>Node1&#45;&gt;Node6</title>
<path fill="none" stroke="midnightblue" d="M241.5,-112.446C241.5,-103.73 241.5,-94.1045 241.5,-85.9641"/>
<polygon fill="midnightblue" stroke="midnightblue" points="245,-85.6954 241.5,-75.6955 238,-85.6955 245,-85.6954"/>
</g>
<!-- Node7 -->
<g id="node7" class="node"><title>Node7</title>
<g id="a_node7"><a xlink:href="../../dc/de4/DetectorParameters_8h.html" target="_top" xlink:title="Useful detector parameters for MID. ">
<polygon fill="none" stroke="black" points="448,-56.5 448,-75.5 605,-75.5 605,-56.5 448,-56.5"/>
<text text-anchor="middle" x="526.5" y="-63.5" font-family="Helvetica,sans-Serif" font-size="10.00">MIDBase/DetectorParameters.h</text>
</a>
</g>
</g>
<!-- Node1&#45;&gt;Node7 -->
<g id="edge6" class="edge"><title>Node1&#45;&gt;Node7</title>
<path fill="none" stroke="midnightblue" d="M312.316,-119.982C365.498,-106.827 436.694,-89.2152 482.09,-77.9857"/>
<polygon fill="midnightblue" stroke="midnightblue" points="483.061,-81.3511 491.928,-75.5521 481.38,-74.5559 483.061,-81.3511"/>
</g>
<!-- Node10 -->
<g id="node10" class="node"><title>Node10</title>
<g id="a_node10"><a xlink:href="../../d2/da5/CrateParameters_8h.html" target="_top" xlink:title="MID RO crate parameters. ">
<polygon fill="none" stroke="black" points="289,-56.5 289,-75.5 430,-75.5 430,-56.5 289,-56.5"/>
<text text-anchor="middle" x="359.5" y="-63.5" font-family="Helvetica,sans-Serif" font-size="10.00">MIDRaw/CrateParameters.h</text>
</a>
</g>
</g>
<!-- Node1&#45;&gt;Node10 -->
<g id="edge9" class="edge"><title>Node1&#45;&gt;Node10</title>
<path fill="none" stroke="midnightblue" d="M283.435,-112.446C301.318,-101.761 321.491,-89.709 336.566,-80.7021"/>
<polygon fill="midnightblue" stroke="midnightblue" points="338.438,-83.6605 345.228,-75.527 334.848,-77.6513 338.438,-83.6605"/>
</g>
<!-- Node3 -->
<g id="node3" class="node"><title>Node3</title>
<polygon fill="none" stroke="#bfbfbf" points="186.5,-0.5 186.5,-19.5 232.5,-19.5 232.5,-0.5 186.5,-0.5"/>
<text text-anchor="middle" x="209.5" y="-7.5" font-family="Helvetica,sans-Serif" font-size="10.00">cstdint</text>
</g>
<!-- Node2&#45;&gt;Node3 -->
<g id="edge2" class="edge"><title>Node2&#45;&gt;Node3</title>
<path fill="none" stroke="midnightblue" d="M84.951,-56.4435C109.633,-47.4381 148.685,-33.1891 176.477,-23.049"/>
<polygon fill="midnightblue" stroke="midnightblue" points="177.964,-26.2321 186.159,-19.5164 175.565,-19.6561 177.964,-26.2321"/>
</g>
<!-- Node4 -->
<g id="node4" class="node"><title>Node4</title>
<polygon fill="none" stroke="#bfbfbf" points="44,-0.5 44,-19.5 79,-19.5 79,-0.5 44,-0.5"/>
<text text-anchor="middle" x="61.5" y="-7.5" font-family="Helvetica,sans-Serif" font-size="10.00">map</text>
</g>
<!-- Node2&#45;&gt;Node4 -->
<g id="edge3" class="edge"><title>Node2&#45;&gt;Node4</title>
<path fill="none" stroke="midnightblue" d="M61.5,-56.083C61.5,-49.0059 61.5,-38.8611 61.5,-29.9865"/>
<polygon fill="midnightblue" stroke="midnightblue" points="65.0001,-29.751 61.5,-19.7511 58.0001,-29.7511 65.0001,-29.751"/>
</g>
<!-- Node8 -->
<g id="node8" class="node"><title>Node8</title>
<polygon fill="none" stroke="#bfbfbf" points="394.5,-0.5 394.5,-19.5 432.5,-19.5 432.5,-0.5 394.5,-0.5"/>
<text text-anchor="middle" x="413.5" y="-7.5" font-family="Helvetica,sans-Serif" font-size="10.00">array</text>
</g>
<!-- Node7&#45;&gt;Node8 -->
<g id="edge7" class="edge"><title>Node7&#45;&gt;Node8</title>
<path fill="none" stroke="midnightblue" d="M508.595,-56.4435C490.246,-47.6751 461.495,-33.9355 440.406,-23.8579"/>
<polygon fill="midnightblue" stroke="midnightblue" points="441.853,-20.6703 431.321,-19.5164 438.835,-26.9862 441.853,-20.6703"/>
</g>
<!-- Node9 -->
<g id="node9" class="node"><title>Node9</title>
<polygon fill="none" stroke="#bfbfbf" points="506,-0.5 506,-19.5 547,-19.5 547,-0.5 506,-0.5"/>
<text text-anchor="middle" x="526.5" y="-7.5" font-family="Helvetica,sans-Serif" font-size="10.00">string</text>
</g>
<!-- Node7&#45;&gt;Node9 -->
<g id="edge8" class="edge"><title>Node7&#45;&gt;Node9</title>
<path fill="none" stroke="midnightblue" d="M526.5,-56.083C526.5,-49.0059 526.5,-38.8611 526.5,-29.9865"/>
<polygon fill="midnightblue" stroke="midnightblue" points="530,-29.751 526.5,-19.7511 523,-29.7511 530,-29.751"/>
</g>
<!-- Node10&#45;&gt;Node3 -->
<g id="edge10" class="edge"><title>Node10&#45;&gt;Node3</title>
<path fill="none" stroke="midnightblue" d="M335.732,-56.4435C310.459,-47.3454 270.32,-32.8952 242.103,-22.7372"/>
<polygon fill="midnightblue" stroke="midnightblue" points="243.258,-19.4331 232.664,-19.339 240.887,-26.0194 243.258,-19.4331"/>
</g>
<!-- Node10&#45;&gt;Node8 -->
<g id="edge11" class="edge"><title>Node10&#45;&gt;Node8</title>
<path fill="none" stroke="midnightblue" d="M368.417,-56.083C376.28,-48.2195 387.931,-36.5688 397.419,-27.0813"/>
<polygon fill="midnightblue" stroke="midnightblue" points="400.153,-29.2971 404.749,-19.7511 395.203,-24.3473 400.153,-29.2971"/>
</g>
</g>
</svg>
