<?xml version="1.0" encoding="UTF-8" standalone="no"?>
<!DOCTYPE svg PUBLIC "-//W3C//DTD SVG 1.1//EN"
 "http://www.w3.org/Graphics/SVG/1.1/DTD/svg11.dtd">
<!-- Generated by graphviz version 2.38.0 (20140413.2041)
 -->
<!-- Title: /home/travis/build/AliceO2Group/AliceO2/Detectors/MUON/MID/Raw/src/Decoder.cxx Pages: 1 -->
<svg width="1268pt" height="352pt"
 viewBox="0.00 0.00 1268.14 352.00" xmlns="http://www.w3.org/2000/svg" xmlns:xlink="http://www.w3.org/1999/xlink">
<g id="graph0" class="graph" transform="scale(1 1) rotate(0) translate(4 348)">
<title>/home/travis/build/AliceO2Group/AliceO2/Detectors/MUON/MID/Raw/src/Decoder.cxx</title>
<!-- Node1 -->
<g id="node1" class="node"><title>Node1</title>
<polygon fill="#bfbfbf" stroke="black" points="1016.14,-291.5 1016.14,-343.5 1157.14,-343.5 1157.14,-291.5 1016.14,-291.5"/>
<text text-anchor="start" x="1024.14" y="-331.5" font-family="Helvetica,sans-Serif" font-size="10.00">/home/travis/build</text>
<text text-anchor="start" x="1024.14" y="-320.5" font-family="Helvetica,sans-Serif" font-size="10.00">/AliceO2Group/AliceO2</text>
<text text-anchor="start" x="1024.14" y="-309.5" font-family="Helvetica,sans-Serif" font-size="10.00">/Detectors/MUON/MID/Raw</text>
<text text-anchor="middle" x="1086.64" y="-298.5" font-family="Helvetica,sans-Serif" font-size="10.00">/src/Decoder.cxx</text>
</g>
<!-- Node2 -->
<g id="node2" class="node"><title>Node2</title>
<g id="a_node2"><a xlink:href="../../de/dc5/MUON_2MID_2Raw_2include_2MIDRaw_2Decoder_8h.html" target="_top" xlink:title="Mid raw data decoder. ">
<polygon fill="none" stroke="black" points="418.638,-235.5 418.638,-254.5 522.638,-254.5 522.638,-235.5 418.638,-235.5"/>
<text text-anchor="middle" x="470.638" y="-242.5" font-family="Helvetica,sans-Serif" font-size="10.00">MIDRaw/Decoder.h</text>
</a>
</g>
</g>
<!-- Node1&#45;&gt;Node2 -->
<g id="edge1" class="edge"><title>Node1&#45;&gt;Node2</title>
<path fill="none" stroke="midnightblue" d="M1015.98,-308.413C894.497,-294.51 648.036,-266.303 532.734,-253.107"/>
<polygon fill="midnightblue" stroke="midnightblue" points="532.993,-249.614 522.66,-251.954 532.197,-256.568 532.993,-249.614"/>
</g>
<!-- Node23 -->
<g id="node23" class="node"><title>Node23</title>
<g id="a_node23"><a xlink:href="../../dc/de4/DetectorParameters_8h.html" target="_top" xlink:title="Useful detector parameters for MID. ">
<polygon fill="none" stroke="black" points="1008.14,-235.5 1008.14,-254.5 1165.14,-254.5 1165.14,-235.5 1008.14,-235.5"/>
<text text-anchor="middle" x="1086.64" y="-242.5" font-family="Helvetica,sans-Serif" font-size="10.00">MIDBase/DetectorParameters.h</text>
</a>
</g>
</g>
<!-- Node1&#45;&gt;Node23 -->
<g id="edge39" class="edge"><title>Node1&#45;&gt;Node23</title>
<path fill="none" stroke="midnightblue" d="M1086.64,-291.446C1086.64,-282.73 1086.64,-273.104 1086.64,-264.964"/>
<polygon fill="midnightblue" stroke="midnightblue" points="1090.14,-264.695 1086.64,-254.695 1083.14,-264.696 1090.14,-264.695"/>
</g>
<!-- Node25 -->
<g id="node25" class="node"><title>Node25</title>
<g id="a_node25"><a xlink:href="../../d2/da5/CrateParameters_8h.html" target="_top" xlink:title="MID RO crate parameters. ">
<polygon fill="none" stroke="black" points="1119.14,-123.5 1119.14,-142.5 1260.14,-142.5 1260.14,-123.5 1119.14,-123.5"/>
<text text-anchor="middle" x="1189.64" y="-130.5" font-family="Helvetica,sans-Serif" font-size="10.00">MIDRaw/CrateParameters.h</text>
</a>
</g>
</g>
<!-- Node1&#45;&gt;Node25 -->
<g id="edge42" class="edge"><title>Node1&#45;&gt;Node25</title>
<path fill="none" stroke="midnightblue" d="M1137.82,-291.205C1151.94,-281.764 1165.79,-269.689 1174.64,-255 1193.86,-223.079 1193.74,-177.842 1191.79,-152.697"/>
<polygon fill="midnightblue" stroke="midnightblue" points="1195.27,-152.298 1190.83,-142.678 1188.3,-152.967 1195.27,-152.298"/>
</g>
<!-- Node3 -->
<g id="node3" class="node"><title>Node3</title>
<polygon fill="none" stroke="#bfbfbf" points="500.638,-0.5 500.638,-19.5 546.638,-19.5 546.638,-0.5 500.638,-0.5"/>
<text text-anchor="middle" x="523.638" y="-7.5" font-family="Helvetica,sans-Serif" font-size="10.00">cstdint</text>
</g>
<!-- Node2&#45;&gt;Node3 -->
<g id="edge2" class="edge"><title>Node2&#45;&gt;Node3</title>
<path fill="none" stroke="midnightblue" d="M418.611,-242.845C302.677,-239.734 31.1225,-229.26 3.63811,-199 -2.33826,-192.42 1.03841,-187.5 3.63811,-179 22.9259,-115.935 30.0699,-89.9009 86.6381,-56 154.611,-15.2642 400.174,-11.0106 490.229,-10.8528"/>
<polygon fill="midnightblue" stroke="midnightblue" points="490.419,-14.3529 500.418,-10.8517 490.418,-7.35292 490.419,-14.3529"/>
</g>
<!-- Node4 -->
<g id="node4" class="node"><title>Node4</title>
<polygon fill="none" stroke="#bfbfbf" points="136.638,-62 136.638,-81 180.638,-81 180.638,-62 136.638,-62"/>
<text text-anchor="middle" x="158.638" y="-69" font-family="Helvetica,sans-Serif" font-size="10.00">vector</text>
</g>
<!-- Node2&#45;&gt;Node4 -->
<g id="edge3" class="edge"><title>Node2&#45;&gt;Node4</title>
<path fill="none" stroke="midnightblue" d="M418.561,-238.093C379.533,-232.142 325.672,-220.621 282.638,-199 231.285,-173.2 188.829,-117.659 169.646,-89.5453"/>
<polygon fill="midnightblue" stroke="midnightblue" points="172.508,-87.5294 164.053,-81.1453 166.682,-91.4089 172.508,-87.5294"/>
</g>
<!-- Node5 -->
<g id="node5" class="node"><title>Node5</title>
<polygon fill="none" stroke="#bfbfbf" points="199.138,-62 199.138,-81 244.138,-81 244.138,-62 199.138,-62"/>
<text text-anchor="middle" x="221.638" y="-69" font-family="Helvetica,sans-Serif" font-size="10.00">gsl/gsl</text>
</g>
<!-- Node2&#45;&gt;Node5 -->
<g id="edge4" class="edge"><title>Node2&#45;&gt;Node5</title>
<path fill="none" stroke="midnightblue" d="M424.827,-235.441C393.875,-228.459 352.773,-216.798 319.638,-199 285.449,-180.635 275.953,-174.026 252.638,-143 240.745,-127.174 232.24,-106.071 227.181,-91.0898"/>
<polygon fill="midnightblue" stroke="midnightblue" points="230.474,-89.8949 224.108,-81.4259 223.803,-92.0163 230.474,-89.8949"/>
</g>
<!-- Node6 -->
<g id="node6" class="node"><title>Node6</title>
<g id="a_node6"><a xlink:href="../../d3/d53/ColumnData_8h.html" target="_top" xlink:title="Strip pattern (aka digits) ">
<polygon fill="none" stroke="black" points="730.638,-123.5 730.638,-142.5 888.638,-142.5 888.638,-123.5 730.638,-123.5"/>
<text text-anchor="middle" x="809.638" y="-130.5" font-family="Helvetica,sans-Serif" font-size="10.00">DataFormatsMID/ColumnData.h</text>
</a>
</g>
</g>
<!-- Node2&#45;&gt;Node6 -->
<g id="edge5" class="edge"><title>Node2&#45;&gt;Node6</title>
<path fill="none" stroke="midnightblue" d="M496.957,-235.46C557.156,-215.926 704.971,-167.963 773.575,-145.702"/>
<polygon fill="midnightblue" stroke="midnightblue" points="774.671,-149.026 783.102,-142.61 772.51,-142.368 774.671,-149.026"/>
</g>
<!-- Node9 -->
<g id="node9" class="node"><title>Node9</title>
<g id="a_node9"><a xlink:href="../../d2/df9/MUON_2MID_2include_2DataFormatsMID_2ROFRecord_8h.html" target="_top" xlink:title="Definition of the MID event record. ">
<polygon fill="none" stroke="black" points="906.638,-123.5 906.638,-142.5 1062.64,-142.5 1062.64,-123.5 906.638,-123.5"/>
<text text-anchor="middle" x="984.638" y="-130.5" font-family="Helvetica,sans-Serif" font-size="10.00">DataFormatsMID/ROFRecord.h</text>
</a>
</g>
</g>
<!-- Node2&#45;&gt;Node9 -->
<g id="edge9" class="edge"><title>Node2&#45;&gt;Node9</title>
<path fill="none" stroke="midnightblue" d="M510.543,-235.46C603.242,-215.622 832.962,-166.46 934.736,-144.679"/>
<polygon fill="midnightblue" stroke="midnightblue" points="935.712,-148.05 944.759,-142.535 934.247,-141.205 935.712,-148.05"/>
</g>
<!-- Node15 -->
<g id="node15" class="node"><title>Node15</title>
<g id="a_node15"><a xlink:href="../../db/d83/CrateMapper_8h.html" target="_top" xlink:title="Mapper to convert the RO Ids to a format suitable for O2. ">
<polygon fill="none" stroke="black" points="13.1381,-179.5 13.1381,-198.5 136.138,-198.5 136.138,-179.5 13.1381,-179.5"/>
<text text-anchor="middle" x="74.6381" y="-186.5" font-family="Helvetica,sans-Serif" font-size="10.00">MIDRaw/CrateMapper.h</text>
</a>
</g>
</g>
<!-- Node2&#45;&gt;Node15 -->
<g id="edge16" class="edge"><title>Node2&#45;&gt;Node15</title>
<path fill="none" stroke="midnightblue" d="M418.461,-236.885C348.815,-227.388 225.156,-210.525 146.666,-199.822"/>
<polygon fill="midnightblue" stroke="midnightblue" points="146.757,-196.302 136.376,-198.419 145.811,-203.238 146.757,-196.302"/>
</g>
<!-- Node17 -->
<g id="node17" class="node"><title>Node17</title>
<g id="a_node17"><a xlink:href="../../da/d46/CRUUserLogicDecoder_8h.html" target="_top" xlink:title="MID CRU user logic decoder. ">
<polygon fill="none" stroke="black" points="328.638,-179.5 328.638,-198.5 498.638,-198.5 498.638,-179.5 328.638,-179.5"/>
<text text-anchor="middle" x="413.638" y="-186.5" font-family="Helvetica,sans-Serif" font-size="10.00">MIDRaw/CRUUserLogicDecoder.h</text>
</a>
</g>
</g>
<!-- Node2&#45;&gt;Node17 -->
<g id="edge19" class="edge"><title>Node2&#45;&gt;Node17</title>
<path fill="none" stroke="midnightblue" d="M461.48,-235.324C453.137,-227.42 440.606,-215.548 430.461,-205.938"/>
<polygon fill="midnightblue" stroke="midnightblue" points="432.629,-203.171 422.963,-198.834 427.815,-208.252 432.629,-203.171"/>
</g>
<!-- Node18 -->
<g id="node18" class="node"><title>Node18</title>
<g id="a_node18"><a xlink:href="../../d3/d4a/LocalBoardRO_8h.html" target="_top" xlink:title="Structure to store the FEE local board information. ">
<polygon fill="none" stroke="black" points="581.138,-123.5 581.138,-142.5 712.138,-142.5 712.138,-123.5 581.138,-123.5"/>
<text text-anchor="middle" x="646.638" y="-130.5" font-family="Helvetica,sans-Serif" font-size="10.00">MIDRaw/LocalBoardRO.h</text>
</a>
</g>
</g>
<!-- Node2&#45;&gt;Node18 -->
<g id="edge37" class="edge"><title>Node2&#45;&gt;Node18</title>
<path fill="none" stroke="midnightblue" d="M484.449,-235.368C514.779,-216.412 587.437,-171.001 624.33,-147.942"/>
<polygon fill="midnightblue" stroke="midnightblue" points="626.267,-150.859 632.892,-142.591 622.557,-144.923 626.267,-150.859"/>
</g>
<!-- Node21 -->
<g id="node21" class="node"><title>Node21</title>
<g id="a_node21"><a xlink:href="../../df/db7/RawUnit_8h.html" target="_top" xlink:title="Raw data format MID. ">
<polygon fill="none" stroke="black" points="458.138,-123.5 458.138,-142.5 563.138,-142.5 563.138,-123.5 458.138,-123.5"/>
<text text-anchor="middle" x="510.638" y="-130.5" font-family="Helvetica,sans-Serif" font-size="10.00">MIDRaw/RawUnit.h</text>
</a>
</g>
</g>
<!-- Node2&#45;&gt;Node21 -->
<g id="edge38" class="edge"><title>Node2&#45;&gt;Node21</title>
<path fill="none" stroke="midnightblue" d="M480.916,-235.185C489.793,-226.869 502.047,-213.538 507.638,-199 513.283,-184.321 513.676,-166.384 512.859,-153.074"/>
<polygon fill="midnightblue" stroke="midnightblue" points="516.314,-152.413 511.932,-142.767 509.342,-153.04 516.314,-152.413"/>
</g>
<!-- Node6&#45;&gt;Node3 -->
<g id="edge6" class="edge"><title>Node6&#45;&gt;Node3</title>
<path fill="none" stroke="midnightblue" d="M789.527,-123.492C740.007,-102.541 611.972,-48.372 553.526,-23.6448"/>
<polygon fill="midnightblue" stroke="midnightblue" points="554.683,-20.3341 544.11,-19.661 551.956,-26.7809 554.683,-20.3341"/>
</g>
<!-- Node7 -->
<g id="node7" class="node"><title>Node7</title>
<polygon fill="none" stroke="#bfbfbf" points="739.638,-62 739.638,-81 793.638,-81 793.638,-62 739.638,-62"/>
<text text-anchor="middle" x="766.638" y="-69" font-family="Helvetica,sans-Serif" font-size="10.00">iostream</text>
</g>
<!-- Node6&#45;&gt;Node7 -->
<g id="edge7" class="edge"><title>Node6&#45;&gt;Node7</title>
<path fill="none" stroke="midnightblue" d="M803.477,-123.475C797.027,-114.55 786.734,-100.307 778.665,-89.1425"/>
<polygon fill="midnightblue" stroke="midnightblue" points="781.482,-87.064 772.788,-81.0091 775.808,-91.1642 781.482,-87.064"/>
</g>
<!-- Node8 -->
<g id="node8" class="node"><title>Node8</title>
<polygon fill="none" stroke="#bfbfbf" points="811.638,-62 811.638,-81 849.638,-81 849.638,-62 811.638,-62"/>
<text text-anchor="middle" x="830.638" y="-69" font-family="Helvetica,sans-Serif" font-size="10.00">array</text>
</g>
<!-- Node6&#45;&gt;Node8 -->
<g id="edge8" class="edge"><title>Node6&#45;&gt;Node8</title>
<path fill="none" stroke="midnightblue" d="M812.647,-123.475C815.672,-114.904 820.429,-101.427 824.291,-90.483"/>
<polygon fill="midnightblue" stroke="midnightblue" points="827.607,-91.6039 827.635,-81.0091 821.006,-89.2741 827.607,-91.6039"/>
</g>
<!-- Node10 -->
<g id="node10" class="node"><title>Node10</title>
<g id="a_node10"><a xlink:href="../../d9/d80/InteractionRecord_8h.html" target="_top" xlink:title="CommonDataFormat/Interaction\lRecord.h">
<polygon fill="none" stroke="black" points="906.138,-56.5 906.138,-86.5 1063.14,-86.5 1063.14,-56.5 906.138,-56.5"/>
<text text-anchor="start" x="914.138" y="-74.5" font-family="Helvetica,sans-Serif" font-size="10.00">CommonDataFormat/Interaction</text>
<text text-anchor="middle" x="984.638" y="-63.5" font-family="Helvetica,sans-Serif" font-size="10.00">Record.h</text>
</a>
</g>
</g>
<!-- Node9&#45;&gt;Node10 -->
<g id="edge10" class="edge"><title>Node9&#45;&gt;Node10</title>
<path fill="none" stroke="midnightblue" d="M984.638,-123.475C984.638,-116.471 984.638,-106.192 984.638,-96.6956"/>
<polygon fill="midnightblue" stroke="midnightblue" points="988.138,-96.5229 984.638,-86.523 981.138,-96.523 988.138,-96.5229"/>
</g>
<!-- Node10&#45;&gt;Node3 -->
<g id="edge14" class="edge"><title>Node10&#45;&gt;Node3</title>
<path fill="none" stroke="midnightblue" d="M906.02,-58.0557C901.156,-57.3436 896.332,-56.6527 891.638,-56 768.444,-38.8686 621.549,-21.9595 556.931,-14.6985"/>
<polygon fill="midnightblue" stroke="midnightblue" points="557.25,-11.2125 546.923,-13.5772 556.471,-18.1689 557.25,-11.2125"/>
</g>
<!-- Node11 -->
<g id="node11" class="node"><title>Node11</title>
<polygon fill="none" stroke="#bfbfbf" points="855.638,-0.5 855.638,-19.5 911.638,-19.5 911.638,-0.5 855.638,-0.5"/>
<text text-anchor="middle" x="883.638" y="-7.5" font-family="Helvetica,sans-Serif" font-size="10.00">Rtypes.h</text>
</g>
<!-- Node10&#45;&gt;Node11 -->
<g id="edge11" class="edge"><title>Node10&#45;&gt;Node11</title>
<path fill="none" stroke="midnightblue" d="M960.703,-56.3993C944.513,-46.8619 923.231,-34.3248 907.135,-24.8422"/>
<polygon fill="midnightblue" stroke="midnightblue" points="908.727,-21.718 898.335,-19.6578 905.174,-27.7492 908.727,-21.718"/>
</g>
<!-- Node12 -->
<g id="node12" class="node"><title>Node12</title>
<polygon fill="none" stroke="#bfbfbf" points="930.138,-0.5 930.138,-19.5 975.138,-19.5 975.138,-0.5 930.138,-0.5"/>
<text text-anchor="middle" x="952.638" y="-7.5" font-family="Helvetica,sans-Serif" font-size="10.00">iosfwd</text>
</g>
<!-- Node10&#45;&gt;Node12 -->
<g id="edge12" class="edge"><title>Node10&#45;&gt;Node12</title>
<path fill="none" stroke="midnightblue" d="M977.055,-56.3993C972.596,-48.1098 966.919,-37.5542 962.162,-28.7077"/>
<polygon fill="midnightblue" stroke="midnightblue" points="965.114,-26.8071 957.294,-19.6578 958.949,-30.1227 965.114,-26.8071"/>
</g>
<!-- Node13 -->
<g id="node13" class="node"><title>Node13</title>
<polygon fill="none" stroke="#bfbfbf" points="993.638,-0.5 993.638,-19.5 1037.64,-19.5 1037.64,-0.5 993.638,-0.5"/>
<text text-anchor="middle" x="1015.64" y="-7.5" font-family="Helvetica,sans-Serif" font-size="10.00">cmath</text>
</g>
<!-- Node10&#45;&gt;Node13 -->
<g id="edge13" class="edge"><title>Node10&#45;&gt;Node13</title>
<path fill="none" stroke="midnightblue" d="M991.985,-56.3993C996.304,-48.1098 1001.8,-37.5542 1006.41,-28.7077"/>
<polygon fill="midnightblue" stroke="midnightblue" points="1009.61,-30.1435 1011.13,-19.6578 1003.4,-26.9091 1009.61,-30.1435"/>
</g>
<!-- Node14 -->
<g id="node14" class="node"><title>Node14</title>
<g id="a_node14"><a xlink:href="../../d4/dc6/LHCConstants_8h.html" target="_top" xlink:title="Header to collect LHC related constants. ">
<polygon fill="none" stroke="black" points="1055.64,-0.5 1055.64,-19.5 1233.64,-19.5 1233.64,-0.5 1055.64,-0.5"/>
<text text-anchor="middle" x="1144.64" y="-7.5" font-family="Helvetica,sans-Serif" font-size="10.00">CommonConstants/LHCConstants.h</text>
</a>
</g>
</g>
<!-- Node10&#45;&gt;Node14 -->
<g id="edge15" class="edge"><title>Node10&#45;&gt;Node14</title>
<path fill="none" stroke="midnightblue" d="M1022.56,-56.3993C1049.76,-46.2826 1086.04,-32.7905 1111.97,-23.1493"/>
<polygon fill="midnightblue" stroke="midnightblue" points="1113.2,-26.4239 1121.36,-19.6578 1110.76,-19.8629 1113.2,-26.4239"/>
</g>
<!-- Node15&#45;&gt;Node3 -->
<g id="edge17" class="edge"><title>Node15&#45;&gt;Node3</title>
<path fill="none" stroke="midnightblue" d="M72.4034,-179.274C69.5611,-166.496 65.7906,-142.134 72.6381,-123 85.6194,-86.727 93.797,-74.4127 127.638,-56 189.94,-22.1018 406.424,-13.6372 490.185,-11.6101"/>
<polygon fill="midnightblue" stroke="midnightblue" points="490.492,-15.1042 500.41,-11.379 490.334,-8.10594 490.492,-15.1042"/>
</g>
<!-- Node16 -->
<g id="node16" class="node"><title>Node16</title>
<polygon fill="none" stroke="#bfbfbf" points="82.1381,-123.5 82.1381,-142.5 117.138,-142.5 117.138,-123.5 82.1381,-123.5"/>
<text text-anchor="middle" x="99.6381" y="-130.5" font-family="Helvetica,sans-Serif" font-size="10.00">map</text>
</g>
<!-- Node15&#45;&gt;Node16 -->
<g id="edge18" class="edge"><title>Node15&#45;&gt;Node16</title>
<path fill="none" stroke="midnightblue" d="M78.7663,-179.083C82.152,-171.77 87.0541,-161.181 91.2569,-152.103"/>
<polygon fill="midnightblue" stroke="midnightblue" points="94.5615,-153.296 95.5867,-142.751 88.2093,-150.355 94.5615,-153.296"/>
</g>
<!-- Node17&#45;&gt;Node3 -->
<g id="edge20" class="edge"><title>Node17&#45;&gt;Node3</title>
<path fill="none" stroke="midnightblue" d="M418.012,-179.392C429.038,-157.932 459.263,-100.581 489.638,-56 496.116,-46.492 503.811,-36.232 510.24,-27.9134"/>
<polygon fill="midnightblue" stroke="midnightblue" points="513.2,-29.8099 516.602,-19.7762 507.685,-25.4982 513.2,-29.8099"/>
</g>
<!-- Node17&#45;&gt;Node4 -->
<g id="edge21" class="edge"><title>Node17&#45;&gt;Node4</title>
<path fill="none" stroke="midnightblue" d="M365.807,-179.495C332.858,-172.487 288.691,-160.774 252.638,-143 223.077,-128.427 193.389,-104.169 175.508,-88.254"/>
<polygon fill="midnightblue" stroke="midnightblue" points="177.486,-85.3229 167.731,-81.1907 172.78,-90.5048 177.486,-85.3229"/>
</g>
<!-- Node17&#45;&gt;Node5 -->
<g id="edge22" class="edge"><title>Node17&#45;&gt;Node5</title>
<path fill="none" stroke="midnightblue" d="M367.533,-179.482C339.96,-172.794 305.233,-161.442 278.638,-143 258.501,-129.036 241.776,-105.982 231.76,-90.0589"/>
<polygon fill="midnightblue" stroke="midnightblue" points="234.583,-87.9642 226.42,-81.211 228.59,-91.5811 234.583,-87.9642"/>
</g>
<!-- Node17&#45;&gt;Node9 -->
<g id="edge23" class="edge"><title>Node17&#45;&gt;Node9</title>
<path fill="none" stroke="midnightblue" d="M498.908,-180.342C593.442,-171.79 750.749,-157.378 896.369,-143.116"/>
<polygon fill="midnightblue" stroke="midnightblue" points="896.777,-146.593 906.387,-142.134 896.093,-139.627 896.777,-146.593"/>
</g>
<!-- Node17&#45;&gt;Node18 -->
<g id="edge24" class="edge"><title>Node17&#45;&gt;Node18</title>
<path fill="none" stroke="midnightblue" d="M450.558,-179.444C491.033,-170.063 556.059,-154.993 600.023,-144.804"/>
<polygon fill="midnightblue" stroke="midnightblue" points="600.94,-148.184 609.891,-142.516 599.359,-141.365 600.94,-148.184"/>
</g>
<!-- Node19 -->
<g id="node19" class="node"><title>Node19</title>
<g id="a_node19"><a xlink:href="../../db/d21/MUON_2MID_2Raw_2include_2MIDRaw_2RawBuffer_8h.html" target="_top" xlink:title="Handler of the RAW buffer. ">
<polygon fill="none" stroke="black" points="288.138,-123.5 288.138,-142.5 401.138,-142.5 401.138,-123.5 288.138,-123.5"/>
<text text-anchor="middle" x="344.638" y="-130.5" font-family="Helvetica,sans-Serif" font-size="10.00">MIDRaw/RawBuffer.h</text>
</a>
</g>
</g>
<!-- Node17&#45;&gt;Node19 -->
<g id="edge27" class="edge"><title>Node17&#45;&gt;Node19</title>
<path fill="none" stroke="midnightblue" d="M402.552,-179.324C392.152,-171.185 376.377,-158.839 363.917,-149.087"/>
<polygon fill="midnightblue" stroke="midnightblue" points="365.958,-146.241 355.926,-142.834 361.644,-151.753 365.958,-146.241"/>
</g>
<!-- Node17&#45;&gt;Node21 -->
<g id="edge33" class="edge"><title>Node17&#45;&gt;Node21</title>
<path fill="none" stroke="midnightblue" d="M429.223,-179.324C444.637,-170.743 468.45,-157.486 486.348,-147.522"/>
<polygon fill="midnightblue" stroke="midnightblue" points="488.057,-150.577 495.092,-142.655 484.652,-144.461 488.057,-150.577"/>
</g>
<!-- Node18&#45;&gt;Node3 -->
<g id="edge25" class="edge"><title>Node18&#45;&gt;Node3</title>
<path fill="none" stroke="midnightblue" d="M638.577,-123.413C625.14,-109.171 597.21,-79.8648 572.638,-56 562.385,-46.0418 550.594,-35.1958 541.149,-26.6474"/>
<polygon fill="midnightblue" stroke="midnightblue" points="543.323,-23.8956 533.549,-19.8065 538.64,-29.0982 543.323,-23.8956"/>
</g>
<!-- Node18&#45;&gt;Node8 -->
<g id="edge26" class="edge"><title>Node18&#45;&gt;Node8</title>
<path fill="none" stroke="midnightblue" d="M683.887,-123.454C715.93,-115.585 763.101,-102.761 802.638,-87 803.839,-86.5211 805.058,-86.0071 806.279,-85.4685"/>
<polygon fill="midnightblue" stroke="midnightblue" points="807.996,-88.5264 815.488,-81.035 804.96,-82.2192 807.996,-88.5264"/>
</g>
<!-- Node19&#45;&gt;Node3 -->
<g id="edge28" class="edge"><title>Node19&#45;&gt;Node3</title>
<path fill="none" stroke="midnightblue" d="M328.305,-123.387C315.683,-115.72 299.141,-103.213 291.638,-87 285.852,-74.4962 282.872,-66.6295 291.638,-56 316.458,-25.9033 432.42,-15.6893 490.423,-12.4262"/>
<polygon fill="midnightblue" stroke="midnightblue" points="490.741,-15.9144 500.544,-11.8946 490.374,-8.92406 490.741,-15.9144"/>
</g>
<!-- Node19&#45;&gt;Node4 -->
<g id="edge29" class="edge"><title>Node19&#45;&gt;Node4</title>
<path fill="none" stroke="midnightblue" d="M309.351,-123.422C277.6,-115.313 229.892,-102.153 189.638,-87 188.213,-86.4636 186.763,-85.8893 185.307,-85.2901"/>
<polygon fill="midnightblue" stroke="midnightblue" points="186.377,-81.9372 175.814,-81.1111 183.556,-88.3438 186.377,-81.9372"/>
</g>
<!-- Node19&#45;&gt;Node5 -->
<g id="edge30" class="edge"><title>Node19&#45;&gt;Node5</title>
<path fill="none" stroke="midnightblue" d="M327.015,-123.475C306.464,-113.534 272.274,-96.9947 248.431,-85.461"/>
<polygon fill="midnightblue" stroke="midnightblue" points="249.755,-82.2131 239.228,-81.0091 246.706,-88.5145 249.755,-82.2131"/>
</g>
<!-- Node20 -->
<g id="node20" class="node"><title>Node20</title>
<g id="a_node20"><a xlink:href="../../d4/d78/DataFormats_2Headers_2include_2Headers_2RAWDataHeader_8h.html" target="_top" xlink:title="Headers/RAWDataHeader.h">
<polygon fill="none" stroke="black" points="301.138,-62 301.138,-81 442.138,-81 442.138,-62 301.138,-62"/>
<text text-anchor="middle" x="371.638" y="-69" font-family="Helvetica,sans-Serif" font-size="10.00">Headers/RAWDataHeader.h</text>
</a>
</g>
</g>
<!-- Node19&#45;&gt;Node20 -->
<g id="edge31" class="edge"><title>Node19&#45;&gt;Node20</title>
<path fill="none" stroke="midnightblue" d="M348.507,-123.475C352.436,-114.815 358.638,-101.149 363.631,-90.1453"/>
<polygon fill="midnightblue" stroke="midnightblue" points="366.832,-91.5617 367.777,-81.0091 360.457,-88.6691 366.832,-91.5617"/>
</g>
<!-- Node20&#45;&gt;Node3 -->
<g id="edge32" class="edge"><title>Node20&#45;&gt;Node3</title>
<path fill="none" stroke="midnightblue" d="M393.416,-61.9751C419.377,-51.8129 462.949,-34.7564 492.473,-23.1996"/>
<polygon fill="midnightblue" stroke="midnightblue" points="493.864,-26.4135 501.901,-19.5091 491.313,-19.8951 493.864,-26.4135"/>
</g>
<!-- Node21&#45;&gt;Node3 -->
<g id="edge34" class="edge"><title>Node21&#45;&gt;Node3</title>
<path fill="none" stroke="midnightblue" d="M524.425,-123.189C535.464,-115.241 550.14,-102.447 556.638,-87 561.98,-74.3002 560.925,-69.094 556.638,-56 553.148,-45.3397 546.065,-35.1174 539.353,-27.1175"/>
<polygon fill="midnightblue" stroke="midnightblue" points="541.943,-24.7633 532.658,-19.66 536.734,-29.4395 541.943,-24.7633"/>
</g>
<!-- Node21&#45;&gt;Node20 -->
<g id="edge36" class="edge"><title>Node21&#45;&gt;Node20</title>
<path fill="none" stroke="midnightblue" d="M490.723,-123.475C467.189,-113.401 427.828,-96.5525 400.845,-85.0023"/>
<polygon fill="midnightblue" stroke="midnightblue" points="402.087,-81.7267 391.516,-81.0091 399.332,-88.162 402.087,-81.7267"/>
</g>
<!-- Node22 -->
<g id="node22" class="node"><title>Node22</title>
<polygon fill="none" stroke="#bfbfbf" points="499.138,-62 499.138,-81 548.138,-81 548.138,-62 499.138,-62"/>
<text text-anchor="middle" x="523.638" y="-69" font-family="Helvetica,sans-Serif" font-size="10.00">cstddef</text>
</g>
<!-- Node21&#45;&gt;Node22 -->
<g id="edge35" class="edge"><title>Node21&#45;&gt;Node22</title>
<path fill="none" stroke="midnightblue" d="M512.501,-123.475C514.354,-114.992 517.257,-101.704 519.635,-90.8222"/>
<polygon fill="midnightblue" stroke="midnightblue" points="523.064,-91.5257 521.779,-81.0091 516.225,-90.0315 523.064,-91.5257"/>
</g>
<!-- Node23&#45;&gt;Node8 -->
<g id="edge40" class="edge"><title>Node23&#45;&gt;Node8</title>
<path fill="none" stroke="midnightblue" d="M1088.67,-235.234C1093.23,-213.065 1101.69,-154.308 1071.64,-123 1003.94,-52.4667 946.341,-120.884 854.638,-87 853.759,-86.6752 852.877,-86.3173 851.996,-85.933"/>
<polygon fill="midnightblue" stroke="midnightblue" points="853.365,-82.6978 842.888,-81.1195 850.094,-88.8866 853.365,-82.6978"/>
</g>
<!-- Node24 -->
<g id="node24" class="node"><title>Node24</title>
<polygon fill="none" stroke="#bfbfbf" points="1119.14,-179.5 1119.14,-198.5 1160.14,-198.5 1160.14,-179.5 1119.14,-179.5"/>
<text text-anchor="middle" x="1139.64" y="-186.5" font-family="Helvetica,sans-Serif" font-size="10.00">string</text>
</g>
<!-- Node23&#45;&gt;Node24 -->
<g id="edge41" class="edge"><title>Node23&#45;&gt;Node24</title>
<path fill="none" stroke="midnightblue" d="M1095.39,-235.083C1103.11,-227.22 1114.54,-215.569 1123.85,-206.081"/>
<polygon fill="midnightblue" stroke="midnightblue" points="1126.54,-208.34 1131.05,-198.751 1121.55,-203.436 1126.54,-208.34"/>
</g>
<!-- Node25&#45;&gt;Node3 -->
<g id="edge43" class="edge"><title>Node25&#45;&gt;Node3</title>
<path fill="none" stroke="midnightblue" d="M1122.48,-123.499C1042.71,-113.113 917.846,-95.8373 897.638,-87 877.351,-78.1282 879.01,-64.6749 858.638,-56 804.605,-32.9915 630.277,-18.4531 556.793,-13.2052"/>
<polygon fill="midnightblue" stroke="midnightblue" points="556.929,-9.70623 546.709,-12.4984 556.44,-16.6891 556.929,-9.70623"/>
</g>
<!-- Node25&#45;&gt;Node8 -->
<g id="edge44" class="edge"><title>Node25&#45;&gt;Node8</title>
<path fill="none" stroke="midnightblue" d="M1119.09,-124.572C1038.04,-115.631 910.232,-100.176 863.638,-87 861.485,-86.3912 859.29,-85.6697 857.107,-84.8788"/>
<polygon fill="midnightblue" stroke="midnightblue" points="858.357,-81.6091 847.774,-81.1018 855.731,-88.0978 858.357,-81.6091"/>
</g>
</g>
</svg>
