<?xml version="1.0" encoding="UTF-8" standalone="no"?>
<!DOCTYPE svg PUBLIC "-//W3C//DTD SVG 1.1//EN"
 "http://www.w3.org/Graphics/SVG/1.1/DTD/svg11.dtd">
<!-- Generated by graphviz version 2.38.0 (20140413.2041)
 -->
<!-- Title: /home/travis/build/AliceO2Group/AliceO2/GPU/GPUTracking/TPCClusterFinder/Array2D.h Pages: 1 -->
<!--zoomable 239 -->
<svg id="main" version="1.1" xmlns="http://www.w3.org/2000/svg" xmlns:xlink="http://www.w3.org/1999/xlink" xml:space="preserve" onload="init(evt)">
<style type="text/css"><![CDATA[
.edge:hover path { stroke: red; }
.edge:hover polygon { stroke: red; fill: red; }
]]></style>
<script type="text/javascript"><![CDATA[
var edges = document.getElementsByTagName('g');
if (edges && edges.length) {
  for (var i=0;i<edges.length;i++) {
    if (edges[i].id.substr(0,4)=='edge') {
      edges[i].setAttribute('class','edge');
    }
  }
}
]]></script>
        <defs>
                <circle id="rim" cx="0" cy="0" r="7"/>
                <circle id="rim2" cx="0" cy="0" r="3.5"/>
                <g id="zoomPlus">
                        <use xlink:href="#rim" fill="#404040">
                                <set attributeName="fill" to="#808080" begin="zoomplus.mouseover" end="zoomplus.mouseout"/>
                        </use>
                        <path d="M-4,0h8M0,-4v8" fill="none" stroke="white" stroke-width="1.5" pointer-events="none"/>
                </g>
                <g id="zoomMin">
                        <use xlink:href="#rim" fill="#404040">
                                <set attributeName="fill" to="#808080" begin="zoomminus.mouseover" end="zoomminus.mouseout"/>
                        </use>
                        <path d="M-4,0h8" fill="none" stroke="white" stroke-width="1.5" pointer-events="none"/>
                </g>
                <g id="dirArrow">
                        <path fill="none" stroke="white" stroke-width="1.5" d="M0,-3.0v7 M-2.5,-0.5L0,-3.0L2.5,-0.5"/>
                </g>
               <g id="resetDef">
                       <use xlink:href="#rim2" fill="#404040">
                               <set attributeName="fill" to="#808080" begin="reset.mouseover" end="reset.mouseout"/>
                       </use>
               </g>
        </defs>

<script type="text/javascript">
var viewWidth = 1208;
var viewHeight = 239;
var sectionId = 'dynsection-1';
</script>
<script xlink:href="../../svgpan.js"/>
<svg id="graph" class="graph">
<g id="viewport">
<title>/home/travis/build/AliceO2Group/AliceO2/GPU/GPUTracking/TPCClusterFinder/Array2D.h</title>
<!-- Node1 -->
<g id="node1" class="node"><title>Node1</title>
<polygon fill="#bfbfbf" stroke="black" points="609,-178.5 609,-230.5 794,-230.5 794,-178.5 609,-178.5"/>
<text text-anchor="start" x="617" y="-218.5" font-family="Helvetica,sans-Serif" font-size="10.00">/home/travis/build</text>
<text text-anchor="start" x="617" y="-207.5" font-family="Helvetica,sans-Serif" font-size="10.00">/AliceO2Group/AliceO2</text>
<text text-anchor="start" x="617" y="-196.5" font-family="Helvetica,sans-Serif" font-size="10.00">/GPU/GPUTracking/TPCClusterFinder</text>
<text text-anchor="middle" x="701.5" y="-185.5" font-family="Helvetica,sans-Serif" font-size="10.00">/Array2D.h</text>
</g>
<!-- Node2 -->
<g id="node2" class="node"><title>Node2</title>
<g id="a_node2"><a xlink:href="../../da/de7/CfUtils_8h.html" target="_top" xlink:title="/home/travis/build\l/AliceO2Group/AliceO2\l/GPU/GPUTracking/TPCClusterFinder\l/CfUtils.h">
<polygon fill="none" stroke="black" points="489,-89.5 489,-141.5 674,-141.5 674,-89.5 489,-89.5"/>
<text text-anchor="start" x="497" y="-129.5" font-family="Helvetica,sans-Serif" font-size="10.00">/home/travis/build</text>
<text text-anchor="start" x="497" y="-118.5" font-family="Helvetica,sans-Serif" font-size="10.00">/AliceO2Group/AliceO2</text>
<text text-anchor="start" x="497" y="-107.5" font-family="Helvetica,sans-Serif" font-size="10.00">/GPU/GPUTracking/TPCClusterFinder</text>
<text text-anchor="middle" x="581.5" y="-96.5" font-family="Helvetica,sans-Serif" font-size="10.00">/CfUtils.h</text>
</a>
</g>
</g>
<!-- Node1&#45;&gt;Node2 -->
<g id="edge1" class="edge"><title>Node1&#45;&gt;Node2</title>
<path fill="none" stroke="midnightblue" d="M658.354,-172.219C644.484,-162.164 629.307,-151.16 616.131,-141.607"/>
<polygon fill="midnightblue" stroke="midnightblue" points="656.641,-175.3 666.791,-178.336 660.749,-169.633 656.641,-175.3"/>
</g>
<!-- Node4 -->
<g id="node4" class="node"><title>Node4</title>
<g id="a_node4"><a xlink:href="../../db/ddd/GPU_2GPUTracking_2TPCClusterFinder_2Clusterizer_8cxx.html" target="_top" xlink:title="/home/travis/build\l/AliceO2Group/AliceO2\l/GPU/GPUTracking/TPCClusterFinder\l/Clusterizer.cxx">
<polygon fill="none" stroke="black" points="0,-0.5 0,-52.5 185,-52.5 185,-0.5 0,-0.5"/>
<text text-anchor="start" x="8" y="-40.5" font-family="Helvetica,sans-Serif" font-size="10.00">/home/travis/build</text>
<text text-anchor="start" x="8" y="-29.5" font-family="Helvetica,sans-Serif" font-size="10.00">/AliceO2Group/AliceO2</text>
<text text-anchor="start" x="8" y="-18.5" font-family="Helvetica,sans-Serif" font-size="10.00">/GPU/GPUTracking/TPCClusterFinder</text>
<text text-anchor="middle" x="92.5" y="-7.5" font-family="Helvetica,sans-Serif" font-size="10.00">/Clusterizer.cxx</text>
</a>
</g>
</g>
<!-- Node1&#45;&gt;Node4 -->
<g id="edge9" class="edge"><title>Node1&#45;&gt;Node4</title>
<path fill="none" stroke="midnightblue" d="M599.021,-188.711C535.895,-178.381 453.695,-162.723 382.5,-142 298.304,-117.493 204.538,-78.151 147.03,-52.5633"/>
<polygon fill="midnightblue" stroke="midnightblue" points="598.554,-192.18 608.984,-190.323 599.672,-185.27 598.554,-192.18"/>
</g>
<!-- Node5 -->
<g id="node5" class="node"><title>Node5</title>
<g id="a_node5"><a xlink:href="../../da/d32/Deconvolution_8cxx.html" target="_top" xlink:title="/home/travis/build\l/AliceO2Group/AliceO2\l/GPU/GPUTracking/TPCClusterFinder\l/Deconvolution.cxx">
<polygon fill="none" stroke="black" points="203,-0.5 203,-52.5 388,-52.5 388,-0.5 203,-0.5"/>
<text text-anchor="start" x="211" y="-40.5" font-family="Helvetica,sans-Serif" font-size="10.00">/home/travis/build</text>
<text text-anchor="start" x="211" y="-29.5" font-family="Helvetica,sans-Serif" font-size="10.00">/AliceO2Group/AliceO2</text>
<text text-anchor="start" x="211" y="-18.5" font-family="Helvetica,sans-Serif" font-size="10.00">/GPU/GPUTracking/TPCClusterFinder</text>
<text text-anchor="middle" x="295.5" y="-7.5" font-family="Helvetica,sans-Serif" font-size="10.00">/Deconvolution.cxx</text>
</a>
</g>
</g>
<!-- Node1&#45;&gt;Node5 -->
<g id="edge10" class="edge"><title>Node1&#45;&gt;Node5</title>
<path fill="none" stroke="midnightblue" d="M598.607,-181.537C560.37,-171.69 517.154,-158.52 479.5,-142 423.684,-117.512 364.827,-78.1646 329.129,-52.5709"/>
<polygon fill="midnightblue" stroke="midnightblue" points="598.178,-185.038 608.731,-184.097 599.894,-178.252 598.178,-185.038"/>
</g>
<!-- Node6 -->
<g id="node6" class="node"><title>Node6</title>
<g id="a_node6"><a xlink:href="../../d8/db5/GPUTPCClusterFinderKernels_8cxx.html" target="_top" xlink:title="/home/travis/build\l/AliceO2Group/AliceO2\l/GPU/GPUTracking/TPCClusterFinder\l/GPUTPCClusterFinderKernels.cxx">
<polygon fill="none" stroke="black" points="609,-0.5 609,-52.5 794,-52.5 794,-0.5 609,-0.5"/>
<text text-anchor="start" x="617" y="-40.5" font-family="Helvetica,sans-Serif" font-size="10.00">/home/travis/build</text>
<text text-anchor="start" x="617" y="-29.5" font-family="Helvetica,sans-Serif" font-size="10.00">/AliceO2Group/AliceO2</text>
<text text-anchor="start" x="617" y="-18.5" font-family="Helvetica,sans-Serif" font-size="10.00">/GPU/GPUTracking/TPCClusterFinder</text>
<text text-anchor="middle" x="701.5" y="-7.5" font-family="Helvetica,sans-Serif" font-size="10.00">/GPUTPCClusterFinderKernels.cxx</text>
</a>
</g>
</g>
<!-- Node1&#45;&gt;Node6 -->
<g id="edge11" class="edge"><title>Node1&#45;&gt;Node6</title>
<path fill="none" stroke="midnightblue" d="M701.5,-168.249C701.5,-134.038 701.5,-82.9693 701.5,-52.6697"/>
<polygon fill="midnightblue" stroke="midnightblue" points="698,-168.283 701.5,-178.283 705,-168.284 698,-168.283"/>
</g>
<!-- Node7 -->
<g id="node7" class="node"><title>Node7</title>
<g id="a_node7"><a xlink:href="../../da/df9/NoiseSuppression_8cxx.html" target="_top" xlink:title="/home/travis/build\l/AliceO2Group/AliceO2\l/GPU/GPUTracking/TPCClusterFinder\l/NoiseSuppression.cxx">
<polygon fill="none" stroke="black" points="812,-0.5 812,-52.5 997,-52.5 997,-0.5 812,-0.5"/>
<text text-anchor="start" x="820" y="-40.5" font-family="Helvetica,sans-Serif" font-size="10.00">/home/travis/build</text>
<text text-anchor="start" x="820" y="-29.5" font-family="Helvetica,sans-Serif" font-size="10.00">/AliceO2Group/AliceO2</text>
<text text-anchor="start" x="820" y="-18.5" font-family="Helvetica,sans-Serif" font-size="10.00">/GPU/GPUTracking/TPCClusterFinder</text>
<text text-anchor="middle" x="904.5" y="-7.5" font-family="Helvetica,sans-Serif" font-size="10.00">/NoiseSuppression.cxx</text>
</a>
</g>
</g>
<!-- Node1&#45;&gt;Node7 -->
<g id="edge12" class="edge"><title>Node1&#45;&gt;Node7</title>
<path fill="none" stroke="midnightblue" d="M713.342,-168.593C723.337,-143.629 739.836,-110.734 763.5,-89 780.219,-73.6448 801.38,-61.7063 822.19,-52.6085"/>
<polygon fill="midnightblue" stroke="midnightblue" points="710.02,-167.48 709.703,-178.07 716.555,-169.989 710.02,-167.48"/>
</g>
<!-- Node8 -->
<g id="node8" class="node"><title>Node8</title>
<g id="a_node8"><a xlink:href="../../dd/d1f/PeakFinder_8cxx.html" target="_top" xlink:title="/home/travis/build\l/AliceO2Group/AliceO2\l/GPU/GPUTracking/TPCClusterFinder\l/PeakFinder.cxx">
<polygon fill="none" stroke="black" points="1015,-0.5 1015,-52.5 1200,-52.5 1200,-0.5 1015,-0.5"/>
<text text-anchor="start" x="1023" y="-40.5" font-family="Helvetica,sans-Serif" font-size="10.00">/home/travis/build</text>
<text text-anchor="start" x="1023" y="-29.5" font-family="Helvetica,sans-Serif" font-size="10.00">/AliceO2Group/AliceO2</text>
<text text-anchor="start" x="1023" y="-18.5" font-family="Helvetica,sans-Serif" font-size="10.00">/GPU/GPUTracking/TPCClusterFinder</text>
<text text-anchor="middle" x="1107.5" y="-7.5" font-family="Helvetica,sans-Serif" font-size="10.00">/PeakFinder.cxx</text>
</a>
</g>
</g>
<!-- Node1&#45;&gt;Node8 -->
<g id="edge13" class="edge"><title>Node1&#45;&gt;Node8</title>
<path fill="none" stroke="midnightblue" d="M733.98,-170.843C742.557,-161.746 751.614,-151.696 759.5,-142 777.626,-119.713 772.245,-104.395 796.5,-89 876.45,-38.2543 913.857,-72.6051 1006.5,-53 1009.24,-52.4196 1012.02,-51.8161 1014.83,-51.1943"/>
<polygon fill="midnightblue" stroke="midnightblue" points="731.301,-168.581 726.925,-178.23 736.363,-173.416 731.301,-168.581"/>
</g>
<!-- Node9 -->
<g id="node9" class="node"><title>Node9</title>
<g id="a_node9"><a xlink:href="../../d7/d43/ChargeMapFiller_8cxx.html" target="_top" xlink:title="/home/travis/build\l/AliceO2Group/AliceO2\l/GPU/GPUTracking/TPCClusterFinder\l/ChargeMapFiller.cxx">
<polygon fill="none" stroke="black" points="805,-89.5 805,-141.5 990,-141.5 990,-89.5 805,-89.5"/>
<text text-anchor="start" x="813" y="-129.5" font-family="Helvetica,sans-Serif" font-size="10.00">/home/travis/build</text>
<text text-anchor="start" x="813" y="-118.5" font-family="Helvetica,sans-Serif" font-size="10.00">/AliceO2Group/AliceO2</text>
<text text-anchor="start" x="813" y="-107.5" font-family="Helvetica,sans-Serif" font-size="10.00">/GPU/GPUTracking/TPCClusterFinder</text>
<text text-anchor="middle" x="897.5" y="-96.5" font-family="Helvetica,sans-Serif" font-size="10.00">/ChargeMapFiller.cxx</text>
</a>
</g>
</g>
<!-- Node1&#45;&gt;Node9 -->
<g id="edge8" class="edge"><title>Node1&#45;&gt;Node9</title>
<path fill="none" stroke="midnightblue" d="M767.296,-174.295C791.242,-163.665 818.075,-151.755 841.131,-141.521"/>
<polygon fill="midnightblue" stroke="midnightblue" points="765.648,-171.197 757.928,-178.453 768.488,-177.595 765.648,-171.197"/>
</g>
<!-- Node3 -->
<g id="node3" class="node"><title>Node3</title>
<g id="a_node3"><a xlink:href="../../d8/db8/ClusterAccumulator_8cxx.html" target="_top" xlink:title="/home/travis/build\l/AliceO2Group/AliceO2\l/GPU/GPUTracking/TPCClusterFinder\l/ClusterAccumulator.cxx">
<polygon fill="none" stroke="black" points="406,-0.5 406,-52.5 591,-52.5 591,-0.5 406,-0.5"/>
<text text-anchor="start" x="414" y="-40.5" font-family="Helvetica,sans-Serif" font-size="10.00">/home/travis/build</text>
<text text-anchor="start" x="414" y="-29.5" font-family="Helvetica,sans-Serif" font-size="10.00">/AliceO2Group/AliceO2</text>
<text text-anchor="start" x="414" y="-18.5" font-family="Helvetica,sans-Serif" font-size="10.00">/GPU/GPUTracking/TPCClusterFinder</text>
<text text-anchor="middle" x="498.5" y="-7.5" font-family="Helvetica,sans-Serif" font-size="10.00">/ClusterAccumulator.cxx</text>
</a>
</g>
</g>
<!-- Node2&#45;&gt;Node3 -->
<g id="edge2" class="edge"><title>Node2&#45;&gt;Node3</title>
<path fill="none" stroke="midnightblue" d="M550.568,-82.0768C541.274,-72.3353 531.223,-61.7998 522.453,-52.6075"/>
<polygon fill="midnightblue" stroke="midnightblue" points="548.058,-84.5165 557.493,-89.336 553.123,-79.6845 548.058,-84.5165"/>
</g>
<!-- Node2&#45;&gt;Node4 -->
<g id="edge3" class="edge"><title>Node2&#45;&gt;Node4</title>
<path fill="none" stroke="midnightblue" d="M478.593,-100.766C400.132,-89.6726 289.571,-72.7 193.5,-53 190.754,-52.4369 187.97,-51.8485 185.163,-51.24"/>
<polygon fill="midnightblue" stroke="midnightblue" points="478.573,-104.298 488.963,-102.225 479.548,-97.366 478.573,-104.298"/>
</g>
<!-- Node2&#45;&gt;Node5 -->
<g id="edge4" class="edge"><title>Node2&#45;&gt;Node5</title>
<path fill="none" stroke="midnightblue" d="M489.186,-86.4183C453.328,-75.5107 412.587,-63.1174 377.753,-52.5211"/>
<polygon fill="midnightblue" stroke="midnightblue" points="488.575,-89.8909 499.161,-89.4527 490.612,-83.1939 488.575,-89.8909"/>
</g>
<!-- Node2&#45;&gt;Node6 -->
<g id="edge5" class="edge"><title>Node2&#45;&gt;Node6</title>
<path fill="none" stroke="midnightblue" d="M624.646,-83.219C638.516,-73.1637 653.693,-62.1603 666.869,-52.6075"/>
<polygon fill="midnightblue" stroke="midnightblue" points="622.251,-80.6326 616.209,-89.336 626.359,-86.2999 622.251,-80.6326"/>
</g>
<!-- Node2&#45;&gt;Node7 -->
<g id="edge6" class="edge"><title>Node2&#45;&gt;Node7</title>
<path fill="none" stroke="midnightblue" d="M683.816,-86.9412C724.888,-75.8784 771.887,-63.2193 811.928,-52.4343"/>
<polygon fill="midnightblue" stroke="midnightblue" points="682.804,-83.5889 674.059,-89.5693 684.625,-90.348 682.804,-83.5889"/>
</g>
<!-- Node2&#45;&gt;Node8 -->
<g id="edge7" class="edge"><title>Node2&#45;&gt;Node8</title>
<path fill="none" stroke="midnightblue" d="M684.098,-99.9254C804.773,-82.7421 990.795,-56.1102 1006.5,-53 1009.25,-52.4554 1012.04,-51.8833 1014.85,-51.289"/>
<polygon fill="midnightblue" stroke="midnightblue" points="683.487,-96.4769 674.08,-101.351 684.474,-103.407 683.487,-96.4769"/>
</g>
</g>
</svg>
        <g id="navigator" transform="translate(0 0)" fill="#404254">
                <rect fill="#f2f5e9" fill-opacity="0.5" stroke="#606060" stroke-width=".5" x="0" y="0" width="60" height="60"/>
                <use id="zoomplus" xlink:href="#zoomPlus" x="17" y="9" onmousedown="handleZoom(evt,'in')"/>
                <use id="zoomminus" xlink:href="#zoomMin" x="42" y="9" onmousedown="handleZoom(evt,'out')"/>
                <use id="reset" xlink:href="#resetDef" x="30" y="36" onmousedown="handleReset()"/>
                <g id="arrowUp" xlink:href="#dirArrow" transform="translate(30 24)" onmousedown="handlePan(0,-1)">
                  <use xlink:href="#rim" fill="#404040">
                        <set attributeName="fill" to="#808080" begin="arrowUp.mouseover" end="arrowUp.mouseout"/>
                  </use>
                  <path fill="none" stroke="white" stroke-width="1.5" d="M0,-3.0v7 M-2.5,-0.5L0,-3.0L2.5,-0.5"/>
                </g>
                <g id="arrowRight" xlink:href="#dirArrow" transform="rotate(90) translate(36 -43)" onmousedown="handlePan(1,0)">
                  <use xlink:href="#rim" fill="#404040">
                        <set attributeName="fill" to="#808080" begin="arrowRight.mouseover" end="arrowRight.mouseout"/>
                  </use>
                  <path fill="none" stroke="white" stroke-width="1.5" d="M0,-3.0v7 M-2.5,-0.5L0,-3.0L2.5,-0.5"/>
                </g>
                <g id="arrowDown" xlink:href="#dirArrow" transform="rotate(180) translate(-30 -48)" onmousedown="handlePan(0,1)">
                  <use xlink:href="#rim" fill="#404040">
                        <set attributeName="fill" to="#808080" begin="arrowDown.mouseover" end="arrowDown.mouseout"/>
                  </use>
                  <path fill="none" stroke="white" stroke-width="1.5" d="M0,-3.0v7 M-2.5,-0.5L0,-3.0L2.5,-0.5"/>
                </g>
                <g id="arrowLeft" xlink:href="#dirArrow" transform="rotate(270) translate(-36 17)" onmousedown="handlePan(-1,0)">
                  <use xlink:href="#rim" fill="#404040">
                        <set attributeName="fill" to="#808080" begin="arrowLeft.mouseover" end="arrowLeft.mouseout"/>
                  </use>
                  <path fill="none" stroke="white" stroke-width="1.5" d="M0,-3.0v7 M-2.5,-0.5L0,-3.0L2.5,-0.5"/>
                </g>
        </g>
        <svg viewBox="0 0 15 15" width="100%" height="30px" preserveAspectRatio="xMaxYMin meet">
         <g id="arrow_out" transform="scale(0.3 0.3)">
          <a xlink:href="Array2D_8h__dep__incl_org.svg" target="_base">
           <rect id="button" ry="5" rx="5" y="6" x="6" height="38" width="38"
                fill="#f2f5e9" fill-opacity="0.5" stroke="#606060" stroke-width="1.0"/>
           <path id="arrow"
             d="M 11.500037,31.436501 C 11.940474,20.09759 22.043105,11.32322 32.158766,21.979434 L 37.068811,17.246167 C 37.068811,17.246167 37.088388,32 37.088388,32 L 22.160133,31.978069 C 22.160133,31.978069 26.997745,27.140456 26.997745,27.140456 C 18.528582,18.264221 13.291696,25.230495 11.500037,31.436501 z"
             style="fill:#404040;"/>
          </a>
         </g>
        </svg>
</svg>
