<?xml version="1.0" encoding="UTF-8" standalone="no"?>
<!DOCTYPE svg PUBLIC "-//W3C//DTD SVG 1.1//EN"
 "http://www.w3.org/Graphics/SVG/1.1/DTD/svg11.dtd">
<!-- Generated by graphviz version 2.38.0 (20140413.2041)
 -->
<!-- Title: /home/travis/build/AliceO2Group/AliceO2/DataFormats/Detectors/EMCAL/include/DataFormatsEMCAL/EMCALBlockHeader.h Pages: 1 -->
<svg width="992pt" height="161pt"
 viewBox="0.00 0.00 991.50 161.00" xmlns="http://www.w3.org/2000/svg" xmlns:xlink="http://www.w3.org/1999/xlink">
<g id="graph0" class="graph" transform="scale(1 1) rotate(0) translate(4 157)">
<title>/home/travis/build/AliceO2Group/AliceO2/DataFormats/Detectors/EMCAL/include/DataFormatsEMCAL/EMCALBlockHeader.h</title>
<!-- Node1 -->
<g id="node1" class="node"><title>Node1</title>
<polygon fill="#bfbfbf" stroke="black" points="421.5,-89.5 421.5,-152.5 603.5,-152.5 603.5,-89.5 421.5,-89.5"/>
<text text-anchor="start" x="429.5" y="-140.5" font-family="Helvetica,sans-Serif" font-size="10.00">/home/travis/build</text>
<text text-anchor="start" x="429.5" y="-129.5" font-family="Helvetica,sans-Serif" font-size="10.00">/AliceO2Group/AliceO2</text>
<text text-anchor="start" x="429.5" y="-118.5" font-family="Helvetica,sans-Serif" font-size="10.00">/DataFormats/Detectors</text>
<text text-anchor="start" x="429.5" y="-107.5" font-family="Helvetica,sans-Serif" font-size="10.00">/EMCAL/include/DataFormatsEMCAL</text>
<text text-anchor="middle" x="512.5" y="-96.5" font-family="Helvetica,sans-Serif" font-size="10.00">/EMCALBlockHeader.h</text>
</g>
<!-- Node2 -->
<g id="node2" class="node"><title>Node2</title>
<g id="a_node2"><a xlink:href="../../d7/d7a/EMCALBlockHeader_8cxx.html" target="_top" xlink:title="/home/travis/build\l/AliceO2Group/AliceO2\l/DataFormats/Detectors\l/EMCAL/src/EMCALBlockHeader.cxx">
<polygon fill="none" stroke="black" points="0,-0.5 0,-52.5 183,-52.5 183,-0.5 0,-0.5"/>
<text text-anchor="start" x="8" y="-40.5" font-family="Helvetica,sans-Serif" font-size="10.00">/home/travis/build</text>
<text text-anchor="start" x="8" y="-29.5" font-family="Helvetica,sans-Serif" font-size="10.00">/AliceO2Group/AliceO2</text>
<text text-anchor="start" x="8" y="-18.5" font-family="Helvetica,sans-Serif" font-size="10.00">/DataFormats/Detectors</text>
<text text-anchor="middle" x="91.5" y="-7.5" font-family="Helvetica,sans-Serif" font-size="10.00">/EMCAL/src/EMCALBlockHeader.cxx</text>
</a>
</g>
</g>
<!-- Node1&#45;&gt;Node2 -->
<g id="edge1" class="edge"><title>Node1&#45;&gt;Node2</title>
<path fill="none" stroke="midnightblue" d="M411.298,-99.9135C348.227,-87.1223 265.472,-69.8435 192.5,-53 189.416,-52.2882 186.282,-51.5545 183.119,-50.8054"/>
<polygon fill="midnightblue" stroke="midnightblue" points="410.751,-103.374 421.247,-101.927 412.14,-96.5128 410.751,-103.374"/>
</g>
<!-- Node3 -->
<g id="node3" class="node"><title>Node3</title>
<g id="a_node3"><a xlink:href="../../dc/d06/CellConverterSpec_8cxx.html" target="_top" xlink:title="/home/travis/build\l/AliceO2Group/AliceO2\l/Detectors/EMCAL/workflow\l/src/CellConverterSpec.cxx">
<polygon fill="none" stroke="black" points="201.5,-0.5 201.5,-52.5 343.5,-52.5 343.5,-0.5 201.5,-0.5"/>
<text text-anchor="start" x="209.5" y="-40.5" font-family="Helvetica,sans-Serif" font-size="10.00">/home/travis/build</text>
<text text-anchor="start" x="209.5" y="-29.5" font-family="Helvetica,sans-Serif" font-size="10.00">/AliceO2Group/AliceO2</text>
<text text-anchor="start" x="209.5" y="-18.5" font-family="Helvetica,sans-Serif" font-size="10.00">/Detectors/EMCAL/workflow</text>
<text text-anchor="middle" x="272.5" y="-7.5" font-family="Helvetica,sans-Serif" font-size="10.00">/src/CellConverterSpec.cxx</text>
</a>
</g>
</g>
<!-- Node1&#45;&gt;Node3 -->
<g id="edge2" class="edge"><title>Node1&#45;&gt;Node3</title>
<path fill="none" stroke="midnightblue" d="M423.689,-85.7709C395.183,-74.7839 364.153,-62.8244 337.664,-52.6152"/>
<polygon fill="midnightblue" stroke="midnightblue" points="422.66,-89.1252 433.25,-89.4557 425.178,-82.5935 422.66,-89.1252"/>
</g>
<!-- Node4 -->
<g id="node4" class="node"><title>Node4</title>
<g id="a_node4"><a xlink:href="../../d7/d67/EMCAL_2workflow_2src_2ClusterizerSpec_8cxx.html" target="_top" xlink:title="/home/travis/build\l/AliceO2Group/AliceO2\l/Detectors/EMCAL/workflow\l/src/ClusterizerSpec.cxx">
<polygon fill="none" stroke="black" points="361.5,-0.5 361.5,-52.5 503.5,-52.5 503.5,-0.5 361.5,-0.5"/>
<text text-anchor="start" x="369.5" y="-40.5" font-family="Helvetica,sans-Serif" font-size="10.00">/home/travis/build</text>
<text text-anchor="start" x="369.5" y="-29.5" font-family="Helvetica,sans-Serif" font-size="10.00">/AliceO2Group/AliceO2</text>
<text text-anchor="start" x="369.5" y="-18.5" font-family="Helvetica,sans-Serif" font-size="10.00">/Detectors/EMCAL/workflow</text>
<text text-anchor="middle" x="432.5" y="-7.5" font-family="Helvetica,sans-Serif" font-size="10.00">/src/ClusterizerSpec.cxx</text>
</a>
</g>
</g>
<!-- Node1&#45;&gt;Node4 -->
<g id="edge3" class="edge"><title>Node1&#45;&gt;Node4</title>
<path fill="none" stroke="midnightblue" d="M479.423,-81.7546C470.967,-71.9771 462.085,-61.7073 454.351,-52.7655"/>
<polygon fill="midnightblue" stroke="midnightblue" points="476.894,-84.1816 486.083,-89.4557 482.189,-79.6025 476.894,-84.1816"/>
</g>
<!-- Node5 -->
<g id="node5" class="node"><title>Node5</title>
<g id="a_node5"><a xlink:href="../../df/d5e/DigitsPrinterSpec_8cxx.html" target="_top" xlink:title="/home/travis/build\l/AliceO2Group/AliceO2\l/Detectors/EMCAL/workflow\l/src/DigitsPrinterSpec.cxx">
<polygon fill="none" stroke="black" points="521.5,-0.5 521.5,-52.5 663.5,-52.5 663.5,-0.5 521.5,-0.5"/>
<text text-anchor="start" x="529.5" y="-40.5" font-family="Helvetica,sans-Serif" font-size="10.00">/home/travis/build</text>
<text text-anchor="start" x="529.5" y="-29.5" font-family="Helvetica,sans-Serif" font-size="10.00">/AliceO2Group/AliceO2</text>
<text text-anchor="start" x="529.5" y="-18.5" font-family="Helvetica,sans-Serif" font-size="10.00">/Detectors/EMCAL/workflow</text>
<text text-anchor="middle" x="592.5" y="-7.5" font-family="Helvetica,sans-Serif" font-size="10.00">/src/DigitsPrinterSpec.cxx</text>
</a>
</g>
</g>
<!-- Node1&#45;&gt;Node5 -->
<g id="edge4" class="edge"><title>Node1&#45;&gt;Node5</title>
<path fill="none" stroke="midnightblue" d="M545.577,-81.7546C554.033,-71.9771 562.915,-61.7073 570.649,-52.7655"/>
<polygon fill="midnightblue" stroke="midnightblue" points="542.811,-79.6025 538.917,-89.4557 548.106,-84.1816 542.811,-79.6025"/>
</g>
<!-- Node6 -->
<g id="node6" class="node"><title>Node6</title>
<g id="a_node6"><a xlink:href="../../d4/d71/EMCAL_2workflow_2src_2PublisherSpec_8cxx.html" target="_top" xlink:title="/home/travis/build\l/AliceO2Group/AliceO2\l/Detectors/EMCAL/workflow\l/src/PublisherSpec.cxx">
<polygon fill="none" stroke="black" points="681.5,-0.5 681.5,-52.5 823.5,-52.5 823.5,-0.5 681.5,-0.5"/>
<text text-anchor="start" x="689.5" y="-40.5" font-family="Helvetica,sans-Serif" font-size="10.00">/home/travis/build</text>
<text text-anchor="start" x="689.5" y="-29.5" font-family="Helvetica,sans-Serif" font-size="10.00">/AliceO2Group/AliceO2</text>
<text text-anchor="start" x="689.5" y="-18.5" font-family="Helvetica,sans-Serif" font-size="10.00">/Detectors/EMCAL/workflow</text>
<text text-anchor="middle" x="752.5" y="-7.5" font-family="Helvetica,sans-Serif" font-size="10.00">/src/PublisherSpec.cxx</text>
</a>
</g>
</g>
<!-- Node1&#45;&gt;Node6 -->
<g id="edge5" class="edge"><title>Node1&#45;&gt;Node6</title>
<path fill="none" stroke="midnightblue" d="M601.311,-85.7709C629.817,-74.7839 660.847,-62.8244 687.336,-52.6152"/>
<polygon fill="midnightblue" stroke="midnightblue" points="599.822,-82.5935 591.75,-89.4557 602.34,-89.1252 599.822,-82.5935"/>
</g>
<!-- Node7 -->
<g id="node7" class="node"><title>Node7</title>
<g id="a_node7"><a xlink:href="../../d2/dbf/EMCAL_2workflow_2src_2RecoWorkflow_8cxx.html" target="_top" xlink:title="/home/travis/build\l/AliceO2Group/AliceO2\l/Detectors/EMCAL/workflow\l/src/RecoWorkflow.cxx">
<polygon fill="none" stroke="black" points="841.5,-0.5 841.5,-52.5 983.5,-52.5 983.5,-0.5 841.5,-0.5"/>
<text text-anchor="start" x="849.5" y="-40.5" font-family="Helvetica,sans-Serif" font-size="10.00">/home/travis/build</text>
<text text-anchor="start" x="849.5" y="-29.5" font-family="Helvetica,sans-Serif" font-size="10.00">/AliceO2Group/AliceO2</text>
<text text-anchor="start" x="849.5" y="-18.5" font-family="Helvetica,sans-Serif" font-size="10.00">/Detectors/EMCAL/workflow</text>
<text text-anchor="middle" x="912.5" y="-7.5" font-family="Helvetica,sans-Serif" font-size="10.00">/src/RecoWorkflow.cxx</text>
</a>
</g>
</g>
<!-- Node1&#45;&gt;Node7 -->
<g id="edge6" class="edge"><title>Node1&#45;&gt;Node7</title>
<path fill="none" stroke="midnightblue" d="M613.749,-101.548C677.008,-89.3426 759.948,-72.1048 832.5,-53 835.319,-52.2576 838.186,-51.4755 841.077,-50.6646"/>
<polygon fill="midnightblue" stroke="midnightblue" points="612.931,-98.1412 603.77,-103.463 614.25,-105.016 612.931,-98.1412"/>
</g>
</g>
</svg>
