<?xml version="1.0" encoding="UTF-8" standalone="no"?>
<!DOCTYPE svg PUBLIC "-//W3C//DTD SVG 1.1//EN"
 "http://www.w3.org/Graphics/SVG/1.1/DTD/svg11.dtd">
<!-- Generated by graphviz version 2.38.0 (20140413.2041)
 -->
<!-- Title: /home/travis/build/AliceO2Group/AliceO2/Detectors/TPC/base/include/TPCBase/Digit.h Pages: 1 -->
<svg width="2117pt" height="539pt"
 viewBox="0.00 0.00 2116.50 539.00" xmlns="http://www.w3.org/2000/svg" xmlns:xlink="http://www.w3.org/1999/xlink">
<g id="graph0" class="graph" transform="scale(1 1) rotate(0) translate(4 535)">
<title>/home/travis/build/AliceO2Group/AliceO2/Detectors/TPC/base/include/TPCBase/Digit.h</title>
<!-- Node1 -->
<g id="node1" class="node"><title>Node1</title>
<polygon fill="#bfbfbf" stroke="black" points="1050.5,-478.5 1050.5,-530.5 1193.5,-530.5 1193.5,-478.5 1050.5,-478.5"/>
<text text-anchor="start" x="1058.5" y="-518.5" font-family="Helvetica,sans-Serif" font-size="10.00">/home/travis/build</text>
<text text-anchor="start" x="1058.5" y="-507.5" font-family="Helvetica,sans-Serif" font-size="10.00">/AliceO2Group/AliceO2</text>
<text text-anchor="start" x="1058.5" y="-496.5" font-family="Helvetica,sans-Serif" font-size="10.00">/Detectors/TPC/base/include</text>
<text text-anchor="middle" x="1122" y="-485.5" font-family="Helvetica,sans-Serif" font-size="10.00">/TPCBase/Digit.h</text>
</g>
<!-- Node2 -->
<g id="node2" class="node"><title>Node2</title>
<g id="a_node2"><a xlink:href="../../db/d7d/Detectors_2TPC_2base_2src_2Digit_8cxx.html" target="_top" xlink:title="/home/travis/build\l/AliceO2Group/AliceO2\l/Detectors/TPC/base/src\l/Digit.cxx">
<polygon fill="none" stroke="black" points="0,-384 0,-436 126,-436 126,-384 0,-384"/>
<text text-anchor="start" x="8" y="-424" font-family="Helvetica,sans-Serif" font-size="10.00">/home/travis/build</text>
<text text-anchor="start" x="8" y="-413" font-family="Helvetica,sans-Serif" font-size="10.00">/AliceO2Group/AliceO2</text>
<text text-anchor="start" x="8" y="-402" font-family="Helvetica,sans-Serif" font-size="10.00">/Detectors/TPC/base/src</text>
<text text-anchor="middle" x="63" y="-391" font-family="Helvetica,sans-Serif" font-size="10.00">/Digit.cxx</text>
</a>
</g>
</g>
<!-- Node1&#45;&gt;Node2 -->
<g id="edge1" class="edge"><title>Node1&#45;&gt;Node2</title>
<path fill="none" stroke="midnightblue" d="M1040.32,-501.738C836.684,-496.808 310.596,-480.623 140,-442 133.254,-440.473 126.33,-438.428 119.533,-436.114"/>
<polygon fill="midnightblue" stroke="midnightblue" points="1040.28,-505.238 1050.36,-501.978 1040.44,-498.24 1040.28,-505.238"/>
</g>
<!-- Node3 -->
<g id="node3" class="node"><title>Node3</title>
<g id="a_node3"><a xlink:href="../../d6/d25/DigitDump_8h.html" target="_top" xlink:title="/home/travis/build\l/AliceO2Group/AliceO2\l/Detectors/TPC/calibration\l/include/TPCCalibration/DigitDump.h">
<polygon fill="none" stroke="black" points="65,-184 65,-236 243,-236 243,-184 65,-184"/>
<text text-anchor="start" x="73" y="-224" font-family="Helvetica,sans-Serif" font-size="10.00">/home/travis/build</text>
<text text-anchor="start" x="73" y="-213" font-family="Helvetica,sans-Serif" font-size="10.00">/AliceO2Group/AliceO2</text>
<text text-anchor="start" x="73" y="-202" font-family="Helvetica,sans-Serif" font-size="10.00">/Detectors/TPC/calibration</text>
<text text-anchor="middle" x="154" y="-191" font-family="Helvetica,sans-Serif" font-size="10.00">/include/TPCCalibration/DigitDump.h</text>
</a>
</g>
</g>
<!-- Node1&#45;&gt;Node3 -->
<g id="edge2" class="edge"><title>Node1&#45;&gt;Node3</title>
<path fill="none" stroke="midnightblue" d="M1040.02,-501.172C838.384,-494.949 329.667,-476.04 261,-442 207.957,-415.705 197.833,-395.743 173,-342 157.191,-307.787 153.84,-263.647 153.473,-236.34"/>
<polygon fill="midnightblue" stroke="midnightblue" points="1040.15,-504.678 1050.26,-501.485 1040.37,-497.681 1040.15,-504.678"/>
</g>
<!-- Node5 -->
<g id="node5" class="node"><title>Node5</title>
<g id="a_node5"><a xlink:href="../../de/d64/TPC_2reconstruction_2include_2TPCReconstruction_2ClustererTask_8h.html" target="_top" xlink:title="/home/travis/build\l/AliceO2Group/AliceO2\l/Detectors/TPC/reconstruction\l/include/TPCReconstruction\l/ClustererTask.h">
<polygon fill="none" stroke="black" points="270,-378.5 270,-441.5 420,-441.5 420,-378.5 270,-378.5"/>
<text text-anchor="start" x="278" y="-429.5" font-family="Helvetica,sans-Serif" font-size="10.00">/home/travis/build</text>
<text text-anchor="start" x="278" y="-418.5" font-family="Helvetica,sans-Serif" font-size="10.00">/AliceO2Group/AliceO2</text>
<text text-anchor="start" x="278" y="-407.5" font-family="Helvetica,sans-Serif" font-size="10.00">/Detectors/TPC/reconstruction</text>
<text text-anchor="start" x="278" y="-396.5" font-family="Helvetica,sans-Serif" font-size="10.00">/include/TPCReconstruction</text>
<text text-anchor="middle" x="345" y="-385.5" font-family="Helvetica,sans-Serif" font-size="10.00">/ClustererTask.h</text>
</a>
</g>
</g>
<!-- Node1&#45;&gt;Node5 -->
<g id="edge4" class="edge"><title>Node1&#45;&gt;Node5</title>
<path fill="none" stroke="midnightblue" d="M1040.15,-498.201C920.269,-489.821 690.095,-471.376 496,-442 471.259,-438.256 444.448,-433.111 420.379,-428.089"/>
<polygon fill="midnightblue" stroke="midnightblue" points="1040.13,-501.708 1050.35,-498.909 1040.61,-494.725 1040.13,-501.708"/>
</g>
<!-- Node7 -->
<g id="node7" class="node"><title>Node7</title>
<g id="a_node7"><a xlink:href="../../db/d52/GBTFrameContainer_8h.html" target="_top" xlink:title="Container class for the GBT Frames. ">
<polygon fill="none" stroke="black" points="505,-378.5 505,-441.5 655,-441.5 655,-378.5 505,-378.5"/>
<text text-anchor="start" x="513" y="-429.5" font-family="Helvetica,sans-Serif" font-size="10.00">/home/travis/build</text>
<text text-anchor="start" x="513" y="-418.5" font-family="Helvetica,sans-Serif" font-size="10.00">/AliceO2Group/AliceO2</text>
<text text-anchor="start" x="513" y="-407.5" font-family="Helvetica,sans-Serif" font-size="10.00">/Detectors/TPC/reconstruction</text>
<text text-anchor="start" x="513" y="-396.5" font-family="Helvetica,sans-Serif" font-size="10.00">/include/TPCReconstruction</text>
<text text-anchor="middle" x="580" y="-385.5" font-family="Helvetica,sans-Serif" font-size="10.00">/GBTFrameContainer.h</text>
</a>
</g>
</g>
<!-- Node1&#45;&gt;Node7 -->
<g id="edge6" class="edge"><title>Node1&#45;&gt;Node7</title>
<path fill="none" stroke="midnightblue" d="M1040.15,-497.352C948.726,-489.342 796.775,-472.6 669,-442 664.545,-440.933 659.999,-439.729 655.437,-438.43"/>
<polygon fill="midnightblue" stroke="midnightblue" points="1039.91,-500.844 1050.18,-498.217 1040.51,-493.87 1039.91,-500.844"/>
</g>
<!-- Node16 -->
<g id="node16" class="node"><title>Node16</title>
<g id="a_node16"><a xlink:href="../../db/dc7/readGBTFrames_8cxx.html" target="_top" xlink:title="/home/travis/build\l/AliceO2Group/AliceO2\l/Detectors/TPC/reconstruction\l/run/readGBTFrames.cxx">
<polygon fill="none" stroke="black" points="702,-284 702,-336 852,-336 852,-284 702,-284"/>
<text text-anchor="start" x="710" y="-324" font-family="Helvetica,sans-Serif" font-size="10.00">/home/travis/build</text>
<text text-anchor="start" x="710" y="-313" font-family="Helvetica,sans-Serif" font-size="10.00">/AliceO2Group/AliceO2</text>
<text text-anchor="start" x="710" y="-302" font-family="Helvetica,sans-Serif" font-size="10.00">/Detectors/TPC/reconstruction</text>
<text text-anchor="middle" x="777" y="-291" font-family="Helvetica,sans-Serif" font-size="10.00">/run/readGBTFrames.cxx</text>
</a>
</g>
</g>
<!-- Node1&#45;&gt;Node16 -->
<g id="edge18" class="edge"><title>Node1&#45;&gt;Node16</title>
<path fill="none" stroke="midnightblue" d="M1040.18,-503.663C930.564,-501.937 744.815,-491.541 702,-442 683.401,-420.479 690.38,-403.963 702,-378 709.418,-361.426 723.187,-347.261 736.922,-336.283"/>
<polygon fill="midnightblue" stroke="midnightblue" points="1040.17,-507.163 1050.22,-503.8 1040.27,-500.164 1040.17,-507.163"/>
</g>
<!-- Node18 -->
<g id="node18" class="node"><title>Node18</title>
<g id="a_node18"><a xlink:href="../../d4/d2e/GPUCATracking_8cxx.html" target="_top" xlink:title="/home/travis/build\l/AliceO2Group/AliceO2\l/Detectors/TPC/reconstruction\l/src/GPUCATracking.cxx">
<polygon fill="none" stroke="black" points="711,-384 711,-436 861,-436 861,-384 711,-384"/>
<text text-anchor="start" x="719" y="-424" font-family="Helvetica,sans-Serif" font-size="10.00">/home/travis/build</text>
<text text-anchor="start" x="719" y="-413" font-family="Helvetica,sans-Serif" font-size="10.00">/AliceO2Group/AliceO2</text>
<text text-anchor="start" x="719" y="-402" font-family="Helvetica,sans-Serif" font-size="10.00">/Detectors/TPC/reconstruction</text>
<text text-anchor="middle" x="786" y="-391" font-family="Helvetica,sans-Serif" font-size="10.00">/src/GPUCATracking.cxx</text>
</a>
</g>
</g>
<!-- Node1&#45;&gt;Node18 -->
<g id="edge19" class="edge"><title>Node1&#45;&gt;Node18</title>
<path fill="none" stroke="midnightblue" d="M1040.22,-486.031C990.602,-474.817 926.21,-459.17 870,-442 864.053,-440.184 857.914,-438.178 851.788,-436.087"/>
<polygon fill="midnightblue" stroke="midnightblue" points="1039.74,-489.509 1050.26,-488.285 1041.27,-482.679 1039.74,-489.509"/>
</g>
<!-- Node19 -->
<g id="node19" class="node"><title>Node19</title>
<g id="a_node19"><a xlink:href="../../d4/d6c/HwClusterer_8cxx.html" target="_top" xlink:title="Hwclusterer for the TPC. ">
<polygon fill="none" stroke="black" points="879,-384 879,-436 1029,-436 1029,-384 879,-384"/>
<text text-anchor="start" x="887" y="-424" font-family="Helvetica,sans-Serif" font-size="10.00">/home/travis/build</text>
<text text-anchor="start" x="887" y="-413" font-family="Helvetica,sans-Serif" font-size="10.00">/AliceO2Group/AliceO2</text>
<text text-anchor="start" x="887" y="-402" font-family="Helvetica,sans-Serif" font-size="10.00">/Detectors/TPC/reconstruction</text>
<text text-anchor="middle" x="954" y="-391" font-family="Helvetica,sans-Serif" font-size="10.00">/src/HwClusterer.cxx</text>
</a>
</g>
</g>
<!-- Node1&#45;&gt;Node19 -->
<g id="edge20" class="edge"><title>Node1&#45;&gt;Node19</title>
<path fill="none" stroke="midnightblue" d="M1067.64,-473.568C1045.63,-461.452 1020.51,-447.623 999.5,-436.052"/>
<polygon fill="midnightblue" stroke="midnightblue" points="1066.09,-476.711 1076.54,-478.468 1069.46,-470.579 1066.09,-476.711"/>
</g>
<!-- Node20 -->
<g id="node20" class="node"><title>Node20</title>
<g id="a_node20"><a xlink:href="../../df/d47/testTPCHwClusterer_8cxx.html" target="_top" xlink:title="This task tests the TPC HwClusterer. ">
<polygon fill="none" stroke="black" points="1047,-384 1047,-436 1197,-436 1197,-384 1047,-384"/>
<text text-anchor="start" x="1055" y="-424" font-family="Helvetica,sans-Serif" font-size="10.00">/home/travis/build</text>
<text text-anchor="start" x="1055" y="-413" font-family="Helvetica,sans-Serif" font-size="10.00">/AliceO2Group/AliceO2</text>
<text text-anchor="start" x="1055" y="-402" font-family="Helvetica,sans-Serif" font-size="10.00">/Detectors/TPC/reconstruction</text>
<text text-anchor="middle" x="1122" y="-391" font-family="Helvetica,sans-Serif" font-size="10.00">/test/testTPCHwClusterer.cxx</text>
</a>
</g>
</g>
<!-- Node1&#45;&gt;Node20 -->
<g id="edge21" class="edge"><title>Node1&#45;&gt;Node20</title>
<path fill="none" stroke="midnightblue" d="M1122,-467.993C1122,-457.409 1122,-446.031 1122,-436.245"/>
<polygon fill="midnightblue" stroke="midnightblue" points="1118.5,-468.224 1122,-478.224 1125.5,-468.224 1118.5,-468.224"/>
</g>
<!-- Node21 -->
<g id="node21" class="node"><title>Node21</title>
<g id="a_node21"><a xlink:href="../../d5/dcb/DigitGlobalPad_8h.html" target="_top" xlink:title="Definition of the GlobalPad container. ">
<polygon fill="none" stroke="black" points="1215,-384 1215,-436 1411,-436 1411,-384 1215,-384"/>
<text text-anchor="start" x="1223" y="-424" font-family="Helvetica,sans-Serif" font-size="10.00">/home/travis/build</text>
<text text-anchor="start" x="1223" y="-413" font-family="Helvetica,sans-Serif" font-size="10.00">/AliceO2Group/AliceO2</text>
<text text-anchor="start" x="1223" y="-402" font-family="Helvetica,sans-Serif" font-size="10.00">/Detectors/TPC/simulation</text>
<text text-anchor="middle" x="1313" y="-391" font-family="Helvetica,sans-Serif" font-size="10.00">/include/TPCSimulation/DigitGlobalPad.h</text>
</a>
</g>
</g>
<!-- Node1&#45;&gt;Node21 -->
<g id="edge22" class="edge"><title>Node1&#45;&gt;Node21</title>
<path fill="none" stroke="midnightblue" d="M1182.81,-474.052C1208.06,-461.822 1237.06,-447.777 1261.27,-436.052"/>
<polygon fill="midnightblue" stroke="midnightblue" points="1181.16,-470.959 1173.69,-478.468 1184.21,-477.259 1181.16,-470.959"/>
</g>
<!-- Node26 -->
<g id="node26" class="node"><title>Node26</title>
<g id="a_node26"><a xlink:href="../../d2/d0b/TPCDigitizerSpec_8cxx.html" target="_top" xlink:title="/home/travis/build\l/AliceO2Group/AliceO2\l/Steer/DigitizerWorkflow\l/src/TPCDigitizerSpec.cxx">
<polygon fill="none" stroke="black" points="1267,-0.5 1267,-52.5 1401,-52.5 1401,-0.5 1267,-0.5"/>
<text text-anchor="start" x="1275" y="-40.5" font-family="Helvetica,sans-Serif" font-size="10.00">/home/travis/build</text>
<text text-anchor="start" x="1275" y="-29.5" font-family="Helvetica,sans-Serif" font-size="10.00">/AliceO2Group/AliceO2</text>
<text text-anchor="start" x="1275" y="-18.5" font-family="Helvetica,sans-Serif" font-size="10.00">/Steer/DigitizerWorkflow</text>
<text text-anchor="middle" x="1334" y="-7.5" font-family="Helvetica,sans-Serif" font-size="10.00">/src/TPCDigitizerSpec.cxx</text>
</a>
</g>
</g>
<!-- Node1&#45;&gt;Node26 -->
<g id="edge36" class="edge"><title>Node1&#45;&gt;Node26</title>
<path fill="none" stroke="midnightblue" d="M1203.67,-498.221C1288.62,-491.019 1413.92,-475.028 1448,-442 1490.82,-400.501 1477,-370.632 1477,-311 1477,-311 1477,-311 1477,-209 1477,-154.931 1489.12,-132.493 1457,-89 1443.17,-70.2756 1422.03,-56.8931 1401.16,-47.4995"/>
<polygon fill="midnightblue" stroke="midnightblue" points="1203.19,-494.747 1193.51,-499.056 1203.77,-501.724 1203.19,-494.747"/>
</g>
<!-- Node28 -->
<g id="node28" class="node"><title>Node28</title>
<g id="a_node28"><a xlink:href="../../dd/d5e/testTPCDigitContainer_8cxx.html" target="_top" xlink:title="This task tests the DigitContainer of the TPC digitization. ">
<polygon fill="none" stroke="black" points="1291.5,-89.5 1291.5,-141.5 1448.5,-141.5 1448.5,-89.5 1291.5,-89.5"/>
<text text-anchor="start" x="1299.5" y="-129.5" font-family="Helvetica,sans-Serif" font-size="10.00">/home/travis/build</text>
<text text-anchor="start" x="1299.5" y="-118.5" font-family="Helvetica,sans-Serif" font-size="10.00">/AliceO2Group/AliceO2</text>
<text text-anchor="start" x="1299.5" y="-107.5" font-family="Helvetica,sans-Serif" font-size="10.00">/Detectors/TPC/simulation</text>
<text text-anchor="middle" x="1370" y="-96.5" font-family="Helvetica,sans-Serif" font-size="10.00">/test/testTPCDigitContainer.cxx</text>
</a>
</g>
</g>
<!-- Node1&#45;&gt;Node28 -->
<g id="edge32" class="edge"><title>Node1&#45;&gt;Node28</title>
<path fill="none" stroke="midnightblue" d="M1204.23,-497.937C1282.83,-490.704 1393.22,-474.875 1420,-442 1440.18,-417.226 1478.12,-349.954 1418,-178 1413.35,-164.703 1404.56,-152.06 1395.75,-141.734"/>
<polygon fill="midnightblue" stroke="midnightblue" points="1203.5,-494.488 1193.85,-498.86 1204.12,-501.461 1203.5,-494.488"/>
</g>
<!-- Node31 -->
<g id="node31" class="node"><title>Node31</title>
<g id="a_node31"><a xlink:href="../../da/d78/CATrackerSpec_8cxx.html" target="_top" xlink:title="Processor spec for running TPC CA tracking. ">
<polygon fill="none" stroke="black" points="1505,-384 1505,-436 1633,-436 1633,-384 1505,-384"/>
<text text-anchor="start" x="1513" y="-424" font-family="Helvetica,sans-Serif" font-size="10.00">/home/travis/build</text>
<text text-anchor="start" x="1513" y="-413" font-family="Helvetica,sans-Serif" font-size="10.00">/AliceO2Group/AliceO2</text>
<text text-anchor="start" x="1513" y="-402" font-family="Helvetica,sans-Serif" font-size="10.00">/Detectors/TPC/workflow</text>
<text text-anchor="middle" x="1569" y="-391" font-family="Helvetica,sans-Serif" font-size="10.00">/src/CATrackerSpec.cxx</text>
</a>
</g>
</g>
<!-- Node1&#45;&gt;Node31 -->
<g id="edge33" class="edge"><title>Node1&#45;&gt;Node31</title>
<path fill="none" stroke="midnightblue" d="M1204.11,-494.903C1279.62,-485.804 1394.2,-468.97 1491,-442 1497.18,-440.279 1503.53,-438.234 1509.83,-436.027"/>
<polygon fill="midnightblue" stroke="midnightblue" points="1203.24,-491.482 1193.72,-496.136 1204.06,-498.433 1203.24,-491.482"/>
</g>
<!-- Node32 -->
<g id="node32" class="node"><title>Node32</title>
<g id="a_node32"><a xlink:href="../../d5/d17/TPC_2workflow_2src_2ClustererSpec_8cxx.html" target="_top" xlink:title="/home/travis/build\l/AliceO2Group/AliceO2\l/Detectors/TPC/workflow\l/src/ClustererSpec.cxx">
<polygon fill="none" stroke="black" points="1651,-384 1651,-436 1779,-436 1779,-384 1651,-384"/>
<text text-anchor="start" x="1659" y="-424" font-family="Helvetica,sans-Serif" font-size="10.00">/home/travis/build</text>
<text text-anchor="start" x="1659" y="-413" font-family="Helvetica,sans-Serif" font-size="10.00">/AliceO2Group/AliceO2</text>
<text text-anchor="start" x="1659" y="-402" font-family="Helvetica,sans-Serif" font-size="10.00">/Detectors/TPC/workflow</text>
<text text-anchor="middle" x="1715" y="-391" font-family="Helvetica,sans-Serif" font-size="10.00">/src/ClustererSpec.cxx</text>
</a>
</g>
</g>
<!-- Node1&#45;&gt;Node32 -->
<g id="edge34" class="edge"><title>Node1&#45;&gt;Node32</title>
<path fill="none" stroke="midnightblue" d="M1203.93,-500.97C1307.53,-496.15 1490.65,-482.206 1642,-442 1648.12,-440.374 1654.4,-438.331 1660.58,-436.074"/>
<polygon fill="midnightblue" stroke="midnightblue" points="1203.68,-497.477 1193.85,-501.422 1204,-504.47 1203.68,-497.477"/>
</g>
<!-- Node33 -->
<g id="node33" class="node"><title>Node33</title>
<g id="a_node33"><a xlink:href="../../d0/d80/TPC_2workflow_2src_2RecoWorkflow_8cxx.html" target="_top" xlink:title="/home/travis/build\l/AliceO2Group/AliceO2\l/Detectors/TPC/workflow\l/src/RecoWorkflow.cxx">
<polygon fill="none" stroke="black" points="1797,-384 1797,-436 1925,-436 1925,-384 1797,-384"/>
<text text-anchor="start" x="1805" y="-424" font-family="Helvetica,sans-Serif" font-size="10.00">/home/travis/build</text>
<text text-anchor="start" x="1805" y="-413" font-family="Helvetica,sans-Serif" font-size="10.00">/AliceO2Group/AliceO2</text>
<text text-anchor="start" x="1805" y="-402" font-family="Helvetica,sans-Serif" font-size="10.00">/Detectors/TPC/workflow</text>
<text text-anchor="middle" x="1861" y="-391" font-family="Helvetica,sans-Serif" font-size="10.00">/src/RecoWorkflow.cxx</text>
</a>
</g>
</g>
<!-- Node1&#45;&gt;Node33 -->
<g id="edge35" class="edge"><title>Node1&#45;&gt;Node33</title>
<path fill="none" stroke="midnightblue" d="M1203.73,-504.012C1330.71,-503.017 1582.17,-493.862 1788,-442 1794.28,-440.419 1800.71,-438.373 1807.03,-436.087"/>
<polygon fill="midnightblue" stroke="midnightblue" points="1203.67,-500.512 1193.69,-504.075 1203.72,-507.512 1203.67,-500.512"/>
</g>
<!-- Node34 -->
<g id="node34" class="node"><title>Node34</title>
<g id="a_node34"><a xlink:href="../../d8/dd2/TPCDigitRootWriterSpec_8cxx.html" target="_top" xlink:title="/home/travis/build\l/AliceO2Group/AliceO2\l/Steer/DigitizerWorkflow\l/src/TPCDigitRootWriterSpec.cxx">
<polygon fill="none" stroke="black" points="1943.5,-384 1943.5,-436 2108.5,-436 2108.5,-384 1943.5,-384"/>
<text text-anchor="start" x="1951.5" y="-424" font-family="Helvetica,sans-Serif" font-size="10.00">/home/travis/build</text>
<text text-anchor="start" x="1951.5" y="-413" font-family="Helvetica,sans-Serif" font-size="10.00">/AliceO2Group/AliceO2</text>
<text text-anchor="start" x="1951.5" y="-402" font-family="Helvetica,sans-Serif" font-size="10.00">/Steer/DigitizerWorkflow</text>
<text text-anchor="middle" x="2026" y="-391" font-family="Helvetica,sans-Serif" font-size="10.00">/src/TPCDigitRootWriterSpec.cxx</text>
</a>
</g>
</g>
<!-- Node1&#45;&gt;Node34 -->
<g id="edge37" class="edge"><title>Node1&#45;&gt;Node34</title>
<path fill="none" stroke="midnightblue" d="M1204.01,-504C1351.59,-503.419 1671.01,-495.394 1934,-442 1941.85,-440.407 1949.95,-438.338 1957.94,-436.024"/>
<polygon fill="midnightblue" stroke="midnightblue" points="1203.68,-500.501 1193.69,-504.029 1203.7,-507.501 1203.68,-500.501"/>
</g>
<!-- Node4 -->
<g id="node4" class="node"><title>Node4</title>
<g id="a_node4"><a xlink:href="../../d6/d66/DigitDump_8cxx.html" target="_top" xlink:title="/home/travis/build\l/AliceO2Group/AliceO2\l/Detectors/TPC/calibration\l/src/DigitDump.cxx">
<polygon fill="none" stroke="black" points="87.5,-89.5 87.5,-141.5 220.5,-141.5 220.5,-89.5 87.5,-89.5"/>
<text text-anchor="start" x="95.5" y="-129.5" font-family="Helvetica,sans-Serif" font-size="10.00">/home/travis/build</text>
<text text-anchor="start" x="95.5" y="-118.5" font-family="Helvetica,sans-Serif" font-size="10.00">/AliceO2Group/AliceO2</text>
<text text-anchor="start" x="95.5" y="-107.5" font-family="Helvetica,sans-Serif" font-size="10.00">/Detectors/TPC/calibration</text>
<text text-anchor="middle" x="154" y="-96.5" font-family="Helvetica,sans-Serif" font-size="10.00">/src/DigitDump.cxx</text>
</a>
</g>
</g>
<!-- Node3&#45;&gt;Node4 -->
<g id="edge3" class="edge"><title>Node3&#45;&gt;Node4</title>
<path fill="none" stroke="midnightblue" d="M154,-173.493C154,-162.909 154,-151.531 154,-141.745"/>
<polygon fill="midnightblue" stroke="midnightblue" points="150.5,-173.724 154,-183.724 157.5,-173.724 150.5,-173.724"/>
</g>
<!-- Node6 -->
<g id="node6" class="node"><title>Node6</title>
<g id="a_node6"><a xlink:href="../../d8/d0f/TPC_2reconstruction_2src_2ClustererTask_8cxx.html" target="_top" xlink:title="/home/travis/build\l/AliceO2Group/AliceO2\l/Detectors/TPC/reconstruction\l/src/ClustererTask.cxx">
<polygon fill="none" stroke="black" points="182,-284 182,-336 332,-336 332,-284 182,-284"/>
<text text-anchor="start" x="190" y="-324" font-family="Helvetica,sans-Serif" font-size="10.00">/home/travis/build</text>
<text text-anchor="start" x="190" y="-313" font-family="Helvetica,sans-Serif" font-size="10.00">/AliceO2Group/AliceO2</text>
<text text-anchor="start" x="190" y="-302" font-family="Helvetica,sans-Serif" font-size="10.00">/Detectors/TPC/reconstruction</text>
<text text-anchor="middle" x="257" y="-291" font-family="Helvetica,sans-Serif" font-size="10.00">/src/ClustererTask.cxx</text>
</a>
</g>
</g>
<!-- Node5&#45;&gt;Node6 -->
<g id="edge5" class="edge"><title>Node5&#45;&gt;Node6</title>
<path fill="none" stroke="midnightblue" d="M310.659,-370.756C300.195,-359.104 288.965,-346.598 279.497,-336.054"/>
<polygon fill="midnightblue" stroke="midnightblue" points="308.112,-373.159 317.398,-378.261 313.321,-368.482 308.112,-373.159"/>
</g>
<!-- Node8 -->
<g id="node8" class="node"><title>Node8</title>
<g id="a_node8"><a xlink:href="../../d7/dd7/CalibRawBase_8h.html" target="_top" xlink:title="/home/travis/build\l/AliceO2Group/AliceO2\l/Detectors/TPC/calibration\l/include/TPCCalibration/CalibRaw\lBase.h">
<polygon fill="none" stroke="black" points="518,-278.5 518,-341.5 684,-341.5 684,-278.5 518,-278.5"/>
<text text-anchor="start" x="526" y="-329.5" font-family="Helvetica,sans-Serif" font-size="10.00">/home/travis/build</text>
<text text-anchor="start" x="526" y="-318.5" font-family="Helvetica,sans-Serif" font-size="10.00">/AliceO2Group/AliceO2</text>
<text text-anchor="start" x="526" y="-307.5" font-family="Helvetica,sans-Serif" font-size="10.00">/Detectors/TPC/calibration</text>
<text text-anchor="start" x="526" y="-296.5" font-family="Helvetica,sans-Serif" font-size="10.00">/include/TPCCalibration/CalibRaw</text>
<text text-anchor="middle" x="601" y="-285.5" font-family="Helvetica,sans-Serif" font-size="10.00">Base.h</text>
</a>
</g>
</g>
<!-- Node7&#45;&gt;Node8 -->
<g id="edge7" class="edge"><title>Node7&#45;&gt;Node8</title>
<path fill="none" stroke="midnightblue" d="M588.703,-368.387C590.62,-359.439 592.62,-350.106 594.436,-341.63"/>
<polygon fill="midnightblue" stroke="midnightblue" points="585.26,-367.75 586.587,-378.261 592.105,-369.216 585.26,-367.75"/>
</g>
<!-- Node7&#45;&gt;Node16 -->
<g id="edge16" class="edge"><title>Node7&#45;&gt;Node16</title>
<path fill="none" stroke="midnightblue" d="M650.632,-373.863C675.72,-361.383 703.435,-347.596 726.502,-336.121"/>
<polygon fill="midnightblue" stroke="midnightblue" points="648.916,-370.808 641.522,-378.395 652.034,-377.075 648.916,-370.808"/>
</g>
<!-- Node17 -->
<g id="node17" class="node"><title>Node17</title>
<g id="a_node17"><a xlink:href="../../d4/dfc/GBTFrameContainer_8cxx.html" target="_top" xlink:title="/home/travis/build\l/AliceO2Group/AliceO2\l/Detectors/TPC/reconstruction\l/src/GBTFrameContainer.cxx">
<polygon fill="none" stroke="black" points="350,-284 350,-336 500,-336 500,-284 350,-284"/>
<text text-anchor="start" x="358" y="-324" font-family="Helvetica,sans-Serif" font-size="10.00">/home/travis/build</text>
<text text-anchor="start" x="358" y="-313" font-family="Helvetica,sans-Serif" font-size="10.00">/AliceO2Group/AliceO2</text>
<text text-anchor="start" x="358" y="-302" font-family="Helvetica,sans-Serif" font-size="10.00">/Detectors/TPC/reconstruction</text>
<text text-anchor="middle" x="425" y="-291" font-family="Helvetica,sans-Serif" font-size="10.00">/src/GBTFrameContainer.cxx</text>
</a>
</g>
</g>
<!-- Node7&#45;&gt;Node17 -->
<g id="edge17" class="edge"><title>Node7&#45;&gt;Node17</title>
<path fill="none" stroke="midnightblue" d="M522.919,-372.91C503.544,-360.66 482.335,-347.251 464.626,-336.054"/>
<polygon fill="midnightblue" stroke="midnightblue" points="521.06,-375.875 531.382,-378.261 524.8,-369.959 521.06,-375.875"/>
</g>
<!-- Node8&#45;&gt;Node3 -->
<g id="edge12" class="edge"><title>Node8&#45;&gt;Node3</title>
<path fill="none" stroke="midnightblue" d="M508.21,-277.986C394.93,-252.316 361.412,-266.785 252,-242 244.429,-240.285 236.602,-238.258 228.824,-236.074"/>
<polygon fill="midnightblue" stroke="midnightblue" points="507.424,-281.396 517.956,-280.248 509.006,-274.577 507.424,-281.396"/>
</g>
<!-- Node9 -->
<g id="node9" class="node"><title>Node9</title>
<g id="a_node9"><a xlink:href="../../da/df1/CalibPedestal_8h.html" target="_top" xlink:title="/home/travis/build\l/AliceO2Group/AliceO2\l/Detectors/TPC/calibration\l/include/TPCCalibration/CalibPedestal.h">
<polygon fill="none" stroke="black" points="795,-184 795,-236 987,-236 987,-184 795,-184"/>
<text text-anchor="start" x="803" y="-224" font-family="Helvetica,sans-Serif" font-size="10.00">/home/travis/build</text>
<text text-anchor="start" x="803" y="-213" font-family="Helvetica,sans-Serif" font-size="10.00">/AliceO2Group/AliceO2</text>
<text text-anchor="start" x="803" y="-202" font-family="Helvetica,sans-Serif" font-size="10.00">/Detectors/TPC/calibration</text>
<text text-anchor="middle" x="891" y="-191" font-family="Helvetica,sans-Serif" font-size="10.00">/include/TPCCalibration/CalibPedestal.h</text>
</a>
</g>
</g>
<!-- Node8&#45;&gt;Node9 -->
<g id="edge8" class="edge"><title>Node8&#45;&gt;Node9</title>
<path fill="none" stroke="midnightblue" d="M693.803,-277.639C733.553,-264.206 779.342,-248.733 816.785,-236.079"/>
<polygon fill="midnightblue" stroke="midnightblue" points="692.456,-274.4 684.102,-280.917 694.697,-281.031 692.456,-274.4"/>
</g>
<!-- Node11 -->
<g id="node11" class="node"><title>Node11</title>
<g id="a_node11"><a xlink:href="../../d2/d5d/CalibPulser_8h.html" target="_top" xlink:title="/home/travis/build\l/AliceO2Group/AliceO2\l/Detectors/TPC/calibration\l/include/TPCCalibration/CalibPulser.h">
<polygon fill="none" stroke="black" points="261,-184 261,-236 443,-236 443,-184 261,-184"/>
<text text-anchor="start" x="269" y="-224" font-family="Helvetica,sans-Serif" font-size="10.00">/home/travis/build</text>
<text text-anchor="start" x="269" y="-213" font-family="Helvetica,sans-Serif" font-size="10.00">/AliceO2Group/AliceO2</text>
<text text-anchor="start" x="269" y="-202" font-family="Helvetica,sans-Serif" font-size="10.00">/Detectors/TPC/calibration</text>
<text text-anchor="middle" x="352" y="-191" font-family="Helvetica,sans-Serif" font-size="10.00">/include/TPCCalibration/CalibPulser.h</text>
</a>
</g>
</g>
<!-- Node8&#45;&gt;Node11 -->
<g id="edge10" class="edge"><title>Node8&#45;&gt;Node11</title>
<path fill="none" stroke="midnightblue" d="M513.805,-274.682C481.553,-261.989 445.622,-247.847 415.827,-236.121"/>
<polygon fill="midnightblue" stroke="midnightblue" points="512.652,-277.99 523.239,-278.395 515.216,-271.476 512.652,-277.99"/>
</g>
<!-- Node13 -->
<g id="node13" class="node"><title>Node13</title>
<g id="a_node13"><a xlink:href="../../d9/d74/CalibRawBase_8cxx.html" target="_top" xlink:title="/home/travis/build\l/AliceO2Group/AliceO2\l/Detectors/TPC/calibration\l/src/CalibRawBase.cxx">
<polygon fill="none" stroke="black" points="461.5,-184 461.5,-236 594.5,-236 594.5,-184 461.5,-184"/>
<text text-anchor="start" x="469.5" y="-224" font-family="Helvetica,sans-Serif" font-size="10.00">/home/travis/build</text>
<text text-anchor="start" x="469.5" y="-213" font-family="Helvetica,sans-Serif" font-size="10.00">/AliceO2Group/AliceO2</text>
<text text-anchor="start" x="469.5" y="-202" font-family="Helvetica,sans-Serif" font-size="10.00">/Detectors/TPC/calibration</text>
<text text-anchor="middle" x="528" y="-191" font-family="Helvetica,sans-Serif" font-size="10.00">/src/CalibRawBase.cxx</text>
</a>
</g>
</g>
<!-- Node8&#45;&gt;Node13 -->
<g id="edge13" class="edge"><title>Node8&#45;&gt;Node13</title>
<path fill="none" stroke="midnightblue" d="M572.016,-270.09C563.478,-258.628 554.367,-246.397 546.662,-236.054"/>
<polygon fill="midnightblue" stroke="midnightblue" points="569.322,-272.332 578.103,-278.261 574.936,-268.151 569.322,-272.332"/>
</g>
<!-- Node14 -->
<g id="node14" class="node"><title>Node14</title>
<g id="a_node14"><a xlink:href="../../db/dc3/SimpleEventDisplay_8h.html" target="_top" xlink:title="/home/travis/build\l/AliceO2Group/AliceO2\l/Detectors/TPC/monitor\l/include/TPCMonitor/SimpleEvent\lDisplay.h">
<polygon fill="none" stroke="black" points="613,-178.5 613,-241.5 777,-241.5 777,-178.5 613,-178.5"/>
<text text-anchor="start" x="621" y="-229.5" font-family="Helvetica,sans-Serif" font-size="10.00">/home/travis/build</text>
<text text-anchor="start" x="621" y="-218.5" font-family="Helvetica,sans-Serif" font-size="10.00">/AliceO2Group/AliceO2</text>
<text text-anchor="start" x="621" y="-207.5" font-family="Helvetica,sans-Serif" font-size="10.00">/Detectors/TPC/monitor</text>
<text text-anchor="start" x="621" y="-196.5" font-family="Helvetica,sans-Serif" font-size="10.00">/include/TPCMonitor/SimpleEvent</text>
<text text-anchor="middle" x="695" y="-185.5" font-family="Helvetica,sans-Serif" font-size="10.00">Display.h</text>
</a>
</g>
</g>
<!-- Node8&#45;&gt;Node14 -->
<g id="edge14" class="edge"><title>Node8&#45;&gt;Node14</title>
<path fill="none" stroke="midnightblue" d="M637.474,-270.974C646.798,-261.253 656.704,-250.926 665.62,-241.63"/>
<polygon fill="midnightblue" stroke="midnightblue" points="634.881,-268.621 630.484,-278.261 639.932,-273.467 634.881,-268.621"/>
</g>
<!-- Node10 -->
<g id="node10" class="node"><title>Node10</title>
<g id="a_node10"><a xlink:href="../../d6/d99/CalibPedestal_8cxx.html" target="_top" xlink:title="/home/travis/build\l/AliceO2Group/AliceO2\l/Detectors/TPC/calibration\l/src/CalibPedestal.cxx">
<polygon fill="none" stroke="black" points="804.5,-89.5 804.5,-141.5 937.5,-141.5 937.5,-89.5 804.5,-89.5"/>
<text text-anchor="start" x="812.5" y="-129.5" font-family="Helvetica,sans-Serif" font-size="10.00">/home/travis/build</text>
<text text-anchor="start" x="812.5" y="-118.5" font-family="Helvetica,sans-Serif" font-size="10.00">/AliceO2Group/AliceO2</text>
<text text-anchor="start" x="812.5" y="-107.5" font-family="Helvetica,sans-Serif" font-size="10.00">/Detectors/TPC/calibration</text>
<text text-anchor="middle" x="871" y="-96.5" font-family="Helvetica,sans-Serif" font-size="10.00">/src/CalibPedestal.cxx</text>
</a>
</g>
</g>
<!-- Node9&#45;&gt;Node10 -->
<g id="edge9" class="edge"><title>Node9&#45;&gt;Node10</title>
<path fill="none" stroke="midnightblue" d="M883.394,-173.824C881.086,-163.147 878.596,-151.633 876.458,-141.745"/>
<polygon fill="midnightblue" stroke="midnightblue" points="880.001,-174.69 885.535,-183.724 886.842,-173.21 880.001,-174.69"/>
</g>
<!-- Node12 -->
<g id="node12" class="node"><title>Node12</title>
<g id="a_node12"><a xlink:href="../../d4/ddc/CalibPulser_8cxx.html" target="_top" xlink:title="/home/travis/build\l/AliceO2Group/AliceO2\l/Detectors/TPC/calibration\l/src/CalibPulser.cxx">
<polygon fill="none" stroke="black" points="285.5,-89.5 285.5,-141.5 418.5,-141.5 418.5,-89.5 285.5,-89.5"/>
<text text-anchor="start" x="293.5" y="-129.5" font-family="Helvetica,sans-Serif" font-size="10.00">/home/travis/build</text>
<text text-anchor="start" x="293.5" y="-118.5" font-family="Helvetica,sans-Serif" font-size="10.00">/AliceO2Group/AliceO2</text>
<text text-anchor="start" x="293.5" y="-107.5" font-family="Helvetica,sans-Serif" font-size="10.00">/Detectors/TPC/calibration</text>
<text text-anchor="middle" x="352" y="-96.5" font-family="Helvetica,sans-Serif" font-size="10.00">/src/CalibPulser.cxx</text>
</a>
</g>
</g>
<!-- Node11&#45;&gt;Node12 -->
<g id="edge11" class="edge"><title>Node11&#45;&gt;Node12</title>
<path fill="none" stroke="midnightblue" d="M352,-173.493C352,-162.909 352,-151.531 352,-141.745"/>
<polygon fill="midnightblue" stroke="midnightblue" points="348.5,-173.724 352,-183.724 355.5,-173.724 348.5,-173.724"/>
</g>
<!-- Node15 -->
<g id="node15" class="node"><title>Node15</title>
<g id="a_node15"><a xlink:href="../../d9/df5/SimpleEventDisplay_8cxx.html" target="_top" xlink:title="/home/travis/build\l/AliceO2Group/AliceO2\l/Detectors/TPC/monitor\l/src/SimpleEventDisplay.cxx">
<polygon fill="none" stroke="black" points="623.5,-89.5 623.5,-141.5 766.5,-141.5 766.5,-89.5 623.5,-89.5"/>
<text text-anchor="start" x="631.5" y="-129.5" font-family="Helvetica,sans-Serif" font-size="10.00">/home/travis/build</text>
<text text-anchor="start" x="631.5" y="-118.5" font-family="Helvetica,sans-Serif" font-size="10.00">/AliceO2Group/AliceO2</text>
<text text-anchor="start" x="631.5" y="-107.5" font-family="Helvetica,sans-Serif" font-size="10.00">/Detectors/TPC/monitor</text>
<text text-anchor="middle" x="695" y="-96.5" font-family="Helvetica,sans-Serif" font-size="10.00">/src/SimpleEventDisplay.cxx</text>
</a>
</g>
</g>
<!-- Node14&#45;&gt;Node15 -->
<g id="edge15" class="edge"><title>Node14&#45;&gt;Node15</title>
<path fill="none" stroke="midnightblue" d="M695,-168.423C695,-159.359 695,-149.999 695,-141.766"/>
<polygon fill="midnightblue" stroke="midnightblue" points="691.5,-168.456 695,-178.456 698.5,-168.456 691.5,-168.456"/>
</g>
<!-- Node22 -->
<g id="node22" class="node"><title>Node22</title>
<g id="a_node22"><a xlink:href="../../d0/d60/DigitTime_8h.html" target="_top" xlink:title="Definition of the Time Bin container. ">
<polygon fill="none" stroke="black" points="1226.5,-284 1226.5,-336 1399.5,-336 1399.5,-284 1226.5,-284"/>
<text text-anchor="start" x="1234.5" y="-324" font-family="Helvetica,sans-Serif" font-size="10.00">/home/travis/build</text>
<text text-anchor="start" x="1234.5" y="-313" font-family="Helvetica,sans-Serif" font-size="10.00">/AliceO2Group/AliceO2</text>
<text text-anchor="start" x="1234.5" y="-302" font-family="Helvetica,sans-Serif" font-size="10.00">/Detectors/TPC/simulation</text>
<text text-anchor="middle" x="1313" y="-291" font-family="Helvetica,sans-Serif" font-size="10.00">/include/TPCSimulation/DigitTime.h</text>
</a>
</g>
</g>
<!-- Node21&#45;&gt;Node22 -->
<g id="edge23" class="edge"><title>Node21&#45;&gt;Node22</title>
<path fill="none" stroke="midnightblue" d="M1313,-373.703C1313,-361.277 1313,-347.572 1313,-336.152"/>
<polygon fill="midnightblue" stroke="midnightblue" points="1309.5,-373.763 1313,-383.763 1316.5,-373.763 1309.5,-373.763"/>
</g>
<!-- Node30 -->
<g id="node30" class="node"><title>Node30</title>
<g id="a_node30"><a xlink:href="../../d1/ddd/DigitGlobalPad_8cxx.html" target="_top" xlink:title="Implementation of the Pad container. ">
<polygon fill="none" stroke="black" points="1075.5,-284 1075.5,-336 1208.5,-336 1208.5,-284 1075.5,-284"/>
<text text-anchor="start" x="1083.5" y="-324" font-family="Helvetica,sans-Serif" font-size="10.00">/home/travis/build</text>
<text text-anchor="start" x="1083.5" y="-313" font-family="Helvetica,sans-Serif" font-size="10.00">/AliceO2Group/AliceO2</text>
<text text-anchor="start" x="1083.5" y="-302" font-family="Helvetica,sans-Serif" font-size="10.00">/Detectors/TPC/simulation</text>
<text text-anchor="middle" x="1142" y="-291" font-family="Helvetica,sans-Serif" font-size="10.00">/src/DigitGlobalPad.cxx</text>
</a>
</g>
</g>
<!-- Node21&#45;&gt;Node30 -->
<g id="edge31" class="edge"><title>Node21&#45;&gt;Node30</title>
<path fill="none" stroke="midnightblue" d="M1260.06,-378.657C1236.26,-365.019 1208.5,-349.113 1185.89,-336.152"/>
<polygon fill="midnightblue" stroke="midnightblue" points="1258.55,-381.827 1268.96,-383.763 1262.03,-375.754 1258.55,-381.827"/>
</g>
<!-- Node23 -->
<g id="node23" class="node"><title>Node23</title>
<g id="a_node23"><a xlink:href="../../dd/d94/DigitContainer_8h.html" target="_top" xlink:title="Definition of the Digit Container. ">
<polygon fill="none" stroke="black" points="1216.5,-184 1216.5,-236 1409.5,-236 1409.5,-184 1216.5,-184"/>
<text text-anchor="start" x="1224.5" y="-224" font-family="Helvetica,sans-Serif" font-size="10.00">/home/travis/build</text>
<text text-anchor="start" x="1224.5" y="-213" font-family="Helvetica,sans-Serif" font-size="10.00">/AliceO2Group/AliceO2</text>
<text text-anchor="start" x="1224.5" y="-202" font-family="Helvetica,sans-Serif" font-size="10.00">/Detectors/TPC/simulation</text>
<text text-anchor="middle" x="1313" y="-191" font-family="Helvetica,sans-Serif" font-size="10.00">/include/TPCSimulation/DigitContainer.h</text>
</a>
</g>
</g>
<!-- Node22&#45;&gt;Node23 -->
<g id="edge24" class="edge"><title>Node22&#45;&gt;Node23</title>
<path fill="none" stroke="midnightblue" d="M1313,-273.703C1313,-261.277 1313,-247.572 1313,-236.152"/>
<polygon fill="midnightblue" stroke="midnightblue" points="1309.5,-273.763 1313,-283.763 1316.5,-273.763 1309.5,-273.763"/>
</g>
<!-- Node29 -->
<g id="node29" class="node"><title>Node29</title>
<g id="a_node29"><a xlink:href="../../dd/dcd/DigitTime_8cxx.html" target="_top" xlink:title="Implementation of the Time Bin container. ">
<polygon fill="none" stroke="black" points="1065.5,-184 1065.5,-236 1198.5,-236 1198.5,-184 1065.5,-184"/>
<text text-anchor="start" x="1073.5" y="-224" font-family="Helvetica,sans-Serif" font-size="10.00">/home/travis/build</text>
<text text-anchor="start" x="1073.5" y="-213" font-family="Helvetica,sans-Serif" font-size="10.00">/AliceO2Group/AliceO2</text>
<text text-anchor="start" x="1073.5" y="-202" font-family="Helvetica,sans-Serif" font-size="10.00">/Detectors/TPC/simulation</text>
<text text-anchor="middle" x="1132" y="-191" font-family="Helvetica,sans-Serif" font-size="10.00">/src/DigitTime.cxx</text>
</a>
</g>
</g>
<!-- Node22&#45;&gt;Node29 -->
<g id="edge30" class="edge"><title>Node22&#45;&gt;Node29</title>
<path fill="none" stroke="midnightblue" d="M1257.29,-278.837C1232.03,-265.159 1202.5,-249.17 1178.45,-236.152"/>
<polygon fill="midnightblue" stroke="midnightblue" points="1255.93,-282.079 1266.39,-283.763 1259.26,-275.923 1255.93,-282.079"/>
</g>
<!-- Node24 -->
<g id="node24" class="node"><title>Node24</title>
<g id="a_node24"><a xlink:href="../../de/d92/TPC_2simulation_2include_2TPCSimulation_2Digitizer_8h.html" target="_top" xlink:title="/home/travis/build\l/AliceO2Group/AliceO2\l/Detectors/TPC/simulation\l/include/TPCSimulation/Digitizer.h">
<polygon fill="none" stroke="black" points="955.5,-89.5 955.5,-141.5 1122.5,-141.5 1122.5,-89.5 955.5,-89.5"/>
<text text-anchor="start" x="963.5" y="-129.5" font-family="Helvetica,sans-Serif" font-size="10.00">/home/travis/build</text>
<text text-anchor="start" x="963.5" y="-118.5" font-family="Helvetica,sans-Serif" font-size="10.00">/AliceO2Group/AliceO2</text>
<text text-anchor="start" x="963.5" y="-107.5" font-family="Helvetica,sans-Serif" font-size="10.00">/Detectors/TPC/simulation</text>
<text text-anchor="middle" x="1039" y="-96.5" font-family="Helvetica,sans-Serif" font-size="10.00">/include/TPCSimulation/Digitizer.h</text>
</a>
</g>
</g>
<!-- Node23&#45;&gt;Node24 -->
<g id="edge25" class="edge"><title>Node23&#45;&gt;Node24</title>
<path fill="none" stroke="midnightblue" d="M1229.09,-180.673C1192.1,-168.186 1149.01,-153.637 1113.21,-141.552"/>
<polygon fill="midnightblue" stroke="midnightblue" points="1228.26,-184.086 1238.85,-183.968 1230.5,-177.453 1228.26,-184.086"/>
</g>
<!-- Node27 -->
<g id="node27" class="node"><title>Node27</title>
<g id="a_node27"><a xlink:href="../../df/d53/DigitContainer_8cxx.html" target="_top" xlink:title="Implementation of the Digit Container. ">
<polygon fill="none" stroke="black" points="1140.5,-89.5 1140.5,-141.5 1273.5,-141.5 1273.5,-89.5 1140.5,-89.5"/>
<text text-anchor="start" x="1148.5" y="-129.5" font-family="Helvetica,sans-Serif" font-size="10.00">/home/travis/build</text>
<text text-anchor="start" x="1148.5" y="-118.5" font-family="Helvetica,sans-Serif" font-size="10.00">/AliceO2Group/AliceO2</text>
<text text-anchor="start" x="1148.5" y="-107.5" font-family="Helvetica,sans-Serif" font-size="10.00">/Detectors/TPC/simulation</text>
<text text-anchor="middle" x="1207" y="-96.5" font-family="Helvetica,sans-Serif" font-size="10.00">/src/DigitContainer.cxx</text>
</a>
</g>
</g>
<!-- Node23&#45;&gt;Node27 -->
<g id="edge28" class="edge"><title>Node23&#45;&gt;Node27</title>
<path fill="none" stroke="midnightblue" d="M1276.65,-177.279C1263.27,-165.606 1248.32,-152.557 1235.71,-141.552"/>
<polygon fill="midnightblue" stroke="midnightblue" points="1274.48,-180.03 1284.31,-183.968 1279.08,-174.756 1274.48,-180.03"/>
</g>
<!-- Node23&#45;&gt;Node28 -->
<g id="edge29" class="edge"><title>Node23&#45;&gt;Node28</title>
<path fill="none" stroke="midnightblue" d="M1333.86,-175.14C1340.67,-164.099 1348.1,-152.041 1354.44,-141.745"/>
<polygon fill="midnightblue" stroke="midnightblue" points="1330.84,-173.374 1328.58,-183.724 1336.8,-177.047 1330.84,-173.374"/>
</g>
<!-- Node25 -->
<g id="node25" class="node"><title>Node25</title>
<g id="a_node25"><a xlink:href="../../d7/d0a/TPC_2simulation_2src_2Digitizer_8cxx.html" target="_top" xlink:title="/home/travis/build\l/AliceO2Group/AliceO2\l/Detectors/TPC/simulation\l/src/Digitizer.cxx">
<polygon fill="none" stroke="black" points="972.5,-0.5 972.5,-52.5 1105.5,-52.5 1105.5,-0.5 972.5,-0.5"/>
<text text-anchor="start" x="980.5" y="-40.5" font-family="Helvetica,sans-Serif" font-size="10.00">/home/travis/build</text>
<text text-anchor="start" x="980.5" y="-29.5" font-family="Helvetica,sans-Serif" font-size="10.00">/AliceO2Group/AliceO2</text>
<text text-anchor="start" x="980.5" y="-18.5" font-family="Helvetica,sans-Serif" font-size="10.00">/Detectors/TPC/simulation</text>
<text text-anchor="middle" x="1039" y="-7.5" font-family="Helvetica,sans-Serif" font-size="10.00">/src/Digitizer.cxx</text>
</a>
</g>
</g>
<!-- Node24&#45;&gt;Node25 -->
<g id="edge26" class="edge"><title>Node24&#45;&gt;Node25</title>
<path fill="none" stroke="midnightblue" d="M1039,-79.1908C1039,-70.2824 1039,-60.8986 1039,-52.6075"/>
<polygon fill="midnightblue" stroke="midnightblue" points="1035.5,-79.336 1039,-89.336 1042.5,-79.336 1035.5,-79.336"/>
</g>
<!-- Node24&#45;&gt;Node26 -->
<g id="edge27" class="edge"><title>Node24&#45;&gt;Node26</title>
<path fill="none" stroke="midnightblue" d="M1132.52,-86.9203C1176.17,-74.0459 1227.15,-59.0131 1266.9,-47.2892"/>
<polygon fill="midnightblue" stroke="midnightblue" points="1131.35,-83.6162 1122.75,-89.802 1133.33,-90.3303 1131.35,-83.6162"/>
</g>
</g>
</svg>
