<?xml version="1.0" encoding="UTF-8" standalone="no"?>
<!DOCTYPE svg PUBLIC "-//W3C//DTD SVG 1.1//EN"
 "http://www.w3.org/Graphics/SVG/1.1/DTD/svg11.dtd">
<!-- Generated by graphviz version 2.38.0 (20140413.2041)
 -->
<!-- Title: GPUCA_NAMESPACE::gpu::GPUTPCClusterFinderKernels::GPUTPCSharedMemory Pages: 1 -->
<!--zoomable 513 -->
<svg id="main" version="1.1" xmlns="http://www.w3.org/2000/svg" xmlns:xlink="http://www.w3.org/1999/xlink" xml:space="preserve" onload="init(evt)">
<style type="text/css"><![CDATA[
.edge:hover path { stroke: red; }
.edge:hover polygon { stroke: red; fill: red; }
]]></style>
<script type="text/javascript"><![CDATA[
var edges = document.getElementsByTagName('g');
if (edges && edges.length) {
  for (var i=0;i<edges.length;i++) {
    if (edges[i].id.substr(0,4)=='edge') {
      edges[i].setAttribute('class','edge');
    }
  }
}
]]></script>
        <defs>
                <circle id="rim" cx="0" cy="0" r="7"/>
                <circle id="rim2" cx="0" cy="0" r="3.5"/>
                <g id="zoomPlus">
                        <use xlink:href="#rim" fill="#404040">
                                <set attributeName="fill" to="#808080" begin="zoomplus.mouseover" end="zoomplus.mouseout"/>
                        </use>
                        <path d="M-4,0h8M0,-4v8" fill="none" stroke="white" stroke-width="1.5" pointer-events="none"/>
                </g>
                <g id="zoomMin">
                        <use xlink:href="#rim" fill="#404040">
                                <set attributeName="fill" to="#808080" begin="zoomminus.mouseover" end="zoomminus.mouseout"/>
                        </use>
                        <path d="M-4,0h8" fill="none" stroke="white" stroke-width="1.5" pointer-events="none"/>
                </g>
                <g id="dirArrow">
                        <path fill="none" stroke="white" stroke-width="1.5" d="M0,-3.0v7 M-2.5,-0.5L0,-3.0L2.5,-0.5"/>
                </g>
               <g id="resetDef">
                       <use xlink:href="#rim2" fill="#404040">
                               <set attributeName="fill" to="#808080" begin="reset.mouseover" end="reset.mouseout"/>
                       </use>
               </g>
        </defs>

<script type="text/javascript">
var viewWidth = 790;
var viewHeight = 513;
var sectionId = 'dynsection-0';
</script>
<script xlink:href="../../svgpan.js"/>
<svg id="graph" class="graph">
<g id="viewport">
<title>GPUCA_NAMESPACE::gpu::GPUTPCClusterFinderKernels::GPUTPCSharedMemory</title>
<!-- Node1 -->
<g id="node1" class="node"><title>Node1</title>
<polygon fill="#bfbfbf" stroke="black" points="338,-0.5 338,-79.5 494,-79.5 494,-0.5 338,-0.5"/>
<text text-anchor="start" x="346" y="-67.5" font-family="Helvetica,sans-Serif" font-size="10.00">GPUCA_NAMESPACE::gpu</text>
<text text-anchor="start" x="346" y="-56.5" font-family="Helvetica,sans-Serif" font-size="10.00">::GPUTPCClusterFinderKernels</text>
<text text-anchor="middle" x="416" y="-45.5" font-family="Helvetica,sans-Serif" font-size="10.00">::GPUTPCSharedMemory</text>
<polyline fill="none" stroke="black" points="338,-38.5 494,-38.5 "/>
<text text-anchor="middle" x="416" y="-26.5" font-family="Helvetica,sans-Serif" font-size="10.00"> </text>
<polyline fill="none" stroke="black" points="338,-19.5 494,-19.5 "/>
<text text-anchor="middle" x="416" y="-7.5" font-family="Helvetica,sans-Serif" font-size="10.00"> </text>
</g>
<!-- Node2 -->
<g id="node2" class="node"><title>Node2</title>
<g id="a_node2"><a xlink:href="../../dc/d7b/structGPUCA__NAMESPACE_1_1gpu_1_1GPUTPCSharedMemoryData_1_1count__t.html" target="_top" xlink:title="{GPUCA_NAMESPACE::gpu\l::GPUTPCSharedMemoryData\l::count_t\n||}">
<polygon fill="none" stroke="black" points="0,-127.5 0,-206.5 152,-206.5 152,-127.5 0,-127.5"/>
<text text-anchor="start" x="8" y="-194.5" font-family="Helvetica,sans-Serif" font-size="10.00">GPUCA_NAMESPACE::gpu</text>
<text text-anchor="start" x="8" y="-183.5" font-family="Helvetica,sans-Serif" font-size="10.00">::GPUTPCSharedMemoryData</text>
<text text-anchor="middle" x="76" y="-172.5" font-family="Helvetica,sans-Serif" font-size="10.00">::count_t</text>
<polyline fill="none" stroke="black" points="0,-165.5 152,-165.5 "/>
<text text-anchor="middle" x="76" y="-153.5" font-family="Helvetica,sans-Serif" font-size="10.00"> </text>
<polyline fill="none" stroke="black" points="0,-146.5 152,-146.5 "/>
<text text-anchor="middle" x="76" y="-134.5" font-family="Helvetica,sans-Serif" font-size="10.00"> </text>
</a>
</g>
</g>
<!-- Node2&#45;&gt;Node1 -->
<g id="edge1" class="edge"><title>Node2&#45;&gt;Node1</title>
<path fill="none" stroke="#404040" d="M152.292,-130.538C155.223,-129.321 158.133,-128.138 161,-127 215.175,-105.505 277.104,-84.5371 326.365,-68.6871"/>
<polygon fill="none" stroke="#404040" points="326.529,-68.6346 331.024,-62.9958 337.958,-64.9761 333.463,-70.615 326.529,-68.6346"/>
<text text-anchor="middle" x="255" y="-101" font-family="Helvetica,sans-Serif" font-size="10.00"> +count</text>
</g>
<!-- Node3 -->
<g id="node3" class="node"><title>Node3</title>
<g id="a_node3"><a xlink:href="../../dd/d68/structGPUCA__NAMESPACE_1_1gpu_1_1ChargePos.html" target="_top" xlink:title="{GPUCA_NAMESPACE::gpu\l::ChargePos\n||}">
<polygon fill="none" stroke="black" points="307.5,-293 307.5,-361 450.5,-361 450.5,-293 307.5,-293"/>
<text text-anchor="start" x="315.5" y="-349" font-family="Helvetica,sans-Serif" font-size="10.00">GPUCA_NAMESPACE::gpu</text>
<text text-anchor="middle" x="379" y="-338" font-family="Helvetica,sans-Serif" font-size="10.00">::ChargePos</text>
<polyline fill="none" stroke="black" points="307.5,-331 450.5,-331 "/>
<text text-anchor="middle" x="379" y="-319" font-family="Helvetica,sans-Serif" font-size="10.00"> </text>
<polyline fill="none" stroke="black" points="307.5,-312 450.5,-312 "/>
<text text-anchor="middle" x="379" y="-300" font-family="Helvetica,sans-Serif" font-size="10.00"> </text>
</a>
</g>
</g>
<!-- Node3&#45;&gt;Node2 -->
<g id="edge2" class="edge"><title>Node3&#45;&gt;Node2</title>
<path fill="none" stroke="#404040" d="M322.525,-292.976C301.948,-279.815 279.071,-263.803 260,-247 250.306,-238.459 252.082,-231.641 241,-225 212.792,-208.096 198.466,-216.538 164.067,-207.465"/>
<polygon fill="none" stroke="#404040" points="163.633,-207.333 156.73,-209.419 152.15,-203.849 159.053,-201.764 163.633,-207.333"/>
<text text-anchor="middle" x="288" y="-233.5" font-family="Helvetica,sans-Serif" font-size="10.00"> +posBcast1</text>
</g>
<!-- Node6 -->
<g id="node6" class="node"><title>Node6</title>
<g id="a_node6"><a xlink:href="../../dc/d3c/structGPUCA__NAMESPACE_1_1gpu_1_1GPUTPCSharedMemoryData_1_1build__t.html" target="_top" xlink:title="{GPUCA_NAMESPACE::gpu\l::GPUTPCSharedMemoryData\l::build_t\n||}">
<polygon fill="none" stroke="black" points="170,-127.5 170,-206.5 322,-206.5 322,-127.5 170,-127.5"/>
<text text-anchor="start" x="178" y="-194.5" font-family="Helvetica,sans-Serif" font-size="10.00">GPUCA_NAMESPACE::gpu</text>
<text text-anchor="start" x="178" y="-183.5" font-family="Helvetica,sans-Serif" font-size="10.00">::GPUTPCSharedMemoryData</text>
<text text-anchor="middle" x="246" y="-172.5" font-family="Helvetica,sans-Serif" font-size="10.00">::build_t</text>
<polyline fill="none" stroke="black" points="170,-165.5 322,-165.5 "/>
<text text-anchor="middle" x="246" y="-153.5" font-family="Helvetica,sans-Serif" font-size="10.00"> </text>
<polyline fill="none" stroke="black" points="170,-146.5 322,-146.5 "/>
<text text-anchor="middle" x="246" y="-134.5" font-family="Helvetica,sans-Serif" font-size="10.00"> </text>
</a>
</g>
</g>
<!-- Node3&#45;&gt;Node6 -->
<g id="edge8" class="edge"><title>Node3&#45;&gt;Node6</title>
<path fill="none" stroke="#404040" d="M363.82,-292.968C353.298,-272.145 337.975,-245.43 320,-225 316.895,-221.471 313.545,-218.011 310.044,-214.648"/>
<polygon fill="none" stroke="#404040" points="309.969,-214.58 302.838,-213.505 301.088,-206.51 308.219,-207.585 309.969,-214.58"/>
<text text-anchor="middle" x="361.5" y="-233.5" font-family="Helvetica,sans-Serif" font-size="10.00"> +posBcast</text>
</g>
<!-- Node9 -->
<g id="node9" class="node"><title>Node9</title>
<g id="a_node9"><a xlink:href="../../d4/dc9/structGPUCA__NAMESPACE_1_1gpu_1_1GPUTPCSharedMemoryData_1_1search__t.html" target="_top" xlink:title="{GPUCA_NAMESPACE::gpu\l::GPUTPCSharedMemoryData\l::search_t\n||}">
<polygon fill="none" stroke="black" points="630,-127.5 630,-206.5 782,-206.5 782,-127.5 630,-127.5"/>
<text text-anchor="start" x="638" y="-194.5" font-family="Helvetica,sans-Serif" font-size="10.00">GPUCA_NAMESPACE::gpu</text>
<text text-anchor="start" x="638" y="-183.5" font-family="Helvetica,sans-Serif" font-size="10.00">::GPUTPCSharedMemoryData</text>
<text text-anchor="middle" x="706" y="-172.5" font-family="Helvetica,sans-Serif" font-size="10.00">::search_t</text>
<polyline fill="none" stroke="black" points="630,-165.5 782,-165.5 "/>
<text text-anchor="middle" x="706" y="-153.5" font-family="Helvetica,sans-Serif" font-size="10.00"> </text>
<polyline fill="none" stroke="black" points="630,-146.5 782,-146.5 "/>
<text text-anchor="middle" x="706" y="-134.5" font-family="Helvetica,sans-Serif" font-size="10.00"> </text>
</a>
</g>
</g>
<!-- Node3&#45;&gt;Node9 -->
<g id="edge12" class="edge"><title>Node3&#45;&gt;Node9</title>
<path fill="none" stroke="#404040" d="M445.384,-292.901C468.21,-280.063 493.229,-264.281 514,-247 523.932,-238.737 521.854,-231.532 533,-225 564.348,-206.629 580.098,-217.064 617.975,-207.414"/>
<polygon fill="none" stroke="#404040" points="618.36,-207.301 622.991,-201.774 629.874,-203.923 625.243,-209.45 618.36,-207.301"/>
<text text-anchor="middle" x="558.5" y="-233.5" font-family="Helvetica,sans-Serif" font-size="10.00"> +posBcast</text>
</g>
<!-- Node11 -->
<g id="node11" class="node"><title>Node11</title>
<g id="a_node11"><a xlink:href="../../d1/d92/structGPUCA__NAMESPACE_1_1gpu_1_1GPUTPCSharedMemoryData_1_1noise__t.html" target="_top" xlink:title="{GPUCA_NAMESPACE::gpu\l::GPUTPCSharedMemoryData\l::noise_t\n||}">
<polygon fill="none" stroke="black" points="340,-127.5 340,-206.5 492,-206.5 492,-127.5 340,-127.5"/>
<text text-anchor="start" x="348" y="-194.5" font-family="Helvetica,sans-Serif" font-size="10.00">GPUCA_NAMESPACE::gpu</text>
<text text-anchor="start" x="348" y="-183.5" font-family="Helvetica,sans-Serif" font-size="10.00">::GPUTPCSharedMemoryData</text>
<text text-anchor="middle" x="416" y="-172.5" font-family="Helvetica,sans-Serif" font-size="10.00">::noise_t</text>
<polyline fill="none" stroke="black" points="340,-165.5 492,-165.5 "/>
<text text-anchor="middle" x="416" y="-153.5" font-family="Helvetica,sans-Serif" font-size="10.00"> </text>
<polyline fill="none" stroke="black" points="340,-146.5 492,-146.5 "/>
<text text-anchor="middle" x="416" y="-134.5" font-family="Helvetica,sans-Serif" font-size="10.00"> </text>
</a>
</g>
</g>
<!-- Node3&#45;&gt;Node11 -->
<g id="edge16" class="edge"><title>Node3&#45;&gt;Node11</title>
<path fill="none" stroke="#404040" d="M386.756,-292.878C391.796,-271.358 398.463,-242.887 404.159,-218.565"/>
<polygon fill="none" stroke="#404040" points="404.214,-218.33 401.687,-211.576 406.95,-206.646 409.476,-213.4 404.214,-218.33"/>
<text text-anchor="middle" x="427.5" y="-233.5" font-family="Helvetica,sans-Serif" font-size="10.00"> +posBcast</text>
</g>
<!-- Node4 -->
<g id="node4" class="node"><title>Node4</title>
<polygon fill="none" stroke="#bfbfbf" points="357,-447.5 357,-504.5 401,-504.5 401,-447.5 357,-447.5"/>
<text text-anchor="middle" x="379" y="-492.5" font-family="Helvetica,sans-Serif" font-size="10.00">ushort</text>
<polyline fill="none" stroke="#bfbfbf" points="357,-485.5 401,-485.5 "/>
<text text-anchor="middle" x="379" y="-473.5" font-family="Helvetica,sans-Serif" font-size="10.00"> </text>
<polyline fill="none" stroke="#bfbfbf" points="357,-466.5 401,-466.5 "/>
<text text-anchor="middle" x="379" y="-454.5" font-family="Helvetica,sans-Serif" font-size="10.00"> </text>
</g>
<!-- Node4&#45;&gt;Node3 -->
<g id="edge3" class="edge"><title>Node4&#45;&gt;Node3</title>
<path fill="none" stroke="#404040" d="M379,-447.35C379,-426.528 379,-397.532 379,-373.335"/>
<polygon fill="none" stroke="#404040" points="379,-373.187 375,-367.187 379,-361.187 383,-367.187 379,-373.187"/>
<text text-anchor="middle" x="394.5" y="-421" font-family="Helvetica,sans-Serif" font-size="10.00"> +gpad</text>
<text text-anchor="middle" x="394.5" y="-410" font-family="Helvetica,sans-Serif" font-size="10.00">+time</text>
</g>
<!-- Node5 -->
<g id="node5" class="node"><title>Node5</title>
<polygon fill="none" stroke="#bfbfbf" points="49,-298.5 49,-355.5 105,-355.5 105,-298.5 49,-298.5"/>
<text text-anchor="middle" x="77" y="-343.5" font-family="Helvetica,sans-Serif" font-size="10.00">unsigned</text>
<polyline fill="none" stroke="#bfbfbf" points="49,-336.5 105,-336.5 "/>
<text text-anchor="middle" x="77" y="-324.5" font-family="Helvetica,sans-Serif" font-size="10.00"> </text>
<polyline fill="none" stroke="#bfbfbf" points="49,-317.5 105,-317.5 "/>
<text text-anchor="middle" x="77" y="-305.5" font-family="Helvetica,sans-Serif" font-size="10.00"> </text>
</g>
<!-- Node5&#45;&gt;Node2 -->
<g id="edge4" class="edge"><title>Node5&#45;&gt;Node2</title>
<path fill="none" stroke="#404040" d="M48.6883,-298.751C36.0779,-284.649 22.6018,-266.352 16,-247 12.4446,-236.578 14.4079,-226.434 19.3549,-217.08"/>
<polygon fill="none" stroke="#404040" points="19.472,-216.902 19.432,-209.691 26.073,-206.88 26.1129,-214.091 19.472,-216.902"/>
<text text-anchor="middle" x="66.5" y="-239" font-family="Helvetica,sans-Serif" font-size="10.00"> +buf</text>
<text text-anchor="middle" x="66.5" y="-228" font-family="Helvetica,sans-Serif" font-size="10.00">+aboveThresholdBcast</text>
</g>
<!-- Node5&#45;&gt;Node6 -->
<g id="edge9" class="edge"><title>Node5&#45;&gt;Node6</title>
<path fill="none" stroke="#404040" d="M89.2641,-298.41C100.118,-276.409 117.688,-245.921 140,-225 145.991,-219.383 152.641,-214.146 159.606,-209.307"/>
<polygon fill="none" stroke="#404040" points="159.959,-209.076 162.787,-202.443 169.997,-202.502 167.169,-209.136 159.959,-209.076"/>
<text text-anchor="middle" x="190.5" y="-233.5" font-family="Helvetica,sans-Serif" font-size="10.00"> +innerAboveThreshold</text>
</g>
<!-- Node6&#45;&gt;Node1 -->
<g id="edge5" class="edge"><title>Node6&#45;&gt;Node1</title>
<path fill="none" stroke="#404040" d="M298.393,-127.476C315.844,-114.644 335.456,-100.224 353.589,-86.8905"/>
<polygon fill="none" stroke="#404040" points="353.82,-86.7208 356.284,-79.9438 363.488,-79.6121 361.023,-86.389 353.82,-86.7208"/>
<text text-anchor="middle" x="352" y="-101" font-family="Helvetica,sans-Serif" font-size="10.00"> +build</text>
</g>
<!-- Node7 -->
<g id="node7" class="node"><title>Node7</title>
<g id="a_node7"><a xlink:href="../../da/dca/classGPUCA__NAMESPACE_1_1gpu_1_1PackedCharge.html" target="_top" xlink:title="{GPUCA_NAMESPACE::gpu\l::PackedCharge\n|+ mVal\l|+ PackedCharge()\l+ GPUdi()\l+ GPUdi()\l+ GPUdi()\l+ GPUdi()\l+ GPUdi()\l}">
<polygon fill="none" stroke="black" points="538.5,-265.5 538.5,-388.5 681.5,-388.5 681.5,-265.5 538.5,-265.5"/>
<text text-anchor="start" x="546.5" y="-376.5" font-family="Helvetica,sans-Serif" font-size="10.00">GPUCA_NAMESPACE::gpu</text>
<text text-anchor="middle" x="610" y="-365.5" font-family="Helvetica,sans-Serif" font-size="10.00">::PackedCharge</text>
<polyline fill="none" stroke="black" points="538.5,-358.5 681.5,-358.5 "/>
<text text-anchor="start" x="546.5" y="-346.5" font-family="Helvetica,sans-Serif" font-size="10.00">+ mVal</text>
<polyline fill="none" stroke="black" points="538.5,-339.5 681.5,-339.5 "/>
<text text-anchor="start" x="546.5" y="-327.5" font-family="Helvetica,sans-Serif" font-size="10.00">+ PackedCharge()</text>
<text text-anchor="start" x="546.5" y="-316.5" font-family="Helvetica,sans-Serif" font-size="10.00">+ GPUdi()</text>
<text text-anchor="start" x="546.5" y="-305.5" font-family="Helvetica,sans-Serif" font-size="10.00">+ GPUdi()</text>
<text text-anchor="start" x="546.5" y="-294.5" font-family="Helvetica,sans-Serif" font-size="10.00">+ GPUdi()</text>
<text text-anchor="start" x="546.5" y="-283.5" font-family="Helvetica,sans-Serif" font-size="10.00">+ GPUdi()</text>
<text text-anchor="start" x="546.5" y="-272.5" font-family="Helvetica,sans-Serif" font-size="10.00">+ GPUdi()</text>
</a>
</g>
</g>
<!-- Node7&#45;&gt;Node6 -->
<g id="edge6" class="edge"><title>Node7&#45;&gt;Node6</title>
<path fill="none" stroke="#404040" d="M538.288,-280.997C521.339,-270.07 503.422,-258.279 487,-247 473.371,-237.639 472.309,-231.245 457,-225 407.998,-205.011 387.902,-220.638 333.752,-207.333"/>
<polygon fill="none" stroke="#404040" points="333.634,-207.3 326.794,-209.585 322.055,-204.149 328.895,-201.865 333.634,-207.3"/>
<text text-anchor="middle" x="498.5" y="-233.5" font-family="Helvetica,sans-Serif" font-size="10.00"> +buf</text>
</g>
<!-- Node7&#45;&gt;Node9 -->
<g id="edge11" class="edge"><title>Node7&#45;&gt;Node9</title>
<path fill="none" stroke="#404040" d="M646.842,-265.365C656.551,-249.385 666.905,-232.344 676.193,-217.058"/>
<polygon fill="none" stroke="#404040" points="676.2,-217.046 675.897,-209.841 682.431,-206.79 682.734,-213.995 676.2,-217.046"/>
<text text-anchor="middle" x="681.5" y="-233.5" font-family="Helvetica,sans-Serif" font-size="10.00"> +buf</text>
</g>
<!-- Node7&#45;&gt;Node11 -->
<g id="edge15" class="edge"><title>Node7&#45;&gt;Node11</title>
<path fill="none" stroke="#404040" d="M608.179,-265.372C604.91,-250.469 598.842,-235.73 588,-225 562.455,-199.721 542.419,-215.746 504.05,-207.22"/>
<polygon fill="none" stroke="#404040" points="503.692,-207.121 496.841,-209.372 492.128,-203.914 498.979,-201.663 503.692,-207.121"/>
<text text-anchor="middle" x="613.5" y="-233.5" font-family="Helvetica,sans-Serif" font-size="10.00"> +buf</text>
</g>
<!-- Node8 -->
<g id="node8" class="node"><title>Node8</title>
<polygon fill="none" stroke="#bfbfbf" points="592.5,-447.5 592.5,-504.5 627.5,-504.5 627.5,-447.5 592.5,-447.5"/>
<text text-anchor="middle" x="610" y="-492.5" font-family="Helvetica,sans-Serif" font-size="10.00">bool</text>
<polyline fill="none" stroke="#bfbfbf" points="592.5,-485.5 627.5,-485.5 "/>
<text text-anchor="middle" x="610" y="-473.5" font-family="Helvetica,sans-Serif" font-size="10.00"> </text>
<polyline fill="none" stroke="#bfbfbf" points="592.5,-466.5 627.5,-466.5 "/>
<text text-anchor="middle" x="610" y="-454.5" font-family="Helvetica,sans-Serif" font-size="10.00"> </text>
</g>
<!-- Node8&#45;&gt;Node7 -->
<g id="edge7" class="edge"><title>Node8&#45;&gt;Node7</title>
<path fill="none" stroke="#404040" d="M610,-447.35C610,-434.032 610,-417.37 610,-400.759"/>
<polygon fill="none" stroke="#404040" points="610,-400.721 606,-394.721 610,-388.721 614,-394.72 610,-400.721"/>
<text text-anchor="middle" x="633" y="-421" font-family="Helvetica,sans-Serif" font-size="10.00"> +peak3x3</text>
<text text-anchor="middle" x="633" y="-410" font-family="Helvetica,sans-Serif" font-size="10.00">+wasSplit</text>
</g>
<!-- Node9&#45;&gt;Node1 -->
<g id="edge10" class="edge"><title>Node9&#45;&gt;Node1</title>
<path fill="none" stroke="#404040" d="M629.598,-130.801C626.698,-129.511 623.825,-128.24 621,-127 583.372,-110.48 541.581,-92.825 505.6,-77.8367"/>
<polygon fill="none" stroke="#404040" points="505.214,-77.6765 498.138,-79.0661 494.134,-73.0689 501.21,-71.6793 505.214,-77.6765"/>
<text text-anchor="middle" x="596.5" y="-101" font-family="Helvetica,sans-Serif" font-size="10.00"> +search</text>
</g>
<!-- Node10 -->
<g id="node10" class="node"><title>Node10</title>
<polygon fill="none" stroke="#bfbfbf" points="510,-138.5 510,-195.5 612,-195.5 612,-138.5 510,-138.5"/>
<text text-anchor="middle" x="561" y="-183.5" font-family="Helvetica,sans-Serif" font-size="10.00">anonymous:+@196</text>
<polyline fill="none" stroke="#bfbfbf" points="510,-176.5 612,-176.5 "/>
<text text-anchor="middle" x="561" y="-164.5" font-family="Helvetica,sans-Serif" font-size="10.00"> </text>
<polyline fill="none" stroke="#bfbfbf" points="510,-157.5 612,-157.5 "/>
<text text-anchor="middle" x="561" y="-145.5" font-family="Helvetica,sans-Serif" font-size="10.00"> </text>
</g>
<!-- Node10&#45;&gt;Node1 -->
<g id="edge13" class="edge"><title>Node10&#45;&gt;Node1</title>
<path fill="none" stroke="#404040" d="M528.82,-138.258C511.533,-123.356 489.763,-104.589 469.968,-87.524"/>
<polygon fill="none" stroke="#404040" points="469.826,-87.402 462.67,-86.514 460.737,-79.5667 467.894,-80.4547 469.826,-87.402"/>
<text text-anchor="middle" x="511" y="-101" font-family="Helvetica,sans-Serif" font-size="10.00"> +@196</text>
</g>
<!-- Node11&#45;&gt;Node1 -->
<g id="edge14" class="edge"><title>Node11&#45;&gt;Node1</title>
<path fill="none" stroke="#404040" d="M416,-127.476C416,-116.189 416,-103.672 416,-91.7479"/>
<polygon fill="none" stroke="#404040" points="416,-91.6121 412,-85.6121 416,-79.6121 420,-85.612 416,-91.6121"/>
<text text-anchor="middle" x="432.5" y="-101" font-family="Helvetica,sans-Serif" font-size="10.00"> +noise</text>
</g>
</g>
</svg>
        <g id="navigator" transform="translate(0 0)" fill="#404254">
                <rect fill="#f2f5e9" fill-opacity="0.5" stroke="#606060" stroke-width=".5" x="0" y="0" width="60" height="60"/>
                <use id="zoomplus" xlink:href="#zoomPlus" x="17" y="9" onmousedown="handleZoom(evt,'in')"/>
                <use id="zoomminus" xlink:href="#zoomMin" x="42" y="9" onmousedown="handleZoom(evt,'out')"/>
                <use id="reset" xlink:href="#resetDef" x="30" y="36" onmousedown="handleReset()"/>
                <g id="arrowUp" xlink:href="#dirArrow" transform="translate(30 24)" onmousedown="handlePan(0,-1)">
                  <use xlink:href="#rim" fill="#404040">
                        <set attributeName="fill" to="#808080" begin="arrowUp.mouseover" end="arrowUp.mouseout"/>
                  </use>
                  <path fill="none" stroke="white" stroke-width="1.5" d="M0,-3.0v7 M-2.5,-0.5L0,-3.0L2.5,-0.5"/>
                </g>
                <g id="arrowRight" xlink:href="#dirArrow" transform="rotate(90) translate(36 -43)" onmousedown="handlePan(1,0)">
                  <use xlink:href="#rim" fill="#404040">
                        <set attributeName="fill" to="#808080" begin="arrowRight.mouseover" end="arrowRight.mouseout"/>
                  </use>
                  <path fill="none" stroke="white" stroke-width="1.5" d="M0,-3.0v7 M-2.5,-0.5L0,-3.0L2.5,-0.5"/>
                </g>
                <g id="arrowDown" xlink:href="#dirArrow" transform="rotate(180) translate(-30 -48)" onmousedown="handlePan(0,1)">
                  <use xlink:href="#rim" fill="#404040">
                        <set attributeName="fill" to="#808080" begin="arrowDown.mouseover" end="arrowDown.mouseout"/>
                  </use>
                  <path fill="none" stroke="white" stroke-width="1.5" d="M0,-3.0v7 M-2.5,-0.5L0,-3.0L2.5,-0.5"/>
                </g>
                <g id="arrowLeft" xlink:href="#dirArrow" transform="rotate(270) translate(-36 17)" onmousedown="handlePan(-1,0)">
                  <use xlink:href="#rim" fill="#404040">
                        <set attributeName="fill" to="#808080" begin="arrowLeft.mouseover" end="arrowLeft.mouseout"/>
                  </use>
                  <path fill="none" stroke="white" stroke-width="1.5" d="M0,-3.0v7 M-2.5,-0.5L0,-3.0L2.5,-0.5"/>
                </g>
        </g>
        <svg viewBox="0 0 15 15" width="100%" height="30px" preserveAspectRatio="xMaxYMin meet">
         <g id="arrow_out" transform="scale(0.3 0.3)">
          <a xlink:href="structGPUCA__NAMESPACE_1_1gpu_1_1GPUTPCClusterFinderKernels_1_1GPUTPCSharedMemory__coll__graph_org.svg" target="_base">
           <rect id="button" ry="5" rx="5" y="6" x="6" height="38" width="38"
                fill="#f2f5e9" fill-opacity="0.5" stroke="#606060" stroke-width="1.0"/>
           <path id="arrow"
             d="M 11.500037,31.436501 C 11.940474,20.09759 22.043105,11.32322 32.158766,21.979434 L 37.068811,17.246167 C 37.068811,17.246167 37.088388,32 37.088388,32 L 22.160133,31.978069 C 22.160133,31.978069 26.997745,27.140456 26.997745,27.140456 C 18.528582,18.264221 13.291696,25.230495 11.500037,31.436501 z"
             style="fill:#404040;"/>
          </a>
         </g>
        </svg>
</svg>
