<?xml version="1.0" encoding="UTF-8" standalone="no"?>
<!DOCTYPE svg PUBLIC "-//W3C//DTD SVG 1.1//EN"
 "http://www.w3.org/Graphics/SVG/1.1/DTD/svg11.dtd">
<!-- Generated by graphviz version 2.38.0 (20140413.2041)
 -->
<!-- Title: AliHLTGPUDumpComponent Pages: 1 -->
<svg width="191pt" height="314pt"
 viewBox="0.00 0.00 190.50 314.00" xmlns="http://www.w3.org/2000/svg" xmlns:xlink="http://www.w3.org/1999/xlink">
<g id="graph0" class="graph" transform="scale(1 1) rotate(0) translate(4 310)">
<title>AliHLTGPUDumpComponent</title>
<!-- Node1 -->
<g id="node1" class="node"><title>Node1</title>
<polygon fill="#bfbfbf" stroke="black" points="4.5,-0.5 4.5,-189.5 170.5,-189.5 170.5,-0.5 4.5,-0.5"/>
<text text-anchor="middle" x="87.5" y="-177.5" font-family="Helvetica,sans-Serif" font-size="10.00">AliHLTGPUDumpComponent</text>
<polyline fill="none" stroke="black" points="4.5,-170.5 170.5,-170.5 "/>
<text text-anchor="middle" x="87.5" y="-158.5" font-family="Helvetica,sans-Serif" font-size="10.00"> </text>
<polyline fill="none" stroke="black" points="4.5,-151.5 170.5,-151.5 "/>
<text text-anchor="start" x="12.5" y="-139.5" font-family="Helvetica,sans-Serif" font-size="10.00">+ AliHLTGPUDumpComponent()</text>
<text text-anchor="start" x="12.5" y="-128.5" font-family="Helvetica,sans-Serif" font-size="10.00">+ AliHLTGPUDumpComponent()</text>
<text text-anchor="start" x="12.5" y="-117.5" font-family="Helvetica,sans-Serif" font-size="10.00">+ operator=()</text>
<text text-anchor="start" x="12.5" y="-106.5" font-family="Helvetica,sans-Serif" font-size="10.00">+ ~AliHLTGPUDumpComponent()</text>
<text text-anchor="start" x="12.5" y="-95.5" font-family="Helvetica,sans-Serif" font-size="10.00">+ GetComponentID()</text>
<text text-anchor="start" x="12.5" y="-84.5" font-family="Helvetica,sans-Serif" font-size="10.00">+ GetInputDataTypes()</text>
<text text-anchor="start" x="12.5" y="-73.5" font-family="Helvetica,sans-Serif" font-size="10.00">+ GetOutputDataType()</text>
<text text-anchor="start" x="12.5" y="-62.5" font-family="Helvetica,sans-Serif" font-size="10.00">+ GetOutputDataSize()</text>
<text text-anchor="start" x="12.5" y="-51.5" font-family="Helvetica,sans-Serif" font-size="10.00">+ Spawn()</text>
<text text-anchor="start" x="12.5" y="-40.5" font-family="Helvetica,sans-Serif" font-size="10.00"># DoInit()</text>
<text text-anchor="start" x="12.5" y="-29.5" font-family="Helvetica,sans-Serif" font-size="10.00"># DoDeinit()</text>
<text text-anchor="start" x="12.5" y="-18.5" font-family="Helvetica,sans-Serif" font-size="10.00"># Reconfigure()</text>
<text text-anchor="start" x="12.5" y="-7.5" font-family="Helvetica,sans-Serif" font-size="10.00"># DoEvent()</text>
</g>
<!-- Node2 -->
<g id="node2" class="node"><title>Node2</title>
<g id="a_node2"><a xlink:href="../../d9/d9e/classAliHLTProcessor.html" target="_top" xlink:title="{AliHLTProcessor\n||}">
<polygon fill="none" stroke="black" points="0,-248.5 0,-305.5 91,-305.5 91,-248.5 0,-248.5"/>
<text text-anchor="middle" x="45.5" y="-293.5" font-family="Helvetica,sans-Serif" font-size="10.00">AliHLTProcessor</text>
<polyline fill="none" stroke="black" points="0,-286.5 91,-286.5 "/>
<text text-anchor="middle" x="45.5" y="-274.5" font-family="Helvetica,sans-Serif" font-size="10.00"> </text>
<polyline fill="none" stroke="black" points="0,-267.5 91,-267.5 "/>
<text text-anchor="middle" x="45.5" y="-255.5" font-family="Helvetica,sans-Serif" font-size="10.00"> </text>
</a>
</g>
</g>
<!-- Node2&#45;&gt;Node1 -->
<g id="edge1" class="edge"><title>Node2&#45;&gt;Node1</title>
<path fill="none" stroke="midnightblue" d="M54.2833,-238.357C57.6248,-224.037 61.599,-207.004 65.6163,-189.787"/>
<polygon fill="none" stroke="midnightblue" points="50.8344,-237.736 51.9705,-248.269 57.6513,-239.326 50.8344,-237.736"/>
</g>
<!-- Node3 -->
<g id="node3" class="node"><title>Node3</title>
<polygon fill="none" stroke="#bfbfbf" points="109,-248.5 109,-305.5 150,-305.5 150,-248.5 109,-248.5"/>
<text text-anchor="middle" x="129.5" y="-293.5" font-family="Helvetica,sans-Serif" font-size="10.00">static</text>
<polyline fill="none" stroke="#bfbfbf" points="109,-286.5 150,-286.5 "/>
<text text-anchor="middle" x="129.5" y="-274.5" font-family="Helvetica,sans-Serif" font-size="10.00"> </text>
<polyline fill="none" stroke="#bfbfbf" points="109,-267.5 150,-267.5 "/>
<text text-anchor="middle" x="129.5" y="-255.5" font-family="Helvetica,sans-Serif" font-size="10.00"> </text>
</g>
<!-- Node3&#45;&gt;Node1 -->
<g id="edge2" class="edge"><title>Node3&#45;&gt;Node1</title>
<path fill="none" stroke="#404040" d="M123.03,-248.269C120.001,-235.289 116.181,-218.919 112.177,-201.76"/>
<polygon fill="none" stroke="#404040" points="112.111,-201.473 106.852,-196.539 109.384,-189.787 114.642,-194.721 112.111,-201.473"/>
<text text-anchor="middle" x="150" y="-222" font-family="Helvetica,sans-Serif" font-size="10.00"> +NPATCHES</text>
<text text-anchor="middle" x="150" y="-211" font-family="Helvetica,sans-Serif" font-size="10.00">+NSLICES</text>
</g>
</g>
</svg>
