<?xml version="1.0" encoding="UTF-8" standalone="no"?>
<!DOCTYPE svg PUBLIC "-//W3C//DTD SVG 1.1//EN"
 "http://www.w3.org/Graphics/SVG/1.1/DTD/svg11.dtd">
<!-- Generated by graphviz version 2.38.0 (20140413.2041)
 -->
<!-- Title: o2::trd::TRDSimParam Pages: 1 -->
<svg width="420pt" height="754pt"
 viewBox="0.00 0.00 419.50 754.00" xmlns="http://www.w3.org/2000/svg" xmlns:xlink="http://www.w3.org/1999/xlink">
<g id="graph0" class="graph" transform="scale(1 1) rotate(0) translate(4 750)">
<title>o2::trd::TRDSimParam</title>
<!-- Node1 -->
<g id="node1" class="node"><title>Node1</title>
<polygon fill="#bfbfbf" stroke="black" points="77.5,-0.5 77.5,-530.5 259.5,-530.5 259.5,-0.5 77.5,-0.5"/>
<text text-anchor="middle" x="168.5" y="-518.5" font-family="Helvetica,sans-Serif" font-size="10.00">o2::trd::TRDSimParam</text>
<polyline fill="none" stroke="black" points="77.5,-511.5 259.5,-511.5 "/>
<text text-anchor="start" x="85.5" y="-499.5" font-family="Helvetica,sans-Serif" font-size="10.00"># mChipGain</text>
<text text-anchor="start" x="85.5" y="-488.5" font-family="Helvetica,sans-Serif" font-size="10.00"># mElAttachProp</text>
<text text-anchor="start" x="85.5" y="-477.5" font-family="Helvetica,sans-Serif" font-size="10.00"># mTimeCoupling</text>
<polyline fill="none" stroke="black" points="77.5,-470.5 259.5,-470.5 "/>
<text text-anchor="start" x="85.5" y="-458.5" font-family="Helvetica,sans-Serif" font-size="10.00">+ SetGasGain()</text>
<text text-anchor="start" x="85.5" y="-447.5" font-family="Helvetica,sans-Serif" font-size="10.00">+ SetNoise()</text>
<text text-anchor="start" x="85.5" y="-436.5" font-family="Helvetica,sans-Serif" font-size="10.00">+ SetChipGain()</text>
<text text-anchor="start" x="85.5" y="-425.5" font-family="Helvetica,sans-Serif" font-size="10.00">+ SetADCoutRange()</text>
<text text-anchor="start" x="85.5" y="-414.5" font-family="Helvetica,sans-Serif" font-size="10.00">+ SetADCinRange()</text>
<text text-anchor="start" x="85.5" y="-403.5" font-family="Helvetica,sans-Serif" font-size="10.00">+ SetADCbaseline()</text>
<text text-anchor="start" x="85.5" y="-392.5" font-family="Helvetica,sans-Serif" font-size="10.00">+ SetDiffusion()</text>
<text text-anchor="start" x="85.5" y="-381.5" font-family="Helvetica,sans-Serif" font-size="10.00">+ SetElAttach()</text>
<text text-anchor="start" x="85.5" y="-370.5" font-family="Helvetica,sans-Serif" font-size="10.00">+ SetElAttachProp()</text>
<text text-anchor="start" x="85.5" y="-359.5" font-family="Helvetica,sans-Serif" font-size="10.00">+ SetTimeResponse()</text>
<text text-anchor="start" x="85.5" y="-348.5" font-family="Helvetica,sans-Serif" font-size="10.00">+ SetCrossTalk()</text>
<text text-anchor="start" x="85.5" y="-337.5" font-family="Helvetica,sans-Serif" font-size="10.00">+ SetPadCoupling()</text>
<text text-anchor="start" x="85.5" y="-326.5" font-family="Helvetica,sans-Serif" font-size="10.00">+ SetTimeCoupling()</text>
<text text-anchor="start" x="85.5" y="-315.5" font-family="Helvetica,sans-Serif" font-size="10.00">+ SetTimeStruct()</text>
<text text-anchor="start" x="85.5" y="-304.5" font-family="Helvetica,sans-Serif" font-size="10.00">+ SetPadResponse()</text>
<text text-anchor="start" x="85.5" y="-293.5" font-family="Helvetica,sans-Serif" font-size="10.00">+ SetNTimeBins()</text>
<text text-anchor="start" x="85.5" y="-282.5" font-family="Helvetica,sans-Serif" font-size="10.00">+ SetNTBoverwriteOCDB()</text>
<text text-anchor="start" x="85.5" y="-271.5" font-family="Helvetica,sans-Serif" font-size="10.00">+ GetGasGain()</text>
<text text-anchor="start" x="85.5" y="-260.5" font-family="Helvetica,sans-Serif" font-size="10.00">+ GetNoise()</text>
<text text-anchor="start" x="85.5" y="-249.5" font-family="Helvetica,sans-Serif" font-size="10.00">+ GetChipGain()</text>
<text text-anchor="start" x="85.5" y="-238.5" font-family="Helvetica,sans-Serif" font-size="10.00">+ GetADCoutRange()</text>
<text text-anchor="start" x="85.5" y="-227.5" font-family="Helvetica,sans-Serif" font-size="10.00">+ GetADCinRange()</text>
<text text-anchor="start" x="85.5" y="-216.5" font-family="Helvetica,sans-Serif" font-size="10.00">+ GetADCbaseline()</text>
<text text-anchor="start" x="85.5" y="-205.5" font-family="Helvetica,sans-Serif" font-size="10.00">+ GetTRFlo()</text>
<text text-anchor="start" x="85.5" y="-194.5" font-family="Helvetica,sans-Serif" font-size="10.00">+ GetTRFhi()</text>
<text text-anchor="start" x="85.5" y="-183.5" font-family="Helvetica,sans-Serif" font-size="10.00">+ GetPadCoupling()</text>
<text text-anchor="start" x="85.5" y="-172.5" font-family="Helvetica,sans-Serif" font-size="10.00">+ GetTimeCoupling()</text>
<text text-anchor="start" x="85.5" y="-161.5" font-family="Helvetica,sans-Serif" font-size="10.00">+ GetNTimeBins()</text>
<text text-anchor="start" x="85.5" y="-150.5" font-family="Helvetica,sans-Serif" font-size="10.00">+ GetNTBoverwriteOCDB()</text>
<text text-anchor="start" x="85.5" y="-139.5" font-family="Helvetica,sans-Serif" font-size="10.00">+ DiffusionOn()</text>
<text text-anchor="start" x="85.5" y="-128.5" font-family="Helvetica,sans-Serif" font-size="10.00">+ ElAttachOn()</text>
<text text-anchor="start" x="85.5" y="-117.5" font-family="Helvetica,sans-Serif" font-size="10.00">+ GetElAttachProp()</text>
<text text-anchor="start" x="85.5" y="-106.5" font-family="Helvetica,sans-Serif" font-size="10.00">+ TRFOn()</text>
<text text-anchor="start" x="85.5" y="-95.5" font-family="Helvetica,sans-Serif" font-size="10.00">+ CTOn()</text>
<text text-anchor="start" x="85.5" y="-84.5" font-family="Helvetica,sans-Serif" font-size="10.00">+ TimeStructOn()</text>
<text text-anchor="start" x="85.5" y="-73.5" font-family="Helvetica,sans-Serif" font-size="10.00">+ PRFOn()</text>
<text text-anchor="start" x="85.5" y="-62.5" font-family="Helvetica,sans-Serif" font-size="10.00">+ getNumberOfPadsInPadResponse()</text>
<text text-anchor="start" x="85.5" y="-51.5" font-family="Helvetica,sans-Serif" font-size="10.00">+ TimeResponse()</text>
<text text-anchor="start" x="85.5" y="-40.5" font-family="Helvetica,sans-Serif" font-size="10.00">+ CrossTalk()</text>
<text text-anchor="start" x="85.5" y="-29.5" font-family="Helvetica,sans-Serif" font-size="10.00">+ ReInit()</text>
<text text-anchor="start" x="85.5" y="-18.5" font-family="Helvetica,sans-Serif" font-size="10.00">+ Instance()</text>
<text text-anchor="start" x="85.5" y="-7.5" font-family="Helvetica,sans-Serif" font-size="10.00">+ Terminate()</text>
</g>
<!-- Node2 -->
<g id="node2" class="node"><title>Node2</title>
<g id="a_node2"><a xlink:href="../../d4/dc3/classfloat.html" target="_top" xlink:title="{float\n||}">
<polygon fill="none" stroke="black" points="0,-688.5 0,-745.5 35,-745.5 35,-688.5 0,-688.5"/>
<text text-anchor="middle" x="17.5" y="-733.5" font-family="Helvetica,sans-Serif" font-size="10.00">float</text>
<polyline fill="none" stroke="black" points="0,-726.5 35,-726.5 "/>
<text text-anchor="middle" x="17.5" y="-714.5" font-family="Helvetica,sans-Serif" font-size="10.00"> </text>
<polyline fill="none" stroke="black" points="0,-707.5 35,-707.5 "/>
<text text-anchor="middle" x="17.5" y="-695.5" font-family="Helvetica,sans-Serif" font-size="10.00"> </text>
</a>
</g>
</g>
<!-- Node2&#45;&gt;Node1 -->
<g id="edge1" class="edge"><title>Node2&#45;&gt;Node1</title>
<path fill="none" stroke="#404040" d="M17.4574,-688.279C18.055,-654.705 21.1814,-596.719 34.5,-549 44.1036,-514.591 57.6251,-479.204 72.4155,-445.616"/>
<polygon fill="none" stroke="#404040" points="72.5778,-445.253 71.3754,-438.142 77.4762,-434.298 78.6786,-441.408 72.5778,-445.253"/>
<text text-anchor="middle" x="73.5" y="-662" font-family="Helvetica,sans-Serif" font-size="10.00"> #mPadCoupling</text>
<text text-anchor="middle" x="73.5" y="-651" font-family="Helvetica,sans-Serif" font-size="10.00">#mTRFsmp</text>
<text text-anchor="middle" x="73.5" y="-640" font-family="Helvetica,sans-Serif" font-size="10.00">#mNoise</text>
<text text-anchor="middle" x="73.5" y="-629" font-family="Helvetica,sans-Serif" font-size="10.00">#mTRFhi</text>
<text text-anchor="middle" x="73.5" y="-618" font-family="Helvetica,sans-Serif" font-size="10.00">#mInvTRFwid</text>
<text text-anchor="middle" x="73.5" y="-607" font-family="Helvetica,sans-Serif" font-size="10.00">#mTRFlo</text>
<text text-anchor="middle" x="73.5" y="-596" font-family="Helvetica,sans-Serif" font-size="10.00">#mADCoutRange</text>
<text text-anchor="middle" x="73.5" y="-585" font-family="Helvetica,sans-Serif" font-size="10.00">#mADCinRange</text>
<text text-anchor="middle" x="73.5" y="-574" font-family="Helvetica,sans-Serif" font-size="10.00">#mCTsmp</text>
<text text-anchor="middle" x="73.5" y="-563" font-family="Helvetica,sans-Serif" font-size="10.00">#mGasGain</text>
<text text-anchor="middle" x="73.5" y="-552" font-family="Helvetica,sans-Serif" font-size="10.00">...</text>
</g>
<!-- Node3 -->
<g id="node3" class="node"><title>Node3</title>
<polygon fill="none" stroke="#bfbfbf" points="104,-688.5 104,-745.5 133,-745.5 133,-688.5 104,-688.5"/>
<text text-anchor="middle" x="118.5" y="-733.5" font-family="Helvetica,sans-Serif" font-size="10.00">int</text>
<polyline fill="none" stroke="#bfbfbf" points="104,-726.5 133,-726.5 "/>
<text text-anchor="middle" x="118.5" y="-714.5" font-family="Helvetica,sans-Serif" font-size="10.00"> </text>
<polyline fill="none" stroke="#bfbfbf" points="104,-707.5 133,-707.5 "/>
<text text-anchor="middle" x="118.5" y="-695.5" font-family="Helvetica,sans-Serif" font-size="10.00"> </text>
</g>
<!-- Node3&#45;&gt;Node1 -->
<g id="edge2" class="edge"><title>Node3&#45;&gt;Node1</title>
<path fill="none" stroke="#404040" d="M117.272,-688.451C116.114,-655.291 115.139,-597.95 119.5,-549 119.686,-546.912 119.879,-544.817 120.079,-542.714"/>
<polygon fill="none" stroke="#404040" points="120.096,-542.542 116.717,-536.172 121.298,-530.602 124.677,-536.973 120.096,-542.542"/>
<text text-anchor="middle" x="158.5" y="-651" font-family="Helvetica,sans-Serif" font-size="10.00"> #mTimeStructOn</text>
<text text-anchor="middle" x="158.5" y="-640" font-family="Helvetica,sans-Serif" font-size="10.00">#mCTOn</text>
<text text-anchor="middle" x="158.5" y="-629" font-family="Helvetica,sans-Serif" font-size="10.00">#mTRFbin</text>
<text text-anchor="middle" x="158.5" y="-618" font-family="Helvetica,sans-Serif" font-size="10.00">#mElAttachOn</text>
<text text-anchor="middle" x="158.5" y="-607" font-family="Helvetica,sans-Serif" font-size="10.00">#mPRFOn</text>
<text text-anchor="middle" x="158.5" y="-596" font-family="Helvetica,sans-Serif" font-size="10.00">#mNTimeBins</text>
<text text-anchor="middle" x="158.5" y="-585" font-family="Helvetica,sans-Serif" font-size="10.00">#mTRFOn</text>
<text text-anchor="middle" x="158.5" y="-574" font-family="Helvetica,sans-Serif" font-size="10.00">#mDiffusionOn</text>
<text text-anchor="middle" x="158.5" y="-563" font-family="Helvetica,sans-Serif" font-size="10.00">#mADCbaseline</text>
</g>
<!-- Node4 -->
<g id="node4" class="node"><title>Node4</title>
<polygon fill="none" stroke="#bfbfbf" points="202,-688.5 202,-745.5 237,-745.5 237,-688.5 202,-688.5"/>
<text text-anchor="middle" x="219.5" y="-733.5" font-family="Helvetica,sans-Serif" font-size="10.00">bool</text>
<polyline fill="none" stroke="#bfbfbf" points="202,-726.5 237,-726.5 "/>
<text text-anchor="middle" x="219.5" y="-714.5" font-family="Helvetica,sans-Serif" font-size="10.00"> </text>
<polyline fill="none" stroke="#bfbfbf" points="202,-707.5 237,-707.5 "/>
<text text-anchor="middle" x="219.5" y="-695.5" font-family="Helvetica,sans-Serif" font-size="10.00"> </text>
</g>
<!-- Node4&#45;&gt;Node1 -->
<g id="edge3" class="edge"><title>Node4&#45;&gt;Node1</title>
<path fill="none" stroke="#404040" d="M216.348,-688.221C212.785,-656.818 206.593,-602.239 199.822,-542.56"/>
<polygon fill="none" stroke="#404040" points="199.813,-542.486 195.162,-536.975 198.46,-530.562 203.111,-536.073 199.813,-542.486"/>
<text text-anchor="middle" x="266.5" y="-607" font-family="Helvetica,sans-Serif" font-size="10.00"> #mNTBoverwriteOCDB</text>
</g>
<!-- Node5 -->
<g id="node5" class="node"><title>Node5</title>
<polygon fill="none" stroke="#bfbfbf" points="328,-688.5 328,-745.5 369,-745.5 369,-688.5 328,-688.5"/>
<text text-anchor="middle" x="348.5" y="-733.5" font-family="Helvetica,sans-Serif" font-size="10.00">static</text>
<polyline fill="none" stroke="#bfbfbf" points="328,-726.5 369,-726.5 "/>
<text text-anchor="middle" x="348.5" y="-714.5" font-family="Helvetica,sans-Serif" font-size="10.00"> </text>
<polyline fill="none" stroke="#bfbfbf" points="328,-707.5 369,-707.5 "/>
<text text-anchor="middle" x="348.5" y="-695.5" font-family="Helvetica,sans-Serif" font-size="10.00"> </text>
</g>
<!-- Node5&#45;&gt;Node1 -->
<g id="edge4" class="edge"><title>Node5&#45;&gt;Node1</title>
<path fill="none" stroke="#404040" d="M347.341,-688.408C345.257,-654.715 339.47,-596.364 323.5,-549 308.784,-505.355 287.501,-460.563 265.398,-419.877"/>
<polygon fill="none" stroke="#404040" points="265.391,-419.865 258.995,-416.533 259.61,-409.349 266.006,-412.68 265.391,-419.865"/>
<text text-anchor="middle" x="378.5" y="-612.5" font-family="Helvetica,sans-Serif" font-size="10.00"> #fgTerminated</text>
<text text-anchor="middle" x="378.5" y="-601.5" font-family="Helvetica,sans-Serif" font-size="10.00">#fgInstance</text>
</g>
</g>
</svg>
