<?xml version="1.0" encoding="UTF-8" standalone="no"?>
<!DOCTYPE svg PUBLIC "-//W3C//DTD SVG 1.1//EN"
 "http://www.w3.org/Graphics/SVG/1.1/DTD/svg11.dtd">
<!-- Generated by graphviz version 2.38.0 (20140413.2041)
 -->
<!-- Title: o2::itsmft::BuildTopologyDictionary Pages: 1 -->
<svg width="150pt" height="303pt"
 viewBox="0.00 0.00 149.50 303.00" xmlns="http://www.w3.org/2000/svg" xmlns:xlink="http://www.w3.org/1999/xlink">
<g id="graph0" class="graph" transform="scale(1 1) rotate(0) translate(4 299)">
<title>o2::itsmft::BuildTopologyDictionary</title>
<!-- Node1 -->
<g id="node1" class="node"><title>Node1</title>
<polygon fill="#bfbfbf" stroke="black" points="0,-0.5 0,-189.5 137,-189.5 137,-0.5 0,-0.5"/>
<text text-anchor="start" x="8" y="-177.5" font-family="Helvetica,sans-Serif" font-size="10.00">o2::itsmft::BuildTopology</text>
<text text-anchor="middle" x="68.5" y="-166.5" font-family="Helvetica,sans-Serif" font-size="10.00">Dictionary</text>
<polyline fill="none" stroke="black" points="0,-159.5 137,-159.5 "/>
<text text-anchor="middle" x="68.5" y="-147.5" font-family="Helvetica,sans-Serif" font-size="10.00"> </text>
<polyline fill="none" stroke="black" points="0,-140.5 137,-140.5 "/>
<text text-anchor="start" x="8" y="-128.5" font-family="Helvetica,sans-Serif" font-size="10.00">+ BuildTopologyDictionary()</text>
<text text-anchor="start" x="8" y="-117.5" font-family="Helvetica,sans-Serif" font-size="10.00">+ accountTopology()</text>
<text text-anchor="start" x="8" y="-106.5" font-family="Helvetica,sans-Serif" font-size="10.00">+ setNGroups()</text>
<text text-anchor="start" x="8" y="-95.5" font-family="Helvetica,sans-Serif" font-size="10.00">+ setThreshold()</text>
<text text-anchor="start" x="8" y="-84.5" font-family="Helvetica,sans-Serif" font-size="10.00">+ setThresholdCumulative()</text>
<text text-anchor="start" x="8" y="-73.5" font-family="Helvetica,sans-Serif" font-size="10.00">+ groupRareTopologies()</text>
<text text-anchor="start" x="8" y="-62.5" font-family="Helvetica,sans-Serif" font-size="10.00">+ printDictionary()</text>
<text text-anchor="start" x="8" y="-51.5" font-family="Helvetica,sans-Serif" font-size="10.00">+ printDictionaryBinary()</text>
<text text-anchor="start" x="8" y="-40.5" font-family="Helvetica,sans-Serif" font-size="10.00">+ saveDictionaryRoot()</text>
<text text-anchor="start" x="8" y="-29.5" font-family="Helvetica,sans-Serif" font-size="10.00">+ getTotClusters()</text>
<text text-anchor="start" x="8" y="-18.5" font-family="Helvetica,sans-Serif" font-size="10.00">+ getNotInGroups()</text>
<text text-anchor="start" x="8" y="-7.5" font-family="Helvetica,sans-Serif" font-size="10.00">+ getNGroups()</text>
</g>
<!-- Node2 -->
<g id="node2" class="node"><title>Node2</title>
<polygon fill="none" stroke="#bfbfbf" points="16,-237.5 16,-294.5 57,-294.5 57,-237.5 16,-237.5"/>
<text text-anchor="middle" x="36.5" y="-282.5" font-family="Helvetica,sans-Serif" font-size="10.00">TH1F</text>
<polyline fill="none" stroke="#bfbfbf" points="16,-275.5 57,-275.5 "/>
<text text-anchor="middle" x="36.5" y="-263.5" font-family="Helvetica,sans-Serif" font-size="10.00"> </text>
<polyline fill="none" stroke="#bfbfbf" points="16,-256.5 57,-256.5 "/>
<text text-anchor="middle" x="36.5" y="-244.5" font-family="Helvetica,sans-Serif" font-size="10.00"> </text>
</g>
<!-- Node2&#45;&gt;Node1 -->
<g id="edge1" class="edge"><title>Node2&#45;&gt;Node1</title>
<path fill="none" stroke="#404040" d="M35.5861,-237.345C35.6476,-227.986 36.1244,-217.501 37.5,-208 37.7981,-205.941 38.1225,-203.866 38.4706,-201.78"/>
<polygon fill="none" stroke="#404040" points="38.5152,-201.539 35.6773,-194.91 40.7051,-189.741 43.543,-196.37 38.5152,-201.539"/>
<text text-anchor="middle" x="58" y="-211" font-family="Helvetica,sans-Serif" font-size="10.00"> +mHdist</text>
</g>
<!-- Node3 -->
<g id="node3" class="node"><title>Node3</title>
<polygon fill="none" stroke="#bfbfbf" points="80,-237.5 80,-294.5 121,-294.5 121,-237.5 80,-237.5"/>
<text text-anchor="middle" x="100.5" y="-282.5" font-family="Helvetica,sans-Serif" font-size="10.00">static</text>
<polyline fill="none" stroke="#bfbfbf" points="80,-275.5 121,-275.5 "/>
<text text-anchor="middle" x="100.5" y="-263.5" font-family="Helvetica,sans-Serif" font-size="10.00"> </text>
<polyline fill="none" stroke="#bfbfbf" points="80,-256.5 121,-256.5 "/>
<text text-anchor="middle" x="100.5" y="-244.5" font-family="Helvetica,sans-Serif" font-size="10.00"> </text>
</g>
<!-- Node3&#45;&gt;Node1 -->
<g id="edge2" class="edge"><title>Node3&#45;&gt;Node1</title>
<path fill="none" stroke="#404040" d="M95.2874,-237.471C93.3484,-227.231 91.0138,-214.901 88.5414,-201.844"/>
<polygon fill="none" stroke="#404040" points="88.4722,-201.478 83.4257,-196.326 86.2396,-189.687 91.286,-194.838 88.4722,-201.478"/>
<text text-anchor="middle" x="116" y="-211" font-family="Helvetica,sans-Serif" font-size="10.00"> +IgnoreVal</text>
</g>
</g>
</svg>
