<?xml version="1.0" encoding="UTF-8" standalone="no"?>
<!DOCTYPE svg PUBLIC "-//W3C//DTD SVG 1.1//EN"
 "http://www.w3.org/Graphics/SVG/1.1/DTD/svg11.dtd">
<!-- Generated by graphviz version 2.38.0 (20140413.2041)
 -->
<!-- Title: /home/travis/build/AliceO2Group/AliceO2/Detectors/MUON/MID/Raw/include/MIDRaw/CRUUserLogicDecoder.h Pages: 1 -->
<!--zoomable 240 -->
<svg id="main" version="1.1" xmlns="http://www.w3.org/2000/svg" xmlns:xlink="http://www.w3.org/1999/xlink" xml:space="preserve" onload="init(evt)">
<style type="text/css"><![CDATA[
.edge:hover path { stroke: red; }
.edge:hover polygon { stroke: red; fill: red; }
]]></style>
<script type="text/javascript"><![CDATA[
var edges = document.getElementsByTagName('g');
if (edges && edges.length) {
  for (var i=0;i<edges.length;i++) {
    if (edges[i].id.substr(0,4)=='edge') {
      edges[i].setAttribute('class','edge');
    }
  }
}
]]></script>
        <defs>
                <circle id="rim" cx="0" cy="0" r="7"/>
                <circle id="rim2" cx="0" cy="0" r="3.5"/>
                <g id="zoomPlus">
                        <use xlink:href="#rim" fill="#404040">
                                <set attributeName="fill" to="#808080" begin="zoomplus.mouseover" end="zoomplus.mouseout"/>
                        </use>
                        <path d="M-4,0h8M0,-4v8" fill="none" stroke="white" stroke-width="1.5" pointer-events="none"/>
                </g>
                <g id="zoomMin">
                        <use xlink:href="#rim" fill="#404040">
                                <set attributeName="fill" to="#808080" begin="zoomminus.mouseover" end="zoomminus.mouseout"/>
                        </use>
                        <path d="M-4,0h8" fill="none" stroke="white" stroke-width="1.5" pointer-events="none"/>
                </g>
                <g id="dirArrow">
                        <path fill="none" stroke="white" stroke-width="1.5" d="M0,-3.0v7 M-2.5,-0.5L0,-3.0L2.5,-0.5"/>
                </g>
               <g id="resetDef">
                       <use xlink:href="#rim2" fill="#404040">
                               <set attributeName="fill" to="#808080" begin="reset.mouseover" end="reset.mouseout"/>
                       </use>
               </g>
        </defs>

<script type="text/javascript">
var viewWidth = 894;
var viewHeight = 240;
var sectionId = 'dynsection-0';
</script>
<script xlink:href="../../svgpan.js"/>
<svg id="graph" class="graph">
<g id="viewport">
<title>/home/travis/build/AliceO2Group/AliceO2/Detectors/MUON/MID/Raw/include/MIDRaw/CRUUserLogicDecoder.h</title>
<!-- Node1 -->
<g id="node1" class="node"><title>Node1</title>
<polygon fill="#bfbfbf" stroke="black" points="409.5,-179.5 409.5,-231.5 616.5,-231.5 616.5,-179.5 409.5,-179.5"/>
<text text-anchor="start" x="417.5" y="-219.5" font-family="Helvetica,sans-Serif" font-size="10.00">/home/travis/build</text>
<text text-anchor="start" x="417.5" y="-208.5" font-family="Helvetica,sans-Serif" font-size="10.00">/AliceO2Group/AliceO2</text>
<text text-anchor="start" x="417.5" y="-197.5" font-family="Helvetica,sans-Serif" font-size="10.00">/Detectors/MUON/MID/Raw</text>
<text text-anchor="middle" x="513" y="-186.5" font-family="Helvetica,sans-Serif" font-size="10.00">/include/MIDRaw/CRUUserLogicDecoder.h</text>
</g>
<!-- Node2 -->
<g id="node2" class="node"><title>Node2</title>
<polygon fill="none" stroke="#bfbfbf" points="494,-0.5 494,-19.5 540,-19.5 540,-0.5 494,-0.5"/>
<text text-anchor="middle" x="517" y="-7.5" font-family="Helvetica,sans-Serif" font-size="10.00">cstdint</text>
</g>
<!-- Node1&#45;&gt;Node2 -->
<g id="edge1" class="edge"><title>Node1&#45;&gt;Node2</title>
<path fill="none" stroke="midnightblue" d="M409.219,-188.415C383.809,-179.317 359.492,-165.123 344,-143 325.909,-117.165 347.077,-78.6628 372,-56 403.012,-27.801 451.447,-17.2714 483.692,-13.3404"/>
<polygon fill="midnightblue" stroke="midnightblue" points="484.387,-16.7863 493.958,-12.2443 483.643,-9.82583 484.387,-16.7863"/>
</g>
<!-- Node3 -->
<g id="node3" class="node"><title>Node3</title>
<polygon fill="none" stroke="#bfbfbf" points="475,-62 475,-81 519,-81 519,-62 475,-62"/>
<text text-anchor="middle" x="497" y="-69" font-family="Helvetica,sans-Serif" font-size="10.00">vector</text>
</g>
<!-- Node1&#45;&gt;Node3 -->
<g id="edge2" class="edge"><title>Node1&#45;&gt;Node3</title>
<path fill="none" stroke="midnightblue" d="M509.953,-179.361C506.835,-153.637 502.062,-114.259 499.264,-91.1747"/>
<polygon fill="midnightblue" stroke="midnightblue" points="502.71,-90.5202 498.032,-81.0141 495.761,-91.3626 502.71,-90.5202"/>
</g>
<!-- Node4 -->
<g id="node4" class="node"><title>Node4</title>
<polygon fill="none" stroke="#bfbfbf" points="575.5,-62 575.5,-81 620.5,-81 620.5,-62 575.5,-62"/>
<text text-anchor="middle" x="598" y="-69" font-family="Helvetica,sans-Serif" font-size="10.00">gsl/gsl</text>
</g>
<!-- Node1&#45;&gt;Node4 -->
<g id="edge3" class="edge"><title>Node1&#45;&gt;Node4</title>
<path fill="none" stroke="midnightblue" d="M616.583,-180.94C634.907,-172.057 651.711,-159.829 663,-143 677.655,-121.152 649.45,-99.4141 625.715,-85.9748"/>
<polygon fill="midnightblue" stroke="midnightblue" points="627.075,-82.7323 616.61,-81.0807 623.761,-88.8981 627.075,-82.7323"/>
</g>
<!-- Node5 -->
<g id="node5" class="node"><title>Node5</title>
<g id="a_node5"><a xlink:href="../../d2/df9/MUON_2MID_2include_2DataFormatsMID_2ROFRecord_8h.html" target="_top" xlink:title="Definition of the MID event record. ">
<polygon fill="none" stroke="black" points="141,-123.5 141,-142.5 297,-142.5 297,-123.5 141,-123.5"/>
<text text-anchor="middle" x="219" y="-130.5" font-family="Helvetica,sans-Serif" font-size="10.00">DataFormatsMID/ROFRecord.h</text>
</a>
</g>
</g>
<!-- Node1&#45;&gt;Node5 -->
<g id="edge4" class="edge"><title>Node1&#45;&gt;Node5</title>
<path fill="none" stroke="midnightblue" d="M409.347,-179.644C359.873,-167.781 303.205,-154.192 264.655,-144.948"/>
<polygon fill="midnightblue" stroke="midnightblue" points="265.313,-141.506 254.772,-142.578 263.68,-148.313 265.313,-141.506"/>
</g>
<!-- Node11 -->
<g id="node11" class="node"><title>Node11</title>
<g id="a_node11"><a xlink:href="../../d3/d4a/LocalBoardRO_8h.html" target="_top" xlink:title="Structure to store the FEE local board information. ">
<polygon fill="none" stroke="black" points="353.5,-123.5 353.5,-142.5 484.5,-142.5 484.5,-123.5 353.5,-123.5"/>
<text text-anchor="middle" x="419" y="-130.5" font-family="Helvetica,sans-Serif" font-size="10.00">MIDRaw/LocalBoardRO.h</text>
</a>
</g>
</g>
<!-- Node1&#45;&gt;Node11 -->
<g id="edge11" class="edge"><title>Node1&#45;&gt;Node11</title>
<path fill="none" stroke="midnightblue" d="M479.594,-179.446C465.97,-169.227 450.678,-157.758 438.864,-148.898"/>
<polygon fill="midnightblue" stroke="midnightblue" points="440.694,-145.896 430.594,-142.695 436.494,-151.496 440.694,-145.896"/>
</g>
<!-- Node13 -->
<g id="node13" class="node"><title>Node13</title>
<g id="a_node13"><a xlink:href="../../db/d21/MUON_2MID_2Raw_2include_2MIDRaw_2RawBuffer_8h.html" target="_top" xlink:title="Handler of the RAW buffer. ">
<polygon fill="none" stroke="black" points="541.5,-123.5 541.5,-142.5 654.5,-142.5 654.5,-123.5 541.5,-123.5"/>
<text text-anchor="middle" x="598" y="-130.5" font-family="Helvetica,sans-Serif" font-size="10.00">MIDRaw/RawBuffer.h</text>
</a>
</g>
</g>
<!-- Node1&#45;&gt;Node13 -->
<g id="edge14" class="edge"><title>Node1&#45;&gt;Node13</title>
<path fill="none" stroke="midnightblue" d="M543.207,-179.446C555.406,-169.328 569.084,-157.983 579.722,-149.16"/>
<polygon fill="midnightblue" stroke="midnightblue" points="582.053,-151.774 587.516,-142.695 577.585,-146.386 582.053,-151.774"/>
</g>
<!-- Node15 -->
<g id="node15" class="node"><title>Node15</title>
<g id="a_node15"><a xlink:href="../../df/db7/RawUnit_8h.html" target="_top" xlink:title="Raw data format MID. ">
<polygon fill="none" stroke="black" points="733.5,-123.5 733.5,-142.5 838.5,-142.5 838.5,-123.5 733.5,-123.5"/>
<text text-anchor="middle" x="786" y="-130.5" font-family="Helvetica,sans-Serif" font-size="10.00">MIDRaw/RawUnit.h</text>
</a>
</g>
</g>
<!-- Node1&#45;&gt;Node15 -->
<g id="edge20" class="edge"><title>Node1&#45;&gt;Node15</title>
<path fill="none" stroke="midnightblue" d="M610.018,-179.446C655.492,-167.703 707.361,-154.308 742.942,-145.119"/>
<polygon fill="midnightblue" stroke="midnightblue" points="744.173,-148.416 752.981,-142.527 742.423,-141.639 744.173,-148.416"/>
</g>
<!-- Node6 -->
<g id="node6" class="node"><title>Node6</title>
<g id="a_node6"><a xlink:href="../../d9/d80/InteractionRecord_8h.html" target="_top" xlink:title="CommonDataFormat/Interaction\lRecord.h">
<polygon fill="none" stroke="black" points="139.5,-56.5 139.5,-86.5 296.5,-86.5 296.5,-56.5 139.5,-56.5"/>
<text text-anchor="start" x="147.5" y="-74.5" font-family="Helvetica,sans-Serif" font-size="10.00">CommonDataFormat/Interaction</text>
<text text-anchor="middle" x="218" y="-63.5" font-family="Helvetica,sans-Serif" font-size="10.00">Record.h</text>
</a>
</g>
</g>
<!-- Node5&#45;&gt;Node6 -->
<g id="edge5" class="edge"><title>Node5&#45;&gt;Node6</title>
<path fill="none" stroke="midnightblue" d="M218.857,-123.475C218.739,-116.471 218.566,-106.192 218.407,-96.6956"/>
<polygon fill="midnightblue" stroke="midnightblue" points="221.903,-96.4627 218.236,-86.523 214.904,-96.5804 221.903,-96.4627"/>
</g>
<!-- Node6&#45;&gt;Node2 -->
<g id="edge9" class="edge"><title>Node6&#45;&gt;Node2</title>
<path fill="none" stroke="midnightblue" d="M288.48,-56.4747C350.117,-44.2092 436.901,-26.9395 483.797,-17.6073"/>
<polygon fill="midnightblue" stroke="midnightblue" points="484.6,-21.0162 493.725,-15.6317 483.234,-14.1508 484.6,-21.0162"/>
</g>
<!-- Node7 -->
<g id="node7" class="node"><title>Node7</title>
<polygon fill="none" stroke="#bfbfbf" points="258,-0.5 258,-19.5 314,-19.5 314,-0.5 258,-0.5"/>
<text text-anchor="middle" x="286" y="-7.5" font-family="Helvetica,sans-Serif" font-size="10.00">Rtypes.h</text>
</g>
<!-- Node6&#45;&gt;Node7 -->
<g id="edge6" class="edge"><title>Node6&#45;&gt;Node7</title>
<path fill="none" stroke="midnightblue" d="M234.115,-56.3993C244.404,-47.3967 257.747,-35.7214 268.326,-26.4652"/>
<polygon fill="midnightblue" stroke="midnightblue" points="270.884,-28.8769 276.105,-19.6578 266.275,-23.6088 270.884,-28.8769"/>
</g>
<!-- Node8 -->
<g id="node8" class="node"><title>Node8</title>
<polygon fill="none" stroke="#bfbfbf" points="332.5,-0.5 332.5,-19.5 377.5,-19.5 377.5,-0.5 332.5,-0.5"/>
<text text-anchor="middle" x="355" y="-7.5" font-family="Helvetica,sans-Serif" font-size="10.00">iosfwd</text>
</g>
<!-- Node6&#45;&gt;Node8 -->
<g id="edge7" class="edge"><title>Node6&#45;&gt;Node8</title>
<path fill="none" stroke="midnightblue" d="M250.467,-56.3993C273.351,-46.4608 303.734,-33.2649 325.844,-23.6625"/>
<polygon fill="midnightblue" stroke="midnightblue" points="327.287,-26.8517 335.065,-19.6578 324.499,-20.4311 327.287,-26.8517"/>
</g>
<!-- Node9 -->
<g id="node9" class="node"><title>Node9</title>
<polygon fill="none" stroke="#bfbfbf" points="0,-0.5 0,-19.5 44,-19.5 44,-0.5 0,-0.5"/>
<text text-anchor="middle" x="22" y="-7.5" font-family="Helvetica,sans-Serif" font-size="10.00">cmath</text>
</g>
<!-- Node6&#45;&gt;Node9 -->
<g id="edge8" class="edge"><title>Node6&#45;&gt;Node9</title>
<path fill="none" stroke="midnightblue" d="M171.551,-56.3993C135.288,-45.3911 85.8613,-30.3865 53.9371,-20.6952"/>
<polygon fill="midnightblue" stroke="midnightblue" points="54.8115,-17.303 44.2259,-17.7472 52.778,-24.0011 54.8115,-17.303"/>
</g>
<!-- Node10 -->
<g id="node10" class="node"><title>Node10</title>
<g id="a_node10"><a xlink:href="../../d4/dc6/LHCConstants_8h.html" target="_top" xlink:title="Header to collect LHC related constants. ">
<polygon fill="none" stroke="black" points="62,-0.5 62,-19.5 240,-19.5 240,-0.5 62,-0.5"/>
<text text-anchor="middle" x="151" y="-7.5" font-family="Helvetica,sans-Serif" font-size="10.00">CommonConstants/LHCConstants.h</text>
</a>
</g>
</g>
<!-- Node6&#45;&gt;Node10 -->
<g id="edge10" class="edge"><title>Node6&#45;&gt;Node10</title>
<path fill="none" stroke="midnightblue" d="M202.122,-56.3993C191.985,-47.3967 178.838,-35.7214 168.415,-26.4652"/>
<polygon fill="midnightblue" stroke="midnightblue" points="170.55,-23.681 160.749,-19.6578 165.902,-28.915 170.55,-23.681"/>
</g>
<!-- Node11&#45;&gt;Node2 -->
<g id="edge12" class="edge"><title>Node11&#45;&gt;Node2</title>
<path fill="none" stroke="midnightblue" d="M423.206,-123.48C430.661,-108.83 447.192,-78.2915 466,-56 475.28,-45.0008 487.283,-34.2754 497.313,-26.056"/>
<polygon fill="midnightblue" stroke="midnightblue" points="499.535,-28.7611 505.171,-19.7901 495.171,-23.2881 499.535,-28.7611"/>
</g>
<!-- Node12 -->
<g id="node12" class="node"><title>Node12</title>
<polygon fill="none" stroke="#bfbfbf" points="381,-62 381,-81 419,-81 419,-62 381,-62"/>
<text text-anchor="middle" x="400" y="-69" font-family="Helvetica,sans-Serif" font-size="10.00">array</text>
</g>
<!-- Node11&#45;&gt;Node12 -->
<g id="edge13" class="edge"><title>Node11&#45;&gt;Node12</title>
<path fill="none" stroke="midnightblue" d="M416.278,-123.475C413.569,-114.992 409.326,-101.704 405.851,-90.8222"/>
<polygon fill="midnightblue" stroke="midnightblue" points="409.093,-89.4705 402.717,-81.0091 402.425,-91.5999 409.093,-89.4705"/>
</g>
<!-- Node13&#45;&gt;Node2 -->
<g id="edge15" class="edge"><title>Node13&#45;&gt;Node2</title>
<path fill="none" stroke="midnightblue" d="M591.748,-123.455C585.211,-114.463 574.71,-99.8576 566,-87 552.438,-66.9796 537.457,-43.5373 527.674,-28.0388"/>
<polygon fill="midnightblue" stroke="midnightblue" points="530.601,-26.1182 522.314,-19.5169 524.676,-29.8452 530.601,-26.1182"/>
</g>
<!-- Node13&#45;&gt;Node3 -->
<g id="edge16" class="edge"><title>Node13&#45;&gt;Node3</title>
<path fill="none" stroke="midnightblue" d="M583.529,-123.475C567.029,-113.755 539.822,-97.7266 520.319,-86.2372"/>
<polygon fill="midnightblue" stroke="midnightblue" points="521.837,-83.0693 511.444,-81.0091 518.284,-89.1005 521.837,-83.0693"/>
</g>
<!-- Node13&#45;&gt;Node4 -->
<g id="edge17" class="edge"><title>Node13&#45;&gt;Node4</title>
<path fill="none" stroke="midnightblue" d="M598,-123.475C598,-115.08 598,-101.981 598,-91.1631"/>
<polygon fill="midnightblue" stroke="midnightblue" points="601.5,-91.0091 598,-81.0091 594.5,-91.0091 601.5,-91.0091"/>
</g>
<!-- Node14 -->
<g id="node14" class="node"><title>Node14</title>
<g id="a_node14"><a xlink:href="../../d4/d78/DataFormats_2Headers_2include_2Headers_2RAWDataHeader_8h.html" target="_top" xlink:title="Headers/RAWDataHeader.h">
<polygon fill="none" stroke="black" points="638.5,-62 638.5,-81 779.5,-81 779.5,-62 638.5,-62"/>
<text text-anchor="middle" x="709" y="-69" font-family="Helvetica,sans-Serif" font-size="10.00">Headers/RAWDataHeader.h</text>
</a>
</g>
</g>
<!-- Node13&#45;&gt;Node14 -->
<g id="edge18" class="edge"><title>Node13&#45;&gt;Node14</title>
<path fill="none" stroke="midnightblue" d="M613.904,-123.475C632.285,-113.622 662.756,-97.2883 684.245,-85.7697"/>
<polygon fill="midnightblue" stroke="midnightblue" points="685.966,-88.8183 693.126,-81.0091 682.659,-82.6488 685.966,-88.8183"/>
</g>
<!-- Node14&#45;&gt;Node2 -->
<g id="edge19" class="edge"><title>Node14&#45;&gt;Node2</title>
<path fill="none" stroke="midnightblue" d="M681.491,-61.9751C646.802,-51.225 587.216,-32.7597 550.08,-21.2514"/>
<polygon fill="midnightblue" stroke="midnightblue" points="550.828,-17.8191 540.24,-18.2021 548.756,-24.5054 550.828,-17.8191"/>
</g>
<!-- Node15&#45;&gt;Node2 -->
<g id="edge21" class="edge"><title>Node15&#45;&gt;Node2</title>
<path fill="none" stroke="midnightblue" d="M789.731,-123.265C795.715,-107.73 805.228,-75.1337 789,-56 758.793,-20.3848 616.597,-12.9189 550.691,-11.3819"/>
<polygon fill="midnightblue" stroke="midnightblue" points="550.493,-7.87739 540.425,-11.1766 550.353,-14.876 550.493,-7.87739"/>
</g>
<!-- Node15&#45;&gt;Node14 -->
<g id="edge23" class="edge"><title>Node15&#45;&gt;Node14</title>
<path fill="none" stroke="midnightblue" d="M774.968,-123.475C762.732,-114.02 742.771,-98.5961 728.007,-87.1871"/>
<polygon fill="midnightblue" stroke="midnightblue" points="730.065,-84.3541 720.012,-81.0091 725.785,-89.8931 730.065,-84.3541"/>
</g>
<!-- Node16 -->
<g id="node16" class="node"><title>Node16</title>
<polygon fill="none" stroke="#bfbfbf" points="836.5,-62 836.5,-81 885.5,-81 885.5,-62 836.5,-62"/>
<text text-anchor="middle" x="861" y="-69" font-family="Helvetica,sans-Serif" font-size="10.00">cstddef</text>
</g>
<!-- Node15&#45;&gt;Node16 -->
<g id="edge22" class="edge"><title>Node15&#45;&gt;Node16</title>
<path fill="none" stroke="midnightblue" d="M796.746,-123.475C808.553,-114.108 827.743,-98.8839 842.082,-87.5081"/>
<polygon fill="midnightblue" stroke="midnightblue" points="844.615,-89.9661 850.274,-81.0091 840.265,-84.4822 844.615,-89.9661"/>
</g>
</g>
</svg>
        <g id="navigator" transform="translate(0 0)" fill="#404254">
                <rect fill="#f2f5e9" fill-opacity="0.5" stroke="#606060" stroke-width=".5" x="0" y="0" width="60" height="60"/>
                <use id="zoomplus" xlink:href="#zoomPlus" x="17" y="9" onmousedown="handleZoom(evt,'in')"/>
                <use id="zoomminus" xlink:href="#zoomMin" x="42" y="9" onmousedown="handleZoom(evt,'out')"/>
                <use id="reset" xlink:href="#resetDef" x="30" y="36" onmousedown="handleReset()"/>
                <g id="arrowUp" xlink:href="#dirArrow" transform="translate(30 24)" onmousedown="handlePan(0,-1)">
                  <use xlink:href="#rim" fill="#404040">
                        <set attributeName="fill" to="#808080" begin="arrowUp.mouseover" end="arrowUp.mouseout"/>
                  </use>
                  <path fill="none" stroke="white" stroke-width="1.5" d="M0,-3.0v7 M-2.5,-0.5L0,-3.0L2.5,-0.5"/>
                </g>
                <g id="arrowRight" xlink:href="#dirArrow" transform="rotate(90) translate(36 -43)" onmousedown="handlePan(1,0)">
                  <use xlink:href="#rim" fill="#404040">
                        <set attributeName="fill" to="#808080" begin="arrowRight.mouseover" end="arrowRight.mouseout"/>
                  </use>
                  <path fill="none" stroke="white" stroke-width="1.5" d="M0,-3.0v7 M-2.5,-0.5L0,-3.0L2.5,-0.5"/>
                </g>
                <g id="arrowDown" xlink:href="#dirArrow" transform="rotate(180) translate(-30 -48)" onmousedown="handlePan(0,1)">
                  <use xlink:href="#rim" fill="#404040">
                        <set attributeName="fill" to="#808080" begin="arrowDown.mouseover" end="arrowDown.mouseout"/>
                  </use>
                  <path fill="none" stroke="white" stroke-width="1.5" d="M0,-3.0v7 M-2.5,-0.5L0,-3.0L2.5,-0.5"/>
                </g>
                <g id="arrowLeft" xlink:href="#dirArrow" transform="rotate(270) translate(-36 17)" onmousedown="handlePan(-1,0)">
                  <use xlink:href="#rim" fill="#404040">
                        <set attributeName="fill" to="#808080" begin="arrowLeft.mouseover" end="arrowLeft.mouseout"/>
                  </use>
                  <path fill="none" stroke="white" stroke-width="1.5" d="M0,-3.0v7 M-2.5,-0.5L0,-3.0L2.5,-0.5"/>
                </g>
        </g>
        <svg viewBox="0 0 15 15" width="100%" height="30px" preserveAspectRatio="xMaxYMin meet">
         <g id="arrow_out" transform="scale(0.3 0.3)">
          <a xlink:href="CRUUserLogicDecoder_8h__incl_org.svg" target="_base">
           <rect id="button" ry="5" rx="5" y="6" x="6" height="38" width="38"
                fill="#f2f5e9" fill-opacity="0.5" stroke="#606060" stroke-width="1.0"/>
           <path id="arrow"
             d="M 11.500037,31.436501 C 11.940474,20.09759 22.043105,11.32322 32.158766,21.979434 L 37.068811,17.246167 C 37.068811,17.246167 37.088388,32 37.088388,32 L 22.160133,31.978069 C 22.160133,31.978069 26.997745,27.140456 26.997745,27.140456 C 18.528582,18.264221 13.291696,25.230495 11.500037,31.436501 z"
             style="fill:#404040;"/>
          </a>
         </g>
        </svg>
</svg>
