<?xml version="1.0" encoding="UTF-8" standalone="no"?>
<!DOCTYPE svg PUBLIC "-//W3C//DTD SVG 1.1//EN"
 "http://www.w3.org/Graphics/SVG/1.1/DTD/svg11.dtd">
<!-- Generated by graphviz version 2.38.0 (20140413.2041)
 -->
<!-- Title: /home/travis/build/AliceO2Group/AliceO2/Detectors/MUON/MID/Raw/include/MIDRaw/RawFileReader.h Pages: 1 -->
<svg width="657pt" height="229pt"
 viewBox="0.00 0.00 656.50 229.00" xmlns="http://www.w3.org/2000/svg" xmlns:xlink="http://www.w3.org/1999/xlink">
<g id="graph0" class="graph" transform="scale(1 1) rotate(0) translate(4 225)">
<title>/home/travis/build/AliceO2Group/AliceO2/Detectors/MUON/MID/Raw/include/MIDRaw/RawFileReader.h</title>
<!-- Node1 -->
<g id="node1" class="node"><title>Node1</title>
<polygon fill="#bfbfbf" stroke="black" points="140.5,-168.5 140.5,-220.5 311.5,-220.5 311.5,-168.5 140.5,-168.5"/>
<text text-anchor="start" x="148.5" y="-208.5" font-family="Helvetica,sans-Serif" font-size="10.00">/home/travis/build</text>
<text text-anchor="start" x="148.5" y="-197.5" font-family="Helvetica,sans-Serif" font-size="10.00">/AliceO2Group/AliceO2</text>
<text text-anchor="start" x="148.5" y="-186.5" font-family="Helvetica,sans-Serif" font-size="10.00">/Detectors/MUON/MID/Raw</text>
<text text-anchor="middle" x="226" y="-175.5" font-family="Helvetica,sans-Serif" font-size="10.00">/include/MIDRaw/RawFileReader.h</text>
</g>
<!-- Node2 -->
<g id="node2" class="node"><title>Node2</title>
<polygon fill="none" stroke="#bfbfbf" points="0,-112.5 0,-131.5 50,-131.5 50,-112.5 0,-112.5"/>
<text text-anchor="middle" x="25" y="-119.5" font-family="Helvetica,sans-Serif" font-size="10.00">fstream</text>
</g>
<!-- Node1&#45;&gt;Node2 -->
<g id="edge1" class="edge"><title>Node1&#45;&gt;Node2</title>
<path fill="none" stroke="midnightblue" d="M154.569,-168.446C121.951,-157.005 84.8627,-143.997 58.7495,-134.838"/>
<polygon fill="midnightblue" stroke="midnightblue" points="59.9058,-131.534 49.3109,-131.527 57.5889,-138.14 59.9058,-131.534"/>
</g>
<!-- Node3 -->
<g id="node3" class="node"><title>Node3</title>
<polygon fill="none" stroke="#bfbfbf" points="238,-56.5 238,-75.5 282,-75.5 282,-56.5 238,-56.5"/>
<text text-anchor="middle" x="260" y="-63.5" font-family="Helvetica,sans-Serif" font-size="10.00">vector</text>
</g>
<!-- Node1&#45;&gt;Node3 -->
<g id="edge2" class="edge"><title>Node1&#45;&gt;Node3</title>
<path fill="none" stroke="midnightblue" d="M241.051,-168.34C246.772,-157.529 252.7,-144.521 256,-132 260.011,-116.779 260.842,-98.8901 260.766,-85.7361"/>
<polygon fill="midnightblue" stroke="midnightblue" points="264.261,-85.4948 260.523,-75.5816 257.263,-85.6626 264.261,-85.4948"/>
</g>
<!-- Node4 -->
<g id="node4" class="node"><title>Node4</title>
<polygon fill="none" stroke="#bfbfbf" points="85,-56.5 85,-75.5 123,-75.5 123,-56.5 85,-56.5"/>
<text text-anchor="middle" x="104" y="-63.5" font-family="Helvetica,sans-Serif" font-size="10.00">array</text>
</g>
<!-- Node1&#45;&gt;Node4 -->
<g id="edge3" class="edge"><title>Node1&#45;&gt;Node4</title>
<path fill="none" stroke="midnightblue" d="M140.277,-169.214C123.133,-160.313 107.262,-148.261 97,-132 88.2149,-118.079 91.6305,-99.0695 96.2423,-85.2048"/>
<polygon fill="midnightblue" stroke="midnightblue" points="99.5451,-86.366 99.8199,-75.7747 93.0003,-83.8829 99.5451,-86.366"/>
</g>
<!-- Node5 -->
<g id="node5" class="node"><title>Node5</title>
<g id="a_node5"><a xlink:href="../../d2/da5/CrateParameters_8h.html" target="_top" xlink:title="MID RO crate parameters. ">
<polygon fill="none" stroke="black" points="106.5,-112.5 106.5,-131.5 247.5,-131.5 247.5,-112.5 106.5,-112.5"/>
<text text-anchor="middle" x="177" y="-119.5" font-family="Helvetica,sans-Serif" font-size="10.00">MIDRaw/CrateParameters.h</text>
</a>
</g>
</g>
<!-- Node1&#45;&gt;Node5 -->
<g id="edge4" class="edge"><title>Node1&#45;&gt;Node5</title>
<path fill="none" stroke="midnightblue" d="M208.586,-168.446C202.041,-159.029 194.758,-148.55 188.836,-140.029"/>
<polygon fill="midnightblue" stroke="midnightblue" points="191.625,-137.909 183.044,-131.695 185.877,-141.904 191.625,-137.909"/>
</g>
<!-- Node7 -->
<g id="node7" class="node"><title>Node7</title>
<g id="a_node7"><a xlink:href="../../db/d21/MUON_2MID_2Raw_2include_2MIDRaw_2RawBuffer_8h.html" target="_top" xlink:title="Handler of the RAW buffer. ">
<polygon fill="none" stroke="black" points="304.5,-112.5 304.5,-131.5 417.5,-131.5 417.5,-112.5 304.5,-112.5"/>
<text text-anchor="middle" x="361" y="-119.5" font-family="Helvetica,sans-Serif" font-size="10.00">MIDRaw/RawBuffer.h</text>
</a>
</g>
</g>
<!-- Node1&#45;&gt;Node7 -->
<g id="edge7" class="edge"><title>Node1&#45;&gt;Node7</title>
<path fill="none" stroke="midnightblue" d="M273.976,-168.446C294.822,-157.56 318.387,-145.254 335.732,-136.196"/>
<polygon fill="midnightblue" stroke="midnightblue" points="337.428,-139.258 344.672,-131.527 334.187,-133.054 337.428,-139.258"/>
</g>
<!-- Node10 -->
<g id="node10" class="node"><title>Node10</title>
<g id="a_node10"><a xlink:href="../../df/db7/RawUnit_8h.html" target="_top" xlink:title="Raw data format MID. ">
<polygon fill="none" stroke="black" points="477.5,-112.5 477.5,-131.5 582.5,-131.5 582.5,-112.5 477.5,-112.5"/>
<text text-anchor="middle" x="530" y="-119.5" font-family="Helvetica,sans-Serif" font-size="10.00">MIDRaw/RawUnit.h</text>
</a>
</g>
</g>
<!-- Node1&#45;&gt;Node10 -->
<g id="edge13" class="edge"><title>Node1&#45;&gt;Node10</title>
<path fill="none" stroke="midnightblue" d="M311.895,-173.58C367.558,-160.672 437.909,-144.357 483.418,-133.803"/>
<polygon fill="midnightblue" stroke="midnightblue" points="484.35,-137.18 493.3,-131.511 482.768,-130.361 484.35,-137.18"/>
</g>
<!-- Node5&#45;&gt;Node4 -->
<g id="edge6" class="edge"><title>Node5&#45;&gt;Node4</title>
<path fill="none" stroke="midnightblue" d="M165.271,-112.324C154.163,-104.107 137.258,-91.6017 124.017,-81.8069"/>
<polygon fill="midnightblue" stroke="midnightblue" points="126.063,-78.9671 115.942,-75.8339 121.9,-84.5948 126.063,-78.9671"/>
</g>
<!-- Node6 -->
<g id="node6" class="node"><title>Node6</title>
<polygon fill="none" stroke="#bfbfbf" points="368,-0.5 368,-19.5 414,-19.5 414,-0.5 368,-0.5"/>
<text text-anchor="middle" x="391" y="-7.5" font-family="Helvetica,sans-Serif" font-size="10.00">cstdint</text>
</g>
<!-- Node5&#45;&gt;Node6 -->
<g id="edge5" class="edge"><title>Node5&#45;&gt;Node6</title>
<path fill="none" stroke="midnightblue" d="M181.506,-112.4C189.282,-98.4119 206.568,-70.8094 229,-56 268.627,-29.8389 323.306,-18.7551 357.906,-14.1507"/>
<polygon fill="midnightblue" stroke="midnightblue" points="358.46,-17.6091 367.961,-12.9202 357.61,-10.6609 358.46,-17.6091"/>
</g>
<!-- Node7&#45;&gt;Node3 -->
<g id="edge9" class="edge"><title>Node7&#45;&gt;Node3</title>
<path fill="none" stroke="midnightblue" d="M344.773,-112.324C328.649,-103.703 303.7,-90.3643 285.036,-80.3855"/>
<polygon fill="midnightblue" stroke="midnightblue" points="286.656,-77.283 276.187,-75.6545 283.356,-83.456 286.656,-77.283"/>
</g>
<!-- Node7&#45;&gt;Node6 -->
<g id="edge8" class="edge"><title>Node7&#45;&gt;Node6</title>
<path fill="none" stroke="midnightblue" d="M351.066,-112.13C338.274,-99.5797 318.831,-75.9463 329,-56 336,-42.2698 349.366,-31.7496 361.9,-24.3465"/>
<polygon fill="midnightblue" stroke="midnightblue" points="363.674,-27.366 370.777,-19.5055 360.322,-21.2204 363.674,-27.366"/>
</g>
<!-- Node8 -->
<g id="node8" class="node"><title>Node8</title>
<polygon fill="none" stroke="#bfbfbf" points="338.5,-56.5 338.5,-75.5 383.5,-75.5 383.5,-56.5 338.5,-56.5"/>
<text text-anchor="middle" x="361" y="-63.5" font-family="Helvetica,sans-Serif" font-size="10.00">gsl/gsl</text>
</g>
<!-- Node7&#45;&gt;Node8 -->
<g id="edge10" class="edge"><title>Node7&#45;&gt;Node8</title>
<path fill="none" stroke="midnightblue" d="M361,-112.083C361,-105.006 361,-94.8611 361,-85.9865"/>
<polygon fill="midnightblue" stroke="midnightblue" points="364.5,-85.751 361,-75.7511 357.5,-85.7511 364.5,-85.751"/>
</g>
<!-- Node9 -->
<g id="node9" class="node"><title>Node9</title>
<g id="a_node9"><a xlink:href="../../d4/d78/DataFormats_2Headers_2include_2Headers_2RAWDataHeader_8h.html" target="_top" xlink:title="Headers/RAWDataHeader.h">
<polygon fill="none" stroke="black" points="401.5,-56.5 401.5,-75.5 542.5,-75.5 542.5,-56.5 401.5,-56.5"/>
<text text-anchor="middle" x="472" y="-63.5" font-family="Helvetica,sans-Serif" font-size="10.00">Headers/RAWDataHeader.h</text>
</a>
</g>
</g>
<!-- Node7&#45;&gt;Node9 -->
<g id="edge11" class="edge"><title>Node7&#45;&gt;Node9</title>
<path fill="none" stroke="midnightblue" d="M378.834,-112.324C396.716,-103.625 424.475,-90.1202 445.046,-80.113"/>
<polygon fill="midnightblue" stroke="midnightblue" points="446.749,-83.1765 454.21,-75.6545 443.687,-76.8819 446.749,-83.1765"/>
</g>
<!-- Node9&#45;&gt;Node6 -->
<g id="edge12" class="edge"><title>Node9&#45;&gt;Node6</title>
<path fill="none" stroke="midnightblue" d="M458.986,-56.324C446.468,-47.979 427.318,-35.2122 412.529,-25.3524"/>
<polygon fill="midnightblue" stroke="midnightblue" points="414.244,-22.2894 403.982,-19.6545 410.361,-28.1137 414.244,-22.2894"/>
</g>
<!-- Node10&#45;&gt;Node6 -->
<g id="edge14" class="edge"><title>Node10&#45;&gt;Node6</title>
<path fill="none" stroke="midnightblue" d="M537.738,-112.176C548.458,-98.8389 565.107,-73.2727 552,-56 536.603,-35.7092 466.63,-22.0879 424.161,-15.5293"/>
<polygon fill="midnightblue" stroke="midnightblue" points="424.67,-12.0665 414.263,-14.0512 423.636,-18.9898 424.67,-12.0665"/>
</g>
<!-- Node10&#45;&gt;Node9 -->
<g id="edge16" class="edge"><title>Node10&#45;&gt;Node9</title>
<path fill="none" stroke="midnightblue" d="M520.681,-112.324C512.107,-104.341 499.188,-92.3128 488.812,-82.6529"/>
<polygon fill="midnightblue" stroke="midnightblue" points="491.192,-80.0865 481.488,-75.8339 486.422,-85.2098 491.192,-80.0865"/>
</g>
<!-- Node11 -->
<g id="node11" class="node"><title>Node11</title>
<polygon fill="none" stroke="#bfbfbf" points="599.5,-56.5 599.5,-75.5 648.5,-75.5 648.5,-56.5 599.5,-56.5"/>
<text text-anchor="middle" x="624" y="-63.5" font-family="Helvetica,sans-Serif" font-size="10.00">cstddef</text>
</g>
<!-- Node10&#45;&gt;Node11 -->
<g id="edge15" class="edge"><title>Node10&#45;&gt;Node11</title>
<path fill="none" stroke="midnightblue" d="M545.103,-112.324C559.903,-103.822 582.694,-90.7288 599.982,-80.7975"/>
<polygon fill="midnightblue" stroke="midnightblue" points="602.007,-83.6707 608.935,-75.6545 598.52,-77.6009 602.007,-83.6707"/>
</g>
</g>
</svg>
