<?xml version="1.0" encoding="UTF-8" standalone="no"?>
<!DOCTYPE svg PUBLIC "-//W3C//DTD SVG 1.1//EN"
 "http://www.w3.org/Graphics/SVG/1.1/DTD/svg11.dtd">
<!-- Generated by graphviz version 2.38.0 (20140413.2041)
 -->
<!-- Title: AliTPCPoissonSolver Pages: 1 -->
<!--zoomable 529 -->
<svg id="main" version="1.1" xmlns="http://www.w3.org/2000/svg" xmlns:xlink="http://www.w3.org/1999/xlink" xml:space="preserve" onload="init(evt)">
<style type="text/css"><![CDATA[
.edge:hover path { stroke: red; }
.edge:hover polygon { stroke: red; fill: red; }
]]></style>
<script type="text/javascript"><![CDATA[
var edges = document.getElementsByTagName('g');
if (edges && edges.length) {
  for (var i=0;i<edges.length;i++) {
    if (edges[i].id.substr(0,4)=='edge') {
      edges[i].setAttribute('class','edge');
    }
  }
}
]]></script>
        <defs>
                <circle id="rim" cx="0" cy="0" r="7"/>
                <circle id="rim2" cx="0" cy="0" r="3.5"/>
                <g id="zoomPlus">
                        <use xlink:href="#rim" fill="#404040">
                                <set attributeName="fill" to="#808080" begin="zoomplus.mouseover" end="zoomplus.mouseout"/>
                        </use>
                        <path d="M-4,0h8M0,-4v8" fill="none" stroke="white" stroke-width="1.5" pointer-events="none"/>
                </g>
                <g id="zoomMin">
                        <use xlink:href="#rim" fill="#404040">
                                <set attributeName="fill" to="#808080" begin="zoomminus.mouseover" end="zoomminus.mouseout"/>
                        </use>
                        <path d="M-4,0h8" fill="none" stroke="white" stroke-width="1.5" pointer-events="none"/>
                </g>
                <g id="dirArrow">
                        <path fill="none" stroke="white" stroke-width="1.5" d="M0,-3.0v7 M-2.5,-0.5L0,-3.0L2.5,-0.5"/>
                </g>
               <g id="resetDef">
                       <use xlink:href="#rim2" fill="#404040">
                               <set attributeName="fill" to="#808080" begin="reset.mouseover" end="reset.mouseout"/>
                       </use>
               </g>
        </defs>

<script type="text/javascript">
var viewWidth = 610;
var viewHeight = 529;
var sectionId = 'dynsection-1';
</script>
<script xlink:href="../../svgpan.js"/>
<svg id="graph" class="graph">
<g id="viewport">
<title>AliTPCPoissonSolver</title>
<!-- Node1 -->
<g id="node1" class="node"><title>Node1</title>
<polygon fill="#bfbfbf" stroke="black" points="322,-0.5 322,-145.5 454,-145.5 454,-0.5 322,-0.5"/>
<text text-anchor="middle" x="388" y="-133.5" font-family="Helvetica,sans-Serif" font-size="10.00">AliTPCPoissonSolver</text>
<polyline fill="none" stroke="black" points="322,-126.5 454,-126.5 "/>
<text text-anchor="start" x="330" y="-114.5" font-family="Helvetica,sans-Serif" font-size="10.00">+ fgkdvdE</text>
<polyline fill="none" stroke="black" points="322,-107.5 454,-107.5 "/>
<text text-anchor="start" x="330" y="-95.5" font-family="Helvetica,sans-Serif" font-size="10.00">+ AliTPCPoissonSolver()</text>
<text text-anchor="start" x="330" y="-84.5" font-family="Helvetica,sans-Serif" font-size="10.00">+ AliTPCPoissonSolver()</text>
<text text-anchor="start" x="330" y="-73.5" font-family="Helvetica,sans-Serif" font-size="10.00">+ ~AliTPCPoissonSolver()</text>
<text text-anchor="start" x="330" y="-62.5" font-family="Helvetica,sans-Serif" font-size="10.00">+ PoissonSolver2D()</text>
<text text-anchor="start" x="330" y="-51.5" font-family="Helvetica,sans-Serif" font-size="10.00">+ PoissonSolver3D()</text>
<text text-anchor="start" x="330" y="-40.5" font-family="Helvetica,sans-Serif" font-size="10.00">+ SetStrategy()</text>
<text text-anchor="start" x="330" y="-29.5" font-family="Helvetica,sans-Serif" font-size="10.00">+ GetStrategy()</text>
<text text-anchor="start" x="330" y="-18.5" font-family="Helvetica,sans-Serif" font-size="10.00">+ SetExactSolution()</text>
<text text-anchor="start" x="330" y="-7.5" font-family="Helvetica,sans-Serif" font-size="10.00">+ SetCycleType()</text>
</g>
<!-- Node2 -->
<g id="node2" class="node"><title>Node2</title>
<polygon fill="none" stroke="#bfbfbf" points="169,-309 169,-366 223,-366 223,-309 169,-309"/>
<text text-anchor="middle" x="196" y="-354" font-family="Helvetica,sans-Serif" font-size="10.00">TNamed</text>
<polyline fill="none" stroke="#bfbfbf" points="169,-347 223,-347 "/>
<text text-anchor="middle" x="196" y="-335" font-family="Helvetica,sans-Serif" font-size="10.00"> </text>
<polyline fill="none" stroke="#bfbfbf" points="169,-328 223,-328 "/>
<text text-anchor="middle" x="196" y="-316" font-family="Helvetica,sans-Serif" font-size="10.00"> </text>
</g>
<!-- Node2&#45;&gt;Node1 -->
<g id="edge1" class="edge"><title>Node2&#45;&gt;Node1</title>
<path fill="none" stroke="midnightblue" d="M216.883,-299.846C237.833,-264.073 271.815,-208.662 306,-164 311.011,-157.454 316.398,-150.813 321.93,-144.259"/>
<polygon fill="none" stroke="midnightblue" points="213.593,-298.541 211.588,-308.944 219.643,-302.062 213.593,-298.541"/>
</g>
<!-- Node3 -->
<g id="node3" class="node"><title>Node3</title>
<g id="a_node3"><a xlink:href="../../d7/d4a/structAliTPCPoissonSolver_1_1MGParameters.html" target="_top" xlink:title="{AliTPCPoissonSolver\l::MGParameters\n||+ MGParameters()\l}">
<polygon fill="none" stroke="black" points="241.5,-303.5 241.5,-371.5 352.5,-371.5 352.5,-303.5 241.5,-303.5"/>
<text text-anchor="start" x="249.5" y="-359.5" font-family="Helvetica,sans-Serif" font-size="10.00">AliTPCPoissonSolver</text>
<text text-anchor="middle" x="297" y="-348.5" font-family="Helvetica,sans-Serif" font-size="10.00">::MGParameters</text>
<polyline fill="none" stroke="black" points="241.5,-341.5 352.5,-341.5 "/>
<text text-anchor="middle" x="297" y="-329.5" font-family="Helvetica,sans-Serif" font-size="10.00"> </text>
<polyline fill="none" stroke="black" points="241.5,-322.5 352.5,-322.5 "/>
<text text-anchor="start" x="249.5" y="-310.5" font-family="Helvetica,sans-Serif" font-size="10.00">+ MGParameters()</text>
</a>
</g>
</g>
<!-- Node3&#45;&gt;Node1 -->
<g id="edge2" class="edge"><title>Node3&#45;&gt;Node1</title>
<path fill="none" stroke="#404040" d="M304.038,-303.489C311.984,-268.332 326.16,-211.345 344,-164 344.886,-161.648 345.813,-159.274 346.772,-156.889"/>
<polygon fill="none" stroke="#404040" points="346.831,-156.748 345.464,-149.668 351.474,-145.683 352.841,-152.763 346.831,-156.748"/>
<text text-anchor="middle" x="382" y="-222" font-family="Helvetica,sans-Serif" font-size="10.00"> +fMgParameters</text>
</g>
<!-- Node4 -->
<g id="node4" class="node"><title>Node4</title>
<polygon fill="none" stroke="#bfbfbf" points="0,-463.5 0,-520.5 92,-520.5 92,-463.5 0,-463.5"/>
<text text-anchor="middle" x="46" y="-508.5" font-family="Helvetica,sans-Serif" font-size="10.00">GridTransferType</text>
<polyline fill="none" stroke="#bfbfbf" points="0,-501.5 92,-501.5 "/>
<text text-anchor="middle" x="46" y="-489.5" font-family="Helvetica,sans-Serif" font-size="10.00"> </text>
<polyline fill="none" stroke="#bfbfbf" points="0,-482.5 92,-482.5 "/>
<text text-anchor="middle" x="46" y="-470.5" font-family="Helvetica,sans-Serif" font-size="10.00"> </text>
</g>
<!-- Node4&#45;&gt;Node3 -->
<g id="edge3" class="edge"><title>Node4&#45;&gt;Node3</title>
<path fill="none" stroke="#404040" d="M53.2101,-463.08C60.8027,-439.627 75.1875,-407.256 100,-390 145.667,-358.241 172.196,-385.995 229.932,-371.902"/>
<polygon fill="none" stroke="#404040" points="229.951,-371.896 234.635,-366.413 241.498,-368.628 236.814,-374.111 229.951,-371.896"/>
<text text-anchor="middle" x="120" y="-415" font-family="Helvetica,sans-Serif" font-size="10.00"> +gtType</text>
</g>
<!-- Node5 -->
<g id="node5" class="node"><title>Node5</title>
<polygon fill="none" stroke="#bfbfbf" points="110,-463.5 110,-520.5 174,-520.5 174,-463.5 110,-463.5"/>
<text text-anchor="middle" x="142" y="-508.5" font-family="Helvetica,sans-Serif" font-size="10.00">CycleType</text>
<polyline fill="none" stroke="#bfbfbf" points="110,-501.5 174,-501.5 "/>
<text text-anchor="middle" x="142" y="-489.5" font-family="Helvetica,sans-Serif" font-size="10.00"> </text>
<polyline fill="none" stroke="#bfbfbf" points="110,-482.5 174,-482.5 "/>
<text text-anchor="middle" x="142" y="-470.5" font-family="Helvetica,sans-Serif" font-size="10.00"> </text>
</g>
<!-- Node5&#45;&gt;Node3 -->
<g id="edge4" class="edge"><title>Node5&#45;&gt;Node3</title>
<path fill="none" stroke="#404040" d="M141.591,-463.381C142.77,-440.759 148.106,-409.421 167,-390 185.617,-370.864 200.489,-380.201 229.823,-372.015"/>
<polygon fill="none" stroke="#404040" points="229.953,-371.971 234.352,-366.257 241.319,-368.121 236.919,-373.834 229.953,-371.971"/>
<text text-anchor="middle" x="194.5" y="-415" font-family="Helvetica,sans-Serif" font-size="10.00"> +cycleType</text>
</g>
<!-- Node6 -->
<g id="node6" class="node"><title>Node6</title>
<polygon fill="none" stroke="#bfbfbf" points="192,-463.5 192,-520.5 256,-520.5 256,-463.5 192,-463.5"/>
<text text-anchor="middle" x="224" y="-508.5" font-family="Helvetica,sans-Serif" font-size="10.00">RelaxType</text>
<polyline fill="none" stroke="#bfbfbf" points="192,-501.5 256,-501.5 "/>
<text text-anchor="middle" x="224" y="-489.5" font-family="Helvetica,sans-Serif" font-size="10.00"> </text>
<polyline fill="none" stroke="#bfbfbf" points="192,-482.5 256,-482.5 "/>
<text text-anchor="middle" x="224" y="-470.5" font-family="Helvetica,sans-Serif" font-size="10.00"> </text>
</g>
<!-- Node6&#45;&gt;Node3 -->
<g id="edge5" class="edge"><title>Node6&#45;&gt;Node3</title>
<path fill="none" stroke="#404040" d="M223.883,-463.284C224.886,-442.056 228.707,-412.664 241,-390 242.653,-386.952 244.556,-383.988 246.64,-381.122"/>
<polygon fill="none" stroke="#404040" points="246.701,-381.048 247.423,-373.873 254.324,-371.78 253.602,-378.955 246.701,-381.048"/>
<text text-anchor="middle" x="267" y="-415" font-family="Helvetica,sans-Serif" font-size="10.00"> +relaxType</text>
</g>
<!-- Node7 -->
<g id="node7" class="node"><title>Node7</title>
<polygon fill="none" stroke="#bfbfbf" points="275,-463.5 275,-520.5 319,-520.5 319,-463.5 275,-463.5"/>
<text text-anchor="middle" x="297" y="-508.5" font-family="Helvetica,sans-Serif" font-size="10.00">Bool_t</text>
<polyline fill="none" stroke="#bfbfbf" points="275,-501.5 319,-501.5 "/>
<text text-anchor="middle" x="297" y="-489.5" font-family="Helvetica,sans-Serif" font-size="10.00"> </text>
<polyline fill="none" stroke="#bfbfbf" points="275,-482.5 319,-482.5 "/>
<text text-anchor="middle" x="297" y="-470.5" font-family="Helvetica,sans-Serif" font-size="10.00"> </text>
</g>
<!-- Node7&#45;&gt;Node3 -->
<g id="edge6" class="edge"><title>Node7&#45;&gt;Node3</title>
<path fill="none" stroke="#404040" d="M297,-463.383C297,-441.255 297,-409.747 297,-383.916"/>
<polygon fill="none" stroke="#404040" points="297,-383.758 293,-377.758 297,-371.758 301,-377.758 297,-383.758"/>
<text text-anchor="middle" x="320" y="-415" font-family="Helvetica,sans-Serif" font-size="10.00"> +isFull3D</text>
</g>
<!-- Node8 -->
<g id="node8" class="node"><title>Node8</title>
<polygon fill="none" stroke="#bfbfbf" points="382,-463.5 382,-520.5 418,-520.5 418,-463.5 382,-463.5"/>
<text text-anchor="middle" x="400" y="-508.5" font-family="Helvetica,sans-Serif" font-size="10.00">Int_t</text>
<polyline fill="none" stroke="#bfbfbf" points="382,-501.5 418,-501.5 "/>
<text text-anchor="middle" x="400" y="-489.5" font-family="Helvetica,sans-Serif" font-size="10.00"> </text>
<polyline fill="none" stroke="#bfbfbf" points="382,-482.5 418,-482.5 "/>
<text text-anchor="middle" x="400" y="-470.5" font-family="Helvetica,sans-Serif" font-size="10.00"> </text>
</g>
<!-- Node8&#45;&gt;Node1 -->
<g id="edge9" class="edge"><title>Node8&#45;&gt;Node1</title>
<path fill="none" stroke="#404040" d="M414.165,-463.383C416.583,-457.463 418.723,-451.139 420,-445 445.431,-322.728 441.228,-287.071 420,-164 419.625,-161.827 419.203,-159.637 418.739,-157.438"/>
<polygon fill="none" stroke="#404040" points="418.705,-157.295 413.413,-152.398 415.898,-145.628 421.191,-150.526 418.705,-157.295"/>
<text text-anchor="middle" x="464.5" y="-335" font-family="Helvetica,sans-Serif" font-size="10.00"> +fIterations</text>
</g>
<!-- Node8&#45;&gt;Node3 -->
<g id="edge7" class="edge"><title>Node8&#45;&gt;Node3</title>
<path fill="none" stroke="#404040" d="M381.807,-467.801C376.671,-460.702 371.312,-452.724 367,-445 354.084,-421.866 358.251,-412.337 344,-390 342.045,-386.935 339.901,-383.881 337.641,-380.877"/>
<polygon fill="none" stroke="#404040" points="337.625,-380.857 330.749,-378.684 330.11,-371.501 336.986,-373.674 337.625,-380.857"/>
<text text-anchor="middle" x="393.5" y="-437" font-family="Helvetica,sans-Serif" font-size="10.00"> +nPre</text>
<text text-anchor="middle" x="393.5" y="-426" font-family="Helvetica,sans-Serif" font-size="10.00">+nMGCycle</text>
<text text-anchor="middle" x="393.5" y="-415" font-family="Helvetica,sans-Serif" font-size="10.00">+maxLoop</text>
<text text-anchor="middle" x="393.5" y="-404" font-family="Helvetica,sans-Serif" font-size="10.00">+gamma</text>
<text text-anchor="middle" x="393.5" y="-393" font-family="Helvetica,sans-Serif" font-size="10.00">+nPost</text>
</g>
<!-- Node9 -->
<g id="node9" class="node"><title>Node9</title>
<polygon fill="none" stroke="#bfbfbf" points="505.5,-309 505.5,-366 546.5,-366 546.5,-309 505.5,-309"/>
<text text-anchor="middle" x="526" y="-354" font-family="Helvetica,sans-Serif" font-size="10.00">static</text>
<polyline fill="none" stroke="#bfbfbf" points="505.5,-347 546.5,-347 "/>
<text text-anchor="middle" x="526" y="-335" font-family="Helvetica,sans-Serif" font-size="10.00"> </text>
<polyline fill="none" stroke="#bfbfbf" points="505.5,-328 546.5,-328 "/>
<text text-anchor="middle" x="526" y="-316" font-family="Helvetica,sans-Serif" font-size="10.00"> </text>
</g>
<!-- Node9&#45;&gt;Node1 -->
<g id="edge8" class="edge"><title>Node9&#45;&gt;Node1</title>
<path fill="none" stroke="#404040" d="M515.173,-308.94C501.202,-274.313 475.416,-213.439 448,-164 446.526,-161.342 444.998,-158.659 443.43,-155.967"/>
<polygon fill="none" stroke="#404040" points="443.365,-155.86 436.852,-152.765 437.204,-145.563 443.717,-148.658 443.365,-155.86"/>
<text text-anchor="middle" x="553.5" y="-277" font-family="Helvetica,sans-Serif" font-size="10.00"> +fgConvergenceError</text>
<text text-anchor="middle" x="553.5" y="-266" font-family="Helvetica,sans-Serif" font-size="10.00">+fgkEM</text>
<text text-anchor="middle" x="553.5" y="-255" font-family="Helvetica,sans-Serif" font-size="10.00">+fgkCathodeV</text>
<text text-anchor="middle" x="553.5" y="-244" font-family="Helvetica,sans-Serif" font-size="10.00">+fgkIFCRadius</text>
<text text-anchor="middle" x="553.5" y="-233" font-family="Helvetica,sans-Serif" font-size="10.00">+fgExactErr</text>
<text text-anchor="middle" x="553.5" y="-222" font-family="Helvetica,sans-Serif" font-size="10.00">+fgkOFCRadius</text>
<text text-anchor="middle" x="553.5" y="-211" font-family="Helvetica,sans-Serif" font-size="10.00">+fgkTPCZ0</text>
<text text-anchor="middle" x="553.5" y="-200" font-family="Helvetica,sans-Serif" font-size="10.00">+fgke0</text>
<text text-anchor="middle" x="553.5" y="-189" font-family="Helvetica,sans-Serif" font-size="10.00">+fgkGG</text>
<text text-anchor="middle" x="553.5" y="-178" font-family="Helvetica,sans-Serif" font-size="10.00">+fgkZOffSet</text>
<text text-anchor="middle" x="553.5" y="-167" font-family="Helvetica,sans-Serif" font-size="10.00">...</text>
</g>
</g>
</svg>
        <g id="navigator" transform="translate(0 0)" fill="#404254">
                <rect fill="#f2f5e9" fill-opacity="0.5" stroke="#606060" stroke-width=".5" x="0" y="0" width="60" height="60"/>
                <use id="zoomplus" xlink:href="#zoomPlus" x="17" y="9" onmousedown="handleZoom(evt,'in')"/>
                <use id="zoomminus" xlink:href="#zoomMin" x="42" y="9" onmousedown="handleZoom(evt,'out')"/>
                <use id="reset" xlink:href="#resetDef" x="30" y="36" onmousedown="handleReset()"/>
                <g id="arrowUp" xlink:href="#dirArrow" transform="translate(30 24)" onmousedown="handlePan(0,-1)">
                  <use xlink:href="#rim" fill="#404040">
                        <set attributeName="fill" to="#808080" begin="arrowUp.mouseover" end="arrowUp.mouseout"/>
                  </use>
                  <path fill="none" stroke="white" stroke-width="1.5" d="M0,-3.0v7 M-2.5,-0.5L0,-3.0L2.5,-0.5"/>
                </g>
                <g id="arrowRight" xlink:href="#dirArrow" transform="rotate(90) translate(36 -43)" onmousedown="handlePan(1,0)">
                  <use xlink:href="#rim" fill="#404040">
                        <set attributeName="fill" to="#808080" begin="arrowRight.mouseover" end="arrowRight.mouseout"/>
                  </use>
                  <path fill="none" stroke="white" stroke-width="1.5" d="M0,-3.0v7 M-2.5,-0.5L0,-3.0L2.5,-0.5"/>
                </g>
                <g id="arrowDown" xlink:href="#dirArrow" transform="rotate(180) translate(-30 -48)" onmousedown="handlePan(0,1)">
                  <use xlink:href="#rim" fill="#404040">
                        <set attributeName="fill" to="#808080" begin="arrowDown.mouseover" end="arrowDown.mouseout"/>
                  </use>
                  <path fill="none" stroke="white" stroke-width="1.5" d="M0,-3.0v7 M-2.5,-0.5L0,-3.0L2.5,-0.5"/>
                </g>
                <g id="arrowLeft" xlink:href="#dirArrow" transform="rotate(270) translate(-36 17)" onmousedown="handlePan(-1,0)">
                  <use xlink:href="#rim" fill="#404040">
                        <set attributeName="fill" to="#808080" begin="arrowLeft.mouseover" end="arrowLeft.mouseout"/>
                  </use>
                  <path fill="none" stroke="white" stroke-width="1.5" d="M0,-3.0v7 M-2.5,-0.5L0,-3.0L2.5,-0.5"/>
                </g>
        </g>
        <svg viewBox="0 0 15 15" width="100%" height="30px" preserveAspectRatio="xMaxYMin meet">
         <g id="arrow_out" transform="scale(0.3 0.3)">
          <a xlink:href="classAliTPCPoissonSolver__coll__graph_org.svg" target="_base">
           <rect id="button" ry="5" rx="5" y="6" x="6" height="38" width="38"
                fill="#f2f5e9" fill-opacity="0.5" stroke="#606060" stroke-width="1.0"/>
           <path id="arrow"
             d="M 11.500037,31.436501 C 11.940474,20.09759 22.043105,11.32322 32.158766,21.979434 L 37.068811,17.246167 C 37.068811,17.246167 37.088388,32 37.088388,32 L 22.160133,31.978069 C 22.160133,31.978069 26.997745,27.140456 26.997745,27.140456 C 18.528582,18.264221 13.291696,25.230495 11.500037,31.436501 z"
             style="fill:#404040;"/>
          </a>
         </g>
        </svg>
</svg>
