<?xml version="1.0" encoding="UTF-8" standalone="no"?>
<!DOCTYPE svg PUBLIC "-//W3C//DTD SVG 1.1//EN"
 "http://www.w3.org/Graphics/SVG/1.1/DTD/svg11.dtd">
<!-- Generated by graphviz version 2.38.0 (20140413.2041)
 -->
<!-- Title: /home/travis/build/AliceO2Group/AliceO2/Detectors/MUON/MID/Raw/include/MIDRaw/Decoder.h Pages: 1 -->
<!--zoomable 296 -->
<svg id="main" version="1.1" xmlns="http://www.w3.org/2000/svg" xmlns:xlink="http://www.w3.org/1999/xlink" xml:space="preserve" onload="init(evt)">
<style type="text/css"><![CDATA[
.edge:hover path { stroke: red; }
.edge:hover polygon { stroke: red; fill: red; }
]]></style>
<script type="text/javascript"><![CDATA[
var edges = document.getElementsByTagName('g');
if (edges && edges.length) {
  for (var i=0;i<edges.length;i++) {
    if (edges[i].id.substr(0,4)=='edge') {
      edges[i].setAttribute('class','edge');
    }
  }
}
]]></script>
        <defs>
                <circle id="rim" cx="0" cy="0" r="7"/>
                <circle id="rim2" cx="0" cy="0" r="3.5"/>
                <g id="zoomPlus">
                        <use xlink:href="#rim" fill="#404040">
                                <set attributeName="fill" to="#808080" begin="zoomplus.mouseover" end="zoomplus.mouseout"/>
                        </use>
                        <path d="M-4,0h8M0,-4v8" fill="none" stroke="white" stroke-width="1.5" pointer-events="none"/>
                </g>
                <g id="zoomMin">
                        <use xlink:href="#rim" fill="#404040">
                                <set attributeName="fill" to="#808080" begin="zoomminus.mouseover" end="zoomminus.mouseout"/>
                        </use>
                        <path d="M-4,0h8" fill="none" stroke="white" stroke-width="1.5" pointer-events="none"/>
                </g>
                <g id="dirArrow">
                        <path fill="none" stroke="white" stroke-width="1.5" d="M0,-3.0v7 M-2.5,-0.5L0,-3.0L2.5,-0.5"/>
                </g>
               <g id="resetDef">
                       <use xlink:href="#rim2" fill="#404040">
                               <set attributeName="fill" to="#808080" begin="reset.mouseover" end="reset.mouseout"/>
                       </use>
               </g>
        </defs>

<script type="text/javascript">
var viewWidth = 1352;
var viewHeight = 296;
var sectionId = 'dynsection-0';
</script>
<script xlink:href="../../svgpan.js"/>
<svg id="graph" class="graph">
<g id="viewport">
<title>/home/travis/build/AliceO2Group/AliceO2/Detectors/MUON/MID/Raw/include/MIDRaw/Decoder.h</title>
<!-- Node1 -->
<g id="node1" class="node"><title>Node1</title>
<polygon fill="#bfbfbf" stroke="black" points="724,-235.5 724,-287.5 865,-287.5 865,-235.5 724,-235.5"/>
<text text-anchor="start" x="732" y="-275.5" font-family="Helvetica,sans-Serif" font-size="10.00">/home/travis/build</text>
<text text-anchor="start" x="732" y="-264.5" font-family="Helvetica,sans-Serif" font-size="10.00">/AliceO2Group/AliceO2</text>
<text text-anchor="start" x="732" y="-253.5" font-family="Helvetica,sans-Serif" font-size="10.00">/Detectors/MUON/MID/Raw</text>
<text text-anchor="middle" x="794.5" y="-242.5" font-family="Helvetica,sans-Serif" font-size="10.00">/include/MIDRaw/Decoder.h</text>
</g>
<!-- Node2 -->
<g id="node2" class="node"><title>Node2</title>
<polygon fill="none" stroke="#bfbfbf" points="851.5,-0.5 851.5,-19.5 897.5,-19.5 897.5,-0.5 851.5,-0.5"/>
<text text-anchor="middle" x="874.5" y="-7.5" font-family="Helvetica,sans-Serif" font-size="10.00">cstdint</text>
</g>
<!-- Node1&#45;&gt;Node2 -->
<g id="edge1" class="edge"><title>Node1&#45;&gt;Node2</title>
<path fill="none" stroke="midnightblue" d="M723.725,-254.445C569.183,-239.759 219.632,-197.833 275.5,-123 344.086,-31.1308 725.879,-14.5405 841.387,-11.6125"/>
<polygon fill="midnightblue" stroke="midnightblue" points="841.494,-15.111 851.409,-11.3763 841.329,-8.11299 841.494,-15.111"/>
</g>
<!-- Node3 -->
<g id="node3" class="node"><title>Node3</title>
<polygon fill="none" stroke="#bfbfbf" points="802.5,-62 802.5,-81 846.5,-81 846.5,-62 802.5,-62"/>
<text text-anchor="middle" x="824.5" y="-69" font-family="Helvetica,sans-Serif" font-size="10.00">vector</text>
</g>
<!-- Node1&#45;&gt;Node3 -->
<g id="edge2" class="edge"><title>Node1&#45;&gt;Node3</title>
<path fill="none" stroke="midnightblue" d="M798.546,-235.145C804.667,-196.785 816.14,-124.89 821.543,-91.0317"/>
<polygon fill="midnightblue" stroke="midnightblue" points="825.006,-91.5376 823.126,-81.111 818.094,-90.4345 825.006,-91.5376"/>
</g>
<!-- Node4 -->
<g id="node4" class="node"><title>Node4</title>
<polygon fill="none" stroke="#bfbfbf" points="903,-62 903,-81 948,-81 948,-62 903,-62"/>
<text text-anchor="middle" x="925.5" y="-69" font-family="Helvetica,sans-Serif" font-size="10.00">gsl/gsl</text>
</g>
<!-- Node1&#45;&gt;Node4 -->
<g id="edge3" class="edge"><title>Node1&#45;&gt;Node4</title>
<path fill="none" stroke="midnightblue" d="M865.111,-249.317C919.885,-239.031 989.296,-221.905 1006.5,-199 1016.37,-185.854 1014.51,-148.887 998.5,-123 988.366,-106.609 970.715,-94.182 955.308,-85.7569"/>
<polygon fill="midnightblue" stroke="midnightblue" points="956.587,-82.4796 946.092,-81.0286 953.392,-88.7077 956.587,-82.4796"/>
</g>
<!-- Node5 -->
<g id="node5" class="node"><title>Node5</title>
<g id="a_node5"><a xlink:href="../../d3/d53/ColumnData_8h.html" target="_top" xlink:title="Strip pattern (aka digits) ">
<polygon fill="none" stroke="black" points="458.5,-123.5 458.5,-142.5 616.5,-142.5 616.5,-123.5 458.5,-123.5"/>
<text text-anchor="middle" x="537.5" y="-130.5" font-family="Helvetica,sans-Serif" font-size="10.00">DataFormatsMID/ColumnData.h</text>
</a>
</g>
</g>
<!-- Node1&#45;&gt;Node5 -->
<g id="edge4" class="edge"><title>Node1&#45;&gt;Node5</title>
<path fill="none" stroke="midnightblue" d="M743.418,-235.356C689.367,-208.752 606.181,-167.806 563.994,-147.041"/>
<polygon fill="midnightblue" stroke="midnightblue" points="565.432,-143.848 554.915,-142.572 562.341,-150.128 565.432,-143.848"/>
</g>
<!-- Node8 -->
<g id="node8" class="node"><title>Node8</title>
<g id="a_node8"><a xlink:href="../../d2/df9/MUON_2MID_2include_2DataFormatsMID_2ROFRecord_8h.html" target="_top" xlink:title="Definition of the MID event record. ">
<polygon fill="none" stroke="black" points="284.5,-123.5 284.5,-142.5 440.5,-142.5 440.5,-123.5 284.5,-123.5"/>
<text text-anchor="middle" x="362.5" y="-130.5" font-family="Helvetica,sans-Serif" font-size="10.00">DataFormatsMID/ROFRecord.h</text>
</a>
</g>
</g>
<!-- Node1&#45;&gt;Node8 -->
<g id="edge8" class="edge"><title>Node1&#45;&gt;Node8</title>
<path fill="none" stroke="midnightblue" d="M723.648,-239.753C631.63,-212.808 474.2,-166.708 401.457,-145.407"/>
<polygon fill="midnightblue" stroke="midnightblue" points="402.35,-142.022 391.77,-142.571 400.383,-148.74 402.35,-142.022"/>
</g>
<!-- Node14 -->
<g id="node14" class="node"><title>Node14</title>
<g id="a_node14"><a xlink:href="../../db/d83/CrateMapper_8h.html" target="_top" xlink:title="Mapper to convert the RO Ids to a format suitable for O2. ">
<polygon fill="none" stroke="black" points="1219,-179.5 1219,-198.5 1342,-198.5 1342,-179.5 1219,-179.5"/>
<text text-anchor="middle" x="1280.5" y="-186.5" font-family="Helvetica,sans-Serif" font-size="10.00">MIDRaw/CrateMapper.h</text>
</a>
</g>
</g>
<!-- Node1&#45;&gt;Node14 -->
<g id="edge15" class="edge"><title>Node1&#45;&gt;Node14</title>
<path fill="none" stroke="midnightblue" d="M865.169,-250.249C957.915,-236.795 1119.66,-213.331 1211.55,-200.002"/>
<polygon fill="midnightblue" stroke="midnightblue" points="1212.19,-203.446 1221.58,-198.547 1211.18,-196.519 1212.19,-203.446"/>
</g>
<!-- Node16 -->
<g id="node16" class="node"><title>Node16</title>
<g id="a_node16"><a xlink:href="../../da/d46/CRUUserLogicDecoder_8h.html" target="_top" xlink:title="MID CRU user logic decoder. ">
<polygon fill="none" stroke="black" points="827.5,-179.5 827.5,-198.5 997.5,-198.5 997.5,-179.5 827.5,-179.5"/>
<text text-anchor="middle" x="912.5" y="-186.5" font-family="Helvetica,sans-Serif" font-size="10.00">MIDRaw/CRUUserLogicDecoder.h</text>
</a>
</g>
</g>
<!-- Node1&#45;&gt;Node16 -->
<g id="edge18" class="edge"><title>Node1&#45;&gt;Node16</title>
<path fill="none" stroke="midnightblue" d="M836.435,-235.446C854.318,-224.761 874.491,-212.709 889.566,-203.702"/>
<polygon fill="midnightblue" stroke="midnightblue" points="891.438,-206.661 898.228,-198.527 887.848,-200.651 891.438,-206.661"/>
</g>
<!-- Node17 -->
<g id="node17" class="node"><title>Node17</title>
<g id="a_node17"><a xlink:href="../../d3/d4a/LocalBoardRO_8h.html" target="_top" xlink:title="Structure to store the FEE local board information. ">
<polygon fill="none" stroke="black" points="635,-123.5 635,-142.5 766,-142.5 766,-123.5 635,-123.5"/>
<text text-anchor="middle" x="700.5" y="-130.5" font-family="Helvetica,sans-Serif" font-size="10.00">MIDRaw/LocalBoardRO.h</text>
</a>
</g>
</g>
<!-- Node1&#45;&gt;Node17 -->
<g id="edge36" class="edge"><title>Node1&#45;&gt;Node17</title>
<path fill="none" stroke="midnightblue" d="M775.704,-235.205C757.045,-210.096 728.977,-172.322 712.931,-150.729"/>
<polygon fill="midnightblue" stroke="midnightblue" points="715.627,-148.489 706.853,-142.55 710.008,-152.664 715.627,-148.489"/>
</g>
<!-- Node20 -->
<g id="node20" class="node"><title>Node20</title>
<g id="a_node20"><a xlink:href="../../df/db7/RawUnit_8h.html" target="_top" xlink:title="Raw data format MID. ">
<polygon fill="none" stroke="black" points="1107,-123.5 1107,-142.5 1212,-142.5 1212,-123.5 1107,-123.5"/>
<text text-anchor="middle" x="1159.5" y="-130.5" font-family="Helvetica,sans-Serif" font-size="10.00">MIDRaw/RawUnit.h</text>
</a>
</g>
</g>
<!-- Node1&#45;&gt;Node20 -->
<g id="edge37" class="edge"><title>Node1&#45;&gt;Node20</title>
<path fill="none" stroke="midnightblue" d="M865.097,-257.064C927.971,-251.492 1020.83,-236.939 1092.5,-199 1114.77,-187.21 1134.7,-165.764 1146.92,-150.741"/>
<polygon fill="midnightblue" stroke="midnightblue" points="1149.77,-152.786 1153.19,-142.759 1144.26,-148.465 1149.77,-152.786"/>
</g>
<!-- Node5&#45;&gt;Node2 -->
<g id="edge5" class="edge"><title>Node5&#45;&gt;Node2</title>
<path fill="none" stroke="midnightblue" d="M548.021,-123.455C568.055,-107.63 613.61,-73.7608 657.5,-56 719.609,-30.8668 797.631,-19.1041 841.178,-14.1514"/>
<polygon fill="midnightblue" stroke="midnightblue" points="841.654,-17.6204 851.218,-13.0616 840.899,-10.6612 841.654,-17.6204"/>
</g>
<!-- Node6 -->
<g id="node6" class="node"><title>Node6</title>
<polygon fill="none" stroke="#bfbfbf" points="510.5,-62 510.5,-81 564.5,-81 564.5,-62 510.5,-62"/>
<text text-anchor="middle" x="537.5" y="-69" font-family="Helvetica,sans-Serif" font-size="10.00">iostream</text>
</g>
<!-- Node5&#45;&gt;Node6 -->
<g id="edge6" class="edge"><title>Node5&#45;&gt;Node6</title>
<path fill="none" stroke="midnightblue" d="M537.5,-123.475C537.5,-115.08 537.5,-101.981 537.5,-91.1631"/>
<polygon fill="midnightblue" stroke="midnightblue" points="541,-91.0091 537.5,-81.0091 534,-91.0091 541,-91.0091"/>
</g>
<!-- Node7 -->
<g id="node7" class="node"><title>Node7</title>
<polygon fill="none" stroke="#bfbfbf" points="666.5,-62 666.5,-81 704.5,-81 704.5,-62 666.5,-62"/>
<text text-anchor="middle" x="685.5" y="-69" font-family="Helvetica,sans-Serif" font-size="10.00">array</text>
</g>
<!-- Node5&#45;&gt;Node7 -->
<g id="edge7" class="edge"><title>Node5&#45;&gt;Node7</title>
<path fill="none" stroke="midnightblue" d="M558.705,-123.475C584.444,-113.127 627.965,-95.6305 656.717,-84.0714"/>
<polygon fill="midnightblue" stroke="midnightblue" points="658.245,-87.2294 666.218,-80.2519 655.634,-80.7347 658.245,-87.2294"/>
</g>
<!-- Node9 -->
<g id="node9" class="node"><title>Node9</title>
<g id="a_node9"><a xlink:href="../../d9/d80/InteractionRecord_8h.html" target="_top" xlink:title="CommonDataFormat/Interaction\lRecord.h">
<polygon fill="none" stroke="black" points="71,-56.5 71,-86.5 228,-86.5 228,-56.5 71,-56.5"/>
<text text-anchor="start" x="79" y="-74.5" font-family="Helvetica,sans-Serif" font-size="10.00">CommonDataFormat/Interaction</text>
<text text-anchor="middle" x="149.5" y="-63.5" font-family="Helvetica,sans-Serif" font-size="10.00">Record.h</text>
</a>
</g>
</g>
<!-- Node8&#45;&gt;Node9 -->
<g id="edge9" class="edge"><title>Node8&#45;&gt;Node9</title>
<path fill="none" stroke="midnightblue" d="M331.982,-123.475C300.101,-114.569 249.266,-100.369 209.337,-89.2151"/>
<polygon fill="midnightblue" stroke="midnightblue" points="210.273,-85.8425 199.7,-86.523 208.389,-92.5844 210.273,-85.8425"/>
</g>
<!-- Node9&#45;&gt;Node2 -->
<g id="edge13" class="edge"><title>Node9&#45;&gt;Node2</title>
<path fill="none" stroke="midnightblue" d="M228.083,-57.7751C232.956,-57.1327 237.791,-56.5338 242.5,-56 470.879,-30.1115 747.48,-16.5052 841.443,-12.3781"/>
<polygon fill="midnightblue" stroke="midnightblue" points="841.64,-15.8729 851.479,-11.943 841.337,-8.87944 841.64,-15.8729"/>
</g>
<!-- Node10 -->
<g id="node10" class="node"><title>Node10</title>
<polygon fill="none" stroke="#bfbfbf" points="321.5,-0.5 321.5,-19.5 377.5,-19.5 377.5,-0.5 321.5,-0.5"/>
<text text-anchor="middle" x="349.5" y="-7.5" font-family="Helvetica,sans-Serif" font-size="10.00">Rtypes.h</text>
</g>
<!-- Node9&#45;&gt;Node10 -->
<g id="edge10" class="edge"><title>Node9&#45;&gt;Node10</title>
<path fill="none" stroke="midnightblue" d="M196.644,-56.4747C231.809,-46.013 279.212,-31.9106 311.859,-22.1983"/>
<polygon fill="midnightblue" stroke="midnightblue" points="312.9,-25.5402 321.487,-19.3339 310.904,-18.8308 312.9,-25.5402"/>
</g>
<!-- Node11 -->
<g id="node11" class="node"><title>Node11</title>
<polygon fill="none" stroke="#bfbfbf" points="0,-0.5 0,-19.5 45,-19.5 45,-0.5 0,-0.5"/>
<text text-anchor="middle" x="22.5" y="-7.5" font-family="Helvetica,sans-Serif" font-size="10.00">iosfwd</text>
</g>
<!-- Node9&#45;&gt;Node11 -->
<g id="edge11" class="edge"><title>Node9&#45;&gt;Node11</title>
<path fill="none" stroke="midnightblue" d="M119.403,-56.3993C98.3797,-46.55 70.5282,-33.5014 50.0808,-23.9217"/>
<polygon fill="midnightblue" stroke="midnightblue" points="51.52,-20.7309 40.9796,-19.6578 48.5502,-27.0698 51.52,-20.7309"/>
</g>
<!-- Node12 -->
<g id="node12" class="node"><title>Node12</title>
<polygon fill="none" stroke="#bfbfbf" points="63.5,-0.5 63.5,-19.5 107.5,-19.5 107.5,-0.5 63.5,-0.5"/>
<text text-anchor="middle" x="85.5" y="-7.5" font-family="Helvetica,sans-Serif" font-size="10.00">cmath</text>
</g>
<!-- Node9&#45;&gt;Node12 -->
<g id="edge12" class="edge"><title>Node9&#45;&gt;Node12</title>
<path fill="none" stroke="midnightblue" d="M134.333,-56.3993C124.745,-47.4859 112.339,-35.9523 102.431,-26.7408"/>
<polygon fill="midnightblue" stroke="midnightblue" points="104.52,-23.9033 94.8126,-19.6578 99.7533,-29.0301 104.52,-23.9033"/>
</g>
<!-- Node13 -->
<g id="node13" class="node"><title>Node13</title>
<g id="a_node13"><a xlink:href="../../d4/dc6/LHCConstants_8h.html" target="_top" xlink:title="Header to collect LHC related constants. ">
<polygon fill="none" stroke="black" points="125.5,-0.5 125.5,-19.5 303.5,-19.5 303.5,-0.5 125.5,-0.5"/>
<text text-anchor="middle" x="214.5" y="-7.5" font-family="Helvetica,sans-Serif" font-size="10.00">CommonConstants/LHCConstants.h</text>
</a>
</g>
</g>
<!-- Node9&#45;&gt;Node13 -->
<g id="edge14" class="edge"><title>Node9&#45;&gt;Node13</title>
<path fill="none" stroke="midnightblue" d="M164.904,-56.3993C174.739,-47.3967 187.493,-35.7214 197.605,-26.4652"/>
<polygon fill="midnightblue" stroke="midnightblue" points="200.029,-28.9916 205.042,-19.6578 195.302,-23.8282 200.029,-28.9916"/>
</g>
<!-- Node14&#45;&gt;Node2 -->
<g id="edge16" class="edge"><title>Node14&#45;&gt;Node2</title>
<path fill="none" stroke="midnightblue" d="M1282.31,-179.352C1286.7,-155.703 1295.17,-89.5002 1260.5,-56 1235.29,-31.6448 996.672,-17.1786 907.714,-12.5947"/>
<polygon fill="midnightblue" stroke="midnightblue" points="907.796,-9.09447 897.632,-12.0847 907.442,-16.0855 907.796,-9.09447"/>
</g>
<!-- Node15 -->
<g id="node15" class="node"><title>Node15</title>
<polygon fill="none" stroke="#bfbfbf" points="1309,-123.5 1309,-142.5 1344,-142.5 1344,-123.5 1309,-123.5"/>
<text text-anchor="middle" x="1326.5" y="-130.5" font-family="Helvetica,sans-Serif" font-size="10.00">map</text>
</g>
<!-- Node14&#45;&gt;Node15 -->
<g id="edge17" class="edge"><title>Node14&#45;&gt;Node15</title>
<path fill="none" stroke="midnightblue" d="M1288.1,-179.083C1294.73,-171.298 1304.52,-159.801 1312.56,-150.367"/>
<polygon fill="midnightblue" stroke="midnightblue" points="1315.23,-152.633 1319.05,-142.751 1309.9,-148.094 1315.23,-152.633"/>
</g>
<!-- Node16&#45;&gt;Node2 -->
<g id="edge19" class="edge"><title>Node16&#45;&gt;Node2</title>
<path fill="none" stroke="midnightblue" d="M946.684,-179.493C965.493,-172.877 987.243,-161.596 998.5,-143 1003.1,-135.396 1000.96,-131.543 998.5,-123 988.789,-89.2236 982.062,-80.1197 956.5,-56 941.986,-42.3051 922.512,-31.3892 906.184,-23.7397"/>
<polygon fill="midnightblue" stroke="midnightblue" points="907.552,-20.5172 896.995,-19.617 904.686,-26.9039 907.552,-20.5172"/>
</g>
<!-- Node16&#45;&gt;Node3 -->
<g id="edge20" class="edge"><title>Node16&#45;&gt;Node3</title>
<path fill="none" stroke="midnightblue" d="M896.205,-179.48C882.594,-171.629 863.534,-158.814 851.5,-143 839.736,-127.541 832.543,-106.35 828.572,-91.2465"/>
<polygon fill="midnightblue" stroke="midnightblue" points="831.871,-89.9911 826.141,-81.0793 825.063,-91.6191 831.871,-89.9911"/>
</g>
<!-- Node16&#45;&gt;Node4 -->
<g id="edge21" class="edge"><title>Node16&#45;&gt;Node4</title>
<path fill="none" stroke="midnightblue" d="M936.969,-179.438C953.067,-172.378 972.877,-160.626 982.5,-143 994.26,-121.459 970.548,-100.004 950.213,-86.522"/>
<polygon fill="midnightblue" stroke="midnightblue" points="951.865,-83.4273 941.532,-81.0859 948.15,-89.3599 951.865,-83.4273"/>
</g>
<!-- Node16&#45;&gt;Node8 -->
<g id="edge22" class="edge"><title>Node16&#45;&gt;Node8</title>
<path fill="none" stroke="midnightblue" d="M827.15,-179.864C736.505,-171.188 588.719,-156.937 451.066,-143.152"/>
<polygon fill="midnightblue" stroke="midnightblue" points="451.052,-139.633 440.752,-142.118 450.353,-146.598 451.052,-139.633"/>
</g>
<!-- Node16&#45;&gt;Node17 -->
<g id="edge23" class="edge"><title>Node16&#45;&gt;Node17</title>
<path fill="none" stroke="midnightblue" d="M878.908,-179.444C842.313,-170.122 783.662,-155.183 743.674,-144.997"/>
<polygon fill="midnightblue" stroke="midnightblue" points="744.489,-141.593 733.935,-142.516 742.761,-148.377 744.489,-141.593"/>
</g>
<!-- Node18 -->
<g id="node18" class="node"><title>Node18</title>
<g id="a_node18"><a xlink:href="../../db/d21/MUON_2MID_2Raw_2include_2MIDRaw_2RawBuffer_8h.html" target="_top" xlink:title="Handler of the RAW buffer. ">
<polygon fill="none" stroke="black" points="861,-123.5 861,-142.5 974,-142.5 974,-123.5 861,-123.5"/>
<text text-anchor="middle" x="917.5" y="-130.5" font-family="Helvetica,sans-Serif" font-size="10.00">MIDRaw/RawBuffer.h</text>
</a>
</g>
</g>
<!-- Node16&#45;&gt;Node18 -->
<g id="edge26" class="edge"><title>Node16&#45;&gt;Node18</title>
<path fill="none" stroke="midnightblue" d="M913.326,-179.083C913.981,-172.006 914.92,-161.861 915.742,-152.986"/>
<polygon fill="midnightblue" stroke="midnightblue" points="919.253,-153.031 916.69,-142.751 912.283,-152.386 919.253,-153.031"/>
</g>
<!-- Node16&#45;&gt;Node20 -->
<g id="edge32" class="edge"><title>Node16&#45;&gt;Node20</title>
<path fill="none" stroke="midnightblue" d="M951.638,-179.444C994.726,-170.023 1064.06,-154.866 1110.67,-144.675"/>
<polygon fill="midnightblue" stroke="midnightblue" points="1111.52,-148.072 1120.55,-142.516 1110.03,-141.233 1111.52,-148.072"/>
</g>
<!-- Node17&#45;&gt;Node2 -->
<g id="edge24" class="edge"><title>Node17&#45;&gt;Node2</title>
<path fill="none" stroke="midnightblue" d="M709.833,-123.42C726.111,-108.679 761.061,-78.0087 793.5,-56 810.971,-44.1465 831.818,-32.6196 847.986,-24.1998"/>
<polygon fill="midnightblue" stroke="midnightblue" points="849.607,-27.3025 856.905,-19.6225 846.41,-21.0748 849.607,-27.3025"/>
</g>
<!-- Node17&#45;&gt;Node7 -->
<g id="edge25" class="edge"><title>Node17&#45;&gt;Node7</title>
<path fill="none" stroke="midnightblue" d="M698.351,-123.475C696.212,-114.992 692.862,-101.704 690.119,-90.8222"/>
<polygon fill="midnightblue" stroke="midnightblue" points="693.484,-89.8501 687.645,-81.0091 686.696,-91.5613 693.484,-89.8501"/>
</g>
<!-- Node18&#45;&gt;Node2 -->
<g id="edge27" class="edge"><title>Node18&#45;&gt;Node2</title>
<path fill="none" stroke="midnightblue" d="M912.053,-123.339C906.692,-114.494 898.589,-100.221 893.5,-87 886.187,-68.0028 880.931,-45.2408 877.826,-29.6098"/>
<polygon fill="midnightblue" stroke="midnightblue" points="881.239,-28.8224 875.946,-19.6442 874.36,-30.1196 881.239,-28.8224"/>
</g>
<!-- Node18&#45;&gt;Node3 -->
<g id="edge28" class="edge"><title>Node18&#45;&gt;Node3</title>
<path fill="none" stroke="midnightblue" d="M904.175,-123.475C889.12,-113.843 864.384,-98.0175 846.463,-86.5517"/>
<polygon fill="midnightblue" stroke="midnightblue" points="848.11,-83.4501 837.8,-81.0091 844.337,-89.3466 848.11,-83.4501"/>
</g>
<!-- Node18&#45;&gt;Node4 -->
<g id="edge29" class="edge"><title>Node18&#45;&gt;Node4</title>
<path fill="none" stroke="midnightblue" d="M918.646,-123.475C919.775,-115.08 921.536,-101.981 922.991,-91.1631"/>
<polygon fill="midnightblue" stroke="midnightblue" points="926.492,-91.3863 924.356,-81.0091 919.555,-90.4535 926.492,-91.3863"/>
</g>
<!-- Node19 -->
<g id="node19" class="node"><title>Node19</title>
<g id="a_node19"><a xlink:href="../../d4/d78/DataFormats_2Headers_2include_2Headers_2RAWDataHeader_8h.html" target="_top" xlink:title="Headers/RAWDataHeader.h">
<polygon fill="none" stroke="black" points="1005,-62 1005,-81 1146,-81 1146,-62 1005,-62"/>
<text text-anchor="middle" x="1075.5" y="-69" font-family="Helvetica,sans-Serif" font-size="10.00">Headers/RAWDataHeader.h</text>
</a>
</g>
</g>
<!-- Node18&#45;&gt;Node19 -->
<g id="edge30" class="edge"><title>Node18&#45;&gt;Node19</title>
<path fill="none" stroke="midnightblue" d="M940.138,-123.475C967.24,-113.269 1012.81,-96.108 1043.5,-84.5492"/>
<polygon fill="midnightblue" stroke="midnightblue" points="1044.78,-87.8088 1052.9,-81.0091 1042.31,-81.2579 1044.78,-87.8088"/>
</g>
<!-- Node19&#45;&gt;Node2 -->
<g id="edge31" class="edge"><title>Node19&#45;&gt;Node2</title>
<path fill="none" stroke="midnightblue" d="M1046.7,-61.9751C1009.83,-51.0611 946.099,-32.1948 907.369,-20.7298"/>
<polygon fill="midnightblue" stroke="midnightblue" points="908.204,-17.3269 897.622,-17.8445 906.217,-24.039 908.204,-17.3269"/>
</g>
<!-- Node20&#45;&gt;Node2 -->
<g id="edge33" class="edge"><title>Node20&#45;&gt;Node2</title>
<path fill="none" stroke="midnightblue" d="M1161.99,-123.401C1165.92,-107.789 1171.5,-74.675 1154.5,-56 1121.94,-20.2334 974.41,-12.8611 907.58,-11.3663"/>
<polygon fill="midnightblue" stroke="midnightblue" points="907.643,-7.86695 897.577,-11.1734 907.508,-14.8656 907.643,-7.86695"/>
</g>
<!-- Node20&#45;&gt;Node19 -->
<g id="edge35" class="edge"><title>Node20&#45;&gt;Node19</title>
<path fill="none" stroke="midnightblue" d="M1147.46,-123.475C1133.99,-113.931 1111.93,-98.3073 1095.78,-86.8683"/>
<polygon fill="midnightblue" stroke="midnightblue" points="1097.7,-83.9332 1087.51,-81.0091 1093.65,-89.6454 1097.7,-83.9332"/>
</g>
<!-- Node21 -->
<g id="node21" class="node"><title>Node21</title>
<polygon fill="none" stroke="#bfbfbf" points="1203,-62 1203,-81 1252,-81 1252,-62 1203,-62"/>
<text text-anchor="middle" x="1227.5" y="-69" font-family="Helvetica,sans-Serif" font-size="10.00">cstddef</text>
</g>
<!-- Node20&#45;&gt;Node21 -->
<g id="edge34" class="edge"><title>Node20&#45;&gt;Node21</title>
<path fill="none" stroke="midnightblue" d="M1169.24,-123.475C1179.85,-114.197 1197.02,-99.1706 1209.98,-87.831"/>
<polygon fill="midnightblue" stroke="midnightblue" points="1212.55,-90.2282 1217.78,-81.0091 1207.94,-84.9601 1212.55,-90.2282"/>
</g>
</g>
</svg>
        <g id="navigator" transform="translate(0 0)" fill="#404254">
                <rect fill="#f2f5e9" fill-opacity="0.5" stroke="#606060" stroke-width=".5" x="0" y="0" width="60" height="60"/>
                <use id="zoomplus" xlink:href="#zoomPlus" x="17" y="9" onmousedown="handleZoom(evt,'in')"/>
                <use id="zoomminus" xlink:href="#zoomMin" x="42" y="9" onmousedown="handleZoom(evt,'out')"/>
                <use id="reset" xlink:href="#resetDef" x="30" y="36" onmousedown="handleReset()"/>
                <g id="arrowUp" xlink:href="#dirArrow" transform="translate(30 24)" onmousedown="handlePan(0,-1)">
                  <use xlink:href="#rim" fill="#404040">
                        <set attributeName="fill" to="#808080" begin="arrowUp.mouseover" end="arrowUp.mouseout"/>
                  </use>
                  <path fill="none" stroke="white" stroke-width="1.5" d="M0,-3.0v7 M-2.5,-0.5L0,-3.0L2.5,-0.5"/>
                </g>
                <g id="arrowRight" xlink:href="#dirArrow" transform="rotate(90) translate(36 -43)" onmousedown="handlePan(1,0)">
                  <use xlink:href="#rim" fill="#404040">
                        <set attributeName="fill" to="#808080" begin="arrowRight.mouseover" end="arrowRight.mouseout"/>
                  </use>
                  <path fill="none" stroke="white" stroke-width="1.5" d="M0,-3.0v7 M-2.5,-0.5L0,-3.0L2.5,-0.5"/>
                </g>
                <g id="arrowDown" xlink:href="#dirArrow" transform="rotate(180) translate(-30 -48)" onmousedown="handlePan(0,1)">
                  <use xlink:href="#rim" fill="#404040">
                        <set attributeName="fill" to="#808080" begin="arrowDown.mouseover" end="arrowDown.mouseout"/>
                  </use>
                  <path fill="none" stroke="white" stroke-width="1.5" d="M0,-3.0v7 M-2.5,-0.5L0,-3.0L2.5,-0.5"/>
                </g>
                <g id="arrowLeft" xlink:href="#dirArrow" transform="rotate(270) translate(-36 17)" onmousedown="handlePan(-1,0)">
                  <use xlink:href="#rim" fill="#404040">
                        <set attributeName="fill" to="#808080" begin="arrowLeft.mouseover" end="arrowLeft.mouseout"/>
                  </use>
                  <path fill="none" stroke="white" stroke-width="1.5" d="M0,-3.0v7 M-2.5,-0.5L0,-3.0L2.5,-0.5"/>
                </g>
        </g>
        <svg viewBox="0 0 15 15" width="100%" height="30px" preserveAspectRatio="xMaxYMin meet">
         <g id="arrow_out" transform="scale(0.3 0.3)">
          <a xlink:href="MUON_2MID_2Raw_2include_2MIDRaw_2Decoder_8h__incl_org.svg" target="_base">
           <rect id="button" ry="5" rx="5" y="6" x="6" height="38" width="38"
                fill="#f2f5e9" fill-opacity="0.5" stroke="#606060" stroke-width="1.0"/>
           <path id="arrow"
             d="M 11.500037,31.436501 C 11.940474,20.09759 22.043105,11.32322 32.158766,21.979434 L 37.068811,17.246167 C 37.068811,17.246167 37.088388,32 37.088388,32 L 22.160133,31.978069 C 22.160133,31.978069 26.997745,27.140456 26.997745,27.140456 C 18.528582,18.264221 13.291696,25.230495 11.500037,31.436501 z"
             style="fill:#404040;"/>
          </a>
         </g>
        </svg>
</svg>
