<?xml version="1.0" encoding="UTF-8" standalone="no"?>
<!DOCTYPE svg PUBLIC "-//W3C//DTD SVG 1.1//EN"
 "http://www.w3.org/Graphics/SVG/1.1/DTD/svg11.dtd">
<!-- Generated by graphviz version 2.38.0 (20140413.2041)
 -->
<!-- Title: /home/travis/build/AliceO2Group/AliceO2/Detectors/EMCAL/calib/src/CalibDB.cxx Pages: 1 -->
<!--zoomable 240 -->
<svg id="main" version="1.1" xmlns="http://www.w3.org/2000/svg" xmlns:xlink="http://www.w3.org/1999/xlink" xml:space="preserve" onload="init(evt)">
<style type="text/css"><![CDATA[
.edge:hover path { stroke: red; }
.edge:hover polygon { stroke: red; fill: red; }
]]></style>
<script type="text/javascript"><![CDATA[
var edges = document.getElementsByTagName('g');
if (edges && edges.length) {
  for (var i=0;i<edges.length;i++) {
    if (edges[i].id.substr(0,4)=='edge') {
      edges[i].setAttribute('class','edge');
    }
  }
}
]]></script>
        <defs>
                <circle id="rim" cx="0" cy="0" r="7"/>
                <circle id="rim2" cx="0" cy="0" r="3.5"/>
                <g id="zoomPlus">
                        <use xlink:href="#rim" fill="#404040">
                                <set attributeName="fill" to="#808080" begin="zoomplus.mouseover" end="zoomplus.mouseout"/>
                        </use>
                        <path d="M-4,0h8M0,-4v8" fill="none" stroke="white" stroke-width="1.5" pointer-events="none"/>
                </g>
                <g id="zoomMin">
                        <use xlink:href="#rim" fill="#404040">
                                <set attributeName="fill" to="#808080" begin="zoomminus.mouseover" end="zoomminus.mouseout"/>
                        </use>
                        <path d="M-4,0h8" fill="none" stroke="white" stroke-width="1.5" pointer-events="none"/>
                </g>
                <g id="dirArrow">
                        <path fill="none" stroke="white" stroke-width="1.5" d="M0,-3.0v7 M-2.5,-0.5L0,-3.0L2.5,-0.5"/>
                </g>
               <g id="resetDef">
                       <use xlink:href="#rim2" fill="#404040">
                               <set attributeName="fill" to="#808080" begin="reset.mouseover" end="reset.mouseout"/>
                       </use>
               </g>
        </defs>

<script type="text/javascript">
var viewWidth = 1895;
var viewHeight = 240;
var sectionId = 'dynsection-0';
</script>
<script xlink:href="../../svgpan.js"/>
<svg id="graph" class="graph">
<g id="viewport">
<title>/home/travis/build/AliceO2Group/AliceO2/Detectors/EMCAL/calib/src/CalibDB.cxx</title>
<!-- Node1 -->
<g id="node1" class="node"><title>Node1</title>
<polygon fill="#bfbfbf" stroke="black" points="629,-179.5 629,-231.5 752,-231.5 752,-179.5 629,-179.5"/>
<text text-anchor="start" x="637" y="-219.5" font-family="Helvetica,sans-Serif" font-size="10.00">/home/travis/build</text>
<text text-anchor="start" x="637" y="-208.5" font-family="Helvetica,sans-Serif" font-size="10.00">/AliceO2Group/AliceO2</text>
<text text-anchor="start" x="637" y="-197.5" font-family="Helvetica,sans-Serif" font-size="10.00">/Detectors/EMCAL/calib</text>
<text text-anchor="middle" x="690.5" y="-186.5" font-family="Helvetica,sans-Serif" font-size="10.00">/src/CalibDB.cxx</text>
</g>
<!-- Node2 -->
<g id="node2" class="node"><title>Node2</title>
<g id="a_node2"><a xlink:href="../../d2/d65/EMCAL_2calib_2include_2EMCALCalib_2BadChannelMap_8h.html" target="_top" xlink:title="EMCALCalib/BadChannelMap.h">
<polygon fill="none" stroke="black" points="0,-62 0,-81 157,-81 157,-62 0,-62"/>
<text text-anchor="middle" x="78.5" y="-69" font-family="Helvetica,sans-Serif" font-size="10.00">EMCALCalib/BadChannelMap.h</text>
</a>
</g>
</g>
<!-- Node1&#45;&gt;Node2 -->
<g id="edge1" class="edge"><title>Node1&#45;&gt;Node2</title>
<path fill="none" stroke="midnightblue" d="M628.734,-191.178C507.183,-164.961 239.12,-107.144 128.128,-83.2041"/>
<polygon fill="midnightblue" stroke="midnightblue" points="128.715,-79.7502 118.201,-81.063 127.239,-86.5928 128.715,-79.7502"/>
</g>
<!-- Node6 -->
<g id="node6" class="node"><title>Node6</title>
<g id="a_node6"><a xlink:href="../../d9/dd2/TimeCalibrationParams_8h.html" target="_top" xlink:title="EMCALCalib/TimeCalibration\lParams.h">
<polygon fill="none" stroke="black" points="214,-56.5 214,-86.5 359,-86.5 359,-56.5 214,-56.5"/>
<text text-anchor="start" x="222" y="-74.5" font-family="Helvetica,sans-Serif" font-size="10.00">EMCALCalib/TimeCalibration</text>
<text text-anchor="middle" x="286.5" y="-63.5" font-family="Helvetica,sans-Serif" font-size="10.00">Params.h</text>
</a>
</g>
</g>
<!-- Node1&#45;&gt;Node6 -->
<g id="edge5" class="edge"><title>Node1&#45;&gt;Node6</title>
<path fill="none" stroke="midnightblue" d="M628.701,-184.308C549.479,-158.424 413.484,-113.99 339.021,-89.6603"/>
<polygon fill="midnightblue" stroke="midnightblue" points="339.966,-86.2872 329.374,-86.5083 337.792,-92.941 339.966,-86.2872"/>
</g>
<!-- Node8 -->
<g id="node8" class="node"><title>Node8</title>
<g id="a_node8"><a xlink:href="../../dc/dc3/TempCalibrationParams_8h.html" target="_top" xlink:title="EMCALCalib/TempCalibration\lParams.h">
<polygon fill="none" stroke="black" points="377.5,-56.5 377.5,-86.5 525.5,-86.5 525.5,-56.5 377.5,-56.5"/>
<text text-anchor="start" x="385.5" y="-74.5" font-family="Helvetica,sans-Serif" font-size="10.00">EMCALCalib/TempCalibration</text>
<text text-anchor="middle" x="451.5" y="-63.5" font-family="Helvetica,sans-Serif" font-size="10.00">Params.h</text>
</a>
</g>
</g>
<!-- Node1&#45;&gt;Node8 -->
<g id="edge9" class="edge"><title>Node1&#45;&gt;Node8</title>
<path fill="none" stroke="midnightblue" d="M644.983,-179.361C598.647,-153.769 527.844,-114.665 485.961,-91.5331"/>
<polygon fill="midnightblue" stroke="midnightblue" points="487.424,-88.3425 476.978,-86.5716 484.04,-94.4701 487.424,-88.3425"/>
</g>
<!-- Node9 -->
<g id="node9" class="node"><title>Node9</title>
<g id="a_node9"><a xlink:href="../../df/df8/TimeCalibParamL1Phase_8h.html" target="_top" xlink:title="EMCALCalib/TimeCalibParam\lL1Phase.h">
<polygon fill="none" stroke="black" points="544,-56.5 544,-86.5 693,-86.5 693,-56.5 544,-56.5"/>
<text text-anchor="start" x="552" y="-74.5" font-family="Helvetica,sans-Serif" font-size="10.00">EMCALCalib/TimeCalibParam</text>
<text text-anchor="middle" x="618.5" y="-63.5" font-family="Helvetica,sans-Serif" font-size="10.00">L1Phase.h</text>
</a>
</g>
</g>
<!-- Node1&#45;&gt;Node9 -->
<g id="edge13" class="edge"><title>Node1&#45;&gt;Node9</title>
<path fill="none" stroke="midnightblue" d="M676.788,-179.361C663.591,-155.167 643.807,-118.896 631.025,-95.4617"/>
<polygon fill="midnightblue" stroke="midnightblue" points="634.037,-93.6746 626.175,-86.5716 627.891,-97.0266 634.037,-93.6746"/>
</g>
<!-- Node10 -->
<g id="node10" class="node"><title>Node10</title>
<g id="a_node10"><a xlink:href="../../db/dba/TempCalibParamSM_8h.html" target="_top" xlink:title="EMCALCalib/TempCalibParamSM.h">
<polygon fill="none" stroke="black" points="710.5,-62 710.5,-81 886.5,-81 886.5,-62 710.5,-62"/>
<text text-anchor="middle" x="798.5" y="-69" font-family="Helvetica,sans-Serif" font-size="10.00">EMCALCalib/TempCalibParamSM.h</text>
</a>
</g>
</g>
<!-- Node1&#45;&gt;Node10 -->
<g id="edge17" class="edge"><title>Node1&#45;&gt;Node10</title>
<path fill="none" stroke="midnightblue" d="M711.068,-179.361C732.788,-152.815 766.405,-111.728 784.99,-89.012"/>
<polygon fill="midnightblue" stroke="midnightblue" points="787.91,-90.97 791.534,-81.0141 782.493,-86.5373 787.91,-90.97"/>
</g>
<!-- Node11 -->
<g id="node11" class="node"><title>Node11</title>
<g id="a_node11"><a xlink:href="../../dd/dc8/GainCalibrationFactors_8h.html" target="_top" xlink:title="EMCALCalib/GainCalibration\lFactors.h">
<polygon fill="none" stroke="black" points="905,-56.5 905,-86.5 1048,-86.5 1048,-56.5 905,-56.5"/>
<text text-anchor="start" x="913" y="-74.5" font-family="Helvetica,sans-Serif" font-size="10.00">EMCALCalib/GainCalibration</text>
<text text-anchor="middle" x="976.5" y="-63.5" font-family="Helvetica,sans-Serif" font-size="10.00">Factors.h</text>
</a>
</g>
</g>
<!-- Node1&#45;&gt;Node11 -->
<g id="edge21" class="edge"><title>Node1&#45;&gt;Node11</title>
<path fill="none" stroke="midnightblue" d="M744.968,-179.361C800.999,-153.501 886.926,-113.842 936.829,-90.8095"/>
<polygon fill="midnightblue" stroke="midnightblue" points="938.399,-93.9401 946.012,-86.5716 935.465,-87.5844 938.399,-93.9401"/>
</g>
<!-- Node12 -->
<g id="node12" class="node"><title>Node12</title>
<g id="a_node12"><a xlink:href="../../d1/d3e/TriggerDCS_8h.html" target="_top" xlink:title="EMCALCalib/TriggerDCS.h">
<polygon fill="none" stroke="black" points="1164,-123.5 1164,-142.5 1301,-142.5 1301,-123.5 1164,-123.5"/>
<text text-anchor="middle" x="1232.5" y="-130.5" font-family="Helvetica,sans-Serif" font-size="10.00">EMCALCalib/TriggerDCS.h</text>
</a>
</g>
</g>
<!-- Node1&#45;&gt;Node12 -->
<g id="edge25" class="edge"><title>Node1&#45;&gt;Node12</title>
<path fill="none" stroke="midnightblue" d="M752.147,-196.481C852.001,-183.493 1048.81,-157.893 1156.94,-143.828"/>
<polygon fill="midnightblue" stroke="midnightblue" points="1157.66,-147.265 1167.12,-142.504 1156.75,-140.323 1157.66,-147.265"/>
</g>
<!-- Node15 -->
<g id="node15" class="node"><title>Node15</title>
<g id="a_node15"><a xlink:href="../../d3/de9/EMCAL_2calib_2include_2EMCALCalib_2CalibDB_8h.html" target="_top" xlink:title="EMCALCalib/CalibDB.h">
<polygon fill="none" stroke="black" points="1556.5,-123.5 1556.5,-142.5 1678.5,-142.5 1678.5,-123.5 1556.5,-123.5"/>
<text text-anchor="middle" x="1617.5" y="-130.5" font-family="Helvetica,sans-Serif" font-size="10.00">EMCALCalib/CalibDB.h</text>
</a>
</g>
</g>
<!-- Node1&#45;&gt;Node15 -->
<g id="edge37" class="edge"><title>Node1&#45;&gt;Node15</title>
<path fill="none" stroke="midnightblue" d="M752.041,-199.82C917.274,-187.253 1369.99,-152.823 1546.09,-139.431"/>
<polygon fill="midnightblue" stroke="midnightblue" points="1546.58,-142.904 1556.28,-138.656 1546.05,-135.924 1546.58,-142.904"/>
</g>
<!-- Node3 -->
<g id="node3" class="node"><title>Node3</title>
<polygon fill="none" stroke="#bfbfbf" points="596,-0.5 596,-19.5 641,-19.5 641,-0.5 596,-0.5"/>
<text text-anchor="middle" x="618.5" y="-7.5" font-family="Helvetica,sans-Serif" font-size="10.00">iosfwd</text>
</g>
<!-- Node2&#45;&gt;Node3 -->
<g id="edge2" class="edge"><title>Node2&#45;&gt;Node3</title>
<path fill="none" stroke="midnightblue" d="M130.08,-61.9471C143.542,-59.8551 158.047,-57.7246 171.5,-56 325.979,-36.1964 511.425,-19.9084 585.545,-13.7002"/>
<polygon fill="midnightblue" stroke="midnightblue" points="585.981,-17.1761 595.656,-12.8582 585.4,-10.2003 585.981,-17.1761"/>
</g>
<!-- Node4 -->
<g id="node4" class="node"><title>Node4</title>
<polygon fill="none" stroke="#bfbfbf" points="58,-0.5 58,-19.5 99,-19.5 99,-0.5 58,-0.5"/>
<text text-anchor="middle" x="78.5" y="-7.5" font-family="Helvetica,sans-Serif" font-size="10.00">bitset</text>
</g>
<!-- Node2&#45;&gt;Node4 -->
<g id="edge3" class="edge"><title>Node2&#45;&gt;Node4</title>
<path fill="none" stroke="midnightblue" d="M78.5,-61.9751C78.5,-53.5803 78.5,-40.4806 78.5,-29.6631"/>
<polygon fill="midnightblue" stroke="midnightblue" points="82.0001,-29.5091 78.5,-19.5091 75.0001,-29.5091 82.0001,-29.5091"/>
</g>
<!-- Node5 -->
<g id="node5" class="node"><title>Node5</title>
<polygon fill="none" stroke="#bfbfbf" points="892.5,-0.5 892.5,-19.5 948.5,-19.5 948.5,-0.5 892.5,-0.5"/>
<text text-anchor="middle" x="920.5" y="-7.5" font-family="Helvetica,sans-Serif" font-size="10.00">Rtypes.h</text>
</g>
<!-- Node2&#45;&gt;Node5 -->
<g id="edge4" class="edge"><title>Node2&#45;&gt;Node5</title>
<path fill="none" stroke="midnightblue" d="M146.106,-61.9731C164.983,-59.7955 185.522,-57.6161 204.5,-56 492.788,-31.4503 566.485,-47.5684 854.5,-20 863.533,-19.1354 873.23,-17.9552 882.334,-16.7342"/>
<polygon fill="midnightblue" stroke="midnightblue" points="882.87,-20.1934 892.295,-15.3529 881.909,-13.2597 882.87,-20.1934"/>
</g>
<!-- Node6&#45;&gt;Node3 -->
<g id="edge6" class="edge"><title>Node6&#45;&gt;Node3</title>
<path fill="none" stroke="midnightblue" d="M359.359,-57.4425C429.896,-44.801 533.608,-26.2141 585.86,-16.8496"/>
<polygon fill="midnightblue" stroke="midnightblue" points="586.674,-20.2596 595.9,-15.0504 585.439,-13.3694 586.674,-20.2596"/>
</g>
<!-- Node6&#45;&gt;Node5 -->
<g id="edge8" class="edge"><title>Node6&#45;&gt;Node5</title>
<path fill="none" stroke="midnightblue" d="M359.32,-57.2296C362.418,-56.7896 365.488,-56.3769 368.5,-56 583.416,-29.1083 639.095,-42.6429 854.5,-20 863.525,-19.0513 873.218,-17.8387 882.322,-16.6129"/>
<polygon fill="midnightblue" stroke="midnightblue" points="882.856,-20.0725 892.283,-15.2369 881.898,-13.1383 882.856,-20.0725"/>
</g>
<!-- Node7 -->
<g id="node7" class="node"><title>Node7</title>
<polygon fill="none" stroke="#bfbfbf" points="807.5,-0.5 807.5,-19.5 845.5,-19.5 845.5,-0.5 807.5,-0.5"/>
<text text-anchor="middle" x="826.5" y="-7.5" font-family="Helvetica,sans-Serif" font-size="10.00">array</text>
</g>
<!-- Node6&#45;&gt;Node7 -->
<g id="edge7" class="edge"><title>Node6&#45;&gt;Node7</title>
<path fill="none" stroke="midnightblue" d="M359.332,-57.3209C362.426,-56.8559 365.492,-56.4131 368.5,-56 529.618,-33.8731 724.075,-18.4836 796.992,-13.1063"/>
<polygon fill="midnightblue" stroke="midnightblue" points="797.521,-16.5771 807.24,-12.3578 797.011,-9.5957 797.521,-16.5771"/>
</g>
<!-- Node8&#45;&gt;Node3 -->
<g id="edge10" class="edge"><title>Node8&#45;&gt;Node3</title>
<path fill="none" stroke="midnightblue" d="M491.077,-56.3993C520.112,-46.0543 559.053,-32.1801 586.215,-22.5028"/>
<polygon fill="midnightblue" stroke="midnightblue" points="587.403,-25.7949 595.649,-19.1417 585.054,-19.201 587.403,-25.7949"/>
</g>
<!-- Node8&#45;&gt;Node5 -->
<g id="edge12" class="edge"><title>Node8&#45;&gt;Node5</title>
<path fill="none" stroke="midnightblue" d="M525.676,-57.3109C528.654,-56.8545 531.604,-56.4155 534.5,-56 676.169,-35.6757 712.476,-37.6699 854.5,-20 863.505,-18.8796 873.191,-17.6005 882.293,-16.3652"/>
<polygon fill="midnightblue" stroke="midnightblue" points="882.824,-19.8254 892.256,-15 881.873,-12.8902 882.824,-19.8254"/>
</g>
<!-- Node8&#45;&gt;Node7 -->
<g id="edge11" class="edge"><title>Node8&#45;&gt;Node7</title>
<path fill="none" stroke="midnightblue" d="M525.699,-57.4616C528.671,-56.9635 531.613,-56.4746 534.5,-56 630.623,-40.1986 744.83,-23.076 797.388,-15.2889"/>
<polygon fill="midnightblue" stroke="midnightblue" points="797.967,-18.7415 807.347,-13.8159 796.942,-11.8169 797.967,-18.7415"/>
</g>
<!-- Node9&#45;&gt;Node3 -->
<g id="edge14" class="edge"><title>Node9&#45;&gt;Node3</title>
<path fill="none" stroke="midnightblue" d="M618.5,-56.3993C618.5,-48.4664 618.5,-38.458 618.5,-29.8583"/>
<polygon fill="midnightblue" stroke="midnightblue" points="622,-29.6577 618.5,-19.6578 615,-29.6578 622,-29.6577"/>
</g>
<!-- Node9&#45;&gt;Node5 -->
<g id="edge16" class="edge"><title>Node9&#45;&gt;Node5</title>
<path fill="none" stroke="midnightblue" d="M689.687,-56.4747C749.961,-44.5996 834.044,-28.0336 882.321,-18.522"/>
<polygon fill="midnightblue" stroke="midnightblue" points="883.212,-21.9139 892.347,-16.5468 881.859,-15.0459 883.212,-21.9139"/>
</g>
<!-- Node9&#45;&gt;Node7 -->
<g id="edge15" class="edge"><title>Node9&#45;&gt;Node7</title>
<path fill="none" stroke="midnightblue" d="M667.53,-56.4747C708.02,-44.8921 764.111,-28.8469 797.703,-19.2375"/>
<polygon fill="midnightblue" stroke="midnightblue" points="798.712,-22.5893 807.364,-16.474 796.787,-15.8593 798.712,-22.5893"/>
</g>
<!-- Node10&#45;&gt;Node3 -->
<g id="edge18" class="edge"><title>Node10&#45;&gt;Node3</title>
<path fill="none" stroke="midnightblue" d="M772.71,-61.9751C740.593,-51.3587 685.713,-33.2178 650.821,-21.6839"/>
<polygon fill="midnightblue" stroke="midnightblue" points="651.707,-18.2904 641.113,-18.475 649.51,-24.9367 651.707,-18.2904"/>
</g>
<!-- Node10&#45;&gt;Node5 -->
<g id="edge20" class="edge"><title>Node10&#45;&gt;Node5</title>
<path fill="none" stroke="midnightblue" d="M815.98,-61.9751C836.363,-52.0338 870.275,-35.4947 893.925,-23.961"/>
<polygon fill="midnightblue" stroke="midnightblue" points="895.599,-27.0385 903.053,-19.5091 892.531,-20.7468 895.599,-27.0385"/>
</g>
<!-- Node10&#45;&gt;Node7 -->
<g id="edge19" class="edge"><title>Node10&#45;&gt;Node7</title>
<path fill="none" stroke="midnightblue" d="M802.512,-61.9751C806.587,-53.3152 813.018,-39.6486 818.196,-28.6453"/>
<polygon fill="midnightblue" stroke="midnightblue" points="821.405,-30.0476 822.496,-19.5091 815.071,-27.067 821.405,-30.0476"/>
</g>
<!-- Node11&#45;&gt;Node3 -->
<g id="edge22" class="edge"><title>Node11&#45;&gt;Node3</title>
<path fill="none" stroke="midnightblue" d="M904.957,-57.6286C901.762,-57.074 898.598,-56.5289 895.5,-56 807.212,-40.9272 702.882,-24.2967 651.078,-16.1184"/>
<polygon fill="midnightblue" stroke="midnightblue" points="651.564,-12.652 641.141,-14.5517 650.474,-19.5665 651.564,-12.652"/>
</g>
<!-- Node11&#45;&gt;Node5 -->
<g id="edge24" class="edge"><title>Node11&#45;&gt;Node5</title>
<path fill="none" stroke="midnightblue" d="M963.229,-56.3993C954.924,-47.575 944.201,-36.1827 935.576,-27.0178"/>
<polygon fill="midnightblue" stroke="midnightblue" points="938.051,-24.541 928.648,-19.6578 932.953,-29.3386 938.051,-24.541"/>
</g>
<!-- Node11&#45;&gt;Node7 -->
<g id="edge23" class="edge"><title>Node11&#45;&gt;Node7</title>
<path fill="none" stroke="midnightblue" d="M940.952,-56.3993C914.759,-46.0092 879.59,-32.059 855.18,-22.3764"/>
<polygon fill="midnightblue" stroke="midnightblue" points="856.341,-19.0717 845.755,-18.6378 853.76,-25.5785 856.341,-19.0717"/>
</g>
<!-- Node12&#45;&gt;Node3 -->
<g id="edge26" class="edge"><title>Node12&#45;&gt;Node3</title>
<path fill="none" stroke="midnightblue" d="M1163.61,-131.57C938.588,-129.831 237.659,-121.642 204.5,-87 194.973,-77.0469 195.299,-66.2552 204.5,-56 229.866,-27.7274 492.572,-15.5483 585.859,-12.0926"/>
<polygon fill="midnightblue" stroke="midnightblue" points="585.999,-15.5899 595.867,-11.7315 585.747,-8.59449 585.999,-15.5899"/>
</g>
<!-- Node12&#45;&gt;Node5 -->
<g id="edge28" class="edge"><title>Node12&#45;&gt;Node5</title>
<path fill="none" stroke="midnightblue" d="M1301.08,-128.519C1377.89,-122.218 1486.13,-104.652 1441.5,-56 1408.99,-20.5611 1073.39,-12.9589 958.685,-11.3912"/>
<polygon fill="midnightblue" stroke="midnightblue" points="958.649,-7.89055 948.605,-11.2614 958.559,-14.89 958.649,-7.89055"/>
</g>
<!-- Node12&#45;&gt;Node7 -->
<g id="edge27" class="edge"><title>Node12&#45;&gt;Node7</title>
<path fill="none" stroke="midnightblue" d="M1301.15,-124.724C1365.04,-115.375 1445.3,-95.4083 1408.5,-56 1368.59,-13.2644 941.6,-26.566 883.5,-20 874.413,-18.9731 864.559,-17.5342 855.641,-16.1078"/>
<polygon fill="midnightblue" stroke="midnightblue" points="856.14,-12.6429 845.703,-14.4643 854.998,-19.5491 856.14,-12.6429"/>
</g>
<!-- Node13 -->
<g id="node13" class="node"><title>Node13</title>
<g id="a_node13"><a xlink:href="../../d1/d50/TriggerTRUDCS_8h.html" target="_top" xlink:title="EMCALCalib/TriggerTRUDCS.h">
<polygon fill="none" stroke="black" points="1241.5,-62 1241.5,-81 1399.5,-81 1399.5,-62 1241.5,-62"/>
<text text-anchor="middle" x="1320.5" y="-69" font-family="Helvetica,sans-Serif" font-size="10.00">EMCALCalib/TriggerTRUDCS.h</text>
</a>
</g>
</g>
<!-- Node12&#45;&gt;Node13 -->
<g id="edge29" class="edge"><title>Node12&#45;&gt;Node13</title>
<path fill="none" stroke="midnightblue" d="M1245.11,-123.475C1259.22,-113.931 1282.33,-98.3073 1299.25,-86.8683"/>
<polygon fill="midnightblue" stroke="midnightblue" points="1301.59,-89.5098 1307.92,-81.0091 1297.67,-83.7109 1301.59,-89.5098"/>
</g>
<!-- Node14 -->
<g id="node14" class="node"><title>Node14</title>
<g id="a_node14"><a xlink:href="../../d7/d16/TriggerSTUDCS_8h.html" target="_top" xlink:title="EMCALCalib/TriggerSTUDCS.h">
<polygon fill="none" stroke="black" points="1066,-62 1066,-81 1223,-81 1223,-62 1066,-62"/>
<text text-anchor="middle" x="1144.5" y="-69" font-family="Helvetica,sans-Serif" font-size="10.00">EMCALCalib/TriggerSTUDCS.h</text>
</a>
</g>
</g>
<!-- Node12&#45;&gt;Node14 -->
<g id="edge33" class="edge"><title>Node12&#45;&gt;Node14</title>
<path fill="none" stroke="midnightblue" d="M1219.89,-123.475C1205.78,-113.931 1182.67,-98.3073 1165.75,-86.8683"/>
<polygon fill="midnightblue" stroke="midnightblue" points="1167.33,-83.7109 1157.08,-81.0091 1163.41,-89.5098 1167.33,-83.7109"/>
</g>
<!-- Node13&#45;&gt;Node3 -->
<g id="edge30" class="edge"><title>Node13&#45;&gt;Node3</title>
<path fill="none" stroke="midnightblue" d="M1273.57,-61.9632C1260.33,-59.7726 1245.88,-57.589 1232.5,-56 1118.23,-42.426 761.785,-19.8495 651.414,-13.0186"/>
<polygon fill="midnightblue" stroke="midnightblue" points="651.422,-9.51252 641.225,-12.3895 650.99,-16.4992 651.422,-9.51252"/>
</g>
<!-- Node13&#45;&gt;Node5 -->
<g id="edge32" class="edge"><title>Node13&#45;&gt;Node5</title>
<path fill="none" stroke="midnightblue" d="M1269.81,-61.9686C1257.6,-59.9633 1244.59,-57.8675 1232.5,-56 1134.03,-40.7874 1017.81,-24.4518 958.896,-16.2853"/>
<polygon fill="midnightblue" stroke="midnightblue" points="959.306,-12.8087 948.921,-14.9047 958.346,-19.7426 959.306,-12.8087"/>
</g>
<!-- Node13&#45;&gt;Node7 -->
<g id="edge31" class="edge"><title>Node13&#45;&gt;Node7</title>
<path fill="none" stroke="midnightblue" d="M1272.16,-61.9955C1259.3,-59.8796 1245.39,-57.7254 1232.5,-56 1077.94,-35.3146 1038.12,-40.1672 883.5,-20 874.432,-18.8173 864.584,-17.3337 855.664,-15.9143"/>
<polygon fill="midnightblue" stroke="midnightblue" points="856.155,-12.4482 845.723,-14.2992 855.032,-19.3576 856.155,-12.4482"/>
</g>
<!-- Node14&#45;&gt;Node3 -->
<g id="edge34" class="edge"><title>Node14&#45;&gt;Node3</title>
<path fill="none" stroke="midnightblue" d="M1096.72,-61.9801C1084,-59.8643 1070.25,-57.7139 1057.5,-56 906.242,-35.6634 724.57,-19.7287 651.402,-13.6592"/>
<polygon fill="midnightblue" stroke="midnightblue" points="651.665,-10.169 641.411,-12.8359 651.09,-17.1454 651.665,-10.169"/>
</g>
<!-- Node14&#45;&gt;Node5 -->
<g id="edge36" class="edge"><title>Node14&#45;&gt;Node5</title>
<path fill="none" stroke="midnightblue" d="M1112.41,-61.9751C1071.75,-51.1764 1001.79,-32.5927 958.508,-21.0958"/>
<polygon fill="midnightblue" stroke="midnightblue" points="959.205,-17.6596 948.641,-18.475 957.407,-24.425 959.205,-17.6596"/>
</g>
<!-- Node14&#45;&gt;Node7 -->
<g id="edge35" class="edge"><title>Node14&#45;&gt;Node7</title>
<path fill="none" stroke="midnightblue" d="M1098.94,-61.9751C1032.47,-49.5377 910.801,-26.7733 855.379,-16.4034"/>
<polygon fill="midnightblue" stroke="midnightblue" points="855.994,-12.9579 845.521,-14.559 854.707,-19.8385 855.994,-12.9579"/>
</g>
<!-- Node15&#45;&gt;Node5 -->
<g id="edge41" class="edge"><title>Node15&#45;&gt;Node5</title>
<path fill="none" stroke="midnightblue" d="M1597.37,-123.472C1577.03,-114.73 1544.79,-100.536 1517.5,-87 1491.67,-74.1851 1488.13,-64.2635 1460.5,-56 1366.3,-27.824 1065.88,-15.6581 958.837,-12.1429"/>
<polygon fill="midnightblue" stroke="midnightblue" points="958.909,-8.64344 948.801,-11.8202 958.684,-15.6398 958.909,-8.64344"/>
</g>
<!-- Node16 -->
<g id="node16" class="node"><title>Node16</title>
<polygon fill="none" stroke="#bfbfbf" points="1782,-62 1782,-81 1841,-81 1841,-62 1782,-62"/>
<text text-anchor="middle" x="1811.5" y="-69" font-family="Helvetica,sans-Serif" font-size="10.00">exception</text>
</g>
<!-- Node15&#45;&gt;Node16 -->
<g id="edge38" class="edge"><title>Node15&#45;&gt;Node16</title>
<path fill="none" stroke="midnightblue" d="M1649.47,-123.456C1680.96,-114.868 1730.33,-100.94 1772.5,-87 1774.9,-86.2065 1777.37,-85.3589 1779.85,-84.4869"/>
<polygon fill="midnightblue" stroke="midnightblue" points="1781.11,-87.7548 1789.33,-81.0651 1778.73,-81.1713 1781.11,-87.7548"/>
</g>
<!-- Node17 -->
<g id="node17" class="node"><title>Node17</title>
<polygon fill="none" stroke="#bfbfbf" points="1852,-0.5 1852,-19.5 1887,-19.5 1887,-0.5 1852,-0.5"/>
<text text-anchor="middle" x="1869.5" y="-7.5" font-family="Helvetica,sans-Serif" font-size="10.00">map</text>
</g>
<!-- Node15&#45;&gt;Node17 -->
<g id="edge39" class="edge"><title>Node15&#45;&gt;Node17</title>
<path fill="none" stroke="midnightblue" d="M1678.59,-127.563C1739.13,-121.91 1826.23,-109.984 1850.5,-87 1866.05,-72.2691 1869.66,-46.8971 1870.13,-29.5534"/>
<polygon fill="midnightblue" stroke="midnightblue" points="1873.63,-29.4914 1870.09,-19.5079 1866.63,-29.5243 1873.63,-29.4914"/>
</g>
<!-- Node18 -->
<g id="node18" class="node"><title>Node18</title>
<polygon fill="none" stroke="#bfbfbf" points="1406,-0.5 1406,-19.5 1447,-19.5 1447,-0.5 1406,-0.5"/>
<text text-anchor="middle" x="1426.5" y="-7.5" font-family="Helvetica,sans-Serif" font-size="10.00">string</text>
</g>
<!-- Node15&#45;&gt;Node18 -->
<g id="edge40" class="edge"><title>Node15&#45;&gt;Node18</title>
<path fill="none" stroke="midnightblue" d="M1606.59,-123.287C1584.63,-105.824 1535.67,-67.2527 1517.5,-56 1497.69,-43.7279 1474.06,-32.1272 1455.85,-23.7787"/>
<polygon fill="midnightblue" stroke="midnightblue" points="1457.16,-20.5314 1446.61,-19.6076 1454.28,-26.9116 1457.16,-20.5314"/>
</g>
<!-- Node19 -->
<g id="node19" class="node"><title>Node19</title>
<polygon fill="none" stroke="#bfbfbf" points="1683.5,-62 1683.5,-81 1763.5,-81 1763.5,-62 1683.5,-62"/>
<text text-anchor="middle" x="1723.5" y="-69" font-family="Helvetica,sans-Serif" font-size="10.00">RStringView.h</text>
</g>
<!-- Node15&#45;&gt;Node19 -->
<g id="edge42" class="edge"><title>Node15&#45;&gt;Node19</title>
<path fill="none" stroke="midnightblue" d="M1632.69,-123.475C1650.16,-113.666 1679.08,-97.4346 1699.58,-85.925"/>
<polygon fill="midnightblue" stroke="midnightblue" points="1701.33,-88.956 1708.34,-81.0091 1697.91,-82.8519 1701.33,-88.956"/>
</g>
<!-- Node20 -->
<g id="node20" class="node"><title>Node20</title>
<g id="a_node20"><a xlink:href="../../dd/d3e/CcdbApi_8h.html" target="_top" xlink:title="CCDB/CcdbApi.h">
<polygon fill="none" stroke="black" points="1570,-62 1570,-81 1665,-81 1665,-62 1570,-62"/>
<text text-anchor="middle" x="1617.5" y="-69" font-family="Helvetica,sans-Serif" font-size="10.00">CCDB/CcdbApi.h</text>
</a>
</g>
</g>
<!-- Node15&#45;&gt;Node20 -->
<g id="edge43" class="edge"><title>Node15&#45;&gt;Node20</title>
<path fill="none" stroke="midnightblue" d="M1617.5,-123.475C1617.5,-115.08 1617.5,-101.981 1617.5,-91.1631"/>
<polygon fill="midnightblue" stroke="midnightblue" points="1621,-91.0091 1617.5,-81.0091 1614,-91.0091 1621,-91.0091"/>
</g>
<!-- Node20&#45;&gt;Node17 -->
<g id="edge47" class="edge"><title>Node20&#45;&gt;Node17</title>
<path fill="none" stroke="midnightblue" d="M1650.3,-61.9288C1658.21,-59.9249 1666.65,-57.8398 1674.5,-56 1745.8,-39.2983 1767.1,-40.0117 1841.96,-19.8882"/>
<polygon fill="midnightblue" stroke="midnightblue" points="1843.14,-23.1946 1851.87,-17.1888 1841.3,-16.4409 1843.14,-23.1946"/>
</g>
<!-- Node20&#45;&gt;Node18 -->
<g id="edge44" class="edge"><title>Node20&#45;&gt;Node18</title>
<path fill="none" stroke="midnightblue" d="M1590.13,-61.9751C1554.78,-50.9606 1493.42,-31.8469 1456.72,-20.4152"/>
<polygon fill="midnightblue" stroke="midnightblue" points="1457.66,-17.0404 1447.07,-17.4077 1455.58,-23.7236 1457.66,-17.0404"/>
</g>
<!-- Node21 -->
<g id="node21" class="node"><title>Node21</title>
<polygon fill="none" stroke="#bfbfbf" points="1781.5,-0.5 1781.5,-19.5 1833.5,-19.5 1833.5,-0.5 1781.5,-0.5"/>
<text text-anchor="middle" x="1807.5" y="-7.5" font-family="Helvetica,sans-Serif" font-size="10.00">memory</text>
</g>
<!-- Node20&#45;&gt;Node21 -->
<g id="edge45" class="edge"><title>Node20&#45;&gt;Node21</title>
<path fill="none" stroke="midnightblue" d="M1644.72,-61.9751C1678.02,-51.5481 1734.49,-33.8627 1771.39,-22.3074"/>
<polygon fill="midnightblue" stroke="midnightblue" points="1772.75,-25.5506 1781.24,-19.222 1770.66,-18.8704 1772.75,-25.5506"/>
</g>
<!-- Node22 -->
<g id="node22" class="node"><title>Node22</title>
<polygon fill="none" stroke="#bfbfbf" points="1465.5,-0.5 1465.5,-19.5 1519.5,-19.5 1519.5,-0.5 1465.5,-0.5"/>
<text text-anchor="middle" x="1492.5" y="-7.5" font-family="Helvetica,sans-Serif" font-size="10.00">iostream</text>
</g>
<!-- Node20&#45;&gt;Node22 -->
<g id="edge46" class="edge"><title>Node20&#45;&gt;Node22</title>
<path fill="none" stroke="midnightblue" d="M1599.59,-61.9751C1578.61,-51.9897 1543.65,-35.3476 1519.41,-23.8075"/>
<polygon fill="midnightblue" stroke="midnightblue" points="1520.91,-20.6468 1510.38,-19.5091 1517.9,-26.9673 1520.91,-20.6468"/>
</g>
<!-- Node23 -->
<g id="node23" class="node"><title>Node23</title>
<polygon fill="none" stroke="#bfbfbf" points="1538,-0.5 1538,-19.5 1597,-19.5 1597,-0.5 1538,-0.5"/>
<text text-anchor="middle" x="1567.5" y="-7.5" font-family="Helvetica,sans-Serif" font-size="10.00">curl/curl.h</text>
</g>
<!-- Node20&#45;&gt;Node23 -->
<g id="edge48" class="edge"><title>Node20&#45;&gt;Node23</title>
<path fill="none" stroke="midnightblue" d="M1610.34,-61.9751C1602.76,-52.9617 1590.63,-38.5246 1581.21,-27.3118"/>
<polygon fill="midnightblue" stroke="midnightblue" points="1583.76,-24.9132 1574.65,-19.5091 1578.4,-29.4166 1583.76,-24.9132"/>
</g>
<!-- Node24 -->
<g id="node24" class="node"><title>Node24</title>
<polygon fill="none" stroke="#bfbfbf" points="1615,-0.5 1615,-19.5 1674,-19.5 1674,-0.5 1615,-0.5"/>
<text text-anchor="middle" x="1644.5" y="-7.5" font-family="Helvetica,sans-Serif" font-size="10.00">TObject.h</text>
</g>
<!-- Node20&#45;&gt;Node24 -->
<g id="edge49" class="edge"><title>Node20&#45;&gt;Node24</title>
<path fill="none" stroke="midnightblue" d="M1621.37,-61.9751C1625.3,-53.3152 1631.5,-39.6486 1636.49,-28.6453"/>
<polygon fill="midnightblue" stroke="midnightblue" points="1639.69,-30.0617 1640.64,-19.5091 1633.32,-27.1691 1639.69,-30.0617"/>
</g>
<!-- Node25 -->
<g id="node25" class="node"><title>Node25</title>
<polygon fill="none" stroke="#bfbfbf" points="1692,-0.5 1692,-19.5 1763,-19.5 1763,-0.5 1692,-0.5"/>
<text text-anchor="middle" x="1727.5" y="-7.5" font-family="Helvetica,sans-Serif" font-size="10.00">TMessage.h</text>
</g>
<!-- Node20&#45;&gt;Node25 -->
<g id="edge50" class="edge"><title>Node20&#45;&gt;Node25</title>
<path fill="none" stroke="midnightblue" d="M1633.26,-61.9751C1651.48,-52.1222 1681.67,-35.7883 1702.97,-24.2697"/>
<polygon fill="midnightblue" stroke="midnightblue" points="1704.64,-27.3453 1711.77,-19.5091 1701.31,-21.1883 1704.64,-27.3453"/>
</g>
</g>
</svg>
        <g id="navigator" transform="translate(0 0)" fill="#404254">
                <rect fill="#f2f5e9" fill-opacity="0.5" stroke="#606060" stroke-width=".5" x="0" y="0" width="60" height="60"/>
                <use id="zoomplus" xlink:href="#zoomPlus" x="17" y="9" onmousedown="handleZoom(evt,'in')"/>
                <use id="zoomminus" xlink:href="#zoomMin" x="42" y="9" onmousedown="handleZoom(evt,'out')"/>
                <use id="reset" xlink:href="#resetDef" x="30" y="36" onmousedown="handleReset()"/>
                <g id="arrowUp" xlink:href="#dirArrow" transform="translate(30 24)" onmousedown="handlePan(0,-1)">
                  <use xlink:href="#rim" fill="#404040">
                        <set attributeName="fill" to="#808080" begin="arrowUp.mouseover" end="arrowUp.mouseout"/>
                  </use>
                  <path fill="none" stroke="white" stroke-width="1.5" d="M0,-3.0v7 M-2.5,-0.5L0,-3.0L2.5,-0.5"/>
                </g>
                <g id="arrowRight" xlink:href="#dirArrow" transform="rotate(90) translate(36 -43)" onmousedown="handlePan(1,0)">
                  <use xlink:href="#rim" fill="#404040">
                        <set attributeName="fill" to="#808080" begin="arrowRight.mouseover" end="arrowRight.mouseout"/>
                  </use>
                  <path fill="none" stroke="white" stroke-width="1.5" d="M0,-3.0v7 M-2.5,-0.5L0,-3.0L2.5,-0.5"/>
                </g>
                <g id="arrowDown" xlink:href="#dirArrow" transform="rotate(180) translate(-30 -48)" onmousedown="handlePan(0,1)">
                  <use xlink:href="#rim" fill="#404040">
                        <set attributeName="fill" to="#808080" begin="arrowDown.mouseover" end="arrowDown.mouseout"/>
                  </use>
                  <path fill="none" stroke="white" stroke-width="1.5" d="M0,-3.0v7 M-2.5,-0.5L0,-3.0L2.5,-0.5"/>
                </g>
                <g id="arrowLeft" xlink:href="#dirArrow" transform="rotate(270) translate(-36 17)" onmousedown="handlePan(-1,0)">
                  <use xlink:href="#rim" fill="#404040">
                        <set attributeName="fill" to="#808080" begin="arrowLeft.mouseover" end="arrowLeft.mouseout"/>
                  </use>
                  <path fill="none" stroke="white" stroke-width="1.5" d="M0,-3.0v7 M-2.5,-0.5L0,-3.0L2.5,-0.5"/>
                </g>
        </g>
        <svg viewBox="0 0 15 15" width="100%" height="30px" preserveAspectRatio="xMaxYMin meet">
         <g id="arrow_out" transform="scale(0.3 0.3)">
          <a xlink:href="EMCAL_2calib_2src_2CalibDB_8cxx__incl_org.svg" target="_base">
           <rect id="button" ry="5" rx="5" y="6" x="6" height="38" width="38"
                fill="#f2f5e9" fill-opacity="0.5" stroke="#606060" stroke-width="1.0"/>
           <path id="arrow"
             d="M 11.500037,31.436501 C 11.940474,20.09759 22.043105,11.32322 32.158766,21.979434 L 37.068811,17.246167 C 37.068811,17.246167 37.088388,32 37.088388,32 L 22.160133,31.978069 C 22.160133,31.978069 26.997745,27.140456 26.997745,27.140456 C 18.528582,18.264221 13.291696,25.230495 11.500037,31.436501 z"
             style="fill:#404040;"/>
          </a>
         </g>
        </svg>
</svg>
