<?xml version="1.0" encoding="UTF-8" standalone="no"?>
<!DOCTYPE svg PUBLIC "-//W3C//DTD SVG 1.1//EN"
 "http://www.w3.org/Graphics/SVG/1.1/DTD/svg11.dtd">
<!-- Generated by graphviz version 2.38.0 (20140413.2041)
 -->
<!-- Title: o2::itsmft::ClusterReader Pages: 1 -->
<!--zoomable 1085 -->
<svg id="main" version="1.1" xmlns="http://www.w3.org/2000/svg" xmlns:xlink="http://www.w3.org/1999/xlink" xml:space="preserve" onload="init(evt)">
<style type="text/css"><![CDATA[
.edge:hover path { stroke: red; }
.edge:hover polygon { stroke: red; fill: red; }
]]></style>
<script type="text/javascript"><![CDATA[
var edges = document.getElementsByTagName('g');
if (edges && edges.length) {
  for (var i=0;i<edges.length;i++) {
    if (edges[i].id.substr(0,4)=='edge') {
      edges[i].setAttribute('class','edge');
    }
  }
}
]]></script>
        <defs>
                <circle id="rim" cx="0" cy="0" r="7"/>
                <circle id="rim2" cx="0" cy="0" r="3.5"/>
                <g id="zoomPlus">
                        <use xlink:href="#rim" fill="#404040">
                                <set attributeName="fill" to="#808080" begin="zoomplus.mouseover" end="zoomplus.mouseout"/>
                        </use>
                        <path d="M-4,0h8M0,-4v8" fill="none" stroke="white" stroke-width="1.5" pointer-events="none"/>
                </g>
                <g id="zoomMin">
                        <use xlink:href="#rim" fill="#404040">
                                <set attributeName="fill" to="#808080" begin="zoomminus.mouseover" end="zoomminus.mouseout"/>
                        </use>
                        <path d="M-4,0h8" fill="none" stroke="white" stroke-width="1.5" pointer-events="none"/>
                </g>
                <g id="dirArrow">
                        <path fill="none" stroke="white" stroke-width="1.5" d="M0,-3.0v7 M-2.5,-0.5L0,-3.0L2.5,-0.5"/>
                </g>
               <g id="resetDef">
                       <use xlink:href="#rim2" fill="#404040">
                               <set attributeName="fill" to="#808080" begin="reset.mouseover" end="reset.mouseout"/>
                       </use>
               </g>
        </defs>

<script type="text/javascript">
var viewWidth = 1555;
var viewHeight = 1085;
var sectionId = 'dynsection-1';
</script>
<script xlink:href="../../svgpan.js"/>
<svg id="graph" class="graph">
<g id="viewport">
<title>o2::itsmft::ClusterReader</title>
<!-- Node1 -->
<g id="node1" class="node"><title>Node1</title>
<polygon fill="#bfbfbf" stroke="black" points="727,-0.5 727,-112.5 854,-112.5 854,-0.5 727,-0.5"/>
<text text-anchor="middle" x="790.5" y="-100.5" font-family="Helvetica,sans-Serif" font-size="10.00">o2::itsmft::ClusterReader</text>
<polyline fill="none" stroke="black" points="727,-93.5 854,-93.5 "/>
<text text-anchor="middle" x="790.5" y="-81.5" font-family="Helvetica,sans-Serif" font-size="10.00"> </text>
<polyline fill="none" stroke="black" points="727,-74.5 854,-74.5 "/>
<text text-anchor="start" x="735" y="-62.5" font-family="Helvetica,sans-Serif" font-size="10.00">+ ClusterReader()</text>
<text text-anchor="start" x="735" y="-51.5" font-family="Helvetica,sans-Serif" font-size="10.00">+ ClusterReader()</text>
<text text-anchor="start" x="735" y="-40.5" font-family="Helvetica,sans-Serif" font-size="10.00">+ ~ClusterReader()</text>
<text text-anchor="start" x="735" y="-29.5" font-family="Helvetica,sans-Serif" font-size="10.00">+ init()</text>
<text text-anchor="start" x="735" y="-18.5" font-family="Helvetica,sans-Serif" font-size="10.00">+ run()</text>
<text text-anchor="start" x="735" y="-7.5" font-family="Helvetica,sans-Serif" font-size="10.00"># accumulate()</text>
</g>
<!-- Node2 -->
<g id="node2" class="node"><title>Node2</title>
<g id="a_node2"><a xlink:href="../../de/dac/classo2_1_1framework_1_1Task.html" target="_top" xlink:title="{o2::framework::Task\n||+ ~Task()\l+ init()\l+ run()\l+ endOfStream()\l}">
<polygon fill="none" stroke="black" points="0,-353 0,-443 107,-443 107,-353 0,-353"/>
<text text-anchor="middle" x="53.5" y="-431" font-family="Helvetica,sans-Serif" font-size="10.00">o2::framework::Task</text>
<polyline fill="none" stroke="black" points="0,-424 107,-424 "/>
<text text-anchor="middle" x="53.5" y="-412" font-family="Helvetica,sans-Serif" font-size="10.00"> </text>
<polyline fill="none" stroke="black" points="0,-405 107,-405 "/>
<text text-anchor="start" x="8" y="-393" font-family="Helvetica,sans-Serif" font-size="10.00">+ ~Task()</text>
<text text-anchor="start" x="8" y="-382" font-family="Helvetica,sans-Serif" font-size="10.00">+ init()</text>
<text text-anchor="start" x="8" y="-371" font-family="Helvetica,sans-Serif" font-size="10.00">+ run()</text>
<text text-anchor="start" x="8" y="-360" font-family="Helvetica,sans-Serif" font-size="10.00">+ endOfStream()</text>
</a>
</g>
</g>
<!-- Node2&#45;&gt;Node1 -->
<g id="edge1" class="edge"><title>Node2&#45;&gt;Node1</title>
<path fill="none" stroke="midnightblue" d="M66.8408,-343.362C86.181,-278.808 128.968,-173.764 210.5,-131 299.15,-84.5024 595.525,-66.0227 726.887,-59.9897"/>
<polygon fill="none" stroke="midnightblue" points="63.4786,-342.39 64.0456,-352.969 70.1999,-344.345 63.4786,-342.39"/>
</g>
<!-- Node3 -->
<g id="node3" class="node"><title>Node3</title>
<polygon fill="none" stroke="#bfbfbf" points="124.5,-364 124.5,-432 282.5,-432 282.5,-364 124.5,-364"/>
<text text-anchor="start" x="132.5" y="-420" font-family="Helvetica,sans-Serif" font-size="10.00">vector&lt; o2::itsmft</text>
<text text-anchor="middle" x="203.5" y="-409" font-family="Helvetica,sans-Serif" font-size="10.00">::o2::itsmft::CompClusterExt &gt; *</text>
<polyline fill="none" stroke="#bfbfbf" points="124.5,-402 282.5,-402 "/>
<text text-anchor="middle" x="203.5" y="-390" font-family="Helvetica,sans-Serif" font-size="10.00"> </text>
<polyline fill="none" stroke="#bfbfbf" points="124.5,-383 282.5,-383 "/>
<text text-anchor="middle" x="203.5" y="-371" font-family="Helvetica,sans-Serif" font-size="10.00"> </text>
</g>
<!-- Node3&#45;&gt;Node1 -->
<g id="edge2" class="edge"><title>Node3&#45;&gt;Node1</title>
<path fill="none" stroke="#404040" d="M200.257,-363.862C196.714,-307.05 198.674,-191.359 264.5,-131 328.773,-72.0643 585.22,-60.0944 714.774,-57.8618"/>
<polygon fill="none" stroke="#404040" points="714.906,-57.8599 720.843,-53.7678 726.904,-57.6749 720.967,-61.7669 714.906,-57.8599"/>
<text text-anchor="middle" x="320.5" y="-172.5" font-family="Helvetica,sans-Serif" font-size="10.00"> #mClusterCompArrayInp</text>
</g>
<!-- Node4 -->
<g id="node4" class="node"><title>Node4</title>
<g id="a_node4"><a xlink:href="../../d9/db3/structo2_1_1header_1_1Descriptor.html" target="_top" xlink:title="{o2::header::Descriptor\l\&lt; gSizeDataOriginString,\l printDataOrigin \&gt;\n||+ Descriptor()\l+ Descriptor()\l+ Descriptor()\l+ Descriptor()\l+ operator=()\l+ operator ItgType()\l+ runtimeInit()\l+ operator==()\l+ operator==()\l+ operator\&lt;()\l+ operator!=()\l+ operator!=()\l+ as()\l+ print()\l}">
<polygon fill="none" stroke="black" points="300,-287 300,-509 425,-509 425,-287 300,-287"/>
<text text-anchor="start" x="308" y="-497" font-family="Helvetica,sans-Serif" font-size="10.00">o2::header::Descriptor</text>
<text text-anchor="start" x="308" y="-486" font-family="Helvetica,sans-Serif" font-size="10.00">&lt; gSizeDataOriginString,</text>
<text text-anchor="middle" x="362.5" y="-475" font-family="Helvetica,sans-Serif" font-size="10.00"> printDataOrigin &gt;</text>
<polyline fill="none" stroke="black" points="300,-468 425,-468 "/>
<text text-anchor="middle" x="362.5" y="-456" font-family="Helvetica,sans-Serif" font-size="10.00"> </text>
<polyline fill="none" stroke="black" points="300,-449 425,-449 "/>
<text text-anchor="start" x="308" y="-437" font-family="Helvetica,sans-Serif" font-size="10.00">+ Descriptor()</text>
<text text-anchor="start" x="308" y="-426" font-family="Helvetica,sans-Serif" font-size="10.00">+ Descriptor()</text>
<text text-anchor="start" x="308" y="-415" font-family="Helvetica,sans-Serif" font-size="10.00">+ Descriptor()</text>
<text text-anchor="start" x="308" y="-404" font-family="Helvetica,sans-Serif" font-size="10.00">+ Descriptor()</text>
<text text-anchor="start" x="308" y="-393" font-family="Helvetica,sans-Serif" font-size="10.00">+ operator=()</text>
<text text-anchor="start" x="308" y="-382" font-family="Helvetica,sans-Serif" font-size="10.00">+ operator ItgType()</text>
<text text-anchor="start" x="308" y="-371" font-family="Helvetica,sans-Serif" font-size="10.00">+ runtimeInit()</text>
<text text-anchor="start" x="308" y="-360" font-family="Helvetica,sans-Serif" font-size="10.00">+ operator==()</text>
<text text-anchor="start" x="308" y="-349" font-family="Helvetica,sans-Serif" font-size="10.00">+ operator==()</text>
<text text-anchor="start" x="308" y="-338" font-family="Helvetica,sans-Serif" font-size="10.00">+ operator&lt;()</text>
<text text-anchor="start" x="308" y="-327" font-family="Helvetica,sans-Serif" font-size="10.00">+ operator!=()</text>
<text text-anchor="start" x="308" y="-316" font-family="Helvetica,sans-Serif" font-size="10.00">+ operator!=()</text>
<text text-anchor="start" x="308" y="-305" font-family="Helvetica,sans-Serif" font-size="10.00">+ as()</text>
<text text-anchor="start" x="308" y="-294" font-family="Helvetica,sans-Serif" font-size="10.00">+ print()</text>
</a>
</g>
</g>
<!-- Node4&#45;&gt;Node1 -->
<g id="edge3" class="edge"><title>Node4&#45;&gt;Node1</title>
<path fill="none" stroke="#404040" d="M364.814,-286.929C371.785,-232.856 389.463,-170.912 431.5,-131 471.46,-93.0607 621.712,-72.8122 714.703,-63.6844"/>
<polygon fill="none" stroke="#404040" points="714.921,-63.6636 720.513,-59.1107 726.866,-62.5216 721.274,-67.0744 714.921,-63.6636"/>
<text text-anchor="middle" x="453" y="-172.5" font-family="Helvetica,sans-Serif" font-size="10.00"> #mOrigin</text>
</g>
<!-- Node5 -->
<g id="node5" class="node"><title>Node5</title>
<polygon fill="none" stroke="#bfbfbf" points="323.5,-1019.5 323.5,-1076.5 361.5,-1076.5 361.5,-1019.5 323.5,-1019.5"/>
<text text-anchor="middle" x="342.5" y="-1064.5" font-family="Helvetica,sans-Serif" font-size="10.00">Type</text>
<polyline fill="none" stroke="#bfbfbf" points="323.5,-1057.5 361.5,-1057.5 "/>
<text text-anchor="middle" x="342.5" y="-1045.5" font-family="Helvetica,sans-Serif" font-size="10.00"> </text>
<polyline fill="none" stroke="#bfbfbf" points="323.5,-1038.5 361.5,-1038.5 "/>
<text text-anchor="middle" x="342.5" y="-1026.5" font-family="Helvetica,sans-Serif" font-size="10.00"> </text>
</g>
<!-- Node5&#45;&gt;Node4 -->
<g id="edge4" class="edge"><title>Node5&#45;&gt;Node4</title>
<path fill="none" stroke="#404040" d="M346.595,-1019.32C347.351,-1013.29 348.045,-1006.94 348.5,-1001 361.203,-835.224 363.526,-643.085 363.463,-521.319"/>
<polygon fill="none" stroke="#404040" points="363.463,-521.026 359.456,-515.031 363.449,-509.026 367.456,-515.021 363.463,-521.026"/>
<text text-anchor="middle" x="373.5" y="-786.5" font-family="Helvetica,sans-Serif" font-size="10.00"> +itg</text>
</g>
<!-- Node9 -->
<g id="node9" class="node"><title>Node9</title>
<g id="a_node9"><a xlink:href="../../d9/db3/structo2_1_1header_1_1Descriptor.html" target="_top" xlink:title="{o2::header::Descriptor\l\&lt; N, PrinterPolicy \&gt;\n||+ Descriptor()\l+ Descriptor()\l+ Descriptor()\l+ operator=()\l+ operator ItgType()\l+ Descriptor()\l+ runtimeInit()\l+ operator==()\l+ operator\&lt;()\l+ operator!=()\l+ operator==()\l+ operator!=()\l+ as()\l+ print()\l}">
<polygon fill="none" stroke="black" points="213,-683.5 213,-894.5 326,-894.5 326,-683.5 213,-683.5"/>
<text text-anchor="start" x="221" y="-882.5" font-family="Helvetica,sans-Serif" font-size="10.00">o2::header::Descriptor</text>
<text text-anchor="middle" x="269.5" y="-871.5" font-family="Helvetica,sans-Serif" font-size="10.00">&lt; N, PrinterPolicy &gt;</text>
<polyline fill="none" stroke="black" points="213,-864.5 326,-864.5 "/>
<text text-anchor="middle" x="269.5" y="-852.5" font-family="Helvetica,sans-Serif" font-size="10.00"> </text>
<polyline fill="none" stroke="black" points="213,-845.5 326,-845.5 "/>
<text text-anchor="start" x="221" y="-833.5" font-family="Helvetica,sans-Serif" font-size="10.00">+ Descriptor()</text>
<text text-anchor="start" x="221" y="-822.5" font-family="Helvetica,sans-Serif" font-size="10.00">+ Descriptor()</text>
<text text-anchor="start" x="221" y="-811.5" font-family="Helvetica,sans-Serif" font-size="10.00">+ Descriptor()</text>
<text text-anchor="start" x="221" y="-800.5" font-family="Helvetica,sans-Serif" font-size="10.00">+ operator=()</text>
<text text-anchor="start" x="221" y="-789.5" font-family="Helvetica,sans-Serif" font-size="10.00">+ operator ItgType()</text>
<text text-anchor="start" x="221" y="-778.5" font-family="Helvetica,sans-Serif" font-size="10.00">+ Descriptor()</text>
<text text-anchor="start" x="221" y="-767.5" font-family="Helvetica,sans-Serif" font-size="10.00">+ runtimeInit()</text>
<text text-anchor="start" x="221" y="-756.5" font-family="Helvetica,sans-Serif" font-size="10.00">+ operator==()</text>
<text text-anchor="start" x="221" y="-745.5" font-family="Helvetica,sans-Serif" font-size="10.00">+ operator&lt;()</text>
<text text-anchor="start" x="221" y="-734.5" font-family="Helvetica,sans-Serif" font-size="10.00">+ operator!=()</text>
<text text-anchor="start" x="221" y="-723.5" font-family="Helvetica,sans-Serif" font-size="10.00">+ operator==()</text>
<text text-anchor="start" x="221" y="-712.5" font-family="Helvetica,sans-Serif" font-size="10.00">+ operator!=()</text>
<text text-anchor="start" x="221" y="-701.5" font-family="Helvetica,sans-Serif" font-size="10.00">+ as()</text>
<text text-anchor="start" x="221" y="-690.5" font-family="Helvetica,sans-Serif" font-size="10.00">+ print()</text>
</a>
</g>
</g>
<!-- Node5&#45;&gt;Node9 -->
<g id="edge9" class="edge"><title>Node5&#45;&gt;Node9</title>
<path fill="none" stroke="#404040" d="M333.958,-1019.3C332.131,-1013.28 330.231,-1006.93 328.5,-1001 319.544,-970.323 310.112,-937.055 301.481,-906.202"/>
<polygon fill="none" stroke="#404040" points="301.442,-906.063 295.976,-901.36 298.214,-894.505 303.681,-899.208 301.442,-906.063"/>
<text text-anchor="middle" x="338.5" y="-982" font-family="Helvetica,sans-Serif" font-size="10.00"> +itg</text>
</g>
<!-- Node6 -->
<g id="node6" class="node"><title>Node6</title>
<polygon fill="none" stroke="#bfbfbf" points="396,-1019.5 396,-1076.5 431,-1076.5 431,-1019.5 396,-1019.5"/>
<text text-anchor="middle" x="413.5" y="-1064.5" font-family="Helvetica,sans-Serif" font-size="10.00">char</text>
<polyline fill="none" stroke="#bfbfbf" points="396,-1057.5 431,-1057.5 "/>
<text text-anchor="middle" x="413.5" y="-1045.5" font-family="Helvetica,sans-Serif" font-size="10.00"> </text>
<polyline fill="none" stroke="#bfbfbf" points="396,-1038.5 431,-1038.5 "/>
<text text-anchor="middle" x="413.5" y="-1026.5" font-family="Helvetica,sans-Serif" font-size="10.00"> </text>
</g>
<!-- Node6&#45;&gt;Node4 -->
<g id="edge5" class="edge"><title>Node6&#45;&gt;Node4</title>
<path fill="none" stroke="#404040" d="M412.217,-1019.02C409.027,-951.633 400.082,-775.051 387.5,-628 384.534,-593.335 380.697,-555.786 376.923,-521.316"/>
<polygon fill="none" stroke="#404040" points="376.909,-521.189 372.275,-515.664 375.593,-509.261 380.227,-514.786 376.909,-521.189"/>
<text text-anchor="middle" x="420" y="-786.5" font-family="Helvetica,sans-Serif" font-size="10.00"> +str</text>
</g>
<!-- Node6&#45;&gt;Node9 -->
<g id="edge10" class="edge"><title>Node6&#45;&gt;Node9</title>
<path fill="none" stroke="#404040" d="M395.725,-1024.63C377.09,-1000.95 349.311,-964.99 340.5,-950 332.259,-935.98 324.362,-920.831 317.023,-905.636"/>
<polygon fill="none" stroke="#404040" points="316.922,-905.423 310.738,-901.715 311.782,-894.58 317.967,-898.288 316.922,-905.423"/>
<text text-anchor="middle" x="387" y="-982" font-family="Helvetica,sans-Serif" font-size="10.00"> +str</text>
</g>
<!-- Node7 -->
<g id="node7" class="node"><title>Node7</title>
<polygon fill="none" stroke="#bfbfbf" points="471,-760.5 471,-817.5 500,-817.5 500,-760.5 471,-760.5"/>
<text text-anchor="middle" x="485.5" y="-805.5" font-family="Helvetica,sans-Serif" font-size="10.00">int</text>
<polyline fill="none" stroke="#bfbfbf" points="471,-798.5 500,-798.5 "/>
<text text-anchor="middle" x="485.5" y="-786.5" font-family="Helvetica,sans-Serif" font-size="10.00"> </text>
<polyline fill="none" stroke="#bfbfbf" points="471,-779.5 500,-779.5 "/>
<text text-anchor="middle" x="485.5" y="-767.5" font-family="Helvetica,sans-Serif" font-size="10.00"> </text>
</g>
<!-- Node7&#45;&gt;Node4 -->
<g id="edge6" class="edge"><title>Node7&#45;&gt;Node4</title>
<path fill="none" stroke="#404040" d="M480.798,-760.485C475.278,-728.565 465.703,-674.382 456.5,-628 451.987,-605.255 454.111,-598.53 445.5,-577 442.018,-568.295 438.877,-567.291 434.5,-559 427.945,-546.583 421.417,-533.451 415.118,-520.263"/>
<polygon fill="none" stroke="#404040" points="415.011,-520.037 408.831,-516.32 409.885,-509.187 416.065,-512.903 415.011,-520.037"/>
<text text-anchor="middle" x="480" y="-602" font-family="Helvetica,sans-Serif" font-size="10.00"> +arraySize</text>
<text text-anchor="middle" x="480" y="-591" font-family="Helvetica,sans-Serif" font-size="10.00">+size</text>
<text text-anchor="middle" x="480" y="-580" font-family="Helvetica,sans-Serif" font-size="10.00">+bitcount</text>
</g>
<!-- Node8 -->
<g id="node8" class="node"><title>Node8</title>
<polygon fill="none" stroke="#bfbfbf" points="116,-1019.5 116,-1076.5 213,-1076.5 213,-1019.5 116,-1019.5"/>
<text text-anchor="middle" x="164.5" y="-1064.5" font-family="Helvetica,sans-Serif" font-size="10.00">anonymous:+@24</text>
<polyline fill="none" stroke="#bfbfbf" points="116,-1057.5 213,-1057.5 "/>
<text text-anchor="middle" x="164.5" y="-1045.5" font-family="Helvetica,sans-Serif" font-size="10.00"> </text>
<polyline fill="none" stroke="#bfbfbf" points="116,-1038.5 213,-1038.5 "/>
<text text-anchor="middle" x="164.5" y="-1026.5" font-family="Helvetica,sans-Serif" font-size="10.00"> </text>
</g>
<!-- Node8&#45;&gt;Node4 -->
<g id="edge7" class="edge"><title>Node8&#45;&gt;Node4</title>
<path fill="none" stroke="#404040" d="M158.651,-1019.5C145.318,-950.594 117.864,-766.196 172.5,-628 183.723,-599.613 192.308,-592.676 218.5,-577 247.173,-559.839 265.887,-580.462 291.5,-559 304.34,-548.241 314.942,-534.698 323.674,-520.068"/>
<polygon fill="none" stroke="#404040" points="323.864,-519.727 323.292,-512.539 329.708,-509.247 330.28,-516.435 323.864,-519.727"/>
<text text-anchor="middle" x="188" y="-786.5" font-family="Helvetica,sans-Serif" font-size="10.00"> +@24</text>
</g>
<!-- Node8&#45;&gt;Node9 -->
<g id="edge11" class="edge"><title>Node8&#45;&gt;Node9</title>
<path fill="none" stroke="#404040" d="M175.737,-1019.5C186.931,-992.097 204.886,-948.149 222.103,-906.01"/>
<polygon fill="none" stroke="#404040" points="222.157,-905.878 220.723,-898.811 226.695,-894.769 228.129,-901.836 222.157,-905.878"/>
<text text-anchor="middle" x="212" y="-982" font-family="Helvetica,sans-Serif" font-size="10.00"> +@24</text>
</g>
<!-- Node9&#45;&gt;Node4 -->
<g id="edge8" class="edge"><title>Node9&#45;&gt;Node4</title>
<path fill="none" stroke="orange" d="M221.654,-673.585C215.1,-639.926 216.396,-604.732 236.5,-577 251.596,-556.176 272.415,-576.242 291.5,-559 306.721,-545.248 318.852,-527.625 328.463,-509.128"/>
<polygon fill="orange" stroke="orange" points="218.265,-674.474 223.814,-683.499 225.105,-672.983 218.265,-674.474"/>
<text text-anchor="start" x="236.5" y="-596.5" font-family="Helvetica,sans-Serif" font-size="10.00"> &lt; gSizeDataOriginString,</text>
<text text-anchor="middle" x="292.5" y="-585.5" font-family="Helvetica,sans-Serif" font-size="10.00"> printDataOrigin &gt;</text>
</g>
<!-- Node10 -->
<g id="node10" class="node"><title>Node10</title>
<polygon fill="none" stroke="#bfbfbf" points="233,-1019.5 233,-1076.5 274,-1076.5 274,-1019.5 233,-1019.5"/>
<text text-anchor="middle" x="253.5" y="-1064.5" font-family="Helvetica,sans-Serif" font-size="10.00">static</text>
<polyline fill="none" stroke="#bfbfbf" points="233,-1057.5 274,-1057.5 "/>
<text text-anchor="middle" x="253.5" y="-1045.5" font-family="Helvetica,sans-Serif" font-size="10.00"> </text>
<polyline fill="none" stroke="#bfbfbf" points="233,-1038.5 274,-1038.5 "/>
<text text-anchor="middle" x="253.5" y="-1026.5" font-family="Helvetica,sans-Serif" font-size="10.00"> </text>
</g>
<!-- Node10&#45;&gt;Node9 -->
<g id="edge12" class="edge"><title>Node10&#45;&gt;Node9</title>
<path fill="none" stroke="#404040" d="M253.368,-1019.2C253.417,-1004.05 253.678,-984.988 254.5,-968 255.454,-948.284 256.861,-927.368 258.437,-907.068"/>
<polygon fill="none" stroke="#404040" points="258.456,-906.826 254.946,-900.527 259.41,-894.864 262.92,-901.163 258.456,-906.826"/>
<text text-anchor="middle" x="280" y="-993" font-family="Helvetica,sans-Serif" font-size="10.00"> +arraySize</text>
<text text-anchor="middle" x="280" y="-982" font-family="Helvetica,sans-Serif" font-size="10.00">+size</text>
<text text-anchor="middle" x="280" y="-971" font-family="Helvetica,sans-Serif" font-size="10.00">+bitcount</text>
</g>
<!-- Node11 -->
<g id="node11" class="node"><title>Node11</title>
<polygon fill="none" stroke="#bfbfbf" points="443.5,-364 443.5,-432 595.5,-432 595.5,-364 443.5,-364"/>
<text text-anchor="start" x="451.5" y="-420" font-family="Helvetica,sans-Serif" font-size="10.00">vector&lt; o2::itsmft</text>
<text text-anchor="middle" x="519.5" y="-409" font-family="Helvetica,sans-Serif" font-size="10.00">::o2::itsmft::CompClusterExt &gt;</text>
<polyline fill="none" stroke="#bfbfbf" points="443.5,-402 595.5,-402 "/>
<text text-anchor="middle" x="519.5" y="-390" font-family="Helvetica,sans-Serif" font-size="10.00"> </text>
<polyline fill="none" stroke="#bfbfbf" points="443.5,-383 595.5,-383 "/>
<text text-anchor="middle" x="519.5" y="-371" font-family="Helvetica,sans-Serif" font-size="10.00"> </text>
</g>
<!-- Node11&#45;&gt;Node1 -->
<g id="edge13" class="edge"><title>Node11&#45;&gt;Node1</title>
<path fill="none" stroke="#404040" d="M505.474,-363.906C484.739,-309.198 453.715,-199.185 506.5,-131 531.824,-98.2874 639.377,-77.4941 714.596,-66.6659"/>
<polygon fill="none" stroke="#404040" points="714.954,-66.6158 720.341,-61.8215 726.838,-64.9498 721.452,-69.7441 714.954,-66.6158"/>
<text text-anchor="middle" x="563.5" y="-172.5" font-family="Helvetica,sans-Serif" font-size="10.00"> #mClusterCompArrayOut</text>
</g>
<!-- Node12 -->
<g id="node12" class="node"><title>Node12</title>
<polygon fill="none" stroke="#bfbfbf" points="614,-369.5 614,-426.5 655,-426.5 655,-369.5 614,-369.5"/>
<text text-anchor="middle" x="634.5" y="-414.5" font-family="Helvetica,sans-Serif" font-size="10.00">string</text>
<polyline fill="none" stroke="#bfbfbf" points="614,-407.5 655,-407.5 "/>
<text text-anchor="middle" x="634.5" y="-395.5" font-family="Helvetica,sans-Serif" font-size="10.00"> </text>
<polyline fill="none" stroke="#bfbfbf" points="614,-388.5 655,-388.5 "/>
<text text-anchor="middle" x="634.5" y="-376.5" font-family="Helvetica,sans-Serif" font-size="10.00"> </text>
</g>
<!-- Node12&#45;&gt;Node1 -->
<g id="edge14" class="edge"><title>Node12&#45;&gt;Node1</title>
<path fill="none" stroke="#404040" d="M631.455,-369.072C625.464,-308.983 614.766,-169.734 639.5,-131 656.677,-104.1 686.775,-86.766 715.602,-75.7355"/>
<polygon fill="none" stroke="#404040" points="715.682,-75.7071 719.985,-69.9211 726.982,-71.6684 722.678,-77.4544 715.682,-75.7071"/>
<text text-anchor="middle" x="706" y="-211" font-family="Helvetica,sans-Serif" font-size="10.00"> #mDetName</text>
<text text-anchor="middle" x="706" y="-200" font-family="Helvetica,sans-Serif" font-size="10.00">#mClusROFTreeName</text>
<text text-anchor="middle" x="706" y="-189" font-family="Helvetica,sans-Serif" font-size="10.00">#mClusterBranchName</text>
<text text-anchor="middle" x="706" y="-178" font-family="Helvetica,sans-Serif" font-size="10.00">#mDetNameLC</text>
<text text-anchor="middle" x="706" y="-167" font-family="Helvetica,sans-Serif" font-size="10.00">#mClusTreeName</text>
<text text-anchor="middle" x="706" y="-156" font-family="Helvetica,sans-Serif" font-size="10.00">#mClusterCompBranchName</text>
<text text-anchor="middle" x="706" y="-145" font-family="Helvetica,sans-Serif" font-size="10.00">#mInputFileName</text>
<text text-anchor="middle" x="706" y="-134" font-family="Helvetica,sans-Serif" font-size="10.00">#mClustMCTruthBranchName</text>
</g>
<!-- Node13 -->
<g id="node13" class="node"><title>Node13</title>
<polygon fill="none" stroke="#bfbfbf" points="742,-369.5 742,-426.5 777,-426.5 777,-369.5 742,-369.5"/>
<text text-anchor="middle" x="759.5" y="-414.5" font-family="Helvetica,sans-Serif" font-size="10.00">bool</text>
<polyline fill="none" stroke="#bfbfbf" points="742,-407.5 777,-407.5 "/>
<text text-anchor="middle" x="759.5" y="-395.5" font-family="Helvetica,sans-Serif" font-size="10.00"> </text>
<polyline fill="none" stroke="#bfbfbf" points="742,-388.5 777,-388.5 "/>
<text text-anchor="middle" x="759.5" y="-376.5" font-family="Helvetica,sans-Serif" font-size="10.00"> </text>
</g>
<!-- Node13&#45;&gt;Node1 -->
<g id="edge15" class="edge"><title>Node13&#45;&gt;Node1</title>
<path fill="none" stroke="#404040" d="M762.037,-369.217C766.879,-316.188 777.562,-199.188 784.375,-124.577"/>
<polygon fill="none" stroke="#404040" points="784.384,-124.479 780.946,-118.14 785.475,-112.529 788.913,-118.868 784.384,-124.479"/>
<text text-anchor="middle" x="817.5" y="-189" font-family="Helvetica,sans-Serif" font-size="10.00"> #mUseClFull</text>
<text text-anchor="middle" x="817.5" y="-178" font-family="Helvetica,sans-Serif" font-size="10.00">#mUseMC</text>
<text text-anchor="middle" x="817.5" y="-167" font-family="Helvetica,sans-Serif" font-size="10.00">#mFinished</text>
<text text-anchor="middle" x="817.5" y="-156" font-family="Helvetica,sans-Serif" font-size="10.00">#mUseClComp</text>
</g>
<!-- Node14 -->
<g id="node14" class="node"><title>Node14</title>
<polygon fill="none" stroke="#bfbfbf" points="795.5,-364 795.5,-432 933.5,-432 933.5,-364 795.5,-364"/>
<text text-anchor="start" x="803.5" y="-420" font-family="Helvetica,sans-Serif" font-size="10.00">vector&lt; o2::itsmft</text>
<text text-anchor="middle" x="864.5" y="-409" font-family="Helvetica,sans-Serif" font-size="10.00">::o2::itsmft::ROFRecord &gt; *</text>
<polyline fill="none" stroke="#bfbfbf" points="795.5,-402 933.5,-402 "/>
<text text-anchor="middle" x="864.5" y="-390" font-family="Helvetica,sans-Serif" font-size="10.00"> </text>
<polyline fill="none" stroke="#bfbfbf" points="795.5,-383 933.5,-383 "/>
<text text-anchor="middle" x="864.5" y="-371" font-family="Helvetica,sans-Serif" font-size="10.00"> </text>
</g>
<!-- Node14&#45;&gt;Node1 -->
<g id="edge16" class="edge"><title>Node14&#45;&gt;Node1</title>
<path fill="none" stroke="#404040" d="M870.353,-363.611C877.94,-311.73 886.783,-209.559 855.5,-131 854.437,-128.329 853.231,-125.691 851.906,-123.094"/>
<polygon fill="none" stroke="#404040" points="851.873,-123.037 845.403,-119.855 845.851,-112.657 852.322,-115.84 851.873,-123.037"/>
<text text-anchor="middle" x="920.5" y="-172.5" font-family="Helvetica,sans-Serif" font-size="10.00"> #mClusROFRecInp</text>
</g>
<!-- Node15 -->
<g id="node15" class="node"><title>Node15</title>
<polygon fill="none" stroke="#bfbfbf" points="952,-364 952,-432 1069,-432 1069,-364 952,-364"/>
<text text-anchor="start" x="960" y="-420" font-family="Helvetica,sans-Serif" font-size="10.00">vector&lt; o2::itsmft</text>
<text text-anchor="middle" x="1010.5" y="-409" font-family="Helvetica,sans-Serif" font-size="10.00">::o2::itsmft::Cluster &gt; *</text>
<polyline fill="none" stroke="#bfbfbf" points="952,-402 1069,-402 "/>
<text text-anchor="middle" x="1010.5" y="-390" font-family="Helvetica,sans-Serif" font-size="10.00"> </text>
<polyline fill="none" stroke="#bfbfbf" points="952,-383 1069,-383 "/>
<text text-anchor="middle" x="1010.5" y="-371" font-family="Helvetica,sans-Serif" font-size="10.00"> </text>
</g>
<!-- Node15&#45;&gt;Node1 -->
<g id="edge17" class="edge"><title>Node15&#45;&gt;Node1</title>
<path fill="none" stroke="#404040" d="M1015,-363.968C1020.53,-309.35 1023.41,-199.464 969.5,-131 944.276,-98.9678 902.737,-80.788 866.022,-70.5255"/>
<polygon fill="none" stroke="#404040" points="865.909,-70.496 859.093,-72.8504 854.298,-67.4643 861.114,-65.1099 865.909,-70.496"/>
<text text-anchor="middle" x="1051" y="-172.5" font-family="Helvetica,sans-Serif" font-size="10.00"> #mClusterArrayInp</text>
</g>
<!-- Node16 -->
<g id="node16" class="node"><title>Node16</title>
<polygon fill="none" stroke="#bfbfbf" points="1087,-364 1087,-432 1218,-432 1218,-364 1087,-364"/>
<text text-anchor="start" x="1095" y="-420" font-family="Helvetica,sans-Serif" font-size="10.00">vector&lt; o2::itsmft</text>
<text text-anchor="middle" x="1152.5" y="-409" font-family="Helvetica,sans-Serif" font-size="10.00">::o2::itsmft::ROFRecord &gt;</text>
<polyline fill="none" stroke="#bfbfbf" points="1087,-402 1218,-402 "/>
<text text-anchor="middle" x="1152.5" y="-390" font-family="Helvetica,sans-Serif" font-size="10.00"> </text>
<polyline fill="none" stroke="#bfbfbf" points="1087,-383 1218,-383 "/>
<text text-anchor="middle" x="1152.5" y="-371" font-family="Helvetica,sans-Serif" font-size="10.00"> </text>
</g>
<!-- Node16&#45;&gt;Node1 -->
<g id="edge18" class="edge"><title>Node16&#45;&gt;Node1</title>
<path fill="none" stroke="#404040" d="M1156.01,-363.693C1159.94,-307.669 1159.04,-194.487 1097.5,-131 1065.89,-98.3897 946.526,-77.1966 866.288,-66.306"/>
<polygon fill="none" stroke="#404040" points="866.153,-66.2882 859.679,-69.4645 854.258,-64.7101 860.731,-61.5339 866.153,-66.2882"/>
<text text-anchor="middle" x="1189.5" y="-172.5" font-family="Helvetica,sans-Serif" font-size="10.00"> #mClusROFRecOut</text>
</g>
<!-- Node17 -->
<g id="node17" class="node"><title>Node17</title>
<g id="a_node17"><a xlink:href="../../dc/daa/classo2_1_1dataformats_1_1MCTruthContainer.html" target="_top" xlink:title="{o2::dataformats::MCTruth\lContainer\&lt; o2::o2::MCCompLabel \&gt;\n||+ MCTruthContainer()\l+ MCTruthContainer()\l+ MCTruthContainer()\l+ ~MCTruthContainer()\l+ operator=()\l+ operator=()\l+ getMCTruthHeader()\l+ getElement()\l+ getIndexedSize()\l+ getNElements()\l+ getLabels()\l+ getLabels()\l+ clear()\l+ addElement()\l+ addElements()\l+ addElements()\l+ addElementRandomAccess()\l+ mergeAtBack()\l+ flatten_to()\l+ restore_from()\l+ print()\l+ inflate()\l+ deflate()\l+ ClassDefNV()\l}">
<polygon fill="none" stroke="black" points="1236,-237.5 1236,-558.5 1411,-558.5 1411,-237.5 1236,-237.5"/>
<text text-anchor="start" x="1244" y="-546.5" font-family="Helvetica,sans-Serif" font-size="10.00">o2::dataformats::MCTruth</text>
<text text-anchor="middle" x="1323.5" y="-535.5" font-family="Helvetica,sans-Serif" font-size="10.00">Container&lt; o2::o2::MCCompLabel &gt;</text>
<polyline fill="none" stroke="black" points="1236,-528.5 1411,-528.5 "/>
<text text-anchor="middle" x="1323.5" y="-516.5" font-family="Helvetica,sans-Serif" font-size="10.00"> </text>
<polyline fill="none" stroke="black" points="1236,-509.5 1411,-509.5 "/>
<text text-anchor="start" x="1244" y="-497.5" font-family="Helvetica,sans-Serif" font-size="10.00">+ MCTruthContainer()</text>
<text text-anchor="start" x="1244" y="-486.5" font-family="Helvetica,sans-Serif" font-size="10.00">+ MCTruthContainer()</text>
<text text-anchor="start" x="1244" y="-475.5" font-family="Helvetica,sans-Serif" font-size="10.00">+ MCTruthContainer()</text>
<text text-anchor="start" x="1244" y="-464.5" font-family="Helvetica,sans-Serif" font-size="10.00">+ ~MCTruthContainer()</text>
<text text-anchor="start" x="1244" y="-453.5" font-family="Helvetica,sans-Serif" font-size="10.00">+ operator=()</text>
<text text-anchor="start" x="1244" y="-442.5" font-family="Helvetica,sans-Serif" font-size="10.00">+ operator=()</text>
<text text-anchor="start" x="1244" y="-431.5" font-family="Helvetica,sans-Serif" font-size="10.00">+ getMCTruthHeader()</text>
<text text-anchor="start" x="1244" y="-420.5" font-family="Helvetica,sans-Serif" font-size="10.00">+ getElement()</text>
<text text-anchor="start" x="1244" y="-409.5" font-family="Helvetica,sans-Serif" font-size="10.00">+ getIndexedSize()</text>
<text text-anchor="start" x="1244" y="-398.5" font-family="Helvetica,sans-Serif" font-size="10.00">+ getNElements()</text>
<text text-anchor="start" x="1244" y="-387.5" font-family="Helvetica,sans-Serif" font-size="10.00">+ getLabels()</text>
<text text-anchor="start" x="1244" y="-376.5" font-family="Helvetica,sans-Serif" font-size="10.00">+ getLabels()</text>
<text text-anchor="start" x="1244" y="-365.5" font-family="Helvetica,sans-Serif" font-size="10.00">+ clear()</text>
<text text-anchor="start" x="1244" y="-354.5" font-family="Helvetica,sans-Serif" font-size="10.00">+ addElement()</text>
<text text-anchor="start" x="1244" y="-343.5" font-family="Helvetica,sans-Serif" font-size="10.00">+ addElements()</text>
<text text-anchor="start" x="1244" y="-332.5" font-family="Helvetica,sans-Serif" font-size="10.00">+ addElements()</text>
<text text-anchor="start" x="1244" y="-321.5" font-family="Helvetica,sans-Serif" font-size="10.00">+ addElementRandomAccess()</text>
<text text-anchor="start" x="1244" y="-310.5" font-family="Helvetica,sans-Serif" font-size="10.00">+ mergeAtBack()</text>
<text text-anchor="start" x="1244" y="-299.5" font-family="Helvetica,sans-Serif" font-size="10.00">+ flatten_to()</text>
<text text-anchor="start" x="1244" y="-288.5" font-family="Helvetica,sans-Serif" font-size="10.00">+ restore_from()</text>
<text text-anchor="start" x="1244" y="-277.5" font-family="Helvetica,sans-Serif" font-size="10.00">+ print()</text>
<text text-anchor="start" x="1244" y="-266.5" font-family="Helvetica,sans-Serif" font-size="10.00">+ inflate()</text>
<text text-anchor="start" x="1244" y="-255.5" font-family="Helvetica,sans-Serif" font-size="10.00">+ deflate()</text>
<text text-anchor="start" x="1244" y="-244.5" font-family="Helvetica,sans-Serif" font-size="10.00">+ ClassDefNV()</text>
</a>
</g>
</g>
<!-- Node17&#45;&gt;Node1 -->
<g id="edge19" class="edge"><title>Node17&#45;&gt;Node1</title>
<path fill="none" stroke="#404040" d="M1303.33,-237.299C1290.91,-197.452 1271.08,-158.34 1239.5,-131 1184.96,-83.7822 979.679,-66.5268 866.523,-60.5151"/>
<polygon fill="none" stroke="#404040" points="866.183,-60.4978 859.986,-64.1864 854.198,-59.8854 860.395,-56.1968 866.183,-60.4978"/>
<text text-anchor="middle" x="1346.5" y="-178" font-family="Helvetica,sans-Serif" font-size="10.00"> #mClusterMCTruthInp</text>
<text text-anchor="middle" x="1346.5" y="-167" font-family="Helvetica,sans-Serif" font-size="10.00">#mClusterMCTruthOut</text>
</g>
<!-- Node18 -->
<g id="node18" class="node"><title>Node18</title>
<g id="a_node18"><a xlink:href="../../dc/daa/classo2_1_1dataformats_1_1MCTruthContainer.html" target="_top" xlink:title="A container to hold and manage MC truth information/labels. ">
<polygon fill="none" stroke="black" points="1247,-628.5 1247,-949.5 1400,-949.5 1400,-628.5 1247,-628.5"/>
<text text-anchor="start" x="1255" y="-937.5" font-family="Helvetica,sans-Serif" font-size="10.00">o2::dataformats::MCTruth</text>
<text text-anchor="middle" x="1323.5" y="-926.5" font-family="Helvetica,sans-Serif" font-size="10.00">Container&lt; TruthElement &gt;</text>
<polyline fill="none" stroke="black" points="1247,-919.5 1400,-919.5 "/>
<text text-anchor="middle" x="1323.5" y="-907.5" font-family="Helvetica,sans-Serif" font-size="10.00"> </text>
<polyline fill="none" stroke="black" points="1247,-900.5 1400,-900.5 "/>
<text text-anchor="start" x="1255" y="-888.5" font-family="Helvetica,sans-Serif" font-size="10.00">+ MCTruthContainer()</text>
<text text-anchor="start" x="1255" y="-877.5" font-family="Helvetica,sans-Serif" font-size="10.00">+ ~MCTruthContainer()</text>
<text text-anchor="start" x="1255" y="-866.5" font-family="Helvetica,sans-Serif" font-size="10.00">+ MCTruthContainer()</text>
<text text-anchor="start" x="1255" y="-855.5" font-family="Helvetica,sans-Serif" font-size="10.00">+ MCTruthContainer()</text>
<text text-anchor="start" x="1255" y="-844.5" font-family="Helvetica,sans-Serif" font-size="10.00">+ operator=()</text>
<text text-anchor="start" x="1255" y="-833.5" font-family="Helvetica,sans-Serif" font-size="10.00">+ operator=()</text>
<text text-anchor="start" x="1255" y="-822.5" font-family="Helvetica,sans-Serif" font-size="10.00">+ getMCTruthHeader()</text>
<text text-anchor="start" x="1255" y="-811.5" font-family="Helvetica,sans-Serif" font-size="10.00">+ getElement()</text>
<text text-anchor="start" x="1255" y="-800.5" font-family="Helvetica,sans-Serif" font-size="10.00">+ getIndexedSize()</text>
<text text-anchor="start" x="1255" y="-789.5" font-family="Helvetica,sans-Serif" font-size="10.00">+ getNElements()</text>
<text text-anchor="start" x="1255" y="-778.5" font-family="Helvetica,sans-Serif" font-size="10.00">+ getLabels()</text>
<text text-anchor="start" x="1255" y="-767.5" font-family="Helvetica,sans-Serif" font-size="10.00">+ getLabels()</text>
<text text-anchor="start" x="1255" y="-756.5" font-family="Helvetica,sans-Serif" font-size="10.00">+ clear()</text>
<text text-anchor="start" x="1255" y="-745.5" font-family="Helvetica,sans-Serif" font-size="10.00">+ addElement()</text>
<text text-anchor="start" x="1255" y="-734.5" font-family="Helvetica,sans-Serif" font-size="10.00">+ addElements()</text>
<text text-anchor="start" x="1255" y="-723.5" font-family="Helvetica,sans-Serif" font-size="10.00">+ addElements()</text>
<text text-anchor="start" x="1255" y="-712.5" font-family="Helvetica,sans-Serif" font-size="10.00">+ addElementRandomAccess()</text>
<text text-anchor="start" x="1255" y="-701.5" font-family="Helvetica,sans-Serif" font-size="10.00">+ mergeAtBack()</text>
<text text-anchor="start" x="1255" y="-690.5" font-family="Helvetica,sans-Serif" font-size="10.00">+ flatten_to()</text>
<text text-anchor="start" x="1255" y="-679.5" font-family="Helvetica,sans-Serif" font-size="10.00">+ restore_from()</text>
<text text-anchor="start" x="1255" y="-668.5" font-family="Helvetica,sans-Serif" font-size="10.00">+ print()</text>
<text text-anchor="start" x="1255" y="-657.5" font-family="Helvetica,sans-Serif" font-size="10.00">+ inflate()</text>
<text text-anchor="start" x="1255" y="-646.5" font-family="Helvetica,sans-Serif" font-size="10.00">+ deflate()</text>
<text text-anchor="start" x="1255" y="-635.5" font-family="Helvetica,sans-Serif" font-size="10.00">+ ClassDefNV()</text>
</a>
</g>
</g>
<!-- Node18&#45;&gt;Node17 -->
<g id="edge20" class="edge"><title>Node18&#45;&gt;Node17</title>
<path fill="none" stroke="orange" d="M1323.5,-618.336C1323.5,-598.461 1323.5,-578.235 1323.5,-558.505"/>
<polygon fill="orange" stroke="orange" points="1320,-618.376 1323.5,-628.376 1327,-618.376 1320,-618.376"/>
<text text-anchor="middle" x="1383.5" y="-591" font-family="Helvetica,sans-Serif" font-size="10.00"> &lt; o2::o2::MCCompLabel &gt;</text>
</g>
<!-- Node19 -->
<g id="node19" class="node"><title>Node19</title>
<polygon fill="none" stroke="#bfbfbf" points="1429.5,-364 1429.5,-432 1539.5,-432 1539.5,-364 1429.5,-364"/>
<text text-anchor="start" x="1437.5" y="-420" font-family="Helvetica,sans-Serif" font-size="10.00">vector&lt; o2::itsmft</text>
<text text-anchor="middle" x="1484.5" y="-409" font-family="Helvetica,sans-Serif" font-size="10.00">::o2::itsmft::Cluster &gt;</text>
<polyline fill="none" stroke="#bfbfbf" points="1429.5,-402 1539.5,-402 "/>
<text text-anchor="middle" x="1484.5" y="-390" font-family="Helvetica,sans-Serif" font-size="10.00"> </text>
<polyline fill="none" stroke="#bfbfbf" points="1429.5,-383 1539.5,-383 "/>
<text text-anchor="middle" x="1484.5" y="-371" font-family="Helvetica,sans-Serif" font-size="10.00"> </text>
</g>
<!-- Node19&#45;&gt;Node1 -->
<g id="edge21" class="edge"><title>Node19&#45;&gt;Node1</title>
<path fill="none" stroke="#404040" d="M1484.73,-363.884C1483.16,-306.572 1470.95,-189.432 1400.5,-131 1320.82,-64.9141 1011.32,-56.7876 866.285,-56.7219"/>
<polygon fill="none" stroke="#404040" points="866.033,-56.7221 860.037,-60.7288 854.033,-56.7354 860.028,-52.7288 866.033,-56.7221"/>
<text text-anchor="middle" x="1502.5" y="-172.5" font-family="Helvetica,sans-Serif" font-size="10.00"> #mClusterArrayOut</text>
</g>
</g>
</svg>
        <g id="navigator" transform="translate(0 0)" fill="#404254">
                <rect fill="#f2f5e9" fill-opacity="0.5" stroke="#606060" stroke-width=".5" x="0" y="0" width="60" height="60"/>
                <use id="zoomplus" xlink:href="#zoomPlus" x="17" y="9" onmousedown="handleZoom(evt,'in')"/>
                <use id="zoomminus" xlink:href="#zoomMin" x="42" y="9" onmousedown="handleZoom(evt,'out')"/>
                <use id="reset" xlink:href="#resetDef" x="30" y="36" onmousedown="handleReset()"/>
                <g id="arrowUp" xlink:href="#dirArrow" transform="translate(30 24)" onmousedown="handlePan(0,-1)">
                  <use xlink:href="#rim" fill="#404040">
                        <set attributeName="fill" to="#808080" begin="arrowUp.mouseover" end="arrowUp.mouseout"/>
                  </use>
                  <path fill="none" stroke="white" stroke-width="1.5" d="M0,-3.0v7 M-2.5,-0.5L0,-3.0L2.5,-0.5"/>
                </g>
                <g id="arrowRight" xlink:href="#dirArrow" transform="rotate(90) translate(36 -43)" onmousedown="handlePan(1,0)">
                  <use xlink:href="#rim" fill="#404040">
                        <set attributeName="fill" to="#808080" begin="arrowRight.mouseover" end="arrowRight.mouseout"/>
                  </use>
                  <path fill="none" stroke="white" stroke-width="1.5" d="M0,-3.0v7 M-2.5,-0.5L0,-3.0L2.5,-0.5"/>
                </g>
                <g id="arrowDown" xlink:href="#dirArrow" transform="rotate(180) translate(-30 -48)" onmousedown="handlePan(0,1)">
                  <use xlink:href="#rim" fill="#404040">
                        <set attributeName="fill" to="#808080" begin="arrowDown.mouseover" end="arrowDown.mouseout"/>
                  </use>
                  <path fill="none" stroke="white" stroke-width="1.5" d="M0,-3.0v7 M-2.5,-0.5L0,-3.0L2.5,-0.5"/>
                </g>
                <g id="arrowLeft" xlink:href="#dirArrow" transform="rotate(270) translate(-36 17)" onmousedown="handlePan(-1,0)">
                  <use xlink:href="#rim" fill="#404040">
                        <set attributeName="fill" to="#808080" begin="arrowLeft.mouseover" end="arrowLeft.mouseout"/>
                  </use>
                  <path fill="none" stroke="white" stroke-width="1.5" d="M0,-3.0v7 M-2.5,-0.5L0,-3.0L2.5,-0.5"/>
                </g>
        </g>
        <svg viewBox="0 0 15 15" width="100%" height="30px" preserveAspectRatio="xMaxYMin meet">
         <g id="arrow_out" transform="scale(0.3 0.3)">
          <a xlink:href="classo2_1_1itsmft_1_1ClusterReader__coll__graph_org.svg" target="_base">
           <rect id="button" ry="5" rx="5" y="6" x="6" height="38" width="38"
                fill="#f2f5e9" fill-opacity="0.5" stroke="#606060" stroke-width="1.0"/>
           <path id="arrow"
             d="M 11.500037,31.436501 C 11.940474,20.09759 22.043105,11.32322 32.158766,21.979434 L 37.068811,17.246167 C 37.068811,17.246167 37.088388,32 37.088388,32 L 22.160133,31.978069 C 22.160133,31.978069 26.997745,27.140456 26.997745,27.140456 C 18.528582,18.264221 13.291696,25.230495 11.500037,31.436501 z"
             style="fill:#404040;"/>
          </a>
         </g>
        </svg>
</svg>
