<?xml version="1.0" encoding="UTF-8" standalone="no"?>
<!DOCTYPE svg PUBLIC "-//W3C//DTD SVG 1.1//EN"
 "http://www.w3.org/Graphics/SVG/1.1/DTD/svg11.dtd">
<!-- Generated by graphviz version 2.38.0 (20140413.2041)
 -->
<!-- Title: GPUCA_NAMESPACE::gpu::GPUDisplayBackendNone Pages: 1 -->
<!--zoomable 926 -->
<svg id="main" version="1.1" xmlns="http://www.w3.org/2000/svg" xmlns:xlink="http://www.w3.org/1999/xlink" xml:space="preserve" onload="init(evt)">
<style type="text/css"><![CDATA[
.edge:hover path { stroke: red; }
.edge:hover polygon { stroke: red; fill: red; }
]]></style>
<script type="text/javascript"><![CDATA[
var edges = document.getElementsByTagName('g');
if (edges && edges.length) {
  for (var i=0;i<edges.length;i++) {
    if (edges[i].id.substr(0,4)=='edge') {
      edges[i].setAttribute('class','edge');
    }
  }
}
]]></script>
        <defs>
                <circle id="rim" cx="0" cy="0" r="7"/>
                <circle id="rim2" cx="0" cy="0" r="3.5"/>
                <g id="zoomPlus">
                        <use xlink:href="#rim" fill="#404040">
                                <set attributeName="fill" to="#808080" begin="zoomplus.mouseover" end="zoomplus.mouseout"/>
                        </use>
                        <path d="M-4,0h8M0,-4v8" fill="none" stroke="white" stroke-width="1.5" pointer-events="none"/>
                </g>
                <g id="zoomMin">
                        <use xlink:href="#rim" fill="#404040">
                                <set attributeName="fill" to="#808080" begin="zoomminus.mouseover" end="zoomminus.mouseout"/>
                        </use>
                        <path d="M-4,0h8" fill="none" stroke="white" stroke-width="1.5" pointer-events="none"/>
                </g>
                <g id="dirArrow">
                        <path fill="none" stroke="white" stroke-width="1.5" d="M0,-3.0v7 M-2.5,-0.5L0,-3.0L2.5,-0.5"/>
                </g>
               <g id="resetDef">
                       <use xlink:href="#rim2" fill="#404040">
                               <set attributeName="fill" to="#808080" begin="reset.mouseover" end="reset.mouseout"/>
                       </use>
               </g>
        </defs>

<script type="text/javascript">
var viewWidth = 481;
var viewHeight = 926;
var sectionId = 'dynsection-1';
</script>
<script xlink:href="../../svgpan.js"/>
<svg id="graph" class="graph">
<g id="viewport">
<title>GPUCA_NAMESPACE::gpu::GPUDisplayBackendNone</title>
<!-- Node1 -->
<g id="node1" class="node"><title>Node1</title>
<polygon fill="#bfbfbf" stroke="black" points="141,-0.5 141,-68.5 284,-68.5 284,-0.5 141,-0.5"/>
<text text-anchor="start" x="149" y="-56.5" font-family="Helvetica,sans-Serif" font-size="10.00">GPUCA_NAMESPACE::gpu</text>
<text text-anchor="middle" x="212.5" y="-45.5" font-family="Helvetica,sans-Serif" font-size="10.00">::GPUDisplayBackendNone</text>
<polyline fill="none" stroke="black" points="141,-38.5 284,-38.5 "/>
<text text-anchor="middle" x="212.5" y="-26.5" font-family="Helvetica,sans-Serif" font-size="10.00"> </text>
<polyline fill="none" stroke="black" points="141,-19.5 284,-19.5 "/>
<text text-anchor="middle" x="212.5" y="-7.5" font-family="Helvetica,sans-Serif" font-size="10.00"> </text>
</g>
<!-- Node2 -->
<g id="node2" class="node"><title>Node2</title>
<g id="a_node2"><a xlink:href="../../d6/d42/classGPUCA__NAMESPACE_1_1gpu_1_1GPUDisplayBackend.html" target="_top" xlink:title="{GPUCA_NAMESPACE::gpu\l::GPUDisplayBackend\n|# INIT_WIDTH\l# GL_WINDOW_NAME\l# KEY_LEFT\l# KEY_RIGHT\l# KEY_PAGEUP\l# KEY_PAGEDOWN\l# KEY_SHIFT\l# KEY_ALT\l# KEY_CTRL\l# KEY_F1\l# KEY_F2\l# KEY_F3\l# KEY_F10\l# KEY_F11\l# KEY_F12\l# KEY_HOME\l# KEY_END\l# KEY_INSERT\l# KEY_ESCAPE\l# KEY_ENTER\l|+ GPUDisplayBackend()\l+ ~GPUDisplayBackend()\l+ StartDisplay()\l+ DisplayExit()\l+ SwitchFullscreen()\l+ ToggleMaximized()\l+ SetVSync()\l+ EnableSendKey()\l+ OpenGLPrint()\l# OpenGLMain()\l# HandleKeyRelease()\l# DrawGLScene()\l# HandleSendKey()\l# ReSizeGLScene()\l# InitGL()\l# ExitGL()\l# OpenGLWrapper()\l}">
<polygon fill="none" stroke="black" points="141,-106.5 141,-559.5 284,-559.5 284,-106.5 141,-106.5"/>
<text text-anchor="start" x="149" y="-547.5" font-family="Helvetica,sans-Serif" font-size="10.00">GPUCA_NAMESPACE::gpu</text>
<text text-anchor="middle" x="212.5" y="-536.5" font-family="Helvetica,sans-Serif" font-size="10.00">::GPUDisplayBackend</text>
<polyline fill="none" stroke="black" points="141,-529.5 284,-529.5 "/>
<text text-anchor="start" x="149" y="-517.5" font-family="Helvetica,sans-Serif" font-size="10.00"># INIT_WIDTH</text>
<text text-anchor="start" x="149" y="-506.5" font-family="Helvetica,sans-Serif" font-size="10.00"># GL_WINDOW_NAME</text>
<text text-anchor="start" x="149" y="-495.5" font-family="Helvetica,sans-Serif" font-size="10.00"># KEY_LEFT</text>
<text text-anchor="start" x="149" y="-484.5" font-family="Helvetica,sans-Serif" font-size="10.00"># KEY_RIGHT</text>
<text text-anchor="start" x="149" y="-473.5" font-family="Helvetica,sans-Serif" font-size="10.00"># KEY_PAGEUP</text>
<text text-anchor="start" x="149" y="-462.5" font-family="Helvetica,sans-Serif" font-size="10.00"># KEY_PAGEDOWN</text>
<text text-anchor="start" x="149" y="-451.5" font-family="Helvetica,sans-Serif" font-size="10.00"># KEY_SHIFT</text>
<text text-anchor="start" x="149" y="-440.5" font-family="Helvetica,sans-Serif" font-size="10.00"># KEY_ALT</text>
<text text-anchor="start" x="149" y="-429.5" font-family="Helvetica,sans-Serif" font-size="10.00"># KEY_CTRL</text>
<text text-anchor="start" x="149" y="-418.5" font-family="Helvetica,sans-Serif" font-size="10.00"># KEY_F1</text>
<text text-anchor="start" x="149" y="-407.5" font-family="Helvetica,sans-Serif" font-size="10.00"># KEY_F2</text>
<text text-anchor="start" x="149" y="-396.5" font-family="Helvetica,sans-Serif" font-size="10.00"># KEY_F3</text>
<text text-anchor="start" x="149" y="-385.5" font-family="Helvetica,sans-Serif" font-size="10.00"># KEY_F10</text>
<text text-anchor="start" x="149" y="-374.5" font-family="Helvetica,sans-Serif" font-size="10.00"># KEY_F11</text>
<text text-anchor="start" x="149" y="-363.5" font-family="Helvetica,sans-Serif" font-size="10.00"># KEY_F12</text>
<text text-anchor="start" x="149" y="-352.5" font-family="Helvetica,sans-Serif" font-size="10.00"># KEY_HOME</text>
<text text-anchor="start" x="149" y="-341.5" font-family="Helvetica,sans-Serif" font-size="10.00"># KEY_END</text>
<text text-anchor="start" x="149" y="-330.5" font-family="Helvetica,sans-Serif" font-size="10.00"># KEY_INSERT</text>
<text text-anchor="start" x="149" y="-319.5" font-family="Helvetica,sans-Serif" font-size="10.00"># KEY_ESCAPE</text>
<text text-anchor="start" x="149" y="-308.5" font-family="Helvetica,sans-Serif" font-size="10.00"># KEY_ENTER</text>
<polyline fill="none" stroke="black" points="141,-301.5 284,-301.5 "/>
<text text-anchor="start" x="149" y="-289.5" font-family="Helvetica,sans-Serif" font-size="10.00">+ GPUDisplayBackend()</text>
<text text-anchor="start" x="149" y="-278.5" font-family="Helvetica,sans-Serif" font-size="10.00">+ ~GPUDisplayBackend()</text>
<text text-anchor="start" x="149" y="-267.5" font-family="Helvetica,sans-Serif" font-size="10.00">+ StartDisplay()</text>
<text text-anchor="start" x="149" y="-256.5" font-family="Helvetica,sans-Serif" font-size="10.00">+ DisplayExit()</text>
<text text-anchor="start" x="149" y="-245.5" font-family="Helvetica,sans-Serif" font-size="10.00">+ SwitchFullscreen()</text>
<text text-anchor="start" x="149" y="-234.5" font-family="Helvetica,sans-Serif" font-size="10.00">+ ToggleMaximized()</text>
<text text-anchor="start" x="149" y="-223.5" font-family="Helvetica,sans-Serif" font-size="10.00">+ SetVSync()</text>
<text text-anchor="start" x="149" y="-212.5" font-family="Helvetica,sans-Serif" font-size="10.00">+ EnableSendKey()</text>
<text text-anchor="start" x="149" y="-201.5" font-family="Helvetica,sans-Serif" font-size="10.00">+ OpenGLPrint()</text>
<text text-anchor="start" x="149" y="-190.5" font-family="Helvetica,sans-Serif" font-size="10.00"># OpenGLMain()</text>
<text text-anchor="start" x="149" y="-179.5" font-family="Helvetica,sans-Serif" font-size="10.00"># HandleKeyRelease()</text>
<text text-anchor="start" x="149" y="-168.5" font-family="Helvetica,sans-Serif" font-size="10.00"># DrawGLScene()</text>
<text text-anchor="start" x="149" y="-157.5" font-family="Helvetica,sans-Serif" font-size="10.00"># HandleSendKey()</text>
<text text-anchor="start" x="149" y="-146.5" font-family="Helvetica,sans-Serif" font-size="10.00"># ReSizeGLScene()</text>
<text text-anchor="start" x="149" y="-135.5" font-family="Helvetica,sans-Serif" font-size="10.00"># InitGL()</text>
<text text-anchor="start" x="149" y="-124.5" font-family="Helvetica,sans-Serif" font-size="10.00"># ExitGL()</text>
<text text-anchor="start" x="149" y="-113.5" font-family="Helvetica,sans-Serif" font-size="10.00"># OpenGLWrapper()</text>
</a>
</g>
</g>
<!-- Node2&#45;&gt;Node1 -->
<g id="edge1" class="edge"><title>Node2&#45;&gt;Node1</title>
<path fill="none" stroke="midnightblue" d="M212.5,-95.8837C212.5,-85.8908 212.5,-76.7312 212.5,-68.7298"/>
<polygon fill="none" stroke="midnightblue" points="209,-96.1424 212.5,-106.142 216,-96.1425 209,-96.1424"/>
</g>
<!-- Node3 -->
<g id="node3" class="node"><title>Node3</title>
<g id="a_node3"><a xlink:href="../../d4/dc3/classfloat.html" target="_top" xlink:title="{float\n||}">
<polygon fill="none" stroke="black" points="0,-789 0,-846 35,-846 35,-789 0,-789"/>
<text text-anchor="middle" x="17.5" y="-834" font-family="Helvetica,sans-Serif" font-size="10.00">float</text>
<polyline fill="none" stroke="black" points="0,-827 35,-827 "/>
<text text-anchor="middle" x="17.5" y="-815" font-family="Helvetica,sans-Serif" font-size="10.00"> </text>
<polyline fill="none" stroke="black" points="0,-808 35,-808 "/>
<text text-anchor="middle" x="17.5" y="-796" font-family="Helvetica,sans-Serif" font-size="10.00"> </text>
</a>
</g>
</g>
<!-- Node3&#45;&gt;Node2 -->
<g id="edge2" class="edge"><title>Node3&#45;&gt;Node2</title>
<path fill="none" stroke="#404040" d="M20.135,-788.826C25.1174,-743.478 38.0773,-651.08 66.5,-578 84.0719,-532.819 109.646,-486.397 134.498,-446.333"/>
<polygon fill="none" stroke="#404040" points="134.59,-446.187 134.389,-438.978 140.966,-436.021 141.167,-443.229 134.59,-446.187"/>
<text text-anchor="middle" x="99.5" y="-652.5" font-family="Helvetica,sans-Serif" font-size="10.00"> #mMouseDnX</text>
<text text-anchor="middle" x="99.5" y="-641.5" font-family="Helvetica,sans-Serif" font-size="10.00">#mMouseDnY</text>
<text text-anchor="middle" x="99.5" y="-630.5" font-family="Helvetica,sans-Serif" font-size="10.00">#mouseMvX</text>
<text text-anchor="middle" x="99.5" y="-619.5" font-family="Helvetica,sans-Serif" font-size="10.00">#mouseMvY</text>
</g>
<!-- Node4 -->
<g id="node4" class="node"><title>Node4</title>
<g id="a_node4"><a xlink:href="../../d9/dda/classGPUCA__NAMESPACE_1_1gpu_1_1GPUDisplay.html" target="_top" xlink:title="{GPUCA_NAMESPACE::gpu\l::GPUDisplay\n||+ GPUDisplay()\l+ ~GPUDisplay()\l+ GPUDisplay()\l+ StartDisplay()\l+ ShowNextEvent()\l+ WaitForNextEvent()\l+ SetCollisionFirstCluster()\l+ HandleKeyRelease()\l+ DrawGLScene()\l+ HandleSendKey()\l+ InitGL()\l+ ExitGL()\l+ ReSizeGLScene()\l}">
<polygon fill="none" stroke="black" points="53,-717.5 53,-917.5 196,-917.5 196,-717.5 53,-717.5"/>
<text text-anchor="start" x="61" y="-905.5" font-family="Helvetica,sans-Serif" font-size="10.00">GPUCA_NAMESPACE::gpu</text>
<text text-anchor="middle" x="124.5" y="-894.5" font-family="Helvetica,sans-Serif" font-size="10.00">::GPUDisplay</text>
<polyline fill="none" stroke="black" points="53,-887.5 196,-887.5 "/>
<text text-anchor="middle" x="124.5" y="-875.5" font-family="Helvetica,sans-Serif" font-size="10.00"> </text>
<polyline fill="none" stroke="black" points="53,-868.5 196,-868.5 "/>
<text text-anchor="start" x="61" y="-856.5" font-family="Helvetica,sans-Serif" font-size="10.00">+ GPUDisplay()</text>
<text text-anchor="start" x="61" y="-845.5" font-family="Helvetica,sans-Serif" font-size="10.00">+ ~GPUDisplay()</text>
<text text-anchor="start" x="61" y="-834.5" font-family="Helvetica,sans-Serif" font-size="10.00">+ GPUDisplay()</text>
<text text-anchor="start" x="61" y="-823.5" font-family="Helvetica,sans-Serif" font-size="10.00">+ StartDisplay()</text>
<text text-anchor="start" x="61" y="-812.5" font-family="Helvetica,sans-Serif" font-size="10.00">+ ShowNextEvent()</text>
<text text-anchor="start" x="61" y="-801.5" font-family="Helvetica,sans-Serif" font-size="10.00">+ WaitForNextEvent()</text>
<text text-anchor="start" x="61" y="-790.5" font-family="Helvetica,sans-Serif" font-size="10.00">+ SetCollisionFirstCluster()</text>
<text text-anchor="start" x="61" y="-779.5" font-family="Helvetica,sans-Serif" font-size="10.00">+ HandleKeyRelease()</text>
<text text-anchor="start" x="61" y="-768.5" font-family="Helvetica,sans-Serif" font-size="10.00">+ DrawGLScene()</text>
<text text-anchor="start" x="61" y="-757.5" font-family="Helvetica,sans-Serif" font-size="10.00">+ HandleSendKey()</text>
<text text-anchor="start" x="61" y="-746.5" font-family="Helvetica,sans-Serif" font-size="10.00">+ InitGL()</text>
<text text-anchor="start" x="61" y="-735.5" font-family="Helvetica,sans-Serif" font-size="10.00">+ ExitGL()</text>
<text text-anchor="start" x="61" y="-724.5" font-family="Helvetica,sans-Serif" font-size="10.00">+ ReSizeGLScene()</text>
</a>
</g>
</g>
<!-- Node4&#45;&gt;Node2 -->
<g id="edge3" class="edge"><title>Node4&#45;&gt;Node2</title>
<path fill="none" stroke="#404040" d="M134.555,-717.211C139.534,-674.244 146.26,-623.478 154.5,-578 154.874,-575.938 155.254,-573.868 155.64,-571.789"/>
<polygon fill="none" stroke="#404040" points="155.676,-571.6 152.866,-564.959 157.915,-559.811 160.725,-566.452 155.676,-571.6"/>
<text text-anchor="middle" x="179.5" y="-636" font-family="Helvetica,sans-Serif" font-size="10.00"> #mDisplay</text>
</g>
<!-- Node5 -->
<g id="node5" class="node"><title>Node5</title>
<polygon fill="none" stroke="#bfbfbf" points="214,-789 214,-846 243,-846 243,-789 214,-789"/>
<text text-anchor="middle" x="228.5" y="-834" font-family="Helvetica,sans-Serif" font-size="10.00">int</text>
<polyline fill="none" stroke="#bfbfbf" points="214,-827 243,-827 "/>
<text text-anchor="middle" x="228.5" y="-815" font-family="Helvetica,sans-Serif" font-size="10.00"> </text>
<polyline fill="none" stroke="#bfbfbf" points="214,-808 243,-808 "/>
<text text-anchor="middle" x="228.5" y="-796" font-family="Helvetica,sans-Serif" font-size="10.00"> </text>
</g>
<!-- Node5&#45;&gt;Node2 -->
<g id="edge4" class="edge"><title>Node5&#45;&gt;Node2</title>
<path fill="none" stroke="#404040" d="M223.943,-788.58C220.305,-764.832 215.499,-729.782 213.5,-699 210.831,-657.905 209.453,-614.152 208.882,-571.74"/>
<polygon fill="none" stroke="#404040" points="208.879,-571.52 204.809,-565.567 208.739,-559.52 212.809,-565.473 208.879,-571.52"/>
<text text-anchor="middle" x="253" y="-669" font-family="Helvetica,sans-Serif" font-size="10.00"> #mMouseWheel</text>
<text text-anchor="middle" x="253" y="-658" font-family="Helvetica,sans-Serif" font-size="10.00">#mDisplayHeight</text>
<text text-anchor="middle" x="253" y="-647" font-family="Helvetica,sans-Serif" font-size="10.00">+mSendKey</text>
<text text-anchor="middle" x="253" y="-636" font-family="Helvetica,sans-Serif" font-size="10.00">#mMaxFPSRate</text>
<text text-anchor="middle" x="253" y="-625" font-family="Helvetica,sans-Serif" font-size="10.00">+mNeedUpdate</text>
<text text-anchor="middle" x="253" y="-614" font-family="Helvetica,sans-Serif" font-size="10.00">+mDisplayControl</text>
<text text-anchor="middle" x="253" y="-603" font-family="Helvetica,sans-Serif" font-size="10.00">#mDisplayWidth</text>
</g>
<!-- Node6 -->
<g id="node6" class="node"><title>Node6</title>
<polygon fill="none" stroke="#bfbfbf" points="297,-789 297,-846 332,-846 332,-789 297,-789"/>
<text text-anchor="middle" x="314.5" y="-834" font-family="Helvetica,sans-Serif" font-size="10.00">bool</text>
<polyline fill="none" stroke="#bfbfbf" points="297,-827 332,-827 "/>
<text text-anchor="middle" x="314.5" y="-815" font-family="Helvetica,sans-Serif" font-size="10.00"> </text>
<polyline fill="none" stroke="#bfbfbf" points="297,-808 332,-808 "/>
<text text-anchor="middle" x="314.5" y="-796" font-family="Helvetica,sans-Serif" font-size="10.00"> </text>
</g>
<!-- Node6&#45;&gt;Node2 -->
<g id="edge5" class="edge"><title>Node6&#45;&gt;Node2</title>
<path fill="none" stroke="#404040" d="M313.954,-788.659C312.626,-743.843 308.073,-653.122 292.5,-578 290.824,-569.915 288.972,-561.723 286.978,-553.481"/>
<polygon fill="none" stroke="#404040" points="286.969,-553.446 281.637,-548.591 284.067,-541.802 289.399,-546.657 286.969,-553.446"/>
<text text-anchor="middle" x="342" y="-652.5" font-family="Helvetica,sans-Serif" font-size="10.00"> #mMouseDnR</text>
<text text-anchor="middle" x="342" y="-641.5" font-family="Helvetica,sans-Serif" font-size="10.00">#mMouseDn</text>
<text text-anchor="middle" x="342" y="-630.5" font-family="Helvetica,sans-Serif" font-size="10.00">#mKeys</text>
<text text-anchor="middle" x="342" y="-619.5" font-family="Helvetica,sans-Serif" font-size="10.00">#mKeysShift</text>
</g>
<!-- Node7 -->
<g id="node7" class="node"><title>Node7</title>
<polygon fill="none" stroke="#bfbfbf" points="384,-789 384,-846 425,-846 425,-789 384,-789"/>
<text text-anchor="middle" x="404.5" y="-834" font-family="Helvetica,sans-Serif" font-size="10.00">static</text>
<polyline fill="none" stroke="#bfbfbf" points="384,-827 425,-827 "/>
<text text-anchor="middle" x="404.5" y="-815" font-family="Helvetica,sans-Serif" font-size="10.00"> </text>
<polyline fill="none" stroke="#bfbfbf" points="384,-808 425,-808 "/>
<text text-anchor="middle" x="404.5" y="-796" font-family="Helvetica,sans-Serif" font-size="10.00"> </text>
</g>
<!-- Node7&#45;&gt;Node2 -->
<g id="edge6" class="edge"><title>Node7&#45;&gt;Node2</title>
<path fill="none" stroke="#404040" d="M405.92,-788.691C407.305,-743.15 406.15,-650.486 379.5,-578 359.409,-523.354 324.339,-469.233 291.507,-425.9"/>
<polygon fill="none" stroke="#404040" points="291.412,-425.776 284.585,-423.453 284.104,-416.258 290.93,-418.581 291.412,-425.776"/>
<text text-anchor="middle" x="438" y="-691" font-family="Helvetica,sans-Serif" font-size="10.00"> #KEY_F4</text>
<text text-anchor="middle" x="438" y="-680" font-family="Helvetica,sans-Serif" font-size="10.00">#KEY_DOWN</text>
<text text-anchor="middle" x="438" y="-669" font-family="Helvetica,sans-Serif" font-size="10.00">#KEY_UP</text>
<text text-anchor="middle" x="438" y="-658" font-family="Helvetica,sans-Serif" font-size="10.00">#KEY_F5</text>
<text text-anchor="middle" x="438" y="-647" font-family="Helvetica,sans-Serif" font-size="10.00">#INIT_HEIGHT</text>
<text text-anchor="middle" x="438" y="-636" font-family="Helvetica,sans-Serif" font-size="10.00">#KEY_F6</text>
<text text-anchor="middle" x="438" y="-625" font-family="Helvetica,sans-Serif" font-size="10.00">#KEY_F7</text>
<text text-anchor="middle" x="438" y="-614" font-family="Helvetica,sans-Serif" font-size="10.00">#KEY_SPACE</text>
<text text-anchor="middle" x="438" y="-603" font-family="Helvetica,sans-Serif" font-size="10.00">#KEY_F8</text>
<text text-anchor="middle" x="438" y="-592" font-family="Helvetica,sans-Serif" font-size="10.00">#KEY_F9</text>
<text text-anchor="middle" x="438" y="-581" font-family="Helvetica,sans-Serif" font-size="10.00">...</text>
</g>
</g>
</svg>
        <g id="navigator" transform="translate(0 0)" fill="#404254">
                <rect fill="#f2f5e9" fill-opacity="0.5" stroke="#606060" stroke-width=".5" x="0" y="0" width="60" height="60"/>
                <use id="zoomplus" xlink:href="#zoomPlus" x="17" y="9" onmousedown="handleZoom(evt,'in')"/>
                <use id="zoomminus" xlink:href="#zoomMin" x="42" y="9" onmousedown="handleZoom(evt,'out')"/>
                <use id="reset" xlink:href="#resetDef" x="30" y="36" onmousedown="handleReset()"/>
                <g id="arrowUp" xlink:href="#dirArrow" transform="translate(30 24)" onmousedown="handlePan(0,-1)">
                  <use xlink:href="#rim" fill="#404040">
                        <set attributeName="fill" to="#808080" begin="arrowUp.mouseover" end="arrowUp.mouseout"/>
                  </use>
                  <path fill="none" stroke="white" stroke-width="1.5" d="M0,-3.0v7 M-2.5,-0.5L0,-3.0L2.5,-0.5"/>
                </g>
                <g id="arrowRight" xlink:href="#dirArrow" transform="rotate(90) translate(36 -43)" onmousedown="handlePan(1,0)">
                  <use xlink:href="#rim" fill="#404040">
                        <set attributeName="fill" to="#808080" begin="arrowRight.mouseover" end="arrowRight.mouseout"/>
                  </use>
                  <path fill="none" stroke="white" stroke-width="1.5" d="M0,-3.0v7 M-2.5,-0.5L0,-3.0L2.5,-0.5"/>
                </g>
                <g id="arrowDown" xlink:href="#dirArrow" transform="rotate(180) translate(-30 -48)" onmousedown="handlePan(0,1)">
                  <use xlink:href="#rim" fill="#404040">
                        <set attributeName="fill" to="#808080" begin="arrowDown.mouseover" end="arrowDown.mouseout"/>
                  </use>
                  <path fill="none" stroke="white" stroke-width="1.5" d="M0,-3.0v7 M-2.5,-0.5L0,-3.0L2.5,-0.5"/>
                </g>
                <g id="arrowLeft" xlink:href="#dirArrow" transform="rotate(270) translate(-36 17)" onmousedown="handlePan(-1,0)">
                  <use xlink:href="#rim" fill="#404040">
                        <set attributeName="fill" to="#808080" begin="arrowLeft.mouseover" end="arrowLeft.mouseout"/>
                  </use>
                  <path fill="none" stroke="white" stroke-width="1.5" d="M0,-3.0v7 M-2.5,-0.5L0,-3.0L2.5,-0.5"/>
                </g>
        </g>
        <svg viewBox="0 0 15 15" width="100%" height="30px" preserveAspectRatio="xMaxYMin meet">
         <g id="arrow_out" transform="scale(0.3 0.3)">
          <a xlink:href="classGPUCA__NAMESPACE_1_1gpu_1_1GPUDisplayBackendNone__coll__graph_org.svg" target="_base">
           <rect id="button" ry="5" rx="5" y="6" x="6" height="38" width="38"
                fill="#f2f5e9" fill-opacity="0.5" stroke="#606060" stroke-width="1.0"/>
           <path id="arrow"
             d="M 11.500037,31.436501 C 11.940474,20.09759 22.043105,11.32322 32.158766,21.979434 L 37.068811,17.246167 C 37.068811,17.246167 37.088388,32 37.088388,32 L 22.160133,31.978069 C 22.160133,31.978069 26.997745,27.140456 26.997745,27.140456 C 18.528582,18.264221 13.291696,25.230495 11.500037,31.436501 z"
             style="fill:#404040;"/>
          </a>
         </g>
        </svg>
</svg>
