<?xml version="1.0" encoding="UTF-8" standalone="no"?>
<!DOCTYPE svg PUBLIC "-//W3C//DTD SVG 1.1//EN"
 "http://www.w3.org/Graphics/SVG/1.1/DTD/svg11.dtd">
<!-- Generated by graphviz version 2.38.0 (20140413.2041)
 -->
<!-- Title: o2::tpc::Detector Pages: 1 -->
<svg width="752pt" height="1434pt"
 viewBox="0.00 0.00 752.23 1434.00" xmlns="http://www.w3.org/2000/svg" xmlns:xlink="http://www.w3.org/1999/xlink">
<g id="graph0" class="graph" transform="scale(1 1) rotate(0) translate(4 1430)">
<title>o2::tpc::Detector</title>
<!-- Node1 -->
<g id="node1" class="node"><title>Node1</title>
<polygon fill="#bfbfbf" stroke="black" points="233.73,-0.5 233.73,-288.5 368.73,-288.5 368.73,-0.5 233.73,-0.5"/>
<text text-anchor="middle" x="301.23" y="-276.5" font-family="Helvetica,sans-Serif" font-size="10.00">o2::tpc::Detector</text>
<polyline fill="none" stroke="black" points="233.73,-269.5 368.73,-269.5 "/>
<text text-anchor="middle" x="301.23" y="-257.5" font-family="Helvetica,sans-Serif" font-size="10.00"> </text>
<polyline fill="none" stroke="black" points="233.73,-250.5 368.73,-250.5 "/>
<text text-anchor="start" x="241.73" y="-238.5" font-family="Helvetica,sans-Serif" font-size="10.00">+ Detector()</text>
<text text-anchor="start" x="241.73" y="-227.5" font-family="Helvetica,sans-Serif" font-size="10.00">+ Detector()</text>
<text text-anchor="start" x="241.73" y="-216.5" font-family="Helvetica,sans-Serif" font-size="10.00">+ ~Detector()</text>
<text text-anchor="start" x="241.73" y="-205.5" font-family="Helvetica,sans-Serif" font-size="10.00">+ InitializeO2Detector()</text>
<text text-anchor="start" x="241.73" y="-194.5" font-family="Helvetica,sans-Serif" font-size="10.00">+ ProcessHits()</text>
<text text-anchor="start" x="241.73" y="-183.5" font-family="Helvetica,sans-Serif" font-size="10.00">+ Register()</text>
<text text-anchor="start" x="241.73" y="-172.5" font-family="Helvetica,sans-Serif" font-size="10.00">+ getHits()</text>
<text text-anchor="start" x="241.73" y="-161.5" font-family="Helvetica,sans-Serif" font-size="10.00">+ getHitBranchNames()</text>
<text text-anchor="start" x="241.73" y="-150.5" font-family="Helvetica,sans-Serif" font-size="10.00">+ Reset()</text>
<text text-anchor="start" x="241.73" y="-139.5" font-family="Helvetica,sans-Serif" font-size="10.00">+ ConstructGeometry()</text>
<text text-anchor="start" x="241.73" y="-128.5" font-family="Helvetica,sans-Serif" font-size="10.00">+ addHit()</text>
<text text-anchor="start" x="241.73" y="-117.5" font-family="Helvetica,sans-Serif" font-size="10.00">+ BetheBlochAleph()</text>
<text text-anchor="start" x="241.73" y="-106.5" font-family="Helvetica,sans-Serif" font-size="10.00">+ Gamma()</text>
<text text-anchor="start" x="241.73" y="-95.5" font-family="Helvetica,sans-Serif" font-size="10.00">+ SetSpecialPhysicsCuts()</text>
<text text-anchor="start" x="241.73" y="-84.5" font-family="Helvetica,sans-Serif" font-size="10.00">+ EndOfEvent()</text>
<text text-anchor="start" x="241.73" y="-73.5" font-family="Helvetica,sans-Serif" font-size="10.00">+ FinishPrimary()</text>
<text text-anchor="start" x="241.73" y="-62.5" font-family="Helvetica,sans-Serif" font-size="10.00">+ FinishRun()</text>
<text text-anchor="start" x="241.73" y="-51.5" font-family="Helvetica,sans-Serif" font-size="10.00">+ BeginPrimary()</text>
<text text-anchor="start" x="241.73" y="-40.5" font-family="Helvetica,sans-Serif" font-size="10.00">+ PostTrack()</text>
<text text-anchor="start" x="241.73" y="-29.5" font-family="Helvetica,sans-Serif" font-size="10.00">+ PreTrack()</text>
<text text-anchor="start" x="241.73" y="-18.5" font-family="Helvetica,sans-Serif" font-size="10.00">+ SetGeoFileName()</text>
<text text-anchor="start" x="241.73" y="-7.5" font-family="Helvetica,sans-Serif" font-size="10.00">+ GetGeoFileName()</text>
</g>
<!-- Node2 -->
<g id="node2" class="node"><title>Node2</title>
<g id="a_node2"><a xlink:href="../../de/dc8/classo2_1_1base_1_1DetImpl.html" target="_top" xlink:title="{o2::base::DetImpl\&lt;\l Detector \&gt;\n||+ getHitBranchNames()\l+ updateHitTrackIndices()\l+ attachHits()\l+ mergeAndAdjustHits()\l+ mergeHitEntries()\l+ fillHitBranch()\l+ CloneModule()\l+ freeHitBuffers()\l+ setHits()\l+ createHitBuffers()\l+ initializeLate()\l+ BeginEvent()\l+ ~DetImpl()\l# ClassDefOverride()\l}">
<polygon fill="none" stroke="black" points="236.23,-326.5 236.23,-537.5 366.23,-537.5 366.23,-326.5 236.23,-326.5"/>
<text text-anchor="start" x="244.23" y="-525.5" font-family="Helvetica,sans-Serif" font-size="10.00">o2::base::DetImpl&lt;</text>
<text text-anchor="middle" x="301.23" y="-514.5" font-family="Helvetica,sans-Serif" font-size="10.00"> Detector &gt;</text>
<polyline fill="none" stroke="black" points="236.23,-507.5 366.23,-507.5 "/>
<text text-anchor="middle" x="301.23" y="-495.5" font-family="Helvetica,sans-Serif" font-size="10.00"> </text>
<polyline fill="none" stroke="black" points="236.23,-488.5 366.23,-488.5 "/>
<text text-anchor="start" x="244.23" y="-476.5" font-family="Helvetica,sans-Serif" font-size="10.00">+ getHitBranchNames()</text>
<text text-anchor="start" x="244.23" y="-465.5" font-family="Helvetica,sans-Serif" font-size="10.00">+ updateHitTrackIndices()</text>
<text text-anchor="start" x="244.23" y="-454.5" font-family="Helvetica,sans-Serif" font-size="10.00">+ attachHits()</text>
<text text-anchor="start" x="244.23" y="-443.5" font-family="Helvetica,sans-Serif" font-size="10.00">+ mergeAndAdjustHits()</text>
<text text-anchor="start" x="244.23" y="-432.5" font-family="Helvetica,sans-Serif" font-size="10.00">+ mergeHitEntries()</text>
<text text-anchor="start" x="244.23" y="-421.5" font-family="Helvetica,sans-Serif" font-size="10.00">+ fillHitBranch()</text>
<text text-anchor="start" x="244.23" y="-410.5" font-family="Helvetica,sans-Serif" font-size="10.00">+ CloneModule()</text>
<text text-anchor="start" x="244.23" y="-399.5" font-family="Helvetica,sans-Serif" font-size="10.00">+ freeHitBuffers()</text>
<text text-anchor="start" x="244.23" y="-388.5" font-family="Helvetica,sans-Serif" font-size="10.00">+ setHits()</text>
<text text-anchor="start" x="244.23" y="-377.5" font-family="Helvetica,sans-Serif" font-size="10.00">+ createHitBuffers()</text>
<text text-anchor="start" x="244.23" y="-366.5" font-family="Helvetica,sans-Serif" font-size="10.00">+ initializeLate()</text>
<text text-anchor="start" x="244.23" y="-355.5" font-family="Helvetica,sans-Serif" font-size="10.00">+ BeginEvent()</text>
<text text-anchor="start" x="244.23" y="-344.5" font-family="Helvetica,sans-Serif" font-size="10.00">+ ~DetImpl()</text>
<text text-anchor="start" x="244.23" y="-333.5" font-family="Helvetica,sans-Serif" font-size="10.00"># ClassDefOverride()</text>
</a>
</g>
</g>
<!-- Node2&#45;&gt;Node1 -->
<g id="edge1" class="edge"><title>Node2&#45;&gt;Node1</title>
<path fill="none" stroke="midnightblue" d="M301.23,-316.177C301.23,-307.135 301.23,-297.937 301.23,-288.737"/>
<polygon fill="none" stroke="midnightblue" points="297.73,-316.311 301.23,-326.311 304.73,-316.312 297.73,-316.311"/>
</g>
<!-- Node3 -->
<g id="node3" class="node"><title>Node3</title>
<g id="a_node3"><a xlink:href="../../d2/d00/classo2_1_1base_1_1Detector.html" target="_top" xlink:title="{o2::base::Detector\n||+ Detector()\l+ Detector()\l+ ~Detector()\l+ Material()\l+ Mixture()\l+ Medium()\l+ SpecialCuts()\l+ SpecialCut()\l+ SpecialProcesses()\l+ SpecialProcess()\l+ Matrix()\l+ SetSpecialPhysicsCuts()\l+ addAlignableVolumes()\l+ defineWrapperVolume()\l+ setNumberOfWrapperVolumes()\l+ defineLayer()\l+ defineLayerTurbo()\l+ getMaterialID()\l+ getMediumID()\l+ getMediumIDMappingAsVector()\l+ addNameTo()\l+ getHitBranchNames()\l+ updateHitTrackIndices()\l+ attachHits()\l+ fillHitBranch()\l+ mergeHitEntries()\l+ InitializeO2Detector()\l+ Initialize()\l+ initializeLate()\l+ registerSensitiveVolumeAnd\lGetVolID()\l+ registerSensitiveVolumeAnd\lGetVolID()\l+ GetCollection()\l+ setDensityFactor()\l+ getDensityFactor()\l+ initFieldTrackingParams()\l# Detector()\l# operator=()\l}">
<polygon fill="none" stroke="black" points="480.73,-855.5 480.73,-1330.5 647.73,-1330.5 647.73,-855.5 480.73,-855.5"/>
<text text-anchor="middle" x="564.23" y="-1318.5" font-family="Helvetica,sans-Serif" font-size="10.00">o2::base::Detector</text>
<polyline fill="none" stroke="black" points="480.73,-1311.5 647.73,-1311.5 "/>
<text text-anchor="middle" x="564.23" y="-1299.5" font-family="Helvetica,sans-Serif" font-size="10.00"> </text>
<polyline fill="none" stroke="black" points="480.73,-1292.5 647.73,-1292.5 "/>
<text text-anchor="start" x="488.73" y="-1280.5" font-family="Helvetica,sans-Serif" font-size="10.00">+ Detector()</text>
<text text-anchor="start" x="488.73" y="-1269.5" font-family="Helvetica,sans-Serif" font-size="10.00">+ Detector()</text>
<text text-anchor="start" x="488.73" y="-1258.5" font-family="Helvetica,sans-Serif" font-size="10.00">+ ~Detector()</text>
<text text-anchor="start" x="488.73" y="-1247.5" font-family="Helvetica,sans-Serif" font-size="10.00">+ Material()</text>
<text text-anchor="start" x="488.73" y="-1236.5" font-family="Helvetica,sans-Serif" font-size="10.00">+ Mixture()</text>
<text text-anchor="start" x="488.73" y="-1225.5" font-family="Helvetica,sans-Serif" font-size="10.00">+ Medium()</text>
<text text-anchor="start" x="488.73" y="-1214.5" font-family="Helvetica,sans-Serif" font-size="10.00">+ SpecialCuts()</text>
<text text-anchor="start" x="488.73" y="-1203.5" font-family="Helvetica,sans-Serif" font-size="10.00">+ SpecialCut()</text>
<text text-anchor="start" x="488.73" y="-1192.5" font-family="Helvetica,sans-Serif" font-size="10.00">+ SpecialProcesses()</text>
<text text-anchor="start" x="488.73" y="-1181.5" font-family="Helvetica,sans-Serif" font-size="10.00">+ SpecialProcess()</text>
<text text-anchor="start" x="488.73" y="-1170.5" font-family="Helvetica,sans-Serif" font-size="10.00">+ Matrix()</text>
<text text-anchor="start" x="488.73" y="-1159.5" font-family="Helvetica,sans-Serif" font-size="10.00">+ SetSpecialPhysicsCuts()</text>
<text text-anchor="start" x="488.73" y="-1148.5" font-family="Helvetica,sans-Serif" font-size="10.00">+ addAlignableVolumes()</text>
<text text-anchor="start" x="488.73" y="-1137.5" font-family="Helvetica,sans-Serif" font-size="10.00">+ defineWrapperVolume()</text>
<text text-anchor="start" x="488.73" y="-1126.5" font-family="Helvetica,sans-Serif" font-size="10.00">+ setNumberOfWrapperVolumes()</text>
<text text-anchor="start" x="488.73" y="-1115.5" font-family="Helvetica,sans-Serif" font-size="10.00">+ defineLayer()</text>
<text text-anchor="start" x="488.73" y="-1104.5" font-family="Helvetica,sans-Serif" font-size="10.00">+ defineLayerTurbo()</text>
<text text-anchor="start" x="488.73" y="-1093.5" font-family="Helvetica,sans-Serif" font-size="10.00">+ getMaterialID()</text>
<text text-anchor="start" x="488.73" y="-1082.5" font-family="Helvetica,sans-Serif" font-size="10.00">+ getMediumID()</text>
<text text-anchor="start" x="488.73" y="-1071.5" font-family="Helvetica,sans-Serif" font-size="10.00">+ getMediumIDMappingAsVector()</text>
<text text-anchor="start" x="488.73" y="-1060.5" font-family="Helvetica,sans-Serif" font-size="10.00">+ addNameTo()</text>
<text text-anchor="start" x="488.73" y="-1049.5" font-family="Helvetica,sans-Serif" font-size="10.00">+ getHitBranchNames()</text>
<text text-anchor="start" x="488.73" y="-1038.5" font-family="Helvetica,sans-Serif" font-size="10.00">+ updateHitTrackIndices()</text>
<text text-anchor="start" x="488.73" y="-1027.5" font-family="Helvetica,sans-Serif" font-size="10.00">+ attachHits()</text>
<text text-anchor="start" x="488.73" y="-1016.5" font-family="Helvetica,sans-Serif" font-size="10.00">+ fillHitBranch()</text>
<text text-anchor="start" x="488.73" y="-1005.5" font-family="Helvetica,sans-Serif" font-size="10.00">+ mergeHitEntries()</text>
<text text-anchor="start" x="488.73" y="-994.5" font-family="Helvetica,sans-Serif" font-size="10.00">+ InitializeO2Detector()</text>
<text text-anchor="start" x="488.73" y="-983.5" font-family="Helvetica,sans-Serif" font-size="10.00">+ Initialize()</text>
<text text-anchor="start" x="488.73" y="-972.5" font-family="Helvetica,sans-Serif" font-size="10.00">+ initializeLate()</text>
<text text-anchor="start" x="488.73" y="-961.5" font-family="Helvetica,sans-Serif" font-size="10.00">+ registerSensitiveVolumeAnd</text>
<text text-anchor="start" x="488.73" y="-950.5" font-family="Helvetica,sans-Serif" font-size="10.00">GetVolID()</text>
<text text-anchor="start" x="488.73" y="-939.5" font-family="Helvetica,sans-Serif" font-size="10.00">+ registerSensitiveVolumeAnd</text>
<text text-anchor="start" x="488.73" y="-928.5" font-family="Helvetica,sans-Serif" font-size="10.00">GetVolID()</text>
<text text-anchor="start" x="488.73" y="-917.5" font-family="Helvetica,sans-Serif" font-size="10.00">+ GetCollection()</text>
<text text-anchor="start" x="488.73" y="-906.5" font-family="Helvetica,sans-Serif" font-size="10.00">+ setDensityFactor()</text>
<text text-anchor="start" x="488.73" y="-895.5" font-family="Helvetica,sans-Serif" font-size="10.00">+ getDensityFactor()</text>
<text text-anchor="start" x="488.73" y="-884.5" font-family="Helvetica,sans-Serif" font-size="10.00">+ initFieldTrackingParams()</text>
<text text-anchor="start" x="488.73" y="-873.5" font-family="Helvetica,sans-Serif" font-size="10.00"># Detector()</text>
<text text-anchor="start" x="488.73" y="-862.5" font-family="Helvetica,sans-Serif" font-size="10.00"># operator=()</text>
</a>
</g>
</g>
<!-- Node3&#45;&gt;Node2 -->
<g id="edge2" class="edge"><title>Node3&#45;&gt;Node2</title>
<path fill="none" stroke="midnightblue" d="M640.141,-845.03C638.997,-834.871 637.069,-824.828 634.23,-815 600.69,-698.907 569.516,-675.313 489.23,-585 452.838,-544.063 404.695,-505.364 366.238,-477.259"/>
<polygon fill="none" stroke="midnightblue" points="636.674,-845.565 641.029,-855.224 643.648,-844.958 636.674,-845.565"/>
</g>
<!-- Node9 -->
<g id="node9" class="node"><title>Node9</title>
<g id="a_node9"><a xlink:href="../../de/dc8/classo2_1_1base_1_1DetImpl.html" target="_top" xlink:title="{o2::base::DetImpl\&lt;\l Det \&gt;\n||+ getHitBranchNames()\l+ updateHitTrackIndices()\l+ attachHits()\l+ mergeAndAdjustHits()\l+ mergeHitEntries()\l+ fillHitBranch()\l+ CloneModule()\l+ freeHitBuffers()\l+ setHits()\l+ createHitBuffers()\l+ initializeLate()\l+ BeginEvent()\l+ ~DetImpl()\l# ClassDefOverride()\l}">
<polygon fill="none" stroke="black" points="350.23,-585.5 350.23,-796.5 480.23,-796.5 480.23,-585.5 350.23,-585.5"/>
<text text-anchor="start" x="358.23" y="-784.5" font-family="Helvetica,sans-Serif" font-size="10.00">o2::base::DetImpl&lt;</text>
<text text-anchor="middle" x="415.23" y="-773.5" font-family="Helvetica,sans-Serif" font-size="10.00"> Det &gt;</text>
<polyline fill="none" stroke="black" points="350.23,-766.5 480.23,-766.5 "/>
<text text-anchor="middle" x="415.23" y="-754.5" font-family="Helvetica,sans-Serif" font-size="10.00"> </text>
<polyline fill="none" stroke="black" points="350.23,-747.5 480.23,-747.5 "/>
<text text-anchor="start" x="358.23" y="-735.5" font-family="Helvetica,sans-Serif" font-size="10.00">+ getHitBranchNames()</text>
<text text-anchor="start" x="358.23" y="-724.5" font-family="Helvetica,sans-Serif" font-size="10.00">+ updateHitTrackIndices()</text>
<text text-anchor="start" x="358.23" y="-713.5" font-family="Helvetica,sans-Serif" font-size="10.00">+ attachHits()</text>
<text text-anchor="start" x="358.23" y="-702.5" font-family="Helvetica,sans-Serif" font-size="10.00">+ mergeAndAdjustHits()</text>
<text text-anchor="start" x="358.23" y="-691.5" font-family="Helvetica,sans-Serif" font-size="10.00">+ mergeHitEntries()</text>
<text text-anchor="start" x="358.23" y="-680.5" font-family="Helvetica,sans-Serif" font-size="10.00">+ fillHitBranch()</text>
<text text-anchor="start" x="358.23" y="-669.5" font-family="Helvetica,sans-Serif" font-size="10.00">+ CloneModule()</text>
<text text-anchor="start" x="358.23" y="-658.5" font-family="Helvetica,sans-Serif" font-size="10.00">+ freeHitBuffers()</text>
<text text-anchor="start" x="358.23" y="-647.5" font-family="Helvetica,sans-Serif" font-size="10.00">+ setHits()</text>
<text text-anchor="start" x="358.23" y="-636.5" font-family="Helvetica,sans-Serif" font-size="10.00">+ createHitBuffers()</text>
<text text-anchor="start" x="358.23" y="-625.5" font-family="Helvetica,sans-Serif" font-size="10.00">+ initializeLate()</text>
<text text-anchor="start" x="358.23" y="-614.5" font-family="Helvetica,sans-Serif" font-size="10.00">+ BeginEvent()</text>
<text text-anchor="start" x="358.23" y="-603.5" font-family="Helvetica,sans-Serif" font-size="10.00">+ ~DetImpl()</text>
<text text-anchor="start" x="358.23" y="-592.5" font-family="Helvetica,sans-Serif" font-size="10.00"># ClassDefOverride()</text>
</a>
</g>
</g>
<!-- Node3&#45;&gt;Node9 -->
<g id="edge9" class="edge"><title>Node3&#45;&gt;Node9</title>
<path fill="none" stroke="midnightblue" d="M516.549,-845.579C512.744,-835.128 508.644,-824.89 504.23,-815 497.729,-800.438 489.331,-785.89 480.294,-772.161"/>
<polygon fill="none" stroke="midnightblue" points="513.329,-846.972 519.962,-855.234 519.929,-844.64 513.329,-846.972"/>
</g>
<!-- Node4 -->
<g id="node4" class="node"><title>Node4</title>
<g id="a_node4"><a xlink:href="../../d6/d0c/classFairDetector.html" target="_top" xlink:title="{FairDetector\n||}">
<polygon fill="none" stroke="black" points="528.73,-1368.5 528.73,-1425.5 599.73,-1425.5 599.73,-1368.5 528.73,-1368.5"/>
<text text-anchor="middle" x="564.23" y="-1413.5" font-family="Helvetica,sans-Serif" font-size="10.00">FairDetector</text>
<polyline fill="none" stroke="black" points="528.73,-1406.5 599.73,-1406.5 "/>
<text text-anchor="middle" x="564.23" y="-1394.5" font-family="Helvetica,sans-Serif" font-size="10.00"> </text>
<polyline fill="none" stroke="black" points="528.73,-1387.5 599.73,-1387.5 "/>
<text text-anchor="middle" x="564.23" y="-1375.5" font-family="Helvetica,sans-Serif" font-size="10.00"> </text>
</a>
</g>
</g>
<!-- Node4&#45;&gt;Node3 -->
<g id="edge3" class="edge"><title>Node4&#45;&gt;Node3</title>
<path fill="none" stroke="midnightblue" d="M564.23,-1358.23C564.23,-1350.01 564.23,-1340.74 564.23,-1330.72"/>
<polygon fill="none" stroke="midnightblue" points="560.73,-1358.4 564.23,-1368.4 567.73,-1358.4 560.73,-1358.4"/>
</g>
<!-- Node5 -->
<g id="node5" class="node"><title>Node5</title>
<g id="a_node5"><a xlink:href="../../d4/d34/classstatic_01constexpr_01int.html" target="_top" xlink:title="{static constexpr int\n||}">
<polygon fill="none" stroke="black" points="102.23,-662.5 102.23,-719.5 202.23,-719.5 202.23,-662.5 102.23,-662.5"/>
<text text-anchor="middle" x="152.23" y="-707.5" font-family="Helvetica,sans-Serif" font-size="10.00">static constexpr int</text>
<polyline fill="none" stroke="black" points="102.23,-700.5 202.23,-700.5 "/>
<text text-anchor="middle" x="152.23" y="-688.5" font-family="Helvetica,sans-Serif" font-size="10.00"> </text>
<polyline fill="none" stroke="black" points="102.23,-681.5 202.23,-681.5 "/>
<text text-anchor="middle" x="152.23" y="-669.5" font-family="Helvetica,sans-Serif" font-size="10.00"> </text>
</a>
</g>
</g>
<!-- Node5&#45;&gt;Node2 -->
<g id="edge4" class="edge"><title>Node5&#45;&gt;Node2</title>
<path fill="none" stroke="#404040" d="M144.966,-662.314C139.088,-634.111 134.152,-589.833 150.23,-556 166.262,-522.262 196.578,-494.737 225.863,-474.345"/>
<polygon fill="none" stroke="#404040" points="226.193,-474.123 228.943,-467.457 236.154,-467.431 233.404,-474.098 226.193,-474.123"/>
<text text-anchor="middle" x="190.23" y="-559" font-family="Helvetica,sans-Serif" font-size="10.00"> #NHITBUFFERS</text>
</g>
<!-- Node6 -->
<g id="node6" class="node"><title>Node6</title>
<polygon fill="none" stroke="#bfbfbf" points="121.73,-1064.5 121.73,-1121.5 162.73,-1121.5 162.73,-1064.5 121.73,-1064.5"/>
<text text-anchor="middle" x="142.23" y="-1109.5" font-family="Helvetica,sans-Serif" font-size="10.00">bool *</text>
<polyline fill="none" stroke="#bfbfbf" points="121.73,-1102.5 162.73,-1102.5 "/>
<text text-anchor="middle" x="142.23" y="-1090.5" font-family="Helvetica,sans-Serif" font-size="10.00"> </text>
<polyline fill="none" stroke="#bfbfbf" points="121.73,-1083.5 162.73,-1083.5 "/>
<text text-anchor="middle" x="142.23" y="-1071.5" font-family="Helvetica,sans-Serif" font-size="10.00"> </text>
</g>
<!-- Node6&#45;&gt;Node2 -->
<g id="edge5" class="edge"><title>Node6&#45;&gt;Node2</title>
<path fill="none" stroke="#404040" d="M123.535,-1064.31C72.0591,-984.316 -61.8183,-748.179 33.2296,-585 74.0987,-514.836 160.733,-474.437 224.487,-453.174"/>
<polygon fill="none" stroke="#404040" points="224.689,-453.109 229.171,-447.459 236.109,-449.423 231.627,-455.073 224.689,-453.109"/>
<text text-anchor="middle" x="63.2296" y="-688.5" font-family="Helvetica,sans-Serif" font-size="10.00"> #mShmBusy</text>
</g>
<!-- Node6&#45;&gt;Node9 -->
<g id="edge10" class="edge"><title>Node6&#45;&gt;Node9</title>
<path fill="none" stroke="#404040" d="M151.328,-1064.29C169.722,-1011.35 215.437,-894.062 283.23,-815 292.142,-804.606 297.758,-805.82 308.23,-797 319.194,-787.765 330.393,-777.644 341.218,-767.445"/>
<polygon fill="none" stroke="#404040" points="341.523,-767.155 343.108,-760.12 350.211,-758.877 348.626,-765.912 341.523,-767.155"/>
<text text-anchor="middle" x="313.23" y="-823.5" font-family="Helvetica,sans-Serif" font-size="10.00"> #mShmBusy</text>
</g>
<!-- Node7 -->
<g id="node7" class="node"><title>Node7</title>
<polygon fill="none" stroke="#bfbfbf" points="672.73,-1064.5 672.73,-1121.5 701.73,-1121.5 701.73,-1064.5 672.73,-1064.5"/>
<text text-anchor="middle" x="687.23" y="-1109.5" font-family="Helvetica,sans-Serif" font-size="10.00">int</text>
<polyline fill="none" stroke="#bfbfbf" points="672.73,-1102.5 701.73,-1102.5 "/>
<text text-anchor="middle" x="687.23" y="-1090.5" font-family="Helvetica,sans-Serif" font-size="10.00"> </text>
<polyline fill="none" stroke="#bfbfbf" points="672.73,-1083.5 701.73,-1083.5 "/>
<text text-anchor="middle" x="687.23" y="-1071.5" font-family="Helvetica,sans-Serif" font-size="10.00"> </text>
</g>
<!-- Node7&#45;&gt;Node2 -->
<g id="edge6" class="edge"><title>Node7&#45;&gt;Node2</title>
<path fill="none" stroke="#404040" d="M689.147,-1064.39C693.38,-981.539 694.858,-731.73 573.23,-585 521.987,-523.181 438.723,-481.949 377.799,-458.213"/>
<polygon fill="none" stroke="#404040" points="377.527,-458.11 370.497,-459.714 366.312,-453.841 373.343,-452.237 377.527,-458.11"/>
<text text-anchor="middle" x="706.23" y="-694" font-family="Helvetica,sans-Serif" font-size="10.00"> #mCurrentBuffer</text>
<text text-anchor="middle" x="706.23" y="-683" font-family="Helvetica,sans-Serif" font-size="10.00">#mInitialized</text>
</g>
<!-- Node7&#45;&gt;Node9 -->
<g id="edge11" class="edge"><title>Node7&#45;&gt;Node9</title>
<path fill="none" stroke="#404040" d="M692.152,-1064.29C699.061,-1016 705.776,-915.795 656.23,-855 640.779,-836.042 625.764,-848.592 604.23,-837 563.96,-815.322 523.214,-785.316 489.917,-758.222"/>
<polygon fill="none" stroke="#404040" points="489.549,-757.919 482.374,-757.195 480.282,-750.294 487.457,-751.017 489.549,-757.919"/>
<text text-anchor="middle" x="642.23" y="-829" font-family="Helvetica,sans-Serif" font-size="10.00"> #mCurrentBuffer</text>
<text text-anchor="middle" x="642.23" y="-818" font-family="Helvetica,sans-Serif" font-size="10.00">#mInitialized</text>
</g>
<!-- Node8 -->
<g id="node8" class="node"><title>Node8</title>
<polygon fill="none" stroke="#bfbfbf" points="299.23,-1064.5 299.23,-1121.5 385.23,-1121.5 385.23,-1064.5 299.23,-1064.5"/>
<text text-anchor="middle" x="342.23" y="-1109.5" font-family="Helvetica,sans-Serif" font-size="10.00">vector&lt; void * &gt;</text>
<polyline fill="none" stroke="#bfbfbf" points="299.23,-1102.5 385.23,-1102.5 "/>
<text text-anchor="middle" x="342.23" y="-1090.5" font-family="Helvetica,sans-Serif" font-size="10.00"> </text>
<polyline fill="none" stroke="#bfbfbf" points="299.23,-1083.5 385.23,-1083.5 "/>
<text text-anchor="middle" x="342.23" y="-1071.5" font-family="Helvetica,sans-Serif" font-size="10.00"> </text>
</g>
<!-- Node8&#45;&gt;Node2 -->
<g id="edge7" class="edge"><title>Node8&#45;&gt;Node2</title>
<path fill="none" stroke="#404040" d="M330.779,-1064.33C312.369,-1018.19 276.963,-922.163 264.23,-837 256.906,-788.017 218.423,-1134.92 277.23,-585 278.442,-573.663 279.917,-561.883 281.533,-550.12"/>
<polygon fill="none" stroke="#404040" points="281.583,-549.771 278.463,-543.27 283.264,-537.889 286.384,-544.391 281.583,-549.771"/>
<text text-anchor="middle" x="309.23" y="-688.5" font-family="Helvetica,sans-Serif" font-size="10.00"> #mCachedPtr</text>
</g>
<!-- Node8&#45;&gt;Node9 -->
<g id="edge12" class="edge"><title>Node8&#45;&gt;Node9</title>
<path fill="none" stroke="#404040" d="M339.322,-1064.3C334.872,-1013.78 329.131,-903.714 352.23,-815 352.794,-812.831 353.402,-810.656 354.048,-808.478"/>
<polygon fill="none" stroke="#404040" points="354.126,-808.24 352.188,-801.294 357.853,-796.833 359.792,-803.779 354.126,-808.24"/>
<text text-anchor="middle" x="384.23" y="-823.5" font-family="Helvetica,sans-Serif" font-size="10.00"> #mCachedPtr</text>
</g>
<!-- Node9&#45;&gt;Node2 -->
<g id="edge8" class="edge"><title>Node9&#45;&gt;Node2</title>
<path fill="none" stroke="orange" d="M364.758,-576.218C359.097,-563.456 353.349,-550.498 347.742,-537.856"/>
<polygon fill="orange" stroke="orange" points="361.607,-577.746 368.861,-585.468 368.006,-574.908 361.607,-577.746"/>
<text text-anchor="middle" x="387.73" y="-559" font-family="Helvetica,sans-Serif" font-size="10.00"> &lt; Detector &gt;</text>
</g>
<!-- Node10 -->
<g id="node10" class="node"><title>Node10</title>
<polygon fill="none" stroke="#bfbfbf" points="408.73,-1064.5 408.73,-1121.5 449.73,-1121.5 449.73,-1064.5 408.73,-1064.5"/>
<text text-anchor="middle" x="429.23" y="-1109.5" font-family="Helvetica,sans-Serif" font-size="10.00">static</text>
<polyline fill="none" stroke="#bfbfbf" points="408.73,-1102.5 449.73,-1102.5 "/>
<text text-anchor="middle" x="429.23" y="-1090.5" font-family="Helvetica,sans-Serif" font-size="10.00"> </text>
<polyline fill="none" stroke="#bfbfbf" points="408.73,-1083.5 449.73,-1083.5 "/>
<text text-anchor="middle" x="429.23" y="-1071.5" font-family="Helvetica,sans-Serif" font-size="10.00"> </text>
</g>
<!-- Node10&#45;&gt;Node9 -->
<g id="edge13" class="edge"><title>Node10&#45;&gt;Node9</title>
<path fill="none" stroke="#404040" d="M428.256,-1064.19C426.433,-1012.1 422.409,-897.123 419.312,-808.647"/>
<polygon fill="none" stroke="#404040" points="419.311,-808.616 415.104,-802.76 418.891,-796.623 423.099,-802.48 419.311,-808.616"/>
<text text-anchor="middle" x="460.23" y="-823.5" font-family="Helvetica,sans-Serif" font-size="10.00"> #NHITBUFFERS</text>
</g>
</g>
</svg>
