<?xml version="1.0" encoding="UTF-8" standalone="no"?>
<!DOCTYPE svg PUBLIC "-//W3C//DTD SVG 1.1//EN"
 "http://www.w3.org/Graphics/SVG/1.1/DTD/svg11.dtd">
<!-- Generated by graphviz version 2.38.0 (20140413.2041)
 -->
<!-- Title: o2::mft::GeometryTGeo Pages: 1 -->
<svg width="753pt" height="1642pt"
 viewBox="0.00 0.00 753.00 1642.00" xmlns="http://www.w3.org/2000/svg" xmlns:xlink="http://www.w3.org/1999/xlink">
<g id="graph0" class="graph" transform="scale(1 1) rotate(0) translate(4 1638)">
<title>o2::mft::GeometryTGeo</title>
<!-- Node1 -->
<g id="node1" class="node"><title>Node1</title>
<polygon fill="#bfbfbf" stroke="black" points="251,-0.5 251,-409.5 421,-409.5 421,-0.5 251,-0.5"/>
<text text-anchor="middle" x="336" y="-397.5" font-family="Helvetica,sans-Serif" font-size="10.00">o2::mft::GeometryTGeo</text>
<polyline fill="none" stroke="black" points="251,-390.5 421,-390.5 "/>
<text text-anchor="middle" x="336" y="-378.5" font-family="Helvetica,sans-Serif" font-size="10.00"> </text>
<polyline fill="none" stroke="black" points="251,-371.5 421,-371.5 "/>
<text text-anchor="start" x="259" y="-359.5" font-family="Helvetica,sans-Serif" font-size="10.00">+ GeometryTGeo()</text>
<text text-anchor="start" x="259" y="-348.5" font-family="Helvetica,sans-Serif" font-size="10.00">+ ~GeometryTGeo()</text>
<text text-anchor="start" x="259" y="-337.5" font-family="Helvetica,sans-Serif" font-size="10.00">+ GeometryTGeo()</text>
<text text-anchor="start" x="259" y="-326.5" font-family="Helvetica,sans-Serif" font-size="10.00">+ operator=()</text>
<text text-anchor="start" x="259" y="-315.5" font-family="Helvetica,sans-Serif" font-size="10.00">+ fillMatrixCache()</text>
<text text-anchor="start" x="259" y="-304.5" font-family="Helvetica,sans-Serif" font-size="10.00">+ Build()</text>
<text text-anchor="start" x="259" y="-293.5" font-family="Helvetica,sans-Serif" font-size="10.00">+ getSensorIndex()</text>
<text text-anchor="start" x="259" y="-282.5" font-family="Helvetica,sans-Serif" font-size="10.00">+ getLayer()</text>
<text text-anchor="start" x="259" y="-271.5" font-family="Helvetica,sans-Serif" font-size="10.00">+ getSensorID()</text>
<text text-anchor="start" x="259" y="-260.5" font-family="Helvetica,sans-Serif" font-size="10.00">+ getNumberOfSensorsPerLadder()</text>
<text text-anchor="start" x="259" y="-249.5" font-family="Helvetica,sans-Serif" font-size="10.00">+ getLadderID()</text>
<text text-anchor="start" x="259" y="-238.5" font-family="Helvetica,sans-Serif" font-size="10.00">+ Instance()</text>
<text text-anchor="start" x="259" y="-227.5" font-family="Helvetica,sans-Serif" font-size="10.00">+ adopt()</text>
<text text-anchor="start" x="259" y="-216.5" font-family="Helvetica,sans-Serif" font-size="10.00">+ getMFTVolPattern()</text>
<text text-anchor="start" x="259" y="-205.5" font-family="Helvetica,sans-Serif" font-size="10.00">+ getMFTHalfPattern()</text>
<text text-anchor="start" x="259" y="-194.5" font-family="Helvetica,sans-Serif" font-size="10.00">+ getMFTDiskPattern()</text>
<text text-anchor="start" x="259" y="-183.5" font-family="Helvetica,sans-Serif" font-size="10.00">+ getMFTLadderPattern()</text>
<text text-anchor="start" x="259" y="-172.5" font-family="Helvetica,sans-Serif" font-size="10.00">+ getMFTChipPattern()</text>
<text text-anchor="start" x="259" y="-161.5" font-family="Helvetica,sans-Serif" font-size="10.00">+ getMFTSensorPattern()</text>
<text text-anchor="start" x="259" y="-150.5" font-family="Helvetica,sans-Serif" font-size="10.00"># extractNumberOfHalves()</text>
<text text-anchor="start" x="259" y="-139.5" font-family="Helvetica,sans-Serif" font-size="10.00"># extractNumberOfDisks()</text>
<text text-anchor="start" x="259" y="-128.5" font-family="Helvetica,sans-Serif" font-size="10.00"># extractNumberOfLadders()</text>
<text text-anchor="start" x="259" y="-117.5" font-family="Helvetica,sans-Serif" font-size="10.00"># extractNumberOfLadders()</text>
<text text-anchor="start" x="259" y="-106.5" font-family="Helvetica,sans-Serif" font-size="10.00"># extractNumberOfSensorsPer</text>
<text text-anchor="start" x="259" y="-95.5" font-family="Helvetica,sans-Serif" font-size="10.00">Ladder()</text>
<text text-anchor="start" x="259" y="-84.5" font-family="Helvetica,sans-Serif" font-size="10.00"># extractVolumeCopy()</text>
<text text-anchor="start" x="259" y="-73.5" font-family="Helvetica,sans-Serif" font-size="10.00"># extractMatrixSensor()</text>
<text text-anchor="start" x="259" y="-62.5" font-family="Helvetica,sans-Serif" font-size="10.00"># createT2LMatrix()</text>
<text text-anchor="start" x="259" y="-51.5" font-family="Helvetica,sans-Serif" font-size="10.00"># extractSensorXAlpha()</text>
<text text-anchor="start" x="259" y="-40.5" font-family="Helvetica,sans-Serif" font-size="10.00"># getHalf()</text>
<text text-anchor="start" x="259" y="-29.5" font-family="Helvetica,sans-Serif" font-size="10.00"># getDisk()</text>
<text text-anchor="start" x="259" y="-18.5" font-family="Helvetica,sans-Serif" font-size="10.00"># getLadder()</text>
<text text-anchor="start" x="259" y="-7.5" font-family="Helvetica,sans-Serif" font-size="10.00"># getFirstSensorIndex()</text>
</g>
<!-- Node2 -->
<g id="node2" class="node"><title>Node2</title>
<g id="a_node2"><a xlink:href="../../d9/d02/classo2_1_1itsmft_1_1GeometryTGeo.html" target="_top" xlink:title="{o2::itsmft::GeometryTGeo\n||+ GeometryTGeo()\l+ GeometryTGeo()\l+ operator=()\l+ GeometryTGeo()\l+ ~GeometryTGeo()\l+ getNumberOfChips()\l+ Build()\l# ClassDefOverride()\l}">
<polygon fill="none" stroke="black" points="91.5,-501.5 91.5,-635.5 222.5,-635.5 222.5,-501.5 91.5,-501.5"/>
<text text-anchor="middle" x="157" y="-623.5" font-family="Helvetica,sans-Serif" font-size="10.00">o2::itsmft::GeometryTGeo</text>
<polyline fill="none" stroke="black" points="91.5,-616.5 222.5,-616.5 "/>
<text text-anchor="middle" x="157" y="-604.5" font-family="Helvetica,sans-Serif" font-size="10.00"> </text>
<polyline fill="none" stroke="black" points="91.5,-597.5 222.5,-597.5 "/>
<text text-anchor="start" x="99.5" y="-585.5" font-family="Helvetica,sans-Serif" font-size="10.00">+ GeometryTGeo()</text>
<text text-anchor="start" x="99.5" y="-574.5" font-family="Helvetica,sans-Serif" font-size="10.00">+ GeometryTGeo()</text>
<text text-anchor="start" x="99.5" y="-563.5" font-family="Helvetica,sans-Serif" font-size="10.00">+ operator=()</text>
<text text-anchor="start" x="99.5" y="-552.5" font-family="Helvetica,sans-Serif" font-size="10.00">+ GeometryTGeo()</text>
<text text-anchor="start" x="99.5" y="-541.5" font-family="Helvetica,sans-Serif" font-size="10.00">+ ~GeometryTGeo()</text>
<text text-anchor="start" x="99.5" y="-530.5" font-family="Helvetica,sans-Serif" font-size="10.00">+ getNumberOfChips()</text>
<text text-anchor="start" x="99.5" y="-519.5" font-family="Helvetica,sans-Serif" font-size="10.00">+ Build()</text>
<text text-anchor="start" x="99.5" y="-508.5" font-family="Helvetica,sans-Serif" font-size="10.00"># ClassDefOverride()</text>
</a>
</g>
</g>
<!-- Node2&#45;&gt;Node1 -->
<g id="edge1" class="edge"><title>Node2&#45;&gt;Node1</title>
<path fill="none" stroke="midnightblue" d="M194.383,-492.002C210.875,-458.697 230.99,-418.074 250.821,-378.024"/>
<polygon fill="none" stroke="midnightblue" points="191.132,-490.681 189.831,-501.195 197.405,-493.787 191.132,-490.681"/>
</g>
<!-- Node3 -->
<g id="node3" class="node"><title>Node3</title>
<g id="a_node3"><a xlink:href="../../df/d06/classo2_1_1detectors_1_1DetMatrixCache.html" target="_top" xlink:title="{o2::detectors::DetMatrix\lCache\n||+ DetMatrixCache()\l+ DetMatrixCache()\l+ ~DetMatrixCache()\l+ DetMatrixCache()\l+ operator=()\l+ getDetID()\l+ getName()\l+ getCacheT2L()\l+ getCacheT2G()\l+ getCacheL2G()\l+ getCacheT2GRot()\l+ getMatrixT2L()\l+ getMatrixT2G()\l+ getMatrixL2G()\l+ getMatrixT2GRot()\l+ isBuilt()\l+ getSize()\l+ fillMatrixCache()\l+ setSize()\l+ getCacheT2L()\l+ getCacheT2G()\l+ getCacheL2G()\l+ getCacheT2GRot()\l+ ClassDef()\l}">
<polygon fill="none" stroke="black" points="159,-673.5 159,-994.5 281,-994.5 281,-673.5 159,-673.5"/>
<text text-anchor="start" x="167" y="-982.5" font-family="Helvetica,sans-Serif" font-size="10.00">o2::detectors::DetMatrix</text>
<text text-anchor="middle" x="220" y="-971.5" font-family="Helvetica,sans-Serif" font-size="10.00">Cache</text>
<polyline fill="none" stroke="black" points="159,-964.5 281,-964.5 "/>
<text text-anchor="middle" x="220" y="-952.5" font-family="Helvetica,sans-Serif" font-size="10.00"> </text>
<polyline fill="none" stroke="black" points="159,-945.5 281,-945.5 "/>
<text text-anchor="start" x="167" y="-933.5" font-family="Helvetica,sans-Serif" font-size="10.00">+ DetMatrixCache()</text>
<text text-anchor="start" x="167" y="-922.5" font-family="Helvetica,sans-Serif" font-size="10.00">+ DetMatrixCache()</text>
<text text-anchor="start" x="167" y="-911.5" font-family="Helvetica,sans-Serif" font-size="10.00">+ ~DetMatrixCache()</text>
<text text-anchor="start" x="167" y="-900.5" font-family="Helvetica,sans-Serif" font-size="10.00">+ DetMatrixCache()</text>
<text text-anchor="start" x="167" y="-889.5" font-family="Helvetica,sans-Serif" font-size="10.00">+ operator=()</text>
<text text-anchor="start" x="167" y="-878.5" font-family="Helvetica,sans-Serif" font-size="10.00">+ getDetID()</text>
<text text-anchor="start" x="167" y="-867.5" font-family="Helvetica,sans-Serif" font-size="10.00">+ getName()</text>
<text text-anchor="start" x="167" y="-856.5" font-family="Helvetica,sans-Serif" font-size="10.00">+ getCacheT2L()</text>
<text text-anchor="start" x="167" y="-845.5" font-family="Helvetica,sans-Serif" font-size="10.00">+ getCacheT2G()</text>
<text text-anchor="start" x="167" y="-834.5" font-family="Helvetica,sans-Serif" font-size="10.00">+ getCacheL2G()</text>
<text text-anchor="start" x="167" y="-823.5" font-family="Helvetica,sans-Serif" font-size="10.00">+ getCacheT2GRot()</text>
<text text-anchor="start" x="167" y="-812.5" font-family="Helvetica,sans-Serif" font-size="10.00">+ getMatrixT2L()</text>
<text text-anchor="start" x="167" y="-801.5" font-family="Helvetica,sans-Serif" font-size="10.00">+ getMatrixT2G()</text>
<text text-anchor="start" x="167" y="-790.5" font-family="Helvetica,sans-Serif" font-size="10.00">+ getMatrixL2G()</text>
<text text-anchor="start" x="167" y="-779.5" font-family="Helvetica,sans-Serif" font-size="10.00">+ getMatrixT2GRot()</text>
<text text-anchor="start" x="167" y="-768.5" font-family="Helvetica,sans-Serif" font-size="10.00">+ isBuilt()</text>
<text text-anchor="start" x="167" y="-757.5" font-family="Helvetica,sans-Serif" font-size="10.00">+ getSize()</text>
<text text-anchor="start" x="167" y="-746.5" font-family="Helvetica,sans-Serif" font-size="10.00">+ fillMatrixCache()</text>
<text text-anchor="start" x="167" y="-735.5" font-family="Helvetica,sans-Serif" font-size="10.00">+ setSize()</text>
<text text-anchor="start" x="167" y="-724.5" font-family="Helvetica,sans-Serif" font-size="10.00">+ getCacheT2L()</text>
<text text-anchor="start" x="167" y="-713.5" font-family="Helvetica,sans-Serif" font-size="10.00">+ getCacheT2G()</text>
<text text-anchor="start" x="167" y="-702.5" font-family="Helvetica,sans-Serif" font-size="10.00">+ getCacheL2G()</text>
<text text-anchor="start" x="167" y="-691.5" font-family="Helvetica,sans-Serif" font-size="10.00">+ getCacheT2GRot()</text>
<text text-anchor="start" x="167" y="-680.5" font-family="Helvetica,sans-Serif" font-size="10.00">+ ClassDef()</text>
</a>
</g>
</g>
<!-- Node3&#45;&gt;Node2 -->
<g id="edge2" class="edge"><title>Node3&#45;&gt;Node2</title>
<path fill="none" stroke="midnightblue" d="M179.483,-663.537C177.179,-653.899 174.945,-644.556 172.837,-635.738"/>
<polygon fill="none" stroke="midnightblue" points="176.079,-664.352 181.809,-673.264 182.887,-662.724 176.079,-664.352"/>
</g>
<!-- Node4 -->
<g id="node4" class="node"><title>Node4</title>
<g id="a_node4"><a xlink:href="../../d6/dd5/classo2_1_1detectors_1_1DetID.html" target="_top" xlink:title="Static class with identifiers, bitmasks and names for ALICE detectors. ">
<polygon fill="none" stroke="black" points="28,-1064.5 28,-1330.5 134,-1330.5 134,-1064.5 28,-1064.5"/>
<text text-anchor="middle" x="81" y="-1318.5" font-family="Helvetica,sans-Serif" font-size="10.00">o2::detectors::DetID</text>
<polyline fill="none" stroke="black" points="28,-1311.5 134,-1311.5 "/>
<text text-anchor="start" x="36" y="-1299.5" font-family="Helvetica,sans-Serif" font-size="10.00">+ ITS</text>
<text text-anchor="start" x="36" y="-1288.5" font-family="Helvetica,sans-Serif" font-size="10.00">+ TOF</text>
<text text-anchor="start" x="36" y="-1277.5" font-family="Helvetica,sans-Serif" font-size="10.00">+ PHS</text>
<text text-anchor="start" x="36" y="-1266.5" font-family="Helvetica,sans-Serif" font-size="10.00">+ CPV</text>
<text text-anchor="start" x="36" y="-1255.5" font-family="Helvetica,sans-Serif" font-size="10.00">+ EMC</text>
<text text-anchor="start" x="36" y="-1244.5" font-family="Helvetica,sans-Serif" font-size="10.00">+ HMP</text>
<text text-anchor="start" x="36" y="-1233.5" font-family="Helvetica,sans-Serif" font-size="10.00">+ MFT</text>
<text text-anchor="start" x="36" y="-1222.5" font-family="Helvetica,sans-Serif" font-size="10.00">+ MID</text>
<text text-anchor="start" x="36" y="-1211.5" font-family="Helvetica,sans-Serif" font-size="10.00">+ Last</text>
<polyline fill="none" stroke="black" points="28,-1204.5 134,-1204.5 "/>
<text text-anchor="start" x="36" y="-1192.5" font-family="Helvetica,sans-Serif" font-size="10.00">+ DetID()</text>
<text text-anchor="start" x="36" y="-1181.5" font-family="Helvetica,sans-Serif" font-size="10.00">+ DetID()</text>
<text text-anchor="start" x="36" y="-1170.5" font-family="Helvetica,sans-Serif" font-size="10.00">+ DetID()</text>
<text text-anchor="start" x="36" y="-1159.5" font-family="Helvetica,sans-Serif" font-size="10.00">+ operator=()</text>
<text text-anchor="start" x="36" y="-1148.5" font-family="Helvetica,sans-Serif" font-size="10.00">+ getID()</text>
<text text-anchor="start" x="36" y="-1137.5" font-family="Helvetica,sans-Serif" font-size="10.00">+ getMask()</text>
<text text-anchor="start" x="36" y="-1126.5" font-family="Helvetica,sans-Serif" font-size="10.00">+ getName()</text>
<text text-anchor="start" x="36" y="-1115.5" font-family="Helvetica,sans-Serif" font-size="10.00">+ operator int()</text>
<text text-anchor="start" x="36" y="-1104.5" font-family="Helvetica,sans-Serif" font-size="10.00">+ DetID()</text>
<text text-anchor="start" x="36" y="-1093.5" font-family="Helvetica,sans-Serif" font-size="10.00">+ getNDetectors()</text>
<text text-anchor="start" x="36" y="-1082.5" font-family="Helvetica,sans-Serif" font-size="10.00">+ getName()</text>
<text text-anchor="start" x="36" y="-1071.5" font-family="Helvetica,sans-Serif" font-size="10.00">+ getMask()</text>
</a>
</g>
</g>
<!-- Node4&#45;&gt;Node3 -->
<g id="edge3" class="edge"><title>Node4&#45;&gt;Node3</title>
<path fill="none" stroke="#404040" d="M131.772,-1064.46C139.197,-1045.15 146.931,-1025.03 154.597,-1005.09"/>
<polygon fill="none" stroke="#404040" points="154.667,-1004.91 153.086,-997.878 158.973,-993.713 160.553,-1000.75 154.667,-1004.91"/>
<text text-anchor="middle" x="173" y="-1027" font-family="Helvetica,sans-Serif" font-size="10.00"> +mDetID</text>
</g>
<!-- Node5 -->
<g id="node5" class="node"><title>Node5</title>
<polygon fill="none" stroke="#bfbfbf" points="0.5,-1532.5 0.5,-1589.5 41.5,-1589.5 41.5,-1532.5 0.5,-1532.5"/>
<text text-anchor="middle" x="21" y="-1577.5" font-family="Helvetica,sans-Serif" font-size="10.00">static</text>
<polyline fill="none" stroke="#bfbfbf" points="0.5,-1570.5 41.5,-1570.5 "/>
<text text-anchor="middle" x="21" y="-1558.5" font-family="Helvetica,sans-Serif" font-size="10.00"> </text>
<polyline fill="none" stroke="#bfbfbf" points="0.5,-1551.5 41.5,-1551.5 "/>
<text text-anchor="middle" x="21" y="-1539.5" font-family="Helvetica,sans-Serif" font-size="10.00"> </text>
</g>
<!-- Node5&#45;&gt;Node1 -->
<g id="edge13" class="edge"><title>Node5&#45;&gt;Node1</title>
<path fill="none" stroke="#404040" d="M18.2976,-1532.37C12.6258,-1471.9 0,-1323.29 0,-1198.5 0,-1198.5 0,-1198.5 0,-567.5 0,-425.369 141.074,-315.65 240.398,-256.015"/>
<polygon fill="none" stroke="#404040" points="240.451,-255.984 243.578,-249.486 250.779,-249.873 247.652,-256.371 240.451,-255.984"/>
<text text-anchor="middle" x="52.5" y="-870" font-family="Helvetica,sans-Serif" font-size="10.00"> #sVolumeName</text>
<text text-anchor="middle" x="52.5" y="-859" font-family="Helvetica,sans-Serif" font-size="10.00">#MinSensorsPerLadder</text>
<text text-anchor="middle" x="52.5" y="-848" font-family="Helvetica,sans-Serif" font-size="10.00">#sChipName</text>
<text text-anchor="middle" x="52.5" y="-837" font-family="Helvetica,sans-Serif" font-size="10.00">#sDiskName</text>
<text text-anchor="middle" x="52.5" y="-826" font-family="Helvetica,sans-Serif" font-size="10.00">#MaxSensorsPerLadder</text>
<text text-anchor="middle" x="52.5" y="-815" font-family="Helvetica,sans-Serif" font-size="10.00">#sLadderName</text>
<text text-anchor="middle" x="52.5" y="-804" font-family="Helvetica,sans-Serif" font-size="10.00">#sHalfName</text>
<text text-anchor="middle" x="52.5" y="-793" font-family="Helvetica,sans-Serif" font-size="10.00">#sSensorName</text>
</g>
<!-- Node5&#45;&gt;Node4 -->
<g id="edge4" class="edge"><title>Node5&#45;&gt;Node4</title>
<path fill="none" stroke="#404040" d="M25.6085,-1532.23C32.34,-1491.68 45.3365,-1413.37 57.0494,-1342.8"/>
<polygon fill="none" stroke="#404040" points="57.1029,-1342.48 54.1394,-1335.91 59.0678,-1330.64 62.0314,-1337.22 57.1029,-1342.48"/>
<text text-anchor="middle" x="82.5" y="-1462" font-family="Helvetica,sans-Serif" font-size="10.00"> +ACO</text>
<text text-anchor="middle" x="82.5" y="-1451" font-family="Helvetica,sans-Serif" font-size="10.00">+First</text>
<text text-anchor="middle" x="82.5" y="-1440" font-family="Helvetica,sans-Serif" font-size="10.00">+MCH</text>
<text text-anchor="middle" x="82.5" y="-1429" font-family="Helvetica,sans-Serif" font-size="10.00">+FV0</text>
<text text-anchor="middle" x="82.5" y="-1418" font-family="Helvetica,sans-Serif" font-size="10.00">+FT0</text>
<text text-anchor="middle" x="82.5" y="-1407" font-family="Helvetica,sans-Serif" font-size="10.00">+FDD</text>
<text text-anchor="middle" x="82.5" y="-1396" font-family="Helvetica,sans-Serif" font-size="10.00">+TRD</text>
<text text-anchor="middle" x="82.5" y="-1385" font-family="Helvetica,sans-Serif" font-size="10.00">+nDetectors</text>
<text text-anchor="middle" x="82.5" y="-1374" font-family="Helvetica,sans-Serif" font-size="10.00">+TPC</text>
<text text-anchor="middle" x="82.5" y="-1363" font-family="Helvetica,sans-Serif" font-size="10.00">+ZDC</text>
<text text-anchor="middle" x="82.5" y="-1352" font-family="Helvetica,sans-Serif" font-size="10.00">...</text>
</g>
<!-- Node6 -->
<g id="node6" class="node"><title>Node6</title>
<g id="a_node6"><a xlink:href="../../d4/daa/classo2_1_1detectors_1_1MatrixCache.html" target="_top" xlink:title="{o2::detectors::MatrixCache\l\&lt; o2::Transform3D \&gt;\n||+ MatrixCache()\l+ MatrixCache()\l+ ~MatrixCache()\l+ operator=()\l+ setSize()\l+ getSize()\l+ setMatrix()\l+ getMatrix()\l+ isFilled()\l}">
<polygon fill="none" stroke="black" points="152.5,-1119.5 152.5,-1275.5 287.5,-1275.5 287.5,-1119.5 152.5,-1119.5"/>
<text text-anchor="start" x="160.5" y="-1263.5" font-family="Helvetica,sans-Serif" font-size="10.00">o2::detectors::MatrixCache</text>
<text text-anchor="middle" x="220" y="-1252.5" font-family="Helvetica,sans-Serif" font-size="10.00">&lt; o2::Transform3D &gt;</text>
<polyline fill="none" stroke="black" points="152.5,-1245.5 287.5,-1245.5 "/>
<text text-anchor="middle" x="220" y="-1233.5" font-family="Helvetica,sans-Serif" font-size="10.00"> </text>
<polyline fill="none" stroke="black" points="152.5,-1226.5 287.5,-1226.5 "/>
<text text-anchor="start" x="160.5" y="-1214.5" font-family="Helvetica,sans-Serif" font-size="10.00">+ MatrixCache()</text>
<text text-anchor="start" x="160.5" y="-1203.5" font-family="Helvetica,sans-Serif" font-size="10.00">+ MatrixCache()</text>
<text text-anchor="start" x="160.5" y="-1192.5" font-family="Helvetica,sans-Serif" font-size="10.00">+ ~MatrixCache()</text>
<text text-anchor="start" x="160.5" y="-1181.5" font-family="Helvetica,sans-Serif" font-size="10.00">+ operator=()</text>
<text text-anchor="start" x="160.5" y="-1170.5" font-family="Helvetica,sans-Serif" font-size="10.00">+ setSize()</text>
<text text-anchor="start" x="160.5" y="-1159.5" font-family="Helvetica,sans-Serif" font-size="10.00">+ getSize()</text>
<text text-anchor="start" x="160.5" y="-1148.5" font-family="Helvetica,sans-Serif" font-size="10.00">+ setMatrix()</text>
<text text-anchor="start" x="160.5" y="-1137.5" font-family="Helvetica,sans-Serif" font-size="10.00">+ getMatrix()</text>
<text text-anchor="start" x="160.5" y="-1126.5" font-family="Helvetica,sans-Serif" font-size="10.00">+ isFilled()</text>
</a>
</g>
</g>
<!-- Node6&#45;&gt;Node3 -->
<g id="edge5" class="edge"><title>Node6&#45;&gt;Node3</title>
<path fill="none" stroke="#404040" d="M220,-1119.39C220,-1086.32 220,-1046.25 220,-1006.76"/>
<polygon fill="none" stroke="#404040" points="220,-1006.53 216,-1000.53 220,-994.529 224,-1000.53 220,-1006.53"/>
<text text-anchor="middle" x="238.5" y="-1038" font-family="Helvetica,sans-Serif" font-size="10.00"> +mT2G</text>
<text text-anchor="middle" x="238.5" y="-1027" font-family="Helvetica,sans-Serif" font-size="10.00">+mT2L</text>
<text text-anchor="middle" x="238.5" y="-1016" font-family="Helvetica,sans-Serif" font-size="10.00">+mL2G</text>
</g>
<!-- Node7 -->
<g id="node7" class="node"><title>Node7</title>
<g id="a_node7"><a xlink:href="../../d4/daa/classo2_1_1detectors_1_1MatrixCache.html" target="_top" xlink:title="MatrixCache is a vector of cached transform matrices (per sensor) for specific Transformation type...">
<polygon fill="none" stroke="black" points="208.5,-1488.5 208.5,-1633.5 367.5,-1633.5 367.5,-1488.5 208.5,-1488.5"/>
<text text-anchor="middle" x="288" y="-1621.5" font-family="Helvetica,sans-Serif" font-size="10.00">o2::detectors::MatrixCache&lt; T &gt;</text>
<polyline fill="none" stroke="black" points="208.5,-1614.5 367.5,-1614.5 "/>
<text text-anchor="middle" x="288" y="-1602.5" font-family="Helvetica,sans-Serif" font-size="10.00"> </text>
<polyline fill="none" stroke="black" points="208.5,-1595.5 367.5,-1595.5 "/>
<text text-anchor="start" x="216.5" y="-1583.5" font-family="Helvetica,sans-Serif" font-size="10.00">+ MatrixCache()</text>
<text text-anchor="start" x="216.5" y="-1572.5" font-family="Helvetica,sans-Serif" font-size="10.00">+ ~MatrixCache()</text>
<text text-anchor="start" x="216.5" y="-1561.5" font-family="Helvetica,sans-Serif" font-size="10.00">+ MatrixCache()</text>
<text text-anchor="start" x="216.5" y="-1550.5" font-family="Helvetica,sans-Serif" font-size="10.00">+ operator=()</text>
<text text-anchor="start" x="216.5" y="-1539.5" font-family="Helvetica,sans-Serif" font-size="10.00">+ setSize()</text>
<text text-anchor="start" x="216.5" y="-1528.5" font-family="Helvetica,sans-Serif" font-size="10.00">+ getSize()</text>
<text text-anchor="start" x="216.5" y="-1517.5" font-family="Helvetica,sans-Serif" font-size="10.00">+ setMatrix()</text>
<text text-anchor="start" x="216.5" y="-1506.5" font-family="Helvetica,sans-Serif" font-size="10.00">+ getMatrix()</text>
<text text-anchor="start" x="216.5" y="-1495.5" font-family="Helvetica,sans-Serif" font-size="10.00">+ isFilled()</text>
</a>
</g>
</g>
<!-- Node7&#45;&gt;Node6 -->
<g id="edge6" class="edge"><title>Node7&#45;&gt;Node6</title>
<path fill="none" stroke="orange" d="M249.614,-1478.85C248.667,-1475.89 247.79,-1472.93 247,-1470 229.741,-1405.97 223.284,-1330.77 220.976,-1275.78"/>
<polygon fill="orange" stroke="orange" points="246.305,-1479.99 252.86,-1488.31 252.926,-1477.72 246.305,-1479.99"/>
<text text-anchor="middle" x="294.5" y="-1407" font-family="Helvetica,sans-Serif" font-size="10.00"> &lt; o2::Transform3D &gt;</text>
</g>
<!-- Node9 -->
<g id="node9" class="node"><title>Node9</title>
<g id="a_node9"><a xlink:href="../../d4/daa/classo2_1_1detectors_1_1MatrixCache.html" target="_top" xlink:title="{o2::detectors::MatrixCache\l\&lt; o2::Rotation2D \&gt;\n||+ MatrixCache()\l+ MatrixCache()\l+ ~MatrixCache()\l+ operator=()\l+ setSize()\l+ getSize()\l+ setMatrix()\l+ getMatrix()\l+ isFilled()\l}">
<polygon fill="none" stroke="black" points="305.5,-1119.5 305.5,-1275.5 440.5,-1275.5 440.5,-1119.5 305.5,-1119.5"/>
<text text-anchor="start" x="313.5" y="-1263.5" font-family="Helvetica,sans-Serif" font-size="10.00">o2::detectors::MatrixCache</text>
<text text-anchor="middle" x="373" y="-1252.5" font-family="Helvetica,sans-Serif" font-size="10.00">&lt; o2::Rotation2D &gt;</text>
<polyline fill="none" stroke="black" points="305.5,-1245.5 440.5,-1245.5 "/>
<text text-anchor="middle" x="373" y="-1233.5" font-family="Helvetica,sans-Serif" font-size="10.00"> </text>
<polyline fill="none" stroke="black" points="305.5,-1226.5 440.5,-1226.5 "/>
<text text-anchor="start" x="313.5" y="-1214.5" font-family="Helvetica,sans-Serif" font-size="10.00">+ MatrixCache()</text>
<text text-anchor="start" x="313.5" y="-1203.5" font-family="Helvetica,sans-Serif" font-size="10.00">+ MatrixCache()</text>
<text text-anchor="start" x="313.5" y="-1192.5" font-family="Helvetica,sans-Serif" font-size="10.00">+ ~MatrixCache()</text>
<text text-anchor="start" x="313.5" y="-1181.5" font-family="Helvetica,sans-Serif" font-size="10.00">+ operator=()</text>
<text text-anchor="start" x="313.5" y="-1170.5" font-family="Helvetica,sans-Serif" font-size="10.00">+ setSize()</text>
<text text-anchor="start" x="313.5" y="-1159.5" font-family="Helvetica,sans-Serif" font-size="10.00">+ getSize()</text>
<text text-anchor="start" x="313.5" y="-1148.5" font-family="Helvetica,sans-Serif" font-size="10.00">+ setMatrix()</text>
<text text-anchor="start" x="313.5" y="-1137.5" font-family="Helvetica,sans-Serif" font-size="10.00">+ getMatrix()</text>
<text text-anchor="start" x="313.5" y="-1126.5" font-family="Helvetica,sans-Serif" font-size="10.00">+ isFilled()</text>
</a>
</g>
</g>
<!-- Node7&#45;&gt;Node9 -->
<g id="edge9" class="edge"><title>Node7&#45;&gt;Node9</title>
<path fill="none" stroke="orange" d="M338.674,-1478.91C339.878,-1475.94 340.993,-1472.97 342,-1470 363.451,-1406.77 370.686,-1330.99 372.851,-1275.59"/>
<polygon fill="orange" stroke="orange" points="335.347,-1477.78 334.548,-1488.35 341.761,-1480.59 335.347,-1477.78"/>
<text text-anchor="middle" x="411" y="-1407" font-family="Helvetica,sans-Serif" font-size="10.00"> &lt; o2::Rotation2D &gt;</text>
</g>
<!-- Node8 -->
<g id="node8" class="node"><title>Node8</title>
<polygon fill="none" stroke="#bfbfbf" points="458.5,-1169 458.5,-1226 487.5,-1226 487.5,-1169 458.5,-1169"/>
<text text-anchor="middle" x="473" y="-1214" font-family="Helvetica,sans-Serif" font-size="10.00">int</text>
<polyline fill="none" stroke="#bfbfbf" points="458.5,-1207 487.5,-1207 "/>
<text text-anchor="middle" x="473" y="-1195" font-family="Helvetica,sans-Serif" font-size="10.00"> </text>
<polyline fill="none" stroke="#bfbfbf" points="458.5,-1188 487.5,-1188 "/>
<text text-anchor="middle" x="473" y="-1176" font-family="Helvetica,sans-Serif" font-size="10.00"> </text>
</g>
<!-- Node8&#45;&gt;Node3 -->
<g id="edge7" class="edge"><title>Node8&#45;&gt;Node3</title>
<path fill="none" stroke="#404040" d="M472.738,-1168.82C471.418,-1140.88 466.403,-1097.24 449,-1064 411.255,-991.902 342.987,-928.127 290.777,-886.311"/>
<polygon fill="none" stroke="#404040" points="290.64,-886.203 283.452,-885.62 281.226,-878.762 288.413,-879.344 290.64,-886.203"/>
<text text-anchor="middle" x="455.5" y="-1027" font-family="Helvetica,sans-Serif" font-size="10.00"> +mSize</text>
</g>
<!-- Node9&#45;&gt;Node3 -->
<g id="edge8" class="edge"><title>Node9&#45;&gt;Node3</title>
<path fill="none" stroke="#404040" d="M340.365,-1119.39C324.467,-1081.83 304.752,-1035.25 285.91,-990.729"/>
<polygon fill="none" stroke="#404040" points="285.819,-990.513 279.796,-986.546 281.142,-979.462 287.164,-983.428 285.819,-990.513"/>
<text text-anchor="middle" x="332" y="-1027" font-family="Helvetica,sans-Serif" font-size="10.00"> +mT2GRot</text>
</g>
<!-- Node10 -->
<g id="node10" class="node"><title>Node10</title>
<polygon fill="none" stroke="#bfbfbf" points="240.5,-540 240.5,-597 321.5,-597 321.5,-540 240.5,-540"/>
<text text-anchor="middle" x="281" y="-585" font-family="Helvetica,sans-Serif" font-size="10.00">vector&lt; Int_t &gt;</text>
<polyline fill="none" stroke="#bfbfbf" points="240.5,-578 321.5,-578 "/>
<text text-anchor="middle" x="281" y="-566" font-family="Helvetica,sans-Serif" font-size="10.00"> </text>
<polyline fill="none" stroke="#bfbfbf" points="240.5,-559 321.5,-559 "/>
<text text-anchor="middle" x="281" y="-547" font-family="Helvetica,sans-Serif" font-size="10.00"> </text>
</g>
<!-- Node10&#45;&gt;Node1 -->
<g id="edge10" class="edge"><title>Node10&#45;&gt;Node1</title>
<path fill="none" stroke="#404040" d="M272.678,-539.625C268.237,-523.291 263.237,-502.166 261,-483 258.658,-462.937 258.939,-442.281 261.071,-421.724"/>
<polygon fill="none" stroke="#404040" points="261.092,-421.549 257.842,-415.112 262.534,-409.636 265.784,-416.073 261.092,-421.549"/>
<text text-anchor="middle" x="326" y="-475" font-family="Helvetica,sans-Serif" font-size="10.00"> #mSensorIndexToLayer</text>
<text text-anchor="middle" x="326" y="-464" font-family="Helvetica,sans-Serif" font-size="10.00">#mNumberOfSensorsPerDisk</text>
<text text-anchor="middle" x="326" y="-453" font-family="Helvetica,sans-Serif" font-size="10.00">#mNumberOfLaddersPerDisk</text>
<text text-anchor="middle" x="326" y="-442" font-family="Helvetica,sans-Serif" font-size="10.00">#mLastSensorIndex</text>
<text text-anchor="middle" x="326" y="-431" font-family="Helvetica,sans-Serif" font-size="10.00">#mNumberOfDisks</text>
</g>
<!-- Node11 -->
<g id="node11" class="node"><title>Node11</title>
<polygon fill="none" stroke="#bfbfbf" points="364,-540 364,-597 456,-597 456,-540 364,-540"/>
<text text-anchor="middle" x="410" y="-585" font-family="Helvetica,sans-Serif" font-size="10.00">vector&lt; Float_t &gt;</text>
<polyline fill="none" stroke="#bfbfbf" points="364,-578 456,-578 "/>
<text text-anchor="middle" x="410" y="-566" font-family="Helvetica,sans-Serif" font-size="10.00"> </text>
<polyline fill="none" stroke="#bfbfbf" points="364,-559 456,-559 "/>
<text text-anchor="middle" x="410" y="-547" font-family="Helvetica,sans-Serif" font-size="10.00"> </text>
</g>
<!-- Node11&#45;&gt;Node1 -->
<g id="edge11" class="edge"><title>Node11&#45;&gt;Node1</title>
<path fill="none" stroke="#404040" d="M407.119,-539.83C403.971,-511.581 398.375,-466.531 391,-428 390.584,-425.828 390.16,-423.645 389.729,-421.453"/>
<polygon fill="none" stroke="#404040" points="389.722,-421.416 384.618,-416.323 387.356,-409.652 392.461,-414.746 389.722,-421.416"/>
<text text-anchor="middle" x="439.5" y="-453" font-family="Helvetica,sans-Serif" font-size="10.00"> #mLayerMedianZ</text>
</g>
<!-- Node12 -->
<g id="node12" class="node"><title>Node12</title>
<polygon fill="none" stroke="#bfbfbf" points="474.5,-534.5 474.5,-602.5 573.5,-602.5 573.5,-534.5 474.5,-534.5"/>
<text text-anchor="start" x="482.5" y="-590.5" font-family="Helvetica,sans-Serif" font-size="10.00">vector&lt; std::vector</text>
<text text-anchor="middle" x="524" y="-579.5" font-family="Helvetica,sans-Serif" font-size="10.00">&lt; Int_t &gt; &gt;</text>
<polyline fill="none" stroke="#bfbfbf" points="474.5,-572.5 573.5,-572.5 "/>
<text text-anchor="middle" x="524" y="-560.5" font-family="Helvetica,sans-Serif" font-size="10.00"> </text>
<polyline fill="none" stroke="#bfbfbf" points="474.5,-553.5 573.5,-553.5 "/>
<text text-anchor="middle" x="524" y="-541.5" font-family="Helvetica,sans-Serif" font-size="10.00"> </text>
</g>
<!-- Node12&#45;&gt;Node1 -->
<g id="edge12" class="edge"><title>Node12&#45;&gt;Node1</title>
<path fill="none" stroke="#404040" d="M517.21,-534.363C510.602,-505.446 499.182,-462.79 483,-428 467.674,-395.051 447.899,-361.403 427.852,-330.593"/>
<polygon fill="none" stroke="#404040" points="427.647,-330.282 421.007,-327.47 421.049,-320.259 427.689,-323.071 427.647,-330.282"/>
<text text-anchor="middle" x="551.5" y="-464" font-family="Helvetica,sans-Serif" font-size="10.00"> #mNumberOfLadders</text>
<text text-anchor="middle" x="551.5" y="-453" font-family="Helvetica,sans-Serif" font-size="10.00">#mLadderId2Index</text>
<text text-anchor="middle" x="551.5" y="-442" font-family="Helvetica,sans-Serif" font-size="10.00">#mLadderIndex2Id</text>
</g>
<!-- Node13 -->
<g id="node13" class="node"><title>Node13</title>
<polygon fill="none" stroke="#bfbfbf" points="623,-540 623,-597 659,-597 659,-540 623,-540"/>
<text text-anchor="middle" x="641" y="-585" font-family="Helvetica,sans-Serif" font-size="10.00">Int_t</text>
<polyline fill="none" stroke="#bfbfbf" points="623,-578 659,-578 "/>
<text text-anchor="middle" x="641" y="-566" font-family="Helvetica,sans-Serif" font-size="10.00"> </text>
<polyline fill="none" stroke="#bfbfbf" points="623,-559 659,-559 "/>
<text text-anchor="middle" x="641" y="-547" font-family="Helvetica,sans-Serif" font-size="10.00"> </text>
</g>
<!-- Node13&#45;&gt;Node1 -->
<g id="edge14" class="edge"><title>Node13&#45;&gt;Node1</title>
<path fill="none" stroke="#404040" d="M638.679,-539.811C635.101,-510.13 626.145,-462.615 604,-428 560.538,-360.064 489.535,-302.617 431.529,-263.191"/>
<polygon fill="none" stroke="#404040" points="431.197,-262.968 423.986,-262.949 421.23,-256.286 428.441,-256.304 431.197,-262.968"/>
<text text-anchor="middle" x="686.5" y="-458.5" font-family="Helvetica,sans-Serif" font-size="10.00"> #mNumberOfHalves</text>
<text text-anchor="middle" x="686.5" y="-447.5" font-family="Helvetica,sans-Serif" font-size="10.00">#mTotalNumberOfSensors</text>
</g>
</g>
</svg>
