<?xml version="1.0" encoding="UTF-8" standalone="no"?>
<!DOCTYPE svg PUBLIC "-//W3C//DTD SVG 1.1//EN"
 "http://www.w3.org/Graphics/SVG/1.1/DTD/svg11.dtd">
<!-- Generated by graphviz version 2.38.0 (20140413.2041)
 -->
<!-- Title: /home/travis/build/AliceO2Group/AliceO2/Detectors/TPC/reconstruction/src/RawReaderCRU.cxx Pages: 1 -->
<svg width="2124pt" height="598pt"
 viewBox="0.00 0.00 2124.07 598.00" xmlns="http://www.w3.org/2000/svg" xmlns:xlink="http://www.w3.org/1999/xlink">
<g id="graph0" class="graph" transform="scale(1 1) rotate(0) translate(4 594)">
<title>/home/travis/build/AliceO2Group/AliceO2/Detectors/TPC/reconstruction/src/RawReaderCRU.cxx</title>
<!-- Node1 -->
<g id="node1" class="node"><title>Node1</title>
<polygon fill="#bfbfbf" stroke="black" points="1347.57,-537.5 1347.57,-589.5 1497.57,-589.5 1497.57,-537.5 1347.57,-537.5"/>
<text text-anchor="start" x="1355.57" y="-577.5" font-family="Helvetica,sans-Serif" font-size="10.00">/home/travis/build</text>
<text text-anchor="start" x="1355.57" y="-566.5" font-family="Helvetica,sans-Serif" font-size="10.00">/AliceO2Group/AliceO2</text>
<text text-anchor="start" x="1355.57" y="-555.5" font-family="Helvetica,sans-Serif" font-size="10.00">/Detectors/TPC/reconstruction</text>
<text text-anchor="middle" x="1422.57" y="-544.5" font-family="Helvetica,sans-Serif" font-size="10.00">/src/RawReaderCRU.cxx</text>
</g>
<!-- Node2 -->
<g id="node2" class="node"><title>Node2</title>
<polygon fill="none" stroke="#bfbfbf" points="1185.57,-481.5 1185.57,-500.5 1255.57,-500.5 1255.57,-481.5 1185.57,-481.5"/>
<text text-anchor="middle" x="1220.57" y="-488.5" font-family="Helvetica,sans-Serif" font-size="10.00">fmt/format.h</text>
</g>
<!-- Node1&#45;&gt;Node2 -->
<g id="edge1" class="edge"><title>Node1&#45;&gt;Node2</title>
<path fill="none" stroke="midnightblue" d="M1350.79,-537.446C1318.01,-526.005 1280.73,-512.997 1254.49,-503.838"/>
<polygon fill="midnightblue" stroke="midnightblue" points="1255.6,-500.518 1245,-500.527 1253.29,-507.127 1255.6,-500.518"/>
</g>
<!-- Node3 -->
<g id="node3" class="node"><title>Node3</title>
<polygon fill="none" stroke="#bfbfbf" points="1274.07,-481.5 1274.07,-500.5 1339.07,-500.5 1339.07,-481.5 1274.07,-481.5"/>
<text text-anchor="middle" x="1306.57" y="-488.5" font-family="Helvetica,sans-Serif" font-size="10.00">TSystem.h</text>
</g>
<!-- Node1&#45;&gt;Node3 -->
<g id="edge2" class="edge"><title>Node1&#45;&gt;Node3</title>
<path fill="none" stroke="midnightblue" d="M1381.35,-537.446C1363.93,-526.862 1344.31,-514.936 1329.54,-505.958"/>
<polygon fill="midnightblue" stroke="midnightblue" points="1330.97,-502.73 1320.6,-500.527 1327.33,-508.712 1330.97,-502.73"/>
</g>
<!-- Node4 -->
<g id="node4" class="node"><title>Node4</title>
<polygon fill="none" stroke="#bfbfbf" points="1357.07,-481.5 1357.07,-500.5 1426.07,-500.5 1426.07,-481.5 1357.07,-481.5"/>
<text text-anchor="middle" x="1391.57" y="-488.5" font-family="Helvetica,sans-Serif" font-size="10.00">TObjArray.h</text>
</g>
<!-- Node1&#45;&gt;Node4 -->
<g id="edge3" class="edge"><title>Node1&#45;&gt;Node4</title>
<path fill="none" stroke="midnightblue" d="M1411.56,-537.446C1407.55,-528.329 1403.1,-518.217 1399.42,-509.851"/>
<polygon fill="midnightblue" stroke="midnightblue" points="1402.62,-508.441 1395.4,-500.695 1396.22,-511.258 1402.62,-508.441"/>
</g>
<!-- Node5 -->
<g id="node5" class="node"><title>Node5</title>
<g id="a_node5"><a xlink:href="../../df/d86/RawReaderCRU_8h.html" target="_top" xlink:title="TPCReconstruction/RawReader\lCRU.h">
<polygon fill="none" stroke="black" points="712.572,-414.5 712.572,-444.5 870.572,-444.5 870.572,-414.5 712.572,-414.5"/>
<text text-anchor="start" x="720.572" y="-432.5" font-family="Helvetica,sans-Serif" font-size="10.00">TPCReconstruction/RawReader</text>
<text text-anchor="middle" x="791.572" y="-421.5" font-family="Helvetica,sans-Serif" font-size="10.00">CRU.h</text>
</a>
</g>
</g>
<!-- Node1&#45;&gt;Node5 -->
<g id="edge4" class="edge"><title>Node1&#45;&gt;Node5</title>
<path fill="none" stroke="midnightblue" d="M1435.8,-537.275C1443.17,-519.349 1448.37,-495.903 1434.57,-481 1399.29,-442.891 1020.34,-449.12 968.572,-445 940.104,-442.734 909.065,-440.21 881.042,-437.911"/>
<polygon fill="midnightblue" stroke="midnightblue" points="881.118,-434.405 870.865,-437.075 880.545,-441.382 881.118,-434.405"/>
</g>
<!-- Node40 -->
<g id="node40" class="node"><title>Node40</title>
<g id="a_node40"><a xlink:href="../../d5/d1d/TPC_2base_2include_2TPCBase_2Mapper_8h.html" target="_top" xlink:title="TPCBase/Mapper.h">
<polygon fill="none" stroke="black" points="1483.07,-481.5 1483.07,-500.5 1586.07,-500.5 1586.07,-481.5 1483.07,-481.5"/>
<text text-anchor="middle" x="1534.57" y="-488.5" font-family="Helvetica,sans-Serif" font-size="10.00">TPCBase/Mapper.h</text>
</a>
</g>
</g>
<!-- Node1&#45;&gt;Node40 -->
<g id="edge48" class="edge"><title>Node1&#45;&gt;Node40</title>
<path fill="none" stroke="midnightblue" d="M1462.37,-537.446C1479.19,-526.862 1498.13,-514.936 1512.4,-505.958"/>
<polygon fill="midnightblue" stroke="midnightblue" points="1514.43,-508.816 1521.03,-500.527 1510.7,-502.892 1514.43,-508.816"/>
</g>
<!-- Node47 -->
<g id="node47" class="node"><title>Node47</title>
<g id="a_node47"><a xlink:href="../../dd/da4/Logger_8h.html" target="_top" xlink:title="Framework/Logger.h">
<polygon fill="none" stroke="black" points="1604.57,-481.5 1604.57,-500.5 1710.57,-500.5 1710.57,-481.5 1604.57,-481.5"/>
<text text-anchor="middle" x="1657.57" y="-488.5" font-family="Helvetica,sans-Serif" font-size="10.00">Framework/Logger.h</text>
</a>
</g>
</g>
<!-- Node1&#45;&gt;Node47 -->
<g id="edge73" class="edge"><title>Node1&#45;&gt;Node47</title>
<path fill="none" stroke="midnightblue" d="M1497.57,-540C1538.11,-527.838 1586.45,-513.338 1619.3,-503.48"/>
<polygon fill="midnightblue" stroke="midnightblue" points="1620.41,-506.804 1628.98,-500.578 1618.4,-500.099 1620.41,-506.804"/>
</g>
<!-- Node6 -->
<g id="node6" class="node"><title>Node6</title>
<polygon fill="none" stroke="#bfbfbf" points="764.572,-358.5 764.572,-377.5 818.572,-377.5 818.572,-358.5 764.572,-358.5"/>
<text text-anchor="middle" x="791.572" y="-365.5" font-family="Helvetica,sans-Serif" font-size="10.00">iostream</text>
</g>
<!-- Node5&#45;&gt;Node6 -->
<g id="edge5" class="edge"><title>Node5&#45;&gt;Node6</title>
<path fill="none" stroke="midnightblue" d="M791.572,-414.399C791.572,-406.466 791.572,-396.458 791.572,-387.858"/>
<polygon fill="midnightblue" stroke="midnightblue" points="795.072,-387.658 791.572,-377.658 788.072,-387.658 795.072,-387.658"/>
</g>
<!-- Node7 -->
<g id="node7" class="node"><title>Node7</title>
<polygon fill="none" stroke="#bfbfbf" points="836.572,-358.5 836.572,-377.5 886.572,-377.5 886.572,-358.5 836.572,-358.5"/>
<text text-anchor="middle" x="861.572" y="-365.5" font-family="Helvetica,sans-Serif" font-size="10.00">fstream</text>
</g>
<!-- Node5&#45;&gt;Node7 -->
<g id="edge6" class="edge"><title>Node5&#45;&gt;Node7</title>
<path fill="none" stroke="midnightblue" d="M808.161,-414.399C818.857,-405.308 832.76,-393.49 843.7,-384.191"/>
<polygon fill="midnightblue" stroke="midnightblue" points="846.034,-386.801 851.387,-377.658 841.5,-381.468 846.034,-386.801"/>
</g>
<!-- Node8 -->
<g id="node8" class="node"><title>Node8</title>
<polygon fill="none" stroke="#bfbfbf" points="13.5721,-302.5 13.5721,-321.5 59.5721,-321.5 59.5721,-302.5 13.5721,-302.5"/>
<text text-anchor="middle" x="36.5721" y="-309.5" font-family="Helvetica,sans-Serif" font-size="10.00">cstdint</text>
</g>
<!-- Node5&#45;&gt;Node8 -->
<g id="edge7" class="edge"><title>Node5&#45;&gt;Node8</title>
<path fill="none" stroke="midnightblue" d="M712.559,-426.308C517.952,-420.525 29.5122,-403.527 5.57215,-378 -7.7055,-363.842 6.52224,-342.951 19.7775,-328.7"/>
<polygon fill="midnightblue" stroke="midnightblue" points="22.3087,-331.118 26.8607,-321.551 17.3361,-326.191 22.3087,-331.118"/>
</g>
<!-- Node9 -->
<g id="node9" class="node"><title>Node9</title>
<polygon fill="none" stroke="#bfbfbf" points="174.572,-358.5 174.572,-377.5 224.572,-377.5 224.572,-358.5 174.572,-358.5"/>
<text text-anchor="middle" x="199.572" y="-365.5" font-family="Helvetica,sans-Serif" font-size="10.00">iomanip</text>
</g>
<!-- Node5&#45;&gt;Node9 -->
<g id="edge8" class="edge"><title>Node5&#45;&gt;Node9</title>
<path fill="none" stroke="midnightblue" d="M712.472,-425.539C605.843,-420.612 410.081,-408.278 234.646,-377.904"/>
<polygon fill="midnightblue" stroke="midnightblue" points="235.173,-374.443 224.718,-376.162 233.963,-381.337 235.173,-374.443"/>
</g>
<!-- Node10 -->
<g id="node10" class="node"><title>Node10</title>
<polygon fill="none" stroke="#bfbfbf" points="1236.57,-358.5 1236.57,-377.5 1280.57,-377.5 1280.57,-358.5 1236.57,-358.5"/>
<text text-anchor="middle" x="1258.57" y="-365.5" font-family="Helvetica,sans-Serif" font-size="10.00">vector</text>
</g>
<!-- Node5&#45;&gt;Node10 -->
<g id="edge9" class="edge"><title>Node5&#45;&gt;Node10</title>
<path fill="none" stroke="midnightblue" d="M870.739,-423.102C956.143,-416.422 1096.17,-402.996 1226.16,-377.748"/>
<polygon fill="midnightblue" stroke="midnightblue" points="1227.17,-381.118 1236.3,-375.751 1225.81,-374.25 1227.17,-381.118"/>
</g>
<!-- Node11 -->
<g id="node11" class="node"><title>Node11</title>
<polygon fill="none" stroke="#bfbfbf" points="1183.07,-358.5 1183.07,-377.5 1218.07,-377.5 1218.07,-358.5 1183.07,-358.5"/>
<text text-anchor="middle" x="1200.57" y="-365.5" font-family="Helvetica,sans-Serif" font-size="10.00">map</text>
</g>
<!-- Node5&#45;&gt;Node11 -->
<g id="edge10" class="edge"><title>Node5&#45;&gt;Node11</title>
<path fill="none" stroke="midnightblue" d="M870.636,-422.47C946.158,-415.707 1063.15,-402.617 1173.06,-377.685"/>
<polygon fill="midnightblue" stroke="midnightblue" points="1174.03,-381.052 1182.99,-375.395 1172.46,-374.231 1174.03,-381.052"/>
</g>
<!-- Node12 -->
<g id="node12" class="node"><title>Node12</title>
<polygon fill="none" stroke="#bfbfbf" points="942.572,-358.5 942.572,-377.5 980.572,-377.5 980.572,-358.5 942.572,-358.5"/>
<text text-anchor="middle" x="961.572" y="-365.5" font-family="Helvetica,sans-Serif" font-size="10.00">array</text>
</g>
<!-- Node5&#45;&gt;Node12 -->
<g id="edge11" class="edge"><title>Node5&#45;&gt;Node12</title>
<path fill="none" stroke="midnightblue" d="M831.86,-414.399C862.991,-403.503 905.308,-388.692 933.019,-378.994"/>
<polygon fill="midnightblue" stroke="midnightblue" points="934.237,-382.275 942.52,-375.668 931.925,-375.668 934.237,-382.275"/>
</g>
<!-- Node13 -->
<g id="node13" class="node"><title>Node13</title>
<polygon fill="none" stroke="#bfbfbf" points="243.072,-358.5 243.072,-377.5 284.072,-377.5 284.072,-358.5 243.072,-358.5"/>
<text text-anchor="middle" x="263.572" y="-365.5" font-family="Helvetica,sans-Serif" font-size="10.00">bitset</text>
</g>
<!-- Node5&#45;&gt;Node13 -->
<g id="edge12" class="edge"><title>Node5&#45;&gt;Node13</title>
<path fill="none" stroke="midnightblue" d="M712.395,-425.125C615.694,-419.963 447.182,-407.608 294.155,-377.714"/>
<polygon fill="midnightblue" stroke="midnightblue" points="294.589,-374.232 284.099,-375.72 293.227,-381.098 294.589,-374.232"/>
</g>
<!-- Node14 -->
<g id="node14" class="node"><title>Node14</title>
<polygon fill="none" stroke="#bfbfbf" points="1463.57,-134.5 1463.57,-153.5 1507.57,-153.5 1507.57,-134.5 1463.57,-134.5"/>
<text text-anchor="middle" x="1485.57" y="-141.5" font-family="Helvetica,sans-Serif" font-size="10.00">cmath</text>
</g>
<!-- Node5&#45;&gt;Node14 -->
<g id="edge13" class="edge"><title>Node5&#45;&gt;Node14</title>
<path fill="none" stroke="midnightblue" d="M840.564,-414.415C860.117,-406.56 881.322,-394.864 895.572,-378 914.998,-355.01 914.572,-343.098 914.572,-313 914.572,-313 914.572,-313 914.572,-255 914.572,-135.9 1315.49,-179.967 1453.44,-153.848"/>
<polygon fill="midnightblue" stroke="midnightblue" points="1454.24,-157.256 1463.29,-151.751 1452.78,-150.409 1454.24,-157.256"/>
</g>
<!-- Node15 -->
<g id="node15" class="node"><title>Node15</title>
<polygon fill="none" stroke="#bfbfbf" points="302.572,-358.5 302.572,-377.5 368.572,-377.5 368.572,-358.5 302.572,-358.5"/>
<text text-anchor="middle" x="335.572" y="-365.5" font-family="Helvetica,sans-Serif" font-size="10.00">string_view</text>
</g>
<!-- Node5&#45;&gt;Node15 -->
<g id="edge14" class="edge"><title>Node5&#45;&gt;Node15</title>
<path fill="none" stroke="midnightblue" d="M712.287,-420.964C630.934,-412.746 500.533,-398.231 378.856,-378.092"/>
<polygon fill="midnightblue" stroke="midnightblue" points="379.431,-374.64 368.991,-376.444 378.277,-381.544 379.431,-374.64"/>
</g>
<!-- Node16 -->
<g id="node16" class="node"><title>Node16</title>
<polygon fill="none" stroke="#bfbfbf" points="386.572,-358.5 386.572,-377.5 442.572,-377.5 442.572,-358.5 386.572,-358.5"/>
<text text-anchor="middle" x="414.572" y="-365.5" font-family="Helvetica,sans-Serif" font-size="10.00">algorithm</text>
</g>
<!-- Node5&#45;&gt;Node16 -->
<g id="edge15" class="edge"><title>Node5&#45;&gt;Node16</title>
<path fill="none" stroke="midnightblue" d="M712.559,-418.839C645.789,-410.199 547.448,-396.358 452.826,-378.101"/>
<polygon fill="midnightblue" stroke="midnightblue" points="453.28,-374.623 442.795,-376.146 451.941,-381.494 453.28,-374.623"/>
</g>
<!-- Node17 -->
<g id="node17" class="node"><title>Node17</title>
<polygon fill="none" stroke="#bfbfbf" points="461.072,-358.5 461.072,-377.5 520.072,-377.5 520.072,-358.5 461.072,-358.5"/>
<text text-anchor="middle" x="490.572" y="-365.5" font-family="Helvetica,sans-Serif" font-size="10.00">functional</text>
</g>
<!-- Node5&#45;&gt;Node17 -->
<g id="edge16" class="edge"><title>Node5&#45;&gt;Node17</title>
<path fill="none" stroke="midnightblue" d="M713.717,-414.456C663.737,-405.228 597.211,-392.555 530.29,-378.309"/>
<polygon fill="midnightblue" stroke="midnightblue" points="530.927,-374.866 520.416,-376.196 529.462,-381.711 530.927,-374.866"/>
</g>
<!-- Node18 -->
<g id="node18" class="node"><title>Node18</title>
<polygon fill="none" stroke="#bfbfbf" points="538.072,-358.5 538.072,-377.5 591.072,-377.5 591.072,-358.5 538.072,-358.5"/>
<text text-anchor="middle" x="564.572" y="-365.5" font-family="Helvetica,sans-Serif" font-size="10.00">gsl/span</text>
</g>
<!-- Node5&#45;&gt;Node18 -->
<g id="edge17" class="edge"><title>Node5&#45;&gt;Node18</title>
<path fill="none" stroke="midnightblue" d="M738.064,-414.475C695.89,-403.42 638.208,-388.301 601.164,-378.591"/>
<polygon fill="midnightblue" stroke="midnightblue" points="601.854,-375.154 591.293,-376.004 600.079,-381.925 601.854,-375.154"/>
</g>
<!-- Node19 -->
<g id="node19" class="node"><title>Node19</title>
<g id="a_node19"><a xlink:href="../../d7/df8/Types_8h.html" target="_top" xlink:title="MemoryResources/Types.h">
<polygon fill="none" stroke="black" points="609.072,-358.5 609.072,-377.5 746.072,-377.5 746.072,-358.5 609.072,-358.5"/>
<text text-anchor="middle" x="677.572" y="-365.5" font-family="Helvetica,sans-Serif" font-size="10.00">MemoryResources/Types.h</text>
</a>
</g>
</g>
<!-- Node5&#45;&gt;Node19 -->
<g id="edge18" class="edge"><title>Node5&#45;&gt;Node19</title>
<path fill="none" stroke="midnightblue" d="M764.556,-414.399C745.941,-404.684 721.362,-391.855 703.081,-382.314"/>
<polygon fill="midnightblue" stroke="midnightblue" points="704.645,-379.182 694.16,-377.658 701.406,-385.388 704.645,-379.182"/>
</g>
<!-- Node20 -->
<g id="node20" class="node"><title>Node20</title>
<g id="a_node20"><a xlink:href="../../df/d26/CRU_8h.html" target="_top" xlink:title="TPCBase/CRU.h">
<polygon fill="none" stroke="black" points="1337.07,-358.5 1337.07,-377.5 1430.07,-377.5 1430.07,-358.5 1337.07,-358.5"/>
<text text-anchor="middle" x="1383.57" y="-365.5" font-family="Helvetica,sans-Serif" font-size="10.00">TPCBase/CRU.h</text>
</a>
</g>
</g>
<!-- Node5&#45;&gt;Node20 -->
<g id="edge19" class="edge"><title>Node5&#45;&gt;Node20</title>
<path fill="none" stroke="midnightblue" d="M870.798,-420.537C992.001,-408.356 1220.55,-385.385 1326.71,-374.715"/>
<polygon fill="midnightblue" stroke="midnightblue" points="1327.3,-378.174 1336.9,-373.691 1326.6,-371.209 1327.3,-378.174"/>
</g>
<!-- Node37 -->
<g id="node37" class="node"><title>Node37</title>
<g id="a_node37"><a xlink:href="../../d4/d78/DataFormats_2Headers_2include_2Headers_2RAWDataHeader_8h.html" target="_top" xlink:title="Headers/RAWDataHeader.h">
<polygon fill="none" stroke="black" points="15.0721,-358.5 15.0721,-377.5 156.072,-377.5 156.072,-358.5 15.0721,-358.5"/>
<text text-anchor="middle" x="85.5721" y="-365.5" font-family="Helvetica,sans-Serif" font-size="10.00">Headers/RAWDataHeader.h</text>
</a>
</g>
</g>
<!-- Node5&#45;&gt;Node37 -->
<g id="edge41" class="edge"><title>Node5&#45;&gt;Node37</title>
<path fill="none" stroke="midnightblue" d="M712.446,-422.921C595.52,-414.497 369.444,-397.526 166.197,-378.031"/>
<polygon fill="midnightblue" stroke="midnightblue" points="166.519,-374.546 156.23,-377.071 165.848,-381.514 166.519,-374.546"/>
</g>
<!-- Node38 -->
<g id="node38" class="node"><title>Node38</title>
<g id="a_node38"><a xlink:href="../../de/d41/PadPos_8h.html" target="_top" xlink:title="TPCBase/PadPos.h">
<polygon fill="none" stroke="black" points="1477.07,-302.5 1477.07,-321.5 1582.07,-321.5 1582.07,-302.5 1477.07,-302.5"/>
<text text-anchor="middle" x="1529.57" y="-309.5" font-family="Helvetica,sans-Serif" font-size="10.00">TPCBase/PadPos.h</text>
</a>
</g>
</g>
<!-- Node5&#45;&gt;Node38 -->
<g id="edge43" class="edge"><title>Node5&#45;&gt;Node38</title>
<path fill="none" stroke="midnightblue" d="M870.696,-427.596C1019.73,-425.031 1336.27,-415.235 1438.57,-378 1454.11,-372.343 1489.28,-345.423 1511.06,-328.05"/>
<polygon fill="midnightblue" stroke="midnightblue" points="1513.35,-330.701 1518.95,-321.708 1508.96,-325.245 1513.35,-330.701"/>
</g>
<!-- Node39 -->
<g id="node39" class="node"><title>Node39</title>
<g id="a_node39"><a xlink:href="../../da/d61/PadROCPos_8h.html" target="_top" xlink:title="TPCBase/PadROCPos.h">
<polygon fill="none" stroke="black" points="1036.57,-358.5 1036.57,-377.5 1164.57,-377.5 1164.57,-358.5 1036.57,-358.5"/>
<text text-anchor="middle" x="1100.57" y="-365.5" font-family="Helvetica,sans-Serif" font-size="10.00">TPCBase/PadROCPos.h</text>
</a>
</g>
</g>
<!-- Node5&#45;&gt;Node39 -->
<g id="edge44" class="edge"><title>Node5&#45;&gt;Node39</title>
<path fill="none" stroke="midnightblue" d="M864.41,-414.475C920.163,-403.739 995.826,-389.17 1046.33,-379.445"/>
<polygon fill="midnightblue" stroke="midnightblue" points="1047.24,-382.834 1056.4,-377.506 1045.91,-375.96 1047.24,-382.834"/>
</g>
<!-- Node21 -->
<g id="node21" class="node"><title>Node21</title>
<g id="a_node21"><a xlink:href="../../d1/d73/Defs_8h.html" target="_top" xlink:title="Common definitions for 2D coordinates. ">
<polygon fill="none" stroke="black" points="1310.57,-190.5 1310.57,-209.5 1436.57,-209.5 1436.57,-190.5 1310.57,-190.5"/>
<text text-anchor="middle" x="1373.57" y="-197.5" font-family="Helvetica,sans-Serif" font-size="10.00">DataFormatsTPC/Defs.h</text>
</a>
</g>
</g>
<!-- Node20&#45;&gt;Node21 -->
<g id="edge20" class="edge"><title>Node20&#45;&gt;Node21</title>
<path fill="none" stroke="midnightblue" d="M1385.31,-358.419C1387.04,-349.399 1389.58,-334.77 1390.57,-322 1393.4,-285.483 1384.68,-243.184 1378.7,-219.513"/>
<polygon fill="midnightblue" stroke="midnightblue" points="1382.06,-218.538 1376.13,-209.765 1375.3,-220.327 1382.06,-218.538"/>
</g>
<!-- Node34 -->
<g id="node34" class="node"><title>Node34</title>
<g id="a_node34"><a xlink:href="../../d3/dd6/Sector_8h.html" target="_top" xlink:title="TPCBase/Sector.h">
<polygon fill="none" stroke="black" points="1639.07,-246.5 1639.07,-265.5 1738.07,-265.5 1738.07,-246.5 1639.07,-246.5"/>
<text text-anchor="middle" x="1688.57" y="-253.5" font-family="Helvetica,sans-Serif" font-size="10.00">TPCBase/Sector.h</text>
</a>
</g>
</g>
<!-- Node20&#45;&gt;Node34 -->
<g id="edge35" class="edge"><title>Node20&#45;&gt;Node34</title>
<path fill="none" stroke="midnightblue" d="M1391.99,-358.283C1406.18,-344.127 1436.39,-316.289 1467.57,-302 1519.03,-278.417 1582.85,-267.119 1628.66,-261.751"/>
<polygon fill="midnightblue" stroke="midnightblue" points="1629.17,-265.215 1638.73,-260.632 1628.4,-258.258 1629.17,-265.215"/>
</g>
<!-- Node36 -->
<g id="node36" class="node"><title>Node36</title>
<g id="a_node36"><a xlink:href="../../dc/d14/ROC_8h.html" target="_top" xlink:title="TPCBase/ROC.h">
<polygon fill="none" stroke="black" points="1289.07,-302.5 1289.07,-321.5 1382.07,-321.5 1382.07,-302.5 1289.07,-302.5"/>
<text text-anchor="middle" x="1335.57" y="-309.5" font-family="Helvetica,sans-Serif" font-size="10.00">TPCBase/ROC.h</text>
</a>
</g>
</g>
<!-- Node20&#45;&gt;Node36 -->
<g id="edge38" class="edge"><title>Node20&#45;&gt;Node36</title>
<path fill="none" stroke="midnightblue" d="M1375.65,-358.083C1368.73,-350.298 1358.51,-338.801 1350.12,-329.367"/>
<polygon fill="midnightblue" stroke="midnightblue" points="1352.61,-326.9 1343.35,-321.751 1347.38,-331.55 1352.61,-326.9"/>
</g>
<!-- Node21&#45;&gt;Node14 -->
<g id="edge21" class="edge"><title>Node21&#45;&gt;Node14</title>
<path fill="none" stroke="midnightblue" d="M1391.57,-190.324C1409.61,-181.625 1437.62,-168.12 1458.37,-158.113"/>
<polygon fill="midnightblue" stroke="midnightblue" points="1460.13,-161.15 1467.62,-153.655 1457.09,-154.845 1460.13,-161.15"/>
</g>
<!-- Node22 -->
<g id="node22" class="node"><title>Node22</title>
<g id="a_node22"><a xlink:href="../../d2/dd0/Cartesian2D_8h.html" target="_top" xlink:title="MathUtils/Cartesian2D.h">
<polygon fill="none" stroke="black" points="819.072,-73 819.072,-92 944.072,-92 944.072,-73 819.072,-73"/>
<text text-anchor="middle" x="881.572" y="-80" font-family="Helvetica,sans-Serif" font-size="10.00">MathUtils/Cartesian2D.h</text>
</a>
</g>
</g>
<!-- Node21&#45;&gt;Node22 -->
<g id="edge22" class="edge"><title>Node21&#45;&gt;Node22</title>
<path fill="none" stroke="midnightblue" d="M1336.99,-190.413C1248.92,-169.736 1025.16,-117.208 927.896,-94.3748"/>
<polygon fill="midnightblue" stroke="midnightblue" points="928.592,-90.9431 918.057,-92.065 926.992,-97.7578 928.592,-90.9431"/>
</g>
<!-- Node25 -->
<g id="node25" class="node"><title>Node25</title>
<g id="a_node25"><a xlink:href="../../dd/d76/Cartesian3D_8h.html" target="_top" xlink:title="MathUtils/Cartesian3D.h">
<polygon fill="none" stroke="black" points="1321.07,-134.5 1321.07,-153.5 1446.07,-153.5 1446.07,-134.5 1321.07,-134.5"/>
<text text-anchor="middle" x="1383.57" y="-141.5" font-family="Helvetica,sans-Serif" font-size="10.00">MathUtils/Cartesian3D.h</text>
</a>
</g>
</g>
<!-- Node21&#45;&gt;Node25 -->
<g id="edge25" class="edge"><title>Node21&#45;&gt;Node25</title>
<path fill="none" stroke="midnightblue" d="M1375.22,-190.083C1376.55,-182.927 1378.45,-172.635 1380.11,-163.691"/>
<polygon fill="midnightblue" stroke="midnightblue" points="1383.57,-164.221 1381.95,-153.751 1376.69,-162.947 1383.57,-164.221"/>
</g>
<!-- Node23 -->
<g id="node23" class="node"><title>Node23</title>
<polygon fill="none" stroke="#bfbfbf" points="715.072,-0.5 715.072,-30.5 866.072,-30.5 866.072,-0.5 715.072,-0.5"/>
<text text-anchor="start" x="723.072" y="-18.5" font-family="Helvetica,sans-Serif" font-size="10.00">Math/GenVector/Displacement</text>
<text text-anchor="middle" x="790.572" y="-7.5" font-family="Helvetica,sans-Serif" font-size="10.00">Vector2D.h</text>
</g>
<!-- Node22&#45;&gt;Node23 -->
<g id="edge23" class="edge"><title>Node22&#45;&gt;Node23</title>
<path fill="none" stroke="midnightblue" d="M869.299,-72.7338C856.41,-63.527 835.698,-48.7328 818.753,-36.6293"/>
<polygon fill="midnightblue" stroke="midnightblue" points="820.468,-33.5534 810.297,-30.589 816.4,-39.2495 820.468,-33.5534"/>
</g>
<!-- Node24 -->
<g id="node24" class="node"><title>Node24</title>
<polygon fill="none" stroke="#bfbfbf" points="884.572,-6 884.572,-25 1060.57,-25 1060.57,-6 884.572,-6"/>
<text text-anchor="middle" x="972.572" y="-13" font-family="Helvetica,sans-Serif" font-size="10.00">Math/GenVector/PositionVector2D.h</text>
</g>
<!-- Node22&#45;&gt;Node24 -->
<g id="edge24" class="edge"><title>Node22&#45;&gt;Node24</title>
<path fill="none" stroke="midnightblue" d="M893.845,-72.7338C908.717,-62.1106 934.004,-44.0485 951.902,-31.2642"/>
<polygon fill="midnightblue" stroke="midnightblue" points="954.391,-33.7878 960.494,-25.1273 950.322,-28.0917 954.391,-33.7878"/>
</g>
<!-- Node25&#45;&gt;Node22 -->
<g id="edge34" class="edge"><title>Node25&#45;&gt;Node22</title>
<path fill="none" stroke="midnightblue" d="M1320.87,-138.38C1236.76,-131.744 1082.88,-118.06 952.572,-98 945.137,-96.8554 937.301,-95.4544 929.658,-93.9792"/>
<polygon fill="midnightblue" stroke="midnightblue" points="930.262,-90.5307 919.771,-92.0125 928.896,-97.3962 930.262,-90.5307"/>
</g>
<!-- Node26 -->
<g id="node26" class="node"><title>Node26</title>
<polygon fill="none" stroke="#bfbfbf" points="1650.07,-67.5 1650.07,-97.5 1801.07,-97.5 1801.07,-67.5 1650.07,-67.5"/>
<text text-anchor="start" x="1658.07" y="-85.5" font-family="Helvetica,sans-Serif" font-size="10.00">Math/GenVector/Displacement</text>
<text text-anchor="middle" x="1725.57" y="-74.5" font-family="Helvetica,sans-Serif" font-size="10.00">Vector3D.h</text>
</g>
<!-- Node25&#45;&gt;Node26 -->
<g id="edge26" class="edge"><title>Node25&#45;&gt;Node26</title>
<path fill="none" stroke="midnightblue" d="M1432.57,-134.475C1486.59,-125.077 1574.51,-109.781 1639.97,-98.3928"/>
<polygon fill="midnightblue" stroke="midnightblue" points="1640.61,-101.834 1649.87,-96.6712 1639.41,-94.9371 1640.61,-101.834"/>
</g>
<!-- Node27 -->
<g id="node27" class="node"><title>Node27</title>
<polygon fill="none" stroke="#bfbfbf" points="1819.57,-73 1819.57,-92 1995.57,-92 1995.57,-73 1819.57,-73"/>
<text text-anchor="middle" x="1907.57" y="-80" font-family="Helvetica,sans-Serif" font-size="10.00">Math/GenVector/PositionVector3D.h</text>
</g>
<!-- Node25&#45;&gt;Node27 -->
<g id="edge27" class="edge"><title>Node25&#45;&gt;Node27</title>
<path fill="none" stroke="midnightblue" d="M1446.28,-134.964C1449.08,-134.632 1451.86,-134.309 1454.57,-134 1612.58,-115.999 1652.78,-117.761 1810.57,-98 1821.31,-96.6554 1832.69,-95.0849 1843.74,-93.4835"/>
<polygon fill="midnightblue" stroke="midnightblue" points="1844.38,-96.9274 1853.76,-92.0097 1843.36,-90.0018 1844.38,-96.9274"/>
</g>
<!-- Node28 -->
<g id="node28" class="node"><title>Node28</title>
<polygon fill="none" stroke="#bfbfbf" points="962.072,-73 962.072,-92 1111.07,-92 1111.07,-73 962.072,-73"/>
<text text-anchor="middle" x="1036.57" y="-80" font-family="Helvetica,sans-Serif" font-size="10.00">Math/GenVector/Rotation3D.h</text>
</g>
<!-- Node25&#45;&gt;Node28 -->
<g id="edge28" class="edge"><title>Node25&#45;&gt;Node28</title>
<path fill="none" stroke="midnightblue" d="M1333.64,-134.479C1280.73,-125.445 1194.76,-110.75 1120.57,-98 1112.59,-96.6278 1104.18,-95.1795 1095.89,-93.7502"/>
<polygon fill="midnightblue" stroke="midnightblue" points="1096.32,-90.2736 1085.87,-92.0228 1095.13,-97.1718 1096.32,-90.2736"/>
</g>
<!-- Node29 -->
<g id="node29" class="node"><title>Node29</title>
<polygon fill="none" stroke="#bfbfbf" points="1129.57,-73 1129.57,-92 1285.57,-92 1285.57,-73 1129.57,-73"/>
<text text-anchor="middle" x="1207.57" y="-80" font-family="Helvetica,sans-Serif" font-size="10.00">Math/GenVector/Transform3D.h</text>
</g>
<!-- Node25&#45;&gt;Node29 -->
<g id="edge29" class="edge"><title>Node25&#45;&gt;Node29</title>
<path fill="none" stroke="midnightblue" d="M1358.36,-134.475C1327.9,-124.18 1276.52,-106.81 1242.33,-95.2502"/>
<polygon fill="midnightblue" stroke="midnightblue" points="1243.34,-91.8961 1232.74,-92.0091 1241.09,-98.5274 1243.34,-91.8961"/>
</g>
<!-- Node30 -->
<g id="node30" class="node"><title>Node30</title>
<polygon fill="none" stroke="#bfbfbf" points="1303.57,-73 1303.57,-92 1463.57,-92 1463.57,-73 1303.57,-73"/>
<text text-anchor="middle" x="1383.57" y="-80" font-family="Helvetica,sans-Serif" font-size="10.00">Math/GenVector/Translation3D.h</text>
</g>
<!-- Node25&#45;&gt;Node30 -->
<g id="edge30" class="edge"><title>Node25&#45;&gt;Node30</title>
<path fill="none" stroke="midnightblue" d="M1383.57,-134.475C1383.57,-126.08 1383.57,-112.981 1383.57,-102.163"/>
<polygon fill="midnightblue" stroke="midnightblue" points="1387.07,-102.009 1383.57,-92.0091 1380.07,-102.009 1387.07,-102.009"/>
</g>
<!-- Node31 -->
<g id="node31" class="node"><title>Node31</title>
<polygon fill="none" stroke="#bfbfbf" points="1481.57,-73 1481.57,-92 1537.57,-92 1537.57,-73 1481.57,-73"/>
<text text-anchor="middle" x="1509.57" y="-80" font-family="Helvetica,sans-Serif" font-size="10.00">Rtypes.h</text>
</g>
<!-- Node25&#45;&gt;Node31 -->
<g id="edge31" class="edge"><title>Node25&#45;&gt;Node31</title>
<path fill="none" stroke="midnightblue" d="M1401.62,-134.475C1422.77,-124.49 1458.01,-107.848 1482.45,-96.3075"/>
<polygon fill="midnightblue" stroke="midnightblue" points="1484,-99.4441 1491.55,-92.0091 1481.02,-93.1143 1484,-99.4441"/>
</g>
<!-- Node32 -->
<g id="node32" class="node"><title>Node32</title>
<polygon fill="none" stroke="#bfbfbf" points="1555.57,-73 1555.57,-92 1631.57,-92 1631.57,-73 1555.57,-73"/>
<text text-anchor="middle" x="1593.57" y="-80" font-family="Helvetica,sans-Serif" font-size="10.00">TGeoMatrix.h</text>
</g>
<!-- Node25&#45;&gt;Node32 -->
<g id="edge32" class="edge"><title>Node25&#45;&gt;Node32</title>
<path fill="none" stroke="midnightblue" d="M1415.51,-134.485C1448.43,-125.638 1501.2,-111.257 1546.57,-98 1549.77,-97.0659 1553.08,-96.0799 1556.4,-95.0794"/>
<polygon fill="midnightblue" stroke="midnightblue" points="1557.73,-98.3342 1566.28,-92.0723 1555.69,-91.6379 1557.73,-98.3342"/>
</g>
<!-- Node33 -->
<g id="node33" class="node"><title>Node33</title>
<polygon fill="none" stroke="#bfbfbf" points="2016.07,-73 2016.07,-92 2061.07,-92 2061.07,-73 2016.07,-73"/>
<text text-anchor="middle" x="2038.57" y="-80" font-family="Helvetica,sans-Serif" font-size="10.00">iosfwd</text>
</g>
<!-- Node25&#45;&gt;Node33 -->
<g id="edge33" class="edge"><title>Node25&#45;&gt;Node33</title>
<path fill="none" stroke="midnightblue" d="M1446.27,-134.843C1449.07,-134.544 1451.85,-134.261 1454.57,-134 1698.42,-110.586 1766.29,-154.858 2004.57,-98 2007.08,-97.4005 2009.65,-96.6311 2012.18,-95.76"/>
<polygon fill="midnightblue" stroke="midnightblue" points="2013.63,-98.9522 2021.66,-92.0409 2011.07,-92.436 2013.63,-98.9522"/>
</g>
<!-- Node34&#45;&gt;Node21 -->
<g id="edge37" class="edge"><title>Node34&#45;&gt;Node21</title>
<path fill="none" stroke="midnightblue" d="M1639.01,-246.503C1583.32,-236.957 1492.95,-221.465 1433.38,-211.253"/>
<polygon fill="midnightblue" stroke="midnightblue" points="1433.82,-207.776 1423.37,-209.536 1432.63,-214.676 1433.82,-207.776"/>
</g>
<!-- Node35 -->
<g id="node35" class="node"><title>Node35</title>
<g id="a_node35"><a xlink:href="../../d0/dda/DataFormats_2Detectors_2TPC_2include_2DataFormatsTPC_2Constants_8h.html" target="_top" xlink:title="DataFormatsTPC/Constants.h">
<polygon fill="none" stroke="black" points="1613.57,-190.5 1613.57,-209.5 1763.57,-209.5 1763.57,-190.5 1613.57,-190.5"/>
<text text-anchor="middle" x="1688.57" y="-197.5" font-family="Helvetica,sans-Serif" font-size="10.00">DataFormatsTPC/Constants.h</text>
</a>
</g>
</g>
<!-- Node34&#45;&gt;Node35 -->
<g id="edge36" class="edge"><title>Node34&#45;&gt;Node35</title>
<path fill="none" stroke="midnightblue" d="M1688.57,-246.083C1688.57,-239.006 1688.57,-228.861 1688.57,-219.986"/>
<polygon fill="midnightblue" stroke="midnightblue" points="1692.07,-219.751 1688.57,-209.751 1685.07,-219.751 1692.07,-219.751"/>
</g>
<!-- Node36&#45;&gt;Node21 -->
<g id="edge39" class="edge"><title>Node36&#45;&gt;Node21</title>
<path fill="none" stroke="midnightblue" d="M1338.55,-302.368C1344.71,-284.537 1358.96,-243.295 1367.26,-219.272"/>
<polygon fill="midnightblue" stroke="midnightblue" points="1370.65,-220.186 1370.6,-209.591 1364.03,-217.9 1370.65,-220.186"/>
</g>
<!-- Node36&#45;&gt;Node34 -->
<g id="edge40" class="edge"><title>Node36&#45;&gt;Node34</title>
<path fill="none" stroke="midnightblue" d="M1382.08,-303.885C1445.52,-294.181 1559.22,-276.787 1628.88,-266.131"/>
<polygon fill="midnightblue" stroke="midnightblue" points="1629.47,-269.582 1638.83,-264.61 1628.41,-262.662 1629.47,-269.582"/>
</g>
<!-- Node37&#45;&gt;Node8 -->
<g id="edge42" class="edge"><title>Node37&#45;&gt;Node8</title>
<path fill="none" stroke="midnightblue" d="M77.4808,-358.083C70.4168,-350.298 59.9846,-338.801 51.4232,-329.367"/>
<polygon fill="midnightblue" stroke="midnightblue" points="53.8248,-326.805 44.5129,-321.751 48.6409,-331.509 53.8248,-326.805"/>
</g>
<!-- Node39&#45;&gt;Node21 -->
<g id="edge45" class="edge"><title>Node39&#45;&gt;Node21</title>
<path fill="none" stroke="midnightblue" d="M1108.66,-358.473C1129.56,-336.865 1187.88,-279.315 1246.57,-246 1272.7,-231.167 1304.58,-219.89 1329.87,-212.335"/>
<polygon fill="midnightblue" stroke="midnightblue" points="1330.93,-215.671 1339.56,-209.523 1328.98,-208.949 1330.93,-215.671"/>
</g>
<!-- Node39&#45;&gt;Node36 -->
<g id="edge46" class="edge"><title>Node39&#45;&gt;Node36</title>
<path fill="none" stroke="midnightblue" d="M1137.81,-358.444C1178.63,-349.063 1244.22,-333.993 1288.56,-323.804"/>
<polygon fill="midnightblue" stroke="midnightblue" points="1289.55,-327.167 1298.51,-321.516 1287.98,-320.345 1289.55,-327.167"/>
</g>
<!-- Node39&#45;&gt;Node38 -->
<g id="edge47" class="edge"><title>Node39&#45;&gt;Node38</title>
<path fill="none" stroke="midnightblue" d="M1164.8,-358.916C1246.28,-348.659 1385.9,-331.085 1466.72,-320.912"/>
<polygon fill="midnightblue" stroke="midnightblue" points="1467.27,-324.37 1476.76,-319.648 1466.4,-317.424 1467.27,-324.37"/>
</g>
<!-- Node40&#45;&gt;Node10 -->
<g id="edge50" class="edge"><title>Node40&#45;&gt;Node10</title>
<path fill="none" stroke="midnightblue" d="M1485.09,-481.46C1426.07,-470.993 1333.57,-453.589 1319.57,-445 1296.43,-430.798 1278.33,-404.53 1268.04,-386.909"/>
<polygon fill="midnightblue" stroke="midnightblue" points="1270.83,-384.725 1262.91,-377.689 1264.72,-388.129 1270.83,-384.725"/>
</g>
<!-- Node40&#45;&gt;Node11 -->
<g id="edge49" class="edge"><title>Node40&#45;&gt;Node11</title>
<path fill="none" stroke="midnightblue" d="M1482.92,-482.314C1414.72,-471.924 1301.16,-453.699 1283.57,-445 1254.68,-430.705 1228.55,-403.266 1213.63,-385.564"/>
<polygon fill="midnightblue" stroke="midnightblue" points="1216.28,-383.279 1207.24,-377.756 1210.86,-387.712 1216.28,-383.279"/>
</g>
<!-- Node40&#45;&gt;Node12 -->
<g id="edge51" class="edge"><title>Node40&#45;&gt;Node12</title>
<path fill="none" stroke="midnightblue" d="M1482.73,-482.632C1477.95,-482.043 1473.17,-481.488 1468.57,-481 1416.05,-475.429 1037.61,-475.624 994.572,-445 975.937,-431.739 967.72,-405.633 964.169,-387.754"/>
<polygon fill="midnightblue" stroke="midnightblue" points="967.617,-387.155 962.509,-377.873 960.714,-388.314 967.617,-387.155"/>
</g>
<!-- Node40&#45;&gt;Node14 -->
<g id="edge53" class="edge"><title>Node40&#45;&gt;Node14</title>
<path fill="none" stroke="midnightblue" d="M1586.47,-481.448C1637.52,-472.511 1711.48,-458.005 1737.57,-445 1784.12,-421.793 1826.57,-421.015 1826.57,-369 1826.57,-369 1826.57,-369 1826.57,-255 1826.57,-217.442 1805.23,-208.549 1772.57,-190 1729.47,-165.52 1583.36,-152.103 1517.84,-147.192"/>
<polygon fill="midnightblue" stroke="midnightblue" points="1517.9,-143.688 1507.67,-146.451 1517.39,-150.669 1517.9,-143.688"/>
</g>
<!-- Node40&#45;&gt;Node21 -->
<g id="edge54" class="edge"><title>Node40&#45;&gt;Node21</title>
<path fill="none" stroke="midnightblue" d="M1483.05,-484.127C1385.57,-472.955 1182.52,-449.361 1167.57,-445 1092.38,-423.058 1008.57,-447.324 1008.57,-369 1008.57,-369 1008.57,-369 1008.57,-311 1008.57,-250.652 1193.8,-220.462 1300.35,-208.088"/>
<polygon fill="midnightblue" stroke="midnightblue" points="1300.87,-211.552 1310.41,-206.946 1300.08,-204.597 1300.87,-211.552"/>
</g>
<!-- Node40&#45;&gt;Node34 -->
<g id="edge72" class="edge"><title>Node40&#45;&gt;Node34</title>
<path fill="none" stroke="midnightblue" d="M1575.24,-481.437C1617.15,-472.177 1679.3,-457.117 1700.57,-445 1737.72,-423.846 1752.92,-417.37 1769.57,-378 1787.31,-336.041 1739.94,-293.195 1710.33,-271.504"/>
<polygon fill="midnightblue" stroke="midnightblue" points="1712.35,-268.642 1702.16,-265.719 1708.3,-274.355 1712.35,-268.642"/>
</g>
<!-- Node40&#45;&gt;Node38 -->
<g id="edge55" class="edge"><title>Node40&#45;&gt;Node38</title>
<path fill="none" stroke="midnightblue" d="M1534.33,-481.463C1533.57,-454.428 1531.19,-370.239 1530.11,-332.109"/>
<polygon fill="midnightblue" stroke="midnightblue" points="1533.6,-331.766 1529.82,-321.868 1526.61,-331.963 1533.6,-331.766"/>
</g>
<!-- Node40&#45;&gt;Node39 -->
<g id="edge59" class="edge"><title>Node40&#45;&gt;Node39</title>
<path fill="none" stroke="midnightblue" d="M1483,-482.671C1401.04,-470.953 1249.06,-448.916 1237.57,-445 1193.35,-429.932 1146.8,-400.874 1120.95,-383.38"/>
<polygon fill="midnightblue" stroke="midnightblue" points="1122.93,-380.495 1112.71,-377.717 1118.97,-386.264 1122.93,-380.495"/>
</g>
<!-- Node41 -->
<g id="node41" class="node"><title>Node41</title>
<polygon fill="none" stroke="#bfbfbf" points="1855.07,-420 1855.07,-439 1896.07,-439 1896.07,-420 1855.07,-420"/>
<text text-anchor="middle" x="1875.57" y="-427" font-family="Helvetica,sans-Serif" font-size="10.00">string</text>
</g>
<!-- Node40&#45;&gt;Node41 -->
<g id="edge52" class="edge"><title>Node40&#45;&gt;Node41</title>
<path fill="none" stroke="midnightblue" d="M1586.16,-482.387C1589.34,-481.917 1592.5,-481.452 1595.57,-481 1704.46,-464.968 1734.48,-474.285 1840.57,-445 1843.01,-444.326 1845.51,-443.527 1847.99,-442.656"/>
<polygon fill="midnightblue" stroke="midnightblue" points="1849.27,-445.913 1857.34,-439.048 1846.75,-439.383 1849.27,-445.913"/>
</g>
<!-- Node42 -->
<g id="node42" class="node"><title>Node42</title>
<g id="a_node42"><a xlink:href="../../dd/d0b/PadSecPos_8h.html" target="_top" xlink:title="TPCBase/PadSecPos.h">
<polygon fill="none" stroke="black" points="1638.57,-358.5 1638.57,-377.5 1760.57,-377.5 1760.57,-358.5 1638.57,-358.5"/>
<text text-anchor="middle" x="1699.57" y="-365.5" font-family="Helvetica,sans-Serif" font-size="10.00">TPCBase/PadSecPos.h</text>
</a>
</g>
</g>
<!-- Node40&#45;&gt;Node42 -->
<g id="edge56" class="edge"><title>Node40&#45;&gt;Node42</title>
<path fill="none" stroke="midnightblue" d="M1577.52,-481.484C1614.95,-473.226 1665.4,-459.803 1679.57,-445 1694.21,-429.705 1698.45,-405.026 1699.52,-387.96"/>
<polygon fill="midnightblue" stroke="midnightblue" points="1703.03,-387.674 1699.84,-377.57 1696.04,-387.457 1703.03,-387.674"/>
</g>
<!-- Node43 -->
<g id="node43" class="node"><title>Node43</title>
<g id="a_node43"><a xlink:href="../../d3/d54/DigitPos_8h.html" target="_top" xlink:title="TPCBase/DigitPos.h">
<polygon fill="none" stroke="black" points="1562.57,-420 1562.57,-439 1670.57,-439 1670.57,-420 1562.57,-420"/>
<text text-anchor="middle" x="1616.57" y="-427" font-family="Helvetica,sans-Serif" font-size="10.00">TPCBase/DigitPos.h</text>
</a>
</g>
</g>
<!-- Node40&#45;&gt;Node43 -->
<g id="edge60" class="edge"><title>Node40&#45;&gt;Node43</title>
<path fill="none" stroke="midnightblue" d="M1546.32,-481.475C1559.35,-472.02 1580.61,-456.596 1596.33,-445.187"/>
<polygon fill="midnightblue" stroke="midnightblue" points="1598.81,-447.715 1604.85,-439.009 1594.7,-442.049 1598.81,-447.715"/>
</g>
<!-- Node44 -->
<g id="node44" class="node"><title>Node44</title>
<g id="a_node44"><a xlink:href="../../d1/d1f/FECInfo_8h.html" target="_top" xlink:title="TPCBase/FECInfo.h">
<polygon fill="none" stroke="black" points="2009.07,-246.5 2009.07,-265.5 2116.07,-265.5 2116.07,-246.5 2009.07,-246.5"/>
<text text-anchor="middle" x="2062.57" y="-253.5" font-family="Helvetica,sans-Serif" font-size="10.00">TPCBase/FECInfo.h</text>
</a>
</g>
</g>
<!-- Node40&#45;&gt;Node44 -->
<g id="edge65" class="edge"><title>Node40&#45;&gt;Node44</title>
<path fill="none" stroke="midnightblue" d="M1586.13,-482.147C1589.32,-481.737 1592.49,-481.35 1595.57,-481 1645.52,-475.328 2010.93,-480.453 2046.57,-445 2092.03,-399.778 2077.33,-313.793 2067.88,-275.824"/>
<polygon fill="midnightblue" stroke="midnightblue" points="2071.14,-274.45 2065.2,-265.68 2064.38,-276.243 2071.14,-274.45"/>
</g>
<!-- Node45 -->
<g id="node45" class="node"><title>Node45</title>
<g id="a_node45"><a xlink:href="../../da/d9d/PadRegionInfo_8h.html" target="_top" xlink:title="TPCBase/PadRegionInfo.h">
<polygon fill="none" stroke="black" points="1329.07,-420 1329.07,-439 1464.07,-439 1464.07,-420 1329.07,-420"/>
<text text-anchor="middle" x="1396.57" y="-427" font-family="Helvetica,sans-Serif" font-size="10.00">TPCBase/PadRegionInfo.h</text>
</a>
</g>
</g>
<!-- Node40&#45;&gt;Node45 -->
<g id="edge67" class="edge"><title>Node40&#45;&gt;Node45</title>
<path fill="none" stroke="midnightblue" d="M1514.8,-481.475C1491.44,-471.401 1452.36,-454.553 1425.57,-443.002"/>
<polygon fill="midnightblue" stroke="midnightblue" points="1426.88,-439.754 1416.31,-439.009 1424.1,-446.182 1426.88,-439.754"/>
</g>
<!-- Node46 -->
<g id="node46" class="node"><title>Node46</title>
<g id="a_node46"><a xlink:href="../../d6/d42/PartitionInfo_8h.html" target="_top" xlink:title="TPCBase/PartitionInfo.h">
<polygon fill="none" stroke="black" points="1914.07,-420 1914.07,-439 2037.07,-439 2037.07,-420 1914.07,-420"/>
<text text-anchor="middle" x="1975.57" y="-427" font-family="Helvetica,sans-Serif" font-size="10.00">TPCBase/PartitionInfo.h</text>
</a>
</g>
</g>
<!-- Node40&#45;&gt;Node46 -->
<g id="edge71" class="edge"><title>Node40&#45;&gt;Node46</title>
<path fill="none" stroke="midnightblue" d="M1586.14,-482.277C1589.33,-481.835 1592.49,-481.406 1595.57,-481 1733.09,-462.875 1768.64,-467.089 1905.57,-445 1912.73,-443.845 1920.27,-442.462 1927.64,-441.015"/>
<polygon fill="midnightblue" stroke="midnightblue" points="1928.43,-444.426 1937.54,-439.017 1927.04,-437.565 1928.43,-444.426"/>
</g>
<!-- Node42&#45;&gt;Node34 -->
<g id="edge57" class="edge"><title>Node42&#45;&gt;Node34</title>
<path fill="none" stroke="midnightblue" d="M1698.71,-358.368C1696.93,-340.617 1692.84,-299.666 1690.43,-275.597"/>
<polygon fill="midnightblue" stroke="midnightblue" points="1693.91,-275.193 1689.43,-265.591 1686.94,-275.89 1693.91,-275.193"/>
</g>
<!-- Node42&#45;&gt;Node38 -->
<g id="edge58" class="edge"><title>Node42&#45;&gt;Node38</title>
<path fill="none" stroke="midnightblue" d="M1672.64,-358.444C1643.91,-349.32 1598.24,-334.813 1566.25,-324.651"/>
<polygon fill="midnightblue" stroke="midnightblue" points="1566.97,-321.208 1556.38,-321.516 1564.85,-327.88 1566.97,-321.208"/>
</g>
<!-- Node43&#45;&gt;Node20 -->
<g id="edge62" class="edge"><title>Node43&#45;&gt;Node20</title>
<path fill="none" stroke="midnightblue" d="M1583.19,-419.975C1542.01,-409.459 1471.92,-391.562 1426.7,-380.014"/>
<polygon fill="midnightblue" stroke="midnightblue" points="1427.45,-376.592 1416.89,-377.509 1425.72,-383.375 1427.45,-376.592"/>
</g>
<!-- Node43&#45;&gt;Node21 -->
<g id="edge61" class="edge"><title>Node43&#45;&gt;Node21</title>
<path fill="none" stroke="midnightblue" d="M1617.37,-419.735C1618.9,-397.496 1619.93,-338.085 1591.57,-302 1551.58,-251.113 1479.99,-224.808 1429.79,-211.981"/>
<polygon fill="midnightblue" stroke="midnightblue" points="1430.6,-208.575 1420.05,-209.592 1428.93,-215.374 1430.6,-208.575"/>
</g>
<!-- Node43&#45;&gt;Node38 -->
<g id="edge63" class="edge"><title>Node43&#45;&gt;Node38</title>
<path fill="none" stroke="midnightblue" d="M1610.03,-419.819C1595.67,-400.755 1561.17,-354.947 1542.35,-329.958"/>
<polygon fill="midnightblue" stroke="midnightblue" points="1545,-327.664 1536.19,-321.782 1539.41,-331.875 1545,-327.664"/>
</g>
<!-- Node43&#45;&gt;Node42 -->
<g id="edge64" class="edge"><title>Node43&#45;&gt;Node42</title>
<path fill="none" stroke="midnightblue" d="M1628.46,-419.975C1641.78,-410.431 1663.57,-394.807 1679.53,-383.368"/>
<polygon fill="midnightblue" stroke="midnightblue" points="1681.61,-386.18 1687.7,-377.509 1677.54,-380.491 1681.61,-386.18"/>
</g>
<!-- Node44&#45;&gt;Node33 -->
<g id="edge66" class="edge"><title>Node44&#45;&gt;Node33</title>
<path fill="none" stroke="midnightblue" d="M2061.35,-246.26C2057.63,-219.651 2046.37,-139.215 2041.21,-102.338"/>
<polygon fill="midnightblue" stroke="midnightblue" points="2044.62,-101.438 2039.76,-92.0194 2037.68,-102.408 2044.62,-101.438"/>
</g>
<!-- Node45&#45;&gt;Node10 -->
<g id="edge68" class="edge"><title>Node45&#45;&gt;Node10</title>
<path fill="none" stroke="midnightblue" d="M1376.8,-419.975C1353.44,-409.901 1314.36,-393.053 1287.57,-381.502"/>
<polygon fill="midnightblue" stroke="midnightblue" points="1288.88,-378.254 1278.31,-377.509 1286.1,-384.682 1288.88,-378.254"/>
</g>
<!-- Node45&#45;&gt;Node21 -->
<g id="edge69" class="edge"><title>Node45&#45;&gt;Node21</title>
<path fill="none" stroke="midnightblue" d="M1379.54,-419.959C1351.61,-404.795 1297.39,-370.174 1279.57,-322 1263.04,-277.303 1315.68,-235.905 1348.78,-215.08"/>
<polygon fill="midnightblue" stroke="midnightblue" points="1350.79,-217.951 1357.52,-209.766 1347.16,-211.969 1350.79,-217.951"/>
</g>
<!-- Node45&#45;&gt;Node38 -->
<g id="edge70" class="edge"><title>Node45&#45;&gt;Node38</title>
<path fill="none" stroke="midnightblue" d="M1411.97,-419.908C1427.95,-410.631 1453.26,-394.897 1472.57,-378 1489.44,-363.247 1506.02,-343.594 1516.91,-329.774"/>
<polygon fill="midnightblue" stroke="midnightblue" points="1519.85,-331.698 1523.19,-321.645 1514.31,-327.418 1519.85,-331.698"/>
</g>
</g>
</svg>
