<?xml version="1.0" encoding="UTF-8" standalone="no"?>
<!DOCTYPE svg PUBLIC "-//W3C//DTD SVG 1.1//EN"
 "http://www.w3.org/Graphics/SVG/1.1/DTD/svg11.dtd">
<!-- Generated by graphviz version 2.38.0 (20140413.2041)
 -->
<!-- Title: /home/travis/build/AliceO2Group/AliceO2/Detectors/TPC/calibration/src/CalibPedestalParam.cxx Pages: 1 -->
<svg width="1802pt" height="385pt"
 viewBox="0.00 0.00 1801.50 385.00" xmlns="http://www.w3.org/2000/svg" xmlns:xlink="http://www.w3.org/1999/xlink">
<g id="graph0" class="graph" transform="scale(1 1) rotate(0) translate(4 381)">
<title>/home/travis/build/AliceO2Group/AliceO2/Detectors/TPC/calibration/src/CalibPedestalParam.cxx</title>
<!-- Node1 -->
<g id="node1" class="node"><title>Node1</title>
<polygon fill="#bfbfbf" stroke="black" points="358,-324.5 358,-376.5 502,-376.5 502,-324.5 358,-324.5"/>
<text text-anchor="start" x="366" y="-364.5" font-family="Helvetica,sans-Serif" font-size="10.00">/home/travis/build</text>
<text text-anchor="start" x="366" y="-353.5" font-family="Helvetica,sans-Serif" font-size="10.00">/AliceO2Group/AliceO2</text>
<text text-anchor="start" x="366" y="-342.5" font-family="Helvetica,sans-Serif" font-size="10.00">/Detectors/TPC/calibration</text>
<text text-anchor="middle" x="430" y="-331.5" font-family="Helvetica,sans-Serif" font-size="10.00">/src/CalibPedestalParam.cxx</text>
</g>
<!-- Node2 -->
<g id="node2" class="node"><title>Node2</title>
<g id="a_node2"><a xlink:href="../../d0/d41/CalibPedestalParam_8h.html" target="_top" xlink:title="Implementation of the parameter class for the pedestal calibration. ">
<polygon fill="none" stroke="black" points="356.5,-257.5 356.5,-287.5 503.5,-287.5 503.5,-257.5 356.5,-257.5"/>
<text text-anchor="start" x="364.5" y="-275.5" font-family="Helvetica,sans-Serif" font-size="10.00">TPCCalibration/CalibPedestal</text>
<text text-anchor="middle" x="430" y="-264.5" font-family="Helvetica,sans-Serif" font-size="10.00">Param.h</text>
</a>
</g>
</g>
<!-- Node1&#45;&gt;Node2 -->
<g id="edge1" class="edge"><title>Node1&#45;&gt;Node2</title>
<path fill="none" stroke="midnightblue" d="M430,-324.193C430,-315.786 430,-306.443 430,-298.091"/>
<polygon fill="midnightblue" stroke="midnightblue" points="433.5,-297.845 430,-287.845 426.5,-297.845 433.5,-297.845"/>
</g>
<!-- Node3 -->
<g id="node3" class="node"><title>Node3</title>
<g id="a_node3"><a xlink:href="../../db/d2c/ConfigurableParam_8h.html" target="_top" xlink:title="SimConfig/ConfigurableParam.h">
<polygon fill="none" stroke="black" points="188.5,-134.5 188.5,-153.5 345.5,-153.5 345.5,-134.5 188.5,-134.5"/>
<text text-anchor="middle" x="267" y="-141.5" font-family="Helvetica,sans-Serif" font-size="10.00">SimConfig/ConfigurableParam.h</text>
</a>
</g>
</g>
<!-- Node2&#45;&gt;Node3 -->
<g id="edge2" class="edge"><title>Node2&#45;&gt;Node3</title>
<path fill="none" stroke="midnightblue" d="M403.284,-257.471C386.267,-248.052 364.101,-234.866 346,-221 321.812,-202.472 296.981,-177.395 281.771,-161.207"/>
<polygon fill="midnightblue" stroke="midnightblue" points="284.114,-158.586 274.749,-153.633 278.981,-163.345 284.114,-158.586"/>
</g>
<!-- Node10 -->
<g id="node10" class="node"><title>Node10</title>
<g id="a_node10"><a xlink:href="../../da/d6b/ConfigurableParamHelper_8h.html" target="_top" xlink:title="SimConfig/ConfigurableParam\lHelper.h">
<polygon fill="none" stroke="black" points="355.5,-190.5 355.5,-220.5 504.5,-220.5 504.5,-190.5 355.5,-190.5"/>
<text text-anchor="start" x="363.5" y="-208.5" font-family="Helvetica,sans-Serif" font-size="10.00">SimConfig/ConfigurableParam</text>
<text text-anchor="middle" x="430" y="-197.5" font-family="Helvetica,sans-Serif" font-size="10.00">Helper.h</text>
</a>
</g>
</g>
<!-- Node2&#45;&gt;Node10 -->
<g id="edge9" class="edge"><title>Node2&#45;&gt;Node10</title>
<path fill="none" stroke="midnightblue" d="M430,-257.396C430,-249.645 430,-239.812 430,-230.86"/>
<polygon fill="midnightblue" stroke="midnightblue" points="433.5,-230.576 430,-220.577 426.5,-230.577 433.5,-230.576"/>
</g>
<!-- Node14 -->
<g id="node14" class="node"><title>Node14</title>
<g id="a_node14"><a xlink:href="../../d1/d73/Defs_8h.html" target="_top" xlink:title="Common definitions for 2D coordinates. ">
<polygon fill="none" stroke="black" points="606,-196 606,-215 732,-215 732,-196 606,-196"/>
<text text-anchor="middle" x="669" y="-203" font-family="Helvetica,sans-Serif" font-size="10.00">DataFormatsTPC/Defs.h</text>
</a>
</g>
</g>
<!-- Node2&#45;&gt;Node14 -->
<g id="edge15" class="edge"><title>Node2&#45;&gt;Node14</title>
<path fill="none" stroke="midnightblue" d="M481.565,-257.476C525.336,-245.572 587.315,-228.716 627.828,-217.698"/>
<polygon fill="midnightblue" stroke="midnightblue" points="628.91,-221.03 637.641,-215.029 627.073,-214.276 628.91,-221.03"/>
</g>
<!-- Node4 -->
<g id="node4" class="node"><title>Node4</title>
<polygon fill="none" stroke="#bfbfbf" points="0,-73 0,-92 44,-92 44,-73 0,-73"/>
<text text-anchor="middle" x="22" y="-80" font-family="Helvetica,sans-Serif" font-size="10.00">vector</text>
</g>
<!-- Node3&#45;&gt;Node4 -->
<g id="edge3" class="edge"><title>Node3&#45;&gt;Node4</title>
<path fill="none" stroke="midnightblue" d="M208.821,-134.491C165.233,-127.226 104.493,-115.201 53,-98 51.334,-97.4435 49.6394,-96.8222 47.945,-96.1584"/>
<polygon fill="midnightblue" stroke="midnightblue" points="49.0112,-92.8062 38.4435,-92.0486 46.2322,-99.231 49.0112,-92.8062"/>
</g>
<!-- Node5 -->
<g id="node5" class="node"><title>Node5</title>
<polygon fill="none" stroke="#bfbfbf" points="62.5,-73 62.5,-92 97.5,-92 97.5,-73 62.5,-73"/>
<text text-anchor="middle" x="80" y="-80" font-family="Helvetica,sans-Serif" font-size="10.00">map</text>
</g>
<!-- Node3&#45;&gt;Node5 -->
<g id="edge4" class="edge"><title>Node3&#45;&gt;Node5</title>
<path fill="none" stroke="midnightblue" d="M226.42,-134.463C193.323,-126.841 145.718,-114.356 106,-98 104.996,-97.5867 103.982,-97.1437 102.967,-96.6785"/>
<polygon fill="midnightblue" stroke="midnightblue" points="104.501,-93.5319 94.0026,-92.1023 101.318,-99.7665 104.501,-93.5319"/>
</g>
<!-- Node6 -->
<g id="node6" class="node"><title>Node6</title>
<polygon fill="none" stroke="#bfbfbf" points="115.5,-73 115.5,-92 198.5,-92 198.5,-73 115.5,-73"/>
<text text-anchor="middle" x="157" y="-80" font-family="Helvetica,sans-Serif" font-size="10.00">unordered_map</text>
</g>
<!-- Node3&#45;&gt;Node6 -->
<g id="edge5" class="edge"><title>Node3&#45;&gt;Node6</title>
<path fill="none" stroke="midnightblue" d="M251.24,-134.475C233.024,-124.622 202.827,-108.288 181.532,-96.7697"/>
<polygon fill="midnightblue" stroke="midnightblue" points="183.192,-93.6883 172.731,-92.0091 179.862,-99.8453 183.192,-93.6883"/>
</g>
<!-- Node7 -->
<g id="node7" class="node"><title>Node7</title>
<polygon fill="none" stroke="#bfbfbf" points="216.5,-67.5 216.5,-97.5 317.5,-97.5 317.5,-67.5 216.5,-67.5"/>
<text text-anchor="start" x="224.5" y="-85.5" font-family="Helvetica,sans-Serif" font-size="10.00">boost/property_tree</text>
<text text-anchor="middle" x="267" y="-74.5" font-family="Helvetica,sans-Serif" font-size="10.00">/ptree.hpp</text>
</g>
<!-- Node3&#45;&gt;Node7 -->
<g id="edge6" class="edge"><title>Node3&#45;&gt;Node7</title>
<path fill="none" stroke="midnightblue" d="M267,-134.475C267,-127.471 267,-117.192 267,-107.696"/>
<polygon fill="midnightblue" stroke="midnightblue" points="270.5,-107.523 267,-97.523 263.5,-107.523 270.5,-107.523"/>
</g>
<!-- Node8 -->
<g id="node8" class="node"><title>Node8</title>
<polygon fill="none" stroke="#bfbfbf" points="408.5,-73 408.5,-92 459.5,-92 459.5,-73 408.5,-73"/>
<text text-anchor="middle" x="434" y="-80" font-family="Helvetica,sans-Serif" font-size="10.00">typeinfo</text>
</g>
<!-- Node3&#45;&gt;Node8 -->
<g id="edge7" class="edge"><title>Node3&#45;&gt;Node8</title>
<path fill="none" stroke="midnightblue" d="M293.726,-134.447C320.518,-125.742 362.867,-111.628 399,-98 400.846,-97.3037 402.74,-96.5715 404.646,-95.8213"/>
<polygon fill="midnightblue" stroke="midnightblue" points="406.137,-98.9939 414.099,-92.0041 403.516,-92.5032 406.137,-98.9939"/>
</g>
<!-- Node9 -->
<g id="node9" class="node"><title>Node9</title>
<polygon fill="none" stroke="#bfbfbf" points="336,-73 336,-92 390,-92 390,-73 336,-73"/>
<text text-anchor="middle" x="363" y="-80" font-family="Helvetica,sans-Serif" font-size="10.00">iostream</text>
</g>
<!-- Node3&#45;&gt;Node9 -->
<g id="edge8" class="edge"><title>Node3&#45;&gt;Node9</title>
<path fill="none" stroke="midnightblue" d="M280.754,-134.475C296.366,-124.799 322.063,-108.872 340.583,-97.3941"/>
<polygon fill="midnightblue" stroke="midnightblue" points="342.615,-100.252 349.271,-92.0091 338.927,-94.3023 342.615,-100.252"/>
</g>
<!-- Node10&#45;&gt;Node3 -->
<g id="edge10" class="edge"><title>Node10&#45;&gt;Node3</title>
<path fill="none" stroke="midnightblue" d="M391.371,-190.399C363.656,-180.283 326.695,-166.791 300.283,-157.149"/>
<polygon fill="midnightblue" stroke="midnightblue" points="301.312,-153.799 290.718,-153.658 298.911,-160.375 301.312,-153.799"/>
</g>
<!-- Node10&#45;&gt;Node8 -->
<g id="edge13" class="edge"><title>Node10&#45;&gt;Node8</title>
<path fill="none" stroke="midnightblue" d="M414.674,-190.465C401.502,-176.614 385.697,-154.583 393,-134 397.673,-120.829 407.409,-108.592 416.221,-99.4623"/>
<polygon fill="midnightblue" stroke="midnightblue" points="418.857,-101.78 423.576,-92.2945 413.972,-96.767 418.857,-101.78"/>
</g>
<!-- Node11 -->
<g id="node11" class="node"><title>Node11</title>
<polygon fill="none" stroke="#bfbfbf" points="402,-134.5 402,-153.5 458,-153.5 458,-134.5 402,-134.5"/>
<text text-anchor="middle" x="430" y="-141.5" font-family="Helvetica,sans-Serif" font-size="10.00">TClass.h</text>
</g>
<!-- Node10&#45;&gt;Node11 -->
<g id="edge11" class="edge"><title>Node10&#45;&gt;Node11</title>
<path fill="none" stroke="midnightblue" d="M430,-190.399C430,-182.466 430,-172.458 430,-163.858"/>
<polygon fill="midnightblue" stroke="midnightblue" points="433.5,-163.658 430,-153.658 426.5,-163.658 433.5,-163.658"/>
</g>
<!-- Node12 -->
<g id="node12" class="node"><title>Node12</title>
<polygon fill="none" stroke="#bfbfbf" points="476,-134.5 476,-153.5 538,-153.5 538,-134.5 476,-134.5"/>
<text text-anchor="middle" x="507" y="-141.5" font-family="Helvetica,sans-Serif" font-size="10.00">type_traits</text>
</g>
<!-- Node10&#45;&gt;Node12 -->
<g id="edge12" class="edge"><title>Node10&#45;&gt;Node12</title>
<path fill="none" stroke="midnightblue" d="M448.248,-190.399C460.129,-181.218 475.607,-169.258 487.694,-159.918"/>
<polygon fill="midnightblue" stroke="midnightblue" points="490.023,-162.542 495.796,-153.658 485.743,-157.003 490.023,-162.542"/>
</g>
<!-- Node13 -->
<g id="node13" class="node"><title>Node13</title>
<polygon fill="none" stroke="#bfbfbf" points="556.5,-134.5 556.5,-153.5 603.5,-153.5 603.5,-134.5 556.5,-134.5"/>
<text text-anchor="middle" x="580" y="-141.5" font-family="Helvetica,sans-Serif" font-size="10.00">TFile.h</text>
</g>
<!-- Node10&#45;&gt;Node13 -->
<g id="edge14" class="edge"><title>Node10&#45;&gt;Node13</title>
<path fill="none" stroke="midnightblue" d="M465.548,-190.399C490.828,-180.372 524.467,-167.028 548.727,-157.405"/>
<polygon fill="midnightblue" stroke="midnightblue" points="550.169,-160.598 558.174,-153.658 547.588,-154.092 550.169,-160.598"/>
</g>
<!-- Node15 -->
<g id="node15" class="node"><title>Node15</title>
<polygon fill="none" stroke="#bfbfbf" points="622,-134.5 622,-153.5 666,-153.5 666,-134.5 622,-134.5"/>
<text text-anchor="middle" x="644" y="-141.5" font-family="Helvetica,sans-Serif" font-size="10.00">cmath</text>
</g>
<!-- Node14&#45;&gt;Node15 -->
<g id="edge16" class="edge"><title>Node14&#45;&gt;Node15</title>
<path fill="none" stroke="midnightblue" d="M665.418,-195.975C661.817,-187.404 656.154,-173.927 651.556,-162.983"/>
<polygon fill="midnightblue" stroke="midnightblue" points="654.676,-161.373 647.575,-153.509 648.222,-164.084 654.676,-161.373"/>
</g>
<!-- Node16 -->
<g id="node16" class="node"><title>Node16</title>
<g id="a_node16"><a xlink:href="../../d2/dd0/Cartesian2D_8h.html" target="_top" xlink:title="MathUtils/Cartesian2D.h">
<polygon fill="none" stroke="black" points="554.5,-73 554.5,-92 679.5,-92 679.5,-73 554.5,-73"/>
<text text-anchor="middle" x="617" y="-80" font-family="Helvetica,sans-Serif" font-size="10.00">MathUtils/Cartesian2D.h</text>
</a>
</g>
</g>
<!-- Node14&#45;&gt;Node16 -->
<g id="edge17" class="edge"><title>Node14&#45;&gt;Node16</title>
<path fill="none" stroke="midnightblue" d="M672.379,-195.788C677.168,-181.992 684.365,-154.571 675,-134 668.1,-118.844 654.156,-106.469 641.669,-97.7625"/>
<polygon fill="midnightblue" stroke="midnightblue" points="643.245,-94.6118 632.956,-92.084 639.423,-100.476 643.245,-94.6118"/>
</g>
<!-- Node19 -->
<g id="node19" class="node"><title>Node19</title>
<g id="a_node19"><a xlink:href="../../dd/d76/Cartesian3D_8h.html" target="_top" xlink:title="MathUtils/Cartesian3D.h">
<polygon fill="none" stroke="black" points="1157.5,-134.5 1157.5,-153.5 1282.5,-153.5 1282.5,-134.5 1157.5,-134.5"/>
<text text-anchor="middle" x="1220" y="-141.5" font-family="Helvetica,sans-Serif" font-size="10.00">MathUtils/Cartesian3D.h</text>
</a>
</g>
</g>
<!-- Node14&#45;&gt;Node19 -->
<g id="edge20" class="edge"><title>Node14&#45;&gt;Node19</title>
<path fill="none" stroke="midnightblue" d="M732.207,-197.675C835.034,-186.571 1037.98,-164.656 1146.87,-152.897"/>
<polygon fill="midnightblue" stroke="midnightblue" points="1147.54,-156.345 1157.11,-151.791 1146.79,-149.385 1147.54,-156.345"/>
</g>
<!-- Node17 -->
<g id="node17" class="node"><title>Node17</title>
<polygon fill="none" stroke="#bfbfbf" points="450.5,-0.5 450.5,-30.5 601.5,-30.5 601.5,-0.5 450.5,-0.5"/>
<text text-anchor="start" x="458.5" y="-18.5" font-family="Helvetica,sans-Serif" font-size="10.00">Math/GenVector/Displacement</text>
<text text-anchor="middle" x="526" y="-7.5" font-family="Helvetica,sans-Serif" font-size="10.00">Vector2D.h</text>
</g>
<!-- Node16&#45;&gt;Node17 -->
<g id="edge18" class="edge"><title>Node16&#45;&gt;Node17</title>
<path fill="none" stroke="midnightblue" d="M604.727,-72.7338C591.838,-63.527 571.126,-48.7328 554.181,-36.6293"/>
<polygon fill="midnightblue" stroke="midnightblue" points="555.896,-33.5534 545.725,-30.589 551.828,-39.2495 555.896,-33.5534"/>
</g>
<!-- Node18 -->
<g id="node18" class="node"><title>Node18</title>
<polygon fill="none" stroke="#bfbfbf" points="620,-6 620,-25 796,-25 796,-6 620,-6"/>
<text text-anchor="middle" x="708" y="-13" font-family="Helvetica,sans-Serif" font-size="10.00">Math/GenVector/PositionVector2D.h</text>
</g>
<!-- Node16&#45;&gt;Node18 -->
<g id="edge19" class="edge"><title>Node16&#45;&gt;Node18</title>
<path fill="none" stroke="midnightblue" d="M629.273,-72.7338C644.145,-62.1106 669.432,-44.0485 687.33,-31.2642"/>
<polygon fill="midnightblue" stroke="midnightblue" points="689.819,-33.7878 695.922,-25.1273 685.75,-28.0917 689.819,-33.7878"/>
</g>
<!-- Node19&#45;&gt;Node16 -->
<g id="edge29" class="edge"><title>Node19&#45;&gt;Node16</title>
<path fill="none" stroke="midnightblue" d="M1157.49,-140.088C1057.79,-134.912 856.812,-122.292 688,-98 680.295,-96.8912 672.167,-95.4714 664.27,-93.9556"/>
<polygon fill="midnightblue" stroke="midnightblue" points="664.932,-90.5187 654.441,-92.0005 663.566,-97.3842 664.932,-90.5187"/>
</g>
<!-- Node20 -->
<g id="node20" class="node"><title>Node20</title>
<polygon fill="none" stroke="#bfbfbf" points="697.5,-67.5 697.5,-97.5 848.5,-97.5 848.5,-67.5 697.5,-67.5"/>
<text text-anchor="start" x="705.5" y="-85.5" font-family="Helvetica,sans-Serif" font-size="10.00">Math/GenVector/Displacement</text>
<text text-anchor="middle" x="773" y="-74.5" font-family="Helvetica,sans-Serif" font-size="10.00">Vector3D.h</text>
</g>
<!-- Node19&#45;&gt;Node20 -->
<g id="edge21" class="edge"><title>Node19&#45;&gt;Node20</title>
<path fill="none" stroke="midnightblue" d="M1157.43,-136.093C1087.29,-128.154 969.917,-114.286 858.578,-98.0417"/>
<polygon fill="midnightblue" stroke="midnightblue" points="858.918,-94.5541 848.515,-96.5646 857.901,-101.48 858.918,-94.5541"/>
</g>
<!-- Node21 -->
<g id="node21" class="node"><title>Node21</title>
<polygon fill="none" stroke="#bfbfbf" points="867,-73 867,-92 1043,-92 1043,-73 867,-73"/>
<text text-anchor="middle" x="955" y="-80" font-family="Helvetica,sans-Serif" font-size="10.00">Math/GenVector/PositionVector3D.h</text>
</g>
<!-- Node19&#45;&gt;Node21 -->
<g id="edge22" class="edge"><title>Node19&#45;&gt;Node21</title>
<path fill="none" stroke="midnightblue" d="M1182.03,-134.475C1134.8,-123.871 1054.14,-105.76 1002.76,-94.2244"/>
<polygon fill="midnightblue" stroke="midnightblue" points="1003.42,-90.7849 992.898,-92.0091 1001.89,-97.6149 1003.42,-90.7849"/>
</g>
<!-- Node22 -->
<g id="node22" class="node"><title>Node22</title>
<polygon fill="none" stroke="#bfbfbf" points="1060.5,-73 1060.5,-92 1209.5,-92 1209.5,-73 1060.5,-73"/>
<text text-anchor="middle" x="1135" y="-80" font-family="Helvetica,sans-Serif" font-size="10.00">Math/GenVector/Rotation3D.h</text>
</g>
<!-- Node19&#45;&gt;Node22 -->
<g id="edge23" class="edge"><title>Node19&#45;&gt;Node22</title>
<path fill="none" stroke="midnightblue" d="M1207.82,-134.475C1194.19,-124.931 1171.87,-109.307 1155.53,-97.8683"/>
<polygon fill="midnightblue" stroke="midnightblue" points="1157.36,-94.8764 1147.16,-92.0091 1153.34,-100.611 1157.36,-94.8764"/>
</g>
<!-- Node23 -->
<g id="node23" class="node"><title>Node23</title>
<polygon fill="none" stroke="#bfbfbf" points="1228,-73 1228,-92 1384,-92 1384,-73 1228,-73"/>
<text text-anchor="middle" x="1306" y="-80" font-family="Helvetica,sans-Serif" font-size="10.00">Math/GenVector/Transform3D.h</text>
</g>
<!-- Node19&#45;&gt;Node23 -->
<g id="edge24" class="edge"><title>Node19&#45;&gt;Node23</title>
<path fill="none" stroke="midnightblue" d="M1232.32,-134.475C1246.12,-124.931 1268.7,-109.307 1285.23,-97.8683"/>
<polygon fill="midnightblue" stroke="midnightblue" points="1287.47,-100.577 1293.7,-92.0091 1283.49,-94.8205 1287.47,-100.577"/>
</g>
<!-- Node24 -->
<g id="node24" class="node"><title>Node24</title>
<polygon fill="none" stroke="#bfbfbf" points="1402,-73 1402,-92 1562,-92 1562,-73 1402,-73"/>
<text text-anchor="middle" x="1482" y="-80" font-family="Helvetica,sans-Serif" font-size="10.00">Math/GenVector/Translation3D.h</text>
</g>
<!-- Node19&#45;&gt;Node24 -->
<g id="edge25" class="edge"><title>Node19&#45;&gt;Node24</title>
<path fill="none" stroke="midnightblue" d="M1257.54,-134.475C1304.23,-123.871 1383.98,-105.76 1434.78,-94.2244"/>
<polygon fill="midnightblue" stroke="midnightblue" points="1435.55,-97.6369 1444.53,-92.0091 1434,-90.8107 1435.55,-97.6369"/>
</g>
<!-- Node25 -->
<g id="node25" class="node"><title>Node25</title>
<polygon fill="none" stroke="#bfbfbf" points="1580,-73 1580,-92 1636,-92 1636,-73 1580,-73"/>
<text text-anchor="middle" x="1608" y="-80" font-family="Helvetica,sans-Serif" font-size="10.00">Rtypes.h</text>
</g>
<!-- Node19&#45;&gt;Node25 -->
<g id="edge26" class="edge"><title>Node19&#45;&gt;Node25</title>
<path fill="none" stroke="midnightblue" d="M1282.69,-139.621C1353.59,-134.731 1472.05,-123.319 1571,-98 1573.67,-97.318 1576.4,-96.4967 1579.11,-95.596"/>
<polygon fill="midnightblue" stroke="midnightblue" points="1580.52,-98.8097 1588.71,-92.0933 1578.12,-92.2339 1580.52,-98.8097"/>
</g>
<!-- Node26 -->
<g id="node26" class="node"><title>Node26</title>
<polygon fill="none" stroke="#bfbfbf" points="1654,-73 1654,-92 1730,-92 1730,-73 1654,-73"/>
<text text-anchor="middle" x="1692" y="-80" font-family="Helvetica,sans-Serif" font-size="10.00">TGeoMatrix.h</text>
</g>
<!-- Node19&#45;&gt;Node26 -->
<g id="edge27" class="edge"><title>Node19&#45;&gt;Node26</title>
<path fill="none" stroke="midnightblue" d="M1282.52,-140.174C1365.91,-135.543 1517.8,-124.097 1645,-98 1649.14,-97.1504 1653.44,-96.0873 1657.67,-94.9249"/>
<polygon fill="midnightblue" stroke="midnightblue" points="1658.74,-98.2592 1667.35,-92.0865 1656.77,-91.5421 1658.74,-98.2592"/>
</g>
<!-- Node27 -->
<g id="node27" class="node"><title>Node27</title>
<polygon fill="none" stroke="#bfbfbf" points="1748.5,-73 1748.5,-92 1793.5,-92 1793.5,-73 1748.5,-73"/>
<text text-anchor="middle" x="1771" y="-80" font-family="Helvetica,sans-Serif" font-size="10.00">iosfwd</text>
</g>
<!-- Node19&#45;&gt;Node27 -->
<g id="edge28" class="edge"><title>Node19&#45;&gt;Node27</title>
<path fill="none" stroke="midnightblue" d="M1282.56,-140.225C1401.15,-134.527 1654.35,-120.154 1739,-98 1741.16,-97.4354 1743.35,-96.7363 1745.53,-95.9526"/>
<polygon fill="midnightblue" stroke="midnightblue" points="1746.88,-99.1824 1754.78,-92.1305 1744.2,-92.7123 1746.88,-99.1824"/>
</g>
</g>
</svg>
