<?xml version="1.0" encoding="UTF-8" standalone="no"?>
<!DOCTYPE svg PUBLIC "-//W3C//DTD SVG 1.1//EN"
 "http://www.w3.org/Graphics/SVG/1.1/DTD/svg11.dtd">
<!-- Generated by graphviz version 2.38.0 (20140413.2041)
 -->
<!-- Title: /home/travis/build/AliceO2Group/AliceO2/Detectors/MUON/MID/Raw/include/MIDRaw/CRUUserLogicEncoder.h Pages: 1 -->
<svg width="648pt" height="239pt"
 viewBox="0.00 0.00 647.50 239.00" xmlns="http://www.w3.org/2000/svg" xmlns:xlink="http://www.w3.org/1999/xlink">
<g id="graph0" class="graph" transform="scale(1 1) rotate(0) translate(4 235)">
<title>/home/travis/build/AliceO2Group/AliceO2/Detectors/MUON/MID/Raw/include/MIDRaw/CRUUserLogicEncoder.h</title>
<!-- Node1 -->
<g id="node1" class="node"><title>Node1</title>
<polygon fill="#bfbfbf" stroke="black" points="289.5,-178.5 289.5,-230.5 495.5,-230.5 495.5,-178.5 289.5,-178.5"/>
<text text-anchor="start" x="297.5" y="-218.5" font-family="Helvetica,sans-Serif" font-size="10.00">/home/travis/build</text>
<text text-anchor="start" x="297.5" y="-207.5" font-family="Helvetica,sans-Serif" font-size="10.00">/AliceO2Group/AliceO2</text>
<text text-anchor="start" x="297.5" y="-196.5" font-family="Helvetica,sans-Serif" font-size="10.00">/Detectors/MUON/MID/Raw</text>
<text text-anchor="middle" x="392.5" y="-185.5" font-family="Helvetica,sans-Serif" font-size="10.00">/include/MIDRaw/CRUUserLogicEncoder.h</text>
</g>
<!-- Node2 -->
<g id="node2" class="node"><title>Node2</title>
<g id="a_node2"><a xlink:href="../../db/de0/MUON_2MID_2Raw_2include_2MIDRaw_2Encoder_8h.html" target="_top" xlink:title="MID raw data encoder. ">
<polygon fill="none" stroke="black" points="238,-89.5 238,-141.5 379,-141.5 379,-89.5 238,-89.5"/>
<text text-anchor="start" x="246" y="-129.5" font-family="Helvetica,sans-Serif" font-size="10.00">/home/travis/build</text>
<text text-anchor="start" x="246" y="-118.5" font-family="Helvetica,sans-Serif" font-size="10.00">/AliceO2Group/AliceO2</text>
<text text-anchor="start" x="246" y="-107.5" font-family="Helvetica,sans-Serif" font-size="10.00">/Detectors/MUON/MID/Raw</text>
<text text-anchor="middle" x="308.5" y="-96.5" font-family="Helvetica,sans-Serif" font-size="10.00">/include/MIDRaw/Encoder.h</text>
</a>
</g>
</g>
<!-- Node1&#45;&gt;Node2 -->
<g id="edge1" class="edge"><title>Node1&#45;&gt;Node2</title>
<path fill="none" stroke="midnightblue" d="M361.195,-171.077C351.789,-161.335 341.617,-150.8 332.742,-141.607"/>
<polygon fill="midnightblue" stroke="midnightblue" points="358.74,-173.573 368.204,-178.336 363.776,-168.711 358.74,-173.573"/>
</g>
<!-- Node7 -->
<g id="node7" class="node"><title>Node7</title>
<g id="a_node7"><a xlink:href="../../de/da7/CRUUserLogicEncoder_8cxx.html" target="_top" xlink:title="Raw data encoder for MID CRU user logic. ">
<polygon fill="none" stroke="black" points="397.5,-89.5 397.5,-141.5 555.5,-141.5 555.5,-89.5 397.5,-89.5"/>
<text text-anchor="start" x="405.5" y="-129.5" font-family="Helvetica,sans-Serif" font-size="10.00">/home/travis/build</text>
<text text-anchor="start" x="405.5" y="-118.5" font-family="Helvetica,sans-Serif" font-size="10.00">/AliceO2Group/AliceO2</text>
<text text-anchor="start" x="405.5" y="-107.5" font-family="Helvetica,sans-Serif" font-size="10.00">/Detectors/MUON/MID/Raw</text>
<text text-anchor="middle" x="476.5" y="-96.5" font-family="Helvetica,sans-Serif" font-size="10.00">/src/CRUUserLogicEncoder.cxx</text>
</a>
</g>
</g>
<!-- Node1&#45;&gt;Node7 -->
<g id="edge6" class="edge"><title>Node1&#45;&gt;Node7</title>
<path fill="none" stroke="midnightblue" d="M423.805,-171.077C433.211,-161.335 443.383,-150.8 452.258,-141.607"/>
<polygon fill="midnightblue" stroke="midnightblue" points="421.224,-168.711 416.796,-178.336 426.26,-173.573 421.224,-168.711"/>
</g>
<!-- Node3 -->
<g id="node3" class="node"><title>Node3</title>
<g id="a_node3"><a xlink:href="../../d8/dc6/MUON_2MID_2Raw_2src_2Encoder_8cxx.html" target="_top" xlink:title="MID raw data encoder. ">
<polygon fill="none" stroke="black" points="0,-0.5 0,-52.5 141,-52.5 141,-0.5 0,-0.5"/>
<text text-anchor="start" x="8" y="-40.5" font-family="Helvetica,sans-Serif" font-size="10.00">/home/travis/build</text>
<text text-anchor="start" x="8" y="-29.5" font-family="Helvetica,sans-Serif" font-size="10.00">/AliceO2Group/AliceO2</text>
<text text-anchor="start" x="8" y="-18.5" font-family="Helvetica,sans-Serif" font-size="10.00">/Detectors/MUON/MID/Raw</text>
<text text-anchor="middle" x="70.5" y="-7.5" font-family="Helvetica,sans-Serif" font-size="10.00">/src/Encoder.cxx</text>
</a>
</g>
</g>
<!-- Node2&#45;&gt;Node3 -->
<g id="edge2" class="edge"><title>Node2&#45;&gt;Node3</title>
<path fill="none" stroke="midnightblue" d="M230.529,-85.9981C200.971,-75.1932 167.565,-62.9816 138.948,-52.5211"/>
<polygon fill="midnightblue" stroke="midnightblue" points="229.386,-89.3066 239.98,-89.4527 231.789,-82.7321 229.386,-89.3066"/>
</g>
<!-- Node4 -->
<g id="node4" class="node"><title>Node4</title>
<g id="a_node4"><a xlink:href="../../d5/d52/bench__Raw_8cxx.html" target="_top" xlink:title="/home/travis/build\l/AliceO2Group/AliceO2\l/Detectors/MUON/MID/Raw\l/test/bench_Raw.cxx">
<polygon fill="none" stroke="black" points="159,-0.5 159,-52.5 300,-52.5 300,-0.5 159,-0.5"/>
<text text-anchor="start" x="167" y="-40.5" font-family="Helvetica,sans-Serif" font-size="10.00">/home/travis/build</text>
<text text-anchor="start" x="167" y="-29.5" font-family="Helvetica,sans-Serif" font-size="10.00">/AliceO2Group/AliceO2</text>
<text text-anchor="start" x="167" y="-18.5" font-family="Helvetica,sans-Serif" font-size="10.00">/Detectors/MUON/MID/Raw</text>
<text text-anchor="middle" x="229.5" y="-7.5" font-family="Helvetica,sans-Serif" font-size="10.00">/test/bench_Raw.cxx</text>
</a>
</g>
</g>
<!-- Node2&#45;&gt;Node4 -->
<g id="edge3" class="edge"><title>Node2&#45;&gt;Node4</title>
<path fill="none" stroke="midnightblue" d="M278.798,-81.79C270.025,-72.1288 260.564,-61.7097 252.299,-52.6075"/>
<polygon fill="midnightblue" stroke="midnightblue" points="276.336,-84.2856 285.65,-89.336 281.519,-79.5798 276.336,-84.2856"/>
</g>
<!-- Node5 -->
<g id="node5" class="node"><title>Node5</title>
<g id="a_node5"><a xlink:href="../../d8/d4c/testRaw_8cxx.html" target="_top" xlink:title="/home/travis/build\l/AliceO2Group/AliceO2\l/Detectors/MUON/MID/Raw\l/test/testRaw.cxx">
<polygon fill="none" stroke="black" points="318,-0.5 318,-52.5 459,-52.5 459,-0.5 318,-0.5"/>
<text text-anchor="start" x="326" y="-40.5" font-family="Helvetica,sans-Serif" font-size="10.00">/home/travis/build</text>
<text text-anchor="start" x="326" y="-29.5" font-family="Helvetica,sans-Serif" font-size="10.00">/AliceO2Group/AliceO2</text>
<text text-anchor="start" x="326" y="-18.5" font-family="Helvetica,sans-Serif" font-size="10.00">/Detectors/MUON/MID/Raw</text>
<text text-anchor="middle" x="388.5" y="-7.5" font-family="Helvetica,sans-Serif" font-size="10.00">/test/testRaw.cxx</text>
</a>
</g>
</g>
<!-- Node2&#45;&gt;Node5 -->
<g id="edge4" class="edge"><title>Node2&#45;&gt;Node5</title>
<path fill="none" stroke="midnightblue" d="M338.578,-81.79C347.462,-72.1288 357.043,-61.7097 365.413,-52.6075"/>
<polygon fill="midnightblue" stroke="midnightblue" points="335.832,-79.6059 331.639,-89.336 340.984,-84.344 335.832,-79.6059"/>
</g>
<!-- Node6 -->
<g id="node6" class="node"><title>Node6</title>
<g id="a_node6"><a xlink:href="../../db/dd6/RawWriterSpec_8cxx.html" target="_top" xlink:title="Digits to raw converter spec for MID. ">
<polygon fill="none" stroke="black" points="477.5,-0.5 477.5,-52.5 639.5,-52.5 639.5,-0.5 477.5,-0.5"/>
<text text-anchor="start" x="485.5" y="-40.5" font-family="Helvetica,sans-Serif" font-size="10.00">/home/travis/build</text>
<text text-anchor="start" x="485.5" y="-29.5" font-family="Helvetica,sans-Serif" font-size="10.00">/AliceO2Group/AliceO2</text>
<text text-anchor="start" x="485.5" y="-18.5" font-family="Helvetica,sans-Serif" font-size="10.00">/Detectors/MUON/MID/Workflow</text>
<text text-anchor="middle" x="558.5" y="-7.5" font-family="Helvetica,sans-Serif" font-size="10.00">/src/RawWriterSpec.cxx</text>
</a>
</g>
</g>
<!-- Node2&#45;&gt;Node6 -->
<g id="edge5" class="edge"><title>Node2&#45;&gt;Node6</title>
<path fill="none" stroke="midnightblue" d="M388.719,-86.5838C420.075,-75.6719 455.763,-63.2526 486.3,-52.6257"/>
<polygon fill="midnightblue" stroke="midnightblue" points="387.432,-83.3258 379.138,-89.9181 389.732,-89.937 387.432,-83.3258"/>
</g>
</g>
</svg>
