<?xml version="1.0" encoding="UTF-8" standalone="no"?>
<!DOCTYPE svg PUBLIC "-//W3C//DTD SVG 1.1//EN"
 "http://www.w3.org/Graphics/SVG/1.1/DTD/svg11.dtd">
<!-- Generated by graphviz version 2.38.0 (20140413.2041)
 -->
<!-- Title: /home/travis/build/AliceO2Group/AliceO2/EventVisualisation/Base/include/EventVisualisationBase/DataReader.h Pages: 1 -->
<svg width="1482pt" height="361pt"
 viewBox="0.00 0.00 1482.20 361.00" xmlns="http://www.w3.org/2000/svg" xmlns:xlink="http://www.w3.org/1999/xlink">
<g id="graph0" class="graph" transform="scale(1 1) rotate(0) translate(4 357)">
<title>/home/travis/build/AliceO2Group/AliceO2/EventVisualisation/Base/include/EventVisualisationBase/DataReader.h</title>
<!-- Node1 -->
<g id="node1" class="node"><title>Node1</title>
<polygon fill="#bfbfbf" stroke="black" points="716.704,-289.5 716.704,-352.5 873.704,-352.5 873.704,-289.5 716.704,-289.5"/>
<text text-anchor="start" x="724.704" y="-340.5" font-family="Helvetica,sans-Serif" font-size="10.00">/home/travis/build</text>
<text text-anchor="start" x="724.704" y="-329.5" font-family="Helvetica,sans-Serif" font-size="10.00">/AliceO2Group/AliceO2</text>
<text text-anchor="start" x="724.704" y="-318.5" font-family="Helvetica,sans-Serif" font-size="10.00">/EventVisualisation/Base</text>
<text text-anchor="start" x="724.704" y="-307.5" font-family="Helvetica,sans-Serif" font-size="10.00">/include/EventVisualisationBase</text>
<text text-anchor="middle" x="795.204" y="-296.5" font-family="Helvetica,sans-Serif" font-size="10.00">/DataReader.h</text>
</g>
<!-- Node2 -->
<g id="node2" class="node"><title>Node2</title>
<g id="a_node2"><a xlink:href="../../d1/deb/DataSourceOffline_8h.html" target="_top" xlink:title="Grouping reading from file(s) ">
<polygon fill="none" stroke="black" points="360.704,-189.5 360.704,-252.5 517.704,-252.5 517.704,-189.5 360.704,-189.5"/>
<text text-anchor="start" x="368.704" y="-240.5" font-family="Helvetica,sans-Serif" font-size="10.00">/home/travis/build</text>
<text text-anchor="start" x="368.704" y="-229.5" font-family="Helvetica,sans-Serif" font-size="10.00">/AliceO2Group/AliceO2</text>
<text text-anchor="start" x="368.704" y="-218.5" font-family="Helvetica,sans-Serif" font-size="10.00">/EventVisualisation/Base</text>
<text text-anchor="start" x="368.704" y="-207.5" font-family="Helvetica,sans-Serif" font-size="10.00">/include/EventVisualisationBase</text>
<text text-anchor="middle" x="439.204" y="-196.5" font-family="Helvetica,sans-Serif" font-size="10.00">/DataSourceOffline.h</text>
</a>
</g>
</g>
<!-- Node1&#45;&gt;Node2 -->
<g id="edge1" class="edge"><title>Node1&#45;&gt;Node2</title>
<path fill="none" stroke="midnightblue" d="M706.76,-295.653C648.814,-279.702 573.745,-259.036 517.877,-243.657"/>
<polygon fill="midnightblue" stroke="midnightblue" points="706.068,-299.092 716.638,-298.372 707.926,-292.344 706.068,-299.092"/>
</g>
<!-- Node7 -->
<g id="node7" class="node"><title>Node7</title>
<g id="a_node7"><a xlink:href="../../d5/df4/DataReaderITS_8h.html" target="_top" xlink:title="reading from file(s) ">
<polygon fill="none" stroke="black" points="1009.7,-189.5 1009.7,-252.5 1186.7,-252.5 1186.7,-189.5 1009.7,-189.5"/>
<text text-anchor="start" x="1017.7" y="-240.5" font-family="Helvetica,sans-Serif" font-size="10.00">/home/travis/build</text>
<text text-anchor="start" x="1017.7" y="-229.5" font-family="Helvetica,sans-Serif" font-size="10.00">/AliceO2Group/AliceO2</text>
<text text-anchor="start" x="1017.7" y="-218.5" font-family="Helvetica,sans-Serif" font-size="10.00">/EventVisualisation/Detectors</text>
<text text-anchor="start" x="1017.7" y="-207.5" font-family="Helvetica,sans-Serif" font-size="10.00">/include/EventVisualisationDetectors</text>
<text text-anchor="middle" x="1098.2" y="-196.5" font-family="Helvetica,sans-Serif" font-size="10.00">/DataReaderITS.h</text>
</a>
</g>
</g>
<!-- Node1&#45;&gt;Node7 -->
<g id="edge6" class="edge"><title>Node1&#45;&gt;Node7</title>
<path fill="none" stroke="midnightblue" d="M883.678,-291.385C923.32,-278.563 969.969,-263.475 1009.62,-250.65"/>
<polygon fill="midnightblue" stroke="midnightblue" points="882.461,-288.1 874.023,-294.507 884.615,-294.76 882.461,-288.1"/>
</g>
<!-- Node9 -->
<g id="node9" class="node"><title>Node9</title>
<g id="a_node9"><a xlink:href="../../df/da6/DataReaderTPC_8h.html" target="_top" xlink:title="TPC Detector&#45;specific reading from file(s) ">
<polygon fill="none" stroke="black" points="1211.7,-189.5 1211.7,-252.5 1388.7,-252.5 1388.7,-189.5 1211.7,-189.5"/>
<text text-anchor="start" x="1219.7" y="-240.5" font-family="Helvetica,sans-Serif" font-size="10.00">/home/travis/build</text>
<text text-anchor="start" x="1219.7" y="-229.5" font-family="Helvetica,sans-Serif" font-size="10.00">/AliceO2Group/AliceO2</text>
<text text-anchor="start" x="1219.7" y="-218.5" font-family="Helvetica,sans-Serif" font-size="10.00">/EventVisualisation/Detectors</text>
<text text-anchor="start" x="1219.7" y="-207.5" font-family="Helvetica,sans-Serif" font-size="10.00">/include/EventVisualisationDetectors</text>
<text text-anchor="middle" x="1300.2" y="-196.5" font-family="Helvetica,sans-Serif" font-size="10.00">/DataReaderTPC.h</text>
</a>
</g>
</g>
<!-- Node1&#45;&gt;Node9 -->
<g id="edge9" class="edge"><title>Node1&#45;&gt;Node9</title>
<path fill="none" stroke="midnightblue" d="M884.153,-308.254C965.617,-296.752 1089.27,-277.416 1195.2,-253 1200.58,-251.762 1206.08,-250.407 1211.61,-248.977"/>
<polygon fill="midnightblue" stroke="midnightblue" points="883.354,-304.832 873.937,-309.686 884.326,-311.764 883.354,-304.832"/>
</g>
<!-- Node11 -->
<g id="node11" class="node"><title>Node11</title>
<g id="a_node11"><a xlink:href="../../d3/d28/DataReaderVSD_8h.html" target="_top" xlink:title="/home/travis/build\l/AliceO2Group/AliceO2\l/EventVisualisation/Detectors\l/include/EventVisualisationDetectors\l/DataReaderVSD.h">
<polygon fill="none" stroke="black" points="85.7044,-189.5 85.7044,-252.5 262.704,-252.5 262.704,-189.5 85.7044,-189.5"/>
<text text-anchor="start" x="93.7044" y="-240.5" font-family="Helvetica,sans-Serif" font-size="10.00">/home/travis/build</text>
<text text-anchor="start" x="93.7044" y="-229.5" font-family="Helvetica,sans-Serif" font-size="10.00">/AliceO2Group/AliceO2</text>
<text text-anchor="start" x="93.7044" y="-218.5" font-family="Helvetica,sans-Serif" font-size="10.00">/EventVisualisation/Detectors</text>
<text text-anchor="start" x="93.7044" y="-207.5" font-family="Helvetica,sans-Serif" font-size="10.00">/include/EventVisualisationDetectors</text>
<text text-anchor="middle" x="174.204" y="-196.5" font-family="Helvetica,sans-Serif" font-size="10.00">/DataReaderVSD.h</text>
</a>
</g>
</g>
<!-- Node1&#45;&gt;Node11 -->
<g id="edge12" class="edge"><title>Node1&#45;&gt;Node11</title>
<path fill="none" stroke="midnightblue" d="M706.385,-307.227C616.685,-294.179 474.186,-273.046 351.204,-253 322.415,-248.307 291.045,-242.907 262.818,-237.943"/>
<polygon fill="midnightblue" stroke="midnightblue" points="706.118,-310.725 716.517,-308.699 707.124,-303.797 706.118,-310.725"/>
</g>
<!-- Node13 -->
<g id="node13" class="node"><title>Node13</title>
<g id="a_node13"><a xlink:href="../../d8/d25/EventManager_8h.html" target="_top" xlink:title="/home/travis/build\l/AliceO2Group/AliceO2\l/EventVisualisation/View\l/include/EventVisualisationView\l/EventManager.h">
<polygon fill="none" stroke="black" points="717.204,-189.5 717.204,-252.5 873.204,-252.5 873.204,-189.5 717.204,-189.5"/>
<text text-anchor="start" x="725.204" y="-240.5" font-family="Helvetica,sans-Serif" font-size="10.00">/home/travis/build</text>
<text text-anchor="start" x="725.204" y="-229.5" font-family="Helvetica,sans-Serif" font-size="10.00">/AliceO2Group/AliceO2</text>
<text text-anchor="start" x="725.204" y="-218.5" font-family="Helvetica,sans-Serif" font-size="10.00">/EventVisualisation/View</text>
<text text-anchor="start" x="725.204" y="-207.5" font-family="Helvetica,sans-Serif" font-size="10.00">/include/EventVisualisationView</text>
<text text-anchor="middle" x="795.204" y="-196.5" font-family="Helvetica,sans-Serif" font-size="10.00">/EventManager.h</text>
</a>
</g>
</g>
<!-- Node1&#45;&gt;Node13 -->
<g id="edge16" class="edge"><title>Node1&#45;&gt;Node13</title>
<path fill="none" stroke="midnightblue" d="M795.204,-279.099C795.204,-270.238 795.204,-261.015 795.204,-252.63"/>
<polygon fill="midnightblue" stroke="midnightblue" points="791.704,-279.261 795.204,-289.261 798.704,-279.261 791.704,-279.261"/>
</g>
<!-- Node3 -->
<g id="node3" class="node"><title>Node3</title>
<g id="a_node3"><a xlink:href="../../dc/db1/DataSourceOffline_8cxx.html" target="_top" xlink:title="/home/travis/build\l/AliceO2Group/AliceO2\l/EventVisualisation/Base\l/src/DataSourceOffline.cxx">
<polygon fill="none" stroke="black" points="223.704,-95 223.704,-147 358.704,-147 358.704,-95 223.704,-95"/>
<text text-anchor="start" x="231.704" y="-135" font-family="Helvetica,sans-Serif" font-size="10.00">/home/travis/build</text>
<text text-anchor="start" x="231.704" y="-124" font-family="Helvetica,sans-Serif" font-size="10.00">/AliceO2Group/AliceO2</text>
<text text-anchor="start" x="231.704" y="-113" font-family="Helvetica,sans-Serif" font-size="10.00">/EventVisualisation/Base</text>
<text text-anchor="middle" x="291.204" y="-102" font-family="Helvetica,sans-Serif" font-size="10.00">/src/DataSourceOffline.cxx</text>
</a>
</g>
</g>
<!-- Node2&#45;&gt;Node3 -->
<g id="edge2" class="edge"><title>Node2&#45;&gt;Node3</title>
<path fill="none" stroke="midnightblue" d="M383.953,-183.415C365.657,-171.299 345.723,-158.1 329.04,-147.054"/>
<polygon fill="midnightblue" stroke="midnightblue" points="382.512,-186.658 392.782,-189.261 386.377,-180.822 382.512,-186.658"/>
</g>
<!-- Node4 -->
<g id="node4" class="node"><title>Node4</title>
<g id="a_node4"><a xlink:href="../../dd/d21/EventManager_8cxx.html" target="_top" xlink:title="/home/travis/build\l/AliceO2Group/AliceO2\l/EventVisualisation/View\l/src/EventManager.cxx">
<polygon fill="none" stroke="black" points="376.704,-95 376.704,-147 501.704,-147 501.704,-95 376.704,-95"/>
<text text-anchor="start" x="384.704" y="-135" font-family="Helvetica,sans-Serif" font-size="10.00">/home/travis/build</text>
<text text-anchor="start" x="384.704" y="-124" font-family="Helvetica,sans-Serif" font-size="10.00">/AliceO2Group/AliceO2</text>
<text text-anchor="start" x="384.704" y="-113" font-family="Helvetica,sans-Serif" font-size="10.00">/EventVisualisation/View</text>
<text text-anchor="middle" x="439.204" y="-102" font-family="Helvetica,sans-Serif" font-size="10.00">/src/EventManager.cxx</text>
</a>
</g>
</g>
<!-- Node2&#45;&gt;Node4 -->
<g id="edge3" class="edge"><title>Node2&#45;&gt;Node4</title>
<path fill="none" stroke="midnightblue" d="M439.204,-179.079C439.204,-168.21 439.204,-156.794 439.204,-147.054"/>
<polygon fill="midnightblue" stroke="midnightblue" points="435.704,-179.261 439.204,-189.261 442.704,-179.261 435.704,-179.261"/>
</g>
<!-- Node5 -->
<g id="node5" class="node"><title>Node5</title>
<g id="a_node5"><a xlink:href="../../d0/dc0/EventManagerFrame_8cxx.html" target="_top" xlink:title="GUI (bottom buttons) for visualisation. ">
<polygon fill="none" stroke="black" points="122.204,-0.5 122.204,-52.5 268.204,-52.5 268.204,-0.5 122.204,-0.5"/>
<text text-anchor="start" x="130.204" y="-40.5" font-family="Helvetica,sans-Serif" font-size="10.00">/home/travis/build</text>
<text text-anchor="start" x="130.204" y="-29.5" font-family="Helvetica,sans-Serif" font-size="10.00">/AliceO2Group/AliceO2</text>
<text text-anchor="start" x="130.204" y="-18.5" font-family="Helvetica,sans-Serif" font-size="10.00">/EventVisualisation/View</text>
<text text-anchor="middle" x="195.204" y="-7.5" font-family="Helvetica,sans-Serif" font-size="10.00">/src/EventManagerFrame.cxx</text>
</a>
</g>
</g>
<!-- Node2&#45;&gt;Node5 -->
<g id="edge4" class="edge"><title>Node2&#45;&gt;Node5</title>
<path fill="none" stroke="midnightblue" d="M350.396,-203.677C295.652,-191.767 232.522,-174.063 214.204,-153 190.127,-125.315 189.332,-80.5544 191.719,-52.6411"/>
<polygon fill="midnightblue" stroke="midnightblue" points="349.998,-207.171 360.508,-205.833 351.458,-200.324 349.998,-207.171"/>
</g>
<!-- Node6 -->
<g id="node6" class="node"><title>Node6</title>
<g id="a_node6"><a xlink:href="../../df/d2a/Initializer_8cxx.html" target="_top" xlink:title="/home/travis/build\l/AliceO2Group/AliceO2\l/EventVisualisation/View\l/src/Initializer.cxx">
<polygon fill="none" stroke="black" points="823.704,-0.5 823.704,-52.5 948.704,-52.5 948.704,-0.5 823.704,-0.5"/>
<text text-anchor="start" x="831.704" y="-40.5" font-family="Helvetica,sans-Serif" font-size="10.00">/home/travis/build</text>
<text text-anchor="start" x="831.704" y="-29.5" font-family="Helvetica,sans-Serif" font-size="10.00">/AliceO2Group/AliceO2</text>
<text text-anchor="start" x="831.704" y="-18.5" font-family="Helvetica,sans-Serif" font-size="10.00">/EventVisualisation/View</text>
<text text-anchor="middle" x="886.204" y="-7.5" font-family="Helvetica,sans-Serif" font-size="10.00">/src/Initializer.cxx</text>
</a>
</g>
</g>
<!-- Node2&#45;&gt;Node6 -->
<g id="edge5" class="edge"><title>Node2&#45;&gt;Node6</title>
<path fill="none" stroke="midnightblue" d="M527.873,-212.315C578.195,-204.173 639.961,-187.426 685.204,-153 711.53,-132.968 697.858,-110.258 723.204,-89 751.825,-64.9966 790.766,-49.8398 823.409,-40.5803"/>
<polygon fill="midnightblue" stroke="midnightblue" points="527.324,-208.858 517.969,-213.831 528.384,-215.778 527.324,-208.858"/>
</g>
<!-- Node7&#45;&gt;Node6 -->
<g id="edge8" class="edge"><title>Node7&#45;&gt;Node6</title>
<path fill="none" stroke="midnightblue" d="M1102.99,-179.37C1104.04,-150.829 1100.45,-113.518 1079.2,-89 1042.18,-46.2728 1010.94,-70.562 957.204,-53 954.466,-52.1049 951.673,-51.1753 948.856,-50.2238"/>
<polygon fill="midnightblue" stroke="midnightblue" points="1099.49,-179.265 1102.42,-189.448 1106.48,-179.663 1099.49,-179.265"/>
</g>
<!-- Node8 -->
<g id="node8" class="node"><title>Node8</title>
<g id="a_node8"><a xlink:href="../../d8/d10/DataReaderITS_8cxx.html" target="_top" xlink:title="ITS Detector&#45;specific reading from file(s) ">
<polygon fill="none" stroke="black" points="1126.2,-95 1126.2,-147 1272.2,-147 1272.2,-95 1126.2,-95"/>
<text text-anchor="start" x="1134.2" y="-135" font-family="Helvetica,sans-Serif" font-size="10.00">/home/travis/build</text>
<text text-anchor="start" x="1134.2" y="-124" font-family="Helvetica,sans-Serif" font-size="10.00">/AliceO2Group/AliceO2</text>
<text text-anchor="start" x="1134.2" y="-113" font-family="Helvetica,sans-Serif" font-size="10.00">/EventVisualisation/Detectors</text>
<text text-anchor="middle" x="1199.2" y="-102" font-family="Helvetica,sans-Serif" font-size="10.00">/src/DataReaderITS.cxx</text>
</a>
</g>
</g>
<!-- Node7&#45;&gt;Node8 -->
<g id="edge7" class="edge"><title>Node7&#45;&gt;Node8</title>
<path fill="none" stroke="midnightblue" d="M1137.28,-182.089C1149.38,-170.342 1162.41,-157.698 1173.38,-147.054"/>
<polygon fill="midnightblue" stroke="midnightblue" points="1134.62,-179.785 1129.88,-189.261 1139.5,-184.809 1134.62,-179.785"/>
</g>
<!-- Node9&#45;&gt;Node6 -->
<g id="edge11" class="edge"><title>Node9&#45;&gt;Node6</title>
<path fill="none" stroke="midnightblue" d="M1306.19,-179.008C1307.96,-149.778 1304.74,-111.767 1281.2,-89 1229.13,-38.637 1027.78,-69.3554 957.204,-53 954.525,-52.379 951.807,-51.6884 949.076,-50.9436"/>
<polygon fill="midnightblue" stroke="midnightblue" points="1302.68,-179.082 1305.34,-189.335 1309.65,-179.656 1302.68,-179.082"/>
</g>
<!-- Node10 -->
<g id="node10" class="node"><title>Node10</title>
<g id="a_node10"><a xlink:href="../../df/d85/DataReaderTPC_8cxx.html" target="_top" xlink:title="TPC Detector&#45;specific reading from file(s) ">
<polygon fill="none" stroke="black" points="1328.2,-95 1328.2,-147 1474.2,-147 1474.2,-95 1328.2,-95"/>
<text text-anchor="start" x="1336.2" y="-135" font-family="Helvetica,sans-Serif" font-size="10.00">/home/travis/build</text>
<text text-anchor="start" x="1336.2" y="-124" font-family="Helvetica,sans-Serif" font-size="10.00">/AliceO2Group/AliceO2</text>
<text text-anchor="start" x="1336.2" y="-113" font-family="Helvetica,sans-Serif" font-size="10.00">/EventVisualisation/Detectors</text>
<text text-anchor="middle" x="1401.2" y="-102" font-family="Helvetica,sans-Serif" font-size="10.00">/src/DataReaderTPC.cxx</text>
</a>
</g>
</g>
<!-- Node9&#45;&gt;Node10 -->
<g id="edge10" class="edge"><title>Node9&#45;&gt;Node10</title>
<path fill="none" stroke="midnightblue" d="M1339.28,-182.089C1351.38,-170.342 1364.41,-157.698 1375.38,-147.054"/>
<polygon fill="midnightblue" stroke="midnightblue" points="1336.62,-179.785 1331.88,-189.261 1341.5,-184.809 1336.62,-179.785"/>
</g>
<!-- Node11&#45;&gt;Node4 -->
<g id="edge14" class="edge"><title>Node11&#45;&gt;Node4</title>
<path fill="none" stroke="midnightblue" d="M272.852,-187.294C303.276,-176.796 336.773,-164.816 367.204,-153 372.025,-151.128 377.001,-149.129 381.981,-147.082"/>
<polygon fill="midnightblue" stroke="midnightblue" points="271.409,-184.089 263.089,-190.649 273.684,-190.709 271.409,-184.089"/>
</g>
<!-- Node11&#45;&gt;Node5 -->
<g id="edge15" class="edge"><title>Node11&#45;&gt;Node5</title>
<path fill="none" stroke="midnightblue" d="M75.8975,-200.152C51.0084,-190.218 27.129,-175.323 12.2044,-153 -3.60489,-129.354 -4.39901,-112.096 12.2044,-89 37.1489,-54.3016 82.6396,-38.911 122.023,-32.2027"/>
<polygon fill="midnightblue" stroke="midnightblue" points="74.8767,-203.507 85.4694,-203.722 77.3228,-196.948 74.8767,-203.507"/>
</g>
<!-- Node12 -->
<g id="node12" class="node"><title>Node12</title>
<g id="a_node12"><a xlink:href="../../dd/d02/DataReaderVSD_8cxx.html" target="_top" xlink:title="VSD specific reading from file(s) (Visualisation Summary Data) ">
<polygon fill="none" stroke="black" points="21.2044,-95 21.2044,-147 167.204,-147 167.204,-95 21.2044,-95"/>
<text text-anchor="start" x="29.2044" y="-135" font-family="Helvetica,sans-Serif" font-size="10.00">/home/travis/build</text>
<text text-anchor="start" x="29.2044" y="-124" font-family="Helvetica,sans-Serif" font-size="10.00">/AliceO2Group/AliceO2</text>
<text text-anchor="start" x="29.2044" y="-113" font-family="Helvetica,sans-Serif" font-size="10.00">/EventVisualisation/Detectors</text>
<text text-anchor="middle" x="94.2044" y="-102" font-family="Helvetica,sans-Serif" font-size="10.00">/src/DataReaderVSD.cxx</text>
</a>
</g>
</g>
<!-- Node11&#45;&gt;Node12 -->
<g id="edge13" class="edge"><title>Node11&#45;&gt;Node12</title>
<path fill="none" stroke="midnightblue" d="M142.713,-181.423C133.279,-169.866 123.182,-157.497 114.656,-147.054"/>
<polygon fill="midnightblue" stroke="midnightblue" points="140.076,-183.728 149.111,-189.261 145.499,-179.301 140.076,-183.728"/>
</g>
<!-- Node13&#45;&gt;Node4 -->
<g id="edge23" class="edge"><title>Node13&#45;&gt;Node4</title>
<path fill="none" stroke="midnightblue" d="M707.043,-203.353C650.403,-191.645 575.639,-174.29 511.204,-153 505.777,-151.207 500.193,-149.167 494.649,-147.011"/>
<polygon fill="midnightblue" stroke="midnightblue" points="706.544,-206.823 717.043,-205.401 707.948,-199.966 706.544,-206.823"/>
</g>
<!-- Node13&#45;&gt;Node6 -->
<g id="edge24" class="edge"><title>Node13&#45;&gt;Node6</title>
<path fill="none" stroke="midnightblue" d="M844.007,-182.304C852.595,-173.556 860.574,-163.653 866.204,-153 883.009,-121.205 886.522,-79.0197 886.857,-52.5658"/>
<polygon fill="midnightblue" stroke="midnightblue" points="841.449,-179.908 836.687,-189.373 846.312,-184.944 841.449,-179.908"/>
</g>
<!-- Node14 -->
<g id="node14" class="node"><title>Node14</title>
<g id="a_node14"><a xlink:href="../../d9/d30/EventManagerFrame_8h.html" target="_top" xlink:title="GUI (bottom buttons) for visualisation. ">
<polygon fill="none" stroke="black" points="520.204,-89.5 520.204,-152.5 676.204,-152.5 676.204,-89.5 520.204,-89.5"/>
<text text-anchor="start" x="528.204" y="-140.5" font-family="Helvetica,sans-Serif" font-size="10.00">/home/travis/build</text>
<text text-anchor="start" x="528.204" y="-129.5" font-family="Helvetica,sans-Serif" font-size="10.00">/AliceO2Group/AliceO2</text>
<text text-anchor="start" x="528.204" y="-118.5" font-family="Helvetica,sans-Serif" font-size="10.00">/EventVisualisation/View</text>
<text text-anchor="start" x="528.204" y="-107.5" font-family="Helvetica,sans-Serif" font-size="10.00">/include/EventVisualisationView</text>
<text text-anchor="middle" x="598.204" y="-96.5" font-family="Helvetica,sans-Serif" font-size="10.00">/EventManagerFrame.h</text>
</a>
</g>
</g>
<!-- Node13&#45;&gt;Node14 -->
<g id="edge17" class="edge"><title>Node13&#45;&gt;Node14</title>
<path fill="none" stroke="midnightblue" d="M724.692,-184.923C703.413,-174.337 680.233,-162.806 659.598,-152.541"/>
<polygon fill="midnightblue" stroke="midnightblue" points="723.17,-188.075 733.683,-189.395 726.288,-181.808 723.17,-188.075"/>
</g>
<!-- Node15 -->
<g id="node15" class="node"><title>Node15</title>
<g id="a_node15"><a xlink:href="../../d8/df3/Initializer_8h.html" target="_top" xlink:title="/home/travis/build\l/AliceO2Group/AliceO2\l/EventVisualisation/View\l/include/EventVisualisationView\l/Initializer.h">
<polygon fill="none" stroke="black" points="914.204,-89.5 914.204,-152.5 1070.2,-152.5 1070.2,-89.5 914.204,-89.5"/>
<text text-anchor="start" x="922.204" y="-140.5" font-family="Helvetica,sans-Serif" font-size="10.00">/home/travis/build</text>
<text text-anchor="start" x="922.204" y="-129.5" font-family="Helvetica,sans-Serif" font-size="10.00">/AliceO2Group/AliceO2</text>
<text text-anchor="start" x="922.204" y="-118.5" font-family="Helvetica,sans-Serif" font-size="10.00">/EventVisualisation/View</text>
<text text-anchor="start" x="922.204" y="-107.5" font-family="Helvetica,sans-Serif" font-size="10.00">/include/EventVisualisationView</text>
<text text-anchor="middle" x="992.204" y="-96.5" font-family="Helvetica,sans-Serif" font-size="10.00">/Initializer.h</text>
</a>
</g>
</g>
<!-- Node13&#45;&gt;Node15 -->
<g id="edge20" class="edge"><title>Node13&#45;&gt;Node15</title>
<path fill="none" stroke="midnightblue" d="M865.716,-184.923C886.996,-174.337 910.176,-162.806 930.811,-152.541"/>
<polygon fill="midnightblue" stroke="midnightblue" points="864.121,-181.808 856.726,-189.395 867.238,-188.075 864.121,-181.808"/>
</g>
<!-- Node17 -->
<g id="node17" class="node"><title>Node17</title>
<g id="a_node17"><a xlink:href="../../da/d7a/MultiView_8cxx.html" target="_top" xlink:title="/home/travis/build\l/AliceO2Group/AliceO2\l/EventVisualisation/View\l/src/MultiView.cxx">
<polygon fill="none" stroke="black" points="732.704,-95 732.704,-147 857.704,-147 857.704,-95 732.704,-95"/>
<text text-anchor="start" x="740.704" y="-135" font-family="Helvetica,sans-Serif" font-size="10.00">/home/travis/build</text>
<text text-anchor="start" x="740.704" y="-124" font-family="Helvetica,sans-Serif" font-size="10.00">/AliceO2Group/AliceO2</text>
<text text-anchor="start" x="740.704" y="-113" font-family="Helvetica,sans-Serif" font-size="10.00">/EventVisualisation/View</text>
<text text-anchor="middle" x="795.204" y="-102" font-family="Helvetica,sans-Serif" font-size="10.00">/src/MultiView.cxx</text>
</a>
</g>
</g>
<!-- Node13&#45;&gt;Node17 -->
<g id="edge25" class="edge"><title>Node13&#45;&gt;Node17</title>
<path fill="none" stroke="midnightblue" d="M795.204,-179.079C795.204,-168.21 795.204,-156.794 795.204,-147.054"/>
<polygon fill="midnightblue" stroke="midnightblue" points="791.704,-179.261 795.204,-189.261 798.704,-179.261 791.704,-179.261"/>
</g>
<!-- Node14&#45;&gt;Node5 -->
<g id="edge18" class="edge"><title>Node14&#45;&gt;Node5</title>
<path fill="none" stroke="midnightblue" d="M510.512,-89.0839C510.41,-89.0559 510.307,-89.0279 510.204,-89 428.483,-66.756 332.756,-49.2456 268.465,-38.6895"/>
<polygon fill="midnightblue" stroke="midnightblue" points="509.604,-92.4645 520.181,-91.8501 511.529,-85.7345 509.604,-92.4645"/>
</g>
<!-- Node14&#45;&gt;Node6 -->
<g id="edge19" class="edge"><title>Node14&#45;&gt;Node6</title>
<path fill="none" stroke="midnightblue" d="M685.965,-90.3829C687.388,-89.9175 688.802,-89.4562 690.204,-89 734.632,-74.5466 784.914,-58.7812 823.426,-46.8313"/>
<polygon fill="midnightblue" stroke="midnightblue" points="684.871,-87.0581 676.464,-93.5057 687.057,-93.7081 684.871,-87.0581"/>
</g>
<!-- Node15&#45;&gt;Node6 -->
<g id="edge21" class="edge"><title>Node15&#45;&gt;Node6</title>
<path fill="none" stroke="midnightblue" d="M949.374,-82.6245C937.873,-72.5884 925.708,-61.9729 915.157,-52.7655"/>
<polygon fill="midnightblue" stroke="midnightblue" points="947.366,-85.5178 957.202,-89.4557 951.969,-80.2436 947.366,-85.5178"/>
</g>
<!-- Node16 -->
<g id="node16" class="node"><title>Node16</title>
<g id="a_node16"><a xlink:href="../../d5/d40/main_8cxx.html" target="_top" xlink:title="/home/travis/build\l/AliceO2Group/AliceO2\l/EventVisualisation/View\l/src/main.cxx">
<polygon fill="none" stroke="black" points="966.704,-0.5 966.704,-52.5 1091.7,-52.5 1091.7,-0.5 966.704,-0.5"/>
<text text-anchor="start" x="974.704" y="-40.5" font-family="Helvetica,sans-Serif" font-size="10.00">/home/travis/build</text>
<text text-anchor="start" x="974.704" y="-29.5" font-family="Helvetica,sans-Serif" font-size="10.00">/AliceO2Group/AliceO2</text>
<text text-anchor="start" x="974.704" y="-18.5" font-family="Helvetica,sans-Serif" font-size="10.00">/EventVisualisation/View</text>
<text text-anchor="middle" x="1029.2" y="-7.5" font-family="Helvetica,sans-Serif" font-size="10.00">/src/main.cxx</text>
</a>
</g>
</g>
<!-- Node15&#45;&gt;Node16 -->
<g id="edge22" class="edge"><title>Node15&#45;&gt;Node16</title>
<path fill="none" stroke="midnightblue" d="M1008.2,-80.0073C1011.9,-70.7616 1015.73,-61.1761 1019.1,-52.7655"/>
<polygon fill="midnightblue" stroke="midnightblue" points="1004.89,-78.871 1004.42,-89.4557 1011.39,-81.4708 1004.89,-78.871"/>
</g>
</g>
</svg>
