<?xml version="1.0" encoding="UTF-8" standalone="no"?>
<!DOCTYPE svg PUBLIC "-//W3C//DTD SVG 1.1//EN"
 "http://www.w3.org/Graphics/SVG/1.1/DTD/svg11.dtd">
<!-- Generated by graphviz version 2.38.0 (20140413.2041)
 -->
<!-- Title: /home/travis/build/AliceO2Group/AliceO2/GPU/GPUTracking/TPCClusterFinder/StreamCompaction.h Pages: 1 -->
<svg width="1674pt" height="621pt"
 viewBox="0.00 0.00 1674.00 621.00" xmlns="http://www.w3.org/2000/svg" xmlns:xlink="http://www.w3.org/1999/xlink">
<g id="graph0" class="graph" transform="scale(1 1) rotate(0) translate(4 617)">
<title>/home/travis/build/AliceO2Group/AliceO2/GPU/GPUTracking/TPCClusterFinder/StreamCompaction.h</title>
<!-- Node1 -->
<g id="node1" class="node"><title>Node1</title>
<polygon fill="#bfbfbf" stroke="black" points="157,-560.5 157,-612.5 342,-612.5 342,-560.5 157,-560.5"/>
<text text-anchor="start" x="165" y="-600.5" font-family="Helvetica,sans-Serif" font-size="10.00">/home/travis/build</text>
<text text-anchor="start" x="165" y="-589.5" font-family="Helvetica,sans-Serif" font-size="10.00">/AliceO2Group/AliceO2</text>
<text text-anchor="start" x="165" y="-578.5" font-family="Helvetica,sans-Serif" font-size="10.00">/GPU/GPUTracking/TPCClusterFinder</text>
<text text-anchor="middle" x="249.5" y="-567.5" font-family="Helvetica,sans-Serif" font-size="10.00">/StreamCompaction.h</text>
</g>
<!-- Node2 -->
<g id="node2" class="node"><title>Node2</title>
<g id="a_node2"><a xlink:href="../../d9/db0/clusterFinderDefs_8h.html" target="_top" xlink:title="clusterFinderDefs.h">
<polygon fill="none" stroke="black" points="125.5,-336.5 125.5,-355.5 227.5,-355.5 227.5,-336.5 125.5,-336.5"/>
<text text-anchor="middle" x="176.5" y="-343.5" font-family="Helvetica,sans-Serif" font-size="10.00">clusterFinderDefs.h</text>
</a>
</g>
</g>
<!-- Node1&#45;&gt;Node2 -->
<g id="edge1" class="edge"><title>Node1&#45;&gt;Node2</title>
<path fill="none" stroke="midnightblue" d="M239.978,-560.499C227.467,-527.034 205.349,-465.66 190.5,-412 186.262,-396.683 182.533,-379.042 179.992,-366.006"/>
<polygon fill="midnightblue" stroke="midnightblue" points="183.379,-365.085 178.081,-355.91 176.501,-366.387 183.379,-365.085"/>
</g>
<!-- Node14 -->
<g id="node14" class="node"><title>Node14</title>
<g id="a_node14"><a xlink:href="../../d1/d59/GPUTPCClusterFinderKernels_8h.html" target="_top" xlink:title="GPUTPCClusterFinderKernels.h">
<polygon fill="none" stroke="black" points="243.5,-504.5 243.5,-523.5 401.5,-523.5 401.5,-504.5 243.5,-504.5"/>
<text text-anchor="middle" x="322.5" y="-511.5" font-family="Helvetica,sans-Serif" font-size="10.00">GPUTPCClusterFinderKernels.h</text>
</a>
</g>
</g>
<!-- Node1&#45;&gt;Node14 -->
<g id="edge14" class="edge"><title>Node1&#45;&gt;Node14</title>
<path fill="none" stroke="midnightblue" d="M275.443,-560.446C285.712,-550.528 297.202,-539.432 306.257,-530.687"/>
<polygon fill="midnightblue" stroke="midnightblue" points="308.734,-533.16 313.496,-523.695 303.872,-528.125 308.734,-533.16"/>
</g>
<!-- Node3 -->
<g id="node3" class="node"><title>Node3</title>
<g id="a_node3"><a xlink:href="../../d2/d6d/GPUDef_8h.html" target="_top" xlink:title="GPUDef.h">
<polygon fill="none" stroke="black" points="899.5,-112.5 899.5,-131.5 961.5,-131.5 961.5,-112.5 899.5,-112.5"/>
<text text-anchor="middle" x="930.5" y="-119.5" font-family="Helvetica,sans-Serif" font-size="10.00">GPUDef.h</text>
</a>
</g>
</g>
<!-- Node2&#45;&gt;Node3 -->
<g id="edge2" class="edge"><title>Node2&#45;&gt;Node3</title>
<path fill="none" stroke="midnightblue" d="M177.364,-336.483C180.072,-314.389 190.43,-254.82 225.5,-224 325.197,-136.385 753.491,-124.69 889.132,-123.197"/>
<polygon fill="midnightblue" stroke="midnightblue" points="889.53,-126.693 899.496,-123.097 889.463,-119.694 889.53,-126.693"/>
</g>
<!-- Node12 -->
<g id="node12" class="node"><title>Node12</title>
<g id="a_node12"><a xlink:href="../../d6/deb/GPU_2GPUTracking_2TPCClusterFinder_2Digit_8h.html" target="_top" xlink:title="Digit.h">
<polygon fill="none" stroke="black" points="103,-280.5 103,-299.5 148,-299.5 148,-280.5 103,-280.5"/>
<text text-anchor="middle" x="125.5" y="-287.5" font-family="Helvetica,sans-Serif" font-size="10.00">Digit.h</text>
</a>
</g>
</g>
<!-- Node2&#45;&gt;Node12 -->
<g id="edge11" class="edge"><title>Node2&#45;&gt;Node12</title>
<path fill="none" stroke="midnightblue" d="M163.191,-336.324C154.287,-328.654 143.12,-317.25 135.064,-307.8"/>
<polygon fill="midnightblue" stroke="midnightblue" points="137.673,-305.458 128.694,-299.834 132.206,-309.83 137.673,-305.458"/>
</g>
<!-- Node13 -->
<g id="node13" class="node"><title>Node13</title>
<g id="a_node13"><a xlink:href="../../d0/dc1/GPU_2GPUTracking_2TPCClusterFinder_2ClusterNative_8h.html" target="_top" xlink:title="ClusterNative.h">
<polygon fill="none" stroke="black" points="0,-280.5 0,-299.5 85,-299.5 85,-280.5 0,-280.5"/>
<text text-anchor="middle" x="42.5" y="-287.5" font-family="Helvetica,sans-Serif" font-size="10.00">ClusterNative.h</text>
</a>
</g>
</g>
<!-- Node2&#45;&gt;Node13 -->
<g id="edge13" class="edge"><title>Node2&#45;&gt;Node13</title>
<path fill="none" stroke="midnightblue" d="M155.267,-336.444C133.116,-327.517 98.1813,-313.439 73.064,-303.317"/>
<polygon fill="midnightblue" stroke="midnightblue" points="74.2168,-300.008 63.6334,-299.516 71.6003,-306.501 74.2168,-300.008"/>
</g>
<!-- Node4 -->
<g id="node4" class="node"><title>Node4</title>
<g id="a_node4"><a xlink:href="../../df/d21/GPUCommonDef_8h.html" target="_top" xlink:title="GPUCommonDef.h">
<polygon fill="none" stroke="black" points="1265.5,-56.5 1265.5,-75.5 1367.5,-75.5 1367.5,-56.5 1265.5,-56.5"/>
<text text-anchor="middle" x="1316.5" y="-63.5" font-family="Helvetica,sans-Serif" font-size="10.00">GPUCommonDef.h</text>
</a>
</g>
</g>
<!-- Node3&#45;&gt;Node4 -->
<g id="edge3" class="edge"><title>Node3&#45;&gt;Node4</title>
<path fill="none" stroke="midnightblue" d="M961.631,-114.64C966.595,-113.703 971.682,-112.789 976.5,-112 1073.61,-96.0894 1187.04,-81.9674 1255.24,-73.9555"/>
<polygon fill="midnightblue" stroke="midnightblue" points="1255.85,-77.4079 1265.38,-72.7706 1255.04,-70.4553 1255.85,-77.4079"/>
</g>
<!-- Node7 -->
<g id="node7" class="node"><title>Node7</title>
<g id="a_node7"><a xlink:href="../../d2/d37/GPUDefConstantsAndSettings_8h.html" target="_top" xlink:title="GPUDefConstantsAndSettings.h">
<polygon fill="none" stroke="black" points="875,-56.5 875,-75.5 1036,-75.5 1036,-56.5 875,-56.5"/>
<text text-anchor="middle" x="955.5" y="-63.5" font-family="Helvetica,sans-Serif" font-size="10.00">GPUDefConstantsAndSettings.h</text>
</a>
</g>
</g>
<!-- Node3&#45;&gt;Node7 -->
<g id="edge6" class="edge"><title>Node3&#45;&gt;Node7</title>
<path fill="none" stroke="midnightblue" d="M934.628,-112.083C938.014,-104.77 942.916,-94.1814 947.119,-85.1034"/>
<polygon fill="midnightblue" stroke="midnightblue" points="950.423,-86.2962 951.449,-75.7511 944.071,-83.3553 950.423,-86.2962"/>
</g>
<!-- Node8 -->
<g id="node8" class="node"><title>Node8</title>
<g id="a_node8"><a xlink:href="../../dc/de9/GPUDefGPUParameters_8h.html" target="_top" xlink:title="GPUDefGPUParameters.h">
<polygon fill="none" stroke="black" points="1054.5,-56.5 1054.5,-75.5 1188.5,-75.5 1188.5,-56.5 1054.5,-56.5"/>
<text text-anchor="middle" x="1121.5" y="-63.5" font-family="Helvetica,sans-Serif" font-size="10.00">GPUDefGPUParameters.h</text>
</a>
</g>
</g>
<!-- Node3&#45;&gt;Node8 -->
<g id="edge7" class="edge"><title>Node3&#45;&gt;Node8</title>
<path fill="none" stroke="midnightblue" d="M960.765,-112.444C993.455,-103.201 1045.68,-88.4356 1081.68,-78.2572"/>
<polygon fill="midnightblue" stroke="midnightblue" points="1082.71,-81.6051 1091.38,-75.5164 1080.8,-74.8691 1082.71,-81.6051"/>
</g>
<!-- Node9 -->
<g id="node9" class="node"><title>Node9</title>
<g id="a_node9"><a xlink:href="../../d3/d4c/GPUDefOpenCL12Templates_8h.html" target="_top" xlink:title="GPUDefOpenCL12Templates.h">
<polygon fill="none" stroke="black" points="565,-56.5 565,-75.5 720,-75.5 720,-56.5 565,-56.5"/>
<text text-anchor="middle" x="642.5" y="-63.5" font-family="Helvetica,sans-Serif" font-size="10.00">GPUDefOpenCL12Templates.h</text>
</a>
</g>
</g>
<!-- Node3&#45;&gt;Node9 -->
<g id="edge8" class="edge"><title>Node3&#45;&gt;Node9</title>
<path fill="none" stroke="midnightblue" d="M899.405,-115.17C851.213,-106.134 757.807,-88.6201 697.888,-77.3853"/>
<polygon fill="midnightblue" stroke="midnightblue" points="698.314,-73.9043 687.841,-75.5014 697.024,-80.7844 698.314,-73.9043"/>
</g>
<!-- Node10 -->
<g id="node10" class="node"><title>Node10</title>
<g id="a_node10"><a xlink:href="../../d2/d45/GPUCommonRtypes_8h.html" target="_top" xlink:title="GPUCommonRtypes.h">
<polygon fill="none" stroke="black" points="738.5,-56.5 738.5,-75.5 856.5,-75.5 856.5,-56.5 738.5,-56.5"/>
<text text-anchor="middle" x="797.5" y="-63.5" font-family="Helvetica,sans-Serif" font-size="10.00">GPUCommonRtypes.h</text>
</a>
</g>
</g>
<!-- Node3&#45;&gt;Node10 -->
<g id="edge9" class="edge"><title>Node3&#45;&gt;Node10</title>
<path fill="none" stroke="midnightblue" d="M909.426,-112.444C887.44,-103.517 852.766,-89.4387 827.836,-79.3168"/>
<polygon fill="midnightblue" stroke="midnightblue" points="829.058,-76.0355 818.476,-75.5164 826.424,-82.5213 829.058,-76.0355"/>
</g>
<!-- Node5 -->
<g id="node5" class="node"><title>Node5</title>
<g id="a_node5"><a xlink:href="../../d5/d93/GPUCommonDefSettings_8h.html" target="_top" xlink:title="GPUCommonDefSettings.h">
<polygon fill="none" stroke="black" points="1173.5,-0.5 1173.5,-19.5 1311.5,-19.5 1311.5,-0.5 1173.5,-0.5"/>
<text text-anchor="middle" x="1242.5" y="-7.5" font-family="Helvetica,sans-Serif" font-size="10.00">GPUCommonDefSettings.h</text>
</a>
</g>
</g>
<!-- Node4&#45;&gt;Node5 -->
<g id="edge4" class="edge"><title>Node4&#45;&gt;Node5</title>
<path fill="none" stroke="midnightblue" d="M1304.61,-56.324C1293.35,-48.1066 1276.21,-35.6017 1262.79,-25.8069"/>
<polygon fill="midnightblue" stroke="midnightblue" points="1264.75,-22.9014 1254.61,-19.8339 1260.62,-28.5559 1264.75,-22.9014"/>
</g>
<!-- Node6 -->
<g id="node6" class="node"><title>Node6</title>
<g id="a_node6"><a xlink:href="../../da/d5a/GPUCommonDefAPI_8h.html" target="_top" xlink:title="GPUCommonDefAPI.h">
<polygon fill="none" stroke="black" points="1330,-0.5 1330,-19.5 1449,-19.5 1449,-0.5 1330,-0.5"/>
<text text-anchor="middle" x="1389.5" y="-7.5" font-family="Helvetica,sans-Serif" font-size="10.00">GPUCommonDefAPI.h</text>
</a>
</g>
</g>
<!-- Node4&#45;&gt;Node6 -->
<g id="edge5" class="edge"><title>Node4&#45;&gt;Node6</title>
<path fill="none" stroke="midnightblue" d="M1328.23,-56.324C1339.34,-48.1066 1356.24,-35.6017 1369.48,-25.8069"/>
<polygon fill="midnightblue" stroke="midnightblue" points="1371.6,-28.5948 1377.56,-19.8339 1367.44,-22.9671 1371.6,-28.5948"/>
</g>
<!-- Node11 -->
<g id="node11" class="node"><title>Node11</title>
<polygon fill="none" stroke="#bfbfbf" points="769.5,-0.5 769.5,-19.5 825.5,-19.5 825.5,-0.5 769.5,-0.5"/>
<text text-anchor="middle" x="797.5" y="-7.5" font-family="Helvetica,sans-Serif" font-size="10.00">Rtypes.h</text>
</g>
<!-- Node10&#45;&gt;Node11 -->
<g id="edge10" class="edge"><title>Node10&#45;&gt;Node11</title>
<path fill="none" stroke="midnightblue" d="M797.5,-56.083C797.5,-49.0059 797.5,-38.8611 797.5,-29.9865"/>
<polygon fill="midnightblue" stroke="midnightblue" points="801,-29.751 797.5,-19.7511 794,-29.7511 801,-29.751"/>
</g>
<!-- Node12&#45;&gt;Node2 -->
<g id="edge12" class="edge"><title>Node12&#45;&gt;Node2</title>
<path fill="none" stroke="midnightblue" d="M138.896,-299.751C147.768,-307.405 158.862,-318.736 166.888,-328.144"/>
<polygon fill="midnightblue" stroke="midnightblue" points="164.262,-330.465 173.245,-336.083 169.726,-326.089 164.262,-330.465"/>
</g>
<!-- Node14&#45;&gt;Node2 -->
<g id="edge72" class="edge"><title>Node14&#45;&gt;Node2</title>
<path fill="none" stroke="midnightblue" d="M296.482,-504.351C277.865,-497.078 253.235,-485.103 236.5,-468 207.228,-438.085 189.606,-391.059 181.619,-365.329"/>
<polygon fill="midnightblue" stroke="midnightblue" points="184.97,-364.316 178.78,-355.717 178.256,-366.299 184.97,-364.316"/>
</g>
<!-- Node15 -->
<g id="node15" class="node"><title>Node15</title>
<g id="a_node15"><a xlink:href="../../d9/de5/GPUGeneralKernels_8h.html" target="_top" xlink:title="GPUGeneralKernels.h">
<polygon fill="none" stroke="black" points="1341,-224.5 1341,-243.5 1454,-243.5 1454,-224.5 1341,-224.5"/>
<text text-anchor="middle" x="1397.5" y="-231.5" font-family="Helvetica,sans-Serif" font-size="10.00">GPUGeneralKernels.h</text>
</a>
</g>
</g>
<!-- Node14&#45;&gt;Node15 -->
<g id="edge15" class="edge"><title>Node14&#45;&gt;Node15</title>
<path fill="none" stroke="midnightblue" d="M401.644,-511.979C636.233,-508.641 1317.49,-496.574 1413.5,-468 1464.99,-452.676 1523.66,-443.236 1507.5,-392 1488.99,-333.322 1439.85,-277.515 1413.97,-251.034"/>
<polygon fill="midnightblue" stroke="midnightblue" points="1416.28,-248.398 1406.74,-243.787 1411.32,-253.34 1416.28,-248.398"/>
</g>
<!-- Node18 -->
<g id="node18" class="node"><title>Node18</title>
<g id="a_node18"><a xlink:href="../../db/df8/GPUConstantMem_8h.html" target="_top" xlink:title="GPUConstantMem.h">
<polygon fill="none" stroke="black" points="1296.5,-448.5 1296.5,-467.5 1404.5,-467.5 1404.5,-448.5 1296.5,-448.5"/>
<text text-anchor="middle" x="1350.5" y="-455.5" font-family="Helvetica,sans-Serif" font-size="10.00">GPUConstantMem.h</text>
</a>
</g>
</g>
<!-- Node14&#45;&gt;Node18 -->
<g id="edge20" class="edge"><title>Node14&#45;&gt;Node18</title>
<path fill="none" stroke="midnightblue" d="M401.884,-508.83C598.804,-498.486 1106.76,-471.803 1286.39,-462.367"/>
<polygon fill="midnightblue" stroke="midnightblue" points="1286.68,-465.857 1296.48,-461.838 1286.31,-458.867 1286.68,-465.857"/>
</g>
<!-- Node39 -->
<g id="node39" class="node"><title>Node39</title>
<g id="a_node39"><a xlink:href="../../d5/df1/GPUTPCSharedMemoryData_8h.html" target="_top" xlink:title="GPUTPCSharedMemoryData.h">
<polygon fill="none" stroke="black" points="245.5,-448.5 245.5,-467.5 399.5,-467.5 399.5,-448.5 245.5,-448.5"/>
<text text-anchor="middle" x="322.5" y="-455.5" font-family="Helvetica,sans-Serif" font-size="10.00">GPUTPCSharedMemoryData.h</text>
</a>
</g>
</g>
<!-- Node14&#45;&gt;Node39 -->
<g id="edge67" class="edge"><title>Node14&#45;&gt;Node39</title>
<path fill="none" stroke="midnightblue" d="M322.5,-504.083C322.5,-497.006 322.5,-486.861 322.5,-477.986"/>
<polygon fill="midnightblue" stroke="midnightblue" points="326,-477.751 322.5,-467.751 319,-477.751 326,-477.751"/>
</g>
<!-- Node15&#45;&gt;Node3 -->
<g id="edge16" class="edge"><title>Node15&#45;&gt;Node3</title>
<path fill="none" stroke="midnightblue" d="M1340.79,-224.74C1289.67,-216.842 1212.59,-203.813 1146.5,-188 1081.62,-172.477 1007.45,-148.832 965.074,-134.748"/>
<polygon fill="midnightblue" stroke="midnightblue" points="966.111,-131.404 955.517,-131.554 963.892,-138.043 966.111,-131.404"/>
</g>
<!-- Node16 -->
<g id="node16" class="node"><title>Node16</title>
<g id="a_node16"><a xlink:href="../../d4/dc5/GPUDataTypes_8h.html" target="_top" xlink:title="GPUDataTypes.h">
<polygon fill="none" stroke="black" points="1394,-168.5 1394,-187.5 1489,-187.5 1489,-168.5 1394,-168.5"/>
<text text-anchor="middle" x="1441.5" y="-175.5" font-family="Helvetica,sans-Serif" font-size="10.00">GPUDataTypes.h</text>
</a>
</g>
</g>
<!-- Node15&#45;&gt;Node16 -->
<g id="edge17" class="edge"><title>Node15&#45;&gt;Node16</title>
<path fill="none" stroke="midnightblue" d="M1404.77,-224.083C1411.04,-216.377 1420.29,-205.033 1427.93,-195.653"/>
<polygon fill="midnightblue" stroke="midnightblue" points="1430.77,-197.714 1434.37,-187.751 1425.34,-193.293 1430.77,-197.714"/>
</g>
<!-- Node16&#45;&gt;Node4 -->
<g id="edge18" class="edge"><title>Node16&#45;&gt;Node4</title>
<path fill="none" stroke="midnightblue" d="M1431.69,-168.368C1410.61,-149.814 1360.72,-105.913 1334.04,-82.4376"/>
<polygon fill="midnightblue" stroke="midnightblue" points="1336.08,-79.5702 1326.26,-75.5914 1331.46,-84.8252 1336.08,-79.5702"/>
</g>
<!-- Node17 -->
<g id="node17" class="node"><title>Node17</title>
<polygon fill="none" stroke="#bfbfbf" points="1268,-112.5 1268,-131.5 1317,-131.5 1317,-112.5 1268,-112.5"/>
<text text-anchor="middle" x="1292.5" y="-119.5" font-family="Helvetica,sans-Serif" font-size="10.00">cstddef</text>
</g>
<!-- Node16&#45;&gt;Node17 -->
<g id="edge19" class="edge"><title>Node16&#45;&gt;Node17</title>
<path fill="none" stroke="midnightblue" d="M1417.89,-168.444C1393.04,-159.438 1353.73,-145.189 1325.75,-135.049"/>
<polygon fill="midnightblue" stroke="midnightblue" points="1326.59,-131.633 1316,-131.516 1324.21,-138.214 1326.59,-131.633"/>
</g>
<!-- Node18&#45;&gt;Node16 -->
<g id="edge63" class="edge"><title>Node18&#45;&gt;Node16</title>
<path fill="none" stroke="midnightblue" d="M1394.72,-448.443C1445.09,-435.829 1520.5,-406.937 1520.5,-347 1520.5,-347 1520.5,-347 1520.5,-289 1520.5,-248.795 1485.25,-213.221 1461.84,-194.03"/>
<polygon fill="midnightblue" stroke="midnightblue" points="1463.86,-191.166 1453.84,-187.723 1459.53,-196.663 1463.86,-191.166"/>
</g>
<!-- Node19 -->
<g id="node19" class="node"><title>Node19</title>
<g id="a_node19"><a xlink:href="../../d6/d25/GPUTPCTracker_8h.html" target="_top" xlink:title="GPUTPCTracker.h">
<polygon fill="none" stroke="black" points="703.5,-392.5 703.5,-411.5 803.5,-411.5 803.5,-392.5 703.5,-392.5"/>
<text text-anchor="middle" x="753.5" y="-399.5" font-family="Helvetica,sans-Serif" font-size="10.00">GPUTPCTracker.h</text>
</a>
</g>
</g>
<!-- Node18&#45;&gt;Node19 -->
<g id="edge21" class="edge"><title>Node18&#45;&gt;Node19</title>
<path fill="none" stroke="midnightblue" d="M1296.47,-452.113C1185.02,-442.032 930.34,-418.996 813.767,-408.451"/>
<polygon fill="midnightblue" stroke="midnightblue" points="813.872,-404.947 803.597,-407.531 813.241,-411.918 813.872,-404.947"/>
</g>
<!-- Node29 -->
<g id="node29" class="node"><title>Node29</title>
<g id="a_node29"><a xlink:href="../../df/d13/GPUParam_8h.html" target="_top" xlink:title="GPUParam.h">
<polygon fill="none" stroke="black" points="1022,-280.5 1022,-299.5 1097,-299.5 1097,-280.5 1022,-280.5"/>
<text text-anchor="middle" x="1059.5" y="-287.5" font-family="Helvetica,sans-Serif" font-size="10.00">GPUParam.h</text>
</a>
</g>
</g>
<!-- Node18&#45;&gt;Node29 -->
<g id="edge62" class="edge"><title>Node18&#45;&gt;Node29</title>
<path fill="none" stroke="midnightblue" d="M1335.26,-448.309C1287.63,-421.136 1141.25,-337.636 1083.39,-304.63"/>
<polygon fill="midnightblue" stroke="midnightblue" points="1085.01,-301.52 1074.58,-299.605 1081.54,-307.6 1085.01,-301.52"/>
</g>
<!-- Node38 -->
<g id="node38" class="node"><title>Node38</title>
<g id="a_node38"><a xlink:href="../../da/d28/GPUO2FakeClasses_8h.html" target="_top" xlink:title="GPUO2FakeClasses.h">
<polygon fill="none" stroke="black" points="1549,-224.5 1549,-243.5 1666,-243.5 1666,-224.5 1549,-224.5"/>
<text text-anchor="middle" x="1607.5" y="-231.5" font-family="Helvetica,sans-Serif" font-size="10.00">GPUO2FakeClasses.h</text>
</a>
</g>
</g>
<!-- Node18&#45;&gt;Node38 -->
<g id="edge64" class="edge"><title>Node18&#45;&gt;Node38</title>
<path fill="none" stroke="midnightblue" d="M1404.71,-456.416C1444.85,-453.24 1498.58,-442.859 1534.5,-412 1583.42,-369.978 1600.12,-289.995 1605.34,-253.721"/>
<polygon fill="midnightblue" stroke="midnightblue" points="1608.84,-253.95 1606.65,-243.582 1601.89,-253.048 1608.84,-253.95"/>
</g>
<!-- Node20 -->
<g id="node20" class="node"><title>Node20</title>
<g id="a_node20"><a xlink:href="../../da/dab/GPUTPCDef_8h.html" target="_top" xlink:title="GPUTPCDef.h">
<polygon fill="none" stroke="black" points="449,-168.5 449,-187.5 532,-187.5 532,-168.5 449,-168.5"/>
<text text-anchor="middle" x="490.5" y="-175.5" font-family="Helvetica,sans-Serif" font-size="10.00">GPUTPCDef.h</text>
</a>
</g>
</g>
<!-- Node19&#45;&gt;Node20 -->
<g id="edge22" class="edge"><title>Node19&#45;&gt;Node20</title>
<path fill="none" stroke="midnightblue" d="M723.255,-392.427C664.243,-375.103 537.017,-334.626 508.5,-300 484.507,-270.868 485.15,-223.876 487.788,-197.857"/>
<polygon fill="midnightblue" stroke="midnightblue" points="491.277,-198.16 489.017,-187.81 484.329,-197.311 491.277,-198.16"/>
</g>
<!-- Node21 -->
<g id="node21" class="node"><title>Node21</title>
<polygon fill="none" stroke="#bfbfbf" points="776.5,-336.5 776.5,-355.5 830.5,-355.5 830.5,-336.5 776.5,-336.5"/>
<text text-anchor="middle" x="803.5" y="-343.5" font-family="Helvetica,sans-Serif" font-size="10.00">iostream</text>
</g>
<!-- Node19&#45;&gt;Node21 -->
<g id="edge24" class="edge"><title>Node19&#45;&gt;Node21</title>
<path fill="none" stroke="midnightblue" d="M761.756,-392.083C768.965,-384.298 779.61,-372.801 788.346,-363.367"/>
<polygon fill="midnightblue" stroke="midnightblue" points="791.171,-365.467 795.397,-355.751 786.035,-360.711 791.171,-365.467"/>
</g>
<!-- Node22 -->
<g id="node22" class="node"><title>Node22</title>
<g id="a_node22"><a xlink:href="../../dd/d7b/GPUTPCHitId_8h.html" target="_top" xlink:title="GPUTPCHitId.h">
<polygon fill="none" stroke="black" points="848.5,-336.5 848.5,-355.5 936.5,-355.5 936.5,-336.5 848.5,-336.5"/>
<text text-anchor="middle" x="892.5" y="-343.5" font-family="Helvetica,sans-Serif" font-size="10.00">GPUTPCHitId.h</text>
</a>
</g>
</g>
<!-- Node19&#45;&gt;Node22 -->
<g id="edge25" class="edge"><title>Node19&#45;&gt;Node22</title>
<path fill="none" stroke="midnightblue" d="M775.525,-392.444C798.604,-383.478 835.062,-369.314 861.141,-359.183"/>
<polygon fill="midnightblue" stroke="midnightblue" points="862.524,-362.4 870.578,-355.516 859.989,-355.875 862.524,-362.4"/>
</g>
<!-- Node23 -->
<g id="node23" class="node"><title>Node23</title>
<g id="a_node23"><a xlink:href="../../df/d4a/GPUTPCSliceData_8h.html" target="_top" xlink:title="GPUTPCSliceData.h">
<polygon fill="none" stroke="black" points="648.5,-336.5 648.5,-355.5 758.5,-355.5 758.5,-336.5 648.5,-336.5"/>
<text text-anchor="middle" x="703.5" y="-343.5" font-family="Helvetica,sans-Serif" font-size="10.00">GPUTPCSliceData.h</text>
</a>
</g>
</g>
<!-- Node19&#45;&gt;Node23 -->
<g id="edge26" class="edge"><title>Node19&#45;&gt;Node23</title>
<path fill="none" stroke="midnightblue" d="M745.244,-392.083C738.035,-384.298 727.39,-372.801 718.654,-363.367"/>
<polygon fill="midnightblue" stroke="midnightblue" points="720.965,-360.711 711.603,-355.751 715.829,-365.467 720.965,-360.711"/>
</g>
<!-- Node34 -->
<g id="node34" class="node"><title>Node34</title>
<g id="a_node34"><a xlink:href="../../d6/d57/GPUProcessor_8h.html" target="_top" xlink:title="GPUProcessor.h">
<polygon fill="none" stroke="black" points="1156,-168.5 1156,-187.5 1247,-187.5 1247,-168.5 1156,-168.5"/>
<text text-anchor="middle" x="1201.5" y="-175.5" font-family="Helvetica,sans-Serif" font-size="10.00">GPUProcessor.h</text>
</a>
</g>
</g>
<!-- Node19&#45;&gt;Node34 -->
<g id="edge61" class="edge"><title>Node19&#45;&gt;Node34</title>
<path fill="none" stroke="midnightblue" d="M803.603,-393.513C920.637,-374.831 1205.83,-321.985 1255.5,-244 1267.53,-225.113 1246.02,-205.643 1226.69,-192.998"/>
<polygon fill="midnightblue" stroke="midnightblue" points="1228.44,-189.964 1218.09,-187.695 1224.76,-195.923 1228.44,-189.964"/>
</g>
<!-- Node35 -->
<g id="node35" class="node"><title>Node35</title>
<g id="a_node35"><a xlink:href="../../de/d15/GPUTPCTrackParam_8h.html" target="_top" xlink:title="GPUTPCTrackParam.h">
<polygon fill="none" stroke="black" points="221.5,-280.5 221.5,-299.5 341.5,-299.5 341.5,-280.5 221.5,-280.5"/>
<text text-anchor="middle" x="281.5" y="-287.5" font-family="Helvetica,sans-Serif" font-size="10.00">GPUTPCTrackParam.h</text>
</a>
</g>
</g>
<!-- Node19&#45;&gt;Node35 -->
<g id="edge53" class="edge"><title>Node19&#45;&gt;Node35</title>
<path fill="none" stroke="midnightblue" d="M703.257,-393.307C653.327,-385.31 574.707,-371.771 507.5,-356 439.835,-340.122 362.222,-316.617 317.815,-302.651"/>
<polygon fill="midnightblue" stroke="midnightblue" points="318.652,-299.245 308.062,-299.569 316.543,-305.92 318.652,-299.245"/>
</g>
<!-- Node37 -->
<g id="node37" class="node"><title>Node37</title>
<g id="a_node37"><a xlink:href="../../db/d6e/GPUTPCTracklet_8h.html" target="_top" xlink:title="GPUTPCTracklet.h">
<polygon fill="none" stroke="black" points="359.5,-280.5 359.5,-299.5 461.5,-299.5 461.5,-280.5 359.5,-280.5"/>
<text text-anchor="middle" x="410.5" y="-287.5" font-family="Helvetica,sans-Serif" font-size="10.00">GPUTPCTracklet.h</text>
</a>
</g>
</g>
<!-- Node19&#45;&gt;Node37 -->
<g id="edge58" class="edge"><title>Node19&#45;&gt;Node37</title>
<path fill="none" stroke="midnightblue" d="M707.347,-392.455C668.275,-384.671 611.043,-371.965 562.5,-356 517.429,-341.177 467.184,-318.393 437.242,-304.111"/>
<polygon fill="midnightblue" stroke="midnightblue" points="438.431,-300.799 427.903,-299.617 435.396,-307.107 438.431,-300.799"/>
</g>
<!-- Node20&#45;&gt;Node3 -->
<g id="edge23" class="edge"><title>Node20&#45;&gt;Node3</title>
<path fill="none" stroke="midnightblue" d="M532.291,-171.871C616.429,-161.545 805.347,-138.36 889.132,-128.077"/>
<polygon fill="midnightblue" stroke="midnightblue" points="889.79,-131.523 899.289,-126.83 888.937,-124.575 889.79,-131.523"/>
</g>
<!-- Node23&#45;&gt;Node20 -->
<g id="edge27" class="edge"><title>Node23&#45;&gt;Node20</title>
<path fill="none" stroke="midnightblue" d="M699.251,-336.336C688.078,-314.407 655.73,-256.165 612.5,-224 591.184,-208.14 563.684,-197.352 540.189,-190.325"/>
<polygon fill="midnightblue" stroke="midnightblue" points="540.971,-186.908 530.395,-187.539 539.057,-193.641 540.971,-186.908"/>
</g>
<!-- Node24 -->
<g id="node24" class="node"><title>Node24</title>
<g id="a_node24"><a xlink:href="../../d8/dff/GPUTPCRow_8h.html" target="_top" xlink:title="GPUTPCRow.h">
<polygon fill="none" stroke="black" points="518,-280.5 518,-299.5 605,-299.5 605,-280.5 518,-280.5"/>
<text text-anchor="middle" x="561.5" y="-287.5" font-family="Helvetica,sans-Serif" font-size="10.00">GPUTPCRow.h</text>
</a>
</g>
</g>
<!-- Node23&#45;&gt;Node24 -->
<g id="edge28" class="edge"><title>Node23&#45;&gt;Node24</title>
<path fill="none" stroke="midnightblue" d="M681,-336.444C657.423,-327.478 620.178,-313.314 593.536,-303.183"/>
<polygon fill="midnightblue" stroke="midnightblue" points="594.486,-299.8 583.895,-299.516 591.998,-306.342 594.486,-299.8"/>
</g>
<!-- Node26 -->
<g id="node26" class="node"><title>Node26</title>
<g id="a_node26"><a xlink:href="../../d6/da2/GPUCommonMath_8h.html" target="_top" xlink:title="GPUCommonMath.h">
<polygon fill="none" stroke="black" points="953.5,-168.5 953.5,-187.5 1061.5,-187.5 1061.5,-168.5 953.5,-168.5"/>
<text text-anchor="middle" x="1007.5" y="-175.5" font-family="Helvetica,sans-Serif" font-size="10.00">GPUCommonMath.h</text>
</a>
</g>
</g>
<!-- Node23&#45;&gt;Node26 -->
<g id="edge32" class="edge"><title>Node23&#45;&gt;Node26</title>
<path fill="none" stroke="midnightblue" d="M705.21,-336.281C710.125,-313.702 726.515,-253.06 765.5,-224 793.006,-203.496 881.205,-191.01 943.144,-184.551"/>
<polygon fill="midnightblue" stroke="midnightblue" points="943.634,-188.019 953.229,-183.527 942.927,-181.055 943.634,-188.019"/>
</g>
<!-- Node23&#45;&gt;Node29 -->
<g id="edge36" class="edge"><title>Node23&#45;&gt;Node29</title>
<path fill="none" stroke="midnightblue" d="M758.734,-336.622C828.16,-326.091 946.167,-308.191 1011.83,-298.231"/>
<polygon fill="midnightblue" stroke="midnightblue" points="1012.54,-301.663 1021.9,-296.703 1011.49,-294.743 1012.54,-301.663"/>
</g>
<!-- Node33 -->
<g id="node33" class="node"><title>Node33</title>
<g id="a_node33"><a xlink:href="../../d5/da6/GPUMemoryResource_8h.html" target="_top" xlink:title="GPUMemoryResource.h">
<polygon fill="none" stroke="black" points="1122.5,-224.5 1122.5,-243.5 1246.5,-243.5 1246.5,-224.5 1122.5,-224.5"/>
<text text-anchor="middle" x="1184.5" y="-231.5" font-family="Helvetica,sans-Serif" font-size="10.00">GPUMemoryResource.h</text>
</a>
</g>
</g>
<!-- Node23&#45;&gt;Node33 -->
<g id="edge46" class="edge"><title>Node23&#45;&gt;Node33</title>
<path fill="none" stroke="midnightblue" d="M758.642,-337.126C761.637,-336.736 764.605,-336.358 767.5,-336 917.432,-317.479 966.195,-358.454 1105.5,-300 1131.48,-289.099 1155.59,-266.751 1170.18,-251.327"/>
<polygon fill="midnightblue" stroke="midnightblue" points="1173.09,-253.33 1177.26,-243.587 1167.93,-248.607 1173.09,-253.33"/>
</g>
<!-- Node24&#45;&gt;Node20 -->
<g id="edge29" class="edge"><title>Node24&#45;&gt;Node20</title>
<path fill="none" stroke="midnightblue" d="M547.582,-280.314C535.8,-272.27 519.307,-259.269 509.5,-244 500.466,-229.934 495.606,-211.441 493.07,-197.778"/>
<polygon fill="midnightblue" stroke="midnightblue" points="496.484,-196.961 491.446,-187.641 489.572,-198.068 496.484,-196.961"/>
</g>
<!-- Node25 -->
<g id="node25" class="node"><title>Node25</title>
<g id="a_node25"><a xlink:href="../../d3/da7/GPUTPCGrid_8h.html" target="_top" xlink:title="GPUTPCGrid.h">
<polygon fill="none" stroke="black" points="519,-224.5 519,-243.5 604,-243.5 604,-224.5 519,-224.5"/>
<text text-anchor="middle" x="561.5" y="-231.5" font-family="Helvetica,sans-Serif" font-size="10.00">GPUTPCGrid.h</text>
</a>
</g>
</g>
<!-- Node24&#45;&gt;Node25 -->
<g id="edge30" class="edge"><title>Node24&#45;&gt;Node25</title>
<path fill="none" stroke="midnightblue" d="M561.5,-280.083C561.5,-273.006 561.5,-262.861 561.5,-253.986"/>
<polygon fill="midnightblue" stroke="midnightblue" points="565,-253.751 561.5,-243.751 558,-253.751 565,-253.751"/>
</g>
<!-- Node25&#45;&gt;Node20 -->
<g id="edge31" class="edge"><title>Node25&#45;&gt;Node20</title>
<path fill="none" stroke="midnightblue" d="M550.093,-224.324C539.391,-216.185 523.159,-203.839 510.337,-194.087"/>
<polygon fill="midnightblue" stroke="midnightblue" points="512.193,-191.102 502.115,-187.834 507.956,-196.673 512.193,-191.102"/>
</g>
<!-- Node26&#45;&gt;Node4 -->
<g id="edge33" class="edge"><title>Node26&#45;&gt;Node4</title>
<path fill="none" stroke="midnightblue" d="M1018.59,-168.453C1037.19,-154.542 1076.27,-127.046 1113.5,-112 1159.41,-93.442 1214.42,-81.851 1255.58,-75.0895"/>
<polygon fill="midnightblue" stroke="midnightblue" points="1256.14,-78.5441 1265.47,-73.5142 1255.04,-71.6313 1256.14,-78.5441"/>
</g>
<!-- Node27 -->
<g id="node27" class="node"><title>Node27</title>
<polygon fill="none" stroke="#bfbfbf" points="985.5,-112.5 985.5,-131.5 1029.5,-131.5 1029.5,-112.5 985.5,-112.5"/>
<text text-anchor="middle" x="1007.5" y="-119.5" font-family="Helvetica,sans-Serif" font-size="10.00">cmath</text>
</g>
<!-- Node26&#45;&gt;Node27 -->
<g id="edge34" class="edge"><title>Node26&#45;&gt;Node27</title>
<path fill="none" stroke="midnightblue" d="M1007.5,-168.083C1007.5,-161.006 1007.5,-150.861 1007.5,-141.986"/>
<polygon fill="midnightblue" stroke="midnightblue" points="1011,-141.751 1007.5,-131.751 1004,-141.751 1011,-141.751"/>
</g>
<!-- Node28 -->
<g id="node28" class="node"><title>Node28</title>
<polygon fill="none" stroke="#bfbfbf" points="1155.5,-112.5 1155.5,-131.5 1211.5,-131.5 1211.5,-112.5 1155.5,-112.5"/>
<text text-anchor="middle" x="1183.5" y="-119.5" font-family="Helvetica,sans-Serif" font-size="10.00">algorithm</text>
</g>
<!-- Node26&#45;&gt;Node28 -->
<g id="edge35" class="edge"><title>Node26&#45;&gt;Node28</title>
<path fill="none" stroke="midnightblue" d="M1035.39,-168.444C1065.25,-159.28 1112.81,-144.688 1145.96,-134.519"/>
<polygon fill="midnightblue" stroke="midnightblue" points="1147.21,-137.796 1155.74,-131.516 1145.16,-131.104 1147.21,-137.796"/>
</g>
<!-- Node29&#45;&gt;Node3 -->
<g id="edge39" class="edge"><title>Node29&#45;&gt;Node3</title>
<path fill="none" stroke="midnightblue" d="M1033.96,-280.418C1015.34,-273.115 990.503,-261.075 973.5,-244 945.409,-215.789 935.585,-168.059 932.212,-141.768"/>
<polygon fill="midnightblue" stroke="midnightblue" points="935.67,-141.196 931.1,-131.637 928.712,-141.96 935.67,-141.196"/>
</g>
<!-- Node29&#45;&gt;Node4 -->
<g id="edge37" class="edge"><title>Node29&#45;&gt;Node4</title>
<path fill="none" stroke="midnightblue" d="M1097.04,-288.9C1185.13,-288.025 1402.17,-281.966 1462.5,-244 1493.97,-224.193 1516.33,-200.069 1497.5,-168 1468.68,-118.915 1406.37,-91.9277 1362.96,-78.4703"/>
<polygon fill="midnightblue" stroke="midnightblue" points="1363.77,-75.0591 1353.19,-75.5678 1361.78,-81.7695 1363.77,-75.0591"/>
</g>
<!-- Node29&#45;&gt;Node26 -->
<g id="edge38" class="edge"><title>Node29&#45;&gt;Node26</title>
<path fill="none" stroke="midnightblue" d="M1065.27,-280.079C1072.91,-267.058 1084.3,-242.397 1074.5,-224 1066.95,-209.834 1052.74,-199.335 1039.34,-192.058"/>
<polygon fill="midnightblue" stroke="midnightblue" points="1040.8,-188.872 1030.29,-187.529 1037.67,-195.133 1040.8,-188.872"/>
</g>
<!-- Node30 -->
<g id="node30" class="node"><title>Node30</title>
<g id="a_node30"><a xlink:href="../../dd/dc6/GPUSettings_8h.html" target="_top" xlink:title="GPUSettings.h">
<polygon fill="none" stroke="black" points="983,-224.5 983,-243.5 1066,-243.5 1066,-224.5 983,-224.5"/>
<text text-anchor="middle" x="1024.5" y="-231.5" font-family="Helvetica,sans-Serif" font-size="10.00">GPUSettings.h</text>
</a>
</g>
</g>
<!-- Node29&#45;&gt;Node30 -->
<g id="edge40" class="edge"><title>Node29&#45;&gt;Node30</title>
<path fill="none" stroke="midnightblue" d="M1053.72,-280.083C1048.83,-272.534 1041.67,-261.495 1035.67,-252.23"/>
<polygon fill="midnightblue" stroke="midnightblue" points="1038.55,-250.239 1030.17,-243.751 1032.67,-254.046 1038.55,-250.239"/>
</g>
<!-- Node31 -->
<g id="node31" class="node"><title>Node31</title>
<g id="a_node31"><a xlink:href="../../d6/d1b/GPUTPCGeometry_8h.html" target="_top" xlink:title="GPUTPCGeometry.h">
<polygon fill="none" stroke="black" points="1265.5,-168.5 1265.5,-187.5 1375.5,-187.5 1375.5,-168.5 1265.5,-168.5"/>
<text text-anchor="middle" x="1320.5" y="-175.5" font-family="Helvetica,sans-Serif" font-size="10.00">GPUTPCGeometry.h</text>
</a>
</g>
</g>
<!-- Node29&#45;&gt;Node31 -->
<g id="edge42" class="edge"><title>Node29&#45;&gt;Node31</title>
<path fill="none" stroke="midnightblue" d="M1097.09,-286.559C1138.25,-282.527 1205.1,-271.898 1255.5,-244 1277.01,-232.096 1296.16,-210.985 1308.01,-196.056"/>
<polygon fill="midnightblue" stroke="midnightblue" points="1311.11,-197.768 1314.4,-187.698 1305.55,-193.517 1311.11,-197.768"/>
</g>
<!-- Node32 -->
<g id="node32" class="node"><title>Node32</title>
<g id="a_node32"><a xlink:href="../../d9/d9c/GPUTPCGMPolynomialField_8h.html" target="_top" xlink:title="GPUTPCGMPolynomialField.h">
<polygon fill="none" stroke="black" points="774.5,-224.5 774.5,-243.5 926.5,-243.5 926.5,-224.5 774.5,-224.5"/>
<text text-anchor="middle" x="850.5" y="-231.5" font-family="Helvetica,sans-Serif" font-size="10.00">GPUTPCGMPolynomialField.h</text>
</a>
</g>
</g>
<!-- Node29&#45;&gt;Node32 -->
<g id="edge44" class="edge"><title>Node29&#45;&gt;Node32</title>
<path fill="none" stroke="midnightblue" d="M1026.38,-280.444C990.382,-271.142 932.73,-256.246 893.314,-246.062"/>
<polygon fill="midnightblue" stroke="midnightblue" points="894.019,-242.629 883.462,-243.516 892.268,-249.407 894.019,-242.629"/>
</g>
<!-- Node30&#45;&gt;Node26 -->
<g id="edge41" class="edge"><title>Node30&#45;&gt;Node26</title>
<path fill="none" stroke="midnightblue" d="M1021.69,-224.083C1019.42,-216.849 1016.13,-206.409 1013.29,-197.397"/>
<polygon fill="midnightblue" stroke="midnightblue" points="1016.6,-196.239 1010.25,-187.751 1009.92,-198.341 1016.6,-196.239"/>
</g>
<!-- Node31&#45;&gt;Node4 -->
<g id="edge43" class="edge"><title>Node31&#45;&gt;Node4</title>
<path fill="none" stroke="midnightblue" d="M1322.16,-168.158C1324.29,-155.642 1327.49,-132.048 1325.5,-112 1324.63,-103.17 1322.81,-93.5054 1321.03,-85.4041"/>
<polygon fill="midnightblue" stroke="midnightblue" points="1324.42,-84.4935 1318.73,-75.5508 1317.6,-86.0846 1324.42,-84.4935"/>
</g>
<!-- Node32&#45;&gt;Node20 -->
<g id="edge45" class="edge"><title>Node32&#45;&gt;Node20</title>
<path fill="none" stroke="midnightblue" d="M793.457,-224.444C724.39,-214.083 609.058,-196.784 542.392,-186.784"/>
<polygon fill="midnightblue" stroke="midnightblue" points="542.533,-183.266 532.125,-185.244 541.495,-190.188 542.533,-183.266"/>
</g>
<!-- Node33&#45;&gt;Node4 -->
<g id="edge47" class="edge"><title>Node33&#45;&gt;Node4</title>
<path fill="none" stroke="midnightblue" d="M1173.79,-224.305C1164.56,-216.069 1151.91,-202.789 1146.5,-188 1134.9,-156.277 1125.9,-138.767 1146.5,-112 1159.93,-94.5491 1212.21,-82.476 1255.29,-75.2614"/>
<polygon fill="midnightblue" stroke="midnightblue" points="1255.85,-78.7158 1265.17,-73.6636 1254.73,-71.8056 1255.85,-78.7158"/>
</g>
<!-- Node33&#45;&gt;Node34 -->
<g id="edge48" class="edge"><title>Node33&#45;&gt;Node34</title>
<path fill="none" stroke="midnightblue" d="M1187.31,-224.083C1189.58,-216.849 1192.87,-206.409 1195.71,-197.397"/>
<polygon fill="midnightblue" stroke="midnightblue" points="1199.08,-198.341 1198.75,-187.751 1192.4,-196.239 1199.08,-198.341"/>
</g>
<!-- Node34&#45;&gt;Node3 -->
<g id="edge50" class="edge"><title>Node34&#45;&gt;Node3</title>
<path fill="none" stroke="midnightblue" d="M1158.56,-168.444C1107.32,-158.233 1022.24,-141.281 971.754,-131.22"/>
<polygon fill="midnightblue" stroke="midnightblue" points="972.325,-127.765 961.834,-129.244 970.957,-134.631 972.325,-127.765"/>
</g>
<!-- Node34&#45;&gt;Node4 -->
<g id="edge49" class="edge"><title>Node34&#45;&gt;Node4</title>
<path fill="none" stroke="midnightblue" d="M1208.39,-168.112C1218.64,-155.132 1238.83,-130.521 1258.5,-112 1270.18,-100.999 1284.4,-89.9344 1295.84,-81.5294"/>
<polygon fill="midnightblue" stroke="midnightblue" points="1297.9,-84.3595 1303.95,-75.6656 1293.8,-78.6858 1297.9,-84.3595"/>
</g>
<!-- Node34&#45;&gt;Node17 -->
<g id="edge51" class="edge"><title>Node34&#45;&gt;Node17</title>
<path fill="none" stroke="midnightblue" d="M1216.12,-168.324C1230.45,-159.822 1252.51,-146.729 1269.25,-136.797"/>
<polygon fill="midnightblue" stroke="midnightblue" points="1271.1,-139.768 1277.92,-131.655 1267.53,-133.748 1271.1,-139.768"/>
</g>
<!-- Node34&#45;&gt;Node28 -->
<g id="edge52" class="edge"><title>Node34&#45;&gt;Node28</title>
<path fill="none" stroke="midnightblue" d="M1198.53,-168.083C1196.12,-160.849 1192.64,-150.409 1189.63,-141.397"/>
<polygon fill="midnightblue" stroke="midnightblue" points="1192.9,-140.131 1186.42,-131.751 1186.26,-142.345 1192.9,-140.131"/>
</g>
<!-- Node35&#45;&gt;Node20 -->
<g id="edge56" class="edge"><title>Node35&#45;&gt;Node20</title>
<path fill="none" stroke="midnightblue" d="M267.026,-280.327C247.587,-267.614 217.258,-243.333 233.5,-224 259.205,-193.403 371.561,-183.606 438.912,-180.472"/>
<polygon fill="midnightblue" stroke="midnightblue" points="439.072,-183.968 448.911,-180.04 438.769,-176.975 439.072,-183.968"/>
</g>
<!-- Node35&#45;&gt;Node26 -->
<g id="edge57" class="edge"><title>Node35&#45;&gt;Node26</title>
<path fill="none" stroke="midnightblue" d="M341.836,-280.963C433.684,-268.704 599.377,-246.486 612.5,-244 649.358,-237.019 657.669,-231.122 694.5,-224 779.895,-207.487 879.472,-194.178 942.971,-186.432"/>
<polygon fill="midnightblue" stroke="midnightblue" points="943.725,-189.866 953.232,-185.19 942.884,-182.917 943.725,-189.866"/>
</g>
<!-- Node36 -->
<g id="node36" class="node"><title>Node36</title>
<g id="a_node36"><a xlink:href="../../df/d00/GPUTPCBaseTrackParam_8h.html" target="_top" xlink:title="GPUTPCBaseTrackParam.h">
<polygon fill="none" stroke="black" points="243,-224.5 243,-243.5 386,-243.5 386,-224.5 243,-224.5"/>
<text text-anchor="middle" x="314.5" y="-231.5" font-family="Helvetica,sans-Serif" font-size="10.00">GPUTPCBaseTrackParam.h</text>
</a>
</g>
</g>
<!-- Node35&#45;&gt;Node36 -->
<g id="edge54" class="edge"><title>Node35&#45;&gt;Node36</title>
<path fill="none" stroke="midnightblue" d="M286.949,-280.083C291.514,-272.613 298.168,-261.724 303.793,-252.52"/>
<polygon fill="midnightblue" stroke="midnightblue" points="306.924,-254.109 309.152,-243.751 300.951,-250.459 306.924,-254.109"/>
</g>
<!-- Node36&#45;&gt;Node20 -->
<g id="edge55" class="edge"><title>Node36&#45;&gt;Node20</title>
<path fill="none" stroke="midnightblue" d="M342.388,-224.444C372.254,-215.28 419.815,-200.688 452.956,-190.519"/>
<polygon fill="midnightblue" stroke="midnightblue" points="454.209,-193.796 462.743,-187.516 452.156,-187.104 454.209,-193.796"/>
</g>
<!-- Node37&#45;&gt;Node20 -->
<g id="edge60" class="edge"><title>Node37&#45;&gt;Node20</title>
<path fill="none" stroke="midnightblue" d="M412.854,-280.369C416.709,-267.284 425.287,-242.042 438.5,-224 446.987,-212.411 458.982,-201.776 469.313,-193.758"/>
<polygon fill="midnightblue" stroke="midnightblue" points="471.554,-196.453 477.486,-187.674 467.375,-190.837 471.554,-196.453"/>
</g>
<!-- Node37&#45;&gt;Node36 -->
<g id="edge59" class="edge"><title>Node37&#45;&gt;Node36</title>
<path fill="none" stroke="midnightblue" d="M395.076,-280.324C379.96,-271.822 356.685,-258.729 339.029,-248.797"/>
<polygon fill="midnightblue" stroke="midnightblue" points="340.317,-245.507 329.886,-243.655 336.886,-251.608 340.317,-245.507"/>
</g>
<!-- Node38&#45;&gt;Node4 -->
<g id="edge65" class="edge"><title>Node38&#45;&gt;Node4</title>
<path fill="none" stroke="midnightblue" d="M1604.73,-224.297C1597.09,-201.755 1573.44,-141.197 1531.5,-112 1486.4,-80.6025 1423.95,-70.2937 1377.97,-67.2805"/>
<polygon fill="midnightblue" stroke="midnightblue" points="1378.02,-63.7776 1367.84,-66.716 1377.63,-70.7668 1378.02,-63.7776"/>
</g>
<!-- Node38&#45;&gt;Node16 -->
<g id="edge66" class="edge"><title>Node38&#45;&gt;Node16</title>
<path fill="none" stroke="midnightblue" d="M1581.2,-224.444C1553.15,-215.32 1508.56,-200.813 1477.32,-190.651"/>
<polygon fill="midnightblue" stroke="midnightblue" points="1478.27,-187.282 1467.68,-187.516 1476.11,-193.938 1478.27,-187.282"/>
</g>
<!-- Node39&#45;&gt;Node2 -->
<g id="edge68" class="edge"><title>Node39&#45;&gt;Node2</title>
<path fill="none" stroke="midnightblue" d="M311.044,-448.368C286.203,-429.653 227.137,-385.151 196.187,-361.832"/>
<polygon fill="midnightblue" stroke="midnightblue" points="197.996,-358.814 187.903,-355.591 193.784,-364.404 197.996,-358.814"/>
</g>
<!-- Node40 -->
<g id="node40" class="node"><title>Node40</title>
<g id="a_node40"><a xlink:href="../../d1/d65/PackedCharge_8h.html" target="_top" xlink:title="PackedCharge.h">
<polygon fill="none" stroke="black" points="281,-392.5 281,-411.5 370,-411.5 370,-392.5 281,-392.5"/>
<text text-anchor="middle" x="325.5" y="-399.5" font-family="Helvetica,sans-Serif" font-size="10.00">PackedCharge.h</text>
</a>
</g>
</g>
<!-- Node39&#45;&gt;Node40 -->
<g id="edge69" class="edge"><title>Node39&#45;&gt;Node40</title>
<path fill="none" stroke="midnightblue" d="M322.995,-448.083C323.389,-441.006 323.952,-430.861 324.445,-421.986"/>
<polygon fill="midnightblue" stroke="midnightblue" points="327.954,-421.93 325.014,-411.751 320.964,-421.542 327.954,-421.93"/>
</g>
<!-- Node40&#45;&gt;Node2 -->
<g id="edge70" class="edge"><title>Node40&#45;&gt;Node2</title>
<path fill="none" stroke="midnightblue" d="M301.891,-392.444C277.042,-383.438 237.726,-369.189 209.746,-359.049"/>
<polygon fill="midnightblue" stroke="midnightblue" points="210.593,-355.633 199.999,-355.516 208.208,-362.214 210.593,-355.633"/>
</g>
<!-- Node40&#45;&gt;Node26 -->
<g id="edge71" class="edge"><title>Node40&#45;&gt;Node26</title>
<path fill="none" stroke="midnightblue" d="M356.102,-392.381C409.547,-376.868 522.847,-341.923 613.5,-300 674.246,-271.908 680.606,-246.882 743.5,-224 809.175,-200.106 888.742,-188.757 943.246,-183.459"/>
<polygon fill="midnightblue" stroke="midnightblue" points="943.829,-186.92 953.461,-182.508 943.18,-179.95 943.829,-186.92"/>
</g>
</g>
</svg>
