<?xml version="1.0" encoding="UTF-8" standalone="no"?>
<!DOCTYPE svg PUBLIC "-//W3C//DTD SVG 1.1//EN"
 "http://www.w3.org/Graphics/SVG/1.1/DTD/svg11.dtd">
<!-- Generated by graphviz version 2.38.0 (20140413.2041)
 -->
<!-- Title: /home/travis/build/AliceO2Group/AliceO2/Detectors/EMCAL/calib/src/BadChannelMap.cxx Pages: 1 -->
<!--zoomable 307 -->
<svg id="main" version="1.1" xmlns="http://www.w3.org/2000/svg" xmlns:xlink="http://www.w3.org/1999/xlink" xml:space="preserve" onload="init(evt)">
<style type="text/css"><![CDATA[
.edge:hover path { stroke: red; }
.edge:hover polygon { stroke: red; fill: red; }
]]></style>
<script type="text/javascript"><![CDATA[
var edges = document.getElementsByTagName('g');
if (edges && edges.length) {
  for (var i=0;i<edges.length;i++) {
    if (edges[i].id.substr(0,4)=='edge') {
      edges[i].setAttribute('class','edge');
    }
  }
}
]]></script>
        <defs>
                <circle id="rim" cx="0" cy="0" r="7"/>
                <circle id="rim2" cx="0" cy="0" r="3.5"/>
                <g id="zoomPlus">
                        <use xlink:href="#rim" fill="#404040">
                                <set attributeName="fill" to="#808080" begin="zoomplus.mouseover" end="zoomplus.mouseout"/>
                        </use>
                        <path d="M-4,0h8M0,-4v8" fill="none" stroke="white" stroke-width="1.5" pointer-events="none"/>
                </g>
                <g id="zoomMin">
                        <use xlink:href="#rim" fill="#404040">
                                <set attributeName="fill" to="#808080" begin="zoomminus.mouseover" end="zoomminus.mouseout"/>
                        </use>
                        <path d="M-4,0h8" fill="none" stroke="white" stroke-width="1.5" pointer-events="none"/>
                </g>
                <g id="dirArrow">
                        <path fill="none" stroke="white" stroke-width="1.5" d="M0,-3.0v7 M-2.5,-0.5L0,-3.0L2.5,-0.5"/>
                </g>
               <g id="resetDef">
                       <use xlink:href="#rim2" fill="#404040">
                               <set attributeName="fill" to="#808080" begin="reset.mouseover" end="reset.mouseout"/>
                       </use>
               </g>
        </defs>

<script type="text/javascript">
var viewWidth = 1568;
var viewHeight = 307;
var sectionId = 'dynsection-0';
</script>
<script xlink:href="../../svgpan.js"/>
<svg id="graph" class="graph">
<g id="viewport">
<title>/home/travis/build/AliceO2Group/AliceO2/Detectors/EMCAL/calib/src/BadChannelMap.cxx</title>
<!-- Node1 -->
<g id="node1" class="node"><title>Node1</title>
<polygon fill="#bfbfbf" stroke="black" points="761,-246.5 761,-298.5 888,-298.5 888,-246.5 761,-246.5"/>
<text text-anchor="start" x="769" y="-286.5" font-family="Helvetica,sans-Serif" font-size="10.00">/home/travis/build</text>
<text text-anchor="start" x="769" y="-275.5" font-family="Helvetica,sans-Serif" font-size="10.00">/AliceO2Group/AliceO2</text>
<text text-anchor="start" x="769" y="-264.5" font-family="Helvetica,sans-Serif" font-size="10.00">/Detectors/EMCAL/calib</text>
<text text-anchor="middle" x="824.5" y="-253.5" font-family="Helvetica,sans-Serif" font-size="10.00">/src/BadChannelMap.cxx</text>
</g>
<!-- Node2 -->
<g id="node2" class="node"><title>Node2</title>
<g id="a_node2"><a xlink:href="../../dd/da8/EMCAL_2base_2include_2EMCALBase_2Geometry_8h.html" target="_top" xlink:title="EMCALBase/Geometry.h">
<polygon fill="none" stroke="black" points="642.5,-190.5 642.5,-209.5 770.5,-209.5 770.5,-190.5 642.5,-190.5"/>
<text text-anchor="middle" x="706.5" y="-197.5" font-family="Helvetica,sans-Serif" font-size="10.00">EMCALBase/Geometry.h</text>
</a>
</g>
</g>
<!-- Node1&#45;&gt;Node2 -->
<g id="edge1" class="edge"><title>Node1&#45;&gt;Node2</title>
<path fill="none" stroke="midnightblue" d="M782.565,-246.446C764.682,-235.761 744.509,-223.709 729.434,-214.702"/>
<polygon fill="midnightblue" stroke="midnightblue" points="731.152,-211.651 720.772,-209.527 727.562,-217.661 731.152,-211.651"/>
</g>
<!-- Node26 -->
<g id="node26" class="node"><title>Node26</title>
<g id="a_node26"><a xlink:href="../../d2/d65/EMCAL_2calib_2include_2EMCALCalib_2BadChannelMap_8h.html" target="_top" xlink:title="EMCALCalib/BadChannelMap.h">
<polygon fill="none" stroke="black" points="236,-134.5 236,-153.5 393,-153.5 393,-134.5 236,-134.5"/>
<text text-anchor="middle" x="314.5" y="-141.5" font-family="Helvetica,sans-Serif" font-size="10.00">EMCALCalib/BadChannelMap.h</text>
</a>
</g>
</g>
<!-- Node1&#45;&gt;Node26 -->
<g id="edge30" class="edge"><title>Node1&#45;&gt;Node26</title>
<path fill="none" stroke="midnightblue" d="M760.939,-255.734C656.038,-229.715 449.276,-178.43 358.73,-155.971"/>
<polygon fill="midnightblue" stroke="midnightblue" points="359.34,-152.516 348.792,-153.506 357.655,-159.31 359.34,-152.516"/>
</g>
<!-- Node28 -->
<g id="node28" class="node"><title>Node28</title>
<polygon fill="none" stroke="#bfbfbf" points="789,-190.5 789,-209.5 860,-209.5 860,-190.5 789,-190.5"/>
<text text-anchor="middle" x="824.5" y="-197.5" font-family="Helvetica,sans-Serif" font-size="10.00">FairLogger.h</text>
</g>
<!-- Node1&#45;&gt;Node28 -->
<g id="edge34" class="edge"><title>Node1&#45;&gt;Node28</title>
<path fill="none" stroke="midnightblue" d="M824.5,-246.446C824.5,-237.73 824.5,-228.104 824.5,-219.964"/>
<polygon fill="midnightblue" stroke="midnightblue" points="828,-219.695 824.5,-209.695 821,-219.696 828,-219.695"/>
</g>
<!-- Node29 -->
<g id="node29" class="node"><title>Node29</title>
<polygon fill="none" stroke="#bfbfbf" points="878.5,-190.5 878.5,-209.5 922.5,-209.5 922.5,-190.5 878.5,-190.5"/>
<text text-anchor="middle" x="900.5" y="-197.5" font-family="Helvetica,sans-Serif" font-size="10.00">TH2.h</text>
</g>
<!-- Node1&#45;&gt;Node29 -->
<g id="edge35" class="edge"><title>Node1&#45;&gt;Node29</title>
<path fill="none" stroke="midnightblue" d="M851.509,-246.446C862.2,-236.528 874.162,-225.432 883.59,-216.687"/>
<polygon fill="midnightblue" stroke="midnightblue" points="886.175,-219.062 891.126,-209.695 881.414,-213.93 886.175,-219.062"/>
</g>
<!-- Node30 -->
<g id="node30" class="node"><title>Node30</title>
<polygon fill="none" stroke="#bfbfbf" points="940.5,-190.5 940.5,-209.5 994.5,-209.5 994.5,-190.5 940.5,-190.5"/>
<text text-anchor="middle" x="967.5" y="-197.5" font-family="Helvetica,sans-Serif" font-size="10.00">iostream</text>
</g>
<!-- Node1&#45;&gt;Node30 -->
<g id="edge36" class="edge"><title>Node1&#45;&gt;Node30</title>
<path fill="none" stroke="midnightblue" d="M875.319,-246.446C897.503,-235.509 922.593,-223.14 940.989,-214.07"/>
<polygon fill="midnightblue" stroke="midnightblue" points="942.783,-217.088 950.204,-209.527 939.687,-210.81 942.783,-217.088"/>
</g>
<!-- Node3 -->
<g id="node3" class="node"><title>Node3</title>
<polygon fill="none" stroke="#bfbfbf" points="0,-73 0,-92 59,-92 59,-73 0,-73"/>
<text text-anchor="middle" x="29.5" y="-80" font-family="Helvetica,sans-Serif" font-size="10.00">exception</text>
</g>
<!-- Node2&#45;&gt;Node3 -->
<g id="edge2" class="edge"><title>Node2&#45;&gt;Node3</title>
<path fill="none" stroke="midnightblue" d="M642.307,-198.955C484.84,-198.242 88.9891,-192.59 44.5,-154 29.9071,-141.342 27.4594,-118.313 27.8157,-102.025"/>
<polygon fill="midnightblue" stroke="midnightblue" points="31.3101,-102.221 28.3956,-92.0351 24.3219,-101.815 31.3101,-102.221"/>
</g>
<!-- Node4 -->
<g id="node4" class="node"><title>Node4</title>
<polygon fill="none" stroke="#bfbfbf" points="1461,-73 1461,-92 1502,-92 1502,-73 1461,-73"/>
<text text-anchor="middle" x="1481.5" y="-80" font-family="Helvetica,sans-Serif" font-size="10.00">string</text>
</g>
<!-- Node2&#45;&gt;Node4 -->
<g id="edge3" class="edge"><title>Node2&#45;&gt;Node4</title>
<path fill="none" stroke="midnightblue" d="M679.613,-190.497C647.36,-178.999 600.246,-157.24 622.5,-134 686.342,-67.3285 1363.14,-121.15 1452.5,-98 1454.22,-97.5536 1455.96,-96.9961 1457.69,-96.3619"/>
<polygon fill="midnightblue" stroke="midnightblue" points="1459.5,-99.388 1467.22,-92.1289 1456.66,-92.9911 1459.5,-99.388"/>
</g>
<!-- Node5 -->
<g id="node5" class="node"><title>Node5</title>
<polygon fill="none" stroke="#bfbfbf" points="799.5,-134.5 799.5,-153.5 837.5,-153.5 837.5,-134.5 799.5,-134.5"/>
<text text-anchor="middle" x="818.5" y="-141.5" font-family="Helvetica,sans-Serif" font-size="10.00">tuple</text>
</g>
<!-- Node2&#45;&gt;Node5 -->
<g id="edge4" class="edge"><title>Node2&#45;&gt;Node5</title>
<path fill="none" stroke="midnightblue" d="M724.495,-190.324C742.538,-181.625 770.547,-168.12 791.303,-158.113"/>
<polygon fill="midnightblue" stroke="midnightblue" points="793.062,-161.15 800.55,-153.655 790.022,-154.845 793.062,-161.15"/>
</g>
<!-- Node6 -->
<g id="node6" class="node"><title>Node6</title>
<polygon fill="none" stroke="#bfbfbf" points="855.5,-134.5 855.5,-153.5 899.5,-153.5 899.5,-134.5 855.5,-134.5"/>
<text text-anchor="middle" x="877.5" y="-141.5" font-family="Helvetica,sans-Serif" font-size="10.00">vector</text>
</g>
<!-- Node2&#45;&gt;Node6 -->
<g id="edge5" class="edge"><title>Node2&#45;&gt;Node6</title>
<path fill="none" stroke="midnightblue" d="M733.595,-190.444C764.018,-180.837 813.336,-165.262 845.596,-155.075"/>
<polygon fill="midnightblue" stroke="midnightblue" points="846.943,-158.32 855.425,-151.971 844.835,-151.645 846.943,-158.32"/>
</g>
<!-- Node7 -->
<g id="node7" class="node"><title>Node7</title>
<polygon fill="none" stroke="#bfbfbf" points="917.5,-134.5 917.5,-153.5 997.5,-153.5 997.5,-134.5 917.5,-134.5"/>
<text text-anchor="middle" x="957.5" y="-141.5" font-family="Helvetica,sans-Serif" font-size="10.00">RStringView.h</text>
</g>
<!-- Node2&#45;&gt;Node7 -->
<g id="edge6" class="edge"><title>Node2&#45;&gt;Node7</title>
<path fill="none" stroke="midnightblue" d="M746.272,-190.444C790.058,-181.023 860.514,-165.866 907.88,-155.675"/>
<polygon fill="midnightblue" stroke="midnightblue" points="908.874,-159.041 917.914,-153.516 907.402,-152.198 908.874,-159.041"/>
</g>
<!-- Node8 -->
<g id="node8" class="node"><title>Node8</title>
<polygon fill="none" stroke="#bfbfbf" points="340.5,-73 340.5,-92 416.5,-92 416.5,-73 340.5,-73"/>
<text text-anchor="middle" x="378.5" y="-80" font-family="Helvetica,sans-Serif" font-size="10.00">TGeoMatrix.h</text>
</g>
<!-- Node2&#45;&gt;Node8 -->
<g id="edge7" class="edge"><title>Node2&#45;&gt;Node8</title>
<path fill="none" stroke="midnightblue" d="M642.356,-193.116C574.997,-186.069 474.251,-172.814 440.5,-154 417.888,-141.395 399.469,-117.294 388.743,-100.813"/>
<polygon fill="midnightblue" stroke="midnightblue" points="391.599,-98.777 383.344,-92.135 385.655,-102.475 391.599,-98.777"/>
</g>
<!-- Node9 -->
<g id="node9" class="node"><title>Node9</title>
<polygon fill="none" stroke="#bfbfbf" points="1015.5,-134.5 1015.5,-153.5 1077.5,-153.5 1077.5,-134.5 1015.5,-134.5"/>
<text text-anchor="middle" x="1046.5" y="-141.5" font-family="Helvetica,sans-Serif" font-size="10.00">TNamed.h</text>
</g>
<!-- Node2&#45;&gt;Node9 -->
<g id="edge8" class="edge"><title>Node2&#45;&gt;Node9</title>
<path fill="none" stroke="midnightblue" d="M770.515,-190.765C829.148,-182.912 918.549,-170.16 1005.11,-154.155"/>
<polygon fill="midnightblue" stroke="midnightblue" points="1005.91,-157.565 1015.1,-152.29 1004.63,-150.684 1005.91,-157.565"/>
</g>
<!-- Node10 -->
<g id="node10" class="node"><title>Node10</title>
<polygon fill="none" stroke="#bfbfbf" points="1095.5,-134.5 1095.5,-153.5 1159.5,-153.5 1159.5,-134.5 1095.5,-134.5"/>
<text text-anchor="middle" x="1127.5" y="-141.5" font-family="Helvetica,sans-Serif" font-size="10.00">TParticle.h</text>
</g>
<!-- Node2&#45;&gt;Node10 -->
<g id="edge9" class="edge"><title>Node2&#45;&gt;Node10</title>
<path fill="none" stroke="midnightblue" d="M770.673,-191.18C773.997,-190.779 777.287,-190.384 780.5,-190 913.282,-174.115 949.762,-176.579 1085.39,-154.043"/>
<polygon fill="midnightblue" stroke="midnightblue" points="1086.05,-157.482 1095.33,-152.377 1084.89,-150.579 1086.05,-157.482"/>
</g>
<!-- Node11 -->
<g id="node11" class="node"><title>Node11</title>
<polygon fill="none" stroke="#bfbfbf" points="1178,-134.5 1178,-153.5 1243,-153.5 1243,-134.5 1178,-134.5"/>
<text text-anchor="middle" x="1210.5" y="-141.5" font-family="Helvetica,sans-Serif" font-size="10.00">TVector3.h</text>
</g>
<!-- Node2&#45;&gt;Node11 -->
<g id="edge10" class="edge"><title>Node2&#45;&gt;Node11</title>
<path fill="none" stroke="midnightblue" d="M770.662,-191.083C773.989,-190.708 777.283,-190.345 780.5,-190 949.504,-171.886 995.607,-179.878 1167.66,-153.953"/>
<polygon fill="midnightblue" stroke="midnightblue" points="1168.19,-157.412 1177.55,-152.446 1167.14,-150.492 1168.19,-157.412"/>
</g>
<!-- Node12 -->
<g id="node12" class="node"><title>Node12</title>
<g id="a_node12"><a xlink:href="../../dd/dda/DataFormats_2Detectors_2EMCAL_2include_2DataFormatsEMCAL_2Constants_8h.html" target="_top" xlink:title="DataFormatsEMCAL/Constants.h">
<polygon fill="none" stroke="black" points="53.5,-134.5 53.5,-153.5 217.5,-153.5 217.5,-134.5 53.5,-134.5"/>
<text text-anchor="middle" x="135.5" y="-141.5" font-family="Helvetica,sans-Serif" font-size="10.00">DataFormatsEMCAL/Constants.h</text>
</a>
</g>
</g>
<!-- Node2&#45;&gt;Node12 -->
<g id="edge11" class="edge"><title>Node2&#45;&gt;Node12</title>
<path fill="none" stroke="midnightblue" d="M642.437,-193.099C552.375,-184.779 382.902,-169.04 228.018,-154.142"/>
<polygon fill="midnightblue" stroke="midnightblue" points="228.127,-150.637 217.838,-153.162 227.457,-157.605 228.127,-150.637"/>
</g>
<!-- Node16 -->
<g id="node16" class="node"><title>Node16</title>
<g id="a_node16"><a xlink:href="../../d5/d5e/GeometryBase_8h.html" target="_top" xlink:title="EMCALBase/GeometryBase.h">
<polygon fill="none" stroke="black" points="631.5,-134.5 631.5,-153.5 781.5,-153.5 781.5,-134.5 631.5,-134.5"/>
<text text-anchor="middle" x="706.5" y="-141.5" font-family="Helvetica,sans-Serif" font-size="10.00">EMCALBase/GeometryBase.h</text>
</a>
</g>
</g>
<!-- Node2&#45;&gt;Node16 -->
<g id="edge16" class="edge"><title>Node2&#45;&gt;Node16</title>
<path fill="none" stroke="midnightblue" d="M706.5,-190.083C706.5,-183.006 706.5,-172.861 706.5,-163.986"/>
<polygon fill="midnightblue" stroke="midnightblue" points="710,-163.751 706.5,-153.751 703,-163.751 710,-163.751"/>
</g>
<!-- Node17 -->
<g id="node17" class="node"><title>Node17</title>
<g id="a_node17"><a xlink:href="../../dd/d76/Cartesian3D_8h.html" target="_top" xlink:title="MathUtils/Cartesian3D.h">
<polygon fill="none" stroke="black" points="450,-134.5 450,-153.5 575,-153.5 575,-134.5 450,-134.5"/>
<text text-anchor="middle" x="512.5" y="-141.5" font-family="Helvetica,sans-Serif" font-size="10.00">MathUtils/Cartesian3D.h</text>
</a>
</g>
</g>
<!-- Node2&#45;&gt;Node17 -->
<g id="edge18" class="edge"><title>Node2&#45;&gt;Node17</title>
<path fill="none" stroke="midnightblue" d="M675.76,-190.444C642.556,-181.201 589.509,-166.436 552.943,-156.257"/>
<polygon fill="midnightblue" stroke="midnightblue" points="553.668,-152.826 543.096,-153.516 551.791,-159.57 553.668,-152.826"/>
</g>
<!-- Node12&#45;&gt;Node3 -->
<g id="edge14" class="edge"><title>Node12&#45;&gt;Node3</title>
<path fill="none" stroke="midnightblue" d="M120.313,-134.475C102.838,-124.666 73.9213,-108.435 53.4168,-96.925"/>
<polygon fill="midnightblue" stroke="midnightblue" points="55.0924,-93.8519 44.659,-92.0091 51.666,-99.956 55.0924,-93.8519"/>
</g>
<!-- Node13 -->
<g id="node13" class="node"><title>Node13</title>
<polygon fill="none" stroke="#bfbfbf" points="143.5,-73 143.5,-92 199.5,-92 199.5,-73 143.5,-73"/>
<text text-anchor="middle" x="171.5" y="-80" font-family="Helvetica,sans-Serif" font-size="10.00">Rtypes.h</text>
</g>
<!-- Node12&#45;&gt;Node13 -->
<g id="edge12" class="edge"><title>Node12&#45;&gt;Node13</title>
<path fill="none" stroke="midnightblue" d="M140.658,-134.475C145.951,-125.727 154.335,-111.869 161.027,-100.809"/>
<polygon fill="midnightblue" stroke="midnightblue" points="164.17,-102.377 166.352,-92.0091 158.18,-98.7531 164.17,-102.377"/>
</g>
<!-- Node14 -->
<g id="node14" class="node"><title>Node14</title>
<polygon fill="none" stroke="#bfbfbf" points="218,-73 218,-92 263,-92 263,-73 218,-73"/>
<text text-anchor="middle" x="240.5" y="-80" font-family="Helvetica,sans-Serif" font-size="10.00">iosfwd</text>
</g>
<!-- Node12&#45;&gt;Node14 -->
<g id="edge13" class="edge"><title>Node12&#45;&gt;Node14</title>
<path fill="none" stroke="midnightblue" d="M150.544,-134.475C167.775,-124.711 196.24,-108.581 216.534,-97.0808"/>
<polygon fill="midnightblue" stroke="midnightblue" points="218.509,-99.9843 225.484,-92.0091 215.058,-93.8942 218.509,-99.9843"/>
</g>
<!-- Node15 -->
<g id="node15" class="node"><title>Node15</title>
<polygon fill="none" stroke="#bfbfbf" points="79.5,-73 79.5,-92 125.5,-92 125.5,-73 79.5,-73"/>
<text text-anchor="middle" x="102.5" y="-80" font-family="Helvetica,sans-Serif" font-size="10.00">cstdint</text>
</g>
<!-- Node12&#45;&gt;Node15 -->
<g id="edge15" class="edge"><title>Node12&#45;&gt;Node15</title>
<path fill="none" stroke="midnightblue" d="M130.772,-134.475C125.92,-125.727 118.234,-111.869 112.1,-100.809"/>
<polygon fill="midnightblue" stroke="midnightblue" points="115.13,-99.0566 107.219,-92.0091 109.009,-102.452 115.13,-99.0566"/>
</g>
<!-- Node16&#45;&gt;Node4 -->
<g id="edge17" class="edge"><title>Node16&#45;&gt;Node4</title>
<path fill="none" stroke="midnightblue" d="M781.587,-134.758C784.596,-134.49 787.576,-134.236 790.5,-134 937.351,-122.148 1310.08,-135.731 1452.5,-98 1454.22,-97.5441 1455.96,-96.9795 1457.68,-96.3402"/>
<polygon fill="midnightblue" stroke="midnightblue" points="1459.5,-99.3633 1467.21,-92.095 1456.65,-92.9697 1459.5,-99.3633"/>
</g>
<!-- Node17&#45;&gt;Node8 -->
<g id="edge25" class="edge"><title>Node17&#45;&gt;Node8</title>
<path fill="none" stroke="midnightblue" d="M493.301,-134.475C470.713,-124.445 433.001,-107.7 406.999,-96.1546"/>
<polygon fill="midnightblue" stroke="midnightblue" points="408.223,-92.8685 397.663,-92.0091 405.382,-99.2662 408.223,-92.8685"/>
</g>
<!-- Node17&#45;&gt;Node13 -->
<g id="edge24" class="edge"><title>Node17&#45;&gt;Node13</title>
<path fill="none" stroke="midnightblue" d="M449.947,-137.915C387.892,-131.9 290.475,-119.827 208.5,-98 205.842,-97.2921 203.114,-96.453 200.402,-95.5407"/>
<polygon fill="midnightblue" stroke="midnightblue" points="201.403,-92.1798 190.81,-92.0195 198.991,-98.7511 201.403,-92.1798"/>
</g>
<!-- Node17&#45;&gt;Node14 -->
<g id="edge26" class="edge"><title>Node17&#45;&gt;Node14</title>
<path fill="none" stroke="midnightblue" d="M449.766,-135.715C400.488,-128.94 330.559,-116.987 271.5,-98 269.828,-97.4624 268.128,-96.8556 266.43,-96.2028"/>
<polygon fill="midnightblue" stroke="midnightblue" points="267.489,-92.8486 256.92,-92.1214 264.729,-99.2813 267.489,-92.8486"/>
</g>
<!-- Node18 -->
<g id="node18" class="node"><title>Node18</title>
<polygon fill="none" stroke="#bfbfbf" points="435,-67.5 435,-97.5 586,-97.5 586,-67.5 435,-67.5"/>
<text text-anchor="start" x="443" y="-85.5" font-family="Helvetica,sans-Serif" font-size="10.00">Math/GenVector/Displacement</text>
<text text-anchor="middle" x="510.5" y="-74.5" font-family="Helvetica,sans-Serif" font-size="10.00">Vector3D.h</text>
</g>
<!-- Node17&#45;&gt;Node18 -->
<g id="edge19" class="edge"><title>Node17&#45;&gt;Node18</title>
<path fill="none" stroke="midnightblue" d="M512.213,-134.475C511.978,-127.471 511.633,-117.192 511.313,-107.696"/>
<polygon fill="midnightblue" stroke="midnightblue" points="514.805,-107.4 510.971,-97.523 507.809,-107.635 514.805,-107.4"/>
</g>
<!-- Node19 -->
<g id="node19" class="node"><title>Node19</title>
<polygon fill="none" stroke="#bfbfbf" points="604.5,-73 604.5,-92 780.5,-92 780.5,-73 604.5,-73"/>
<text text-anchor="middle" x="692.5" y="-80" font-family="Helvetica,sans-Serif" font-size="10.00">Math/GenVector/PositionVector3D.h</text>
</g>
<!-- Node17&#45;&gt;Node19 -->
<g id="edge20" class="edge"><title>Node17&#45;&gt;Node19</title>
<path fill="none" stroke="midnightblue" d="M538.29,-134.475C569.433,-124.18 621.981,-106.81 656.953,-95.2502"/>
<polygon fill="midnightblue" stroke="midnightblue" points="658.362,-98.4708 666.758,-92.0091 656.165,-91.8245 658.362,-98.4708"/>
</g>
<!-- Node20 -->
<g id="node20" class="node"><title>Node20</title>
<polygon fill="none" stroke="#bfbfbf" points="798,-73 798,-92 947,-92 947,-73 798,-73"/>
<text text-anchor="middle" x="872.5" y="-80" font-family="Helvetica,sans-Serif" font-size="10.00">Math/GenVector/Rotation3D.h</text>
</g>
<!-- Node17&#45;&gt;Node20 -->
<g id="edge21" class="edge"><title>Node17&#45;&gt;Node20</title>
<path fill="none" stroke="midnightblue" d="M566.151,-134.478C621.976,-125.565 711.911,-111.079 789.5,-98 797.499,-96.6516 805.927,-95.2071 814.223,-93.7712"/>
<polygon fill="midnightblue" stroke="midnightblue" points="814.985,-97.1912 824.239,-92.0312 813.787,-90.2945 814.985,-97.1912"/>
</g>
<!-- Node21 -->
<g id="node21" class="node"><title>Node21</title>
<polygon fill="none" stroke="#bfbfbf" points="965.5,-73 965.5,-92 1121.5,-92 1121.5,-73 965.5,-73"/>
<text text-anchor="middle" x="1043.5" y="-80" font-family="Helvetica,sans-Serif" font-size="10.00">Math/GenVector/Transform3D.h</text>
</g>
<!-- Node17&#45;&gt;Node21 -->
<g id="edge22" class="edge"><title>Node17&#45;&gt;Node21</title>
<path fill="none" stroke="midnightblue" d="M575.104,-135.584C579.974,-135.037 584.816,-134.503 589.5,-134 752.455,-116.486 794.02,-119.484 956.5,-98 965.964,-96.7486 975.978,-95.2468 985.713,-93.6907"/>
<polygon fill="midnightblue" stroke="midnightblue" points="986.417,-97.1223 995.722,-92.0576 985.289,-90.2136 986.417,-97.1223"/>
</g>
<!-- Node22 -->
<g id="node22" class="node"><title>Node22</title>
<polygon fill="none" stroke="#bfbfbf" points="1139.5,-73 1139.5,-92 1299.5,-92 1299.5,-73 1139.5,-73"/>
<text text-anchor="middle" x="1219.5" y="-80" font-family="Helvetica,sans-Serif" font-size="10.00">Math/GenVector/Translation3D.h</text>
</g>
<!-- Node17&#45;&gt;Node22 -->
<g id="edge23" class="edge"><title>Node17&#45;&gt;Node22</title>
<path fill="none" stroke="midnightblue" d="M575.088,-135.42C579.961,-134.911 584.809,-134.43 589.5,-134 829.47,-112.005 891.087,-125.406 1130.5,-98 1140.87,-96.8127 1151.88,-95.26 1162.49,-93.6129"/>
<polygon fill="midnightblue" stroke="midnightblue" points="1163.18,-97.0468 1172.5,-92.0136 1162.08,-90.1344 1163.18,-97.0468"/>
</g>
<!-- Node23 -->
<g id="node23" class="node"><title>Node23</title>
<g id="a_node23"><a xlink:href="../../d2/dd0/Cartesian2D_8h.html" target="_top" xlink:title="MathUtils/Cartesian2D.h">
<polygon fill="none" stroke="black" points="1318,-73 1318,-92 1443,-92 1443,-73 1318,-73"/>
<text text-anchor="middle" x="1380.5" y="-80" font-family="Helvetica,sans-Serif" font-size="10.00">MathUtils/Cartesian2D.h</text>
</a>
</g>
</g>
<!-- Node17&#45;&gt;Node23 -->
<g id="edge27" class="edge"><title>Node17&#45;&gt;Node23</title>
<path fill="none" stroke="midnightblue" d="M575.08,-135.334C579.956,-134.844 584.806,-134.391 589.5,-134 908.349,-107.413 991.016,-137.693 1308.5,-98 1316.69,-96.9766 1325.33,-95.5444 1333.68,-93.9754"/>
<polygon fill="midnightblue" stroke="midnightblue" points="1334.54,-97.3748 1343.67,-92.012 1333.19,-90.5062 1334.54,-97.3748"/>
</g>
<!-- Node24 -->
<g id="node24" class="node"><title>Node24</title>
<polygon fill="none" stroke="#bfbfbf" points="1214,-0.5 1214,-30.5 1365,-30.5 1365,-0.5 1214,-0.5"/>
<text text-anchor="start" x="1222" y="-18.5" font-family="Helvetica,sans-Serif" font-size="10.00">Math/GenVector/Displacement</text>
<text text-anchor="middle" x="1289.5" y="-7.5" font-family="Helvetica,sans-Serif" font-size="10.00">Vector2D.h</text>
</g>
<!-- Node23&#45;&gt;Node24 -->
<g id="edge28" class="edge"><title>Node23&#45;&gt;Node24</title>
<path fill="none" stroke="midnightblue" d="M1368.23,-72.7338C1355.34,-63.527 1334.63,-48.7328 1317.68,-36.6293"/>
<polygon fill="midnightblue" stroke="midnightblue" points="1319.4,-33.5534 1309.22,-30.589 1315.33,-39.2495 1319.4,-33.5534"/>
</g>
<!-- Node25 -->
<g id="node25" class="node"><title>Node25</title>
<polygon fill="none" stroke="#bfbfbf" points="1383.5,-6 1383.5,-25 1559.5,-25 1559.5,-6 1383.5,-6"/>
<text text-anchor="middle" x="1471.5" y="-13" font-family="Helvetica,sans-Serif" font-size="10.00">Math/GenVector/PositionVector2D.h</text>
</g>
<!-- Node23&#45;&gt;Node25 -->
<g id="edge29" class="edge"><title>Node23&#45;&gt;Node25</title>
<path fill="none" stroke="midnightblue" d="M1392.77,-72.7338C1407.65,-62.1106 1432.93,-44.0485 1450.83,-31.2642"/>
<polygon fill="midnightblue" stroke="midnightblue" points="1453.32,-33.7878 1459.42,-25.1273 1449.25,-28.0917 1453.32,-33.7878"/>
</g>
<!-- Node26&#45;&gt;Node13 -->
<g id="edge33" class="edge"><title>Node26&#45;&gt;Node13</title>
<path fill="none" stroke="midnightblue" d="M294.012,-134.475C269.694,-124.357 228.951,-107.405 201.183,-95.8507"/>
<polygon fill="midnightblue" stroke="midnightblue" points="202.528,-92.6193 191.95,-92.0091 199.839,-99.0822 202.528,-92.6193"/>
</g>
<!-- Node26&#45;&gt;Node14 -->
<g id="edge31" class="edge"><title>Node26&#45;&gt;Node14</title>
<path fill="none" stroke="midnightblue" d="M303.898,-134.475C292.248,-125.108 273.314,-109.884 259.165,-98.5081"/>
<polygon fill="midnightblue" stroke="midnightblue" points="261.069,-95.5477 251.083,-92.0091 256.683,-101.003 261.069,-95.5477"/>
</g>
<!-- Node27 -->
<g id="node27" class="node"><title>Node27</title>
<polygon fill="none" stroke="#bfbfbf" points="281,-73 281,-92 322,-92 322,-73 281,-73"/>
<text text-anchor="middle" x="301.5" y="-80" font-family="Helvetica,sans-Serif" font-size="10.00">bitset</text>
</g>
<!-- Node26&#45;&gt;Node27 -->
<g id="edge32" class="edge"><title>Node26&#45;&gt;Node27</title>
<path fill="none" stroke="midnightblue" d="M312.637,-134.475C310.784,-125.992 307.881,-112.704 305.503,-101.822"/>
<polygon fill="midnightblue" stroke="midnightblue" points="308.913,-101.032 303.359,-92.0091 302.074,-102.526 308.913,-101.032"/>
</g>
</g>
</svg>
        <g id="navigator" transform="translate(0 0)" fill="#404254">
                <rect fill="#f2f5e9" fill-opacity="0.5" stroke="#606060" stroke-width=".5" x="0" y="0" width="60" height="60"/>
                <use id="zoomplus" xlink:href="#zoomPlus" x="17" y="9" onmousedown="handleZoom(evt,'in')"/>
                <use id="zoomminus" xlink:href="#zoomMin" x="42" y="9" onmousedown="handleZoom(evt,'out')"/>
                <use id="reset" xlink:href="#resetDef" x="30" y="36" onmousedown="handleReset()"/>
                <g id="arrowUp" xlink:href="#dirArrow" transform="translate(30 24)" onmousedown="handlePan(0,-1)">
                  <use xlink:href="#rim" fill="#404040">
                        <set attributeName="fill" to="#808080" begin="arrowUp.mouseover" end="arrowUp.mouseout"/>
                  </use>
                  <path fill="none" stroke="white" stroke-width="1.5" d="M0,-3.0v7 M-2.5,-0.5L0,-3.0L2.5,-0.5"/>
                </g>
                <g id="arrowRight" xlink:href="#dirArrow" transform="rotate(90) translate(36 -43)" onmousedown="handlePan(1,0)">
                  <use xlink:href="#rim" fill="#404040">
                        <set attributeName="fill" to="#808080" begin="arrowRight.mouseover" end="arrowRight.mouseout"/>
                  </use>
                  <path fill="none" stroke="white" stroke-width="1.5" d="M0,-3.0v7 M-2.5,-0.5L0,-3.0L2.5,-0.5"/>
                </g>
                <g id="arrowDown" xlink:href="#dirArrow" transform="rotate(180) translate(-30 -48)" onmousedown="handlePan(0,1)">
                  <use xlink:href="#rim" fill="#404040">
                        <set attributeName="fill" to="#808080" begin="arrowDown.mouseover" end="arrowDown.mouseout"/>
                  </use>
                  <path fill="none" stroke="white" stroke-width="1.5" d="M0,-3.0v7 M-2.5,-0.5L0,-3.0L2.5,-0.5"/>
                </g>
                <g id="arrowLeft" xlink:href="#dirArrow" transform="rotate(270) translate(-36 17)" onmousedown="handlePan(-1,0)">
                  <use xlink:href="#rim" fill="#404040">
                        <set attributeName="fill" to="#808080" begin="arrowLeft.mouseover" end="arrowLeft.mouseout"/>
                  </use>
                  <path fill="none" stroke="white" stroke-width="1.5" d="M0,-3.0v7 M-2.5,-0.5L0,-3.0L2.5,-0.5"/>
                </g>
        </g>
        <svg viewBox="0 0 15 15" width="100%" height="30px" preserveAspectRatio="xMaxYMin meet">
         <g id="arrow_out" transform="scale(0.3 0.3)">
          <a xlink:href="EMCAL_2calib_2src_2BadChannelMap_8cxx__incl_org.svg" target="_base">
           <rect id="button" ry="5" rx="5" y="6" x="6" height="38" width="38"
                fill="#f2f5e9" fill-opacity="0.5" stroke="#606060" stroke-width="1.0"/>
           <path id="arrow"
             d="M 11.500037,31.436501 C 11.940474,20.09759 22.043105,11.32322 32.158766,21.979434 L 37.068811,17.246167 C 37.068811,17.246167 37.088388,32 37.088388,32 L 22.160133,31.978069 C 22.160133,31.978069 26.997745,27.140456 26.997745,27.140456 C 18.528582,18.264221 13.291696,25.230495 11.500037,31.436501 z"
             style="fill:#404040;"/>
          </a>
         </g>
        </svg>
</svg>
