<?xml version="1.0" encoding="UTF-8" standalone="no"?>
<!DOCTYPE svg PUBLIC "-//W3C//DTD SVG 1.1//EN"
 "http://www.w3.org/Graphics/SVG/1.1/DTD/svg11.dtd">
<!-- Generated by graphviz version 2.38.0 (20140413.2041)
 -->
<!-- Title: o2::trd::TRDGeometryBase Pages: 1 -->
<svg width="660pt" height="2344pt"
 viewBox="0.00 0.00 659.50 2344.00" xmlns="http://www.w3.org/2000/svg" xmlns:xlink="http://www.w3.org/1999/xlink">
<g id="graph0" class="graph" transform="scale(1 1) rotate(0) translate(4 2340)">
<title>o2::trd::TRDGeometryBase</title>
<!-- Node1 -->
<g id="node1" class="node"><title>Node1</title>
<polygon fill="#bfbfbf" stroke="black" points="406,-0.5 406,-1245.5 543,-1245.5 543,-0.5 406,-0.5"/>
<text text-anchor="middle" x="474.5" y="-1233.5" font-family="Helvetica,sans-Serif" font-size="10.00">o2::trd::TRDGeometryBase</text>
<polyline fill="none" stroke="black" points="406,-1226.5 543,-1226.5 "/>
<text text-anchor="start" x="414" y="-1214.5" font-family="Helvetica,sans-Serif" font-size="10.00">+ MAXMATRICES</text>
<text text-anchor="start" x="414" y="-1203.5" font-family="Helvetica,sans-Serif" font-size="10.00"># TLENGTH</text>
<text text-anchor="start" x="414" y="-1192.5" font-family="Helvetica,sans-Serif" font-size="10.00"># SHEIGHT</text>
<text text-anchor="start" x="414" y="-1181.5" font-family="Helvetica,sans-Serif" font-size="10.00"># SWIDTH1</text>
<text text-anchor="start" x="414" y="-1170.5" font-family="Helvetica,sans-Serif" font-size="10.00"># SWIDTH2</text>
<text text-anchor="start" x="414" y="-1159.5" font-family="Helvetica,sans-Serif" font-size="10.00"># SLENGTH</text>
<text text-anchor="start" x="414" y="-1148.5" font-family="Helvetica,sans-Serif" font-size="10.00"># FLENGTH</text>
<text text-anchor="start" x="414" y="-1137.5" font-family="Helvetica,sans-Serif" font-size="10.00"># SMPLTT</text>
<text text-anchor="start" x="414" y="-1126.5" font-family="Helvetica,sans-Serif" font-size="10.00"># VSPACE</text>
<text text-anchor="start" x="414" y="-1115.5" font-family="Helvetica,sans-Serif" font-size="10.00"># CRAH</text>
<text text-anchor="start" x="414" y="-1104.5" font-family="Helvetica,sans-Serif" font-size="10.00"># CDRH</text>
<text text-anchor="start" x="414" y="-1093.5" font-family="Helvetica,sans-Serif" font-size="10.00"># CAMH</text>
<text text-anchor="start" x="414" y="-1082.5" font-family="Helvetica,sans-Serif" font-size="10.00"># CROH</text>
<text text-anchor="start" x="414" y="-1071.5" font-family="Helvetica,sans-Serif" font-size="10.00"># CROW</text>
<text text-anchor="start" x="414" y="-1060.5" font-family="Helvetica,sans-Serif" font-size="10.00"># CH</text>
<text text-anchor="start" x="414" y="-1049.5" font-family="Helvetica,sans-Serif" font-size="10.00"># CHSV</text>
<text text-anchor="start" x="414" y="-1038.5" font-family="Helvetica,sans-Serif" font-size="10.00"># ANODEPOS</text>
<text text-anchor="start" x="414" y="-1027.5" font-family="Helvetica,sans-Serif" font-size="10.00"># CALT</text>
<text text-anchor="start" x="414" y="-1016.5" font-family="Helvetica,sans-Serif" font-size="10.00"># CCLST</text>
<text text-anchor="start" x="414" y="-1005.5" font-family="Helvetica,sans-Serif" font-size="10.00"># CCLFT</text>
<text text-anchor="start" x="414" y="-994.5" font-family="Helvetica,sans-Serif" font-size="10.00"># CGLT</text>
<text text-anchor="start" x="414" y="-983.5" font-family="Helvetica,sans-Serif" font-size="10.00"># CCUTA</text>
<text text-anchor="start" x="414" y="-972.5" font-family="Helvetica,sans-Serif" font-size="10.00"># CCUTB</text>
<text text-anchor="start" x="414" y="-961.5" font-family="Helvetica,sans-Serif" font-size="10.00"># CAUT</text>
<text text-anchor="start" x="414" y="-950.5" font-family="Helvetica,sans-Serif" font-size="10.00"># CALW</text>
<text text-anchor="start" x="414" y="-939.5" font-family="Helvetica,sans-Serif" font-size="10.00"># CALH</text>
<text text-anchor="start" x="414" y="-928.5" font-family="Helvetica,sans-Serif" font-size="10.00"># CALWMOD</text>
<text text-anchor="start" x="414" y="-917.5" font-family="Helvetica,sans-Serif" font-size="10.00"># CALHMOD</text>
<text text-anchor="start" x="414" y="-906.5" font-family="Helvetica,sans-Serif" font-size="10.00"># CWSW</text>
<text text-anchor="start" x="414" y="-895.5" font-family="Helvetica,sans-Serif" font-size="10.00"># CWSH</text>
<text text-anchor="start" x="414" y="-884.5" font-family="Helvetica,sans-Serif" font-size="10.00"># DRTHICK</text>
<text text-anchor="start" x="414" y="-873.5" font-family="Helvetica,sans-Serif" font-size="10.00"># AMTHICK</text>
<text text-anchor="start" x="414" y="-862.5" font-family="Helvetica,sans-Serif" font-size="10.00"># XETHICK</text>
<text text-anchor="start" x="414" y="-851.5" font-family="Helvetica,sans-Serif" font-size="10.00"># WRTHICK</text>
<text text-anchor="start" x="414" y="-840.5" font-family="Helvetica,sans-Serif" font-size="10.00"># RMYTHICK</text>
<text text-anchor="start" x="414" y="-829.5" font-family="Helvetica,sans-Serif" font-size="10.00"># RCBTHICK</text>
<text text-anchor="start" x="414" y="-818.5" font-family="Helvetica,sans-Serif" font-size="10.00"># RFBTHICK</text>
<text text-anchor="start" x="414" y="-807.5" font-family="Helvetica,sans-Serif" font-size="10.00"># PPPTHICK</text>
<text text-anchor="start" x="414" y="-796.5" font-family="Helvetica,sans-Serif" font-size="10.00"># PCBTHICK</text>
<text text-anchor="start" x="414" y="-785.5" font-family="Helvetica,sans-Serif" font-size="10.00"># PPCTHICK</text>
<text text-anchor="start" x="414" y="-774.5" font-family="Helvetica,sans-Serif" font-size="10.00"># PRBTHICK</text>
<text text-anchor="start" x="414" y="-763.5" font-family="Helvetica,sans-Serif" font-size="10.00"># PELTHICK</text>
<text text-anchor="start" x="414" y="-752.5" font-family="Helvetica,sans-Serif" font-size="10.00"># PHCTHICK</text>
<text text-anchor="start" x="414" y="-741.5" font-family="Helvetica,sans-Serif" font-size="10.00"># DRZPOS</text>
<text text-anchor="start" x="414" y="-730.5" font-family="Helvetica,sans-Serif" font-size="10.00"># AMZPOS</text>
<text text-anchor="start" x="414" y="-719.5" font-family="Helvetica,sans-Serif" font-size="10.00"># WRZPOSA</text>
<text text-anchor="start" x="414" y="-708.5" font-family="Helvetica,sans-Serif" font-size="10.00"># WRZPOSB</text>
<text text-anchor="start" x="414" y="-697.5" font-family="Helvetica,sans-Serif" font-size="10.00"># CALZPOS</text>
<text text-anchor="start" x="414" y="-686.5" font-family="Helvetica,sans-Serif" font-size="10.00"># MCMROW</text>
<text text-anchor="start" x="414" y="-675.5" font-family="Helvetica,sans-Serif" font-size="10.00"># ROBMAXC0</text>
<text text-anchor="start" x="414" y="-664.5" font-family="Helvetica,sans-Serif" font-size="10.00"># ROBMAXC1</text>
<text text-anchor="start" x="414" y="-653.5" font-family="Helvetica,sans-Serif" font-size="10.00"># ADCMAX</text>
<text text-anchor="start" x="414" y="-642.5" font-family="Helvetica,sans-Serif" font-size="10.00"># TBMAX</text>
<text text-anchor="start" x="414" y="-631.5" font-family="Helvetica,sans-Serif" font-size="10.00"># PADMAX</text>
<text text-anchor="start" x="414" y="-620.5" font-family="Helvetica,sans-Serif" font-size="10.00"># COLMAX</text>
<text text-anchor="start" x="414" y="-609.5" font-family="Helvetica,sans-Serif" font-size="10.00"># ROWMAXC0</text>
<text text-anchor="start" x="414" y="-598.5" font-family="Helvetica,sans-Serif" font-size="10.00"># ROWMAXC1</text>
<text text-anchor="start" x="414" y="-587.5" font-family="Helvetica,sans-Serif" font-size="10.00"># TIME0BASE</text>
<text text-anchor="start" x="414" y="-576.5" font-family="Helvetica,sans-Serif" font-size="10.00"># TIME0</text>
<text text-anchor="start" x="414" y="-565.5" font-family="Helvetica,sans-Serif" font-size="10.00"># XTRDBEG</text>
<text text-anchor="start" x="414" y="-554.5" font-family="Helvetica,sans-Serif" font-size="10.00"># XTRDEND</text>
<text text-anchor="start" x="414" y="-543.5" font-family="Helvetica,sans-Serif" font-size="10.00"># CWIDTH</text>
<text text-anchor="start" x="414" y="-532.5" font-family="Helvetica,sans-Serif" font-size="10.00"># CLENGTH</text>
<polyline fill="none" stroke="black" points="406,-525.5 543,-525.5 "/>
<text text-anchor="start" x="414" y="-513.5" font-family="Helvetica,sans-Serif" font-size="10.00">+ ~TRDGeometryBase()</text>
<text text-anchor="start" x="414" y="-502.5" font-family="Helvetica,sans-Serif" font-size="10.00">+ GPUd()</text>
<text text-anchor="start" x="414" y="-491.5" font-family="Helvetica,sans-Serif" font-size="10.00">+ GPUd()</text>
<text text-anchor="start" x="414" y="-480.5" font-family="Helvetica,sans-Serif" font-size="10.00">+ GPUd()</text>
<text text-anchor="start" x="414" y="-469.5" font-family="Helvetica,sans-Serif" font-size="10.00">+ GPUd()</text>
<text text-anchor="start" x="414" y="-458.5" font-family="Helvetica,sans-Serif" font-size="10.00">+ GPUd()</text>
<text text-anchor="start" x="414" y="-447.5" font-family="Helvetica,sans-Serif" font-size="10.00">+ GPUd()</text>
<text text-anchor="start" x="414" y="-436.5" font-family="Helvetica,sans-Serif" font-size="10.00">+ GPUd()</text>
<text text-anchor="start" x="414" y="-425.5" font-family="Helvetica,sans-Serif" font-size="10.00">+ GPUd()</text>
<text text-anchor="start" x="414" y="-414.5" font-family="Helvetica,sans-Serif" font-size="10.00">+ GPUd()</text>
<text text-anchor="start" x="414" y="-403.5" font-family="Helvetica,sans-Serif" font-size="10.00">+ GPUd()</text>
<text text-anchor="start" x="414" y="-392.5" font-family="Helvetica,sans-Serif" font-size="10.00">+ getSector()</text>
<text text-anchor="start" x="414" y="-381.5" font-family="Helvetica,sans-Serif" font-size="10.00">+ getTime0()</text>
<text text-anchor="start" x="414" y="-370.5" font-family="Helvetica,sans-Serif" font-size="10.00">+ getXtrdBeg()</text>
<text text-anchor="start" x="414" y="-359.5" font-family="Helvetica,sans-Serif" font-size="10.00">+ getXtrdEnd()</text>
<text text-anchor="start" x="414" y="-348.5" font-family="Helvetica,sans-Serif" font-size="10.00">+ getChamberWidth()</text>
<text text-anchor="start" x="414" y="-337.5" font-family="Helvetica,sans-Serif" font-size="10.00">+ getChamberLength()</text>
<text text-anchor="start" x="414" y="-326.5" font-family="Helvetica,sans-Serif" font-size="10.00">+ getAlpha()</text>
<text text-anchor="start" x="414" y="-315.5" font-family="Helvetica,sans-Serif" font-size="10.00">+ cheight()</text>
<text text-anchor="start" x="414" y="-304.5" font-family="Helvetica,sans-Serif" font-size="10.00">+ cheightSV()</text>
<text text-anchor="start" x="414" y="-293.5" font-family="Helvetica,sans-Serif" font-size="10.00">+ cspace()</text>
<text text-anchor="start" x="414" y="-282.5" font-family="Helvetica,sans-Serif" font-size="10.00">+ craHght()</text>
<text text-anchor="start" x="414" y="-271.5" font-family="Helvetica,sans-Serif" font-size="10.00">+ cdrHght()</text>
<text text-anchor="start" x="414" y="-260.5" font-family="Helvetica,sans-Serif" font-size="10.00">+ camHght()</text>
<text text-anchor="start" x="414" y="-249.5" font-family="Helvetica,sans-Serif" font-size="10.00">+ croHght()</text>
<text text-anchor="start" x="414" y="-238.5" font-family="Helvetica,sans-Serif" font-size="10.00">+ csvHght()</text>
<text text-anchor="start" x="414" y="-227.5" font-family="Helvetica,sans-Serif" font-size="10.00">+ croWid()</text>
<text text-anchor="start" x="414" y="-216.5" font-family="Helvetica,sans-Serif" font-size="10.00">+ anodePos()</text>
<text text-anchor="start" x="414" y="-205.5" font-family="Helvetica,sans-Serif" font-size="10.00">+ myThick()</text>
<text text-anchor="start" x="414" y="-194.5" font-family="Helvetica,sans-Serif" font-size="10.00">+ drThick()</text>
<text text-anchor="start" x="414" y="-183.5" font-family="Helvetica,sans-Serif" font-size="10.00">+ amThick()</text>
<text text-anchor="start" x="414" y="-172.5" font-family="Helvetica,sans-Serif" font-size="10.00">+ drZpos()</text>
<text text-anchor="start" x="414" y="-161.5" font-family="Helvetica,sans-Serif" font-size="10.00">+ rpadW()</text>
<text text-anchor="start" x="414" y="-150.5" font-family="Helvetica,sans-Serif" font-size="10.00">+ cpadW()</text>
<text text-anchor="start" x="414" y="-139.5" font-family="Helvetica,sans-Serif" font-size="10.00">+ cwidcha()</text>
<text text-anchor="start" x="414" y="-128.5" font-family="Helvetica,sans-Serif" font-size="10.00">+ MCMmax()</text>
<text text-anchor="start" x="414" y="-117.5" font-family="Helvetica,sans-Serif" font-size="10.00">+ MCMrow()</text>
<text text-anchor="start" x="414" y="-106.5" font-family="Helvetica,sans-Serif" font-size="10.00">+ ROBmaxC0()</text>
<text text-anchor="start" x="414" y="-95.5" font-family="Helvetica,sans-Serif" font-size="10.00">+ ROBmaxC1()</text>
<text text-anchor="start" x="414" y="-84.5" font-family="Helvetica,sans-Serif" font-size="10.00">+ ADCmax()</text>
<text text-anchor="start" x="414" y="-73.5" font-family="Helvetica,sans-Serif" font-size="10.00">+ TBmax()</text>
<text text-anchor="start" x="414" y="-62.5" font-family="Helvetica,sans-Serif" font-size="10.00">+ padmax()</text>
<text text-anchor="start" x="414" y="-51.5" font-family="Helvetica,sans-Serif" font-size="10.00">+ colmax()</text>
<text text-anchor="start" x="414" y="-40.5" font-family="Helvetica,sans-Serif" font-size="10.00">+ rowmaxC0()</text>
<text text-anchor="start" x="414" y="-29.5" font-family="Helvetica,sans-Serif" font-size="10.00">+ rowmaxC1()</text>
<text text-anchor="start" x="414" y="-18.5" font-family="Helvetica,sans-Serif" font-size="10.00"># TRDGeometryBase()</text>
<text text-anchor="start" x="414" y="-7.5" font-family="Helvetica,sans-Serif" font-size="10.00"># ClassDefNV()</text>
</g>
<!-- Node2 -->
<g id="node2" class="node"><title>Node2</title>
<g id="a_node2"><a xlink:href="../../d4/dc3/classfloat.html" target="_top" xlink:title="{float\n||}">
<polygon fill="none" stroke="black" points="247,-1728 247,-1785 282,-1785 282,-1728 247,-1728"/>
<text text-anchor="middle" x="264.5" y="-1773" font-family="Helvetica,sans-Serif" font-size="10.00">float</text>
<polyline fill="none" stroke="black" points="247,-1766 282,-1766 "/>
<text text-anchor="middle" x="264.5" y="-1754" font-family="Helvetica,sans-Serif" font-size="10.00"> </text>
<polyline fill="none" stroke="black" points="247,-1747 282,-1747 "/>
<text text-anchor="middle" x="264.5" y="-1735" font-family="Helvetica,sans-Serif" font-size="10.00"> </text>
</a>
</g>
</g>
<!-- Node2&#45;&gt;Node1 -->
<g id="edge1" class="edge"><title>Node2&#45;&gt;Node1</title>
<path fill="none" stroke="#404040" d="M265.051,-1727.91C266.568,-1668.28 272.008,-1523.09 290.5,-1403 317.58,-1227.14 363.6,-1032.33 402.84,-881.509"/>
<polygon fill="none" stroke="#404040" points="402.862,-881.424 400.507,-874.608 405.892,-869.813 408.247,-876.628 402.862,-881.424"/>
<text text-anchor="middle" x="326" y="-1333" font-family="Helvetica,sans-Serif" font-size="10.00"> +eps</text>
<text text-anchor="middle" x="326" y="-1322" font-family="Helvetica,sans-Serif" font-size="10.00">+y</text>
<text text-anchor="middle" x="326" y="-1311" font-family="Helvetica,sans-Serif" font-size="10.00">+z</text>
</g>
<!-- Node3 -->
<g id="node3" class="node"><title>Node3</title>
<g id="a_node3"><a xlink:href="../../da/dc0/classo2_1_1trd_1_1TRDPadPlane.html" target="_top" xlink:title="{o2::trd::TRDPadPlane\n|# mLength\l# mLengthRim\l# mLengthOPad\l# mWidthOPad\l# mTiltingAngle\l# mPadRowSMOffset\l# mAnodeWireOffset\l|+ TRDPadPlane()\l+ TRDPadPlane()\l+ TRDPadPlane()\l+ operator=()\l+ ~TRDPadPlane()\l+ setLayer()\l+ setStack()\l+ setRowSpacing()\l+ setColSpacing()\l+ setLengthRim()\l+ setWidthRim()\l+ setNcols()\l+ setNrows()\l+ setPadCol()\l+ setPadRow()\l+ setLength()\l+ setWidth()\l+ setLengthOPad()\l+ setWidthOPad()\l+ setLengthIPad()\l+ setWidthIPad()\l+ setPadRowSMOffset()\l+ setAnodeWireOffset()\l+ setTiltingAngle()\l+ GPUd()\l+ GPUd()\l+ GPUd()\l+ GPUd()\l+ GPUd()\l+ GPUd()\l+ GPUd()\l+ GPUd()\l+ GPUd()\l+ GPUd()\l+ GPUd()\l+ GPUd()\l+ GPUd()\l+ GPUd()\l+ GPUd()\l+ GPUd()\l+ GPUd()\l+ GPUd()\l+ GPUd()\l+ GPUd()\l+ GPUd()\l+ GPUd()\l+ GPUd()\l+ GPUd()\l+ GPUd()\l+ GPUd()\l+ GPUd()\l+ GPUd()\l+ GPUd()\l+ GPUd()\l}">
<polygon fill="none" stroke="black" points="300,-1403.5 300,-2109.5 425,-2109.5 425,-1403.5 300,-1403.5"/>
<text text-anchor="middle" x="362.5" y="-2097.5" font-family="Helvetica,sans-Serif" font-size="10.00">o2::trd::TRDPadPlane</text>
<polyline fill="none" stroke="black" points="300,-2090.5 425,-2090.5 "/>
<text text-anchor="start" x="308" y="-2078.5" font-family="Helvetica,sans-Serif" font-size="10.00"># mLength</text>
<text text-anchor="start" x="308" y="-2067.5" font-family="Helvetica,sans-Serif" font-size="10.00"># mLengthRim</text>
<text text-anchor="start" x="308" y="-2056.5" font-family="Helvetica,sans-Serif" font-size="10.00"># mLengthOPad</text>
<text text-anchor="start" x="308" y="-2045.5" font-family="Helvetica,sans-Serif" font-size="10.00"># mWidthOPad</text>
<text text-anchor="start" x="308" y="-2034.5" font-family="Helvetica,sans-Serif" font-size="10.00"># mTiltingAngle</text>
<text text-anchor="start" x="308" y="-2023.5" font-family="Helvetica,sans-Serif" font-size="10.00"># mPadRowSMOffset</text>
<text text-anchor="start" x="308" y="-2012.5" font-family="Helvetica,sans-Serif" font-size="10.00"># mAnodeWireOffset</text>
<polyline fill="none" stroke="black" points="300,-2005.5 425,-2005.5 "/>
<text text-anchor="start" x="308" y="-1993.5" font-family="Helvetica,sans-Serif" font-size="10.00">+ TRDPadPlane()</text>
<text text-anchor="start" x="308" y="-1982.5" font-family="Helvetica,sans-Serif" font-size="10.00">+ TRDPadPlane()</text>
<text text-anchor="start" x="308" y="-1971.5" font-family="Helvetica,sans-Serif" font-size="10.00">+ TRDPadPlane()</text>
<text text-anchor="start" x="308" y="-1960.5" font-family="Helvetica,sans-Serif" font-size="10.00">+ operator=()</text>
<text text-anchor="start" x="308" y="-1949.5" font-family="Helvetica,sans-Serif" font-size="10.00">+ ~TRDPadPlane()</text>
<text text-anchor="start" x="308" y="-1938.5" font-family="Helvetica,sans-Serif" font-size="10.00">+ setLayer()</text>
<text text-anchor="start" x="308" y="-1927.5" font-family="Helvetica,sans-Serif" font-size="10.00">+ setStack()</text>
<text text-anchor="start" x="308" y="-1916.5" font-family="Helvetica,sans-Serif" font-size="10.00">+ setRowSpacing()</text>
<text text-anchor="start" x="308" y="-1905.5" font-family="Helvetica,sans-Serif" font-size="10.00">+ setColSpacing()</text>
<text text-anchor="start" x="308" y="-1894.5" font-family="Helvetica,sans-Serif" font-size="10.00">+ setLengthRim()</text>
<text text-anchor="start" x="308" y="-1883.5" font-family="Helvetica,sans-Serif" font-size="10.00">+ setWidthRim()</text>
<text text-anchor="start" x="308" y="-1872.5" font-family="Helvetica,sans-Serif" font-size="10.00">+ setNcols()</text>
<text text-anchor="start" x="308" y="-1861.5" font-family="Helvetica,sans-Serif" font-size="10.00">+ setNrows()</text>
<text text-anchor="start" x="308" y="-1850.5" font-family="Helvetica,sans-Serif" font-size="10.00">+ setPadCol()</text>
<text text-anchor="start" x="308" y="-1839.5" font-family="Helvetica,sans-Serif" font-size="10.00">+ setPadRow()</text>
<text text-anchor="start" x="308" y="-1828.5" font-family="Helvetica,sans-Serif" font-size="10.00">+ setLength()</text>
<text text-anchor="start" x="308" y="-1817.5" font-family="Helvetica,sans-Serif" font-size="10.00">+ setWidth()</text>
<text text-anchor="start" x="308" y="-1806.5" font-family="Helvetica,sans-Serif" font-size="10.00">+ setLengthOPad()</text>
<text text-anchor="start" x="308" y="-1795.5" font-family="Helvetica,sans-Serif" font-size="10.00">+ setWidthOPad()</text>
<text text-anchor="start" x="308" y="-1784.5" font-family="Helvetica,sans-Serif" font-size="10.00">+ setLengthIPad()</text>
<text text-anchor="start" x="308" y="-1773.5" font-family="Helvetica,sans-Serif" font-size="10.00">+ setWidthIPad()</text>
<text text-anchor="start" x="308" y="-1762.5" font-family="Helvetica,sans-Serif" font-size="10.00">+ setPadRowSMOffset()</text>
<text text-anchor="start" x="308" y="-1751.5" font-family="Helvetica,sans-Serif" font-size="10.00">+ setAnodeWireOffset()</text>
<text text-anchor="start" x="308" y="-1740.5" font-family="Helvetica,sans-Serif" font-size="10.00">+ setTiltingAngle()</text>
<text text-anchor="start" x="308" y="-1729.5" font-family="Helvetica,sans-Serif" font-size="10.00">+ GPUd()</text>
<text text-anchor="start" x="308" y="-1718.5" font-family="Helvetica,sans-Serif" font-size="10.00">+ GPUd()</text>
<text text-anchor="start" x="308" y="-1707.5" font-family="Helvetica,sans-Serif" font-size="10.00">+ GPUd()</text>
<text text-anchor="start" x="308" y="-1696.5" font-family="Helvetica,sans-Serif" font-size="10.00">+ GPUd()</text>
<text text-anchor="start" x="308" y="-1685.5" font-family="Helvetica,sans-Serif" font-size="10.00">+ GPUd()</text>
<text text-anchor="start" x="308" y="-1674.5" font-family="Helvetica,sans-Serif" font-size="10.00">+ GPUd()</text>
<text text-anchor="start" x="308" y="-1663.5" font-family="Helvetica,sans-Serif" font-size="10.00">+ GPUd()</text>
<text text-anchor="start" x="308" y="-1652.5" font-family="Helvetica,sans-Serif" font-size="10.00">+ GPUd()</text>
<text text-anchor="start" x="308" y="-1641.5" font-family="Helvetica,sans-Serif" font-size="10.00">+ GPUd()</text>
<text text-anchor="start" x="308" y="-1630.5" font-family="Helvetica,sans-Serif" font-size="10.00">+ GPUd()</text>
<text text-anchor="start" x="308" y="-1619.5" font-family="Helvetica,sans-Serif" font-size="10.00">+ GPUd()</text>
<text text-anchor="start" x="308" y="-1608.5" font-family="Helvetica,sans-Serif" font-size="10.00">+ GPUd()</text>
<text text-anchor="start" x="308" y="-1597.5" font-family="Helvetica,sans-Serif" font-size="10.00">+ GPUd()</text>
<text text-anchor="start" x="308" y="-1586.5" font-family="Helvetica,sans-Serif" font-size="10.00">+ GPUd()</text>
<text text-anchor="start" x="308" y="-1575.5" font-family="Helvetica,sans-Serif" font-size="10.00">+ GPUd()</text>
<text text-anchor="start" x="308" y="-1564.5" font-family="Helvetica,sans-Serif" font-size="10.00">+ GPUd()</text>
<text text-anchor="start" x="308" y="-1553.5" font-family="Helvetica,sans-Serif" font-size="10.00">+ GPUd()</text>
<text text-anchor="start" x="308" y="-1542.5" font-family="Helvetica,sans-Serif" font-size="10.00">+ GPUd()</text>
<text text-anchor="start" x="308" y="-1531.5" font-family="Helvetica,sans-Serif" font-size="10.00">+ GPUd()</text>
<text text-anchor="start" x="308" y="-1520.5" font-family="Helvetica,sans-Serif" font-size="10.00">+ GPUd()</text>
<text text-anchor="start" x="308" y="-1509.5" font-family="Helvetica,sans-Serif" font-size="10.00">+ GPUd()</text>
<text text-anchor="start" x="308" y="-1498.5" font-family="Helvetica,sans-Serif" font-size="10.00">+ GPUd()</text>
<text text-anchor="start" x="308" y="-1487.5" font-family="Helvetica,sans-Serif" font-size="10.00">+ GPUd()</text>
<text text-anchor="start" x="308" y="-1476.5" font-family="Helvetica,sans-Serif" font-size="10.00">+ GPUd()</text>
<text text-anchor="start" x="308" y="-1465.5" font-family="Helvetica,sans-Serif" font-size="10.00">+ GPUd()</text>
<text text-anchor="start" x="308" y="-1454.5" font-family="Helvetica,sans-Serif" font-size="10.00">+ GPUd()</text>
<text text-anchor="start" x="308" y="-1443.5" font-family="Helvetica,sans-Serif" font-size="10.00">+ GPUd()</text>
<text text-anchor="start" x="308" y="-1432.5" font-family="Helvetica,sans-Serif" font-size="10.00">+ GPUd()</text>
<text text-anchor="start" x="308" y="-1421.5" font-family="Helvetica,sans-Serif" font-size="10.00">+ GPUd()</text>
<text text-anchor="start" x="308" y="-1410.5" font-family="Helvetica,sans-Serif" font-size="10.00">+ GPUd()</text>
</a>
</g>
</g>
<!-- Node3&#45;&gt;Node1 -->
<g id="edge2" class="edge"><title>Node3&#45;&gt;Node1</title>
<path fill="none" stroke="#404040" d="M384.631,-1403.27C388.229,-1356.41 392.202,-1309.02 396.5,-1264 399.048,-1237.31 401.802,-1210.01 404.702,-1182.44"/>
<polygon fill="none" stroke="#404040" points="404.735,-1182.13 401.389,-1175.74 405.998,-1170.19 409.344,-1176.58 404.735,-1182.13"/>
<text text-anchor="middle" x="428.5" y="-1322" font-family="Helvetica,sans-Serif" font-size="10.00"> #mPadPlanes</text>
</g>
<!-- Node4 -->
<g id="node4" class="node"><title>Node4</title>
<polygon fill="none" stroke="#bfbfbf" points="99,-2273 99,-2330 144,-2330 144,-2273 99,-2273"/>
<text text-anchor="middle" x="121.5" y="-2318" font-family="Helvetica,sans-Serif" font-size="10.00">double</text>
<polyline fill="none" stroke="#bfbfbf" points="99,-2311 144,-2311 "/>
<text text-anchor="middle" x="121.5" y="-2299" font-family="Helvetica,sans-Serif" font-size="10.00"> </text>
<polyline fill="none" stroke="#bfbfbf" points="99,-2292 144,-2292 "/>
<text text-anchor="middle" x="121.5" y="-2280" font-family="Helvetica,sans-Serif" font-size="10.00"> </text>
</g>
<!-- Node4&#45;&gt;Node3 -->
<g id="edge3" class="edge"><title>Node4&#45;&gt;Node3</title>
<path fill="none" stroke="#404040" d="M121.324,-2272.71C122.7,-2234.04 131.353,-2164.62 173.5,-2128 213.215,-2093.49 252.401,-2146.28 290.5,-2110 290.807,-2109.71 291.114,-2109.41 291.419,-2109.12"/>
<polygon fill="none" stroke="#404040" points="291.6,-2108.93 292.909,-2101.84 299.959,-2100.32 298.649,-2107.41 291.6,-2108.93"/>
<text text-anchor="middle" x="208.5" y="-2241" font-family="Helvetica,sans-Serif" font-size="10.00"> #mPadRow</text>
<text text-anchor="middle" x="208.5" y="-2230" font-family="Helvetica,sans-Serif" font-size="10.00">#mWidth</text>
<text text-anchor="middle" x="208.5" y="-2219" font-family="Helvetica,sans-Serif" font-size="10.00">#mTiltingTan</text>
<text text-anchor="middle" x="208.5" y="-2208" font-family="Helvetica,sans-Serif" font-size="10.00">#mWidthIPad</text>
<text text-anchor="middle" x="208.5" y="-2197" font-family="Helvetica,sans-Serif" font-size="10.00">#mPadCol</text>
<text text-anchor="middle" x="208.5" y="-2186" font-family="Helvetica,sans-Serif" font-size="10.00">+const</text>
<text text-anchor="middle" x="208.5" y="-2175" font-family="Helvetica,sans-Serif" font-size="10.00">#mLengthIPad</text>
<text text-anchor="middle" x="208.5" y="-2164" font-family="Helvetica,sans-Serif" font-size="10.00">#mWidthRim</text>
<text text-anchor="middle" x="208.5" y="-2153" font-family="Helvetica,sans-Serif" font-size="10.00">#mRowSpacing</text>
<text text-anchor="middle" x="208.5" y="-2142" font-family="Helvetica,sans-Serif" font-size="10.00">#mColSpacing</text>
<text text-anchor="middle" x="208.5" y="-2131" font-family="Helvetica,sans-Serif" font-size="10.00">...</text>
</g>
<!-- Node5 -->
<g id="node5" class="node"><title>Node5</title>
<polygon fill="none" stroke="#bfbfbf" points="0,-2273 0,-2330 81,-2330 81,-2273 0,-2273"/>
<text text-anchor="middle" x="40.5" y="-2318" font-family="Helvetica,sans-Serif" font-size="10.00">else return rphi</text>
<polyline fill="none" stroke="#bfbfbf" points="0,-2311 81,-2311 "/>
<text text-anchor="middle" x="40.5" y="-2299" font-family="Helvetica,sans-Serif" font-size="10.00"> </text>
<polyline fill="none" stroke="#bfbfbf" points="0,-2292 81,-2292 "/>
<text text-anchor="middle" x="40.5" y="-2280" font-family="Helvetica,sans-Serif" font-size="10.00"> </text>
</g>
<!-- Node5&#45;&gt;Node3 -->
<g id="edge4" class="edge"><title>Node5&#45;&gt;Node3</title>
<path fill="none" stroke="#404040" d="M35.8858,-2272.72C31.2247,-2234.06 29.5705,-2164.66 69.5,-2128 105.795,-2094.68 253.628,-2142.69 290.5,-2110 290.704,-2109.82 290.908,-2109.64 291.112,-2109.45"/>
<polygon fill="none" stroke="#404040" points="291.28,-2109.29 292.845,-2102.25 299.945,-2100.99 298.38,-2108.03 291.28,-2109.29"/>
<text text-anchor="middle" x="94.5" y="-2186" font-family="Helvetica,sans-Serif" font-size="10.00"> +mPadCol</text>
</g>
<!-- Node6 -->
<g id="node6" class="node"><title>Node6</title>
<polygon fill="none" stroke="#bfbfbf" points="460,-2273 460,-2330 489,-2330 489,-2273 460,-2273"/>
<text text-anchor="middle" x="474.5" y="-2318" font-family="Helvetica,sans-Serif" font-size="10.00">int</text>
<polyline fill="none" stroke="#bfbfbf" points="460,-2311 489,-2311 "/>
<text text-anchor="middle" x="474.5" y="-2299" font-family="Helvetica,sans-Serif" font-size="10.00"> </text>
<polyline fill="none" stroke="#bfbfbf" points="460,-2292 489,-2292 "/>
<text text-anchor="middle" x="474.5" y="-2280" font-family="Helvetica,sans-Serif" font-size="10.00"> </text>
</g>
<!-- Node6&#45;&gt;Node1 -->
<g id="edge8" class="edge"><title>Node6&#45;&gt;Node1</title>
<path fill="none" stroke="#404040" d="M474.5,-2272.8C474.5,-2153.44 474.5,-1670.42 474.5,-1257.79"/>
<polygon fill="none" stroke="#404040" points="474.5,-1257.6 470.5,-1251.6 474.5,-1245.6 478.5,-1251.6 474.5,-1257.6"/>
<text text-anchor="middle" x="503.5" y="-1770.5" font-family="Helvetica,sans-Serif" font-size="10.00"> +const</text>
<text text-anchor="middle" x="503.5" y="-1759.5" font-family="Helvetica,sans-Serif" font-size="10.00">#mSMStatus</text>
<text text-anchor="middle" x="503.5" y="-1748.5" font-family="Helvetica,sans-Serif" font-size="10.00">+stack</text>
<text text-anchor="middle" x="503.5" y="-1737.5" font-family="Helvetica,sans-Serif" font-size="10.00">+st</text>
</g>
<!-- Node6&#45;&gt;Node3 -->
<g id="edge5" class="edge"><title>Node6&#45;&gt;Node3</title>
<path fill="none" stroke="#404040" d="M459.844,-2276.23C457.049,-2272.82 453.916,-2269.6 450.5,-2267 432.039,-2252.95 415.522,-2267.48 401.5,-2249 391.471,-2235.78 383.939,-2185.47 378.312,-2121.75"/>
<polygon fill="none" stroke="#404040" points="378.304,-2121.66 373.808,-2116.02 377.283,-2109.7 381.779,-2115.34 378.304,-2121.66"/>
<text text-anchor="middle" x="431" y="-2213.5" font-family="Helvetica,sans-Serif" font-size="10.00"> #mNrows</text>
<text text-anchor="middle" x="431" y="-2202.5" font-family="Helvetica,sans-Serif" font-size="10.00">#mLayer</text>
<text text-anchor="middle" x="431" y="-2191.5" font-family="Helvetica,sans-Serif" font-size="10.00">#MAXROWS</text>
<text text-anchor="middle" x="431" y="-2180.5" font-family="Helvetica,sans-Serif" font-size="10.00">#mNcols</text>
<text text-anchor="middle" x="431" y="-2169.5" font-family="Helvetica,sans-Serif" font-size="10.00">#MAXCOLS</text>
<text text-anchor="middle" x="431" y="-2158.5" font-family="Helvetica,sans-Serif" font-size="10.00">#mStack</text>
</g>
<!-- Node7 -->
<g id="node7" class="node"><title>Node7</title>
<polygon fill="none" stroke="#bfbfbf" points="162,-2267.5 162,-2335.5 291,-2335.5 291,-2267.5 162,-2267.5"/>
<text text-anchor="start" x="170" y="-2323.5" font-family="Helvetica,sans-Serif" font-size="10.00">else return mPadRow</text>
<text text-anchor="middle" x="226.5" y="-2312.5" font-family="Helvetica,sans-Serif" font-size="10.00">[row] mPadRowSMOffset</text>
<polyline fill="none" stroke="#bfbfbf" points="162,-2305.5 291,-2305.5 "/>
<text text-anchor="middle" x="226.5" y="-2293.5" font-family="Helvetica,sans-Serif" font-size="10.00"> </text>
<polyline fill="none" stroke="#bfbfbf" points="162,-2286.5 291,-2286.5 "/>
<text text-anchor="middle" x="226.5" y="-2274.5" font-family="Helvetica,sans-Serif" font-size="10.00"> </text>
</g>
<!-- Node7&#45;&gt;Node3 -->
<g id="edge6" class="edge"><title>Node7&#45;&gt;Node3</title>
<path fill="none" stroke="#404040" d="M238.964,-2267.5C252.876,-2229.81 275.409,-2166.1 290.5,-2110 292.678,-2101.9 294.826,-2093.69 296.94,-2085.38"/>
<polygon fill="none" stroke="#404040" points="296.979,-2085.23 294.564,-2078.44 299.907,-2073.59 302.322,-2080.39 296.979,-2085.23"/>
<text text-anchor="middle" x="293" y="-2186" font-family="Helvetica,sans-Serif" font-size="10.00"> +z</text>
</g>
<!-- Node8 -->
<g id="node8" class="node"><title>Node8</title>
<polygon fill="none" stroke="#bfbfbf" points="309,-2273 309,-2330 442,-2330 442,-2273 309,-2273"/>
<text text-anchor="middle" x="375.5" y="-2318" font-family="Helvetica,sans-Serif" font-size="10.00">else return mPadRow[row]</text>
<polyline fill="none" stroke="#bfbfbf" points="309,-2311 442,-2311 "/>
<text text-anchor="middle" x="375.5" y="-2299" font-family="Helvetica,sans-Serif" font-size="10.00"> </text>
<polyline fill="none" stroke="#bfbfbf" points="309,-2292 442,-2292 "/>
<text text-anchor="middle" x="375.5" y="-2280" font-family="Helvetica,sans-Serif" font-size="10.00"> </text>
</g>
<!-- Node8&#45;&gt;Node3 -->
<g id="edge7" class="edge"><title>Node8&#45;&gt;Node3</title>
<path fill="none" stroke="#404040" d="M367.856,-2272.91C366.062,-2265.23 364.41,-2256.84 363.5,-2249 358.737,-2207.94 355.741,-2164.81 354.013,-2121.88"/>
<polygon fill="none" stroke="#404040" points="354.009,-2121.77 349.787,-2115.92 353.559,-2109.78 357.781,-2115.62 354.009,-2121.77"/>
<text text-anchor="middle" x="371" y="-2186" font-family="Helvetica,sans-Serif" font-size="10.00"> +z</text>
</g>
<!-- Node9 -->
<g id="node9" class="node"><title>Node9</title>
<polygon fill="none" stroke="#bfbfbf" points="551,-1728 551,-1785 586,-1785 586,-1728 551,-1728"/>
<text text-anchor="middle" x="568.5" y="-1773" font-family="Helvetica,sans-Serif" font-size="10.00">bool</text>
<polyline fill="none" stroke="#bfbfbf" points="551,-1766 586,-1766 "/>
<text text-anchor="middle" x="568.5" y="-1754" font-family="Helvetica,sans-Serif" font-size="10.00"> </text>
<polyline fill="none" stroke="#bfbfbf" points="551,-1747 586,-1747 "/>
<text text-anchor="middle" x="568.5" y="-1735" font-family="Helvetica,sans-Serif" font-size="10.00"> </text>
</g>
<!-- Node9&#45;&gt;Node1 -->
<g id="edge9" class="edge"><title>Node9&#45;&gt;Node1</title>
<path fill="none" stroke="#404040" d="M566.2,-1727.81C560.372,-1657.66 544.27,-1463.84 527.153,-1257.8"/>
<polygon fill="none" stroke="#404040" points="527.149,-1257.74 522.666,-1252.09 526.155,-1245.78 530.638,-1251.43 527.149,-1257.74"/>
<text text-anchor="middle" x="554" y="-1322" font-family="Helvetica,sans-Serif" font-size="10.00"> +status</text>
</g>
<!-- Node10 -->
<g id="node10" class="node"><title>Node10</title>
<polygon fill="none" stroke="#bfbfbf" points="606,-1728 606,-1785 647,-1785 647,-1728 606,-1728"/>
<text text-anchor="middle" x="626.5" y="-1773" font-family="Helvetica,sans-Serif" font-size="10.00">static</text>
<polyline fill="none" stroke="#bfbfbf" points="606,-1766 647,-1766 "/>
<text text-anchor="middle" x="626.5" y="-1754" font-family="Helvetica,sans-Serif" font-size="10.00"> </text>
<polyline fill="none" stroke="#bfbfbf" points="606,-1747 647,-1747 "/>
<text text-anchor="middle" x="626.5" y="-1735" font-family="Helvetica,sans-Serif" font-size="10.00"> </text>
</g>
<!-- Node10&#45;&gt;Node1 -->
<g id="edge10" class="edge"><title>Node10&#45;&gt;Node1</title>
<path fill="none" stroke="#404040" d="M624.331,-1727.59C619.616,-1667.94 607.781,-1523.63 594.5,-1403 581.37,-1283.75 563.159,-1154.8 544.886,-1036.8"/>
<polygon fill="none" stroke="#404040" points="544.845,-1036.54 539.972,-1031.22 543.003,-1024.68 547.877,-1029.99 544.845,-1036.54"/>
<text text-anchor="middle" x="622" y="-1377" font-family="Helvetica,sans-Serif" font-size="10.00"> #RPADW</text>
<text text-anchor="middle" x="622" y="-1366" font-family="Helvetica,sans-Serif" font-size="10.00">#VROCSM</text>
<text text-anchor="middle" x="622" y="-1355" font-family="Helvetica,sans-Serif" font-size="10.00">#MCMMAX</text>
<text text-anchor="middle" x="622" y="-1344" font-family="Helvetica,sans-Serif" font-size="10.00">#PGLTHICK</text>
<text text-anchor="middle" x="622" y="-1333" font-family="Helvetica,sans-Serif" font-size="10.00">#CPADW</text>
<text text-anchor="middle" x="622" y="-1322" font-family="Helvetica,sans-Serif" font-size="10.00">#PPDTHICK</text>
<text text-anchor="middle" x="622" y="-1311" font-family="Helvetica,sans-Serif" font-size="10.00">#RRHTHICK</text>
<text text-anchor="middle" x="622" y="-1300" font-family="Helvetica,sans-Serif" font-size="10.00">#RGLTHICK</text>
<text text-anchor="middle" x="622" y="-1289" font-family="Helvetica,sans-Serif" font-size="10.00">#CSVH</text>
<text text-anchor="middle" x="622" y="-1278" font-family="Helvetica,sans-Serif" font-size="10.00">#HSPACE</text>
<text text-anchor="middle" x="622" y="-1267" font-family="Helvetica,sans-Serif" font-size="10.00">...</text>
</g>
</g>
</svg>
