<?xml version="1.0" encoding="UTF-8" standalone="no"?>
<!DOCTYPE svg PUBLIC "-//W3C//DTD SVG 1.1//EN"
 "http://www.w3.org/Graphics/SVG/1.1/DTD/svg11.dtd">
<!-- Generated by graphviz version 2.38.0 (20140413.2041)
 -->
<!-- Title: cluster_struct Pages: 1 -->
<svg width="252pt" height="336pt"
 viewBox="0.00 0.00 251.50 336.00" xmlns="http://www.w3.org/2000/svg" xmlns:xlink="http://www.w3.org/1999/xlink">
<g id="graph0" class="graph" transform="scale(1 1) rotate(0) translate(4 332)">
<title>cluster_struct</title>
<!-- Node1 -->
<g id="node1" class="node"><title>Node1</title>
<polygon fill="#bfbfbf" stroke="black" points="59.5,-0.5 59.5,-112.5 135.5,-112.5 135.5,-0.5 59.5,-0.5"/>
<text text-anchor="middle" x="97.5" y="-100.5" font-family="Helvetica,sans-Serif" font-size="10.00">cluster_struct</text>
<polyline fill="none" stroke="black" points="59.5,-93.5 135.5,-93.5 "/>
<text text-anchor="start" x="67.5" y="-81.5" font-family="Helvetica,sans-Serif" font-size="10.00">+ event</text>
<text text-anchor="start" x="67.5" y="-70.5" font-family="Helvetica,sans-Serif" font-size="10.00">+ row</text>
<text text-anchor="start" x="67.5" y="-59.5" font-family="Helvetica,sans-Serif" font-size="10.00">+ sigmaPad</text>
<text text-anchor="start" x="67.5" y="-48.5" font-family="Helvetica,sans-Serif" font-size="10.00">+ qmax</text>
<text text-anchor="start" x="67.5" y="-37.5" font-family="Helvetica,sans-Serif" font-size="10.00">+ resTime</text>
<text text-anchor="start" x="67.5" y="-26.5" font-family="Helvetica,sans-Serif" font-size="10.00">+ vals</text>
<polyline fill="none" stroke="black" points="59.5,-19.5 135.5,-19.5 "/>
<text text-anchor="middle" x="97.5" y="-7.5" font-family="Helvetica,sans-Serif" font-size="10.00"> </text>
</g>
<!-- Node2 -->
<g id="node2" class="node"><title>Node2</title>
<polygon fill="none" stroke="#bfbfbf" points="0,-270.5 0,-327.5 29,-327.5 29,-270.5 0,-270.5"/>
<text text-anchor="middle" x="14.5" y="-315.5" font-family="Helvetica,sans-Serif" font-size="10.00">int</text>
<polyline fill="none" stroke="#bfbfbf" points="0,-308.5 29,-308.5 "/>
<text text-anchor="middle" x="14.5" y="-296.5" font-family="Helvetica,sans-Serif" font-size="10.00"> </text>
<polyline fill="none" stroke="#bfbfbf" points="0,-289.5 29,-289.5 "/>
<text text-anchor="middle" x="14.5" y="-277.5" font-family="Helvetica,sans-Serif" font-size="10.00"> </text>
</g>
<!-- Node2&#45;&gt;Node1 -->
<g id="edge1" class="edge"><title>Node2&#45;&gt;Node1</title>
<path fill="none" stroke="#404040" d="M17.7047,-270.239C22.2726,-236.376 32.3149,-177.856 51.5,-131 52.5196,-128.51 53.6211,-126.009 54.788,-123.511"/>
<polygon fill="none" stroke="#404040" points="54.8748,-123.339 54.0015,-116.181 60.273,-112.622 61.1463,-119.78 54.8748,-123.339"/>
<text text-anchor="middle" x="72.5" y="-189" font-family="Helvetica,sans-Serif" font-size="10.00"> +trackID</text>
</g>
<!-- Node3 -->
<g id="node3" class="node"><title>Node3</title>
<polygon fill="none" stroke="#bfbfbf" points="46.5,-270.5 46.5,-327.5 148.5,-327.5 148.5,-270.5 46.5,-270.5"/>
<text text-anchor="middle" x="97.5" y="-315.5" font-family="Helvetica,sans-Serif" font-size="10.00">anonymous:+@194</text>
<polyline fill="none" stroke="#bfbfbf" points="46.5,-308.5 148.5,-308.5 "/>
<text text-anchor="middle" x="97.5" y="-296.5" font-family="Helvetica,sans-Serif" font-size="10.00"> </text>
<polyline fill="none" stroke="#bfbfbf" points="46.5,-289.5 148.5,-289.5 "/>
<text text-anchor="middle" x="97.5" y="-277.5" font-family="Helvetica,sans-Serif" font-size="10.00"> </text>
</g>
<!-- Node3&#45;&gt;Node1 -->
<g id="edge2" class="edge"><title>Node3&#45;&gt;Node1</title>
<path fill="none" stroke="#404040" d="M97.5,-270.412C97.5,-235.226 97.5,-173.184 97.5,-125.119"/>
<polygon fill="none" stroke="#404040" points="97.5001,-124.911 93.5,-118.911 97.5,-112.911 101.5,-118.911 97.5001,-124.911"/>
<text text-anchor="middle" x="115.5" y="-189" font-family="Helvetica,sans-Serif" font-size="10.00"> +@194</text>
</g>
<!-- Node4 -->
<g id="node4" class="node"><title>Node4</title>
<polygon fill="none" stroke="#bfbfbf" points="166.5,-270.5 166.5,-327.5 222.5,-327.5 222.5,-270.5 166.5,-270.5"/>
<text text-anchor="middle" x="194.5" y="-315.5" font-family="Helvetica,sans-Serif" font-size="10.00">unsigned</text>
<polyline fill="none" stroke="#bfbfbf" points="166.5,-308.5 222.5,-308.5 "/>
<text text-anchor="middle" x="194.5" y="-296.5" font-family="Helvetica,sans-Serif" font-size="10.00"> </text>
<polyline fill="none" stroke="#bfbfbf" points="166.5,-289.5 222.5,-289.5 "/>
<text text-anchor="middle" x="194.5" y="-277.5" font-family="Helvetica,sans-Serif" font-size="10.00"> </text>
</g>
<!-- Node4&#45;&gt;Node1 -->
<g id="edge3" class="edge"><title>Node4&#45;&gt;Node1</title>
<path fill="none" stroke="#404040" d="M186.611,-270.268C176.701,-236.684 158.434,-178.688 137.5,-131 136.432,-128.568 135.313,-126.109 134.156,-123.638"/>
<polygon fill="none" stroke="#404040" points="134.125,-123.574 127.902,-119.931 128.871,-112.786 135.094,-116.429 134.125,-123.574"/>
<text text-anchor="middle" x="211.5" y="-244" font-family="Helvetica,sans-Serif" font-size="10.00"> +qtot</text>
<text text-anchor="middle" x="211.5" y="-233" font-family="Helvetica,sans-Serif" font-size="10.00">+avgtot</text>
<text text-anchor="middle" x="211.5" y="-222" font-family="Helvetica,sans-Serif" font-size="10.00">+slice</text>
<text text-anchor="middle" x="211.5" y="-211" font-family="Helvetica,sans-Serif" font-size="10.00">+resPad</text>
<text text-anchor="middle" x="211.5" y="-200" font-family="Helvetica,sans-Serif" font-size="10.00">+pad</text>
<text text-anchor="middle" x="211.5" y="-189" font-family="Helvetica,sans-Serif" font-size="10.00">+time</text>
<text text-anchor="middle" x="211.5" y="-178" font-family="Helvetica,sans-Serif" font-size="10.00">+avgmax</text>
<text text-anchor="middle" x="211.5" y="-167" font-family="Helvetica,sans-Serif" font-size="10.00">+splitPadTime</text>
<text text-anchor="middle" x="211.5" y="-156" font-family="Helvetica,sans-Serif" font-size="10.00">+sigmaTime</text>
<text text-anchor="middle" x="211.5" y="-145" font-family="Helvetica,sans-Serif" font-size="10.00">+patch</text>
<text text-anchor="middle" x="211.5" y="-134" font-family="Helvetica,sans-Serif" font-size="10.00">...</text>
</g>
</g>
</svg>
