<?xml version="1.0" encoding="UTF-8" standalone="no"?>
<!DOCTYPE svg PUBLIC "-//W3C//DTD SVG 1.1//EN"
 "http://www.w3.org/Graphics/SVG/1.1/DTD/svg11.dtd">
<!-- Generated by graphviz version 2.38.0 (20140413.2041)
 -->
<!-- Title: o2::framework::gui::NodePos Pages: 1 -->
<svg width="119pt" height="193pt"
 viewBox="0.00 0.00 119.00 193.00" xmlns="http://www.w3.org/2000/svg" xmlns:xlink="http://www.w3.org/1999/xlink">
<g id="graph0" class="graph" transform="scale(1 1) rotate(0) translate(4 189)">
<title>o2::framework::gui::NodePos</title>
<!-- Node1 -->
<g id="node1" class="node"><title>Node1</title>
<polygon fill="#bfbfbf" stroke="black" points="-7.10543e-15,-0.5 -7.10543e-15,-79.5 111,-79.5 111,-0.5 -7.10543e-15,-0.5"/>
<text text-anchor="start" x="8" y="-67.5" font-family="Helvetica,sans-Serif" font-size="10.00">o2::framework::gui</text>
<text text-anchor="middle" x="55.5" y="-56.5" font-family="Helvetica,sans-Serif" font-size="10.00">::NodePos</text>
<polyline fill="none" stroke="black" points="-7.10543e-15,-49.5 111,-49.5 "/>
<text text-anchor="middle" x="55.5" y="-37.5" font-family="Helvetica,sans-Serif" font-size="10.00"> </text>
<polyline fill="none" stroke="black" points="-7.10543e-15,-30.5 111,-30.5 "/>
<text text-anchor="start" x="8" y="-18.5" font-family="Helvetica,sans-Serif" font-size="10.00">+ GetInputSlotPos()</text>
<text text-anchor="start" x="8" y="-7.5" font-family="Helvetica,sans-Serif" font-size="10.00">+ GetOutputSlotPos()</text>
</g>
<!-- Node2 -->
<g id="node2" class="node"><title>Node2</title>
<polygon fill="none" stroke="#bfbfbf" points="30.5,-127.5 30.5,-184.5 80.5,-184.5 80.5,-127.5 30.5,-127.5"/>
<text text-anchor="middle" x="55.5" y="-172.5" font-family="Helvetica,sans-Serif" font-size="10.00">ImVec2</text>
<polyline fill="none" stroke="#bfbfbf" points="30.5,-165.5 80.5,-165.5 "/>
<text text-anchor="middle" x="55.5" y="-153.5" font-family="Helvetica,sans-Serif" font-size="10.00"> </text>
<polyline fill="none" stroke="#bfbfbf" points="30.5,-146.5 80.5,-146.5 "/>
<text text-anchor="middle" x="55.5" y="-134.5" font-family="Helvetica,sans-Serif" font-size="10.00"> </text>
</g>
<!-- Node2&#45;&gt;Node1 -->
<g id="edge1" class="edge"><title>Node2&#45;&gt;Node1</title>
<path fill="none" stroke="#404040" d="M55.5,-127.404C55.5,-116.63 55.5,-103.926 55.5,-91.6231"/>
<polygon fill="none" stroke="#404040" points="55.5001,-91.5406 51.5,-85.5406 55.5,-79.5406 59.5,-85.5405 55.5001,-91.5406"/>
<text text-anchor="middle" x="68" y="-101" font-family="Helvetica,sans-Serif" font-size="10.00"> +pos</text>
</g>
</g>
</svg>
