<?xml version="1.0" encoding="UTF-8" standalone="no"?>
<!DOCTYPE svg PUBLIC "-//W3C//DTD SVG 1.1//EN"
 "http://www.w3.org/Graphics/SVG/1.1/DTD/svg11.dtd">
<!-- Generated by graphviz version 2.38.0 (20140413.2041)
 -->
<!-- Title: ROOT::Math::PositionVector3D&lt; CoordSystem, Tag &gt; Pages: 1 -->
<svg width="488pt" height="193pt"
 viewBox="0.00 0.00 488.00 193.00" xmlns="http://www.w3.org/2000/svg" xmlns:xlink="http://www.w3.org/1999/xlink">
<g id="graph0" class="graph" transform="scale(1 1) rotate(0) translate(4 189)">
<title>ROOT::Math::PositionVector3D&lt; CoordSystem, Tag &gt;</title>
<!-- Node1 -->
<g id="node1" class="node"><title>Node1</title>
<polygon fill="#bfbfbf" stroke="black" points="166,-116.5 166,-184.5 314,-184.5 314,-116.5 166,-116.5"/>
<text text-anchor="start" x="174" y="-172.5" font-family="Helvetica,sans-Serif" font-size="10.00">ROOT::Math::PositionVector3</text>
<text text-anchor="middle" x="240" y="-161.5" font-family="Helvetica,sans-Serif" font-size="10.00">D&lt; CoordSystem, Tag &gt;</text>
<polyline fill="none" stroke="black" points="166,-154.5 314,-154.5 "/>
<text text-anchor="middle" x="240" y="-142.5" font-family="Helvetica,sans-Serif" font-size="10.00"> </text>
<polyline fill="none" stroke="black" points="166,-135.5 314,-135.5 "/>
<text text-anchor="middle" x="240" y="-123.5" font-family="Helvetica,sans-Serif" font-size="10.00"> </text>
</g>
<!-- Node2 -->
<g id="node2" class="node"><title>Node2</title>
<g id="a_node2"><a xlink:href="../../d5/daf/classROOT_1_1Math_1_1PositionVector3D.html" target="_top" xlink:title="{ROOT::Math::PositionVector3\lD\&lt; float \&gt;\n||}">
<polygon fill="none" stroke="black" points="0,-0.5 0,-68.5 148,-68.5 148,-0.5 0,-0.5"/>
<text text-anchor="start" x="8" y="-56.5" font-family="Helvetica,sans-Serif" font-size="10.00">ROOT::Math::PositionVector3</text>
<text text-anchor="middle" x="74" y="-45.5" font-family="Helvetica,sans-Serif" font-size="10.00">D&lt; float &gt;</text>
<polyline fill="none" stroke="black" points="0,-38.5 148,-38.5 "/>
<text text-anchor="middle" x="74" y="-26.5" font-family="Helvetica,sans-Serif" font-size="10.00"> </text>
<polyline fill="none" stroke="black" points="0,-19.5 148,-19.5 "/>
<text text-anchor="middle" x="74" y="-7.5" font-family="Helvetica,sans-Serif" font-size="10.00"> </text>
</a>
</g>
</g>
<!-- Node1&#45;&gt;Node2 -->
<g id="edge1" class="edge"><title>Node1&#45;&gt;Node2</title>
<path fill="none" stroke="orange" d="M183.191,-110.487C163.358,-96.8662 141.302,-81.7192 122.234,-68.6243"/>
<polygon fill="orange" stroke="orange" points="181.315,-113.444 191.54,-116.22 185.278,-107.674 181.315,-113.444"/>
<text text-anchor="middle" x="182" y="-90" font-family="Helvetica,sans-Serif" font-size="10.00"> &lt; float &gt;</text>
</g>
<!-- Node3 -->
<g id="node3" class="node"><title>Node3</title>
<g id="a_node3"><a xlink:href="../../d5/daf/classROOT_1_1Math_1_1PositionVector3D.html" target="_top" xlink:title="{ROOT::Math::PositionVector3\lD\&lt; T \&gt;\n||}">
<polygon fill="none" stroke="black" points="166,-0.5 166,-68.5 314,-68.5 314,-0.5 166,-0.5"/>
<text text-anchor="start" x="174" y="-56.5" font-family="Helvetica,sans-Serif" font-size="10.00">ROOT::Math::PositionVector3</text>
<text text-anchor="middle" x="240" y="-45.5" font-family="Helvetica,sans-Serif" font-size="10.00">D&lt; T &gt;</text>
<polyline fill="none" stroke="black" points="166,-38.5 314,-38.5 "/>
<text text-anchor="middle" x="240" y="-26.5" font-family="Helvetica,sans-Serif" font-size="10.00"> </text>
<polyline fill="none" stroke="black" points="166,-19.5 314,-19.5 "/>
<text text-anchor="middle" x="240" y="-7.5" font-family="Helvetica,sans-Serif" font-size="10.00"> </text>
</a>
</g>
</g>
<!-- Node1&#45;&gt;Node3 -->
<g id="edge2" class="edge"><title>Node1&#45;&gt;Node3</title>
<path fill="none" stroke="orange" d="M240,-106.06C240,-93.644 240,-80.3162 240,-68.6243"/>
<polygon fill="orange" stroke="orange" points="236.5,-106.22 240,-116.22 243.5,-106.22 236.5,-106.22"/>
<text text-anchor="middle" x="254" y="-90" font-family="Helvetica,sans-Serif" font-size="10.00"> &lt; T &gt;</text>
</g>
<!-- Node4 -->
<g id="node4" class="node"><title>Node4</title>
<g id="a_node4"><a xlink:href="../../d5/daf/classROOT_1_1Math_1_1PositionVector3D.html" target="_top" xlink:title="{ROOT::Math::PositionVector3\lD\&lt; Float_t \&gt;\n||}">
<polygon fill="none" stroke="black" points="332,-0.5 332,-68.5 480,-68.5 480,-0.5 332,-0.5"/>
<text text-anchor="start" x="340" y="-56.5" font-family="Helvetica,sans-Serif" font-size="10.00">ROOT::Math::PositionVector3</text>
<text text-anchor="middle" x="406" y="-45.5" font-family="Helvetica,sans-Serif" font-size="10.00">D&lt; Float_t &gt;</text>
<polyline fill="none" stroke="black" points="332,-38.5 480,-38.5 "/>
<text text-anchor="middle" x="406" y="-26.5" font-family="Helvetica,sans-Serif" font-size="10.00"> </text>
<polyline fill="none" stroke="black" points="332,-19.5 480,-19.5 "/>
<text text-anchor="middle" x="406" y="-7.5" font-family="Helvetica,sans-Serif" font-size="10.00"> </text>
</a>
</g>
</g>
<!-- Node1&#45;&gt;Node4 -->
<g id="edge3" class="edge"><title>Node1&#45;&gt;Node4</title>
<path fill="none" stroke="orange" d="M296.809,-110.487C316.642,-96.8662 338.698,-81.7192 357.766,-68.6243"/>
<polygon fill="orange" stroke="orange" points="294.722,-107.674 288.46,-116.22 298.685,-113.444 294.722,-107.674"/>
<text text-anchor="middle" x="353" y="-90" font-family="Helvetica,sans-Serif" font-size="10.00"> &lt; Float_t &gt;</text>
</g>
</g>
</svg>
