<?xml version="1.0" encoding="UTF-8" standalone="no"?>
<!DOCTYPE svg PUBLIC "-//W3C//DTD SVG 1.1//EN"
 "http://www.w3.org/Graphics/SVG/1.1/DTD/svg11.dtd">
<!-- Generated by graphviz version 2.38.0 (20140413.2041)
 -->
<!-- Title: o2::framework::RootObjectContext::MessageRef Pages: 1 -->
<svg width="352pt" height="182pt"
 viewBox="0.00 0.00 351.50 182.00" xmlns="http://www.w3.org/2000/svg" xmlns:xlink="http://www.w3.org/1999/xlink">
<g id="graph0" class="graph" transform="scale(1 1) rotate(0) translate(4 178)">
<title>o2::framework::RootObjectContext::MessageRef</title>
<!-- Node1 -->
<g id="node1" class="node"><title>Node1</title>
<polygon fill="#bfbfbf" stroke="black" points="68.5,-0.5 68.5,-68.5 202.5,-68.5 202.5,-0.5 68.5,-0.5"/>
<text text-anchor="start" x="76.5" y="-56.5" font-family="Helvetica,sans-Serif" font-size="10.00">o2::framework::RootObject</text>
<text text-anchor="middle" x="135.5" y="-45.5" font-family="Helvetica,sans-Serif" font-size="10.00">Context::MessageRef</text>
<polyline fill="none" stroke="black" points="68.5,-38.5 202.5,-38.5 "/>
<text text-anchor="middle" x="135.5" y="-26.5" font-family="Helvetica,sans-Serif" font-size="10.00"> </text>
<polyline fill="none" stroke="black" points="68.5,-19.5 202.5,-19.5 "/>
<text text-anchor="middle" x="135.5" y="-7.5" font-family="Helvetica,sans-Serif" font-size="10.00"> </text>
</g>
<!-- Node2 -->
<g id="node2" class="node"><title>Node2</title>
<polygon fill="none" stroke="#bfbfbf" points="0,-116.5 0,-173.5 41,-173.5 41,-116.5 0,-116.5"/>
<text text-anchor="middle" x="20.5" y="-161.5" font-family="Helvetica,sans-Serif" font-size="10.00">string</text>
<polyline fill="none" stroke="#bfbfbf" points="0,-154.5 41,-154.5 "/>
<text text-anchor="middle" x="20.5" y="-142.5" font-family="Helvetica,sans-Serif" font-size="10.00"> </text>
<polyline fill="none" stroke="#bfbfbf" points="0,-135.5 41,-135.5 "/>
<text text-anchor="middle" x="20.5" y="-123.5" font-family="Helvetica,sans-Serif" font-size="10.00"> </text>
</g>
<!-- Node2&#45;&gt;Node1 -->
<g id="edge1" class="edge"><title>Node2&#45;&gt;Node1</title>
<path fill="none" stroke="#404040" d="M41.0597,-124.602C55.0337,-111.418 74.0555,-93.4715 91.3663,-77.1392"/>
<polygon fill="none" stroke="#404040" points="91.4985,-77.0144 93.1177,-69.9874 100.227,-68.7794 98.6077,-75.8064 91.4985,-77.0144"/>
<text text-anchor="middle" x="100" y="-90" font-family="Helvetica,sans-Serif" font-size="10.00"> +channel</text>
</g>
<!-- Node3 -->
<g id="node3" class="node"><title>Node3</title>
<polygon fill="none" stroke="#bfbfbf" points="59.5,-116.5 59.5,-173.5 211.5,-173.5 211.5,-116.5 59.5,-116.5"/>
<text text-anchor="middle" x="135.5" y="-161.5" font-family="Helvetica,sans-Serif" font-size="10.00">unique_ptr&lt; FairMQMessage &gt;</text>
<polyline fill="none" stroke="#bfbfbf" points="59.5,-154.5 211.5,-154.5 "/>
<text text-anchor="middle" x="135.5" y="-142.5" font-family="Helvetica,sans-Serif" font-size="10.00"> </text>
<polyline fill="none" stroke="#bfbfbf" points="59.5,-135.5 211.5,-135.5 "/>
<text text-anchor="middle" x="135.5" y="-123.5" font-family="Helvetica,sans-Serif" font-size="10.00"> </text>
</g>
<!-- Node3&#45;&gt;Node1 -->
<g id="edge2" class="edge"><title>Node3&#45;&gt;Node1</title>
<path fill="none" stroke="#404040" d="M135.5,-116.34C135.5,-105.529 135.5,-92.847 135.5,-80.7745"/>
<polygon fill="none" stroke="#404040" points="135.5,-80.5186 131.5,-74.5186 135.5,-68.5186 139.5,-74.5185 135.5,-80.5186"/>
<text text-anchor="middle" x="155" y="-90" font-family="Helvetica,sans-Serif" font-size="10.00"> +header</text>
</g>
<!-- Node4 -->
<g id="node4" class="node"><title>Node4</title>
<polygon fill="none" stroke="#bfbfbf" points="229.5,-116.5 229.5,-173.5 343.5,-173.5 343.5,-116.5 229.5,-116.5"/>
<text text-anchor="middle" x="286.5" y="-161.5" font-family="Helvetica,sans-Serif" font-size="10.00">unique_ptr&lt; TObject &gt;</text>
<polyline fill="none" stroke="#bfbfbf" points="229.5,-154.5 343.5,-154.5 "/>
<text text-anchor="middle" x="286.5" y="-142.5" font-family="Helvetica,sans-Serif" font-size="10.00"> </text>
<polyline fill="none" stroke="#bfbfbf" points="229.5,-135.5 343.5,-135.5 "/>
<text text-anchor="middle" x="286.5" y="-123.5" font-family="Helvetica,sans-Serif" font-size="10.00"> </text>
</g>
<!-- Node4&#45;&gt;Node1 -->
<g id="edge3" class="edge"><title>Node4&#45;&gt;Node1</title>
<path fill="none" stroke="#404040" d="M248.006,-116.34C230.822,-103.993 210.241,-89.2047 191.407,-75.6719"/>
<polygon fill="none" stroke="#404040" points="191.197,-75.5209 183.991,-75.2681 181.452,-68.5186 188.659,-68.7713 191.197,-75.5209"/>
<text text-anchor="middle" x="242" y="-90" font-family="Helvetica,sans-Serif" font-size="10.00"> +payload</text>
</g>
</g>
</svg>
