<?xml version="1.0" encoding="UTF-8" standalone="no"?>
<!DOCTYPE svg PUBLIC "-//W3C//DTD SVG 1.1//EN"
 "http://www.w3.org/Graphics/SVG/1.1/DTD/svg11.dtd">
<!-- Generated by graphviz version 2.38.0 (20140413.2041)
 -->
<!-- Title: o2::zdc::Digitizer::BCCache Pages: 1 -->
<svg width="689pt" height="683pt"
 viewBox="0.00 0.00 688.50 683.00" xmlns="http://www.w3.org/2000/svg" xmlns:xlink="http://www.w3.org/1999/xlink">
<g id="graph0" class="graph" transform="scale(1 1) rotate(0) translate(4 679)">
<title>o2::zdc::Digitizer::BCCache</title>
<!-- Node1 -->
<g id="node1" class="node"><title>Node1</title>
<polygon fill="#bfbfbf" stroke="black" points="339,-0.5 339,-101.5 430,-101.5 430,-0.5 339,-0.5"/>
<text text-anchor="start" x="347" y="-89.5" font-family="Helvetica,sans-Serif" font-size="10.00">o2::zdc::Digitizer</text>
<text text-anchor="middle" x="384.5" y="-78.5" font-family="Helvetica,sans-Serif" font-size="10.00">::BCCache</text>
<polyline fill="none" stroke="black" points="339,-71.5 430,-71.5 "/>
<text text-anchor="middle" x="384.5" y="-59.5" font-family="Helvetica,sans-Serif" font-size="10.00"> </text>
<polyline fill="none" stroke="black" points="339,-52.5 430,-52.5 "/>
<text text-anchor="start" x="347" y="-40.5" font-family="Helvetica,sans-Serif" font-size="10.00">+ BCCache()</text>
<text text-anchor="start" x="347" y="-29.5" font-family="Helvetica,sans-Serif" font-size="10.00">+ clear()</text>
<text text-anchor="start" x="347" y="-18.5" font-family="Helvetica,sans-Serif" font-size="10.00">+ operator=()</text>
<text text-anchor="start" x="347" y="-7.5" font-family="Helvetica,sans-Serif" font-size="10.00">+ print()</text>
</g>
<!-- Node2 -->
<g id="node2" class="node"><title>Node2</title>
<g id="a_node2"><a xlink:href="../../d1/d21/structo2_1_1InteractionRecord.html" target="_top" xlink:title="{o2::InteractionRecord\n||+ InteractionRecord()\l+ InteractionRecord()\l+ InteractionRecord()\l+ InteractionRecord()\l+ clear()\l+ isDummy()\l+ setFromNS()\l+ bc2ns()\l+ operator==()\l+ operator!=()\l+ differenceInBC()\l+ toLong()\l+ operator\&gt;()\l+ operator\&gt;=()\l+ operator\&lt;()\l+ operator\&lt;=()\l+ operator&#45;&#45;()\l+ operator&#45;&#45;()\l+ operator++()\l+ operator++()\l+ operator+=()\l+ operator&#45;=()\l+ operator+=()\l+ operator&#45;=()\l+ operator+()\l+ operator&#45;()\l+ operator+()\l+ operator&#45;()\l+ print()\l+ ClassDefNV()\l+ bc2ns()\l+ ns2bc()\l}">
<polygon fill="none" stroke="black" points="89.5,-160.5 89.5,-558.5 199.5,-558.5 199.5,-160.5 89.5,-160.5"/>
<text text-anchor="middle" x="144.5" y="-546.5" font-family="Helvetica,sans-Serif" font-size="10.00">o2::InteractionRecord</text>
<polyline fill="none" stroke="black" points="89.5,-539.5 199.5,-539.5 "/>
<text text-anchor="middle" x="144.5" y="-527.5" font-family="Helvetica,sans-Serif" font-size="10.00"> </text>
<polyline fill="none" stroke="black" points="89.5,-520.5 199.5,-520.5 "/>
<text text-anchor="start" x="97.5" y="-508.5" font-family="Helvetica,sans-Serif" font-size="10.00">+ InteractionRecord()</text>
<text text-anchor="start" x="97.5" y="-497.5" font-family="Helvetica,sans-Serif" font-size="10.00">+ InteractionRecord()</text>
<text text-anchor="start" x="97.5" y="-486.5" font-family="Helvetica,sans-Serif" font-size="10.00">+ InteractionRecord()</text>
<text text-anchor="start" x="97.5" y="-475.5" font-family="Helvetica,sans-Serif" font-size="10.00">+ InteractionRecord()</text>
<text text-anchor="start" x="97.5" y="-464.5" font-family="Helvetica,sans-Serif" font-size="10.00">+ clear()</text>
<text text-anchor="start" x="97.5" y="-453.5" font-family="Helvetica,sans-Serif" font-size="10.00">+ isDummy()</text>
<text text-anchor="start" x="97.5" y="-442.5" font-family="Helvetica,sans-Serif" font-size="10.00">+ setFromNS()</text>
<text text-anchor="start" x="97.5" y="-431.5" font-family="Helvetica,sans-Serif" font-size="10.00">+ bc2ns()</text>
<text text-anchor="start" x="97.5" y="-420.5" font-family="Helvetica,sans-Serif" font-size="10.00">+ operator==()</text>
<text text-anchor="start" x="97.5" y="-409.5" font-family="Helvetica,sans-Serif" font-size="10.00">+ operator!=()</text>
<text text-anchor="start" x="97.5" y="-398.5" font-family="Helvetica,sans-Serif" font-size="10.00">+ differenceInBC()</text>
<text text-anchor="start" x="97.5" y="-387.5" font-family="Helvetica,sans-Serif" font-size="10.00">+ toLong()</text>
<text text-anchor="start" x="97.5" y="-376.5" font-family="Helvetica,sans-Serif" font-size="10.00">+ operator&gt;()</text>
<text text-anchor="start" x="97.5" y="-365.5" font-family="Helvetica,sans-Serif" font-size="10.00">+ operator&gt;=()</text>
<text text-anchor="start" x="97.5" y="-354.5" font-family="Helvetica,sans-Serif" font-size="10.00">+ operator&lt;()</text>
<text text-anchor="start" x="97.5" y="-343.5" font-family="Helvetica,sans-Serif" font-size="10.00">+ operator&lt;=()</text>
<text text-anchor="start" x="97.5" y="-332.5" font-family="Helvetica,sans-Serif" font-size="10.00">+ operator&#45;&#45;()</text>
<text text-anchor="start" x="97.5" y="-321.5" font-family="Helvetica,sans-Serif" font-size="10.00">+ operator&#45;&#45;()</text>
<text text-anchor="start" x="97.5" y="-310.5" font-family="Helvetica,sans-Serif" font-size="10.00">+ operator++()</text>
<text text-anchor="start" x="97.5" y="-299.5" font-family="Helvetica,sans-Serif" font-size="10.00">+ operator++()</text>
<text text-anchor="start" x="97.5" y="-288.5" font-family="Helvetica,sans-Serif" font-size="10.00">+ operator+=()</text>
<text text-anchor="start" x="97.5" y="-277.5" font-family="Helvetica,sans-Serif" font-size="10.00">+ operator&#45;=()</text>
<text text-anchor="start" x="97.5" y="-266.5" font-family="Helvetica,sans-Serif" font-size="10.00">+ operator+=()</text>
<text text-anchor="start" x="97.5" y="-255.5" font-family="Helvetica,sans-Serif" font-size="10.00">+ operator&#45;=()</text>
<text text-anchor="start" x="97.5" y="-244.5" font-family="Helvetica,sans-Serif" font-size="10.00">+ operator+()</text>
<text text-anchor="start" x="97.5" y="-233.5" font-family="Helvetica,sans-Serif" font-size="10.00">+ operator&#45;()</text>
<text text-anchor="start" x="97.5" y="-222.5" font-family="Helvetica,sans-Serif" font-size="10.00">+ operator+()</text>
<text text-anchor="start" x="97.5" y="-211.5" font-family="Helvetica,sans-Serif" font-size="10.00">+ operator&#45;()</text>
<text text-anchor="start" x="97.5" y="-200.5" font-family="Helvetica,sans-Serif" font-size="10.00">+ print()</text>
<text text-anchor="start" x="97.5" y="-189.5" font-family="Helvetica,sans-Serif" font-size="10.00">+ ClassDefNV()</text>
<text text-anchor="start" x="97.5" y="-178.5" font-family="Helvetica,sans-Serif" font-size="10.00">+ bc2ns()</text>
<text text-anchor="start" x="97.5" y="-167.5" font-family="Helvetica,sans-Serif" font-size="10.00">+ ns2bc()</text>
</a>
</g>
</g>
<!-- Node2&#45;&gt;Node1 -->
<g id="edge1" class="edge"><title>Node2&#45;&gt;Node1</title>
<path fill="none" stroke="midnightblue" d="M204.293,-192.736C218.449,-166.499 235.416,-141.104 255.5,-120 278.451,-95.8836 311.861,-78.6006 338.929,-67.4941"/>
<polygon fill="none" stroke="midnightblue" points="201.156,-191.181 199.599,-201.661 207.352,-194.439 201.156,-191.181"/>
</g>
<!-- Node3 -->
<g id="node3" class="node"><title>Node3</title>
<polygon fill="none" stroke="#bfbfbf" points="0,-617.5 0,-674.5 45,-674.5 45,-617.5 0,-617.5"/>
<text text-anchor="middle" x="22.5" y="-662.5" font-family="Helvetica,sans-Serif" font-size="10.00">double</text>
<polyline fill="none" stroke="#bfbfbf" points="0,-655.5 45,-655.5 "/>
<text text-anchor="middle" x="22.5" y="-643.5" font-family="Helvetica,sans-Serif" font-size="10.00"> </text>
<polyline fill="none" stroke="#bfbfbf" points="0,-636.5 45,-636.5 "/>
<text text-anchor="middle" x="22.5" y="-624.5" font-family="Helvetica,sans-Serif" font-size="10.00"> </text>
</g>
<!-- Node3&#45;&gt;Node2 -->
<g id="edge2" class="edge"><title>Node3&#45;&gt;Node2</title>
<path fill="none" stroke="#404040" d="M29.1158,-617.193C32.372,-604.741 36.6431,-589.972 41.5,-577 53.7725,-544.223 69.0953,-509.62 84.1404,-477.927"/>
<polygon fill="none" stroke="#404040" points="84.2635,-477.67 83.2464,-470.531 89.4451,-466.846 90.4622,-473.985 84.2635,-477.67"/>
<text text-anchor="middle" x="74.5" y="-585.5" font-family="Helvetica,sans-Serif" font-size="10.00"> +DummyTime</text>
</g>
<!-- Node4 -->
<g id="node4" class="node"><title>Node4</title>
<polygon fill="none" stroke="#bfbfbf" points="86,-617.5 86,-674.5 137,-674.5 137,-617.5 86,-617.5"/>
<text text-anchor="middle" x="111.5" y="-662.5" font-family="Helvetica,sans-Serif" font-size="10.00">uint16_t</text>
<polyline fill="none" stroke="#bfbfbf" points="86,-655.5 137,-655.5 "/>
<text text-anchor="middle" x="111.5" y="-643.5" font-family="Helvetica,sans-Serif" font-size="10.00"> </text>
<polyline fill="none" stroke="#bfbfbf" points="86,-636.5 137,-636.5 "/>
<text text-anchor="middle" x="111.5" y="-624.5" font-family="Helvetica,sans-Serif" font-size="10.00"> </text>
</g>
<!-- Node4&#45;&gt;Node2 -->
<g id="edge3" class="edge"><title>Node4&#45;&gt;Node2</title>
<path fill="none" stroke="#404040" d="M111.08,-617.499C111.103,-605.106 111.424,-590.298 112.5,-577 112.669,-574.917 112.845,-572.824 113.028,-570.721"/>
<polygon fill="none" stroke="#404040" points="113.044,-570.54 109.615,-564.197 114.152,-558.592 117.581,-564.935 113.044,-570.54"/>
<text text-anchor="middle" x="141.5" y="-591" font-family="Helvetica,sans-Serif" font-size="10.00"> +DummyBC</text>
<text text-anchor="middle" x="141.5" y="-580" font-family="Helvetica,sans-Serif" font-size="10.00">+bc</text>
</g>
<!-- Node5 -->
<g id="node5" class="node"><title>Node5</title>
<polygon fill="none" stroke="#bfbfbf" points="205,-617.5 205,-674.5 256,-674.5 256,-617.5 205,-617.5"/>
<text text-anchor="middle" x="230.5" y="-662.5" font-family="Helvetica,sans-Serif" font-size="10.00">uint32_t</text>
<polyline fill="none" stroke="#bfbfbf" points="205,-655.5 256,-655.5 "/>
<text text-anchor="middle" x="230.5" y="-643.5" font-family="Helvetica,sans-Serif" font-size="10.00"> </text>
<polyline fill="none" stroke="#bfbfbf" points="205,-636.5 256,-636.5 "/>
<text text-anchor="middle" x="230.5" y="-624.5" font-family="Helvetica,sans-Serif" font-size="10.00"> </text>
</g>
<!-- Node5&#45;&gt;Node1 -->
<g id="edge5" class="edge"><title>Node5&#45;&gt;Node1</title>
<path fill="none" stroke="#404040" d="M248.178,-617.134C251.119,-611.337 253.772,-605.123 255.5,-599 308.57,-410.967 199.869,-338.857 278.5,-160 289.778,-134.347 310.06,-111.322 329.884,-93.188"/>
<polygon fill="none" stroke="#404040" points="329.929,-93.1485 331.781,-86.1793 338.927,-85.2086 337.075,-92.1778 329.929,-93.1485"/>
<text text-anchor="middle" x="321.5" y="-362.5" font-family="Helvetica,sans-Serif" font-size="10.00"> +AllChannelsMask</text>
<text text-anchor="middle" x="321.5" y="-351.5" font-family="Helvetica,sans-Serif" font-size="10.00">+trigChanMask</text>
</g>
<!-- Node5&#45;&gt;Node2 -->
<g id="edge4" class="edge"><title>Node5&#45;&gt;Node2</title>
<path fill="none" stroke="#404040" d="M204.937,-617.466C200.589,-611.689 196.512,-605.398 193.5,-599 189.165,-589.791 185.211,-580.205 181.607,-570.394"/>
<polygon fill="none" stroke="#404040" points="181.505,-570.105 175.745,-565.768 177.533,-558.782 183.294,-563.119 181.505,-570.105"/>
<text text-anchor="middle" x="224.5" y="-591" font-family="Helvetica,sans-Serif" font-size="10.00"> +orbit</text>
<text text-anchor="middle" x="224.5" y="-580" font-family="Helvetica,sans-Serif" font-size="10.00">+DummyOrbit</text>
</g>
<!-- Node6 -->
<g id="node6" class="node"><title>Node6</title>
<polygon fill="none" stroke="#bfbfbf" points="374,-331 374,-388 409,-388 409,-331 374,-331"/>
<text text-anchor="middle" x="391.5" y="-376" font-family="Helvetica,sans-Serif" font-size="10.00">bool</text>
<polyline fill="none" stroke="#bfbfbf" points="374,-369 409,-369 "/>
<text text-anchor="middle" x="391.5" y="-357" font-family="Helvetica,sans-Serif" font-size="10.00"> </text>
<polyline fill="none" stroke="#bfbfbf" points="374,-350 409,-350 "/>
<text text-anchor="middle" x="391.5" y="-338" font-family="Helvetica,sans-Serif" font-size="10.00"> </text>
</g>
<!-- Node6&#45;&gt;Node1 -->
<g id="edge6" class="edge"><title>Node6&#45;&gt;Node1</title>
<path fill="none" stroke="#404040" d="M390.586,-330.821C389.26,-289.655 386.817,-209.857 385.5,-142 385.323,-132.875 385.175,-123.229 385.051,-113.775"/>
<polygon fill="none" stroke="#404040" points="385.048,-113.516 380.976,-107.565 384.903,-101.517 388.975,-107.468 385.048,-113.516"/>
<text text-anchor="middle" x="423.5" y="-134" font-family="Helvetica,sans-Serif" font-size="10.00"> +triggerChecked</text>
<text text-anchor="middle" x="423.5" y="-123" font-family="Helvetica,sans-Serif" font-size="10.00">+digitized</text>
</g>
<!-- Node7 -->
<g id="node7" class="node"><title>Node7</title>
<polygon fill="none" stroke="#bfbfbf" points="433,-325.5 433,-393.5 534,-393.5 534,-325.5 433,-325.5"/>
<text text-anchor="start" x="441" y="-381.5" font-family="Helvetica,sans-Serif" font-size="10.00">vector&lt; o2::zdc::o2</text>
<text text-anchor="middle" x="483.5" y="-370.5" font-family="Helvetica,sans-Serif" font-size="10.00">::zdc::MCLabel &gt;</text>
<polyline fill="none" stroke="#bfbfbf" points="433,-363.5 534,-363.5 "/>
<text text-anchor="middle" x="483.5" y="-351.5" font-family="Helvetica,sans-Serif" font-size="10.00"> </text>
<polyline fill="none" stroke="#bfbfbf" points="433,-344.5 534,-344.5 "/>
<text text-anchor="middle" x="483.5" y="-332.5" font-family="Helvetica,sans-Serif" font-size="10.00"> </text>
</g>
<!-- Node7&#45;&gt;Node1 -->
<g id="edge7" class="edge"><title>Node7&#45;&gt;Node1</title>
<path fill="none" stroke="#404040" d="M487.831,-325.166C492.506,-277.035 495.282,-186.557 461.5,-120 455.991,-109.146 447.946,-99.2461 439.11,-90.5632"/>
<polygon fill="none" stroke="#404040" points="438.927,-90.3962 431.8,-89.297 430.074,-82.2956 437.201,-83.3948 438.927,-90.3962"/>
<text text-anchor="middle" x="487" y="-128.5" font-family="Helvetica,sans-Serif" font-size="10.00"> +labels</text>
</g>
<!-- Node8 -->
<g id="node8" class="node"><title>Node8</title>
<polygon fill="none" stroke="#bfbfbf" points="552.5,-325.5 552.5,-393.5 680.5,-393.5 680.5,-325.5 552.5,-325.5"/>
<text text-anchor="start" x="560.5" y="-381.5" font-family="Helvetica,sans-Serif" font-size="10.00">array&lt; ChannelBCDataF,</text>
<text text-anchor="middle" x="616.5" y="-370.5" font-family="Helvetica,sans-Serif" font-size="10.00"> NChannels &gt;</text>
<polyline fill="none" stroke="#bfbfbf" points="552.5,-363.5 680.5,-363.5 "/>
<text text-anchor="middle" x="616.5" y="-351.5" font-family="Helvetica,sans-Serif" font-size="10.00"> </text>
<polyline fill="none" stroke="#bfbfbf" points="552.5,-344.5 680.5,-344.5 "/>
<text text-anchor="middle" x="616.5" y="-332.5" font-family="Helvetica,sans-Serif" font-size="10.00"> </text>
</g>
<!-- Node8&#45;&gt;Node1 -->
<g id="edge8" class="edge"><title>Node8&#45;&gt;Node1</title>
<path fill="none" stroke="#404040" d="M611.143,-325.479C600.905,-273.479 573.5,-172.989 508.5,-120 488.232,-103.477 463.366,-88.9325 441.235,-77.58"/>
<polygon fill="none" stroke="#404040" points="441.021,-77.4728 433.865,-78.3666 430.288,-72.1053 437.444,-71.2115 441.021,-77.4728"/>
<text text-anchor="middle" x="543.5" y="-128.5" font-family="Helvetica,sans-Serif" font-size="10.00"> +data</text>
</g>
</g>
</svg>
