<?xml version="1.0" encoding="UTF-8" standalone="no"?>
<!DOCTYPE svg PUBLIC "-//W3C//DTD SVG 1.1//EN"
 "http://www.w3.org/Graphics/SVG/1.1/DTD/svg11.dtd">
<!-- Generated by graphviz version 2.38.0 (20140413.2041)
 -->
<!-- Title: /home/travis/build/AliceO2Group/AliceO2/Detectors/EMCAL/reconstruction/src/Clusterizer.cxx Pages: 1 -->
<!--zoomable 385 -->
<svg id="main" version="1.1" xmlns="http://www.w3.org/2000/svg" xmlns:xlink="http://www.w3.org/1999/xlink" xml:space="preserve" onload="init(evt)">
<style type="text/css"><![CDATA[
.edge:hover path { stroke: red; }
.edge:hover polygon { stroke: red; fill: red; }
]]></style>
<script type="text/javascript"><![CDATA[
var edges = document.getElementsByTagName('g');
if (edges && edges.length) {
  for (var i=0;i<edges.length;i++) {
    if (edges[i].id.substr(0,4)=='edge') {
      edges[i].setAttribute('class','edge');
    }
  }
}
]]></script>
        <defs>
                <circle id="rim" cx="0" cy="0" r="7"/>
                <circle id="rim2" cx="0" cy="0" r="3.5"/>
                <g id="zoomPlus">
                        <use xlink:href="#rim" fill="#404040">
                                <set attributeName="fill" to="#808080" begin="zoomplus.mouseover" end="zoomplus.mouseout"/>
                        </use>
                        <path d="M-4,0h8M0,-4v8" fill="none" stroke="white" stroke-width="1.5" pointer-events="none"/>
                </g>
                <g id="zoomMin">
                        <use xlink:href="#rim" fill="#404040">
                                <set attributeName="fill" to="#808080" begin="zoomminus.mouseover" end="zoomminus.mouseout"/>
                        </use>
                        <path d="M-4,0h8" fill="none" stroke="white" stroke-width="1.5" pointer-events="none"/>
                </g>
                <g id="dirArrow">
                        <path fill="none" stroke="white" stroke-width="1.5" d="M0,-3.0v7 M-2.5,-0.5L0,-3.0L2.5,-0.5"/>
                </g>
               <g id="resetDef">
                       <use xlink:href="#rim2" fill="#404040">
                               <set attributeName="fill" to="#808080" begin="reset.mouseover" end="reset.mouseout"/>
                       </use>
               </g>
        </defs>

<script type="text/javascript">
var viewWidth = 2339;
var viewHeight = 385;
var sectionId = 'dynsection-0';
</script>
<script xlink:href="../../svgpan.js"/>
<svg id="graph" class="graph">
<g id="viewport">
<title>/home/travis/build/AliceO2Group/AliceO2/Detectors/EMCAL/reconstruction/src/Clusterizer.cxx</title>
<!-- Node1 -->
<g id="node1" class="node"><title>Node1</title>
<polygon fill="#bfbfbf" stroke="black" points="764,-324.5 764,-376.5 928,-376.5 928,-324.5 764,-324.5"/>
<text text-anchor="start" x="772" y="-364.5" font-family="Helvetica,sans-Serif" font-size="10.00">/home/travis/build</text>
<text text-anchor="start" x="772" y="-353.5" font-family="Helvetica,sans-Serif" font-size="10.00">/AliceO2Group/AliceO2</text>
<text text-anchor="start" x="772" y="-342.5" font-family="Helvetica,sans-Serif" font-size="10.00">/Detectors/EMCAL/reconstruction</text>
<text text-anchor="middle" x="846" y="-331.5" font-family="Helvetica,sans-Serif" font-size="10.00">/src/Clusterizer.cxx</text>
</g>
<!-- Node2 -->
<g id="node2" class="node"><title>Node2</title>
<polygon fill="none" stroke="#bfbfbf" points="746,-263 746,-282 792,-282 792,-263 746,-263"/>
<text text-anchor="middle" x="769" y="-270" font-family="Helvetica,sans-Serif" font-size="10.00">cstring</text>
</g>
<!-- Node1&#45;&gt;Node2 -->
<g id="edge1" class="edge"><title>Node1&#45;&gt;Node2</title>
<path fill="none" stroke="midnightblue" d="M820.36,-324.193C808.761,-312.745 795.403,-299.56 785.218,-289.507"/>
<polygon fill="midnightblue" stroke="midnightblue" points="787.399,-286.743 777.823,-282.209 782.482,-291.725 787.399,-286.743"/>
</g>
<!-- Node3 -->
<g id="node3" class="node"><title>Node3</title>
<polygon fill="none" stroke="#bfbfbf" points="810.5,-263 810.5,-282 881.5,-282 881.5,-263 810.5,-263"/>
<text text-anchor="middle" x="846" y="-270" font-family="Helvetica,sans-Serif" font-size="10.00">FairLogger.h</text>
</g>
<!-- Node1&#45;&gt;Node3 -->
<g id="edge2" class="edge"><title>Node1&#45;&gt;Node3</title>
<path fill="none" stroke="midnightblue" d="M846,-324.193C846,-313.765 846,-301.896 846,-292.266"/>
<polygon fill="midnightblue" stroke="midnightblue" points="849.5,-292.209 846,-282.209 842.5,-292.209 849.5,-292.209"/>
</g>
<!-- Node4 -->
<g id="node4" class="node"><title>Node4</title>
<g id="a_node4"><a xlink:href="../../d5/d67/Detectors_2EMCAL_2reconstruction_2include_2EMCALReconstruction_2Clusterizer_8h.html" target="_top" xlink:title="EMCALReconstruction\l/Clusterizer.h">
<polygon fill="none" stroke="black" points="899.5,-257.5 899.5,-287.5 1016.5,-287.5 1016.5,-257.5 899.5,-257.5"/>
<text text-anchor="start" x="907.5" y="-275.5" font-family="Helvetica,sans-Serif" font-size="10.00">EMCALReconstruction</text>
<text text-anchor="middle" x="958" y="-264.5" font-family="Helvetica,sans-Serif" font-size="10.00">/Clusterizer.h</text>
</a>
</g>
</g>
<!-- Node1&#45;&gt;Node4 -->
<g id="edge3" class="edge"><title>Node1&#45;&gt;Node4</title>
<path fill="none" stroke="midnightblue" d="M882.983,-324.404C897.863,-314.307 914.776,-302.831 928.771,-293.334"/>
<polygon fill="midnightblue" stroke="midnightblue" points="930.755,-296.218 937.064,-287.707 926.824,-290.425 930.755,-296.218"/>
</g>
<!-- Node5 -->
<g id="node5" class="node"><title>Node5</title>
<polygon fill="none" stroke="#bfbfbf" points="910,-140 910,-159 948,-159 948,-140 910,-140"/>
<text text-anchor="middle" x="929" y="-147" font-family="Helvetica,sans-Serif" font-size="10.00">array</text>
</g>
<!-- Node4&#45;&gt;Node5 -->
<g id="edge4" class="edge"><title>Node4&#45;&gt;Node5</title>
<path fill="none" stroke="midnightblue" d="M954.559,-257.145C949.301,-235.203 939.264,-193.327 933.456,-169.091"/>
<polygon fill="midnightblue" stroke="midnightblue" points="936.784,-167.961 931.05,-159.052 929.977,-169.593 936.784,-167.961"/>
</g>
<!-- Node6 -->
<g id="node6" class="node"><title>Node6</title>
<polygon fill="none" stroke="#bfbfbf" points="717,-6 717,-25 773,-25 773,-6 717,-6"/>
<text text-anchor="middle" x="745" y="-13" font-family="Helvetica,sans-Serif" font-size="10.00">Rtypes.h</text>
</g>
<!-- Node4&#45;&gt;Node6 -->
<g id="edge5" class="edge"><title>Node4&#45;&gt;Node6</title>
<path fill="none" stroke="midnightblue" d="M1016.64,-269.896C1264.1,-262.137 2203.39,-222.261 2054,-67 2008.81,-20.0339 994.703,-16.6873 783.372,-16.5006"/>
<polygon fill="midnightblue" stroke="midnightblue" points="783.089,-13.0005 773.086,-16.4935 783.084,-20.0005 783.089,-13.0005"/>
</g>
<!-- Node7 -->
<g id="node7" class="node"><title>Node7</title>
<g id="a_node7"><a xlink:href="../../dc/d27/DataFormats_2Detectors_2EMCAL_2include_2DataFormatsEMCAL_2Cluster_8h.html" target="_top" xlink:title="DataFormatsEMCAL/Cluster.h">
<polygon fill="none" stroke="black" points="778.5,-201.5 778.5,-220.5 929.5,-220.5 929.5,-201.5 778.5,-201.5"/>
<text text-anchor="middle" x="854" y="-208.5" font-family="Helvetica,sans-Serif" font-size="10.00">DataFormatsEMCAL/Cluster.h</text>
</a>
</g>
</g>
<!-- Node4&#45;&gt;Node7 -->
<g id="edge6" class="edge"><title>Node4&#45;&gt;Node7</title>
<path fill="none" stroke="midnightblue" d="M933.353,-257.399C916.683,-247.862 894.769,-235.325 878.195,-225.842"/>
<polygon fill="midnightblue" stroke="midnightblue" points="879.551,-222.586 869.133,-220.658 876.075,-228.662 879.551,-222.586"/>
</g>
<!-- Node14 -->
<g id="node14" class="node"><title>Node14</title>
<g id="a_node14"><a xlink:href="../../d3/d6e/DataFormats_2Detectors_2EMCAL_2include_2DataFormatsEMCAL_2Digit_8h.html" target="_top" xlink:title="DataFormatsEMCAL/Digit.h">
<polygon fill="none" stroke="black" points="229,-201.5 229,-220.5 369,-220.5 369,-201.5 229,-201.5"/>
<text text-anchor="middle" x="299" y="-208.5" font-family="Helvetica,sans-Serif" font-size="10.00">DataFormatsEMCAL/Digit.h</text>
</a>
</g>
</g>
<!-- Node4&#45;&gt;Node14 -->
<g id="edge16" class="edge"><title>Node4&#45;&gt;Node14</title>
<path fill="none" stroke="midnightblue" d="M899.484,-258.502C896.283,-257.953 893.106,-257.447 890,-257 708.58,-230.871 493.5,-219.317 379.433,-214.705"/>
<polygon fill="midnightblue" stroke="midnightblue" points="379.515,-211.206 369.385,-214.307 379.238,-218.2 379.515,-211.206"/>
</g>
<!-- Node20 -->
<g id="node20" class="node"><title>Node20</title>
<g id="a_node20"><a xlink:href="../../dd/da8/EMCAL_2base_2include_2EMCALBase_2Geometry_8h.html" target="_top" xlink:title="EMCALBase/Geometry.h">
<polygon fill="none" stroke="black" points="1197,-201.5 1197,-220.5 1325,-220.5 1325,-201.5 1197,-201.5"/>
<text text-anchor="middle" x="1261" y="-208.5" font-family="Helvetica,sans-Serif" font-size="10.00">EMCALBase/Geometry.h</text>
</a>
</g>
</g>
<!-- Node4&#45;&gt;Node20 -->
<g id="edge27" class="edge"><title>Node4&#45;&gt;Node20</title>
<path fill="none" stroke="midnightblue" d="M1016.78,-259.957C1072.07,-249.099 1154.14,-232.984 1207.61,-222.485"/>
<polygon fill="midnightblue" stroke="midnightblue" points="1208.44,-225.889 1217.57,-220.528 1207.09,-219.02 1208.44,-225.889"/>
</g>
<!-- Node7&#45;&gt;Node5 -->
<g id="edge7" class="edge"><title>Node7&#45;&gt;Node5</title>
<path fill="none" stroke="midnightblue" d="M864.746,-201.475C876.553,-192.108 895.743,-176.884 910.082,-165.508"/>
<polygon fill="midnightblue" stroke="midnightblue" points="912.615,-167.966 918.274,-159.009 908.265,-162.482 912.615,-167.966"/>
</g>
<!-- Node8 -->
<g id="node8" class="node"><title>Node8</title>
<polygon fill="none" stroke="#bfbfbf" points="655.5,-73 655.5,-92 700.5,-92 700.5,-73 655.5,-73"/>
<text text-anchor="middle" x="678" y="-80" font-family="Helvetica,sans-Serif" font-size="10.00">iosfwd</text>
</g>
<!-- Node7&#45;&gt;Node8 -->
<g id="edge8" class="edge"><title>Node7&#45;&gt;Node8</title>
<path fill="none" stroke="midnightblue" d="M790.3,-201.474C746.88,-194.231 694.844,-182.241 681,-165 666.905,-147.446 669.161,-120.258 672.895,-102.175"/>
<polygon fill="midnightblue" stroke="midnightblue" points="676.344,-102.801 675.277,-92.2599 669.538,-101.165 676.344,-102.801"/>
</g>
<!-- Node9 -->
<g id="node9" class="node"><title>Node9</title>
<polygon fill="none" stroke="#bfbfbf" points="988.5,-73 988.5,-92 1029.5,-92 1029.5,-73 988.5,-73"/>
<text text-anchor="middle" x="1009" y="-80" font-family="Helvetica,sans-Serif" font-size="10.00">string</text>
</g>
<!-- Node7&#45;&gt;Node9 -->
<g id="edge9" class="edge"><title>Node7&#45;&gt;Node9</title>
<path fill="none" stroke="midnightblue" d="M857.37,-201.357C863.756,-185.967 878.98,-153.594 901,-134 923.495,-113.984 955.298,-100.409 978.568,-92.4186"/>
<polygon fill="midnightblue" stroke="midnightblue" points="979.867,-95.6759 988.279,-89.2353 977.687,-89.0242 979.867,-95.6759"/>
</g>
<!-- Node10 -->
<g id="node10" class="node"><title>Node10</title>
<polygon fill="none" stroke="#bfbfbf" points="966,-140 966,-159 1010,-159 1010,-140 966,-140"/>
<text text-anchor="middle" x="988" y="-147" font-family="Helvetica,sans-Serif" font-size="10.00">vector</text>
</g>
<!-- Node7&#45;&gt;Node10 -->
<g id="edge10" class="edge"><title>Node7&#45;&gt;Node10</title>
<path fill="none" stroke="midnightblue" d="M874.199,-201.357C895.015,-192.407 928.373,-177.946 957,-165 958.188,-164.463 959.399,-163.911 960.622,-163.352"/>
<polygon fill="midnightblue" stroke="midnightblue" points="962.398,-166.387 970.004,-159.012 959.459,-160.034 962.398,-166.387"/>
</g>
<!-- Node11 -->
<g id="node11" class="node"><title>Node11</title>
<g id="a_node11"><a xlink:href="../../df/d5d/common_2include_2CommonDataFormat_2TimeStamp_8h.html" target="_top" xlink:title="CommonDataFormat/TimeStamp.h">
<polygon fill="none" stroke="black" points="214,-140 214,-159 384,-159 384,-140 214,-140"/>
<text text-anchor="middle" x="299" y="-147" font-family="Helvetica,sans-Serif" font-size="10.00">CommonDataFormat/TimeStamp.h</text>
</a>
</g>
</g>
<!-- Node7&#45;&gt;Node11 -->
<g id="edge11" class="edge"><title>Node7&#45;&gt;Node11</title>
<path fill="none" stroke="midnightblue" d="M778.344,-202.03C693.706,-193.096 552.517,-178.138 431,-165 416.567,-163.44 401.248,-161.769 386.352,-160.138"/>
<polygon fill="midnightblue" stroke="midnightblue" points="386.445,-156.627 376.123,-159.017 385.682,-163.586 386.445,-156.627"/>
</g>
<!-- Node13 -->
<g id="node13" class="node"><title>Node13</title>
<g id="a_node13"><a xlink:href="../../de/d64/RangeReference_8h.html" target="_top" xlink:title="Class to refer to the 1st entry and N elements of some group in the continuous container. ">
<polygon fill="none" stroke="black" points="440.5,-140 440.5,-159 633.5,-159 633.5,-140 440.5,-140"/>
<text text-anchor="middle" x="537" y="-147" font-family="Helvetica,sans-Serif" font-size="10.00">CommonDataFormat/RangeReference.h</text>
</a>
</g>
</g>
<!-- Node7&#45;&gt;Node13 -->
<g id="edge14" class="edge"><title>Node7&#45;&gt;Node13</title>
<path fill="none" stroke="midnightblue" d="M808.582,-201.475C751.498,-190.761 653.582,-172.382 592.228,-160.866"/>
<polygon fill="midnightblue" stroke="midnightblue" points="592.808,-157.414 582.334,-159.009 591.517,-164.294 592.808,-157.414"/>
</g>
<!-- Node12 -->
<g id="node12" class="node"><title>Node12</title>
<g id="a_node12"><a xlink:href="../../d2/d45/GPUCommonRtypes_8h.html" target="_top" xlink:title="GPUCommonRtypes.h">
<polygon fill="none" stroke="black" points="478,-73 478,-92 596,-92 596,-73 478,-73"/>
<text text-anchor="middle" x="537" y="-80" font-family="Helvetica,sans-Serif" font-size="10.00">GPUCommonRtypes.h</text>
</a>
</g>
</g>
<!-- Node11&#45;&gt;Node12 -->
<g id="edge12" class="edge"><title>Node11&#45;&gt;Node12</title>
<path fill="none" stroke="midnightblue" d="M330.605,-139.869C373.131,-128.254 448.846,-107.576 495.798,-94.7528"/>
<polygon fill="midnightblue" stroke="midnightblue" points="496.919,-98.0747 505.644,-92.0637 495.075,-91.322 496.919,-98.0747"/>
</g>
<!-- Node12&#45;&gt;Node6 -->
<g id="edge13" class="edge"><title>Node12&#45;&gt;Node6</title>
<path fill="none" stroke="midnightblue" d="M564.621,-72.8685C601.475,-61.3514 666.85,-40.9219 707.954,-28.077"/>
<polygon fill="midnightblue" stroke="midnightblue" points="709.095,-31.3872 717.596,-25.0637 707.007,-24.7058 709.095,-31.3872"/>
</g>
<!-- Node13&#45;&gt;Node12 -->
<g id="edge15" class="edge"><title>Node13&#45;&gt;Node12</title>
<path fill="none" stroke="midnightblue" d="M537,-139.734C537,-130.183 537,-114.618 537,-102.283"/>
<polygon fill="midnightblue" stroke="midnightblue" points="540.5,-102.127 537,-92.1273 533.5,-102.127 540.5,-102.127"/>
</g>
<!-- Node14&#45;&gt;Node6 -->
<g id="edge19" class="edge"><title>Node14&#45;&gt;Node6</title>
<path fill="none" stroke="midnightblue" d="M258.853,-201.429C239.025,-194.953 216.862,-183.83 205,-165 197.656,-153.343 196.54,-144.875 205,-134 267.134,-54.1273 593.522,-26.1049 706.483,-18.7154"/>
<polygon fill="midnightblue" stroke="midnightblue" points="706.975,-22.1913 716.732,-18.0636 706.53,-15.2054 706.975,-22.1913"/>
</g>
<!-- Node14&#45;&gt;Node8 -->
<g id="edge17" class="edge"><title>Node14&#45;&gt;Node8</title>
<path fill="none" stroke="midnightblue" d="M320.672,-201.371C340.235,-193.18 369.473,-179.928 393,-165 411.404,-153.323 411.308,-143.343 431,-134 433.44,-132.842 579.035,-103.432 645.52,-90.0373"/>
<polygon fill="midnightblue" stroke="midnightblue" points="646.365,-93.4375 655.477,-88.0318 644.982,-86.5753 646.365,-93.4375"/>
</g>
<!-- Node14&#45;&gt;Node11 -->
<g id="edge20" class="edge"><title>Node14&#45;&gt;Node11</title>
<path fill="none" stroke="midnightblue" d="M299,-201.475C299,-193.08 299,-179.981 299,-169.163"/>
<polygon fill="midnightblue" stroke="midnightblue" points="302.5,-169.009 299,-159.009 295.5,-169.009 302.5,-169.009"/>
</g>
<!-- Node15 -->
<g id="node15" class="node"><title>Node15</title>
<polygon fill="none" stroke="#bfbfbf" points="0,-140 0,-159 44,-159 44,-140 0,-140"/>
<text text-anchor="middle" x="22" y="-147" font-family="Helvetica,sans-Serif" font-size="10.00">cmath</text>
</g>
<!-- Node14&#45;&gt;Node15 -->
<g id="edge18" class="edge"><title>Node14&#45;&gt;Node15</title>
<path fill="none" stroke="midnightblue" d="M228.911,-202.049C179.045,-195.221 110.901,-183.497 53,-165 51.3268,-164.465 49.6267,-163.861 47.9281,-163.21"/>
<polygon fill="midnightblue" stroke="midnightblue" points="48.986,-159.856 38.4158,-159.133 46.2285,-166.29 48.986,-159.856"/>
</g>
<!-- Node16 -->
<g id="node16" class="node"><title>Node16</title>
<g id="a_node16"><a xlink:href="../../dd/dda/DataFormats_2Detectors_2EMCAL_2include_2DataFormatsEMCAL_2Constants_8h.html" target="_top" xlink:title="DataFormatsEMCAL/Constants.h">
<polygon fill="none" stroke="black" points="690,-140 690,-159 854,-159 854,-140 690,-140"/>
<text text-anchor="middle" x="772" y="-147" font-family="Helvetica,sans-Serif" font-size="10.00">DataFormatsEMCAL/Constants.h</text>
</a>
</g>
</g>
<!-- Node14&#45;&gt;Node16 -->
<g id="edge21" class="edge"><title>Node14&#45;&gt;Node16</title>
<path fill="none" stroke="midnightblue" d="M366.769,-201.475C453.438,-190.573 603.186,-171.736 694.357,-160.267"/>
<polygon fill="midnightblue" stroke="midnightblue" points="694.871,-163.73 704.356,-159.009 693.998,-156.785 694.871,-163.73"/>
</g>
<!-- Node19 -->
<g id="node19" class="node"><title>Node19</title>
<polygon fill="none" stroke="#bfbfbf" points="62.5,-134.5 62.5,-164.5 157.5,-164.5 157.5,-134.5 62.5,-134.5"/>
<text text-anchor="start" x="70.5" y="-152.5" font-family="Helvetica,sans-Serif" font-size="10.00">boost/serialization</text>
<text text-anchor="middle" x="110" y="-141.5" font-family="Helvetica,sans-Serif" font-size="10.00">/base_object.hpp</text>
</g>
<!-- Node14&#45;&gt;Node19 -->
<g id="edge26" class="edge"><title>Node14&#45;&gt;Node19</title>
<path fill="none" stroke="midnightblue" d="M271.921,-201.475C243.931,-192.664 199.476,-178.668 164.222,-167.57"/>
<polygon fill="midnightblue" stroke="midnightblue" points="165.133,-164.187 154.544,-164.523 163.031,-170.864 165.133,-164.187"/>
</g>
<!-- Node16&#45;&gt;Node6 -->
<g id="edge22" class="edge"><title>Node16&#45;&gt;Node6</title>
<path fill="none" stroke="midnightblue" d="M770.228,-139.839C765.899,-118.674 754.705,-63.9482 748.791,-35.0329"/>
<polygon fill="midnightblue" stroke="midnightblue" points="752.176,-34.1169 746.743,-25.0212 745.318,-35.5197 752.176,-34.1169"/>
</g>
<!-- Node16&#45;&gt;Node8 -->
<g id="edge23" class="edge"><title>Node16&#45;&gt;Node8</title>
<path fill="none" stroke="midnightblue" d="M759.323,-139.734C743.819,-129.013 717.359,-110.716 698.844,-97.9137"/>
<polygon fill="midnightblue" stroke="midnightblue" points="700.692,-94.9361 690.476,-92.1273 696.711,-100.694 700.692,-94.9361"/>
</g>
<!-- Node17 -->
<g id="node17" class="node"><title>Node17</title>
<polygon fill="none" stroke="#bfbfbf" points="862.5,-73 862.5,-92 921.5,-92 921.5,-73 862.5,-73"/>
<text text-anchor="middle" x="892" y="-80" font-family="Helvetica,sans-Serif" font-size="10.00">exception</text>
</g>
<!-- Node16&#45;&gt;Node17 -->
<g id="edge24" class="edge"><title>Node16&#45;&gt;Node17</title>
<path fill="none" stroke="midnightblue" d="M788.184,-139.734C808.426,-128.769 843.297,-109.881 866.986,-97.0495"/>
<polygon fill="midnightblue" stroke="midnightblue" points="868.947,-99.9677 876.073,-92.1273 865.613,-93.8127 868.947,-99.9677"/>
</g>
<!-- Node18 -->
<g id="node18" class="node"><title>Node18</title>
<polygon fill="none" stroke="#bfbfbf" points="773,-73 773,-92 819,-92 819,-73 773,-73"/>
<text text-anchor="middle" x="796" y="-80" font-family="Helvetica,sans-Serif" font-size="10.00">cstdint</text>
</g>
<!-- Node16&#45;&gt;Node18 -->
<g id="edge25" class="edge"><title>Node16&#45;&gt;Node18</title>
<path fill="none" stroke="midnightblue" d="M775.237,-139.734C778.835,-129.988 784.746,-113.981 789.342,-101.532"/>
<polygon fill="midnightblue" stroke="midnightblue" points="792.634,-102.721 792.815,-92.1273 786.067,-100.296 792.634,-102.721"/>
</g>
<!-- Node20&#45;&gt;Node9 -->
<g id="edge29" class="edge"><title>Node20&#45;&gt;Node9</title>
<path fill="none" stroke="midnightblue" d="M1325.26,-206.846C1402.26,-200.833 1515.55,-183.512 1470,-134 1404.93,-63.2671 1131.71,-123.337 1039,-98 1037.07,-97.4739 1035.12,-96.8262 1033.19,-96.0993"/>
<polygon fill="midnightblue" stroke="midnightblue" points="1034.4,-92.8108 1023.84,-92.0005 1031.59,-99.2216 1034.4,-92.8108"/>
</g>
<!-- Node20&#45;&gt;Node10 -->
<g id="edge31" class="edge"><title>Node20&#45;&gt;Node10</title>
<path fill="none" stroke="midnightblue" d="M1198.08,-201.481C1149.86,-194.131 1081.97,-182.001 1024,-165 1021.57,-164.287 1019.07,-163.47 1016.59,-162.595"/>
<polygon fill="midnightblue" stroke="midnightblue" points="1017.78,-159.304 1007.19,-159.033 1015.3,-165.85 1017.78,-159.304"/>
</g>
<!-- Node20&#45;&gt;Node16 -->
<g id="edge37" class="edge"><title>Node20&#45;&gt;Node16</title>
<path fill="none" stroke="midnightblue" d="M1196.82,-202.191C1108.23,-191.411 948.519,-171.978 852.177,-160.256"/>
<polygon fill="midnightblue" stroke="midnightblue" points="852.542,-156.774 842.193,-159.041 851.697,-163.723 852.542,-156.774"/>
</g>
<!-- Node20&#45;&gt;Node17 -->
<g id="edge28" class="edge"><title>Node20&#45;&gt;Node17</title>
<path fill="none" stroke="midnightblue" d="M1196.9,-203.638C1155.39,-197.676 1101.07,-186.328 1057,-165 1037.38,-155.506 1037.79,-145.045 1019,-134 990.704,-117.368 955.906,-103.966 929.895,-95.1585"/>
<polygon fill="midnightblue" stroke="midnightblue" points="930.982,-91.8314 920.389,-92.0109 928.782,-98.4766 930.982,-91.8314"/>
</g>
<!-- Node21 -->
<g id="node21" class="node"><title>Node21</title>
<polygon fill="none" stroke="#bfbfbf" points="1699,-140 1699,-159 1737,-159 1737,-140 1699,-140"/>
<text text-anchor="middle" x="1718" y="-147" font-family="Helvetica,sans-Serif" font-size="10.00">tuple</text>
</g>
<!-- Node20&#45;&gt;Node21 -->
<g id="edge30" class="edge"><title>Node20&#45;&gt;Node21</title>
<path fill="none" stroke="midnightblue" d="M1325.1,-210.342C1410.01,-209.207 1563.67,-201.609 1689,-165 1690.67,-164.512 1692.36,-163.93 1694.04,-163.284"/>
<polygon fill="midnightblue" stroke="midnightblue" points="1695.68,-166.385 1703.37,-159.092 1692.81,-160.001 1695.68,-166.385"/>
</g>
<!-- Node22 -->
<g id="node22" class="node"><title>Node22</title>
<polygon fill="none" stroke="#bfbfbf" points="1755,-140 1755,-159 1835,-159 1835,-140 1755,-140"/>
<text text-anchor="middle" x="1795" y="-147" font-family="Helvetica,sans-Serif" font-size="10.00">RStringView.h</text>
</g>
<!-- Node20&#45;&gt;Node22 -->
<g id="edge32" class="edge"><title>Node20&#45;&gt;Node22</title>
<path fill="none" stroke="midnightblue" d="M1325.11,-208.031C1418.47,-204.267 1596.94,-193.684 1746,-165 1750.48,-164.137 1755.14,-163.036 1759.73,-161.826"/>
<polygon fill="midnightblue" stroke="midnightblue" points="1760.87,-165.14 1769.55,-159.056 1758.97,-158.402 1760.87,-165.14"/>
</g>
<!-- Node23 -->
<g id="node23" class="node"><title>Node23</title>
<polygon fill="none" stroke="#bfbfbf" points="1048,-73 1048,-92 1124,-92 1124,-73 1048,-73"/>
<text text-anchor="middle" x="1086" y="-80" font-family="Helvetica,sans-Serif" font-size="10.00">TGeoMatrix.h</text>
</g>
<!-- Node20&#45;&gt;Node23 -->
<g id="edge33" class="edge"><title>Node20&#45;&gt;Node23</title>
<path fill="none" stroke="midnightblue" d="M1325.29,-209.449C1413.78,-206.561 1556.45,-192.981 1503,-134 1448.27,-73.6053 1218.11,-113.003 1138,-98 1133.13,-97.0884 1128.06,-95.9353 1123.07,-94.6792"/>
<polygon fill="midnightblue" stroke="midnightblue" points="1123.61,-91.2014 1113.05,-92.0008 1121.81,-97.964 1123.61,-91.2014"/>
</g>
<!-- Node24 -->
<g id="node24" class="node"><title>Node24</title>
<polygon fill="none" stroke="#bfbfbf" points="1066,-140 1066,-159 1128,-159 1128,-140 1066,-140"/>
<text text-anchor="middle" x="1097" y="-147" font-family="Helvetica,sans-Serif" font-size="10.00">TNamed.h</text>
</g>
<!-- Node20&#45;&gt;Node24 -->
<g id="edge34" class="edge"><title>Node20&#45;&gt;Node24</title>
<path fill="none" stroke="midnightblue" d="M1237.5,-201.475C1209.37,-191.269 1162.07,-174.108 1130.21,-162.549"/>
<polygon fill="midnightblue" stroke="midnightblue" points="1131.05,-159.13 1120.45,-159.009 1128.66,-165.71 1131.05,-159.13"/>
</g>
<!-- Node25 -->
<g id="node25" class="node"><title>Node25</title>
<polygon fill="none" stroke="#bfbfbf" points="1146,-140 1146,-159 1210,-159 1210,-140 1146,-140"/>
<text text-anchor="middle" x="1178" y="-147" font-family="Helvetica,sans-Serif" font-size="10.00">TParticle.h</text>
</g>
<!-- Node20&#45;&gt;Node25 -->
<g id="edge35" class="edge"><title>Node20&#45;&gt;Node25</title>
<path fill="none" stroke="midnightblue" d="M1249.11,-201.475C1235.8,-191.931 1214,-176.307 1198.04,-164.868"/>
<polygon fill="midnightblue" stroke="midnightblue" points="1200.04,-161.991 1189.87,-159.009 1195.96,-167.68 1200.04,-161.991"/>
</g>
<!-- Node26 -->
<g id="node26" class="node"><title>Node26</title>
<polygon fill="none" stroke="#bfbfbf" points="1228.5,-140 1228.5,-159 1293.5,-159 1293.5,-140 1228.5,-140"/>
<text text-anchor="middle" x="1261" y="-147" font-family="Helvetica,sans-Serif" font-size="10.00">TVector3.h</text>
</g>
<!-- Node20&#45;&gt;Node26 -->
<g id="edge36" class="edge"><title>Node20&#45;&gt;Node26</title>
<path fill="none" stroke="midnightblue" d="M1261,-201.475C1261,-193.08 1261,-179.981 1261,-169.163"/>
<polygon fill="midnightblue" stroke="midnightblue" points="1264.5,-169.009 1261,-159.009 1257.5,-169.009 1264.5,-169.009"/>
</g>
<!-- Node27 -->
<g id="node27" class="node"><title>Node27</title>
<g id="a_node27"><a xlink:href="../../d5/d5e/GeometryBase_8h.html" target="_top" xlink:title="EMCALBase/GeometryBase.h">
<polygon fill="none" stroke="black" points="1311,-140 1311,-159 1461,-159 1461,-140 1311,-140"/>
<text text-anchor="middle" x="1386" y="-147" font-family="Helvetica,sans-Serif" font-size="10.00">EMCALBase/GeometryBase.h</text>
</a>
</g>
</g>
<!-- Node20&#45;&gt;Node27 -->
<g id="edge38" class="edge"><title>Node20&#45;&gt;Node27</title>
<path fill="none" stroke="midnightblue" d="M1278.91,-201.475C1299.89,-191.49 1334.85,-174.848 1359.09,-163.307"/>
<polygon fill="midnightblue" stroke="midnightblue" points="1360.6,-166.467 1368.12,-159.009 1357.59,-160.147 1360.6,-166.467"/>
</g>
<!-- Node28 -->
<g id="node28" class="node"><title>Node28</title>
<g id="a_node28"><a xlink:href="../../dd/d76/Cartesian3D_8h.html" target="_top" xlink:title="MathUtils/Cartesian3D.h">
<polygon fill="none" stroke="black" points="1555.5,-140 1555.5,-159 1680.5,-159 1680.5,-140 1555.5,-140"/>
<text text-anchor="middle" x="1618" y="-147" font-family="Helvetica,sans-Serif" font-size="10.00">MathUtils/Cartesian3D.h</text>
</a>
</g>
</g>
<!-- Node20&#45;&gt;Node28 -->
<g id="edge40" class="edge"><title>Node20&#45;&gt;Node28</title>
<path fill="none" stroke="midnightblue" d="M1316.85,-201.474C1373.42,-192.733 1463.4,-178.54 1541,-165 1548.36,-163.716 1556.11,-162.315 1563.74,-160.907"/>
<polygon fill="midnightblue" stroke="midnightblue" points="1564.46,-164.332 1573.65,-159.061 1563.18,-157.45 1564.46,-164.332"/>
</g>
<!-- Node27&#45;&gt;Node9 -->
<g id="edge39" class="edge"><title>Node27&#45;&gt;Node9</title>
<path fill="none" stroke="midnightblue" d="M1338.07,-139.93C1326.29,-137.905 1313.7,-135.81 1302,-134 1185.41,-115.963 1151.95,-132.09 1039,-98 1037.32,-97.4944 1035.63,-96.9058 1033.93,-96.2609"/>
<polygon fill="midnightblue" stroke="midnightblue" points="1035.07,-92.9378 1024.51,-92.1374 1032.27,-99.3512 1035.07,-92.9378"/>
</g>
<!-- Node28&#45;&gt;Node6 -->
<g id="edge46" class="edge"><title>Node28&#45;&gt;Node6</title>
<path fill="none" stroke="midnightblue" d="M1565.3,-139.981C1551.55,-137.889 1536.74,-135.75 1523,-134 1367,-114.13 1316.27,-158.24 1171,-98 1150.87,-89.6509 1153.02,-75.6253 1133,-67 1070.49,-40.0658 868.1,-24.3551 783.121,-18.8006"/>
<polygon fill="midnightblue" stroke="midnightblue" points="783.323,-15.3065 773.119,-18.1585 782.875,-22.2921 783.323,-15.3065"/>
</g>
<!-- Node28&#45;&gt;Node8 -->
<g id="edge48" class="edge"><title>Node28&#45;&gt;Node8</title>
<path fill="none" stroke="midnightblue" d="M1555.4,-141.714C1529.06,-139.028 1498.06,-136.089 1470,-134 1156.68,-110.676 1076.32,-132.175 764,-98 746.22,-96.0545 726.538,-92.8171 710.495,-89.8944"/>
<polygon fill="midnightblue" stroke="midnightblue" points="711.006,-86.4295 700.534,-88.0358 709.722,-93.3107 711.006,-86.4295"/>
</g>
<!-- Node28&#45;&gt;Node23 -->
<g id="edge47" class="edge"><title>Node28&#45;&gt;Node23</title>
<path fill="none" stroke="midnightblue" d="M1576.56,-139.933C1565.08,-137.768 1552.59,-135.605 1541,-134 1362.88,-109.332 1314.9,-130.285 1138,-98 1133.13,-97.1108 1128.05,-95.9709 1123.06,-94.7216"/>
<polygon fill="midnightblue" stroke="midnightblue" points="1123.6,-91.2436 1113.04,-92.0491 1121.8,-98.0073 1123.6,-91.2436"/>
</g>
<!-- Node29 -->
<g id="node29" class="node"><title>Node29</title>
<polygon fill="none" stroke="#bfbfbf" points="1180.5,-67.5 1180.5,-97.5 1331.5,-97.5 1331.5,-67.5 1180.5,-67.5"/>
<text text-anchor="start" x="1188.5" y="-85.5" font-family="Helvetica,sans-Serif" font-size="10.00">Math/GenVector/Displacement</text>
<text text-anchor="middle" x="1256" y="-74.5" font-family="Helvetica,sans-Serif" font-size="10.00">Vector3D.h</text>
</g>
<!-- Node28&#45;&gt;Node29 -->
<g id="edge41" class="edge"><title>Node28&#45;&gt;Node29</title>
<path fill="none" stroke="midnightblue" d="M1573.23,-139.985C1562.66,-137.999 1551.44,-135.907 1541,-134 1474.08,-121.771 1398.24,-108.354 1341.63,-98.4255"/>
<polygon fill="midnightblue" stroke="midnightblue" points="1342.1,-94.9547 1331.65,-96.6758 1340.89,-101.85 1342.1,-94.9547"/>
</g>
<!-- Node30 -->
<g id="node30" class="node"><title>Node30</title>
<polygon fill="none" stroke="#bfbfbf" points="1350,-73 1350,-92 1526,-92 1526,-73 1350,-73"/>
<text text-anchor="middle" x="1438" y="-80" font-family="Helvetica,sans-Serif" font-size="10.00">Math/GenVector/PositionVector3D.h</text>
</g>
<!-- Node28&#45;&gt;Node30 -->
<g id="edge42" class="edge"><title>Node28&#45;&gt;Node30</title>
<path fill="none" stroke="midnightblue" d="M1594.1,-139.869C1562.54,-128.473 1506.82,-108.353 1471.19,-95.4869"/>
<polygon fill="midnightblue" stroke="midnightblue" points="1472.31,-92.1682 1461.71,-92.0637 1469.93,-98.7521 1472.31,-92.1682"/>
</g>
<!-- Node31 -->
<g id="node31" class="node"><title>Node31</title>
<polygon fill="none" stroke="#bfbfbf" points="1543.5,-73 1543.5,-92 1692.5,-92 1692.5,-73 1543.5,-73"/>
<text text-anchor="middle" x="1618" y="-80" font-family="Helvetica,sans-Serif" font-size="10.00">Math/GenVector/Rotation3D.h</text>
</g>
<!-- Node28&#45;&gt;Node31 -->
<g id="edge43" class="edge"><title>Node28&#45;&gt;Node31</title>
<path fill="none" stroke="midnightblue" d="M1618,-139.734C1618,-130.183 1618,-114.618 1618,-102.283"/>
<polygon fill="midnightblue" stroke="midnightblue" points="1621.5,-102.127 1618,-92.1273 1614.5,-102.127 1621.5,-102.127"/>
</g>
<!-- Node32 -->
<g id="node32" class="node"><title>Node32</title>
<polygon fill="none" stroke="#bfbfbf" points="1711,-73 1711,-92 1867,-92 1867,-73 1711,-73"/>
<text text-anchor="middle" x="1789" y="-80" font-family="Helvetica,sans-Serif" font-size="10.00">Math/GenVector/Transform3D.h</text>
</g>
<!-- Node28&#45;&gt;Node32 -->
<g id="edge44" class="edge"><title>Node28&#45;&gt;Node32</title>
<path fill="none" stroke="midnightblue" d="M1640.71,-139.869C1670.56,-128.522 1723.17,-108.525 1757.03,-95.6522"/>
<polygon fill="midnightblue" stroke="midnightblue" points="1758.37,-98.8885 1766.47,-92.0637 1755.88,-92.3452 1758.37,-98.8885"/>
</g>
<!-- Node33 -->
<g id="node33" class="node"><title>Node33</title>
<polygon fill="none" stroke="#bfbfbf" points="1885,-73 1885,-92 2045,-92 2045,-73 1885,-73"/>
<text text-anchor="middle" x="1965" y="-80" font-family="Helvetica,sans-Serif" font-size="10.00">Math/GenVector/Translation3D.h</text>
</g>
<!-- Node28&#45;&gt;Node33 -->
<g id="edge45" class="edge"><title>Node28&#45;&gt;Node33</title>
<path fill="none" stroke="midnightblue" d="M1659.86,-139.945C1669.73,-137.961 1680.23,-135.88 1690,-134 1764.94,-119.574 1851.55,-103.821 1907.23,-93.8115"/>
<polygon fill="midnightblue" stroke="midnightblue" points="1908.04,-97.2232 1917.26,-92.0109 1906.8,-90.3334 1908.04,-97.2232"/>
</g>
<!-- Node34 -->
<g id="node34" class="node"><title>Node34</title>
<g id="a_node34"><a xlink:href="../../d2/dd0/Cartesian2D_8h.html" target="_top" xlink:title="MathUtils/Cartesian2D.h">
<polygon fill="none" stroke="black" points="2101.5,-73 2101.5,-92 2226.5,-92 2226.5,-73 2101.5,-73"/>
<text text-anchor="middle" x="2164" y="-80" font-family="Helvetica,sans-Serif" font-size="10.00">MathUtils/Cartesian2D.h</text>
</a>
</g>
</g>
<!-- Node28&#45;&gt;Node34 -->
<g id="edge49" class="edge"><title>Node28&#45;&gt;Node34</title>
<path fill="none" stroke="midnightblue" d="M1656.74,-139.958C1667.47,-137.793 1679.16,-135.624 1690,-134 1850.77,-109.922 1892.5,-116.625 2054,-98 2066.31,-96.5808 2079.37,-94.9596 2092.04,-93.3274"/>
<polygon fill="midnightblue" stroke="midnightblue" points="2092.62,-96.7809 2102.09,-92.0198 2091.72,-89.8394 2092.62,-96.7809"/>
</g>
<!-- Node35 -->
<g id="node35" class="node"><title>Node35</title>
<polygon fill="none" stroke="#bfbfbf" points="2179.5,-0.5 2179.5,-30.5 2330.5,-30.5 2330.5,-0.5 2179.5,-0.5"/>
<text text-anchor="start" x="2187.5" y="-18.5" font-family="Helvetica,sans-Serif" font-size="10.00">Math/GenVector/Displacement</text>
<text text-anchor="middle" x="2255" y="-7.5" font-family="Helvetica,sans-Serif" font-size="10.00">Vector2D.h</text>
</g>
<!-- Node34&#45;&gt;Node35 -->
<g id="edge50" class="edge"><title>Node34&#45;&gt;Node35</title>
<path fill="none" stroke="midnightblue" d="M2176.27,-72.7338C2189.16,-63.527 2209.87,-48.7328 2226.82,-36.6293"/>
<polygon fill="midnightblue" stroke="midnightblue" points="2229.17,-39.2495 2235.28,-30.589 2225.1,-33.5534 2229.17,-39.2495"/>
</g>
<!-- Node36 -->
<g id="node36" class="node"><title>Node36</title>
<polygon fill="none" stroke="#bfbfbf" points="1985,-6 1985,-25 2161,-25 2161,-6 1985,-6"/>
<text text-anchor="middle" x="2073" y="-13" font-family="Helvetica,sans-Serif" font-size="10.00">Math/GenVector/PositionVector2D.h</text>
</g>
<!-- Node34&#45;&gt;Node36 -->
<g id="edge51" class="edge"><title>Node34&#45;&gt;Node36</title>
<path fill="none" stroke="midnightblue" d="M2151.73,-72.7338C2136.85,-62.1106 2111.57,-44.0485 2093.67,-31.2642"/>
<polygon fill="midnightblue" stroke="midnightblue" points="2095.25,-28.0917 2085.08,-25.1273 2091.18,-33.7878 2095.25,-28.0917"/>
</g>
</g>
</svg>
        <g id="navigator" transform="translate(0 0)" fill="#404254">
                <rect fill="#f2f5e9" fill-opacity="0.5" stroke="#606060" stroke-width=".5" x="0" y="0" width="60" height="60"/>
                <use id="zoomplus" xlink:href="#zoomPlus" x="17" y="9" onmousedown="handleZoom(evt,'in')"/>
                <use id="zoomminus" xlink:href="#zoomMin" x="42" y="9" onmousedown="handleZoom(evt,'out')"/>
                <use id="reset" xlink:href="#resetDef" x="30" y="36" onmousedown="handleReset()"/>
                <g id="arrowUp" xlink:href="#dirArrow" transform="translate(30 24)" onmousedown="handlePan(0,-1)">
                  <use xlink:href="#rim" fill="#404040">
                        <set attributeName="fill" to="#808080" begin="arrowUp.mouseover" end="arrowUp.mouseout"/>
                  </use>
                  <path fill="none" stroke="white" stroke-width="1.5" d="M0,-3.0v7 M-2.5,-0.5L0,-3.0L2.5,-0.5"/>
                </g>
                <g id="arrowRight" xlink:href="#dirArrow" transform="rotate(90) translate(36 -43)" onmousedown="handlePan(1,0)">
                  <use xlink:href="#rim" fill="#404040">
                        <set attributeName="fill" to="#808080" begin="arrowRight.mouseover" end="arrowRight.mouseout"/>
                  </use>
                  <path fill="none" stroke="white" stroke-width="1.5" d="M0,-3.0v7 M-2.5,-0.5L0,-3.0L2.5,-0.5"/>
                </g>
                <g id="arrowDown" xlink:href="#dirArrow" transform="rotate(180) translate(-30 -48)" onmousedown="handlePan(0,1)">
                  <use xlink:href="#rim" fill="#404040">
                        <set attributeName="fill" to="#808080" begin="arrowDown.mouseover" end="arrowDown.mouseout"/>
                  </use>
                  <path fill="none" stroke="white" stroke-width="1.5" d="M0,-3.0v7 M-2.5,-0.5L0,-3.0L2.5,-0.5"/>
                </g>
                <g id="arrowLeft" xlink:href="#dirArrow" transform="rotate(270) translate(-36 17)" onmousedown="handlePan(-1,0)">
                  <use xlink:href="#rim" fill="#404040">
                        <set attributeName="fill" to="#808080" begin="arrowLeft.mouseover" end="arrowLeft.mouseout"/>
                  </use>
                  <path fill="none" stroke="white" stroke-width="1.5" d="M0,-3.0v7 M-2.5,-0.5L0,-3.0L2.5,-0.5"/>
                </g>
        </g>
        <svg viewBox="0 0 15 15" width="100%" height="30px" preserveAspectRatio="xMaxYMin meet">
         <g id="arrow_out" transform="scale(0.3 0.3)">
          <a xlink:href="Detectors_2EMCAL_2reconstruction_2src_2Clusterizer_8cxx__incl_org.svg" target="_base">
           <rect id="button" ry="5" rx="5" y="6" x="6" height="38" width="38"
                fill="#f2f5e9" fill-opacity="0.5" stroke="#606060" stroke-width="1.0"/>
           <path id="arrow"
             d="M 11.500037,31.436501 C 11.940474,20.09759 22.043105,11.32322 32.158766,21.979434 L 37.068811,17.246167 C 37.068811,17.246167 37.088388,32 37.088388,32 L 22.160133,31.978069 C 22.160133,31.978069 26.997745,27.140456 26.997745,27.140456 C 18.528582,18.264221 13.291696,25.230495 11.500037,31.436501 z"
             style="fill:#404040;"/>
          </a>
         </g>
        </svg>
</svg>
