<?xml version="1.0" encoding="UTF-8" standalone="no"?>
<!DOCTYPE svg PUBLIC "-//W3C//DTD SVG 1.1//EN"
 "http://www.w3.org/Graphics/SVG/1.1/DTD/svg11.dtd">
<!-- Generated by graphviz version 2.38.0 (20140413.2041)
 -->
<!-- Title: /home/travis/build/AliceO2Group/AliceO2/DataFormats/Detectors/ZDC/include/DataFormatsZDC/BCData.h Pages: 1 -->
<!--zoomable 251 -->
<svg id="main" version="1.1" xmlns="http://www.w3.org/2000/svg" xmlns:xlink="http://www.w3.org/1999/xlink" xml:space="preserve" onload="init(evt)">
<style type="text/css"><![CDATA[
.edge:hover path { stroke: red; }
.edge:hover polygon { stroke: red; fill: red; }
]]></style>
<script type="text/javascript"><![CDATA[
var edges = document.getElementsByTagName('g');
if (edges && edges.length) {
  for (var i=0;i<edges.length;i++) {
    if (edges[i].id.substr(0,4)=='edge') {
      edges[i].setAttribute('class','edge');
    }
  }
}
]]></script>
        <defs>
                <circle id="rim" cx="0" cy="0" r="7"/>
                <circle id="rim2" cx="0" cy="0" r="3.5"/>
                <g id="zoomPlus">
                        <use xlink:href="#rim" fill="#404040">
                                <set attributeName="fill" to="#808080" begin="zoomplus.mouseover" end="zoomplus.mouseout"/>
                        </use>
                        <path d="M-4,0h8M0,-4v8" fill="none" stroke="white" stroke-width="1.5" pointer-events="none"/>
                </g>
                <g id="zoomMin">
                        <use xlink:href="#rim" fill="#404040">
                                <set attributeName="fill" to="#808080" begin="zoomminus.mouseover" end="zoomminus.mouseout"/>
                        </use>
                        <path d="M-4,0h8" fill="none" stroke="white" stroke-width="1.5" pointer-events="none"/>
                </g>
                <g id="dirArrow">
                        <path fill="none" stroke="white" stroke-width="1.5" d="M0,-3.0v7 M-2.5,-0.5L0,-3.0L2.5,-0.5"/>
                </g>
               <g id="resetDef">
                       <use xlink:href="#rim2" fill="#404040">
                               <set attributeName="fill" to="#808080" begin="reset.mouseover" end="reset.mouseout"/>
                       </use>
               </g>
        </defs>

<script type="text/javascript">
var viewWidth = 1011;
var viewHeight = 251;
var sectionId = 'dynsection-0';
</script>
<script xlink:href="../../svgpan.js"/>
<svg id="graph" class="graph">
<g id="viewport">
<title>/home/travis/build/AliceO2Group/AliceO2/DataFormats/Detectors/ZDC/include/DataFormatsZDC/BCData.h</title>
<!-- Node1 -->
<g id="node1" class="node"><title>Node1</title>
<polygon fill="#bfbfbf" stroke="black" points="237.793,-179.5 237.793,-242.5 392.793,-242.5 392.793,-179.5 237.793,-179.5"/>
<text text-anchor="start" x="245.793" y="-230.5" font-family="Helvetica,sans-Serif" font-size="10.00">/home/travis/build</text>
<text text-anchor="start" x="245.793" y="-219.5" font-family="Helvetica,sans-Serif" font-size="10.00">/AliceO2Group/AliceO2</text>
<text text-anchor="start" x="245.793" y="-208.5" font-family="Helvetica,sans-Serif" font-size="10.00">/DataFormats/Detectors</text>
<text text-anchor="start" x="245.793" y="-197.5" font-family="Helvetica,sans-Serif" font-size="10.00">/ZDC/include/DataFormatsZDC</text>
<text text-anchor="middle" x="315.293" y="-186.5" font-family="Helvetica,sans-Serif" font-size="10.00">/BCData.h</text>
</g>
<!-- Node2 -->
<g id="node2" class="node"><title>Node2</title>
<g id="a_node2"><a xlink:href="../../d9/d80/InteractionRecord_8h.html" target="_top" xlink:title="CommonDataFormat/Interaction\lRecord.h">
<polygon fill="none" stroke="black" points="236.793,-112.5 236.793,-142.5 393.793,-142.5 393.793,-112.5 236.793,-112.5"/>
<text text-anchor="start" x="244.793" y="-130.5" font-family="Helvetica,sans-Serif" font-size="10.00">CommonDataFormat/Interaction</text>
<text text-anchor="middle" x="315.293" y="-119.5" font-family="Helvetica,sans-Serif" font-size="10.00">Record.h</text>
</a>
</g>
</g>
<!-- Node1&#45;&gt;Node2 -->
<g id="edge1" class="edge"><title>Node1&#45;&gt;Node2</title>
<path fill="none" stroke="midnightblue" d="M315.293,-179.188C315.293,-170.412 315.293,-160.982 315.293,-152.663"/>
<polygon fill="midnightblue" stroke="midnightblue" points="318.793,-152.516 315.293,-142.516 311.793,-152.516 318.793,-152.516"/>
</g>
<!-- Node3 -->
<g id="node3" class="node"><title>Node3</title>
<polygon fill="none" stroke="#bfbfbf" points="56.2933,-0.5 56.2933,-19.5 112.293,-19.5 112.293,-0.5 56.2933,-0.5"/>
<text text-anchor="middle" x="84.2933" y="-7.5" font-family="Helvetica,sans-Serif" font-size="10.00">Rtypes.h</text>
</g>
<!-- Node1&#45;&gt;Node3 -->
<g id="edge16" class="edge"><title>Node1&#45;&gt;Node3</title>
<path fill="none" stroke="midnightblue" d="M237.764,-203.453C158.6,-194.971 43.5583,-177.051 16.2933,-143 -7.87482,-112.817 -2.00986,-90.0603 16.2933,-56 23.9157,-41.8153 38.1899,-31.3516 51.6996,-24.1027"/>
<polygon fill="midnightblue" stroke="midnightblue" points="53.4211,-27.1562 60.8392,-19.5916 50.3229,-20.8791 53.4211,-27.1562"/>
</g>
<!-- Node8 -->
<g id="node8" class="node"><title>Node8</title>
<g id="a_node8"><a xlink:href="../../de/d64/RangeReference_8h.html" target="_top" xlink:title="Class to refer to the 1st entry and N elements of some group in the continuous container. ">
<polygon fill="none" stroke="black" points="25.7933,-118 25.7933,-137 218.793,-137 218.793,-118 25.7933,-118"/>
<text text-anchor="middle" x="122.293" y="-125" font-family="Helvetica,sans-Serif" font-size="10.00">CommonDataFormat/RangeReference.h</text>
</a>
</g>
</g>
<!-- Node1&#45;&gt;Node8 -->
<g id="edge7" class="edge"><title>Node1&#45;&gt;Node8</title>
<path fill="none" stroke="midnightblue" d="M242.878,-179.421C211.291,-166.082 176.026,-151.19 151.834,-140.974"/>
<polygon fill="midnightblue" stroke="midnightblue" points="153.077,-137.7 142.503,-137.034 150.354,-144.149 153.077,-137.7"/>
</g>
<!-- Node10 -->
<g id="node10" class="node"><title>Node10</title>
<g id="a_node10"><a xlink:href="../../d3/dd7/Detectors_2ZDC_2base_2include_2ZDCBase_2Constants_8h.html" target="_top" xlink:title="ZDCBase/Constants.h">
<polygon fill="none" stroke="black" points="624.293,-118 624.293,-137 740.293,-137 740.293,-118 624.293,-118"/>
<text text-anchor="middle" x="682.293" y="-125" font-family="Helvetica,sans-Serif" font-size="10.00">ZDCBase/Constants.h</text>
</a>
</g>
</g>
<!-- Node1&#45;&gt;Node10 -->
<g id="edge10" class="edge"><title>Node1&#45;&gt;Node10</title>
<path fill="none" stroke="midnightblue" d="M393.125,-192.716C466.073,-176.516 572.82,-152.811 634.143,-139.193"/>
<polygon fill="midnightblue" stroke="midnightblue" points="634.945,-142.6 643.949,-137.015 633.428,-135.766 634.945,-142.6"/>
</g>
<!-- Node15 -->
<g id="node15" class="node"><title>Node15</title>
<polygon fill="none" stroke="#bfbfbf" points="757.793,-118 757.793,-137 810.793,-137 810.793,-118 757.793,-118"/>
<text text-anchor="middle" x="784.293" y="-125" font-family="Helvetica,sans-Serif" font-size="10.00">gsl/span</text>
</g>
<!-- Node1&#45;&gt;Node15 -->
<g id="edge17" class="edge"><title>Node1&#45;&gt;Node15</title>
<path fill="none" stroke="midnightblue" d="M392.914,-203.669C480.677,-195.215 627.237,-177.17 749.293,-143 751.732,-142.317 754.228,-141.512 756.711,-140.636"/>
<polygon fill="midnightblue" stroke="midnightblue" points="757.994,-143.893 766.058,-137.022 755.469,-137.364 757.994,-143.893"/>
</g>
<!-- Node2&#45;&gt;Node3 -->
<g id="edge2" class="edge"><title>Node2&#45;&gt;Node3</title>
<path fill="none" stroke="midnightblue" d="M275.704,-112.435C250.742,-103.098 218.089,-90.015 190.293,-76 159.566,-60.5069 126.005,-39.105 105.053,-25.1606"/>
<polygon fill="midnightblue" stroke="midnightblue" points="106.883,-22.1735 96.6306,-19.5032 102.98,-27.9844 106.883,-22.1735"/>
</g>
<!-- Node4 -->
<g id="node4" class="node"><title>Node4</title>
<polygon fill="none" stroke="#bfbfbf" points="199.793,-56.5 199.793,-75.5 244.793,-75.5 244.793,-56.5 199.793,-56.5"/>
<text text-anchor="middle" x="222.293" y="-63.5" font-family="Helvetica,sans-Serif" font-size="10.00">iosfwd</text>
</g>
<!-- Node2&#45;&gt;Node4 -->
<g id="edge3" class="edge"><title>Node2&#45;&gt;Node4</title>
<path fill="none" stroke="midnightblue" d="M293.254,-112.399C278.486,-102.951 259.116,-90.5589 244.346,-81.1089"/>
<polygon fill="midnightblue" stroke="midnightblue" points="246.135,-78.0988 235.826,-75.6578 242.363,-83.9953 246.135,-78.0988"/>
</g>
<!-- Node5 -->
<g id="node5" class="node"><title>Node5</title>
<polygon fill="none" stroke="#bfbfbf" points="263.293,-56.5 263.293,-75.5 307.293,-75.5 307.293,-56.5 263.293,-56.5"/>
<text text-anchor="middle" x="285.293" y="-63.5" font-family="Helvetica,sans-Serif" font-size="10.00">cmath</text>
</g>
<!-- Node2&#45;&gt;Node5 -->
<g id="edge4" class="edge"><title>Node2&#45;&gt;Node5</title>
<path fill="none" stroke="midnightblue" d="M308.184,-112.399C304.004,-104.11 298.682,-93.5542 294.221,-84.7077"/>
<polygon fill="midnightblue" stroke="midnightblue" points="297.286,-83.0112 289.659,-75.6578 291.035,-86.1628 297.286,-83.0112"/>
</g>
<!-- Node6 -->
<g id="node6" class="node"><title>Node6</title>
<polygon fill="none" stroke="#bfbfbf" points="521.293,-56.5 521.293,-75.5 567.293,-75.5 567.293,-56.5 521.293,-56.5"/>
<text text-anchor="middle" x="544.293" y="-63.5" font-family="Helvetica,sans-Serif" font-size="10.00">cstdint</text>
</g>
<!-- Node2&#45;&gt;Node6 -->
<g id="edge5" class="edge"><title>Node2&#45;&gt;Node6</title>
<path fill="none" stroke="midnightblue" d="M371.428,-112.479C408.58,-103.114 458.619,-90.3411 511.362,-76.2074"/>
<polygon fill="midnightblue" stroke="midnightblue" points="512.49,-79.5285 521.239,-73.553 510.673,-72.7683 512.49,-79.5285"/>
</g>
<!-- Node7 -->
<g id="node7" class="node"><title>Node7</title>
<g id="a_node7"><a xlink:href="../../d4/dc6/LHCConstants_8h.html" target="_top" xlink:title="Header to collect LHC related constants. ">
<polygon fill="none" stroke="black" points="325.293,-56.5 325.293,-75.5 503.293,-75.5 503.293,-56.5 325.293,-56.5"/>
<text text-anchor="middle" x="414.293" y="-63.5" font-family="Helvetica,sans-Serif" font-size="10.00">CommonConstants/LHCConstants.h</text>
</a>
</g>
</g>
<!-- Node2&#45;&gt;Node7 -->
<g id="edge6" class="edge"><title>Node2&#45;&gt;Node7</title>
<path fill="none" stroke="midnightblue" d="M338.755,-112.399C354.624,-102.862 375.484,-90.3248 391.262,-80.8422"/>
<polygon fill="midnightblue" stroke="midnightblue" points="393.12,-83.809 399.888,-75.6578 389.514,-77.8093 393.12,-83.809"/>
</g>
<!-- Node9 -->
<g id="node9" class="node"><title>Node9</title>
<g id="a_node9"><a xlink:href="../../d2/d45/GPUCommonRtypes_8h.html" target="_top" xlink:title="GPUCommonRtypes.h">
<polygon fill="none" stroke="black" points="25.2933,-56.5 25.2933,-75.5 143.293,-75.5 143.293,-56.5 25.2933,-56.5"/>
<text text-anchor="middle" x="84.2933" y="-63.5" font-family="Helvetica,sans-Serif" font-size="10.00">GPUCommonRtypes.h</text>
</a>
</g>
</g>
<!-- Node8&#45;&gt;Node9 -->
<g id="edge8" class="edge"><title>Node8&#45;&gt;Node9</title>
<path fill="none" stroke="midnightblue" d="M116.849,-117.975C111.205,-109.138 102.232,-95.0886 95.1345,-83.975"/>
<polygon fill="midnightblue" stroke="midnightblue" points="98.0599,-82.0531 89.7276,-75.5091 92.1604,-85.8208 98.0599,-82.0531"/>
</g>
<!-- Node9&#45;&gt;Node3 -->
<g id="edge9" class="edge"><title>Node9&#45;&gt;Node3</title>
<path fill="none" stroke="midnightblue" d="M84.2933,-56.083C84.2933,-49.0059 84.2933,-38.8611 84.2933,-29.9865"/>
<polygon fill="midnightblue" stroke="midnightblue" points="87.7934,-29.751 84.2933,-19.7511 80.7934,-29.7511 87.7934,-29.751"/>
</g>
<!-- Node10&#45;&gt;Node6 -->
<g id="edge12" class="edge"><title>Node10&#45;&gt;Node6</title>
<path fill="none" stroke="midnightblue" d="M662.521,-117.975C639.157,-107.901 600.079,-91.0525 573.29,-79.5023"/>
<polygon fill="midnightblue" stroke="midnightblue" points="574.597,-76.2544 564.029,-75.5091 571.826,-82.6824 574.597,-76.2544"/>
</g>
<!-- Node11 -->
<g id="node11" class="node"><title>Node11</title>
<g id="a_node11"><a xlink:href="../../d3/d9d/PhysicsConstants_8h.html" target="_top" xlink:title="Header to collect physics constants. ">
<polygon fill="none" stroke="black" points="585.793,-56.5 585.793,-75.5 778.793,-75.5 778.793,-56.5 585.793,-56.5"/>
<text text-anchor="middle" x="682.293" y="-63.5" font-family="Helvetica,sans-Serif" font-size="10.00">CommonConstants/PhysicsConstants.h</text>
</a>
</g>
</g>
<!-- Node10&#45;&gt;Node11 -->
<g id="edge11" class="edge"><title>Node10&#45;&gt;Node11</title>
<path fill="none" stroke="midnightblue" d="M682.293,-117.975C682.293,-109.58 682.293,-96.4806 682.293,-85.6631"/>
<polygon fill="midnightblue" stroke="midnightblue" points="685.793,-85.5091 682.293,-75.5091 678.793,-85.5091 685.793,-85.5091"/>
</g>
<!-- Node12 -->
<g id="node12" class="node"><title>Node12</title>
<polygon fill="none" stroke="#bfbfbf" points="797.293,-56.5 797.293,-75.5 863.293,-75.5 863.293,-56.5 797.293,-56.5"/>
<text text-anchor="middle" x="830.293" y="-63.5" font-family="Helvetica,sans-Serif" font-size="10.00">string_view</text>
</g>
<!-- Node10&#45;&gt;Node12 -->
<g id="edge13" class="edge"><title>Node10&#45;&gt;Node12</title>
<path fill="none" stroke="midnightblue" d="M703.498,-117.975C728.666,-107.857 770.833,-90.9046 799.572,-79.3507"/>
<polygon fill="midnightblue" stroke="midnightblue" points="801.155,-82.4867 809.128,-75.5091 798.544,-75.9919 801.155,-82.4867"/>
</g>
<!-- Node13 -->
<g id="node13" class="node"><title>Node13</title>
<polygon fill="none" stroke="#bfbfbf" points="881.793,-56.5 881.793,-75.5 922.793,-75.5 922.793,-56.5 881.793,-56.5"/>
<text text-anchor="middle" x="902.293" y="-63.5" font-family="Helvetica,sans-Serif" font-size="10.00">string</text>
</g>
<!-- Node10&#45;&gt;Node13 -->
<g id="edge14" class="edge"><title>Node10&#45;&gt;Node13</title>
<path fill="none" stroke="midnightblue" d="M715.673,-117.969C751.755,-108.673 811.184,-93.1449 871.908,-76.041"/>
<polygon fill="midnightblue" stroke="midnightblue" points="872.991,-79.372 881.662,-73.2831 871.086,-72.6361 872.991,-79.372"/>
</g>
<!-- Node14 -->
<g id="node14" class="node"><title>Node14</title>
<polygon fill="none" stroke="#bfbfbf" points="941.293,-56.5 941.293,-75.5 1003.29,-75.5 1003.29,-56.5 941.293,-56.5"/>
<text text-anchor="middle" x="972.293" y="-63.5" font-family="Helvetica,sans-Serif" font-size="10.00">type_traits</text>
</g>
<!-- Node10&#45;&gt;Node14 -->
<g id="edge15" class="edge"><title>Node10&#45;&gt;Node14</title>
<path fill="none" stroke="midnightblue" d="M721.238,-117.941C730.431,-115.957 740.202,-113.878 749.293,-112 827.301,-95.8875 849.474,-93.2885 930.666,-76.3"/>
<polygon fill="midnightblue" stroke="midnightblue" points="931.802,-79.6378 940.868,-74.1551 930.362,-72.7876 931.802,-79.6378"/>
</g>
</g>
</svg>
        <g id="navigator" transform="translate(0 0)" fill="#404254">
                <rect fill="#f2f5e9" fill-opacity="0.5" stroke="#606060" stroke-width=".5" x="0" y="0" width="60" height="60"/>
                <use id="zoomplus" xlink:href="#zoomPlus" x="17" y="9" onmousedown="handleZoom(evt,'in')"/>
                <use id="zoomminus" xlink:href="#zoomMin" x="42" y="9" onmousedown="handleZoom(evt,'out')"/>
                <use id="reset" xlink:href="#resetDef" x="30" y="36" onmousedown="handleReset()"/>
                <g id="arrowUp" xlink:href="#dirArrow" transform="translate(30 24)" onmousedown="handlePan(0,-1)">
                  <use xlink:href="#rim" fill="#404040">
                        <set attributeName="fill" to="#808080" begin="arrowUp.mouseover" end="arrowUp.mouseout"/>
                  </use>
                  <path fill="none" stroke="white" stroke-width="1.5" d="M0,-3.0v7 M-2.5,-0.5L0,-3.0L2.5,-0.5"/>
                </g>
                <g id="arrowRight" xlink:href="#dirArrow" transform="rotate(90) translate(36 -43)" onmousedown="handlePan(1,0)">
                  <use xlink:href="#rim" fill="#404040">
                        <set attributeName="fill" to="#808080" begin="arrowRight.mouseover" end="arrowRight.mouseout"/>
                  </use>
                  <path fill="none" stroke="white" stroke-width="1.5" d="M0,-3.0v7 M-2.5,-0.5L0,-3.0L2.5,-0.5"/>
                </g>
                <g id="arrowDown" xlink:href="#dirArrow" transform="rotate(180) translate(-30 -48)" onmousedown="handlePan(0,1)">
                  <use xlink:href="#rim" fill="#404040">
                        <set attributeName="fill" to="#808080" begin="arrowDown.mouseover" end="arrowDown.mouseout"/>
                  </use>
                  <path fill="none" stroke="white" stroke-width="1.5" d="M0,-3.0v7 M-2.5,-0.5L0,-3.0L2.5,-0.5"/>
                </g>
                <g id="arrowLeft" xlink:href="#dirArrow" transform="rotate(270) translate(-36 17)" onmousedown="handlePan(-1,0)">
                  <use xlink:href="#rim" fill="#404040">
                        <set attributeName="fill" to="#808080" begin="arrowLeft.mouseover" end="arrowLeft.mouseout"/>
                  </use>
                  <path fill="none" stroke="white" stroke-width="1.5" d="M0,-3.0v7 M-2.5,-0.5L0,-3.0L2.5,-0.5"/>
                </g>
        </g>
        <svg viewBox="0 0 15 15" width="100%" height="30px" preserveAspectRatio="xMaxYMin meet">
         <g id="arrow_out" transform="scale(0.3 0.3)">
          <a xlink:href="BCData_8h__incl_org.svg" target="_base">
           <rect id="button" ry="5" rx="5" y="6" x="6" height="38" width="38"
                fill="#f2f5e9" fill-opacity="0.5" stroke="#606060" stroke-width="1.0"/>
           <path id="arrow"
             d="M 11.500037,31.436501 C 11.940474,20.09759 22.043105,11.32322 32.158766,21.979434 L 37.068811,17.246167 C 37.068811,17.246167 37.088388,32 37.088388,32 L 22.160133,31.978069 C 22.160133,31.978069 26.997745,27.140456 26.997745,27.140456 C 18.528582,18.264221 13.291696,25.230495 11.500037,31.436501 z"
             style="fill:#404040;"/>
          </a>
         </g>
        </svg>
</svg>
