<?xml version="1.0" encoding="UTF-8" standalone="no"?>
<!DOCTYPE svg PUBLIC "-//W3C//DTD SVG 1.1//EN"
 "http://www.w3.org/Graphics/SVG/1.1/DTD/svg11.dtd">
<!-- Generated by graphviz version 2.38.0 (20140413.2041)
 -->
<!-- Title: /home/travis/build/AliceO2Group/AliceO2/Detectors/MUON/MID/Raw/include/MIDRaw/RawBuffer.h Pages: 1 -->
<svg width="297pt" height="173pt"
 viewBox="0.00 0.00 296.50 173.00" xmlns="http://www.w3.org/2000/svg" xmlns:xlink="http://www.w3.org/1999/xlink">
<g id="graph0" class="graph" transform="scale(1 1) rotate(0) translate(4 169)">
<title>/home/travis/build/AliceO2Group/AliceO2/Detectors/MUON/MID/Raw/include/MIDRaw/RawBuffer.h</title>
<!-- Node1 -->
<g id="node1" class="node"><title>Node1</title>
<polygon fill="#bfbfbf" stroke="black" points="-1.42109e-14,-112.5 -1.42109e-14,-164.5 150,-164.5 150,-112.5 -1.42109e-14,-112.5"/>
<text text-anchor="start" x="8" y="-152.5" font-family="Helvetica,sans-Serif" font-size="10.00">/home/travis/build</text>
<text text-anchor="start" x="8" y="-141.5" font-family="Helvetica,sans-Serif" font-size="10.00">/AliceO2Group/AliceO2</text>
<text text-anchor="start" x="8" y="-130.5" font-family="Helvetica,sans-Serif" font-size="10.00">/Detectors/MUON/MID/Raw</text>
<text text-anchor="middle" x="75" y="-119.5" font-family="Helvetica,sans-Serif" font-size="10.00">/include/MIDRaw/RawBuffer.h</text>
</g>
<!-- Node2 -->
<g id="node2" class="node"><title>Node2</title>
<polygon fill="none" stroke="#bfbfbf" points="83,-0.5 83,-19.5 129,-19.5 129,-0.5 83,-0.5"/>
<text text-anchor="middle" x="106" y="-7.5" font-family="Helvetica,sans-Serif" font-size="10.00">cstdint</text>
</g>
<!-- Node1&#45;&gt;Node2 -->
<g id="edge1" class="edge"><title>Node1&#45;&gt;Node2</title>
<path fill="none" stroke="midnightblue" d="M36.2402,-112.295C17.1527,-96.6101 0.627643,-75.7313 13,-56 26.0201,-35.2357 51.6361,-23.8173 72.6925,-17.6835"/>
<polygon fill="midnightblue" stroke="midnightblue" points="73.808,-21.0092 82.5878,-15.0791 72.0263,-14.2397 73.808,-21.0092"/>
</g>
<!-- Node3 -->
<g id="node3" class="node"><title>Node3</title>
<polygon fill="none" stroke="#bfbfbf" points="22,-56.5 22,-75.5 66,-75.5 66,-56.5 22,-56.5"/>
<text text-anchor="middle" x="44" y="-63.5" font-family="Helvetica,sans-Serif" font-size="10.00">vector</text>
</g>
<!-- Node1&#45;&gt;Node3 -->
<g id="edge2" class="edge"><title>Node1&#45;&gt;Node3</title>
<path fill="none" stroke="midnightblue" d="M63.9833,-112.446C59.9746,-103.329 55.5282,-93.2174 51.8493,-84.8509"/>
<polygon fill="midnightblue" stroke="midnightblue" points="55.0528,-83.4408 47.8235,-75.6955 48.6449,-86.2584 55.0528,-83.4408"/>
</g>
<!-- Node4 -->
<g id="node4" class="node"><title>Node4</title>
<polygon fill="none" stroke="#bfbfbf" points="84.5,-56.5 84.5,-75.5 129.5,-75.5 129.5,-56.5 84.5,-56.5"/>
<text text-anchor="middle" x="107" y="-63.5" font-family="Helvetica,sans-Serif" font-size="10.00">gsl/gsl</text>
</g>
<!-- Node1&#45;&gt;Node4 -->
<g id="edge3" class="edge"><title>Node1&#45;&gt;Node4</title>
<path fill="none" stroke="midnightblue" d="M86.3721,-112.446C90.5101,-103.329 95.0999,-93.2174 98.8975,-84.8509"/>
<polygon fill="midnightblue" stroke="midnightblue" points="102.107,-86.248 103.053,-75.6955 95.7328,-83.3547 102.107,-86.248"/>
</g>
<!-- Node5 -->
<g id="node5" class="node"><title>Node5</title>
<g id="a_node5"><a xlink:href="../../d4/d78/DataFormats_2Headers_2include_2Headers_2RAWDataHeader_8h.html" target="_top" xlink:title="Headers/RAWDataHeader.h">
<polygon fill="none" stroke="black" points="147.5,-56.5 147.5,-75.5 288.5,-75.5 288.5,-56.5 147.5,-56.5"/>
<text text-anchor="middle" x="218" y="-63.5" font-family="Helvetica,sans-Serif" font-size="10.00">Headers/RAWDataHeader.h</text>
</a>
</g>
</g>
<!-- Node1&#45;&gt;Node5 -->
<g id="edge4" class="edge"><title>Node1&#45;&gt;Node5</title>
<path fill="none" stroke="midnightblue" d="M125.819,-112.446C148.003,-101.509 173.093,-89.1397 191.489,-80.0699"/>
<polygon fill="midnightblue" stroke="midnightblue" points="193.283,-83.0881 200.704,-75.527 190.187,-76.8097 193.283,-83.0881"/>
</g>
<!-- Node5&#45;&gt;Node2 -->
<g id="edge5" class="edge"><title>Node5&#45;&gt;Node2</title>
<path fill="none" stroke="midnightblue" d="M200.005,-56.324C181.962,-47.6247 153.953,-34.1202 133.197,-24.113"/>
<polygon fill="midnightblue" stroke="midnightblue" points="134.478,-20.8449 123.95,-19.6545 131.438,-27.1502 134.478,-20.8449"/>
</g>
</g>
</svg>
