<?xml version="1.0" encoding="UTF-8" standalone="no"?>
<!DOCTYPE svg PUBLIC "-//W3C//DTD SVG 1.1//EN"
 "http://www.w3.org/Graphics/SVG/1.1/DTD/svg11.dtd">
<!-- Generated by graphviz version 2.38.0 (20140413.2041)
 -->
<!-- Title: o2::framework::InputObjectRoute Pages: 1 -->
<svg width="199pt" height="193pt"
 viewBox="0.00 0.00 199.00 193.00" xmlns="http://www.w3.org/2000/svg" xmlns:xlink="http://www.w3.org/1999/xlink">
<g id="graph0" class="graph" transform="scale(1 1) rotate(0) translate(4 189)">
<title>o2::framework::InputObjectRoute</title>
<!-- Node1 -->
<g id="node1" class="node"><title>Node1</title>
<polygon fill="#bfbfbf" stroke="black" points="46.5,-0.5 46.5,-68.5 181.5,-68.5 181.5,-0.5 46.5,-0.5"/>
<text text-anchor="start" x="54.5" y="-56.5" font-family="Helvetica,sans-Serif" font-size="10.00">o2::framework::InputObject</text>
<text text-anchor="middle" x="114" y="-45.5" font-family="Helvetica,sans-Serif" font-size="10.00">Route</text>
<polyline fill="none" stroke="black" points="46.5,-38.5 181.5,-38.5 "/>
<text text-anchor="middle" x="114" y="-26.5" font-family="Helvetica,sans-Serif" font-size="10.00"> </text>
<polyline fill="none" stroke="black" points="46.5,-19.5 181.5,-19.5 "/>
<text text-anchor="start" x="54.5" y="-7.5" font-family="Helvetica,sans-Serif" font-size="10.00">+ operator&lt;()</text>
</g>
<!-- Node2 -->
<g id="node2" class="node"><title>Node2</title>
<polygon fill="none" stroke="#bfbfbf" points="0,-127.5 0,-184.5 126,-184.5 126,-127.5 0,-127.5"/>
<text text-anchor="middle" x="63" y="-172.5" font-family="Helvetica,sans-Serif" font-size="10.00">OutputObjHandlingPolicy</text>
<polyline fill="none" stroke="#bfbfbf" points="0,-165.5 126,-165.5 "/>
<text text-anchor="middle" x="63" y="-153.5" font-family="Helvetica,sans-Serif" font-size="10.00"> </text>
<polyline fill="none" stroke="#bfbfbf" points="0,-146.5 126,-146.5 "/>
<text text-anchor="middle" x="63" y="-134.5" font-family="Helvetica,sans-Serif" font-size="10.00"> </text>
</g>
<!-- Node2&#45;&gt;Node1 -->
<g id="edge1" class="edge"><title>Node2&#45;&gt;Node1</title>
<path fill="none" stroke="#404040" d="M74.8286,-127.284C80.8429,-113.192 88.2978,-95.7238 95.0846,-79.8213"/>
<polygon fill="none" stroke="#404040" points="95.1679,-79.626 93.8442,-72.5374 99.8783,-68.5891 101.202,-75.6777 95.1679,-79.626"/>
<text text-anchor="middle" x="109.5" y="-95.5" font-family="Helvetica,sans-Serif" font-size="10.00"> +policy</text>
</g>
<!-- Node3 -->
<g id="node3" class="node"><title>Node3</title>
<polygon fill="none" stroke="#bfbfbf" points="144.5,-127.5 144.5,-184.5 185.5,-184.5 185.5,-127.5 144.5,-127.5"/>
<text text-anchor="middle" x="165" y="-172.5" font-family="Helvetica,sans-Serif" font-size="10.00">string</text>
<polyline fill="none" stroke="#bfbfbf" points="144.5,-165.5 185.5,-165.5 "/>
<text text-anchor="middle" x="165" y="-153.5" font-family="Helvetica,sans-Serif" font-size="10.00"> </text>
<polyline fill="none" stroke="#bfbfbf" points="144.5,-146.5 185.5,-146.5 "/>
<text text-anchor="middle" x="165" y="-134.5" font-family="Helvetica,sans-Serif" font-size="10.00"> </text>
</g>
<!-- Node3&#45;&gt;Node1 -->
<g id="edge2" class="edge"><title>Node3&#45;&gt;Node1</title>
<path fill="none" stroke="#404040" d="M153.171,-127.284C147.157,-113.192 139.702,-95.7238 132.915,-79.8213"/>
<polygon fill="none" stroke="#404040" points="132.832,-79.626 126.798,-75.6777 128.122,-68.5891 134.156,-72.5374 132.832,-79.626"/>
<text text-anchor="middle" x="168" y="-101" font-family="Helvetica,sans-Serif" font-size="10.00"> +uniqueId</text>
<text text-anchor="middle" x="168" y="-90" font-family="Helvetica,sans-Serif" font-size="10.00">+directory</text>
</g>
</g>
</svg>
