<?xml version="1.0" encoding="UTF-8" standalone="no"?>
<!DOCTYPE svg PUBLIC "-//W3C//DTD SVG 1.1//EN"
 "http://www.w3.org/Graphics/SVG/1.1/DTD/svg11.dtd">
<!-- Generated by graphviz version 2.38.0 (20140413.2041)
 -->
<!-- Title: /home/travis/build/AliceO2Group/AliceO2/Detectors/MUON/MID/Base/include/MIDBase/Mapping.h Pages: 1 -->
<svg width="1945pt" height="328pt"
 viewBox="0.00 0.00 1944.50 328.00" xmlns="http://www.w3.org/2000/svg" xmlns:xlink="http://www.w3.org/1999/xlink">
<g id="graph0" class="graph" transform="scale(1 1) rotate(0) translate(4 324)">
<title>/home/travis/build/AliceO2Group/AliceO2/Detectors/MUON/MID/Base/include/MIDBase/Mapping.h</title>
<!-- Node1 -->
<g id="node1" class="node"><title>Node1</title>
<polygon fill="#bfbfbf" stroke="black" points="843,-267.5 843,-319.5 986,-319.5 986,-267.5 843,-267.5"/>
<text text-anchor="start" x="851" y="-307.5" font-family="Helvetica,sans-Serif" font-size="10.00">/home/travis/build</text>
<text text-anchor="start" x="851" y="-296.5" font-family="Helvetica,sans-Serif" font-size="10.00">/AliceO2Group/AliceO2</text>
<text text-anchor="start" x="851" y="-285.5" font-family="Helvetica,sans-Serif" font-size="10.00">/Detectors/MUON/MID/Base</text>
<text text-anchor="middle" x="914.5" y="-274.5" font-family="Helvetica,sans-Serif" font-size="10.00">/include/MIDBase/Mapping.h</text>
</g>
<!-- Node2 -->
<g id="node2" class="node"><title>Node2</title>
<g id="a_node2"><a xlink:href="../../d1/dbe/ChamberEfficiency_8cxx.html" target="_top" xlink:title="Implementation of the chamber efficiency for the MID RPC. ">
<polygon fill="none" stroke="black" points="83,-178.5 83,-230.5 226,-230.5 226,-178.5 83,-178.5"/>
<text text-anchor="start" x="91" y="-218.5" font-family="Helvetica,sans-Serif" font-size="10.00">/home/travis/build</text>
<text text-anchor="start" x="91" y="-207.5" font-family="Helvetica,sans-Serif" font-size="10.00">/AliceO2Group/AliceO2</text>
<text text-anchor="start" x="91" y="-196.5" font-family="Helvetica,sans-Serif" font-size="10.00">/Detectors/MUON/MID/Base</text>
<text text-anchor="middle" x="154.5" y="-185.5" font-family="Helvetica,sans-Serif" font-size="10.00">/src/ChamberEfficiency.cxx</text>
</a>
</g>
</g>
<!-- Node1&#45;&gt;Node2 -->
<g id="edge1" class="edge"><title>Node1&#45;&gt;Node2</title>
<path fill="none" stroke="midnightblue" d="M832.626,-290.849C704.046,-286.97 447.459,-274.032 234.5,-231 231.785,-230.451 229.033,-229.844 226.263,-229.189"/>
<polygon fill="midnightblue" stroke="midnightblue" points="832.69,-294.352 842.787,-291.144 832.893,-287.355 832.69,-294.352"/>
</g>
<!-- Node3 -->
<g id="node3" class="node"><title>Node3</title>
<g id="a_node3"><a xlink:href="../../d6/d73/MUON_2MID_2Base_2src_2Mapping_8cxx.html" target="_top" xlink:title="Implementation of mapping for MID. ">
<polygon fill="none" stroke="black" points="244,-178.5 244,-230.5 387,-230.5 387,-178.5 244,-178.5"/>
<text text-anchor="start" x="252" y="-218.5" font-family="Helvetica,sans-Serif" font-size="10.00">/home/travis/build</text>
<text text-anchor="start" x="252" y="-207.5" font-family="Helvetica,sans-Serif" font-size="10.00">/AliceO2Group/AliceO2</text>
<text text-anchor="start" x="252" y="-196.5" font-family="Helvetica,sans-Serif" font-size="10.00">/Detectors/MUON/MID/Base</text>
<text text-anchor="middle" x="315.5" y="-185.5" font-family="Helvetica,sans-Serif" font-size="10.00">/src/Mapping.cxx</text>
</a>
</g>
</g>
<!-- Node1&#45;&gt;Node3 -->
<g id="edge2" class="edge"><title>Node1&#45;&gt;Node3</title>
<path fill="none" stroke="midnightblue" d="M832.84,-287.652C729.927,-280.442 548.047,-264.034 395.5,-231 392.793,-230.414 390.047,-229.774 387.283,-229.092"/>
<polygon fill="midnightblue" stroke="midnightblue" points="832.637,-291.147 842.854,-288.342 833.118,-284.163 832.637,-291.147"/>
</g>
<!-- Node4 -->
<g id="node4" class="node"><title>Node4</title>
<g id="a_node4"><a xlink:href="../../d5/d6f/testMapping_8cxx.html" target="_top" xlink:title="/home/travis/build\l/AliceO2Group/AliceO2\l/Detectors/MUON/MID/Base\l/test/src/testMapping.cxx">
<polygon fill="none" stroke="black" points="405,-178.5 405,-230.5 548,-230.5 548,-178.5 405,-178.5"/>
<text text-anchor="start" x="413" y="-218.5" font-family="Helvetica,sans-Serif" font-size="10.00">/home/travis/build</text>
<text text-anchor="start" x="413" y="-207.5" font-family="Helvetica,sans-Serif" font-size="10.00">/AliceO2Group/AliceO2</text>
<text text-anchor="start" x="413" y="-196.5" font-family="Helvetica,sans-Serif" font-size="10.00">/Detectors/MUON/MID/Base</text>
<text text-anchor="middle" x="476.5" y="-185.5" font-family="Helvetica,sans-Serif" font-size="10.00">/test/src/testMapping.cxx</text>
</a>
</g>
</g>
<!-- Node1&#45;&gt;Node4 -->
<g id="edge3" class="edge"><title>Node1&#45;&gt;Node4</title>
<path fill="none" stroke="midnightblue" d="M832.567,-280.923C760.879,-270.144 654.17,-252.523 562.5,-231 557.8,-229.897 552.977,-228.686 548.131,-227.412"/>
<polygon fill="midnightblue" stroke="midnightblue" points="832.477,-284.448 842.884,-282.463 833.511,-277.525 832.477,-284.448"/>
</g>
<!-- Node5 -->
<g id="node5" class="node"><title>Node5</title>
<g id="a_node5"><a xlink:href="../../d8/dc8/PreClusterHelper_8h.html" target="_top" xlink:title="Pre&#45;clusters helper for MID. ">
<polygon fill="none" stroke="black" points="878,-178.5 878,-230.5 1081,-230.5 1081,-178.5 878,-178.5"/>
<text text-anchor="start" x="886" y="-218.5" font-family="Helvetica,sans-Serif" font-size="10.00">/home/travis/build</text>
<text text-anchor="start" x="886" y="-207.5" font-family="Helvetica,sans-Serif" font-size="10.00">/AliceO2Group/AliceO2</text>
<text text-anchor="start" x="886" y="-196.5" font-family="Helvetica,sans-Serif" font-size="10.00">/Detectors/MUON/MID/Clustering</text>
<text text-anchor="middle" x="979.5" y="-185.5" font-family="Helvetica,sans-Serif" font-size="10.00">/include/MIDClustering/PreClusterHelper.h</text>
</a>
</g>
</g>
<!-- Node1&#45;&gt;Node5 -->
<g id="edge4" class="edge"><title>Node1&#45;&gt;Node5</title>
<path fill="none" stroke="midnightblue" d="M939.368,-259.215C946.465,-249.717 954.076,-239.529 960.742,-230.607"/>
<polygon fill="midnightblue" stroke="midnightblue" points="936.482,-257.23 933.301,-267.336 942.09,-261.42 936.482,-257.23"/>
</g>
<!-- Node8 -->
<g id="node8" class="node"><title>Node8</title>
<g id="a_node8"><a xlink:href="../../d2/d12/bench__Clusterizer_8cxx.html" target="_top" xlink:title="Benchmark clustering device for MID. ">
<polygon fill="none" stroke="black" points="0,-0.5 0,-52.5 165,-52.5 165,-0.5 0,-0.5"/>
<text text-anchor="start" x="8" y="-40.5" font-family="Helvetica,sans-Serif" font-size="10.00">/home/travis/build</text>
<text text-anchor="start" x="8" y="-29.5" font-family="Helvetica,sans-Serif" font-size="10.00">/AliceO2Group/AliceO2</text>
<text text-anchor="start" x="8" y="-18.5" font-family="Helvetica,sans-Serif" font-size="10.00">/Detectors/MUON/MID/Clustering</text>
<text text-anchor="middle" x="82.5" y="-7.5" font-family="Helvetica,sans-Serif" font-size="10.00">/test/bench_Clusterizer.cxx</text>
</a>
</g>
</g>
<!-- Node1&#45;&gt;Node8 -->
<g id="edge21" class="edge"><title>Node1&#45;&gt;Node8</title>
<path fill="none" stroke="midnightblue" d="M832.74,-268.828C795.096,-257.71 749.91,-244.054 709.5,-231 641.02,-208.878 624.801,-200.669 556.5,-178 419.038,-132.377 258.199,-81.9228 163.643,-52.5588"/>
<polygon fill="midnightblue" stroke="midnightblue" points="832.061,-272.277 842.643,-271.746 834.04,-265.562 832.061,-272.277"/>
</g>
<!-- Node10 -->
<g id="node10" class="node"><title>Node10</title>
<g id="a_node10"><a xlink:href="../../d6/d45/testSimulation_8cxx.html" target="_top" xlink:title="/home/travis/build\l/AliceO2Group/AliceO2\l/Detectors/MUON/MID/Simulation\l/test/testSimulation.cxx">
<polygon fill="none" stroke="black" points="1094,-0.5 1094,-52.5 1261,-52.5 1261,-0.5 1094,-0.5"/>
<text text-anchor="start" x="1102" y="-40.5" font-family="Helvetica,sans-Serif" font-size="10.00">/home/travis/build</text>
<text text-anchor="start" x="1102" y="-29.5" font-family="Helvetica,sans-Serif" font-size="10.00">/AliceO2Group/AliceO2</text>
<text text-anchor="start" x="1102" y="-18.5" font-family="Helvetica,sans-Serif" font-size="10.00">/Detectors/MUON/MID/Simulation</text>
<text text-anchor="middle" x="1177.5" y="-7.5" font-family="Helvetica,sans-Serif" font-size="10.00">/test/testSimulation.cxx</text>
</a>
</g>
</g>
<!-- Node1&#45;&gt;Node10 -->
<g id="edge28" class="edge"><title>Node1&#45;&gt;Node10</title>
<path fill="none" stroke="midnightblue" d="M884.309,-259.121C878.24,-250.533 872.736,-240.903 869.5,-231 862.183,-208.61 860.247,-199.662 869.5,-178 872.309,-171.423 956.298,-92.5597 962.5,-89 965.567,-87.2396 1034.83,-67.5489 1093.92,-50.9153"/>
<polygon fill="midnightblue" stroke="midnightblue" points="881.688,-261.458 890.505,-267.333 887.276,-257.242 881.688,-261.458"/>
</g>
<!-- Node14 -->
<g id="node14" class="node"><title>Node14</title>
<g id="a_node14"><a xlink:href="../../d7/d1a/PreClusterizer_8h.html" target="_top" xlink:title="Pre&#45;cluster reconstruction algorithm for MID. ">
<polygon fill="none" stroke="black" points="510.5,-89.5 510.5,-141.5 700.5,-141.5 700.5,-89.5 510.5,-89.5"/>
<text text-anchor="start" x="518.5" y="-129.5" font-family="Helvetica,sans-Serif" font-size="10.00">/home/travis/build</text>
<text text-anchor="start" x="518.5" y="-118.5" font-family="Helvetica,sans-Serif" font-size="10.00">/AliceO2Group/AliceO2</text>
<text text-anchor="start" x="518.5" y="-107.5" font-family="Helvetica,sans-Serif" font-size="10.00">/Detectors/MUON/MID/Clustering</text>
<text text-anchor="middle" x="605.5" y="-96.5" font-family="Helvetica,sans-Serif" font-size="10.00">/include/MIDClustering/PreClusterizer.h</text>
</a>
</g>
</g>
<!-- Node1&#45;&gt;Node14 -->
<g id="edge14" class="edge"><title>Node1&#45;&gt;Node14</title>
<path fill="none" stroke="midnightblue" d="M861.656,-262.401C801.925,-228.38 705.747,-173.599 649.793,-141.728"/>
<polygon fill="midnightblue" stroke="midnightblue" points="860.134,-265.562 870.556,-267.47 863.599,-259.48 860.134,-265.562"/>
</g>
<!-- Node16 -->
<g id="node16" class="node"><title>Node16</title>
<g id="a_node16"><a xlink:href="../../db/d42/testCrateMapper_8cxx.html" target="_top" xlink:title="/home/travis/build\l/AliceO2Group/AliceO2\l/Detectors/MUON/MID/Raw\l/test/testCrateMapper.cxx">
<polygon fill="none" stroke="black" points="1284,-178.5 1284,-230.5 1425,-230.5 1425,-178.5 1284,-178.5"/>
<text text-anchor="start" x="1292" y="-218.5" font-family="Helvetica,sans-Serif" font-size="10.00">/home/travis/build</text>
<text text-anchor="start" x="1292" y="-207.5" font-family="Helvetica,sans-Serif" font-size="10.00">/AliceO2Group/AliceO2</text>
<text text-anchor="start" x="1292" y="-196.5" font-family="Helvetica,sans-Serif" font-size="10.00">/Detectors/MUON/MID/Raw</text>
<text text-anchor="middle" x="1354.5" y="-185.5" font-family="Helvetica,sans-Serif" font-size="10.00">/test/testCrateMapper.cxx</text>
</a>
</g>
</g>
<!-- Node1&#45;&gt;Node16 -->
<g id="edge22" class="edge"><title>Node1&#45;&gt;Node16</title>
<path fill="none" stroke="midnightblue" d="M996.15,-282.002C1069.77,-271.731 1180.7,-254.248 1275.5,-231 1278.16,-230.348 1280.86,-229.652 1283.58,-228.923"/>
<polygon fill="midnightblue" stroke="midnightblue" points="995.441,-278.566 986.015,-283.403 996.4,-285.5 995.441,-278.566"/>
</g>
<!-- Node17 -->
<g id="node17" class="node"><title>Node17</title>
<g id="a_node17"><a xlink:href="../../d8/d4c/testRaw_8cxx.html" target="_top" xlink:title="/home/travis/build\l/AliceO2Group/AliceO2\l/Detectors/MUON/MID/Raw\l/test/testRaw.cxx">
<polygon fill="none" stroke="black" points="1443,-178.5 1443,-230.5 1584,-230.5 1584,-178.5 1443,-178.5"/>
<text text-anchor="start" x="1451" y="-218.5" font-family="Helvetica,sans-Serif" font-size="10.00">/home/travis/build</text>
<text text-anchor="start" x="1451" y="-207.5" font-family="Helvetica,sans-Serif" font-size="10.00">/AliceO2Group/AliceO2</text>
<text text-anchor="start" x="1451" y="-196.5" font-family="Helvetica,sans-Serif" font-size="10.00">/Detectors/MUON/MID/Raw</text>
<text text-anchor="middle" x="1513.5" y="-185.5" font-family="Helvetica,sans-Serif" font-size="10.00">/test/testRaw.cxx</text>
</a>
</g>
</g>
<!-- Node1&#45;&gt;Node17 -->
<g id="edge23" class="edge"><title>Node1&#45;&gt;Node17</title>
<path fill="none" stroke="midnightblue" d="M996.337,-287.757C1099.47,-280.656 1281.72,-264.359 1434.5,-231 1437.18,-230.416 1439.89,-229.778 1442.62,-229.098"/>
<polygon fill="midnightblue" stroke="midnightblue" points="996.043,-284.269 986.302,-288.436 996.515,-291.253 996.043,-284.269"/>
</g>
<!-- Node18 -->
<g id="node18" class="node"><title>Node18</title>
<g id="a_node18"><a xlink:href="../../da/de1/MUON_2MID_2Simulation_2include_2MIDSimulation_2Digitizer_8h.html" target="_top" xlink:title="Digitizer for MID. ">
<polygon fill="none" stroke="black" points="1099,-178.5 1099,-230.5 1266,-230.5 1266,-178.5 1099,-178.5"/>
<text text-anchor="start" x="1107" y="-218.5" font-family="Helvetica,sans-Serif" font-size="10.00">/home/travis/build</text>
<text text-anchor="start" x="1107" y="-207.5" font-family="Helvetica,sans-Serif" font-size="10.00">/AliceO2Group/AliceO2</text>
<text text-anchor="start" x="1107" y="-196.5" font-family="Helvetica,sans-Serif" font-size="10.00">/Detectors/MUON/MID/Simulation</text>
<text text-anchor="middle" x="1182.5" y="-185.5" font-family="Helvetica,sans-Serif" font-size="10.00">/include/MIDSimulation/Digitizer.h</text>
</a>
</g>
</g>
<!-- Node1&#45;&gt;Node18 -->
<g id="edge24" class="edge"><title>Node1&#45;&gt;Node18</title>
<path fill="none" stroke="midnightblue" d="M995.961,-266.056C1030.71,-254.777 1071.05,-241.68 1105.31,-230.557"/>
<polygon fill="midnightblue" stroke="midnightblue" points="994.75,-262.769 986.319,-269.186 996.911,-269.427 994.75,-262.769"/>
</g>
<!-- Node21 -->
<g id="node21" class="node"><title>Node21</title>
<g id="a_node21"><a xlink:href="../../d0/db9/bench__Tracker_8cxx.html" target="_top" xlink:title="Benchmark tracker device for MID. ">
<polygon fill="none" stroke="black" points="1602.5,-178.5 1602.5,-230.5 1760.5,-230.5 1760.5,-178.5 1602.5,-178.5"/>
<text text-anchor="start" x="1610.5" y="-218.5" font-family="Helvetica,sans-Serif" font-size="10.00">/home/travis/build</text>
<text text-anchor="start" x="1610.5" y="-207.5" font-family="Helvetica,sans-Serif" font-size="10.00">/AliceO2Group/AliceO2</text>
<text text-anchor="start" x="1610.5" y="-196.5" font-family="Helvetica,sans-Serif" font-size="10.00">/Detectors/MUON/MID/Tracking</text>
<text text-anchor="middle" x="1681.5" y="-185.5" font-family="Helvetica,sans-Serif" font-size="10.00">/test/bench_Tracker.cxx</text>
</a>
</g>
</g>
<!-- Node1&#45;&gt;Node21 -->
<g id="edge29" class="edge"><title>Node1&#45;&gt;Node21</title>
<path fill="none" stroke="midnightblue" d="M996.632,-290.134C1125.01,-285.301 1380.59,-271.106 1593.5,-231 1596.31,-230.47 1599.17,-229.888 1602.04,-229.265"/>
<polygon fill="midnightblue" stroke="midnightblue" points="996.35,-286.642 986.485,-290.507 996.607,-293.638 996.35,-286.642"/>
</g>
<!-- Node22 -->
<g id="node22" class="node"><title>Node22</title>
<g id="a_node22"><a xlink:href="../../da/de0/testTracker_8cxx.html" target="_top" xlink:title="Test tracking device for MID. ">
<polygon fill="none" stroke="black" points="1778.5,-178.5 1778.5,-230.5 1936.5,-230.5 1936.5,-178.5 1778.5,-178.5"/>
<text text-anchor="start" x="1786.5" y="-218.5" font-family="Helvetica,sans-Serif" font-size="10.00">/home/travis/build</text>
<text text-anchor="start" x="1786.5" y="-207.5" font-family="Helvetica,sans-Serif" font-size="10.00">/AliceO2Group/AliceO2</text>
<text text-anchor="start" x="1786.5" y="-196.5" font-family="Helvetica,sans-Serif" font-size="10.00">/Detectors/MUON/MID/Tracking</text>
<text text-anchor="middle" x="1857.5" y="-185.5" font-family="Helvetica,sans-Serif" font-size="10.00">/test/testTracker.cxx</text>
</a>
</g>
</g>
<!-- Node1&#45;&gt;Node22 -->
<g id="edge30" class="edge"><title>Node1&#45;&gt;Node22</title>
<path fill="none" stroke="midnightblue" d="M996.316,-292.31C1149.35,-290.7 1488.81,-281.186 1769.5,-231 1772.32,-230.496 1775.18,-229.937 1778.05,-229.333"/>
<polygon fill="midnightblue" stroke="midnightblue" points="996.031,-288.813 986.066,-292.409 996.099,-295.812 996.031,-288.813"/>
</g>
<!-- Node6 -->
<g id="node6" class="node"><title>Node6</title>
<g id="a_node6"><a xlink:href="../../d3/dcc/Detectors_2MUON_2MID_2Clustering_2include_2MIDClustering_2Clusterizer_8h.html" target="_top" xlink:title="Cluster reconstruction algorithm for MID. ">
<polygon fill="none" stroke="black" points="719,-89.5 719,-141.5 894,-141.5 894,-89.5 719,-89.5"/>
<text text-anchor="start" x="727" y="-129.5" font-family="Helvetica,sans-Serif" font-size="10.00">/home/travis/build</text>
<text text-anchor="start" x="727" y="-118.5" font-family="Helvetica,sans-Serif" font-size="10.00">/AliceO2Group/AliceO2</text>
<text text-anchor="start" x="727" y="-107.5" font-family="Helvetica,sans-Serif" font-size="10.00">/Detectors/MUON/MID/Clustering</text>
<text text-anchor="middle" x="806.5" y="-96.5" font-family="Helvetica,sans-Serif" font-size="10.00">/include/MIDClustering/Clusterizer.h</text>
</a>
</g>
</g>
<!-- Node5&#45;&gt;Node6 -->
<g id="edge5" class="edge"><title>Node5&#45;&gt;Node6</title>
<path fill="none" stroke="midnightblue" d="M920.394,-173.776C899.581,-163.309 876.408,-151.656 856.426,-141.607"/>
<polygon fill="midnightblue" stroke="midnightblue" points="918.955,-176.97 929.461,-178.336 922.1,-170.716 918.955,-176.97"/>
</g>
<!-- Node5&#45;&gt;Node10 -->
<g id="edge13" class="edge"><title>Node5&#45;&gt;Node10</title>
<path fill="none" stroke="midnightblue" d="M969.713,-168.043C965.17,-143.497 963.914,-111.349 980.5,-89 984.21,-84.001 1041.97,-66.2995 1093.99,-51.1634"/>
<polygon fill="midnightblue" stroke="midnightblue" points="966.334,-168.982 971.819,-178.047 973.184,-167.54 966.334,-168.982"/>
</g>
<!-- Node13 -->
<g id="node13" class="node"><title>Node13</title>
<g id="a_node13"><a xlink:href="../../de/dcf/PreClusterHelper_8cxx.html" target="_top" xlink:title="Implementation of the pre&#45;clusters for MID. ">
<polygon fill="none" stroke="black" points="989,-89.5 989,-141.5 1154,-141.5 1154,-89.5 989,-89.5"/>
<text text-anchor="start" x="997" y="-129.5" font-family="Helvetica,sans-Serif" font-size="10.00">/home/travis/build</text>
<text text-anchor="start" x="997" y="-118.5" font-family="Helvetica,sans-Serif" font-size="10.00">/AliceO2Group/AliceO2</text>
<text text-anchor="start" x="997" y="-107.5" font-family="Helvetica,sans-Serif" font-size="10.00">/Detectors/MUON/MID/Clustering</text>
<text text-anchor="middle" x="1071.5" y="-96.5" font-family="Helvetica,sans-Serif" font-size="10.00">/src/PreClusterHelper.cxx</text>
</a>
</g>
</g>
<!-- Node5&#45;&gt;Node13 -->
<g id="edge12" class="edge"><title>Node5&#45;&gt;Node13</title>
<path fill="none" stroke="midnightblue" d="M1013.48,-171.363C1023.87,-161.542 1035.13,-150.89 1044.95,-141.607"/>
<polygon fill="midnightblue" stroke="midnightblue" points="1010.97,-168.922 1006.11,-178.336 1015.78,-174.008 1010.97,-168.922"/>
</g>
<!-- Node7 -->
<g id="node7" class="node"><title>Node7</title>
<g id="a_node7"><a xlink:href="../../d0/ddb/Detectors_2MUON_2MID_2Clustering_2src_2Clusterizer_8cxx.html" target="_top" xlink:title="Implementation of the cluster reconstruction algorithm for MID. ">
<polygon fill="none" stroke="black" points="911,-0.5 911,-52.5 1076,-52.5 1076,-0.5 911,-0.5"/>
<text text-anchor="start" x="919" y="-40.5" font-family="Helvetica,sans-Serif" font-size="10.00">/home/travis/build</text>
<text text-anchor="start" x="919" y="-29.5" font-family="Helvetica,sans-Serif" font-size="10.00">/AliceO2Group/AliceO2</text>
<text text-anchor="start" x="919" y="-18.5" font-family="Helvetica,sans-Serif" font-size="10.00">/Detectors/MUON/MID/Clustering</text>
<text text-anchor="middle" x="993.5" y="-7.5" font-family="Helvetica,sans-Serif" font-size="10.00">/src/Clusterizer.cxx</text>
</a>
</g>
</g>
<!-- Node6&#45;&gt;Node7 -->
<g id="edge6" class="edge"><title>Node6&#45;&gt;Node7</title>
<path fill="none" stroke="midnightblue" d="M869.578,-85.1533C892.348,-74.56 917.819,-62.7099 939.719,-52.5211"/>
<polygon fill="midnightblue" stroke="midnightblue" points="867.928,-82.061 860.337,-89.4527 870.88,-88.4078 867.928,-82.061"/>
</g>
<!-- Node6&#45;&gt;Node8 -->
<g id="edge7" class="edge"><title>Node6&#45;&gt;Node8</title>
<path fill="none" stroke="midnightblue" d="M708.942,-89.0693C472.059,-51.6332 405.594,-92.8736 173.5,-53 170.751,-52.5277 167.966,-52.0057 165.162,-51.4427"/>
<polygon fill="midnightblue" stroke="midnightblue" points="708.462,-92.5371 718.892,-90.6718 709.575,-85.6261 708.462,-92.5371"/>
</g>
<!-- Node9 -->
<g id="node9" class="node"><title>Node9</title>
<g id="a_node9"><a xlink:href="../../d6/dee/testClusterizer_8cxx.html" target="_top" xlink:title="Test clustering device for MID. ">
<polygon fill="none" stroke="black" points="547,-0.5 547,-52.5 712,-52.5 712,-0.5 547,-0.5"/>
<text text-anchor="start" x="555" y="-40.5" font-family="Helvetica,sans-Serif" font-size="10.00">/home/travis/build</text>
<text text-anchor="start" x="555" y="-29.5" font-family="Helvetica,sans-Serif" font-size="10.00">/AliceO2Group/AliceO2</text>
<text text-anchor="start" x="555" y="-18.5" font-family="Helvetica,sans-Serif" font-size="10.00">/Detectors/MUON/MID/Clustering</text>
<text text-anchor="middle" x="629.5" y="-7.5" font-family="Helvetica,sans-Serif" font-size="10.00">/test/testClusterizer.cxx</text>
</a>
</g>
</g>
<!-- Node6&#45;&gt;Node9 -->
<g id="edge8" class="edge"><title>Node6&#45;&gt;Node9</title>
<path fill="none" stroke="midnightblue" d="M746.314,-84.917C724.946,-74.414 701.116,-62.701 680.581,-52.6075"/>
<polygon fill="midnightblue" stroke="midnightblue" points="744.786,-88.0658 755.304,-89.336 747.874,-81.7837 744.786,-88.0658"/>
</g>
<!-- Node6&#45;&gt;Node10 -->
<g id="edge9" class="edge"><title>Node6&#45;&gt;Node10</title>
<path fill="none" stroke="midnightblue" d="M904.045,-90.0166C905.54,-89.6731 907.026,-89.334 908.5,-89 986.793,-71.2606 1007.44,-71.7326 1085.5,-53 1088.24,-52.3425 1091.02,-51.6599 1093.83,-50.9584"/>
<polygon fill="midnightblue" stroke="midnightblue" points="903.018,-86.6622 894.073,-92.3403 904.606,-93.4796 903.018,-86.6622"/>
</g>
<!-- Node11 -->
<g id="node11" class="node"><title>Node11</title>
<g id="a_node11"><a xlink:href="../../d3/d1e/ClusterizerMCSpec_8cxx.html" target="_top" xlink:title="Data processor spec for MID MC clustering device. ">
<polygon fill="none" stroke="black" points="730.5,-0.5 730.5,-52.5 892.5,-52.5 892.5,-0.5 730.5,-0.5"/>
<text text-anchor="start" x="738.5" y="-40.5" font-family="Helvetica,sans-Serif" font-size="10.00">/home/travis/build</text>
<text text-anchor="start" x="738.5" y="-29.5" font-family="Helvetica,sans-Serif" font-size="10.00">/AliceO2Group/AliceO2</text>
<text text-anchor="start" x="738.5" y="-18.5" font-family="Helvetica,sans-Serif" font-size="10.00">/Detectors/MUON/MID/Workflow</text>
<text text-anchor="middle" x="811.5" y="-7.5" font-family="Helvetica,sans-Serif" font-size="10.00">/src/ClusterizerMCSpec.cxx</text>
</a>
</g>
</g>
<!-- Node6&#45;&gt;Node11 -->
<g id="edge10" class="edge"><title>Node6&#45;&gt;Node11</title>
<path fill="none" stroke="midnightblue" d="M808.529,-79.1908C809.041,-70.2824 809.581,-60.8986 810.057,-52.6075"/>
<polygon fill="midnightblue" stroke="midnightblue" points="805.026,-79.1516 807.946,-89.336 812.014,-79.5533 805.026,-79.1516"/>
</g>
<!-- Node12 -->
<g id="node12" class="node"><title>Node12</title>
<g id="a_node12"><a xlink:href="../../d6/d57/MUON_2MID_2Workflow_2src_2ClusterizerSpec_8cxx.html" target="_top" xlink:title="Data processor spec for MID clustering device. ">
<polygon fill="none" stroke="black" points="366.5,-0.5 366.5,-52.5 528.5,-52.5 528.5,-0.5 366.5,-0.5"/>
<text text-anchor="start" x="374.5" y="-40.5" font-family="Helvetica,sans-Serif" font-size="10.00">/home/travis/build</text>
<text text-anchor="start" x="374.5" y="-29.5" font-family="Helvetica,sans-Serif" font-size="10.00">/AliceO2Group/AliceO2</text>
<text text-anchor="start" x="374.5" y="-18.5" font-family="Helvetica,sans-Serif" font-size="10.00">/Detectors/MUON/MID/Workflow</text>
<text text-anchor="middle" x="447.5" y="-7.5" font-family="Helvetica,sans-Serif" font-size="10.00">/src/ClusterizerSpec.cxx</text>
</a>
</g>
</g>
<!-- Node6&#45;&gt;Node12 -->
<g id="edge11" class="edge"><title>Node6&#45;&gt;Node12</title>
<path fill="none" stroke="midnightblue" d="M708.606,-88.8479C631.74,-71.0818 610.229,-70.8914 537.5,-53 534.661,-52.3017 531.777,-51.5755 528.867,-50.8289"/>
<polygon fill="midnightblue" stroke="midnightblue" points="708.247,-92.3582 718.781,-91.2267 709.84,-85.542 708.247,-92.3582"/>
</g>
<!-- Node14&#45;&gt;Node8 -->
<g id="edge16" class="edge"><title>Node14&#45;&gt;Node8</title>
<path fill="none" stroke="midnightblue" d="M500.318,-89.6703C499.039,-89.4414 497.766,-89.2178 496.5,-89 354.148,-64.505 315.287,-80.5781 173.5,-53 170.762,-52.4675 167.987,-51.8932 165.19,-51.2851"/>
<polygon fill="midnightblue" stroke="midnightblue" points="499.752,-93.1249 510.225,-91.5217 501.038,-86.2441 499.752,-93.1249"/>
</g>
<!-- Node14&#45;&gt;Node9 -->
<g id="edge17" class="edge"><title>Node14&#45;&gt;Node9</title>
<path fill="none" stroke="midnightblue" d="M615.16,-79.4811C617.642,-70.4865 620.262,-60.9887 622.574,-52.6075"/>
<polygon fill="midnightblue" stroke="midnightblue" points="611.727,-78.7653 612.442,-89.336 618.475,-80.6268 611.727,-78.7653"/>
</g>
<!-- Node14&#45;&gt;Node10 -->
<g id="edge18" class="edge"><title>Node14&#45;&gt;Node10</title>
<path fill="none" stroke="midnightblue" d="M710.77,-89.0867C877.418,-62.0236 924.08,-82.8819 1085.5,-53 1088.27,-52.4871 1091.08,-51.9299 1093.91,-51.3365"/>
<polygon fill="midnightblue" stroke="midnightblue" points="709.959,-85.6733 700.666,-90.7619 711.104,-92.5791 709.959,-85.6733"/>
</g>
<!-- Node14&#45;&gt;Node11 -->
<g id="edge19" class="edge"><title>Node14&#45;&gt;Node11</title>
<path fill="none" stroke="midnightblue" d="M674.319,-85.4355C699.571,-74.7708 727.915,-62.8004 752.255,-52.5211"/>
<polygon fill="midnightblue" stroke="midnightblue" points="672.658,-82.3378 664.807,-89.4527 675.381,-88.7863 672.658,-82.3378"/>
</g>
<!-- Node14&#45;&gt;Node12 -->
<g id="edge20" class="edge"><title>Node14&#45;&gt;Node12</title>
<path fill="none" stroke="midnightblue" d="M551.007,-84.4944C532.131,-74.1005 511.183,-62.5658 493.097,-52.6075"/>
<polygon fill="midnightblue" stroke="midnightblue" points="549.352,-87.5784 559.8,-89.336 552.728,-81.4466 549.352,-87.5784"/>
</g>
<!-- Node15 -->
<g id="node15" class="node"><title>Node15</title>
<g id="a_node15"><a xlink:href="../../db/d2e/PreClusterizer_8cxx.html" target="_top" xlink:title="Implementation of the pre&#45;cluster reconstruction algorithm for MID. ">
<polygon fill="none" stroke="black" points="183,-0.5 183,-52.5 348,-52.5 348,-0.5 183,-0.5"/>
<text text-anchor="start" x="191" y="-40.5" font-family="Helvetica,sans-Serif" font-size="10.00">/home/travis/build</text>
<text text-anchor="start" x="191" y="-29.5" font-family="Helvetica,sans-Serif" font-size="10.00">/AliceO2Group/AliceO2</text>
<text text-anchor="start" x="191" y="-18.5" font-family="Helvetica,sans-Serif" font-size="10.00">/Detectors/MUON/MID/Clustering</text>
<text text-anchor="middle" x="265.5" y="-7.5" font-family="Helvetica,sans-Serif" font-size="10.00">/src/PreClusterizer.cxx</text>
</a>
</g>
</g>
<!-- Node14&#45;&gt;Node15 -->
<g id="edge15" class="edge"><title>Node14&#45;&gt;Node15</title>
<path fill="none" stroke="midnightblue" d="M500.362,-89.1002C456.175,-78.2508 404.27,-65.2783 357.5,-53 354.454,-52.2004 351.354,-51.379 348.223,-50.5434"/>
<polygon fill="midnightblue" stroke="midnightblue" points="499.704,-92.5424 510.25,-91.5242 501.37,-85.7437 499.704,-92.5424"/>
</g>
<!-- Node18&#45;&gt;Node10 -->
<g id="edge26" class="edge"><title>Node18&#45;&gt;Node10</title>
<path fill="none" stroke="midnightblue" d="M1181.5,-168.249C1180.53,-134.038 1179.08,-82.9693 1178.22,-52.6697"/>
<polygon fill="midnightblue" stroke="midnightblue" points="1178,-168.387 1181.78,-178.283 1185,-168.188 1178,-168.387"/>
</g>
<!-- Node19 -->
<g id="node19" class="node"><title>Node19</title>
<g id="a_node19"><a xlink:href="../../d6/df9/MUON_2MID_2Simulation_2src_2Digitizer_8cxx.html" target="_top" xlink:title="Implementation of the digitizer for MID. ">
<polygon fill="none" stroke="black" points="1210,-89.5 1210,-141.5 1377,-141.5 1377,-89.5 1210,-89.5"/>
<text text-anchor="start" x="1218" y="-129.5" font-family="Helvetica,sans-Serif" font-size="10.00">/home/travis/build</text>
<text text-anchor="start" x="1218" y="-118.5" font-family="Helvetica,sans-Serif" font-size="10.00">/AliceO2Group/AliceO2</text>
<text text-anchor="start" x="1218" y="-107.5" font-family="Helvetica,sans-Serif" font-size="10.00">/Detectors/MUON/MID/Simulation</text>
<text text-anchor="middle" x="1293.5" y="-96.5" font-family="Helvetica,sans-Serif" font-size="10.00">/src/Digitizer.cxx</text>
</a>
</g>
</g>
<!-- Node18&#45;&gt;Node19 -->
<g id="edge25" class="edge"><title>Node18&#45;&gt;Node19</title>
<path fill="none" stroke="midnightblue" d="M1222.77,-171.934C1235.5,-161.956 1249.39,-151.07 1261.47,-141.607"/>
<polygon fill="midnightblue" stroke="midnightblue" points="1220.32,-169.412 1214.61,-178.336 1224.64,-174.922 1220.32,-169.412"/>
</g>
<!-- Node20 -->
<g id="node20" class="node"><title>Node20</title>
<g id="a_node20"><a xlink:href="../../d4/dd3/MIDDigitizerSpec_8cxx.html" target="_top" xlink:title="/home/travis/build\l/AliceO2Group/AliceO2\l/Steer/DigitizerWorkflow\l/src/MIDDigitizerSpec.cxx">
<polygon fill="none" stroke="black" points="1395.5,-89.5 1395.5,-141.5 1527.5,-141.5 1527.5,-89.5 1395.5,-89.5"/>
<text text-anchor="start" x="1403.5" y="-129.5" font-family="Helvetica,sans-Serif" font-size="10.00">/home/travis/build</text>
<text text-anchor="start" x="1403.5" y="-118.5" font-family="Helvetica,sans-Serif" font-size="10.00">/AliceO2Group/AliceO2</text>
<text text-anchor="start" x="1403.5" y="-107.5" font-family="Helvetica,sans-Serif" font-size="10.00">/Steer/DigitizerWorkflow</text>
<text text-anchor="middle" x="1461.5" y="-96.5" font-family="Helvetica,sans-Serif" font-size="10.00">/src/MIDDigitizerSpec.cxx</text>
</a>
</g>
</g>
<!-- Node18&#45;&gt;Node20 -->
<g id="edge27" class="edge"><title>Node18&#45;&gt;Node20</title>
<path fill="none" stroke="midnightblue" d="M1275.76,-176.131C1310.6,-165.712 1350.44,-153.562 1386.5,-142 1389.38,-141.076 1392.32,-140.123 1395.29,-139.152"/>
<polygon fill="midnightblue" stroke="midnightblue" points="1274.66,-172.807 1266.08,-179.021 1276.66,-179.515 1274.66,-172.807"/>
</g>
</g>
</svg>
