<?xml version="1.0" encoding="UTF-8" standalone="no"?>
<!DOCTYPE svg PUBLIC "-//W3C//DTD SVG 1.1//EN"
 "http://www.w3.org/Graphics/SVG/1.1/DTD/svg11.dtd">
<!-- Generated by graphviz version 2.38.0 (20140413.2041)
 -->
<!-- Title: o2::framework::rtr::DefaultKey Pages: 1 -->
<!--zoomable 766 -->
<svg id="main" version="1.1" xmlns="http://www.w3.org/2000/svg" xmlns:xlink="http://www.w3.org/1999/xlink" xml:space="preserve" onload="init(evt)">
<style type="text/css"><![CDATA[
.edge:hover path { stroke: red; }
.edge:hover polygon { stroke: red; fill: red; }
]]></style>
<script type="text/javascript"><![CDATA[
var edges = document.getElementsByTagName('g');
if (edges && edges.length) {
  for (var i=0;i<edges.length;i++) {
    if (edges[i].id.substr(0,4)=='edge') {
      edges[i].setAttribute('class','edge');
    }
  }
}
]]></script>
        <defs>
                <circle id="rim" cx="0" cy="0" r="7"/>
                <circle id="rim2" cx="0" cy="0" r="3.5"/>
                <g id="zoomPlus">
                        <use xlink:href="#rim" fill="#404040">
                                <set attributeName="fill" to="#808080" begin="zoomplus.mouseover" end="zoomplus.mouseout"/>
                        </use>
                        <path d="M-4,0h8M0,-4v8" fill="none" stroke="white" stroke-width="1.5" pointer-events="none"/>
                </g>
                <g id="zoomMin">
                        <use xlink:href="#rim" fill="#404040">
                                <set attributeName="fill" to="#808080" begin="zoomminus.mouseover" end="zoomminus.mouseout"/>
                        </use>
                        <path d="M-4,0h8" fill="none" stroke="white" stroke-width="1.5" pointer-events="none"/>
                </g>
                <g id="dirArrow">
                        <path fill="none" stroke="white" stroke-width="1.5" d="M0,-3.0v7 M-2.5,-0.5L0,-3.0L2.5,-0.5"/>
                </g>
               <g id="resetDef">
                       <use xlink:href="#rim2" fill="#404040">
                               <set attributeName="fill" to="#808080" begin="reset.mouseover" end="reset.mouseout"/>
                       </use>
               </g>
        </defs>

<script type="text/javascript">
var viewWidth = 648;
var viewHeight = 766;
var sectionId = 'dynsection-0';
</script>
<script xlink:href="../../svgpan.js"/>
<svg id="graph" class="graph">
<g id="viewport">
<title>o2::framework::rtr::DefaultKey</title>
<!-- Node1 -->
<g id="node1" class="node"><title>Node1</title>
<polygon fill="#bfbfbf" stroke="black" points="186,-0.5 186,-79.5 285,-79.5 285,-0.5 186,-0.5"/>
<text text-anchor="start" x="194" y="-67.5" font-family="Helvetica,sans-Serif" font-size="10.00">o2::framework::rtr</text>
<text text-anchor="middle" x="235.5" y="-56.5" font-family="Helvetica,sans-Serif" font-size="10.00">::DefaultKey</text>
<polyline fill="none" stroke="black" points="186,-49.5 285,-49.5 "/>
<text text-anchor="middle" x="235.5" y="-37.5" font-family="Helvetica,sans-Serif" font-size="10.00"> </text>
<polyline fill="none" stroke="black" points="186,-30.5 285,-30.5 "/>
<text text-anchor="start" x="194" y="-18.5" font-family="Helvetica,sans-Serif" font-size="10.00">+ DefaultKey()</text>
<text text-anchor="start" x="194" y="-7.5" font-family="Helvetica,sans-Serif" font-size="10.00">+ operator Output()</text>
</g>
<!-- Node2 -->
<g id="node2" class="node"><title>Node2</title>
<polygon fill="none" stroke="#bfbfbf" points="0,-210 0,-267 51,-267 51,-210 0,-210"/>
<text text-anchor="middle" x="25.5" y="-255" font-family="Helvetica,sans-Serif" font-size="10.00">uint32_t</text>
<polyline fill="none" stroke="#bfbfbf" points="0,-248 51,-248 "/>
<text text-anchor="middle" x="25.5" y="-236" font-family="Helvetica,sans-Serif" font-size="10.00"> </text>
<polyline fill="none" stroke="#bfbfbf" points="0,-229 51,-229 "/>
<text text-anchor="middle" x="25.5" y="-217" font-family="Helvetica,sans-Serif" font-size="10.00"> </text>
</g>
<!-- Node2&#45;&gt;Node1 -->
<g id="edge1" class="edge"><title>Node2&#45;&gt;Node1</title>
<path fill="none" stroke="#404040" d="M27.8911,-209.566C31.2965,-185.252 39.5433,-150.341 59.5,-127 89.2422,-92.2138 136.352,-70.2349 174.351,-57.2112"/>
<polygon fill="none" stroke="#404040" points="174.418,-57.1892 178.874,-51.5197 185.821,-53.4526 181.365,-59.122 174.418,-57.1892"/>
<text text-anchor="middle" x="115.5" y="-101" font-family="Helvetica,sans-Serif" font-size="10.00"> +subSpec</text>
</g>
<!-- Node3 -->
<g id="node3" class="node"><title>Node3</title>
<g id="a_node3"><a xlink:href="../../d9/db3/structo2_1_1header_1_1Descriptor.html" target="_top" xlink:title="{o2::header::Descriptor\l\&lt; gSizeDataOriginString,\l printDataOrigin \&gt;\n||+ Descriptor()\l+ Descriptor()\l+ Descriptor()\l+ Descriptor()\l+ operator=()\l+ operator ItgType()\l+ runtimeInit()\l+ operator==()\l+ operator==()\l+ operator\&lt;()\l+ operator!=()\l+ operator!=()\l+ as()\l+ print()\l}">
<polygon fill="none" stroke="black" points="380,-127.5 380,-349.5 505,-349.5 505,-127.5 380,-127.5"/>
<text text-anchor="start" x="388" y="-337.5" font-family="Helvetica,sans-Serif" font-size="10.00">o2::header::Descriptor</text>
<text text-anchor="start" x="388" y="-326.5" font-family="Helvetica,sans-Serif" font-size="10.00">&lt; gSizeDataOriginString,</text>
<text text-anchor="middle" x="442.5" y="-315.5" font-family="Helvetica,sans-Serif" font-size="10.00"> printDataOrigin &gt;</text>
<polyline fill="none" stroke="black" points="380,-308.5 505,-308.5 "/>
<text text-anchor="middle" x="442.5" y="-296.5" font-family="Helvetica,sans-Serif" font-size="10.00"> </text>
<polyline fill="none" stroke="black" points="380,-289.5 505,-289.5 "/>
<text text-anchor="start" x="388" y="-277.5" font-family="Helvetica,sans-Serif" font-size="10.00">+ Descriptor()</text>
<text text-anchor="start" x="388" y="-266.5" font-family="Helvetica,sans-Serif" font-size="10.00">+ Descriptor()</text>
<text text-anchor="start" x="388" y="-255.5" font-family="Helvetica,sans-Serif" font-size="10.00">+ Descriptor()</text>
<text text-anchor="start" x="388" y="-244.5" font-family="Helvetica,sans-Serif" font-size="10.00">+ Descriptor()</text>
<text text-anchor="start" x="388" y="-233.5" font-family="Helvetica,sans-Serif" font-size="10.00">+ operator=()</text>
<text text-anchor="start" x="388" y="-222.5" font-family="Helvetica,sans-Serif" font-size="10.00">+ operator ItgType()</text>
<text text-anchor="start" x="388" y="-211.5" font-family="Helvetica,sans-Serif" font-size="10.00">+ runtimeInit()</text>
<text text-anchor="start" x="388" y="-200.5" font-family="Helvetica,sans-Serif" font-size="10.00">+ operator==()</text>
<text text-anchor="start" x="388" y="-189.5" font-family="Helvetica,sans-Serif" font-size="10.00">+ operator==()</text>
<text text-anchor="start" x="388" y="-178.5" font-family="Helvetica,sans-Serif" font-size="10.00">+ operator&lt;()</text>
<text text-anchor="start" x="388" y="-167.5" font-family="Helvetica,sans-Serif" font-size="10.00">+ operator!=()</text>
<text text-anchor="start" x="388" y="-156.5" font-family="Helvetica,sans-Serif" font-size="10.00">+ operator!=()</text>
<text text-anchor="start" x="388" y="-145.5" font-family="Helvetica,sans-Serif" font-size="10.00">+ as()</text>
<text text-anchor="start" x="388" y="-134.5" font-family="Helvetica,sans-Serif" font-size="10.00">+ print()</text>
</a>
</g>
</g>
<!-- Node3&#45;&gt;Node1 -->
<g id="edge2" class="edge"><title>Node3&#45;&gt;Node1</title>
<path fill="none" stroke="#404040" d="M379.831,-178.01C349.444,-149.165 313.465,-115.011 285.031,-88.0188"/>
<polygon fill="none" stroke="#404040" points="284.784,-87.7844 277.679,-86.5546 276.081,-79.5227 283.187,-80.7525 284.784,-87.7844"/>
<text text-anchor="middle" x="319" y="-101" font-family="Helvetica,sans-Serif" font-size="10.00"> +origin</text>
</g>
<!-- Node4 -->
<g id="node4" class="node"><title>Node4</title>
<polygon fill="none" stroke="#bfbfbf" points="246.5,-700.5 246.5,-757.5 284.5,-757.5 284.5,-700.5 246.5,-700.5"/>
<text text-anchor="middle" x="265.5" y="-745.5" font-family="Helvetica,sans-Serif" font-size="10.00">Type</text>
<polyline fill="none" stroke="#bfbfbf" points="246.5,-738.5 284.5,-738.5 "/>
<text text-anchor="middle" x="265.5" y="-726.5" font-family="Helvetica,sans-Serif" font-size="10.00"> </text>
<polyline fill="none" stroke="#bfbfbf" points="246.5,-719.5 284.5,-719.5 "/>
<text text-anchor="middle" x="265.5" y="-707.5" font-family="Helvetica,sans-Serif" font-size="10.00"> </text>
</g>
<!-- Node4&#45;&gt;Node3 -->
<g id="edge3" class="edge"><title>Node4&#45;&gt;Node3</title>
<path fill="none" stroke="#404040" d="M258.122,-700.477C243.873,-640.484 220.05,-497.073 293.5,-419 329.851,-380.361 373.276,-437.788 411.5,-401 422.893,-390.035 430.807,-376.256 436.214,-361.394"/>
<polygon fill="none" stroke="#404040" points="436.249,-361.284 434.25,-354.355 439.877,-349.845 441.876,-356.774 436.249,-361.284"/>
<text text-anchor="middle" x="303.5" y="-522.5" font-family="Helvetica,sans-Serif" font-size="10.00"> +itg</text>
</g>
<!-- Node8 -->
<g id="node8" class="node"><title>Node8</title>
<g id="a_node8"><a xlink:href="../../d9/db3/structo2_1_1header_1_1Descriptor.html" target="_top" xlink:title="{o2::header::Descriptor\l\&lt; N, PrinterPolicy \&gt;\n||+ Descriptor()\l+ Descriptor()\l+ Descriptor()\l+ operator=()\l+ operator ItgType()\l+ Descriptor()\l+ runtimeInit()\l+ operator==()\l+ operator\&lt;()\l+ operator!=()\l+ operator==()\l+ operator!=()\l+ as()\l+ print()\l}">
<polygon fill="none" stroke="black" points="379,-419.5 379,-630.5 492,-630.5 492,-419.5 379,-419.5"/>
<text text-anchor="start" x="387" y="-618.5" font-family="Helvetica,sans-Serif" font-size="10.00">o2::header::Descriptor</text>
<text text-anchor="middle" x="435.5" y="-607.5" font-family="Helvetica,sans-Serif" font-size="10.00">&lt; N, PrinterPolicy &gt;</text>
<polyline fill="none" stroke="black" points="379,-600.5 492,-600.5 "/>
<text text-anchor="middle" x="435.5" y="-588.5" font-family="Helvetica,sans-Serif" font-size="10.00"> </text>
<polyline fill="none" stroke="black" points="379,-581.5 492,-581.5 "/>
<text text-anchor="start" x="387" y="-569.5" font-family="Helvetica,sans-Serif" font-size="10.00">+ Descriptor()</text>
<text text-anchor="start" x="387" y="-558.5" font-family="Helvetica,sans-Serif" font-size="10.00">+ Descriptor()</text>
<text text-anchor="start" x="387" y="-547.5" font-family="Helvetica,sans-Serif" font-size="10.00">+ Descriptor()</text>
<text text-anchor="start" x="387" y="-536.5" font-family="Helvetica,sans-Serif" font-size="10.00">+ operator=()</text>
<text text-anchor="start" x="387" y="-525.5" font-family="Helvetica,sans-Serif" font-size="10.00">+ operator ItgType()</text>
<text text-anchor="start" x="387" y="-514.5" font-family="Helvetica,sans-Serif" font-size="10.00">+ Descriptor()</text>
<text text-anchor="start" x="387" y="-503.5" font-family="Helvetica,sans-Serif" font-size="10.00">+ runtimeInit()</text>
<text text-anchor="start" x="387" y="-492.5" font-family="Helvetica,sans-Serif" font-size="10.00">+ operator==()</text>
<text text-anchor="start" x="387" y="-481.5" font-family="Helvetica,sans-Serif" font-size="10.00">+ operator&lt;()</text>
<text text-anchor="start" x="387" y="-470.5" font-family="Helvetica,sans-Serif" font-size="10.00">+ operator!=()</text>
<text text-anchor="start" x="387" y="-459.5" font-family="Helvetica,sans-Serif" font-size="10.00">+ operator==()</text>
<text text-anchor="start" x="387" y="-448.5" font-family="Helvetica,sans-Serif" font-size="10.00">+ operator!=()</text>
<text text-anchor="start" x="387" y="-437.5" font-family="Helvetica,sans-Serif" font-size="10.00">+ as()</text>
<text text-anchor="start" x="387" y="-426.5" font-family="Helvetica,sans-Serif" font-size="10.00">+ print()</text>
</a>
</g>
</g>
<!-- Node4&#45;&gt;Node8 -->
<g id="edge8" class="edge"><title>Node4&#45;&gt;Node8</title>
<path fill="none" stroke="#404040" d="M284.707,-708.711C310.465,-682.794 353.762,-639.039 360.5,-631 364.174,-626.617 367.861,-622.063 371.523,-617.417"/>
<polygon fill="none" stroke="#404040" points="371.642,-617.264 372.152,-610.071 378.989,-607.776 378.478,-614.969 371.642,-617.264"/>
<text text-anchor="middle" x="353.5" y="-663" font-family="Helvetica,sans-Serif" font-size="10.00"> +itg</text>
</g>
<!-- Node11 -->
<g id="node11" class="node"><title>Node11</title>
<g id="a_node11"><a xlink:href="../../d9/db3/structo2_1_1header_1_1Descriptor.html" target="_top" xlink:title="{o2::header::Descriptor\l\&lt; gSizeDataDescriptionString,\l printDataDescription \&gt;\n||+ Descriptor()\l+ Descriptor()\l+ Descriptor()\l+ Descriptor()\l+ operator=()\l+ operator ItgType()\l+ runtimeInit()\l+ operator==()\l+ operator==()\l+ operator\&lt;()\l+ operator!=()\l+ operator!=()\l+ as()\l+ print()\l}">
<polygon fill="none" stroke="black" points="69,-127.5 69,-349.5 218,-349.5 218,-127.5 69,-127.5"/>
<text text-anchor="start" x="77" y="-337.5" font-family="Helvetica,sans-Serif" font-size="10.00">o2::header::Descriptor</text>
<text text-anchor="start" x="77" y="-326.5" font-family="Helvetica,sans-Serif" font-size="10.00">&lt; gSizeDataDescriptionString,</text>
<text text-anchor="middle" x="143.5" y="-315.5" font-family="Helvetica,sans-Serif" font-size="10.00"> printDataDescription &gt;</text>
<polyline fill="none" stroke="black" points="69,-308.5 218,-308.5 "/>
<text text-anchor="middle" x="143.5" y="-296.5" font-family="Helvetica,sans-Serif" font-size="10.00"> </text>
<polyline fill="none" stroke="black" points="69,-289.5 218,-289.5 "/>
<text text-anchor="start" x="77" y="-277.5" font-family="Helvetica,sans-Serif" font-size="10.00">+ Descriptor()</text>
<text text-anchor="start" x="77" y="-266.5" font-family="Helvetica,sans-Serif" font-size="10.00">+ Descriptor()</text>
<text text-anchor="start" x="77" y="-255.5" font-family="Helvetica,sans-Serif" font-size="10.00">+ Descriptor()</text>
<text text-anchor="start" x="77" y="-244.5" font-family="Helvetica,sans-Serif" font-size="10.00">+ Descriptor()</text>
<text text-anchor="start" x="77" y="-233.5" font-family="Helvetica,sans-Serif" font-size="10.00">+ operator=()</text>
<text text-anchor="start" x="77" y="-222.5" font-family="Helvetica,sans-Serif" font-size="10.00">+ operator ItgType()</text>
<text text-anchor="start" x="77" y="-211.5" font-family="Helvetica,sans-Serif" font-size="10.00">+ runtimeInit()</text>
<text text-anchor="start" x="77" y="-200.5" font-family="Helvetica,sans-Serif" font-size="10.00">+ operator==()</text>
<text text-anchor="start" x="77" y="-189.5" font-family="Helvetica,sans-Serif" font-size="10.00">+ operator==()</text>
<text text-anchor="start" x="77" y="-178.5" font-family="Helvetica,sans-Serif" font-size="10.00">+ operator&lt;()</text>
<text text-anchor="start" x="77" y="-167.5" font-family="Helvetica,sans-Serif" font-size="10.00">+ operator!=()</text>
<text text-anchor="start" x="77" y="-156.5" font-family="Helvetica,sans-Serif" font-size="10.00">+ operator!=()</text>
<text text-anchor="start" x="77" y="-145.5" font-family="Helvetica,sans-Serif" font-size="10.00">+ as()</text>
<text text-anchor="start" x="77" y="-134.5" font-family="Helvetica,sans-Serif" font-size="10.00">+ print()</text>
</a>
</g>
</g>
<!-- Node4&#45;&gt;Node11 -->
<g id="edge14" class="edge"><title>Node4&#45;&gt;Node11</title>
<path fill="none" stroke="#404040" d="M246.409,-724.766C206.48,-716.877 114.539,-692.58 74.5,-631 10.7178,-532.902 30.0265,-480.414 62.5,-368 63.2004,-365.575 63.9617,-363.152 64.7783,-360.734"/>
<polygon fill="none" stroke="#404040" points="64.7875,-360.709 63.1374,-353.69 68.9826,-349.467 70.6326,-356.486 64.7875,-360.709"/>
<text text-anchor="middle" x="84.5" y="-522.5" font-family="Helvetica,sans-Serif" font-size="10.00"> +itg</text>
</g>
<!-- Node5 -->
<g id="node5" class="node"><title>Node5</title>
<polygon fill="none" stroke="#bfbfbf" points="303,-700.5 303,-757.5 338,-757.5 338,-700.5 303,-700.5"/>
<text text-anchor="middle" x="320.5" y="-745.5" font-family="Helvetica,sans-Serif" font-size="10.00">char</text>
<polyline fill="none" stroke="#bfbfbf" points="303,-738.5 338,-738.5 "/>
<text text-anchor="middle" x="320.5" y="-726.5" font-family="Helvetica,sans-Serif" font-size="10.00"> </text>
<polyline fill="none" stroke="#bfbfbf" points="303,-719.5 338,-719.5 "/>
<text text-anchor="middle" x="320.5" y="-707.5" font-family="Helvetica,sans-Serif" font-size="10.00"> </text>
</g>
<!-- Node5&#45;&gt;Node3 -->
<g id="edge4" class="edge"><title>Node5&#45;&gt;Node3</title>
<path fill="none" stroke="#404040" d="M318.959,-700.476C315.772,-632.62 311.566,-459.859 348.5,-419 376.732,-387.768 414.607,-433.392 441.5,-401 450.945,-389.624 456.541,-376.081 459.473,-361.748"/>
<polygon fill="none" stroke="#404040" points="459.524,-361.414 456.476,-354.879 461.336,-349.552 464.384,-356.087 459.524,-361.414"/>
<text text-anchor="middle" x="359" y="-522.5" font-family="Helvetica,sans-Serif" font-size="10.00"> +str</text>
</g>
<!-- Node5&#45;&gt;Node8 -->
<g id="edge9" class="edge"><title>Node5&#45;&gt;Node8</title>
<path fill="none" stroke="#404040" d="M338.198,-716.061C349.552,-707.651 363.911,-695.513 373.5,-682 382.217,-669.716 389.941,-656.033 396.718,-642.018"/>
<polygon fill="none" stroke="#404040" points="396.905,-641.614 395.799,-634.488 401.951,-630.727 403.057,-637.852 396.905,-641.614"/>
<text text-anchor="middle" x="403" y="-663" font-family="Helvetica,sans-Serif" font-size="10.00"> +str</text>
</g>
<!-- Node5&#45;&gt;Node11 -->
<g id="edge15" class="edge"><title>Node5&#45;&gt;Node11</title>
<path fill="none" stroke="#404040" d="M302.978,-708.137C299.967,-705.234 296.755,-702.413 293.5,-700 239.374,-659.865 201.228,-683.103 158.5,-631 91.1406,-548.862 108.083,-506.22 93.5,-401 91.4866,-386.472 90.7943,-382.415 93.5,-368 93.9047,-365.844 94.3445,-363.678 94.8163,-361.504"/>
<polygon fill="none" stroke="#404040" points="94.8165,-361.504 92.3337,-354.733 97.6283,-349.838 100.111,-356.608 94.8165,-361.504"/>
<text text-anchor="middle" x="169" y="-522.5" font-family="Helvetica,sans-Serif" font-size="10.00"> +str</text>
</g>
<!-- Node6 -->
<g id="node6" class="node"><title>Node6</title>
<polygon fill="none" stroke="#bfbfbf" points="189,-496.5 189,-553.5 218,-553.5 218,-496.5 189,-496.5"/>
<text text-anchor="middle" x="203.5" y="-541.5" font-family="Helvetica,sans-Serif" font-size="10.00">int</text>
<polyline fill="none" stroke="#bfbfbf" points="189,-534.5 218,-534.5 "/>
<text text-anchor="middle" x="203.5" y="-522.5" font-family="Helvetica,sans-Serif" font-size="10.00"> </text>
<polyline fill="none" stroke="#bfbfbf" points="189,-515.5 218,-515.5 "/>
<text text-anchor="middle" x="203.5" y="-503.5" font-family="Helvetica,sans-Serif" font-size="10.00"> </text>
</g>
<!-- Node6&#45;&gt;Node3 -->
<g id="edge5" class="edge"><title>Node6&#45;&gt;Node3</title>
<path fill="none" stroke="#404040" d="M208.617,-496.306C214.461,-472.446 226.375,-438.81 249.5,-419 273.243,-398.661 291.443,-418.275 317.5,-401 337.689,-387.615 356.005,-369.872 372.01,-351.05"/>
<polygon fill="none" stroke="#404040" points="372.051,-351.001 372.777,-343.826 379.679,-341.738 378.953,-348.912 372.051,-351.001"/>
<text text-anchor="middle" x="382" y="-393" font-family="Helvetica,sans-Serif" font-size="10.00"> +arraySize</text>
<text text-anchor="middle" x="382" y="-382" font-family="Helvetica,sans-Serif" font-size="10.00">+size</text>
<text text-anchor="middle" x="382" y="-371" font-family="Helvetica,sans-Serif" font-size="10.00">+bitcount</text>
</g>
<!-- Node6&#45;&gt;Node11 -->
<g id="edge16" class="edge"><title>Node6&#45;&gt;Node11</title>
<path fill="none" stroke="#404040" d="M192.228,-496.179C181.808,-473.206 164.47,-440.926 141.5,-419 129.132,-407.194 116.319,-415.648 107.5,-401 100.223,-388.913 97.0628,-375.52 96.7082,-361.766"/>
<polygon fill="none" stroke="#404040" points="96.7131,-361.605 92.9013,-355.484 97.0857,-349.611 100.897,-355.732 96.7131,-361.605"/>
<text text-anchor="middle" x="133" y="-393" font-family="Helvetica,sans-Serif" font-size="10.00"> +arraySize</text>
<text text-anchor="middle" x="133" y="-382" font-family="Helvetica,sans-Serif" font-size="10.00">+size</text>
<text text-anchor="middle" x="133" y="-371" font-family="Helvetica,sans-Serif" font-size="10.00">+bitcount</text>
</g>
<!-- Node7 -->
<g id="node7" class="node"><title>Node7</title>
<polygon fill="none" stroke="#bfbfbf" points="511,-700.5 511,-757.5 608,-757.5 608,-700.5 511,-700.5"/>
<text text-anchor="middle" x="559.5" y="-745.5" font-family="Helvetica,sans-Serif" font-size="10.00">anonymous:+@24</text>
<polyline fill="none" stroke="#bfbfbf" points="511,-738.5 608,-738.5 "/>
<text text-anchor="middle" x="559.5" y="-726.5" font-family="Helvetica,sans-Serif" font-size="10.00"> </text>
<polyline fill="none" stroke="#bfbfbf" points="511,-719.5 608,-719.5 "/>
<text text-anchor="middle" x="559.5" y="-707.5" font-family="Helvetica,sans-Serif" font-size="10.00"> </text>
</g>
<!-- Node7&#45;&gt;Node3 -->
<g id="edge6" class="edge"><title>Node7&#45;&gt;Node3</title>
<path fill="none" stroke="#404040" d="M569.861,-700.298C591.476,-637.834 635.322,-482.532 584.5,-368 569.843,-334.97 542.037,-306.824 514.888,-285.369"/>
<polygon fill="none" stroke="#404040" points="514.867,-285.353 507.671,-284.885 505.335,-278.062 512.531,-278.53 514.867,-285.353"/>
<text text-anchor="middle" x="624" y="-522.5" font-family="Helvetica,sans-Serif" font-size="10.00"> +@24</text>
</g>
<!-- Node7&#45;&gt;Node8 -->
<g id="edge10" class="edge"><title>Node7&#45;&gt;Node8</title>
<path fill="none" stroke="#404040" d="M529.731,-700.255C524.327,-694.497 518.989,-688.267 514.5,-682 505.414,-669.315 496.791,-655.435 488.813,-641.352"/>
<polygon fill="none" stroke="#404040" points="488.651,-641.058 482.246,-637.745 482.841,-630.559 489.246,-633.872 488.651,-641.058"/>
<text text-anchor="middle" x="530" y="-663" font-family="Helvetica,sans-Serif" font-size="10.00"> +@24</text>
</g>
<!-- Node7&#45;&gt;Node11 -->
<g id="edge17" class="edge"><title>Node7&#45;&gt;Node11</title>
<path fill="none" stroke="#404040" d="M557.431,-700.365C551.898,-633.052 534.795,-462.899 500.5,-419 499.986,-418.341 392.305,-368.226 391.5,-368 324.484,-349.202 294.424,-382.417 228.848,-349.783"/>
<polygon fill="none" stroke="#404040" points="228.579,-349.639 221.401,-350.325 218.007,-343.962 225.185,-343.277 228.579,-349.639"/>
<text text-anchor="middle" x="567" y="-522.5" font-family="Helvetica,sans-Serif" font-size="10.00"> +@24</text>
</g>
<!-- Node8&#45;&gt;Node3 -->
<g id="edge7" class="edge"><title>Node8&#45;&gt;Node3</title>
<path fill="none" stroke="orange" d="M465.369,-409.24C465.784,-406.473 466.162,-403.723 466.5,-401 468.559,-384.403 468.395,-366.878 466.922,-349.734"/>
<polygon fill="orange" stroke="orange" points="461.881,-408.884 463.721,-419.317 468.789,-410.013 461.881,-408.884"/>
<text text-anchor="start" x="468.5" y="-387.5" font-family="Helvetica,sans-Serif" font-size="10.00"> &lt; gSizeDataOriginString,</text>
<text text-anchor="middle" x="524.5" y="-376.5" font-family="Helvetica,sans-Serif" font-size="10.00"> printDataOrigin &gt;</text>
</g>
<!-- Node8&#45;&gt;Node11 -->
<g id="edge18" class="edge"><title>Node8&#45;&gt;Node11</title>
<path fill="none" stroke="orange" d="M371.219,-426.179C367.782,-423.555 364.209,-421.145 360.5,-419 325.126,-398.544 207.932,-428.271 177.5,-401 168.591,-393.017 161.877,-373.059 156.873,-349.789"/>
<polygon fill="orange" stroke="orange" points="369.072,-428.946 378.993,-432.666 373.558,-423.572 369.072,-428.946"/>
<text text-anchor="start" x="177.5" y="-387.5" font-family="Helvetica,sans-Serif" font-size="10.00"> &lt; gSizeDataDescriptionString,</text>
<text text-anchor="middle" x="245.5" y="-376.5" font-family="Helvetica,sans-Serif" font-size="10.00"> printDataDescription &gt;</text>
</g>
<!-- Node9 -->
<g id="node9" class="node"><title>Node9</title>
<polygon fill="none" stroke="#bfbfbf" points="419,-700.5 419,-757.5 460,-757.5 460,-700.5 419,-700.5"/>
<text text-anchor="middle" x="439.5" y="-745.5" font-family="Helvetica,sans-Serif" font-size="10.00">static</text>
<polyline fill="none" stroke="#bfbfbf" points="419,-738.5 460,-738.5 "/>
<text text-anchor="middle" x="439.5" y="-726.5" font-family="Helvetica,sans-Serif" font-size="10.00"> </text>
<polyline fill="none" stroke="#bfbfbf" points="419,-719.5 460,-719.5 "/>
<text text-anchor="middle" x="439.5" y="-707.5" font-family="Helvetica,sans-Serif" font-size="10.00"> </text>
</g>
<!-- Node9&#45;&gt;Node8 -->
<g id="edge11" class="edge"><title>Node9&#45;&gt;Node8</title>
<path fill="none" stroke="#404040" d="M438.952,-700.336C438.645,-684.838 438.239,-664.34 437.814,-642.861"/>
<polygon fill="none" stroke="#404040" points="437.814,-642.85 433.696,-636.931 437.576,-630.853 441.694,-636.772 437.814,-642.85"/>
<text text-anchor="middle" x="465" y="-674" font-family="Helvetica,sans-Serif" font-size="10.00"> +arraySize</text>
<text text-anchor="middle" x="465" y="-663" font-family="Helvetica,sans-Serif" font-size="10.00">+size</text>
<text text-anchor="middle" x="465" y="-652" font-family="Helvetica,sans-Serif" font-size="10.00">+bitcount</text>
</g>
<!-- Node10 -->
<g id="node10" class="node"><title>Node10</title>
<polygon fill="none" stroke="#bfbfbf" points="236.5,-210 236.5,-267 314.5,-267 314.5,-210 236.5,-210"/>
<text text-anchor="middle" x="275.5" y="-255" font-family="Helvetica,sans-Serif" font-size="10.00">enum Lifetime</text>
<polyline fill="none" stroke="#bfbfbf" points="236.5,-248 314.5,-248 "/>
<text text-anchor="middle" x="275.5" y="-236" font-family="Helvetica,sans-Serif" font-size="10.00"> </text>
<polyline fill="none" stroke="#bfbfbf" points="236.5,-229 314.5,-229 "/>
<text text-anchor="middle" x="275.5" y="-217" font-family="Helvetica,sans-Serif" font-size="10.00"> </text>
</g>
<!-- Node10&#45;&gt;Node1 -->
<g id="edge12" class="edge"><title>Node10&#45;&gt;Node1</title>
<path fill="none" stroke="#404040" d="M269.854,-209.763C263.643,-179.253 253.529,-129.569 245.88,-91.9913"/>
<polygon fill="none" stroke="#404040" points="245.783,-91.5158 240.667,-86.4343 243.389,-79.757 248.506,-84.8385 245.783,-91.5158"/>
<text text-anchor="middle" x="269" y="-101" font-family="Helvetica,sans-Serif" font-size="10.00"> +lifetime</text>
</g>
<!-- Node11&#45;&gt;Node1 -->
<g id="edge13" class="edge"><title>Node11&#45;&gt;Node1</title>
<path fill="none" stroke="#404040" d="M172.768,-127.201C176.85,-117.095 181.416,-107.207 186.5,-98 188.072,-95.153 189.803,-92.3201 191.646,-89.5256"/>
<polygon fill="none" stroke="#404040" points="191.75,-89.379 191.986,-82.1717 198.73,-79.6176 198.494,-86.8248 191.75,-89.379"/>
<text text-anchor="middle" x="215" y="-101" font-family="Helvetica,sans-Serif" font-size="10.00"> +description</text>
</g>
</g>
</svg>
        <g id="navigator" transform="translate(0 0)" fill="#404254">
                <rect fill="#f2f5e9" fill-opacity="0.5" stroke="#606060" stroke-width=".5" x="0" y="0" width="60" height="60"/>
                <use id="zoomplus" xlink:href="#zoomPlus" x="17" y="9" onmousedown="handleZoom(evt,'in')"/>
                <use id="zoomminus" xlink:href="#zoomMin" x="42" y="9" onmousedown="handleZoom(evt,'out')"/>
                <use id="reset" xlink:href="#resetDef" x="30" y="36" onmousedown="handleReset()"/>
                <g id="arrowUp" xlink:href="#dirArrow" transform="translate(30 24)" onmousedown="handlePan(0,-1)">
                  <use xlink:href="#rim" fill="#404040">
                        <set attributeName="fill" to="#808080" begin="arrowUp.mouseover" end="arrowUp.mouseout"/>
                  </use>
                  <path fill="none" stroke="white" stroke-width="1.5" d="M0,-3.0v7 M-2.5,-0.5L0,-3.0L2.5,-0.5"/>
                </g>
                <g id="arrowRight" xlink:href="#dirArrow" transform="rotate(90) translate(36 -43)" onmousedown="handlePan(1,0)">
                  <use xlink:href="#rim" fill="#404040">
                        <set attributeName="fill" to="#808080" begin="arrowRight.mouseover" end="arrowRight.mouseout"/>
                  </use>
                  <path fill="none" stroke="white" stroke-width="1.5" d="M0,-3.0v7 M-2.5,-0.5L0,-3.0L2.5,-0.5"/>
                </g>
                <g id="arrowDown" xlink:href="#dirArrow" transform="rotate(180) translate(-30 -48)" onmousedown="handlePan(0,1)">
                  <use xlink:href="#rim" fill="#404040">
                        <set attributeName="fill" to="#808080" begin="arrowDown.mouseover" end="arrowDown.mouseout"/>
                  </use>
                  <path fill="none" stroke="white" stroke-width="1.5" d="M0,-3.0v7 M-2.5,-0.5L0,-3.0L2.5,-0.5"/>
                </g>
                <g id="arrowLeft" xlink:href="#dirArrow" transform="rotate(270) translate(-36 17)" onmousedown="handlePan(-1,0)">
                  <use xlink:href="#rim" fill="#404040">
                        <set attributeName="fill" to="#808080" begin="arrowLeft.mouseover" end="arrowLeft.mouseout"/>
                  </use>
                  <path fill="none" stroke="white" stroke-width="1.5" d="M0,-3.0v7 M-2.5,-0.5L0,-3.0L2.5,-0.5"/>
                </g>
        </g>
        <svg viewBox="0 0 15 15" width="100%" height="30px" preserveAspectRatio="xMaxYMin meet">
         <g id="arrow_out" transform="scale(0.3 0.3)">
          <a xlink:href="structo2_1_1framework_1_1rtr_1_1DefaultKey__coll__graph_org.svg" target="_base">
           <rect id="button" ry="5" rx="5" y="6" x="6" height="38" width="38"
                fill="#f2f5e9" fill-opacity="0.5" stroke="#606060" stroke-width="1.0"/>
           <path id="arrow"
             d="M 11.500037,31.436501 C 11.940474,20.09759 22.043105,11.32322 32.158766,21.979434 L 37.068811,17.246167 C 37.068811,17.246167 37.088388,32 37.088388,32 L 22.160133,31.978069 C 22.160133,31.978069 26.997745,27.140456 26.997745,27.140456 C 18.528582,18.264221 13.291696,25.230495 11.500037,31.436501 z"
             style="fill:#404040;"/>
          </a>
         </g>
        </svg>
</svg>
