<?xml version="1.0" encoding="UTF-8" standalone="no"?>
<!DOCTYPE svg PUBLIC "-//W3C//DTD SVG 1.1//EN"
 "http://www.w3.org/Graphics/SVG/1.1/DTD/svg11.dtd">
<!-- Generated by graphviz version 2.38.0 (20140413.2041)
 -->
<!-- Title: o2::mft::Tracker::Layer Pages: 1 -->
<svg width="765pt" height="1835pt"
 viewBox="0.00 0.00 765.00 1835.00" xmlns="http://www.w3.org/2000/svg" xmlns:xlink="http://www.w3.org/1999/xlink">
<g id="graph0" class="graph" transform="scale(1 1) rotate(0) translate(4 1831)">
<title>o2::mft::Tracker::Layer</title>
<!-- Node1 -->
<g id="node1" class="node"><title>Node1</title>
<polygon fill="#bfbfbf" stroke="black" points="393.5,-0.5 393.5,-145.5 520.5,-145.5 520.5,-0.5 393.5,-0.5"/>
<text text-anchor="middle" x="457" y="-133.5" font-family="Helvetica,sans-Serif" font-size="10.00">o2::mft::Tracker::Layer</text>
<polyline fill="none" stroke="black" points="393.5,-126.5 520.5,-126.5 "/>
<text text-anchor="middle" x="457" y="-114.5" font-family="Helvetica,sans-Serif" font-size="10.00"> </text>
<polyline fill="none" stroke="black" points="393.5,-107.5 520.5,-107.5 "/>
<text text-anchor="start" x="401.5" y="-95.5" font-family="Helvetica,sans-Serif" font-size="10.00">+ Layer()</text>
<text text-anchor="start" x="401.5" y="-84.5" font-family="Helvetica,sans-Serif" font-size="10.00">+ Layer()</text>
<text text-anchor="start" x="401.5" y="-73.5" font-family="Helvetica,sans-Serif" font-size="10.00">+ operator=()</text>
<text text-anchor="start" x="401.5" y="-62.5" font-family="Helvetica,sans-Serif" font-size="10.00">+ init()</text>
<text text-anchor="start" x="401.5" y="-51.5" font-family="Helvetica,sans-Serif" font-size="10.00">+ insertCluster()</text>
<text text-anchor="start" x="401.5" y="-40.5" font-family="Helvetica,sans-Serif" font-size="10.00">+ unloadClusters()</text>
<text text-anchor="start" x="401.5" y="-29.5" font-family="Helvetica,sans-Serif" font-size="10.00">+ getCluster()</text>
<text text-anchor="start" x="401.5" y="-18.5" font-family="Helvetica,sans-Serif" font-size="10.00">+ setGeometry()</text>
<text text-anchor="start" x="401.5" y="-7.5" font-family="Helvetica,sans-Serif" font-size="10.00">+ getNumberOfClusters()</text>
</g>
<!-- Node2 -->
<g id="node2" class="node"><title>Node2</title>
<g id="a_node2"><a xlink:href="../../de/db5/classo2_1_1mft_1_1GeometryTGeo.html" target="_top" xlink:title="{o2::mft::GeometryTGeo\n||+ GeometryTGeo()\l+ ~GeometryTGeo()\l+ GeometryTGeo()\l+ operator=()\l+ fillMatrixCache()\l+ Build()\l+ getSensorIndex()\l+ getLayer()\l+ getSensorID()\l+ getNumberOfSensorsPerLadder()\l+ getLadderID()\l+ Instance()\l+ adopt()\l+ getMFTVolPattern()\l+ getMFTHalfPattern()\l+ getMFTDiskPattern()\l+ getMFTLadderPattern()\l+ getMFTChipPattern()\l+ getMFTSensorPattern()\l# extractNumberOfHalves()\l# extractNumberOfDisks()\l# extractNumberOfLadders()\l# extractNumberOfLadders()\l# extractNumberOfSensorsPer\lLadder()\l# extractVolumeCopy()\l# extractMatrixSensor()\l# createT2LMatrix()\l# extractSensorXAlpha()\l# getHalf()\l# getDisk()\l# getLadder()\l# getFirstSensorIndex()\l}">
<polygon fill="none" stroke="black" points="249,-193.5 249,-602.5 419,-602.5 419,-193.5 249,-193.5"/>
<text text-anchor="middle" x="334" y="-590.5" font-family="Helvetica,sans-Serif" font-size="10.00">o2::mft::GeometryTGeo</text>
<polyline fill="none" stroke="black" points="249,-583.5 419,-583.5 "/>
<text text-anchor="middle" x="334" y="-571.5" font-family="Helvetica,sans-Serif" font-size="10.00"> </text>
<polyline fill="none" stroke="black" points="249,-564.5 419,-564.5 "/>
<text text-anchor="start" x="257" y="-552.5" font-family="Helvetica,sans-Serif" font-size="10.00">+ GeometryTGeo()</text>
<text text-anchor="start" x="257" y="-541.5" font-family="Helvetica,sans-Serif" font-size="10.00">+ ~GeometryTGeo()</text>
<text text-anchor="start" x="257" y="-530.5" font-family="Helvetica,sans-Serif" font-size="10.00">+ GeometryTGeo()</text>
<text text-anchor="start" x="257" y="-519.5" font-family="Helvetica,sans-Serif" font-size="10.00">+ operator=()</text>
<text text-anchor="start" x="257" y="-508.5" font-family="Helvetica,sans-Serif" font-size="10.00">+ fillMatrixCache()</text>
<text text-anchor="start" x="257" y="-497.5" font-family="Helvetica,sans-Serif" font-size="10.00">+ Build()</text>
<text text-anchor="start" x="257" y="-486.5" font-family="Helvetica,sans-Serif" font-size="10.00">+ getSensorIndex()</text>
<text text-anchor="start" x="257" y="-475.5" font-family="Helvetica,sans-Serif" font-size="10.00">+ getLayer()</text>
<text text-anchor="start" x="257" y="-464.5" font-family="Helvetica,sans-Serif" font-size="10.00">+ getSensorID()</text>
<text text-anchor="start" x="257" y="-453.5" font-family="Helvetica,sans-Serif" font-size="10.00">+ getNumberOfSensorsPerLadder()</text>
<text text-anchor="start" x="257" y="-442.5" font-family="Helvetica,sans-Serif" font-size="10.00">+ getLadderID()</text>
<text text-anchor="start" x="257" y="-431.5" font-family="Helvetica,sans-Serif" font-size="10.00">+ Instance()</text>
<text text-anchor="start" x="257" y="-420.5" font-family="Helvetica,sans-Serif" font-size="10.00">+ adopt()</text>
<text text-anchor="start" x="257" y="-409.5" font-family="Helvetica,sans-Serif" font-size="10.00">+ getMFTVolPattern()</text>
<text text-anchor="start" x="257" y="-398.5" font-family="Helvetica,sans-Serif" font-size="10.00">+ getMFTHalfPattern()</text>
<text text-anchor="start" x="257" y="-387.5" font-family="Helvetica,sans-Serif" font-size="10.00">+ getMFTDiskPattern()</text>
<text text-anchor="start" x="257" y="-376.5" font-family="Helvetica,sans-Serif" font-size="10.00">+ getMFTLadderPattern()</text>
<text text-anchor="start" x="257" y="-365.5" font-family="Helvetica,sans-Serif" font-size="10.00">+ getMFTChipPattern()</text>
<text text-anchor="start" x="257" y="-354.5" font-family="Helvetica,sans-Serif" font-size="10.00">+ getMFTSensorPattern()</text>
<text text-anchor="start" x="257" y="-343.5" font-family="Helvetica,sans-Serif" font-size="10.00"># extractNumberOfHalves()</text>
<text text-anchor="start" x="257" y="-332.5" font-family="Helvetica,sans-Serif" font-size="10.00"># extractNumberOfDisks()</text>
<text text-anchor="start" x="257" y="-321.5" font-family="Helvetica,sans-Serif" font-size="10.00"># extractNumberOfLadders()</text>
<text text-anchor="start" x="257" y="-310.5" font-family="Helvetica,sans-Serif" font-size="10.00"># extractNumberOfLadders()</text>
<text text-anchor="start" x="257" y="-299.5" font-family="Helvetica,sans-Serif" font-size="10.00"># extractNumberOfSensorsPer</text>
<text text-anchor="start" x="257" y="-288.5" font-family="Helvetica,sans-Serif" font-size="10.00">Ladder()</text>
<text text-anchor="start" x="257" y="-277.5" font-family="Helvetica,sans-Serif" font-size="10.00"># extractVolumeCopy()</text>
<text text-anchor="start" x="257" y="-266.5" font-family="Helvetica,sans-Serif" font-size="10.00"># extractMatrixSensor()</text>
<text text-anchor="start" x="257" y="-255.5" font-family="Helvetica,sans-Serif" font-size="10.00"># createT2LMatrix()</text>
<text text-anchor="start" x="257" y="-244.5" font-family="Helvetica,sans-Serif" font-size="10.00"># extractSensorXAlpha()</text>
<text text-anchor="start" x="257" y="-233.5" font-family="Helvetica,sans-Serif" font-size="10.00"># getHalf()</text>
<text text-anchor="start" x="257" y="-222.5" font-family="Helvetica,sans-Serif" font-size="10.00"># getDisk()</text>
<text text-anchor="start" x="257" y="-211.5" font-family="Helvetica,sans-Serif" font-size="10.00"># getLadder()</text>
<text text-anchor="start" x="257" y="-200.5" font-family="Helvetica,sans-Serif" font-size="10.00"># getFirstSensorIndex()</text>
</a>
</g>
</g>
<!-- Node2&#45;&gt;Node1 -->
<g id="edge1" class="edge"><title>Node2&#45;&gt;Node1</title>
<path fill="none" stroke="#404040" d="M411.549,-193.356C416.37,-180.695 421.05,-168.406 425.458,-156.831"/>
<polygon fill="none" stroke="#404040" points="425.5,-156.72 423.897,-149.689 429.77,-145.506 431.373,-152.536 425.5,-156.72"/>
<text text-anchor="middle" x="442.5" y="-167" font-family="Helvetica,sans-Serif" font-size="10.00"> #mGeom</text>
</g>
<!-- Node3 -->
<g id="node3" class="node"><title>Node3</title>
<g id="a_node3"><a xlink:href="../../d9/d02/classo2_1_1itsmft_1_1GeometryTGeo.html" target="_top" xlink:title="{o2::itsmft::GeometryTGeo\n||+ GeometryTGeo()\l+ GeometryTGeo()\l+ operator=()\l+ GeometryTGeo()\l+ ~GeometryTGeo()\l+ getNumberOfChips()\l+ Build()\l# ClassDefOverride()\l}">
<polygon fill="none" stroke="black" points="91.5,-694.5 91.5,-828.5 222.5,-828.5 222.5,-694.5 91.5,-694.5"/>
<text text-anchor="middle" x="157" y="-816.5" font-family="Helvetica,sans-Serif" font-size="10.00">o2::itsmft::GeometryTGeo</text>
<polyline fill="none" stroke="black" points="91.5,-809.5 222.5,-809.5 "/>
<text text-anchor="middle" x="157" y="-797.5" font-family="Helvetica,sans-Serif" font-size="10.00"> </text>
<polyline fill="none" stroke="black" points="91.5,-790.5 222.5,-790.5 "/>
<text text-anchor="start" x="99.5" y="-778.5" font-family="Helvetica,sans-Serif" font-size="10.00">+ GeometryTGeo()</text>
<text text-anchor="start" x="99.5" y="-767.5" font-family="Helvetica,sans-Serif" font-size="10.00">+ GeometryTGeo()</text>
<text text-anchor="start" x="99.5" y="-756.5" font-family="Helvetica,sans-Serif" font-size="10.00">+ operator=()</text>
<text text-anchor="start" x="99.5" y="-745.5" font-family="Helvetica,sans-Serif" font-size="10.00">+ GeometryTGeo()</text>
<text text-anchor="start" x="99.5" y="-734.5" font-family="Helvetica,sans-Serif" font-size="10.00">+ ~GeometryTGeo()</text>
<text text-anchor="start" x="99.5" y="-723.5" font-family="Helvetica,sans-Serif" font-size="10.00">+ getNumberOfChips()</text>
<text text-anchor="start" x="99.5" y="-712.5" font-family="Helvetica,sans-Serif" font-size="10.00">+ Build()</text>
<text text-anchor="start" x="99.5" y="-701.5" font-family="Helvetica,sans-Serif" font-size="10.00"># ClassDefOverride()</text>
</a>
</g>
</g>
<!-- Node3&#45;&gt;Node2 -->
<g id="edge2" class="edge"><title>Node3&#45;&gt;Node2</title>
<path fill="none" stroke="midnightblue" d="M193.899,-685.139C209.958,-652.341 229.501,-612.427 248.831,-572.946"/>
<polygon fill="none" stroke="midnightblue" points="190.719,-683.675 189.465,-694.195 197.005,-686.753 190.719,-683.675"/>
</g>
<!-- Node4 -->
<g id="node4" class="node"><title>Node4</title>
<g id="a_node4"><a xlink:href="../../df/d06/classo2_1_1detectors_1_1DetMatrixCache.html" target="_top" xlink:title="{o2::detectors::DetMatrix\lCache\n||+ DetMatrixCache()\l+ DetMatrixCache()\l+ ~DetMatrixCache()\l+ DetMatrixCache()\l+ operator=()\l+ getDetID()\l+ getName()\l+ getCacheT2L()\l+ getCacheT2G()\l+ getCacheL2G()\l+ getCacheT2GRot()\l+ getMatrixT2L()\l+ getMatrixT2G()\l+ getMatrixL2G()\l+ getMatrixT2GRot()\l+ isBuilt()\l+ getSize()\l+ fillMatrixCache()\l+ setSize()\l+ getCacheT2L()\l+ getCacheT2G()\l+ getCacheL2G()\l+ getCacheT2GRot()\l+ ClassDef()\l}">
<polygon fill="none" stroke="black" points="159,-866.5 159,-1187.5 281,-1187.5 281,-866.5 159,-866.5"/>
<text text-anchor="start" x="167" y="-1175.5" font-family="Helvetica,sans-Serif" font-size="10.00">o2::detectors::DetMatrix</text>
<text text-anchor="middle" x="220" y="-1164.5" font-family="Helvetica,sans-Serif" font-size="10.00">Cache</text>
<polyline fill="none" stroke="black" points="159,-1157.5 281,-1157.5 "/>
<text text-anchor="middle" x="220" y="-1145.5" font-family="Helvetica,sans-Serif" font-size="10.00"> </text>
<polyline fill="none" stroke="black" points="159,-1138.5 281,-1138.5 "/>
<text text-anchor="start" x="167" y="-1126.5" font-family="Helvetica,sans-Serif" font-size="10.00">+ DetMatrixCache()</text>
<text text-anchor="start" x="167" y="-1115.5" font-family="Helvetica,sans-Serif" font-size="10.00">+ DetMatrixCache()</text>
<text text-anchor="start" x="167" y="-1104.5" font-family="Helvetica,sans-Serif" font-size="10.00">+ ~DetMatrixCache()</text>
<text text-anchor="start" x="167" y="-1093.5" font-family="Helvetica,sans-Serif" font-size="10.00">+ DetMatrixCache()</text>
<text text-anchor="start" x="167" y="-1082.5" font-family="Helvetica,sans-Serif" font-size="10.00">+ operator=()</text>
<text text-anchor="start" x="167" y="-1071.5" font-family="Helvetica,sans-Serif" font-size="10.00">+ getDetID()</text>
<text text-anchor="start" x="167" y="-1060.5" font-family="Helvetica,sans-Serif" font-size="10.00">+ getName()</text>
<text text-anchor="start" x="167" y="-1049.5" font-family="Helvetica,sans-Serif" font-size="10.00">+ getCacheT2L()</text>
<text text-anchor="start" x="167" y="-1038.5" font-family="Helvetica,sans-Serif" font-size="10.00">+ getCacheT2G()</text>
<text text-anchor="start" x="167" y="-1027.5" font-family="Helvetica,sans-Serif" font-size="10.00">+ getCacheL2G()</text>
<text text-anchor="start" x="167" y="-1016.5" font-family="Helvetica,sans-Serif" font-size="10.00">+ getCacheT2GRot()</text>
<text text-anchor="start" x="167" y="-1005.5" font-family="Helvetica,sans-Serif" font-size="10.00">+ getMatrixT2L()</text>
<text text-anchor="start" x="167" y="-994.5" font-family="Helvetica,sans-Serif" font-size="10.00">+ getMatrixT2G()</text>
<text text-anchor="start" x="167" y="-983.5" font-family="Helvetica,sans-Serif" font-size="10.00">+ getMatrixL2G()</text>
<text text-anchor="start" x="167" y="-972.5" font-family="Helvetica,sans-Serif" font-size="10.00">+ getMatrixT2GRot()</text>
<text text-anchor="start" x="167" y="-961.5" font-family="Helvetica,sans-Serif" font-size="10.00">+ isBuilt()</text>
<text text-anchor="start" x="167" y="-950.5" font-family="Helvetica,sans-Serif" font-size="10.00">+ getSize()</text>
<text text-anchor="start" x="167" y="-939.5" font-family="Helvetica,sans-Serif" font-size="10.00">+ fillMatrixCache()</text>
<text text-anchor="start" x="167" y="-928.5" font-family="Helvetica,sans-Serif" font-size="10.00">+ setSize()</text>
<text text-anchor="start" x="167" y="-917.5" font-family="Helvetica,sans-Serif" font-size="10.00">+ getCacheT2L()</text>
<text text-anchor="start" x="167" y="-906.5" font-family="Helvetica,sans-Serif" font-size="10.00">+ getCacheT2G()</text>
<text text-anchor="start" x="167" y="-895.5" font-family="Helvetica,sans-Serif" font-size="10.00">+ getCacheL2G()</text>
<text text-anchor="start" x="167" y="-884.5" font-family="Helvetica,sans-Serif" font-size="10.00">+ getCacheT2GRot()</text>
<text text-anchor="start" x="167" y="-873.5" font-family="Helvetica,sans-Serif" font-size="10.00">+ ClassDef()</text>
</a>
</g>
</g>
<!-- Node4&#45;&gt;Node3 -->
<g id="edge3" class="edge"><title>Node4&#45;&gt;Node3</title>
<path fill="none" stroke="midnightblue" d="M179.483,-856.537C177.179,-846.899 174.945,-837.556 172.837,-828.738"/>
<polygon fill="none" stroke="midnightblue" points="176.079,-857.352 181.809,-866.264 182.887,-855.724 176.079,-857.352"/>
</g>
<!-- Node5 -->
<g id="node5" class="node"><title>Node5</title>
<g id="a_node5"><a xlink:href="../../d6/dd5/classo2_1_1detectors_1_1DetID.html" target="_top" xlink:title="Static class with identifiers, bitmasks and names for ALICE detectors. ">
<polygon fill="none" stroke="black" points="28,-1257.5 28,-1523.5 134,-1523.5 134,-1257.5 28,-1257.5"/>
<text text-anchor="middle" x="81" y="-1511.5" font-family="Helvetica,sans-Serif" font-size="10.00">o2::detectors::DetID</text>
<polyline fill="none" stroke="black" points="28,-1504.5 134,-1504.5 "/>
<text text-anchor="start" x="36" y="-1492.5" font-family="Helvetica,sans-Serif" font-size="10.00">+ ITS</text>
<text text-anchor="start" x="36" y="-1481.5" font-family="Helvetica,sans-Serif" font-size="10.00">+ TOF</text>
<text text-anchor="start" x="36" y="-1470.5" font-family="Helvetica,sans-Serif" font-size="10.00">+ PHS</text>
<text text-anchor="start" x="36" y="-1459.5" font-family="Helvetica,sans-Serif" font-size="10.00">+ CPV</text>
<text text-anchor="start" x="36" y="-1448.5" font-family="Helvetica,sans-Serif" font-size="10.00">+ EMC</text>
<text text-anchor="start" x="36" y="-1437.5" font-family="Helvetica,sans-Serif" font-size="10.00">+ HMP</text>
<text text-anchor="start" x="36" y="-1426.5" font-family="Helvetica,sans-Serif" font-size="10.00">+ MFT</text>
<text text-anchor="start" x="36" y="-1415.5" font-family="Helvetica,sans-Serif" font-size="10.00">+ MID</text>
<text text-anchor="start" x="36" y="-1404.5" font-family="Helvetica,sans-Serif" font-size="10.00">+ Last</text>
<polyline fill="none" stroke="black" points="28,-1397.5 134,-1397.5 "/>
<text text-anchor="start" x="36" y="-1385.5" font-family="Helvetica,sans-Serif" font-size="10.00">+ DetID()</text>
<text text-anchor="start" x="36" y="-1374.5" font-family="Helvetica,sans-Serif" font-size="10.00">+ DetID()</text>
<text text-anchor="start" x="36" y="-1363.5" font-family="Helvetica,sans-Serif" font-size="10.00">+ DetID()</text>
<text text-anchor="start" x="36" y="-1352.5" font-family="Helvetica,sans-Serif" font-size="10.00">+ operator=()</text>
<text text-anchor="start" x="36" y="-1341.5" font-family="Helvetica,sans-Serif" font-size="10.00">+ getID()</text>
<text text-anchor="start" x="36" y="-1330.5" font-family="Helvetica,sans-Serif" font-size="10.00">+ getMask()</text>
<text text-anchor="start" x="36" y="-1319.5" font-family="Helvetica,sans-Serif" font-size="10.00">+ getName()</text>
<text text-anchor="start" x="36" y="-1308.5" font-family="Helvetica,sans-Serif" font-size="10.00">+ operator int()</text>
<text text-anchor="start" x="36" y="-1297.5" font-family="Helvetica,sans-Serif" font-size="10.00">+ DetID()</text>
<text text-anchor="start" x="36" y="-1286.5" font-family="Helvetica,sans-Serif" font-size="10.00">+ getNDetectors()</text>
<text text-anchor="start" x="36" y="-1275.5" font-family="Helvetica,sans-Serif" font-size="10.00">+ getName()</text>
<text text-anchor="start" x="36" y="-1264.5" font-family="Helvetica,sans-Serif" font-size="10.00">+ getMask()</text>
</a>
</g>
</g>
<!-- Node5&#45;&gt;Node4 -->
<g id="edge4" class="edge"><title>Node5&#45;&gt;Node4</title>
<path fill="none" stroke="#404040" d="M131.772,-1257.46C139.197,-1238.15 146.931,-1218.03 154.597,-1198.09"/>
<polygon fill="none" stroke="#404040" points="154.667,-1197.91 153.086,-1190.88 158.973,-1186.71 160.553,-1193.75 154.667,-1197.91"/>
<text text-anchor="middle" x="173" y="-1220" font-family="Helvetica,sans-Serif" font-size="10.00"> +mDetID</text>
</g>
<!-- Node6 -->
<g id="node6" class="node"><title>Node6</title>
<polygon fill="none" stroke="#bfbfbf" points="0.5,-1725.5 0.5,-1782.5 41.5,-1782.5 41.5,-1725.5 0.5,-1725.5"/>
<text text-anchor="middle" x="21" y="-1770.5" font-family="Helvetica,sans-Serif" font-size="10.00">static</text>
<polyline fill="none" stroke="#bfbfbf" points="0.5,-1763.5 41.5,-1763.5 "/>
<text text-anchor="middle" x="21" y="-1751.5" font-family="Helvetica,sans-Serif" font-size="10.00"> </text>
<polyline fill="none" stroke="#bfbfbf" points="0.5,-1744.5 41.5,-1744.5 "/>
<text text-anchor="middle" x="21" y="-1732.5" font-family="Helvetica,sans-Serif" font-size="10.00"> </text>
</g>
<!-- Node6&#45;&gt;Node2 -->
<g id="edge14" class="edge"><title>Node6&#45;&gt;Node2</title>
<path fill="none" stroke="#404040" d="M18.2976,-1725.37C12.6258,-1664.9 0,-1516.29 0,-1391.5 0,-1391.5 0,-1391.5 0,-760.5 0,-618.966 139.826,-509.246 238.536,-449.422"/>
<polygon fill="none" stroke="#404040" points="238.552,-449.413 241.651,-442.902 248.853,-443.259 245.754,-449.77 238.552,-449.413"/>
<text text-anchor="middle" x="52.5" y="-1063" font-family="Helvetica,sans-Serif" font-size="10.00"> #sVolumeName</text>
<text text-anchor="middle" x="52.5" y="-1052" font-family="Helvetica,sans-Serif" font-size="10.00">#MinSensorsPerLadder</text>
<text text-anchor="middle" x="52.5" y="-1041" font-family="Helvetica,sans-Serif" font-size="10.00">#sChipName</text>
<text text-anchor="middle" x="52.5" y="-1030" font-family="Helvetica,sans-Serif" font-size="10.00">#sDiskName</text>
<text text-anchor="middle" x="52.5" y="-1019" font-family="Helvetica,sans-Serif" font-size="10.00">#MaxSensorsPerLadder</text>
<text text-anchor="middle" x="52.5" y="-1008" font-family="Helvetica,sans-Serif" font-size="10.00">#sLadderName</text>
<text text-anchor="middle" x="52.5" y="-997" font-family="Helvetica,sans-Serif" font-size="10.00">#sHalfName</text>
<text text-anchor="middle" x="52.5" y="-986" font-family="Helvetica,sans-Serif" font-size="10.00">#sSensorName</text>
</g>
<!-- Node6&#45;&gt;Node5 -->
<g id="edge5" class="edge"><title>Node6&#45;&gt;Node5</title>
<path fill="none" stroke="#404040" d="M25.6085,-1725.23C32.34,-1684.68 45.3365,-1606.37 57.0494,-1535.8"/>
<polygon fill="none" stroke="#404040" points="57.1029,-1535.48 54.1394,-1528.91 59.0678,-1523.64 62.0314,-1530.22 57.1029,-1535.48"/>
<text text-anchor="middle" x="82.5" y="-1655" font-family="Helvetica,sans-Serif" font-size="10.00"> +ACO</text>
<text text-anchor="middle" x="82.5" y="-1644" font-family="Helvetica,sans-Serif" font-size="10.00">+First</text>
<text text-anchor="middle" x="82.5" y="-1633" font-family="Helvetica,sans-Serif" font-size="10.00">+MCH</text>
<text text-anchor="middle" x="82.5" y="-1622" font-family="Helvetica,sans-Serif" font-size="10.00">+FV0</text>
<text text-anchor="middle" x="82.5" y="-1611" font-family="Helvetica,sans-Serif" font-size="10.00">+FT0</text>
<text text-anchor="middle" x="82.5" y="-1600" font-family="Helvetica,sans-Serif" font-size="10.00">+FDD</text>
<text text-anchor="middle" x="82.5" y="-1589" font-family="Helvetica,sans-Serif" font-size="10.00">+TRD</text>
<text text-anchor="middle" x="82.5" y="-1578" font-family="Helvetica,sans-Serif" font-size="10.00">+nDetectors</text>
<text text-anchor="middle" x="82.5" y="-1567" font-family="Helvetica,sans-Serif" font-size="10.00">+TPC</text>
<text text-anchor="middle" x="82.5" y="-1556" font-family="Helvetica,sans-Serif" font-size="10.00">+ZDC</text>
<text text-anchor="middle" x="82.5" y="-1545" font-family="Helvetica,sans-Serif" font-size="10.00">...</text>
</g>
<!-- Node7 -->
<g id="node7" class="node"><title>Node7</title>
<g id="a_node7"><a xlink:href="../../d4/daa/classo2_1_1detectors_1_1MatrixCache.html" target="_top" xlink:title="{o2::detectors::MatrixCache\l\&lt; o2::Transform3D \&gt;\n||+ MatrixCache()\l+ MatrixCache()\l+ ~MatrixCache()\l+ operator=()\l+ setSize()\l+ getSize()\l+ setMatrix()\l+ getMatrix()\l+ isFilled()\l}">
<polygon fill="none" stroke="black" points="152.5,-1312.5 152.5,-1468.5 287.5,-1468.5 287.5,-1312.5 152.5,-1312.5"/>
<text text-anchor="start" x="160.5" y="-1456.5" font-family="Helvetica,sans-Serif" font-size="10.00">o2::detectors::MatrixCache</text>
<text text-anchor="middle" x="220" y="-1445.5" font-family="Helvetica,sans-Serif" font-size="10.00">&lt; o2::Transform3D &gt;</text>
<polyline fill="none" stroke="black" points="152.5,-1438.5 287.5,-1438.5 "/>
<text text-anchor="middle" x="220" y="-1426.5" font-family="Helvetica,sans-Serif" font-size="10.00"> </text>
<polyline fill="none" stroke="black" points="152.5,-1419.5 287.5,-1419.5 "/>
<text text-anchor="start" x="160.5" y="-1407.5" font-family="Helvetica,sans-Serif" font-size="10.00">+ MatrixCache()</text>
<text text-anchor="start" x="160.5" y="-1396.5" font-family="Helvetica,sans-Serif" font-size="10.00">+ MatrixCache()</text>
<text text-anchor="start" x="160.5" y="-1385.5" font-family="Helvetica,sans-Serif" font-size="10.00">+ ~MatrixCache()</text>
<text text-anchor="start" x="160.5" y="-1374.5" font-family="Helvetica,sans-Serif" font-size="10.00">+ operator=()</text>
<text text-anchor="start" x="160.5" y="-1363.5" font-family="Helvetica,sans-Serif" font-size="10.00">+ setSize()</text>
<text text-anchor="start" x="160.5" y="-1352.5" font-family="Helvetica,sans-Serif" font-size="10.00">+ getSize()</text>
<text text-anchor="start" x="160.5" y="-1341.5" font-family="Helvetica,sans-Serif" font-size="10.00">+ setMatrix()</text>
<text text-anchor="start" x="160.5" y="-1330.5" font-family="Helvetica,sans-Serif" font-size="10.00">+ getMatrix()</text>
<text text-anchor="start" x="160.5" y="-1319.5" font-family="Helvetica,sans-Serif" font-size="10.00">+ isFilled()</text>
</a>
</g>
</g>
<!-- Node7&#45;&gt;Node4 -->
<g id="edge6" class="edge"><title>Node7&#45;&gt;Node4</title>
<path fill="none" stroke="#404040" d="M220,-1312.39C220,-1279.32 220,-1239.25 220,-1199.76"/>
<polygon fill="none" stroke="#404040" points="220,-1199.53 216,-1193.53 220,-1187.53 224,-1193.53 220,-1199.53"/>
<text text-anchor="middle" x="238.5" y="-1231" font-family="Helvetica,sans-Serif" font-size="10.00"> +mT2G</text>
<text text-anchor="middle" x="238.5" y="-1220" font-family="Helvetica,sans-Serif" font-size="10.00">+mT2L</text>
<text text-anchor="middle" x="238.5" y="-1209" font-family="Helvetica,sans-Serif" font-size="10.00">+mL2G</text>
</g>
<!-- Node8 -->
<g id="node8" class="node"><title>Node8</title>
<g id="a_node8"><a xlink:href="../../d4/daa/classo2_1_1detectors_1_1MatrixCache.html" target="_top" xlink:title="MatrixCache is a vector of cached transform matrices (per sensor) for specific Transformation type...">
<polygon fill="none" stroke="black" points="208.5,-1681.5 208.5,-1826.5 367.5,-1826.5 367.5,-1681.5 208.5,-1681.5"/>
<text text-anchor="middle" x="288" y="-1814.5" font-family="Helvetica,sans-Serif" font-size="10.00">o2::detectors::MatrixCache&lt; T &gt;</text>
<polyline fill="none" stroke="black" points="208.5,-1807.5 367.5,-1807.5 "/>
<text text-anchor="middle" x="288" y="-1795.5" font-family="Helvetica,sans-Serif" font-size="10.00"> </text>
<polyline fill="none" stroke="black" points="208.5,-1788.5 367.5,-1788.5 "/>
<text text-anchor="start" x="216.5" y="-1776.5" font-family="Helvetica,sans-Serif" font-size="10.00">+ MatrixCache()</text>
<text text-anchor="start" x="216.5" y="-1765.5" font-family="Helvetica,sans-Serif" font-size="10.00">+ ~MatrixCache()</text>
<text text-anchor="start" x="216.5" y="-1754.5" font-family="Helvetica,sans-Serif" font-size="10.00">+ MatrixCache()</text>
<text text-anchor="start" x="216.5" y="-1743.5" font-family="Helvetica,sans-Serif" font-size="10.00">+ operator=()</text>
<text text-anchor="start" x="216.5" y="-1732.5" font-family="Helvetica,sans-Serif" font-size="10.00">+ setSize()</text>
<text text-anchor="start" x="216.5" y="-1721.5" font-family="Helvetica,sans-Serif" font-size="10.00">+ getSize()</text>
<text text-anchor="start" x="216.5" y="-1710.5" font-family="Helvetica,sans-Serif" font-size="10.00">+ setMatrix()</text>
<text text-anchor="start" x="216.5" y="-1699.5" font-family="Helvetica,sans-Serif" font-size="10.00">+ getMatrix()</text>
<text text-anchor="start" x="216.5" y="-1688.5" font-family="Helvetica,sans-Serif" font-size="10.00">+ isFilled()</text>
</a>
</g>
</g>
<!-- Node8&#45;&gt;Node7 -->
<g id="edge7" class="edge"><title>Node8&#45;&gt;Node7</title>
<path fill="none" stroke="orange" d="M249.614,-1671.85C248.667,-1668.89 247.79,-1665.93 247,-1663 229.741,-1598.97 223.284,-1523.77 220.976,-1468.78"/>
<polygon fill="orange" stroke="orange" points="246.305,-1672.99 252.86,-1681.31 252.926,-1670.72 246.305,-1672.99"/>
<text text-anchor="middle" x="294.5" y="-1600" font-family="Helvetica,sans-Serif" font-size="10.00"> &lt; o2::Transform3D &gt;</text>
</g>
<!-- Node10 -->
<g id="node10" class="node"><title>Node10</title>
<g id="a_node10"><a xlink:href="../../d4/daa/classo2_1_1detectors_1_1MatrixCache.html" target="_top" xlink:title="{o2::detectors::MatrixCache\l\&lt; o2::Rotation2D \&gt;\n||+ MatrixCache()\l+ MatrixCache()\l+ ~MatrixCache()\l+ operator=()\l+ setSize()\l+ getSize()\l+ setMatrix()\l+ getMatrix()\l+ isFilled()\l}">
<polygon fill="none" stroke="black" points="305.5,-1312.5 305.5,-1468.5 440.5,-1468.5 440.5,-1312.5 305.5,-1312.5"/>
<text text-anchor="start" x="313.5" y="-1456.5" font-family="Helvetica,sans-Serif" font-size="10.00">o2::detectors::MatrixCache</text>
<text text-anchor="middle" x="373" y="-1445.5" font-family="Helvetica,sans-Serif" font-size="10.00">&lt; o2::Rotation2D &gt;</text>
<polyline fill="none" stroke="black" points="305.5,-1438.5 440.5,-1438.5 "/>
<text text-anchor="middle" x="373" y="-1426.5" font-family="Helvetica,sans-Serif" font-size="10.00"> </text>
<polyline fill="none" stroke="black" points="305.5,-1419.5 440.5,-1419.5 "/>
<text text-anchor="start" x="313.5" y="-1407.5" font-family="Helvetica,sans-Serif" font-size="10.00">+ MatrixCache()</text>
<text text-anchor="start" x="313.5" y="-1396.5" font-family="Helvetica,sans-Serif" font-size="10.00">+ MatrixCache()</text>
<text text-anchor="start" x="313.5" y="-1385.5" font-family="Helvetica,sans-Serif" font-size="10.00">+ ~MatrixCache()</text>
<text text-anchor="start" x="313.5" y="-1374.5" font-family="Helvetica,sans-Serif" font-size="10.00">+ operator=()</text>
<text text-anchor="start" x="313.5" y="-1363.5" font-family="Helvetica,sans-Serif" font-size="10.00">+ setSize()</text>
<text text-anchor="start" x="313.5" y="-1352.5" font-family="Helvetica,sans-Serif" font-size="10.00">+ getSize()</text>
<text text-anchor="start" x="313.5" y="-1341.5" font-family="Helvetica,sans-Serif" font-size="10.00">+ setMatrix()</text>
<text text-anchor="start" x="313.5" y="-1330.5" font-family="Helvetica,sans-Serif" font-size="10.00">+ getMatrix()</text>
<text text-anchor="start" x="313.5" y="-1319.5" font-family="Helvetica,sans-Serif" font-size="10.00">+ isFilled()</text>
</a>
</g>
</g>
<!-- Node8&#45;&gt;Node10 -->
<g id="edge10" class="edge"><title>Node8&#45;&gt;Node10</title>
<path fill="none" stroke="orange" d="M338.674,-1671.91C339.878,-1668.94 340.993,-1665.97 342,-1663 363.451,-1599.77 370.686,-1523.99 372.851,-1468.59"/>
<polygon fill="orange" stroke="orange" points="335.347,-1670.78 334.548,-1681.35 341.761,-1673.59 335.347,-1670.78"/>
<text text-anchor="middle" x="411" y="-1600" font-family="Helvetica,sans-Serif" font-size="10.00"> &lt; o2::Rotation2D &gt;</text>
</g>
<!-- Node9 -->
<g id="node9" class="node"><title>Node9</title>
<polygon fill="none" stroke="#bfbfbf" points="458.5,-1362 458.5,-1419 487.5,-1419 487.5,-1362 458.5,-1362"/>
<text text-anchor="middle" x="473" y="-1407" font-family="Helvetica,sans-Serif" font-size="10.00">int</text>
<polyline fill="none" stroke="#bfbfbf" points="458.5,-1400 487.5,-1400 "/>
<text text-anchor="middle" x="473" y="-1388" font-family="Helvetica,sans-Serif" font-size="10.00"> </text>
<polyline fill="none" stroke="#bfbfbf" points="458.5,-1381 487.5,-1381 "/>
<text text-anchor="middle" x="473" y="-1369" font-family="Helvetica,sans-Serif" font-size="10.00"> </text>
</g>
<!-- Node9&#45;&gt;Node4 -->
<g id="edge8" class="edge"><title>Node9&#45;&gt;Node4</title>
<path fill="none" stroke="#404040" d="M472.738,-1361.82C471.418,-1333.88 466.403,-1290.24 449,-1257 411.255,-1184.9 342.987,-1121.13 290.777,-1079.31"/>
<polygon fill="none" stroke="#404040" points="290.64,-1079.2 283.452,-1078.62 281.226,-1071.76 288.413,-1072.34 290.64,-1079.2"/>
<text text-anchor="middle" x="455.5" y="-1220" font-family="Helvetica,sans-Serif" font-size="10.00"> +mSize</text>
</g>
<!-- Node10&#45;&gt;Node4 -->
<g id="edge9" class="edge"><title>Node10&#45;&gt;Node4</title>
<path fill="none" stroke="#404040" d="M340.365,-1312.39C324.467,-1274.83 304.752,-1228.25 285.91,-1183.73"/>
<polygon fill="none" stroke="#404040" points="285.819,-1183.51 279.796,-1179.55 281.142,-1172.46 287.164,-1176.43 285.819,-1183.51"/>
<text text-anchor="middle" x="332" y="-1220" font-family="Helvetica,sans-Serif" font-size="10.00"> +mT2GRot</text>
</g>
<!-- Node11 -->
<g id="node11" class="node"><title>Node11</title>
<polygon fill="none" stroke="#bfbfbf" points="240.5,-733 240.5,-790 321.5,-790 321.5,-733 240.5,-733"/>
<text text-anchor="middle" x="281" y="-778" font-family="Helvetica,sans-Serif" font-size="10.00">vector&lt; Int_t &gt;</text>
<polyline fill="none" stroke="#bfbfbf" points="240.5,-771 321.5,-771 "/>
<text text-anchor="middle" x="281" y="-759" font-family="Helvetica,sans-Serif" font-size="10.00"> </text>
<polyline fill="none" stroke="#bfbfbf" points="240.5,-752 321.5,-752 "/>
<text text-anchor="middle" x="281" y="-740" font-family="Helvetica,sans-Serif" font-size="10.00"> </text>
</g>
<!-- Node11&#45;&gt;Node2 -->
<g id="edge11" class="edge"><title>Node11&#45;&gt;Node2</title>
<path fill="none" stroke="#404040" d="M271.848,-732.685C266.964,-716.372 261.464,-695.247 259,-676 256.435,-655.964 256.563,-635.327 258.596,-614.782"/>
<polygon fill="none" stroke="#404040" points="258.615,-614.62 255.338,-608.196 260.007,-602.701 263.284,-609.124 258.615,-614.62"/>
<text text-anchor="middle" x="324" y="-668" font-family="Helvetica,sans-Serif" font-size="10.00"> #mSensorIndexToLayer</text>
<text text-anchor="middle" x="324" y="-657" font-family="Helvetica,sans-Serif" font-size="10.00">#mNumberOfSensorsPerDisk</text>
<text text-anchor="middle" x="324" y="-646" font-family="Helvetica,sans-Serif" font-size="10.00">#mNumberOfLaddersPerDisk</text>
<text text-anchor="middle" x="324" y="-635" font-family="Helvetica,sans-Serif" font-size="10.00">#mLastSensorIndex</text>
<text text-anchor="middle" x="324" y="-624" font-family="Helvetica,sans-Serif" font-size="10.00">#mNumberOfDisks</text>
</g>
<!-- Node12 -->
<g id="node12" class="node"><title>Node12</title>
<polygon fill="none" stroke="#bfbfbf" points="362,-733 362,-790 454,-790 454,-733 362,-733"/>
<text text-anchor="middle" x="408" y="-778" font-family="Helvetica,sans-Serif" font-size="10.00">vector&lt; Float_t &gt;</text>
<polyline fill="none" stroke="#bfbfbf" points="362,-771 454,-771 "/>
<text text-anchor="middle" x="408" y="-759" font-family="Helvetica,sans-Serif" font-size="10.00"> </text>
<polyline fill="none" stroke="#bfbfbf" points="362,-752 454,-752 "/>
<text text-anchor="middle" x="408" y="-740" font-family="Helvetica,sans-Serif" font-size="10.00"> </text>
</g>
<!-- Node12&#45;&gt;Node2 -->
<g id="edge12" class="edge"><title>Node12&#45;&gt;Node2</title>
<path fill="none" stroke="#404040" d="M405.119,-732.83C401.971,-704.581 396.375,-659.531 389,-621 388.584,-618.828 388.16,-616.645 387.729,-614.453"/>
<polygon fill="none" stroke="#404040" points="387.722,-614.416 382.618,-609.323 385.356,-602.652 390.461,-607.746 387.722,-614.416"/>
<text text-anchor="middle" x="437.5" y="-646" font-family="Helvetica,sans-Serif" font-size="10.00"> #mLayerMedianZ</text>
</g>
<!-- Node13 -->
<g id="node13" class="node"><title>Node13</title>
<polygon fill="none" stroke="#bfbfbf" points="472.5,-727.5 472.5,-795.5 571.5,-795.5 571.5,-727.5 472.5,-727.5"/>
<text text-anchor="start" x="480.5" y="-783.5" font-family="Helvetica,sans-Serif" font-size="10.00">vector&lt; std::vector</text>
<text text-anchor="middle" x="522" y="-772.5" font-family="Helvetica,sans-Serif" font-size="10.00">&lt; Int_t &gt; &gt;</text>
<polyline fill="none" stroke="#bfbfbf" points="472.5,-765.5 571.5,-765.5 "/>
<text text-anchor="middle" x="522" y="-753.5" font-family="Helvetica,sans-Serif" font-size="10.00"> </text>
<polyline fill="none" stroke="#bfbfbf" points="472.5,-746.5 571.5,-746.5 "/>
<text text-anchor="middle" x="522" y="-734.5" font-family="Helvetica,sans-Serif" font-size="10.00"> </text>
</g>
<!-- Node13&#45;&gt;Node2 -->
<g id="edge13" class="edge"><title>Node13&#45;&gt;Node2</title>
<path fill="none" stroke="#404040" d="M520.714,-727.476C517.757,-696.175 508.61,-649.782 481,-621 463.778,-603.048 446.484,-619.649 428,-603 427.905,-602.914 427.81,-602.829 427.715,-602.743"/>
<polygon fill="none" stroke="#404040" points="427.763,-602.789 420.67,-601.486 419.145,-594.438 426.237,-595.741 427.763,-602.789"/>
<text text-anchor="middle" x="559.5" y="-657" font-family="Helvetica,sans-Serif" font-size="10.00"> #mNumberOfLadders</text>
<text text-anchor="middle" x="559.5" y="-646" font-family="Helvetica,sans-Serif" font-size="10.00">#mLadderId2Index</text>
<text text-anchor="middle" x="559.5" y="-635" font-family="Helvetica,sans-Serif" font-size="10.00">#mLadderIndex2Id</text>
</g>
<!-- Node14 -->
<g id="node14" class="node"><title>Node14</title>
<polygon fill="none" stroke="#bfbfbf" points="621,-733 621,-790 657,-790 657,-733 621,-733"/>
<text text-anchor="middle" x="639" y="-778" font-family="Helvetica,sans-Serif" font-size="10.00">Int_t</text>
<polyline fill="none" stroke="#bfbfbf" points="621,-771 657,-771 "/>
<text text-anchor="middle" x="639" y="-759" font-family="Helvetica,sans-Serif" font-size="10.00"> </text>
<polyline fill="none" stroke="#bfbfbf" points="621,-752 657,-752 "/>
<text text-anchor="middle" x="639" y="-740" font-family="Helvetica,sans-Serif" font-size="10.00"> </text>
</g>
<!-- Node14&#45;&gt;Node2 -->
<g id="edge15" class="edge"><title>Node14&#45;&gt;Node2</title>
<path fill="none" stroke="#404040" d="M642.445,-732.841C644.719,-700.871 642.827,-649.066 612,-621 583.876,-595.394 478.818,-622.181 429.851,-602.013"/>
<polygon fill="none" stroke="#404040" points="429.755,-601.96 422.571,-602.593 419.224,-596.206 426.408,-595.573 429.755,-601.96"/>
<text text-anchor="middle" x="698.5" y="-651.5" font-family="Helvetica,sans-Serif" font-size="10.00"> #mNumberOfHalves</text>
<text text-anchor="middle" x="698.5" y="-640.5" font-family="Helvetica,sans-Serif" font-size="10.00">#mTotalNumberOfSensors</text>
</g>
<!-- Node15 -->
<g id="node15" class="node"><title>Node15</title>
<polygon fill="none" stroke="#bfbfbf" points="437.5,-364 437.5,-432 558.5,-432 558.5,-364 437.5,-364"/>
<text text-anchor="start" x="445.5" y="-420" font-family="Helvetica,sans-Serif" font-size="10.00">vector&lt; const o2::itsmft</text>
<text text-anchor="middle" x="498" y="-409" font-family="Helvetica,sans-Serif" font-size="10.00">::Cluster * &gt;</text>
<polyline fill="none" stroke="#bfbfbf" points="437.5,-402 558.5,-402 "/>
<text text-anchor="middle" x="498" y="-390" font-family="Helvetica,sans-Serif" font-size="10.00"> </text>
<polyline fill="none" stroke="#bfbfbf" points="437.5,-383 558.5,-383 "/>
<text text-anchor="middle" x="498" y="-371" font-family="Helvetica,sans-Serif" font-size="10.00"> </text>
</g>
<!-- Node15&#45;&gt;Node1 -->
<g id="edge16" class="edge"><title>Node15&#45;&gt;Node1</title>
<path fill="none" stroke="#404040" d="M493.805,-363.951C487.705,-315.893 476.184,-225.13 467.65,-157.901"/>
<polygon fill="none" stroke="#404040" points="467.604,-157.542 462.881,-152.094 466.093,-145.638 470.817,-151.086 467.604,-157.542"/>
<text text-anchor="middle" x="497" y="-167" font-family="Helvetica,sans-Serif" font-size="10.00"> #mClusters</text>
</g>
</g>
</svg>
