<?xml version="1.0" encoding="UTF-8" standalone="no"?>
<!DOCTYPE svg PUBLIC "-//W3C//DTD SVG 1.1//EN"
 "http://www.w3.org/Graphics/SVG/1.1/DTD/svg11.dtd">
<!-- Generated by graphviz version 2.38.0 (20140413.2041)
 -->
<!-- Title: o2::zdc::RecEvent Pages: 1 -->
<svg width="1032pt" height="650pt"
 viewBox="0.00 0.00 1032.00 650.00" xmlns="http://www.w3.org/2000/svg" xmlns:xlink="http://www.w3.org/1999/xlink">
<g id="graph0" class="graph" transform="scale(1 1) rotate(0) translate(4 646)">
<title>o2::zdc::RecEvent</title>
<!-- Node1 -->
<g id="node1" class="node"><title>Node1</title>
<polygon fill="#bfbfbf" stroke="black" points="502.5,-0.5 502.5,-68.5 600.5,-68.5 600.5,-0.5 502.5,-0.5"/>
<text text-anchor="middle" x="551.5" y="-56.5" font-family="Helvetica,sans-Serif" font-size="10.00">o2::zdc::RecEvent</text>
<polyline fill="none" stroke="black" points="502.5,-49.5 600.5,-49.5 "/>
<text text-anchor="middle" x="551.5" y="-37.5" font-family="Helvetica,sans-Serif" font-size="10.00"> </text>
<polyline fill="none" stroke="black" points="502.5,-30.5 600.5,-30.5 "/>
<text text-anchor="start" x="510.5" y="-18.5" font-family="Helvetica,sans-Serif" font-size="10.00">+ print()</text>
<text text-anchor="start" x="510.5" y="-7.5" font-family="Helvetica,sans-Serif" font-size="10.00">+ ClassDefNV()</text>
</g>
<!-- Node2 -->
<g id="node2" class="node"><title>Node2</title>
<g id="a_node2"><a xlink:href="../../d1/d21/structo2_1_1InteractionRecord.html" target="_top" xlink:title="{o2::InteractionRecord\n||+ InteractionRecord()\l+ InteractionRecord()\l+ InteractionRecord()\l+ InteractionRecord()\l+ clear()\l+ isDummy()\l+ setFromNS()\l+ bc2ns()\l+ operator==()\l+ operator!=()\l+ differenceInBC()\l+ toLong()\l+ operator\&gt;()\l+ operator\&gt;=()\l+ operator\&lt;()\l+ operator\&lt;=()\l+ operator&#45;&#45;()\l+ operator&#45;&#45;()\l+ operator++()\l+ operator++()\l+ operator+=()\l+ operator&#45;=()\l+ operator+=()\l+ operator&#45;=()\l+ operator+()\l+ operator&#45;()\l+ operator+()\l+ operator&#45;()\l+ print()\l+ ClassDefNV()\l+ bc2ns()\l+ ns2bc()\l}">
<polygon fill="none" stroke="black" points="88.5,-127.5 88.5,-525.5 198.5,-525.5 198.5,-127.5 88.5,-127.5"/>
<text text-anchor="middle" x="143.5" y="-513.5" font-family="Helvetica,sans-Serif" font-size="10.00">o2::InteractionRecord</text>
<polyline fill="none" stroke="black" points="88.5,-506.5 198.5,-506.5 "/>
<text text-anchor="middle" x="143.5" y="-494.5" font-family="Helvetica,sans-Serif" font-size="10.00"> </text>
<polyline fill="none" stroke="black" points="88.5,-487.5 198.5,-487.5 "/>
<text text-anchor="start" x="96.5" y="-475.5" font-family="Helvetica,sans-Serif" font-size="10.00">+ InteractionRecord()</text>
<text text-anchor="start" x="96.5" y="-464.5" font-family="Helvetica,sans-Serif" font-size="10.00">+ InteractionRecord()</text>
<text text-anchor="start" x="96.5" y="-453.5" font-family="Helvetica,sans-Serif" font-size="10.00">+ InteractionRecord()</text>
<text text-anchor="start" x="96.5" y="-442.5" font-family="Helvetica,sans-Serif" font-size="10.00">+ InteractionRecord()</text>
<text text-anchor="start" x="96.5" y="-431.5" font-family="Helvetica,sans-Serif" font-size="10.00">+ clear()</text>
<text text-anchor="start" x="96.5" y="-420.5" font-family="Helvetica,sans-Serif" font-size="10.00">+ isDummy()</text>
<text text-anchor="start" x="96.5" y="-409.5" font-family="Helvetica,sans-Serif" font-size="10.00">+ setFromNS()</text>
<text text-anchor="start" x="96.5" y="-398.5" font-family="Helvetica,sans-Serif" font-size="10.00">+ bc2ns()</text>
<text text-anchor="start" x="96.5" y="-387.5" font-family="Helvetica,sans-Serif" font-size="10.00">+ operator==()</text>
<text text-anchor="start" x="96.5" y="-376.5" font-family="Helvetica,sans-Serif" font-size="10.00">+ operator!=()</text>
<text text-anchor="start" x="96.5" y="-365.5" font-family="Helvetica,sans-Serif" font-size="10.00">+ differenceInBC()</text>
<text text-anchor="start" x="96.5" y="-354.5" font-family="Helvetica,sans-Serif" font-size="10.00">+ toLong()</text>
<text text-anchor="start" x="96.5" y="-343.5" font-family="Helvetica,sans-Serif" font-size="10.00">+ operator&gt;()</text>
<text text-anchor="start" x="96.5" y="-332.5" font-family="Helvetica,sans-Serif" font-size="10.00">+ operator&gt;=()</text>
<text text-anchor="start" x="96.5" y="-321.5" font-family="Helvetica,sans-Serif" font-size="10.00">+ operator&lt;()</text>
<text text-anchor="start" x="96.5" y="-310.5" font-family="Helvetica,sans-Serif" font-size="10.00">+ operator&lt;=()</text>
<text text-anchor="start" x="96.5" y="-299.5" font-family="Helvetica,sans-Serif" font-size="10.00">+ operator&#45;&#45;()</text>
<text text-anchor="start" x="96.5" y="-288.5" font-family="Helvetica,sans-Serif" font-size="10.00">+ operator&#45;&#45;()</text>
<text text-anchor="start" x="96.5" y="-277.5" font-family="Helvetica,sans-Serif" font-size="10.00">+ operator++()</text>
<text text-anchor="start" x="96.5" y="-266.5" font-family="Helvetica,sans-Serif" font-size="10.00">+ operator++()</text>
<text text-anchor="start" x="96.5" y="-255.5" font-family="Helvetica,sans-Serif" font-size="10.00">+ operator+=()</text>
<text text-anchor="start" x="96.5" y="-244.5" font-family="Helvetica,sans-Serif" font-size="10.00">+ operator&#45;=()</text>
<text text-anchor="start" x="96.5" y="-233.5" font-family="Helvetica,sans-Serif" font-size="10.00">+ operator+=()</text>
<text text-anchor="start" x="96.5" y="-222.5" font-family="Helvetica,sans-Serif" font-size="10.00">+ operator&#45;=()</text>
<text text-anchor="start" x="96.5" y="-211.5" font-family="Helvetica,sans-Serif" font-size="10.00">+ operator+()</text>
<text text-anchor="start" x="96.5" y="-200.5" font-family="Helvetica,sans-Serif" font-size="10.00">+ operator&#45;()</text>
<text text-anchor="start" x="96.5" y="-189.5" font-family="Helvetica,sans-Serif" font-size="10.00">+ operator+()</text>
<text text-anchor="start" x="96.5" y="-178.5" font-family="Helvetica,sans-Serif" font-size="10.00">+ operator&#45;()</text>
<text text-anchor="start" x="96.5" y="-167.5" font-family="Helvetica,sans-Serif" font-size="10.00">+ print()</text>
<text text-anchor="start" x="96.5" y="-156.5" font-family="Helvetica,sans-Serif" font-size="10.00">+ ClassDefNV()</text>
<text text-anchor="start" x="96.5" y="-145.5" font-family="Helvetica,sans-Serif" font-size="10.00">+ bc2ns()</text>
<text text-anchor="start" x="96.5" y="-134.5" font-family="Helvetica,sans-Serif" font-size="10.00">+ ns2bc()</text>
</a>
</g>
</g>
<!-- Node2&#45;&gt;Node1 -->
<g id="edge1" class="edge"><title>Node2&#45;&gt;Node1</title>
<path fill="none" stroke="#404040" d="M198.536,-135.254C210,-116.979 223.827,-100.326 240.5,-87 278.087,-56.9571 410.771,-43.8879 490.177,-38.6491"/>
<polygon fill="none" stroke="#404040" points="490.465,-38.631 496.201,-34.2605 502.441,-37.8741 496.706,-42.2446 490.465,-38.631"/>
<text text-anchor="middle" x="248" y="-95.5" font-family="Helvetica,sans-Serif" font-size="10.00"> +ir</text>
</g>
<!-- Node3 -->
<g id="node3" class="node"><title>Node3</title>
<polygon fill="none" stroke="#bfbfbf" points="0,-584.5 0,-641.5 45,-641.5 45,-584.5 0,-584.5"/>
<text text-anchor="middle" x="22.5" y="-629.5" font-family="Helvetica,sans-Serif" font-size="10.00">double</text>
<polyline fill="none" stroke="#bfbfbf" points="0,-622.5 45,-622.5 "/>
<text text-anchor="middle" x="22.5" y="-610.5" font-family="Helvetica,sans-Serif" font-size="10.00"> </text>
<polyline fill="none" stroke="#bfbfbf" points="0,-603.5 45,-603.5 "/>
<text text-anchor="middle" x="22.5" y="-591.5" font-family="Helvetica,sans-Serif" font-size="10.00"> </text>
</g>
<!-- Node3&#45;&gt;Node2 -->
<g id="edge2" class="edge"><title>Node3&#45;&gt;Node2</title>
<path fill="none" stroke="#404040" d="M29.1387,-584.202C32.3993,-571.751 36.6676,-556.981 41.5,-544 53.5592,-511.606 68.5523,-477.403 83.2989,-445.988"/>
<polygon fill="none" stroke="#404040" points="83.3659,-445.846 82.3172,-438.711 88.4994,-434.999 89.5482,-442.134 83.3659,-445.846"/>
<text text-anchor="middle" x="74.5" y="-552.5" font-family="Helvetica,sans-Serif" font-size="10.00"> +DummyTime</text>
</g>
<!-- Node4 -->
<g id="node4" class="node"><title>Node4</title>
<polygon fill="none" stroke="#bfbfbf" points="86,-584.5 86,-641.5 137,-641.5 137,-584.5 86,-584.5"/>
<text text-anchor="middle" x="111.5" y="-629.5" font-family="Helvetica,sans-Serif" font-size="10.00">uint16_t</text>
<polyline fill="none" stroke="#bfbfbf" points="86,-622.5 137,-622.5 "/>
<text text-anchor="middle" x="111.5" y="-610.5" font-family="Helvetica,sans-Serif" font-size="10.00"> </text>
<polyline fill="none" stroke="#bfbfbf" points="86,-603.5 137,-603.5 "/>
<text text-anchor="middle" x="111.5" y="-591.5" font-family="Helvetica,sans-Serif" font-size="10.00"> </text>
</g>
<!-- Node4&#45;&gt;Node2 -->
<g id="edge3" class="edge"><title>Node4&#45;&gt;Node2</title>
<path fill="none" stroke="#404040" d="M111.109,-584.172C111.143,-571.846 111.464,-557.183 112.5,-544 112.664,-541.918 112.835,-539.826 113.013,-537.724"/>
<polygon fill="none" stroke="#404040" points="113.028,-537.551 109.582,-531.217 114.104,-525.599 117.55,-531.934 113.028,-537.551"/>
<text text-anchor="middle" x="141.5" y="-558" font-family="Helvetica,sans-Serif" font-size="10.00"> +DummyBC</text>
<text text-anchor="middle" x="141.5" y="-547" font-family="Helvetica,sans-Serif" font-size="10.00">+bc</text>
</g>
<!-- Node5 -->
<g id="node5" class="node"><title>Node5</title>
<polygon fill="none" stroke="#bfbfbf" points="205,-584.5 205,-641.5 256,-641.5 256,-584.5 205,-584.5"/>
<text text-anchor="middle" x="230.5" y="-629.5" font-family="Helvetica,sans-Serif" font-size="10.00">uint32_t</text>
<polyline fill="none" stroke="#bfbfbf" points="205,-622.5 256,-622.5 "/>
<text text-anchor="middle" x="230.5" y="-610.5" font-family="Helvetica,sans-Serif" font-size="10.00"> </text>
<polyline fill="none" stroke="#bfbfbf" points="205,-603.5 256,-603.5 "/>
<text text-anchor="middle" x="230.5" y="-591.5" font-family="Helvetica,sans-Serif" font-size="10.00"> </text>
</g>
<!-- Node5&#45;&gt;Node1 -->
<g id="edge8" class="edge"><title>Node5&#45;&gt;Node1</title>
<path fill="none" stroke="#404040" d="M248.178,-584.134C251.119,-578.337 253.772,-572.123 255.5,-566 308.57,-377.967 160.28,-282.553 278.5,-127 328.052,-61.8 425.987,-42.577 490.085,-37.1867"/>
<polygon fill="none" stroke="#404040" points="490.461,-37.1593 496.153,-32.7321 502.429,-36.2836 496.737,-40.7108 490.461,-37.1593"/>
<text text-anchor="middle" x="294" y="-324" font-family="Helvetica,sans-Serif" font-size="10.00"> +flags</text>
</g>
<!-- Node5&#45;&gt;Node2 -->
<g id="edge4" class="edge"><title>Node5&#45;&gt;Node2</title>
<path fill="none" stroke="#404040" d="M204.957,-584.456C200.607,-578.68 196.525,-572.392 193.5,-566 189.143,-556.792 185.162,-547.207 181.527,-537.396"/>
<polygon fill="none" stroke="#404040" points="181.421,-537.097 175.648,-532.776 177.416,-525.785 183.19,-530.106 181.421,-537.097"/>
<text text-anchor="middle" x="224.5" y="-558" font-family="Helvetica,sans-Serif" font-size="10.00"> +orbit</text>
<text text-anchor="middle" x="224.5" y="-547" font-family="Helvetica,sans-Serif" font-size="10.00">+DummyOrbit</text>
</g>
<!-- Node6 -->
<g id="node6" class="node"><title>Node6</title>
<polygon fill="none" stroke="#bfbfbf" points="319,-298 319,-355 462,-355 462,-298 319,-298"/>
<text text-anchor="middle" x="390.5" y="-343" font-family="Helvetica,sans-Serif" font-size="10.00">array&lt; float, NChannelsZN &gt;</text>
<polyline fill="none" stroke="#bfbfbf" points="319,-336 462,-336 "/>
<text text-anchor="middle" x="390.5" y="-324" font-family="Helvetica,sans-Serif" font-size="10.00"> </text>
<polyline fill="none" stroke="#bfbfbf" points="319,-317 462,-317 "/>
<text text-anchor="middle" x="390.5" y="-305" font-family="Helvetica,sans-Serif" font-size="10.00"> </text>
</g>
<!-- Node6&#45;&gt;Node1 -->
<g id="edge5" class="edge"><title>Node6&#45;&gt;Node1</title>
<path fill="none" stroke="#404040" d="M396.824,-297.717C408.596,-250.586 437.425,-153.607 488.5,-87 491.071,-83.6474 493.901,-80.3753 496.894,-77.2106"/>
<polygon fill="none" stroke="#404040" points="497.112,-76.9968 498.599,-69.9406 505.684,-68.5986 504.198,-75.6549 497.112,-76.9968"/>
<text text-anchor="middle" x="518" y="-101" font-family="Helvetica,sans-Serif" font-size="10.00"> +energyZNA</text>
<text text-anchor="middle" x="518" y="-90" font-family="Helvetica,sans-Serif" font-size="10.00">+energyZNC</text>
</g>
<!-- Node7 -->
<g id="node7" class="node"><title>Node7</title>
<polygon fill="none" stroke="#bfbfbf" points="480,-298 480,-355 623,-355 623,-298 480,-298"/>
<text text-anchor="middle" x="551.5" y="-343" font-family="Helvetica,sans-Serif" font-size="10.00">array&lt; float, NChannelsZP &gt;</text>
<polyline fill="none" stroke="#bfbfbf" points="480,-336 623,-336 "/>
<text text-anchor="middle" x="551.5" y="-324" font-family="Helvetica,sans-Serif" font-size="10.00"> </text>
<polyline fill="none" stroke="#bfbfbf" points="480,-317 623,-317 "/>
<text text-anchor="middle" x="551.5" y="-305" font-family="Helvetica,sans-Serif" font-size="10.00"> </text>
</g>
<!-- Node7&#45;&gt;Node1 -->
<g id="edge6" class="edge"><title>Node7&#45;&gt;Node1</title>
<path fill="none" stroke="#404040" d="M551.5,-297.956C551.5,-247.93 551.5,-141.701 551.5,-80.8431"/>
<polygon fill="none" stroke="#404040" points="551.5,-80.5818 547.5,-74.5819 551.5,-68.5818 555.5,-74.5818 551.5,-80.5818"/>
<text text-anchor="middle" x="580.5" y="-101" font-family="Helvetica,sans-Serif" font-size="10.00"> +energyZPA</text>
<text text-anchor="middle" x="580.5" y="-90" font-family="Helvetica,sans-Serif" font-size="10.00">+energyZPC</text>
</g>
<!-- Node8 -->
<g id="node8" class="node"><title>Node8</title>
<polygon fill="none" stroke="#bfbfbf" points="641,-298 641,-355 730,-355 730,-298 641,-298"/>
<text text-anchor="middle" x="685.5" y="-343" font-family="Helvetica,sans-Serif" font-size="10.00">Point2D&lt; float &gt;</text>
<polyline fill="none" stroke="#bfbfbf" points="641,-336 730,-336 "/>
<text text-anchor="middle" x="685.5" y="-324" font-family="Helvetica,sans-Serif" font-size="10.00"> </text>
<polyline fill="none" stroke="#bfbfbf" points="641,-317 730,-317 "/>
<text text-anchor="middle" x="685.5" y="-305" font-family="Helvetica,sans-Serif" font-size="10.00"> </text>
</g>
<!-- Node8&#45;&gt;Node1 -->
<g id="edge7" class="edge"><title>Node8&#45;&gt;Node1</title>
<path fill="none" stroke="#404040" d="M683.378,-297.656C678.481,-250.007 662.726,-151.72 613.5,-87 610.967,-83.6692 608.179,-80.4138 605.231,-77.2616"/>
<polygon fill="none" stroke="#404040" points="605.095,-77.1269 598.019,-75.7401 596.577,-68.6746 603.654,-70.0613 605.095,-77.1269"/>
<text text-anchor="middle" x="657.5" y="-101" font-family="Helvetica,sans-Serif" font-size="10.00"> +centroidZNA</text>
<text text-anchor="middle" x="657.5" y="-90" font-family="Helvetica,sans-Serif" font-size="10.00">+centroidZNC</text>
</g>
<!-- Node9 -->
<g id="node9" class="node"><title>Node9</title>
<polygon fill="none" stroke="#bfbfbf" points="748,-292.5 748,-360.5 855,-360.5 855,-292.5 748,-292.5"/>
<text text-anchor="start" x="756" y="-348.5" font-family="Helvetica,sans-Serif" font-size="10.00">array&lt; TDCChannel,</text>
<text text-anchor="middle" x="801.5" y="-337.5" font-family="Helvetica,sans-Serif" font-size="10.00"> NTDCChannels &gt;</text>
<polyline fill="none" stroke="#bfbfbf" points="748,-330.5 855,-330.5 "/>
<text text-anchor="middle" x="801.5" y="-318.5" font-family="Helvetica,sans-Serif" font-size="10.00"> </text>
<polyline fill="none" stroke="#bfbfbf" points="748,-311.5 855,-311.5 "/>
<text text-anchor="middle" x="801.5" y="-299.5" font-family="Helvetica,sans-Serif" font-size="10.00"> </text>
</g>
<!-- Node9&#45;&gt;Node1 -->
<g id="edge9" class="edge"><title>Node9&#45;&gt;Node1</title>
<path fill="none" stroke="#404040" d="M796.539,-292.259C789.159,-250.838 772.359,-179.163 738.5,-127 710.44,-83.7703 655.621,-60.3106 612.559,-48.0092"/>
<polygon fill="none" stroke="#404040" points="612.344,-47.9512 605.509,-50.2519 600.757,-44.8283 607.591,-42.5275 612.344,-47.9512"/>
<text text-anchor="middle" x="753.5" y="-95.5" font-family="Helvetica,sans-Serif" font-size="10.00"> +tdcChannels</text>
</g>
<!-- Node10 -->
<g id="node10" class="node"><title>Node10</title>
<polygon fill="none" stroke="#bfbfbf" points="873,-298 873,-355 1024,-355 1024,-298 873,-298"/>
<text text-anchor="middle" x="948.5" y="-343" font-family="Helvetica,sans-Serif" font-size="10.00">array&lt; float, NChannelsZEM &gt;</text>
<polyline fill="none" stroke="#bfbfbf" points="873,-336 1024,-336 "/>
<text text-anchor="middle" x="948.5" y="-324" font-family="Helvetica,sans-Serif" font-size="10.00"> </text>
<polyline fill="none" stroke="#bfbfbf" points="873,-317 1024,-317 "/>
<text text-anchor="middle" x="948.5" y="-305" font-family="Helvetica,sans-Serif" font-size="10.00"> </text>
</g>
<!-- Node10&#45;&gt;Node1 -->
<g id="edge10" class="edge"><title>Node10&#45;&gt;Node1</title>
<path fill="none" stroke="#404040" d="M942.83,-297.962C933.056,-256.459 909.502,-177.389 863.5,-127 799.234,-56.6047 684.001,-39.2661 613,-35.6186"/>
<polygon fill="none" stroke="#404040" points="612.699,-35.606 606.536,-39.35 600.71,-35.1011 606.873,-31.3571 612.699,-35.606"/>
<text text-anchor="middle" x="871" y="-95.5" font-family="Helvetica,sans-Serif" font-size="10.00"> +eneregyZEM</text>
</g>
</g>
</svg>
