<?xml version="1.0" encoding="UTF-8" standalone="no"?>
<!DOCTYPE svg PUBLIC "-//W3C//DTD SVG 1.1//EN"
 "http://www.w3.org/Graphics/SVG/1.1/DTD/svg11.dtd">
<!-- Generated by graphviz version 2.38.0 (20140413.2041)
 -->
<!-- Title: o2::cpv::CPVSimParams Pages: 1 -->
<svg width="486pt" height="1136pt"
 viewBox="0.00 0.00 485.50 1136.00" xmlns="http://www.w3.org/2000/svg" xmlns:xlink="http://www.w3.org/1999/xlink">
<g id="graph0" class="graph" transform="scale(1 1) rotate(0) translate(4 1132)">
<title>o2::cpv::CPVSimParams</title>
<!-- Node1 -->
<g id="node1" class="node"><title>Node1</title>
<polygon fill="#bfbfbf" stroke="black" points="177,-0.5 177,-68.5 304,-68.5 304,-0.5 177,-0.5"/>
<text text-anchor="middle" x="240.5" y="-56.5" font-family="Helvetica,sans-Serif" font-size="10.00">o2::cpv::CPVSimParams</text>
<polyline fill="none" stroke="black" points="177,-49.5 304,-49.5 "/>
<text text-anchor="start" x="185" y="-37.5" font-family="Helvetica,sans-Serif" font-size="10.00">+ mA</text>
<polyline fill="none" stroke="black" points="177,-30.5 304,-30.5 "/>
<text text-anchor="start" x="185" y="-18.5" font-family="Helvetica,sans-Serif" font-size="10.00">+ CellWr()</text>
<text text-anchor="start" x="185" y="-7.5" font-family="Helvetica,sans-Serif" font-size="10.00">+ O2ParamDef()</text>
</g>
<!-- Node2 -->
<g id="node2" class="node"><title>Node2</title>
<g id="a_node2"><a xlink:href="../../d7/d50/classo2_1_1conf_1_1ConfigurableParamHelper.html" target="_top" xlink:title="{o2::conf::ConfigurableParam\lHelper\&lt; CPVSimParams \&gt;\n||+ getName()\l+ printKeyValues()\l+ output()\l+ getDataMembers()\l+ putKeyValues()\l+ initFrom()\l+ serializeTo()\l+ Instance()\l}">
<polygon fill="none" stroke="black" points="0,-226.5 0,-371.5 141,-371.5 141,-226.5 0,-226.5"/>
<text text-anchor="start" x="8" y="-359.5" font-family="Helvetica,sans-Serif" font-size="10.00">o2::conf::ConfigurableParam</text>
<text text-anchor="middle" x="70.5" y="-348.5" font-family="Helvetica,sans-Serif" font-size="10.00">Helper&lt; CPVSimParams &gt;</text>
<polyline fill="none" stroke="black" points="0,-341.5 141,-341.5 "/>
<text text-anchor="middle" x="70.5" y="-329.5" font-family="Helvetica,sans-Serif" font-size="10.00"> </text>
<polyline fill="none" stroke="black" points="0,-322.5 141,-322.5 "/>
<text text-anchor="start" x="8" y="-310.5" font-family="Helvetica,sans-Serif" font-size="10.00">+ getName()</text>
<text text-anchor="start" x="8" y="-299.5" font-family="Helvetica,sans-Serif" font-size="10.00">+ printKeyValues()</text>
<text text-anchor="start" x="8" y="-288.5" font-family="Helvetica,sans-Serif" font-size="10.00">+ output()</text>
<text text-anchor="start" x="8" y="-277.5" font-family="Helvetica,sans-Serif" font-size="10.00">+ getDataMembers()</text>
<text text-anchor="start" x="8" y="-266.5" font-family="Helvetica,sans-Serif" font-size="10.00">+ putKeyValues()</text>
<text text-anchor="start" x="8" y="-255.5" font-family="Helvetica,sans-Serif" font-size="10.00">+ initFrom()</text>
<text text-anchor="start" x="8" y="-244.5" font-family="Helvetica,sans-Serif" font-size="10.00">+ serializeTo()</text>
<text text-anchor="start" x="8" y="-233.5" font-family="Helvetica,sans-Serif" font-size="10.00">+ Instance()</text>
</a>
</g>
</g>
<!-- Node2&#45;&gt;Node1 -->
<g id="edge1" class="edge"><title>Node2&#45;&gt;Node1</title>
<path fill="none" stroke="midnightblue" d="M89.8894,-216.69C103.056,-174.484 123.94,-124.128 155.5,-87 161.646,-79.7694 169.075,-73.2686 176.951,-67.5177"/>
<polygon fill="none" stroke="midnightblue" points="86.4992,-215.81 86.9515,-226.395 93.1989,-217.838 86.4992,-215.81"/>
</g>
<!-- Node3 -->
<g id="node3" class="node"><title>Node3</title>
<g id="a_node3"><a xlink:href="../../d6/d14/classo2_1_1conf_1_1ConfigurableParam.html" target="_top" xlink:title="{o2::conf::ConfigurableParam\n||+ getName()\l+ printKeyValues()\l+ toString()\l+ printAllRegisteredParamNames()\l+ printAllKeyValuePairs()\l+ readINI()\l+ readJSON()\l+ readConfigFile()\l+ writeJSON()\l+ writeINI()\l+ getValueAs()\l+ setValue()\l+ setValue()\l+ setEnumValue()\l+ setArrayValue()\l+ setValues()\l+ initialize()\l+ toCCDB()\l+ fromCCDB()\l+ updateFromString()\l+ updateFromFile()\l# ConfigurableParam()\l# ~ConfigurableParam()\l# putKeyValues()\l# output()\l# serializeTo()\l# initFrom()\l# setRegisterMode()\l# initPropertyTree()\l# updateThroughStorageMap()\l# updateThroughStorageMapWith\lConversion()\l}">
<polygon fill="none" stroke="black" points="1,-602.5 1,-1000.5 170,-1000.5 170,-602.5 1,-602.5"/>
<text text-anchor="middle" x="85.5" y="-988.5" font-family="Helvetica,sans-Serif" font-size="10.00">o2::conf::ConfigurableParam</text>
<polyline fill="none" stroke="black" points="1,-981.5 170,-981.5 "/>
<text text-anchor="middle" x="85.5" y="-969.5" font-family="Helvetica,sans-Serif" font-size="10.00"> </text>
<polyline fill="none" stroke="black" points="1,-962.5 170,-962.5 "/>
<text text-anchor="start" x="9" y="-950.5" font-family="Helvetica,sans-Serif" font-size="10.00">+ getName()</text>
<text text-anchor="start" x="9" y="-939.5" font-family="Helvetica,sans-Serif" font-size="10.00">+ printKeyValues()</text>
<text text-anchor="start" x="9" y="-928.5" font-family="Helvetica,sans-Serif" font-size="10.00">+ toString()</text>
<text text-anchor="start" x="9" y="-917.5" font-family="Helvetica,sans-Serif" font-size="10.00">+ printAllRegisteredParamNames()</text>
<text text-anchor="start" x="9" y="-906.5" font-family="Helvetica,sans-Serif" font-size="10.00">+ printAllKeyValuePairs()</text>
<text text-anchor="start" x="9" y="-895.5" font-family="Helvetica,sans-Serif" font-size="10.00">+ readINI()</text>
<text text-anchor="start" x="9" y="-884.5" font-family="Helvetica,sans-Serif" font-size="10.00">+ readJSON()</text>
<text text-anchor="start" x="9" y="-873.5" font-family="Helvetica,sans-Serif" font-size="10.00">+ readConfigFile()</text>
<text text-anchor="start" x="9" y="-862.5" font-family="Helvetica,sans-Serif" font-size="10.00">+ writeJSON()</text>
<text text-anchor="start" x="9" y="-851.5" font-family="Helvetica,sans-Serif" font-size="10.00">+ writeINI()</text>
<text text-anchor="start" x="9" y="-840.5" font-family="Helvetica,sans-Serif" font-size="10.00">+ getValueAs()</text>
<text text-anchor="start" x="9" y="-829.5" font-family="Helvetica,sans-Serif" font-size="10.00">+ setValue()</text>
<text text-anchor="start" x="9" y="-818.5" font-family="Helvetica,sans-Serif" font-size="10.00">+ setValue()</text>
<text text-anchor="start" x="9" y="-807.5" font-family="Helvetica,sans-Serif" font-size="10.00">+ setEnumValue()</text>
<text text-anchor="start" x="9" y="-796.5" font-family="Helvetica,sans-Serif" font-size="10.00">+ setArrayValue()</text>
<text text-anchor="start" x="9" y="-785.5" font-family="Helvetica,sans-Serif" font-size="10.00">+ setValues()</text>
<text text-anchor="start" x="9" y="-774.5" font-family="Helvetica,sans-Serif" font-size="10.00">+ initialize()</text>
<text text-anchor="start" x="9" y="-763.5" font-family="Helvetica,sans-Serif" font-size="10.00">+ toCCDB()</text>
<text text-anchor="start" x="9" y="-752.5" font-family="Helvetica,sans-Serif" font-size="10.00">+ fromCCDB()</text>
<text text-anchor="start" x="9" y="-741.5" font-family="Helvetica,sans-Serif" font-size="10.00">+ updateFromString()</text>
<text text-anchor="start" x="9" y="-730.5" font-family="Helvetica,sans-Serif" font-size="10.00">+ updateFromFile()</text>
<text text-anchor="start" x="9" y="-719.5" font-family="Helvetica,sans-Serif" font-size="10.00"># ConfigurableParam()</text>
<text text-anchor="start" x="9" y="-708.5" font-family="Helvetica,sans-Serif" font-size="10.00"># ~ConfigurableParam()</text>
<text text-anchor="start" x="9" y="-697.5" font-family="Helvetica,sans-Serif" font-size="10.00"># putKeyValues()</text>
<text text-anchor="start" x="9" y="-686.5" font-family="Helvetica,sans-Serif" font-size="10.00"># output()</text>
<text text-anchor="start" x="9" y="-675.5" font-family="Helvetica,sans-Serif" font-size="10.00"># serializeTo()</text>
<text text-anchor="start" x="9" y="-664.5" font-family="Helvetica,sans-Serif" font-size="10.00"># initFrom()</text>
<text text-anchor="start" x="9" y="-653.5" font-family="Helvetica,sans-Serif" font-size="10.00"># setRegisterMode()</text>
<text text-anchor="start" x="9" y="-642.5" font-family="Helvetica,sans-Serif" font-size="10.00"># initPropertyTree()</text>
<text text-anchor="start" x="9" y="-631.5" font-family="Helvetica,sans-Serif" font-size="10.00"># updateThroughStorageMap()</text>
<text text-anchor="start" x="9" y="-620.5" font-family="Helvetica,sans-Serif" font-size="10.00"># updateThroughStorageMapWith</text>
<text text-anchor="start" x="9" y="-609.5" font-family="Helvetica,sans-Serif" font-size="10.00">Conversion()</text>
</a>
</g>
</g>
<!-- Node3&#45;&gt;Node2 -->
<g id="edge2" class="edge"><title>Node3&#45;&gt;Node2</title>
<path fill="none" stroke="midnightblue" d="M74.4457,-592.29C74.0964,-583.069 73.7783,-573.94 73.5,-565 71.4638,-499.583 70.7642,-425.043 70.5445,-371.718"/>
<polygon fill="none" stroke="midnightblue" points="70.95,-592.471 74.8364,-602.327 77.9447,-592.199 70.95,-592.471"/>
</g>
<!-- Node5 -->
<g id="node5" class="node"><title>Node5</title>
<g id="a_node5"><a xlink:href="../../d7/d50/classo2_1_1conf_1_1ConfigurableParamHelper.html" target="_top" xlink:title="{o2::conf::ConfigurableParam\lHelper\&lt; P \&gt;\n||+ getName()\l+ printKeyValues()\l+ output()\l+ getDataMembers()\l+ putKeyValues()\l+ initFrom()\l+ serializeTo()\l+ Instance()\l}">
<polygon fill="none" stroke="black" points="83,-419.5 83,-564.5 224,-564.5 224,-419.5 83,-419.5"/>
<text text-anchor="start" x="91" y="-552.5" font-family="Helvetica,sans-Serif" font-size="10.00">o2::conf::ConfigurableParam</text>
<text text-anchor="middle" x="153.5" y="-541.5" font-family="Helvetica,sans-Serif" font-size="10.00">Helper&lt; P &gt;</text>
<polyline fill="none" stroke="black" points="83,-534.5 224,-534.5 "/>
<text text-anchor="middle" x="153.5" y="-522.5" font-family="Helvetica,sans-Serif" font-size="10.00"> </text>
<polyline fill="none" stroke="black" points="83,-515.5 224,-515.5 "/>
<text text-anchor="start" x="91" y="-503.5" font-family="Helvetica,sans-Serif" font-size="10.00">+ getName()</text>
<text text-anchor="start" x="91" y="-492.5" font-family="Helvetica,sans-Serif" font-size="10.00">+ printKeyValues()</text>
<text text-anchor="start" x="91" y="-481.5" font-family="Helvetica,sans-Serif" font-size="10.00">+ output()</text>
<text text-anchor="start" x="91" y="-470.5" font-family="Helvetica,sans-Serif" font-size="10.00">+ getDataMembers()</text>
<text text-anchor="start" x="91" y="-459.5" font-family="Helvetica,sans-Serif" font-size="10.00">+ putKeyValues()</text>
<text text-anchor="start" x="91" y="-448.5" font-family="Helvetica,sans-Serif" font-size="10.00">+ initFrom()</text>
<text text-anchor="start" x="91" y="-437.5" font-family="Helvetica,sans-Serif" font-size="10.00">+ serializeTo()</text>
<text text-anchor="start" x="91" y="-426.5" font-family="Helvetica,sans-Serif" font-size="10.00">+ Instance()</text>
</a>
</g>
</g>
<!-- Node3&#45;&gt;Node5 -->
<g id="edge5" class="edge"><title>Node3&#45;&gt;Node5</title>
<path fill="none" stroke="midnightblue" d="M131.558,-592.224C133.668,-582.68 135.708,-573.458 137.637,-564.734"/>
<polygon fill="none" stroke="midnightblue" points="128.076,-591.759 129.334,-602.279 134.911,-593.27 128.076,-591.759"/>
</g>
<!-- Node4 -->
<g id="node4" class="node"><title>Node4</title>
<polygon fill="none" stroke="#bfbfbf" points="65,-1070.5 65,-1127.5 106,-1127.5 106,-1070.5 65,-1070.5"/>
<text text-anchor="middle" x="85.5" y="-1115.5" font-family="Helvetica,sans-Serif" font-size="10.00">static</text>
<polyline fill="none" stroke="#bfbfbf" points="65,-1108.5 106,-1108.5 "/>
<text text-anchor="middle" x="85.5" y="-1096.5" font-family="Helvetica,sans-Serif" font-size="10.00"> </text>
<polyline fill="none" stroke="#bfbfbf" points="65,-1089.5 106,-1089.5 "/>
<text text-anchor="middle" x="85.5" y="-1077.5" font-family="Helvetica,sans-Serif" font-size="10.00"> </text>
</g>
<!-- Node4&#45;&gt;Node3 -->
<g id="edge3" class="edge"><title>Node4&#45;&gt;Node3</title>
<path fill="none" stroke="#404040" d="M85.5,-1070.47C85.5,-1055.4 85.5,-1035.21 85.5,-1012.65"/>
<polygon fill="none" stroke="#404040" points="85.5001,-1012.65 81.5,-1006.65 85.5,-1000.65 89.5,-1006.65 85.5001,-1012.65"/>
<text text-anchor="middle" x="138.5" y="-1044" font-family="Helvetica,sans-Serif" font-size="10.00"> #sEnumRegistry</text>
<text text-anchor="middle" x="138.5" y="-1033" font-family="Helvetica,sans-Serif" font-size="10.00">#sValueProvenanceMap</text>
<text text-anchor="middle" x="138.5" y="-1022" font-family="Helvetica,sans-Serif" font-size="10.00">#sKeyToStorageMap</text>
</g>
<!-- Node5&#45;&gt;Node2 -->
<g id="edge4" class="edge"><title>Node5&#45;&gt;Node2</title>
<path fill="none" stroke="orange" d="M118.357,-410.128C112.816,-397.378 107.121,-384.273 101.679,-371.749"/>
<polygon fill="orange" stroke="orange" points="115.162,-411.559 122.358,-419.335 121.582,-408.769 115.162,-411.559"/>
<text text-anchor="middle" x="159.5" y="-393" font-family="Helvetica,sans-Serif" font-size="10.00"> &lt; CPVSimParams &gt;</text>
</g>
<!-- Node6 -->
<g id="node6" class="node"><title>Node6</title>
<g id="a_node6"><a xlink:href="../../d4/dc3/classfloat.html" target="_top" xlink:title="{float\n||}">
<polygon fill="none" stroke="black" points="159,-270.5 159,-327.5 194,-327.5 194,-270.5 159,-270.5"/>
<text text-anchor="middle" x="176.5" y="-315.5" font-family="Helvetica,sans-Serif" font-size="10.00">float</text>
<polyline fill="none" stroke="black" points="159,-308.5 194,-308.5 "/>
<text text-anchor="middle" x="176.5" y="-296.5" font-family="Helvetica,sans-Serif" font-size="10.00"> </text>
<polyline fill="none" stroke="black" points="159,-289.5 194,-289.5 "/>
<text text-anchor="middle" x="176.5" y="-277.5" font-family="Helvetica,sans-Serif" font-size="10.00"> </text>
</a>
</g>
</g>
<!-- Node6&#45;&gt;Node1 -->
<g id="edge6" class="edge"><title>Node6&#45;&gt;Node1</title>
<path fill="none" stroke="#404040" d="M169.507,-270.385C160.399,-228.435 148.794,-147.174 177.5,-87 179.011,-83.8323 180.822,-80.7945 182.861,-77.891"/>
<polygon fill="none" stroke="#404040" points="182.932,-77.8046 183.661,-70.6304 190.564,-68.5441 189.835,-75.7183 182.932,-77.8046"/>
<text text-anchor="middle" x="230.5" y="-200" font-family="Helvetica,sans-Serif" font-size="10.00"> +mB</text>
<text text-anchor="middle" x="230.5" y="-189" font-family="Helvetica,sans-Serif" font-size="10.00">+mZSthreshold</text>
<text text-anchor="middle" x="230.5" y="-178" font-family="Helvetica,sans-Serif" font-size="10.00">+mADCWidth</text>
<text text-anchor="middle" x="230.5" y="-167" font-family="Helvetica,sans-Serif" font-size="10.00">+mdEdx</text>
<text text-anchor="middle" x="230.5" y="-156" font-family="Helvetica,sans-Serif" font-size="10.00">+mPadSizeX</text>
<text text-anchor="middle" x="230.5" y="-145" font-family="Helvetica,sans-Serif" font-size="10.00">+mCoeffToNanoSecond</text>
<text text-anchor="middle" x="230.5" y="-134" font-family="Helvetica,sans-Serif" font-size="10.00">+mPadSizeZ</text>
<text text-anchor="middle" x="230.5" y="-123" font-family="Helvetica,sans-Serif" font-size="10.00">+mNoise</text>
<text text-anchor="middle" x="230.5" y="-112" font-family="Helvetica,sans-Serif" font-size="10.00">+mCPVGasThickness</text>
<text text-anchor="middle" x="230.5" y="-101" font-family="Helvetica,sans-Serif" font-size="10.00">+mDetR</text>
<text text-anchor="middle" x="230.5" y="-90" font-family="Helvetica,sans-Serif" font-size="10.00">...</text>
</g>
<!-- Node7 -->
<g id="node7" class="node"><title>Node7</title>
<polygon fill="none" stroke="#bfbfbf" points="291,-270.5 291,-327.5 320,-327.5 320,-270.5 291,-270.5"/>
<text text-anchor="middle" x="305.5" y="-315.5" font-family="Helvetica,sans-Serif" font-size="10.00">int</text>
<polyline fill="none" stroke="#bfbfbf" points="291,-308.5 320,-308.5 "/>
<text text-anchor="middle" x="305.5" y="-296.5" font-family="Helvetica,sans-Serif" font-size="10.00"> </text>
<polyline fill="none" stroke="#bfbfbf" points="291,-289.5 320,-289.5 "/>
<text text-anchor="middle" x="305.5" y="-277.5" font-family="Helvetica,sans-Serif" font-size="10.00"> </text>
</g>
<!-- Node7&#45;&gt;Node1 -->
<g id="edge7" class="edge"><title>Node7&#45;&gt;Node1</title>
<path fill="none" stroke="#404040" d="M304.613,-270.365C302.699,-220.907 297.19,-119.399 283.5,-87 282.31,-84.1836 280.912,-81.4032 279.361,-78.6812"/>
<polygon fill="none" stroke="#404040" points="279.29,-78.5718 272.662,-75.7291 272.737,-68.5184 279.365,-71.3611 279.29,-78.5718"/>
<text text-anchor="middle" x="326" y="-161.5" font-family="Helvetica,sans-Serif" font-size="10.00"> +mNgamx</text>
<text text-anchor="middle" x="326" y="-150.5" font-family="Helvetica,sans-Serif" font-size="10.00">+mNgamz</text>
<text text-anchor="middle" x="326" y="-139.5" font-family="Helvetica,sans-Serif" font-size="10.00">+mnCellX</text>
<text text-anchor="middle" x="326" y="-128.5" font-family="Helvetica,sans-Serif" font-size="10.00">+mnCellZ</text>
</g>
<!-- Node8 -->
<g id="node8" class="node"><title>Node8</title>
<polygon fill="none" stroke="#bfbfbf" points="360,-270.5 360,-327.5 395,-327.5 395,-270.5 360,-270.5"/>
<text text-anchor="middle" x="377.5" y="-315.5" font-family="Helvetica,sans-Serif" font-size="10.00">bool</text>
<polyline fill="none" stroke="#bfbfbf" points="360,-308.5 395,-308.5 "/>
<text text-anchor="middle" x="377.5" y="-296.5" font-family="Helvetica,sans-Serif" font-size="10.00"> </text>
<polyline fill="none" stroke="#bfbfbf" points="360,-289.5 395,-289.5 "/>
<text text-anchor="middle" x="377.5" y="-277.5" font-family="Helvetica,sans-Serif" font-size="10.00"> </text>
</g>
<!-- Node8&#45;&gt;Node1 -->
<g id="edge8" class="edge"><title>Node8&#45;&gt;Node1</title>
<path fill="none" stroke="#404040" d="M382.512,-270.341C388.775,-226.875 394.31,-141.884 354.5,-87 344.65,-73.4195 330.363,-63.3456 315.216,-55.8986"/>
<polygon fill="none" stroke="#404040" points="315.041,-55.8209 307.932,-57.0266 304.084,-50.9277 311.194,-49.7219 315.041,-55.8209"/>
<text text-anchor="middle" x="432" y="-145" font-family="Helvetica,sans-Serif" font-size="10.00"> +mApplyDigitization</text>
</g>
</g>
</svg>
