<?xml version="1.0" encoding="UTF-8" standalone="no"?>
<!DOCTYPE svg PUBLIC "-//W3C//DTD SVG 1.1//EN"
 "http://www.w3.org/Graphics/SVG/1.1/DTD/svg11.dtd">
<!-- Generated by graphviz version 2.38.0 (20140413.2041)
 -->
<!-- Title: /home/travis/build/AliceO2Group/AliceO2/Detectors/EMCAL/calib/test/testTriggerSTUErrorCounter.cxx Pages: 1 -->
<svg width="368pt" height="184pt"
 viewBox="0.00 0.00 367.50 184.00" xmlns="http://www.w3.org/2000/svg" xmlns:xlink="http://www.w3.org/1999/xlink">
<g id="graph0" class="graph" transform="scale(1 1) rotate(0) translate(4 180)">
<title>/home/travis/build/AliceO2Group/AliceO2/Detectors/EMCAL/calib/test/testTriggerSTUErrorCounter.cxx</title>
<!-- Node1 -->
<g id="node1" class="node"><title>Node1</title>
<polygon fill="#bfbfbf" stroke="black" points="121.5,-123.5 121.5,-175.5 301.5,-175.5 301.5,-123.5 121.5,-123.5"/>
<text text-anchor="start" x="129.5" y="-163.5" font-family="Helvetica,sans-Serif" font-size="10.00">/home/travis/build</text>
<text text-anchor="start" x="129.5" y="-152.5" font-family="Helvetica,sans-Serif" font-size="10.00">/AliceO2Group/AliceO2</text>
<text text-anchor="start" x="129.5" y="-141.5" font-family="Helvetica,sans-Serif" font-size="10.00">/Detectors/EMCAL/calib</text>
<text text-anchor="middle" x="211.5" y="-130.5" font-family="Helvetica,sans-Serif" font-size="10.00">/test/testTriggerSTUErrorCounter.cxx</text>
</g>
<!-- Node2 -->
<g id="node2" class="node"><title>Node2</title>
<polygon fill="none" stroke="#bfbfbf" points="0,-62 0,-81 119,-81 119,-62 0,-62"/>
<text text-anchor="middle" x="59.5" y="-69" font-family="Helvetica,sans-Serif" font-size="10.00">boost/test/unit_test.hpp</text>
</g>
<!-- Node1&#45;&gt;Node2 -->
<g id="edge1" class="edge"><title>Node1&#45;&gt;Node2</title>
<path fill="none" stroke="midnightblue" d="M161.308,-123.404C136.076,-110.788 106.538,-96.0189 85.7964,-85.6482"/>
<polygon fill="midnightblue" stroke="midnightblue" points="87.1654,-82.4196 76.6558,-81.0779 84.0348,-88.6806 87.1654,-82.4196"/>
</g>
<!-- Node3 -->
<g id="node3" class="node"><title>Node3</title>
<g id="a_node3"><a xlink:href="../../dc/d2a/TriggerSTUErrorCounter_8h.html" target="_top" xlink:title="EMCALCalib/TriggerSTUError\lCounter.h">
<polygon fill="none" stroke="black" points="137.5,-56.5 137.5,-86.5 285.5,-86.5 285.5,-56.5 137.5,-56.5"/>
<text text-anchor="start" x="145.5" y="-74.5" font-family="Helvetica,sans-Serif" font-size="10.00">EMCALCalib/TriggerSTUError</text>
<text text-anchor="middle" x="211.5" y="-63.5" font-family="Helvetica,sans-Serif" font-size="10.00">Counter.h</text>
</a>
</g>
</g>
<!-- Node1&#45;&gt;Node3 -->
<g id="edge2" class="edge"><title>Node1&#45;&gt;Node3</title>
<path fill="none" stroke="midnightblue" d="M211.5,-123.193C211.5,-114.786 211.5,-105.443 211.5,-97.0914"/>
<polygon fill="midnightblue" stroke="midnightblue" points="215,-96.8452 211.5,-86.8453 208,-96.8453 215,-96.8452"/>
</g>
<!-- Node7 -->
<g id="node7" class="node"><title>Node7</title>
<polygon fill="none" stroke="#bfbfbf" points="303.5,-62 303.5,-81 359.5,-81 359.5,-62 303.5,-62"/>
<text text-anchor="middle" x="331.5" y="-69" font-family="Helvetica,sans-Serif" font-size="10.00">algorithm</text>
</g>
<!-- Node1&#45;&gt;Node7 -->
<g id="edge6" class="edge"><title>Node1&#45;&gt;Node7</title>
<path fill="none" stroke="midnightblue" d="M251.125,-123.404C270.414,-111.188 292.891,-96.9524 309.163,-86.6467"/>
<polygon fill="midnightblue" stroke="midnightblue" points="311.38,-89.3853 317.956,-81.0779 307.635,-83.4716 311.38,-89.3853"/>
</g>
<!-- Node4 -->
<g id="node4" class="node"><title>Node4</title>
<polygon fill="none" stroke="#bfbfbf" points="129,-0.5 129,-19.5 174,-19.5 174,-0.5 129,-0.5"/>
<text text-anchor="middle" x="151.5" y="-7.5" font-family="Helvetica,sans-Serif" font-size="10.00">iosfwd</text>
</g>
<!-- Node3&#45;&gt;Node4 -->
<g id="edge3" class="edge"><title>Node3&#45;&gt;Node4</title>
<path fill="none" stroke="midnightblue" d="M197.281,-56.3993C188.292,-47.4859 176.662,-35.9523 167.373,-26.7408"/>
<polygon fill="midnightblue" stroke="midnightblue" points="169.796,-24.214 160.231,-19.6578 164.867,-29.1844 169.796,-24.214"/>
</g>
<!-- Node5 -->
<g id="node5" class="node"><title>Node5</title>
<polygon fill="none" stroke="#bfbfbf" points="192.5,-0.5 192.5,-19.5 230.5,-19.5 230.5,-0.5 192.5,-0.5"/>
<text text-anchor="middle" x="211.5" y="-7.5" font-family="Helvetica,sans-Serif" font-size="10.00">array</text>
</g>
<!-- Node3&#45;&gt;Node5 -->
<g id="edge4" class="edge"><title>Node3&#45;&gt;Node5</title>
<path fill="none" stroke="midnightblue" d="M211.5,-56.3993C211.5,-48.4664 211.5,-38.458 211.5,-29.8583"/>
<polygon fill="midnightblue" stroke="midnightblue" points="215,-29.6577 211.5,-19.6578 208,-29.6578 215,-29.6577"/>
</g>
<!-- Node6 -->
<g id="node6" class="node"><title>Node6</title>
<polygon fill="none" stroke="#bfbfbf" points="248.5,-0.5 248.5,-19.5 304.5,-19.5 304.5,-0.5 248.5,-0.5"/>
<text text-anchor="middle" x="276.5" y="-7.5" font-family="Helvetica,sans-Serif" font-size="10.00">Rtypes.h</text>
</g>
<!-- Node3&#45;&gt;Node6 -->
<g id="edge5" class="edge"><title>Node3&#45;&gt;Node6</title>
<path fill="none" stroke="midnightblue" d="M226.904,-56.3993C236.739,-47.3967 249.493,-35.7214 259.605,-26.4652"/>
<polygon fill="midnightblue" stroke="midnightblue" points="262.029,-28.9916 267.042,-19.6578 257.302,-23.8282 262.029,-28.9916"/>
</g>
</g>
</svg>
