<?xml version="1.0" encoding="UTF-8" standalone="no"?>
<!DOCTYPE svg PUBLIC "-//W3C//DTD SVG 1.1//EN"
 "http://www.w3.org/Graphics/SVG/1.1/DTD/svg11.dtd">
<!-- Generated by graphviz version 2.38.0 (20140413.2041)
 -->
<!-- Title: /home/travis/build/AliceO2Group/AliceO2/Detectors/EMCAL/reconstruction/src/DigitReader.cxx Pages: 1 -->
<!--zoomable 363 -->
<svg id="main" version="1.1" xmlns="http://www.w3.org/2000/svg" xmlns:xlink="http://www.w3.org/1999/xlink" xml:space="preserve" onload="init(evt)">
<style type="text/css"><![CDATA[
.edge:hover path { stroke: red; }
.edge:hover polygon { stroke: red; fill: red; }
]]></style>
<script type="text/javascript"><![CDATA[
var edges = document.getElementsByTagName('g');
if (edges && edges.length) {
  for (var i=0;i<edges.length;i++) {
    if (edges[i].id.substr(0,4)=='edge') {
      edges[i].setAttribute('class','edge');
    }
  }
}
]]></script>
        <defs>
                <circle id="rim" cx="0" cy="0" r="7"/>
                <circle id="rim2" cx="0" cy="0" r="3.5"/>
                <g id="zoomPlus">
                        <use xlink:href="#rim" fill="#404040">
                                <set attributeName="fill" to="#808080" begin="zoomplus.mouseover" end="zoomplus.mouseout"/>
                        </use>
                        <path d="M-4,0h8M0,-4v8" fill="none" stroke="white" stroke-width="1.5" pointer-events="none"/>
                </g>
                <g id="zoomMin">
                        <use xlink:href="#rim" fill="#404040">
                                <set attributeName="fill" to="#808080" begin="zoomminus.mouseover" end="zoomminus.mouseout"/>
                        </use>
                        <path d="M-4,0h8" fill="none" stroke="white" stroke-width="1.5" pointer-events="none"/>
                </g>
                <g id="dirArrow">
                        <path fill="none" stroke="white" stroke-width="1.5" d="M0,-3.0v7 M-2.5,-0.5L0,-3.0L2.5,-0.5"/>
                </g>
               <g id="resetDef">
                       <use xlink:href="#rim2" fill="#404040">
                               <set attributeName="fill" to="#808080" begin="reset.mouseover" end="reset.mouseout"/>
                       </use>
               </g>
        </defs>

<script type="text/javascript">
var viewWidth = 643;
var viewHeight = 363;
var sectionId = 'dynsection-0';
</script>
<script xlink:href="../../svgpan.js"/>
<svg id="graph" class="graph">
<g id="viewport">
<title>/home/travis/build/AliceO2Group/AliceO2/Detectors/EMCAL/reconstruction/src/DigitReader.cxx</title>
<!-- Node1 -->
<g id="node1" class="node"><title>Node1</title>
<polygon fill="#bfbfbf" stroke="black" points="191.5,-302.5 191.5,-354.5 355.5,-354.5 355.5,-302.5 191.5,-302.5"/>
<text text-anchor="start" x="199.5" y="-342.5" font-family="Helvetica,sans-Serif" font-size="10.00">/home/travis/build</text>
<text text-anchor="start" x="199.5" y="-331.5" font-family="Helvetica,sans-Serif" font-size="10.00">/AliceO2Group/AliceO2</text>
<text text-anchor="start" x="199.5" y="-320.5" font-family="Helvetica,sans-Serif" font-size="10.00">/Detectors/EMCAL/reconstruction</text>
<text text-anchor="middle" x="273.5" y="-309.5" font-family="Helvetica,sans-Serif" font-size="10.00">/src/DigitReader.cxx</text>
</g>
<!-- Node2 -->
<g id="node2" class="node"><title>Node2</title>
<g id="a_node2"><a xlink:href="../../da/de8/RootChain_8h.html" target="_top" xlink:title="CommonUtils/RootChain.h">
<polygon fill="none" stroke="black" points="40.5,-241 40.5,-260 174.5,-260 174.5,-241 40.5,-241"/>
<text text-anchor="middle" x="107.5" y="-248" font-family="Helvetica,sans-Serif" font-size="10.00">CommonUtils/RootChain.h</text>
</a>
</g>
</g>
<!-- Node1&#45;&gt;Node2 -->
<g id="edge1" class="edge"><title>Node1&#45;&gt;Node2</title>
<path fill="none" stroke="midnightblue" d="M218.685,-302.404C190.88,-289.674 158.286,-274.751 135.606,-264.368"/>
<polygon fill="midnightblue" stroke="midnightblue" points="136.785,-261.058 126.236,-260.078 133.871,-267.423 136.785,-261.058"/>
</g>
<!-- Node6 -->
<g id="node6" class="node"><title>Node6</title>
<g id="a_node6"><a xlink:href="../../d1/dff/DigitReader_8h.html" target="_top" xlink:title="Definition of EMCAL digit reader. ">
<polygon fill="none" stroke="black" points="215,-235.5 215,-265.5 332,-265.5 332,-235.5 215,-235.5"/>
<text text-anchor="start" x="223" y="-253.5" font-family="Helvetica,sans-Serif" font-size="10.00">EMCALReconstruction</text>
<text text-anchor="middle" x="273.5" y="-242.5" font-family="Helvetica,sans-Serif" font-size="10.00">/DigitReader.h</text>
</a>
</g>
</g>
<!-- Node1&#45;&gt;Node6 -->
<g id="edge5" class="edge"><title>Node1&#45;&gt;Node6</title>
<path fill="none" stroke="midnightblue" d="M273.5,-302.193C273.5,-293.786 273.5,-284.443 273.5,-276.091"/>
<polygon fill="midnightblue" stroke="midnightblue" points="277,-275.845 273.5,-265.845 270,-275.845 277,-275.845"/>
</g>
<!-- Node18 -->
<g id="node18" class="node"><title>Node18</title>
<polygon fill="none" stroke="#bfbfbf" points="350,-241 350,-260 421,-260 421,-241 350,-241"/>
<text text-anchor="middle" x="385.5" y="-248" font-family="Helvetica,sans-Serif" font-size="10.00">FairLogger.h</text>
</g>
<!-- Node1&#45;&gt;Node18 -->
<g id="edge20" class="edge"><title>Node1&#45;&gt;Node18</title>
<path fill="none" stroke="midnightblue" d="M310.483,-302.404C328.318,-290.302 349.073,-276.218 364.225,-265.937"/>
<polygon fill="midnightblue" stroke="midnightblue" points="366.549,-268.589 372.859,-260.078 362.619,-262.797 366.549,-268.589"/>
</g>
<!-- Node3 -->
<g id="node3" class="node"><title>Node3</title>
<polygon fill="none" stroke="#bfbfbf" points="59.5,-179.5 59.5,-198.5 111.5,-198.5 111.5,-179.5 59.5,-179.5"/>
<text text-anchor="middle" x="85.5" y="-186.5" font-family="Helvetica,sans-Serif" font-size="10.00">memory</text>
</g>
<!-- Node2&#45;&gt;Node3 -->
<g id="edge2" class="edge"><title>Node2&#45;&gt;Node3</title>
<path fill="none" stroke="midnightblue" d="M104.348,-240.975C101.179,-232.404 96.1957,-218.927 92.1492,-207.983"/>
<polygon fill="midnightblue" stroke="midnightblue" points="95.3971,-206.675 88.6462,-198.509 88.8315,-209.102 95.3971,-206.675"/>
</g>
<!-- Node4 -->
<g id="node4" class="node"><title>Node4</title>
<polygon fill="none" stroke="#bfbfbf" points="129.5,-179.5 129.5,-198.5 185.5,-198.5 185.5,-179.5 129.5,-179.5"/>
<text text-anchor="middle" x="157.5" y="-186.5" font-family="Helvetica,sans-Serif" font-size="10.00">TChain.h</text>
</g>
<!-- Node2&#45;&gt;Node4 -->
<g id="edge3" class="edge"><title>Node2&#45;&gt;Node4</title>
<path fill="none" stroke="midnightblue" d="M114.664,-240.975C122.238,-231.962 134.37,-217.525 143.793,-206.312"/>
<polygon fill="midnightblue" stroke="midnightblue" points="146.596,-208.417 150.35,-198.509 141.237,-203.913 146.596,-208.417"/>
</g>
<!-- Node5 -->
<g id="node5" class="node"><title>Node5</title>
<polygon fill="none" stroke="#bfbfbf" points="0,-179.5 0,-198.5 41,-198.5 41,-179.5 0,-179.5"/>
<text text-anchor="middle" x="20.5" y="-186.5" font-family="Helvetica,sans-Serif" font-size="10.00">string</text>
</g>
<!-- Node2&#45;&gt;Node5 -->
<g id="edge4" class="edge"><title>Node2&#45;&gt;Node5</title>
<path fill="none" stroke="midnightblue" d="M95.035,-240.975C81.0805,-231.431 58.2351,-215.807 41.5091,-204.368"/>
<polygon fill="midnightblue" stroke="midnightblue" points="43.1719,-201.265 32.9419,-198.509 39.2203,-207.043 43.1719,-201.265"/>
</g>
<!-- Node7 -->
<g id="node7" class="node"><title>Node7</title>
<polygon fill="none" stroke="#bfbfbf" points="361.5,-179.5 361.5,-198.5 411.5,-198.5 411.5,-179.5 361.5,-179.5"/>
<text text-anchor="middle" x="386.5" y="-186.5" font-family="Helvetica,sans-Serif" font-size="10.00">TTree.h</text>
</g>
<!-- Node6&#45;&gt;Node7 -->
<g id="edge6" class="edge"><title>Node6&#45;&gt;Node7</title>
<path fill="none" stroke="midnightblue" d="M300.279,-235.399C318.562,-225.773 342.648,-213.09 360.715,-203.577"/>
<polygon fill="midnightblue" stroke="midnightblue" points="362.84,-206.414 370.057,-198.658 359.578,-200.22 362.84,-206.414"/>
</g>
<!-- Node8 -->
<g id="node8" class="node"><title>Node8</title>
<g id="a_node8"><a xlink:href="../../d3/d6e/DataFormats_2Detectors_2EMCAL_2include_2DataFormatsEMCAL_2Digit_8h.html" target="_top" xlink:title="DataFormatsEMCAL/Digit.h">
<polygon fill="none" stroke="black" points="203.5,-179.5 203.5,-198.5 343.5,-198.5 343.5,-179.5 203.5,-179.5"/>
<text text-anchor="middle" x="273.5" y="-186.5" font-family="Helvetica,sans-Serif" font-size="10.00">DataFormatsEMCAL/Digit.h</text>
</a>
</g>
</g>
<!-- Node6&#45;&gt;Node8 -->
<g id="edge7" class="edge"><title>Node6&#45;&gt;Node8</title>
<path fill="none" stroke="midnightblue" d="M273.5,-235.399C273.5,-227.466 273.5,-217.458 273.5,-208.858"/>
<polygon fill="midnightblue" stroke="midnightblue" points="277,-208.658 273.5,-198.658 270,-208.658 277,-208.658"/>
</g>
<!-- Node9 -->
<g id="node9" class="node"><title>Node9</title>
<polygon fill="none" stroke="#bfbfbf" points="307,-56.5 307,-75.5 352,-75.5 352,-56.5 307,-56.5"/>
<text text-anchor="middle" x="329.5" y="-63.5" font-family="Helvetica,sans-Serif" font-size="10.00">iosfwd</text>
</g>
<!-- Node8&#45;&gt;Node9 -->
<g id="edge8" class="edge"><title>Node8&#45;&gt;Node9</title>
<path fill="none" stroke="midnightblue" d="M282.778,-179.216C291.216,-170.719 303.403,-157.092 310.5,-143 319.657,-124.82 324.601,-101.919 327.128,-86.0325"/>
<polygon fill="midnightblue" stroke="midnightblue" points="330.631,-86.2638 328.567,-75.8718 323.7,-85.2822 330.631,-86.2638"/>
</g>
<!-- Node10 -->
<g id="node10" class="node"><title>Node10</title>
<polygon fill="none" stroke="#bfbfbf" points="69.5,-118 69.5,-137 113.5,-137 113.5,-118 69.5,-118"/>
<text text-anchor="middle" x="91.5" y="-125" font-family="Helvetica,sans-Serif" font-size="10.00">cmath</text>
</g>
<!-- Node8&#45;&gt;Node10 -->
<g id="edge9" class="edge"><title>Node8&#45;&gt;Node10</title>
<path fill="none" stroke="midnightblue" d="M239.74,-179.475C208.821,-171.308 162,-158.029 122.5,-143 121.077,-142.459 119.628,-141.88 118.173,-141.278"/>
<polygon fill="midnightblue" stroke="midnightblue" points="119.247,-137.926 108.685,-137.089 116.419,-144.329 119.247,-137.926"/>
</g>
<!-- Node11 -->
<g id="node11" class="node"><title>Node11</title>
<polygon fill="none" stroke="#bfbfbf" points="188.5,-0.5 188.5,-19.5 244.5,-19.5 244.5,-0.5 188.5,-0.5"/>
<text text-anchor="middle" x="216.5" y="-7.5" font-family="Helvetica,sans-Serif" font-size="10.00">Rtypes.h</text>
</g>
<!-- Node8&#45;&gt;Node11 -->
<g id="edge10" class="edge"><title>Node8&#45;&gt;Node11</title>
<path fill="none" stroke="midnightblue" d="M215.071,-179.49C155.447,-170.211 70.2892,-155.073 60.5,-143 18.4672,-91.1592 122.445,-44.2298 180.544,-22.9866"/>
<polygon fill="midnightblue" stroke="midnightblue" points="181.89,-26.2224 190.129,-19.5617 179.535,-19.6305 181.89,-26.2224"/>
</g>
<!-- Node12 -->
<g id="node12" class="node"><title>Node12</title>
<g id="a_node12"><a xlink:href="../../df/d5d/common_2include_2CommonDataFormat_2TimeStamp_8h.html" target="_top" xlink:title="CommonDataFormat/TimeStamp.h">
<polygon fill="none" stroke="black" points="131.5,-118 131.5,-137 301.5,-137 301.5,-118 131.5,-118"/>
<text text-anchor="middle" x="216.5" y="-125" font-family="Helvetica,sans-Serif" font-size="10.00">CommonDataFormat/TimeStamp.h</text>
</a>
</g>
</g>
<!-- Node8&#45;&gt;Node12 -->
<g id="edge11" class="edge"><title>Node8&#45;&gt;Node12</title>
<path fill="none" stroke="midnightblue" d="M265.333,-179.475C256.614,-170.373 242.596,-155.741 231.811,-144.483"/>
<polygon fill="midnightblue" stroke="midnightblue" points="234.097,-141.809 224.652,-137.009 229.042,-146.651 234.097,-141.809"/>
</g>
<!-- Node14 -->
<g id="node14" class="node"><title>Node14</title>
<g id="a_node14"><a xlink:href="../../dd/dda/DataFormats_2Detectors_2EMCAL_2include_2DataFormatsEMCAL_2Constants_8h.html" target="_top" xlink:title="DataFormatsEMCAL/Constants.h">
<polygon fill="none" stroke="black" points="357.5,-118 357.5,-137 521.5,-137 521.5,-118 357.5,-118"/>
<text text-anchor="middle" x="439.5" y="-125" font-family="Helvetica,sans-Serif" font-size="10.00">DataFormatsEMCAL/Constants.h</text>
</a>
</g>
</g>
<!-- Node8&#45;&gt;Node14 -->
<g id="edge14" class="edge"><title>Node8&#45;&gt;Node14</title>
<path fill="none" stroke="midnightblue" d="M297.284,-179.475C325.882,-169.225 374.051,-151.959 406.302,-140.399"/>
<polygon fill="midnightblue" stroke="midnightblue" points="407.528,-143.678 415.76,-137.009 405.166,-137.089 407.528,-143.678"/>
</g>
<!-- Node17 -->
<g id="node17" class="node"><title>Node17</title>
<polygon fill="none" stroke="#bfbfbf" points="540,-112.5 540,-142.5 635,-142.5 635,-112.5 540,-112.5"/>
<text text-anchor="start" x="548" y="-130.5" font-family="Helvetica,sans-Serif" font-size="10.00">boost/serialization</text>
<text text-anchor="middle" x="587.5" y="-119.5" font-family="Helvetica,sans-Serif" font-size="10.00">/base_object.hpp</text>
</g>
<!-- Node8&#45;&gt;Node17 -->
<g id="edge19" class="edge"><title>Node8&#45;&gt;Node17</title>
<path fill="none" stroke="midnightblue" d="M329.383,-179.467C379.358,-171.553 454.803,-158.912 529.871,-143.034"/>
<polygon fill="midnightblue" stroke="midnightblue" points="530.929,-146.387 539.978,-140.876 529.467,-139.541 530.929,-146.387"/>
</g>
<!-- Node13 -->
<g id="node13" class="node"><title>Node13</title>
<g id="a_node13"><a xlink:href="../../d2/d45/GPUCommonRtypes_8h.html" target="_top" xlink:title="GPUCommonRtypes.h">
<polygon fill="none" stroke="black" points="157.5,-56.5 157.5,-75.5 275.5,-75.5 275.5,-56.5 157.5,-56.5"/>
<text text-anchor="middle" x="216.5" y="-63.5" font-family="Helvetica,sans-Serif" font-size="10.00">GPUCommonRtypes.h</text>
</a>
</g>
</g>
<!-- Node12&#45;&gt;Node13 -->
<g id="edge12" class="edge"><title>Node12&#45;&gt;Node13</title>
<path fill="none" stroke="midnightblue" d="M216.5,-117.975C216.5,-109.58 216.5,-96.4806 216.5,-85.6631"/>
<polygon fill="midnightblue" stroke="midnightblue" points="220,-85.5091 216.5,-75.5091 213,-85.5091 220,-85.5091"/>
</g>
<!-- Node13&#45;&gt;Node11 -->
<g id="edge13" class="edge"><title>Node13&#45;&gt;Node11</title>
<path fill="none" stroke="midnightblue" d="M216.5,-56.083C216.5,-49.0059 216.5,-38.8611 216.5,-29.9865"/>
<polygon fill="midnightblue" stroke="midnightblue" points="220,-29.751 216.5,-19.7511 213,-29.7511 220,-29.751"/>
</g>
<!-- Node14&#45;&gt;Node9 -->
<g id="edge16" class="edge"><title>Node14&#45;&gt;Node9</title>
<path fill="none" stroke="midnightblue" d="M423.74,-117.975C405.524,-108.122 375.327,-91.7883 354.032,-80.2697"/>
<polygon fill="midnightblue" stroke="midnightblue" points="355.692,-77.1883 345.231,-75.5091 352.362,-83.3453 355.692,-77.1883"/>
</g>
<!-- Node14&#45;&gt;Node11 -->
<g id="edge15" class="edge"><title>Node14&#45;&gt;Node11</title>
<path fill="none" stroke="midnightblue" d="M432.103,-117.828C419.077,-103.076 390.564,-73.0439 360.5,-56 327.175,-37.1073 284.927,-25.114 254.828,-18.3032"/>
<polygon fill="midnightblue" stroke="midnightblue" points="255.239,-14.8107 244.723,-16.1074 253.752,-21.6511 255.239,-14.8107"/>
</g>
<!-- Node15 -->
<g id="node15" class="node"><title>Node15</title>
<polygon fill="none" stroke="#bfbfbf" points="409,-56.5 409,-75.5 468,-75.5 468,-56.5 409,-56.5"/>
<text text-anchor="middle" x="438.5" y="-63.5" font-family="Helvetica,sans-Serif" font-size="10.00">exception</text>
</g>
<!-- Node14&#45;&gt;Node15 -->
<g id="edge17" class="edge"><title>Node14&#45;&gt;Node15</title>
<path fill="none" stroke="midnightblue" d="M439.357,-117.975C439.216,-109.58 438.995,-96.4806 438.814,-85.6631"/>
<polygon fill="midnightblue" stroke="midnightblue" points="442.311,-85.4488 438.643,-75.5091 435.312,-85.5665 442.311,-85.4488"/>
</g>
<!-- Node16 -->
<g id="node16" class="node"><title>Node16</title>
<polygon fill="none" stroke="#bfbfbf" points="486.5,-56.5 486.5,-75.5 532.5,-75.5 532.5,-56.5 486.5,-56.5"/>
<text text-anchor="middle" x="509.5" y="-63.5" font-family="Helvetica,sans-Serif" font-size="10.00">cstdint</text>
</g>
<!-- Node14&#45;&gt;Node16 -->
<g id="edge18" class="edge"><title>Node14&#45;&gt;Node16</title>
<path fill="none" stroke="midnightblue" d="M449.529,-117.975C460.549,-108.608 478.46,-93.3839 491.843,-82.0081"/>
<polygon fill="midnightblue" stroke="midnightblue" points="494.137,-84.6524 499.489,-75.5091 489.603,-79.3188 494.137,-84.6524"/>
</g>
</g>
</svg>
        <g id="navigator" transform="translate(0 0)" fill="#404254">
                <rect fill="#f2f5e9" fill-opacity="0.5" stroke="#606060" stroke-width=".5" x="0" y="0" width="60" height="60"/>
                <use id="zoomplus" xlink:href="#zoomPlus" x="17" y="9" onmousedown="handleZoom(evt,'in')"/>
                <use id="zoomminus" xlink:href="#zoomMin" x="42" y="9" onmousedown="handleZoom(evt,'out')"/>
                <use id="reset" xlink:href="#resetDef" x="30" y="36" onmousedown="handleReset()"/>
                <g id="arrowUp" xlink:href="#dirArrow" transform="translate(30 24)" onmousedown="handlePan(0,-1)">
                  <use xlink:href="#rim" fill="#404040">
                        <set attributeName="fill" to="#808080" begin="arrowUp.mouseover" end="arrowUp.mouseout"/>
                  </use>
                  <path fill="none" stroke="white" stroke-width="1.5" d="M0,-3.0v7 M-2.5,-0.5L0,-3.0L2.5,-0.5"/>
                </g>
                <g id="arrowRight" xlink:href="#dirArrow" transform="rotate(90) translate(36 -43)" onmousedown="handlePan(1,0)">
                  <use xlink:href="#rim" fill="#404040">
                        <set attributeName="fill" to="#808080" begin="arrowRight.mouseover" end="arrowRight.mouseout"/>
                  </use>
                  <path fill="none" stroke="white" stroke-width="1.5" d="M0,-3.0v7 M-2.5,-0.5L0,-3.0L2.5,-0.5"/>
                </g>
                <g id="arrowDown" xlink:href="#dirArrow" transform="rotate(180) translate(-30 -48)" onmousedown="handlePan(0,1)">
                  <use xlink:href="#rim" fill="#404040">
                        <set attributeName="fill" to="#808080" begin="arrowDown.mouseover" end="arrowDown.mouseout"/>
                  </use>
                  <path fill="none" stroke="white" stroke-width="1.5" d="M0,-3.0v7 M-2.5,-0.5L0,-3.0L2.5,-0.5"/>
                </g>
                <g id="arrowLeft" xlink:href="#dirArrow" transform="rotate(270) translate(-36 17)" onmousedown="handlePan(-1,0)">
                  <use xlink:href="#rim" fill="#404040">
                        <set attributeName="fill" to="#808080" begin="arrowLeft.mouseover" end="arrowLeft.mouseout"/>
                  </use>
                  <path fill="none" stroke="white" stroke-width="1.5" d="M0,-3.0v7 M-2.5,-0.5L0,-3.0L2.5,-0.5"/>
                </g>
        </g>
        <svg viewBox="0 0 15 15" width="100%" height="30px" preserveAspectRatio="xMaxYMin meet">
         <g id="arrow_out" transform="scale(0.3 0.3)">
          <a xlink:href="DigitReader_8cxx__incl_org.svg" target="_base">
           <rect id="button" ry="5" rx="5" y="6" x="6" height="38" width="38"
                fill="#f2f5e9" fill-opacity="0.5" stroke="#606060" stroke-width="1.0"/>
           <path id="arrow"
             d="M 11.500037,31.436501 C 11.940474,20.09759 22.043105,11.32322 32.158766,21.979434 L 37.068811,17.246167 C 37.068811,17.246167 37.088388,32 37.088388,32 L 22.160133,31.978069 C 22.160133,31.978069 26.997745,27.140456 26.997745,27.140456 C 18.528582,18.264221 13.291696,25.230495 11.500037,31.436501 z"
             style="fill:#404040;"/>
          </a>
         </g>
        </svg>
</svg>
