<?xml version="1.0" encoding="UTF-8" standalone="no"?>
<!DOCTYPE svg PUBLIC "-//W3C//DTD SVG 1.1//EN"
 "http://www.w3.org/Graphics/SVG/1.1/DTD/svg11.dtd">
<!-- Generated by graphviz version 2.38.0 (20140413.2041)
 -->
<!-- Title: /home/travis/build/AliceO2Group/AliceO2/Detectors/MUON/MID/Raw/include/MIDRaw/Encoder.h Pages: 1 -->
<svg width="1397pt" height="296pt"
 viewBox="0.00 0.00 1396.50 296.00" xmlns="http://www.w3.org/2000/svg" xmlns:xlink="http://www.w3.org/1999/xlink">
<g id="graph0" class="graph" transform="scale(1 1) rotate(0) translate(4 292)">
<title>/home/travis/build/AliceO2Group/AliceO2/Detectors/MUON/MID/Raw/include/MIDRaw/Encoder.h</title>
<!-- Node1 -->
<g id="node1" class="node"><title>Node1</title>
<polygon fill="#bfbfbf" stroke="black" points="747.5,-235.5 747.5,-287.5 888.5,-287.5 888.5,-235.5 747.5,-235.5"/>
<text text-anchor="start" x="755.5" y="-275.5" font-family="Helvetica,sans-Serif" font-size="10.00">/home/travis/build</text>
<text text-anchor="start" x="755.5" y="-264.5" font-family="Helvetica,sans-Serif" font-size="10.00">/AliceO2Group/AliceO2</text>
<text text-anchor="start" x="755.5" y="-253.5" font-family="Helvetica,sans-Serif" font-size="10.00">/Detectors/MUON/MID/Raw</text>
<text text-anchor="middle" x="818" y="-242.5" font-family="Helvetica,sans-Serif" font-size="10.00">/include/MIDRaw/Encoder.h</text>
</g>
<!-- Node2 -->
<g id="node2" class="node"><title>Node2</title>
<polygon fill="none" stroke="#bfbfbf" points="833,-0.5 833,-19.5 879,-19.5 879,-0.5 833,-0.5"/>
<text text-anchor="middle" x="856" y="-7.5" font-family="Helvetica,sans-Serif" font-size="10.00">cstdint</text>
</g>
<!-- Node1&#45;&gt;Node2 -->
<g id="edge1" class="edge"><title>Node1&#45;&gt;Node2</title>
<path fill="none" stroke="midnightblue" d="M747.314,-259.098C641.959,-253.552 459.756,-228.812 496,-123 508.215,-87.3399 515.438,-74.9883 548,-56 594.179,-29.071 752.938,-16.8881 822.686,-12.7426"/>
<polygon fill="midnightblue" stroke="midnightblue" points="822.914,-16.2354 832.697,-12.1669 822.512,-9.24696 822.914,-16.2354"/>
</g>
<!-- Node3 -->
<g id="node3" class="node"><title>Node3</title>
<polygon fill="none" stroke="#bfbfbf" points="1251.5,-123.5 1251.5,-142.5 1296.5,-142.5 1296.5,-123.5 1251.5,-123.5"/>
<text text-anchor="middle" x="1274" y="-130.5" font-family="Helvetica,sans-Serif" font-size="10.00">gsl/gsl</text>
</g>
<!-- Node1&#45;&gt;Node3 -->
<g id="edge2" class="edge"><title>Node1&#45;&gt;Node3</title>
<path fill="none" stroke="midnightblue" d="M888.595,-252.219C954.322,-243.278 1054.44,-226.494 1138,-199 1179.18,-185.451 1224.01,-162.22 1250.53,-147.51"/>
<polygon fill="midnightblue" stroke="midnightblue" points="1252.42,-150.46 1259.43,-142.51 1248.99,-144.357 1252.42,-150.46"/>
</g>
<!-- Node4 -->
<g id="node4" class="node"><title>Node4</title>
<polygon fill="none" stroke="#bfbfbf" points="1353.5,-123.5 1353.5,-142.5 1388.5,-142.5 1388.5,-123.5 1353.5,-123.5"/>
<text text-anchor="middle" x="1371" y="-130.5" font-family="Helvetica,sans-Serif" font-size="10.00">map</text>
</g>
<!-- Node1&#45;&gt;Node4 -->
<g id="edge3" class="edge"><title>Node1&#45;&gt;Node4</title>
<path fill="none" stroke="midnightblue" d="M888.681,-256.618C1025.48,-248.492 1316.1,-228.012 1351,-199 1364.46,-187.812 1369.04,-167.79 1370.51,-152.914"/>
<polygon fill="midnightblue" stroke="midnightblue" points="1374.01,-152.966 1371.12,-142.773 1367.02,-152.543 1374.01,-152.966"/>
</g>
<!-- Node5 -->
<g id="node5" class="node"><title>Node5</title>
<g id="a_node5"><a xlink:href="../../d9/d80/InteractionRecord_8h.html" target="_top" xlink:title="CommonDataFormat/Interaction\lRecord.h">
<polygon fill="none" stroke="black" points="118.5,-56.5 118.5,-86.5 275.5,-86.5 275.5,-56.5 118.5,-56.5"/>
<text text-anchor="start" x="126.5" y="-74.5" font-family="Helvetica,sans-Serif" font-size="10.00">CommonDataFormat/Interaction</text>
<text text-anchor="middle" x="197" y="-63.5" font-family="Helvetica,sans-Serif" font-size="10.00">Record.h</text>
</a>
</g>
</g>
<!-- Node1&#45;&gt;Node5 -->
<g id="edge4" class="edge"><title>Node1&#45;&gt;Node5</title>
<path fill="none" stroke="midnightblue" d="M747.254,-259.722C588.46,-256.277 211.797,-238.042 138,-143 124.382,-125.462 142.991,-106.164 162.821,-92.1993"/>
<polygon fill="midnightblue" stroke="midnightblue" points="164.913,-95.0117 171.304,-86.5616 161.038,-89.1817 164.913,-95.0117"/>
</g>
<!-- Node10 -->
<g id="node10" class="node"><title>Node10</title>
<g id="a_node10"><a xlink:href="../../d1/dec/HBFUtils_8h.html" target="_top" xlink:title="CommonUtils/HBFUtils.h">
<polygon fill="none" stroke="black" points="321,-123.5 321,-142.5 449,-142.5 449,-123.5 321,-123.5"/>
<text text-anchor="middle" x="385" y="-130.5" font-family="Helvetica,sans-Serif" font-size="10.00">CommonUtils/HBFUtils.h</text>
</a>
</g>
</g>
<!-- Node1&#45;&gt;Node10 -->
<g id="edge10" class="edge"><title>Node1&#45;&gt;Node10</title>
<path fill="none" stroke="midnightblue" d="M747.445,-258.954C673.43,-254.943 555.257,-241.662 463,-199 437.891,-187.389 414.254,-165.586 399.72,-150.451"/>
<polygon fill="midnightblue" stroke="midnightblue" points="402.007,-147.77 392.631,-142.835 396.883,-152.54 402.007,-147.77"/>
</g>
<!-- Node13 -->
<g id="node13" class="node"><title>Node13</title>
<g id="a_node13"><a xlink:href="../../d3/d53/ColumnData_8h.html" target="_top" xlink:title="Strip pattern (aka digits) ">
<polygon fill="none" stroke="black" points="505,-123.5 505,-142.5 663,-142.5 663,-123.5 505,-123.5"/>
<text text-anchor="middle" x="584" y="-130.5" font-family="Helvetica,sans-Serif" font-size="10.00">DataFormatsMID/ColumnData.h</text>
</a>
</g>
</g>
<!-- Node1&#45;&gt;Node13 -->
<g id="edge18" class="edge"><title>Node1&#45;&gt;Node13</title>
<path fill="none" stroke="midnightblue" d="M771.489,-235.356C722.587,-208.92 647.49,-168.323 608.855,-147.437"/>
<polygon fill="midnightblue" stroke="midnightblue" points="610.317,-144.248 599.856,-142.572 606.989,-150.406 610.317,-144.248"/>
</g>
<!-- Node16 -->
<g id="node16" class="node"><title>Node16</title>
<g id="a_node16"><a xlink:href="../../d2/df9/MUON_2MID_2include_2DataFormatsMID_2ROFRecord_8h.html" target="_top" xlink:title="Definition of the MID event record. ">
<polygon fill="none" stroke="black" points="147,-123.5 147,-142.5 303,-142.5 303,-123.5 147,-123.5"/>
<text text-anchor="middle" x="225" y="-130.5" font-family="Helvetica,sans-Serif" font-size="10.00">DataFormatsMID/ROFRecord.h</text>
</a>
</g>
</g>
<!-- Node1&#45;&gt;Node16 -->
<g id="edge22" class="edge"><title>Node1&#45;&gt;Node16</title>
<path fill="none" stroke="midnightblue" d="M747.455,-252.614C669.037,-243.093 538.944,-225.048 429,-199 367.314,-184.385 297.279,-160.395 257.396,-146.007"/>
<polygon fill="midnightblue" stroke="midnightblue" points="258.524,-142.693 247.93,-142.568 256.133,-149.272 258.524,-142.693"/>
</g>
<!-- Node17 -->
<g id="node17" class="node"><title>Node17</title>
<g id="a_node17"><a xlink:href="../../db/d83/CrateMapper_8h.html" target="_top" xlink:title="Mapper to convert the RO Ids to a format suitable for O2. ">
<polygon fill="none" stroke="black" points="1219.5,-179.5 1219.5,-198.5 1342.5,-198.5 1342.5,-179.5 1219.5,-179.5"/>
<text text-anchor="middle" x="1281" y="-186.5" font-family="Helvetica,sans-Serif" font-size="10.00">MIDRaw/CrateMapper.h</text>
</a>
</g>
</g>
<!-- Node1&#45;&gt;Node17 -->
<g id="edge24" class="edge"><title>Node1&#45;&gt;Node17</title>
<path fill="none" stroke="midnightblue" d="M888.572,-249.754C977.33,-236.239 1128.55,-213.213 1215.07,-200.039"/>
<polygon fill="midnightblue" stroke="midnightblue" points="1215.67,-203.488 1225.03,-198.522 1214.62,-196.567 1215.67,-203.488"/>
</g>
<!-- Node18 -->
<g id="node18" class="node"><title>Node18</title>
<g id="a_node18"><a xlink:href="../../d2/da5/CrateParameters_8h.html" target="_top" xlink:title="MID RO crate parameters. ">
<polygon fill="none" stroke="black" points="830.5,-123.5 830.5,-142.5 971.5,-142.5 971.5,-123.5 830.5,-123.5"/>
<text text-anchor="middle" x="901" y="-130.5" font-family="Helvetica,sans-Serif" font-size="10.00">MIDRaw/CrateParameters.h</text>
</a>
</g>
</g>
<!-- Node1&#45;&gt;Node18 -->
<g id="edge27" class="edge"><title>Node1&#45;&gt;Node18</title>
<path fill="none" stroke="midnightblue" d="M834.597,-235.205C850.998,-210.208 875.635,-172.659 889.833,-151.019"/>
<polygon fill="midnightblue" stroke="midnightblue" points="892.831,-152.831 895.39,-142.55 886.978,-148.991 892.831,-152.831"/>
</g>
<!-- Node19 -->
<g id="node19" class="node"><title>Node19</title>
<g id="a_node19"><a xlink:href="../../dd/dee/CRUUserLogicEncoder_8h.html" target="_top" xlink:title="Raw data encoder for MID CRU user logic. ">
<polygon fill="none" stroke="black" points="930,-179.5 930,-198.5 1100,-198.5 1100,-179.5 930,-179.5"/>
<text text-anchor="middle" x="1015" y="-186.5" font-family="Helvetica,sans-Serif" font-size="10.00">MIDRaw/CRUUserLogicEncoder.h</text>
</a>
</g>
</g>
<!-- Node1&#45;&gt;Node19 -->
<g id="edge30" class="edge"><title>Node1&#45;&gt;Node19</title>
<path fill="none" stroke="midnightblue" d="M888.01,-235.446C919.838,-224.056 956.008,-211.111 981.583,-201.959"/>
<polygon fill="midnightblue" stroke="midnightblue" points="982.937,-205.192 991.173,-198.527 980.578,-198.601 982.937,-205.192"/>
</g>
<!-- Node21 -->
<g id="node21" class="node"><title>Node21</title>
<g id="a_node21"><a xlink:href="../../d3/d4a/LocalBoardRO_8h.html" target="_top" xlink:title="Structure to store the FEE local board information. ">
<polygon fill="none" stroke="black" points="681.5,-123.5 681.5,-142.5 812.5,-142.5 812.5,-123.5 681.5,-123.5"/>
<text text-anchor="middle" x="747" y="-130.5" font-family="Helvetica,sans-Serif" font-size="10.00">MIDRaw/LocalBoardRO.h</text>
</a>
</g>
</g>
<!-- Node1&#45;&gt;Node21 -->
<g id="edge43" class="edge"><title>Node1&#45;&gt;Node21</title>
<path fill="none" stroke="midnightblue" d="M803.803,-235.205C789.836,-210.32 768.887,-172.996 756.716,-151.311"/>
<polygon fill="midnightblue" stroke="midnightblue" points="759.745,-149.557 751.799,-142.55 753.641,-152.983 759.745,-149.557"/>
</g>
<!-- Node22 -->
<g id="node22" class="node"><title>Node22</title>
<g id="a_node22"><a xlink:href="../../df/db7/RawUnit_8h.html" target="_top" xlink:title="Raw data format MID. ">
<polygon fill="none" stroke="black" points="1128.5,-123.5 1128.5,-142.5 1233.5,-142.5 1233.5,-123.5 1128.5,-123.5"/>
<text text-anchor="middle" x="1181" y="-130.5" font-family="Helvetica,sans-Serif" font-size="10.00">MIDRaw/RawUnit.h</text>
</a>
</g>
</g>
<!-- Node1&#45;&gt;Node22 -->
<g id="edge44" class="edge"><title>Node1&#45;&gt;Node22</title>
<path fill="none" stroke="midnightblue" d="M888.736,-255.911C949.887,-249.587 1039.18,-234.579 1109,-199 1132.33,-187.111 1153.88,-165.686 1167.21,-150.695"/>
<polygon fill="midnightblue" stroke="midnightblue" points="1170.19,-152.596 1174.05,-142.732 1164.88,-148.032 1170.19,-152.596"/>
</g>
<!-- Node5&#45;&gt;Node2 -->
<g id="edge8" class="edge"><title>Node5&#45;&gt;Node2</title>
<path fill="none" stroke="midnightblue" d="M275.6,-61.0819C291.292,-59.3069 307.663,-57.5296 323,-56 511.78,-37.1729 738.697,-19.7367 822.658,-13.4615"/>
<polygon fill="midnightblue" stroke="midnightblue" points="823.147,-16.9348 832.859,-12.7015 822.627,-9.95417 823.147,-16.9348"/>
</g>
<!-- Node6 -->
<g id="node6" class="node"><title>Node6</title>
<polygon fill="none" stroke="#bfbfbf" points="322,-0.5 322,-19.5 378,-19.5 378,-0.5 322,-0.5"/>
<text text-anchor="middle" x="350" y="-7.5" font-family="Helvetica,sans-Serif" font-size="10.00">Rtypes.h</text>
</g>
<!-- Node5&#45;&gt;Node6 -->
<g id="edge5" class="edge"><title>Node5&#45;&gt;Node6</title>
<path fill="none" stroke="midnightblue" d="M233.259,-56.3993C259.044,-46.3717 293.357,-33.028 318.101,-23.405"/>
<polygon fill="midnightblue" stroke="midnightblue" points="319.686,-26.5443 327.737,-19.6578 317.149,-20.0203 319.686,-26.5443"/>
</g>
<!-- Node7 -->
<g id="node7" class="node"><title>Node7</title>
<polygon fill="none" stroke="#bfbfbf" points="258.5,-0.5 258.5,-19.5 303.5,-19.5 303.5,-0.5 258.5,-0.5"/>
<text text-anchor="middle" x="281" y="-7.5" font-family="Helvetica,sans-Serif" font-size="10.00">iosfwd</text>
</g>
<!-- Node5&#45;&gt;Node7 -->
<g id="edge6" class="edge"><title>Node5&#45;&gt;Node7</title>
<path fill="none" stroke="midnightblue" d="M216.907,-56.3993C229.994,-47.1293 247.082,-35.0254 260.322,-25.6469"/>
<polygon fill="midnightblue" stroke="midnightblue" points="262.64,-28.2941 268.777,-19.6578 258.594,-22.5819 262.64,-28.2941"/>
</g>
<!-- Node8 -->
<g id="node8" class="node"><title>Node8</title>
<polygon fill="none" stroke="#bfbfbf" points="0,-0.5 0,-19.5 44,-19.5 44,-0.5 0,-0.5"/>
<text text-anchor="middle" x="22" y="-7.5" font-family="Helvetica,sans-Serif" font-size="10.00">cmath</text>
</g>
<!-- Node5&#45;&gt;Node8 -->
<g id="edge7" class="edge"><title>Node5&#45;&gt;Node8</title>
<path fill="none" stroke="midnightblue" d="M155.527,-56.3993C124.425,-45.8245 82.4762,-31.5619 53.9533,-21.8641"/>
<polygon fill="midnightblue" stroke="midnightblue" points="55.0586,-18.5432 44.4641,-18.6378 52.8052,-25.1706 55.0586,-18.5432"/>
</g>
<!-- Node9 -->
<g id="node9" class="node"><title>Node9</title>
<g id="a_node9"><a xlink:href="../../d4/dc6/LHCConstants_8h.html" target="_top" xlink:title="Header to collect LHC related constants. ">
<polygon fill="none" stroke="black" points="62,-0.5 62,-19.5 240,-19.5 240,-0.5 62,-0.5"/>
<text text-anchor="middle" x="151" y="-7.5" font-family="Helvetica,sans-Serif" font-size="10.00">CommonConstants/LHCConstants.h</text>
</a>
</g>
</g>
<!-- Node5&#45;&gt;Node9 -->
<g id="edge9" class="edge"><title>Node5&#45;&gt;Node9</title>
<path fill="none" stroke="midnightblue" d="M186.099,-56.3993C179.414,-47.7533 170.824,-36.642 163.815,-27.576"/>
<polygon fill="midnightblue" stroke="midnightblue" points="166.579,-25.4284 157.693,-19.6578 161.041,-29.7099 166.579,-25.4284"/>
</g>
<!-- Node10&#45;&gt;Node5 -->
<g id="edge12" class="edge"><title>Node10&#45;&gt;Node5</title>
<path fill="none" stroke="midnightblue" d="M358.064,-123.475C330.223,-114.664 286.003,-100.668 250.935,-89.5698"/>
<polygon fill="midnightblue" stroke="midnightblue" points="251.898,-86.2036 241.308,-86.523 249.786,-92.8773 251.898,-86.2036"/>
</g>
<!-- Node10&#45;&gt;Node6 -->
<g id="edge11" class="edge"><title>Node10&#45;&gt;Node6</title>
<path fill="none" stroke="midnightblue" d="M364.777,-123.495C350.229,-116.168 331.699,-104.063 323,-87 313.111,-67.6039 325.195,-43.7332 336.208,-27.9783"/>
<polygon fill="midnightblue" stroke="midnightblue" points="339.191,-29.8341 342.394,-19.7351 333.592,-25.6322 339.191,-29.8341"/>
</g>
<!-- Node11 -->
<g id="node11" class="node"><title>Node11</title>
<g id="a_node11"><a xlink:href="../../d4/d78/DataFormats_2Headers_2include_2Headers_2RAWDataHeader_8h.html" target="_top" xlink:title="Headers/RAWDataHeader.h">
<polygon fill="none" stroke="black" points="930.5,-62 930.5,-81 1071.5,-81 1071.5,-62 930.5,-62"/>
<text text-anchor="middle" x="1001" y="-69" font-family="Helvetica,sans-Serif" font-size="10.00">Headers/RAWDataHeader.h</text>
</a>
</g>
</g>
<!-- Node10&#45;&gt;Node11 -->
<g id="edge13" class="edge"><title>Node10&#45;&gt;Node11</title>
<path fill="none" stroke="midnightblue" d="M449.18,-125.801C562.176,-114.886 796.365,-92.2659 920.192,-80.3053"/>
<polygon fill="midnightblue" stroke="midnightblue" points="920.752,-83.7677 930.369,-79.3223 920.078,-76.8001 920.752,-83.7677"/>
</g>
<!-- Node12 -->
<g id="node12" class="node"><title>Node12</title>
<g id="a_node12"><a xlink:href="../../de/da4/Triggers_8h.html" target="_top" xlink:title="Definition of the Alpide triggers defined in https://twiki.cern.ch/twiki/pub/ALICE/NoteForFEDeveloper...">
<polygon fill="none" stroke="black" points="332,-62 332,-81 480,-81 480,-62 332,-62"/>
<text text-anchor="middle" x="406" y="-69" font-family="Helvetica,sans-Serif" font-size="10.00">CommonConstants/Triggers.h</text>
</a>
</g>
</g>
<!-- Node10&#45;&gt;Node12 -->
<g id="edge15" class="edge"><title>Node10&#45;&gt;Node12</title>
<path fill="none" stroke="midnightblue" d="M388.009,-123.475C391.034,-114.904 395.79,-101.427 399.653,-90.483"/>
<polygon fill="midnightblue" stroke="midnightblue" points="402.969,-91.6039 402.997,-81.0091 396.368,-89.2741 402.969,-91.6039"/>
</g>
<!-- Node11&#45;&gt;Node2 -->
<g id="edge14" class="edge"><title>Node11&#45;&gt;Node2</title>
<path fill="none" stroke="midnightblue" d="M980.225,-61.9751C955.568,-51.8571 914.255,-34.9046 886.098,-23.3507"/>
<polygon fill="midnightblue" stroke="midnightblue" points="887.317,-20.0674 876.736,-19.5091 884.659,-26.5434 887.317,-20.0674"/>
</g>
<!-- Node12&#45;&gt;Node2 -->
<g id="edge16" class="edge"><title>Node12&#45;&gt;Node2</title>
<path fill="none" stroke="midnightblue" d="M455.743,-61.9506C468.219,-59.9036 481.587,-57.7935 494,-56 614.578,-38.5785 758.352,-21.9293 822.374,-14.7292"/>
<polygon fill="midnightblue" stroke="midnightblue" points="823.116,-18.168 832.664,-13.5762 822.337,-11.2116 823.116,-18.168"/>
</g>
<!-- Node12&#45;&gt;Node6 -->
<g id="edge17" class="edge"><title>Node12&#45;&gt;Node6</title>
<path fill="none" stroke="midnightblue" d="M397.977,-61.9751C389.41,-52.8733 375.639,-38.241 365.043,-26.983"/>
<polygon fill="midnightblue" stroke="midnightblue" points="367.411,-24.3923 358.009,-19.5091 362.314,-29.1899 367.411,-24.3923"/>
</g>
<!-- Node13&#45;&gt;Node2 -->
<g id="edge19" class="edge"><title>Node13&#45;&gt;Node2</title>
<path fill="none" stroke="midnightblue" d="M597.342,-123.32C621.068,-108.154 672.482,-76.4982 719,-56 753.482,-40.8054 794.776,-27.9222 822.951,-19.8851"/>
<polygon fill="midnightblue" stroke="midnightblue" points="824.019,-23.2206 832.701,-17.148 822.127,-16.4811 824.019,-23.2206"/>
</g>
<!-- Node14 -->
<g id="node14" class="node"><title>Node14</title>
<polygon fill="none" stroke="#bfbfbf" points="557,-62 557,-81 611,-81 611,-62 557,-62"/>
<text text-anchor="middle" x="584" y="-69" font-family="Helvetica,sans-Serif" font-size="10.00">iostream</text>
</g>
<!-- Node13&#45;&gt;Node14 -->
<g id="edge20" class="edge"><title>Node13&#45;&gt;Node14</title>
<path fill="none" stroke="midnightblue" d="M584,-123.475C584,-115.08 584,-101.981 584,-91.1631"/>
<polygon fill="midnightblue" stroke="midnightblue" points="587.5,-91.0091 584,-81.0091 580.5,-91.0091 587.5,-91.0091"/>
</g>
<!-- Node15 -->
<g id="node15" class="node"><title>Node15</title>
<polygon fill="none" stroke="#bfbfbf" points="728,-62 728,-81 766,-81 766,-62 728,-62"/>
<text text-anchor="middle" x="747" y="-69" font-family="Helvetica,sans-Serif" font-size="10.00">array</text>
</g>
<!-- Node13&#45;&gt;Node15 -->
<g id="edge21" class="edge"><title>Node13&#45;&gt;Node15</title>
<path fill="none" stroke="midnightblue" d="M607.354,-123.475C636.585,-112.805 686.639,-94.5335 718.211,-83.0089"/>
<polygon fill="midnightblue" stroke="midnightblue" points="719.569,-86.2392 727.762,-79.5224 717.168,-79.6636 719.569,-86.2392"/>
</g>
<!-- Node16&#45;&gt;Node5 -->
<g id="edge23" class="edge"><title>Node16&#45;&gt;Node5</title>
<path fill="none" stroke="midnightblue" d="M220.988,-123.475C217.586,-116.245 212.541,-105.525 207.955,-95.7792"/>
<polygon fill="midnightblue" stroke="midnightblue" points="211.024,-94.0809 203.599,-86.523 204.69,-97.0615 211.024,-94.0809"/>
</g>
<!-- Node17&#45;&gt;Node2 -->
<g id="edge25" class="edge"><title>Node17&#45;&gt;Node2</title>
<path fill="none" stroke="midnightblue" d="M1288.79,-179.266C1299.19,-166.477 1315.2,-142.103 1305,-123 1279.81,-75.8032 1255.08,-74.8094 1205,-56 1094.98,-14.68 953.237,-10.0493 889.573,-10.3001"/>
<polygon fill="midnightblue" stroke="midnightblue" points="889.299,-6.80218 879.329,-10.3865 889.358,-13.8019 889.299,-6.80218"/>
</g>
<!-- Node17&#45;&gt;Node4 -->
<g id="edge26" class="edge"><title>Node17&#45;&gt;Node4</title>
<path fill="none" stroke="midnightblue" d="M1295.46,-179.324C1309.5,-170.9 1331.05,-157.971 1347.54,-148.074"/>
<polygon fill="midnightblue" stroke="midnightblue" points="1349.8,-150.801 1356.58,-142.655 1346.2,-144.798 1349.8,-150.801"/>
</g>
<!-- Node18&#45;&gt;Node2 -->
<g id="edge28" class="edge"><title>Node18&#45;&gt;Node2</title>
<path fill="none" stroke="midnightblue" d="M897.764,-123.298C890.466,-103.676 872.601,-55.6382 862.766,-29.1933"/>
<polygon fill="midnightblue" stroke="midnightblue" points="865.973,-27.7759 859.207,-19.6232 859.412,-30.216 865.973,-27.7759"/>
</g>
<!-- Node18&#45;&gt;Node15 -->
<g id="edge29" class="edge"><title>Node18&#45;&gt;Node15</title>
<path fill="none" stroke="midnightblue" d="M878.936,-123.475C851.737,-112.966 805.456,-95.0855 775.567,-83.5373"/>
<polygon fill="midnightblue" stroke="midnightblue" points="776.7,-80.2228 766.11,-79.8836 774.177,-86.7524 776.7,-80.2228"/>
</g>
<!-- Node19&#45;&gt;Node2 -->
<g id="edge31" class="edge"><title>Node19&#45;&gt;Node2</title>
<path fill="none" stroke="midnightblue" d="M1025.66,-179.194C1051.54,-156.786 1113.18,-96.5112 1080,-56 1056.27,-27.0277 945.673,-16.3128 889.27,-12.6845"/>
<polygon fill="midnightblue" stroke="midnightblue" points="889.271,-9.17828 879.078,-12.0683 888.848,-16.1655 889.271,-9.17828"/>
</g>
<!-- Node19&#45;&gt;Node3 -->
<g id="edge33" class="edge"><title>Node19&#45;&gt;Node3</title>
<path fill="none" stroke="midnightblue" d="M1063.95,-179.444C1107.92,-171.499 1174.45,-158.846 1241.45,-142.977"/>
<polygon fill="midnightblue" stroke="midnightblue" points="1242.42,-146.343 1251.33,-140.613 1240.79,-139.535 1242.42,-146.343"/>
</g>
<!-- Node19&#45;&gt;Node11 -->
<g id="edge34" class="edge"><title>Node19&#45;&gt;Node11</title>
<path fill="none" stroke="midnightblue" d="M1023.28,-179.303C1033.99,-166.959 1050.44,-143.569 1043,-123 1038.2,-109.729 1028.23,-97.4878 1019.2,-88.3819"/>
<polygon fill="midnightblue" stroke="midnightblue" points="1021.34,-85.5807 1011.67,-81.2398 1016.52,-90.6602 1021.34,-85.5807"/>
</g>
<!-- Node19&#45;&gt;Node16 -->
<g id="edge35" class="edge"><title>Node19&#45;&gt;Node16</title>
<path fill="none" stroke="midnightblue" d="M929.973,-183.634C799.647,-176.703 542.398,-162.078 313.433,-143.09"/>
<polygon fill="midnightblue" stroke="midnightblue" points="313.497,-139.583 303.241,-142.24 312.916,-146.559 313.497,-139.583"/>
</g>
<!-- Node20 -->
<g id="node20" class="node"><title>Node20</title>
<polygon fill="none" stroke="#bfbfbf" points="990,-123.5 990,-142.5 1034,-142.5 1034,-123.5 990,-123.5"/>
<text text-anchor="middle" x="1012" y="-130.5" font-family="Helvetica,sans-Serif" font-size="10.00">vector</text>
</g>
<!-- Node19&#45;&gt;Node20 -->
<g id="edge32" class="edge"><title>Node19&#45;&gt;Node20</title>
<path fill="none" stroke="midnightblue" d="M1014.5,-179.083C1014.11,-172.006 1013.55,-161.861 1013.05,-152.986"/>
<polygon fill="midnightblue" stroke="midnightblue" points="1016.54,-152.542 1012.49,-142.751 1009.55,-152.93 1016.54,-152.542"/>
</g>
<!-- Node19&#45;&gt;Node21 -->
<g id="edge36" class="edge"><title>Node19&#45;&gt;Node21</title>
<path fill="none" stroke="midnightblue" d="M972.535,-179.444C925.587,-169.984 849.924,-154.738 799.346,-144.547"/>
<polygon fill="midnightblue" stroke="midnightblue" points="799.761,-141.061 789.267,-142.516 798.378,-147.923 799.761,-141.061"/>
</g>
<!-- Node19&#45;&gt;Node22 -->
<g id="edge39" class="edge"><title>Node19&#45;&gt;Node22</title>
<path fill="none" stroke="midnightblue" d="M1041.3,-179.444C1069.35,-170.32 1113.94,-155.813 1145.18,-145.651"/>
<polygon fill="midnightblue" stroke="midnightblue" points="1146.39,-148.938 1154.82,-142.516 1144.23,-142.282 1146.39,-148.938"/>
</g>
<!-- Node21&#45;&gt;Node2 -->
<g id="edge37" class="edge"><title>Node21&#45;&gt;Node2</title>
<path fill="none" stroke="midnightblue" d="M754.839,-123.298C772.986,-103.153 818.115,-53.056 841.474,-27.1247"/>
<polygon fill="midnightblue" stroke="midnightblue" points="844.139,-29.3957 848.232,-19.6232 838.938,-24.7105 844.139,-29.3957"/>
</g>
<!-- Node21&#45;&gt;Node15 -->
<g id="edge38" class="edge"><title>Node21&#45;&gt;Node15</title>
<path fill="none" stroke="midnightblue" d="M747,-123.475C747,-115.08 747,-101.981 747,-91.1631"/>
<polygon fill="midnightblue" stroke="midnightblue" points="750.5,-91.0091 747,-81.0091 743.5,-91.0091 750.5,-91.0091"/>
</g>
<!-- Node22&#45;&gt;Node2 -->
<g id="edge40" class="edge"><title>Node22&#45;&gt;Node2</title>
<path fill="none" stroke="midnightblue" d="M1185.12,-123.224C1191.76,-107.623 1202.52,-74.9272 1186,-56 1147.77,-12.1975 965.947,-9.44467 889.735,-10.278"/>
<polygon fill="midnightblue" stroke="midnightblue" points="889.237,-6.78442 879.287,-10.4225 889.334,-13.7838 889.237,-6.78442"/>
</g>
<!-- Node22&#45;&gt;Node11 -->
<g id="edge42" class="edge"><title>Node22&#45;&gt;Node11</title>
<path fill="none" stroke="midnightblue" d="M1155.21,-123.475C1124.07,-113.18 1071.52,-95.8103 1036.55,-84.2502"/>
<polygon fill="midnightblue" stroke="midnightblue" points="1037.34,-80.8245 1026.74,-81.0091 1035.14,-87.4708 1037.34,-80.8245"/>
</g>
<!-- Node23 -->
<g id="node23" class="node"><title>Node23</title>
<polygon fill="none" stroke="#bfbfbf" points="1128.5,-62 1128.5,-81 1177.5,-81 1177.5,-62 1128.5,-62"/>
<text text-anchor="middle" x="1153" y="-69" font-family="Helvetica,sans-Serif" font-size="10.00">cstddef</text>
</g>
<!-- Node22&#45;&gt;Node23 -->
<g id="edge41" class="edge"><title>Node22&#45;&gt;Node23</title>
<path fill="none" stroke="midnightblue" d="M1176.99,-123.475C1172.91,-114.815 1166.48,-101.149 1161.3,-90.1453"/>
<polygon fill="midnightblue" stroke="midnightblue" points="1164.43,-88.567 1157,-81.0091 1158.1,-91.5476 1164.43,-88.567"/>
</g>
</g>
</svg>
