<?xml version="1.0" encoding="UTF-8" standalone="no"?>
<!DOCTYPE svg PUBLIC "-//W3C//DTD SVG 1.1//EN"
 "http://www.w3.org/Graphics/SVG/1.1/DTD/svg11.dtd">
<!-- Generated by graphviz version 2.38.0 (20140413.2041)
 -->
<!-- Title: o2::zdc::Module Pages: 1 -->
<!--zoomable 226 -->
<svg id="main" version="1.1" xmlns="http://www.w3.org/2000/svg" xmlns:xlink="http://www.w3.org/1999/xlink" xml:space="preserve" onload="init(evt)">
<style type="text/css"><![CDATA[
.edge:hover path { stroke: red; }
.edge:hover polygon { stroke: red; fill: red; }
]]></style>
<script type="text/javascript"><![CDATA[
var edges = document.getElementsByTagName('g');
if (edges && edges.length) {
  for (var i=0;i<edges.length;i++) {
    if (edges[i].id.substr(0,4)=='edge') {
      edges[i].setAttribute('class','edge');
    }
  }
}
]]></script>
        <defs>
                <circle id="rim" cx="0" cy="0" r="7"/>
                <circle id="rim2" cx="0" cy="0" r="3.5"/>
                <g id="zoomPlus">
                        <use xlink:href="#rim" fill="#404040">
                                <set attributeName="fill" to="#808080" begin="zoomplus.mouseover" end="zoomplus.mouseout"/>
                        </use>
                        <path d="M-4,0h8M0,-4v8" fill="none" stroke="white" stroke-width="1.5" pointer-events="none"/>
                </g>
                <g id="zoomMin">
                        <use xlink:href="#rim" fill="#404040">
                                <set attributeName="fill" to="#808080" begin="zoomminus.mouseover" end="zoomminus.mouseout"/>
                        </use>
                        <path d="M-4,0h8" fill="none" stroke="white" stroke-width="1.5" pointer-events="none"/>
                </g>
                <g id="dirArrow">
                        <path fill="none" stroke="white" stroke-width="1.5" d="M0,-3.0v7 M-2.5,-0.5L0,-3.0L2.5,-0.5"/>
                </g>
               <g id="resetDef">
                       <use xlink:href="#rim2" fill="#404040">
                               <set attributeName="fill" to="#808080" begin="reset.mouseover" end="reset.mouseout"/>
                       </use>
               </g>
        </defs>

<script type="text/javascript">
var viewWidth = 761;
var viewHeight = 226;
var sectionId = 'dynsection-0';
</script>
<script xlink:href="../../svgpan.js"/>
<svg id="graph" class="graph">
<g id="viewport">
<title>o2::zdc::Module</title>
<!-- Node1 -->
<g id="node1" class="node"><title>Node1</title>
<polygon fill="#bfbfbf" stroke="black" points="364.5,-0.5 364.5,-90.5 451.5,-90.5 451.5,-0.5 364.5,-0.5"/>
<text text-anchor="middle" x="408" y="-78.5" font-family="Helvetica,sans-Serif" font-size="10.00">o2::zdc::Module</text>
<polyline fill="none" stroke="black" points="364.5,-71.5 451.5,-71.5 "/>
<text text-anchor="middle" x="408" y="-59.5" font-family="Helvetica,sans-Serif" font-size="10.00"> </text>
<polyline fill="none" stroke="black" points="364.5,-52.5 451.5,-52.5 "/>
<text text-anchor="start" x="372.5" y="-40.5" font-family="Helvetica,sans-Serif" font-size="10.00">+ setChannel()</text>
<text text-anchor="start" x="372.5" y="-29.5" font-family="Helvetica,sans-Serif" font-size="10.00">+ print()</text>
<text text-anchor="start" x="372.5" y="-18.5" font-family="Helvetica,sans-Serif" font-size="10.00">+ check()</text>
<text text-anchor="start" x="372.5" y="-7.5" font-family="Helvetica,sans-Serif" font-size="10.00">+ ClassDefNV()</text>
</g>
<!-- Node2 -->
<g id="node2" class="node"><title>Node2</title>
<polygon fill="none" stroke="#bfbfbf" points="0,-149.5 0,-217.5 152,-217.5 152,-149.5 0,-149.5"/>
<text text-anchor="start" x="8" y="-205.5" font-family="Helvetica,sans-Serif" font-size="10.00">array&lt; o2::zdc::TriggerChannel</text>
<text text-anchor="middle" x="76" y="-194.5" font-family="Helvetica,sans-Serif" font-size="10.00">Config, MaxChannels &gt;</text>
<polyline fill="none" stroke="#bfbfbf" points="0,-187.5 152,-187.5 "/>
<text text-anchor="middle" x="76" y="-175.5" font-family="Helvetica,sans-Serif" font-size="10.00"> </text>
<polyline fill="none" stroke="#bfbfbf" points="0,-168.5 152,-168.5 "/>
<text text-anchor="middle" x="76" y="-156.5" font-family="Helvetica,sans-Serif" font-size="10.00"> </text>
</g>
<!-- Node2&#45;&gt;Node1 -->
<g id="edge1" class="edge"><title>Node2&#45;&gt;Node1</title>
<path fill="none" stroke="#404040" d="M138.157,-149.323C164.297,-135.979 195.26,-120.955 224,-109 266.443,-91.3454 315.829,-74.7787 352.745,-63.1431"/>
<polygon fill="none" stroke="#404040" points="352.814,-63.1217 357.348,-57.5146 364.268,-59.5435 359.734,-65.1506 352.814,-63.1217"/>
<text text-anchor="middle" x="264" y="-117.5" font-family="Helvetica,sans-Serif" font-size="10.00"> +trigChannelConf</text>
</g>
<!-- Node3 -->
<g id="node3" class="node"><title>Node3</title>
<polygon fill="none" stroke="#bfbfbf" points="170,-155 170,-212 322,-212 322,-155 170,-155"/>
<text text-anchor="middle" x="246" y="-200" font-family="Helvetica,sans-Serif" font-size="10.00">array&lt; int16_t, MaxChannels &gt;</text>
<polyline fill="none" stroke="#bfbfbf" points="170,-193 322,-193 "/>
<text text-anchor="middle" x="246" y="-181" font-family="Helvetica,sans-Serif" font-size="10.00"> </text>
<polyline fill="none" stroke="#bfbfbf" points="170,-174 322,-174 "/>
<text text-anchor="middle" x="246" y="-162" font-family="Helvetica,sans-Serif" font-size="10.00"> </text>
</g>
<!-- Node3&#45;&gt;Node1 -->
<g id="edge2" class="edge"><title>Node3&#45;&gt;Node1</title>
<path fill="none" stroke="#404040" d="M278.783,-154.978C300.59,-136.671 329.728,-112.21 354.815,-91.1494"/>
<polygon fill="none" stroke="#404040" points="355.016,-90.98 357.04,-84.0586 364.207,-83.2643 362.184,-90.1858 355.016,-90.98"/>
<text text-anchor="middle" x="349.5" y="-117.5" font-family="Helvetica,sans-Serif" font-size="10.00"> +linkID</text>
</g>
<!-- Node4 -->
<g id="node4" class="node"><title>Node4</title>
<polygon fill="none" stroke="#bfbfbf" points="340.5,-155 340.5,-212 369.5,-212 369.5,-155 340.5,-155"/>
<text text-anchor="middle" x="355" y="-200" font-family="Helvetica,sans-Serif" font-size="10.00">int</text>
<polyline fill="none" stroke="#bfbfbf" points="340.5,-193 369.5,-193 "/>
<text text-anchor="middle" x="355" y="-181" font-family="Helvetica,sans-Serif" font-size="10.00"> </text>
<polyline fill="none" stroke="#bfbfbf" points="340.5,-174 369.5,-174 "/>
<text text-anchor="middle" x="355" y="-162" font-family="Helvetica,sans-Serif" font-size="10.00"> </text>
</g>
<!-- Node4&#45;&gt;Node1 -->
<g id="edge3" class="edge"><title>Node4&#45;&gt;Node1</title>
<path fill="none" stroke="#404040" d="M365.725,-154.978C371.687,-139.681 379.323,-120.086 386.461,-101.769"/>
<polygon fill="none" stroke="#404040" points="386.465,-101.76 384.916,-94.717 390.822,-90.579 392.37,-97.6219 386.465,-101.76"/>
<text text-anchor="middle" x="392.5" y="-117.5" font-family="Helvetica,sans-Serif" font-size="10.00"> +id</text>
</g>
<!-- Node5 -->
<g id="node5" class="node"><title>Node5</title>
<polygon fill="none" stroke="#bfbfbf" points="388,-155 388,-212 534,-212 534,-155 388,-155"/>
<text text-anchor="middle" x="461" y="-200" font-family="Helvetica,sans-Serif" font-size="10.00">array&lt; int8_t, MaxChannels &gt;</text>
<polyline fill="none" stroke="#bfbfbf" points="388,-193 534,-193 "/>
<text text-anchor="middle" x="461" y="-181" font-family="Helvetica,sans-Serif" font-size="10.00"> </text>
<polyline fill="none" stroke="#bfbfbf" points="388,-174 534,-174 "/>
<text text-anchor="middle" x="461" y="-162" font-family="Helvetica,sans-Serif" font-size="10.00"> </text>
</g>
<!-- Node5&#45;&gt;Node1 -->
<g id="edge4" class="edge"><title>Node5&#45;&gt;Node1</title>
<path fill="none" stroke="#404040" d="M450.275,-154.978C444.313,-139.681 436.677,-120.086 429.539,-101.769"/>
<polygon fill="none" stroke="#404040" points="429.535,-101.76 423.63,-97.6219 425.178,-90.579 431.084,-94.717 429.535,-101.76"/>
<text text-anchor="middle" x="468" y="-117.5" font-family="Helvetica,sans-Serif" font-size="10.00"> +channelID</text>
</g>
<!-- Node6 -->
<g id="node6" class="node"><title>Node6</title>
<polygon fill="none" stroke="#bfbfbf" points="552.5,-155 552.5,-212 593.5,-212 593.5,-155 552.5,-155"/>
<text text-anchor="middle" x="573" y="-200" font-family="Helvetica,sans-Serif" font-size="10.00">static</text>
<polyline fill="none" stroke="#bfbfbf" points="552.5,-193 593.5,-193 "/>
<text text-anchor="middle" x="573" y="-181" font-family="Helvetica,sans-Serif" font-size="10.00"> </text>
<polyline fill="none" stroke="#bfbfbf" points="552.5,-174 593.5,-174 "/>
<text text-anchor="middle" x="573" y="-162" font-family="Helvetica,sans-Serif" font-size="10.00"> </text>
</g>
<!-- Node6&#45;&gt;Node1 -->
<g id="edge5" class="edge"><title>Node6&#45;&gt;Node1</title>
<path fill="none" stroke="#404040" d="M552.318,-158.79C549.248,-155.452 546.08,-152.103 543,-149 524.382,-130.242 519.718,-125.408 499,-109 487.379,-99.7968 474.474,-90.4497 462.121,-81.8857"/>
<polygon fill="none" stroke="#404040" points="461.816,-81.6767 454.605,-81.5869 451.915,-74.8965 459.125,-74.9863 461.816,-81.6767"/>
<text text-anchor="middle" x="569" y="-123" font-family="Helvetica,sans-Serif" font-size="10.00"> +MaxChannels</text>
<text text-anchor="middle" x="569" y="-112" font-family="Helvetica,sans-Serif" font-size="10.00">+MaxTriggChannels</text>
</g>
<!-- Node7 -->
<g id="node7" class="node"><title>Node7</title>
<polygon fill="none" stroke="#bfbfbf" points="613,-155 613,-212 753,-212 753,-155 613,-155"/>
<text text-anchor="middle" x="683" y="-200" font-family="Helvetica,sans-Serif" font-size="10.00">array&lt; bool, MaxChannels &gt;</text>
<polyline fill="none" stroke="#bfbfbf" points="613,-193 753,-193 "/>
<text text-anchor="middle" x="683" y="-181" font-family="Helvetica,sans-Serif" font-size="10.00"> </text>
<polyline fill="none" stroke="#bfbfbf" points="613,-174 753,-174 "/>
<text text-anchor="middle" x="683" y="-162" font-family="Helvetica,sans-Serif" font-size="10.00"> </text>
</g>
<!-- Node7&#45;&gt;Node1 -->
<g id="edge6" class="edge"><title>Node7&#45;&gt;Node1</title>
<path fill="none" stroke="#404040" d="M664.184,-154.924C652.3,-139.413 635.687,-120.842 617,-109 569.923,-79.1662 507.904,-62.9789 463.68,-54.6075"/>
<polygon fill="none" stroke="#404040" points="463.515,-54.5778 456.901,-57.4498 451.706,-52.4487 458.32,-49.5767 463.515,-54.5778"/>
<text text-anchor="middle" x="673.5" y="-123" font-family="Helvetica,sans-Serif" font-size="10.00"> +trigChannel</text>
<text text-anchor="middle" x="673.5" y="-112" font-family="Helvetica,sans-Serif" font-size="10.00">+readChannel</text>
</g>
</g>
</svg>
        <g id="navigator" transform="translate(0 0)" fill="#404254">
                <rect fill="#f2f5e9" fill-opacity="0.5" stroke="#606060" stroke-width=".5" x="0" y="0" width="60" height="60"/>
                <use id="zoomplus" xlink:href="#zoomPlus" x="17" y="9" onmousedown="handleZoom(evt,'in')"/>
                <use id="zoomminus" xlink:href="#zoomMin" x="42" y="9" onmousedown="handleZoom(evt,'out')"/>
                <use id="reset" xlink:href="#resetDef" x="30" y="36" onmousedown="handleReset()"/>
                <g id="arrowUp" xlink:href="#dirArrow" transform="translate(30 24)" onmousedown="handlePan(0,-1)">
                  <use xlink:href="#rim" fill="#404040">
                        <set attributeName="fill" to="#808080" begin="arrowUp.mouseover" end="arrowUp.mouseout"/>
                  </use>
                  <path fill="none" stroke="white" stroke-width="1.5" d="M0,-3.0v7 M-2.5,-0.5L0,-3.0L2.5,-0.5"/>
                </g>
                <g id="arrowRight" xlink:href="#dirArrow" transform="rotate(90) translate(36 -43)" onmousedown="handlePan(1,0)">
                  <use xlink:href="#rim" fill="#404040">
                        <set attributeName="fill" to="#808080" begin="arrowRight.mouseover" end="arrowRight.mouseout"/>
                  </use>
                  <path fill="none" stroke="white" stroke-width="1.5" d="M0,-3.0v7 M-2.5,-0.5L0,-3.0L2.5,-0.5"/>
                </g>
                <g id="arrowDown" xlink:href="#dirArrow" transform="rotate(180) translate(-30 -48)" onmousedown="handlePan(0,1)">
                  <use xlink:href="#rim" fill="#404040">
                        <set attributeName="fill" to="#808080" begin="arrowDown.mouseover" end="arrowDown.mouseout"/>
                  </use>
                  <path fill="none" stroke="white" stroke-width="1.5" d="M0,-3.0v7 M-2.5,-0.5L0,-3.0L2.5,-0.5"/>
                </g>
                <g id="arrowLeft" xlink:href="#dirArrow" transform="rotate(270) translate(-36 17)" onmousedown="handlePan(-1,0)">
                  <use xlink:href="#rim" fill="#404040">
                        <set attributeName="fill" to="#808080" begin="arrowLeft.mouseover" end="arrowLeft.mouseout"/>
                  </use>
                  <path fill="none" stroke="white" stroke-width="1.5" d="M0,-3.0v7 M-2.5,-0.5L0,-3.0L2.5,-0.5"/>
                </g>
        </g>
        <svg viewBox="0 0 15 15" width="100%" height="30px" preserveAspectRatio="xMaxYMin meet">
         <g id="arrow_out" transform="scale(0.3 0.3)">
          <a xlink:href="structo2_1_1zdc_1_1Module__coll__graph_org.svg" target="_base">
           <rect id="button" ry="5" rx="5" y="6" x="6" height="38" width="38"
                fill="#f2f5e9" fill-opacity="0.5" stroke="#606060" stroke-width="1.0"/>
           <path id="arrow"
             d="M 11.500037,31.436501 C 11.940474,20.09759 22.043105,11.32322 32.158766,21.979434 L 37.068811,17.246167 C 37.068811,17.246167 37.088388,32 37.088388,32 L 22.160133,31.978069 C 22.160133,31.978069 26.997745,27.140456 26.997745,27.140456 C 18.528582,18.264221 13.291696,25.230495 11.500037,31.436501 z"
             style="fill:#404040;"/>
          </a>
         </g>
        </svg>
</svg>
