<?xml version="1.0" encoding="UTF-8" standalone="no"?>
<!DOCTYPE svg PUBLIC "-//W3C//DTD SVG 1.1//EN"
 "http://www.w3.org/Graphics/SVG/1.1/DTD/svg11.dtd">
<!-- Generated by graphviz version 2.38.0 (20140413.2041)
 -->
<!-- Title: /home/travis/build/AliceO2Group/AliceO2/Detectors/MUON/MID/Clustering/src/Clusterizer.cxx Pages: 1 -->
<!--zoomable 363 -->
<svg id="main" version="1.1" xmlns="http://www.w3.org/2000/svg" xmlns:xlink="http://www.w3.org/1999/xlink" xml:space="preserve" onload="init(evt)">
<style type="text/css"><![CDATA[
.edge:hover path { stroke: red; }
.edge:hover polygon { stroke: red; fill: red; }
]]></style>
<script type="text/javascript"><![CDATA[
var edges = document.getElementsByTagName('g');
if (edges && edges.length) {
  for (var i=0;i<edges.length;i++) {
    if (edges[i].id.substr(0,4)=='edge') {
      edges[i].setAttribute('class','edge');
    }
  }
}
]]></script>
        <defs>
                <circle id="rim" cx="0" cy="0" r="7"/>
                <circle id="rim2" cx="0" cy="0" r="3.5"/>
                <g id="zoomPlus">
                        <use xlink:href="#rim" fill="#404040">
                                <set attributeName="fill" to="#808080" begin="zoomplus.mouseover" end="zoomplus.mouseout"/>
                        </use>
                        <path d="M-4,0h8M0,-4v8" fill="none" stroke="white" stroke-width="1.5" pointer-events="none"/>
                </g>
                <g id="zoomMin">
                        <use xlink:href="#rim" fill="#404040">
                                <set attributeName="fill" to="#808080" begin="zoomminus.mouseover" end="zoomminus.mouseout"/>
                        </use>
                        <path d="M-4,0h8" fill="none" stroke="white" stroke-width="1.5" pointer-events="none"/>
                </g>
                <g id="dirArrow">
                        <path fill="none" stroke="white" stroke-width="1.5" d="M0,-3.0v7 M-2.5,-0.5L0,-3.0L2.5,-0.5"/>
                </g>
               <g id="resetDef">
                       <use xlink:href="#rim2" fill="#404040">
                               <set attributeName="fill" to="#808080" begin="reset.mouseover" end="reset.mouseout"/>
                       </use>
               </g>
        </defs>

<script type="text/javascript">
var viewWidth = 1060;
var viewHeight = 363;
var sectionId = 'dynsection-0';
</script>
<script xlink:href="../../svgpan.js"/>
<svg id="graph" class="graph">
<g id="viewport">
<title>/home/travis/build/AliceO2Group/AliceO2/Detectors/MUON/MID/Clustering/src/Clusterizer.cxx</title>
<!-- Node1 -->
<g id="node1" class="node"><title>Node1</title>
<polygon fill="#bfbfbf" stroke="black" points="635.91,-302.5 635.91,-354.5 800.91,-354.5 800.91,-302.5 635.91,-302.5"/>
<text text-anchor="start" x="643.91" y="-342.5" font-family="Helvetica,sans-Serif" font-size="10.00">/home/travis/build</text>
<text text-anchor="start" x="643.91" y="-331.5" font-family="Helvetica,sans-Serif" font-size="10.00">/AliceO2Group/AliceO2</text>
<text text-anchor="start" x="643.91" y="-320.5" font-family="Helvetica,sans-Serif" font-size="10.00">/Detectors/MUON/MID/Clustering</text>
<text text-anchor="middle" x="718.41" y="-309.5" font-family="Helvetica,sans-Serif" font-size="10.00">/src/Clusterizer.cxx</text>
</g>
<!-- Node2 -->
<g id="node2" class="node"><title>Node2</title>
<g id="a_node2"><a xlink:href="../../d3/dcc/Detectors_2MUON_2MID_2Clustering_2include_2MIDClustering_2Clusterizer_8h.html" target="_top" xlink:title="Cluster reconstruction algorithm for MID. ">
<polygon fill="none" stroke="black" points="394.41,-246.5 394.41,-265.5 532.41,-265.5 532.41,-246.5 394.41,-246.5"/>
<text text-anchor="middle" x="463.41" y="-253.5" font-family="Helvetica,sans-Serif" font-size="10.00">MIDClustering/Clusterizer.h</text>
</a>
</g>
</g>
<!-- Node1&#45;&gt;Node2 -->
<g id="edge1" class="edge"><title>Node1&#45;&gt;Node2</title>
<path fill="none" stroke="midnightblue" d="M635.619,-304.611C591.675,-292.462 539.619,-278.069 504.331,-268.313"/>
<polygon fill="midnightblue" stroke="midnightblue" points="504.967,-264.858 494.396,-265.567 503.101,-271.605 504.967,-264.858"/>
</g>
<!-- Node22 -->
<g id="node22" class="node"><title>Node22</title>
<g id="a_node22"><a xlink:href="../../dc/de4/DetectorParameters_8h.html" target="_top" xlink:title="Useful detector parameters for MID. ">
<polygon fill="none" stroke="black" points="894.91,-246.5 894.91,-265.5 1051.91,-265.5 1051.91,-246.5 894.91,-246.5"/>
<text text-anchor="middle" x="973.41" y="-253.5" font-family="Helvetica,sans-Serif" font-size="10.00">MIDBase/DetectorParameters.h</text>
</a>
</g>
</g>
<!-- Node1&#45;&gt;Node22 -->
<g id="edge32" class="edge"><title>Node1&#45;&gt;Node22</title>
<path fill="none" stroke="midnightblue" d="M801.202,-304.611C845.145,-292.462 897.202,-278.069 932.489,-268.313"/>
<polygon fill="midnightblue" stroke="midnightblue" points="933.719,-271.605 942.425,-265.567 931.854,-264.858 933.719,-271.605"/>
</g>
<!-- Node3 -->
<g id="node3" class="node"><title>Node3</title>
<polygon fill="none" stroke="#bfbfbf" points="228.91,-185 228.91,-204 287.91,-204 287.91,-185 228.91,-185"/>
<text text-anchor="middle" x="258.41" y="-192" font-family="Helvetica,sans-Serif" font-size="10.00">functional</text>
</g>
<!-- Node2&#45;&gt;Node3 -->
<g id="edge2" class="edge"><title>Node2&#45;&gt;Node3</title>
<path fill="none" stroke="midnightblue" d="M427.594,-246.466C393.567,-238.096 341.107,-224.508 296.41,-210 294.001,-209.218 291.521,-208.37 289.036,-207.491"/>
<polygon fill="midnightblue" stroke="midnightblue" points="290.173,-204.179 279.579,-204.012 287.756,-210.749 290.173,-204.179"/>
</g>
<!-- Node4 -->
<g id="node4" class="node"><title>Node4</title>
<polygon fill="none" stroke="#bfbfbf" points="592.91,-185 592.91,-204 675.91,-204 675.91,-185 592.91,-185"/>
<text text-anchor="middle" x="634.41" y="-192" font-family="Helvetica,sans-Serif" font-size="10.00">unordered_map</text>
</g>
<!-- Node2&#45;&gt;Node4 -->
<g id="edge3" class="edge"><title>Node2&#45;&gt;Node4</title>
<path fill="none" stroke="midnightblue" d="M487.911,-246.475C517.37,-236.225 566.99,-218.959 600.212,-207.399"/>
<polygon fill="midnightblue" stroke="midnightblue" points="601.661,-210.601 609.956,-204.009 599.361,-203.99 601.661,-210.601"/>
</g>
<!-- Node5 -->
<g id="node5" class="node"><title>Node5</title>
<polygon fill="none" stroke="#bfbfbf" points="71.4105,-56.5 71.4105,-75.5 115.41,-75.5 115.41,-56.5 71.4105,-56.5"/>
<text text-anchor="middle" x="93.4105" y="-63.5" font-family="Helvetica,sans-Serif" font-size="10.00">vector</text>
</g>
<!-- Node2&#45;&gt;Node5 -->
<g id="edge4" class="edge"><title>Node2&#45;&gt;Node5</title>
<path fill="none" stroke="midnightblue" d="M394.133,-251.996C327.339,-247.575 224.062,-236.694 138.41,-210 75.2203,-190.306 40.1229,-199.355 5.41048,-143 -1.81532,-131.269 -1.77983,-123.753 5.41048,-112 17.5912,-92.0904 41.6711,-80.6339 61.5668,-74.2685"/>
<polygon fill="midnightblue" stroke="midnightblue" points="62.5906,-77.6158 71.215,-71.4619 60.6354,-70.8944 62.5906,-77.6158"/>
</g>
<!-- Node6 -->
<g id="node6" class="node"><title>Node6</title>
<polygon fill="none" stroke="#bfbfbf" points="529.91,-185 529.91,-204 574.91,-204 574.91,-185 529.91,-185"/>
<text text-anchor="middle" x="552.41" y="-192" font-family="Helvetica,sans-Serif" font-size="10.00">gsl/gsl</text>
</g>
<!-- Node2&#45;&gt;Node6 -->
<g id="edge5" class="edge"><title>Node2&#45;&gt;Node6</title>
<path fill="none" stroke="midnightblue" d="M476.162,-246.475C490.437,-236.931 513.808,-221.307 530.918,-209.868"/>
<polygon fill="midnightblue" stroke="midnightblue" points="533.315,-212.477 539.683,-204.009 529.424,-206.657 533.315,-212.477"/>
</g>
<!-- Node7 -->
<g id="node7" class="node"><title>Node7</title>
<g id="a_node7"><a xlink:href="../../d6/d31/Cluster2D_8h.html" target="_top" xlink:title="Reconstructed cluster per RPC. ">
<polygon fill="none" stroke="black" points="546.41,-118 546.41,-137 694.41,-137 694.41,-118 546.41,-118"/>
<text text-anchor="middle" x="620.41" y="-125" font-family="Helvetica,sans-Serif" font-size="10.00">DataFormatsMID/Cluster2D.h</text>
</a>
</g>
</g>
<!-- Node2&#45;&gt;Node7 -->
<g id="edge6" class="edge"><title>Node2&#45;&gt;Node7</title>
<path fill="none" stroke="midnightblue" d="M468.033,-246.463C476.628,-231.242 496.392,-199.127 520.41,-179 540.229,-162.393 566.432,-149.415 587.044,-140.776"/>
<polygon fill="midnightblue" stroke="midnightblue" points="588.413,-143.998 596.369,-137 585.786,-137.509 588.413,-143.998"/>
</g>
<!-- Node10 -->
<g id="node10" class="node"><title>Node10</title>
<g id="a_node10"><a xlink:href="../../d2/df9/MUON_2MID_2include_2DataFormatsMID_2ROFRecord_8h.html" target="_top" xlink:title="Definition of the MID event record. ">
<polygon fill="none" stroke="black" points="704.41,-185 704.41,-204 860.41,-204 860.41,-185 704.41,-185"/>
<text text-anchor="middle" x="782.41" y="-192" font-family="Helvetica,sans-Serif" font-size="10.00">DataFormatsMID/ROFRecord.h</text>
</a>
</g>
</g>
<!-- Node2&#45;&gt;Node10 -->
<g id="edge9" class="edge"><title>Node2&#45;&gt;Node10</title>
<path fill="none" stroke="midnightblue" d="M509.115,-246.475C566.559,-235.761 665.093,-217.382 726.834,-205.866"/>
<polygon fill="midnightblue" stroke="midnightblue" points="727.602,-209.283 736.79,-204.009 726.318,-202.402 727.602,-209.283"/>
</g>
<!-- Node16 -->
<g id="node16" class="node"><title>Node16</title>
<g id="a_node16"><a xlink:href="../../d7/d0a/MpArea_8h.html" target="_top" xlink:title="Mapping area for MID. ">
<polygon fill="none" stroke="black" points="186.91,-56.5 186.91,-75.5 289.91,-75.5 289.91,-56.5 186.91,-56.5"/>
<text text-anchor="middle" x="238.41" y="-63.5" font-family="Helvetica,sans-Serif" font-size="10.00">MIDBase/MpArea.h</text>
</a>
</g>
</g>
<!-- Node2&#45;&gt;Node16 -->
<g id="edge16" class="edge"><title>Node2&#45;&gt;Node16</title>
<path fill="none" stroke="midnightblue" d="M394.301,-251.85C330.138,-247.304 241.32,-236.319 219.41,-210 189.454,-174.014 213.386,-114.322 228.473,-84.7413"/>
<polygon fill="midnightblue" stroke="midnightblue" points="231.719,-86.0928 233.338,-75.6224 225.543,-82.7978 231.719,-86.0928"/>
</g>
<!-- Node18 -->
<g id="node18" class="node"><title>Node18</title>
<g id="a_node18"><a xlink:href="../../db/dfb/PreCluster_8h.html" target="_top" xlink:title="Pre&#45;cluster structure for MID. ">
<polygon fill="none" stroke="black" points="390.91,-118 390.91,-137 527.91,-137 527.91,-118 390.91,-118"/>
<text text-anchor="middle" x="459.41" y="-125" font-family="Helvetica,sans-Serif" font-size="10.00">MIDClustering/PreCluster.h</text>
</a>
</g>
</g>
<!-- Node2&#45;&gt;Node18 -->
<g id="edge18" class="edge"><title>Node2&#45;&gt;Node18</title>
<path fill="none" stroke="midnightblue" d="M463.136,-246.305C462.493,-225.994 460.883,-175.053 460.004,-147.277"/>
<polygon fill="midnightblue" stroke="midnightblue" points="463.502,-147.14 459.687,-137.256 456.505,-147.361 463.502,-147.14"/>
</g>
<!-- Node19 -->
<g id="node19" class="node"><title>Node19</title>
<g id="a_node19"><a xlink:href="../../d8/dc8/PreClusterHelper_8h.html" target="_top" xlink:title="Pre&#45;clusters helper for MID. ">
<polygon fill="none" stroke="black" points="305.91,-179.5 305.91,-209.5 434.91,-209.5 434.91,-179.5 305.91,-179.5"/>
<text text-anchor="start" x="313.91" y="-197.5" font-family="Helvetica,sans-Serif" font-size="10.00">MIDClustering/PreCluster</text>
<text text-anchor="middle" x="370.41" y="-186.5" font-family="Helvetica,sans-Serif" font-size="10.00">Helper.h</text>
</a>
</g>
</g>
<!-- Node2&#45;&gt;Node19 -->
<g id="edge21" class="edge"><title>Node2&#45;&gt;Node19</title>
<path fill="none" stroke="midnightblue" d="M450.086,-246.475C437.373,-238.341 417.756,-225.791 401.169,-215.179"/>
<polygon fill="midnightblue" stroke="midnightblue" points="402.639,-211.964 392.329,-209.523 398.866,-217.861 402.639,-211.964"/>
</g>
<!-- Node21 -->
<g id="node21" class="node"><title>Node21</title>
<g id="a_node21"><a xlink:href="../../d3/dde/PreClustersDE_8h.html" target="_top" xlink:title="Structure with pre&#45;clusters in the MID detection element. ">
<polygon fill="none" stroke="black" points="14.9105,-118 14.9105,-137 171.91,-137 171.91,-118 14.9105,-118"/>
<text text-anchor="middle" x="93.4105" y="-125" font-family="Helvetica,sans-Serif" font-size="10.00">MIDClustering/PreClustersDE.h</text>
</a>
</g>
</g>
<!-- Node2&#45;&gt;Node21 -->
<g id="edge28" class="edge"><title>Node2&#45;&gt;Node21</title>
<path fill="none" stroke="midnightblue" d="M394.269,-254.265C336.258,-251.245 252.521,-241.149 186.41,-210 153.57,-194.526 123.536,-163.934 106.931,-144.948"/>
<polygon fill="midnightblue" stroke="midnightblue" points="109.431,-142.485 100.285,-137.138 104.1,-147.022 109.431,-142.485"/>
</g>
<!-- Node8 -->
<g id="node8" class="node"><title>Node8</title>
<polygon fill="none" stroke="#bfbfbf" points="433.41,-56.5 433.41,-75.5 485.41,-75.5 485.41,-56.5 433.41,-56.5"/>
<text text-anchor="middle" x="459.41" y="-63.5" font-family="Helvetica,sans-Serif" font-size="10.00">ostream</text>
</g>
<!-- Node7&#45;&gt;Node8 -->
<g id="edge7" class="edge"><title>Node7&#45;&gt;Node8</title>
<path fill="none" stroke="midnightblue" d="M597.343,-117.975C569.726,-107.769 523.291,-90.608 492.014,-79.0492"/>
<polygon fill="midnightblue" stroke="midnightblue" points="493.028,-75.6927 482.435,-75.5091 490.602,-82.2586 493.028,-75.6927"/>
</g>
<!-- Node9 -->
<g id="node9" class="node"><title>Node9</title>
<polygon fill="none" stroke="#bfbfbf" points="503.41,-56.5 503.41,-75.5 549.41,-75.5 549.41,-56.5 503.41,-56.5"/>
<text text-anchor="middle" x="526.41" y="-63.5" font-family="Helvetica,sans-Serif" font-size="10.00">cstdint</text>
</g>
<!-- Node7&#45;&gt;Node9 -->
<g id="edge8" class="edge"><title>Node7&#45;&gt;Node9</title>
<path fill="none" stroke="midnightblue" d="M606.943,-117.975C591.726,-108.343 566.724,-92.5175 548.61,-81.0517"/>
<polygon fill="midnightblue" stroke="midnightblue" points="550.175,-77.9002 539.853,-75.5091 546.431,-83.8149 550.175,-77.9002"/>
</g>
<!-- Node11 -->
<g id="node11" class="node"><title>Node11</title>
<g id="a_node11"><a xlink:href="../../d9/d80/InteractionRecord_8h.html" target="_top" xlink:title="CommonDataFormat/Interaction\lRecord.h">
<polygon fill="none" stroke="black" points="712.91,-112.5 712.91,-142.5 869.91,-142.5 869.91,-112.5 712.91,-112.5"/>
<text text-anchor="start" x="720.91" y="-130.5" font-family="Helvetica,sans-Serif" font-size="10.00">CommonDataFormat/Interaction</text>
<text text-anchor="middle" x="791.41" y="-119.5" font-family="Helvetica,sans-Serif" font-size="10.00">Record.h</text>
</a>
</g>
</g>
<!-- Node10&#45;&gt;Node11 -->
<g id="edge10" class="edge"><title>Node10&#45;&gt;Node11</title>
<path fill="none" stroke="midnightblue" d="M783.624,-184.734C784.759,-176.541 786.506,-163.923 788.058,-152.714"/>
<polygon fill="midnightblue" stroke="midnightblue" points="791.555,-152.975 789.46,-142.589 784.621,-152.014 791.555,-152.975"/>
</g>
<!-- Node11&#45;&gt;Node9 -->
<g id="edge14" class="edge"><title>Node11&#45;&gt;Node9</title>
<path fill="none" stroke="midnightblue" d="M721.314,-112.465C677.37,-103.398 619.341,-90.9364 559.455,-76.1481"/>
<polygon fill="midnightblue" stroke="midnightblue" points="559.987,-72.6739 549.438,-73.6568 558.298,-79.467 559.987,-72.6739"/>
</g>
<!-- Node12 -->
<g id="node12" class="node"><title>Node12</title>
<polygon fill="none" stroke="#bfbfbf" points="825.41,-56.5 825.41,-75.5 881.41,-75.5 881.41,-56.5 825.41,-56.5"/>
<text text-anchor="middle" x="853.41" y="-63.5" font-family="Helvetica,sans-Serif" font-size="10.00">Rtypes.h</text>
</g>
<!-- Node11&#45;&gt;Node12 -->
<g id="edge11" class="edge"><title>Node11&#45;&gt;Node12</title>
<path fill="none" stroke="midnightblue" d="M806.104,-112.399C815.392,-103.486 827.41,-91.9523 837.008,-82.7408"/>
<polygon fill="midnightblue" stroke="midnightblue" points="839.597,-85.1072 844.389,-75.6578 834.75,-80.0566 839.597,-85.1072"/>
</g>
<!-- Node13 -->
<g id="node13" class="node"><title>Node13</title>
<polygon fill="none" stroke="#bfbfbf" points="899.91,-56.5 899.91,-75.5 944.91,-75.5 944.91,-56.5 899.91,-56.5"/>
<text text-anchor="middle" x="922.41" y="-63.5" font-family="Helvetica,sans-Serif" font-size="10.00">iosfwd</text>
</g>
<!-- Node11&#45;&gt;Node13 -->
<g id="edge12" class="edge"><title>Node11&#45;&gt;Node13</title>
<path fill="none" stroke="midnightblue" d="M822.456,-112.399C844.141,-102.55 872.87,-89.5014 893.961,-79.9217"/>
<polygon fill="midnightblue" stroke="midnightblue" points="895.691,-82.9799 903.349,-75.6578 892.797,-76.6065 895.691,-82.9799"/>
</g>
<!-- Node14 -->
<g id="node14" class="node"><title>Node14</title>
<polygon fill="none" stroke="#bfbfbf" points="567.41,-56.5 567.41,-75.5 611.41,-75.5 611.41,-56.5 567.41,-56.5"/>
<text text-anchor="middle" x="589.41" y="-63.5" font-family="Helvetica,sans-Serif" font-size="10.00">cmath</text>
</g>
<!-- Node11&#45;&gt;Node14 -->
<g id="edge13" class="edge"><title>Node11&#45;&gt;Node14</title>
<path fill="none" stroke="midnightblue" d="M743.795,-112.475C706.116,-101.376 654.525,-86.1799 621.577,-76.4749"/>
<polygon fill="midnightblue" stroke="midnightblue" points="622.158,-72.9973 611.576,-73.5291 620.18,-79.712 622.158,-72.9973"/>
</g>
<!-- Node15 -->
<g id="node15" class="node"><title>Node15</title>
<g id="a_node15"><a xlink:href="../../d4/dc6/LHCConstants_8h.html" target="_top" xlink:title="Header to collect LHC related constants. ">
<polygon fill="none" stroke="black" points="629.41,-56.5 629.41,-75.5 807.41,-75.5 807.41,-56.5 629.41,-56.5"/>
<text text-anchor="middle" x="718.41" y="-63.5" font-family="Helvetica,sans-Serif" font-size="10.00">CommonConstants/LHCConstants.h</text>
</a>
</g>
</g>
<!-- Node11&#45;&gt;Node15 -->
<g id="edge15" class="edge"><title>Node11&#45;&gt;Node15</title>
<path fill="none" stroke="midnightblue" d="M774.11,-112.399C762.956,-103.308 748.457,-91.4899 737.048,-82.1909"/>
<polygon fill="midnightblue" stroke="midnightblue" points="738.995,-79.2627 729.033,-75.6578 734.573,-84.6887 738.995,-79.2627"/>
</g>
<!-- Node17 -->
<g id="node17" class="node"><title>Node17</title>
<polygon fill="none" stroke="#bfbfbf" points="259.41,-0.5 259.41,-19.5 297.41,-19.5 297.41,-0.5 259.41,-0.5"/>
<text text-anchor="middle" x="278.41" y="-7.5" font-family="Helvetica,sans-Serif" font-size="10.00">array</text>
</g>
<!-- Node16&#45;&gt;Node17 -->
<g id="edge17" class="edge"><title>Node16&#45;&gt;Node17</title>
<path fill="none" stroke="midnightblue" d="M245.016,-56.083C250.666,-48.4554 258.955,-37.2645 265.862,-27.9408"/>
<polygon fill="midnightblue" stroke="midnightblue" points="268.788,-29.87 271.928,-19.7511 263.163,-25.7034 268.788,-29.87"/>
</g>
<!-- Node18&#45;&gt;Node8 -->
<g id="edge20" class="edge"><title>Node18&#45;&gt;Node8</title>
<path fill="none" stroke="midnightblue" d="M459.41,-117.975C459.41,-109.58 459.41,-96.4806 459.41,-85.6631"/>
<polygon fill="midnightblue" stroke="midnightblue" points="462.911,-85.5091 459.41,-75.5091 455.911,-85.5091 462.911,-85.5091"/>
</g>
<!-- Node18&#45;&gt;Node9 -->
<g id="edge19" class="edge"><title>Node18&#45;&gt;Node9</title>
<path fill="none" stroke="midnightblue" d="M469.01,-117.975C479.458,-108.697 496.378,-93.6706 509.147,-82.331"/>
<polygon fill="midnightblue" stroke="midnightblue" points="511.676,-84.7663 516.829,-75.5091 507.028,-79.5323 511.676,-84.7663"/>
</g>
<!-- Node19&#45;&gt;Node16 -->
<g id="edge22" class="edge"><title>Node19&#45;&gt;Node16</title>
<path fill="none" stroke="midnightblue" d="M313.684,-179.453C293.316,-171.781 271.838,-160.207 257.41,-143 243.921,-126.911 239.791,-102.59 238.638,-85.8149"/>
<polygon fill="midnightblue" stroke="midnightblue" points="242.127,-85.4563 238.237,-75.6014 235.132,-85.731 242.127,-85.4563"/>
</g>
<!-- Node19&#45;&gt;Node18 -->
<g id="edge27" class="edge"><title>Node19&#45;&gt;Node18</title>
<path fill="none" stroke="midnightblue" d="M389.722,-179.396C404.371,-168.697 424.449,-154.033 439.292,-143.193"/>
<polygon fill="midnightblue" stroke="midnightblue" points="441.751,-145.731 447.762,-137.007 437.623,-140.078 441.751,-145.731"/>
</g>
<!-- Node20 -->
<g id="node20" class="node"><title>Node20</title>
<g id="a_node20"><a xlink:href="../../d4/d73/MID_2Base_2include_2MIDBase_2Mapping_8h.html" target="_top" xlink:title="Mapping for MID. ">
<polygon fill="none" stroke="black" points="266.41,-118 266.41,-137 372.41,-137 372.41,-118 266.41,-118"/>
<text text-anchor="middle" x="319.41" y="-125" font-family="Helvetica,sans-Serif" font-size="10.00">MIDBase/Mapping.h</text>
</a>
</g>
</g>
<!-- Node19&#45;&gt;Node20 -->
<g id="edge23" class="edge"><title>Node19&#45;&gt;Node20</title>
<path fill="none" stroke="midnightblue" d="M359.344,-179.396C351.471,-169.361 340.86,-155.838 332.556,-145.253"/>
<polygon fill="midnightblue" stroke="midnightblue" points="335.159,-142.901 326.232,-137.195 329.652,-147.222 335.159,-142.901"/>
</g>
<!-- Node20&#45;&gt;Node5 -->
<g id="edge25" class="edge"><title>Node20&#45;&gt;Node5</title>
<path fill="none" stroke="midnightblue" d="M287.03,-117.975C243.957,-106.635 168.276,-86.7102 125.401,-75.4223"/>
<polygon fill="midnightblue" stroke="midnightblue" points="126.063,-71.9774 115.501,-72.816 124.281,-78.7467 126.063,-71.9774"/>
</g>
<!-- Node20&#45;&gt;Node16 -->
<g id="edge26" class="edge"><title>Node20&#45;&gt;Node16</title>
<path fill="none" stroke="midnightblue" d="M307.805,-117.975C294.933,-108.52 273.936,-93.0961 258.405,-81.6871"/>
<polygon fill="midnightblue" stroke="midnightblue" points="260.126,-78.6085 249.994,-75.5091 255.982,-84.25 260.126,-78.6085"/>
</g>
<!-- Node20&#45;&gt;Node17 -->
<g id="edge24" class="edge"><title>Node20&#45;&gt;Node17</title>
<path fill="none" stroke="midnightblue" d="M317.18,-117.699C313.681,-104.238 306.465,-77.8032 298.41,-56 295.078,-46.9779 290.812,-37.195 287.076,-29.0624"/>
<polygon fill="midnightblue" stroke="midnightblue" points="290.157,-27.3892 282.739,-19.825 283.821,-30.3644 290.157,-27.3892"/>
</g>
<!-- Node21&#45;&gt;Node5 -->
<g id="edge30" class="edge"><title>Node21&#45;&gt;Node5</title>
<path fill="none" stroke="midnightblue" d="M93.4105,-117.975C93.4105,-109.58 93.4105,-96.4806 93.4105,-85.6631"/>
<polygon fill="midnightblue" stroke="midnightblue" points="96.9106,-85.5091 93.4105,-75.5091 89.9106,-85.5091 96.9106,-85.5091"/>
</g>
<!-- Node21&#45;&gt;Node16 -->
<g id="edge31" class="edge"><title>Node21&#45;&gt;Node16</title>
<path fill="none" stroke="midnightblue" d="M114.185,-117.975C138.843,-107.857 180.156,-90.9046 208.312,-79.3507"/>
<polygon fill="midnightblue" stroke="midnightblue" points="209.751,-82.5434 217.674,-75.5091 207.094,-76.0674 209.751,-82.5434"/>
</g>
<!-- Node21&#45;&gt;Node17 -->
<g id="edge29" class="edge"><title>Node21&#45;&gt;Node17</title>
<path fill="none" stroke="midnightblue" d="M102.082,-117.78C116.646,-103.482 147.383,-74.7713 177.41,-56 200.492,-41.5714 228.99,-29.3207 249.824,-21.2619"/>
<polygon fill="midnightblue" stroke="midnightblue" points="251.261,-24.4604 259.378,-17.6513 248.787,-17.9124 251.261,-24.4604"/>
</g>
<!-- Node22&#45;&gt;Node17 -->
<g id="edge33" class="edge"><title>Node22&#45;&gt;Node17</title>
<path fill="none" stroke="midnightblue" d="M975.983,-246.206C984.519,-214.977 1008.42,-108.483 954.41,-56 907.48,-10.3986 431.332,-10.0737 307.642,-10.7681"/>
<polygon fill="midnightblue" stroke="midnightblue" points="307.405,-7.26942 297.427,-10.8325 307.449,-14.2693 307.405,-7.26942"/>
</g>
<!-- Node23 -->
<g id="node23" class="node"><title>Node23</title>
<polygon fill="none" stroke="#bfbfbf" points="1001.91,-185 1001.91,-204 1042.91,-204 1042.91,-185 1001.91,-185"/>
<text text-anchor="middle" x="1022.41" y="-192" font-family="Helvetica,sans-Serif" font-size="10.00">string</text>
</g>
<!-- Node22&#45;&gt;Node23 -->
<g id="edge34" class="edge"><title>Node22&#45;&gt;Node23</title>
<path fill="none" stroke="midnightblue" d="M980.431,-246.475C987.854,-237.462 999.743,-223.025 1008.98,-211.812"/>
<polygon fill="midnightblue" stroke="midnightblue" points="1011.75,-213.953 1015.4,-204.009 1006.34,-209.503 1011.75,-213.953"/>
</g>
</g>
</svg>
        <g id="navigator" transform="translate(0 0)" fill="#404254">
                <rect fill="#f2f5e9" fill-opacity="0.5" stroke="#606060" stroke-width=".5" x="0" y="0" width="60" height="60"/>
                <use id="zoomplus" xlink:href="#zoomPlus" x="17" y="9" onmousedown="handleZoom(evt,'in')"/>
                <use id="zoomminus" xlink:href="#zoomMin" x="42" y="9" onmousedown="handleZoom(evt,'out')"/>
                <use id="reset" xlink:href="#resetDef" x="30" y="36" onmousedown="handleReset()"/>
                <g id="arrowUp" xlink:href="#dirArrow" transform="translate(30 24)" onmousedown="handlePan(0,-1)">
                  <use xlink:href="#rim" fill="#404040">
                        <set attributeName="fill" to="#808080" begin="arrowUp.mouseover" end="arrowUp.mouseout"/>
                  </use>
                  <path fill="none" stroke="white" stroke-width="1.5" d="M0,-3.0v7 M-2.5,-0.5L0,-3.0L2.5,-0.5"/>
                </g>
                <g id="arrowRight" xlink:href="#dirArrow" transform="rotate(90) translate(36 -43)" onmousedown="handlePan(1,0)">
                  <use xlink:href="#rim" fill="#404040">
                        <set attributeName="fill" to="#808080" begin="arrowRight.mouseover" end="arrowRight.mouseout"/>
                  </use>
                  <path fill="none" stroke="white" stroke-width="1.5" d="M0,-3.0v7 M-2.5,-0.5L0,-3.0L2.5,-0.5"/>
                </g>
                <g id="arrowDown" xlink:href="#dirArrow" transform="rotate(180) translate(-30 -48)" onmousedown="handlePan(0,1)">
                  <use xlink:href="#rim" fill="#404040">
                        <set attributeName="fill" to="#808080" begin="arrowDown.mouseover" end="arrowDown.mouseout"/>
                  </use>
                  <path fill="none" stroke="white" stroke-width="1.5" d="M0,-3.0v7 M-2.5,-0.5L0,-3.0L2.5,-0.5"/>
                </g>
                <g id="arrowLeft" xlink:href="#dirArrow" transform="rotate(270) translate(-36 17)" onmousedown="handlePan(-1,0)">
                  <use xlink:href="#rim" fill="#404040">
                        <set attributeName="fill" to="#808080" begin="arrowLeft.mouseover" end="arrowLeft.mouseout"/>
                  </use>
                  <path fill="none" stroke="white" stroke-width="1.5" d="M0,-3.0v7 M-2.5,-0.5L0,-3.0L2.5,-0.5"/>
                </g>
        </g>
        <svg viewBox="0 0 15 15" width="100%" height="30px" preserveAspectRatio="xMaxYMin meet">
         <g id="arrow_out" transform="scale(0.3 0.3)">
          <a xlink:href="Detectors_2MUON_2MID_2Clustering_2src_2Clusterizer_8cxx__incl_org.svg" target="_base">
           <rect id="button" ry="5" rx="5" y="6" x="6" height="38" width="38"
                fill="#f2f5e9" fill-opacity="0.5" stroke="#606060" stroke-width="1.0"/>
           <path id="arrow"
             d="M 11.500037,31.436501 C 11.940474,20.09759 22.043105,11.32322 32.158766,21.979434 L 37.068811,17.246167 C 37.068811,17.246167 37.088388,32 37.088388,32 L 22.160133,31.978069 C 22.160133,31.978069 26.997745,27.140456 26.997745,27.140456 C 18.528582,18.264221 13.291696,25.230495 11.500037,31.436501 z"
             style="fill:#404040;"/>
          </a>
         </g>
        </svg>
</svg>
