<?xml version="1.0" encoding="UTF-8" standalone="no"?>
<!DOCTYPE svg PUBLIC "-//W3C//DTD SVG 1.1//EN"
 "http://www.w3.org/Graphics/SVG/1.1/DTD/svg11.dtd">
<!-- Generated by graphviz version 2.38.0 (20140413.2041)
 -->
<!-- Title: /home/travis/build/AliceO2Group/AliceO2/Framework/Core/src/FrameworkGUIDataRelayerUsage.cxx Pages: 1 -->
<!--zoomable 285 -->
<svg id="main" version="1.1" xmlns="http://www.w3.org/2000/svg" xmlns:xlink="http://www.w3.org/1999/xlink" xml:space="preserve" onload="init(evt)">
<style type="text/css"><![CDATA[
.edge:hover path { stroke: red; }
.edge:hover polygon { stroke: red; fill: red; }
]]></style>
<script type="text/javascript"><![CDATA[
var edges = document.getElementsByTagName('g');
if (edges && edges.length) {
  for (var i=0;i<edges.length;i++) {
    if (edges[i].id.substr(0,4)=='edge') {
      edges[i].setAttribute('class','edge');
    }
  }
}
]]></script>
        <defs>
                <circle id="rim" cx="0" cy="0" r="7"/>
                <circle id="rim2" cx="0" cy="0" r="3.5"/>
                <g id="zoomPlus">
                        <use xlink:href="#rim" fill="#404040">
                                <set attributeName="fill" to="#808080" begin="zoomplus.mouseover" end="zoomplus.mouseout"/>
                        </use>
                        <path d="M-4,0h8M0,-4v8" fill="none" stroke="white" stroke-width="1.5" pointer-events="none"/>
                </g>
                <g id="zoomMin">
                        <use xlink:href="#rim" fill="#404040">
                                <set attributeName="fill" to="#808080" begin="zoomminus.mouseover" end="zoomminus.mouseout"/>
                        </use>
                        <path d="M-4,0h8" fill="none" stroke="white" stroke-width="1.5" pointer-events="none"/>
                </g>
                <g id="dirArrow">
                        <path fill="none" stroke="white" stroke-width="1.5" d="M0,-3.0v7 M-2.5,-0.5L0,-3.0L2.5,-0.5"/>
                </g>
               <g id="resetDef">
                       <use xlink:href="#rim2" fill="#404040">
                               <set attributeName="fill" to="#808080" begin="reset.mouseover" end="reset.mouseout"/>
                       </use>
               </g>
        </defs>

<script type="text/javascript">
var viewWidth = 1581;
var viewHeight = 285;
var sectionId = 'dynsection-0';
</script>
<script xlink:href="../../svgpan.js"/>
<svg id="graph" class="graph">
<g id="viewport">
<title>/home/travis/build/AliceO2Group/AliceO2/Framework/Core/src/FrameworkGUIDataRelayerUsage.cxx</title>
<!-- Node1 -->
<g id="node1" class="node"><title>Node1</title>
<polygon fill="#bfbfbf" stroke="black" points="409.5,-224.5 409.5,-276.5 570.5,-276.5 570.5,-224.5 409.5,-224.5"/>
<text text-anchor="start" x="417.5" y="-264.5" font-family="Helvetica,sans-Serif" font-size="10.00">/home/travis/build</text>
<text text-anchor="start" x="417.5" y="-253.5" font-family="Helvetica,sans-Serif" font-size="10.00">/AliceO2Group/AliceO2</text>
<text text-anchor="start" x="417.5" y="-242.5" font-family="Helvetica,sans-Serif" font-size="10.00">/Framework/Core/src/Framework</text>
<text text-anchor="middle" x="490" y="-231.5" font-family="Helvetica,sans-Serif" font-size="10.00">GUIDataRelayerUsage.cxx</text>
</g>
<!-- Node2 -->
<g id="node2" class="node"><title>Node2</title>
<polygon fill="none" stroke="#bfbfbf" points="0,-168.5 0,-187.5 98,-187.5 98,-168.5 0,-168.5"/>
<text text-anchor="middle" x="49" y="-175.5" font-family="Helvetica,sans-Serif" font-size="10.00">DebugGUI/imgui.h</text>
</g>
<!-- Node1&#45;&gt;Node2 -->
<g id="edge1" class="edge"><title>Node1&#45;&gt;Node2</title>
<path fill="none" stroke="midnightblue" d="M409.37,-236.61C322.311,-222.693 185.706,-200.854 108.094,-188.447"/>
<polygon fill="midnightblue" stroke="midnightblue" points="108.434,-184.957 98.0065,-186.834 107.329,-191.869 108.434,-184.957"/>
</g>
<!-- Node3 -->
<g id="node3" class="node"><title>Node3</title>
<polygon fill="none" stroke="#bfbfbf" points="237.5,-56.5 237.5,-75.5 296.5,-75.5 296.5,-56.5 237.5,-56.5"/>
<text text-anchor="middle" x="267" y="-63.5" font-family="Helvetica,sans-Serif" font-size="10.00">functional</text>
</g>
<!-- Node1&#45;&gt;Node3 -->
<g id="edge2" class="edge"><title>Node1&#45;&gt;Node3</title>
<path fill="none" stroke="midnightblue" d="M409.163,-243.295C336.424,-232.933 233.462,-205.345 183,-132 167.13,-108.934 199.635,-90.3637 228.714,-79.0703"/>
<polygon fill="midnightblue" stroke="midnightblue" points="230.19,-82.257 238.369,-75.5234 227.776,-75.6863 230.19,-82.257"/>
</g>
<!-- Node4 -->
<g id="node4" class="node"><title>Node4</title>
<g id="a_node4"><a xlink:href="../../dc/df0/DeviceMetricsInfo_8h.html" target="_top" xlink:title="Framework/DeviceMetricsInfo.h">
<polygon fill="none" stroke="black" points="192,-112.5 192,-131.5 348,-131.5 348,-112.5 192,-112.5"/>
<text text-anchor="middle" x="270" y="-119.5" font-family="Helvetica,sans-Serif" font-size="10.00">Framework/DeviceMetricsInfo.h</text>
</a>
</g>
</g>
<!-- Node1&#45;&gt;Node4 -->
<g id="edge3" class="edge"><title>Node1&#45;&gt;Node4</title>
<path fill="none" stroke="midnightblue" d="M446.272,-224.356C400.49,-198.032 330.29,-157.666 293.831,-136.703"/>
<polygon fill="midnightblue" stroke="midnightblue" points="295.321,-133.522 284.907,-131.572 291.832,-139.591 295.321,-133.522"/>
</g>
<!-- Node10 -->
<g id="node10" class="node"><title>Node10</title>
<g id="a_node10"><a xlink:href="../../d7/d58/DeviceInfo_8h.html" target="_top" xlink:title="Framework/DeviceInfo.h">
<polygon fill="none" stroke="black" points="480,-168.5 480,-187.5 604,-187.5 604,-168.5 480,-168.5"/>
<text text-anchor="middle" x="542" y="-175.5" font-family="Helvetica,sans-Serif" font-size="10.00">Framework/DeviceInfo.h</text>
</a>
</g>
</g>
<!-- Node1&#45;&gt;Node10 -->
<g id="edge10" class="edge"><title>Node1&#45;&gt;Node10</title>
<path fill="none" stroke="midnightblue" d="M508.48,-224.446C515.499,-214.929 523.319,-204.327 529.639,-195.758"/>
<polygon fill="midnightblue" stroke="midnightblue" points="532.467,-197.821 535.586,-187.695 526.834,-193.666 532.467,-197.821"/>
</g>
<!-- Node26 -->
<g id="node26" class="node"><title>Node26</title>
<polygon fill="none" stroke="#bfbfbf" points="622,-168.5 622,-187.5 676,-187.5 676,-168.5 622,-168.5"/>
<text text-anchor="middle" x="649" y="-175.5" font-family="Helvetica,sans-Serif" font-size="10.00">iostream</text>
</g>
<!-- Node1&#45;&gt;Node26 -->
<g id="edge39" class="edge"><title>Node1&#45;&gt;Node26</title>
<path fill="none" stroke="midnightblue" d="M546.505,-224.446C571.512,-213.358 599.84,-200.797 620.367,-191.696"/>
<polygon fill="midnightblue" stroke="midnightblue" points="622.046,-194.78 629.769,-187.527 619.209,-188.381 622.046,-194.78"/>
</g>
<!-- Node27 -->
<g id="node27" class="node"><title>Node27</title>
<polygon fill="none" stroke="#bfbfbf" points="694,-168.5 694,-187.5 738,-187.5 738,-168.5 694,-168.5"/>
<text text-anchor="middle" x="716" y="-175.5" font-family="Helvetica,sans-Serif" font-size="10.00">cmath</text>
</g>
<!-- Node1&#45;&gt;Node27 -->
<g id="edge40" class="edge"><title>Node1&#45;&gt;Node27</title>
<path fill="none" stroke="midnightblue" d="M570.315,-224.446C609.584,-212.196 654.613,-198.149 684.089,-188.954"/>
<polygon fill="midnightblue" stroke="midnightblue" points="685.327,-192.235 693.831,-185.915 683.243,-185.552 685.327,-192.235"/>
</g>
<!-- Node4&#45;&gt;Node3 -->
<g id="edge6" class="edge"><title>Node4&#45;&gt;Node3</title>
<path fill="none" stroke="midnightblue" d="M269.505,-112.083C269.111,-105.006 268.548,-94.8611 268.055,-85.9865"/>
<polygon fill="midnightblue" stroke="midnightblue" points="271.536,-85.5415 267.486,-75.7511 264.546,-85.9299 271.536,-85.5415"/>
</g>
<!-- Node5 -->
<g id="node5" class="node"><title>Node5</title>
<polygon fill="none" stroke="#bfbfbf" points="164,-56.5 164,-75.5 202,-75.5 202,-56.5 164,-56.5"/>
<text text-anchor="middle" x="183" y="-63.5" font-family="Helvetica,sans-Serif" font-size="10.00">array</text>
</g>
<!-- Node4&#45;&gt;Node5 -->
<g id="edge4" class="edge"><title>Node4&#45;&gt;Node5</title>
<path fill="none" stroke="midnightblue" d="M256.022,-112.324C242.45,-103.9 221.62,-90.9709 205.675,-81.0741"/>
<polygon fill="midnightblue" stroke="midnightblue" points="207.286,-77.9544 196.943,-75.6545 203.594,-83.9019 207.286,-77.9544"/>
</g>
<!-- Node6 -->
<g id="node6" class="node"><title>Node6</title>
<polygon fill="none" stroke="#bfbfbf" points="353.5,-56.5 353.5,-75.5 402.5,-75.5 402.5,-56.5 353.5,-56.5"/>
<text text-anchor="middle" x="378" y="-63.5" font-family="Helvetica,sans-Serif" font-size="10.00">cstddef</text>
</g>
<!-- Node4&#45;&gt;Node6 -->
<g id="edge5" class="edge"><title>Node4&#45;&gt;Node6</title>
<path fill="none" stroke="midnightblue" d="M287.352,-112.324C304.672,-103.664 331.515,-90.2424 351.502,-80.249"/>
<polygon fill="midnightblue" stroke="midnightblue" points="353.312,-83.2572 360.691,-75.6545 350.181,-76.9962 353.312,-83.2572"/>
</g>
<!-- Node7 -->
<g id="node7" class="node"><title>Node7</title>
<polygon fill="none" stroke="#bfbfbf" points="619.5,-0.5 619.5,-19.5 660.5,-19.5 660.5,-0.5 619.5,-0.5"/>
<text text-anchor="middle" x="640" y="-7.5" font-family="Helvetica,sans-Serif" font-size="10.00">string</text>
</g>
<!-- Node4&#45;&gt;Node7 -->
<g id="edge7" class="edge"><title>Node4&#45;&gt;Node7</title>
<path fill="none" stroke="midnightblue" d="M277.106,-112.09C289.168,-97.6556 315.168,-69.4263 344,-56 433.677,-14.2404 553.607,-9.70017 609.249,-10.1196"/>
<polygon fill="midnightblue" stroke="midnightblue" points="609.445,-13.6225 619.492,-10.2601 609.541,-6.62318 609.445,-13.6225"/>
</g>
<!-- Node8 -->
<g id="node8" class="node"><title>Node8</title>
<polygon fill="none" stroke="#bfbfbf" points="607,-56.5 607,-75.5 673,-75.5 673,-56.5 607,-56.5"/>
<text text-anchor="middle" x="640" y="-63.5" font-family="Helvetica,sans-Serif" font-size="10.00">string_view</text>
</g>
<!-- Node4&#45;&gt;Node8 -->
<g id="edge8" class="edge"><title>Node4&#45;&gt;Node8</title>
<path fill="none" stroke="midnightblue" d="M328.628,-112.444C403.288,-101.547 530.55,-82.9738 596.893,-73.2913"/>
<polygon fill="midnightblue" stroke="midnightblue" points="597.61,-76.7238 607,-71.8162 596.599,-69.7972 597.61,-76.7238"/>
</g>
<!-- Node9 -->
<g id="node9" class="node"><title>Node9</title>
<polygon fill="none" stroke="#bfbfbf" points="729,-56.5 729,-75.5 773,-75.5 773,-56.5 729,-56.5"/>
<text text-anchor="middle" x="751" y="-63.5" font-family="Helvetica,sans-Serif" font-size="10.00">vector</text>
</g>
<!-- Node4&#45;&gt;Node9 -->
<g id="edge9" class="edge"><title>Node4&#45;&gt;Node9</title>
<path fill="none" stroke="midnightblue" d="M348.272,-112.943C431.191,-104.292 565.906,-89.9098 682,-76 694.03,-74.5586 707.225,-72.8651 718.826,-71.3384"/>
<polygon fill="midnightblue" stroke="midnightblue" points="719.499,-74.7799 728.952,-69.9952 718.578,-67.8407 719.499,-74.7799"/>
</g>
<!-- Node10&#45;&gt;Node5 -->
<g id="edge38" class="edge"><title>Node10&#45;&gt;Node5</title>
<path fill="none" stroke="midnightblue" d="M479.702,-173.611C382.112,-167.658 202.275,-153.841 183,-132 172.052,-119.594 173.645,-100.076 177.005,-85.6627"/>
<polygon fill="midnightblue" stroke="midnightblue" points="180.429,-86.4105 179.74,-75.8382 173.686,-84.5331 180.429,-86.4105"/>
</g>
<!-- Node10&#45;&gt;Node6 -->
<g id="edge34" class="edge"><title>Node10&#45;&gt;Node6</title>
<path fill="none" stroke="midnightblue" d="M479.654,-171.82C450.3,-166.252 416.99,-154.917 395,-132 383.275,-119.781 379.381,-100.514 378.207,-86.1247"/>
<polygon fill="midnightblue" stroke="midnightblue" points="381.692,-85.6926 377.751,-75.8578 374.699,-86.0032 381.692,-85.6926"/>
</g>
<!-- Node10&#45;&gt;Node7 -->
<g id="edge35" class="edge"><title>Node10&#45;&gt;Node7</title>
<path fill="none" stroke="midnightblue" d="M549.798,-168.285C557.192,-159.625 568.159,-145.693 575,-132 590.772,-100.43 580.391,-86.5838 598,-56 604.304,-45.0514 613.742,-34.6185 622.075,-26.5597"/>
<polygon fill="midnightblue" stroke="midnightblue" points="624.617,-28.9772 629.588,-19.6214 619.867,-23.8346 624.617,-28.9772"/>
</g>
<!-- Node10&#45;&gt;Node9 -->
<g id="edge36" class="edge"><title>Node10&#45;&gt;Node9</title>
<path fill="none" stroke="midnightblue" d="M599.006,-168.488C670.035,-157.609 782.901,-139.311 789,-132 801.978,-116.444 785.314,-95.8996 770.143,-82.1085"/>
<polygon fill="midnightblue" stroke="midnightblue" points="772.383,-79.4188 762.51,-75.5745 767.831,-84.7365 772.383,-79.4188"/>
</g>
<!-- Node11 -->
<g id="node11" class="node"><title>Node11</title>
<g id="a_node11"><a xlink:href="../../d8/d4a/LogParsingHelpers_8h.html" target="_top" xlink:title="Framework/LogParsingHelpers.h">
<polygon fill="none" stroke="black" points="621.5,-112.5 621.5,-131.5 780.5,-131.5 780.5,-112.5 621.5,-112.5"/>
<text text-anchor="middle" x="701" y="-119.5" font-family="Helvetica,sans-Serif" font-size="10.00">Framework/LogParsingHelpers.h</text>
</a>
</g>
</g>
<!-- Node10&#45;&gt;Node11 -->
<g id="edge11" class="edge"><title>Node10&#45;&gt;Node11</title>
<path fill="none" stroke="midnightblue" d="M567.194,-168.444C593.943,-159.359 636.403,-144.939 666.305,-134.783"/>
<polygon fill="midnightblue" stroke="midnightblue" points="667.581,-138.046 675.924,-131.516 665.329,-131.418 667.581,-138.046"/>
</g>
<!-- Node12 -->
<g id="node12" class="node"><title>Node12</title>
<g id="a_node12"><a xlink:href="../../d0/d2c/Metric2DViewIndex_8h.html" target="_top" xlink:title="Framework/Metric2DViewIndex.h">
<polygon fill="none" stroke="black" points="404,-112.5 404,-131.5 566,-131.5 566,-112.5 404,-112.5"/>
<text text-anchor="middle" x="485" y="-119.5" font-family="Helvetica,sans-Serif" font-size="10.00">Framework/Metric2DViewIndex.h</text>
</a>
</g>
</g>
<!-- Node10&#45;&gt;Node12 -->
<g id="edge14" class="edge"><title>Node10&#45;&gt;Node12</title>
<path fill="none" stroke="midnightblue" d="M532.842,-168.324C524.499,-160.42 511.968,-148.548 501.823,-138.938"/>
<polygon fill="midnightblue" stroke="midnightblue" points="503.991,-136.171 494.325,-131.834 499.177,-141.252 503.991,-136.171"/>
</g>
<!-- Node13 -->
<g id="node13" class="node"><title>Node13</title>
<g id="a_node13"><a xlink:href="../../de/d56/Variant_8h.html" target="_top" xlink:title="Framework/Variant.h">
<polygon fill="none" stroke="black" points="1201.5,-112.5 1201.5,-131.5 1308.5,-131.5 1308.5,-112.5 1201.5,-112.5"/>
<text text-anchor="middle" x="1255" y="-119.5" font-family="Helvetica,sans-Serif" font-size="10.00">Framework/Variant.h</text>
</a>
</g>
</g>
<!-- Node10&#45;&gt;Node13 -->
<g id="edge19" class="edge"><title>Node10&#45;&gt;Node13</title>
<path fill="none" stroke="midnightblue" d="M604.316,-168.9C607.25,-168.582 610.156,-168.28 613,-168 824.288,-147.22 1075.62,-132.496 1191.14,-126.286"/>
<polygon fill="midnightblue" stroke="midnightblue" points="1191.43,-129.776 1201.23,-125.747 1191.05,-122.786 1191.43,-129.776"/>
</g>
<!-- Node21 -->
<g id="node21" class="node"><title>Node21</title>
<g id="a_node21"><a xlink:href="../../d9/de0/DeviceState_8h.html" target="_top" xlink:title="Framework/DeviceState.h">
<polygon fill="none" stroke="black" points="836.5,-112.5 836.5,-131.5 967.5,-131.5 967.5,-112.5 836.5,-112.5"/>
<text text-anchor="middle" x="902" y="-119.5" font-family="Helvetica,sans-Serif" font-size="10.00">Framework/DeviceState.h</text>
</a>
</g>
</g>
<!-- Node10&#45;&gt;Node21 -->
<g id="edge27" class="edge"><title>Node10&#45;&gt;Node21</title>
<path fill="none" stroke="midnightblue" d="M599.043,-168.444C663.161,-158.826 767.15,-143.228 835.061,-133.041"/>
<polygon fill="midnightblue" stroke="midnightblue" points="835.854,-136.461 845.224,-131.516 834.815,-129.539 835.854,-136.461"/>
</g>
<!-- Node25 -->
<g id="node25" class="node"><title>Node25</title>
<polygon fill="none" stroke="#bfbfbf" points="1326.5,-112.5 1326.5,-131.5 1377.5,-131.5 1377.5,-112.5 1326.5,-112.5"/>
<text text-anchor="middle" x="1352" y="-119.5" font-family="Helvetica,sans-Serif" font-size="10.00">unistd.h</text>
</g>
<!-- Node10&#45;&gt;Node25 -->
<g id="edge37" class="edge"><title>Node10&#45;&gt;Node25</title>
<path fill="none" stroke="midnightblue" d="M604.31,-168.833C607.245,-168.533 610.153,-168.253 613,-168 922.155,-140.551 1006.22,-179.548 1315.96,-132.02"/>
<polygon fill="midnightblue" stroke="midnightblue" points="1316.78,-135.434 1326.13,-130.441 1315.71,-128.517 1316.78,-135.434"/>
</g>
<!-- Node11&#45;&gt;Node7 -->
<g id="edge12" class="edge"><title>Node11&#45;&gt;Node7</title>
<path fill="none" stroke="midnightblue" d="M699.739,-112.078C697.611,-99.054 692.472,-74.3898 682,-56 675.748,-45.0217 666.314,-34.5864 657.97,-26.5338"/>
<polygon fill="midnightblue" stroke="midnightblue" points="660.17,-23.8023 650.443,-19.6034 655.429,-28.9518 660.17,-23.8023"/>
</g>
<!-- Node11&#45;&gt;Node8 -->
<g id="edge13" class="edge"><title>Node11&#45;&gt;Node8</title>
<path fill="none" stroke="midnightblue" d="M691.199,-112.324C682.182,-104.341 668.594,-92.3128 657.682,-82.6529"/>
<polygon fill="midnightblue" stroke="midnightblue" points="659.787,-79.8416 649.979,-75.8339 655.147,-85.083 659.787,-79.8416"/>
</g>
<!-- Node12&#45;&gt;Node3 -->
<g id="edge15" class="edge"><title>Node12&#45;&gt;Node3</title>
<path fill="none" stroke="midnightblue" d="M450.457,-112.444C411.388,-102.766 347.87,-87.0321 306.766,-76.8503"/>
<polygon fill="midnightblue" stroke="midnightblue" points="307.375,-73.3956 296.827,-74.3884 305.692,-80.1902 307.375,-73.3956"/>
</g>
<!-- Node12&#45;&gt;Node6 -->
<g id="edge16" class="edge"><title>Node12&#45;&gt;Node6</title>
<path fill="none" stroke="midnightblue" d="M467.809,-112.324C450.649,-103.664 424.054,-90.2424 404.253,-80.249"/>
<polygon fill="midnightblue" stroke="midnightblue" points="405.653,-77.0354 395.149,-75.6545 402.499,-83.2847 405.653,-77.0354"/>
</g>
<!-- Node12&#45;&gt;Node7 -->
<g id="edge17" class="edge"><title>Node12&#45;&gt;Node7</title>
<path fill="none" stroke="midnightblue" d="M494.992,-112.104C509.788,-99.113 538.623,-74.4892 565,-56 581.218,-44.6319 600.379,-33.1665 615.274,-24.654"/>
<polygon fill="midnightblue" stroke="midnightblue" points="617.385,-27.4814 624.372,-19.5171 613.943,-21.3858 617.385,-27.4814"/>
</g>
<!-- Node12&#45;&gt;Node9 -->
<g id="edge18" class="edge"><title>Node12&#45;&gt;Node9</title>
<path fill="none" stroke="midnightblue" d="M527.148,-112.444C580.512,-101.61 671.253,-83.1892 719.174,-73.4609"/>
<polygon fill="midnightblue" stroke="midnightblue" points="719.896,-76.8859 729,-71.4662 718.503,-70.0258 719.896,-76.8859"/>
</g>
<!-- Node14 -->
<g id="node14" class="node"><title>Node14</title>
<polygon fill="none" stroke="#bfbfbf" points="1088,-56.5 1088,-75.5 1150,-75.5 1150,-56.5 1088,-56.5"/>
<text text-anchor="middle" x="1119" y="-63.5" font-family="Helvetica,sans-Serif" font-size="10.00">type_traits</text>
</g>
<!-- Node13&#45;&gt;Node14 -->
<g id="edge20" class="edge"><title>Node13&#45;&gt;Node14</title>
<path fill="none" stroke="midnightblue" d="M1233.45,-112.444C1210.97,-103.517 1175.51,-89.4387 1150.02,-79.3168"/>
<polygon fill="midnightblue" stroke="midnightblue" points="1151.03,-75.9539 1140.45,-75.5164 1148.45,-82.4598 1151.03,-75.9539"/>
</g>
<!-- Node15 -->
<g id="node15" class="node"><title>Node15</title>
<polygon fill="none" stroke="#bfbfbf" points="1168,-56.5 1168,-75.5 1214,-75.5 1214,-56.5 1168,-56.5"/>
<text text-anchor="middle" x="1191" y="-63.5" font-family="Helvetica,sans-Serif" font-size="10.00">cstring</text>
</g>
<!-- Node13&#45;&gt;Node15 -->
<g id="edge21" class="edge"><title>Node13&#45;&gt;Node15</title>
<path fill="none" stroke="midnightblue" d="M1244.72,-112.324C1235.16,-104.263 1220.72,-92.0765 1209.22,-82.3695"/>
<polygon fill="midnightblue" stroke="midnightblue" points="1211.37,-79.6076 1201.47,-75.8339 1206.86,-84.9577 1211.37,-79.6076"/>
</g>
<!-- Node16 -->
<g id="node16" class="node"><title>Node16</title>
<polygon fill="none" stroke="#bfbfbf" points="1232,-56.5 1232,-75.5 1278,-75.5 1278,-56.5 1232,-56.5"/>
<text text-anchor="middle" x="1255" y="-63.5" font-family="Helvetica,sans-Serif" font-size="10.00">cstdint</text>
</g>
<!-- Node13&#45;&gt;Node16 -->
<g id="edge22" class="edge"><title>Node13&#45;&gt;Node16</title>
<path fill="none" stroke="midnightblue" d="M1255,-112.083C1255,-105.006 1255,-94.8611 1255,-85.9865"/>
<polygon fill="midnightblue" stroke="midnightblue" points="1258.5,-85.751 1255,-75.7511 1251.5,-85.7511 1258.5,-85.751"/>
</g>
<!-- Node17 -->
<g id="node17" class="node"><title>Node17</title>
<polygon fill="none" stroke="#bfbfbf" points="1296.5,-56.5 1296.5,-75.5 1341.5,-75.5 1341.5,-56.5 1296.5,-56.5"/>
<text text-anchor="middle" x="1319" y="-63.5" font-family="Helvetica,sans-Serif" font-size="10.00">cstdlib</text>
</g>
<!-- Node13&#45;&gt;Node17 -->
<g id="edge23" class="edge"><title>Node13&#45;&gt;Node17</title>
<path fill="none" stroke="midnightblue" d="M1265.28,-112.324C1274.84,-104.263 1289.28,-92.0765 1300.78,-82.3695"/>
<polygon fill="midnightblue" stroke="midnightblue" points="1303.14,-84.9577 1308.53,-75.8339 1298.63,-79.6076 1303.14,-84.9577"/>
</g>
<!-- Node18 -->
<g id="node18" class="node"><title>Node18</title>
<polygon fill="none" stroke="#bfbfbf" points="1359.5,-56.5 1359.5,-75.5 1418.5,-75.5 1418.5,-56.5 1359.5,-56.5"/>
<text text-anchor="middle" x="1389" y="-63.5" font-family="Helvetica,sans-Serif" font-size="10.00">stdexcept</text>
</g>
<!-- Node13&#45;&gt;Node18 -->
<g id="edge24" class="edge"><title>Node13&#45;&gt;Node18</title>
<path fill="none" stroke="midnightblue" d="M1276.23,-112.444C1298.38,-103.517 1333.32,-89.4387 1358.44,-79.3168"/>
<polygon fill="midnightblue" stroke="midnightblue" points="1359.9,-82.5006 1367.87,-75.5164 1357.28,-76.0079 1359.9,-82.5006"/>
</g>
<!-- Node19 -->
<g id="node19" class="node"><title>Node19</title>
<polygon fill="none" stroke="#bfbfbf" points="1436.5,-56.5 1436.5,-75.5 1481.5,-75.5 1481.5,-56.5 1436.5,-56.5"/>
<text text-anchor="middle" x="1459" y="-63.5" font-family="Helvetica,sans-Serif" font-size="10.00">iosfwd</text>
</g>
<!-- Node13&#45;&gt;Node19 -->
<g id="edge25" class="edge"><title>Node13&#45;&gt;Node19</title>
<path fill="none" stroke="midnightblue" d="M1288.89,-112.485C1321.77,-104.155 1373.33,-90.922 1426.41,-76.3881"/>
<polygon fill="midnightblue" stroke="midnightblue" points="1427.62,-79.6856 1436.33,-73.66 1425.76,-72.936 1427.62,-79.6856"/>
</g>
<!-- Node20 -->
<g id="node20" class="node"><title>Node20</title>
<polygon fill="none" stroke="#bfbfbf" points="1499.5,-56.5 1499.5,-75.5 1572.5,-75.5 1572.5,-56.5 1499.5,-56.5"/>
<text text-anchor="middle" x="1536" y="-63.5" font-family="Helvetica,sans-Serif" font-size="10.00">initializer_list</text>
</g>
<!-- Node13&#45;&gt;Node20 -->
<g id="edge26" class="edge"><title>Node13&#45;&gt;Node20</title>
<path fill="none" stroke="midnightblue" d="M1300.27,-112.494C1345.66,-103.936 1417.83,-90.2527 1489.12,-76.3561"/>
<polygon fill="midnightblue" stroke="midnightblue" points="1490.02,-79.7454 1499.17,-74.3943 1488.68,-72.8751 1490.02,-79.7454"/>
</g>
<!-- Node21&#45;&gt;Node7 -->
<g id="edge31" class="edge"><title>Node21&#45;&gt;Node7</title>
<path fill="none" stroke="midnightblue" d="M886.195,-112.336C854.846,-95.1656 787.343,-58.2694 782,-56 744.689,-40.1522 699.831,-26.8405 670.657,-18.9008"/>
<polygon fill="midnightblue" stroke="midnightblue" points="671.226,-15.43 660.661,-16.2239 669.415,-22.1917 671.226,-15.43"/>
</g>
<!-- Node21&#45;&gt;Node9 -->
<g id="edge30" class="edge"><title>Node21&#45;&gt;Node9</title>
<path fill="none" stroke="midnightblue" d="M878.074,-112.444C852.335,-103.239 811.278,-88.5565 782.829,-78.3826"/>
<polygon fill="midnightblue" stroke="midnightblue" points="783.932,-75.0601 773.338,-74.9883 781.575,-81.6513 783.932,-75.0601"/>
</g>
<!-- Node22 -->
<g id="node22" class="node"><title>Node22</title>
<g id="a_node22"><a xlink:href="../../dd/de5/ChannelInfo_8h.html" target="_top" xlink:title="Framework/ChannelInfo.h">
<polygon fill="none" stroke="black" points="829.5,-56.5 829.5,-75.5 958.5,-75.5 958.5,-56.5 829.5,-56.5"/>
<text text-anchor="middle" x="894" y="-63.5" font-family="Helvetica,sans-Serif" font-size="10.00">Framework/ChannelInfo.h</text>
</a>
</g>
</g>
<!-- Node21&#45;&gt;Node22 -->
<g id="edge28" class="edge"><title>Node21&#45;&gt;Node22</title>
<path fill="none" stroke="midnightblue" d="M900.679,-112.083C899.619,-104.927 898.094,-94.6353 896.769,-85.6911"/>
<polygon fill="midnightblue" stroke="midnightblue" points="900.224,-85.1302 895.296,-75.7511 893.3,-86.1561 900.224,-85.1302"/>
</g>
<!-- Node23 -->
<g id="node23" class="node"><title>Node23</title>
<polygon fill="none" stroke="#bfbfbf" points="976.5,-56.5 976.5,-75.5 1011.5,-75.5 1011.5,-56.5 976.5,-56.5"/>
<text text-anchor="middle" x="994" y="-63.5" font-family="Helvetica,sans-Serif" font-size="10.00">map</text>
</g>
<!-- Node21&#45;&gt;Node23 -->
<g id="edge32" class="edge"><title>Node21&#45;&gt;Node23</title>
<path fill="none" stroke="midnightblue" d="M916.781,-112.324C931.267,-103.822 953.573,-90.7288 970.493,-80.7975"/>
<polygon fill="midnightblue" stroke="midnightblue" points="972.403,-83.735 979.255,-75.6545 968.859,-77.6981 972.403,-83.735"/>
</g>
<!-- Node24 -->
<g id="node24" class="node"><title>Node24</title>
<polygon fill="none" stroke="#bfbfbf" points="1030,-56.5 1030,-75.5 1070,-75.5 1070,-56.5 1030,-56.5"/>
<text text-anchor="middle" x="1050" y="-63.5" font-family="Helvetica,sans-Serif" font-size="10.00">utility</text>
</g>
<!-- Node21&#45;&gt;Node24 -->
<g id="edge33" class="edge"><title>Node21&#45;&gt;Node24</title>
<path fill="none" stroke="midnightblue" d="M925.451,-112.444C951.149,-103.067 992.426,-88.0068 1020.35,-77.818"/>
<polygon fill="midnightblue" stroke="midnightblue" points="1021.79,-81.0198 1029.98,-74.3042 1019.39,-74.4439 1021.79,-81.0198"/>
</g>
<!-- Node22&#45;&gt;Node7 -->
<g id="edge29" class="edge"><title>Node22&#45;&gt;Node7</title>
<path fill="none" stroke="midnightblue" d="M853.753,-56.4435C802.881,-45.6282 716.434,-27.2498 670.616,-17.509"/>
<polygon fill="midnightblue" stroke="midnightblue" points="671.194,-14.0537 660.685,-15.3976 669.738,-20.9007 671.194,-14.0537"/>
</g>
</g>
</svg>
        <g id="navigator" transform="translate(0 0)" fill="#404254">
                <rect fill="#f2f5e9" fill-opacity="0.5" stroke="#606060" stroke-width=".5" x="0" y="0" width="60" height="60"/>
                <use id="zoomplus" xlink:href="#zoomPlus" x="17" y="9" onmousedown="handleZoom(evt,'in')"/>
                <use id="zoomminus" xlink:href="#zoomMin" x="42" y="9" onmousedown="handleZoom(evt,'out')"/>
                <use id="reset" xlink:href="#resetDef" x="30" y="36" onmousedown="handleReset()"/>
                <g id="arrowUp" xlink:href="#dirArrow" transform="translate(30 24)" onmousedown="handlePan(0,-1)">
                  <use xlink:href="#rim" fill="#404040">
                        <set attributeName="fill" to="#808080" begin="arrowUp.mouseover" end="arrowUp.mouseout"/>
                  </use>
                  <path fill="none" stroke="white" stroke-width="1.5" d="M0,-3.0v7 M-2.5,-0.5L0,-3.0L2.5,-0.5"/>
                </g>
                <g id="arrowRight" xlink:href="#dirArrow" transform="rotate(90) translate(36 -43)" onmousedown="handlePan(1,0)">
                  <use xlink:href="#rim" fill="#404040">
                        <set attributeName="fill" to="#808080" begin="arrowRight.mouseover" end="arrowRight.mouseout"/>
                  </use>
                  <path fill="none" stroke="white" stroke-width="1.5" d="M0,-3.0v7 M-2.5,-0.5L0,-3.0L2.5,-0.5"/>
                </g>
                <g id="arrowDown" xlink:href="#dirArrow" transform="rotate(180) translate(-30 -48)" onmousedown="handlePan(0,1)">
                  <use xlink:href="#rim" fill="#404040">
                        <set attributeName="fill" to="#808080" begin="arrowDown.mouseover" end="arrowDown.mouseout"/>
                  </use>
                  <path fill="none" stroke="white" stroke-width="1.5" d="M0,-3.0v7 M-2.5,-0.5L0,-3.0L2.5,-0.5"/>
                </g>
                <g id="arrowLeft" xlink:href="#dirArrow" transform="rotate(270) translate(-36 17)" onmousedown="handlePan(-1,0)">
                  <use xlink:href="#rim" fill="#404040">
                        <set attributeName="fill" to="#808080" begin="arrowLeft.mouseover" end="arrowLeft.mouseout"/>
                  </use>
                  <path fill="none" stroke="white" stroke-width="1.5" d="M0,-3.0v7 M-2.5,-0.5L0,-3.0L2.5,-0.5"/>
                </g>
        </g>
        <svg viewBox="0 0 15 15" width="100%" height="30px" preserveAspectRatio="xMaxYMin meet">
         <g id="arrow_out" transform="scale(0.3 0.3)">
          <a xlink:href="FrameworkGUIDataRelayerUsage_8cxx__incl_org.svg" target="_base">
           <rect id="button" ry="5" rx="5" y="6" x="6" height="38" width="38"
                fill="#f2f5e9" fill-opacity="0.5" stroke="#606060" stroke-width="1.0"/>
           <path id="arrow"
             d="M 11.500037,31.436501 C 11.940474,20.09759 22.043105,11.32322 32.158766,21.979434 L 37.068811,17.246167 C 37.068811,17.246167 37.088388,32 37.088388,32 L 22.160133,31.978069 C 22.160133,31.978069 26.997745,27.140456 26.997745,27.140456 C 18.528582,18.264221 13.291696,25.230495 11.500037,31.436501 z"
             style="fill:#404040;"/>
          </a>
         </g>
        </svg>
</svg>
