<?xml version="1.0" encoding="UTF-8" standalone="no"?>
<!DOCTYPE svg PUBLIC "-//W3C//DTD SVG 1.1//EN"
 "http://www.w3.org/Graphics/SVG/1.1/DTD/svg11.dtd">
<!-- Generated by graphviz version 2.38.0 (20140413.2041)
 -->
<!-- Title: o2::trd::CalROC Pages: 1 -->
<svg width="284pt" height="523pt"
 viewBox="0.00 0.00 283.50 523.00" xmlns="http://www.w3.org/2000/svg" xmlns:xlink="http://www.w3.org/1999/xlink">
<g id="graph0" class="graph" transform="scale(1 1) rotate(0) translate(4 519)">
<title>o2::trd::CalROC</title>
<!-- Node1 -->
<g id="node1" class="node"><title>Node1</title>
<polygon fill="#bfbfbf" stroke="black" points="106.5,-0.5 106.5,-365.5 208.5,-365.5 208.5,-0.5 106.5,-0.5"/>
<text text-anchor="middle" x="157.5" y="-353.5" font-family="Helvetica,sans-Serif" font-size="10.00">o2::trd::CalROC</text>
<polyline fill="none" stroke="black" points="106.5,-346.5 208.5,-346.5 "/>
<text text-anchor="middle" x="157.5" y="-334.5" font-family="Helvetica,sans-Serif" font-size="10.00"> </text>
<polyline fill="none" stroke="black" points="106.5,-327.5 208.5,-327.5 "/>
<text text-anchor="start" x="114.5" y="-315.5" font-family="Helvetica,sans-Serif" font-size="10.00">+ CalROC()</text>
<text text-anchor="start" x="114.5" y="-304.5" font-family="Helvetica,sans-Serif" font-size="10.00">+ CalROC()</text>
<text text-anchor="start" x="114.5" y="-293.5" font-family="Helvetica,sans-Serif" font-size="10.00">+ ~CalROC()</text>
<text text-anchor="start" x="114.5" y="-282.5" font-family="Helvetica,sans-Serif" font-size="10.00">+ getNrows()</text>
<text text-anchor="start" x="114.5" y="-271.5" font-family="Helvetica,sans-Serif" font-size="10.00">+ getNcols()</text>
<text text-anchor="start" x="114.5" y="-260.5" font-family="Helvetica,sans-Serif" font-size="10.00">+ getChannel()</text>
<text text-anchor="start" x="114.5" y="-249.5" font-family="Helvetica,sans-Serif" font-size="10.00">+ getNchannels()</text>
<text text-anchor="start" x="114.5" y="-238.5" font-family="Helvetica,sans-Serif" font-size="10.00">+ getValue()</text>
<text text-anchor="start" x="114.5" y="-227.5" font-family="Helvetica,sans-Serif" font-size="10.00">+ getValue()</text>
<text text-anchor="start" x="114.5" y="-216.5" font-family="Helvetica,sans-Serif" font-size="10.00">+ setValue()</text>
<text text-anchor="start" x="114.5" y="-205.5" font-family="Helvetica,sans-Serif" font-size="10.00">+ setValue()</text>
<text text-anchor="start" x="114.5" y="-194.5" font-family="Helvetica,sans-Serif" font-size="10.00">+ setName()</text>
<text text-anchor="start" x="114.5" y="-183.5" font-family="Helvetica,sans-Serif" font-size="10.00">+ setTitle()</text>
<text text-anchor="start" x="114.5" y="-172.5" font-family="Helvetica,sans-Serif" font-size="10.00">+ getName()</text>
<text text-anchor="start" x="114.5" y="-161.5" font-family="Helvetica,sans-Serif" font-size="10.00">+ getTitle()</text>
<text text-anchor="start" x="114.5" y="-150.5" font-family="Helvetica,sans-Serif" font-size="10.00">+ getMean()</text>
<text text-anchor="start" x="114.5" y="-139.5" font-family="Helvetica,sans-Serif" font-size="10.00">+ getMeanNotNull()</text>
<text text-anchor="start" x="114.5" y="-128.5" font-family="Helvetica,sans-Serif" font-size="10.00">+ getRMS()</text>
<text text-anchor="start" x="114.5" y="-117.5" font-family="Helvetica,sans-Serif" font-size="10.00">+ getRMSNotNull()</text>
<text text-anchor="start" x="114.5" y="-106.5" font-family="Helvetica,sans-Serif" font-size="10.00">+ getMedian()</text>
<text text-anchor="start" x="114.5" y="-95.5" font-family="Helvetica,sans-Serif" font-size="10.00">+ getLTM()</text>
<text text-anchor="start" x="114.5" y="-84.5" font-family="Helvetica,sans-Serif" font-size="10.00">+ add()</text>
<text text-anchor="start" x="114.5" y="-73.5" font-family="Helvetica,sans-Serif" font-size="10.00">+ multiply()</text>
<text text-anchor="start" x="114.5" y="-62.5" font-family="Helvetica,sans-Serif" font-size="10.00">+ add()</text>
<text text-anchor="start" x="114.5" y="-51.5" font-family="Helvetica,sans-Serif" font-size="10.00">+ multiply()</text>
<text text-anchor="start" x="114.5" y="-40.5" font-family="Helvetica,sans-Serif" font-size="10.00">+ divide()</text>
<text text-anchor="start" x="114.5" y="-29.5" font-family="Helvetica,sans-Serif" font-size="10.00">+ unfold()</text>
<text text-anchor="start" x="114.5" y="-18.5" font-family="Helvetica,sans-Serif" font-size="10.00">+ makeHisto2D()</text>
<text text-anchor="start" x="114.5" y="-7.5" font-family="Helvetica,sans-Serif" font-size="10.00">+ makeHisto1D()</text>
</g>
<!-- Node2 -->
<g id="node2" class="node"><title>Node2</title>
<polygon fill="none" stroke="#bfbfbf" points="0,-457.5 0,-514.5 125,-514.5 125,-457.5 0,-457.5"/>
<text text-anchor="middle" x="62.5" y="-502.5" font-family="Helvetica,sans-Serif" font-size="10.00">vector&lt; unsigned short &gt;</text>
<polyline fill="none" stroke="#bfbfbf" points="0,-495.5 125,-495.5 "/>
<text text-anchor="middle" x="62.5" y="-483.5" font-family="Helvetica,sans-Serif" font-size="10.00"> </text>
<polyline fill="none" stroke="#bfbfbf" points="0,-476.5 125,-476.5 "/>
<text text-anchor="middle" x="62.5" y="-464.5" font-family="Helvetica,sans-Serif" font-size="10.00"> </text>
</g>
<!-- Node2&#45;&gt;Node1 -->
<g id="edge1" class="edge"><title>Node2&#45;&gt;Node1</title>
<path fill="none" stroke="#404040" d="M71.1825,-457.49C78.749,-433.516 90.4186,-396.542 102.756,-357.453"/>
<polygon fill="none" stroke="#404040" points="102.814,-357.269 100.805,-350.343 106.425,-345.826 108.434,-352.751 102.814,-357.269"/>
<text text-anchor="middle" x="112.5" y="-409" font-family="Helvetica,sans-Serif" font-size="10.00"> #mData</text>
</g>
<!-- Node3 -->
<g id="node3" class="node"><title>Node3</title>
<polygon fill="none" stroke="#bfbfbf" points="143,-457.5 143,-514.5 172,-514.5 172,-457.5 143,-457.5"/>
<text text-anchor="middle" x="157.5" y="-502.5" font-family="Helvetica,sans-Serif" font-size="10.00">int</text>
<polyline fill="none" stroke="#bfbfbf" points="143,-495.5 172,-495.5 "/>
<text text-anchor="middle" x="157.5" y="-483.5" font-family="Helvetica,sans-Serif" font-size="10.00"> </text>
<polyline fill="none" stroke="#bfbfbf" points="143,-476.5 172,-476.5 "/>
<text text-anchor="middle" x="157.5" y="-464.5" font-family="Helvetica,sans-Serif" font-size="10.00"> </text>
</g>
<!-- Node3&#45;&gt;Node1 -->
<g id="edge2" class="edge"><title>Node3&#45;&gt;Node1</title>
<path fill="none" stroke="#404040" d="M157.5,-457.49C157.5,-437.737 157.5,-409.158 157.5,-377.842"/>
<polygon fill="none" stroke="#404040" points="157.5,-377.718 153.5,-371.718 157.5,-365.718 161.5,-371.718 157.5,-377.718"/>
<text text-anchor="middle" x="188" y="-431" font-family="Helvetica,sans-Serif" font-size="10.00"> #mNrows</text>
<text text-anchor="middle" x="188" y="-420" font-family="Helvetica,sans-Serif" font-size="10.00">#mCha</text>
<text text-anchor="middle" x="188" y="-409" font-family="Helvetica,sans-Serif" font-size="10.00">#mNchannels</text>
<text text-anchor="middle" x="188" y="-398" font-family="Helvetica,sans-Serif" font-size="10.00">#mNcols</text>
<text text-anchor="middle" x="188" y="-387" font-family="Helvetica,sans-Serif" font-size="10.00">#mPla</text>
</g>
<!-- Node4 -->
<g id="node4" class="node"><title>Node4</title>
<polygon fill="none" stroke="#bfbfbf" points="221,-457.5 221,-514.5 262,-514.5 262,-457.5 221,-457.5"/>
<text text-anchor="middle" x="241.5" y="-502.5" font-family="Helvetica,sans-Serif" font-size="10.00">string</text>
<polyline fill="none" stroke="#bfbfbf" points="221,-495.5 262,-495.5 "/>
<text text-anchor="middle" x="241.5" y="-483.5" font-family="Helvetica,sans-Serif" font-size="10.00"> </text>
<polyline fill="none" stroke="#bfbfbf" points="221,-476.5 262,-476.5 "/>
<text text-anchor="middle" x="241.5" y="-464.5" font-family="Helvetica,sans-Serif" font-size="10.00"> </text>
</g>
<!-- Node4&#45;&gt;Node1 -->
<g id="edge3" class="edge"><title>Node4&#45;&gt;Node1</title>
<path fill="none" stroke="#404040" d="M236.159,-457.412C232.05,-437.023 225.991,-408.643 219.5,-384 217.081,-374.815 214.51,-365.422 211.843,-355.959"/>
<polygon fill="none" stroke="#404040" points="211.835,-355.931 206.344,-351.257 208.546,-344.391 214.037,-349.065 211.835,-355.931"/>
<text text-anchor="middle" x="254" y="-414.5" font-family="Helvetica,sans-Serif" font-size="10.00"> #mName</text>
<text text-anchor="middle" x="254" y="-403.5" font-family="Helvetica,sans-Serif" font-size="10.00">#mTitle</text>
</g>
</g>
</svg>
