<?xml version="1.0" encoding="UTF-8" standalone="no"?>
<!DOCTYPE svg PUBLIC "-//W3C//DTD SVG 1.1//EN"
 "http://www.w3.org/Graphics/SVG/1.1/DTD/svg11.dtd">
<!-- Generated by graphviz version 2.38.0 (20140413.2041)
 -->
<!-- Title: /home/travis/build/AliceO2Group/AliceO2/Detectors/MUON/MID/Raw/src/RawBuffer.cxx Pages: 1 -->
<svg width="453pt" height="229pt"
 viewBox="0.00 0.00 452.67 229.00" xmlns="http://www.w3.org/2000/svg" xmlns:xlink="http://www.w3.org/1999/xlink">
<g id="graph0" class="graph" transform="scale(1 1) rotate(0) translate(4 225)">
<title>/home/travis/build/AliceO2Group/AliceO2/Detectors/MUON/MID/Raw/src/RawBuffer.cxx</title>
<!-- Node1 -->
<g id="node1" class="node"><title>Node1</title>
<polygon fill="#bfbfbf" stroke="black" points="239.17,-168.5 239.17,-220.5 380.17,-220.5 380.17,-168.5 239.17,-168.5"/>
<text text-anchor="start" x="247.17" y="-208.5" font-family="Helvetica,sans-Serif" font-size="10.00">/home/travis/build</text>
<text text-anchor="start" x="247.17" y="-197.5" font-family="Helvetica,sans-Serif" font-size="10.00">/AliceO2Group/AliceO2</text>
<text text-anchor="start" x="247.17" y="-186.5" font-family="Helvetica,sans-Serif" font-size="10.00">/Detectors/MUON/MID/Raw</text>
<text text-anchor="middle" x="309.67" y="-175.5" font-family="Helvetica,sans-Serif" font-size="10.00">/src/RawBuffer.cxx</text>
</g>
<!-- Node2 -->
<g id="node2" class="node"><title>Node2</title>
<g id="a_node2"><a xlink:href="../../db/d21/MUON_2MID_2Raw_2include_2MIDRaw_2RawBuffer_8h.html" target="_top" xlink:title="Handler of the RAW buffer. ">
<polygon fill="none" stroke="black" points="43.1703,-112.5 43.1703,-131.5 156.17,-131.5 156.17,-112.5 43.1703,-112.5"/>
<text text-anchor="middle" x="99.6703" y="-119.5" font-family="Helvetica,sans-Serif" font-size="10.00">MIDRaw/RawBuffer.h</text>
</a>
</g>
</g>
<!-- Node1&#45;&gt;Node2 -->
<g id="edge1" class="edge"><title>Node1&#45;&gt;Node2</title>
<path fill="none" stroke="midnightblue" d="M239.159,-169.828C203.985,-158.02 163.003,-144.262 134.602,-134.727"/>
<polygon fill="midnightblue" stroke="midnightblue" points="135.705,-131.405 125.111,-131.541 133.477,-138.041 135.705,-131.405"/>
</g>
<!-- Node7 -->
<g id="node7" class="node"><title>Node7</title>
<g id="a_node7"><a xlink:href="../../df/db7/RawUnit_8h.html" target="_top" xlink:title="Raw data format MID. ">
<polygon fill="none" stroke="black" points="257.17,-112.5 257.17,-131.5 362.17,-131.5 362.17,-112.5 257.17,-112.5"/>
<text text-anchor="middle" x="309.67" y="-119.5" font-family="Helvetica,sans-Serif" font-size="10.00">MIDRaw/RawUnit.h</text>
</a>
</g>
</g>
<!-- Node1&#45;&gt;Node7 -->
<g id="edge7" class="edge"><title>Node1&#45;&gt;Node7</title>
<path fill="none" stroke="midnightblue" d="M309.67,-168.446C309.67,-159.73 309.67,-150.104 309.67,-141.964"/>
<polygon fill="midnightblue" stroke="midnightblue" points="313.17,-141.695 309.67,-131.695 306.17,-141.696 313.17,-141.695"/>
</g>
<!-- Node9 -->
<g id="node9" class="node"><title>Node9</title>
<g id="a_node9"><a xlink:href="../../d7/d1a/RawInfo_8h.html" target="_top" xlink:title="Raw data format MID. ">
<polygon fill="none" stroke="black" points="382.67,-112.5 382.67,-131.5 444.67,-131.5 444.67,-112.5 382.67,-112.5"/>
<text text-anchor="middle" x="413.67" y="-119.5" font-family="Helvetica,sans-Serif" font-size="10.00">RawInfo.h</text>
</a>
</g>
</g>
<!-- Node1&#45;&gt;Node9 -->
<g id="edge11" class="edge"><title>Node1&#45;&gt;Node9</title>
<path fill="none" stroke="midnightblue" d="M346.63,-168.446C361.999,-158.027 379.287,-146.308 392.457,-137.38"/>
<polygon fill="midnightblue" stroke="midnightblue" points="394.529,-140.204 400.843,-131.695 390.602,-134.41 394.529,-140.204"/>
</g>
<!-- Node3 -->
<g id="node3" class="node"><title>Node3</title>
<polygon fill="none" stroke="#bfbfbf" points="236.67,-0.5 236.67,-19.5 282.67,-19.5 282.67,-0.5 236.67,-0.5"/>
<text text-anchor="middle" x="259.67" y="-7.5" font-family="Helvetica,sans-Serif" font-size="10.00">cstdint</text>
</g>
<!-- Node2&#45;&gt;Node3 -->
<g id="edge2" class="edge"><title>Node2&#45;&gt;Node3</title>
<path fill="none" stroke="midnightblue" d="M67.0157,-112.484C31.9934,-101.792 -15.8729,-81.6953 5.67027,-56 33.4814,-22.8287 164.131,-14.0947 226.444,-11.8063"/>
<polygon fill="midnightblue" stroke="midnightblue" points="226.662,-15.3011 236.54,-11.4704 226.429,-8.305 226.662,-15.3011"/>
</g>
<!-- Node4 -->
<g id="node4" class="node"><title>Node4</title>
<polygon fill="none" stroke="#bfbfbf" points="14.6703,-56.5 14.6703,-75.5 58.6703,-75.5 58.6703,-56.5 14.6703,-56.5"/>
<text text-anchor="middle" x="36.6703" y="-63.5" font-family="Helvetica,sans-Serif" font-size="10.00">vector</text>
</g>
<!-- Node2&#45;&gt;Node4 -->
<g id="edge3" class="edge"><title>Node2&#45;&gt;Node4</title>
<path fill="none" stroke="midnightblue" d="M89.5482,-112.324C80.1439,-104.263 65.9262,-92.0765 54.6013,-82.3695"/>
<polygon fill="midnightblue" stroke="midnightblue" points="56.8469,-79.6844 46.9765,-75.8339 52.2913,-84.9993 56.8469,-79.6844"/>
</g>
<!-- Node5 -->
<g id="node5" class="node"><title>Node5</title>
<polygon fill="none" stroke="#bfbfbf" points="77.1703,-56.5 77.1703,-75.5 122.17,-75.5 122.17,-56.5 77.1703,-56.5"/>
<text text-anchor="middle" x="99.6703" y="-63.5" font-family="Helvetica,sans-Serif" font-size="10.00">gsl/gsl</text>
</g>
<!-- Node2&#45;&gt;Node5 -->
<g id="edge4" class="edge"><title>Node2&#45;&gt;Node5</title>
<path fill="none" stroke="midnightblue" d="M99.6703,-112.083C99.6703,-105.006 99.6703,-94.8611 99.6703,-85.9865"/>
<polygon fill="midnightblue" stroke="midnightblue" points="103.17,-85.751 99.6703,-75.7511 96.1704,-85.7511 103.17,-85.751"/>
</g>
<!-- Node6 -->
<g id="node6" class="node"><title>Node6</title>
<g id="a_node6"><a xlink:href="../../d4/d78/DataFormats_2Headers_2include_2Headers_2RAWDataHeader_8h.html" target="_top" xlink:title="Headers/RAWDataHeader.h">
<polygon fill="none" stroke="black" points="140.17,-56.5 140.17,-75.5 281.17,-75.5 281.17,-56.5 140.17,-56.5"/>
<text text-anchor="middle" x="210.67" y="-63.5" font-family="Helvetica,sans-Serif" font-size="10.00">Headers/RAWDataHeader.h</text>
</a>
</g>
</g>
<!-- Node2&#45;&gt;Node6 -->
<g id="edge5" class="edge"><title>Node2&#45;&gt;Node6</title>
<path fill="none" stroke="midnightblue" d="M117.504,-112.324C135.386,-103.625 163.145,-90.1202 183.716,-80.113"/>
<polygon fill="midnightblue" stroke="midnightblue" points="185.419,-83.1765 192.88,-75.6545 182.357,-76.8819 185.419,-83.1765"/>
</g>
<!-- Node6&#45;&gt;Node3 -->
<g id="edge6" class="edge"><title>Node6&#45;&gt;Node3</title>
<path fill="none" stroke="midnightblue" d="M218.762,-56.083C225.826,-48.2982 236.258,-36.8015 244.819,-27.3665"/>
<polygon fill="midnightblue" stroke="midnightblue" points="247.602,-29.5087 251.729,-19.7511 242.418,-24.8047 247.602,-29.5087"/>
</g>
<!-- Node7&#45;&gt;Node3 -->
<g id="edge8" class="edge"><title>Node7&#45;&gt;Node3</title>
<path fill="none" stroke="midnightblue" d="M307.839,-112.291C304.97,-99.5341 298.785,-75.1985 289.67,-56 284.989,-46.1396 278.373,-35.9551 272.545,-27.7741"/>
<polygon fill="midnightblue" stroke="midnightblue" points="275.2,-25.4781 266.444,-19.5129 269.569,-29.6364 275.2,-25.4781"/>
</g>
<!-- Node7&#45;&gt;Node6 -->
<g id="edge10" class="edge"><title>Node7&#45;&gt;Node6</title>
<path fill="none" stroke="midnightblue" d="M293.764,-112.324C278.032,-103.743 253.728,-90.486 235.461,-80.5224"/>
<polygon fill="midnightblue" stroke="midnightblue" points="236.992,-77.3704 226.537,-75.6545 233.64,-83.5157 236.992,-77.3704"/>
</g>
<!-- Node8 -->
<g id="node8" class="node"><title>Node8</title>
<polygon fill="none" stroke="#bfbfbf" points="338.17,-56.5 338.17,-75.5 387.17,-75.5 387.17,-56.5 338.17,-56.5"/>
<text text-anchor="middle" x="362.67" y="-63.5" font-family="Helvetica,sans-Serif" font-size="10.00">cstddef</text>
</g>
<!-- Node7&#45;&gt;Node8 -->
<g id="edge9" class="edge"><title>Node7&#45;&gt;Node8</title>
<path fill="none" stroke="midnightblue" d="M318.422,-112.083C326.14,-104.22 337.575,-92.5688 346.887,-83.0813"/>
<polygon fill="midnightblue" stroke="midnightblue" points="349.574,-85.3396 354.081,-75.7511 344.579,-80.4363 349.574,-85.3396"/>
</g>
<!-- Node9&#45;&gt;Node3 -->
<g id="edge12" class="edge"><title>Node9&#45;&gt;Node3</title>
<path fill="none" stroke="midnightblue" d="M413.725,-112.171C413.324,-98.3577 410.524,-71.6064 395.67,-56 368.829,-27.7993 323.96,-17.2611 293.148,-13.3293"/>
<polygon fill="midnightblue" stroke="midnightblue" points="293.212,-9.81519 282.888,-12.196 292.444,-16.7729 293.212,-9.81519"/>
</g>
</g>
</svg>
