<?xml version="1.0" encoding="UTF-8" standalone="no"?>
<!DOCTYPE svg PUBLIC "-//W3C//DTD SVG 1.1//EN"
 "http://www.w3.org/Graphics/SVG/1.1/DTD/svg11.dtd">
<!-- Generated by graphviz version 2.38.0 (20140413.2041)
 -->
<!-- Title: o2::emcal::Cluster Pages: 1 -->
<svg width="173pt" height="464pt"
 viewBox="0.00 0.00 173.00 464.00" xmlns="http://www.w3.org/2000/svg" xmlns:xlink="http://www.w3.org/1999/xlink">
<g id="graph0" class="graph" transform="scale(1 1) rotate(0) translate(4 460)">
<title>o2::emcal::Cluster</title>
<!-- Node1 -->
<g id="node1" class="node"><title>Node1</title>
<polygon fill="#bfbfbf" stroke="black" points="25,-0.5 25,-156.5 140,-156.5 140,-0.5 25,-0.5"/>
<text text-anchor="middle" x="82.5" y="-144.5" font-family="Helvetica,sans-Serif" font-size="10.00">o2::emcal::Cluster</text>
<polyline fill="none" stroke="black" points="25,-137.5 140,-137.5 "/>
<text text-anchor="middle" x="82.5" y="-125.5" font-family="Helvetica,sans-Serif" font-size="10.00"> </text>
<polyline fill="none" stroke="black" points="25,-118.5 140,-118.5 "/>
<text text-anchor="start" x="33" y="-106.5" font-family="Helvetica,sans-Serif" font-size="10.00">+ Cluster()</text>
<text text-anchor="start" x="33" y="-95.5" font-family="Helvetica,sans-Serif" font-size="10.00">+ Cluster()</text>
<text text-anchor="start" x="33" y="-84.5" font-family="Helvetica,sans-Serif" font-size="10.00">+ ~Cluster()</text>
<text text-anchor="start" x="33" y="-73.5" font-family="Helvetica,sans-Serif" font-size="10.00">+ getNCells()</text>
<text text-anchor="start" x="33" y="-62.5" font-family="Helvetica,sans-Serif" font-size="10.00">+ getCellIndexFirst()</text>
<text text-anchor="start" x="33" y="-51.5" font-family="Helvetica,sans-Serif" font-size="10.00">+ getCellIndexRange()</text>
<text text-anchor="start" x="33" y="-40.5" font-family="Helvetica,sans-Serif" font-size="10.00">+ setCellIndices()</text>
<text text-anchor="start" x="33" y="-29.5" font-family="Helvetica,sans-Serif" font-size="10.00">+ setCellIndexFirst()</text>
<text text-anchor="start" x="33" y="-18.5" font-family="Helvetica,sans-Serif" font-size="10.00">+ setNCells()</text>
<text text-anchor="start" x="33" y="-7.5" font-family="Helvetica,sans-Serif" font-size="10.00">+ PrintStream()</text>
</g>
<!-- Node2 -->
<g id="node2" class="node"><title>Node2</title>
<g id="a_node2"><a xlink:href="../../d0/d94/classo2_1_1dataformats_1_1TimeStamp.html" target="_top" xlink:title="{o2::dataformats::TimeStamp\l\&lt; Float16_t \&gt;\n||+ TimeStamp()\l+ TimeStamp()\l+ getTimeStamp()\l+ setTimeStamp()\l+ operator==()\l}">
<polygon fill="none" stroke="black" points="12,-194.5 12,-306.5 153,-306.5 153,-194.5 12,-194.5"/>
<text text-anchor="start" x="20" y="-294.5" font-family="Helvetica,sans-Serif" font-size="10.00">o2::dataformats::TimeStamp</text>
<text text-anchor="middle" x="82.5" y="-283.5" font-family="Helvetica,sans-Serif" font-size="10.00">&lt; Float16_t &gt;</text>
<polyline fill="none" stroke="black" points="12,-276.5 153,-276.5 "/>
<text text-anchor="middle" x="82.5" y="-264.5" font-family="Helvetica,sans-Serif" font-size="10.00"> </text>
<polyline fill="none" stroke="black" points="12,-257.5 153,-257.5 "/>
<text text-anchor="start" x="20" y="-245.5" font-family="Helvetica,sans-Serif" font-size="10.00">+ TimeStamp()</text>
<text text-anchor="start" x="20" y="-234.5" font-family="Helvetica,sans-Serif" font-size="10.00">+ TimeStamp()</text>
<text text-anchor="start" x="20" y="-223.5" font-family="Helvetica,sans-Serif" font-size="10.00">+ getTimeStamp()</text>
<text text-anchor="start" x="20" y="-212.5" font-family="Helvetica,sans-Serif" font-size="10.00">+ setTimeStamp()</text>
<text text-anchor="start" x="20" y="-201.5" font-family="Helvetica,sans-Serif" font-size="10.00">+ operator==()</text>
</a>
</g>
</g>
<!-- Node2&#45;&gt;Node1 -->
<g id="edge1" class="edge"><title>Node2&#45;&gt;Node1</title>
<path fill="none" stroke="midnightblue" d="M82.5,-184.263C82.5,-175.229 82.5,-165.879 82.5,-156.654"/>
<polygon fill="none" stroke="midnightblue" points="79.0001,-184.306 82.5,-194.306 86.0001,-184.306 79.0001,-184.306"/>
</g>
<!-- Node3 -->
<g id="node3" class="node"><title>Node3</title>
<g id="a_node3"><a xlink:href="../../d0/d94/classo2_1_1dataformats_1_1TimeStamp.html" target="_top" xlink:title="{o2::dataformats::TimeStamp\&lt; T \&gt;\n||+ TimeStamp()\l+ TimeStamp()\l+ getTimeStamp()\l+ setTimeStamp()\l+ operator==()\l}">
<polygon fill="none" stroke="black" points="0,-354.5 0,-455.5 165,-455.5 165,-354.5 0,-354.5"/>
<text text-anchor="middle" x="82.5" y="-443.5" font-family="Helvetica,sans-Serif" font-size="10.00">o2::dataformats::TimeStamp&lt; T &gt;</text>
<polyline fill="none" stroke="black" points="0,-436.5 165,-436.5 "/>
<text text-anchor="middle" x="82.5" y="-424.5" font-family="Helvetica,sans-Serif" font-size="10.00"> </text>
<polyline fill="none" stroke="black" points="0,-417.5 165,-417.5 "/>
<text text-anchor="start" x="8" y="-405.5" font-family="Helvetica,sans-Serif" font-size="10.00">+ TimeStamp()</text>
<text text-anchor="start" x="8" y="-394.5" font-family="Helvetica,sans-Serif" font-size="10.00">+ TimeStamp()</text>
<text text-anchor="start" x="8" y="-383.5" font-family="Helvetica,sans-Serif" font-size="10.00">+ getTimeStamp()</text>
<text text-anchor="start" x="8" y="-372.5" font-family="Helvetica,sans-Serif" font-size="10.00">+ setTimeStamp()</text>
<text text-anchor="start" x="8" y="-361.5" font-family="Helvetica,sans-Serif" font-size="10.00">+ operator==()</text>
</a>
</g>
</g>
<!-- Node3&#45;&gt;Node2 -->
<g id="edge2" class="edge"><title>Node3&#45;&gt;Node2</title>
<path fill="none" stroke="orange" d="M82.5,-344.237C82.5,-331.826 82.5,-318.803 82.5,-306.569"/>
<polygon fill="orange" stroke="orange" points="79.0001,-344.488 82.5,-354.488 86.0001,-344.488 79.0001,-344.488"/>
<text text-anchor="middle" x="113.5" y="-328" font-family="Helvetica,sans-Serif" font-size="10.00"> &lt; Float16_t &gt;</text>
</g>
</g>
</svg>
