<?xml version="1.0" encoding="UTF-8" standalone="no"?>
<!DOCTYPE svg PUBLIC "-//W3C//DTD SVG 1.1//EN"
 "http://www.w3.org/Graphics/SVG/1.1/DTD/svg11.dtd">
<!-- Generated by graphviz version 2.38.0 (20140413.2041)
 -->
<!-- Title: o2::trd::TrapConfig::TrapRegister Pages: 1 -->
<svg width="276pt" height="584pt"
 viewBox="0.00 0.00 276.00 584.00" xmlns="http://www.w3.org/2000/svg" xmlns:xlink="http://www.w3.org/1999/xlink">
<g id="graph0" class="graph" transform="scale(1 1) rotate(0) translate(4 580)">
<title>o2::trd::TrapConfig::TrapRegister</title>
<!-- Node1 -->
<g id="node1" class="node"><title>Node1</title>
<polygon fill="#bfbfbf" stroke="black" points="102,-0.5 102,-211.5 200,-211.5 200,-0.5 102,-0.5"/>
<text text-anchor="start" x="110" y="-199.5" font-family="Helvetica,sans-Serif" font-size="10.00">o2::trd::TrapConfig</text>
<text text-anchor="middle" x="151" y="-188.5" font-family="Helvetica,sans-Serif" font-size="10.00">::TrapRegister</text>
<polyline fill="none" stroke="black" points="102,-181.5 200,-181.5 "/>
<text text-anchor="middle" x="151" y="-169.5" font-family="Helvetica,sans-Serif" font-size="10.00"> </text>
<polyline fill="none" stroke="black" points="102,-162.5 200,-162.5 "/>
<text text-anchor="start" x="110" y="-150.5" font-family="Helvetica,sans-Serif" font-size="10.00">+ TrapRegister()</text>
<text text-anchor="start" x="110" y="-139.5" font-family="Helvetica,sans-Serif" font-size="10.00">+ ~TrapRegister()</text>
<text text-anchor="start" x="110" y="-128.5" font-family="Helvetica,sans-Serif" font-size="10.00">+ init()</text>
<text text-anchor="start" x="110" y="-117.5" font-family="Helvetica,sans-Serif" font-size="10.00">+ initfromrun2()</text>
<text text-anchor="start" x="110" y="-106.5" font-family="Helvetica,sans-Serif" font-size="10.00">+ reset()</text>
<text text-anchor="start" x="110" y="-95.5" font-family="Helvetica,sans-Serif" font-size="10.00">+ setValue()</text>
<text text-anchor="start" x="110" y="-84.5" font-family="Helvetica,sans-Serif" font-size="10.00">+ setValue()</text>
<text text-anchor="start" x="110" y="-73.5" font-family="Helvetica,sans-Serif" font-size="10.00">+ getValue()</text>
<text text-anchor="start" x="110" y="-62.5" font-family="Helvetica,sans-Serif" font-size="10.00">+ getName()</text>
<text text-anchor="start" x="110" y="-51.5" font-family="Helvetica,sans-Serif" font-size="10.00">+ getAddr()</text>
<text text-anchor="start" x="110" y="-40.5" font-family="Helvetica,sans-Serif" font-size="10.00">+ getNbits()</text>
<text text-anchor="start" x="110" y="-29.5" font-family="Helvetica,sans-Serif" font-size="10.00">+ getResetValue()</text>
<text text-anchor="start" x="110" y="-18.5" font-family="Helvetica,sans-Serif" font-size="10.00"># TrapRegister()</text>
<text text-anchor="start" x="110" y="-7.5" font-family="Helvetica,sans-Serif" font-size="10.00"># operator=()</text>
</g>
<!-- Node2 -->
<g id="node2" class="node"><title>Node2</title>
<g id="a_node2"><a xlink:href="../../d0/dbb/classo2_1_1trd_1_1TrapConfig_1_1TrapValue.html" target="_top" xlink:title="{o2::trd::TrapConfig\l::TrapValue\n||+ TrapValue()\l+ ~TrapValue()\l+ allocate()\l+ allocatei()\l+ getName()\l+ setDataFromRun2()\l+ getDataSize()\l# setData()\l# setData()\l# setData()\l# getData()\l# getIdx()\l}">
<polygon fill="none" stroke="black" points="0,-281.5 0,-470.5 112,-470.5 112,-281.5 0,-281.5"/>
<text text-anchor="start" x="8" y="-458.5" font-family="Helvetica,sans-Serif" font-size="10.00">o2::trd::TrapConfig</text>
<text text-anchor="middle" x="56" y="-447.5" font-family="Helvetica,sans-Serif" font-size="10.00">::TrapValue</text>
<polyline fill="none" stroke="black" points="0,-440.5 112,-440.5 "/>
<text text-anchor="middle" x="56" y="-428.5" font-family="Helvetica,sans-Serif" font-size="10.00"> </text>
<polyline fill="none" stroke="black" points="0,-421.5 112,-421.5 "/>
<text text-anchor="start" x="8" y="-409.5" font-family="Helvetica,sans-Serif" font-size="10.00">+ TrapValue()</text>
<text text-anchor="start" x="8" y="-398.5" font-family="Helvetica,sans-Serif" font-size="10.00">+ ~TrapValue()</text>
<text text-anchor="start" x="8" y="-387.5" font-family="Helvetica,sans-Serif" font-size="10.00">+ allocate()</text>
<text text-anchor="start" x="8" y="-376.5" font-family="Helvetica,sans-Serif" font-size="10.00">+ allocatei()</text>
<text text-anchor="start" x="8" y="-365.5" font-family="Helvetica,sans-Serif" font-size="10.00">+ getName()</text>
<text text-anchor="start" x="8" y="-354.5" font-family="Helvetica,sans-Serif" font-size="10.00">+ setDataFromRun2()</text>
<text text-anchor="start" x="8" y="-343.5" font-family="Helvetica,sans-Serif" font-size="10.00">+ getDataSize()</text>
<text text-anchor="start" x="8" y="-332.5" font-family="Helvetica,sans-Serif" font-size="10.00"># setData()</text>
<text text-anchor="start" x="8" y="-321.5" font-family="Helvetica,sans-Serif" font-size="10.00"># setData()</text>
<text text-anchor="start" x="8" y="-310.5" font-family="Helvetica,sans-Serif" font-size="10.00"># setData()</text>
<text text-anchor="start" x="8" y="-299.5" font-family="Helvetica,sans-Serif" font-size="10.00"># getData()</text>
<text text-anchor="start" x="8" y="-288.5" font-family="Helvetica,sans-Serif" font-size="10.00"># getIdx()</text>
</a>
</g>
</g>
<!-- Node2&#45;&gt;Node1 -->
<g id="edge1" class="edge"><title>Node2&#45;&gt;Node1</title>
<path fill="none" stroke="midnightblue" d="M92.622,-271.687C99.599,-252.005 106.907,-231.389 113.899,-211.665"/>
<polygon fill="none" stroke="midnightblue" points="89.2687,-270.672 89.2264,-281.267 95.8664,-273.011 89.2687,-270.672"/>
</g>
<!-- Node3 -->
<g id="node3" class="node"><title>Node3</title>
<polygon fill="none" stroke="#bfbfbf" points="35.5,-518.5 35.5,-575.5 76.5,-575.5 76.5,-518.5 35.5,-518.5"/>
<text text-anchor="middle" x="56" y="-563.5" font-family="Helvetica,sans-Serif" font-size="10.00">static</text>
<polyline fill="none" stroke="#bfbfbf" points="35.5,-556.5 76.5,-556.5 "/>
<text text-anchor="middle" x="56" y="-544.5" font-family="Helvetica,sans-Serif" font-size="10.00"> </text>
<polyline fill="none" stroke="#bfbfbf" points="35.5,-537.5 76.5,-537.5 "/>
<text text-anchor="middle" x="56" y="-525.5" font-family="Helvetica,sans-Serif" font-size="10.00"> </text>
</g>
<!-- Node3&#45;&gt;Node2 -->
<g id="edge2" class="edge"><title>Node3&#45;&gt;Node2</title>
<path fill="none" stroke="#404040" d="M56,-518.471C56,-508.231 56,-495.901 56,-482.844"/>
<polygon fill="none" stroke="#404040" points="56.0001,-482.687 52,-476.687 56,-470.687 60,-476.687 56.0001,-482.687"/>
<text text-anchor="middle" x="80" y="-492" font-family="Helvetica,sans-Serif" font-size="10.00"> +mgkSize</text>
</g>
<!-- Node4 -->
<g id="node4" class="node"><title>Node4</title>
<polygon fill="none" stroke="#bfbfbf" points="130.5,-347.5 130.5,-404.5 171.5,-404.5 171.5,-347.5 130.5,-347.5"/>
<text text-anchor="middle" x="151" y="-392.5" font-family="Helvetica,sans-Serif" font-size="10.00">string</text>
<polyline fill="none" stroke="#bfbfbf" points="130.5,-385.5 171.5,-385.5 "/>
<text text-anchor="middle" x="151" y="-373.5" font-family="Helvetica,sans-Serif" font-size="10.00"> </text>
<polyline fill="none" stroke="#bfbfbf" points="130.5,-366.5 171.5,-366.5 "/>
<text text-anchor="middle" x="151" y="-354.5" font-family="Helvetica,sans-Serif" font-size="10.00"> </text>
</g>
<!-- Node4&#45;&gt;Node1 -->
<g id="edge3" class="edge"><title>Node4&#45;&gt;Node1</title>
<path fill="none" stroke="#404040" d="M151,-347.329C151,-317.926 151,-269.461 151,-223.727"/>
<polygon fill="none" stroke="#404040" points="151,-223.547 147,-217.547 151,-211.547 155,-217.547 151,-223.547"/>
<text text-anchor="middle" x="172.5" y="-244" font-family="Helvetica,sans-Serif" font-size="10.00"> #mName</text>
</g>
<!-- Node5 -->
<g id="node5" class="node"><title>Node5</title>
<polygon fill="none" stroke="#bfbfbf" points="190,-347.5 190,-404.5 246,-404.5 246,-347.5 190,-347.5"/>
<text text-anchor="middle" x="218" y="-392.5" font-family="Helvetica,sans-Serif" font-size="10.00">unsigned</text>
<polyline fill="none" stroke="#bfbfbf" points="190,-385.5 246,-385.5 "/>
<text text-anchor="middle" x="218" y="-373.5" font-family="Helvetica,sans-Serif" font-size="10.00"> </text>
<polyline fill="none" stroke="#bfbfbf" points="190,-366.5 246,-366.5 "/>
<text text-anchor="middle" x="218" y="-354.5" font-family="Helvetica,sans-Serif" font-size="10.00"> </text>
</g>
<!-- Node5&#45;&gt;Node1 -->
<g id="edge4" class="edge"><title>Node5&#45;&gt;Node1</title>
<path fill="none" stroke="#404040" d="M215.475,-347.413C212.398,-317.996 206.294,-270.206 196,-230 195.418,-227.728 194.811,-225.44 194.18,-223.14"/>
<polygon fill="none" stroke="#404040" points="194.168,-223.1 188.664,-218.441 190.847,-211.569 196.351,-216.227 194.168,-223.1"/>
<text text-anchor="middle" x="235.5" y="-255" font-family="Helvetica,sans-Serif" font-size="10.00"> #mAddr</text>
<text text-anchor="middle" x="235.5" y="-244" font-family="Helvetica,sans-Serif" font-size="10.00">#mResetValue</text>
<text text-anchor="middle" x="235.5" y="-233" font-family="Helvetica,sans-Serif" font-size="10.00">#mNbits</text>
</g>
</g>
</svg>
