<?xml version="1.0" encoding="UTF-8" standalone="no"?>
<!DOCTYPE svg PUBLIC "-//W3C//DTD SVG 1.1//EN"
 "http://www.w3.org/Graphics/SVG/1.1/DTD/svg11.dtd">
<!-- Generated by graphviz version 2.38.0 (20140413.2041)
 -->
<!-- Title: o2::phos::PHOSSimParams Pages: 1 -->
<svg width="413pt" height="1202pt"
 viewBox="0.00 0.00 412.50 1202.00" xmlns="http://www.w3.org/2000/svg" xmlns:xlink="http://www.w3.org/1999/xlink">
<g id="graph0" class="graph" transform="scale(1 1) rotate(0) translate(4 1198)">
<title>o2::phos::PHOSSimParams</title>
<!-- Node1 -->
<g id="node1" class="node"><title>Node1</title>
<polygon fill="#bfbfbf" stroke="black" points="108.5,-0.5 108.5,-134.5 248.5,-134.5 248.5,-0.5 108.5,-0.5"/>
<text text-anchor="middle" x="178.5" y="-122.5" font-family="Helvetica,sans-Serif" font-size="10.00">o2::phos::PHOSSimParams</text>
<polyline fill="none" stroke="black" points="108.5,-115.5 248.5,-115.5 "/>
<text text-anchor="start" x="116.5" y="-103.5" font-family="Helvetica,sans-Serif" font-size="10.00">+ mLightYieldMean</text>
<text text-anchor="start" x="116.5" y="-92.5" font-family="Helvetica,sans-Serif" font-size="10.00">+ mIntrinsicAPDEfficiency</text>
<text text-anchor="start" x="116.5" y="-81.5" font-family="Helvetica,sans-Serif" font-size="10.00">+ mLightFactor</text>
<text text-anchor="start" x="116.5" y="-70.5" font-family="Helvetica,sans-Serif" font-size="10.00">+ mTimeResolutionA</text>
<text text-anchor="start" x="116.5" y="-59.5" font-family="Helvetica,sans-Serif" font-size="10.00">+ mTimeResolutionB</text>
<text text-anchor="start" x="116.5" y="-48.5" font-family="Helvetica,sans-Serif" font-size="10.00">+ mTimeResThreshold</text>
<text text-anchor="start" x="116.5" y="-37.5" font-family="Helvetica,sans-Serif" font-size="10.00">+ mMinNoiseTime</text>
<text text-anchor="start" x="116.5" y="-26.5" font-family="Helvetica,sans-Serif" font-size="10.00">+ mMaxNoiseTime</text>
<polyline fill="none" stroke="black" points="108.5,-19.5 248.5,-19.5 "/>
<text text-anchor="start" x="116.5" y="-7.5" font-family="Helvetica,sans-Serif" font-size="10.00">+ O2ParamDef()</text>
</g>
<!-- Node2 -->
<g id="node2" class="node"><title>Node2</title>
<g id="a_node2"><a xlink:href="../../d7/d50/classo2_1_1conf_1_1ConfigurableParamHelper.html" target="_top" xlink:title="{o2::conf::ConfigurableParam\lHelper\&lt; PHOSSimParams \&gt;\n||+ getName()\l+ printKeyValues()\l+ output()\l+ getDataMembers()\l+ putKeyValues()\l+ initFrom()\l+ serializeTo()\l+ Instance()\l}">
<polygon fill="none" stroke="black" points="0,-292.5 0,-437.5 143,-437.5 143,-292.5 0,-292.5"/>
<text text-anchor="start" x="8" y="-425.5" font-family="Helvetica,sans-Serif" font-size="10.00">o2::conf::ConfigurableParam</text>
<text text-anchor="middle" x="71.5" y="-414.5" font-family="Helvetica,sans-Serif" font-size="10.00">Helper&lt; PHOSSimParams &gt;</text>
<polyline fill="none" stroke="black" points="0,-407.5 143,-407.5 "/>
<text text-anchor="middle" x="71.5" y="-395.5" font-family="Helvetica,sans-Serif" font-size="10.00"> </text>
<polyline fill="none" stroke="black" points="0,-388.5 143,-388.5 "/>
<text text-anchor="start" x="8" y="-376.5" font-family="Helvetica,sans-Serif" font-size="10.00">+ getName()</text>
<text text-anchor="start" x="8" y="-365.5" font-family="Helvetica,sans-Serif" font-size="10.00">+ printKeyValues()</text>
<text text-anchor="start" x="8" y="-354.5" font-family="Helvetica,sans-Serif" font-size="10.00">+ output()</text>
<text text-anchor="start" x="8" y="-343.5" font-family="Helvetica,sans-Serif" font-size="10.00">+ getDataMembers()</text>
<text text-anchor="start" x="8" y="-332.5" font-family="Helvetica,sans-Serif" font-size="10.00">+ putKeyValues()</text>
<text text-anchor="start" x="8" y="-321.5" font-family="Helvetica,sans-Serif" font-size="10.00">+ initFrom()</text>
<text text-anchor="start" x="8" y="-310.5" font-family="Helvetica,sans-Serif" font-size="10.00">+ serializeTo()</text>
<text text-anchor="start" x="8" y="-299.5" font-family="Helvetica,sans-Serif" font-size="10.00">+ Instance()</text>
</a>
</g>
</g>
<!-- Node2&#45;&gt;Node1 -->
<g id="edge1" class="edge"><title>Node2&#45;&gt;Node1</title>
<path fill="none" stroke="midnightblue" d="M100.826,-283.011C117.688,-236.444 138.606,-178.675 154.485,-134.822"/>
<polygon fill="none" stroke="midnightblue" points="97.5155,-281.873 97.4017,-292.468 104.097,-284.257 97.5155,-281.873"/>
</g>
<!-- Node3 -->
<g id="node3" class="node"><title>Node3</title>
<g id="a_node3"><a xlink:href="../../d6/d14/classo2_1_1conf_1_1ConfigurableParam.html" target="_top" xlink:title="{o2::conf::ConfigurableParam\n||+ getName()\l+ printKeyValues()\l+ toString()\l+ printAllRegisteredParamNames()\l+ printAllKeyValuePairs()\l+ readINI()\l+ readJSON()\l+ readConfigFile()\l+ writeJSON()\l+ writeINI()\l+ getValueAs()\l+ setValue()\l+ setValue()\l+ setEnumValue()\l+ setArrayValue()\l+ setValues()\l+ initialize()\l+ toCCDB()\l+ fromCCDB()\l+ updateFromString()\l+ updateFromFile()\l# ConfigurableParam()\l# ~ConfigurableParam()\l# putKeyValues()\l# output()\l# serializeTo()\l# initFrom()\l# setRegisterMode()\l# initPropertyTree()\l# updateThroughStorageMap()\l# updateThroughStorageMapWith\lConversion()\l}">
<polygon fill="none" stroke="black" points="2,-668.5 2,-1066.5 171,-1066.5 171,-668.5 2,-668.5"/>
<text text-anchor="middle" x="86.5" y="-1054.5" font-family="Helvetica,sans-Serif" font-size="10.00">o2::conf::ConfigurableParam</text>
<polyline fill="none" stroke="black" points="2,-1047.5 171,-1047.5 "/>
<text text-anchor="middle" x="86.5" y="-1035.5" font-family="Helvetica,sans-Serif" font-size="10.00"> </text>
<polyline fill="none" stroke="black" points="2,-1028.5 171,-1028.5 "/>
<text text-anchor="start" x="10" y="-1016.5" font-family="Helvetica,sans-Serif" font-size="10.00">+ getName()</text>
<text text-anchor="start" x="10" y="-1005.5" font-family="Helvetica,sans-Serif" font-size="10.00">+ printKeyValues()</text>
<text text-anchor="start" x="10" y="-994.5" font-family="Helvetica,sans-Serif" font-size="10.00">+ toString()</text>
<text text-anchor="start" x="10" y="-983.5" font-family="Helvetica,sans-Serif" font-size="10.00">+ printAllRegisteredParamNames()</text>
<text text-anchor="start" x="10" y="-972.5" font-family="Helvetica,sans-Serif" font-size="10.00">+ printAllKeyValuePairs()</text>
<text text-anchor="start" x="10" y="-961.5" font-family="Helvetica,sans-Serif" font-size="10.00">+ readINI()</text>
<text text-anchor="start" x="10" y="-950.5" font-family="Helvetica,sans-Serif" font-size="10.00">+ readJSON()</text>
<text text-anchor="start" x="10" y="-939.5" font-family="Helvetica,sans-Serif" font-size="10.00">+ readConfigFile()</text>
<text text-anchor="start" x="10" y="-928.5" font-family="Helvetica,sans-Serif" font-size="10.00">+ writeJSON()</text>
<text text-anchor="start" x="10" y="-917.5" font-family="Helvetica,sans-Serif" font-size="10.00">+ writeINI()</text>
<text text-anchor="start" x="10" y="-906.5" font-family="Helvetica,sans-Serif" font-size="10.00">+ getValueAs()</text>
<text text-anchor="start" x="10" y="-895.5" font-family="Helvetica,sans-Serif" font-size="10.00">+ setValue()</text>
<text text-anchor="start" x="10" y="-884.5" font-family="Helvetica,sans-Serif" font-size="10.00">+ setValue()</text>
<text text-anchor="start" x="10" y="-873.5" font-family="Helvetica,sans-Serif" font-size="10.00">+ setEnumValue()</text>
<text text-anchor="start" x="10" y="-862.5" font-family="Helvetica,sans-Serif" font-size="10.00">+ setArrayValue()</text>
<text text-anchor="start" x="10" y="-851.5" font-family="Helvetica,sans-Serif" font-size="10.00">+ setValues()</text>
<text text-anchor="start" x="10" y="-840.5" font-family="Helvetica,sans-Serif" font-size="10.00">+ initialize()</text>
<text text-anchor="start" x="10" y="-829.5" font-family="Helvetica,sans-Serif" font-size="10.00">+ toCCDB()</text>
<text text-anchor="start" x="10" y="-818.5" font-family="Helvetica,sans-Serif" font-size="10.00">+ fromCCDB()</text>
<text text-anchor="start" x="10" y="-807.5" font-family="Helvetica,sans-Serif" font-size="10.00">+ updateFromString()</text>
<text text-anchor="start" x="10" y="-796.5" font-family="Helvetica,sans-Serif" font-size="10.00">+ updateFromFile()</text>
<text text-anchor="start" x="10" y="-785.5" font-family="Helvetica,sans-Serif" font-size="10.00"># ConfigurableParam()</text>
<text text-anchor="start" x="10" y="-774.5" font-family="Helvetica,sans-Serif" font-size="10.00"># ~ConfigurableParam()</text>
<text text-anchor="start" x="10" y="-763.5" font-family="Helvetica,sans-Serif" font-size="10.00"># putKeyValues()</text>
<text text-anchor="start" x="10" y="-752.5" font-family="Helvetica,sans-Serif" font-size="10.00"># output()</text>
<text text-anchor="start" x="10" y="-741.5" font-family="Helvetica,sans-Serif" font-size="10.00"># serializeTo()</text>
<text text-anchor="start" x="10" y="-730.5" font-family="Helvetica,sans-Serif" font-size="10.00"># initFrom()</text>
<text text-anchor="start" x="10" y="-719.5" font-family="Helvetica,sans-Serif" font-size="10.00"># setRegisterMode()</text>
<text text-anchor="start" x="10" y="-708.5" font-family="Helvetica,sans-Serif" font-size="10.00"># initPropertyTree()</text>
<text text-anchor="start" x="10" y="-697.5" font-family="Helvetica,sans-Serif" font-size="10.00"># updateThroughStorageMap()</text>
<text text-anchor="start" x="10" y="-686.5" font-family="Helvetica,sans-Serif" font-size="10.00"># updateThroughStorageMapWith</text>
<text text-anchor="start" x="10" y="-675.5" font-family="Helvetica,sans-Serif" font-size="10.00">Conversion()</text>
</a>
</g>
</g>
<!-- Node3&#45;&gt;Node2 -->
<g id="edge2" class="edge"><title>Node3&#45;&gt;Node2</title>
<path fill="none" stroke="midnightblue" d="M75.4457,-658.29C75.0964,-649.069 74.7783,-639.94 74.5,-631 72.4638,-565.583 71.7642,-491.043 71.5445,-437.718"/>
<polygon fill="none" stroke="midnightblue" points="71.95,-658.471 75.8364,-668.327 78.9447,-658.199 71.95,-658.471"/>
</g>
<!-- Node5 -->
<g id="node5" class="node"><title>Node5</title>
<g id="a_node5"><a xlink:href="../../d7/d50/classo2_1_1conf_1_1ConfigurableParamHelper.html" target="_top" xlink:title="{o2::conf::ConfigurableParam\lHelper\&lt; P \&gt;\n||+ getName()\l+ printKeyValues()\l+ output()\l+ getDataMembers()\l+ putKeyValues()\l+ initFrom()\l+ serializeTo()\l+ Instance()\l}">
<polygon fill="none" stroke="black" points="84,-485.5 84,-630.5 225,-630.5 225,-485.5 84,-485.5"/>
<text text-anchor="start" x="92" y="-618.5" font-family="Helvetica,sans-Serif" font-size="10.00">o2::conf::ConfigurableParam</text>
<text text-anchor="middle" x="154.5" y="-607.5" font-family="Helvetica,sans-Serif" font-size="10.00">Helper&lt; P &gt;</text>
<polyline fill="none" stroke="black" points="84,-600.5 225,-600.5 "/>
<text text-anchor="middle" x="154.5" y="-588.5" font-family="Helvetica,sans-Serif" font-size="10.00"> </text>
<polyline fill="none" stroke="black" points="84,-581.5 225,-581.5 "/>
<text text-anchor="start" x="92" y="-569.5" font-family="Helvetica,sans-Serif" font-size="10.00">+ getName()</text>
<text text-anchor="start" x="92" y="-558.5" font-family="Helvetica,sans-Serif" font-size="10.00">+ printKeyValues()</text>
<text text-anchor="start" x="92" y="-547.5" font-family="Helvetica,sans-Serif" font-size="10.00">+ output()</text>
<text text-anchor="start" x="92" y="-536.5" font-family="Helvetica,sans-Serif" font-size="10.00">+ getDataMembers()</text>
<text text-anchor="start" x="92" y="-525.5" font-family="Helvetica,sans-Serif" font-size="10.00">+ putKeyValues()</text>
<text text-anchor="start" x="92" y="-514.5" font-family="Helvetica,sans-Serif" font-size="10.00">+ initFrom()</text>
<text text-anchor="start" x="92" y="-503.5" font-family="Helvetica,sans-Serif" font-size="10.00">+ serializeTo()</text>
<text text-anchor="start" x="92" y="-492.5" font-family="Helvetica,sans-Serif" font-size="10.00">+ Instance()</text>
</a>
</g>
</g>
<!-- Node3&#45;&gt;Node5 -->
<g id="edge5" class="edge"><title>Node3&#45;&gt;Node5</title>
<path fill="none" stroke="midnightblue" d="M132.558,-658.224C134.668,-648.68 136.708,-639.458 138.637,-630.734"/>
<polygon fill="none" stroke="midnightblue" points="129.076,-657.759 130.334,-668.279 135.911,-659.27 129.076,-657.759"/>
</g>
<!-- Node4 -->
<g id="node4" class="node"><title>Node4</title>
<polygon fill="none" stroke="#bfbfbf" points="66,-1136.5 66,-1193.5 107,-1193.5 107,-1136.5 66,-1136.5"/>
<text text-anchor="middle" x="86.5" y="-1181.5" font-family="Helvetica,sans-Serif" font-size="10.00">static</text>
<polyline fill="none" stroke="#bfbfbf" points="66,-1174.5 107,-1174.5 "/>
<text text-anchor="middle" x="86.5" y="-1162.5" font-family="Helvetica,sans-Serif" font-size="10.00"> </text>
<polyline fill="none" stroke="#bfbfbf" points="66,-1155.5 107,-1155.5 "/>
<text text-anchor="middle" x="86.5" y="-1143.5" font-family="Helvetica,sans-Serif" font-size="10.00"> </text>
</g>
<!-- Node4&#45;&gt;Node3 -->
<g id="edge3" class="edge"><title>Node4&#45;&gt;Node3</title>
<path fill="none" stroke="#404040" d="M86.5,-1136.47C86.5,-1121.4 86.5,-1101.21 86.5,-1078.65"/>
<polygon fill="none" stroke="#404040" points="86.5001,-1078.65 82.5,-1072.65 86.5,-1066.65 90.5,-1072.65 86.5001,-1078.65"/>
<text text-anchor="middle" x="139.5" y="-1110" font-family="Helvetica,sans-Serif" font-size="10.00"> #sEnumRegistry</text>
<text text-anchor="middle" x="139.5" y="-1099" font-family="Helvetica,sans-Serif" font-size="10.00">#sValueProvenanceMap</text>
<text text-anchor="middle" x="139.5" y="-1088" font-family="Helvetica,sans-Serif" font-size="10.00">#sKeyToStorageMap</text>
</g>
<!-- Node5&#45;&gt;Node2 -->
<g id="edge4" class="edge"><title>Node5&#45;&gt;Node2</title>
<path fill="none" stroke="orange" d="M119.357,-476.128C113.816,-463.378 108.121,-450.273 102.679,-437.749"/>
<polygon fill="orange" stroke="orange" points="116.162,-477.559 123.358,-485.335 122.582,-474.769 116.162,-477.559"/>
<text text-anchor="middle" x="164" y="-459" font-family="Helvetica,sans-Serif" font-size="10.00"> &lt; PHOSSimParams &gt;</text>
</g>
<!-- Node6 -->
<g id="node6" class="node"><title>Node6</title>
<g id="a_node6"><a xlink:href="../../d4/dc3/classfloat.html" target="_top" xlink:title="{float\n||}">
<polygon fill="none" stroke="black" points="161,-336.5 161,-393.5 196,-393.5 196,-336.5 161,-336.5"/>
<text text-anchor="middle" x="178.5" y="-381.5" font-family="Helvetica,sans-Serif" font-size="10.00">float</text>
<polyline fill="none" stroke="black" points="161,-374.5 196,-374.5 "/>
<text text-anchor="middle" x="178.5" y="-362.5" font-family="Helvetica,sans-Serif" font-size="10.00"> </text>
<polyline fill="none" stroke="black" points="161,-355.5 196,-355.5 "/>
<text text-anchor="middle" x="178.5" y="-343.5" font-family="Helvetica,sans-Serif" font-size="10.00"> </text>
</a>
</g>
</g>
<!-- Node6&#45;&gt;Node1 -->
<g id="edge6" class="edge"><title>Node6&#45;&gt;Node1</title>
<path fill="none" stroke="#404040" d="M178.5,-336.465C178.5,-293.617 178.5,-209.4 178.5,-146.761"/>
<polygon fill="none" stroke="#404040" points="178.5,-146.539 174.5,-140.539 178.5,-134.539 182.5,-140.539 178.5,-146.539"/>
<text text-anchor="middle" x="224" y="-266" font-family="Helvetica,sans-Serif" font-size="10.00"> +mAPDFactor</text>
<text text-anchor="middle" x="224" y="-255" font-family="Helvetica,sans-Serif" font-size="10.00">+mCellNonLineaityA</text>
<text text-anchor="middle" x="224" y="-244" font-family="Helvetica,sans-Serif" font-size="10.00">+mADCwidth</text>
<text text-anchor="middle" x="224" y="-233" font-family="Helvetica,sans-Serif" font-size="10.00">+mZSthreshold</text>
<text text-anchor="middle" x="224" y="-222" font-family="Helvetica,sans-Serif" font-size="10.00">+mCellNonLineaityB</text>
<text text-anchor="middle" x="224" y="-211" font-family="Helvetica,sans-Serif" font-size="10.00">+mTOFa</text>
<text text-anchor="middle" x="224" y="-200" font-family="Helvetica,sans-Serif" font-size="10.00">+mAPDNoise</text>
<text text-anchor="middle" x="224" y="-189" font-family="Helvetica,sans-Serif" font-size="10.00">+mCellNonLineaityC</text>
<text text-anchor="middle" x="224" y="-178" font-family="Helvetica,sans-Serif" font-size="10.00">+mTOFb</text>
<text text-anchor="middle" x="224" y="-167" font-family="Helvetica,sans-Serif" font-size="10.00">+mDigitThreshold</text>
<text text-anchor="middle" x="224" y="-156" font-family="Helvetica,sans-Serif" font-size="10.00">...</text>
</g>
<!-- Node7 -->
<g id="node7" class="node"><title>Node7</title>
<polygon fill="none" stroke="#bfbfbf" points="275,-336.5 275,-393.5 310,-393.5 310,-336.5 275,-336.5"/>
<text text-anchor="middle" x="292.5" y="-381.5" font-family="Helvetica,sans-Serif" font-size="10.00">bool</text>
<polyline fill="none" stroke="#bfbfbf" points="275,-374.5 310,-374.5 "/>
<text text-anchor="middle" x="292.5" y="-362.5" font-family="Helvetica,sans-Serif" font-size="10.00"> </text>
<polyline fill="none" stroke="#bfbfbf" points="275,-355.5 310,-355.5 "/>
<text text-anchor="middle" x="292.5" y="-343.5" font-family="Helvetica,sans-Serif" font-size="10.00"> </text>
</g>
<!-- Node7&#45;&gt;Node1 -->
<g id="edge7" class="edge"><title>Node7&#45;&gt;Node1</title>
<path fill="none" stroke="#404040" d="M295.596,-336.313C299.027,-294.269 300.611,-212.888 270.5,-153 266.769,-145.58 262.096,-138.488 256.845,-131.794"/>
<polygon fill="none" stroke="#404040" points="256.539,-131.433 249.609,-129.441 248.782,-122.277 255.712,-124.269 256.539,-131.433"/>
<text text-anchor="middle" x="350.5" y="-227.5" font-family="Helvetica,sans-Serif" font-size="10.00"> +mApplyDigitization</text>
<text text-anchor="middle" x="350.5" y="-216.5" font-family="Helvetica,sans-Serif" font-size="10.00">+mApplyDecalibration</text>
<text text-anchor="middle" x="350.5" y="-205.5" font-family="Helvetica,sans-Serif" font-size="10.00">+mApplyNonLinearity</text>
<text text-anchor="middle" x="350.5" y="-194.5" font-family="Helvetica,sans-Serif" font-size="10.00">+mApplyTimeResolution</text>
</g>
</g>
</svg>
