<?xml version="1.0" encoding="UTF-8" standalone="no"?>
<!DOCTYPE svg PUBLIC "-//W3C//DTD SVG 1.1//EN"
 "http://www.w3.org/Graphics/SVG/1.1/DTD/svg11.dtd">
<!-- Generated by graphviz version 2.38.0 (20140413.2041)
 -->
<!-- Title: o2::framework::DataRelayer::RecordAction Pages: 1 -->
<svg width="250pt" height="320pt"
 viewBox="0.00 0.00 249.50 320.00" xmlns="http://www.w3.org/2000/svg" xmlns:xlink="http://www.w3.org/1999/xlink">
<g id="graph0" class="graph" transform="scale(1 1) rotate(0) translate(4 316)">
<title>o2::framework::DataRelayer::RecordAction</title>
<!-- Node1 -->
<g id="node1" class="node"><title>Node1</title>
<polygon fill="#bfbfbf" stroke="black" points="12.5,-0.5 12.5,-68.5 152.5,-68.5 152.5,-0.5 12.5,-0.5"/>
<text text-anchor="start" x="20.5" y="-56.5" font-family="Helvetica,sans-Serif" font-size="10.00">o2::framework::DataRelayer</text>
<text text-anchor="middle" x="82.5" y="-45.5" font-family="Helvetica,sans-Serif" font-size="10.00">::RecordAction</text>
<polyline fill="none" stroke="black" points="12.5,-38.5 152.5,-38.5 "/>
<text text-anchor="middle" x="82.5" y="-26.5" font-family="Helvetica,sans-Serif" font-size="10.00"> </text>
<polyline fill="none" stroke="black" points="12.5,-19.5 152.5,-19.5 "/>
<text text-anchor="middle" x="82.5" y="-7.5" font-family="Helvetica,sans-Serif" font-size="10.00"> </text>
</g>
<!-- Node2 -->
<g id="node2" class="node"><title>Node2</title>
<polygon fill="none" stroke="#bfbfbf" points="0,-127.5 0,-184.5 79,-184.5 79,-127.5 0,-127.5"/>
<text text-anchor="middle" x="39.5" y="-172.5" font-family="Helvetica,sans-Serif" font-size="10.00">CompletionOp</text>
<polyline fill="none" stroke="#bfbfbf" points="0,-165.5 79,-165.5 "/>
<text text-anchor="middle" x="39.5" y="-153.5" font-family="Helvetica,sans-Serif" font-size="10.00"> </text>
<polyline fill="none" stroke="#bfbfbf" points="0,-146.5 79,-146.5 "/>
<text text-anchor="middle" x="39.5" y="-134.5" font-family="Helvetica,sans-Serif" font-size="10.00"> </text>
</g>
<!-- Node2&#45;&gt;Node1 -->
<g id="edge1" class="edge"><title>Node2&#45;&gt;Node1</title>
<path fill="none" stroke="#404040" d="M49.4731,-127.284C54.4948,-113.328 60.7076,-96.0626 66.3849,-80.2849"/>
<polygon fill="none" stroke="#404040" points="66.5304,-79.8803 64.7982,-72.8804 70.5935,-68.5891 72.3257,-75.589 66.5304,-79.8803"/>
<text text-anchor="middle" x="74.5" y="-90" font-family="Helvetica,sans-Serif" font-size="10.00"> +op</text>
</g>
<!-- Node3 -->
<g id="node3" class="node"><title>Node3</title>
<g id="a_node3"><a xlink:href="../../da/dca/structo2_1_1framework_1_1TimesliceSlot.html" target="_top" xlink:title="{o2::framework::TimesliceSlot\n||+ operator==()\l+ operator!=()\l+ isValid()\l}">
<polygon fill="none" stroke="black" points="97.5,-116.5 97.5,-195.5 241.5,-195.5 241.5,-116.5 97.5,-116.5"/>
<text text-anchor="middle" x="169.5" y="-183.5" font-family="Helvetica,sans-Serif" font-size="10.00">o2::framework::TimesliceSlot</text>
<polyline fill="none" stroke="black" points="97.5,-176.5 241.5,-176.5 "/>
<text text-anchor="middle" x="169.5" y="-164.5" font-family="Helvetica,sans-Serif" font-size="10.00"> </text>
<polyline fill="none" stroke="black" points="97.5,-157.5 241.5,-157.5 "/>
<text text-anchor="start" x="105.5" y="-145.5" font-family="Helvetica,sans-Serif" font-size="10.00">+ operator==()</text>
<text text-anchor="start" x="105.5" y="-134.5" font-family="Helvetica,sans-Serif" font-size="10.00">+ operator!=()</text>
<text text-anchor="start" x="105.5" y="-123.5" font-family="Helvetica,sans-Serif" font-size="10.00">+ isValid()</text>
</a>
</g>
</g>
<!-- Node3&#45;&gt;Node1 -->
<g id="edge2" class="edge"><title>Node3&#45;&gt;Node1</title>
<path fill="none" stroke="#404040" d="M141.254,-116.202C132.571,-104.275 122.96,-91.0738 114.069,-78.862"/>
<polygon fill="none" stroke="#404040" points="113.87,-78.588 107.104,-76.0917 106.807,-68.8867 113.572,-71.3831 113.87,-78.588"/>
<text text-anchor="middle" x="138" y="-90" font-family="Helvetica,sans-Serif" font-size="10.00"> +slot</text>
</g>
<!-- Node4 -->
<g id="node4" class="node"><title>Node4</title>
<polygon fill="none" stroke="#bfbfbf" points="118,-254.5 118,-311.5 161,-311.5 161,-254.5 118,-254.5"/>
<text text-anchor="middle" x="139.5" y="-299.5" font-family="Helvetica,sans-Serif" font-size="10.00">size_t</text>
<polyline fill="none" stroke="#bfbfbf" points="118,-292.5 161,-292.5 "/>
<text text-anchor="middle" x="139.5" y="-280.5" font-family="Helvetica,sans-Serif" font-size="10.00"> </text>
<polyline fill="none" stroke="#bfbfbf" points="118,-273.5 161,-273.5 "/>
<text text-anchor="middle" x="139.5" y="-261.5" font-family="Helvetica,sans-Serif" font-size="10.00"> </text>
</g>
<!-- Node4&#45;&gt;Node3 -->
<g id="edge3" class="edge"><title>Node4&#45;&gt;Node3</title>
<path fill="none" stroke="#404040" d="M139.42,-254.203C139.925,-241.753 141.277,-226.982 144.5,-214 145.066,-211.719 145.717,-209.414 146.433,-207.106"/>
<polygon fill="none" stroke="#404040" points="146.488,-206.949 144.711,-199.961 150.479,-195.632 152.256,-202.621 146.488,-206.949"/>
<text text-anchor="middle" x="161" y="-222.5" font-family="Helvetica,sans-Serif" font-size="10.00"> +index</text>
</g>
<!-- Node5 -->
<g id="node5" class="node"><title>Node5</title>
<polygon fill="none" stroke="#bfbfbf" points="179,-254.5 179,-311.5 220,-311.5 220,-254.5 179,-254.5"/>
<text text-anchor="middle" x="199.5" y="-299.5" font-family="Helvetica,sans-Serif" font-size="10.00">static</text>
<polyline fill="none" stroke="#bfbfbf" points="179,-292.5 220,-292.5 "/>
<text text-anchor="middle" x="199.5" y="-280.5" font-family="Helvetica,sans-Serif" font-size="10.00"> </text>
<polyline fill="none" stroke="#bfbfbf" points="179,-273.5 220,-273.5 "/>
<text text-anchor="middle" x="199.5" y="-261.5" font-family="Helvetica,sans-Serif" font-size="10.00"> </text>
</g>
<!-- Node5&#45;&gt;Node3 -->
<g id="edge4" class="edge"><title>Node5&#45;&gt;Node3</title>
<path fill="none" stroke="#404040" d="M192.842,-254.258C189.541,-240.503 185.449,-223.453 181.618,-207.49"/>
<polygon fill="none" stroke="#404040" points="181.557,-207.235 176.267,-202.335 178.756,-195.567 184.046,-200.468 181.557,-207.235"/>
<text text-anchor="middle" x="212" y="-228" font-family="Helvetica,sans-Serif" font-size="10.00"> +INVALID</text>
<text text-anchor="middle" x="212" y="-217" font-family="Helvetica,sans-Serif" font-size="10.00">+ANY</text>
</g>
</g>
</svg>
