<?xml version="1.0" encoding="UTF-8" standalone="no"?>
<!DOCTYPE svg PUBLIC "-//W3C//DTD SVG 1.1//EN"
 "http://www.w3.org/Graphics/SVG/1.1/DTD/svg11.dtd">
<!-- Generated by graphviz version 2.38.0 (20140413.2041)
 -->
<!-- Title: o2::framework::HistogramConfigSpec Pages: 1 -->
<svg width="187pt" height="226pt"
 viewBox="0.00 0.00 186.50 226.00" xmlns="http://www.w3.org/2000/svg" xmlns:xlink="http://www.w3.org/1999/xlink">
<g id="graph0" class="graph" transform="scale(1 1) rotate(0) translate(4 222)">
<title>o2::framework::HistogramConfigSpec</title>
<!-- Node1 -->
<g id="node1" class="node"><title>Node1</title>
<polygon fill="#bfbfbf" stroke="black" points="18.5,-0.5 18.5,-101.5 148.5,-101.5 148.5,-0.5 18.5,-0.5"/>
<text text-anchor="start" x="26.5" y="-89.5" font-family="Helvetica,sans-Serif" font-size="10.00">o2::framework::Histogram</text>
<text text-anchor="middle" x="83.5" y="-78.5" font-family="Helvetica,sans-Serif" font-size="10.00">ConfigSpec</text>
<polyline fill="none" stroke="black" points="18.5,-71.5 148.5,-71.5 "/>
<text text-anchor="middle" x="83.5" y="-59.5" font-family="Helvetica,sans-Serif" font-size="10.00"> </text>
<polyline fill="none" stroke="black" points="18.5,-52.5 148.5,-52.5 "/>
<text text-anchor="start" x="26.5" y="-40.5" font-family="Helvetica,sans-Serif" font-size="10.00">+ HistogramConfigSpec()</text>
<text text-anchor="start" x="26.5" y="-29.5" font-family="Helvetica,sans-Serif" font-size="10.00">+ HistogramConfigSpec()</text>
<text text-anchor="start" x="26.5" y="-18.5" font-family="Helvetica,sans-Serif" font-size="10.00">+ HistogramConfigSpec()</text>
<text text-anchor="start" x="26.5" y="-7.5" font-family="Helvetica,sans-Serif" font-size="10.00">+ HistogramConfigSpec()</text>
</g>
<!-- Node2 -->
<g id="node2" class="node"><title>Node2</title>
<polygon fill="none" stroke="#bfbfbf" points="0,-160.5 0,-217.5 45,-217.5 45,-160.5 0,-160.5"/>
<text text-anchor="middle" x="22.5" y="-205.5" font-family="Helvetica,sans-Serif" font-size="10.00">double</text>
<polyline fill="none" stroke="#bfbfbf" points="0,-198.5 45,-198.5 "/>
<text text-anchor="middle" x="22.5" y="-186.5" font-family="Helvetica,sans-Serif" font-size="10.00"> </text>
<polyline fill="none" stroke="#bfbfbf" points="0,-179.5 45,-179.5 "/>
<text text-anchor="middle" x="22.5" y="-167.5" font-family="Helvetica,sans-Serif" font-size="10.00"> </text>
</g>
<!-- Node2&#45;&gt;Node1 -->
<g id="edge1" class="edge"><title>Node2&#45;&gt;Node1</title>
<path fill="none" stroke="#404040" d="M32.3199,-160.257C36.924,-147.816 42.6728,-133.039 48.5,-120 49.5784,-117.587 50.7007,-115.138 51.8536,-112.673"/>
<polygon fill="none" stroke="#404040" points="51.8667,-112.646 50.8591,-105.505 57.0627,-101.829 58.0703,-108.969 51.8667,-112.646"/>
<text text-anchor="middle" x="64" y="-134" font-family="Helvetica,sans-Serif" font-size="10.00"> +xmin</text>
<text text-anchor="middle" x="64" y="-123" font-family="Helvetica,sans-Serif" font-size="10.00">+xmax</text>
</g>
<!-- Node3 -->
<g id="node3" class="node"><title>Node3</title>
<polygon fill="none" stroke="#bfbfbf" points="63,-160.5 63,-217.5 104,-217.5 104,-160.5 63,-160.5"/>
<text text-anchor="middle" x="83.5" y="-205.5" font-family="Helvetica,sans-Serif" font-size="10.00">string</text>
<polyline fill="none" stroke="#bfbfbf" points="63,-198.5 104,-198.5 "/>
<text text-anchor="middle" x="83.5" y="-186.5" font-family="Helvetica,sans-Serif" font-size="10.00"> </text>
<polyline fill="none" stroke="#bfbfbf" points="63,-179.5 104,-179.5 "/>
<text text-anchor="middle" x="83.5" y="-167.5" font-family="Helvetica,sans-Serif" font-size="10.00"> </text>
</g>
<!-- Node3&#45;&gt;Node1 -->
<g id="edge2" class="edge"><title>Node3&#45;&gt;Node1</title>
<path fill="none" stroke="#404040" d="M83.5,-160.478C83.5,-147.057 83.5,-130.327 83.5,-114.055"/>
<polygon fill="none" stroke="#404040" points="83.5001,-113.764 79.5,-107.764 83.5,-101.764 87.5,-107.764 83.5001,-113.764"/>
<text text-anchor="middle" x="97.5" y="-128.5" font-family="Helvetica,sans-Serif" font-size="10.00"> +kind</text>
</g>
<!-- Node4 -->
<g id="node4" class="node"><title>Node4</title>
<polygon fill="none" stroke="#bfbfbf" points="122.5,-160.5 122.5,-217.5 178.5,-217.5 178.5,-160.5 122.5,-160.5"/>
<text text-anchor="middle" x="150.5" y="-205.5" font-family="Helvetica,sans-Serif" font-size="10.00">unsigned</text>
<polyline fill="none" stroke="#bfbfbf" points="122.5,-198.5 178.5,-198.5 "/>
<text text-anchor="middle" x="150.5" y="-186.5" font-family="Helvetica,sans-Serif" font-size="10.00"> </text>
<polyline fill="none" stroke="#bfbfbf" points="122.5,-179.5 178.5,-179.5 "/>
<text text-anchor="middle" x="150.5" y="-167.5" font-family="Helvetica,sans-Serif" font-size="10.00"> </text>
</g>
<!-- Node4&#45;&gt;Node1 -->
<g id="edge3" class="edge"><title>Node4&#45;&gt;Node1</title>
<path fill="none" stroke="#404040" d="M136.942,-160.478C130.135,-146.662 121.602,-129.34 113.365,-112.621"/>
<polygon fill="none" stroke="#404040" points="113.319,-112.528 107.079,-108.914 108.016,-101.764 114.256,-105.378 113.319,-112.528"/>
<text text-anchor="middle" x="144.5" y="-128.5" font-family="Helvetica,sans-Serif" font-size="10.00"> +nBins</text>
</g>
</g>
</svg>
