<?xml version="1.0" encoding="UTF-8" standalone="no"?>
<!DOCTYPE svg PUBLIC "-//W3C//DTD SVG 1.1//EN"
 "http://www.w3.org/Graphics/SVG/1.1/DTD/svg11.dtd">
<!-- Generated by graphviz version 2.38.0 (20140413.2041)
 -->
<!-- Title: o2::itsmft::ITSClusterReader Pages: 1 -->
<svg width="1555pt" height="1180pt"
 viewBox="0.00 0.00 1554.50 1180.00" xmlns="http://www.w3.org/2000/svg" xmlns:xlink="http://www.w3.org/1999/xlink">
<g id="graph0" class="graph" transform="scale(1 1) rotate(0) translate(4 1176)">
<title>o2::itsmft::ITSClusterReader</title>
<!-- Node1 -->
<g id="node1" class="node"><title>Node1</title>
<polygon fill="#bfbfbf" stroke="black" points="719,-0.5 719,-57.5 862,-57.5 862,-0.5 719,-0.5"/>
<text text-anchor="middle" x="790.5" y="-45.5" font-family="Helvetica,sans-Serif" font-size="10.00">o2::itsmft::ITSClusterReader</text>
<polyline fill="none" stroke="black" points="719,-38.5 862,-38.5 "/>
<text text-anchor="middle" x="790.5" y="-26.5" font-family="Helvetica,sans-Serif" font-size="10.00"> </text>
<polyline fill="none" stroke="black" points="719,-19.5 862,-19.5 "/>
<text text-anchor="start" x="727" y="-7.5" font-family="Helvetica,sans-Serif" font-size="10.00">+ ITSClusterReader()</text>
</g>
<!-- Node2 -->
<g id="node2" class="node"><title>Node2</title>
<g id="a_node2"><a xlink:href="../../d1/dc3/classo2_1_1itsmft_1_1ClusterReader.html" target="_top" xlink:title="{o2::itsmft::ClusterReader\n||+ ClusterReader()\l+ ClusterReader()\l+ ~ClusterReader()\l+ init()\l+ run()\l# accumulate()\l}">
<polygon fill="none" stroke="black" points="727,-95.5 727,-207.5 854,-207.5 854,-95.5 727,-95.5"/>
<text text-anchor="middle" x="790.5" y="-195.5" font-family="Helvetica,sans-Serif" font-size="10.00">o2::itsmft::ClusterReader</text>
<polyline fill="none" stroke="black" points="727,-188.5 854,-188.5 "/>
<text text-anchor="middle" x="790.5" y="-176.5" font-family="Helvetica,sans-Serif" font-size="10.00"> </text>
<polyline fill="none" stroke="black" points="727,-169.5 854,-169.5 "/>
<text text-anchor="start" x="735" y="-157.5" font-family="Helvetica,sans-Serif" font-size="10.00">+ ClusterReader()</text>
<text text-anchor="start" x="735" y="-146.5" font-family="Helvetica,sans-Serif" font-size="10.00">+ ClusterReader()</text>
<text text-anchor="start" x="735" y="-135.5" font-family="Helvetica,sans-Serif" font-size="10.00">+ ~ClusterReader()</text>
<text text-anchor="start" x="735" y="-124.5" font-family="Helvetica,sans-Serif" font-size="10.00">+ init()</text>
<text text-anchor="start" x="735" y="-113.5" font-family="Helvetica,sans-Serif" font-size="10.00">+ run()</text>
<text text-anchor="start" x="735" y="-102.5" font-family="Helvetica,sans-Serif" font-size="10.00"># accumulate()</text>
</a>
</g>
</g>
<!-- Node2&#45;&gt;Node1 -->
<g id="edge1" class="edge"><title>Node2&#45;&gt;Node1</title>
<path fill="none" stroke="midnightblue" d="M790.5,-85.1187C790.5,-75.478 790.5,-66.0138 790.5,-57.7231"/>
<polygon fill="none" stroke="midnightblue" points="787,-85.1874 790.5,-95.1875 794,-85.1875 787,-85.1874"/>
</g>
<!-- Node3 -->
<g id="node3" class="node"><title>Node3</title>
<g id="a_node3"><a xlink:href="../../de/dac/classo2_1_1framework_1_1Task.html" target="_top" xlink:title="{o2::framework::Task\n||+ ~Task()\l+ init()\l+ run()\l+ endOfStream()\l}">
<polygon fill="none" stroke="black" points="0,-448 0,-538 107,-538 107,-448 0,-448"/>
<text text-anchor="middle" x="53.5" y="-526" font-family="Helvetica,sans-Serif" font-size="10.00">o2::framework::Task</text>
<polyline fill="none" stroke="black" points="0,-519 107,-519 "/>
<text text-anchor="middle" x="53.5" y="-507" font-family="Helvetica,sans-Serif" font-size="10.00"> </text>
<polyline fill="none" stroke="black" points="0,-500 107,-500 "/>
<text text-anchor="start" x="8" y="-488" font-family="Helvetica,sans-Serif" font-size="10.00">+ ~Task()</text>
<text text-anchor="start" x="8" y="-477" font-family="Helvetica,sans-Serif" font-size="10.00">+ init()</text>
<text text-anchor="start" x="8" y="-466" font-family="Helvetica,sans-Serif" font-size="10.00">+ run()</text>
<text text-anchor="start" x="8" y="-455" font-family="Helvetica,sans-Serif" font-size="10.00">+ endOfStream()</text>
</a>
</g>
</g>
<!-- Node3&#45;&gt;Node2 -->
<g id="edge2" class="edge"><title>Node3&#45;&gt;Node2</title>
<path fill="none" stroke="midnightblue" d="M66.8408,-438.362C86.181,-373.808 128.968,-268.764 210.5,-226 299.15,-179.502 595.525,-161.023 726.887,-154.99"/>
<polygon fill="none" stroke="midnightblue" points="63.4786,-437.39 64.0456,-447.969 70.1999,-439.345 63.4786,-437.39"/>
</g>
<!-- Node4 -->
<g id="node4" class="node"><title>Node4</title>
<polygon fill="none" stroke="#bfbfbf" points="124.5,-459 124.5,-527 282.5,-527 282.5,-459 124.5,-459"/>
<text text-anchor="start" x="132.5" y="-515" font-family="Helvetica,sans-Serif" font-size="10.00">vector&lt; o2::itsmft</text>
<text text-anchor="middle" x="203.5" y="-504" font-family="Helvetica,sans-Serif" font-size="10.00">::o2::itsmft::CompClusterExt &gt; *</text>
<polyline fill="none" stroke="#bfbfbf" points="124.5,-497 282.5,-497 "/>
<text text-anchor="middle" x="203.5" y="-485" font-family="Helvetica,sans-Serif" font-size="10.00"> </text>
<polyline fill="none" stroke="#bfbfbf" points="124.5,-478 282.5,-478 "/>
<text text-anchor="middle" x="203.5" y="-466" font-family="Helvetica,sans-Serif" font-size="10.00"> </text>
</g>
<!-- Node4&#45;&gt;Node2 -->
<g id="edge3" class="edge"><title>Node4&#45;&gt;Node2</title>
<path fill="none" stroke="#404040" d="M200.257,-458.862C196.714,-402.05 198.674,-286.359 264.5,-226 328.773,-167.064 585.22,-155.094 714.774,-152.862"/>
<polygon fill="none" stroke="#404040" points="714.906,-152.86 720.843,-148.768 726.904,-152.675 720.967,-156.767 714.906,-152.86"/>
<text text-anchor="middle" x="320.5" y="-267.5" font-family="Helvetica,sans-Serif" font-size="10.00"> #mClusterCompArrayInp</text>
</g>
<!-- Node5 -->
<g id="node5" class="node"><title>Node5</title>
<g id="a_node5"><a xlink:href="../../d9/db3/structo2_1_1header_1_1Descriptor.html" target="_top" xlink:title="{o2::header::Descriptor\l\&lt; gSizeDataOriginString,\l printDataOrigin \&gt;\n||+ Descriptor()\l+ Descriptor()\l+ Descriptor()\l+ Descriptor()\l+ operator=()\l+ operator ItgType()\l+ runtimeInit()\l+ operator==()\l+ operator==()\l+ operator\&lt;()\l+ operator!=()\l+ operator!=()\l+ as()\l+ print()\l}">
<polygon fill="none" stroke="black" points="300,-382 300,-604 425,-604 425,-382 300,-382"/>
<text text-anchor="start" x="308" y="-592" font-family="Helvetica,sans-Serif" font-size="10.00">o2::header::Descriptor</text>
<text text-anchor="start" x="308" y="-581" font-family="Helvetica,sans-Serif" font-size="10.00">&lt; gSizeDataOriginString,</text>
<text text-anchor="middle" x="362.5" y="-570" font-family="Helvetica,sans-Serif" font-size="10.00"> printDataOrigin &gt;</text>
<polyline fill="none" stroke="black" points="300,-563 425,-563 "/>
<text text-anchor="middle" x="362.5" y="-551" font-family="Helvetica,sans-Serif" font-size="10.00"> </text>
<polyline fill="none" stroke="black" points="300,-544 425,-544 "/>
<text text-anchor="start" x="308" y="-532" font-family="Helvetica,sans-Serif" font-size="10.00">+ Descriptor()</text>
<text text-anchor="start" x="308" y="-521" font-family="Helvetica,sans-Serif" font-size="10.00">+ Descriptor()</text>
<text text-anchor="start" x="308" y="-510" font-family="Helvetica,sans-Serif" font-size="10.00">+ Descriptor()</text>
<text text-anchor="start" x="308" y="-499" font-family="Helvetica,sans-Serif" font-size="10.00">+ Descriptor()</text>
<text text-anchor="start" x="308" y="-488" font-family="Helvetica,sans-Serif" font-size="10.00">+ operator=()</text>
<text text-anchor="start" x="308" y="-477" font-family="Helvetica,sans-Serif" font-size="10.00">+ operator ItgType()</text>
<text text-anchor="start" x="308" y="-466" font-family="Helvetica,sans-Serif" font-size="10.00">+ runtimeInit()</text>
<text text-anchor="start" x="308" y="-455" font-family="Helvetica,sans-Serif" font-size="10.00">+ operator==()</text>
<text text-anchor="start" x="308" y="-444" font-family="Helvetica,sans-Serif" font-size="10.00">+ operator==()</text>
<text text-anchor="start" x="308" y="-433" font-family="Helvetica,sans-Serif" font-size="10.00">+ operator&lt;()</text>
<text text-anchor="start" x="308" y="-422" font-family="Helvetica,sans-Serif" font-size="10.00">+ operator!=()</text>
<text text-anchor="start" x="308" y="-411" font-family="Helvetica,sans-Serif" font-size="10.00">+ operator!=()</text>
<text text-anchor="start" x="308" y="-400" font-family="Helvetica,sans-Serif" font-size="10.00">+ as()</text>
<text text-anchor="start" x="308" y="-389" font-family="Helvetica,sans-Serif" font-size="10.00">+ print()</text>
</a>
</g>
</g>
<!-- Node5&#45;&gt;Node2 -->
<g id="edge4" class="edge"><title>Node5&#45;&gt;Node2</title>
<path fill="none" stroke="#404040" d="M364.814,-381.929C371.785,-327.856 389.463,-265.912 431.5,-226 471.46,-188.061 621.712,-167.812 714.703,-158.684"/>
<polygon fill="none" stroke="#404040" points="714.921,-158.664 720.513,-154.111 726.866,-157.522 721.274,-162.074 714.921,-158.664"/>
<text text-anchor="middle" x="453" y="-267.5" font-family="Helvetica,sans-Serif" font-size="10.00"> #mOrigin</text>
</g>
<!-- Node6 -->
<g id="node6" class="node"><title>Node6</title>
<polygon fill="none" stroke="#bfbfbf" points="323.5,-1114.5 323.5,-1171.5 361.5,-1171.5 361.5,-1114.5 323.5,-1114.5"/>
<text text-anchor="middle" x="342.5" y="-1159.5" font-family="Helvetica,sans-Serif" font-size="10.00">Type</text>
<polyline fill="none" stroke="#bfbfbf" points="323.5,-1152.5 361.5,-1152.5 "/>
<text text-anchor="middle" x="342.5" y="-1140.5" font-family="Helvetica,sans-Serif" font-size="10.00"> </text>
<polyline fill="none" stroke="#bfbfbf" points="323.5,-1133.5 361.5,-1133.5 "/>
<text text-anchor="middle" x="342.5" y="-1121.5" font-family="Helvetica,sans-Serif" font-size="10.00"> </text>
</g>
<!-- Node6&#45;&gt;Node5 -->
<g id="edge5" class="edge"><title>Node6&#45;&gt;Node5</title>
<path fill="none" stroke="#404040" d="M346.595,-1114.32C347.351,-1108.29 348.045,-1101.94 348.5,-1096 361.203,-930.224 363.526,-738.085 363.463,-616.319"/>
<polygon fill="none" stroke="#404040" points="363.463,-616.026 359.456,-610.031 363.449,-604.026 367.456,-610.021 363.463,-616.026"/>
<text text-anchor="middle" x="373.5" y="-881.5" font-family="Helvetica,sans-Serif" font-size="10.00"> +itg</text>
</g>
<!-- Node10 -->
<g id="node10" class="node"><title>Node10</title>
<g id="a_node10"><a xlink:href="../../d9/db3/structo2_1_1header_1_1Descriptor.html" target="_top" xlink:title="{o2::header::Descriptor\l\&lt; N, PrinterPolicy \&gt;\n||+ Descriptor()\l+ Descriptor()\l+ Descriptor()\l+ operator=()\l+ operator ItgType()\l+ Descriptor()\l+ runtimeInit()\l+ operator==()\l+ operator\&lt;()\l+ operator!=()\l+ operator==()\l+ operator!=()\l+ as()\l+ print()\l}">
<polygon fill="none" stroke="black" points="213,-778.5 213,-989.5 326,-989.5 326,-778.5 213,-778.5"/>
<text text-anchor="start" x="221" y="-977.5" font-family="Helvetica,sans-Serif" font-size="10.00">o2::header::Descriptor</text>
<text text-anchor="middle" x="269.5" y="-966.5" font-family="Helvetica,sans-Serif" font-size="10.00">&lt; N, PrinterPolicy &gt;</text>
<polyline fill="none" stroke="black" points="213,-959.5 326,-959.5 "/>
<text text-anchor="middle" x="269.5" y="-947.5" font-family="Helvetica,sans-Serif" font-size="10.00"> </text>
<polyline fill="none" stroke="black" points="213,-940.5 326,-940.5 "/>
<text text-anchor="start" x="221" y="-928.5" font-family="Helvetica,sans-Serif" font-size="10.00">+ Descriptor()</text>
<text text-anchor="start" x="221" y="-917.5" font-family="Helvetica,sans-Serif" font-size="10.00">+ Descriptor()</text>
<text text-anchor="start" x="221" y="-906.5" font-family="Helvetica,sans-Serif" font-size="10.00">+ Descriptor()</text>
<text text-anchor="start" x="221" y="-895.5" font-family="Helvetica,sans-Serif" font-size="10.00">+ operator=()</text>
<text text-anchor="start" x="221" y="-884.5" font-family="Helvetica,sans-Serif" font-size="10.00">+ operator ItgType()</text>
<text text-anchor="start" x="221" y="-873.5" font-family="Helvetica,sans-Serif" font-size="10.00">+ Descriptor()</text>
<text text-anchor="start" x="221" y="-862.5" font-family="Helvetica,sans-Serif" font-size="10.00">+ runtimeInit()</text>
<text text-anchor="start" x="221" y="-851.5" font-family="Helvetica,sans-Serif" font-size="10.00">+ operator==()</text>
<text text-anchor="start" x="221" y="-840.5" font-family="Helvetica,sans-Serif" font-size="10.00">+ operator&lt;()</text>
<text text-anchor="start" x="221" y="-829.5" font-family="Helvetica,sans-Serif" font-size="10.00">+ operator!=()</text>
<text text-anchor="start" x="221" y="-818.5" font-family="Helvetica,sans-Serif" font-size="10.00">+ operator==()</text>
<text text-anchor="start" x="221" y="-807.5" font-family="Helvetica,sans-Serif" font-size="10.00">+ operator!=()</text>
<text text-anchor="start" x="221" y="-796.5" font-family="Helvetica,sans-Serif" font-size="10.00">+ as()</text>
<text text-anchor="start" x="221" y="-785.5" font-family="Helvetica,sans-Serif" font-size="10.00">+ print()</text>
</a>
</g>
</g>
<!-- Node6&#45;&gt;Node10 -->
<g id="edge10" class="edge"><title>Node6&#45;&gt;Node10</title>
<path fill="none" stroke="#404040" d="M333.958,-1114.3C332.131,-1108.28 330.231,-1101.93 328.5,-1096 319.544,-1065.32 310.112,-1032.06 301.481,-1001.2"/>
<polygon fill="none" stroke="#404040" points="301.442,-1001.06 295.976,-996.36 298.214,-989.505 303.681,-994.208 301.442,-1001.06"/>
<text text-anchor="middle" x="338.5" y="-1077" font-family="Helvetica,sans-Serif" font-size="10.00"> +itg</text>
</g>
<!-- Node7 -->
<g id="node7" class="node"><title>Node7</title>
<polygon fill="none" stroke="#bfbfbf" points="396,-1114.5 396,-1171.5 431,-1171.5 431,-1114.5 396,-1114.5"/>
<text text-anchor="middle" x="413.5" y="-1159.5" font-family="Helvetica,sans-Serif" font-size="10.00">char</text>
<polyline fill="none" stroke="#bfbfbf" points="396,-1152.5 431,-1152.5 "/>
<text text-anchor="middle" x="413.5" y="-1140.5" font-family="Helvetica,sans-Serif" font-size="10.00"> </text>
<polyline fill="none" stroke="#bfbfbf" points="396,-1133.5 431,-1133.5 "/>
<text text-anchor="middle" x="413.5" y="-1121.5" font-family="Helvetica,sans-Serif" font-size="10.00"> </text>
</g>
<!-- Node7&#45;&gt;Node5 -->
<g id="edge6" class="edge"><title>Node7&#45;&gt;Node5</title>
<path fill="none" stroke="#404040" d="M412.217,-1114.02C409.027,-1046.63 400.082,-870.051 387.5,-723 384.534,-688.335 380.697,-650.786 376.923,-616.316"/>
<polygon fill="none" stroke="#404040" points="376.909,-616.189 372.275,-610.664 375.593,-604.261 380.227,-609.786 376.909,-616.189"/>
<text text-anchor="middle" x="420" y="-881.5" font-family="Helvetica,sans-Serif" font-size="10.00"> +str</text>
</g>
<!-- Node7&#45;&gt;Node10 -->
<g id="edge11" class="edge"><title>Node7&#45;&gt;Node10</title>
<path fill="none" stroke="#404040" d="M395.725,-1119.63C377.09,-1095.95 349.311,-1059.99 340.5,-1045 332.259,-1030.98 324.362,-1015.83 317.023,-1000.64"/>
<polygon fill="none" stroke="#404040" points="316.922,-1000.42 310.738,-996.715 311.782,-989.58 317.967,-993.288 316.922,-1000.42"/>
<text text-anchor="middle" x="387" y="-1077" font-family="Helvetica,sans-Serif" font-size="10.00"> +str</text>
</g>
<!-- Node8 -->
<g id="node8" class="node"><title>Node8</title>
<polygon fill="none" stroke="#bfbfbf" points="471,-855.5 471,-912.5 500,-912.5 500,-855.5 471,-855.5"/>
<text text-anchor="middle" x="485.5" y="-900.5" font-family="Helvetica,sans-Serif" font-size="10.00">int</text>
<polyline fill="none" stroke="#bfbfbf" points="471,-893.5 500,-893.5 "/>
<text text-anchor="middle" x="485.5" y="-881.5" font-family="Helvetica,sans-Serif" font-size="10.00"> </text>
<polyline fill="none" stroke="#bfbfbf" points="471,-874.5 500,-874.5 "/>
<text text-anchor="middle" x="485.5" y="-862.5" font-family="Helvetica,sans-Serif" font-size="10.00"> </text>
</g>
<!-- Node8&#45;&gt;Node5 -->
<g id="edge7" class="edge"><title>Node8&#45;&gt;Node5</title>
<path fill="none" stroke="#404040" d="M480.798,-855.485C475.278,-823.565 465.703,-769.382 456.5,-723 451.987,-700.255 454.111,-693.53 445.5,-672 442.018,-663.295 438.877,-662.291 434.5,-654 427.945,-641.583 421.417,-628.451 415.118,-615.263"/>
<polygon fill="none" stroke="#404040" points="415.011,-615.037 408.831,-611.32 409.885,-604.187 416.065,-607.903 415.011,-615.037"/>
<text text-anchor="middle" x="480" y="-697" font-family="Helvetica,sans-Serif" font-size="10.00"> +arraySize</text>
<text text-anchor="middle" x="480" y="-686" font-family="Helvetica,sans-Serif" font-size="10.00">+size</text>
<text text-anchor="middle" x="480" y="-675" font-family="Helvetica,sans-Serif" font-size="10.00">+bitcount</text>
</g>
<!-- Node9 -->
<g id="node9" class="node"><title>Node9</title>
<polygon fill="none" stroke="#bfbfbf" points="116,-1114.5 116,-1171.5 213,-1171.5 213,-1114.5 116,-1114.5"/>
<text text-anchor="middle" x="164.5" y="-1159.5" font-family="Helvetica,sans-Serif" font-size="10.00">anonymous:+@24</text>
<polyline fill="none" stroke="#bfbfbf" points="116,-1152.5 213,-1152.5 "/>
<text text-anchor="middle" x="164.5" y="-1140.5" font-family="Helvetica,sans-Serif" font-size="10.00"> </text>
<polyline fill="none" stroke="#bfbfbf" points="116,-1133.5 213,-1133.5 "/>
<text text-anchor="middle" x="164.5" y="-1121.5" font-family="Helvetica,sans-Serif" font-size="10.00"> </text>
</g>
<!-- Node9&#45;&gt;Node5 -->
<g id="edge8" class="edge"><title>Node9&#45;&gt;Node5</title>
<path fill="none" stroke="#404040" d="M158.651,-1114.5C145.318,-1045.59 117.864,-861.196 172.5,-723 183.723,-694.613 192.308,-687.676 218.5,-672 247.173,-654.839 265.887,-675.462 291.5,-654 304.34,-643.241 314.942,-629.698 323.674,-615.068"/>
<polygon fill="none" stroke="#404040" points="323.864,-614.727 323.292,-607.539 329.708,-604.247 330.28,-611.435 323.864,-614.727"/>
<text text-anchor="middle" x="188" y="-881.5" font-family="Helvetica,sans-Serif" font-size="10.00"> +@24</text>
</g>
<!-- Node9&#45;&gt;Node10 -->
<g id="edge12" class="edge"><title>Node9&#45;&gt;Node10</title>
<path fill="none" stroke="#404040" d="M175.737,-1114.5C186.931,-1087.1 204.886,-1043.15 222.103,-1001.01"/>
<polygon fill="none" stroke="#404040" points="222.157,-1000.88 220.723,-993.811 226.695,-989.769 228.129,-996.836 222.157,-1000.88"/>
<text text-anchor="middle" x="212" y="-1077" font-family="Helvetica,sans-Serif" font-size="10.00"> +@24</text>
</g>
<!-- Node10&#45;&gt;Node5 -->
<g id="edge9" class="edge"><title>Node10&#45;&gt;Node5</title>
<path fill="none" stroke="orange" d="M221.654,-768.585C215.1,-734.926 216.396,-699.732 236.5,-672 251.596,-651.176 272.415,-671.242 291.5,-654 306.721,-640.248 318.852,-622.625 328.463,-604.128"/>
<polygon fill="orange" stroke="orange" points="218.265,-769.474 223.814,-778.499 225.105,-767.983 218.265,-769.474"/>
<text text-anchor="start" x="236.5" y="-691.5" font-family="Helvetica,sans-Serif" font-size="10.00"> &lt; gSizeDataOriginString,</text>
<text text-anchor="middle" x="292.5" y="-680.5" font-family="Helvetica,sans-Serif" font-size="10.00"> printDataOrigin &gt;</text>
</g>
<!-- Node11 -->
<g id="node11" class="node"><title>Node11</title>
<polygon fill="none" stroke="#bfbfbf" points="233,-1114.5 233,-1171.5 274,-1171.5 274,-1114.5 233,-1114.5"/>
<text text-anchor="middle" x="253.5" y="-1159.5" font-family="Helvetica,sans-Serif" font-size="10.00">static</text>
<polyline fill="none" stroke="#bfbfbf" points="233,-1152.5 274,-1152.5 "/>
<text text-anchor="middle" x="253.5" y="-1140.5" font-family="Helvetica,sans-Serif" font-size="10.00"> </text>
<polyline fill="none" stroke="#bfbfbf" points="233,-1133.5 274,-1133.5 "/>
<text text-anchor="middle" x="253.5" y="-1121.5" font-family="Helvetica,sans-Serif" font-size="10.00"> </text>
</g>
<!-- Node11&#45;&gt;Node10 -->
<g id="edge13" class="edge"><title>Node11&#45;&gt;Node10</title>
<path fill="none" stroke="#404040" d="M253.368,-1114.2C253.417,-1099.05 253.678,-1079.99 254.5,-1063 255.454,-1043.28 256.861,-1022.37 258.437,-1002.07"/>
<polygon fill="none" stroke="#404040" points="258.456,-1001.83 254.946,-995.527 259.41,-989.864 262.92,-996.163 258.456,-1001.83"/>
<text text-anchor="middle" x="280" y="-1088" font-family="Helvetica,sans-Serif" font-size="10.00"> +arraySize</text>
<text text-anchor="middle" x="280" y="-1077" font-family="Helvetica,sans-Serif" font-size="10.00">+size</text>
<text text-anchor="middle" x="280" y="-1066" font-family="Helvetica,sans-Serif" font-size="10.00">+bitcount</text>
</g>
<!-- Node12 -->
<g id="node12" class="node"><title>Node12</title>
<polygon fill="none" stroke="#bfbfbf" points="443.5,-459 443.5,-527 595.5,-527 595.5,-459 443.5,-459"/>
<text text-anchor="start" x="451.5" y="-515" font-family="Helvetica,sans-Serif" font-size="10.00">vector&lt; o2::itsmft</text>
<text text-anchor="middle" x="519.5" y="-504" font-family="Helvetica,sans-Serif" font-size="10.00">::o2::itsmft::CompClusterExt &gt;</text>
<polyline fill="none" stroke="#bfbfbf" points="443.5,-497 595.5,-497 "/>
<text text-anchor="middle" x="519.5" y="-485" font-family="Helvetica,sans-Serif" font-size="10.00"> </text>
<polyline fill="none" stroke="#bfbfbf" points="443.5,-478 595.5,-478 "/>
<text text-anchor="middle" x="519.5" y="-466" font-family="Helvetica,sans-Serif" font-size="10.00"> </text>
</g>
<!-- Node12&#45;&gt;Node2 -->
<g id="edge14" class="edge"><title>Node12&#45;&gt;Node2</title>
<path fill="none" stroke="#404040" d="M505.474,-458.906C484.739,-404.198 453.715,-294.185 506.5,-226 531.824,-193.287 639.377,-172.494 714.596,-161.666"/>
<polygon fill="none" stroke="#404040" points="714.954,-161.616 720.341,-156.822 726.838,-159.95 721.452,-164.744 714.954,-161.616"/>
<text text-anchor="middle" x="563.5" y="-267.5" font-family="Helvetica,sans-Serif" font-size="10.00"> #mClusterCompArrayOut</text>
</g>
<!-- Node13 -->
<g id="node13" class="node"><title>Node13</title>
<polygon fill="none" stroke="#bfbfbf" points="614,-464.5 614,-521.5 655,-521.5 655,-464.5 614,-464.5"/>
<text text-anchor="middle" x="634.5" y="-509.5" font-family="Helvetica,sans-Serif" font-size="10.00">string</text>
<polyline fill="none" stroke="#bfbfbf" points="614,-502.5 655,-502.5 "/>
<text text-anchor="middle" x="634.5" y="-490.5" font-family="Helvetica,sans-Serif" font-size="10.00"> </text>
<polyline fill="none" stroke="#bfbfbf" points="614,-483.5 655,-483.5 "/>
<text text-anchor="middle" x="634.5" y="-471.5" font-family="Helvetica,sans-Serif" font-size="10.00"> </text>
</g>
<!-- Node13&#45;&gt;Node2 -->
<g id="edge15" class="edge"><title>Node13&#45;&gt;Node2</title>
<path fill="none" stroke="#404040" d="M631.455,-464.072C625.464,-403.983 614.766,-264.734 639.5,-226 656.677,-199.1 686.775,-181.766 715.602,-170.735"/>
<polygon fill="none" stroke="#404040" points="715.682,-170.707 719.985,-164.921 726.982,-166.668 722.678,-172.454 715.682,-170.707"/>
<text text-anchor="middle" x="706" y="-306" font-family="Helvetica,sans-Serif" font-size="10.00"> #mDetName</text>
<text text-anchor="middle" x="706" y="-295" font-family="Helvetica,sans-Serif" font-size="10.00">#mClusROFTreeName</text>
<text text-anchor="middle" x="706" y="-284" font-family="Helvetica,sans-Serif" font-size="10.00">#mClusterBranchName</text>
<text text-anchor="middle" x="706" y="-273" font-family="Helvetica,sans-Serif" font-size="10.00">#mDetNameLC</text>
<text text-anchor="middle" x="706" y="-262" font-family="Helvetica,sans-Serif" font-size="10.00">#mClusTreeName</text>
<text text-anchor="middle" x="706" y="-251" font-family="Helvetica,sans-Serif" font-size="10.00">#mClusterCompBranchName</text>
<text text-anchor="middle" x="706" y="-240" font-family="Helvetica,sans-Serif" font-size="10.00">#mInputFileName</text>
<text text-anchor="middle" x="706" y="-229" font-family="Helvetica,sans-Serif" font-size="10.00">#mClustMCTruthBranchName</text>
</g>
<!-- Node14 -->
<g id="node14" class="node"><title>Node14</title>
<polygon fill="none" stroke="#bfbfbf" points="742,-464.5 742,-521.5 777,-521.5 777,-464.5 742,-464.5"/>
<text text-anchor="middle" x="759.5" y="-509.5" font-family="Helvetica,sans-Serif" font-size="10.00">bool</text>
<polyline fill="none" stroke="#bfbfbf" points="742,-502.5 777,-502.5 "/>
<text text-anchor="middle" x="759.5" y="-490.5" font-family="Helvetica,sans-Serif" font-size="10.00"> </text>
<polyline fill="none" stroke="#bfbfbf" points="742,-483.5 777,-483.5 "/>
<text text-anchor="middle" x="759.5" y="-471.5" font-family="Helvetica,sans-Serif" font-size="10.00"> </text>
</g>
<!-- Node14&#45;&gt;Node2 -->
<g id="edge16" class="edge"><title>Node14&#45;&gt;Node2</title>
<path fill="none" stroke="#404040" d="M762.037,-464.217C766.879,-411.188 777.562,-294.188 784.375,-219.577"/>
<polygon fill="none" stroke="#404040" points="784.384,-219.479 780.946,-213.14 785.475,-207.529 788.913,-213.868 784.384,-219.479"/>
<text text-anchor="middle" x="817.5" y="-284" font-family="Helvetica,sans-Serif" font-size="10.00"> #mUseClFull</text>
<text text-anchor="middle" x="817.5" y="-273" font-family="Helvetica,sans-Serif" font-size="10.00">#mUseMC</text>
<text text-anchor="middle" x="817.5" y="-262" font-family="Helvetica,sans-Serif" font-size="10.00">#mFinished</text>
<text text-anchor="middle" x="817.5" y="-251" font-family="Helvetica,sans-Serif" font-size="10.00">#mUseClComp</text>
</g>
<!-- Node15 -->
<g id="node15" class="node"><title>Node15</title>
<polygon fill="none" stroke="#bfbfbf" points="795.5,-459 795.5,-527 933.5,-527 933.5,-459 795.5,-459"/>
<text text-anchor="start" x="803.5" y="-515" font-family="Helvetica,sans-Serif" font-size="10.00">vector&lt; o2::itsmft</text>
<text text-anchor="middle" x="864.5" y="-504" font-family="Helvetica,sans-Serif" font-size="10.00">::o2::itsmft::ROFRecord &gt; *</text>
<polyline fill="none" stroke="#bfbfbf" points="795.5,-497 933.5,-497 "/>
<text text-anchor="middle" x="864.5" y="-485" font-family="Helvetica,sans-Serif" font-size="10.00"> </text>
<polyline fill="none" stroke="#bfbfbf" points="795.5,-478 933.5,-478 "/>
<text text-anchor="middle" x="864.5" y="-466" font-family="Helvetica,sans-Serif" font-size="10.00"> </text>
</g>
<!-- Node15&#45;&gt;Node2 -->
<g id="edge17" class="edge"><title>Node15&#45;&gt;Node2</title>
<path fill="none" stroke="#404040" d="M870.353,-458.611C877.94,-406.73 886.783,-304.559 855.5,-226 854.437,-223.329 853.231,-220.691 851.906,-218.094"/>
<polygon fill="none" stroke="#404040" points="851.873,-218.037 845.403,-214.855 845.851,-207.657 852.322,-210.84 851.873,-218.037"/>
<text text-anchor="middle" x="920.5" y="-267.5" font-family="Helvetica,sans-Serif" font-size="10.00"> #mClusROFRecInp</text>
</g>
<!-- Node16 -->
<g id="node16" class="node"><title>Node16</title>
<polygon fill="none" stroke="#bfbfbf" points="952,-459 952,-527 1069,-527 1069,-459 952,-459"/>
<text text-anchor="start" x="960" y="-515" font-family="Helvetica,sans-Serif" font-size="10.00">vector&lt; o2::itsmft</text>
<text text-anchor="middle" x="1010.5" y="-504" font-family="Helvetica,sans-Serif" font-size="10.00">::o2::itsmft::Cluster &gt; *</text>
<polyline fill="none" stroke="#bfbfbf" points="952,-497 1069,-497 "/>
<text text-anchor="middle" x="1010.5" y="-485" font-family="Helvetica,sans-Serif" font-size="10.00"> </text>
<polyline fill="none" stroke="#bfbfbf" points="952,-478 1069,-478 "/>
<text text-anchor="middle" x="1010.5" y="-466" font-family="Helvetica,sans-Serif" font-size="10.00"> </text>
</g>
<!-- Node16&#45;&gt;Node2 -->
<g id="edge18" class="edge"><title>Node16&#45;&gt;Node2</title>
<path fill="none" stroke="#404040" d="M1015,-458.968C1020.53,-404.35 1023.41,-294.464 969.5,-226 944.276,-193.968 902.737,-175.788 866.022,-165.526"/>
<polygon fill="none" stroke="#404040" points="865.909,-165.496 859.093,-167.85 854.298,-162.464 861.114,-160.11 865.909,-165.496"/>
<text text-anchor="middle" x="1051" y="-267.5" font-family="Helvetica,sans-Serif" font-size="10.00"> #mClusterArrayInp</text>
</g>
<!-- Node17 -->
<g id="node17" class="node"><title>Node17</title>
<polygon fill="none" stroke="#bfbfbf" points="1087,-459 1087,-527 1218,-527 1218,-459 1087,-459"/>
<text text-anchor="start" x="1095" y="-515" font-family="Helvetica,sans-Serif" font-size="10.00">vector&lt; o2::itsmft</text>
<text text-anchor="middle" x="1152.5" y="-504" font-family="Helvetica,sans-Serif" font-size="10.00">::o2::itsmft::ROFRecord &gt;</text>
<polyline fill="none" stroke="#bfbfbf" points="1087,-497 1218,-497 "/>
<text text-anchor="middle" x="1152.5" y="-485" font-family="Helvetica,sans-Serif" font-size="10.00"> </text>
<polyline fill="none" stroke="#bfbfbf" points="1087,-478 1218,-478 "/>
<text text-anchor="middle" x="1152.5" y="-466" font-family="Helvetica,sans-Serif" font-size="10.00"> </text>
</g>
<!-- Node17&#45;&gt;Node2 -->
<g id="edge19" class="edge"><title>Node17&#45;&gt;Node2</title>
<path fill="none" stroke="#404040" d="M1156.01,-458.693C1159.94,-402.669 1159.04,-289.487 1097.5,-226 1065.89,-193.39 946.526,-172.197 866.288,-161.306"/>
<polygon fill="none" stroke="#404040" points="866.153,-161.288 859.679,-164.464 854.258,-159.71 860.731,-156.534 866.153,-161.288"/>
<text text-anchor="middle" x="1189.5" y="-267.5" font-family="Helvetica,sans-Serif" font-size="10.00"> #mClusROFRecOut</text>
</g>
<!-- Node18 -->
<g id="node18" class="node"><title>Node18</title>
<g id="a_node18"><a xlink:href="../../dc/daa/classo2_1_1dataformats_1_1MCTruthContainer.html" target="_top" xlink:title="{o2::dataformats::MCTruth\lContainer\&lt; o2::o2::MCCompLabel \&gt;\n||+ MCTruthContainer()\l+ MCTruthContainer()\l+ MCTruthContainer()\l+ ~MCTruthContainer()\l+ operator=()\l+ operator=()\l+ getMCTruthHeader()\l+ getElement()\l+ getIndexedSize()\l+ getNElements()\l+ getLabels()\l+ getLabels()\l+ clear()\l+ addElement()\l+ addElements()\l+ addElements()\l+ addElementRandomAccess()\l+ mergeAtBack()\l+ flatten_to()\l+ restore_from()\l+ print()\l+ inflate()\l+ deflate()\l+ ClassDefNV()\l}">
<polygon fill="none" stroke="black" points="1236,-332.5 1236,-653.5 1411,-653.5 1411,-332.5 1236,-332.5"/>
<text text-anchor="start" x="1244" y="-641.5" font-family="Helvetica,sans-Serif" font-size="10.00">o2::dataformats::MCTruth</text>
<text text-anchor="middle" x="1323.5" y="-630.5" font-family="Helvetica,sans-Serif" font-size="10.00">Container&lt; o2::o2::MCCompLabel &gt;</text>
<polyline fill="none" stroke="black" points="1236,-623.5 1411,-623.5 "/>
<text text-anchor="middle" x="1323.5" y="-611.5" font-family="Helvetica,sans-Serif" font-size="10.00"> </text>
<polyline fill="none" stroke="black" points="1236,-604.5 1411,-604.5 "/>
<text text-anchor="start" x="1244" y="-592.5" font-family="Helvetica,sans-Serif" font-size="10.00">+ MCTruthContainer()</text>
<text text-anchor="start" x="1244" y="-581.5" font-family="Helvetica,sans-Serif" font-size="10.00">+ MCTruthContainer()</text>
<text text-anchor="start" x="1244" y="-570.5" font-family="Helvetica,sans-Serif" font-size="10.00">+ MCTruthContainer()</text>
<text text-anchor="start" x="1244" y="-559.5" font-family="Helvetica,sans-Serif" font-size="10.00">+ ~MCTruthContainer()</text>
<text text-anchor="start" x="1244" y="-548.5" font-family="Helvetica,sans-Serif" font-size="10.00">+ operator=()</text>
<text text-anchor="start" x="1244" y="-537.5" font-family="Helvetica,sans-Serif" font-size="10.00">+ operator=()</text>
<text text-anchor="start" x="1244" y="-526.5" font-family="Helvetica,sans-Serif" font-size="10.00">+ getMCTruthHeader()</text>
<text text-anchor="start" x="1244" y="-515.5" font-family="Helvetica,sans-Serif" font-size="10.00">+ getElement()</text>
<text text-anchor="start" x="1244" y="-504.5" font-family="Helvetica,sans-Serif" font-size="10.00">+ getIndexedSize()</text>
<text text-anchor="start" x="1244" y="-493.5" font-family="Helvetica,sans-Serif" font-size="10.00">+ getNElements()</text>
<text text-anchor="start" x="1244" y="-482.5" font-family="Helvetica,sans-Serif" font-size="10.00">+ getLabels()</text>
<text text-anchor="start" x="1244" y="-471.5" font-family="Helvetica,sans-Serif" font-size="10.00">+ getLabels()</text>
<text text-anchor="start" x="1244" y="-460.5" font-family="Helvetica,sans-Serif" font-size="10.00">+ clear()</text>
<text text-anchor="start" x="1244" y="-449.5" font-family="Helvetica,sans-Serif" font-size="10.00">+ addElement()</text>
<text text-anchor="start" x="1244" y="-438.5" font-family="Helvetica,sans-Serif" font-size="10.00">+ addElements()</text>
<text text-anchor="start" x="1244" y="-427.5" font-family="Helvetica,sans-Serif" font-size="10.00">+ addElements()</text>
<text text-anchor="start" x="1244" y="-416.5" font-family="Helvetica,sans-Serif" font-size="10.00">+ addElementRandomAccess()</text>
<text text-anchor="start" x="1244" y="-405.5" font-family="Helvetica,sans-Serif" font-size="10.00">+ mergeAtBack()</text>
<text text-anchor="start" x="1244" y="-394.5" font-family="Helvetica,sans-Serif" font-size="10.00">+ flatten_to()</text>
<text text-anchor="start" x="1244" y="-383.5" font-family="Helvetica,sans-Serif" font-size="10.00">+ restore_from()</text>
<text text-anchor="start" x="1244" y="-372.5" font-family="Helvetica,sans-Serif" font-size="10.00">+ print()</text>
<text text-anchor="start" x="1244" y="-361.5" font-family="Helvetica,sans-Serif" font-size="10.00">+ inflate()</text>
<text text-anchor="start" x="1244" y="-350.5" font-family="Helvetica,sans-Serif" font-size="10.00">+ deflate()</text>
<text text-anchor="start" x="1244" y="-339.5" font-family="Helvetica,sans-Serif" font-size="10.00">+ ClassDefNV()</text>
</a>
</g>
</g>
<!-- Node18&#45;&gt;Node2 -->
<g id="edge20" class="edge"><title>Node18&#45;&gt;Node2</title>
<path fill="none" stroke="#404040" d="M1303.33,-332.299C1290.91,-292.452 1271.08,-253.34 1239.5,-226 1184.96,-178.782 979.679,-161.527 866.523,-155.515"/>
<polygon fill="none" stroke="#404040" points="866.183,-155.498 859.986,-159.186 854.198,-154.885 860.395,-151.197 866.183,-155.498"/>
<text text-anchor="middle" x="1346.5" y="-273" font-family="Helvetica,sans-Serif" font-size="10.00"> #mClusterMCTruthInp</text>
<text text-anchor="middle" x="1346.5" y="-262" font-family="Helvetica,sans-Serif" font-size="10.00">#mClusterMCTruthOut</text>
</g>
<!-- Node19 -->
<g id="node19" class="node"><title>Node19</title>
<g id="a_node19"><a xlink:href="../../dc/daa/classo2_1_1dataformats_1_1MCTruthContainer.html" target="_top" xlink:title="A container to hold and manage MC truth information/labels. ">
<polygon fill="none" stroke="black" points="1247,-723.5 1247,-1044.5 1400,-1044.5 1400,-723.5 1247,-723.5"/>
<text text-anchor="start" x="1255" y="-1032.5" font-family="Helvetica,sans-Serif" font-size="10.00">o2::dataformats::MCTruth</text>
<text text-anchor="middle" x="1323.5" y="-1021.5" font-family="Helvetica,sans-Serif" font-size="10.00">Container&lt; TruthElement &gt;</text>
<polyline fill="none" stroke="black" points="1247,-1014.5 1400,-1014.5 "/>
<text text-anchor="middle" x="1323.5" y="-1002.5" font-family="Helvetica,sans-Serif" font-size="10.00"> </text>
<polyline fill="none" stroke="black" points="1247,-995.5 1400,-995.5 "/>
<text text-anchor="start" x="1255" y="-983.5" font-family="Helvetica,sans-Serif" font-size="10.00">+ MCTruthContainer()</text>
<text text-anchor="start" x="1255" y="-972.5" font-family="Helvetica,sans-Serif" font-size="10.00">+ ~MCTruthContainer()</text>
<text text-anchor="start" x="1255" y="-961.5" font-family="Helvetica,sans-Serif" font-size="10.00">+ MCTruthContainer()</text>
<text text-anchor="start" x="1255" y="-950.5" font-family="Helvetica,sans-Serif" font-size="10.00">+ MCTruthContainer()</text>
<text text-anchor="start" x="1255" y="-939.5" font-family="Helvetica,sans-Serif" font-size="10.00">+ operator=()</text>
<text text-anchor="start" x="1255" y="-928.5" font-family="Helvetica,sans-Serif" font-size="10.00">+ operator=()</text>
<text text-anchor="start" x="1255" y="-917.5" font-family="Helvetica,sans-Serif" font-size="10.00">+ getMCTruthHeader()</text>
<text text-anchor="start" x="1255" y="-906.5" font-family="Helvetica,sans-Serif" font-size="10.00">+ getElement()</text>
<text text-anchor="start" x="1255" y="-895.5" font-family="Helvetica,sans-Serif" font-size="10.00">+ getIndexedSize()</text>
<text text-anchor="start" x="1255" y="-884.5" font-family="Helvetica,sans-Serif" font-size="10.00">+ getNElements()</text>
<text text-anchor="start" x="1255" y="-873.5" font-family="Helvetica,sans-Serif" font-size="10.00">+ getLabels()</text>
<text text-anchor="start" x="1255" y="-862.5" font-family="Helvetica,sans-Serif" font-size="10.00">+ getLabels()</text>
<text text-anchor="start" x="1255" y="-851.5" font-family="Helvetica,sans-Serif" font-size="10.00">+ clear()</text>
<text text-anchor="start" x="1255" y="-840.5" font-family="Helvetica,sans-Serif" font-size="10.00">+ addElement()</text>
<text text-anchor="start" x="1255" y="-829.5" font-family="Helvetica,sans-Serif" font-size="10.00">+ addElements()</text>
<text text-anchor="start" x="1255" y="-818.5" font-family="Helvetica,sans-Serif" font-size="10.00">+ addElements()</text>
<text text-anchor="start" x="1255" y="-807.5" font-family="Helvetica,sans-Serif" font-size="10.00">+ addElementRandomAccess()</text>
<text text-anchor="start" x="1255" y="-796.5" font-family="Helvetica,sans-Serif" font-size="10.00">+ mergeAtBack()</text>
<text text-anchor="start" x="1255" y="-785.5" font-family="Helvetica,sans-Serif" font-size="10.00">+ flatten_to()</text>
<text text-anchor="start" x="1255" y="-774.5" font-family="Helvetica,sans-Serif" font-size="10.00">+ restore_from()</text>
<text text-anchor="start" x="1255" y="-763.5" font-family="Helvetica,sans-Serif" font-size="10.00">+ print()</text>
<text text-anchor="start" x="1255" y="-752.5" font-family="Helvetica,sans-Serif" font-size="10.00">+ inflate()</text>
<text text-anchor="start" x="1255" y="-741.5" font-family="Helvetica,sans-Serif" font-size="10.00">+ deflate()</text>
<text text-anchor="start" x="1255" y="-730.5" font-family="Helvetica,sans-Serif" font-size="10.00">+ ClassDefNV()</text>
</a>
</g>
</g>
<!-- Node19&#45;&gt;Node18 -->
<g id="edge21" class="edge"><title>Node19&#45;&gt;Node18</title>
<path fill="none" stroke="orange" d="M1323.5,-713.336C1323.5,-693.461 1323.5,-673.235 1323.5,-653.505"/>
<polygon fill="orange" stroke="orange" points="1320,-713.376 1323.5,-723.376 1327,-713.376 1320,-713.376"/>
<text text-anchor="middle" x="1383.5" y="-686" font-family="Helvetica,sans-Serif" font-size="10.00"> &lt; o2::o2::MCCompLabel &gt;</text>
</g>
<!-- Node20 -->
<g id="node20" class="node"><title>Node20</title>
<polygon fill="none" stroke="#bfbfbf" points="1429.5,-459 1429.5,-527 1539.5,-527 1539.5,-459 1429.5,-459"/>
<text text-anchor="start" x="1437.5" y="-515" font-family="Helvetica,sans-Serif" font-size="10.00">vector&lt; o2::itsmft</text>
<text text-anchor="middle" x="1484.5" y="-504" font-family="Helvetica,sans-Serif" font-size="10.00">::o2::itsmft::Cluster &gt;</text>
<polyline fill="none" stroke="#bfbfbf" points="1429.5,-497 1539.5,-497 "/>
<text text-anchor="middle" x="1484.5" y="-485" font-family="Helvetica,sans-Serif" font-size="10.00"> </text>
<polyline fill="none" stroke="#bfbfbf" points="1429.5,-478 1539.5,-478 "/>
<text text-anchor="middle" x="1484.5" y="-466" font-family="Helvetica,sans-Serif" font-size="10.00"> </text>
</g>
<!-- Node20&#45;&gt;Node2 -->
<g id="edge22" class="edge"><title>Node20&#45;&gt;Node2</title>
<path fill="none" stroke="#404040" d="M1484.73,-458.884C1483.16,-401.572 1470.95,-284.432 1400.5,-226 1320.82,-159.914 1011.32,-151.788 866.285,-151.722"/>
<polygon fill="none" stroke="#404040" points="866.033,-151.722 860.037,-155.729 854.033,-151.735 860.028,-147.729 866.033,-151.722"/>
<text text-anchor="middle" x="1502.5" y="-267.5" font-family="Helvetica,sans-Serif" font-size="10.00"> #mClusterArrayOut</text>
</g>
</g>
</svg>
