<?xml version="1.0" encoding="UTF-8" standalone="no"?>
<!DOCTYPE svg PUBLIC "-//W3C//DTD SVG 1.1//EN"
 "http://www.w3.org/Graphics/SVG/1.1/DTD/svg11.dtd">
<!-- Generated by graphviz version 2.38.0 (20140413.2041)
 -->
<!-- Title: o2::detectors::DetMatrixCache Pages: 1 -->
<!--zoomable 969 -->
<svg id="main" version="1.1" xmlns="http://www.w3.org/2000/svg" xmlns:xlink="http://www.w3.org/1999/xlink" xml:space="preserve" onload="init(evt)">
<style type="text/css"><![CDATA[
.edge:hover path { stroke: red; }
.edge:hover polygon { stroke: red; fill: red; }
]]></style>
<script type="text/javascript"><![CDATA[
var edges = document.getElementsByTagName('g');
if (edges && edges.length) {
  for (var i=0;i<edges.length;i++) {
    if (edges[i].id.substr(0,4)=='edge') {
      edges[i].setAttribute('class','edge');
    }
  }
}
]]></script>
        <defs>
                <circle id="rim" cx="0" cy="0" r="7"/>
                <circle id="rim2" cx="0" cy="0" r="3.5"/>
                <g id="zoomPlus">
                        <use xlink:href="#rim" fill="#404040">
                                <set attributeName="fill" to="#808080" begin="zoomplus.mouseover" end="zoomplus.mouseout"/>
                        </use>
                        <path d="M-4,0h8M0,-4v8" fill="none" stroke="white" stroke-width="1.5" pointer-events="none"/>
                </g>
                <g id="zoomMin">
                        <use xlink:href="#rim" fill="#404040">
                                <set attributeName="fill" to="#808080" begin="zoomminus.mouseover" end="zoomminus.mouseout"/>
                        </use>
                        <path d="M-4,0h8" fill="none" stroke="white" stroke-width="1.5" pointer-events="none"/>
                </g>
                <g id="dirArrow">
                        <path fill="none" stroke="white" stroke-width="1.5" d="M0,-3.0v7 M-2.5,-0.5L0,-3.0L2.5,-0.5"/>
                </g>
               <g id="resetDef">
                       <use xlink:href="#rim2" fill="#404040">
                               <set attributeName="fill" to="#808080" begin="reset.mouseover" end="reset.mouseout"/>
                       </use>
               </g>
        </defs>

<script type="text/javascript">
var viewWidth = 468;
var viewHeight = 969;
var sectionId = 'dynsection-1';
</script>
<script xlink:href="../../svgpan.js"/>
<svg id="graph" class="graph">
<g id="viewport">
<title>o2::detectors::DetMatrixCache</title>
<!-- Node1 -->
<g id="node1" class="node"><title>Node1</title>
<polygon fill="#bfbfbf" stroke="black" points="207,-0.5 207,-321.5 329,-321.5 329,-0.5 207,-0.5"/>
<text text-anchor="start" x="215" y="-309.5" font-family="Helvetica,sans-Serif" font-size="10.00">o2::detectors::DetMatrix</text>
<text text-anchor="middle" x="268" y="-298.5" font-family="Helvetica,sans-Serif" font-size="10.00">Cache</text>
<polyline fill="none" stroke="black" points="207,-291.5 329,-291.5 "/>
<text text-anchor="middle" x="268" y="-279.5" font-family="Helvetica,sans-Serif" font-size="10.00"> </text>
<polyline fill="none" stroke="black" points="207,-272.5 329,-272.5 "/>
<text text-anchor="start" x="215" y="-260.5" font-family="Helvetica,sans-Serif" font-size="10.00">+ DetMatrixCache()</text>
<text text-anchor="start" x="215" y="-249.5" font-family="Helvetica,sans-Serif" font-size="10.00">+ DetMatrixCache()</text>
<text text-anchor="start" x="215" y="-238.5" font-family="Helvetica,sans-Serif" font-size="10.00">+ ~DetMatrixCache()</text>
<text text-anchor="start" x="215" y="-227.5" font-family="Helvetica,sans-Serif" font-size="10.00">+ DetMatrixCache()</text>
<text text-anchor="start" x="215" y="-216.5" font-family="Helvetica,sans-Serif" font-size="10.00">+ operator=()</text>
<text text-anchor="start" x="215" y="-205.5" font-family="Helvetica,sans-Serif" font-size="10.00">+ getDetID()</text>
<text text-anchor="start" x="215" y="-194.5" font-family="Helvetica,sans-Serif" font-size="10.00">+ getName()</text>
<text text-anchor="start" x="215" y="-183.5" font-family="Helvetica,sans-Serif" font-size="10.00">+ getCacheT2L()</text>
<text text-anchor="start" x="215" y="-172.5" font-family="Helvetica,sans-Serif" font-size="10.00">+ getCacheT2G()</text>
<text text-anchor="start" x="215" y="-161.5" font-family="Helvetica,sans-Serif" font-size="10.00">+ getCacheL2G()</text>
<text text-anchor="start" x="215" y="-150.5" font-family="Helvetica,sans-Serif" font-size="10.00">+ getCacheT2GRot()</text>
<text text-anchor="start" x="215" y="-139.5" font-family="Helvetica,sans-Serif" font-size="10.00">+ getMatrixT2L()</text>
<text text-anchor="start" x="215" y="-128.5" font-family="Helvetica,sans-Serif" font-size="10.00">+ getMatrixT2G()</text>
<text text-anchor="start" x="215" y="-117.5" font-family="Helvetica,sans-Serif" font-size="10.00">+ getMatrixL2G()</text>
<text text-anchor="start" x="215" y="-106.5" font-family="Helvetica,sans-Serif" font-size="10.00">+ getMatrixT2GRot()</text>
<text text-anchor="start" x="215" y="-95.5" font-family="Helvetica,sans-Serif" font-size="10.00">+ isBuilt()</text>
<text text-anchor="start" x="215" y="-84.5" font-family="Helvetica,sans-Serif" font-size="10.00">+ getSize()</text>
<text text-anchor="start" x="215" y="-73.5" font-family="Helvetica,sans-Serif" font-size="10.00">+ fillMatrixCache()</text>
<text text-anchor="start" x="215" y="-62.5" font-family="Helvetica,sans-Serif" font-size="10.00">+ setSize()</text>
<text text-anchor="start" x="215" y="-51.5" font-family="Helvetica,sans-Serif" font-size="10.00">+ getCacheT2L()</text>
<text text-anchor="start" x="215" y="-40.5" font-family="Helvetica,sans-Serif" font-size="10.00">+ getCacheT2G()</text>
<text text-anchor="start" x="215" y="-29.5" font-family="Helvetica,sans-Serif" font-size="10.00">+ getCacheL2G()</text>
<text text-anchor="start" x="215" y="-18.5" font-family="Helvetica,sans-Serif" font-size="10.00">+ getCacheT2GRot()</text>
<text text-anchor="start" x="215" y="-7.5" font-family="Helvetica,sans-Serif" font-size="10.00">+ ClassDef()</text>
</g>
<!-- Node2 -->
<g id="node2" class="node"><title>Node2</title>
<g id="a_node2"><a xlink:href="../../d6/dd5/classo2_1_1detectors_1_1DetID.html" target="_top" xlink:title="Static class with identifiers, bitmasks and names for ALICE detectors. ">
<polygon fill="none" stroke="black" points="0,-391.5 0,-657.5 106,-657.5 106,-391.5 0,-391.5"/>
<text text-anchor="middle" x="53" y="-645.5" font-family="Helvetica,sans-Serif" font-size="10.00">o2::detectors::DetID</text>
<polyline fill="none" stroke="black" points="0,-638.5 106,-638.5 "/>
<text text-anchor="start" x="8" y="-626.5" font-family="Helvetica,sans-Serif" font-size="10.00">+ ITS</text>
<text text-anchor="start" x="8" y="-615.5" font-family="Helvetica,sans-Serif" font-size="10.00">+ TOF</text>
<text text-anchor="start" x="8" y="-604.5" font-family="Helvetica,sans-Serif" font-size="10.00">+ PHS</text>
<text text-anchor="start" x="8" y="-593.5" font-family="Helvetica,sans-Serif" font-size="10.00">+ CPV</text>
<text text-anchor="start" x="8" y="-582.5" font-family="Helvetica,sans-Serif" font-size="10.00">+ EMC</text>
<text text-anchor="start" x="8" y="-571.5" font-family="Helvetica,sans-Serif" font-size="10.00">+ HMP</text>
<text text-anchor="start" x="8" y="-560.5" font-family="Helvetica,sans-Serif" font-size="10.00">+ MFT</text>
<text text-anchor="start" x="8" y="-549.5" font-family="Helvetica,sans-Serif" font-size="10.00">+ MID</text>
<text text-anchor="start" x="8" y="-538.5" font-family="Helvetica,sans-Serif" font-size="10.00">+ Last</text>
<polyline fill="none" stroke="black" points="0,-531.5 106,-531.5 "/>
<text text-anchor="start" x="8" y="-519.5" font-family="Helvetica,sans-Serif" font-size="10.00">+ DetID()</text>
<text text-anchor="start" x="8" y="-508.5" font-family="Helvetica,sans-Serif" font-size="10.00">+ DetID()</text>
<text text-anchor="start" x="8" y="-497.5" font-family="Helvetica,sans-Serif" font-size="10.00">+ DetID()</text>
<text text-anchor="start" x="8" y="-486.5" font-family="Helvetica,sans-Serif" font-size="10.00">+ operator=()</text>
<text text-anchor="start" x="8" y="-475.5" font-family="Helvetica,sans-Serif" font-size="10.00">+ getID()</text>
<text text-anchor="start" x="8" y="-464.5" font-family="Helvetica,sans-Serif" font-size="10.00">+ getMask()</text>
<text text-anchor="start" x="8" y="-453.5" font-family="Helvetica,sans-Serif" font-size="10.00">+ getName()</text>
<text text-anchor="start" x="8" y="-442.5" font-family="Helvetica,sans-Serif" font-size="10.00">+ operator int()</text>
<text text-anchor="start" x="8" y="-431.5" font-family="Helvetica,sans-Serif" font-size="10.00">+ DetID()</text>
<text text-anchor="start" x="8" y="-420.5" font-family="Helvetica,sans-Serif" font-size="10.00">+ getNDetectors()</text>
<text text-anchor="start" x="8" y="-409.5" font-family="Helvetica,sans-Serif" font-size="10.00">+ getName()</text>
<text text-anchor="start" x="8" y="-398.5" font-family="Helvetica,sans-Serif" font-size="10.00">+ getMask()</text>
</a>
</g>
</g>
<!-- Node2&#45;&gt;Node1 -->
<g id="edge1" class="edge"><title>Node2&#45;&gt;Node1</title>
<path fill="none" stroke="#404040" d="M106.092,-407.358C109.03,-401.788 112.007,-396.31 115,-391 140.597,-345.595 172.137,-297.335 199.918,-256.885"/>
<polygon fill="none" stroke="#404040" points="200.078,-256.653 200.194,-249.442 206.894,-246.776 206.778,-253.986 200.078,-256.653"/>
<text text-anchor="middle" x="164" y="-354" font-family="Helvetica,sans-Serif" font-size="10.00"> +mDetID</text>
</g>
<!-- Node3 -->
<g id="node3" class="node"><title>Node3</title>
<polygon fill="none" stroke="#bfbfbf" points="32.5,-859.5 32.5,-916.5 73.5,-916.5 73.5,-859.5 32.5,-859.5"/>
<text text-anchor="middle" x="53" y="-904.5" font-family="Helvetica,sans-Serif" font-size="10.00">static</text>
<polyline fill="none" stroke="#bfbfbf" points="32.5,-897.5 73.5,-897.5 "/>
<text text-anchor="middle" x="53" y="-885.5" font-family="Helvetica,sans-Serif" font-size="10.00"> </text>
<polyline fill="none" stroke="#bfbfbf" points="32.5,-878.5 73.5,-878.5 "/>
<text text-anchor="middle" x="53" y="-866.5" font-family="Helvetica,sans-Serif" font-size="10.00"> </text>
</g>
<!-- Node3&#45;&gt;Node2 -->
<g id="edge2" class="edge"><title>Node3&#45;&gt;Node2</title>
<path fill="none" stroke="#404040" d="M53,-859.234C53,-818.677 53,-740.373 53,-669.803"/>
<polygon fill="none" stroke="#404040" points="53.0001,-669.641 49,-663.641 53,-657.641 57,-663.641 53.0001,-669.641"/>
<text text-anchor="middle" x="80.5" y="-789" font-family="Helvetica,sans-Serif" font-size="10.00"> +ACO</text>
<text text-anchor="middle" x="80.5" y="-778" font-family="Helvetica,sans-Serif" font-size="10.00">+First</text>
<text text-anchor="middle" x="80.5" y="-767" font-family="Helvetica,sans-Serif" font-size="10.00">+MCH</text>
<text text-anchor="middle" x="80.5" y="-756" font-family="Helvetica,sans-Serif" font-size="10.00">+FV0</text>
<text text-anchor="middle" x="80.5" y="-745" font-family="Helvetica,sans-Serif" font-size="10.00">+FT0</text>
<text text-anchor="middle" x="80.5" y="-734" font-family="Helvetica,sans-Serif" font-size="10.00">+FDD</text>
<text text-anchor="middle" x="80.5" y="-723" font-family="Helvetica,sans-Serif" font-size="10.00">+TRD</text>
<text text-anchor="middle" x="80.5" y="-712" font-family="Helvetica,sans-Serif" font-size="10.00">+nDetectors</text>
<text text-anchor="middle" x="80.5" y="-701" font-family="Helvetica,sans-Serif" font-size="10.00">+TPC</text>
<text text-anchor="middle" x="80.5" y="-690" font-family="Helvetica,sans-Serif" font-size="10.00">+ZDC</text>
<text text-anchor="middle" x="80.5" y="-679" font-family="Helvetica,sans-Serif" font-size="10.00">...</text>
</g>
<!-- Node4 -->
<g id="node4" class="node"><title>Node4</title>
<g id="a_node4"><a xlink:href="../../d4/daa/classo2_1_1detectors_1_1MatrixCache.html" target="_top" xlink:title="{o2::detectors::MatrixCache\l\&lt; o2::Transform3D \&gt;\n||+ MatrixCache()\l+ MatrixCache()\l+ ~MatrixCache()\l+ operator=()\l+ setSize()\l+ getSize()\l+ setMatrix()\l+ getMatrix()\l+ isFilled()\l}">
<polygon fill="none" stroke="black" points="124.5,-446.5 124.5,-602.5 259.5,-602.5 259.5,-446.5 124.5,-446.5"/>
<text text-anchor="start" x="132.5" y="-590.5" font-family="Helvetica,sans-Serif" font-size="10.00">o2::detectors::MatrixCache</text>
<text text-anchor="middle" x="192" y="-579.5" font-family="Helvetica,sans-Serif" font-size="10.00">&lt; o2::Transform3D &gt;</text>
<polyline fill="none" stroke="black" points="124.5,-572.5 259.5,-572.5 "/>
<text text-anchor="middle" x="192" y="-560.5" font-family="Helvetica,sans-Serif" font-size="10.00"> </text>
<polyline fill="none" stroke="black" points="124.5,-553.5 259.5,-553.5 "/>
<text text-anchor="start" x="132.5" y="-541.5" font-family="Helvetica,sans-Serif" font-size="10.00">+ MatrixCache()</text>
<text text-anchor="start" x="132.5" y="-530.5" font-family="Helvetica,sans-Serif" font-size="10.00">+ MatrixCache()</text>
<text text-anchor="start" x="132.5" y="-519.5" font-family="Helvetica,sans-Serif" font-size="10.00">+ ~MatrixCache()</text>
<text text-anchor="start" x="132.5" y="-508.5" font-family="Helvetica,sans-Serif" font-size="10.00">+ operator=()</text>
<text text-anchor="start" x="132.5" y="-497.5" font-family="Helvetica,sans-Serif" font-size="10.00">+ setSize()</text>
<text text-anchor="start" x="132.5" y="-486.5" font-family="Helvetica,sans-Serif" font-size="10.00">+ getSize()</text>
<text text-anchor="start" x="132.5" y="-475.5" font-family="Helvetica,sans-Serif" font-size="10.00">+ setMatrix()</text>
<text text-anchor="start" x="132.5" y="-464.5" font-family="Helvetica,sans-Serif" font-size="10.00">+ getMatrix()</text>
<text text-anchor="start" x="132.5" y="-453.5" font-family="Helvetica,sans-Serif" font-size="10.00">+ isFilled()</text>
</a>
</g>
</g>
<!-- Node4&#45;&gt;Node1 -->
<g id="edge3" class="edge"><title>Node4&#45;&gt;Node1</title>
<path fill="none" stroke="#404040" d="M208.211,-446.393C215.179,-413.247 223.624,-373.079 231.944,-333.504"/>
<polygon fill="none" stroke="#404040" points="231.992,-333.273 229.312,-326.578 234.461,-321.529 237.141,-328.224 231.992,-333.273"/>
<text text-anchor="middle" x="248.5" y="-365" font-family="Helvetica,sans-Serif" font-size="10.00"> +mT2G</text>
<text text-anchor="middle" x="248.5" y="-354" font-family="Helvetica,sans-Serif" font-size="10.00">+mT2L</text>
<text text-anchor="middle" x="248.5" y="-343" font-family="Helvetica,sans-Serif" font-size="10.00">+mL2G</text>
</g>
<!-- Node5 -->
<g id="node5" class="node"><title>Node5</title>
<g id="a_node5"><a xlink:href="../../d4/daa/classo2_1_1detectors_1_1MatrixCache.html" target="_top" xlink:title="MatrixCache is a vector of cached transform matrices (per sensor) for specific Transformation type...">
<polygon fill="none" stroke="black" points="180.5,-815.5 180.5,-960.5 339.5,-960.5 339.5,-815.5 180.5,-815.5"/>
<text text-anchor="middle" x="260" y="-948.5" font-family="Helvetica,sans-Serif" font-size="10.00">o2::detectors::MatrixCache&lt; T &gt;</text>
<polyline fill="none" stroke="black" points="180.5,-941.5 339.5,-941.5 "/>
<text text-anchor="middle" x="260" y="-929.5" font-family="Helvetica,sans-Serif" font-size="10.00"> </text>
<polyline fill="none" stroke="black" points="180.5,-922.5 339.5,-922.5 "/>
<text text-anchor="start" x="188.5" y="-910.5" font-family="Helvetica,sans-Serif" font-size="10.00">+ MatrixCache()</text>
<text text-anchor="start" x="188.5" y="-899.5" font-family="Helvetica,sans-Serif" font-size="10.00">+ ~MatrixCache()</text>
<text text-anchor="start" x="188.5" y="-888.5" font-family="Helvetica,sans-Serif" font-size="10.00">+ MatrixCache()</text>
<text text-anchor="start" x="188.5" y="-877.5" font-family="Helvetica,sans-Serif" font-size="10.00">+ operator=()</text>
<text text-anchor="start" x="188.5" y="-866.5" font-family="Helvetica,sans-Serif" font-size="10.00">+ setSize()</text>
<text text-anchor="start" x="188.5" y="-855.5" font-family="Helvetica,sans-Serif" font-size="10.00">+ getSize()</text>
<text text-anchor="start" x="188.5" y="-844.5" font-family="Helvetica,sans-Serif" font-size="10.00">+ setMatrix()</text>
<text text-anchor="start" x="188.5" y="-833.5" font-family="Helvetica,sans-Serif" font-size="10.00">+ getMatrix()</text>
<text text-anchor="start" x="188.5" y="-822.5" font-family="Helvetica,sans-Serif" font-size="10.00">+ isFilled()</text>
</a>
</g>
</g>
<!-- Node5&#45;&gt;Node4 -->
<g id="edge4" class="edge"><title>Node5&#45;&gt;Node4</title>
<path fill="none" stroke="orange" d="M221.614,-805.849C220.667,-802.886 219.79,-799.931 219,-797 201.741,-732.97 195.284,-657.775 192.976,-602.776"/>
<polygon fill="orange" stroke="orange" points="218.305,-806.989 224.86,-815.313 224.926,-804.718 218.305,-806.989"/>
<text text-anchor="middle" x="266.5" y="-734" font-family="Helvetica,sans-Serif" font-size="10.00"> &lt; o2::Transform3D &gt;</text>
</g>
<!-- Node7 -->
<g id="node7" class="node"><title>Node7</title>
<g id="a_node7"><a xlink:href="../../d4/daa/classo2_1_1detectors_1_1MatrixCache.html" target="_top" xlink:title="{o2::detectors::MatrixCache\l\&lt; o2::Rotation2D \&gt;\n||+ MatrixCache()\l+ MatrixCache()\l+ ~MatrixCache()\l+ operator=()\l+ setSize()\l+ getSize()\l+ setMatrix()\l+ getMatrix()\l+ isFilled()\l}">
<polygon fill="none" stroke="black" points="277.5,-446.5 277.5,-602.5 412.5,-602.5 412.5,-446.5 277.5,-446.5"/>
<text text-anchor="start" x="285.5" y="-590.5" font-family="Helvetica,sans-Serif" font-size="10.00">o2::detectors::MatrixCache</text>
<text text-anchor="middle" x="345" y="-579.5" font-family="Helvetica,sans-Serif" font-size="10.00">&lt; o2::Rotation2D &gt;</text>
<polyline fill="none" stroke="black" points="277.5,-572.5 412.5,-572.5 "/>
<text text-anchor="middle" x="345" y="-560.5" font-family="Helvetica,sans-Serif" font-size="10.00"> </text>
<polyline fill="none" stroke="black" points="277.5,-553.5 412.5,-553.5 "/>
<text text-anchor="start" x="285.5" y="-541.5" font-family="Helvetica,sans-Serif" font-size="10.00">+ MatrixCache()</text>
<text text-anchor="start" x="285.5" y="-530.5" font-family="Helvetica,sans-Serif" font-size="10.00">+ MatrixCache()</text>
<text text-anchor="start" x="285.5" y="-519.5" font-family="Helvetica,sans-Serif" font-size="10.00">+ ~MatrixCache()</text>
<text text-anchor="start" x="285.5" y="-508.5" font-family="Helvetica,sans-Serif" font-size="10.00">+ operator=()</text>
<text text-anchor="start" x="285.5" y="-497.5" font-family="Helvetica,sans-Serif" font-size="10.00">+ setSize()</text>
<text text-anchor="start" x="285.5" y="-486.5" font-family="Helvetica,sans-Serif" font-size="10.00">+ getSize()</text>
<text text-anchor="start" x="285.5" y="-475.5" font-family="Helvetica,sans-Serif" font-size="10.00">+ setMatrix()</text>
<text text-anchor="start" x="285.5" y="-464.5" font-family="Helvetica,sans-Serif" font-size="10.00">+ getMatrix()</text>
<text text-anchor="start" x="285.5" y="-453.5" font-family="Helvetica,sans-Serif" font-size="10.00">+ isFilled()</text>
</a>
</g>
</g>
<!-- Node5&#45;&gt;Node7 -->
<g id="edge7" class="edge"><title>Node5&#45;&gt;Node7</title>
<path fill="none" stroke="orange" d="M310.674,-805.91C311.878,-802.942 312.993,-799.967 314,-797 335.451,-733.765 342.686,-657.994 344.851,-602.586"/>
<polygon fill="orange" stroke="orange" points="307.347,-804.781 306.548,-815.346 313.761,-807.586 307.347,-804.781"/>
<text text-anchor="middle" x="383" y="-734" font-family="Helvetica,sans-Serif" font-size="10.00"> &lt; o2::Rotation2D &gt;</text>
</g>
<!-- Node6 -->
<g id="node6" class="node"><title>Node6</title>
<polygon fill="none" stroke="#bfbfbf" points="430.5,-496 430.5,-553 459.5,-553 459.5,-496 430.5,-496"/>
<text text-anchor="middle" x="445" y="-541" font-family="Helvetica,sans-Serif" font-size="10.00">int</text>
<polyline fill="none" stroke="#bfbfbf" points="430.5,-534 459.5,-534 "/>
<text text-anchor="middle" x="445" y="-522" font-family="Helvetica,sans-Serif" font-size="10.00"> </text>
<polyline fill="none" stroke="#bfbfbf" points="430.5,-515 459.5,-515 "/>
<text text-anchor="middle" x="445" y="-503" font-family="Helvetica,sans-Serif" font-size="10.00"> </text>
</g>
<!-- Node6&#45;&gt;Node1 -->
<g id="edge5" class="edge"><title>Node6&#45;&gt;Node1</title>
<path fill="none" stroke="#404040" d="M443.297,-495.949C440.85,-468.498 434.973,-425.571 421,-391 400.141,-339.392 366.613,-287.365 336.252,-245.972"/>
<polygon fill="none" stroke="#404040" points="336.172,-245.863 329.384,-243.429 329.02,-236.227 335.808,-238.661 336.172,-245.863"/>
<text text-anchor="middle" x="431.5" y="-354" font-family="Helvetica,sans-Serif" font-size="10.00"> +mSize</text>
</g>
<!-- Node7&#45;&gt;Node1 -->
<g id="edge6" class="edge"><title>Node7&#45;&gt;Node1</title>
<path fill="none" stroke="#404040" d="M328.576,-446.393C321.516,-413.247 312.96,-373.079 304.53,-333.504"/>
<polygon fill="none" stroke="#404040" points="304.48,-333.266 299.318,-328.231 301.98,-321.529 307.142,-326.564 304.48,-333.266"/>
<text text-anchor="middle" x="338" y="-354" font-family="Helvetica,sans-Serif" font-size="10.00"> +mT2GRot</text>
</g>
</g>
</svg>
        <g id="navigator" transform="translate(0 0)" fill="#404254">
                <rect fill="#f2f5e9" fill-opacity="0.5" stroke="#606060" stroke-width=".5" x="0" y="0" width="60" height="60"/>
                <use id="zoomplus" xlink:href="#zoomPlus" x="17" y="9" onmousedown="handleZoom(evt,'in')"/>
                <use id="zoomminus" xlink:href="#zoomMin" x="42" y="9" onmousedown="handleZoom(evt,'out')"/>
                <use id="reset" xlink:href="#resetDef" x="30" y="36" onmousedown="handleReset()"/>
                <g id="arrowUp" xlink:href="#dirArrow" transform="translate(30 24)" onmousedown="handlePan(0,-1)">
                  <use xlink:href="#rim" fill="#404040">
                        <set attributeName="fill" to="#808080" begin="arrowUp.mouseover" end="arrowUp.mouseout"/>
                  </use>
                  <path fill="none" stroke="white" stroke-width="1.5" d="M0,-3.0v7 M-2.5,-0.5L0,-3.0L2.5,-0.5"/>
                </g>
                <g id="arrowRight" xlink:href="#dirArrow" transform="rotate(90) translate(36 -43)" onmousedown="handlePan(1,0)">
                  <use xlink:href="#rim" fill="#404040">
                        <set attributeName="fill" to="#808080" begin="arrowRight.mouseover" end="arrowRight.mouseout"/>
                  </use>
                  <path fill="none" stroke="white" stroke-width="1.5" d="M0,-3.0v7 M-2.5,-0.5L0,-3.0L2.5,-0.5"/>
                </g>
                <g id="arrowDown" xlink:href="#dirArrow" transform="rotate(180) translate(-30 -48)" onmousedown="handlePan(0,1)">
                  <use xlink:href="#rim" fill="#404040">
                        <set attributeName="fill" to="#808080" begin="arrowDown.mouseover" end="arrowDown.mouseout"/>
                  </use>
                  <path fill="none" stroke="white" stroke-width="1.5" d="M0,-3.0v7 M-2.5,-0.5L0,-3.0L2.5,-0.5"/>
                </g>
                <g id="arrowLeft" xlink:href="#dirArrow" transform="rotate(270) translate(-36 17)" onmousedown="handlePan(-1,0)">
                  <use xlink:href="#rim" fill="#404040">
                        <set attributeName="fill" to="#808080" begin="arrowLeft.mouseover" end="arrowLeft.mouseout"/>
                  </use>
                  <path fill="none" stroke="white" stroke-width="1.5" d="M0,-3.0v7 M-2.5,-0.5L0,-3.0L2.5,-0.5"/>
                </g>
        </g>
        <svg viewBox="0 0 15 15" width="100%" height="30px" preserveAspectRatio="xMaxYMin meet">
         <g id="arrow_out" transform="scale(0.3 0.3)">
          <a xlink:href="classo2_1_1detectors_1_1DetMatrixCache__coll__graph_org.svg" target="_base">
           <rect id="button" ry="5" rx="5" y="6" x="6" height="38" width="38"
                fill="#f2f5e9" fill-opacity="0.5" stroke="#606060" stroke-width="1.0"/>
           <path id="arrow"
             d="M 11.500037,31.436501 C 11.940474,20.09759 22.043105,11.32322 32.158766,21.979434 L 37.068811,17.246167 C 37.068811,17.246167 37.088388,32 37.088388,32 L 22.160133,31.978069 C 22.160133,31.978069 26.997745,27.140456 26.997745,27.140456 C 18.528582,18.264221 13.291696,25.230495 11.500037,31.436501 z"
             style="fill:#404040;"/>
          </a>
         </g>
        </svg>
</svg>
