<?xml version="1.0" encoding="UTF-8" standalone="no"?>
<!DOCTYPE svg PUBLIC "-//W3C//DTD SVG 1.1//EN"
 "http://www.w3.org/Graphics/SVG/1.1/DTD/svg11.dtd">
<!-- Generated by graphviz version 2.38.0 (20140413.2041)
 -->
<!-- Title: /home/travis/build/AliceO2Group/AliceO2/EventVisualisation/DataConverter/include/EventVisualisationDataConverter/VisualisationCluster.h Pages: 1 -->
<!--zoomable 561 -->
<svg id="main" version="1.1" xmlns="http://www.w3.org/2000/svg" xmlns:xlink="http://www.w3.org/1999/xlink" xml:space="preserve" onload="init(evt)">
<style type="text/css"><![CDATA[
.edge:hover path { stroke: red; }
.edge:hover polygon { stroke: red; fill: red; }
]]></style>
<script type="text/javascript"><![CDATA[
var edges = document.getElementsByTagName('g');
if (edges && edges.length) {
  for (var i=0;i<edges.length;i++) {
    if (edges[i].id.substr(0,4)=='edge') {
      edges[i].setAttribute('class','edge');
    }
  }
}
]]></script>
        <defs>
                <circle id="rim" cx="0" cy="0" r="7"/>
                <circle id="rim2" cx="0" cy="0" r="3.5"/>
                <g id="zoomPlus">
                        <use xlink:href="#rim" fill="#404040">
                                <set attributeName="fill" to="#808080" begin="zoomplus.mouseover" end="zoomplus.mouseout"/>
                        </use>
                        <path d="M-4,0h8M0,-4v8" fill="none" stroke="white" stroke-width="1.5" pointer-events="none"/>
                </g>
                <g id="zoomMin">
                        <use xlink:href="#rim" fill="#404040">
                                <set attributeName="fill" to="#808080" begin="zoomminus.mouseover" end="zoomminus.mouseout"/>
                        </use>
                        <path d="M-4,0h8" fill="none" stroke="white" stroke-width="1.5" pointer-events="none"/>
                </g>
                <g id="dirArrow">
                        <path fill="none" stroke="white" stroke-width="1.5" d="M0,-3.0v7 M-2.5,-0.5L0,-3.0L2.5,-0.5"/>
                </g>
               <g id="resetDef">
                       <use xlink:href="#rim2" fill="#404040">
                               <set attributeName="fill" to="#808080" begin="reset.mouseover" end="reset.mouseout"/>
                       </use>
               </g>
        </defs>

<script type="text/javascript">
var viewWidth = 1285;
var viewHeight = 561;
var sectionId = 'dynsection-1';
</script>
<script xlink:href="../../svgpan.js"/>
<svg id="graph" class="graph">
<g id="viewport">
<title>/home/travis/build/AliceO2Group/AliceO2/EventVisualisation/DataConverter/include/EventVisualisationDataConverter/VisualisationCluster.h</title>
<!-- Node1 -->
<g id="node1" class="node"><title>Node1</title>
<polygon fill="#bfbfbf" stroke="black" points="323,-489.5 323,-552.5 521,-552.5 521,-489.5 323,-489.5"/>
<text text-anchor="start" x="331" y="-540.5" font-family="Helvetica,sans-Serif" font-size="10.00">/home/travis/build</text>
<text text-anchor="start" x="331" y="-529.5" font-family="Helvetica,sans-Serif" font-size="10.00">/AliceO2Group/AliceO2</text>
<text text-anchor="start" x="331" y="-518.5" font-family="Helvetica,sans-Serif" font-size="10.00">/EventVisualisation/DataConverter</text>
<text text-anchor="start" x="331" y="-507.5" font-family="Helvetica,sans-Serif" font-size="10.00">/include/EventVisualisationDataConverter</text>
<text text-anchor="middle" x="422" y="-496.5" font-family="Helvetica,sans-Serif" font-size="10.00">/VisualisationCluster.h</text>
</g>
<!-- Node2 -->
<g id="node2" class="node"><title>Node2</title>
<g id="a_node2"><a xlink:href="../../d0/d35/VisualisationEvent_8h.html" target="_top" xlink:title="/home/travis/build\l/AliceO2Group/AliceO2\l/EventVisualisation/DataConverter\l/include/EventVisualisationDataConverter\l/VisualisationEvent.h">
<polygon fill="none" stroke="black" points="323,-389.5 323,-452.5 521,-452.5 521,-389.5 323,-389.5"/>
<text text-anchor="start" x="331" y="-440.5" font-family="Helvetica,sans-Serif" font-size="10.00">/home/travis/build</text>
<text text-anchor="start" x="331" y="-429.5" font-family="Helvetica,sans-Serif" font-size="10.00">/AliceO2Group/AliceO2</text>
<text text-anchor="start" x="331" y="-418.5" font-family="Helvetica,sans-Serif" font-size="10.00">/EventVisualisation/DataConverter</text>
<text text-anchor="start" x="331" y="-407.5" font-family="Helvetica,sans-Serif" font-size="10.00">/include/EventVisualisationDataConverter</text>
<text text-anchor="middle" x="422" y="-396.5" font-family="Helvetica,sans-Serif" font-size="10.00">/VisualisationEvent.h</text>
</a>
</g>
</g>
<!-- Node1&#45;&gt;Node2 -->
<g id="edge1" class="edge"><title>Node1&#45;&gt;Node2</title>
<path fill="none" stroke="midnightblue" d="M422,-479.099C422,-470.238 422,-461.015 422,-452.63"/>
<polygon fill="midnightblue" stroke="midnightblue" points="418.5,-479.261 422,-489.261 425.5,-479.261 418.5,-479.261"/>
</g>
<!-- Node9 -->
<g id="node9" class="node"><title>Node9</title>
<g id="a_node9"><a xlink:href="../../d5/df5/DataInterpreterTPC_8cxx.html" target="_top" xlink:title="converting TPC data to Event Visualisation primitives ">
<polygon fill="none" stroke="black" points="0,-95 0,-147 146,-147 146,-95 0,-95"/>
<text text-anchor="start" x="8" y="-135" font-family="Helvetica,sans-Serif" font-size="10.00">/home/travis/build</text>
<text text-anchor="start" x="8" y="-124" font-family="Helvetica,sans-Serif" font-size="10.00">/AliceO2Group/AliceO2</text>
<text text-anchor="start" x="8" y="-113" font-family="Helvetica,sans-Serif" font-size="10.00">/EventVisualisation/Detectors</text>
<text text-anchor="middle" x="73" y="-102" font-family="Helvetica,sans-Serif" font-size="10.00">/src/DataInterpreterTPC.cxx</text>
</a>
</g>
</g>
<!-- Node1&#45;&gt;Node9 -->
<g id="edge31" class="edge"><title>Node1&#45;&gt;Node9</title>
<path fill="none" stroke="midnightblue" d="M353.422,-484.556C299.003,-454.314 223.027,-407.197 167,-353 127.449,-314.742 115.163,-303.795 94,-253 79.4721,-218.131 74.9397,-174.175 73.5583,-147.086"/>
<polygon fill="midnightblue" stroke="midnightblue" points="351.855,-487.689 362.303,-489.448 355.233,-481.557 351.855,-487.689"/>
</g>
<!-- Node20 -->
<g id="node20" class="node"><title>Node20</title>
<g id="a_node20"><a xlink:href="../../d5/dba/VisualisationCluster_8cxx.html" target="_top" xlink:title="/home/travis/build\l/AliceO2Group/AliceO2\l/EventVisualisation/DataConverter\l/src/VisualisationCluster.cxx">
<polygon fill="none" stroke="black" points="539.5,-395 539.5,-447 706.5,-447 706.5,-395 539.5,-395"/>
<text text-anchor="start" x="547.5" y="-435" font-family="Helvetica,sans-Serif" font-size="10.00">/home/travis/build</text>
<text text-anchor="start" x="547.5" y="-424" font-family="Helvetica,sans-Serif" font-size="10.00">/AliceO2Group/AliceO2</text>
<text text-anchor="start" x="547.5" y="-413" font-family="Helvetica,sans-Serif" font-size="10.00">/EventVisualisation/DataConverter</text>
<text text-anchor="middle" x="623" y="-402" font-family="Helvetica,sans-Serif" font-size="10.00">/src/VisualisationCluster.cxx</text>
</a>
</g>
</g>
<!-- Node1&#45;&gt;Node20 -->
<g id="edge30" class="edge"><title>Node1&#45;&gt;Node20</title>
<path fill="none" stroke="midnightblue" d="M494.066,-484.863C519.663,-472.383 547.942,-458.596 571.477,-447.121"/>
<polygon fill="midnightblue" stroke="midnightblue" points="492.226,-481.867 484.771,-489.395 495.293,-488.159 492.226,-481.867"/>
</g>
<!-- Node3 -->
<g id="node3" class="node"><title>Node3</title>
<g id="a_node3"><a xlink:href="../../dd/dbf/DataInterpreter_8h.html" target="_top" xlink:title="/home/travis/build\l/AliceO2Group/AliceO2\l/EventVisualisation/Base\l/include/EventVisualisationBase\l/DataInterpreter.h">
<polygon fill="none" stroke="black" points="501.5,-289.5 501.5,-352.5 658.5,-352.5 658.5,-289.5 501.5,-289.5"/>
<text text-anchor="start" x="509.5" y="-340.5" font-family="Helvetica,sans-Serif" font-size="10.00">/home/travis/build</text>
<text text-anchor="start" x="509.5" y="-329.5" font-family="Helvetica,sans-Serif" font-size="10.00">/AliceO2Group/AliceO2</text>
<text text-anchor="start" x="509.5" y="-318.5" font-family="Helvetica,sans-Serif" font-size="10.00">/EventVisualisation/Base</text>
<text text-anchor="start" x="509.5" y="-307.5" font-family="Helvetica,sans-Serif" font-size="10.00">/include/EventVisualisationBase</text>
<text text-anchor="middle" x="580" y="-296.5" font-family="Helvetica,sans-Serif" font-size="10.00">/DataInterpreter.h</text>
</a>
</g>
</g>
<!-- Node2&#45;&gt;Node3 -->
<g id="edge2" class="edge"><title>Node2&#45;&gt;Node3</title>
<path fill="none" stroke="midnightblue" d="M480.096,-383.966C496.686,-373.676 514.601,-362.564 530.617,-352.63"/>
<polygon fill="midnightblue" stroke="midnightblue" points="478.212,-381.016 471.559,-389.261 481.902,-386.964 478.212,-381.016"/>
</g>
<!-- Node6 -->
<g id="node6" class="node"><title>Node6</title>
<g id="a_node6"><a xlink:href="../../d2/d8a/DataInterpreterITS_8cxx.html" target="_top" xlink:title="converting ITS data to Event Visualisation primitives ">
<polygon fill="none" stroke="black" points="1131,-95 1131,-147 1277,-147 1277,-95 1131,-95"/>
<text text-anchor="start" x="1139" y="-135" font-family="Helvetica,sans-Serif" font-size="10.00">/home/travis/build</text>
<text text-anchor="start" x="1139" y="-124" font-family="Helvetica,sans-Serif" font-size="10.00">/AliceO2Group/AliceO2</text>
<text text-anchor="start" x="1139" y="-113" font-family="Helvetica,sans-Serif" font-size="10.00">/EventVisualisation/Detectors</text>
<text text-anchor="middle" x="1204" y="-102" font-family="Helvetica,sans-Serif" font-size="10.00">/src/DataInterpreterITS.cxx</text>
</a>
</g>
</g>
<!-- Node2&#45;&gt;Node6 -->
<g id="edge26" class="edge"><title>Node2&#45;&gt;Node6</title>
<path fill="none" stroke="midnightblue" d="M531.404,-389.296C638.744,-378.628 1135.09,-401.674 1186,-353 1242.11,-299.348 1223.85,-195.299 1211.46,-147.336"/>
<polygon fill="midnightblue" stroke="midnightblue" points="530.731,-385.853 521.26,-390.601 531.625,-392.796 530.731,-385.853"/>
</g>
<!-- Node8 -->
<g id="node8" class="node"><title>Node8</title>
<g id="a_node8"><a xlink:href="../../dc/df2/DataInterpreterTPC_8h.html" target="_top" xlink:title="converting TPC data to Event Visualisation primitives ">
<polygon fill="none" stroke="black" points="144.5,-189.5 144.5,-252.5 321.5,-252.5 321.5,-189.5 144.5,-189.5"/>
<text text-anchor="start" x="152.5" y="-240.5" font-family="Helvetica,sans-Serif" font-size="10.00">/home/travis/build</text>
<text text-anchor="start" x="152.5" y="-229.5" font-family="Helvetica,sans-Serif" font-size="10.00">/AliceO2Group/AliceO2</text>
<text text-anchor="start" x="152.5" y="-218.5" font-family="Helvetica,sans-Serif" font-size="10.00">/EventVisualisation/Detectors</text>
<text text-anchor="start" x="152.5" y="-207.5" font-family="Helvetica,sans-Serif" font-size="10.00">/include/EventVisualisationDetectors</text>
<text text-anchor="middle" x="233" y="-196.5" font-family="Helvetica,sans-Serif" font-size="10.00">/DataInterpreterTPC.h</text>
</a>
</g>
</g>
<!-- Node2&#45;&gt;Node8 -->
<g id="edge25" class="edge"><title>Node2&#45;&gt;Node8</title>
<path fill="none" stroke="midnightblue" d="M369.599,-383.079C357.737,-373.803 345.543,-363.487 335,-353 303.427,-321.594 272.812,-280.382 253.498,-252.639"/>
<polygon fill="midnightblue" stroke="midnightblue" points="367.67,-386.01 377.733,-389.324 371.933,-380.458 367.67,-386.01"/>
</g>
<!-- Node2&#45;&gt;Node9 -->
<g id="edge27" class="edge"><title>Node2&#45;&gt;Node9</title>
<path fill="none" stroke="midnightblue" d="M328.855,-385.383C266.447,-357.961 186.564,-314.059 135,-253 107.97,-220.993 89.8734,-175.206 80.524,-147.103"/>
<polygon fill="midnightblue" stroke="midnightblue" points="327.754,-388.72 338.322,-389.475 330.532,-382.294 327.754,-388.72"/>
</g>
<!-- Node11 -->
<g id="node11" class="node"><title>Node11</title>
<g id="a_node11"><a xlink:href="../../de/df8/DataInterpreterVSD_8cxx.html" target="_top" xlink:title="converting VSD data to Event Visualisation primitives ">
<polygon fill="none" stroke="black" points="914,-95 914,-147 1060,-147 1060,-95 914,-95"/>
<text text-anchor="start" x="922" y="-135" font-family="Helvetica,sans-Serif" font-size="10.00">/home/travis/build</text>
<text text-anchor="start" x="922" y="-124" font-family="Helvetica,sans-Serif" font-size="10.00">/AliceO2Group/AliceO2</text>
<text text-anchor="start" x="922" y="-113" font-family="Helvetica,sans-Serif" font-size="10.00">/EventVisualisation/Detectors</text>
<text text-anchor="middle" x="987" y="-102" font-family="Helvetica,sans-Serif" font-size="10.00">/src/DataInterpreterVSD.cxx</text>
</a>
</g>
</g>
<!-- Node2&#45;&gt;Node11 -->
<g id="edge28" class="edge"><title>Node2&#45;&gt;Node11</title>
<path fill="none" stroke="midnightblue" d="M530.916,-388.838C728.375,-337.652 834.377,-403.835 964,-253 989.359,-223.491 991.3,-176.075 989.664,-147.108"/>
<polygon fill="midnightblue" stroke="midnightblue" points="529.899,-385.487 521.141,-391.449 531.705,-392.25 529.899,-385.487"/>
</g>
<!-- Node17 -->
<g id="node17" class="node"><title>Node17</title>
<g id="a_node17"><a xlink:href="../../dd/d21/EventManager_8cxx.html" target="_top" xlink:title="/home/travis/build\l/AliceO2Group/AliceO2\l/EventVisualisation/View\l/src/EventManager.cxx">
<polygon fill="none" stroke="black" points="202.5,-95 202.5,-147 327.5,-147 327.5,-95 202.5,-95"/>
<text text-anchor="start" x="210.5" y="-135" font-family="Helvetica,sans-Serif" font-size="10.00">/home/travis/build</text>
<text text-anchor="start" x="210.5" y="-124" font-family="Helvetica,sans-Serif" font-size="10.00">/AliceO2Group/AliceO2</text>
<text text-anchor="start" x="210.5" y="-113" font-family="Helvetica,sans-Serif" font-size="10.00">/EventVisualisation/View</text>
<text text-anchor="middle" x="265" y="-102" font-family="Helvetica,sans-Serif" font-size="10.00">/src/EventManager.cxx</text>
</a>
</g>
</g>
<!-- Node2&#45;&gt;Node17 -->
<g id="edge29" class="edge"><title>Node2&#45;&gt;Node17</title>
<path fill="none" stroke="midnightblue" d="M407.975,-379.357C387.902,-322.241 351.082,-221.559 330,-189 320.134,-173.764 306.46,-159.035 294.197,-147.286"/>
<polygon fill="midnightblue" stroke="midnightblue" points="404.796,-380.868 411.403,-389.15 411.403,-378.555 404.796,-380.868"/>
</g>
<!-- Node19 -->
<g id="node19" class="node"><title>Node19</title>
<g id="a_node19"><a xlink:href="../../d5/d73/VisualisationEvent_8cxx.html" target="_top" xlink:title="/home/travis/build\l/AliceO2Group/AliceO2\l/EventVisualisation/DataConverter\l/src/VisualisationEvent.cxx">
<polygon fill="none" stroke="black" points="1010.5,-295 1010.5,-347 1177.5,-347 1177.5,-295 1010.5,-295"/>
<text text-anchor="start" x="1018.5" y="-335" font-family="Helvetica,sans-Serif" font-size="10.00">/home/travis/build</text>
<text text-anchor="start" x="1018.5" y="-324" font-family="Helvetica,sans-Serif" font-size="10.00">/AliceO2Group/AliceO2</text>
<text text-anchor="start" x="1018.5" y="-313" font-family="Helvetica,sans-Serif" font-size="10.00">/EventVisualisation/DataConverter</text>
<text text-anchor="middle" x="1094" y="-302" font-family="Helvetica,sans-Serif" font-size="10.00">/src/VisualisationEvent.cxx</text>
</a>
</g>
</g>
<!-- Node2&#45;&gt;Node19 -->
<g id="edge24" class="edge"><title>Node2&#45;&gt;Node19</title>
<path fill="none" stroke="midnightblue" d="M531.174,-388.935C736.717,-353.351 795.891,-392.331 997,-353 1005.15,-351.405 1013.58,-349.351 1021.91,-347.06"/>
<polygon fill="midnightblue" stroke="midnightblue" points="530.512,-385.497 521.275,-390.686 531.732,-392.39 530.512,-385.497"/>
</g>
<!-- Node4 -->
<g id="node4" class="node"><title>Node4</title>
<g id="a_node4"><a xlink:href="../../d5/d0c/DataInterpreter_8cxx.html" target="_top" xlink:title="/home/travis/build\l/AliceO2Group/AliceO2\l/EventVisualisation/Base\l/src/DataInterpreter.cxx">
<polygon fill="none" stroke="black" points="597,-195 597,-247 723,-247 723,-195 597,-195"/>
<text text-anchor="start" x="605" y="-235" font-family="Helvetica,sans-Serif" font-size="10.00">/home/travis/build</text>
<text text-anchor="start" x="605" y="-224" font-family="Helvetica,sans-Serif" font-size="10.00">/AliceO2Group/AliceO2</text>
<text text-anchor="start" x="605" y="-213" font-family="Helvetica,sans-Serif" font-size="10.00">/EventVisualisation/Base</text>
<text text-anchor="middle" x="660" y="-202" font-family="Helvetica,sans-Serif" font-size="10.00">/src/DataInterpreter.cxx</text>
</a>
</g>
</g>
<!-- Node3&#45;&gt;Node4 -->
<g id="edge3" class="edge"><title>Node3&#45;&gt;Node4</title>
<path fill="none" stroke="midnightblue" d="M611.491,-281.423C620.926,-269.866 631.022,-257.497 639.548,-247.054"/>
<polygon fill="midnightblue" stroke="midnightblue" points="608.705,-279.301 605.093,-289.261 614.128,-283.728 608.705,-279.301"/>
</g>
<!-- Node5 -->
<g id="node5" class="node"><title>Node5</title>
<g id="a_node5"><a xlink:href="../../d9/d95/DataInterpreterITS_8h.html" target="_top" xlink:title="converting ITS data to Event Visualisation primitives ">
<polygon fill="none" stroke="black" points="1010.5,-189.5 1010.5,-252.5 1187.5,-252.5 1187.5,-189.5 1010.5,-189.5"/>
<text text-anchor="start" x="1018.5" y="-240.5" font-family="Helvetica,sans-Serif" font-size="10.00">/home/travis/build</text>
<text text-anchor="start" x="1018.5" y="-229.5" font-family="Helvetica,sans-Serif" font-size="10.00">/AliceO2Group/AliceO2</text>
<text text-anchor="start" x="1018.5" y="-218.5" font-family="Helvetica,sans-Serif" font-size="10.00">/EventVisualisation/Detectors</text>
<text text-anchor="start" x="1018.5" y="-207.5" font-family="Helvetica,sans-Serif" font-size="10.00">/include/EventVisualisationDetectors</text>
<text text-anchor="middle" x="1099" y="-196.5" font-family="Helvetica,sans-Serif" font-size="10.00">/DataInterpreterITS.h</text>
</a>
</g>
</g>
<!-- Node3&#45;&gt;Node5 -->
<g id="edge4" class="edge"><title>Node3&#45;&gt;Node5</title>
<path fill="none" stroke="midnightblue" d="M668.82,-305.873C746.81,-293.143 863.218,-273.349 964,-253 978.968,-249.978 994.817,-246.548 1010.19,-243.098"/>
<polygon fill="midnightblue" stroke="midnightblue" points="667.86,-302.483 658.553,-307.545 668.985,-309.392 667.86,-302.483"/>
</g>
<!-- Node3&#45;&gt;Node8 -->
<g id="edge7" class="edge"><title>Node3&#45;&gt;Node8</title>
<path fill="none" stroke="midnightblue" d="M491.361,-294.967C439.251,-280.25 373.591,-261.706 321.504,-246.996"/>
<polygon fill="midnightblue" stroke="midnightblue" points="490.685,-298.413 501.26,-297.762 492.588,-291.676 490.685,-298.413"/>
</g>
<!-- Node10 -->
<g id="node10" class="node"><title>Node10</title>
<g id="a_node10"><a xlink:href="../../d2/d21/DataInterpreterVSD_8h.html" target="_top" xlink:title="converting VSD data to Event Visualisation primitives ">
<polygon fill="none" stroke="black" points="778.5,-189.5 778.5,-252.5 955.5,-252.5 955.5,-189.5 778.5,-189.5"/>
<text text-anchor="start" x="786.5" y="-240.5" font-family="Helvetica,sans-Serif" font-size="10.00">/home/travis/build</text>
<text text-anchor="start" x="786.5" y="-229.5" font-family="Helvetica,sans-Serif" font-size="10.00">/AliceO2Group/AliceO2</text>
<text text-anchor="start" x="786.5" y="-218.5" font-family="Helvetica,sans-Serif" font-size="10.00">/EventVisualisation/Detectors</text>
<text text-anchor="start" x="786.5" y="-207.5" font-family="Helvetica,sans-Serif" font-size="10.00">/include/EventVisualisationDetectors</text>
<text text-anchor="middle" x="867" y="-196.5" font-family="Helvetica,sans-Serif" font-size="10.00">/DataInterpreterVSD.h</text>
</a>
</g>
</g>
<!-- Node3&#45;&gt;Node10 -->
<g id="edge10" class="edge"><title>Node3&#45;&gt;Node10</title>
<path fill="none" stroke="midnightblue" d="M668.496,-289.782C703.372,-277.873 743.356,-264.22 778.256,-252.303"/>
<polygon fill="midnightblue" stroke="midnightblue" points="667.136,-286.548 658.804,-293.091 669.398,-293.172 667.136,-286.548"/>
</g>
<!-- Node12 -->
<g id="node12" class="node"><title>Node12</title>
<g id="a_node12"><a xlink:href="../../d8/d25/EventManager_8h.html" target="_top" xlink:title="/home/travis/build\l/AliceO2Group/AliceO2\l/EventVisualisation/View\l/include/EventVisualisationView\l/EventManager.h">
<polygon fill="none" stroke="black" points="423,-189.5 423,-252.5 579,-252.5 579,-189.5 423,-189.5"/>
<text text-anchor="start" x="431" y="-240.5" font-family="Helvetica,sans-Serif" font-size="10.00">/home/travis/build</text>
<text text-anchor="start" x="431" y="-229.5" font-family="Helvetica,sans-Serif" font-size="10.00">/AliceO2Group/AliceO2</text>
<text text-anchor="start" x="431" y="-218.5" font-family="Helvetica,sans-Serif" font-size="10.00">/EventVisualisation/View</text>
<text text-anchor="start" x="431" y="-207.5" font-family="Helvetica,sans-Serif" font-size="10.00">/include/EventVisualisationView</text>
<text text-anchor="middle" x="501" y="-196.5" font-family="Helvetica,sans-Serif" font-size="10.00">/EventManager.h</text>
</a>
</g>
</g>
<!-- Node3&#45;&gt;Node12 -->
<g id="edge12" class="edge"><title>Node3&#45;&gt;Node12</title>
<path fill="none" stroke="midnightblue" d="M548.885,-281.401C541.184,-271.849 533.038,-261.744 525.691,-252.63"/>
<polygon fill="midnightblue" stroke="midnightblue" points="546.22,-283.672 555.221,-289.261 551.67,-279.279 546.22,-283.672"/>
</g>
<!-- Node16 -->
<g id="node16" class="node"><title>Node16</title>
<g id="a_node16"><a xlink:href="../../d5/d40/main_8cxx.html" target="_top" xlink:title="/home/travis/build\l/AliceO2Group/AliceO2\l/EventVisualisation/View\l/src/main.cxx">
<polygon fill="none" stroke="black" points="770.5,-0.5 770.5,-52.5 895.5,-52.5 895.5,-0.5 770.5,-0.5"/>
<text text-anchor="start" x="778.5" y="-40.5" font-family="Helvetica,sans-Serif" font-size="10.00">/home/travis/build</text>
<text text-anchor="start" x="778.5" y="-29.5" font-family="Helvetica,sans-Serif" font-size="10.00">/AliceO2Group/AliceO2</text>
<text text-anchor="start" x="778.5" y="-18.5" font-family="Helvetica,sans-Serif" font-size="10.00">/EventVisualisation/View</text>
<text text-anchor="middle" x="833" y="-7.5" font-family="Helvetica,sans-Serif" font-size="10.00">/src/main.cxx</text>
</a>
</g>
</g>
<!-- Node3&#45;&gt;Node16 -->
<g id="edge23" class="edge"><title>Node3&#45;&gt;Node16</title>
<path fill="none" stroke="midnightblue" d="M667.876,-292.399C690.486,-282.457 713.599,-269.497 732,-253 756.464,-231.068 743.856,-210.149 769,-189 804.51,-159.131 840.442,-191.049 867,-153 888.189,-122.643 868.276,-79.6755 851.227,-52.7134"/>
<polygon fill="midnightblue" stroke="midnightblue" points="666.417,-289.216 658.574,-296.338 669.147,-295.662 666.417,-289.216"/>
</g>
<!-- Node3&#45;&gt;Node17 -->
<g id="edge22" class="edge"><title>Node3&#45;&gt;Node17</title>
<path fill="none" stroke="midnightblue" d="M491.663,-293.993C465.184,-283.736 437.076,-270.209 414,-253 384.844,-231.256 389.642,-213.761 363,-189 346.243,-173.426 325.593,-158.761 307.576,-147.145"/>
<polygon fill="midnightblue" stroke="midnightblue" points="490.74,-297.385 501.332,-297.625 493.201,-290.832 490.74,-297.385"/>
</g>
<!-- Node5&#45;&gt;Node6 -->
<g id="edge5" class="edge"><title>Node5&#45;&gt;Node6</title>
<path fill="none" stroke="midnightblue" d="M1139.26,-182.421C1151.95,-170.581 1165.64,-157.799 1177.16,-147.054"/>
<polygon fill="midnightblue" stroke="midnightblue" points="1136.86,-179.879 1131.93,-189.261 1141.63,-184.997 1136.86,-179.879"/>
</g>
<!-- Node7 -->
<g id="node7" class="node"><title>Node7</title>
<g id="a_node7"><a xlink:href="../../df/d2a/Initializer_8cxx.html" target="_top" xlink:title="/home/travis/build\l/AliceO2Group/AliceO2\l/EventVisualisation/View\l/src/Initializer.cxx">
<polygon fill="none" stroke="black" points="491.5,-0.5 491.5,-52.5 616.5,-52.5 616.5,-0.5 491.5,-0.5"/>
<text text-anchor="start" x="499.5" y="-40.5" font-family="Helvetica,sans-Serif" font-size="10.00">/home/travis/build</text>
<text text-anchor="start" x="499.5" y="-29.5" font-family="Helvetica,sans-Serif" font-size="10.00">/AliceO2Group/AliceO2</text>
<text text-anchor="start" x="499.5" y="-18.5" font-family="Helvetica,sans-Serif" font-size="10.00">/EventVisualisation/View</text>
<text text-anchor="middle" x="554" y="-7.5" font-family="Helvetica,sans-Serif" font-size="10.00">/src/Initializer.cxx</text>
</a>
</g>
</g>
<!-- Node5&#45;&gt;Node7 -->
<g id="edge6" class="edge"><title>Node5&#45;&gt;Node7</title>
<path fill="none" stroke="midnightblue" d="M1101.15,-179.334C1100.34,-149.847 1093.94,-111.364 1069,-89 1017.7,-42.9938 829.419,-61.2127 761,-53 712.646,-47.1958 657.962,-40.4517 616.947,-35.3574"/>
<polygon fill="midnightblue" stroke="midnightblue" points="1097.65,-179.375 1101.23,-189.348 1104.65,-179.322 1097.65,-179.375"/>
</g>
<!-- Node8&#45;&gt;Node7 -->
<g id="edge9" class="edge"><title>Node8&#45;&gt;Node7</title>
<path fill="none" stroke="midnightblue" d="M203.412,-180.971C185.649,-152.476 170.461,-114.521 193,-89 235.841,-40.491 419.018,-67.8902 482,-53 485.097,-52.2678 488.247,-51.4487 491.411,-50.5655"/>
<polygon fill="midnightblue" stroke="midnightblue" points="200.572,-183.024 208.968,-189.487 206.435,-179.199 200.572,-183.024"/>
</g>
<!-- Node8&#45;&gt;Node9 -->
<g id="edge8" class="edge"><title>Node8&#45;&gt;Node9</title>
<path fill="none" stroke="midnightblue" d="M174.077,-183.91C154.077,-171.66 132.185,-158.251 113.904,-147.054"/>
<polygon fill="midnightblue" stroke="midnightblue" points="172.458,-187.023 182.814,-189.261 176.115,-181.053 172.458,-187.023"/>
</g>
<!-- Node10&#45;&gt;Node11 -->
<g id="edge11" class="edge"><title>Node10&#45;&gt;Node11</title>
<path fill="none" stroke="midnightblue" d="M912.609,-182.753C927.22,-170.82 943.042,-157.899 956.322,-147.054"/>
<polygon fill="midnightblue" stroke="midnightblue" points="910.171,-180.225 904.64,-189.261 914.599,-185.647 910.171,-180.225"/>
</g>
<!-- Node12&#45;&gt;Node7 -->
<g id="edge20" class="edge"><title>Node12&#45;&gt;Node7</title>
<path fill="none" stroke="midnightblue" d="M512.098,-179.689C522.648,-141.371 538.186,-84.9368 547.077,-52.6452"/>
<polygon fill="midnightblue" stroke="midnightblue" points="508.678,-178.927 509.398,-189.498 515.427,-180.786 508.678,-178.927"/>
</g>
<!-- Node13 -->
<g id="node13" class="node"><title>Node13</title>
<g id="a_node13"><a xlink:href="../../d9/d30/EventManagerFrame_8h.html" target="_top" xlink:title="GUI (bottom buttons) for visualisation. ">
<polygon fill="none" stroke="black" points="346,-89.5 346,-152.5 502,-152.5 502,-89.5 346,-89.5"/>
<text text-anchor="start" x="354" y="-140.5" font-family="Helvetica,sans-Serif" font-size="10.00">/home/travis/build</text>
<text text-anchor="start" x="354" y="-129.5" font-family="Helvetica,sans-Serif" font-size="10.00">/AliceO2Group/AliceO2</text>
<text text-anchor="start" x="354" y="-118.5" font-family="Helvetica,sans-Serif" font-size="10.00">/EventVisualisation/View</text>
<text text-anchor="start" x="354" y="-107.5" font-family="Helvetica,sans-Serif" font-size="10.00">/include/EventVisualisationView</text>
<text text-anchor="middle" x="424" y="-96.5" font-family="Helvetica,sans-Serif" font-size="10.00">/EventManagerFrame.h</text>
</a>
</g>
</g>
<!-- Node12&#45;&gt;Node13 -->
<g id="edge13" class="edge"><title>Node12&#45;&gt;Node13</title>
<path fill="none" stroke="midnightblue" d="M470.447,-181.114C463.008,-171.647 455.156,-161.652 448.066,-152.63"/>
<polygon fill="midnightblue" stroke="midnightblue" points="467.918,-183.56 476.848,-189.261 473.422,-179.235 467.918,-183.56"/>
</g>
<!-- Node15 -->
<g id="node15" class="node"><title>Node15</title>
<g id="a_node15"><a xlink:href="../../d8/df3/Initializer_8h.html" target="_top" xlink:title="/home/travis/build\l/AliceO2Group/AliceO2\l/EventVisualisation/View\l/include/EventVisualisationView\l/Initializer.h">
<polygon fill="none" stroke="black" points="702,-89.5 702,-152.5 858,-152.5 858,-89.5 702,-89.5"/>
<text text-anchor="start" x="710" y="-140.5" font-family="Helvetica,sans-Serif" font-size="10.00">/home/travis/build</text>
<text text-anchor="start" x="710" y="-129.5" font-family="Helvetica,sans-Serif" font-size="10.00">/AliceO2Group/AliceO2</text>
<text text-anchor="start" x="710" y="-118.5" font-family="Helvetica,sans-Serif" font-size="10.00">/EventVisualisation/View</text>
<text text-anchor="start" x="710" y="-107.5" font-family="Helvetica,sans-Serif" font-size="10.00">/include/EventVisualisationView</text>
<text text-anchor="middle" x="780" y="-96.5" font-family="Helvetica,sans-Serif" font-size="10.00">/Initializer.h</text>
</a>
</g>
</g>
<!-- Node12&#45;&gt;Node15 -->
<g id="edge16" class="edge"><title>Node12&#45;&gt;Node15</title>
<path fill="none" stroke="midnightblue" d="M588.758,-188.744C635.689,-172.301 648.618,-168.15 692,-153 695.211,-151.879 698.488,-150.732 701.798,-149.573"/>
<polygon fill="midnightblue" stroke="midnightblue" points="587.52,-185.469 579.243,-192.083 589.838,-192.074 587.52,-185.469"/>
</g>
<!-- Node12&#45;&gt;Node17 -->
<g id="edge19" class="edge"><title>Node12&#45;&gt;Node17</title>
<path fill="none" stroke="midnightblue" d="M416.093,-185.665C390.62,-175.27 362.639,-163.756 337,-153 332.482,-151.105 327.811,-149.129 323.119,-147.134"/>
<polygon fill="midnightblue" stroke="midnightblue" points="414.774,-188.907 425.355,-189.441 417.416,-182.425 414.774,-188.907"/>
</g>
<!-- Node18 -->
<g id="node18" class="node"><title>Node18</title>
<g id="a_node18"><a xlink:href="../../da/d7a/MultiView_8cxx.html" target="_top" xlink:title="/home/travis/build\l/AliceO2Group/AliceO2\l/EventVisualisation/View\l/src/MultiView.cxx">
<polygon fill="none" stroke="black" points="558.5,-95 558.5,-147 683.5,-147 683.5,-95 558.5,-95"/>
<text text-anchor="start" x="566.5" y="-135" font-family="Helvetica,sans-Serif" font-size="10.00">/home/travis/build</text>
<text text-anchor="start" x="566.5" y="-124" font-family="Helvetica,sans-Serif" font-size="10.00">/AliceO2Group/AliceO2</text>
<text text-anchor="start" x="566.5" y="-113" font-family="Helvetica,sans-Serif" font-size="10.00">/EventVisualisation/View</text>
<text text-anchor="middle" x="621" y="-102" font-family="Helvetica,sans-Serif" font-size="10.00">/src/MultiView.cxx</text>
</a>
</g>
</g>
<!-- Node12&#45;&gt;Node18 -->
<g id="edge21" class="edge"><title>Node12&#45;&gt;Node18</title>
<path fill="none" stroke="midnightblue" d="M546.609,-182.753C561.22,-170.82 577.042,-157.899 590.322,-147.054"/>
<polygon fill="midnightblue" stroke="midnightblue" points="544.171,-180.225 538.64,-189.261 548.599,-185.647 544.171,-180.225"/>
</g>
<!-- Node13&#45;&gt;Node7 -->
<g id="edge15" class="edge"><title>Node13&#45;&gt;Node7</title>
<path fill="none" stroke="midnightblue" d="M475.309,-83.4916C489.77,-73.202 505.178,-62.2385 518.492,-52.7655"/>
<polygon fill="midnightblue" stroke="midnightblue" points="473.046,-80.8063 466.927,-89.4557 477.104,-86.5099 473.046,-80.8063"/>
</g>
<!-- Node14 -->
<g id="node14" class="node"><title>Node14</title>
<g id="a_node14"><a xlink:href="../../d0/dc0/EventManagerFrame_8cxx.html" target="_top" xlink:title="GUI (bottom buttons) for visualisation. ">
<polygon fill="none" stroke="black" points="327,-0.5 327,-52.5 473,-52.5 473,-0.5 327,-0.5"/>
<text text-anchor="start" x="335" y="-40.5" font-family="Helvetica,sans-Serif" font-size="10.00">/home/travis/build</text>
<text text-anchor="start" x="335" y="-29.5" font-family="Helvetica,sans-Serif" font-size="10.00">/AliceO2Group/AliceO2</text>
<text text-anchor="start" x="335" y="-18.5" font-family="Helvetica,sans-Serif" font-size="10.00">/EventVisualisation/View</text>
<text text-anchor="middle" x="400" y="-7.5" font-family="Helvetica,sans-Serif" font-size="10.00">/src/EventManagerFrame.cxx</text>
</a>
</g>
</g>
<!-- Node13&#45;&gt;Node14 -->
<g id="edge14" class="edge"><title>Node13&#45;&gt;Node14</title>
<path fill="none" stroke="midnightblue" d="M413.548,-79.7152C411.172,-70.5599 408.715,-61.0876 406.555,-52.7655"/>
<polygon fill="midnightblue" stroke="midnightblue" points="410.176,-80.6552 416.075,-89.4557 416.951,-78.8972 410.176,-80.6552"/>
</g>
<!-- Node15&#45;&gt;Node7 -->
<g id="edge17" class="edge"><title>Node15&#45;&gt;Node7</title>
<path fill="none" stroke="midnightblue" d="M696.02,-85.6275C669.272,-74.6799 640.198,-62.78 615.363,-52.6152"/>
<polygon fill="midnightblue" stroke="midnightblue" points="694.792,-88.9069 705.373,-89.4557 697.444,-82.4285 694.792,-88.9069"/>
</g>
<!-- Node15&#45;&gt;Node16 -->
<g id="edge18" class="edge"><title>Node15&#45;&gt;Node16</title>
<path fill="none" stroke="midnightblue" d="M802.58,-80.5907C807.981,-71.1657 813.603,-61.3532 818.524,-52.7655"/>
<polygon fill="midnightblue" stroke="midnightblue" points="799.436,-79.039 797.501,-89.4557 805.509,-82.5191 799.436,-79.039"/>
</g>
</g>
</svg>
        <g id="navigator" transform="translate(0 0)" fill="#404254">
                <rect fill="#f2f5e9" fill-opacity="0.5" stroke="#606060" stroke-width=".5" x="0" y="0" width="60" height="60"/>
                <use id="zoomplus" xlink:href="#zoomPlus" x="17" y="9" onmousedown="handleZoom(evt,'in')"/>
                <use id="zoomminus" xlink:href="#zoomMin" x="42" y="9" onmousedown="handleZoom(evt,'out')"/>
                <use id="reset" xlink:href="#resetDef" x="30" y="36" onmousedown="handleReset()"/>
                <g id="arrowUp" xlink:href="#dirArrow" transform="translate(30 24)" onmousedown="handlePan(0,-1)">
                  <use xlink:href="#rim" fill="#404040">
                        <set attributeName="fill" to="#808080" begin="arrowUp.mouseover" end="arrowUp.mouseout"/>
                  </use>
                  <path fill="none" stroke="white" stroke-width="1.5" d="M0,-3.0v7 M-2.5,-0.5L0,-3.0L2.5,-0.5"/>
                </g>
                <g id="arrowRight" xlink:href="#dirArrow" transform="rotate(90) translate(36 -43)" onmousedown="handlePan(1,0)">
                  <use xlink:href="#rim" fill="#404040">
                        <set attributeName="fill" to="#808080" begin="arrowRight.mouseover" end="arrowRight.mouseout"/>
                  </use>
                  <path fill="none" stroke="white" stroke-width="1.5" d="M0,-3.0v7 M-2.5,-0.5L0,-3.0L2.5,-0.5"/>
                </g>
                <g id="arrowDown" xlink:href="#dirArrow" transform="rotate(180) translate(-30 -48)" onmousedown="handlePan(0,1)">
                  <use xlink:href="#rim" fill="#404040">
                        <set attributeName="fill" to="#808080" begin="arrowDown.mouseover" end="arrowDown.mouseout"/>
                  </use>
                  <path fill="none" stroke="white" stroke-width="1.5" d="M0,-3.0v7 M-2.5,-0.5L0,-3.0L2.5,-0.5"/>
                </g>
                <g id="arrowLeft" xlink:href="#dirArrow" transform="rotate(270) translate(-36 17)" onmousedown="handlePan(-1,0)">
                  <use xlink:href="#rim" fill="#404040">
                        <set attributeName="fill" to="#808080" begin="arrowLeft.mouseover" end="arrowLeft.mouseout"/>
                  </use>
                  <path fill="none" stroke="white" stroke-width="1.5" d="M0,-3.0v7 M-2.5,-0.5L0,-3.0L2.5,-0.5"/>
                </g>
        </g>
        <svg viewBox="0 0 15 15" width="100%" height="30px" preserveAspectRatio="xMaxYMin meet">
         <g id="arrow_out" transform="scale(0.3 0.3)">
          <a xlink:href="VisualisationCluster_8h__dep__incl_org.svg" target="_base">
           <rect id="button" ry="5" rx="5" y="6" x="6" height="38" width="38"
                fill="#f2f5e9" fill-opacity="0.5" stroke="#606060" stroke-width="1.0"/>
           <path id="arrow"
             d="M 11.500037,31.436501 C 11.940474,20.09759 22.043105,11.32322 32.158766,21.979434 L 37.068811,17.246167 C 37.068811,17.246167 37.088388,32 37.088388,32 L 22.160133,31.978069 C 22.160133,31.978069 26.997745,27.140456 26.997745,27.140456 C 18.528582,18.264221 13.291696,25.230495 11.500037,31.436501 z"
             style="fill:#404040;"/>
          </a>
         </g>
        </svg>
</svg>
