<?xml version="1.0" encoding="UTF-8" standalone="no"?>
<!DOCTYPE svg PUBLIC "-//W3C//DTD SVG 1.1//EN"
 "http://www.w3.org/Graphics/SVG/1.1/DTD/svg11.dtd">
<!-- Generated by graphviz version 2.38.0 (20140413.2041)
 -->
<!-- Title: o2::data_flow::TimeframeWriterDevice Pages: 1 -->
<svg width="620pt" height="419pt"
 viewBox="0.00 0.00 620.00 419.00" xmlns="http://www.w3.org/2000/svg" xmlns:xlink="http://www.w3.org/1999/xlink">
<g id="graph0" class="graph" transform="scale(1 1) rotate(0) translate(4 415)">
<title>o2::data_flow::TimeframeWriterDevice</title>
<!-- Node1 -->
<g id="node1" class="node"><title>Node1</title>
<polygon fill="#bfbfbf" stroke="black" points="186.5,-0.5 186.5,-112.5 327.5,-112.5 327.5,-0.5 186.5,-0.5"/>
<text text-anchor="start" x="194.5" y="-100.5" font-family="Helvetica,sans-Serif" font-size="10.00">o2::data_flow::Timeframe</text>
<text text-anchor="middle" x="257" y="-89.5" font-family="Helvetica,sans-Serif" font-size="10.00">WriterDevice</text>
<polyline fill="none" stroke="black" points="186.5,-82.5 327.5,-82.5 "/>
<text text-anchor="middle" x="257" y="-70.5" font-family="Helvetica,sans-Serif" font-size="10.00"> </text>
<polyline fill="none" stroke="black" points="186.5,-63.5 327.5,-63.5 "/>
<text text-anchor="start" x="194.5" y="-51.5" font-family="Helvetica,sans-Serif" font-size="10.00">+ TimeframeWriterDevice()</text>
<text text-anchor="start" x="194.5" y="-40.5" font-family="Helvetica,sans-Serif" font-size="10.00">+ ~TimeframeWriterDevice()</text>
<text text-anchor="start" x="194.5" y="-29.5" font-family="Helvetica,sans-Serif" font-size="10.00">+ InitTask()</text>
<text text-anchor="start" x="194.5" y="-18.5" font-family="Helvetica,sans-Serif" font-size="10.00">+ PostRun()</text>
<text text-anchor="start" x="194.5" y="-7.5" font-family="Helvetica,sans-Serif" font-size="10.00"># Run()</text>
</g>
<!-- Node2 -->
<g id="node2" class="node"><title>Node2</title>
<g id="a_node2"><a xlink:href="../../db/d18/classo2_1_1base_1_1O2Device.html" target="_top" xlink:title="{o2::base::O2Device\n||+ ~O2Device()\l+ GetMonitoring()\l+ Init()\l}">
<polygon fill="none" stroke="black" points="50,-215.5 50,-294.5 154,-294.5 154,-215.5 50,-215.5"/>
<text text-anchor="middle" x="102" y="-282.5" font-family="Helvetica,sans-Serif" font-size="10.00">o2::base::O2Device</text>
<polyline fill="none" stroke="black" points="50,-275.5 154,-275.5 "/>
<text text-anchor="middle" x="102" y="-263.5" font-family="Helvetica,sans-Serif" font-size="10.00"> </text>
<polyline fill="none" stroke="black" points="50,-256.5 154,-256.5 "/>
<text text-anchor="start" x="58" y="-244.5" font-family="Helvetica,sans-Serif" font-size="10.00">+ ~O2Device()</text>
<text text-anchor="start" x="58" y="-233.5" font-family="Helvetica,sans-Serif" font-size="10.00">+ GetMonitoring()</text>
<text text-anchor="start" x="58" y="-222.5" font-family="Helvetica,sans-Serif" font-size="10.00">+ Init()</text>
</a>
</g>
</g>
<!-- Node2&#45;&gt;Node1 -->
<g id="edge1" class="edge"><title>Node2&#45;&gt;Node1</title>
<path fill="none" stroke="midnightblue" d="M139.058,-207.02C161.443,-178.642 190.08,-142.337 213.531,-112.608"/>
<polygon fill="none" stroke="midnightblue" points="136.068,-205.159 132.623,-215.178 141.564,-209.494 136.068,-205.159"/>
</g>
<!-- Node3 -->
<g id="node3" class="node"><title>Node3</title>
<g id="a_node3"><a xlink:href="../../db/dfe/classFairMQDevice.html" target="_top" xlink:title="{FairMQDevice\n||}">
<polygon fill="none" stroke="black" points="0,-348 0,-405 80,-405 80,-348 0,-348"/>
<text text-anchor="middle" x="40" y="-393" font-family="Helvetica,sans-Serif" font-size="10.00">FairMQDevice</text>
<polyline fill="none" stroke="black" points="0,-386 80,-386 "/>
<text text-anchor="middle" x="40" y="-374" font-family="Helvetica,sans-Serif" font-size="10.00"> </text>
<polyline fill="none" stroke="black" points="0,-367 80,-367 "/>
<text text-anchor="middle" x="40" y="-355" font-family="Helvetica,sans-Serif" font-size="10.00"> </text>
</a>
</g>
</g>
<!-- Node3&#45;&gt;Node2 -->
<g id="edge2" class="edge"><title>Node3&#45;&gt;Node2</title>
<path fill="none" stroke="midnightblue" d="M59.1741,-338.544C66.3632,-324.687 74.5506,-308.907 81.8275,-294.881"/>
<polygon fill="none" stroke="midnightblue" points="55.8785,-337.296 54.3799,-347.784 62.092,-340.519 55.8785,-337.296"/>
</g>
<!-- Node4 -->
<g id="node4" class="node"><title>Node4</title>
<polygon fill="none" stroke="#bfbfbf" points="98,-342.5 98,-410.5 230,-410.5 230,-342.5 98,-342.5"/>
<text text-anchor="start" x="106" y="-398.5" font-family="Helvetica,sans-Serif" font-size="10.00">unique_ptr&lt; o2::monitoring</text>
<text text-anchor="middle" x="164" y="-387.5" font-family="Helvetica,sans-Serif" font-size="10.00">::Monitoring &gt;</text>
<polyline fill="none" stroke="#bfbfbf" points="98,-380.5 230,-380.5 "/>
<text text-anchor="middle" x="164" y="-368.5" font-family="Helvetica,sans-Serif" font-size="10.00"> </text>
<polyline fill="none" stroke="#bfbfbf" points="98,-361.5 230,-361.5 "/>
<text text-anchor="middle" x="164" y="-349.5" font-family="Helvetica,sans-Serif" font-size="10.00"> </text>
</g>
<!-- Node4&#45;&gt;Node2 -->
<g id="edge3" class="edge"><title>Node4&#45;&gt;Node2</title>
<path fill="none" stroke="#404040" d="M146.73,-342.213C140.799,-330.782 134.028,-317.732 127.581,-305.304"/>
<polygon fill="none" stroke="#404040" points="127.553,-305.251 121.239,-301.768 122.027,-294.6 128.34,-298.083 127.553,-305.251"/>
<text text-anchor="middle" x="164.5" y="-316" font-family="Helvetica,sans-Serif" font-size="10.00"> +monitoring</text>
</g>
<!-- Node5 -->
<g id="node5" class="node"><title>Node5</title>
<polygon fill="none" stroke="#bfbfbf" points="172,-226.5 172,-283.5 222,-283.5 222,-226.5 172,-226.5"/>
<text text-anchor="middle" x="197" y="-271.5" font-family="Helvetica,sans-Serif" font-size="10.00">fstream</text>
<polyline fill="none" stroke="#bfbfbf" points="172,-264.5 222,-264.5 "/>
<text text-anchor="middle" x="197" y="-252.5" font-family="Helvetica,sans-Serif" font-size="10.00"> </text>
<polyline fill="none" stroke="#bfbfbf" points="172,-245.5 222,-245.5 "/>
<text text-anchor="middle" x="197" y="-233.5" font-family="Helvetica,sans-Serif" font-size="10.00"> </text>
</g>
<!-- Node5&#45;&gt;Node1 -->
<g id="edge4" class="edge"><title>Node5&#45;&gt;Node1</title>
<path fill="none" stroke="#404040" d="M199.947,-226.077C203.149,-200.77 209.298,-162.698 220,-131 220.803,-128.621 221.671,-126.222 222.59,-123.817"/>
<polygon fill="none" stroke="#404040" points="222.651,-123.668 221.236,-116.597 227.219,-112.572 228.634,-119.643 222.651,-123.668"/>
<text text-anchor="middle" x="236.5" y="-161.5" font-family="Helvetica,sans-Serif" font-size="10.00"> #mFile</text>
</g>
<!-- Node6 -->
<g id="node6" class="node"><title>Node6</title>
<polygon fill="none" stroke="#bfbfbf" points="240.5,-226.5 240.5,-283.5 281.5,-283.5 281.5,-226.5 240.5,-226.5"/>
<text text-anchor="middle" x="261" y="-271.5" font-family="Helvetica,sans-Serif" font-size="10.00">string</text>
<polyline fill="none" stroke="#bfbfbf" points="240.5,-264.5 281.5,-264.5 "/>
<text text-anchor="middle" x="261" y="-252.5" font-family="Helvetica,sans-Serif" font-size="10.00"> </text>
<polyline fill="none" stroke="#bfbfbf" points="240.5,-245.5 281.5,-245.5 "/>
<text text-anchor="middle" x="261" y="-233.5" font-family="Helvetica,sans-Serif" font-size="10.00"> </text>
</g>
<!-- Node6&#45;&gt;Node1 -->
<g id="edge5" class="edge"><title>Node6&#45;&gt;Node1</title>
<path fill="none" stroke="#404040" d="M259.298,-226.468C258.787,-217.118 258.287,-206.608 258,-197 257.295,-173.401 256.982,-147.548 256.864,-124.578"/>
<polygon fill="none" stroke="#404040" points="256.864,-124.503 252.841,-118.518 256.819,-112.503 260.841,-118.488 256.864,-124.503"/>
<text text-anchor="middle" x="300.5" y="-167" font-family="Helvetica,sans-Serif" font-size="10.00"> #mOutFileName</text>
<text text-anchor="middle" x="300.5" y="-156" font-family="Helvetica,sans-Serif" font-size="10.00">#mInChannelName</text>
</g>
<!-- Node7 -->
<g id="node7" class="node"><title>Node7</title>
<polygon fill="none" stroke="#bfbfbf" points="343.5,-226.5 343.5,-283.5 386.5,-283.5 386.5,-226.5 343.5,-226.5"/>
<text text-anchor="middle" x="365" y="-271.5" font-family="Helvetica,sans-Serif" font-size="10.00">size_t</text>
<polyline fill="none" stroke="#bfbfbf" points="343.5,-264.5 386.5,-264.5 "/>
<text text-anchor="middle" x="365" y="-252.5" font-family="Helvetica,sans-Serif" font-size="10.00"> </text>
<polyline fill="none" stroke="#bfbfbf" points="343.5,-245.5 386.5,-245.5 "/>
<text text-anchor="middle" x="365" y="-233.5" font-family="Helvetica,sans-Serif" font-size="10.00"> </text>
</g>
<!-- Node7&#45;&gt;Node1 -->
<g id="edge6" class="edge"><title>Node7&#45;&gt;Node1</title>
<path fill="none" stroke="#404040" d="M365.271,-226.301C364.37,-200.118 359.932,-160.551 343,-131 340.77,-127.107 338.252,-123.324 335.517,-119.661"/>
<polygon fill="none" stroke="#404040" points="335.419,-119.541 328.523,-117.433 327.816,-110.257 334.713,-112.365 335.419,-119.541"/>
<text text-anchor="middle" x="405.5" y="-178" font-family="Helvetica,sans-Serif" font-size="10.00"> #mMaxFileSize</text>
<text text-anchor="middle" x="405.5" y="-167" font-family="Helvetica,sans-Serif" font-size="10.00">#mMaxTimeframes</text>
<text text-anchor="middle" x="405.5" y="-156" font-family="Helvetica,sans-Serif" font-size="10.00">#mMaxFiles</text>
<text text-anchor="middle" x="405.5" y="-145" font-family="Helvetica,sans-Serif" font-size="10.00">#mFileCount</text>
</g>
<!-- Node8 -->
<g id="node8" class="node"><title>Node8</title>
<polygon fill="none" stroke="#bfbfbf" points="452.5,-226.5 452.5,-283.5 493.5,-283.5 493.5,-226.5 452.5,-226.5"/>
<text text-anchor="middle" x="473" y="-271.5" font-family="Helvetica,sans-Serif" font-size="10.00">static</text>
<polyline fill="none" stroke="#bfbfbf" points="452.5,-264.5 493.5,-264.5 "/>
<text text-anchor="middle" x="473" y="-252.5" font-family="Helvetica,sans-Serif" font-size="10.00"> </text>
<polyline fill="none" stroke="#bfbfbf" points="452.5,-245.5 493.5,-245.5 "/>
<text text-anchor="middle" x="473" y="-233.5" font-family="Helvetica,sans-Serif" font-size="10.00"> </text>
</g>
<!-- Node8&#45;&gt;Node1 -->
<g id="edge7" class="edge"><title>Node8&#45;&gt;Node1</title>
<path fill="none" stroke="#404040" d="M475.392,-226.349C476.22,-199.077 473.169,-157.707 451,-131 423.318,-97.6509 378.794,-79.4136 339.378,-69.45"/>
<polygon fill="none" stroke="#404040" points="339.286,-69.4282 332.528,-71.9451 327.606,-66.6752 334.363,-64.1584 339.286,-69.4282"/>
<text text-anchor="middle" x="543" y="-189" font-family="Helvetica,sans-Serif" font-size="10.00"> +OptionKeyOutputFileName</text>
<text text-anchor="start" x="474" y="-178" font-family="Helvetica,sans-Serif" font-size="10.00">+OptionKeyMaxTimeframesPer</text>
<text text-anchor="middle" x="543" y="-167" font-family="Helvetica,sans-Serif" font-size="10.00">File</text>
<text text-anchor="middle" x="543" y="-156" font-family="Helvetica,sans-Serif" font-size="10.00">+OptionKeyMaxFileSize</text>
<text text-anchor="middle" x="543" y="-145" font-family="Helvetica,sans-Serif" font-size="10.00">+OptionKeyMaxFiles</text>
<text text-anchor="middle" x="543" y="-134" font-family="Helvetica,sans-Serif" font-size="10.00">+OptionKeyInputChannelName</text>
</g>
</g>
</svg>
