<?xml version="1.0" encoding="UTF-8" standalone="no"?>
<!DOCTYPE svg PUBLIC "-//W3C//DTD SVG 1.1//EN"
 "http://www.w3.org/Graphics/SVG/1.1/DTD/svg11.dtd">
<!-- Generated by graphviz version 2.38.0 (20140413.2041)
 -->
<!-- Title: /home/travis/build/AliceO2Group/AliceO2/Detectors/EMCAL/reconstruction/src/ClusterizerParameters.cxx Pages: 1 -->
<svg width="172pt" height="184pt"
 viewBox="0.00 0.00 172.00 184.00" xmlns="http://www.w3.org/2000/svg" xmlns:xlink="http://www.w3.org/1999/xlink">
<g id="graph0" class="graph" transform="scale(1 1) rotate(0) translate(4 180)">
<title>/home/travis/build/AliceO2Group/AliceO2/Detectors/EMCAL/reconstruction/src/ClusterizerParameters.cxx</title>
<!-- Node1 -->
<g id="node1" class="node"><title>Node1</title>
<polygon fill="#bfbfbf" stroke="black" points="0,-123.5 0,-175.5 164,-175.5 164,-123.5 0,-123.5"/>
<text text-anchor="start" x="8" y="-163.5" font-family="Helvetica,sans-Serif" font-size="10.00">/home/travis/build</text>
<text text-anchor="start" x="8" y="-152.5" font-family="Helvetica,sans-Serif" font-size="10.00">/AliceO2Group/AliceO2</text>
<text text-anchor="start" x="8" y="-141.5" font-family="Helvetica,sans-Serif" font-size="10.00">/Detectors/EMCAL/reconstruction</text>
<text text-anchor="middle" x="82" y="-130.5" font-family="Helvetica,sans-Serif" font-size="10.00">/src/ClusterizerParameters.cxx</text>
</g>
<!-- Node2 -->
<g id="node2" class="node"><title>Node2</title>
<g id="a_node2"><a xlink:href="../../d2/d45/ClusterizerParameters_8h.html" target="_top" xlink:title="Definition of the EMCAL clusterizer parameter class. ">
<polygon fill="none" stroke="black" points="19.5,-56.5 19.5,-86.5 144.5,-86.5 144.5,-56.5 19.5,-56.5"/>
<text text-anchor="start" x="27.5" y="-74.5" font-family="Helvetica,sans-Serif" font-size="10.00">EMCALReconstruction</text>
<text text-anchor="middle" x="82" y="-63.5" font-family="Helvetica,sans-Serif" font-size="10.00">/ClusterizerParameters.h</text>
</a>
</g>
</g>
<!-- Node1&#45;&gt;Node2 -->
<g id="edge1" class="edge"><title>Node1&#45;&gt;Node2</title>
<path fill="none" stroke="midnightblue" d="M82,-123.193C82,-114.786 82,-105.443 82,-97.0914"/>
<polygon fill="midnightblue" stroke="midnightblue" points="85.5001,-96.8452 82,-86.8453 78.5001,-96.8453 85.5001,-96.8452"/>
</g>
<!-- Node3 -->
<g id="node3" class="node"><title>Node3</title>
<polygon fill="none" stroke="#bfbfbf" points="54,-0.5 54,-19.5 110,-19.5 110,-0.5 54,-0.5"/>
<text text-anchor="middle" x="82" y="-7.5" font-family="Helvetica,sans-Serif" font-size="10.00">Rtypes.h</text>
</g>
<!-- Node2&#45;&gt;Node3 -->
<g id="edge2" class="edge"><title>Node2&#45;&gt;Node3</title>
<path fill="none" stroke="midnightblue" d="M82,-56.3993C82,-48.4664 82,-38.458 82,-29.8583"/>
<polygon fill="midnightblue" stroke="midnightblue" points="85.5001,-29.6577 82,-19.6578 78.5001,-29.6578 85.5001,-29.6577"/>
</g>
</g>
</svg>
